<?xml version="1.0" encoding="UTF-8"?>
<svg height="600" width="800" xmlns="http://www.w3.org/2000/svg" xmlns:xlink="http://www.w3.org/1999/xlink">
    <g id="Notes" font-family="'LucidaGrande', 'Lucida Grande', sans-serif" font-size="13">
        <rect fill="white" height="600.0" width="800.0" x="0.0" y="0.0" />
        <g font-size="13">
            <text x="18.0" y="176.0">Small</text>
            <text x="18.0" y="376.0">Medium</text>
            <text x="18.0" y="576.0">Large</text>
        </g>
        <g font-size="9">
            <text x="250.0" y="30.0">Ultralight</text>
            <text x="450.0" y="30.0">Regular</text>
            <text x="650.0" y="30.0">Black</text>
            <text id="template-version" fill="#505050" text-anchor="end" x="785.0" y="575.0">Template v.3.0</text>
            <a href="https://github.com/swhitty/SwiftDraw">
                <text fill="#505050" text-anchor="end" x="785.0" y="590.0">https://github.com/swhitty/SwiftDraw</text>
            </a>
        </g>
    </g>
    <g id="Guides" stroke="rgb(39, 170, 225)" stroke-width="0.5">
        <path id="Capline-S" d="M18,76 l800,0" />
        <path id="H-reference" d="M85,145.755 L87.685,145.755 L113.369,79.287 L114.052,79.287 L114.052,76 L112.148,76 L85,145.755 Z M95.693,121.536 L130.996,121.536 L130.263,119.313 L96.474,119.313 L95.693,121.536 Z M139.15,145.755 L141.787,145.755 L114.638,76 L113.466,76 L113.466,79.287 L139.15,145.755 Z" stroke="none" />
        <path id="Baseline-S" d="M18,146 l800,0" />
        <path id="left-margin-Ultralight-S" d="M220,56 l0,110" />
        <path id="right-margin-Ultralight-S" d="M310,56 l0,110" />
        <path id="left-margin-Regular-S" d="M420,56 l0,110" />
        <path id="right-margin-Regular-S" d="M510,56 l0,110" />
        <path id="left-margin-Black-S" d="M620,56 l0,110" />
        <path id="right-margin-Black-S" d="M710,56 l0,110" />
        <path id="Capline-M" d="M18,276 l800,0" />
        <path id="Baseline-M" d="M18,346 l800,0" />
        <path id="Capline-L" d="M18,476 l800,0" />
        <path id="Baseline-L" d="M18,546 l800,0" />
    </g>
    <g id="Symbols">
        <g id="Ultralight-S">
            <path d="M230,94.846 L230,89.462 C230,88.033 230.567,86.664 231.577,85.654 C232.587,84.644 233.957,84.077 235.385,84.077 L253.332,84.077 C254.497,84.08 255.63,84.457 256.563,85.154 L266.615,92.692 C267.805,93.584 268.046,95.272 267.154,96.462 C266.262,97.651 264.574,97.892 263.385,97 L253.332,89.462 L235.385,89.462 L235.385,94.846 C235.385,96.333 234.179,97.538 232.692,97.538 C231.205,97.538 230,96.333 230,94.846 Z M251.538,135.231 L235.385,135.231 L235.385,132.538 C235.385,131.052 234.179,129.846 232.692,129.846 C231.205,129.846 230,131.052 230,132.538 L230,135.439 C230.004,138.297 232.319,140.612 235.176,140.615 L251.538,140.615 C253.025,140.615 254.231,139.41 254.231,137.923 C254.231,136.436 253.025,135.231 251.538,135.231 Z M275.769,135.231 L265,135.231 C263.513,135.231 262.308,136.436 262.308,137.923 C262.308,139.41 263.513,140.615 265,140.615 L275.769,140.615 C277.256,140.615 278.462,139.41 278.462,137.923 C278.462,136.436 277.256,135.231 275.769,135.231 Z M297.308,116.385 C296.594,116.385 295.909,116.668 295.404,117.173 C294.899,117.678 294.615,118.363 294.615,119.077 L294.615,135.231 L289.231,135.231 C287.744,135.231 286.538,136.436 286.538,137.923 C286.538,139.41 287.744,140.615 289.231,140.615 L294.915,140.615 C297.722,140.612 299.996,138.337 300,135.53 L300,119.077 C300,118.363 299.716,117.678 299.211,117.173 C298.707,116.668 298.022,116.385 297.308,116.385 Z M294.615,92.154 L278.462,92.154 C276.975,92.154 275.769,93.359 275.769,94.846 C275.769,96.333 276.975,97.538 278.462,97.538 L294.615,97.538 L294.615,105.615 C294.615,107.102 295.821,108.308 297.308,108.308 C298.795,108.308 300,107.102 300,105.615 L300,97.538 C300,96.11 299.433,94.741 298.423,93.731 C297.413,92.721 296.043,92.154 294.615,92.154 Z M232.692,121.769 C233.406,121.769 234.091,121.486 234.596,120.981 C235.101,120.476 235.385,119.791 235.385,119.077 L235.385,108.308 C235.385,106.821 234.179,105.615 232.692,105.615 C231.205,105.615 230,106.821 230,108.308 L230,119.077 C230,119.791 230.284,120.476 230.789,120.981 C231.293,121.486 231.978,121.769 232.692,121.769 Z" />
        </g>
        <g id="Regular-S">
            <path d="M430,94.846 L430,89.462 C430,88.033 430.567,86.664 431.577,85.654 C432.587,84.644 433.957,84.077 435.385,84.077 L453.332,84.077 C454.497,84.08 455.63,84.457 456.563,85.154 L466.615,92.692 C467.805,93.584 468.046,95.272 467.154,96.462 C466.262,97.651 464.574,97.892 463.385,97 L453.332,89.462 L435.385,89.462 L435.385,94.846 C435.385,96.333 434.179,97.538 432.692,97.538 C431.205,97.538 430,96.333 430,94.846 Z M451.538,135.231 L435.385,135.231 L435.385,132.538 C435.385,131.052 434.179,129.846 432.692,129.846 C431.205,129.846 430,131.052 430,132.538 L430,135.439 C430.004,138.297 432.319,140.612 435.176,140.615 L451.538,140.615 C453.025,140.615 454.231,139.41 454.231,137.923 C454.231,136.436 453.025,135.231 451.538,135.231 Z M475.769,135.231 L465,135.231 C463.513,135.231 462.308,136.436 462.308,137.923 C462.308,139.41 463.513,140.615 465,140.615 L475.769,140.615 C477.256,140.615 478.462,139.41 478.462,137.923 C478.462,136.436 477.256,135.231 475.769,135.231 Z M497.308,116.385 C496.594,116.385 495.909,116.668 495.404,117.173 C494.899,117.678 494.615,118.363 494.615,119.077 L494.615,135.231 L489.231,135.231 C487.744,135.231 486.538,136.436 486.538,137.923 C486.538,139.41 487.744,140.615 489.231,140.615 L494.915,140.615 C497.722,140.612 499.996,138.337 500,135.53 L500,119.077 C500,118.363 499.716,117.678 499.211,117.173 C498.707,116.668 498.022,116.385 497.308,116.385 Z M494.615,92.154 L478.462,92.154 C476.975,92.154 475.769,93.359 475.769,94.846 C475.769,96.333 476.975,97.538 478.462,97.538 L494.615,97.538 L494.615,105.615 C494.615,107.102 495.821,108.308 497.308,108.308 C498.795,108.308 500,107.102 500,105.615 L500,97.538 C500,96.11 499.433,94.741 498.423,93.731 C497.413,92.721 496.043,92.154 494.615,92.154 Z M432.692,121.769 C433.406,121.769 434.091,121.486 434.596,120.981 C435.101,120.476 435.385,119.791 435.385,119.077 L435.385,108.308 C435.385,106.821 434.179,105.615 432.692,105.615 C431.205,105.615 430,106.821 430,108.308 L430,119.077 C430,119.791 430.284,120.476 430.789,120.981 C431.293,121.486 431.978,121.769 432.692,121.769 Z" />
        </g>
        <g id="Black-S">
            <path d="M630,94.846 L630,89.462 C630,88.033 630.567,86.664 631.577,85.654 C632.587,84.644 633.957,84.077 635.385,84.077 L653.332,84.077 C654.497,84.08 655.63,84.457 656.563,85.154 L666.615,92.692 C667.805,93.584 668.046,95.272 667.154,96.462 C666.262,97.651 664.574,97.892 663.385,97 L653.332,89.462 L635.385,89.462 L635.385,94.846 C635.385,96.333 634.179,97.538 632.692,97.538 C631.205,97.538 630,96.333 630,94.846 Z M651.538,135.231 L635.385,135.231 L635.385,132.538 C635.385,131.052 634.179,129.846 632.692,129.846 C631.205,129.846 630,131.052 630,132.538 L630,135.439 C630.004,138.297 632.319,140.612 635.176,140.615 L651.538,140.615 C653.025,140.615 654.231,139.41 654.231,137.923 C654.231,136.436 653.025,135.231 651.538,135.231 Z M675.769,135.231 L665,135.231 C663.513,135.231 662.308,136.436 662.308,137.923 C662.308,139.41 663.513,140.615 665,140.615 L675.769,140.615 C677.256,140.615 678.462,139.41 678.462,137.923 C678.462,136.436 677.256,135.231 675.769,135.231 Z M697.308,116.385 C696.594,116.385 695.909,116.668 695.404,117.173 C694.899,117.678 694.615,118.363 694.615,119.077 L694.615,135.231 L689.231,135.231 C687.744,135.231 686.538,136.436 686.538,137.923 C686.538,139.41 687.744,140.615 689.231,140.615 L694.915,140.615 C697.722,140.612 699.996,138.337 700,135.53 L700,119.077 C700,118.363 699.716,117.678 699.211,117.173 C698.707,116.668 698.022,116.385 697.308,116.385 Z M694.615,92.154 L678.462,92.154 C676.975,92.154 675.769,93.359 675.769,94.846 C675.769,96.333 676.975,97.538 678.462,97.538 L694.615,97.538 L694.615,105.615 C694.615,107.102 695.821,108.308 697.308,108.308 C698.795,108.308 700,107.102 700,105.615 L700,97.538 C700,96.11 699.433,94.741 698.423,93.731 C697.413,92.721 696.044,92.154 694.615,92.154 Z M632.692,121.769 C633.406,121.769 634.091,121.486 634.596,120.981 C635.101,120.476 635.385,119.791 635.385,119.077 L635.385,108.308 C635.385,106.821 634.179,105.615 632.692,105.615 C631.205,105.615 630,106.821 630,108.308 L630,119.077 C630,119.791 630.284,120.476 630.789,120.981 C631.293,121.486 631.978,121.769 632.692,121.769 Z" />
        </g>
    </g>
</svg>