<?xml version="1.0" encoding="UTF-8"?>
<svg height="600" width="800" xmlns="http://www.w3.org/2000/svg" xmlns:xlink="http://www.w3.org/1999/xlink">
    <g id="Notes" font-family="'LucidaGrande', 'Lucida Grande', sans-serif" font-size="13">
        <rect fill="white" height="600.0" width="800.0" x="0.0" y="0.0" />
        <g font-size="13">
            <text x="18.0" y="176.0">Small</text>
            <text x="18.0" y="376.0">Medium</text>
            <text x="18.0" y="576.0">Large</text>
        </g>
        <g font-size="9">
            <text x="250.0" y="30.0">Ultralight</text>
            <text x="450.0" y="30.0">Regular</text>
            <text x="650.0" y="30.0">Black</text>
            <text id="template-version" fill="#505050" text-anchor="end" x="785.0" y="575.0">Template v.3.0</text>
            <a href="https://github.com/swhitty/SwiftDraw">
                <text fill="#505050" text-anchor="end" x="785.0" y="590.0">https://github.com/swhitty/SwiftDraw</text>
            </a>
        </g>
    </g>
    <g id="Guides" stroke="rgb(39, 170, 225)" stroke-width="0.5">
        <path id="Capline-S" d="M18,76 l800,0" />
        <path id="H-reference" d="M85,145.755 L87.685,145.755 L113.369,79.287 L114.052,79.287 L114.052,76 L112.148,76 L85,145.755 Z M95.693,121.536 L130.996,121.536 L130.263,119.313 L96.474,119.313 L95.693,121.536 Z M139.15,145.755 L141.787,145.755 L114.638,76 L113.466,76 L113.466,79.287 L139.15,145.755 Z" stroke="none" />
        <path id="Baseline-S" d="M18,146 l800,0" />
        <path id="left-margin-Ultralight-S" d="M220,56 l0,110" />
        <path id="right-margin-Ultralight-S" d="M310,56 l0,110" />
        <path id="left-margin-Regular-S" d="M420,56 l0,110" />
        <path id="right-margin-Regular-S" d="M510,56 l0,110" />
        <path id="left-margin-Black-S" d="M620,56 l0,110" />
        <path id="right-margin-Black-S" d="M710,56 l0,110" />
        <path id="Capline-M" d="M18,276 l800,0" />
        <path id="Baseline-M" d="M18,346 l800,0" />
        <path id="Capline-L" d="M18,476 l800,0" />
        <path id="Baseline-L" d="M18,546 l800,0" />
    </g>
    <g id="Symbols">
        <g id="Ultralight-S">
            <path d="M300,137.923 C300,138.637 299.716,139.322 299.211,139.827 C298.707,140.332 298.022,140.615 297.308,140.615 L232.692,140.615 C231.978,140.615 231.293,140.332 230.789,139.827 C230.284,139.322 230,138.637 230,137.923 L230,84.077 C230,82.59 231.205,81.385 232.692,81.385 C234.179,81.385 235.385,82.59 235.385,84.077 L235.385,115.836 L252.457,100.904 C253.415,100.066 254.828,100.012 255.846,100.776 L275.638,115.621 L295.534,98.212 C296.245,97.508 297.287,97.256 298.241,97.558 C299.194,97.86 299.902,98.666 300.078,99.65 C300.255,100.635 299.871,101.636 299.081,102.25 L277.543,121.096 C276.585,121.934 275.172,121.988 274.154,121.224 L254.362,106.386 L235.385,122.991 L235.385,135.231 L297.308,135.231 C298.022,135.231 298.707,135.514 299.211,136.019 C299.716,136.524 300,137.209 300,137.923 Z" />
        </g>
        <g id="Regular-S">
            <path d="M500,137.923 C500,138.637 499.716,139.322 499.211,139.827 C498.707,140.332 498.022,140.615 497.308,140.615 L432.692,140.615 C431.978,140.615 431.293,140.332 430.789,139.827 C430.284,139.322 430,138.637 430,137.923 L430,84.077 C430,82.59 431.205,81.385 432.692,81.385 C434.179,81.385 435.385,82.59 435.385,84.077 L435.385,115.836 L452.457,100.904 C453.415,100.066 454.828,100.012 455.846,100.776 L475.638,115.621 L495.534,98.212 C496.245,97.508 497.287,97.256 498.241,97.558 C499.194,97.86 499.902,98.666 500.078,99.65 C500.255,100.635 499.871,101.636 499.081,102.25 L477.543,121.096 C476.585,121.934 475.172,121.988 474.154,121.224 L454.362,106.386 L435.385,122.991 L435.385,135.231 L497.308,135.231 C498.022,135.231 498.707,135.514 499.211,136.019 C499.716,136.524 500,137.209 500,137.923 Z" />
        </g>
        <g id="Black-S">
            <path d="M700,137.923 C700,138.637 699.716,139.322 699.211,139.827 C698.707,140.332 698.022,140.615 697.308,140.615 L632.692,140.615 C631.978,140.615 631.293,140.332 630.789,139.827 C630.284,139.322 630,138.637 630,137.923 L630,84.077 C630,82.59 631.205,81.385 632.692,81.385 C634.179,81.385 635.385,82.59 635.385,84.077 L635.385,115.836 L652.457,100.904 C653.415,100.066 654.828,100.012 655.846,100.776 L675.638,115.621 L695.534,98.212 C696.245,97.508 697.287,97.256 698.241,97.558 C699.194,97.86 699.902,98.666 700.078,99.65 C700.255,100.635 699.871,101.636 699.081,102.25 L677.543,121.096 C676.585,121.934 675.172,121.988 674.154,121.224 L654.362,106.386 L635.385,122.991 L635.385,135.231 L697.308,135.231 C698.022,135.231 698.707,135.514 699.211,136.019 C699.716,136.524 700,137.209 700,137.923 Z" />
        </g>
    </g>
</svg>