<?xml version="1.0" encoding="UTF-8"?>
<svg height="600" width="800" xmlns="http://www.w3.org/2000/svg" xmlns:xlink="http://www.w3.org/1999/xlink">
    <g id="Notes" font-family="'LucidaGrande', 'Lucida Grande', sans-serif" font-size="13">
        <rect fill="white" height="600.0" width="800.0" x="0.0" y="0.0" />
        <g font-size="13">
            <text x="18.0" y="176.0">Small</text>
            <text x="18.0" y="376.0">Medium</text>
            <text x="18.0" y="576.0">Large</text>
        </g>
        <g font-size="9">
            <text x="250.0" y="30.0">Ultralight</text>
            <text x="450.0" y="30.0">Regular</text>
            <text x="650.0" y="30.0">Black</text>
            <text id="template-version" fill="#505050" text-anchor="end" x="785.0" y="575.0">Template v.3.0</text>
            <a href="https://github.com/swhitty/SwiftDraw">
                <text fill="#505050" text-anchor="end" x="785.0" y="590.0">https://github.com/swhitty/SwiftDraw</text>
            </a>
        </g>
    </g>
    <g id="Guides" stroke="rgb(39, 170, 225)" stroke-width="0.5">
        <path id="Capline-S" d="M18,76 l800,0" />
        <path id="H-reference" d="M85,145.755 L87.685,145.755 L113.369,79.287 L114.052,79.287 L114.052,76 L112.148,76 L85,145.755 Z M95.693,121.536 L130.996,121.536 L130.263,119.313 L96.474,119.313 L95.693,121.536 Z M139.15,145.755 L141.787,145.755 L114.638,76 L113.466,76 L113.466,79.287 L139.15,145.755 Z" stroke="none" />
        <path id="Baseline-S" d="M18,146 l800,0" />
        <path id="left-margin-Ultralight-S" d="M220,56 l0,110" />
        <path id="right-margin-Ultralight-S" d="M310,56 l0,110" />
        <path id="left-margin-Regular-S" d="M420,56 l0,110" />
        <path id="right-margin-Regular-S" d="M510,56 l0,110" />
        <path id="left-margin-Black-S" d="M620,56 l0,110" />
        <path id="right-margin-Black-S" d="M710,56 l0,110" />
        <path id="Capline-M" d="M18,276 l800,0" />
        <path id="Baseline-M" d="M18,346 l800,0" />
        <path id="Capline-L" d="M18,476 l800,0" />
        <path id="Baseline-L" d="M18,546 l800,0" />
    </g>
    <g id="Symbols">
        <g id="Ultralight-S">
            <path d="M265,76 C245.67,76 230,91.67 230,111 C230,130.33 245.67,146 265,146 C284.33,146 300,130.33 300,111 C299.979,91.677 284.32,76.02 264.999,76 Z M242.115,92.211 C245.894,96.785 248.197,102.398 248.722,108.308 L235.509,108.308 C236.04,102.399 238.343,96.789 242.115,92.211 Z M267.692,108.308 L267.692,81.509 C273.728,82.056 279.449,84.45 284.075,88.364 C279.29,93.971 276.416,100.957 275.87,108.308 Z M262.308,108.308 L254.13,108.308 C253.584,100.957 250.71,93.971 245.925,88.364 C250.551,84.45 256.272,82.056 262.308,81.509 Z M248.722,113.692 C248.197,119.602 245.894,125.215 242.115,129.789 C238.343,125.211 236.04,119.601 235.509,113.692 Z M254.13,113.692 L262.308,113.692 L262.308,140.491 C256.272,139.944 250.551,137.55 245.925,133.636 C250.709,128.028 253.583,121.043 254.13,113.692 Z M267.692,113.692 L275.87,113.692 C276.417,121.043 279.291,128.028 284.075,133.636 C279.449,137.551 273.728,139.944 267.692,140.491 Z M281.278,113.692 L294.491,113.692 C293.96,119.601 291.657,125.211 287.885,129.789 C284.106,125.215 281.803,119.602 281.278,113.692 Z M281.278,108.308 C281.803,102.398 284.106,96.785 287.885,92.211 C291.657,96.789 293.96,102.399 294.491,108.308 Z" />
        </g>
        <g id="Regular-S">
            <path d="M465,76 C445.67,76 430,91.67 430,111 C430,130.33 445.67,146 465,146 C484.33,146 500,130.33 500,111 C499.979,91.677 484.32,76.02 464.999,76 Z M442.115,92.211 C445.894,96.785 448.197,102.398 448.722,108.308 L435.509,108.308 C436.04,102.399 438.343,96.789 442.115,92.211 Z M467.692,108.308 L467.692,81.509 C473.728,82.056 479.449,84.45 484.075,88.364 C479.29,93.971 476.416,100.957 475.87,108.308 Z M462.308,108.308 L454.13,108.308 C453.584,100.957 450.71,93.971 445.925,88.364 C450.551,84.45 456.272,82.056 462.308,81.509 Z M448.722,113.692 C448.197,119.602 445.894,125.215 442.115,129.789 C438.343,125.211 436.04,119.601 435.509,113.692 Z M454.13,113.692 L462.308,113.692 L462.308,140.491 C456.272,139.944 450.551,137.55 445.925,133.636 C450.709,128.028 453.583,121.043 454.13,113.692 Z M467.692,113.692 L475.87,113.692 C476.417,121.043 479.291,128.028 484.075,133.636 C479.449,137.551 473.728,139.944 467.692,140.491 Z M481.278,113.692 L494.491,113.692 C493.96,119.601 491.657,125.211 487.885,129.789 C484.106,125.215 481.803,119.602 481.278,113.692 Z M481.278,108.308 C481.803,102.398 484.106,96.785 487.885,92.211 C491.657,96.789 493.96,102.399 494.491,108.308 Z" />
        </g>
        <g id="Black-S">
            <path d="M665,76 C645.67,76 630,91.67 630,111 C630,130.33 645.67,146 665,146 C684.33,146 700,130.33 700,111 C699.979,91.677 684.32,76.02 664.999,76 Z M642.115,92.211 C645.894,96.785 648.197,102.398 648.722,108.308 L635.509,108.308 C636.04,102.399 638.343,96.789 642.115,92.211 Z M667.692,108.308 L667.692,81.509 C673.728,82.056 679.449,84.45 684.075,88.364 C679.29,93.971 676.417,100.957 675.87,108.308 Z M662.308,108.308 L654.13,108.308 C653.584,100.957 650.71,93.971 645.925,88.364 C650.551,84.45 656.272,82.056 662.308,81.509 Z M648.722,113.692 C648.197,119.602 645.894,125.215 642.115,129.789 C638.343,125.211 636.04,119.601 635.509,113.692 Z M654.13,113.692 L662.308,113.692 L662.308,140.491 C656.272,139.944 650.551,137.55 645.925,133.636 C650.709,128.028 653.583,121.043 654.13,113.692 Z M667.692,113.692 L675.87,113.692 C676.417,121.043 679.291,128.028 684.075,133.636 C679.449,137.551 673.728,139.944 667.692,140.491 Z M681.278,113.692 L694.491,113.692 C693.96,119.601 691.657,125.211 687.885,129.789 C684.106,125.215 681.803,119.602 681.278,113.692 Z M681.278,108.308 C681.803,102.398 684.106,96.785 687.885,92.211 C691.657,96.789 693.96,102.399 694.491,108.308 Z" />
        </g>
    </g>
</svg>