<?xml version="1.0" encoding="UTF-8"?>
<svg height="600" width="800" xmlns="http://www.w3.org/2000/svg" xmlns:xlink="http://www.w3.org/1999/xlink">
    <g id="Notes" font-family="'LucidaGrande', 'Lucida Grande', sans-serif" font-size="13">
        <rect fill="white" height="600.0" width="800.0" x="0.0" y="0.0" />
        <g font-size="13">
            <text x="18.0" y="176.0">Small</text>
            <text x="18.0" y="376.0">Medium</text>
            <text x="18.0" y="576.0">Large</text>
        </g>
        <g font-size="9">
            <text x="250.0" y="30.0">Ultralight</text>
            <text x="450.0" y="30.0">Regular</text>
            <text x="650.0" y="30.0">Black</text>
            <text id="template-version" fill="#505050" text-anchor="end" x="785.0" y="575.0">Template v.3.0</text>
            <a href="https://github.com/swhitty/SwiftDraw">
                <text fill="#505050" text-anchor="end" x="785.0" y="590.0">https://github.com/swhitty/SwiftDraw</text>
            </a>
        </g>
    </g>
    <g id="Guides" stroke="rgb(39, 170, 225)" stroke-width="0.5">
        <path id="Capline-S" d="M18,76 l800,0" />
        <path id="H-reference" d="M85,145.755 L87.685,145.755 L113.369,79.287 L114.052,79.287 L114.052,76 L112.148,76 L85,145.755 Z M95.693,121.536 L130.996,121.536 L130.263,119.313 L96.474,119.313 L95.693,121.536 Z M139.15,145.755 L141.787,145.755 L114.638,76 L113.466,76 L113.466,79.287 L139.15,145.755 Z" stroke="none" />
        <path id="Baseline-S" d="M18,146 l800,0" />
        <path id="left-margin-Ultralight-S" d="M220,56 l0,110" />
        <path id="right-margin-Ultralight-S" d="M310,56 l0,110" />
        <path id="left-margin-Regular-S" d="M420,56 l0,110" />
        <path id="right-margin-Regular-S" d="M510,56 l0,110" />
        <path id="left-margin-Black-S" d="M620,56 l0,110" />
        <path id="right-margin-Black-S" d="M710,56 l0,110" />
        <path id="Capline-M" d="M18,276 l800,0" />
        <path id="Baseline-M" d="M18,346 l800,0" />
        <path id="Capline-L" d="M18,476 l800,0" />
        <path id="Baseline-L" d="M18,546 l800,0" />
    </g>
    <g id="Symbols">
        <g id="Ultralight-S">
            <path d="M289.231,92.154 C281.576,92.161 274.687,96.797 271.797,103.885 C268.907,110.973 270.591,119.105 276.059,124.462 L253.941,124.462 C260.378,118.155 261.449,108.175 256.499,100.646 C251.549,93.117 241.961,90.146 233.621,93.555 C225.28,96.965 220.519,105.802 222.261,114.642 C224.002,123.483 231.758,129.855 240.769,129.846 L289.231,129.846 C299.639,129.846 308.077,121.408 308.077,111 C308.077,100.592 299.639,92.154 289.231,92.154 Z M227.308,111 C227.308,103.565 233.335,97.538 240.769,97.538 C248.204,97.538 254.231,103.565 254.231,111 C254.231,118.435 248.204,124.462 240.769,124.462 C237.199,124.462 233.775,123.043 231.25,120.519 C228.726,117.994 227.308,114.57 227.308,111 Z M289.231,124.462 C281.796,124.462 275.769,118.435 275.769,111 C275.769,103.565 281.796,97.538 289.231,97.538 C296.665,97.538 302.692,103.565 302.692,111 C302.692,114.57 301.274,117.994 298.75,120.519 C296.225,123.043 292.801,124.462 289.231,124.462 Z" />
        </g>
        <g id="Regular-S">
            <path d="M489.231,92.154 C481.576,92.161 474.687,96.797 471.797,103.885 C468.907,110.973 470.591,119.105 476.059,124.462 L453.941,124.462 C460.378,118.155 461.449,108.175 456.499,100.646 C451.549,93.117 441.961,90.146 433.621,93.555 C425.28,96.965 420.519,105.802 422.261,114.642 C424.002,123.483 431.758,129.855 440.769,129.846 L489.231,129.846 C499.639,129.846 508.077,121.408 508.077,111 C508.077,100.592 499.639,92.154 489.231,92.154 Z M427.308,111 C427.308,103.565 433.335,97.538 440.769,97.538 C448.204,97.538 454.231,103.565 454.231,111 C454.231,118.435 448.204,124.462 440.769,124.462 C437.199,124.462 433.775,123.043 431.25,120.519 C428.726,117.994 427.308,114.57 427.308,111 Z M489.231,124.462 C481.796,124.462 475.769,118.435 475.769,111 C475.769,103.565 481.796,97.538 489.231,97.538 C496.665,97.538 502.692,103.565 502.692,111 C502.692,114.57 501.274,117.994 498.75,120.519 C496.225,123.043 492.801,124.462 489.231,124.462 Z" />
        </g>
        <g id="Black-S">
            <path d="M689.231,92.154 C681.576,92.161 674.687,96.797 671.797,103.885 C668.907,110.973 670.591,119.105 676.059,124.462 L653.941,124.462 C660.378,118.155 661.449,108.175 656.499,100.646 C651.549,93.117 641.961,90.146 633.621,93.555 C625.28,96.965 620.519,105.802 622.261,114.642 C624.002,123.483 631.759,129.855 640.769,129.846 L689.231,129.846 C699.639,129.846 708.077,121.408 708.077,111 C708.077,100.592 699.639,92.154 689.231,92.154 Z M627.308,111 C627.308,103.565 633.335,97.538 640.769,97.538 C648.204,97.538 654.231,103.565 654.231,111 C654.231,118.435 648.204,124.462 640.769,124.462 C637.199,124.462 633.775,123.043 631.25,120.519 C628.726,117.994 627.308,114.57 627.308,111 Z M689.231,124.462 C681.796,124.462 675.769,118.435 675.769,111 C675.769,103.565 681.796,97.538 689.231,97.538 C696.665,97.538 702.692,103.565 702.692,111 C702.692,114.57 701.274,117.994 698.75,120.519 C696.225,123.043 692.801,124.462 689.231,124.462 Z" />
        </g>
    </g>
</svg>