<?xml version="1.0" encoding="UTF-8"?>
<svg height="600" width="800" xmlns="http://www.w3.org/2000/svg" xmlns:xlink="http://www.w3.org/1999/xlink">
    <g id="Notes" font-family="'LucidaGrande', 'Lucida Grande', sans-serif" font-size="13">
        <rect fill="white" height="600.0" width="800.0" x="0.0" y="0.0" />
        <g font-size="13">
            <text x="18.0" y="176.0">Small</text>
            <text x="18.0" y="376.0">Medium</text>
            <text x="18.0" y="576.0">Large</text>
        </g>
        <g font-size="9">
            <text x="250.0" y="30.0">Ultralight</text>
            <text x="450.0" y="30.0">Regular</text>
            <text x="650.0" y="30.0">Black</text>
            <text id="template-version" fill="#505050" text-anchor="end" x="785.0" y="575.0">Template v.3.0</text>
            <a href="https://github.com/swhitty/SwiftDraw">
                <text fill="#505050" text-anchor="end" x="785.0" y="590.0">https://github.com/swhitty/SwiftDraw</text>
            </a>
        </g>
    </g>
    <g id="Guides" stroke="rgb(39, 170, 225)" stroke-width="0.5">
        <path id="Capline-S" d="M18,76 l800,0" />
        <path id="H-reference" d="M85,145.755 L87.685,145.755 L113.369,79.287 L114.052,79.287 L114.052,76 L112.148,76 L85,145.755 Z M95.693,121.536 L130.996,121.536 L130.263,119.313 L96.474,119.313 L95.693,121.536 Z M139.15,145.755 L141.787,145.755 L114.638,76 L113.466,76 L113.466,79.287 L139.15,145.755 Z" stroke="none" />
        <path id="Baseline-S" d="M18,146 l800,0" />
        <path id="left-margin-Ultralight-S" d="M220,56 l0,110" />
        <path id="right-margin-Ultralight-S" d="M310,56 l0,110" />
        <path id="left-margin-Regular-S" d="M420,56 l0,110" />
        <path id="right-margin-Regular-S" d="M510,56 l0,110" />
        <path id="left-margin-Black-S" d="M620,56 l0,110" />
        <path id="right-margin-Black-S" d="M710,56 l0,110" />
        <path id="Capline-M" d="M18,276 l800,0" />
        <path id="Baseline-M" d="M18,346 l800,0" />
        <path id="Capline-L" d="M18,476 l800,0" />
        <path id="Baseline-L" d="M18,546 l800,0" />
    </g>
    <g id="Symbols">
        <g id="Ultralight-S">
            <path d="M286.481,85.248 L291.136,80.597 C292.188,79.543 292.187,77.838 291.135,76.786 C290.082,75.735 288.376,75.736 287.325,76.789 L282.429,81.688 C272.047,74.105 257.953,74.105 247.571,81.688 L242.674,76.788 C241.624,75.736 239.918,75.735 238.865,76.786 C237.813,77.838 237.812,79.543 238.863,80.596 L243.519,85.248 C238.293,90.741 235.38,98.034 235.385,105.615 L235.385,119.077 C235.385,135.433 248.644,148.692 265,148.692 C281.356,148.692 294.615,135.433 294.615,119.077 L294.615,105.615 C294.62,98.033 291.707,90.74 286.481,85.248 Z M265,81.385 C278.376,81.399 289.216,92.239 289.231,105.615 L289.231,108.308 L240.769,108.308 L240.769,105.615 C240.785,92.238 251.625,81.399 265.001,81.385 Z M265,143.308 C251.624,143.293 240.784,132.453 240.769,119.077 L240.769,113.692 L289.231,113.692 L289.231,119.077 C289.215,132.454 278.375,143.293 264.999,143.308 Z M270.385,98.885 C270.385,96.654 272.193,94.846 274.423,94.846 C276.653,94.846 278.462,96.654 278.462,98.885 C278.462,101.115 276.653,102.923 274.423,102.923 C273.352,102.923 272.325,102.498 271.567,101.74 C270.81,100.983 270.385,99.956 270.385,98.885 Z M251.538,98.885 C251.538,96.654 253.347,94.846 255.577,94.846 C257.807,94.846 259.615,96.654 259.615,98.885 C259.615,101.115 257.807,102.923 255.577,102.923 C254.506,102.923 253.479,102.498 252.721,101.74 C251.964,100.983 251.538,99.956 251.538,98.885 Z" />
        </g>
        <g id="Regular-S">
            <path d="M486.481,85.248 L491.136,80.597 C492.188,79.543 492.187,77.838 491.135,76.786 C490.082,75.735 488.376,75.736 487.325,76.789 L482.429,81.688 C472.047,74.105 457.953,74.105 447.571,81.688 L442.674,76.788 C441.624,75.736 439.918,75.735 438.865,76.786 C437.813,77.838 437.812,79.543 438.863,80.596 L443.519,85.248 C438.293,90.741 435.38,98.034 435.385,105.615 L435.385,119.077 C435.385,135.433 448.644,148.692 465,148.692 C481.356,148.692 494.615,135.433 494.615,119.077 L494.615,105.615 C494.62,98.033 491.707,90.74 486.481,85.248 Z M465,81.385 C478.376,81.399 489.216,92.239 489.231,105.615 L489.231,108.308 L440.769,108.308 L440.769,105.615 C440.785,92.238 451.625,81.399 465.001,81.385 Z M465,143.308 C451.624,143.293 440.784,132.453 440.769,119.077 L440.769,113.692 L489.231,113.692 L489.231,119.077 C489.215,132.454 478.375,143.293 464.999,143.308 Z M470.385,98.885 C470.385,96.654 472.193,94.846 474.423,94.846 C476.653,94.846 478.462,96.654 478.462,98.885 C478.462,101.115 476.653,102.923 474.423,102.923 C473.352,102.923 472.325,102.498 471.567,101.74 C470.81,100.983 470.385,99.956 470.385,98.885 Z M451.538,98.885 C451.538,96.654 453.347,94.846 455.577,94.846 C457.807,94.846 459.615,96.654 459.615,98.885 C459.615,101.115 457.807,102.923 455.577,102.923 C454.506,102.923 453.479,102.498 452.721,101.74 C451.964,100.983 451.538,99.956 451.538,98.885 Z" />
        </g>
        <g id="Black-S">
            <path d="M686.481,85.248 L691.136,80.597 C692.188,79.543 692.187,77.838 691.135,76.786 C690.082,75.735 688.376,75.736 687.325,76.789 L682.429,81.688 C672.047,74.105 657.953,74.105 647.571,81.688 L642.674,76.788 C641.624,75.736 639.918,75.735 638.865,76.786 C637.813,77.838 637.812,79.543 638.863,80.596 L643.519,85.248 C638.293,90.741 635.38,98.034 635.385,105.615 L635.385,119.077 C635.385,135.433 648.644,148.692 665,148.692 C681.356,148.692 694.615,135.433 694.615,119.077 L694.615,105.615 C694.62,98.033 691.707,90.74 686.481,85.248 Z M665,81.385 C678.376,81.399 689.216,92.239 689.231,105.615 L689.231,108.308 L640.769,108.308 L640.769,105.615 C640.785,92.238 651.625,81.399 665.001,81.385 Z M665,143.308 C651.624,143.293 640.784,132.453 640.769,119.077 L640.769,113.692 L689.231,113.692 L689.231,119.077 C689.215,132.454 678.375,143.293 664.999,143.308 Z M670.385,98.885 C670.385,96.654 672.193,94.846 674.423,94.846 C676.653,94.846 678.462,96.654 678.462,98.885 C678.462,101.115 676.654,102.923 674.423,102.923 C673.352,102.923 672.325,102.498 671.568,101.74 C670.81,100.983 670.385,99.956 670.385,98.885 Z M651.538,98.885 C651.538,96.654 653.347,94.846 655.577,94.846 C657.807,94.846 659.615,96.654 659.615,98.885 C659.615,101.115 657.807,102.923 655.577,102.923 C654.506,102.923 653.479,102.498 652.721,101.74 C651.964,100.983 651.538,99.956 651.538,98.885 Z" />
        </g>
    </g>
</svg>