<?xml version="1.0" encoding="UTF-8"?>
<svg height="600" width="800" xmlns="http://www.w3.org/2000/svg" xmlns:xlink="http://www.w3.org/1999/xlink">
    <g id="Notes" font-family="'LucidaGrande', 'Lucida Grande', sans-serif" font-size="13">
        <rect fill="white" height="600.0" width="800.0" x="0.0" y="0.0" />
        <g font-size="13">
            <text x="18.0" y="176.0">Small</text>
            <text x="18.0" y="376.0">Medium</text>
            <text x="18.0" y="576.0">Large</text>
        </g>
        <g font-size="9">
            <text x="250.0" y="30.0">Ultralight</text>
            <text x="450.0" y="30.0">Regular</text>
            <text x="650.0" y="30.0">Black</text>
            <text id="template-version" fill="#505050" text-anchor="end" x="785.0" y="575.0">Template v.3.0</text>
            <a href="https://github.com/swhitty/SwiftDraw">
                <text fill="#505050" text-anchor="end" x="785.0" y="590.0">https://github.com/swhitty/SwiftDraw</text>
            </a>
        </g>
    </g>
    <g id="Guides" stroke="rgb(39, 170, 225)" stroke-width="0.5">
        <path id="Capline-S" d="M18,76 l800,0" />
        <path id="H-reference" d="M85,145.755 L87.685,145.755 L113.369,79.287 L114.052,79.287 L114.052,76 L112.148,76 L85,145.755 Z M95.693,121.536 L130.996,121.536 L130.263,119.313 L96.474,119.313 L95.693,121.536 Z M139.15,145.755 L141.787,145.755 L114.638,76 L113.466,76 L113.466,79.287 L139.15,145.755 Z" stroke="none" />
        <path id="Baseline-S" d="M18,146 l800,0" />
        <path id="left-margin-Ultralight-S" d="M220,56 l0,110" />
        <path id="right-margin-Ultralight-S" d="M310,56 l0,110" />
        <path id="left-margin-Regular-S" d="M420,56 l0,110" />
        <path id="right-margin-Regular-S" d="M510,56 l0,110" />
        <path id="left-margin-Black-S" d="M620,56 l0,110" />
        <path id="right-margin-Black-S" d="M710,56 l0,110" />
        <path id="Capline-M" d="M18,276 l800,0" />
        <path id="Baseline-M" d="M18,346 l800,0" />
        <path id="Capline-L" d="M18,476 l800,0" />
        <path id="Baseline-L" d="M18,546 l800,0" />
    </g>
    <g id="Symbols">
        <g id="Ultralight-S">
            <path d="M294.615,81.385 L246.154,81.385 C244.726,81.385 243.356,81.952 242.346,82.962 C241.337,83.972 240.769,85.341 240.769,86.769 L240.769,92.154 L235.385,92.154 C233.957,92.154 232.587,92.721 231.577,93.731 C230.567,94.741 230,96.11 230,97.538 L230,135.231 C230,136.659 230.567,138.028 231.577,139.038 C232.587,140.048 233.957,140.615 235.385,140.615 L283.846,140.615 C285.274,140.615 286.644,140.048 287.654,139.038 C288.663,138.028 289.231,136.659 289.231,135.231 L289.231,129.846 L294.615,129.846 C296.043,129.846 297.413,129.279 298.423,128.269 C299.433,127.259 300,125.89 300,124.462 L300,86.769 C300,85.341 299.433,83.972 298.423,82.962 C297.413,81.952 296.043,81.385 294.615,81.385 Z M246.154,86.769 L294.615,86.769 L294.615,107.887 L291.226,104.501 C290.217,103.491 288.847,102.924 287.419,102.924 C285.99,102.924 284.62,103.491 283.611,104.501 L276.88,111.232 L262.072,96.425 C259.97,94.323 256.562,94.323 254.46,96.425 L246.154,104.73 Z M283.846,135.231 L235.385,135.231 L235.385,97.538 L240.769,97.538 L240.769,124.462 C240.769,125.89 241.337,127.259 242.346,128.269 C243.356,129.279 244.726,129.846 246.154,129.846 L283.846,129.846 Z M294.615,124.462 L246.154,124.462 L246.154,112.346 L258.269,100.231 L274.982,116.943 C276.033,117.994 277.737,117.994 278.788,116.943 L287.424,108.308 L294.615,115.503 L294.615,124.462 Z M275.769,96.192 C275.769,93.962 277.577,92.154 279.808,92.154 C282.038,92.154 283.846,93.962 283.846,96.192 C283.846,98.423 282.038,100.231 279.808,100.231 C278.737,100.231 277.709,99.805 276.952,99.048 C276.195,98.291 275.769,97.263 275.769,96.192 Z" />
        </g>
        <g id="Regular-S">
            <path d="M494.615,81.385 L446.154,81.385 C444.726,81.385 443.356,81.952 442.346,82.962 C441.337,83.972 440.769,85.341 440.769,86.769 L440.769,92.154 L435.385,92.154 C433.957,92.154 432.587,92.721 431.577,93.731 C430.567,94.741 430,96.11 430,97.538 L430,135.231 C430,136.659 430.567,138.028 431.577,139.038 C432.587,140.048 433.957,140.615 435.385,140.615 L483.846,140.615 C485.274,140.615 486.644,140.048 487.654,139.038 C488.663,138.028 489.231,136.659 489.231,135.231 L489.231,129.846 L494.615,129.846 C496.043,129.846 497.413,129.279 498.423,128.269 C499.433,127.259 500,125.89 500,124.462 L500,86.769 C500,85.341 499.433,83.972 498.423,82.962 C497.413,81.952 496.043,81.385 494.615,81.385 Z M446.154,86.769 L494.615,86.769 L494.615,107.887 L491.226,104.501 C490.217,103.491 488.847,102.924 487.418,102.924 C485.99,102.924 484.62,103.491 483.611,104.501 L476.88,111.232 L462.072,96.425 C459.97,94.323 456.562,94.323 454.46,96.425 L446.154,104.73 Z M483.846,135.231 L435.385,135.231 L435.385,97.538 L440.769,97.538 L440.769,124.462 C440.769,125.89 441.337,127.259 442.346,128.269 C443.356,129.279 444.726,129.846 446.154,129.846 L483.846,129.846 Z M494.615,124.462 L446.154,124.462 L446.154,112.346 L458.269,100.231 L474.982,116.943 C476.033,117.994 477.737,117.994 478.788,116.943 L487.424,108.308 L494.615,115.503 L494.615,124.462 Z M475.769,96.192 C475.769,93.962 477.577,92.154 479.808,92.154 C482.038,92.154 483.846,93.962 483.846,96.192 C483.846,98.423 482.038,100.231 479.808,100.231 C478.737,100.231 477.709,99.805 476.952,99.048 C476.195,98.291 475.769,97.263 475.769,96.192 Z" />
        </g>
        <g id="Black-S">
            <path d="M694.615,81.385 L646.154,81.385 C644.726,81.385 643.356,81.952 642.346,82.962 C641.337,83.972 640.769,85.341 640.769,86.769 L640.769,92.154 L635.385,92.154 C633.957,92.154 632.587,92.721 631.577,93.731 C630.567,94.741 630,96.11 630,97.538 L630,135.231 C630,136.659 630.567,138.028 631.577,139.038 C632.587,140.048 633.957,140.615 635.385,140.615 L683.846,140.615 C685.274,140.615 686.644,140.048 687.654,139.038 C688.663,138.028 689.231,136.659 689.231,135.231 L689.231,129.846 L694.615,129.846 C696.044,129.846 697.413,129.279 698.423,128.269 C699.433,127.259 700,125.89 700,124.462 L700,86.769 C700,85.341 699.433,83.972 698.423,82.962 C697.413,81.952 696.044,81.385 694.615,81.385 Z M646.154,86.769 L694.615,86.769 L694.615,107.887 L691.226,104.501 C690.217,103.491 688.847,102.924 687.419,102.924 C685.99,102.924 684.62,103.491 683.611,104.501 L676.88,111.232 L662.072,96.425 C659.97,94.323 656.562,94.323 654.46,96.425 L646.154,104.73 Z M683.846,135.231 L635.385,135.231 L635.385,97.538 L640.769,97.538 L640.769,124.462 C640.769,125.89 641.337,127.259 642.346,128.269 C643.356,129.279 644.726,129.846 646.154,129.846 L683.846,129.846 Z M694.615,124.462 L646.154,124.462 L646.154,112.346 L658.269,100.231 L674.982,116.943 C676.033,117.994 677.737,117.994 678.788,116.943 L687.424,108.308 L694.615,115.503 L694.615,124.462 Z M675.769,96.192 C675.769,93.962 677.577,92.154 679.808,92.154 C682.038,92.154 683.846,93.962 683.846,96.192 C683.846,98.423 682.038,100.231 679.808,100.231 C678.737,100.231 677.709,99.805 676.952,99.048 C676.195,98.291 675.769,97.263 675.769,96.192 Z" />
        </g>
    </g>
</svg>