<?xml version="1.0" encoding="UTF-8"?>
<svg height="600" width="800" xmlns="http://www.w3.org/2000/svg" xmlns:xlink="http://www.w3.org/1999/xlink">
    <g id="Notes" font-family="'LucidaGrande', 'Lucida Grande', sans-serif" font-size="13">
        <rect fill="white" height="600.0" width="800.0" x="0.0" y="0.0" />
        <g font-size="13">
            <text x="18.0" y="176.0">Small</text>
            <text x="18.0" y="376.0">Medium</text>
            <text x="18.0" y="576.0">Large</text>
        </g>
        <g font-size="9">
            <text x="250.0" y="30.0">Ultralight</text>
            <text x="450.0" y="30.0">Regular</text>
            <text x="650.0" y="30.0">Black</text>
            <text id="template-version" fill="#505050" text-anchor="end" x="785.0" y="575.0">Template v.3.0</text>
            <a href="https://github.com/swhitty/SwiftDraw">
                <text fill="#505050" text-anchor="end" x="785.0" y="590.0">https://github.com/swhitty/SwiftDraw</text>
            </a>
        </g>
    </g>
    <g id="Guides" stroke="rgb(39, 170, 225)" stroke-width="0.5">
        <path id="Capline-S" d="M18,76 l800,0" />
        <path id="H-reference" d="M85,145.755 L87.685,145.755 L113.369,79.287 L114.052,79.287 L114.052,76 L112.148,76 L85,145.755 Z M95.693,121.536 L130.996,121.536 L130.263,119.313 L96.474,119.313 L95.693,121.536 Z M139.15,145.755 L141.787,145.755 L114.638,76 L113.466,76 L113.466,79.287 L139.15,145.755 Z" stroke="none" />
        <path id="Baseline-S" d="M18,146 l800,0" />
        <path id="left-margin-Ultralight-S" d="M220,56 l0,110" />
        <path id="right-margin-Ultralight-S" d="M310,56 l0,110" />
        <path id="left-margin-Regular-S" d="M420,56 l0,110" />
        <path id="right-margin-Regular-S" d="M510,56 l0,110" />
        <path id="left-margin-Black-S" d="M620,56 l0,110" />
        <path id="right-margin-Black-S" d="M710,56 l0,110" />
        <path id="Capline-M" d="M18,276 l800,0" />
        <path id="Baseline-M" d="M18,346 l800,0" />
        <path id="Capline-L" d="M18,476 l800,0" />
        <path id="Baseline-L" d="M18,546 l800,0" />
    </g>
    <g id="Symbols">
        <g id="Ultralight-S">
            <path d="M285.751,90.249 C285.246,89.743 284.561,89.459 283.846,89.459 C283.132,89.459 282.446,89.743 281.941,90.249 L271.963,100.231 L258.037,100.231 L248.059,90.249 C247.008,89.198 245.303,89.197 244.25,90.248 C243.198,91.299 243.197,93.005 244.248,94.058 L254.231,104.037 L254.231,117.963 L244.249,127.941 C243.197,128.995 243.198,130.701 244.25,131.752 C245.303,132.803 247.008,132.802 248.06,131.75 L258.037,121.769 L271.963,121.769 L281.941,131.751 C282.992,132.802 284.697,132.803 285.75,131.752 C286.802,130.701 286.803,128.995 285.752,127.942 L275.769,117.963 L275.769,104.037 L285.751,94.059 C286.257,93.554 286.541,92.868 286.541,92.154 C286.541,91.439 286.257,90.754 285.751,90.249 Z M259.615,105.615 L270.385,105.615 L270.385,116.385 L259.615,116.385 Z M268.537,88.563 C270.838,82.063 277.321,78.011 284.172,78.791 C291.023,79.572 296.428,84.977 297.209,91.828 C297.989,98.679 293.937,105.162 287.437,107.463 C287.15,107.572 286.846,107.63 286.538,107.635 C285.228,107.634 284.108,106.69 283.886,105.398 C283.664,104.107 284.405,102.843 285.64,102.405 C289.776,100.94 292.354,96.815 291.857,92.456 C291.361,88.096 287.921,84.656 283.561,84.16 C279.202,83.663 275.077,86.241 273.612,90.377 C273.303,91.3 272.521,91.984 271.565,92.167 C270.609,92.35 269.629,92.003 269.001,91.259 C268.374,90.516 268.196,89.491 268.537,88.58 Z M297.308,128.5 C297.31,135.717 292.113,141.883 285.002,143.102 C277.892,144.321 270.937,140.238 268.536,133.435 C268.07,132.042 268.806,130.533 270.191,130.043 C271.575,129.553 273.097,130.262 273.611,131.638 C275.076,135.774 279.201,138.352 283.561,137.855 C287.92,137.359 291.36,133.919 291.857,129.559 C292.353,125.2 289.775,121.075 285.639,119.61 C284.264,119.096 283.554,117.574 284.044,116.19 C284.534,114.805 286.044,114.069 287.436,114.535 C293.349,116.633 297.302,122.226 297.308,128.5 Z M261.463,133.437 C259.162,139.937 252.679,143.989 245.828,143.209 C238.977,142.428 233.572,137.023 232.791,130.172 C232.011,123.321 236.063,116.838 242.563,114.537 C243.956,114.071 245.465,114.807 245.955,116.192 C246.445,117.576 245.736,119.098 244.36,119.612 C240.224,121.077 237.646,125.202 238.143,129.561 C238.639,133.921 242.079,137.361 246.439,137.857 C250.798,138.354 254.923,135.776 256.388,131.64 C256.902,130.264 258.424,129.555 259.809,130.045 C261.193,130.535 261.929,132.044 261.463,133.437 Z M232.692,93.5 C232.69,86.283 237.887,80.117 244.998,78.898 C252.108,77.679 259.063,81.762 261.464,88.565 C261.804,89.476 261.627,90.501 260.999,91.244 C260.372,91.988 259.392,92.335 258.436,92.152 C257.48,91.969 256.697,91.285 256.389,90.362 C254.924,86.226 250.799,83.648 246.439,84.145 C242.08,84.641 238.64,88.081 238.143,92.441 C237.647,96.8 240.225,100.925 244.361,102.39 C245.62,102.812 246.383,104.089 246.159,105.398 C245.934,106.706 244.789,107.656 243.462,107.635 C243.155,107.635 242.851,107.583 242.563,107.48 C236.645,105.379 232.691,99.78 232.692,93.5 Z" />
        </g>
        <g id="Regular-S">
            <path d="M485.751,90.249 C485.246,89.743 484.561,89.459 483.846,89.459 C483.132,89.459 482.446,89.743 481.941,90.249 L471.963,100.231 L458.037,100.231 L448.059,90.249 C447.008,89.198 445.303,89.197 444.25,90.248 C443.198,91.299 443.197,93.005 444.248,94.058 L454.231,104.037 L454.231,117.963 L444.249,127.941 C443.197,128.995 443.198,130.701 444.25,131.752 C445.303,132.803 447.008,132.802 448.06,131.75 L458.037,121.769 L471.963,121.769 L481.941,131.751 C482.992,132.802 484.697,132.803 485.75,131.752 C486.802,130.701 486.803,128.995 485.752,127.942 L475.769,117.963 L475.769,104.037 L485.751,94.059 C486.257,93.554 486.541,92.868 486.541,92.154 C486.541,91.439 486.257,90.754 485.751,90.249 Z M459.615,105.615 L470.385,105.615 L470.385,116.385 L459.615,116.385 Z M468.537,88.563 C470.838,82.063 477.321,78.011 484.172,78.791 C491.023,79.572 496.428,84.977 497.209,91.828 C497.989,98.679 493.937,105.162 487.437,107.463 C487.15,107.572 486.846,107.63 486.538,107.635 C485.228,107.634 484.108,106.69 483.886,105.398 C483.664,104.107 484.405,102.843 485.64,102.405 C489.776,100.94 492.354,96.815 491.857,92.456 C491.361,88.096 487.921,84.656 483.561,84.16 C479.202,83.663 475.077,86.241 473.612,90.377 C473.303,91.3 472.521,91.984 471.565,92.167 C470.609,92.35 469.629,92.003 469.001,91.259 C468.374,90.516 468.196,89.491 468.537,88.58 Z M497.308,128.5 C497.31,135.717 492.113,141.883 485.002,143.102 C477.892,144.321 470.937,140.238 468.536,133.435 C468.07,132.042 468.806,130.533 470.191,130.043 C471.575,129.553 473.097,130.262 473.611,131.638 C475.076,135.774 479.201,138.352 483.561,137.855 C487.92,137.359 491.36,133.919 491.857,129.559 C492.353,125.2 489.775,121.075 485.639,119.61 C484.264,119.096 483.554,117.574 484.044,116.19 C484.534,114.805 486.044,114.069 487.436,114.535 C493.349,116.633 497.302,122.226 497.308,128.5 Z M461.463,133.437 C459.162,139.937 452.679,143.989 445.828,143.209 C438.977,142.428 433.572,137.023 432.791,130.172 C432.011,123.321 436.063,116.838 442.563,114.537 C443.956,114.071 445.465,114.807 445.955,116.192 C446.445,117.576 445.736,119.098 444.36,119.612 C440.224,121.077 437.646,125.202 438.143,129.561 C438.639,133.921 442.079,137.361 446.439,137.857 C450.798,138.354 454.923,135.776 456.388,131.64 C456.902,130.264 458.424,129.555 459.808,130.045 C461.193,130.535 461.929,132.044 461.463,133.437 Z M432.692,93.5 C432.69,86.283 437.887,80.117 444.998,78.898 C452.108,77.679 459.063,81.762 461.464,88.565 C461.804,89.476 461.627,90.501 460.999,91.244 C460.372,91.988 459.392,92.335 458.436,92.152 C457.48,91.969 456.697,91.285 456.389,90.362 C454.924,86.226 450.799,83.648 446.439,84.145 C442.08,84.641 438.64,88.081 438.143,92.441 C437.647,96.8 440.225,100.925 444.361,102.39 C445.62,102.812 446.383,104.089 446.159,105.398 C445.934,106.706 444.789,107.656 443.462,107.635 C443.155,107.635 442.851,107.583 442.563,107.48 C436.645,105.379 432.691,99.78 432.692,93.5 Z" />
        </g>
        <g id="Black-S">
            <path d="M685.751,90.249 C685.246,89.743 684.561,89.459 683.846,89.459 C683.132,89.459 682.446,89.743 681.941,90.249 L671.963,100.231 L658.037,100.231 L648.059,90.249 C647.008,89.198 645.303,89.197 644.25,90.248 C643.198,91.299 643.197,93.005 644.248,94.058 L654.231,104.037 L654.231,117.963 L644.249,127.941 C643.197,128.995 643.198,130.701 644.25,131.752 C645.303,132.803 647.008,132.802 648.06,131.75 L658.037,121.769 L671.963,121.769 L681.941,131.751 C682.992,132.802 684.697,132.803 685.75,131.752 C686.802,130.701 686.803,128.995 685.752,127.942 L675.769,117.963 L675.769,104.037 L685.751,94.059 C686.257,93.554 686.541,92.868 686.541,92.154 C686.541,91.439 686.257,90.754 685.751,90.249 Z M659.615,105.615 L670.385,105.615 L670.385,116.385 L659.615,116.385 Z M668.537,88.563 C670.838,82.063 677.321,78.011 684.172,78.791 C691.023,79.572 696.428,84.977 697.209,91.828 C697.989,98.679 693.937,105.162 687.437,107.463 C687.15,107.572 686.846,107.63 686.538,107.635 C685.228,107.634 684.108,106.69 683.886,105.398 C683.664,104.107 684.405,102.843 685.64,102.405 C689.776,100.94 692.354,96.815 691.857,92.456 C691.361,88.096 687.921,84.656 683.561,84.16 C679.202,83.663 675.077,86.241 673.612,90.377 C673.303,91.3 672.521,91.984 671.565,92.167 C670.609,92.35 669.629,92.003 669.001,91.259 C668.374,90.516 668.196,89.491 668.537,88.58 Z M697.308,128.5 C697.31,135.717 692.113,141.883 685.002,143.102 C677.892,144.321 670.937,140.238 668.536,133.435 C668.07,132.042 668.806,130.533 670.191,130.043 C671.575,129.553 673.097,130.262 673.611,131.638 C675.076,135.774 679.201,138.352 683.561,137.855 C687.92,137.359 691.36,133.919 691.857,129.559 C692.353,125.2 689.775,121.075 685.639,119.61 C684.264,119.096 683.554,117.574 684.044,116.19 C684.534,114.805 686.044,114.069 687.436,114.535 C693.349,116.633 697.302,122.226 697.308,128.5 Z M661.463,133.437 C659.162,139.937 652.679,143.989 645.828,143.209 C638.977,142.428 633.572,137.023 632.791,130.172 C632.011,123.321 636.063,116.838 642.563,114.537 C643.956,114.071 645.465,114.807 645.955,116.192 C646.445,117.576 645.736,119.098 644.36,119.612 C640.224,121.077 637.646,125.202 638.143,129.561 C638.639,133.921 642.079,137.361 646.439,137.857 C650.798,138.354 654.924,135.776 656.388,131.64 C656.902,130.264 658.424,129.555 659.809,130.045 C661.193,130.535 661.929,132.044 661.463,133.437 Z M632.692,93.5 C632.69,86.283 637.887,80.117 644.998,78.898 C652.108,77.679 659.063,81.762 661.464,88.565 C661.804,89.476 661.627,90.501 660.999,91.244 C660.372,91.988 659.392,92.335 658.436,92.152 C657.48,91.969 656.697,91.285 656.389,90.362 C654.924,86.226 650.799,83.648 646.439,84.145 C642.08,84.641 638.64,88.081 638.143,92.441 C637.647,96.8 640.225,100.925 644.361,102.39 C645.62,102.812 646.383,104.089 646.159,105.398 C645.934,106.706 644.789,107.656 643.462,107.635 C643.155,107.635 642.851,107.583 642.563,107.48 C636.645,105.379 632.691,99.78 632.692,93.5 Z" />
        </g>
    </g>
</svg>