<?xml version="1.0" encoding="UTF-8"?>
<svg height="600" width="800" xmlns="http://www.w3.org/2000/svg" xmlns:xlink="http://www.w3.org/1999/xlink">
    <g id="Notes" font-family="'LucidaGrande', 'Lucida Grande', sans-serif" font-size="13">
        <rect fill="white" height="600.0" width="800.0" x="0.0" y="0.0" />
        <g font-size="13">
            <text x="18.0" y="176.0">Small</text>
            <text x="18.0" y="376.0">Medium</text>
            <text x="18.0" y="576.0">Large</text>
        </g>
        <g font-size="9">
            <text x="250.0" y="30.0">Ultralight</text>
            <text x="450.0" y="30.0">Regular</text>
            <text x="650.0" y="30.0">Black</text>
            <text id="template-version" fill="#505050" text-anchor="end" x="785.0" y="575.0">Template v.3.0</text>
            <a href="https://github.com/swhitty/SwiftDraw">
                <text fill="#505050" text-anchor="end" x="785.0" y="590.0">https://github.com/swhitty/SwiftDraw</text>
            </a>
        </g>
    </g>
    <g id="Guides" stroke="rgb(39, 170, 225)" stroke-width="0.5">
        <path id="Capline-S" d="M18,76 l800,0" />
        <path id="H-reference" d="M85,145.755 L87.685,145.755 L113.369,79.287 L114.052,79.287 L114.052,76 L112.148,76 L85,145.755 Z M95.693,121.536 L130.996,121.536 L130.263,119.313 L96.474,119.313 L95.693,121.536 Z M139.15,145.755 L141.787,145.755 L114.638,76 L113.466,76 L113.466,79.287 L139.15,145.755 Z" stroke="none" />
        <path id="Baseline-S" d="M18,146 l800,0" />
        <path id="left-margin-Ultralight-S" d="M220,56 l0,110" />
        <path id="right-margin-Ultralight-S" d="M310,56 l0,110" />
        <path id="left-margin-Regular-S" d="M420,56 l0,110" />
        <path id="right-margin-Regular-S" d="M510,56 l0,110" />
        <path id="left-margin-Black-S" d="M620,56 l0,110" />
        <path id="right-margin-Black-S" d="M710,56 l0,110" />
        <path id="Capline-M" d="M18,276 l800,0" />
        <path id="Baseline-M" d="M18,346 l800,0" />
        <path id="Capline-L" d="M18,476 l800,0" />
        <path id="Baseline-L" d="M18,546 l800,0" />
    </g>
    <g id="Symbols">
        <g id="Ultralight-S">
            <path d="M254.231,100.231 L248.846,100.231 C248.132,100.231 247.447,100.514 246.942,101.019 C246.438,101.524 246.154,102.209 246.154,102.923 L246.154,119.077 C246.154,120.564 247.359,121.769 248.846,121.769 C250.333,121.769 251.538,120.564 251.538,119.077 L251.538,116.385 L254.231,116.385 C258.692,116.385 262.308,112.768 262.308,108.308 C262.308,103.847 258.692,100.231 254.231,100.231 Z M254.231,111 L251.538,111 L251.538,105.615 L254.231,105.615 C255.718,105.615 256.923,106.821 256.923,108.308 C256.923,109.795 255.718,111 254.231,111 Z M267.692,76 C256.915,76.014 246.741,80.977 240.096,89.462 L235.385,89.462 C233.957,89.462 232.587,90.029 231.577,91.039 C230.567,92.048 230,93.418 230,94.846 L230,127.154 C230,128.582 230.567,129.952 231.577,130.961 C232.587,131.971 233.957,132.538 235.385,132.538 L240.096,132.538 C250.172,145.444 267.849,149.64 282.65,142.639 C297.451,135.638 305.42,119.311 301.834,103.335 C298.248,87.359 284.066,76.004 267.692,76 Z M297.183,108.308 L275.769,108.308 L275.769,94.846 C275.769,93.418 275.202,92.048 274.192,91.039 C273.182,90.029 271.813,89.462 270.385,89.462 L270.385,81.509 C284.604,82.826 295.867,94.088 297.183,108.308 Z M265,81.509 L265,89.462 L247.375,89.462 C252.2,84.921 258.403,82.123 265,81.509 Z M235.385,94.846 L270.385,94.846 L270.385,110.966 C270.38,110.989 270.38,111.011 270.385,111.034 L270.385,127.154 L235.385,127.154 Z M265,132.538 L265,140.491 C258.403,139.877 252.2,137.079 247.375,132.538 Z M270.385,140.491 L270.385,132.538 C271.813,132.538 273.182,131.971 274.192,130.961 C275.202,129.952 275.769,128.582 275.769,127.154 L275.769,113.692 L297.183,113.692 C295.867,127.912 284.604,139.174 270.385,140.491 Z" />
        </g>
        <g id="Regular-S">
            <path d="M454.231,100.231 L448.846,100.231 C448.132,100.231 447.447,100.514 446.942,101.019 C446.438,101.524 446.154,102.209 446.154,102.923 L446.154,119.077 C446.154,120.564 447.359,121.769 448.846,121.769 C450.333,121.769 451.538,120.564 451.538,119.077 L451.538,116.385 L454.231,116.385 C458.692,116.385 462.308,112.768 462.308,108.308 C462.308,103.847 458.692,100.231 454.231,100.231 Z M454.231,111 L451.538,111 L451.538,105.615 L454.231,105.615 C455.718,105.615 456.923,106.821 456.923,108.308 C456.923,109.795 455.718,111 454.231,111 Z M467.692,76 C456.915,76.014 446.741,80.977 440.096,89.462 L435.385,89.462 C433.957,89.462 432.587,90.029 431.577,91.039 C430.567,92.048 430,93.418 430,94.846 L430,127.154 C430,128.582 430.567,129.952 431.577,130.961 C432.587,131.971 433.957,132.538 435.385,132.538 L440.096,132.538 C450.172,145.444 467.849,149.64 482.65,142.639 C497.451,135.638 505.42,119.311 501.834,103.335 C498.248,87.359 484.066,76.004 467.692,76 Z M497.183,108.308 L475.769,108.308 L475.769,94.846 C475.769,93.418 475.202,92.048 474.192,91.039 C473.182,90.029 471.813,89.462 470.385,89.462 L470.385,81.509 C484.604,82.826 495.867,94.088 497.183,108.308 Z M465,81.509 L465,89.462 L447.375,89.462 C452.2,84.921 458.403,82.123 465,81.509 Z M435.385,94.846 L470.385,94.846 L470.385,110.966 C470.38,110.989 470.38,111.011 470.385,111.034 L470.385,127.154 L435.385,127.154 Z M465,132.538 L465,140.491 C458.403,139.877 452.2,137.079 447.375,132.538 Z M470.385,140.491 L470.385,132.538 C471.813,132.538 473.182,131.971 474.192,130.961 C475.202,129.952 475.769,128.582 475.769,127.154 L475.769,113.692 L497.183,113.692 C495.867,127.912 484.604,139.174 470.385,140.491 Z" />
        </g>
        <g id="Black-S">
            <path d="M654.231,100.231 L648.846,100.231 C648.132,100.231 647.447,100.514 646.942,101.019 C646.438,101.524 646.154,102.209 646.154,102.923 L646.154,119.077 C646.154,120.564 647.359,121.769 648.846,121.769 C650.333,121.769 651.538,120.564 651.538,119.077 L651.538,116.385 L654.231,116.385 C658.692,116.385 662.308,112.768 662.308,108.308 C662.308,103.847 658.692,100.231 654.231,100.231 Z M654.231,111 L651.538,111 L651.538,105.615 L654.231,105.615 C655.718,105.615 656.923,106.821 656.923,108.308 C656.923,109.795 655.718,111 654.231,111 Z M667.692,76 C656.915,76.014 646.741,80.977 640.096,89.462 L635.385,89.462 C633.957,89.462 632.587,90.029 631.577,91.039 C630.567,92.048 630,93.418 630,94.846 L630,127.154 C630,128.582 630.567,129.952 631.577,130.961 C632.587,131.971 633.957,132.538 635.385,132.538 L640.096,132.538 C650.172,145.444 667.849,149.64 682.65,142.639 C697.451,135.638 705.42,119.311 701.834,103.335 C698.248,87.359 684.066,76.004 667.692,76 Z M697.183,108.308 L675.769,108.308 L675.769,94.846 C675.769,93.418 675.202,92.048 674.192,91.039 C673.182,90.029 671.813,89.462 670.385,89.462 L670.385,81.509 C684.604,82.826 695.867,94.088 697.183,108.308 Z M665,81.509 L665,89.462 L647.375,89.462 C652.2,84.921 658.403,82.123 665,81.509 Z M635.385,94.846 L670.385,94.846 L670.385,110.966 C670.38,110.989 670.38,111.011 670.385,111.034 L670.385,127.154 L635.385,127.154 Z M665,132.538 L665,140.491 C658.403,139.877 652.2,137.079 647.375,132.538 Z M670.385,140.491 L670.385,132.538 C671.813,132.538 673.182,131.971 674.192,130.961 C675.202,129.952 675.769,128.582 675.769,127.154 L675.769,113.692 L697.183,113.692 C695.867,127.912 684.604,139.174 670.385,140.491 Z" />
        </g>
    </g>
</svg>