<?xml version="1.0" encoding="UTF-8"?>
<svg height="600" width="800" xmlns="http://www.w3.org/2000/svg" xmlns:xlink="http://www.w3.org/1999/xlink">
    <g id="Notes" font-family="'LucidaGrande', 'Lucida Grande', sans-serif" font-size="13">
        <rect fill="white" height="600.0" width="800.0" x="0.0" y="0.0" />
        <g font-size="13">
            <text x="18.0" y="176.0">Small</text>
            <text x="18.0" y="376.0">Medium</text>
            <text x="18.0" y="576.0">Large</text>
        </g>
        <g font-size="9">
            <text x="250.0" y="30.0">Ultralight</text>
            <text x="450.0" y="30.0">Regular</text>
            <text x="650.0" y="30.0">Black</text>
            <text id="template-version" fill="#505050" text-anchor="end" x="785.0" y="575.0">Template v.3.0</text>
            <a href="https://github.com/swhitty/SwiftDraw">
                <text fill="#505050" text-anchor="end" x="785.0" y="590.0">https://github.com/swhitty/SwiftDraw</text>
            </a>
        </g>
    </g>
    <g id="Guides" stroke="rgb(39, 170, 225)" stroke-width="0.5">
        <path id="Capline-S" d="M18,76 l800,0" />
        <path id="H-reference" d="M85,145.755 L87.685,145.755 L113.369,79.287 L114.052,79.287 L114.052,76 L112.148,76 L85,145.755 Z M95.693,121.536 L130.996,121.536 L130.263,119.313 L96.474,119.313 L95.693,121.536 Z M139.15,145.755 L141.787,145.755 L114.638,76 L113.466,76 L113.466,79.287 L139.15,145.755 Z" stroke="none" />
        <path id="Baseline-S" d="M18,146 l800,0" />
        <path id="left-margin-Ultralight-S" d="M220,56 l0,110" />
        <path id="right-margin-Ultralight-S" d="M310,56 l0,110" />
        <path id="left-margin-Regular-S" d="M420,56 l0,110" />
        <path id="right-margin-Regular-S" d="M510,56 l0,110" />
        <path id="left-margin-Black-S" d="M620,56 l0,110" />
        <path id="right-margin-Black-S" d="M710,56 l0,110" />
        <path id="Capline-M" d="M18,276 l800,0" />
        <path id="Baseline-M" d="M18,346 l800,0" />
        <path id="Capline-L" d="M18,476 l800,0" />
        <path id="Baseline-L" d="M18,546 l800,0" />
    </g>
    <g id="Symbols">
        <g id="Ultralight-S">
            <path d="M279.808,113.692 C282.038,113.692 283.846,115.5 283.846,117.731 C283.846,119.961 282.038,121.769 279.808,121.769 C277.577,121.769 275.769,119.961 275.769,117.731 C275.769,116.66 276.195,115.633 276.952,114.875 C277.709,114.118 278.737,113.692 279.808,113.692 Z M284.055,102.671 L261.941,92.352 C250.181,93.844 241.229,103.63 240.789,115.476 L263.735,103.239 C264.569,102.795 265.575,102.821 266.386,103.308 C267.196,103.794 267.692,104.67 267.692,105.615 L267.692,140.464 C277.248,139.429 285.276,132.817 288.124,123.637 C288.556,122.233 290.067,121.435 291.492,121.874 C292.916,122.313 293.715,123.824 293.276,125.248 C289.86,136.06 280.57,143.973 269.352,145.625 C258.134,147.277 246.958,142.38 240.569,133.012 C234.181,123.644 233.702,111.451 239.336,101.611 C234.34,99.074 231.735,93.443 233.036,87.994 C234.337,82.545 239.205,78.698 244.808,78.692 C245.201,78.693 245.589,78.779 245.945,78.945 L285.741,97.515 C289.333,97.214 292.051,94.135 291.904,90.533 C291.757,86.931 288.797,84.084 285.192,84.077 C283.705,84.077 282.5,82.872 282.5,81.385 C282.5,79.898 283.705,78.692 285.192,78.692 C291.883,78.692 297.308,84.117 297.308,90.808 C297.308,97.499 291.883,102.923 285.192,102.923 C284.799,102.922 284.411,102.836 284.055,102.671 Z M251.538,136.52 L251.538,115.846 L241.277,121.318 C242.579,127.532 246.262,132.989 251.538,136.52 Z M262.308,110.101 L256.923,112.975 L256.923,139.225 C258.664,139.844 260.471,140.258 262.308,140.461 Z M254.275,88.788 L244.259,84.1 C241.113,84.365 238.573,86.782 238.153,89.911 C237.732,93.041 239.544,96.042 242.509,97.128 C242.711,96.889 242.913,96.65 243.128,96.418 C246.206,93.05 250.021,90.439 254.275,88.788 Z" />
        </g>
        <g id="Regular-S">
            <path d="M479.808,113.692 C482.038,113.692 483.846,115.5 483.846,117.731 C483.846,119.961 482.038,121.769 479.808,121.769 C477.577,121.769 475.769,119.961 475.769,117.731 C475.769,116.66 476.195,115.633 476.952,114.875 C477.709,114.118 478.737,113.692 479.808,113.692 Z M484.055,102.671 L461.941,92.352 C450.181,93.844 441.229,103.63 440.789,115.476 L463.735,103.239 C464.569,102.795 465.575,102.821 466.386,103.308 C467.196,103.794 467.692,104.67 467.692,105.615 L467.692,140.464 C477.248,139.429 485.276,132.817 488.124,123.637 C488.556,122.233 490.067,121.435 491.492,121.874 C492.916,122.313 493.715,123.824 493.276,125.248 C489.86,136.06 480.57,143.973 469.352,145.625 C458.134,147.277 446.958,142.38 440.569,133.012 C434.181,123.644 433.702,111.451 439.336,101.611 C434.34,99.074 431.735,93.443 433.036,87.994 C434.337,82.545 439.205,78.698 444.808,78.692 C445.201,78.693 445.589,78.779 445.945,78.945 L485.741,97.515 C489.333,97.214 492.051,94.135 491.904,90.533 C491.757,86.931 488.797,84.084 485.192,84.077 C483.705,84.077 482.5,82.872 482.5,81.385 C482.5,79.898 483.705,78.692 485.192,78.692 C491.883,78.692 497.308,84.117 497.308,90.808 C497.308,97.499 491.883,102.923 485.192,102.923 C484.799,102.922 484.411,102.836 484.055,102.671 Z M451.538,136.52 L451.538,115.846 L441.277,121.318 C442.579,127.532 446.262,132.989 451.538,136.52 Z M462.308,110.101 L456.923,112.975 L456.923,139.225 C458.664,139.844 460.471,140.258 462.308,140.461 Z M454.275,88.788 L444.259,84.1 C441.113,84.365 438.573,86.782 438.153,89.911 C437.732,93.041 439.544,96.042 442.509,97.128 C442.711,96.889 442.913,96.65 443.128,96.418 C446.206,93.05 450.021,90.439 454.275,88.788 Z" />
        </g>
        <g id="Black-S">
            <path d="M679.808,113.692 C682.038,113.692 683.846,115.5 683.846,117.731 C683.846,119.961 682.038,121.769 679.808,121.769 C677.577,121.769 675.769,119.961 675.769,117.731 C675.769,116.66 676.195,115.633 676.952,114.875 C677.709,114.118 678.737,113.692 679.808,113.692 Z M684.055,102.671 L661.941,92.352 C650.181,93.844 641.229,103.63 640.789,115.476 L663.735,103.239 C664.569,102.795 665.575,102.821 666.386,103.308 C667.196,103.794 667.692,104.67 667.692,105.615 L667.692,140.464 C677.248,139.429 685.276,132.817 688.124,123.637 C688.556,122.233 690.067,121.435 691.492,121.874 C692.916,122.313 693.715,123.824 693.276,125.248 C689.86,136.06 680.57,143.973 669.352,145.625 C658.134,147.277 646.958,142.38 640.569,133.012 C634.181,123.644 633.702,111.451 639.336,101.611 C634.34,99.074 631.735,93.443 633.036,87.994 C634.337,82.545 639.205,78.698 644.808,78.692 C645.201,78.693 645.589,78.779 645.945,78.945 L685.741,97.515 C689.333,97.214 692.051,94.135 691.904,90.533 C691.757,86.931 688.797,84.084 685.192,84.077 C683.705,84.077 682.5,82.872 682.5,81.385 C682.5,79.898 683.705,78.692 685.192,78.692 C691.883,78.692 697.308,84.117 697.308,90.808 C697.308,97.499 691.883,102.923 685.192,102.923 C684.799,102.922 684.411,102.836 684.055,102.671 Z M651.538,136.52 L651.538,115.846 L641.277,121.318 C642.579,127.532 646.262,132.989 651.539,136.52 Z M662.308,110.101 L656.923,112.975 L656.923,139.225 C658.664,139.844 660.471,140.258 662.308,140.461 Z M654.275,88.788 L644.259,84.1 C641.113,84.365 638.573,86.782 638.153,89.911 C637.732,93.041 639.544,96.042 642.509,97.128 C642.711,96.889 642.913,96.65 643.128,96.418 C646.206,93.05 650.021,90.439 654.275,88.788 Z" />
        </g>
    </g>
</svg>