<?xml version="1.0" encoding="UTF-8"?>
<svg height="600" width="800" xmlns="http://www.w3.org/2000/svg" xmlns:xlink="http://www.w3.org/1999/xlink">
    <g id="Notes" font-family="'LucidaGrande', 'Lucida Grande', sans-serif" font-size="13">
        <rect fill="white" height="600.0" width="800.0" x="0.0" y="0.0" />
        <g font-size="13">
            <text x="18.0" y="176.0">Small</text>
            <text x="18.0" y="376.0">Medium</text>
            <text x="18.0" y="576.0">Large</text>
        </g>
        <g font-size="9">
            <text x="250.0" y="30.0">Ultralight</text>
            <text x="450.0" y="30.0">Regular</text>
            <text x="650.0" y="30.0">Black</text>
            <text id="template-version" fill="#505050" text-anchor="end" x="785.0" y="575.0">Template v.3.0</text>
            <a href="https://github.com/swhitty/SwiftDraw">
                <text fill="#505050" text-anchor="end" x="785.0" y="590.0">https://github.com/swhitty/SwiftDraw</text>
            </a>
        </g>
    </g>
    <g id="Guides" stroke="rgb(39, 170, 225)" stroke-width="0.5">
        <path id="Capline-S" d="M18,76 l800,0" />
        <path id="H-reference" d="M85,145.755 L87.685,145.755 L113.369,79.287 L114.052,79.287 L114.052,76 L112.148,76 L85,145.755 Z M95.693,121.536 L130.996,121.536 L130.263,119.313 L96.474,119.313 L95.693,121.536 Z M139.15,145.755 L141.787,145.755 L114.638,76 L113.466,76 L113.466,79.287 L139.15,145.755 Z" stroke="none" />
        <path id="Baseline-S" d="M18,146 l800,0" />
        <path id="left-margin-Ultralight-S" d="M220,56 l0,110" />
        <path id="right-margin-Ultralight-S" d="M310,56 l0,110" />
        <path id="left-margin-Regular-S" d="M420,56 l0,110" />
        <path id="right-margin-Regular-S" d="M510,56 l0,110" />
        <path id="left-margin-Black-S" d="M620,56 l0,110" />
        <path id="right-margin-Black-S" d="M710,56 l0,110" />
        <path id="Capline-M" d="M18,276 l800,0" />
        <path id="Baseline-M" d="M18,346 l800,0" />
        <path id="Capline-L" d="M18,476 l800,0" />
        <path id="Baseline-L" d="M18,546 l800,0" />
    </g>
    <g id="Symbols">
        <g id="Ultralight-S">
            <path d="M265,76 C245.67,76 230,91.67 230,111 C230,130.33 245.67,146 265,146 C284.33,146 300,130.33 300,111 C299.979,91.677 284.32,76.02 264.999,76 Z M265,140.615 C248.644,140.615 235.385,127.356 235.385,111 C235.385,94.644 248.644,81.385 265,81.385 C281.356,81.385 294.615,94.644 294.615,111 C294.598,127.347 281.35,140.596 265.001,140.615 Z M272.289,99.443 L260.729,111 L272.289,122.557 C273.342,123.61 273.341,125.316 272.288,126.367 C271.236,127.419 269.53,127.418 268.479,126.365 L255.017,112.904 C254.512,112.399 254.228,111.714 254.228,110.999 C254.228,110.284 254.512,109.599 255.017,109.094 L268.479,95.633 C269.529,94.581 271.235,94.58 272.287,95.632 C273.34,96.683 273.341,98.389 272.289,99.441 Z" />
        </g>
        <g id="Regular-S">
            <path d="M465,76 C445.67,76 430,91.67 430,111 C430,130.33 445.67,146 465,146 C484.33,146 500,130.33 500,111 C499.979,91.677 484.32,76.02 464.999,76 Z M465,140.615 C448.644,140.615 435.385,127.356 435.385,111 C435.385,94.644 448.644,81.385 465,81.385 C481.356,81.385 494.615,94.644 494.615,111 C494.598,127.347 481.35,140.596 465.001,140.615 Z M472.289,99.443 L460.729,111 L472.289,122.557 C473.342,123.61 473.341,125.316 472.288,126.367 C471.236,127.419 469.53,127.418 468.479,126.365 L455.017,112.904 C454.512,112.399 454.228,111.714 454.228,110.999 C454.228,110.284 454.512,109.599 455.017,109.094 L468.479,95.633 C469.529,94.581 471.235,94.58 472.287,95.632 C473.34,96.683 473.341,98.389 472.289,99.441 Z" />
        </g>
        <g id="Black-S">
            <path d="M665,76 C645.67,76 630,91.67 630,111 C630,130.33 645.67,146 665,146 C684.33,146 700,130.33 700,111 C699.979,91.677 684.32,76.02 664.999,76 Z M665,140.615 C648.644,140.615 635.385,127.356 635.385,111 C635.385,94.644 648.644,81.385 665,81.385 C681.356,81.385 694.615,94.644 694.615,111 C694.598,127.347 681.35,140.596 665.001,140.615 Z M672.289,99.443 L660.729,111 L672.289,122.557 C673.342,123.61 673.341,125.316 672.288,126.367 C671.236,127.419 669.53,127.418 668.479,126.365 L655.017,112.904 C654.512,112.399 654.228,111.714 654.228,110.999 C654.228,110.284 654.512,109.599 655.017,109.094 L668.479,95.633 C669.529,94.581 671.235,94.58 672.287,95.632 C673.34,96.683 673.341,98.389 672.289,99.441 Z" />
        </g>
    </g>
</svg>