<?xml version="1.0" encoding="UTF-8"?>
<svg height="600" width="800" xmlns="http://www.w3.org/2000/svg" xmlns:xlink="http://www.w3.org/1999/xlink">
    <g id="Notes" font-family="'LucidaGrande', 'Lucida Grande', sans-serif" font-size="13">
        <rect fill="white" height="600.0" width="800.0" x="0.0" y="0.0" />
        <g font-size="13">
            <text x="18.0" y="176.0">Small</text>
            <text x="18.0" y="376.0">Medium</text>
            <text x="18.0" y="576.0">Large</text>
        </g>
        <g font-size="9">
            <text x="250.0" y="30.0">Ultralight</text>
            <text x="450.0" y="30.0">Regular</text>
            <text x="650.0" y="30.0">Black</text>
            <text id="template-version" fill="#505050" text-anchor="end" x="785.0" y="575.0">Template v.3.0</text>
            <a href="https://github.com/swhitty/SwiftDraw">
                <text fill="#505050" text-anchor="end" x="785.0" y="590.0">https://github.com/swhitty/SwiftDraw</text>
            </a>
        </g>
    </g>
    <g id="Guides" stroke="rgb(39, 170, 225)" stroke-width="0.5">
        <path id="Capline-S" d="M18,76 l800,0" />
        <path id="H-reference" d="M85,145.755 L87.685,145.755 L113.369,79.287 L114.052,79.287 L114.052,76 L112.148,76 L85,145.755 Z M95.693,121.536 L130.996,121.536 L130.263,119.313 L96.474,119.313 L95.693,121.536 Z M139.15,145.755 L141.787,145.755 L114.638,76 L113.466,76 L113.466,79.287 L139.15,145.755 Z" stroke="none" />
        <path id="Baseline-S" d="M18,146 l800,0" />
        <path id="left-margin-Ultralight-S" d="M220,56 l0,110" />
        <path id="right-margin-Ultralight-S" d="M310,56 l0,110" />
        <path id="left-margin-Regular-S" d="M420,56 l0,110" />
        <path id="right-margin-Regular-S" d="M510,56 l0,110" />
        <path id="left-margin-Black-S" d="M620,56 l0,110" />
        <path id="right-margin-Black-S" d="M710,56 l0,110" />
        <path id="Capline-M" d="M18,276 l800,0" />
        <path id="Baseline-M" d="M18,346 l800,0" />
        <path id="Capline-L" d="M18,476 l800,0" />
        <path id="Baseline-L" d="M18,546 l800,0" />
    </g>
    <g id="Symbols">
        <g id="Ultralight-S">
            <path d="M289.167,79.365 C287.454,78.416 285.361,78.472 283.701,79.51 L243.462,104.683 L243.462,81.385 C243.462,79.898 242.256,78.692 240.769,78.692 C239.282,78.692 238.077,79.898 238.077,81.385 L238.077,140.615 C238.077,142.102 239.282,143.308 240.769,143.308 C242.256,143.308 243.462,142.102 243.462,140.615 L243.462,117.317 L283.701,142.483 C285.352,143.519 287.434,143.579 289.141,142.641 C290.849,141.702 291.913,139.912 291.923,137.963 L291.923,84.037 C291.923,82.095 290.868,80.305 289.167,79.366 Z M286.538,137.923 L243.515,111 L286.538,84.1 Z" />
        </g>
        <g id="Regular-S">
            <path d="M489.167,79.365 C487.454,78.416 485.361,78.472 483.701,79.51 L443.462,104.683 L443.462,81.385 C443.462,79.898 442.256,78.692 440.769,78.692 C439.282,78.692 438.077,79.898 438.077,81.385 L438.077,140.615 C438.077,142.102 439.282,143.308 440.769,143.308 C442.256,143.308 443.462,142.102 443.462,140.615 L443.462,117.317 L483.701,142.483 C485.352,143.519 487.434,143.579 489.141,142.641 C490.849,141.702 491.913,139.912 491.923,137.963 L491.923,84.037 C491.923,82.095 490.868,80.305 489.167,79.366 Z M486.538,137.923 L443.515,111 L486.538,84.1 Z" />
        </g>
        <g id="Black-S">
            <path d="M689.167,79.365 C687.454,78.416 685.361,78.472 683.701,79.51 L643.462,104.683 L643.462,81.385 C643.462,79.898 642.256,78.692 640.769,78.692 C639.282,78.692 638.077,79.898 638.077,81.385 L638.077,140.615 C638.077,142.102 639.282,143.308 640.769,143.308 C642.256,143.308 643.462,142.102 643.462,140.615 L643.462,117.317 L683.701,142.483 C685.352,143.519 687.434,143.579 689.141,142.641 C690.849,141.702 691.913,139.912 691.923,137.963 L691.923,84.037 C691.923,82.095 690.868,80.305 689.167,79.366 Z M686.538,137.923 L643.515,111 L686.538,84.1 Z" />
        </g>
    </g>
</svg>