<?xml version="1.0" encoding="UTF-8"?>
<svg height="600" width="800" xmlns="http://www.w3.org/2000/svg" xmlns:xlink="http://www.w3.org/1999/xlink">
    <g id="Notes" font-family="'LucidaGrande', 'Lucida Grande', sans-serif" font-size="13">
        <rect fill="white" height="600.0" width="800.0" x="0.0" y="0.0" />
        <g font-size="13">
            <text x="18.0" y="176.0">Small</text>
            <text x="18.0" y="376.0">Medium</text>
            <text x="18.0" y="576.0">Large</text>
        </g>
        <g font-size="9">
            <text x="250.0" y="30.0">Ultralight</text>
            <text x="450.0" y="30.0">Regular</text>
            <text x="650.0" y="30.0">Black</text>
            <text id="template-version" fill="#505050" text-anchor="end" x="785.0" y="575.0">Template v.3.0</text>
            <a href="https://github.com/swhitty/SwiftDraw">
                <text fill="#505050" text-anchor="end" x="785.0" y="590.0">https://github.com/swhitty/SwiftDraw</text>
            </a>
        </g>
    </g>
    <g id="Guides" stroke="rgb(39, 170, 225)" stroke-width="0.5">
        <path id="Capline-S" d="M18,76 l800,0" />
        <path id="H-reference" d="M85,145.755 L87.685,145.755 L113.369,79.287 L114.052,79.287 L114.052,76 L112.148,76 L85,145.755 Z M95.693,121.536 L130.996,121.536 L130.263,119.313 L96.474,119.313 L95.693,121.536 Z M139.15,145.755 L141.787,145.755 L114.638,76 L113.466,76 L113.466,79.287 L139.15,145.755 Z" stroke="none" />
        <path id="Baseline-S" d="M18,146 l800,0" />
        <path id="left-margin-Ultralight-S" d="M220,56 l0,110" />
        <path id="right-margin-Ultralight-S" d="M310,56 l0,110" />
        <path id="left-margin-Regular-S" d="M420,56 l0,110" />
        <path id="right-margin-Regular-S" d="M510,56 l0,110" />
        <path id="left-margin-Black-S" d="M620,56 l0,110" />
        <path id="right-margin-Black-S" d="M710,56 l0,110" />
        <path id="Capline-M" d="M18,276 l800,0" />
        <path id="Baseline-M" d="M18,346 l800,0" />
        <path id="Capline-L" d="M18,476 l800,0" />
        <path id="Baseline-L" d="M18,546 l800,0" />
    </g>
    <g id="Symbols">
        <g id="Ultralight-S">
            <path d="M273.077,86.769 L273.077,127.154 C273.077,128.641 271.872,129.846 270.385,129.846 C268.898,129.846 267.692,128.641 267.692,127.154 L267.692,109.654 L238.077,109.654 L238.077,127.154 C238.077,128.641 236.872,129.846 235.385,129.846 C233.898,129.846 232.692,128.641 232.692,127.154 L232.692,86.769 C232.692,85.282 233.898,84.077 235.385,84.077 C236.872,84.077 238.077,85.282 238.077,86.769 L238.077,104.269 L267.692,104.269 L267.692,86.769 C267.692,85.282 268.898,84.077 270.385,84.077 C271.872,84.077 273.077,85.282 273.077,86.769 Z M297.819,117.27 L304.887,107.174 C305.469,106.353 305.545,105.275 305.083,104.38 C304.621,103.486 303.699,102.924 302.692,102.923 L286.538,102.923 C285.052,102.923 283.846,104.128 283.846,105.615 C283.846,107.102 285.052,108.308 286.538,108.308 L297.52,108.308 L291.065,117.532 C290.489,118.354 290.418,119.429 290.882,120.32 C291.345,121.21 292.265,121.769 293.269,121.769 C296.324,121.77 298.994,123.828 299.774,126.781 C300.554,129.734 299.248,132.842 296.593,134.352 C293.937,135.861 290.598,135.393 288.46,133.212 C287.797,132.481 286.788,132.172 285.83,132.406 C284.872,132.639 284.118,133.378 283.865,134.331 C283.612,135.284 283.9,136.3 284.617,136.977 C288.062,140.492 293.291,141.574 297.848,139.714 C302.405,137.854 305.383,133.422 305.385,128.5 C305.379,123.567 302.389,119.128 297.819,117.27 Z" />
        </g>
        <g id="Regular-S">
            <path d="M473.077,86.769 L473.077,127.154 C473.077,128.641 471.872,129.846 470.385,129.846 C468.898,129.846 467.692,128.641 467.692,127.154 L467.692,109.654 L438.077,109.654 L438.077,127.154 C438.077,128.641 436.872,129.846 435.385,129.846 C433.898,129.846 432.692,128.641 432.692,127.154 L432.692,86.769 C432.692,85.282 433.898,84.077 435.385,84.077 C436.872,84.077 438.077,85.282 438.077,86.769 L438.077,104.269 L467.692,104.269 L467.692,86.769 C467.692,85.282 468.898,84.077 470.385,84.077 C471.872,84.077 473.077,85.282 473.077,86.769 Z M497.819,117.27 L504.887,107.174 C505.469,106.353 505.545,105.275 505.083,104.38 C504.621,103.486 503.699,102.924 502.692,102.923 L486.538,102.923 C485.052,102.923 483.846,104.128 483.846,105.615 C483.846,107.102 485.052,108.308 486.538,108.308 L497.52,108.308 L491.065,117.532 C490.489,118.354 490.418,119.429 490.882,120.32 C491.345,121.21 492.265,121.769 493.269,121.769 C496.324,121.77 498.994,123.828 499.774,126.781 C500.554,129.734 499.248,132.842 496.593,134.352 C493.937,135.861 490.598,135.393 488.46,133.212 C487.797,132.481 486.788,132.172 485.83,132.406 C484.872,132.639 484.118,133.378 483.865,134.331 C483.612,135.284 483.9,136.3 484.617,136.977 C488.062,140.492 493.291,141.574 497.848,139.714 C502.405,137.854 505.383,133.422 505.385,128.5 C505.379,123.567 502.389,119.128 497.819,117.27 Z" />
        </g>
        <g id="Black-S">
            <path d="M673.077,86.769 L673.077,127.154 C673.077,128.641 671.872,129.846 670.385,129.846 C668.898,129.846 667.692,128.641 667.692,127.154 L667.692,109.654 L638.077,109.654 L638.077,127.154 C638.077,128.641 636.872,129.846 635.385,129.846 C633.898,129.846 632.692,128.641 632.692,127.154 L632.692,86.769 C632.692,85.282 633.898,84.077 635.385,84.077 C636.872,84.077 638.077,85.282 638.077,86.769 L638.077,104.269 L667.692,104.269 L667.692,86.769 C667.692,85.282 668.898,84.077 670.385,84.077 C671.872,84.077 673.077,85.282 673.077,86.769 Z M697.819,117.27 L704.887,107.174 C705.469,106.353 705.545,105.275 705.083,104.38 C704.621,103.486 703.699,102.924 702.692,102.923 L686.538,102.923 C685.052,102.923 683.846,104.128 683.846,105.615 C683.846,107.102 685.052,108.308 686.538,108.308 L697.52,108.308 L691.065,117.532 C690.489,118.354 690.418,119.429 690.882,120.32 C691.345,121.21 692.265,121.769 693.269,121.769 C696.324,121.77 698.994,123.828 699.774,126.781 C700.554,129.734 699.248,132.842 696.593,134.352 C693.937,135.861 690.598,135.393 688.46,133.212 C687.797,132.481 686.788,132.172 685.83,132.406 C684.872,132.639 684.118,133.378 683.865,134.331 C683.612,135.284 683.9,136.3 684.617,136.977 C688.062,140.492 693.291,141.574 697.848,139.714 C702.405,137.854 705.383,133.422 705.385,128.5 C705.379,123.567 702.389,119.128 697.819,117.27 Z" />
        </g>
    </g>
</svg>