<?xml version="1.0" encoding="UTF-8"?>
<svg height="600" width="800" xmlns="http://www.w3.org/2000/svg" xmlns:xlink="http://www.w3.org/1999/xlink">
    <g id="Notes" font-family="'LucidaGrande', 'Lucida Grande', sans-serif" font-size="13">
        <rect fill="white" height="600.0" width="800.0" x="0.0" y="0.0" />
        <g font-size="13">
            <text x="18.0" y="176.0">Small</text>
            <text x="18.0" y="376.0">Medium</text>
            <text x="18.0" y="576.0">Large</text>
        </g>
        <g font-size="9">
            <text x="250.0" y="30.0">Ultralight</text>
            <text x="450.0" y="30.0">Regular</text>
            <text x="650.0" y="30.0">Black</text>
            <text id="template-version" fill="#505050" text-anchor="end" x="785.0" y="575.0">Template v.3.0</text>
            <a href="https://github.com/swhitty/SwiftDraw">
                <text fill="#505050" text-anchor="end" x="785.0" y="590.0">https://github.com/swhitty/SwiftDraw</text>
            </a>
        </g>
    </g>
    <g id="Guides" stroke="rgb(39, 170, 225)" stroke-width="0.5">
        <path id="Capline-S" d="M18,76 l800,0" />
        <path id="H-reference" d="M85,145.755 L87.685,145.755 L113.369,79.287 L114.052,79.287 L114.052,76 L112.148,76 L85,145.755 Z M95.693,121.536 L130.996,121.536 L130.263,119.313 L96.474,119.313 L95.693,121.536 Z M139.15,145.755 L141.787,145.755 L114.638,76 L113.466,76 L113.466,79.287 L139.15,145.755 Z" stroke="none" />
        <path id="Baseline-S" d="M18,146 l800,0" />
        <path id="left-margin-Ultralight-S" d="M220,56 l0,110" />
        <path id="right-margin-Ultralight-S" d="M310,56 l0,110" />
        <path id="left-margin-Regular-S" d="M420,56 l0,110" />
        <path id="right-margin-Regular-S" d="M510,56 l0,110" />
        <path id="left-margin-Black-S" d="M620,56 l0,110" />
        <path id="right-margin-Black-S" d="M710,56 l0,110" />
        <path id="Capline-M" d="M18,276 l800,0" />
        <path id="Baseline-M" d="M18,346 l800,0" />
        <path id="Capline-L" d="M18,476 l800,0" />
        <path id="Baseline-L" d="M18,546 l800,0" />
    </g>
    <g id="Symbols">
        <g id="Ultralight-S">
            <path d="M294.615,100.231 C294.624,86.473 285.156,74.521 271.761,71.38 C258.366,68.239 244.572,74.736 238.464,87.064 C232.355,99.392 235.541,114.303 246.154,123.058 L246.154,148.692 C246.153,149.626 246.636,150.493 247.43,150.984 C248.224,151.475 249.216,151.52 250.051,151.102 L265,143.644 L279.952,151.119 C280.327,151.298 280.738,151.389 281.154,151.385 C281.868,151.385 282.553,151.101 283.058,150.596 C283.562,150.091 283.846,149.406 283.846,148.692 L283.846,123.058 C290.667,117.441 294.617,109.067 294.615,100.231 Z M240.769,100.231 C240.769,86.848 251.618,76 265,76 C278.382,76 289.231,86.848 289.231,100.231 C289.231,113.613 278.382,124.462 265,124.462 C251.624,124.447 240.784,113.607 240.769,100.231 Z M278.462,144.337 L266.201,138.209 C265.443,137.83 264.55,137.83 263.792,138.209 L251.538,144.337 L251.538,126.605 C259.993,130.926 270.007,130.926 278.462,126.605 Z M265,119.077 C275.408,119.077 283.846,110.639 283.846,100.231 C283.846,89.822 275.408,81.385 265,81.385 C254.592,81.385 246.154,89.822 246.154,100.231 C246.165,110.635 254.597,119.066 265,119.077 Z M265,86.769 C272.435,86.769 278.462,92.796 278.462,100.231 C278.462,107.665 272.435,113.692 265,113.692 C257.565,113.692 251.538,107.665 251.538,100.231 C251.538,96.661 252.957,93.237 255.481,90.712 C258.006,88.188 261.43,86.769 265,86.769 Z" />
        </g>
        <g id="Regular-S">
            <path d="M494.615,100.231 C494.624,86.473 485.156,74.521 471.761,71.38 C458.366,68.239 444.572,74.736 438.464,87.064 C432.355,99.392 435.541,114.303 446.154,123.058 L446.154,148.692 C446.153,149.626 446.636,150.493 447.43,150.984 C448.224,151.475 449.216,151.52 450.051,151.102 L465,143.644 L479.952,151.119 C480.327,151.298 480.738,151.389 481.154,151.385 C481.868,151.385 482.553,151.101 483.058,150.596 C483.562,150.091 483.846,149.406 483.846,148.692 L483.846,123.058 C490.667,117.441 494.617,109.067 494.615,100.231 Z M440.769,100.231 C440.769,86.848 451.618,76 465,76 C478.382,76 489.231,86.848 489.231,100.231 C489.231,113.613 478.382,124.462 465,124.462 C451.624,124.447 440.784,113.607 440.769,100.231 Z M478.462,144.337 L466.201,138.209 C465.443,137.83 464.55,137.83 463.792,138.209 L451.538,144.337 L451.538,126.605 C459.993,130.926 470.007,130.926 478.462,126.605 Z M465,119.077 C475.408,119.077 483.846,110.639 483.846,100.231 C483.846,89.822 475.408,81.385 465,81.385 C454.592,81.385 446.154,89.822 446.154,100.231 C446.165,110.635 454.597,119.066 465,119.077 Z M465,86.769 C472.435,86.769 478.462,92.796 478.462,100.231 C478.462,107.665 472.435,113.692 465,113.692 C457.565,113.692 451.538,107.665 451.538,100.231 C451.538,96.661 452.957,93.237 455.481,90.712 C458.006,88.188 461.43,86.769 465,86.769 Z" />
        </g>
        <g id="Black-S">
            <path d="M694.615,100.231 C694.624,86.473 685.156,74.521 671.761,71.38 C658.366,68.239 644.572,74.736 638.464,87.064 C632.355,99.392 635.541,114.303 646.154,123.058 L646.154,148.692 C646.153,149.626 646.636,150.493 647.43,150.984 C648.224,151.475 649.216,151.52 650.051,151.102 L665,143.644 L679.952,151.119 C680.327,151.298 680.738,151.389 681.154,151.385 C681.868,151.385 682.553,151.101 683.058,150.596 C683.562,150.091 683.846,149.406 683.846,148.692 L683.846,123.058 C690.667,117.441 694.617,109.067 694.615,100.231 Z M640.769,100.231 C640.769,86.848 651.618,76 665,76 C678.382,76 689.231,86.848 689.231,100.231 C689.231,113.613 678.382,124.462 665,124.462 C651.624,124.447 640.784,113.607 640.769,100.231 Z M678.462,144.337 L666.201,138.209 C665.443,137.83 664.55,137.83 663.792,138.209 L651.538,144.337 L651.538,126.605 C659.993,130.926 670.007,130.926 678.462,126.605 Z M665,119.077 C675.408,119.077 683.846,110.639 683.846,100.231 C683.846,89.822 675.408,81.385 665,81.385 C654.592,81.385 646.154,89.822 646.154,100.231 C646.165,110.635 654.597,119.066 665,119.077 Z M665,86.769 C672.435,86.769 678.462,92.796 678.462,100.231 C678.462,107.665 672.435,113.692 665,113.692 C657.565,113.692 651.539,107.665 651.538,100.231 C651.538,96.661 652.957,93.237 655.481,90.712 C658.006,88.188 661.43,86.769 665,86.769 Z" />
        </g>
    </g>
</svg>