<?xml version="1.0" encoding="UTF-8"?>
<svg height="600" width="800" xmlns="http://www.w3.org/2000/svg" xmlns:xlink="http://www.w3.org/1999/xlink">
    <g id="Notes" font-family="'LucidaGrande', 'Lucida Grande', sans-serif" font-size="13">
        <rect fill="white" height="600.0" width="800.0" x="0.0" y="0.0" />
        <g font-size="13">
            <text x="18.0" y="176.0">Small</text>
            <text x="18.0" y="376.0">Medium</text>
            <text x="18.0" y="576.0">Large</text>
        </g>
        <g font-size="9">
            <text x="250.0" y="30.0">Ultralight</text>
            <text x="450.0" y="30.0">Regular</text>
            <text x="650.0" y="30.0">Black</text>
            <text id="template-version" fill="#505050" text-anchor="end" x="785.0" y="575.0">Template v.3.0</text>
            <a href="https://github.com/swhitty/SwiftDraw">
                <text fill="#505050" text-anchor="end" x="785.0" y="590.0">https://github.com/swhitty/SwiftDraw</text>
            </a>
        </g>
    </g>
    <g id="Guides" stroke="rgb(39, 170, 225)" stroke-width="0.5">
        <path id="Capline-S" d="M18,76 l800,0" />
        <path id="H-reference" d="M85,145.755 L87.685,145.755 L113.369,79.287 L114.052,79.287 L114.052,76 L112.148,76 L85,145.755 Z M95.693,121.536 L130.996,121.536 L130.263,119.313 L96.474,119.313 L95.693,121.536 Z M139.15,145.755 L141.787,145.755 L114.638,76 L113.466,76 L113.466,79.287 L139.15,145.755 Z" stroke="none" />
        <path id="Baseline-S" d="M18,146 l800,0" />
        <path id="left-margin-Ultralight-S" d="M220,56 l0,110" />
        <path id="right-margin-Ultralight-S" d="M310,56 l0,110" />
        <path id="left-margin-Regular-S" d="M420,56 l0,110" />
        <path id="right-margin-Regular-S" d="M510,56 l0,110" />
        <path id="left-margin-Black-S" d="M620,56 l0,110" />
        <path id="right-margin-Black-S" d="M710,56 l0,110" />
        <path id="Capline-M" d="M18,276 l800,0" />
        <path id="Baseline-M" d="M18,346 l800,0" />
        <path id="Capline-L" d="M18,476 l800,0" />
        <path id="Baseline-L" d="M18,546 l800,0" />
    </g>
    <g id="Symbols">
        <g id="Ultralight-S">
            <path d="M299.327,76.69 C289.904,67.29 272.919,68.987 261.433,80.476 C250.734,91.175 248.533,106.649 255.876,116.314 L245.928,126.262 L245.7,126.033 C244.69,125.022 243.319,124.454 241.89,124.454 C240.461,124.454 239.09,125.022 238.08,126.033 L228.886,135.231 C227.875,136.241 227.307,137.611 227.307,139.04 C227.307,140.47 227.875,141.84 228.886,142.85 L233.157,147.121 C234.167,148.131 235.536,148.698 236.965,148.698 C238.393,148.698 239.763,148.131 240.773,147.121 L240.773,147.121 L249.97,137.923 C250.98,136.913 251.548,135.543 251.548,134.115 C251.548,132.687 250.98,131.317 249.97,130.307 L249.738,130.075 L259.686,120.127 C263.486,123.014 268.18,124.431 273.148,124.431 C280.794,124.431 289.049,121.066 295.541,114.571 C307.01,103.081 308.71,86.096 299.327,76.69 Z M236.966,143.308 L232.692,139.037 L241.89,129.846 L244.02,131.98 L244.02,131.98 L246.154,134.11 Z M297.385,102.923 L289.251,102.923 L289.251,92.154 L300.02,92.154 C299.98,95.898 299.079,99.583 297.385,102.923 Z M267.692,118.273 C262.907,116.838 259.162,113.093 257.727,108.308 L267.692,108.308 Z M256.923,102.923 C256.963,99.178 257.869,95.492 259.568,92.154 L267.692,92.154 L267.692,102.923 Z M273.077,92.154 L283.846,92.154 L283.846,102.923 L273.077,102.923 Z M299.216,86.769 L289.251,86.769 L289.251,76.767 C294.045,78.205 297.795,81.955 299.233,86.749 Z M283.796,76 L283.85,76 L283.85,86.769 L273.08,86.769 L273.08,78.612 C276.408,76.92 280.08,76.015 283.813,75.966 Z M267.692,82.078 L267.692,86.749 L263.035,86.749 C263.725,85.888 264.462,85.066 265.242,84.286 C266.02,83.507 266.837,82.77 267.692,82.078 Z M273.077,119.07 L273.077,108.308 L283.846,108.308 L283.846,116.438 C280.513,118.133 276.833,119.036 273.094,119.077 Z M289.231,112.965 L289.231,108.308 L293.942,108.308 C293.251,109.168 292.514,109.99 291.735,110.771 C290.948,111.548 290.118,112.28 289.251,112.965 Z" />
        </g>
        <g id="Regular-S">
            <path d="M499.327,76.69 C489.904,67.29 472.919,68.987 461.433,80.476 C450.734,91.175 448.533,106.649 455.876,116.314 L445.928,126.262 L445.7,126.033 C444.69,125.022 443.319,124.454 441.89,124.454 C440.461,124.454 439.09,125.022 438.08,126.033 L428.886,135.231 C427.875,136.241 427.307,137.611 427.307,139.04 C427.307,140.47 427.875,141.84 428.886,142.85 L433.157,147.121 C434.167,148.131 435.536,148.698 436.965,148.698 C438.393,148.698 439.763,148.131 440.773,147.121 L440.773,147.121 L449.97,137.923 C450.98,136.913 451.548,135.543 451.548,134.115 C451.548,132.687 450.98,131.317 449.97,130.307 L449.738,130.075 L459.686,120.127 C463.486,123.014 468.18,124.431 473.148,124.431 C480.794,124.431 489.049,121.066 495.541,114.571 C507.01,103.081 508.71,86.096 499.327,76.69 Z M436.966,143.308 L432.692,139.037 L441.89,129.846 L444.02,131.98 L444.02,131.98 L446.154,134.11 Z M497.385,102.923 L489.251,102.923 L489.251,92.154 L500.02,92.154 C499.98,95.898 499.079,99.583 497.385,102.923 Z M467.692,118.273 C462.906,116.838 459.162,113.093 457.727,108.308 L467.692,108.308 Z M456.923,102.923 C456.963,99.178 457.869,95.492 459.568,92.154 L467.692,92.154 L467.692,102.923 Z M473.077,92.154 L483.846,92.154 L483.846,102.923 L473.077,102.923 Z M499.216,86.769 L489.251,86.769 L489.251,76.767 C494.045,78.205 497.795,81.955 499.233,86.749 Z M483.796,76 L483.85,76 L483.85,86.769 L473.08,86.769 L473.08,78.612 C476.408,76.92 480.08,76.015 483.812,75.966 Z M467.692,82.078 L467.692,86.749 L463.035,86.749 C463.725,85.888 464.462,85.066 465.242,84.286 C466.02,83.507 466.837,82.77 467.692,82.078 Z M473.077,119.07 L473.077,108.308 L483.846,108.308 L483.846,116.438 C480.513,118.133 476.833,119.036 473.094,119.077 Z M489.231,112.965 L489.231,108.308 L493.942,108.308 C493.251,109.168 492.514,109.99 491.735,110.771 C490.948,111.548 490.118,112.28 489.251,112.965 Z" />
        </g>
        <g id="Black-S">
            <path d="M699.327,76.69 C689.904,67.29 672.919,68.987 661.433,80.476 C650.734,91.175 648.533,106.649 655.876,116.314 L645.928,126.262 L645.7,126.033 C644.69,125.022 643.319,124.454 641.89,124.454 C640.461,124.454 639.09,125.022 638.08,126.033 L628.886,135.231 C627.875,136.241 627.307,137.611 627.307,139.04 C627.307,140.47 627.875,141.84 628.886,142.85 L633.157,147.121 C634.167,148.131 635.536,148.698 636.965,148.698 C638.393,148.698 639.763,148.131 640.773,147.121 L640.773,147.121 L649.97,137.923 C650.98,136.913 651.548,135.543 651.548,134.115 C651.548,132.687 650.98,131.317 649.97,130.307 L649.738,130.075 L659.686,120.127 C663.486,123.014 668.18,124.431 673.148,124.431 C680.794,124.431 689.049,121.066 695.541,114.571 C707.01,103.081 708.71,86.096 699.327,76.69 Z M636.966,143.308 L632.692,139.037 L641.89,129.846 L644.02,131.98 L644.02,131.98 L646.154,134.11 Z M697.385,102.923 L689.251,102.923 L689.251,92.154 L700.02,92.154 C699.981,95.898 699.079,99.583 697.385,102.923 Z M667.692,118.273 C662.907,116.838 659.162,113.093 657.727,108.308 L667.692,108.308 Z M656.923,102.923 C656.963,99.178 657.869,95.492 659.568,92.154 L667.692,92.154 L667.692,102.923 Z M673.077,92.154 L683.846,92.154 L683.846,102.923 L673.077,102.923 Z M699.216,86.769 L689.251,86.769 L689.251,76.767 C694.045,78.205 697.795,81.955 699.233,86.749 Z M683.796,76 L683.85,76 L683.85,86.769 L673.08,86.769 L673.08,78.612 C676.408,76.92 680.08,76.015 683.813,75.966 Z M667.692,82.078 L667.692,86.749 L663.035,86.749 C663.725,85.888 664.462,85.066 665.242,84.286 C666.02,83.507 666.838,82.77 667.692,82.078 Z M673.077,119.07 L673.077,108.308 L683.846,108.308 L683.846,116.438 C680.513,118.133 676.833,119.036 673.094,119.077 Z M689.231,112.965 L689.231,108.308 L693.942,108.308 C693.251,109.168 692.514,109.99 691.735,110.771 C690.948,111.548 690.118,112.28 689.251,112.965 Z" />
        </g>
    </g>
</svg>