<?xml version="1.0" encoding="UTF-8"?>
<svg height="600" width="800" xmlns="http://www.w3.org/2000/svg" xmlns:xlink="http://www.w3.org/1999/xlink">
    <g id="Notes" font-family="'LucidaGrande', 'Lucida Grande', sans-serif" font-size="13">
        <rect fill="white" height="600.0" width="800.0" x="0.0" y="0.0" />
        <g font-size="13">
            <text x="18.0" y="176.0">Small</text>
            <text x="18.0" y="376.0">Medium</text>
            <text x="18.0" y="576.0">Large</text>
        </g>
        <g font-size="9">
            <text x="250.0" y="30.0">Ultralight</text>
            <text x="450.0" y="30.0">Regular</text>
            <text x="650.0" y="30.0">Black</text>
            <text id="template-version" fill="#505050" text-anchor="end" x="785.0" y="575.0">Template v.3.0</text>
            <a href="https://github.com/swhitty/SwiftDraw">
                <text fill="#505050" text-anchor="end" x="785.0" y="590.0">https://github.com/swhitty/SwiftDraw</text>
            </a>
        </g>
    </g>
    <g id="Guides" stroke="rgb(39, 170, 225)" stroke-width="0.5">
        <path id="Capline-S" d="M18,76 l800,0" />
        <path id="H-reference" d="M85,145.755 L87.685,145.755 L113.369,79.287 L114.052,79.287 L114.052,76 L112.148,76 L85,145.755 Z M95.693,121.536 L130.996,121.536 L130.263,119.313 L96.474,119.313 L95.693,121.536 Z M139.15,145.755 L141.787,145.755 L114.638,76 L113.466,76 L113.466,79.287 L139.15,145.755 Z" stroke="none" />
        <path id="Baseline-S" d="M18,146 l800,0" />
        <path id="left-margin-Ultralight-S" d="M220,56 l0,110" />
        <path id="right-margin-Ultralight-S" d="M310,56 l0,110" />
        <path id="left-margin-Regular-S" d="M420,56 l0,110" />
        <path id="right-margin-Regular-S" d="M510,56 l0,110" />
        <path id="left-margin-Black-S" d="M620,56 l0,110" />
        <path id="right-margin-Black-S" d="M710,56 l0,110" />
        <path id="Capline-M" d="M18,276 l800,0" />
        <path id="Baseline-M" d="M18,346 l800,0" />
        <path id="Capline-L" d="M18,476 l800,0" />
        <path id="Baseline-L" d="M18,546 l800,0" />
    </g>
    <g id="Symbols">
        <g id="Ultralight-S">
            <path d="M259.615,92.154 C259.615,92.868 259.332,93.553 258.827,94.058 C258.322,94.562 257.637,94.846 256.923,94.846 L235.385,94.846 C233.898,94.846 232.692,93.641 232.692,92.154 C232.692,90.667 233.898,89.462 235.385,89.462 L256.923,89.462 C257.637,89.462 258.322,89.745 258.827,90.25 C259.332,90.755 259.615,91.44 259.615,92.154 Z M256.923,127.154 L248.846,127.154 L248.846,119.077 C248.846,117.59 247.641,116.385 246.154,116.385 C244.667,116.385 243.462,117.59 243.462,119.077 L243.462,127.154 L235.385,127.154 C233.898,127.154 232.692,128.359 232.692,129.846 C232.692,131.333 233.898,132.538 235.385,132.538 L243.462,132.538 L243.462,140.615 C243.462,142.102 244.667,143.308 246.154,143.308 C247.641,143.308 248.846,142.102 248.846,140.615 L248.846,132.538 L256.923,132.538 C258.41,132.538 259.615,131.333 259.615,129.846 C259.615,128.359 258.41,127.154 256.923,127.154 Z M273.077,127.154 L294.615,127.154 C296.102,127.154 297.308,125.948 297.308,124.462 C297.308,122.975 296.102,121.769 294.615,121.769 L273.077,121.769 C271.59,121.769 270.385,122.975 270.385,124.462 C270.385,125.948 271.59,127.154 273.077,127.154 Z M294.615,132.538 L273.077,132.538 C271.59,132.538 270.385,133.744 270.385,135.231 C270.385,136.718 271.59,137.923 273.077,137.923 L294.615,137.923 C296.102,137.923 297.308,136.718 297.308,135.231 C297.308,133.744 296.102,132.538 294.615,132.538 Z M273.864,102.136 C274.369,102.641 275.055,102.925 275.769,102.925 C276.484,102.925 277.169,102.641 277.674,102.136 L283.846,95.96 L290.018,102.136 C291.069,103.187 292.774,103.188 293.827,102.137 C294.879,101.085 294.88,99.38 293.829,98.327 L287.652,92.154 L293.828,85.982 C294.88,84.928 294.879,83.222 293.827,82.171 C292.774,81.12 291.069,81.121 290.017,82.173 L283.846,88.348 L277.674,82.172 C276.624,81.121 274.918,81.12 273.865,82.171 C272.813,83.222 272.812,84.928 273.863,85.981 L280.04,92.154 L273.864,98.326 C273.359,98.831 273.075,99.516 273.075,100.231 C273.075,100.945 273.359,101.631 273.864,102.136 Z" />
        </g>
        <g id="Regular-S">
            <path d="M459.615,92.154 C459.615,92.868 459.332,93.553 458.827,94.058 C458.322,94.562 457.637,94.846 456.923,94.846 L435.385,94.846 C433.898,94.846 432.692,93.641 432.692,92.154 C432.692,90.667 433.898,89.462 435.385,89.462 L456.923,89.462 C457.637,89.462 458.322,89.745 458.827,90.25 C459.332,90.755 459.615,91.44 459.615,92.154 Z M456.923,127.154 L448.846,127.154 L448.846,119.077 C448.846,117.59 447.641,116.385 446.154,116.385 C444.667,116.385 443.462,117.59 443.462,119.077 L443.462,127.154 L435.385,127.154 C433.898,127.154 432.692,128.359 432.692,129.846 C432.692,131.333 433.898,132.538 435.385,132.538 L443.462,132.538 L443.462,140.615 C443.462,142.102 444.667,143.308 446.154,143.308 C447.641,143.308 448.846,142.102 448.846,140.615 L448.846,132.538 L456.923,132.538 C458.41,132.538 459.615,131.333 459.615,129.846 C459.615,128.359 458.41,127.154 456.923,127.154 Z M473.077,127.154 L494.615,127.154 C496.102,127.154 497.308,125.948 497.308,124.462 C497.308,122.975 496.102,121.769 494.615,121.769 L473.077,121.769 C471.59,121.769 470.385,122.975 470.385,124.462 C470.385,125.948 471.59,127.154 473.077,127.154 Z M494.615,132.538 L473.077,132.538 C471.59,132.538 470.385,133.744 470.385,135.231 C470.385,136.718 471.59,137.923 473.077,137.923 L494.615,137.923 C496.102,137.923 497.308,136.718 497.308,135.231 C497.308,133.744 496.102,132.538 494.615,132.538 Z M473.864,102.136 C474.369,102.641 475.055,102.925 475.769,102.925 C476.484,102.925 477.169,102.641 477.674,102.136 L483.846,95.96 L490.018,102.136 C491.069,103.187 492.774,103.188 493.827,102.137 C494.879,101.085 494.88,99.38 493.829,98.327 L487.652,92.154 L493.828,85.982 C494.88,84.928 494.879,83.222 493.827,82.171 C492.774,81.12 491.069,81.121 490.017,82.173 L483.846,88.348 L477.674,82.172 C476.624,81.121 474.918,81.12 473.865,82.171 C472.813,83.222 472.812,84.928 473.863,85.981 L480.04,92.154 L473.864,98.326 C473.359,98.831 473.075,99.516 473.075,100.231 C473.075,100.945 473.359,101.631 473.864,102.136 Z" />
        </g>
        <g id="Black-S">
            <path d="M659.615,92.154 C659.615,92.868 659.332,93.553 658.827,94.058 C658.322,94.562 657.637,94.846 656.923,94.846 L635.385,94.846 C633.898,94.846 632.692,93.641 632.692,92.154 C632.692,90.667 633.898,89.462 635.385,89.462 L656.923,89.462 C657.637,89.462 658.322,89.745 658.827,90.25 C659.332,90.755 659.615,91.44 659.615,92.154 Z M656.923,127.154 L648.846,127.154 L648.846,119.077 C648.846,117.59 647.641,116.385 646.154,116.385 C644.667,116.385 643.462,117.59 643.462,119.077 L643.462,127.154 L635.385,127.154 C633.898,127.154 632.692,128.359 632.692,129.846 C632.692,131.333 633.898,132.538 635.385,132.538 L643.462,132.538 L643.462,140.615 C643.462,142.102 644.667,143.308 646.154,143.308 C647.641,143.308 648.846,142.102 648.846,140.615 L648.846,132.538 L656.923,132.538 C658.41,132.538 659.615,131.333 659.615,129.846 C659.615,128.359 658.41,127.154 656.923,127.154 Z M673.077,127.154 L694.615,127.154 C696.102,127.154 697.308,125.948 697.308,124.462 C697.308,122.975 696.102,121.769 694.615,121.769 L673.077,121.769 C671.59,121.769 670.385,122.975 670.385,124.462 C670.385,125.948 671.59,127.154 673.077,127.154 Z M694.615,132.538 L673.077,132.538 C671.59,132.538 670.385,133.744 670.385,135.231 C670.385,136.718 671.59,137.923 673.077,137.923 L694.615,137.923 C696.102,137.923 697.308,136.718 697.308,135.231 C697.308,133.744 696.102,132.538 694.615,132.538 Z M673.864,102.136 C674.369,102.641 675.055,102.925 675.769,102.925 C676.484,102.925 677.169,102.641 677.674,102.136 L683.846,95.96 L690.018,102.136 C691.069,103.187 692.774,103.188 693.827,102.137 C694.879,101.085 694.88,99.38 693.829,98.327 L687.652,92.154 L693.828,85.982 C694.88,84.928 694.879,83.222 693.827,82.171 C692.774,81.12 691.069,81.121 690.017,82.173 L683.846,88.348 L677.674,82.172 C676.624,81.121 674.918,81.12 673.865,82.171 C672.813,83.222 672.812,84.928 673.863,85.981 L680.04,92.154 L673.864,98.326 C673.359,98.831 673.075,99.516 673.075,100.231 C673.075,100.945 673.359,101.631 673.864,102.136 Z" />
        </g>
    </g>
</svg>