<?xml version="1.0" encoding="UTF-8"?>
<svg height="600" width="800" xmlns="http://www.w3.org/2000/svg" xmlns:xlink="http://www.w3.org/1999/xlink">
    <g id="Notes" font-family="'LucidaGrande', 'Lucida Grande', sans-serif" font-size="13">
        <rect fill="white" height="600.0" width="800.0" x="0.0" y="0.0" />
        <g font-size="13">
            <text x="18.0" y="176.0">Small</text>
            <text x="18.0" y="376.0">Medium</text>
            <text x="18.0" y="576.0">Large</text>
        </g>
        <g font-size="9">
            <text x="250.0" y="30.0">Ultralight</text>
            <text x="450.0" y="30.0">Regular</text>
            <text x="650.0" y="30.0">Black</text>
            <text id="template-version" fill="#505050" text-anchor="end" x="785.0" y="575.0">Template v.3.0</text>
            <a href="https://github.com/swhitty/SwiftDraw">
                <text fill="#505050" text-anchor="end" x="785.0" y="590.0">https://github.com/swhitty/SwiftDraw</text>
            </a>
        </g>
    </g>
    <g id="Guides" stroke="rgb(39, 170, 225)" stroke-width="0.5">
        <path id="Capline-S" d="M18,76 l800,0" />
        <path id="H-reference" d="M85,145.755 L87.685,145.755 L113.369,79.287 L114.052,79.287 L114.052,76 L112.148,76 L85,145.755 Z M95.693,121.536 L130.996,121.536 L130.263,119.313 L96.474,119.313 L95.693,121.536 Z M139.15,145.755 L141.787,145.755 L114.638,76 L113.466,76 L113.466,79.287 L139.15,145.755 Z" stroke="none" />
        <path id="Baseline-S" d="M18,146 l800,0" />
        <path id="left-margin-Ultralight-S" d="M220,56 l0,110" />
        <path id="right-margin-Ultralight-S" d="M310,56 l0,110" />
        <path id="left-margin-Regular-S" d="M420,56 l0,110" />
        <path id="right-margin-Regular-S" d="M510,56 l0,110" />
        <path id="left-margin-Black-S" d="M620,56 l0,110" />
        <path id="right-margin-Black-S" d="M710,56 l0,110" />
        <path id="Capline-M" d="M18,276 l800,0" />
        <path id="Baseline-M" d="M18,346 l800,0" />
        <path id="Capline-L" d="M18,476 l800,0" />
        <path id="Baseline-L" d="M18,546 l800,0" />
    </g>
    <g id="Symbols">
        <g id="Ultralight-S">
            <path d="M289.231,76 L263.422,76 C261.993,75.995 260.622,76.564 259.615,77.578 L256.136,81.048 L252.652,77.578 C250.55,75.477 247.142,75.477 245.04,77.578 L236.963,85.655 C234.862,87.758 234.862,91.165 236.963,93.268 L240.433,96.751 L236.963,100.231 C235.949,101.237 235.38,102.608 235.385,104.037 L235.385,140.615 C235.385,142.043 235.952,143.413 236.962,144.423 C237.972,145.433 239.341,146 240.769,146 L289.231,146 C290.659,146 292.028,145.433 293.038,144.423 C294.048,143.413 294.615,142.043 294.615,140.615 L294.615,81.385 C294.615,79.957 294.048,78.587 293.038,77.577 C292.028,76.567 290.659,76 289.231,76 Z M240.769,89.462 L248.846,81.385 L252.326,84.864 L244.249,92.941 Z M289.231,140.615 L240.769,140.615 L240.769,104.037 L246.154,98.652 L246.154,98.652 L263.422,81.385 L289.231,81.385 Z M265,89.462 C265,88.747 265.284,88.063 265.789,87.558 C266.293,87.053 266.978,86.769 267.692,86.769 L281.154,86.769 C282.641,86.769 283.846,87.975 283.846,89.462 C283.846,90.948 282.641,92.154 281.154,92.154 L267.692,92.154 C266.978,92.154 266.293,91.87 265.789,91.365 C265.284,90.86 265,90.176 265,89.462 Z M282.769,110.462 L269.486,120.423 L282.769,130.385 C283.959,131.277 284.2,132.964 283.308,134.154 C282.416,135.343 280.728,135.584 279.538,134.692 L265,123.788 L250.462,134.692 C249.272,135.584 247.584,135.343 246.692,134.154 C245.8,132.964 246.041,131.277 247.231,130.385 L260.514,120.423 L247.231,110.462 C246.041,109.569 245.8,107.882 246.692,106.692 C247.584,105.503 249.272,105.262 250.462,106.154 L265,117.058 L279.538,106.154 C280.728,105.262 282.416,105.503 283.308,106.692 C284.2,107.882 283.959,109.569 282.769,110.462 Z" />
        </g>
        <g id="Regular-S">
            <path d="M489.231,76 L463.422,76 C461.993,75.995 460.622,76.564 459.615,77.578 L456.136,81.048 L452.652,77.578 C450.55,75.477 447.142,75.477 445.04,77.578 L436.963,85.655 C434.862,87.758 434.862,91.165 436.963,93.268 L440.433,96.751 L436.963,100.231 C435.949,101.237 435.38,102.608 435.385,104.037 L435.385,140.615 C435.385,142.043 435.952,143.413 436.962,144.423 C437.972,145.433 439.341,146 440.769,146 L489.231,146 C490.659,146 492.028,145.433 493.038,144.423 C494.048,143.413 494.615,142.043 494.615,140.615 L494.615,81.385 C494.615,79.957 494.048,78.587 493.038,77.577 C492.028,76.567 490.659,76 489.231,76 Z M440.769,89.462 L448.846,81.385 L452.326,84.864 L444.249,92.941 Z M489.231,140.615 L440.769,140.615 L440.769,104.037 L446.154,98.652 L446.154,98.652 L463.422,81.385 L489.231,81.385 Z M465,89.462 C465,88.747 465.284,88.063 465.789,87.558 C466.293,87.053 466.978,86.769 467.692,86.769 L481.154,86.769 C482.641,86.769 483.846,87.975 483.846,89.462 C483.846,90.948 482.641,92.154 481.154,92.154 L467.692,92.154 C466.978,92.154 466.293,91.87 465.789,91.365 C465.284,90.86 465,90.176 465,89.462 Z M482.769,110.462 L469.486,120.423 L482.769,130.385 C483.959,131.277 484.2,132.964 483.308,134.154 C482.416,135.343 480.728,135.584 479.538,134.692 L465,123.788 L450.462,134.692 C449.272,135.584 447.584,135.343 446.692,134.154 C445.8,132.964 446.041,131.277 447.231,130.385 L460.514,120.423 L447.231,110.462 C446.041,109.569 445.8,107.882 446.692,106.692 C447.584,105.503 449.272,105.262 450.462,106.154 L465,117.058 L479.538,106.154 C480.728,105.262 482.416,105.503 483.308,106.692 C484.2,107.882 483.959,109.569 482.769,110.462 Z" />
        </g>
        <g id="Black-S">
            <path d="M689.231,76 L663.422,76 C661.993,75.995 660.622,76.564 659.615,77.578 L656.136,81.048 L652.652,77.578 C650.55,75.477 647.142,75.477 645.04,77.578 L636.963,85.655 C634.862,87.758 634.862,91.165 636.963,93.268 L640.433,96.751 L636.963,100.231 C635.949,101.237 635.38,102.608 635.385,104.037 L635.385,140.615 C635.385,142.043 635.952,143.413 636.962,144.423 C637.972,145.433 639.341,146 640.769,146 L689.231,146 C690.659,146 692.028,145.433 693.038,144.423 C694.048,143.413 694.615,142.043 694.615,140.615 L694.615,81.385 C694.615,79.957 694.048,78.587 693.038,77.577 C692.028,76.567 690.659,76 689.231,76 Z M640.769,89.462 L648.846,81.385 L652.326,84.864 L644.249,92.941 Z M689.231,140.615 L640.769,140.615 L640.769,104.037 L646.154,98.652 L646.154,98.652 L663.422,81.385 L689.231,81.385 Z M665,89.462 C665,88.747 665.284,88.063 665.789,87.558 C666.293,87.053 666.978,86.769 667.692,86.769 L681.154,86.769 C682.641,86.769 683.846,87.975 683.846,89.462 C683.846,90.948 682.641,92.154 681.154,92.154 L667.692,92.154 C666.978,92.154 666.293,91.87 665.789,91.365 C665.284,90.86 665,90.176 665,89.462 Z M682.769,110.462 L669.486,120.423 L682.769,130.385 C683.959,131.277 684.2,132.964 683.308,134.154 C682.416,135.343 680.728,135.584 679.538,134.692 L665,123.788 L650.462,134.692 C649.272,135.584 647.584,135.343 646.692,134.154 C645.8,132.964 646.041,131.277 647.231,130.385 L660.514,120.423 L647.231,110.462 C646.041,109.569 645.8,107.882 646.692,106.692 C647.584,105.503 649.272,105.262 650.462,106.154 L665,117.058 L679.538,106.154 C680.728,105.262 682.416,105.503 683.308,106.692 C684.2,107.882 683.959,109.569 682.769,110.462 Z" />
        </g>
    </g>
</svg>