<?xml version="1.0" encoding="UTF-8"?>
<svg height="600" width="800" xmlns="http://www.w3.org/2000/svg" xmlns:xlink="http://www.w3.org/1999/xlink">
    <g id="Notes" font-family="'LucidaGrande', 'Lucida Grande', sans-serif" font-size="13">
        <rect fill="white" height="600.0" width="800.0" x="0.0" y="0.0" />
        <g font-size="13">
            <text x="18.0" y="176.0">Small</text>
            <text x="18.0" y="376.0">Medium</text>
            <text x="18.0" y="576.0">Large</text>
        </g>
        <g font-size="9">
            <text x="250.0" y="30.0">Ultralight</text>
            <text x="450.0" y="30.0">Regular</text>
            <text x="650.0" y="30.0">Black</text>
            <text id="template-version" fill="#505050" text-anchor="end" x="785.0" y="575.0">Template v.3.0</text>
            <a href="https://github.com/swhitty/SwiftDraw">
                <text fill="#505050" text-anchor="end" x="785.0" y="590.0">https://github.com/swhitty/SwiftDraw</text>
            </a>
        </g>
    </g>
    <g id="Guides" stroke="rgb(39, 170, 225)" stroke-width="0.5">
        <path id="Capline-S" d="M18,76 l800,0" />
        <path id="H-reference" d="M85,145.755 L87.685,145.755 L113.369,79.287 L114.052,79.287 L114.052,76 L112.148,76 L85,145.755 Z M95.693,121.536 L130.996,121.536 L130.263,119.313 L96.474,119.313 L95.693,121.536 Z M139.15,145.755 L141.787,145.755 L114.638,76 L113.466,76 L113.466,79.287 L139.15,145.755 Z" stroke="none" />
        <path id="Baseline-S" d="M18,146 l800,0" />
        <path id="left-margin-Ultralight-S" d="M220,56 l0,110" />
        <path id="right-margin-Ultralight-S" d="M310,56 l0,110" />
        <path id="left-margin-Regular-S" d="M420,56 l0,110" />
        <path id="right-margin-Regular-S" d="M510,56 l0,110" />
        <path id="left-margin-Black-S" d="M620,56 l0,110" />
        <path id="right-margin-Black-S" d="M710,56 l0,110" />
        <path id="Capline-M" d="M18,276 l800,0" />
        <path id="Baseline-M" d="M18,346 l800,0" />
        <path id="Capline-L" d="M18,476 l800,0" />
        <path id="Baseline-L" d="M18,546 l800,0" />
    </g>
    <g id="Symbols">
        <g id="Ultralight-S">
            <path d="M280.693,95.307 C278.21,81.938 266.148,72.518 252.576,73.349 C239.003,74.181 228.181,85.003 227.349,98.576 C226.518,112.148 235.938,124.21 249.307,126.693 C251.79,140.062 263.852,149.482 277.424,148.651 C290.997,147.819 301.819,136.997 302.651,123.424 C303.482,109.852 294.062,97.79 280.693,95.307 Z M297.308,121.769 C297.308,122.281 297.284,122.779 297.247,123.287 L280.42,106.46 C280.857,104.639 281.103,102.776 281.154,100.904 C290.66,103.372 297.3,111.948 297.308,121.769 Z M237.225,87.035 L254.934,104.74 C253.626,106.339 252.504,108.083 251.592,109.937 L234.139,92.49 C234.897,90.531 235.936,88.693 237.225,87.035 Z M246.49,80.139 L263.943,97.592 C262.089,98.504 260.346,99.626 258.747,100.934 L241.035,83.225 C242.693,81.936 244.531,80.897 246.49,80.139 Z M267.174,117.438 L258.569,108.833 C259.787,107.218 261.224,105.78 262.839,104.562 L271.445,113.167 C270.225,114.783 268.785,116.22 267.167,117.438 Z M274.191,108.308 L267.692,101.809 C270.257,100.765 273,100.228 275.769,100.231 C275.772,102.998 275.236,105.742 274.191,108.306 Z M255.809,113.692 L262.308,120.191 C259.743,121.235 257,121.772 254.231,121.769 C254.228,119 254.764,116.257 255.809,113.692 Z M271.26,121.066 L288.965,138.775 C287.307,140.064 285.469,141.103 283.51,141.861 L266.057,124.408 C267.913,123.496 269.659,122.375 271.26,121.066 Z M275.066,117.26 C276.374,115.661 277.496,113.917 278.408,112.063 L295.861,129.51 C295.103,131.466 294.063,133.302 292.775,134.958 Z M275.096,94.863 C273.226,94.909 271.367,95.149 269.547,95.58 L252.72,78.753 C253.221,78.716 253.719,78.692 254.231,78.692 C264.057,78.702 272.635,85.35 275.096,94.863 Z M232.692,100.231 C232.692,99.719 232.716,99.221 232.753,98.713 L249.58,115.54 C249.148,117.362 248.908,119.224 248.863,121.096 C239.35,118.635 232.702,110.057 232.692,100.231 Z M254.904,127.154 C256.774,127.108 258.633,126.868 260.453,126.437 L277.28,143.264 C276.779,143.301 276.271,143.325 275.763,143.325 C265.939,143.311 257.365,136.664 254.904,127.154 Z" />
        </g>
        <g id="Regular-S">
            <path d="M480.693,95.307 C478.21,81.938 466.148,72.518 452.576,73.349 C439.003,74.181 428.181,85.003 427.349,98.576 C426.518,112.148 435.938,124.21 449.307,126.693 C451.79,140.062 463.852,149.482 477.424,148.651 C490.997,147.819 501.819,136.997 502.651,123.424 C503.482,109.852 494.062,97.79 480.693,95.307 Z M497.308,121.769 C497.308,122.281 497.284,122.779 497.247,123.287 L480.42,106.46 C480.857,104.639 481.103,102.776 481.154,100.904 C490.66,103.372 497.3,111.948 497.308,121.769 Z M437.225,87.035 L454.934,104.74 C453.626,106.339 452.504,108.083 451.592,109.937 L434.139,92.49 C434.897,90.531 435.936,88.693 437.225,87.035 Z M446.49,80.139 L463.943,97.592 C462.089,98.504 460.346,99.626 458.747,100.934 L441.035,83.225 C442.693,81.936 444.531,80.897 446.49,80.139 Z M467.174,117.438 L458.569,108.833 C459.787,107.218 461.224,105.78 462.839,104.562 L471.445,113.167 C470.225,114.783 468.785,116.22 467.167,117.438 Z M474.191,108.308 L467.692,101.809 C470.257,100.765 473,100.228 475.769,100.231 C475.772,102.998 475.236,105.742 474.191,108.306 Z M455.809,113.692 L462.308,120.191 C459.743,121.235 457,121.772 454.231,121.769 C454.228,119 454.764,116.257 455.809,113.692 Z M471.26,121.066 L488.965,138.775 C487.307,140.064 485.469,141.103 483.51,141.861 L466.057,124.408 C467.913,123.496 469.659,122.375 471.26,121.066 Z M475.066,117.26 C476.374,115.661 477.496,113.917 478.408,112.063 L495.861,129.51 C495.103,131.466 494.063,133.302 492.775,134.958 Z M475.096,94.863 C473.226,94.909 471.367,95.149 469.547,95.58 L452.72,78.753 C453.221,78.716 453.719,78.692 454.231,78.692 C464.057,78.702 472.635,85.35 475.096,94.863 Z M432.692,100.231 C432.692,99.719 432.716,99.221 432.753,98.713 L449.58,115.54 C449.148,117.362 448.908,119.224 448.863,121.096 C439.35,118.635 432.702,110.057 432.692,100.231 Z M454.904,127.154 C456.774,127.108 458.633,126.868 460.453,126.437 L477.28,143.264 C476.779,143.301 476.271,143.325 475.762,143.325 C465.939,143.311 457.365,136.664 454.904,127.154 Z" />
        </g>
        <g id="Black-S">
            <path d="M680.693,95.307 C678.21,81.938 666.148,72.518 652.576,73.349 C639.003,74.181 628.181,85.003 627.349,98.576 C626.518,112.148 635.938,124.21 649.307,126.693 C651.79,140.062 663.852,149.482 677.424,148.651 C690.997,147.819 701.819,136.997 702.651,123.424 C703.482,109.852 694.062,97.79 680.693,95.307 Z M697.308,121.769 C697.308,122.281 697.284,122.779 697.247,123.287 L680.42,106.46 C680.857,104.639 681.103,102.776 681.154,100.904 C690.66,103.372 697.3,111.948 697.308,121.769 Z M637.226,87.035 L654.934,104.74 C653.626,106.339 652.504,108.083 651.592,109.937 L634.139,92.49 C634.897,90.531 635.936,88.693 637.226,87.035 Z M646.49,80.139 L663.943,97.592 C662.089,98.504 660.346,99.626 658.747,100.934 L641.035,83.225 C642.693,81.936 644.531,80.897 646.49,80.139 Z M667.174,117.438 L658.569,108.833 C659.787,107.218 661.224,105.78 662.839,104.562 L671.445,113.167 C670.225,114.783 668.785,116.22 667.167,117.438 Z M674.191,108.308 L667.692,101.809 C670.257,100.765 673,100.228 675.769,100.231 C675.772,102.998 675.236,105.742 674.191,108.306 Z M655.809,113.692 L662.308,120.191 C659.743,121.235 657,121.772 654.231,121.769 C654.228,119 654.764,116.257 655.809,113.692 Z M671.26,121.066 L688.965,138.775 C687.307,140.064 685.469,141.103 683.51,141.861 L666.057,124.408 C667.913,123.496 669.659,122.375 671.26,121.066 Z M675.066,117.26 C676.374,115.661 677.496,113.917 678.408,112.063 L695.861,129.51 C695.103,131.466 694.063,133.302 692.775,134.958 Z M675.096,94.863 C673.226,94.909 671.367,95.149 669.547,95.58 L652.72,78.753 C653.221,78.716 653.719,78.692 654.231,78.692 C664.057,78.702 672.635,85.35 675.096,94.863 Z M632.692,100.231 C632.692,99.719 632.716,99.221 632.753,98.713 L649.58,115.54 C649.148,117.362 648.908,119.224 648.863,121.096 C639.35,118.635 632.702,110.057 632.692,100.231 Z M654.904,127.154 C656.774,127.108 658.633,126.868 660.453,126.437 L677.28,143.264 C676.779,143.301 676.271,143.325 675.763,143.325 C665.939,143.311 657.365,136.664 654.904,127.154 Z" />
        </g>
    </g>
</svg>