<?xml version="1.0" encoding="UTF-8"?>
<svg height="600" width="800" xmlns="http://www.w3.org/2000/svg" xmlns:xlink="http://www.w3.org/1999/xlink">
    <g id="Notes" font-family="'LucidaGrande', 'Lucida Grande', sans-serif" font-size="13">
        <rect fill="white" height="600.0" width="800.0" x="0.0" y="0.0" />
        <g font-size="13">
            <text x="18.0" y="176.0">Small</text>
            <text x="18.0" y="376.0">Medium</text>
            <text x="18.0" y="576.0">Large</text>
        </g>
        <g font-size="9">
            <text x="250.0" y="30.0">Ultralight</text>
            <text x="450.0" y="30.0">Regular</text>
            <text x="650.0" y="30.0">Black</text>
            <text id="template-version" fill="#505050" text-anchor="end" x="785.0" y="575.0">Template v.3.0</text>
            <a href="https://github.com/swhitty/SwiftDraw">
                <text fill="#505050" text-anchor="end" x="785.0" y="590.0">https://github.com/swhitty/SwiftDraw</text>
            </a>
        </g>
    </g>
    <g id="Guides" stroke="rgb(39, 170, 225)" stroke-width="0.5">
        <path id="Capline-S" d="M18,76 l800,0" />
        <path id="H-reference" d="M85,145.755 L87.685,145.755 L113.369,79.287 L114.052,79.287 L114.052,76 L112.148,76 L85,145.755 Z M95.693,121.536 L130.996,121.536 L130.263,119.313 L96.474,119.313 L95.693,121.536 Z M139.15,145.755 L141.787,145.755 L114.638,76 L113.466,76 L113.466,79.287 L139.15,145.755 Z" stroke="none" />
        <path id="Baseline-S" d="M18,146 l800,0" />
        <path id="left-margin-Ultralight-S" d="M220,56 l0,110" />
        <path id="right-margin-Ultralight-S" d="M310,56 l0,110" />
        <path id="left-margin-Regular-S" d="M420,56 l0,110" />
        <path id="right-margin-Regular-S" d="M510,56 l0,110" />
        <path id="left-margin-Black-S" d="M620,56 l0,110" />
        <path id="right-margin-Black-S" d="M710,56 l0,110" />
        <path id="Capline-M" d="M18,276 l800,0" />
        <path id="Baseline-M" d="M18,346 l800,0" />
        <path id="Capline-L" d="M18,476 l800,0" />
        <path id="Baseline-L" d="M18,546 l800,0" />
    </g>
    <g id="Symbols">
        <g id="Ultralight-S">
            <path d="M291.923,84.077 C287.826,84.073 283.773,84.925 280.023,86.577 C274.941,78.039 266.588,73.789 266.205,73.59 C265.446,73.211 264.554,73.211 263.795,73.59 C263.412,73.786 255.045,78.039 249.977,86.577 C246.227,84.925 242.174,84.073 238.077,84.077 C237.363,84.077 236.678,84.361 236.173,84.865 C235.668,85.37 235.385,86.055 235.385,86.769 L235.385,100.231 C235.403,115.536 247.067,128.313 262.307,129.722 L262.307,141.645 L250.051,135.513 C248.721,134.848 247.103,135.387 246.437,136.717 C245.771,138.048 246.31,139.666 247.641,140.332 L263.794,148.409 C264.553,148.789 265.446,148.789 266.204,148.409 L282.358,140.332 C283.689,139.666 284.228,138.048 283.562,136.717 C282.896,135.387 281.278,134.848 279.948,135.513 L267.692,141.645 L267.692,129.722 C282.933,128.313 294.597,115.536 294.615,100.231 L294.615,86.769 C294.615,86.055 294.332,85.37 293.827,84.865 C293.322,84.361 292.637,84.077 291.923,84.077 Z M262.308,124.313 C250.05,122.928 240.784,112.566 240.769,100.231 L240.769,89.61 C253.026,90.995 262.293,101.357 262.308,113.692 Z M265,101.362 C262.735,96.441 259.17,92.232 254.688,89.189 C257.909,83.875 262.765,80.473 265,79.093 C267.238,80.466 272.094,83.868 275.312,89.189 C270.831,92.233 267.266,96.441 265,101.362 Z M289.231,100.231 C289.216,112.567 279.949,122.928 267.691,124.314 L267.691,113.692 C267.706,101.356 276.973,90.995 289.231,89.61 Z" />
        </g>
        <g id="Regular-S">
            <path d="M491.923,84.077 C487.826,84.073 483.773,84.925 480.023,86.577 C474.941,78.039 466.588,73.789 466.205,73.59 C465.446,73.211 464.554,73.211 463.795,73.59 C463.412,73.786 455.045,78.039 449.977,86.577 C446.227,84.925 442.174,84.073 438.077,84.077 C437.363,84.077 436.678,84.361 436.173,84.865 C435.668,85.37 435.385,86.055 435.385,86.769 L435.385,100.231 C435.403,115.536 447.067,128.313 462.307,129.722 L462.307,141.645 L450.051,135.513 C448.721,134.848 447.103,135.387 446.437,136.717 C445.771,138.048 446.31,139.666 447.641,140.332 L463.794,148.409 C464.553,148.789 465.446,148.789 466.204,148.409 L482.358,140.332 C483.689,139.666 484.228,138.048 483.562,136.717 C482.896,135.387 481.278,134.848 479.947,135.513 L467.692,141.645 L467.692,129.722 C482.933,128.313 494.597,115.536 494.615,100.231 L494.615,86.769 C494.615,86.055 494.332,85.37 493.827,84.865 C493.322,84.361 492.637,84.077 491.923,84.077 Z M462.308,124.313 C450.05,122.928 440.784,112.566 440.769,100.231 L440.769,89.61 C453.026,90.995 462.293,101.357 462.308,113.692 Z M465,101.362 C462.735,96.441 459.17,92.232 454.688,89.189 C457.909,83.875 462.765,80.473 465,79.093 C467.238,80.466 472.094,83.868 475.312,89.189 C470.831,92.233 467.266,96.441 465,101.362 Z M489.231,100.231 C489.216,112.567 479.949,122.928 467.691,124.314 L467.691,113.692 C467.706,101.356 476.973,90.995 489.231,89.61 Z" />
        </g>
        <g id="Black-S">
            <path d="M691.923,84.077 C687.826,84.073 683.773,84.925 680.023,86.577 C674.941,78.039 666.589,73.789 666.205,73.59 C665.446,73.211 664.554,73.211 663.795,73.59 C663.412,73.786 655.045,78.039 649.977,86.577 C646.228,84.925 642.174,84.073 638.077,84.077 C637.363,84.077 636.678,84.361 636.173,84.865 C635.668,85.37 635.385,86.055 635.385,86.769 L635.385,100.231 C635.403,115.536 647.067,128.313 662.307,129.722 L662.307,141.645 L650.051,135.513 C648.721,134.848 647.103,135.387 646.437,136.717 C645.771,138.048 646.31,139.666 647.641,140.332 L663.794,148.409 C664.553,148.789 665.446,148.789 666.204,148.409 L682.358,140.332 C683.689,139.666 684.228,138.048 683.562,136.717 C682.896,135.387 681.278,134.848 679.948,135.513 L667.692,141.645 L667.692,129.722 C682.933,128.313 694.597,115.536 694.615,100.231 L694.615,86.769 C694.615,86.055 694.332,85.37 693.827,84.865 C693.322,84.361 692.637,84.077 691.923,84.077 Z M662.308,124.313 C650.05,122.928 640.784,112.566 640.769,100.231 L640.769,89.61 C653.026,90.995 662.293,101.357 662.308,113.692 Z M665,101.362 C662.735,96.441 659.17,92.232 654.688,89.189 C657.909,83.875 662.765,80.473 665,79.093 C667.238,80.466 672.094,83.868 675.312,89.189 C670.831,92.233 667.266,96.441 665,101.362 Z M689.231,100.231 C689.216,112.567 679.949,122.928 667.691,124.314 L667.691,113.692 C667.706,101.356 676.973,90.995 689.231,89.61 Z" />
        </g>
    </g>
</svg>