<?xml version="1.0" encoding="UTF-8"?>
<svg height="600" width="800" xmlns="http://www.w3.org/2000/svg" xmlns:xlink="http://www.w3.org/1999/xlink">
    <g id="Notes" font-family="'LucidaGrande', 'Lucida Grande', sans-serif" font-size="13">
        <rect fill="white" height="600.0" width="800.0" x="0.0" y="0.0" />
        <g font-size="13">
            <text x="18.0" y="176.0">Small</text>
            <text x="18.0" y="376.0">Medium</text>
            <text x="18.0" y="576.0">Large</text>
        </g>
        <g font-size="9">
            <text x="250.0" y="30.0">Ultralight</text>
            <text x="450.0" y="30.0">Regular</text>
            <text x="650.0" y="30.0">Black</text>
            <text id="template-version" fill="#505050" text-anchor="end" x="785.0" y="575.0">Template v.3.0</text>
            <a href="https://github.com/swhitty/SwiftDraw">
                <text fill="#505050" text-anchor="end" x="785.0" y="590.0">https://github.com/swhitty/SwiftDraw</text>
            </a>
        </g>
    </g>
    <g id="Guides" stroke="rgb(39, 170, 225)" stroke-width="0.5">
        <path id="Capline-S" d="M18,76 l800,0" />
        <path id="H-reference" d="M85,145.755 L87.685,145.755 L113.369,79.287 L114.052,79.287 L114.052,76 L112.148,76 L85,145.755 Z M95.693,121.536 L130.996,121.536 L130.263,119.313 L96.474,119.313 L95.693,121.536 Z M139.15,145.755 L141.787,145.755 L114.638,76 L113.466,76 L113.466,79.287 L139.15,145.755 Z" stroke="none" />
        <path id="Baseline-S" d="M18,146 l800,0" />
        <path id="left-margin-Ultralight-S" d="M220,56 l0,110" />
        <path id="right-margin-Ultralight-S" d="M310,56 l0,110" />
        <path id="left-margin-Regular-S" d="M420,56 l0,110" />
        <path id="right-margin-Regular-S" d="M510,56 l0,110" />
        <path id="left-margin-Black-S" d="M620,56 l0,110" />
        <path id="right-margin-Black-S" d="M710,56 l0,110" />
        <path id="Capline-M" d="M18,276 l800,0" />
        <path id="Baseline-M" d="M18,346 l800,0" />
        <path id="Capline-L" d="M18,476 l800,0" />
        <path id="Baseline-L" d="M18,546 l800,0" />
    </g>
    <g id="Symbols">
        <g id="Ultralight-S">
            <path d="M277.674,133.326 C278.18,133.831 278.464,134.516 278.464,135.231 C278.464,135.945 278.18,136.631 277.674,137.136 L266.905,147.905 C266.4,148.41 265.715,148.694 265,148.694 C264.285,148.694 263.6,148.41 263.095,147.905 L252.326,137.136 C251.273,136.082 251.274,134.376 252.327,133.325 C253.38,132.273 255.085,132.274 256.137,133.327 L262.308,139.501 L262.308,82.499 L256.136,88.674 C255.085,89.726 253.38,89.727 252.327,88.675 C251.274,87.624 251.273,85.918 252.325,84.865 L263.094,74.096 C263.599,73.591 264.284,73.307 264.999,73.307 C265.714,73.307 266.399,73.591 266.904,74.096 L277.673,84.865 C278.725,85.919 278.724,87.625 277.672,88.676 C276.619,89.728 274.914,89.727 273.862,88.674 L267.692,82.499 L267.692,139.501 L273.864,133.326 C274.369,132.82 275.055,132.536 275.769,132.536 C276.484,132.536 277.169,132.82 277.674,133.326 Z" />
        </g>
        <g id="Regular-S">
            <path d="M477.674,133.326 C478.18,133.831 478.464,134.516 478.464,135.231 C478.464,135.945 478.18,136.631 477.674,137.136 L466.905,147.905 C466.4,148.41 465.715,148.694 465,148.694 C464.285,148.694 463.6,148.41 463.095,147.905 L452.326,137.136 C451.273,136.082 451.274,134.376 452.327,133.325 C453.38,132.273 455.085,132.274 456.137,133.327 L462.308,139.501 L462.308,82.499 L456.136,88.674 C455.085,89.726 453.38,89.727 452.327,88.675 C451.274,87.624 451.273,85.918 452.325,84.865 L463.094,74.096 C463.599,73.591 464.284,73.307 464.999,73.307 C465.714,73.307 466.399,73.591 466.904,74.096 L477.673,84.865 C478.725,85.919 478.724,87.625 477.672,88.676 C476.619,89.728 474.914,89.727 473.862,88.674 L467.692,82.499 L467.692,139.501 L473.864,133.326 C474.369,132.82 475.055,132.536 475.769,132.536 C476.484,132.536 477.169,132.82 477.674,133.326 Z" />
        </g>
        <g id="Black-S">
            <path d="M677.674,133.326 C678.18,133.831 678.464,134.516 678.464,135.231 C678.464,135.945 678.18,136.631 677.674,137.136 L666.905,147.905 C666.4,148.41 665.715,148.694 665,148.694 C664.285,148.694 663.6,148.41 663.095,147.905 L652.326,137.136 C651.273,136.082 651.274,134.376 652.327,133.325 C653.38,132.273 655.085,132.274 656.137,133.327 L662.308,139.501 L662.308,82.499 L656.136,88.674 C655.085,89.726 653.38,89.727 652.327,88.675 C651.274,87.624 651.273,85.918 652.325,84.865 L663.094,74.096 C663.599,73.591 664.284,73.307 664.999,73.307 C665.714,73.307 666.399,73.591 666.904,74.096 L677.673,84.865 C678.725,85.919 678.724,87.625 677.672,88.676 C676.619,89.728 674.914,89.727 673.862,88.674 L667.692,82.499 L667.692,139.501 L673.864,133.326 C674.369,132.82 675.055,132.536 675.769,132.536 C676.484,132.536 677.169,132.82 677.674,133.326 Z" />
        </g>
    </g>
</svg>