<?xml version="1.0" encoding="UTF-8"?>
<svg height="600" width="800" xmlns="http://www.w3.org/2000/svg" xmlns:xlink="http://www.w3.org/1999/xlink">
    <g id="Notes" font-family="'LucidaGrande', 'Lucida Grande', sans-serif" font-size="13">
        <rect fill="white" height="600.0" width="800.0" x="0.0" y="0.0" />
        <g font-size="13">
            <text x="18.0" y="176.0">Small</text>
            <text x="18.0" y="376.0">Medium</text>
            <text x="18.0" y="576.0">Large</text>
        </g>
        <g font-size="9">
            <text x="250.0" y="30.0">Ultralight</text>
            <text x="450.0" y="30.0">Regular</text>
            <text x="650.0" y="30.0">Black</text>
            <text id="template-version" fill="#505050" text-anchor="end" x="785.0" y="575.0">Template v.3.0</text>
            <a href="https://github.com/swhitty/SwiftDraw">
                <text fill="#505050" text-anchor="end" x="785.0" y="590.0">https://github.com/swhitty/SwiftDraw</text>
            </a>
        </g>
    </g>
    <g id="Guides" stroke="rgb(39, 170, 225)" stroke-width="0.5">
        <path id="Capline-S" d="M18,76 l800,0" />
        <path id="H-reference" d="M85,145.755 L87.685,145.755 L113.369,79.287 L114.052,79.287 L114.052,76 L112.148,76 L85,145.755 Z M95.693,121.536 L130.996,121.536 L130.263,119.313 L96.474,119.313 L95.693,121.536 Z M139.15,145.755 L141.787,145.755 L114.638,76 L113.466,76 L113.466,79.287 L139.15,145.755 Z" stroke="none" />
        <path id="Baseline-S" d="M18,146 l800,0" />
        <path id="left-margin-Ultralight-S" d="M220,56 l0,110" />
        <path id="right-margin-Ultralight-S" d="M310,56 l0,110" />
        <path id="left-margin-Regular-S" d="M420,56 l0,110" />
        <path id="right-margin-Regular-S" d="M510,56 l0,110" />
        <path id="left-margin-Black-S" d="M620,56 l0,110" />
        <path id="right-margin-Black-S" d="M710,56 l0,110" />
        <path id="Capline-M" d="M18,276 l800,0" />
        <path id="Baseline-M" d="M18,346 l800,0" />
        <path id="Capline-L" d="M18,476 l800,0" />
        <path id="Baseline-L" d="M18,546 l800,0" />
    </g>
    <g id="Symbols">
        <g id="Ultralight-S">
            <path d="M265,76 C245.67,76 230,91.67 230,111 C230,130.33 245.67,146 265,146 C284.33,146 300,130.33 300,111 C299.979,91.677 284.32,76.02 264.999,76 Z M265,81.385 C270.738,81.379 276.352,83.049 281.154,86.19 L281.154,92.827 L273.693,101.489 L263.102,102.923 L262.998,102.849 L256.378,98.521 C255.192,97.686 253.72,97.364 252.294,97.629 C250.868,97.894 249.609,98.723 248.802,99.928 L241.755,110.462 C241.168,111.339 240.852,112.37 240.847,113.426 L240.769,125.619 L239.669,126.343 C234.13,117.198 233.95,105.777 239.198,96.462 C244.447,87.147 254.308,81.385 265,81.385 Z M242.886,130.677 L243.734,130.122 C245.238,129.13 246.146,127.451 246.154,125.65 L246.225,113.457 L253.278,102.923 C253.313,102.95 253.349,102.974 253.386,102.997 L260.006,107.328 C261.115,108.111 262.48,108.444 263.826,108.261 L274.423,106.824 C275.73,106.649 276.927,106.001 277.788,105.003 L285.25,96.334 C286.084,95.356 286.541,94.112 286.538,92.827 L286.538,90.697 C293.956,98.544 296.506,109.81 293.192,120.087 L287.76,115.119 C286.218,113.704 283.997,113.31 282.062,114.11 L271.812,118.367 C270.068,119.099 268.833,120.687 268.554,122.557 L267.75,128.005 C267.349,130.721 269.056,133.303 271.711,133.999 L278.933,135.904 L279.727,136.701 C267.571,143.676 252.188,141.161 242.886,130.677 Z M284.183,133.548 L282.736,132.098 C282.061,131.42 281.217,130.934 280.292,130.691 L273.077,128.786 L273.881,123.338 L284.129,119.077 L290.913,125.296 C289.184,128.429 286.904,131.224 284.183,133.548 Z" />
        </g>
        <g id="Regular-S">
            <path d="M465,76 C445.67,76 430,91.67 430,111 C430,130.33 445.67,146 465,146 C484.33,146 500,130.33 500,111 C499.979,91.677 484.32,76.02 464.999,76 Z M465,81.385 C470.738,81.379 476.352,83.049 481.154,86.19 L481.154,92.827 L473.693,101.489 L463.102,102.923 L462.998,102.849 L456.378,98.521 C455.192,97.686 453.72,97.364 452.294,97.629 C450.868,97.894 449.609,98.723 448.802,99.928 L441.755,110.462 C441.168,111.339 440.852,112.37 440.847,113.426 L440.769,125.619 L439.669,126.343 C434.13,117.198 433.95,105.777 439.198,96.462 C444.447,87.147 454.308,81.385 465,81.385 Z M442.886,130.677 L443.734,130.122 C445.238,129.13 446.146,127.451 446.154,125.65 L446.225,113.457 L453.278,102.923 C453.313,102.95 453.349,102.974 453.386,102.997 L460.006,107.328 C461.115,108.111 462.48,108.444 463.825,108.261 L474.423,106.824 C475.73,106.649 476.927,106.001 477.788,105.003 L485.25,96.334 C486.084,95.356 486.541,94.112 486.538,92.827 L486.538,90.697 C493.956,98.544 496.506,109.81 493.192,120.087 L487.76,115.119 C486.218,113.704 483.997,113.31 482.062,114.11 L471.812,118.367 C470.068,119.099 468.833,120.687 468.554,122.557 L467.75,128.005 C467.349,130.721 469.056,133.303 471.711,133.999 L478.933,135.904 L479.727,136.701 C467.57,143.676 452.188,141.161 442.886,130.677 Z M484.183,133.548 L482.736,132.098 C482.061,131.42 481.217,130.934 480.292,130.691 L473.077,128.786 L473.881,123.338 L484.129,119.077 L490.913,125.296 C489.184,128.429 486.904,131.224 484.183,133.548 Z" />
        </g>
        <g id="Black-S">
            <path d="M665,76 C645.67,76 630,91.67 630,111 C630,130.33 645.67,146 665,146 C684.33,146 700,130.33 700,111 C699.979,91.677 684.32,76.02 664.999,76 Z M665,81.385 C670.738,81.379 676.352,83.049 681.154,86.19 L681.154,92.827 L673.693,101.489 L663.102,102.923 L662.998,102.849 L656.378,98.521 C655.192,97.686 653.72,97.364 652.294,97.629 C650.868,97.894 649.609,98.723 648.802,99.928 L641.755,110.462 C641.168,111.339 640.852,112.37 640.847,113.426 L640.769,125.619 L639.669,126.343 C634.13,117.198 633.95,105.777 639.198,96.462 C644.447,87.147 654.308,81.385 665,81.385 Z M642.886,130.677 L643.734,130.122 C645.238,129.13 646.146,127.451 646.154,125.65 L646.225,113.457 L653.278,102.923 C653.313,102.95 653.349,102.974 653.386,102.997 L660.006,107.328 C661.115,108.111 662.48,108.444 663.826,108.261 L674.423,106.824 C675.73,106.649 676.927,106.001 677.788,105.003 L685.25,96.334 C686.084,95.356 686.541,94.112 686.538,92.827 L686.538,90.697 C693.956,98.544 696.506,109.81 693.192,120.087 L687.76,115.119 C686.218,113.704 683.997,113.31 682.062,114.11 L671.812,118.367 C670.068,119.099 668.833,120.687 668.554,122.557 L667.75,128.005 C667.349,130.721 669.056,133.303 671.711,133.999 L678.933,135.904 L679.727,136.701 C667.571,143.676 652.188,141.161 642.886,130.677 Z M684.183,133.548 L682.736,132.098 C682.061,131.42 681.217,130.934 680.292,130.691 L673.077,128.786 L673.881,123.338 L684.129,119.077 L690.913,125.296 C689.184,128.429 686.904,131.224 684.183,133.548 Z" />
        </g>
    </g>
</svg>