<?xml version="1.0" encoding="UTF-8"?>
<svg height="600" width="800" xmlns="http://www.w3.org/2000/svg" xmlns:xlink="http://www.w3.org/1999/xlink">
    <g id="Notes" font-family="'LucidaGrande', 'Lucida Grande', sans-serif" font-size="13">
        <rect fill="white" height="600.0" width="800.0" x="0.0" y="0.0" />
        <g font-size="13">
            <text x="18.0" y="176.0">Small</text>
            <text x="18.0" y="376.0">Medium</text>
            <text x="18.0" y="576.0">Large</text>
        </g>
        <g font-size="9">
            <text x="250.0" y="30.0">Ultralight</text>
            <text x="450.0" y="30.0">Regular</text>
            <text x="650.0" y="30.0">Black</text>
            <text id="template-version" fill="#505050" text-anchor="end" x="785.0" y="575.0">Template v.3.0</text>
            <a href="https://github.com/swhitty/SwiftDraw">
                <text fill="#505050" text-anchor="end" x="785.0" y="590.0">https://github.com/swhitty/SwiftDraw</text>
            </a>
        </g>
    </g>
    <g id="Guides" stroke="rgb(39, 170, 225)" stroke-width="0.5">
        <path id="Capline-S" d="M18,76 l800,0" />
        <path id="H-reference" d="M85,145.755 L87.685,145.755 L113.369,79.287 L114.052,79.287 L114.052,76 L112.148,76 L85,145.755 Z M95.693,121.536 L130.996,121.536 L130.263,119.313 L96.474,119.313 L95.693,121.536 Z M139.15,145.755 L141.787,145.755 L114.638,76 L113.466,76 L113.466,79.287 L139.15,145.755 Z" stroke="none" />
        <path id="Baseline-S" d="M18,146 l800,0" />
        <path id="left-margin-Ultralight-S" d="M220,56 l0,110" />
        <path id="right-margin-Ultralight-S" d="M310,56 l0,110" />
        <path id="left-margin-Regular-S" d="M420,56 l0,110" />
        <path id="right-margin-Regular-S" d="M510,56 l0,110" />
        <path id="left-margin-Black-S" d="M620,56 l0,110" />
        <path id="right-margin-Black-S" d="M710,56 l0,110" />
        <path id="Capline-M" d="M18,276 l800,0" />
        <path id="Baseline-M" d="M18,346 l800,0" />
        <path id="Capline-L" d="M18,476 l800,0" />
        <path id="Baseline-L" d="M18,546 l800,0" />
    </g>
    <g id="Symbols">
        <g id="Ultralight-S">
            <path d="M295.389,84.191 L274.968,78.066 L285.064,73.018 C286.393,72.349 286.927,70.73 286.257,69.402 C285.588,68.074 283.969,67.54 282.641,68.209 L267.019,76.017 C252.42,76.396 240.779,88.335 240.769,102.94 L240.769,137.923 C240.769,139.41 241.975,140.615 243.462,140.615 C244.948,140.615 246.154,139.41 246.154,137.923 L246.154,127.154 L251.538,127.154 L251.538,146 C251.538,147.428 252.106,148.798 253.116,149.807 C254.125,150.817 255.495,151.385 256.923,151.385 L278.462,151.385 C279.89,151.385 281.259,150.817 282.269,149.807 C283.279,148.798 283.846,147.428 283.846,146 L283.846,102.923 C283.835,95.046 278.151,88.321 270.385,86.998 L270.385,82.31 L293.842,89.347 C294.771,89.65 295.79,89.425 296.506,88.761 C297.223,88.097 297.523,87.097 297.291,86.148 C297.059,85.199 296.332,84.45 295.39,84.191 Z M246.154,121.769 L246.154,102.923 C246.168,92.074 254.239,82.925 265.001,81.559 L265.001,86.998 C257.234,88.32 251.55,95.045 251.538,102.923 L251.538,121.769 Z M278.462,146 L256.923,146 L256.923,127.154 L278.462,127.154 L278.462,146 Z M278.462,102.923 L278.462,121.769 L256.923,121.769 L256.923,102.923 C256.923,96.975 261.745,92.154 267.692,92.154 C273.64,92.154 278.462,96.975 278.462,102.923 Z" />
        </g>
        <g id="Regular-S">
            <path d="M495.389,84.191 L474.968,78.066 L485.064,73.018 C486.392,72.349 486.927,70.73 486.257,69.402 C485.588,68.074 483.969,67.54 482.641,68.209 L467.019,76.017 C452.42,76.396 440.779,88.335 440.769,102.94 L440.769,137.923 C440.769,139.41 441.975,140.615 443.462,140.615 C444.948,140.615 446.154,139.41 446.154,137.923 L446.154,127.154 L451.538,127.154 L451.538,146 C451.538,147.428 452.106,148.798 453.116,149.807 C454.125,150.817 455.495,151.385 456.923,151.385 L478.462,151.385 C479.89,151.385 481.259,150.817 482.269,149.807 C483.279,148.798 483.846,147.428 483.846,146 L483.846,102.923 C483.835,95.046 478.151,88.321 470.385,86.998 L470.385,82.31 L493.842,89.347 C494.771,89.65 495.79,89.425 496.506,88.761 C497.223,88.097 497.523,87.097 497.291,86.148 C497.059,85.199 496.332,84.45 495.39,84.191 Z M446.154,121.769 L446.154,102.923 C446.168,92.074 454.239,82.925 465.001,81.559 L465.001,86.998 C457.234,88.32 451.55,95.045 451.538,102.923 L451.538,121.769 Z M478.462,146 L456.923,146 L456.923,127.154 L478.462,127.154 L478.462,146 Z M478.462,102.923 L478.462,121.769 L456.923,121.769 L456.923,102.923 C456.923,96.975 461.745,92.154 467.692,92.154 C473.64,92.154 478.462,96.975 478.462,102.923 Z" />
        </g>
        <g id="Black-S">
            <path d="M695.389,84.191 L674.968,78.066 L685.064,73.018 C686.393,72.349 686.927,70.73 686.257,69.402 C685.588,68.074 683.969,67.54 682.641,68.209 L667.019,76.017 C652.42,76.396 640.779,88.335 640.769,102.94 L640.769,137.923 C640.769,139.41 641.975,140.615 643.462,140.615 C644.948,140.615 646.154,139.41 646.154,137.923 L646.154,127.154 L651.538,127.154 L651.538,146 C651.538,147.428 652.106,148.798 653.116,149.807 C654.125,150.817 655.495,151.385 656.923,151.385 L678.462,151.385 C679.89,151.385 681.259,150.817 682.269,149.807 C683.279,148.798 683.846,147.428 683.846,146 L683.846,102.923 C683.835,95.046 678.151,88.321 670.385,86.998 L670.385,82.31 L693.842,89.347 C694.771,89.65 695.79,89.425 696.506,88.761 C697.223,88.097 697.523,87.097 697.291,86.148 C697.059,85.199 696.332,84.45 695.39,84.191 Z M646.154,121.769 L646.154,102.923 C646.168,92.074 654.239,82.925 665.001,81.559 L665.001,86.998 C657.234,88.32 651.55,95.045 651.538,102.923 L651.538,121.769 Z M678.462,146 L656.923,146 L656.923,127.154 L678.462,127.154 L678.462,146 Z M678.462,102.923 L678.462,121.769 L656.923,121.769 L656.923,102.923 C656.923,96.975 661.745,92.154 667.692,92.154 C673.64,92.154 678.462,96.975 678.462,102.923 Z" />
        </g>
    </g>
</svg>