<?xml version="1.0" encoding="UTF-8"?>
<svg height="600" width="800" xmlns="http://www.w3.org/2000/svg" xmlns:xlink="http://www.w3.org/1999/xlink">
    <g id="Notes" font-family="'LucidaGrande', 'Lucida Grande', sans-serif" font-size="13">
        <rect fill="white" height="600.0" width="800.0" x="0.0" y="0.0" />
        <g font-size="13">
            <text x="18.0" y="176.0">Small</text>
            <text x="18.0" y="376.0">Medium</text>
            <text x="18.0" y="576.0">Large</text>
        </g>
        <g font-size="9">
            <text x="250.0" y="30.0">Ultralight</text>
            <text x="450.0" y="30.0">Regular</text>
            <text x="650.0" y="30.0">Black</text>
            <text id="template-version" fill="#505050" text-anchor="end" x="785.0" y="575.0">Template v.3.0</text>
            <a href="https://github.com/swhitty/SwiftDraw">
                <text fill="#505050" text-anchor="end" x="785.0" y="590.0">https://github.com/swhitty/SwiftDraw</text>
            </a>
        </g>
    </g>
    <g id="Guides" stroke="rgb(39, 170, 225)" stroke-width="0.5">
        <path id="Capline-S" d="M18,76 l800,0" />
        <path id="H-reference" d="M85,145.755 L87.685,145.755 L113.369,79.287 L114.052,79.287 L114.052,76 L112.148,76 L85,145.755 Z M95.693,121.536 L130.996,121.536 L130.263,119.313 L96.474,119.313 L95.693,121.536 Z M139.15,145.755 L141.787,145.755 L114.638,76 L113.466,76 L113.466,79.287 L139.15,145.755 Z" stroke="none" />
        <path id="Baseline-S" d="M18,146 l800,0" />
        <path id="left-margin-Ultralight-S" d="M220,56 l0,110" />
        <path id="right-margin-Ultralight-S" d="M310,56 l0,110" />
        <path id="left-margin-Regular-S" d="M420,56 l0,110" />
        <path id="right-margin-Regular-S" d="M510,56 l0,110" />
        <path id="left-margin-Black-S" d="M620,56 l0,110" />
        <path id="right-margin-Black-S" d="M710,56 l0,110" />
        <path id="Capline-M" d="M18,276 l800,0" />
        <path id="Baseline-M" d="M18,346 l800,0" />
        <path id="Capline-L" d="M18,476 l800,0" />
        <path id="Baseline-L" d="M18,546 l800,0" />
    </g>
    <g id="Symbols">
        <g id="Ultralight-S">
            <path d="M307.962,123.688 L307.962,123.688 L307.962,123.688 C307.964,123.679 307.964,123.669 307.962,123.661 L300.461,98.683 C299.788,96.399 297.686,94.835 295.305,94.846 L291.923,94.846 C290.436,94.846 289.231,96.052 289.231,97.538 C289.231,99.025 290.436,100.231 291.923,100.231 L295.305,100.231 L301.767,121.769 L291.25,121.769 L284.307,98.683 C283.634,96.399 281.533,94.835 279.151,94.846 L275.769,94.846 C274.282,94.846 273.077,96.052 273.077,97.538 C273.077,99.025 274.282,100.231 275.769,100.231 L279.151,100.231 L285.613,121.769 L275.096,121.769 L268.153,98.683 C267.481,96.399 265.379,94.835 262.998,94.846 L234.712,94.846 C232.324,94.827 230.213,96.393 229.539,98.683 L222.048,123.654 L222.048,123.671 L222.048,123.671 C222.048,123.671 222.048,123.688 222.048,123.698 C221.97,123.945 221.928,124.202 221.923,124.462 C221.923,125.176 222.207,125.86 222.712,126.365 C223.217,126.87 223.901,127.154 224.615,127.154 L305.385,127.154 C306.236,127.154 307.036,126.751 307.544,126.068 C308.052,125.385 308.207,124.503 307.962,123.688 Z M234.712,100.231 L263.014,100.231 L269.476,121.769 L228.233,121.769 Z" />
        </g>
        <g id="Regular-S">
            <path d="M507.962,123.688 L507.962,123.688 L507.962,123.688 C507.964,123.679 507.964,123.669 507.962,123.661 L500.461,98.683 C499.788,96.399 497.686,94.835 495.305,94.846 L491.923,94.846 C490.436,94.846 489.231,96.052 489.231,97.538 C489.231,99.025 490.436,100.231 491.923,100.231 L495.305,100.231 L501.767,121.769 L491.25,121.769 L484.307,98.683 C483.634,96.399 481.533,94.835 479.151,94.846 L475.769,94.846 C474.282,94.846 473.077,96.052 473.077,97.538 C473.077,99.025 474.282,100.231 475.769,100.231 L479.151,100.231 L485.613,121.769 L475.096,121.769 L468.153,98.683 C467.481,96.399 465.379,94.835 462.998,94.846 L434.712,94.846 C432.324,94.827 430.213,96.393 429.539,98.683 L422.048,123.654 L422.048,123.671 L422.048,123.671 C422.048,123.671 422.048,123.688 422.048,123.698 C421.97,123.945 421.928,124.202 421.923,124.462 C421.923,125.176 422.207,125.86 422.712,126.365 C423.217,126.87 423.901,127.154 424.615,127.154 L505.385,127.154 C506.236,127.154 507.036,126.751 507.544,126.068 C508.052,125.385 508.207,124.503 507.962,123.688 Z M434.712,100.231 L463.014,100.231 L469.476,121.769 L428.233,121.769 Z" />
        </g>
        <g id="Black-S">
            <path d="M707.963,123.688 L707.963,123.688 L707.963,123.688 C707.964,123.679 707.964,123.669 707.963,123.661 L700.461,98.683 C699.788,96.399 697.686,94.835 695.305,94.846 L691.923,94.846 C690.436,94.846 689.231,96.052 689.231,97.538 C689.231,99.025 690.436,100.231 691.923,100.231 L695.305,100.231 L701.767,121.769 L691.25,121.769 L684.307,98.683 C683.634,96.399 681.533,94.835 679.151,94.846 L675.769,94.846 C674.282,94.846 673.077,96.052 673.077,97.538 C673.077,99.025 674.282,100.231 675.769,100.231 L679.151,100.231 L685.613,121.769 L675.096,121.769 L668.153,98.683 C667.481,96.399 665.379,94.835 662.998,94.846 L634.712,94.846 C632.324,94.827 630.214,96.393 629.539,98.683 L622.048,123.654 L622.048,123.671 L622.048,123.671 C622.048,123.671 622.048,123.688 622.048,123.698 C621.97,123.945 621.928,124.202 621.923,124.462 C621.923,125.176 622.207,125.86 622.712,126.365 C623.217,126.87 623.901,127.154 624.615,127.154 L705.385,127.154 C706.236,127.154 707.036,126.751 707.544,126.068 C708.052,125.385 708.207,124.503 707.963,123.688 Z M634.712,100.231 L663.014,100.231 L669.476,121.769 L628.233,121.769 Z" />
        </g>
    </g>
</svg>