<?xml version="1.0" encoding="UTF-8"?>
<svg height="600" width="800" xmlns="http://www.w3.org/2000/svg" xmlns:xlink="http://www.w3.org/1999/xlink">
    <g id="Notes" font-family="'LucidaGrande', 'Lucida Grande', sans-serif" font-size="13">
        <rect fill="white" height="600.0" width="800.0" x="0.0" y="0.0" />
        <g font-size="13">
            <text x="18.0" y="176.0">Small</text>
            <text x="18.0" y="376.0">Medium</text>
            <text x="18.0" y="576.0">Large</text>
        </g>
        <g font-size="9">
            <text x="250.0" y="30.0">Ultralight</text>
            <text x="450.0" y="30.0">Regular</text>
            <text x="650.0" y="30.0">Black</text>
            <text id="template-version" fill="#505050" text-anchor="end" x="785.0" y="575.0">Template v.3.0</text>
            <a href="https://github.com/swhitty/SwiftDraw">
                <text fill="#505050" text-anchor="end" x="785.0" y="590.0">https://github.com/swhitty/SwiftDraw</text>
            </a>
        </g>
    </g>
    <g id="Guides" stroke="rgb(39, 170, 225)" stroke-width="0.5">
        <path id="Capline-S" d="M18,76 l800,0" />
        <path id="H-reference" d="M85,145.755 L87.685,145.755 L113.369,79.287 L114.052,79.287 L114.052,76 L112.148,76 L85,145.755 Z M95.693,121.536 L130.996,121.536 L130.263,119.313 L96.474,119.313 L95.693,121.536 Z M139.15,145.755 L141.787,145.755 L114.638,76 L113.466,76 L113.466,79.287 L139.15,145.755 Z" stroke="none" />
        <path id="Baseline-S" d="M18,146 l800,0" />
        <path id="left-margin-Ultralight-S" d="M220,56 l0,110" />
        <path id="right-margin-Ultralight-S" d="M310,56 l0,110" />
        <path id="left-margin-Regular-S" d="M420,56 l0,110" />
        <path id="right-margin-Regular-S" d="M510,56 l0,110" />
        <path id="left-margin-Black-S" d="M620,56 l0,110" />
        <path id="right-margin-Black-S" d="M710,56 l0,110" />
        <path id="Capline-M" d="M18,276 l800,0" />
        <path id="Baseline-M" d="M18,346 l800,0" />
        <path id="Capline-L" d="M18,476 l800,0" />
        <path id="Baseline-L" d="M18,546 l800,0" />
    </g>
    <g id="Symbols">
        <g id="Ultralight-S">
            <path d="M279.808,92.154 C278.414,92.153 277.023,92.266 275.648,92.49 C274.645,82.127 267.127,73.565 256.98,71.231 C256.077,71.024 255.13,71.295 254.475,71.95 C253.819,72.605 253.546,73.552 253.753,74.455 C255.037,80.051 253.703,85.928 250.128,90.421 C246.553,94.914 241.126,97.533 235.385,97.538 C233.959,97.539 232.538,97.378 231.148,97.061 C230.244,96.853 229.296,97.125 228.64,97.781 C227.984,98.437 227.712,99.384 227.92,100.288 C229.381,106.587 233.292,112.044 238.787,115.452 C234.885,120.768 234.302,127.826 237.28,133.71 C240.258,139.594 246.29,143.304 252.885,143.308 L279.808,143.308 C293.933,143.308 305.385,131.857 305.385,117.731 C305.385,103.605 293.933,92.154 279.808,92.154 Z M234.5,102.923 C234.792,102.923 235.088,102.923 235.385,102.923 C248.761,102.908 259.601,92.068 259.615,78.692 C259.615,78.393 259.615,78.093 259.615,77.794 C265.935,80.751 270.085,86.977 270.385,93.948 C263.737,96.587 258.492,101.881 255.913,108.553 C251.316,107.758 246.591,108.831 242.788,111.535 C239.167,109.636 236.259,106.614 234.5,102.923 Z M279.808,137.923 L252.885,137.923 C248.369,137.915 244.232,135.396 242.153,131.387 C240.073,127.379 240.395,122.547 242.989,118.85 C245.582,115.153 250.016,113.205 254.493,113.797 C254.369,114.594 254.281,115.409 254.234,116.23 C254.23,117.874 255.437,119.081 256.926,119.081 C258.416,119.081 259.623,117.874 259.623,116.385 C259.699,115.042 259.911,113.71 260.256,112.41 C260.256,112.356 260.286,112.302 260.296,112.249 C263.118,102.194 273.135,95.945 283.407,97.83 C293.678,99.716 300.822,109.117 299.888,119.518 C298.955,129.919 290.251,137.897 279.808,137.923 Z" />
        </g>
        <g id="Regular-S">
            <path d="M479.808,92.154 C478.414,92.153 477.023,92.266 475.648,92.49 C474.645,82.127 467.127,73.565 456.98,71.231 C456.077,71.024 455.13,71.295 454.475,71.95 C453.819,72.605 453.546,73.552 453.753,74.455 C455.037,80.051 453.703,85.928 450.128,90.421 C446.553,94.914 441.126,97.533 435.385,97.538 C433.959,97.539 432.538,97.378 431.148,97.061 C430.244,96.853 429.296,97.125 428.64,97.781 C427.984,98.437 427.712,99.384 427.92,100.288 C429.381,106.587 433.292,112.044 438.787,115.452 C434.885,120.768 434.302,127.826 437.28,133.71 C440.258,139.594 446.29,143.304 452.885,143.308 L479.808,143.308 C493.933,143.308 505.385,131.857 505.385,117.731 C505.385,103.605 493.933,92.154 479.808,92.154 Z M434.5,102.923 C434.792,102.923 435.088,102.923 435.385,102.923 C448.761,102.908 459.601,92.068 459.615,78.692 C459.615,78.393 459.615,78.093 459.615,77.794 C465.935,80.751 470.085,86.977 470.385,93.948 C463.737,96.587 458.492,101.881 455.913,108.553 C451.316,107.758 446.591,108.831 442.788,111.535 C439.167,109.636 436.259,106.614 434.5,102.923 Z M479.808,137.923 L452.885,137.923 C448.369,137.915 444.232,135.396 442.153,131.387 C440.073,127.379 440.395,122.547 442.989,118.85 C445.582,115.153 450.016,113.205 454.493,113.797 C454.369,114.594 454.281,115.409 454.234,116.23 C454.23,117.874 455.437,119.081 456.926,119.081 C458.416,119.081 459.623,117.874 459.623,116.385 C459.699,115.042 459.911,113.71 460.256,112.41 C460.256,112.356 460.286,112.302 460.296,112.249 C463.118,102.194 473.135,95.945 483.407,97.83 C493.678,99.716 500.822,109.117 499.888,119.518 C498.955,129.919 490.251,137.897 479.808,137.923 Z" />
        </g>
        <g id="Black-S">
            <path d="M679.808,92.154 C678.414,92.153 677.023,92.266 675.648,92.49 C674.645,82.127 667.127,73.565 656.98,71.231 C656.077,71.024 655.13,71.295 654.475,71.95 C653.819,72.605 653.546,73.552 653.753,74.455 C655.037,80.051 653.703,85.928 650.128,90.421 C646.553,94.914 641.126,97.533 635.385,97.538 C633.959,97.539 632.538,97.378 631.148,97.061 C630.244,96.853 629.296,97.125 628.64,97.781 C627.984,98.437 627.712,99.384 627.92,100.288 C629.381,106.587 633.292,112.044 638.787,115.452 C634.885,120.768 634.302,127.826 637.28,133.71 C640.258,139.594 646.29,143.304 652.885,143.308 L679.808,143.308 C693.933,143.308 705.385,131.857 705.385,117.731 C705.385,103.605 693.933,92.154 679.808,92.154 Z M634.5,102.923 C634.792,102.923 635.089,102.923 635.385,102.923 C648.761,102.908 659.601,92.068 659.615,78.692 C659.615,78.393 659.615,78.093 659.615,77.794 C665.935,80.751 670.085,86.977 670.385,93.948 C663.737,96.587 658.492,101.881 655.913,108.553 C651.316,107.758 646.591,108.831 642.788,111.535 C639.167,109.636 636.259,106.614 634.5,102.923 Z M679.808,137.923 L652.885,137.923 C648.369,137.915 644.232,135.396 642.153,131.387 C640.073,127.379 640.395,122.547 642.989,118.85 C645.582,115.153 650.016,113.205 654.493,113.797 C654.369,114.594 654.281,115.409 654.234,116.23 C654.23,117.874 655.437,119.081 656.926,119.081 C658.416,119.081 659.623,117.874 659.623,116.385 C659.699,115.042 659.911,113.71 660.256,112.41 C660.256,112.356 660.286,112.302 660.296,112.249 C663.118,102.194 673.135,95.945 683.407,97.83 C693.678,99.716 700.822,109.117 699.888,119.518 C698.955,129.919 690.251,137.897 679.808,137.923 Z" />
        </g>
    </g>
</svg>