<?xml version="1.0" encoding="UTF-8"?>
<svg height="600" width="800" xmlns="http://www.w3.org/2000/svg" xmlns:xlink="http://www.w3.org/1999/xlink">
    <g id="Notes" font-family="'LucidaGrande', 'Lucida Grande', sans-serif" font-size="13">
        <rect fill="white" height="600.0" width="800.0" x="0.0" y="0.0" />
        <g font-size="13">
            <text x="18.0" y="176.0">Small</text>
            <text x="18.0" y="376.0">Medium</text>
            <text x="18.0" y="576.0">Large</text>
        </g>
        <g font-size="9">
            <text x="250.0" y="30.0">Ultralight</text>
            <text x="450.0" y="30.0">Regular</text>
            <text x="650.0" y="30.0">Black</text>
            <text id="template-version" fill="#505050" text-anchor="end" x="785.0" y="575.0">Template v.3.0</text>
            <a href="https://github.com/swhitty/SwiftDraw">
                <text fill="#505050" text-anchor="end" x="785.0" y="590.0">https://github.com/swhitty/SwiftDraw</text>
            </a>
        </g>
    </g>
    <g id="Guides" stroke="rgb(39, 170, 225)" stroke-width="0.5">
        <path id="Capline-S" d="M18,76 l800,0" />
        <path id="H-reference" d="M85,145.755 L87.685,145.755 L113.369,79.287 L114.052,79.287 L114.052,76 L112.148,76 L85,145.755 Z M95.693,121.536 L130.996,121.536 L130.263,119.313 L96.474,119.313 L95.693,121.536 Z M139.15,145.755 L141.787,145.755 L114.638,76 L113.466,76 L113.466,79.287 L139.15,145.755 Z" stroke="none" />
        <path id="Baseline-S" d="M18,146 l800,0" />
        <path id="left-margin-Ultralight-S" d="M220,56 l0,110" />
        <path id="right-margin-Ultralight-S" d="M310,56 l0,110" />
        <path id="left-margin-Regular-S" d="M420,56 l0,110" />
        <path id="right-margin-Regular-S" d="M510,56 l0,110" />
        <path id="left-margin-Black-S" d="M620,56 l0,110" />
        <path id="right-margin-Black-S" d="M710,56 l0,110" />
        <path id="Capline-M" d="M18,276 l800,0" />
        <path id="Baseline-M" d="M18,346 l800,0" />
        <path id="Capline-L" d="M18,476 l800,0" />
        <path id="Baseline-L" d="M18,546 l800,0" />
    </g>
    <g id="Symbols">
        <g id="Ultralight-S">
            <path d="M294.148,134.766 C297.23,131.687 298.154,127.054 296.487,123.029 C294.821,119.003 290.894,116.378 286.537,116.378 C282.18,116.378 278.252,119.003 276.586,123.029 C274.92,127.054 275.844,131.687 278.926,134.766 C276.095,136.573 274.041,139.372 273.168,142.614 C272.785,144.051 273.639,145.526 275.076,145.909 C275.302,145.969 275.535,145.999 275.769,146 C276.99,146 278.058,145.178 278.371,143.998 C279.323,140.42 282.682,137.923 286.538,137.923 C290.395,137.923 293.754,140.42 294.706,143.998 C294.938,144.944 295.663,145.691 296.602,145.951 C297.541,146.211 298.548,145.944 299.233,145.252 C299.919,144.56 300.178,143.551 299.909,142.614 C299.035,139.371 296.98,136.572 294.148,134.766 Z M286.538,121.769 C289.512,121.769 291.923,124.18 291.923,127.154 C291.923,130.128 289.512,132.538 286.538,132.538 C283.565,132.538 281.154,130.128 281.154,127.154 C281.154,125.726 281.721,124.356 282.731,123.346 C283.741,122.337 285.11,121.769 286.538,121.769 Z M294.615,92.154 L266.114,92.154 L256.923,82.963 C255.917,81.949 254.546,81.38 253.117,81.385 L235.385,81.385 C233.957,81.385 232.587,81.952 231.577,82.962 C230.567,83.972 230,85.341 230,86.769 L230,135.436 C230.002,138.295 232.318,140.612 235.176,140.615 L262.496,140.615 C263.983,140.615 265.189,139.41 265.189,137.923 C265.189,136.436 263.983,135.231 262.496,135.231 L235.385,135.231 L235.385,97.538 L294.615,97.538 L294.615,108.308 C294.615,109.795 295.821,111 297.308,111 C298.795,111 300,109.795 300,108.308 L300,97.538 C300,96.11 299.433,94.741 298.423,93.731 C297.413,92.721 296.043,92.154 294.615,92.154 Z M253.117,86.769 L258.501,92.154 L235.385,92.154 L235.385,86.769 Z" />
        </g>
        <g id="Regular-S">
            <path d="M494.148,134.766 C497.23,131.687 498.154,127.054 496.487,123.029 C494.821,119.003 490.894,116.378 486.537,116.378 C482.18,116.378 478.252,119.003 476.586,123.029 C474.92,127.054 475.844,131.687 478.926,134.766 C476.095,136.573 474.041,139.372 473.168,142.614 C472.785,144.051 473.639,145.526 475.076,145.909 C475.302,145.969 475.535,145.999 475.769,146 C476.99,146 478.058,145.178 478.371,143.998 C479.323,140.42 482.682,137.923 486.538,137.923 C490.395,137.923 493.754,140.42 494.706,143.998 C494.938,144.944 495.663,145.691 496.602,145.951 C497.541,146.211 498.548,145.944 499.233,145.252 C499.919,144.56 500.178,143.551 499.909,142.614 C499.035,139.371 496.98,136.572 494.148,134.766 Z M486.538,121.769 C489.512,121.769 491.923,124.18 491.923,127.154 C491.923,130.128 489.512,132.538 486.538,132.538 C483.565,132.538 481.154,130.128 481.154,127.154 C481.154,125.726 481.721,124.356 482.731,123.346 C483.741,122.337 485.11,121.769 486.538,121.769 Z M494.615,92.154 L466.114,92.154 L456.923,82.963 C455.917,81.949 454.546,81.38 453.117,81.385 L435.385,81.385 C433.957,81.385 432.587,81.952 431.577,82.962 C430.567,83.972 430,85.341 430,86.769 L430,135.436 C430.002,138.295 432.318,140.612 435.176,140.615 L462.496,140.615 C463.983,140.615 465.189,139.41 465.189,137.923 C465.189,136.436 463.983,135.231 462.496,135.231 L435.385,135.231 L435.385,97.538 L494.615,97.538 L494.615,108.308 C494.615,109.795 495.821,111 497.308,111 C498.795,111 500,109.795 500,108.308 L500,97.538 C500,96.11 499.433,94.741 498.423,93.731 C497.413,92.721 496.043,92.154 494.615,92.154 Z M453.117,86.769 L458.501,92.154 L435.385,92.154 L435.385,86.769 Z" />
        </g>
        <g id="Black-S">
            <path d="M694.148,134.766 C697.23,131.687 698.154,127.054 696.487,123.029 C694.821,119.003 690.894,116.378 686.537,116.378 C682.18,116.378 678.252,119.003 676.586,123.029 C674.92,127.054 675.844,131.687 678.926,134.766 C676.095,136.573 674.041,139.372 673.168,142.614 C672.785,144.051 673.639,145.526 675.076,145.909 C675.302,145.969 675.535,145.999 675.769,146 C676.99,146 678.058,145.178 678.371,143.998 C679.323,140.42 682.682,137.923 686.538,137.923 C690.395,137.923 693.754,140.42 694.706,143.998 C694.938,144.944 695.663,145.691 696.602,145.951 C697.541,146.211 698.548,145.944 699.233,145.252 C699.919,144.56 700.178,143.551 699.909,142.614 C699.035,139.371 696.98,136.572 694.148,134.766 Z M686.538,121.769 C689.512,121.769 691.923,124.18 691.923,127.154 C691.923,130.128 689.512,132.538 686.538,132.538 C683.565,132.538 681.154,130.128 681.154,127.154 C681.154,125.726 681.721,124.356 682.731,123.346 C683.741,122.337 685.11,121.769 686.538,121.769 Z M694.615,92.154 L666.114,92.154 L656.923,82.963 C655.917,81.949 654.546,81.38 653.117,81.385 L635.385,81.385 C633.957,81.385 632.587,81.952 631.577,82.962 C630.567,83.972 630,85.341 630,86.769 L630,135.436 C630.002,138.295 632.318,140.612 635.176,140.615 L662.496,140.615 C663.983,140.615 665.189,139.41 665.189,137.923 C665.189,136.436 663.983,135.231 662.496,135.231 L635.385,135.231 L635.385,97.538 L694.615,97.538 L694.615,108.308 C694.615,109.795 695.821,111 697.308,111 C698.795,111 700,109.795 700,108.308 L700,97.538 C700,96.11 699.433,94.741 698.423,93.731 C697.413,92.721 696.044,92.154 694.615,92.154 Z M653.117,86.769 L658.501,92.154 L635.385,92.154 L635.385,86.769 Z" />
        </g>
    </g>
</svg>