<?xml version="1.0" encoding="UTF-8"?>
<svg height="600" width="800" xmlns="http://www.w3.org/2000/svg" xmlns:xlink="http://www.w3.org/1999/xlink">
    <g id="Notes" font-family="'LucidaGrande', 'Lucida Grande', sans-serif" font-size="13">
        <rect fill="white" height="600.0" width="800.0" x="0.0" y="0.0" />
        <g font-size="13">
            <text x="18.0" y="176.0">Small</text>
            <text x="18.0" y="376.0">Medium</text>
            <text x="18.0" y="576.0">Large</text>
        </g>
        <g font-size="9">
            <text x="250.0" y="30.0">Ultralight</text>
            <text x="450.0" y="30.0">Regular</text>
            <text x="650.0" y="30.0">Black</text>
            <text id="template-version" fill="#505050" text-anchor="end" x="785.0" y="575.0">Template v.3.0</text>
            <a href="https://github.com/swhitty/SwiftDraw">
                <text fill="#505050" text-anchor="end" x="785.0" y="590.0">https://github.com/swhitty/SwiftDraw</text>
            </a>
        </g>
    </g>
    <g id="Guides" stroke="rgb(39, 170, 225)" stroke-width="0.5">
        <path id="Capline-S" d="M18,76 l800,0" />
        <path id="H-reference" d="M85,145.755 L87.685,145.755 L113.369,79.287 L114.052,79.287 L114.052,76 L112.148,76 L85,145.755 Z M95.693,121.536 L130.996,121.536 L130.263,119.313 L96.474,119.313 L95.693,121.536 Z M139.15,145.755 L141.787,145.755 L114.638,76 L113.466,76 L113.466,79.287 L139.15,145.755 Z" stroke="none" />
        <path id="Baseline-S" d="M18,146 l800,0" />
        <path id="left-margin-Ultralight-S" d="M220,56 l0,110" />
        <path id="right-margin-Ultralight-S" d="M310,56 l0,110" />
        <path id="left-margin-Regular-S" d="M420,56 l0,110" />
        <path id="right-margin-Regular-S" d="M510,56 l0,110" />
        <path id="left-margin-Black-S" d="M620,56 l0,110" />
        <path id="right-margin-Black-S" d="M710,56 l0,110" />
        <path id="Capline-M" d="M18,276 l800,0" />
        <path id="Baseline-M" d="M18,346 l800,0" />
        <path id="Capline-L" d="M18,476 l800,0" />
        <path id="Baseline-L" d="M18,546 l800,0" />
    </g>
    <g id="Symbols">
        <g id="Ultralight-S">
            <path d="M297.308,84.077 L232.692,84.077 C231.264,84.077 229.895,84.644 228.885,85.654 C227.875,86.664 227.308,88.033 227.308,89.462 L227.308,132.538 C227.308,133.967 227.875,135.336 228.885,136.346 C229.895,137.356 231.264,137.923 232.692,137.923 L297.308,137.923 C298.736,137.923 300.105,137.356 301.115,136.346 C302.125,135.336 302.692,133.967 302.692,132.538 L302.692,89.462 C302.692,88.033 302.125,86.664 301.115,85.654 C300.105,84.644 298.736,84.077 297.308,84.077 Z M297.308,132.538 L232.692,132.538 L232.692,89.462 L297.308,89.462 L297.308,132.538 Z M291.923,111 C291.923,111.714 291.639,112.399 291.135,112.904 C290.63,113.409 289.945,113.692 289.231,113.692 L240.769,113.692 C239.282,113.692 238.077,112.487 238.077,111 C238.077,109.513 239.282,108.308 240.769,108.308 L289.231,108.308 C289.945,108.308 290.63,108.591 291.135,109.096 C291.639,109.601 291.923,110.286 291.923,111 Z M291.923,100.231 C291.923,100.945 291.639,101.63 291.135,102.135 C290.63,102.639 289.945,102.923 289.231,102.923 L240.769,102.923 C239.282,102.923 238.077,101.718 238.077,100.231 C238.077,98.744 239.282,97.538 240.769,97.538 L289.231,97.538 C289.945,97.538 290.63,97.822 291.135,98.327 C291.639,98.832 291.923,99.517 291.923,100.231 Z M246.154,121.769 C246.154,122.483 245.87,123.168 245.365,123.673 C244.86,124.178 244.176,124.462 243.462,124.462 L240.769,124.462 C239.282,124.462 238.077,123.256 238.077,121.769 C238.077,120.282 239.282,119.077 240.769,119.077 L243.462,119.077 C244.176,119.077 244.86,119.361 245.365,119.865 C245.87,120.37 246.154,121.055 246.154,121.769 Z M278.462,121.769 C278.462,122.483 278.178,123.168 277.673,123.673 C277.168,124.178 276.483,124.462 275.769,124.462 L254.231,124.462 C252.744,124.462 251.538,123.256 251.538,121.769 C251.538,120.282 252.744,119.077 254.231,119.077 L275.769,119.077 C276.483,119.077 277.168,119.361 277.673,119.865 C278.178,120.37 278.462,121.055 278.462,121.769 Z M291.923,121.769 C291.923,122.483 291.639,123.168 291.135,123.673 C290.63,124.178 289.945,124.462 289.231,124.462 L286.538,124.462 C285.052,124.462 283.846,123.256 283.846,121.769 C283.846,120.282 285.052,119.077 286.538,119.077 L289.231,119.077 C289.945,119.077 290.63,119.361 291.135,119.865 C291.639,120.37 291.923,121.055 291.923,121.769 Z" />
        </g>
        <g id="Regular-S">
            <path d="M497.308,84.077 L432.692,84.077 C431.264,84.077 429.895,84.644 428.885,85.654 C427.875,86.664 427.308,88.033 427.308,89.462 L427.308,132.538 C427.308,133.967 427.875,135.336 428.885,136.346 C429.895,137.356 431.264,137.923 432.692,137.923 L497.308,137.923 C498.736,137.923 500.105,137.356 501.115,136.346 C502.125,135.336 502.692,133.967 502.692,132.538 L502.692,89.462 C502.692,88.033 502.125,86.664 501.115,85.654 C500.105,84.644 498.736,84.077 497.308,84.077 Z M497.308,132.538 L432.692,132.538 L432.692,89.462 L497.308,89.462 L497.308,132.538 Z M491.923,111 C491.923,111.714 491.639,112.399 491.135,112.904 C490.63,113.409 489.945,113.692 489.231,113.692 L440.769,113.692 C439.282,113.692 438.077,112.487 438.077,111 C438.077,109.513 439.282,108.308 440.769,108.308 L489.231,108.308 C489.945,108.308 490.63,108.591 491.135,109.096 C491.639,109.601 491.923,110.286 491.923,111 Z M491.923,100.231 C491.923,100.945 491.639,101.63 491.135,102.135 C490.63,102.639 489.945,102.923 489.231,102.923 L440.769,102.923 C439.282,102.923 438.077,101.718 438.077,100.231 C438.077,98.744 439.282,97.538 440.769,97.538 L489.231,97.538 C489.945,97.538 490.63,97.822 491.135,98.327 C491.639,98.832 491.923,99.517 491.923,100.231 Z M446.154,121.769 C446.154,122.483 445.87,123.168 445.365,123.673 C444.86,124.178 444.176,124.462 443.462,124.462 L440.769,124.462 C439.282,124.462 438.077,123.256 438.077,121.769 C438.077,120.282 439.282,119.077 440.769,119.077 L443.462,119.077 C444.176,119.077 444.86,119.361 445.365,119.865 C445.87,120.37 446.154,121.055 446.154,121.769 Z M478.462,121.769 C478.462,122.483 478.178,123.168 477.673,123.673 C477.168,124.178 476.483,124.462 475.769,124.462 L454.231,124.462 C452.744,124.462 451.538,123.256 451.538,121.769 C451.538,120.282 452.744,119.077 454.231,119.077 L475.769,119.077 C476.483,119.077 477.168,119.361 477.673,119.865 C478.178,120.37 478.462,121.055 478.462,121.769 Z M491.923,121.769 C491.923,122.483 491.639,123.168 491.135,123.673 C490.63,124.178 489.945,124.462 489.231,124.462 L486.538,124.462 C485.052,124.462 483.846,123.256 483.846,121.769 C483.846,120.282 485.052,119.077 486.538,119.077 L489.231,119.077 C489.945,119.077 490.63,119.361 491.135,119.865 C491.639,120.37 491.923,121.055 491.923,121.769 Z" />
        </g>
        <g id="Black-S">
            <path d="M697.308,84.077 L632.692,84.077 C631.264,84.077 629.895,84.644 628.885,85.654 C627.875,86.664 627.308,88.033 627.308,89.462 L627.308,132.538 C627.308,133.967 627.875,135.336 628.885,136.346 C629.895,137.356 631.264,137.923 632.692,137.923 L697.308,137.923 C698.736,137.923 700.105,137.356 701.115,136.346 C702.125,135.336 702.692,133.967 702.692,132.538 L702.692,89.462 C702.692,88.033 702.125,86.664 701.115,85.654 C700.105,84.644 698.736,84.077 697.308,84.077 Z M697.308,132.538 L632.692,132.538 L632.692,89.462 L697.308,89.462 L697.308,132.538 Z M691.923,111 C691.923,111.714 691.639,112.399 691.135,112.904 C690.63,113.409 689.945,113.692 689.231,113.692 L640.769,113.692 C639.282,113.692 638.077,112.487 638.077,111 C638.077,109.513 639.282,108.308 640.769,108.308 L689.231,108.308 C689.945,108.308 690.63,108.591 691.135,109.096 C691.639,109.601 691.923,110.286 691.923,111 Z M691.923,100.231 C691.923,100.945 691.639,101.63 691.135,102.135 C690.63,102.639 689.945,102.923 689.231,102.923 L640.769,102.923 C639.282,102.923 638.077,101.718 638.077,100.231 C638.077,98.744 639.282,97.538 640.769,97.538 L689.231,97.538 C689.945,97.538 690.63,97.822 691.135,98.327 C691.639,98.832 691.923,99.517 691.923,100.231 Z M646.154,121.769 C646.154,122.483 645.87,123.168 645.365,123.673 C644.86,124.178 644.176,124.462 643.462,124.462 L640.769,124.462 C639.282,124.462 638.077,123.256 638.077,121.769 C638.077,120.282 639.282,119.077 640.769,119.077 L643.462,119.077 C644.176,119.077 644.86,119.361 645.365,119.865 C645.87,120.37 646.154,121.055 646.154,121.769 Z M678.462,121.769 C678.462,122.483 678.178,123.168 677.673,123.673 C677.168,124.178 676.483,124.462 675.769,124.462 L654.231,124.462 C652.744,124.462 651.538,123.256 651.538,121.769 C651.538,120.282 652.744,119.077 654.231,119.077 L675.769,119.077 C676.483,119.077 677.168,119.361 677.673,119.865 C678.178,120.37 678.462,121.055 678.462,121.769 Z M691.923,121.769 C691.923,122.483 691.639,123.168 691.135,123.673 C690.63,124.178 689.945,124.462 689.231,124.462 L686.538,124.462 C685.052,124.462 683.846,123.256 683.846,121.769 C683.846,120.282 685.052,119.077 686.538,119.077 L689.231,119.077 C689.945,119.077 690.63,119.361 691.135,119.865 C691.639,120.37 691.923,121.055 691.923,121.769 Z" />
        </g>
    </g>
</svg>