<?xml version="1.0" encoding="UTF-8"?>
<svg height="600" width="800" xmlns="http://www.w3.org/2000/svg" xmlns:xlink="http://www.w3.org/1999/xlink">
    <g id="Notes" font-family="'LucidaGrande', 'Lucida Grande', sans-serif" font-size="13">
        <rect fill="white" height="600.0" width="800.0" x="0.0" y="0.0" />
        <g font-size="13">
            <text x="18.0" y="176.0">Small</text>
            <text x="18.0" y="376.0">Medium</text>
            <text x="18.0" y="576.0">Large</text>
        </g>
        <g font-size="9">
            <text x="250.0" y="30.0">Ultralight</text>
            <text x="450.0" y="30.0">Regular</text>
            <text x="650.0" y="30.0">Black</text>
            <text id="template-version" fill="#505050" text-anchor="end" x="785.0" y="575.0">Template v.3.0</text>
            <a href="https://github.com/swhitty/SwiftDraw">
                <text fill="#505050" text-anchor="end" x="785.0" y="590.0">https://github.com/swhitty/SwiftDraw</text>
            </a>
        </g>
    </g>
    <g id="Guides" stroke="rgb(39, 170, 225)" stroke-width="0.5">
        <path id="Capline-S" d="M18,76 l800,0" />
        <path id="H-reference" d="M85,145.755 L87.685,145.755 L113.369,79.287 L114.052,79.287 L114.052,76 L112.148,76 L85,145.755 Z M95.693,121.536 L130.996,121.536 L130.263,119.313 L96.474,119.313 L95.693,121.536 Z M139.15,145.755 L141.787,145.755 L114.638,76 L113.466,76 L113.466,79.287 L139.15,145.755 Z" stroke="none" />
        <path id="Baseline-S" d="M18,146 l800,0" />
        <path id="left-margin-Ultralight-S" d="M220,56 l0,110" />
        <path id="right-margin-Ultralight-S" d="M310,56 l0,110" />
        <path id="left-margin-Regular-S" d="M420,56 l0,110" />
        <path id="right-margin-Regular-S" d="M510,56 l0,110" />
        <path id="left-margin-Black-S" d="M620,56 l0,110" />
        <path id="right-margin-Black-S" d="M710,56 l0,110" />
        <path id="Capline-M" d="M18,276 l800,0" />
        <path id="Baseline-M" d="M18,346 l800,0" />
        <path id="Capline-L" d="M18,476 l800,0" />
        <path id="Baseline-L" d="M18,546 l800,0" />
    </g>
    <g id="Symbols">
        <g id="Ultralight-S">
            <path d="M302.692,102.923 L298.422,102.923 L286.538,91.04 C285.532,90.026 284.161,89.457 282.732,89.462 L269.038,89.462 L269.038,81.385 L277.115,81.385 C278.602,81.385 279.808,80.179 279.808,78.692 C279.808,77.205 278.602,76 277.115,76 L255.577,76 C254.09,76 252.885,77.205 252.885,78.692 C252.885,80.179 254.09,81.385 255.577,81.385 L263.654,81.385 L263.654,89.462 L243.462,89.462 C242.033,89.462 240.664,90.029 239.654,91.039 C238.644,92.048 238.077,93.418 238.077,94.846 L238.077,112.346 L230,112.346 L230,104.269 C230,102.782 228.795,101.577 227.308,101.577 C225.821,101.577 224.615,102.782 224.615,104.269 L224.615,125.808 C224.615,127.295 225.821,128.5 227.308,128.5 C228.795,128.5 230,127.295 230,125.808 L230,117.731 L238.077,117.731 L238.077,124.694 C238.072,126.123 238.641,127.494 239.655,128.5 L252.885,141.729 C253.891,142.744 255.262,143.312 256.691,143.308 L282.732,143.308 C284.161,143.312 285.532,142.744 286.538,141.729 L298.422,129.846 L302.692,129.846 C304.12,129.846 305.49,129.279 306.5,128.269 C307.51,127.259 308.077,125.89 308.077,124.462 L308.077,108.308 C308.077,106.88 307.51,105.51 306.5,104.5 C305.49,103.49 304.12,102.923 302.692,102.923 Z M302.692,124.462 L297.308,124.462 C296.593,124.461 295.908,124.744 295.403,125.249 L282.732,137.923 L256.691,137.923 L243.462,124.694 L243.462,94.846 L282.732,94.846 L295.403,107.52 C295.908,108.025 296.593,108.308 297.308,108.308 L302.692,108.308 Z" />
        </g>
        <g id="Regular-S">
            <path d="M502.692,102.923 L498.422,102.923 L486.538,91.04 C485.532,90.026 484.161,89.457 482.732,89.462 L469.038,89.462 L469.038,81.385 L477.115,81.385 C478.602,81.385 479.808,80.179 479.808,78.692 C479.808,77.205 478.602,76 477.115,76 L455.577,76 C454.09,76 452.885,77.205 452.885,78.692 C452.885,80.179 454.09,81.385 455.577,81.385 L463.654,81.385 L463.654,89.462 L443.462,89.462 C442.033,89.462 440.664,90.029 439.654,91.039 C438.644,92.048 438.077,93.418 438.077,94.846 L438.077,112.346 L430,112.346 L430,104.269 C430,102.782 428.795,101.577 427.308,101.577 C425.821,101.577 424.615,102.782 424.615,104.269 L424.615,125.808 C424.615,127.295 425.821,128.5 427.308,128.5 C428.795,128.5 430,127.295 430,125.808 L430,117.731 L438.077,117.731 L438.077,124.694 C438.072,126.123 438.641,127.494 439.655,128.5 L452.885,141.729 C453.891,142.744 455.262,143.312 456.691,143.308 L482.732,143.308 C484.161,143.312 485.532,142.744 486.538,141.729 L498.422,129.846 L502.692,129.846 C504.12,129.846 505.49,129.279 506.5,128.269 C507.51,127.259 508.077,125.89 508.077,124.462 L508.077,108.308 C508.077,106.88 507.51,105.51 506.5,104.5 C505.49,103.49 504.12,102.923 502.692,102.923 Z M502.692,124.462 L497.308,124.462 C496.593,124.461 495.908,124.744 495.403,125.249 L482.732,137.923 L456.691,137.923 L443.462,124.694 L443.462,94.846 L482.732,94.846 L495.403,107.52 C495.908,108.025 496.593,108.308 497.308,108.308 L502.692,108.308 Z" />
        </g>
        <g id="Black-S">
            <path d="M702.692,102.923 L698.422,102.923 L686.538,91.04 C685.532,90.026 684.161,89.457 682.732,89.462 L669.038,89.462 L669.038,81.385 L677.115,81.385 C678.602,81.385 679.808,80.179 679.808,78.692 C679.808,77.205 678.602,76 677.115,76 L655.577,76 C654.09,76 652.885,77.205 652.885,78.692 C652.885,80.179 654.09,81.385 655.577,81.385 L663.654,81.385 L663.654,89.462 L643.462,89.462 C642.033,89.462 640.664,90.029 639.654,91.039 C638.644,92.048 638.077,93.418 638.077,94.846 L638.077,112.346 L630,112.346 L630,104.269 C630,102.782 628.795,101.577 627.308,101.577 C625.821,101.577 624.615,102.782 624.615,104.269 L624.615,125.808 C624.615,127.295 625.821,128.5 627.308,128.5 C628.795,128.5 630,127.295 630,125.808 L630,117.731 L638.077,117.731 L638.077,124.694 C638.072,126.123 638.641,127.494 639.655,128.5 L652.885,141.729 C653.891,142.744 655.262,143.312 656.691,143.308 L682.732,143.308 C684.161,143.312 685.532,142.744 686.538,141.729 L698.422,129.846 L702.692,129.846 C704.12,129.846 705.49,129.279 706.5,128.269 C707.51,127.259 708.077,125.89 708.077,124.462 L708.077,108.308 C708.077,106.88 707.51,105.51 706.5,104.5 C705.49,103.49 704.12,102.923 702.692,102.923 Z M702.692,124.462 L697.308,124.462 C696.593,124.461 695.908,124.744 695.403,125.249 L682.732,137.923 L656.691,137.923 L643.462,124.694 L643.462,94.846 L682.732,94.846 L695.403,107.52 C695.908,108.025 696.593,108.308 697.308,108.308 L702.692,108.308 Z" />
        </g>
    </g>
</svg>