<?xml version="1.0" encoding="UTF-8"?>
<svg height="600" width="800" xmlns="http://www.w3.org/2000/svg" xmlns:xlink="http://www.w3.org/1999/xlink">
    <g id="Notes" font-family="'LucidaGrande', 'Lucida Grande', sans-serif" font-size="13">
        <rect fill="white" height="600.0" width="800.0" x="0.0" y="0.0" />
        <g font-size="13">
            <text x="18.0" y="176.0">Small</text>
            <text x="18.0" y="376.0">Medium</text>
            <text x="18.0" y="576.0">Large</text>
        </g>
        <g font-size="9">
            <text x="250.0" y="30.0">Ultralight</text>
            <text x="450.0" y="30.0">Regular</text>
            <text x="650.0" y="30.0">Black</text>
            <text id="template-version" fill="#505050" text-anchor="end" x="785.0" y="575.0">Template v.3.0</text>
            <a href="https://github.com/swhitty/SwiftDraw">
                <text fill="#505050" text-anchor="end" x="785.0" y="590.0">https://github.com/swhitty/SwiftDraw</text>
            </a>
        </g>
    </g>
    <g id="Guides" stroke="rgb(39, 170, 225)" stroke-width="0.5">
        <path id="Capline-S" d="M18,76 l800,0" />
        <path id="H-reference" d="M85,145.755 L87.685,145.755 L113.369,79.287 L114.052,79.287 L114.052,76 L112.148,76 L85,145.755 Z M95.693,121.536 L130.996,121.536 L130.263,119.313 L96.474,119.313 L95.693,121.536 Z M139.15,145.755 L141.787,145.755 L114.638,76 L113.466,76 L113.466,79.287 L139.15,145.755 Z" stroke="none" />
        <path id="Baseline-S" d="M18,146 l800,0" />
        <path id="left-margin-Ultralight-S" d="M220,56 l0,110" />
        <path id="right-margin-Ultralight-S" d="M310,56 l0,110" />
        <path id="left-margin-Regular-S" d="M420,56 l0,110" />
        <path id="right-margin-Regular-S" d="M510,56 l0,110" />
        <path id="left-margin-Black-S" d="M620,56 l0,110" />
        <path id="right-margin-Black-S" d="M710,56 l0,110" />
        <path id="Capline-M" d="M18,276 l800,0" />
        <path id="Baseline-M" d="M18,346 l800,0" />
        <path id="Capline-L" d="M18,476 l800,0" />
        <path id="Baseline-L" d="M18,546 l800,0" />
    </g>
    <g id="Symbols">
        <g id="Ultralight-S">
            <path d="M261.52,125.249 C262.026,125.754 262.31,126.439 262.31,127.154 C262.31,127.868 262.026,128.554 261.52,129.059 L250.751,139.828 C250.246,140.333 249.561,140.618 248.846,140.618 C248.132,140.618 247.446,140.333 246.941,139.828 L236.172,129.059 C235.12,128.005 235.121,126.299 236.173,125.248 C237.226,124.197 238.931,124.198 239.983,125.25 L246.154,131.425 L246.154,84.077 C246.154,82.59 247.359,81.385 248.846,81.385 C250.333,81.385 251.538,82.59 251.538,84.077 L251.538,131.425 L257.711,125.249 C258.216,124.743 258.901,124.459 259.615,124.459 C260.33,124.459 261.015,124.743 261.52,125.249 Z M293.828,92.941 L283.059,82.172 C282.554,81.667 281.868,81.382 281.154,81.382 C280.439,81.382 279.754,81.667 279.249,82.172 L268.48,92.941 C267.427,93.995 267.428,95.701 268.481,96.752 C269.533,97.803 271.239,97.802 272.29,96.75 L278.462,90.575 L278.462,137.923 C278.462,139.41 279.667,140.615 281.154,140.615 C282.641,140.615 283.846,139.41 283.846,137.923 L283.846,90.575 L290.018,96.751 C291.069,97.802 292.774,97.803 293.827,96.752 C294.879,95.701 294.88,93.995 293.829,92.942 Z" />
        </g>
        <g id="Regular-S">
            <path d="M461.52,125.249 C462.026,125.754 462.31,126.439 462.31,127.154 C462.31,127.868 462.026,128.554 461.52,129.059 L450.751,139.828 C450.246,140.333 449.561,140.618 448.846,140.618 C448.132,140.618 447.446,140.333 446.941,139.828 L436.172,129.059 C435.12,128.005 435.121,126.299 436.173,125.248 C437.226,124.197 438.931,124.198 439.983,125.25 L446.154,131.425 L446.154,84.077 C446.154,82.59 447.359,81.385 448.846,81.385 C450.333,81.385 451.538,82.59 451.538,84.077 L451.538,131.425 L457.711,125.249 C458.216,124.743 458.901,124.459 459.615,124.459 C460.33,124.459 461.015,124.743 461.52,125.249 Z M493.828,92.941 L483.059,82.172 C482.554,81.667 481.868,81.382 481.154,81.382 C480.439,81.382 479.754,81.667 479.249,82.172 L468.48,92.941 C467.427,93.995 467.428,95.701 468.481,96.752 C469.533,97.803 471.239,97.802 472.29,96.75 L478.462,90.575 L478.462,137.923 C478.462,139.41 479.667,140.615 481.154,140.615 C482.641,140.615 483.846,139.41 483.846,137.923 L483.846,90.575 L490.018,96.751 C491.069,97.802 492.774,97.803 493.827,96.752 C494.879,95.701 494.88,93.995 493.829,92.942 Z" />
        </g>
        <g id="Black-S">
            <path d="M661.52,125.249 C662.026,125.754 662.31,126.439 662.31,127.154 C662.31,127.868 662.026,128.554 661.52,129.059 L650.751,139.828 C650.246,140.333 649.561,140.618 648.846,140.618 C648.132,140.618 647.446,140.333 646.941,139.828 L636.172,129.059 C635.12,128.005 635.121,126.299 636.173,125.248 C637.226,124.197 638.931,124.198 639.983,125.25 L646.154,131.425 L646.154,84.077 C646.154,82.59 647.359,81.385 648.846,81.385 C650.333,81.385 651.538,82.59 651.538,84.077 L651.538,131.425 L657.711,125.249 C658.216,124.743 658.901,124.459 659.615,124.459 C660.33,124.459 661.015,124.743 661.52,125.249 Z M693.828,92.941 L683.059,82.172 C682.554,81.667 681.868,81.382 681.154,81.382 C680.439,81.382 679.754,81.667 679.249,82.172 L668.48,92.941 C667.427,93.995 667.428,95.701 668.481,96.752 C669.533,97.803 671.239,97.802 672.291,96.75 L678.462,90.575 L678.462,137.923 C678.462,139.41 679.667,140.615 681.154,140.615 C682.641,140.615 683.846,139.41 683.846,137.923 L683.846,90.575 L690.018,96.751 C691.069,97.802 692.774,97.803 693.827,96.752 C694.879,95.701 694.88,93.995 693.829,92.942 Z" />
        </g>
    </g>
</svg>