<?xml version="1.0" encoding="UTF-8"?>
<svg height="600" width="800" xmlns="http://www.w3.org/2000/svg" xmlns:xlink="http://www.w3.org/1999/xlink">
    <g id="Notes" font-family="'LucidaGrande', 'Lucida Grande', sans-serif" font-size="13">
        <rect fill="white" height="600.0" width="800.0" x="0.0" y="0.0" />
        <g font-size="13">
            <text x="18.0" y="176.0">Small</text>
            <text x="18.0" y="376.0">Medium</text>
            <text x="18.0" y="576.0">Large</text>
        </g>
        <g font-size="9">
            <text x="250.0" y="30.0">Ultralight</text>
            <text x="450.0" y="30.0">Regular</text>
            <text x="650.0" y="30.0">Black</text>
            <text id="template-version" fill="#505050" text-anchor="end" x="785.0" y="575.0">Template v.3.0</text>
            <a href="https://github.com/swhitty/SwiftDraw">
                <text fill="#505050" text-anchor="end" x="785.0" y="590.0">https://github.com/swhitty/SwiftDraw</text>
            </a>
        </g>
    </g>
    <g id="Guides" stroke="rgb(39, 170, 225)" stroke-width="0.5">
        <path id="Capline-S" d="M18,76 l800,0" />
        <path id="H-reference" d="M85,145.755 L87.685,145.755 L113.369,79.287 L114.052,79.287 L114.052,76 L112.148,76 L85,145.755 Z M95.693,121.536 L130.996,121.536 L130.263,119.313 L96.474,119.313 L95.693,121.536 Z M139.15,145.755 L141.787,145.755 L114.638,76 L113.466,76 L113.466,79.287 L139.15,145.755 Z" stroke="none" />
        <path id="Baseline-S" d="M18,146 l800,0" />
        <path id="left-margin-Ultralight-S" d="M220,56 l0,110" />
        <path id="right-margin-Ultralight-S" d="M310,56 l0,110" />
        <path id="left-margin-Regular-S" d="M420,56 l0,110" />
        <path id="right-margin-Regular-S" d="M510,56 l0,110" />
        <path id="left-margin-Black-S" d="M620,56 l0,110" />
        <path id="right-margin-Black-S" d="M710,56 l0,110" />
        <path id="Capline-M" d="M18,276 l800,0" />
        <path id="Baseline-M" d="M18,346 l800,0" />
        <path id="Capline-L" d="M18,476 l800,0" />
        <path id="Baseline-L" d="M18,546 l800,0" />
    </g>
    <g id="Symbols">
        <g id="Ultralight-S">
            <path d="M273.077,143.308 C273.077,144.022 272.793,144.707 272.288,145.211 C271.783,145.716 271.099,146 270.385,146 L259.615,146 C258.128,146 256.923,144.795 256.923,143.308 C256.923,141.821 258.128,140.615 259.615,140.615 L270.385,140.615 C271.099,140.615 271.783,140.899 272.288,141.404 C272.793,141.909 273.077,142.594 273.077,143.308 Z M265,105.615 C267.23,105.615 269.038,103.807 269.038,101.577 C269.038,99.347 267.23,97.538 265,97.538 C262.77,97.538 260.962,99.347 260.962,101.577 C260.962,102.648 261.387,103.675 262.144,104.433 C262.902,105.19 263.929,105.615 265,105.615 Z M297.18,120.366 L293.02,139.088 C292.619,140.895 291.318,142.369 289.574,142.992 C287.831,143.614 285.89,143.298 284.435,142.153 L275.268,135.231 L254.739,135.231 L245.565,142.153 C244.11,143.298 242.169,143.614 240.426,142.992 C238.682,142.369 237.381,140.895 236.98,139.088 L232.82,120.366 C232.463,118.738 232.875,117.036 233.938,115.752 L243.549,104.222 C243.872,99.985 244.844,95.823 246.433,91.881 C250.775,80.998 258.549,74.169 261.702,71.739 C263.643,70.235 266.357,70.235 268.298,71.739 C271.441,74.169 279.225,80.998 283.567,91.881 C285.156,95.823 286.128,99.985 286.451,104.222 L296.062,115.752 C297.125,117.036 297.537,118.738 297.18,120.366 Z M255.385,129.846 L274.615,129.846 C281.723,117.213 283.052,105.117 278.566,93.877 C274.608,83.956 267.184,77.683 265,76 C262.809,77.683 255.385,83.956 251.427,93.877 C246.948,105.117 248.277,117.213 255.385,129.846 Z M250.337,131.815 C246.714,125.23 244.515,125.23 243.741,112.4 L238.077,119.198 L242.237,137.923 L242.297,137.879 Z M291.923,119.198 L286.259,112.4 C285.492,118.745 283.298,118.745 279.676,131.815 L287.703,137.873 L287.763,137.916 Z" />
        </g>
        <g id="Regular-S">
            <path d="M473.077,143.308 C473.077,144.022 472.793,144.707 472.288,145.211 C471.783,145.716 471.099,146 470.385,146 L459.615,146 C458.128,146 456.923,144.795 456.923,143.308 C456.923,141.821 458.128,140.615 459.615,140.615 L470.385,140.615 C471.099,140.615 471.783,140.899 472.288,141.404 C472.793,141.909 473.077,142.594 473.077,143.308 Z M465,105.615 C467.23,105.615 469.038,103.807 469.038,101.577 C469.038,99.347 467.23,97.538 465,97.538 C462.77,97.538 460.962,99.347 460.962,101.577 C460.962,102.648 461.387,103.675 462.144,104.433 C462.902,105.19 463.929,105.615 465,105.615 Z M497.18,120.366 L493.02,139.088 C492.619,140.895 491.318,142.369 489.574,142.992 C487.831,143.614 485.89,143.298 484.435,142.153 L475.268,135.231 L454.739,135.231 L445.565,142.153 C444.11,143.298 442.169,143.614 440.426,142.992 C438.682,142.369 437.381,140.895 436.98,139.088 L432.82,120.366 C432.463,118.738 432.875,117.036 433.938,115.752 L443.549,104.222 C443.872,99.985 444.844,95.823 446.433,91.881 C450.775,80.998 458.549,74.169 461.702,71.739 C463.643,70.235 466.357,70.235 468.298,71.739 C471.441,74.169 479.225,80.998 483.567,91.881 C485.156,95.823 486.128,99.985 486.451,104.222 L496.062,115.752 C497.125,117.036 497.537,118.738 497.18,120.366 Z M455.385,129.846 L474.615,129.846 C481.723,117.213 483.052,105.117 478.566,93.877 C474.608,83.956 467.184,77.683 465,76 C462.809,77.683 455.385,83.956 451.427,93.877 C446.948,105.117 448.277,117.213 455.385,129.846 Z M450.337,131.815 C446.714,125.23 444.515,125.23 443.741,112.4 L438.077,119.198 L442.237,137.923 L442.297,137.879 Z M491.923,119.198 L486.259,112.4 C485.492,118.745 483.298,118.745 479.676,131.815 L487.703,137.873 L487.763,137.916 Z" />
        </g>
        <g id="Black-S">
            <path d="M673.077,143.308 C673.077,144.022 672.793,144.707 672.288,145.211 C671.783,145.716 671.099,146 670.385,146 L659.615,146 C658.128,146 656.923,144.795 656.923,143.308 C656.923,141.821 658.128,140.615 659.615,140.615 L670.385,140.615 C671.099,140.615 671.783,140.899 672.288,141.404 C672.793,141.909 673.077,142.594 673.077,143.308 Z M665,105.615 C667.23,105.615 669.038,103.807 669.038,101.577 C669.038,99.347 667.23,97.538 665,97.538 C662.77,97.538 660.962,99.347 660.962,101.577 C660.962,102.648 661.387,103.675 662.144,104.433 C662.902,105.19 663.929,105.615 665,105.615 Z M697.18,120.366 L693.02,139.088 C692.619,140.895 691.318,142.369 689.574,142.992 C687.831,143.614 685.89,143.298 684.435,142.153 L675.268,135.231 L654.739,135.231 L645.565,142.153 C644.11,143.298 642.169,143.614 640.426,142.992 C638.682,142.369 637.381,140.895 636.98,139.088 L632.82,120.366 C632.463,118.738 632.875,117.036 633.938,115.752 L643.549,104.222 C643.872,99.985 644.844,95.823 646.433,91.881 C650.775,80.998 658.549,74.169 661.702,71.739 C663.643,70.235 666.357,70.235 668.298,71.739 C671.441,74.169 679.226,80.998 683.567,91.881 C685.156,95.823 686.128,99.985 686.451,104.222 L696.062,115.752 C697.125,117.036 697.537,118.738 697.18,120.366 Z M655.385,129.846 L674.615,129.846 C681.723,117.213 683.052,105.117 678.566,93.877 C674.608,83.956 667.184,77.683 665,76 C662.809,77.683 655.385,83.956 651.427,93.877 C646.948,105.117 648.277,117.213 655.385,129.846 Z M650.337,131.815 C646.714,125.23 644.515,125.23 643.741,112.4 L638.077,119.198 L642.237,137.923 L642.297,137.879 Z M691.923,119.198 L686.259,112.4 C685.492,118.745 683.298,118.745 679.676,131.815 L687.703,137.873 L687.763,137.916 Z" />
        </g>
    </g>
</svg>