<?xml version="1.0" encoding="UTF-8"?>
<svg height="600" width="800" xmlns="http://www.w3.org/2000/svg" xmlns:xlink="http://www.w3.org/1999/xlink">
    <g id="Notes" font-family="'LucidaGrande', 'Lucida Grande', sans-serif" font-size="13">
        <rect fill="white" height="600.0" width="800.0" x="0.0" y="0.0" />
        <g font-size="13">
            <text x="18.0" y="176.0">Small</text>
            <text x="18.0" y="376.0">Medium</text>
            <text x="18.0" y="576.0">Large</text>
        </g>
        <g font-size="9">
            <text x="250.0" y="30.0">Ultralight</text>
            <text x="450.0" y="30.0">Regular</text>
            <text x="650.0" y="30.0">Black</text>
            <text id="template-version" fill="#505050" text-anchor="end" x="785.0" y="575.0">Template v.3.0</text>
            <a href="https://github.com/swhitty/SwiftDraw">
                <text fill="#505050" text-anchor="end" x="785.0" y="590.0">https://github.com/swhitty/SwiftDraw</text>
            </a>
        </g>
    </g>
    <g id="Guides" stroke="rgb(39, 170, 225)" stroke-width="0.5">
        <path id="Capline-S" d="M18,76 l800,0" />
        <path id="H-reference" d="M85,145.755 L87.685,145.755 L113.369,79.287 L114.052,79.287 L114.052,76 L112.148,76 L85,145.755 Z M95.693,121.536 L130.996,121.536 L130.263,119.313 L96.474,119.313 L95.693,121.536 Z M139.15,145.755 L141.787,145.755 L114.638,76 L113.466,76 L113.466,79.287 L139.15,145.755 Z" stroke="none" />
        <path id="Baseline-S" d="M18,146 l800,0" />
        <path id="left-margin-Ultralight-S" d="M220,56 l0,110" />
        <path id="right-margin-Ultralight-S" d="M310,56 l0,110" />
        <path id="left-margin-Regular-S" d="M420,56 l0,110" />
        <path id="right-margin-Regular-S" d="M510,56 l0,110" />
        <path id="left-margin-Black-S" d="M620,56 l0,110" />
        <path id="right-margin-Black-S" d="M710,56 l0,110" />
        <path id="Capline-M" d="M18,276 l800,0" />
        <path id="Baseline-M" d="M18,346 l800,0" />
        <path id="Capline-L" d="M18,476 l800,0" />
        <path id="Baseline-L" d="M18,546 l800,0" />
    </g>
    <g id="Symbols">
        <g id="Ultralight-S">
            <path d="M298.422,92.615 L283.385,77.575 C282.375,76.565 281.005,75.997 279.577,75.997 C278.149,75.997 276.779,76.565 275.769,77.575 L234.271,119.077 C233.256,120.083 232.688,121.454 232.692,122.883 L232.692,137.923 C232.692,139.351 233.26,140.721 234.269,141.731 C235.279,142.74 236.649,143.308 238.077,143.308 L253.117,143.308 C254.546,143.312 255.917,142.744 256.923,141.729 L298.422,100.231 C299.432,99.221 299.999,97.851 299.999,96.423 C299.999,94.995 299.432,93.625 298.422,92.615 Z M253.117,137.923 L238.077,137.923 L238.077,122.883 L267.692,93.268 L282.732,108.308 Z M286.538,104.498 L271.499,89.462 L279.576,81.385 L294.615,96.421 Z" />
        </g>
        <g id="Regular-S">
            <path d="M498.422,92.615 L483.385,77.575 C482.375,76.565 481.005,75.997 479.577,75.997 C478.149,75.997 476.779,76.565 475.769,77.575 L434.271,119.077 C433.256,120.083 432.688,121.454 432.692,122.883 L432.692,137.923 C432.692,139.351 433.26,140.721 434.269,141.731 C435.279,142.74 436.649,143.308 438.077,143.308 L453.117,143.308 C454.546,143.312 455.917,142.744 456.923,141.729 L498.422,100.231 C499.432,99.221 499.999,97.851 499.999,96.423 C499.999,94.995 499.432,93.625 498.422,92.615 Z M453.117,137.923 L438.077,137.923 L438.077,122.883 L467.692,93.268 L482.732,108.308 Z M486.538,104.498 L471.499,89.462 L479.575,81.385 L494.615,96.421 Z" />
        </g>
        <g id="Black-S">
            <path d="M698.422,92.615 L683.385,77.575 C682.375,76.565 681.005,75.997 679.577,75.997 C678.149,75.997 676.779,76.565 675.769,77.575 L634.271,119.077 C633.256,120.083 632.688,121.454 632.692,122.883 L632.692,137.923 C632.692,139.351 633.26,140.721 634.269,141.731 C635.279,142.74 636.649,143.308 638.077,143.308 L653.117,143.308 C654.546,143.312 655.917,142.744 656.923,141.729 L698.422,100.231 C699.432,99.221 699.999,97.851 699.999,96.423 C699.999,94.995 699.432,93.625 698.422,92.615 Z M653.117,137.923 L638.077,137.923 L638.077,122.883 L667.692,93.268 L682.732,108.308 Z M686.538,104.498 L671.499,89.462 L679.576,81.385 L694.615,96.421 Z" />
        </g>
    </g>
</svg>