<?xml version="1.0" encoding="UTF-8"?>
<svg height="600" width="800" xmlns="http://www.w3.org/2000/svg" xmlns:xlink="http://www.w3.org/1999/xlink">
    <g id="Notes" font-family="'LucidaGrande', 'Lucida Grande', sans-serif" font-size="13">
        <rect fill="white" height="600.0" width="800.0" x="0.0" y="0.0" />
        <g font-size="13">
            <text x="18.0" y="176.0">Small</text>
            <text x="18.0" y="376.0">Medium</text>
            <text x="18.0" y="576.0">Large</text>
        </g>
        <g font-size="9">
            <text x="250.0" y="30.0">Ultralight</text>
            <text x="450.0" y="30.0">Regular</text>
            <text x="650.0" y="30.0">Black</text>
            <text id="template-version" fill="#505050" text-anchor="end" x="785.0" y="575.0">Template v.3.0</text>
            <a href="https://github.com/swhitty/SwiftDraw">
                <text fill="#505050" text-anchor="end" x="785.0" y="590.0">https://github.com/swhitty/SwiftDraw</text>
            </a>
        </g>
    </g>
    <g id="Guides" stroke="rgb(39, 170, 225)" stroke-width="0.5">
        <path id="Capline-S" d="M18,76 l800,0" />
        <path id="H-reference" d="M85,145.755 L87.685,145.755 L113.369,79.287 L114.052,79.287 L114.052,76 L112.148,76 L85,145.755 Z M95.693,121.536 L130.996,121.536 L130.263,119.313 L96.474,119.313 L95.693,121.536 Z M139.15,145.755 L141.787,145.755 L114.638,76 L113.466,76 L113.466,79.287 L139.15,145.755 Z" stroke="none" />
        <path id="Baseline-S" d="M18,146 l800,0" />
        <path id="left-margin-Ultralight-S" d="M220,56 l0,110" />
        <path id="right-margin-Ultralight-S" d="M310,56 l0,110" />
        <path id="left-margin-Regular-S" d="M420,56 l0,110" />
        <path id="right-margin-Regular-S" d="M510,56 l0,110" />
        <path id="left-margin-Black-S" d="M620,56 l0,110" />
        <path id="right-margin-Black-S" d="M710,56 l0,110" />
        <path id="Capline-M" d="M18,276 l800,0" />
        <path id="Baseline-M" d="M18,346 l800,0" />
        <path id="Capline-L" d="M18,476 l800,0" />
        <path id="Baseline-L" d="M18,546 l800,0" />
    </g>
    <g id="Symbols">
        <g id="Ultralight-S">
            <path d="M267.692,101.577 C267.692,103.807 265.884,105.615 263.654,105.615 C261.423,105.615 259.615,103.807 259.615,101.577 C259.615,99.347 261.423,97.538 263.654,97.538 C264.725,97.538 265.752,97.964 266.509,98.721 C267.267,99.479 267.692,100.506 267.692,101.577 Z M300,111.498 C299.685,130.34 284.547,145.571 265.707,146 L264.976,146 C256.393,146.06 248.091,142.944 241.668,137.25 C240.549,136.249 240.455,134.541 241.45,133.429 C242.445,132.317 244.153,132.222 245.265,133.217 C247.294,135.032 249.571,136.548 252.03,137.717 L260.962,125.417 C253.295,122.109 244.986,123.516 240.298,124.31 C236.249,125.009 232.158,123.332 229.764,119.992 L229.663,119.848 L225.026,112.444 C224.646,111.836 224.525,111.101 224.688,110.403 C224.852,109.705 225.287,109.101 225.898,108.725 L259.615,87.957 L259.615,78.692 C259.615,77.978 259.899,77.293 260.404,76.789 C260.909,76.284 261.594,76 262.308,76 L265,76 C274.37,75.999 283.348,79.755 289.927,86.427 C296.505,93.099 300.133,102.13 300,111.498 Z M294.615,111.424 C294.729,103.496 291.659,95.854 286.093,90.208 C280.526,84.562 272.929,81.384 265,81.385 L265,89.462 C265,90.396 264.514,91.264 263.718,91.753 L231.03,111.872 L234.18,116.92 C235.392,118.551 237.422,119.357 239.423,119 C244.808,118.091 255.836,116.226 265.697,121.752 C272.847,121.372 278.452,115.468 278.462,108.308 C278.462,106.821 279.667,105.615 281.154,105.615 C282.641,105.615 283.846,106.821 283.846,108.308 C283.833,118.162 276.239,126.346 266.413,127.097 L257.29,139.643 C260.002,140.346 262.798,140.673 265.599,140.615 C281.536,140.244 294.34,127.363 294.615,111.424 Z" />
        </g>
        <g id="Regular-S">
            <path d="M467.692,101.577 C467.692,103.807 465.884,105.615 463.654,105.615 C461.423,105.615 459.615,103.807 459.615,101.577 C459.615,99.347 461.423,97.538 463.654,97.538 C464.725,97.538 465.752,97.964 466.509,98.721 C467.267,99.479 467.692,100.506 467.692,101.577 Z M500,111.498 C499.685,130.34 484.547,145.571 465.707,146 L464.976,146 C456.393,146.06 448.091,142.944 441.668,137.25 C440.549,136.249 440.455,134.541 441.45,133.429 C442.445,132.317 444.153,132.222 445.265,133.217 C447.294,135.032 449.571,136.548 452.03,137.717 L460.962,125.417 C453.295,122.109 444.986,123.516 440.298,124.31 C436.249,125.009 432.157,123.332 429.764,119.992 L429.663,119.848 L425.026,112.444 C424.646,111.836 424.525,111.101 424.688,110.403 C424.852,109.705 425.287,109.101 425.898,108.725 L459.615,87.957 L459.615,78.692 C459.615,77.978 459.899,77.293 460.404,76.789 C460.909,76.284 461.594,76 462.308,76 L465,76 C474.37,75.999 483.348,79.755 489.927,86.427 C496.505,93.099 500.133,102.13 500,111.498 Z M494.615,111.424 C494.729,103.496 491.659,95.854 486.093,90.208 C480.526,84.562 472.929,81.384 465,81.385 L465,89.462 C464.999,90.396 464.514,91.264 463.718,91.753 L431.03,111.872 L434.18,116.92 C435.392,118.551 437.422,119.357 439.423,119 C444.808,118.091 455.836,116.226 465.697,121.752 C472.847,121.372 478.452,115.468 478.462,108.308 C478.462,106.821 479.667,105.615 481.154,105.615 C482.641,105.615 483.846,106.821 483.846,108.308 C483.833,118.162 476.239,126.346 466.413,127.097 L457.29,139.643 C460.002,140.346 462.798,140.673 465.599,140.615 C481.536,140.244 494.34,127.363 494.615,111.424 Z" />
        </g>
        <g id="Black-S">
            <path d="M667.692,101.577 C667.692,103.807 665.884,105.615 663.654,105.615 C661.423,105.615 659.615,103.807 659.615,101.577 C659.615,99.347 661.423,97.538 663.654,97.538 C664.725,97.538 665.752,97.964 666.509,98.721 C667.267,99.479 667.692,100.506 667.692,101.577 Z M700,111.498 C699.685,130.34 684.547,145.571 665.707,146 L664.977,146 C656.393,146.06 648.091,142.944 641.668,137.25 C640.549,136.249 640.455,134.541 641.45,133.429 C642.445,132.317 644.153,132.222 645.265,133.217 C647.294,135.032 649.572,136.548 652.03,137.717 L660.962,125.417 C653.295,122.109 644.986,123.516 640.298,124.31 C636.249,125.009 632.158,123.332 629.764,119.992 L629.663,119.848 L625.026,112.444 C624.646,111.836 624.525,111.101 624.688,110.403 C624.852,109.705 625.287,109.101 625.898,108.725 L659.615,87.957 L659.615,78.692 C659.615,77.978 659.899,77.293 660.404,76.789 C660.909,76.284 661.594,76 662.308,76 L665,76 C674.37,75.999 683.348,79.755 689.927,86.427 C696.505,93.099 700.133,102.13 700,111.498 Z M694.615,111.424 C694.729,103.496 691.659,95.854 686.093,90.208 C680.526,84.562 672.929,81.384 665,81.385 L665,89.462 C665,90.396 664.514,91.264 663.718,91.753 L631.03,111.872 L634.18,116.92 C635.392,118.551 637.422,119.357 639.423,119 C644.808,118.091 655.836,116.226 665.697,121.752 C672.847,121.372 678.452,115.468 678.462,108.308 C678.462,106.821 679.667,105.615 681.154,105.615 C682.641,105.615 683.846,106.821 683.846,108.308 C683.833,118.162 676.239,126.346 666.413,127.097 L657.29,139.643 C660.002,140.346 662.798,140.673 665.599,140.615 C681.536,140.244 694.34,127.363 694.615,111.424 Z" />
        </g>
    </g>
</svg>