<?xml version="1.0" encoding="UTF-8"?>
<svg height="600" width="800" xmlns="http://www.w3.org/2000/svg" xmlns:xlink="http://www.w3.org/1999/xlink">
    <g id="Notes" font-family="'LucidaGrande', 'Lucida Grande', sans-serif" font-size="13">
        <rect fill="white" height="600.0" width="800.0" x="0.0" y="0.0" />
        <g font-size="13">
            <text x="18.0" y="176.0">Small</text>
            <text x="18.0" y="376.0">Medium</text>
            <text x="18.0" y="576.0">Large</text>
        </g>
        <g font-size="9">
            <text x="250.0" y="30.0">Ultralight</text>
            <text x="450.0" y="30.0">Regular</text>
            <text x="650.0" y="30.0">Black</text>
            <text id="template-version" fill="#505050" text-anchor="end" x="785.0" y="575.0">Template v.3.0</text>
            <a href="https://github.com/swhitty/SwiftDraw">
                <text fill="#505050" text-anchor="end" x="785.0" y="590.0">https://github.com/swhitty/SwiftDraw</text>
            </a>
        </g>
    </g>
    <g id="Guides" stroke="rgb(39, 170, 225)" stroke-width="0.5">
        <path id="Capline-S" d="M18,76 l800,0" />
        <path id="H-reference" d="M85,145.755 L87.685,145.755 L113.369,79.287 L114.052,79.287 L114.052,76 L112.148,76 L85,145.755 Z M95.693,121.536 L130.996,121.536 L130.263,119.313 L96.474,119.313 L95.693,121.536 Z M139.15,145.755 L141.787,145.755 L114.638,76 L113.466,76 L113.466,79.287 L139.15,145.755 Z" stroke="none" />
        <path id="Baseline-S" d="M18,146 l800,0" />
        <path id="left-margin-Ultralight-S" d="M220,56 l0,110" />
        <path id="right-margin-Ultralight-S" d="M310,56 l0,110" />
        <path id="left-margin-Regular-S" d="M420,56 l0,110" />
        <path id="right-margin-Regular-S" d="M510,56 l0,110" />
        <path id="left-margin-Black-S" d="M620,56 l0,110" />
        <path id="right-margin-Black-S" d="M710,56 l0,110" />
        <path id="Capline-M" d="M18,276 l800,0" />
        <path id="Baseline-M" d="M18,346 l800,0" />
        <path id="Capline-L" d="M18,476 l800,0" />
        <path id="Baseline-L" d="M18,546 l800,0" />
    </g>
    <g id="Symbols">
        <g id="Ultralight-S">
            <path d="M294.615,76 L235.385,76 C233.957,76 232.587,76.567 231.577,77.577 C230.567,78.587 230,79.957 230,81.385 L230,140.615 C230,142.043 230.567,143.413 231.577,144.423 C232.587,145.433 233.957,146 235.385,146 L294.615,146 C296.043,146 297.413,145.433 298.423,144.423 C299.433,143.413 300,142.043 300,140.615 L300,81.385 C300,79.957 299.433,78.587 298.423,77.577 C297.413,76.567 296.043,76 294.615,76 Z M294.615,140.615 L235.385,140.615 L235.385,81.385 L294.615,81.385 L294.615,140.615 Z M254.231,105.615 L254.231,127.154 C254.231,128.641 253.025,129.846 251.538,129.846 C250.052,129.846 248.846,128.641 248.846,127.154 L248.846,105.615 C248.846,104.128 250.052,102.923 251.538,102.923 C253.025,102.923 254.231,104.128 254.231,105.615 Z M283.846,115.038 L283.846,127.154 C283.846,128.641 282.641,129.846 281.154,129.846 C279.667,129.846 278.462,128.641 278.462,127.154 L278.462,115.038 C278.462,111.321 275.448,108.308 271.731,108.308 C268.013,108.308 265,111.321 265,115.038 L265,127.154 C265,128.641 263.795,129.846 262.308,129.846 C260.821,129.846 259.615,128.641 259.615,127.154 L259.615,105.615 C259.622,104.25 260.65,103.107 262.006,102.954 C263.362,102.801 264.619,103.687 264.929,105.016 C268.641,102.499 273.44,102.237 277.403,104.337 C281.366,106.436 283.845,110.554 283.846,115.038 Z M255.577,96.192 C255.577,98.423 253.769,100.231 251.538,100.231 C249.308,100.231 247.5,98.423 247.5,96.192 C247.5,93.962 249.308,92.154 251.538,92.154 C252.61,92.154 253.637,92.579 254.394,93.337 C255.151,94.094 255.577,95.121 255.577,96.192 Z" />
        </g>
        <g id="Regular-S">
            <path d="M494.615,76 L435.385,76 C433.957,76 432.587,76.567 431.577,77.577 C430.567,78.587 430,79.957 430,81.385 L430,140.615 C430,142.043 430.567,143.413 431.577,144.423 C432.587,145.433 433.957,146 435.385,146 L494.615,146 C496.043,146 497.413,145.433 498.423,144.423 C499.433,143.413 500,142.043 500,140.615 L500,81.385 C500,79.957 499.433,78.587 498.423,77.577 C497.413,76.567 496.043,76 494.615,76 Z M494.615,140.615 L435.385,140.615 L435.385,81.385 L494.615,81.385 L494.615,140.615 Z M454.231,105.615 L454.231,127.154 C454.231,128.641 453.025,129.846 451.538,129.846 C450.052,129.846 448.846,128.641 448.846,127.154 L448.846,105.615 C448.846,104.128 450.052,102.923 451.538,102.923 C453.025,102.923 454.231,104.128 454.231,105.615 Z M483.846,115.038 L483.846,127.154 C483.846,128.641 482.641,129.846 481.154,129.846 C479.667,129.846 478.462,128.641 478.462,127.154 L478.462,115.038 C478.462,111.321 475.448,108.308 471.731,108.308 C468.013,108.308 465,111.321 465,115.038 L465,127.154 C465,128.641 463.795,129.846 462.308,129.846 C460.821,129.846 459.615,128.641 459.615,127.154 L459.615,105.615 C459.622,104.25 460.65,103.107 462.006,102.954 C463.362,102.801 464.619,103.687 464.929,105.016 C468.641,102.499 473.44,102.237 477.403,104.337 C481.366,106.436 483.845,110.554 483.846,115.038 Z M455.577,96.192 C455.577,98.423 453.769,100.231 451.538,100.231 C449.308,100.231 447.5,98.423 447.5,96.192 C447.5,93.962 449.308,92.154 451.538,92.154 C452.61,92.154 453.637,92.579 454.394,93.337 C455.151,94.094 455.577,95.121 455.577,96.192 Z" />
        </g>
        <g id="Black-S">
            <path d="M694.615,76 L635.385,76 C633.957,76 632.587,76.567 631.577,77.577 C630.567,78.587 630,79.957 630,81.385 L630,140.615 C630,142.043 630.567,143.413 631.577,144.423 C632.587,145.433 633.957,146 635.385,146 L694.615,146 C696.044,146 697.413,145.433 698.423,144.423 C699.433,143.413 700,142.043 700,140.615 L700,81.385 C700,79.957 699.433,78.587 698.423,77.577 C697.413,76.567 696.044,76 694.615,76 Z M694.615,140.615 L635.385,140.615 L635.385,81.385 L694.615,81.385 L694.615,140.615 Z M654.231,105.615 L654.231,127.154 C654.231,128.641 653.025,129.846 651.538,129.846 C650.052,129.846 648.846,128.641 648.846,127.154 L648.846,105.615 C648.846,104.128 650.052,102.923 651.538,102.923 C653.025,102.923 654.231,104.128 654.231,105.615 Z M683.846,115.038 L683.846,127.154 C683.846,128.641 682.641,129.846 681.154,129.846 C679.667,129.846 678.462,128.641 678.462,127.154 L678.462,115.038 C678.462,111.321 675.448,108.308 671.731,108.308 C668.013,108.308 665,111.321 665,115.038 L665,127.154 C665,128.641 663.795,129.846 662.308,129.846 C660.821,129.846 659.615,128.641 659.615,127.154 L659.615,105.615 C659.622,104.25 660.65,103.107 662.006,102.954 C663.362,102.801 664.619,103.687 664.929,105.016 C668.641,102.499 673.44,102.237 677.403,104.337 C681.366,106.436 683.845,110.554 683.846,115.038 Z M655.577,96.192 C655.577,98.423 653.769,100.231 651.538,100.231 C649.308,100.231 647.5,98.423 647.5,96.192 C647.5,93.962 649.308,92.154 651.538,92.154 C652.61,92.154 653.637,92.579 654.394,93.337 C655.151,94.094 655.577,95.121 655.577,96.192 Z" />
        </g>
    </g>
</svg>