<?xml version="1.0" encoding="UTF-8"?>
<svg height="600" width="800" xmlns="http://www.w3.org/2000/svg" xmlns:xlink="http://www.w3.org/1999/xlink">
    <g id="Notes" font-family="'LucidaGrande', 'Lucida Grande', sans-serif" font-size="13">
        <rect fill="white" height="600.0" width="800.0" x="0.0" y="0.0" />
        <g font-size="13">
            <text x="18.0" y="176.0">Small</text>
            <text x="18.0" y="376.0">Medium</text>
            <text x="18.0" y="576.0">Large</text>
        </g>
        <g font-size="9">
            <text x="250.0" y="30.0">Ultralight</text>
            <text x="450.0" y="30.0">Regular</text>
            <text x="650.0" y="30.0">Black</text>
            <text id="template-version" fill="#505050" text-anchor="end" x="785.0" y="575.0">Template v.3.0</text>
            <a href="https://github.com/swhitty/SwiftDraw">
                <text fill="#505050" text-anchor="end" x="785.0" y="590.0">https://github.com/swhitty/SwiftDraw</text>
            </a>
        </g>
    </g>
    <g id="Guides" stroke="rgb(39, 170, 225)" stroke-width="0.5">
        <path id="Capline-S" d="M18,76 l800,0" />
        <path id="H-reference" d="M85,145.755 L87.685,145.755 L113.369,79.287 L114.052,79.287 L114.052,76 L112.148,76 L85,145.755 Z M95.693,121.536 L130.996,121.536 L130.263,119.313 L96.474,119.313 L95.693,121.536 Z M139.15,145.755 L141.787,145.755 L114.638,76 L113.466,76 L113.466,79.287 L139.15,145.755 Z" stroke="none" />
        <path id="Baseline-S" d="M18,146 l800,0" />
        <path id="left-margin-Ultralight-S" d="M220,56 l0,110" />
        <path id="right-margin-Ultralight-S" d="M310,56 l0,110" />
        <path id="left-margin-Regular-S" d="M420,56 l0,110" />
        <path id="right-margin-Regular-S" d="M510,56 l0,110" />
        <path id="left-margin-Black-S" d="M620,56 l0,110" />
        <path id="right-margin-Black-S" d="M710,56 l0,110" />
        <path id="Capline-M" d="M18,276 l800,0" />
        <path id="Baseline-M" d="M18,346 l800,0" />
        <path id="Capline-L" d="M18,476 l800,0" />
        <path id="Baseline-L" d="M18,546 l800,0" />
    </g>
    <g id="Symbols">
        <g id="Ultralight-S">
            <path d="M292.697,86.884 L265.774,78.807 C264.959,78.562 264.076,78.717 263.393,79.225 C262.711,79.733 262.308,80.534 262.308,81.385 L262.308,117.818 C256.626,112.736 248.164,112.318 242.009,116.815 C235.853,121.313 233.68,129.501 236.795,136.459 C239.91,143.417 247.465,147.25 254.919,145.655 C262.374,144.059 267.698,137.469 267.692,129.846 L267.692,85.002 L291.149,92.039 C292.078,92.342 293.097,92.118 293.814,91.454 C294.53,90.789 294.83,89.789 294.598,88.84 C294.366,87.892 293.639,87.143 292.697,86.884 Z M251.538,140.615 C245.591,140.615 240.769,135.794 240.769,129.846 C240.769,123.898 245.591,119.077 251.538,119.077 C257.486,119.077 262.308,123.898 262.308,129.846 C262.308,132.702 261.173,135.442 259.153,137.461 C257.134,139.481 254.395,140.615 251.538,140.615 Z" />
        </g>
        <g id="Regular-S">
            <path d="M492.697,86.884 L465.774,78.807 C464.959,78.562 464.076,78.717 463.393,79.225 C462.71,79.733 462.308,80.534 462.308,81.385 L462.308,117.818 C456.626,112.736 448.164,112.318 442.009,116.815 C435.853,121.313 433.68,129.501 436.795,136.459 C439.91,143.417 447.465,147.25 454.919,145.655 C462.374,144.059 467.698,137.469 467.692,129.846 L467.692,85.002 L491.149,92.039 C492.078,92.342 493.097,92.118 493.814,91.454 C494.53,90.789 494.83,89.789 494.598,88.84 C494.366,87.892 493.639,87.143 492.697,86.884 Z M451.538,140.615 C445.591,140.615 440.769,135.794 440.769,129.846 C440.769,123.898 445.591,119.077 451.538,119.077 C457.486,119.077 462.308,123.898 462.308,129.846 C462.308,132.702 461.173,135.442 459.153,137.461 C457.134,139.481 454.395,140.615 451.538,140.615 Z" />
        </g>
        <g id="Black-S">
            <path d="M692.697,86.884 L665.774,78.807 C664.959,78.562 664.076,78.717 663.393,79.225 C662.711,79.733 662.308,80.534 662.308,81.385 L662.308,117.818 C656.626,112.736 648.164,112.318 642.009,116.815 C635.853,121.313 633.68,129.501 636.795,136.459 C639.91,143.417 647.465,147.25 654.919,145.655 C662.374,144.059 667.698,137.469 667.692,129.846 L667.692,85.002 L691.149,92.039 C692.078,92.342 693.098,92.118 693.814,91.454 C694.53,90.789 694.83,89.789 694.598,88.84 C694.366,87.892 693.639,87.143 692.697,86.884 Z M651.538,140.615 C645.591,140.615 640.769,135.794 640.769,129.846 C640.769,123.898 645.591,119.077 651.538,119.077 C657.486,119.077 662.308,123.898 662.308,129.846 C662.308,132.702 661.173,135.442 659.153,137.461 C657.134,139.481 654.395,140.615 651.538,140.615 Z" />
        </g>
    </g>
</svg>