<?xml version="1.0" encoding="UTF-8"?>
<svg height="600" width="800" xmlns="http://www.w3.org/2000/svg" xmlns:xlink="http://www.w3.org/1999/xlink">
    <g id="Notes" font-family="'LucidaGrande', 'Lucida Grande', sans-serif" font-size="13">
        <rect fill="white" height="600.0" width="800.0" x="0.0" y="0.0" />
        <g font-size="13">
            <text x="18.0" y="176.0">Small</text>
            <text x="18.0" y="376.0">Medium</text>
            <text x="18.0" y="576.0">Large</text>
        </g>
        <g font-size="9">
            <text x="250.0" y="30.0">Ultralight</text>
            <text x="450.0" y="30.0">Regular</text>
            <text x="650.0" y="30.0">Black</text>
            <text id="template-version" fill="#505050" text-anchor="end" x="785.0" y="575.0">Template v.3.0</text>
            <a href="https://github.com/swhitty/SwiftDraw">
                <text fill="#505050" text-anchor="end" x="785.0" y="590.0">https://github.com/swhitty/SwiftDraw</text>
            </a>
        </g>
    </g>
    <g id="Guides" stroke="rgb(39, 170, 225)" stroke-width="0.5">
        <path id="Capline-S" d="M18,76 l800,0" />
        <path id="H-reference" d="M85,145.755 L87.685,145.755 L113.369,79.287 L114.052,79.287 L114.052,76 L112.148,76 L85,145.755 Z M95.693,121.536 L130.996,121.536 L130.263,119.313 L96.474,119.313 L95.693,121.536 Z M139.15,145.755 L141.787,145.755 L114.638,76 L113.466,76 L113.466,79.287 L139.15,145.755 Z" stroke="none" />
        <path id="Baseline-S" d="M18,146 l800,0" />
        <path id="left-margin-Ultralight-S" d="M220,56 l0,110" />
        <path id="right-margin-Ultralight-S" d="M310,56 l0,110" />
        <path id="left-margin-Regular-S" d="M420,56 l0,110" />
        <path id="right-margin-Regular-S" d="M510,56 l0,110" />
        <path id="left-margin-Black-S" d="M620,56 l0,110" />
        <path id="right-margin-Black-S" d="M710,56 l0,110" />
        <path id="Capline-M" d="M18,276 l800,0" />
        <path id="Baseline-M" d="M18,346 l800,0" />
        <path id="Capline-L" d="M18,476 l800,0" />
        <path id="Baseline-L" d="M18,546 l800,0" />
    </g>
    <g id="Symbols">
        <g id="Ultralight-S">
            <path d="M293.915,138.805 C294.576,139.514 294.804,140.525 294.512,141.449 C294.221,142.374 293.454,143.07 292.506,143.272 C291.558,143.475 290.574,143.151 289.931,142.426 L278.152,129.486 C275.702,130.243 273.038,129.791 270.974,128.268 C268.91,126.746 267.693,124.334 267.692,121.769 C267.689,120.635 267.825,119.505 268.1,118.404 L254.231,103.145 C254.233,104.522 253.027,105.729 251.538,105.729 C250.05,105.729 248.844,104.522 248.844,103.034 C248.842,101.383 249.094,99.742 249.591,98.168 L243.63,91.481 C241.741,94.998 240.758,98.931 240.769,102.923 C240.769,111.909 243.64,114.675 246.682,117.61 C249.59,120.423 252.885,123.59 252.885,131.192 C252.885,134.406 254.161,137.487 256.433,139.759 C258.705,142.031 261.787,143.308 265,143.308 C268.446,143.308 271.209,141.908 273.693,138.902 C274.298,138.139 275.269,137.763 276.23,137.918 C277.192,138.073 277.995,138.735 278.33,139.65 C278.665,140.565 278.48,141.589 277.846,142.328 C274.359,146.552 270.048,148.692 265,148.692 C255.34,148.681 247.511,140.853 247.5,131.192 C247.5,125.878 245.588,124.034 242.943,121.487 C239.578,118.236 235.385,114.197 235.385,102.923 C235.371,97.405 236.912,91.996 239.831,87.314 L236.085,83.195 C235.424,82.486 235.196,81.475 235.488,80.551 C235.779,79.626 236.546,78.93 237.494,78.728 C238.442,78.525 239.426,78.849 240.069,79.574 Z M252.578,82.115 C260.066,77.644 269.379,77.542 276.963,81.848 C284.547,86.153 289.232,94.202 289.231,102.923 C289.231,104.41 290.436,105.615 291.923,105.615 C293.41,105.615 294.615,104.41 294.615,102.923 C294.615,92.258 288.886,82.421 279.614,77.16 C270.343,71.9 258.959,72.028 249.808,77.497 C248.532,78.261 248.117,79.914 248.881,81.19 C249.645,82.466 251.299,82.881 252.575,82.117 Z M275.877,110.721 C276.512,111.048 277.25,111.11 277.931,110.893 C278.611,110.676 279.177,110.198 279.505,109.563 C280.591,107.518 281.157,105.238 281.154,102.923 C281.157,97.71 278.639,92.811 274.395,89.777 C270.15,86.742 264.701,85.945 259.764,87.636 C258.357,88.119 257.608,89.65 258.09,91.057 C258.573,92.464 260.104,93.214 261.511,92.731 C264.801,91.604 268.433,92.136 271.263,94.159 C274.092,96.181 275.77,99.445 275.769,102.923 C275.769,104.374 275.408,105.801 274.719,107.077 C274.037,108.398 274.556,110.022 275.877,110.704 Z" />
        </g>
        <g id="Regular-S">
            <path d="M493.915,138.805 C494.576,139.514 494.804,140.525 494.512,141.449 C494.221,142.374 493.454,143.07 492.506,143.272 C491.558,143.475 490.574,143.151 489.931,142.426 L478.152,129.486 C475.702,130.243 473.038,129.791 470.974,128.268 C468.91,126.746 467.693,124.334 467.692,121.769 C467.689,120.635 467.825,119.505 468.099,118.404 L454.231,103.145 C454.233,104.522 453.027,105.729 451.538,105.729 C450.05,105.729 448.844,104.522 448.844,103.034 C448.842,101.383 449.094,99.742 449.591,98.168 L443.63,91.481 C441.741,94.998 440.758,98.931 440.769,102.923 C440.769,111.909 443.64,114.675 446.682,117.61 C449.59,120.423 452.885,123.59 452.885,131.192 C452.885,134.406 454.161,137.487 456.433,139.759 C458.705,142.031 461.787,143.308 465,143.308 C468.446,143.308 471.209,141.908 473.693,138.902 C474.298,138.139 475.269,137.763 476.23,137.918 C477.192,138.073 477.995,138.735 478.33,139.65 C478.665,140.565 478.48,141.589 477.846,142.328 C474.359,146.552 470.048,148.692 465,148.692 C455.34,148.681 447.511,140.853 447.5,131.192 C447.5,125.878 445.588,124.034 442.943,121.487 C439.578,118.236 435.385,114.197 435.385,102.923 C435.371,97.405 436.912,91.996 439.831,87.314 L436.085,83.195 C435.424,82.486 435.196,81.475 435.488,80.551 C435.779,79.626 436.546,78.93 437.494,78.728 C438.442,78.525 439.426,78.849 440.069,79.574 Z M452.578,82.115 C460.066,77.644 469.379,77.542 476.963,81.848 C484.547,86.153 489.232,94.202 489.231,102.923 C489.231,104.41 490.436,105.615 491.923,105.615 C493.41,105.615 494.615,104.41 494.615,102.923 C494.615,92.258 488.886,82.421 479.614,77.16 C470.342,71.9 458.959,72.028 449.808,77.497 C448.532,78.261 448.117,79.914 448.881,81.19 C449.645,82.466 451.299,82.881 452.575,82.117 Z M475.877,110.721 C476.512,111.048 477.25,111.11 477.931,110.893 C478.611,110.676 479.177,110.198 479.505,109.563 C480.591,107.518 481.157,105.238 481.154,102.923 C481.157,97.71 478.639,92.811 474.395,89.777 C470.15,86.742 464.701,85.945 459.764,87.636 C458.357,88.119 457.608,89.65 458.09,91.057 C458.573,92.464 460.104,93.214 461.511,92.731 C464.801,91.604 468.433,92.136 471.263,94.159 C474.092,96.181 475.77,99.445 475.769,102.923 C475.768,104.374 475.408,105.801 474.719,107.077 C474.037,108.398 474.556,110.022 475.877,110.704 Z" />
        </g>
        <g id="Black-S">
            <path d="M693.915,138.805 C694.576,139.514 694.804,140.525 694.512,141.449 C694.221,142.374 693.454,143.07 692.506,143.272 C691.558,143.475 690.574,143.151 689.931,142.426 L678.152,129.486 C675.702,130.243 673.038,129.791 670.974,128.268 C668.911,126.746 667.693,124.334 667.692,121.769 C667.689,120.635 667.825,119.505 668.1,118.404 L654.231,103.145 C654.233,104.522 653.027,105.729 651.538,105.729 C650.05,105.729 648.844,104.522 648.844,103.034 C648.842,101.383 649.094,99.742 649.591,98.168 L643.63,91.481 C641.741,94.998 640.758,98.931 640.769,102.923 C640.769,111.909 643.64,114.675 646.682,117.61 C649.59,120.423 652.885,123.59 652.885,131.192 C652.885,134.406 654.161,137.487 656.433,139.759 C658.705,142.031 661.787,143.308 665,143.308 C668.446,143.308 671.209,141.908 673.693,138.902 C674.298,138.139 675.269,137.763 676.23,137.918 C677.192,138.073 677.995,138.735 678.33,139.65 C678.665,140.565 678.48,141.589 677.846,142.328 C674.359,146.552 670.048,148.692 665,148.692 C655.34,148.681 647.511,140.853 647.5,131.192 C647.5,125.878 645.589,124.034 642.943,121.487 C639.578,118.236 635.385,114.197 635.385,102.923 C635.371,97.405 636.912,91.996 639.831,87.314 L636.085,83.195 C635.424,82.486 635.196,81.475 635.488,80.551 C635.779,79.626 636.546,78.93 637.494,78.728 C638.442,78.525 639.426,78.849 640.069,79.574 Z M652.578,82.115 C660.066,77.644 669.379,77.542 676.963,81.848 C684.547,86.153 689.232,94.202 689.231,102.923 C689.231,104.41 690.436,105.615 691.923,105.615 C693.41,105.615 694.615,104.41 694.615,102.923 C694.615,92.258 688.886,82.421 679.614,77.16 C670.343,71.9 658.959,72.028 649.808,77.497 C648.532,78.261 648.117,79.914 648.881,81.19 C649.645,82.466 651.299,82.881 652.575,82.117 Z M675.877,110.721 C676.512,111.048 677.25,111.11 677.931,110.893 C678.611,110.676 679.177,110.198 679.505,109.563 C680.591,107.518 681.157,105.238 681.154,102.923 C681.157,97.71 678.639,92.811 674.395,89.777 C670.15,86.742 664.701,85.945 659.764,87.636 C658.357,88.119 657.608,89.65 658.09,91.057 C658.573,92.464 660.104,93.214 661.511,92.731 C664.802,91.604 668.433,92.136 671.263,94.159 C674.092,96.181 675.77,99.445 675.769,102.923 C675.769,104.374 675.408,105.801 674.719,107.077 C674.037,108.398 674.556,110.022 675.877,110.704 Z" />
        </g>
    </g>
</svg>