<?xml version="1.0" encoding="UTF-8"?>
<svg height="600" width="800" xmlns="http://www.w3.org/2000/svg" xmlns:xlink="http://www.w3.org/1999/xlink">
    <g id="Notes" font-family="'LucidaGrande', 'Lucida Grande', sans-serif" font-size="13">
        <rect fill="white" height="600.0" width="800.0" x="0.0" y="0.0" />
        <g font-size="13">
            <text x="18.0" y="176.0">Small</text>
            <text x="18.0" y="376.0">Medium</text>
            <text x="18.0" y="576.0">Large</text>
        </g>
        <g font-size="9">
            <text x="250.0" y="30.0">Ultralight</text>
            <text x="450.0" y="30.0">Regular</text>
            <text x="650.0" y="30.0">Black</text>
            <text id="template-version" fill="#505050" text-anchor="end" x="785.0" y="575.0">Template v.3.0</text>
            <a href="https://github.com/swhitty/SwiftDraw">
                <text fill="#505050" text-anchor="end" x="785.0" y="590.0">https://github.com/swhitty/SwiftDraw</text>
            </a>
        </g>
    </g>
    <g id="Guides" stroke="rgb(39, 170, 225)" stroke-width="0.5">
        <path id="Capline-S" d="M18,76 l800,0" />
        <path id="H-reference" d="M85,145.755 L87.685,145.755 L113.369,79.287 L114.052,79.287 L114.052,76 L112.148,76 L85,145.755 Z M95.693,121.536 L130.996,121.536 L130.263,119.313 L96.474,119.313 L95.693,121.536 Z M139.15,145.755 L141.787,145.755 L114.638,76 L113.466,76 L113.466,79.287 L139.15,145.755 Z" stroke="none" />
        <path id="Baseline-S" d="M18,146 l800,0" />
        <path id="left-margin-Ultralight-S" d="M220,56 l0,110" />
        <path id="right-margin-Ultralight-S" d="M310,56 l0,110" />
        <path id="left-margin-Regular-S" d="M420,56 l0,110" />
        <path id="right-margin-Regular-S" d="M510,56 l0,110" />
        <path id="left-margin-Black-S" d="M620,56 l0,110" />
        <path id="right-margin-Black-S" d="M710,56 l0,110" />
        <path id="Capline-M" d="M18,276 l800,0" />
        <path id="Baseline-M" d="M18,346 l800,0" />
        <path id="Capline-L" d="M18,476 l800,0" />
        <path id="Baseline-L" d="M18,546 l800,0" />
    </g>
    <g id="Symbols">
        <g id="Ultralight-S">
            <path d="M283.809,119.528 C282.379,127.514 276.127,133.766 268.14,135.194 C267.992,135.217 267.842,135.23 267.692,135.231 C266.292,135.23 265.126,134.157 265.01,132.761 C264.894,131.366 265.867,130.115 267.248,129.883 C272.825,128.944 277.556,124.213 278.502,118.626 C278.747,117.165 280.135,116.175 281.602,116.421 C283.069,116.666 284.059,118.055 283.814,119.522 Z M294.615,116.385 C294.615,132.741 281.356,146 265,146 C248.644,146 235.385,132.741 235.385,116.385 C235.385,106.988 239.087,97.38 246.376,87.829 C246.843,87.218 247.549,86.835 248.316,86.778 C249.083,86.72 249.839,86.994 250.391,87.53 L258.508,95.408 L265.912,75.078 C266.212,74.255 266.894,73.63 267.74,73.401 C268.585,73.173 269.489,73.37 270.163,73.93 C277.523,80.038 294.615,96.377 294.615,116.385 Z M289.231,116.385 C289.231,100.874 277.186,87.469 269.641,80.6 L262.146,101.153 C261.834,102.011 261.108,102.651 260.218,102.855 C259.328,103.059 258.396,102.798 257.741,102.163 L248.866,93.554 C243.492,101.311 240.769,108.981 240.769,116.385 C240.769,129.767 251.618,140.615 265,140.615 C278.382,140.615 289.231,129.767 289.231,116.385 Z" />
        </g>
        <g id="Regular-S">
            <path d="M483.809,119.528 C482.379,127.514 476.127,133.766 468.14,135.194 C467.992,135.217 467.842,135.23 467.692,135.231 C466.292,135.23 465.126,134.157 465.01,132.761 C464.894,131.366 465.867,130.115 467.248,129.883 C472.825,128.944 477.556,124.213 478.502,118.626 C478.747,117.165 480.135,116.175 481.602,116.421 C483.069,116.666 484.059,118.055 483.813,119.522 Z M494.615,116.385 C494.615,132.741 481.356,146 465,146 C448.644,146 435.385,132.741 435.385,116.385 C435.385,106.988 439.087,97.38 446.376,87.829 C446.843,87.218 447.549,86.835 448.316,86.778 C449.083,86.72 449.839,86.994 450.391,87.53 L458.508,95.408 L465.912,75.078 C466.212,74.255 466.894,73.63 467.74,73.401 C468.585,73.173 469.489,73.37 470.162,73.93 C477.523,80.038 494.615,96.377 494.615,116.385 Z M489.231,116.385 C489.231,100.874 477.186,87.469 469.641,80.6 L462.146,101.153 C461.834,102.011 461.108,102.651 460.218,102.855 C459.328,103.059 458.396,102.798 457.741,102.163 L448.866,93.554 C443.492,101.311 440.769,108.981 440.769,116.385 C440.769,129.767 451.618,140.615 465,140.615 C478.382,140.615 489.231,129.767 489.231,116.385 Z" />
        </g>
        <g id="Black-S">
            <path d="M683.809,119.528 C682.379,127.514 676.127,133.766 668.14,135.194 C667.992,135.217 667.842,135.23 667.692,135.231 C666.292,135.23 665.126,134.157 665.01,132.761 C664.894,131.366 665.867,130.115 667.248,129.883 C672.825,128.944 677.556,124.213 678.502,118.626 C678.747,117.165 680.135,116.175 681.602,116.421 C683.069,116.666 684.059,118.055 683.814,119.522 Z M694.615,116.385 C694.615,132.741 681.356,146 665,146 C648.644,146 635.385,132.741 635.385,116.385 C635.385,106.988 639.087,97.38 646.376,87.829 C646.843,87.218 647.549,86.835 648.316,86.778 C649.083,86.72 649.839,86.994 650.391,87.53 L658.508,95.408 L665.912,75.078 C666.212,74.255 666.894,73.63 667.74,73.401 C668.585,73.173 669.489,73.37 670.163,73.93 C677.523,80.038 694.615,96.377 694.615,116.385 Z M689.231,116.385 C689.231,100.874 677.186,87.469 669.641,80.6 L662.146,101.153 C661.834,102.011 661.108,102.651 660.218,102.855 C659.328,103.059 658.396,102.798 657.741,102.163 L648.866,93.554 C643.492,101.311 640.769,108.981 640.769,116.385 C640.769,129.767 651.618,140.615 665,140.615 C678.382,140.615 689.231,129.767 689.231,116.385 Z" />
        </g>
    </g>
</svg>