<?xml version="1.0" encoding="UTF-8"?>
<svg height="600" width="800" xmlns="http://www.w3.org/2000/svg" xmlns:xlink="http://www.w3.org/1999/xlink">
    <g id="Notes" font-family="'LucidaGrande', 'Lucida Grande', sans-serif" font-size="13">
        <rect fill="white" height="600.0" width="800.0" x="0.0" y="0.0" />
        <g font-size="13">
            <text x="18.0" y="176.0">Small</text>
            <text x="18.0" y="376.0">Medium</text>
            <text x="18.0" y="576.0">Large</text>
        </g>
        <g font-size="9">
            <text x="250.0" y="30.0">Ultralight</text>
            <text x="450.0" y="30.0">Regular</text>
            <text x="650.0" y="30.0">Black</text>
            <text id="template-version" fill="#505050" text-anchor="end" x="785.0" y="575.0">Template v.3.0</text>
            <a href="https://github.com/swhitty/SwiftDraw">
                <text fill="#505050" text-anchor="end" x="785.0" y="590.0">https://github.com/swhitty/SwiftDraw</text>
            </a>
        </g>
    </g>
    <g id="Guides" stroke="rgb(39, 170, 225)" stroke-width="0.5">
        <path id="Capline-S" d="M18,76 l800,0" />
        <path id="H-reference" d="M85,145.755 L87.685,145.755 L113.369,79.287 L114.052,79.287 L114.052,76 L112.148,76 L85,145.755 Z M95.693,121.536 L130.996,121.536 L130.263,119.313 L96.474,119.313 L95.693,121.536 Z M139.15,145.755 L141.787,145.755 L114.638,76 L113.466,76 L113.466,79.287 L139.15,145.755 Z" stroke="none" />
        <path id="Baseline-S" d="M18,146 l800,0" />
        <path id="left-margin-Ultralight-S" d="M220,56 l0,110" />
        <path id="right-margin-Ultralight-S" d="M310,56 l0,110" />
        <path id="left-margin-Regular-S" d="M420,56 l0,110" />
        <path id="right-margin-Regular-S" d="M510,56 l0,110" />
        <path id="left-margin-Black-S" d="M620,56 l0,110" />
        <path id="right-margin-Black-S" d="M710,56 l0,110" />
        <path id="Capline-M" d="M18,276 l800,0" />
        <path id="Baseline-M" d="M18,346 l800,0" />
        <path id="Capline-L" d="M18,476 l800,0" />
        <path id="Baseline-L" d="M18,546 l800,0" />
    </g>
    <g id="Symbols">
        <g id="Ultralight-S">
            <path d="M289.231,124.462 C284.32,124.466 280.033,127.786 278.798,132.538 L246.154,132.538 C240.206,132.538 235.385,127.717 235.385,121.769 C235.385,115.822 240.206,111 246.154,111 L278.462,111 C285.896,111 291.923,104.973 291.923,97.538 C291.923,90.104 285.896,84.077 278.462,84.077 L246.154,84.077 C244.667,84.077 243.462,85.282 243.462,86.769 C243.462,88.256 244.667,89.462 246.154,89.462 L278.462,89.462 C282.922,89.462 286.538,93.078 286.538,97.538 C286.538,101.999 282.922,105.615 278.462,105.615 L246.154,105.615 C237.232,105.615 230,112.848 230,121.769 C230,130.691 237.232,137.923 246.154,137.923 L278.798,137.923 C280.197,143.341 285.512,146.785 291.029,145.848 C296.546,144.911 300.426,139.904 299.957,134.328 C299.488,128.752 294.827,124.464 289.231,124.462 Z M289.231,140.615 C286.257,140.615 283.846,138.205 283.846,135.231 C283.846,132.257 286.257,129.846 289.231,129.846 C292.205,129.846 294.615,132.257 294.615,135.231 C294.615,136.659 294.048,138.028 293.038,139.038 C292.028,140.048 290.659,140.615 289.231,140.615 Z" />
        </g>
        <g id="Regular-S">
            <path d="M489.231,124.462 C484.32,124.466 480.033,127.786 478.798,132.538 L446.154,132.538 C440.206,132.538 435.385,127.717 435.385,121.769 C435.385,115.822 440.206,111 446.154,111 L478.462,111 C485.896,111 491.923,104.973 491.923,97.538 C491.923,90.104 485.896,84.077 478.462,84.077 L446.154,84.077 C444.667,84.077 443.462,85.282 443.462,86.769 C443.462,88.256 444.667,89.462 446.154,89.462 L478.462,89.462 C482.922,89.462 486.538,93.078 486.538,97.538 C486.538,101.999 482.922,105.615 478.462,105.615 L446.154,105.615 C437.232,105.615 430,112.848 430,121.769 C430,130.691 437.232,137.923 446.154,137.923 L478.798,137.923 C480.197,143.341 485.512,146.785 491.029,145.848 C496.546,144.911 500.426,139.904 499.957,134.328 C499.488,128.752 494.827,124.464 489.231,124.462 Z M489.231,140.615 C486.257,140.615 483.846,138.205 483.846,135.231 C483.846,132.257 486.257,129.846 489.231,129.846 C492.205,129.846 494.615,132.257 494.615,135.231 C494.615,136.659 494.048,138.028 493.038,139.038 C492.028,140.048 490.659,140.615 489.231,140.615 Z" />
        </g>
        <g id="Black-S">
            <path d="M689.231,124.462 C684.32,124.466 680.033,127.786 678.798,132.538 L646.154,132.538 C640.206,132.538 635.385,127.717 635.385,121.769 C635.385,115.822 640.206,111 646.154,111 L678.462,111 C685.896,111 691.923,104.973 691.923,97.538 C691.923,90.104 685.896,84.077 678.462,84.077 L646.154,84.077 C644.667,84.077 643.462,85.282 643.462,86.769 C643.462,88.256 644.667,89.462 646.154,89.462 L678.462,89.462 C682.922,89.462 686.538,93.078 686.538,97.538 C686.538,101.999 682.922,105.615 678.462,105.615 L646.154,105.615 C637.232,105.615 630,112.848 630,121.769 C630,130.691 637.232,137.923 646.154,137.923 L678.798,137.923 C680.197,143.341 685.512,146.785 691.029,145.848 C696.546,144.911 700.426,139.904 699.957,134.328 C699.488,128.752 694.827,124.464 689.231,124.462 Z M689.231,140.615 C686.257,140.615 683.846,138.205 683.846,135.231 C683.846,132.257 686.257,129.846 689.231,129.846 C692.205,129.846 694.615,132.257 694.615,135.231 C694.615,136.659 694.048,138.028 693.038,139.038 C692.028,140.048 690.659,140.615 689.231,140.615 Z" />
        </g>
    </g>
</svg>