<?xml version="1.0" encoding="UTF-8"?>
<svg height="600" width="800" xmlns="http://www.w3.org/2000/svg" xmlns:xlink="http://www.w3.org/1999/xlink">
    <g id="Notes" font-family="'LucidaGrande', 'Lucida Grande', sans-serif" font-size="13">
        <rect fill="white" height="600.0" width="800.0" x="0.0" y="0.0" />
        <g font-size="13">
            <text x="18.0" y="176.0">Small</text>
            <text x="18.0" y="376.0">Medium</text>
            <text x="18.0" y="576.0">Large</text>
        </g>
        <g font-size="9">
            <text x="250.0" y="30.0">Ultralight</text>
            <text x="450.0" y="30.0">Regular</text>
            <text x="650.0" y="30.0">Black</text>
            <text id="template-version" fill="#505050" text-anchor="end" x="785.0" y="575.0">Template v.3.0</text>
            <a href="https://github.com/swhitty/SwiftDraw">
                <text fill="#505050" text-anchor="end" x="785.0" y="590.0">https://github.com/swhitty/SwiftDraw</text>
            </a>
        </g>
    </g>
    <g id="Guides" stroke="rgb(39, 170, 225)" stroke-width="0.5">
        <path id="Capline-S" d="M18,76 l800,0" />
        <path id="H-reference" d="M85,145.755 L87.685,145.755 L113.369,79.287 L114.052,79.287 L114.052,76 L112.148,76 L85,145.755 Z M95.693,121.536 L130.996,121.536 L130.263,119.313 L96.474,119.313 L95.693,121.536 Z M139.15,145.755 L141.787,145.755 L114.638,76 L113.466,76 L113.466,79.287 L139.15,145.755 Z" stroke="none" />
        <path id="Baseline-S" d="M18,146 l800,0" />
        <path id="left-margin-Ultralight-S" d="M220,56 l0,110" />
        <path id="right-margin-Ultralight-S" d="M310,56 l0,110" />
        <path id="left-margin-Regular-S" d="M420,56 l0,110" />
        <path id="right-margin-Regular-S" d="M510,56 l0,110" />
        <path id="left-margin-Black-S" d="M620,56 l0,110" />
        <path id="right-margin-Black-S" d="M710,56 l0,110" />
        <path id="Capline-M" d="M18,276 l800,0" />
        <path id="Baseline-M" d="M18,346 l800,0" />
        <path id="Capline-L" d="M18,476 l800,0" />
        <path id="Baseline-L" d="M18,546 l800,0" />
    </g>
    <g id="Symbols">
        <g id="Ultralight-S">
            <path d="M270.385,123.681 C279.056,118.28 283.097,107.786 280.289,97.964 C277.48,88.142 268.502,81.371 258.286,81.371 C248.07,81.371 239.092,88.142 236.283,97.964 C233.475,107.786 237.516,118.28 246.188,123.681 C239.238,125.956 232.985,130.206 227.957,136.19 C227,137.329 227.147,139.028 228.286,139.985 C229.425,140.942 231.124,140.794 232.08,139.656 C238.834,131.593 248.143,127.154 258.269,127.154 C268.396,127.154 277.704,131.593 284.479,139.656 C285.435,140.794 287.134,140.942 288.273,139.985 C289.411,139.028 289.559,137.329 288.602,136.191 C283.57,130.206 277.317,125.956 270.385,123.681 Z M240.769,104.269 C240.769,94.604 248.604,86.769 258.269,86.769 C267.934,86.769 275.769,94.604 275.769,104.269 C275.769,113.934 267.934,121.769 258.269,121.769 C248.609,121.758 240.78,113.93 240.769,104.269 Z M291.708,90 C295.585,99.118 295.585,109.421 291.708,118.538 C291.284,119.531 290.31,120.174 289.231,120.174 C288.326,120.175 287.48,119.72 286.982,118.965 C286.483,118.209 286.397,117.254 286.754,116.422 C290.057,108.657 290.057,99.882 286.754,92.117 C286.17,90.745 286.807,89.163 288.175,88.58 C289.544,87.997 291.126,88.634 291.709,90.003 Z M305.385,104.269 C305.397,110.65 304.104,116.966 301.585,122.829 C300.973,124.15 299.421,124.745 298.082,124.171 C296.744,123.598 296.104,122.064 296.638,120.709 C301.121,110.207 301.121,98.331 296.638,87.829 C296.225,86.94 296.329,85.896 296.909,85.105 C297.489,84.314 298.453,83.901 299.425,84.026 C300.398,84.152 301.225,84.797 301.585,85.709 C304.104,91.572 305.397,97.888 305.385,104.269 Z" />
        </g>
        <g id="Regular-S">
            <path d="M470.385,123.681 C479.056,118.28 483.097,107.786 480.289,97.964 C477.48,88.142 468.502,81.371 458.286,81.371 C448.07,81.371 439.092,88.142 436.283,97.964 C433.475,107.786 437.516,118.28 446.187,123.681 C439.238,125.956 432.985,130.206 427.957,136.19 C427,137.329 427.147,139.028 428.286,139.985 C429.425,140.942 431.124,140.794 432.08,139.656 C438.834,131.593 448.143,127.154 458.269,127.154 C468.396,127.154 477.704,131.593 484.479,139.656 C485.435,140.794 487.134,140.942 488.273,139.985 C489.411,139.028 489.559,137.329 488.602,136.191 C483.57,130.206 477.317,125.956 470.385,123.681 Z M440.769,104.269 C440.769,94.604 448.604,86.769 458.269,86.769 C467.934,86.769 475.769,94.604 475.769,104.269 C475.769,113.934 467.934,121.769 458.269,121.769 C448.609,121.758 440.78,113.93 440.769,104.269 Z M491.708,90 C495.584,99.118 495.585,109.421 491.708,118.538 C491.284,119.531 490.31,120.174 489.231,120.174 C488.326,120.175 487.48,119.72 486.982,118.965 C486.483,118.209 486.397,117.254 486.754,116.422 C490.056,108.657 490.056,99.882 486.754,92.117 C486.17,90.745 486.806,89.163 488.175,88.58 C489.544,87.997 491.126,88.634 491.709,90.003 Z M505.385,104.269 C505.397,110.65 504.104,116.966 501.585,122.829 C500.973,124.15 499.421,124.745 498.082,124.171 C496.744,123.598 496.104,122.064 496.638,120.709 C501.121,110.207 501.121,98.331 496.638,87.829 C496.225,86.94 496.329,85.896 496.909,85.105 C497.489,84.314 498.453,83.901 499.425,84.026 C500.398,84.152 501.225,84.797 501.585,85.709 C504.104,91.572 505.397,97.888 505.385,104.269 Z" />
        </g>
        <g id="Black-S">
            <path d="M670.385,123.681 C679.056,118.28 683.097,107.786 680.289,97.964 C677.48,88.142 668.502,81.371 658.286,81.371 C648.07,81.371 639.092,88.142 636.283,97.964 C633.475,107.786 637.516,118.28 646.188,123.681 C639.238,125.956 632.985,130.206 627.957,136.19 C627,137.329 627.147,139.028 628.286,139.985 C629.425,140.942 631.124,140.794 632.08,139.656 C638.834,131.593 648.143,127.154 658.269,127.154 C668.396,127.154 677.704,131.593 684.479,139.656 C685.435,140.794 687.134,140.942 688.273,139.985 C689.411,139.028 689.559,137.329 688.602,136.191 C683.57,130.206 677.317,125.956 670.385,123.681 Z M640.769,104.269 C640.769,94.604 648.604,86.769 658.269,86.769 C667.934,86.769 675.769,94.604 675.769,104.269 C675.769,113.934 667.934,121.769 658.269,121.769 C648.609,121.758 640.78,113.93 640.769,104.269 Z M691.708,90 C695.585,99.118 695.585,109.421 691.708,118.538 C691.284,119.531 690.31,120.174 689.231,120.174 C688.326,120.175 687.48,119.72 686.982,118.965 C686.483,118.209 686.397,117.254 686.754,116.422 C690.057,108.657 690.057,99.882 686.754,92.117 C686.17,90.745 686.807,89.163 688.175,88.58 C689.544,87.997 691.126,88.634 691.709,90.003 Z M705.385,104.269 C705.397,110.65 704.104,116.966 701.585,122.829 C700.973,124.15 699.421,124.745 698.082,124.171 C696.744,123.598 696.104,122.064 696.638,120.709 C701.121,110.207 701.121,98.331 696.638,87.829 C696.225,86.94 696.329,85.896 696.909,85.105 C697.489,84.314 698.453,83.901 699.425,84.026 C700.398,84.152 701.225,84.797 701.585,85.709 C704.104,91.572 705.397,97.888 705.385,104.269 Z" />
        </g>
    </g>
</svg>