<?xml version="1.0" encoding="UTF-8"?>
<svg height="600" width="800" xmlns="http://www.w3.org/2000/svg" xmlns:xlink="http://www.w3.org/1999/xlink">
    <g id="Notes" font-family="'LucidaGrande', 'Lucida Grande', sans-serif" font-size="13">
        <rect fill="white" height="600.0" width="800.0" x="0.0" y="0.0" />
        <g font-size="13">
            <text x="18.0" y="176.0">Small</text>
            <text x="18.0" y="376.0">Medium</text>
            <text x="18.0" y="576.0">Large</text>
        </g>
        <g font-size="9">
            <text x="250.0" y="30.0">Ultralight</text>
            <text x="450.0" y="30.0">Regular</text>
            <text x="650.0" y="30.0">Black</text>
            <text id="template-version" fill="#505050" text-anchor="end" x="785.0" y="575.0">Template v.3.0</text>
            <a href="https://github.com/swhitty/SwiftDraw">
                <text fill="#505050" text-anchor="end" x="785.0" y="590.0">https://github.com/swhitty/SwiftDraw</text>
            </a>
        </g>
    </g>
    <g id="Guides" stroke="rgb(39, 170, 225)" stroke-width="0.5">
        <path id="Capline-S" d="M18,76 l800,0" />
        <path id="H-reference" d="M85,145.755 L87.685,145.755 L113.369,79.287 L114.052,79.287 L114.052,76 L112.148,76 L85,145.755 Z M95.693,121.536 L130.996,121.536 L130.263,119.313 L96.474,119.313 L95.693,121.536 Z M139.15,145.755 L141.787,145.755 L114.638,76 L113.466,76 L113.466,79.287 L139.15,145.755 Z" stroke="none" />
        <path id="Baseline-S" d="M18,146 l800,0" />
        <path id="left-margin-Ultralight-S" d="M220,56 l0,110" />
        <path id="right-margin-Ultralight-S" d="M310,56 l0,110" />
        <path id="left-margin-Regular-S" d="M420,56 l0,110" />
        <path id="right-margin-Regular-S" d="M510,56 l0,110" />
        <path id="left-margin-Black-S" d="M620,56 l0,110" />
        <path id="right-margin-Black-S" d="M710,56 l0,110" />
        <path id="Capline-M" d="M18,276 l800,0" />
        <path id="Baseline-M" d="M18,346 l800,0" />
        <path id="Capline-L" d="M18,476 l800,0" />
        <path id="Baseline-L" d="M18,546 l800,0" />
    </g>
    <g id="Symbols">
        <g id="Ultralight-S">
            <path d="M256.923,88.115 C256.923,90.346 255.115,92.154 252.885,92.154 C250.654,92.154 248.846,90.346 248.846,88.115 C248.846,85.885 250.654,84.077 252.885,84.077 C253.956,84.077 254.983,84.502 255.74,85.26 C256.498,86.017 256.923,87.044 256.923,88.115 Z M277.115,92.154 C279.346,92.154 281.154,90.346 281.154,88.115 C281.154,85.885 279.346,84.077 277.115,84.077 C274.885,84.077 273.077,85.885 273.077,88.115 C273.077,89.186 273.502,90.214 274.26,90.971 C275.017,91.728 276.044,92.154 277.115,92.154 Z M252.885,106.962 C250.654,106.962 248.846,108.77 248.846,111 C248.846,113.23 250.654,115.038 252.885,115.038 C255.115,115.038 256.923,113.23 256.923,111 C256.923,109.929 256.498,108.902 255.74,108.144 C254.983,107.387 253.956,106.962 252.885,106.962 Z M277.115,106.962 C274.885,106.962 273.077,108.77 273.077,111 C273.077,113.23 274.885,115.038 277.115,115.038 C279.346,115.038 281.154,113.23 281.154,111 C281.154,109.929 280.728,108.902 279.971,108.144 C279.214,107.387 278.186,106.962 277.115,106.962 Z M252.885,129.846 C250.654,129.846 248.846,131.654 248.846,133.885 C248.846,136.115 250.654,137.923 252.885,137.923 C255.115,137.923 256.923,136.115 256.923,133.885 C256.923,132.814 256.498,131.786 255.74,131.029 C254.983,130.272 253.956,129.846 252.885,129.846 Z M277.115,129.846 C274.885,129.846 273.077,131.654 273.077,133.885 C273.077,136.115 274.885,137.923 277.115,137.923 C279.346,137.923 281.154,136.115 281.154,133.885 C281.154,132.814 280.728,131.786 279.971,131.029 C279.214,130.272 278.186,129.846 277.115,129.846 Z" />
        </g>
        <g id="Regular-S">
            <path d="M456.923,88.115 C456.923,90.346 455.115,92.154 452.885,92.154 C450.654,92.154 448.846,90.346 448.846,88.115 C448.846,85.885 450.654,84.077 452.885,84.077 C453.956,84.077 454.983,84.502 455.74,85.26 C456.498,86.017 456.923,87.044 456.923,88.115 Z M477.115,92.154 C479.346,92.154 481.154,90.346 481.154,88.115 C481.154,85.885 479.346,84.077 477.115,84.077 C474.885,84.077 473.077,85.885 473.077,88.115 C473.077,89.186 473.502,90.214 474.26,90.971 C475.017,91.728 476.044,92.154 477.115,92.154 Z M452.885,106.962 C450.654,106.962 448.846,108.77 448.846,111 C448.846,113.23 450.654,115.038 452.885,115.038 C455.115,115.038 456.923,113.23 456.923,111 C456.923,109.929 456.498,108.902 455.74,108.144 C454.983,107.387 453.956,106.962 452.885,106.962 Z M477.115,106.962 C474.885,106.962 473.077,108.77 473.077,111 C473.077,113.23 474.885,115.038 477.115,115.038 C479.346,115.038 481.154,113.23 481.154,111 C481.154,109.929 480.728,108.902 479.971,108.144 C479.214,107.387 478.186,106.962 477.115,106.962 Z M452.885,129.846 C450.654,129.846 448.846,131.654 448.846,133.885 C448.846,136.115 450.654,137.923 452.885,137.923 C455.115,137.923 456.923,136.115 456.923,133.885 C456.923,132.814 456.498,131.786 455.74,131.029 C454.983,130.272 453.956,129.846 452.885,129.846 Z M477.115,129.846 C474.885,129.846 473.077,131.654 473.077,133.885 C473.077,136.115 474.885,137.923 477.115,137.923 C479.346,137.923 481.154,136.115 481.154,133.885 C481.154,132.814 480.728,131.786 479.971,131.029 C479.214,130.272 478.186,129.846 477.115,129.846 Z" />
        </g>
        <g id="Black-S">
            <path d="M656.923,88.115 C656.923,90.346 655.115,92.154 652.885,92.154 C650.654,92.154 648.846,90.346 648.846,88.115 C648.846,85.885 650.654,84.077 652.885,84.077 C653.956,84.077 654.983,84.502 655.74,85.26 C656.498,86.017 656.923,87.044 656.923,88.115 Z M677.115,92.154 C679.346,92.154 681.154,90.346 681.154,88.115 C681.154,85.885 679.346,84.077 677.115,84.077 C674.885,84.077 673.077,85.885 673.077,88.115 C673.077,89.186 673.502,90.214 674.26,90.971 C675.017,91.728 676.044,92.154 677.115,92.154 Z M652.885,106.962 C650.654,106.962 648.846,108.77 648.846,111 C648.846,113.23 650.654,115.038 652.885,115.038 C655.115,115.038 656.923,113.23 656.923,111 C656.923,109.929 656.498,108.902 655.74,108.144 C654.983,107.387 653.956,106.962 652.885,106.962 Z M677.115,106.962 C674.885,106.962 673.077,108.77 673.077,111 C673.077,113.23 674.885,115.038 677.115,115.038 C679.346,115.038 681.154,113.23 681.154,111 C681.154,109.929 680.728,108.902 679.971,108.144 C679.214,107.387 678.186,106.962 677.115,106.962 Z M652.885,129.846 C650.654,129.846 648.846,131.654 648.846,133.885 C648.846,136.115 650.654,137.923 652.885,137.923 C655.115,137.923 656.923,136.115 656.923,133.885 C656.923,132.814 656.498,131.786 655.74,131.029 C654.983,130.272 653.956,129.846 652.885,129.846 Z M677.115,129.846 C674.885,129.846 673.077,131.654 673.077,133.885 C673.077,136.115 674.885,137.923 677.115,137.923 C679.346,137.923 681.154,136.115 681.154,133.885 C681.154,132.814 680.728,131.786 679.971,131.029 C679.214,130.272 678.186,129.846 677.115,129.846 Z" />
        </g>
    </g>
</svg>