<?xml version="1.0" encoding="UTF-8"?>
<svg height="600" width="800" xmlns="http://www.w3.org/2000/svg" xmlns:xlink="http://www.w3.org/1999/xlink">
    <g id="Notes" font-family="'LucidaGrande', 'Lucida Grande', sans-serif" font-size="13">
        <rect fill="white" height="600.0" width="800.0" x="0.0" y="0.0" />
        <g font-size="13">
            <text x="18.0" y="176.0">Small</text>
            <text x="18.0" y="376.0">Medium</text>
            <text x="18.0" y="576.0">Large</text>
        </g>
        <g font-size="9">
            <text x="250.0" y="30.0">Ultralight</text>
            <text x="450.0" y="30.0">Regular</text>
            <text x="650.0" y="30.0">Black</text>
            <text id="template-version" fill="#505050" text-anchor="end" x="785.0" y="575.0">Template v.3.0</text>
            <a href="https://github.com/swhitty/SwiftDraw">
                <text fill="#505050" text-anchor="end" x="785.0" y="590.0">https://github.com/swhitty/SwiftDraw</text>
            </a>
        </g>
    </g>
    <g id="Guides" stroke="rgb(39, 170, 225)" stroke-width="0.5">
        <path id="Capline-S" d="M18,76 l800,0" />
        <path id="H-reference" d="M85,145.755 L87.685,145.755 L113.369,79.287 L114.052,79.287 L114.052,76 L112.148,76 L85,145.755 Z M95.693,121.536 L130.996,121.536 L130.263,119.313 L96.474,119.313 L95.693,121.536 Z M139.15,145.755 L141.787,145.755 L114.638,76 L113.466,76 L113.466,79.287 L139.15,145.755 Z" stroke="none" />
        <path id="Baseline-S" d="M18,146 l800,0" />
        <path id="left-margin-Ultralight-S" d="M220,56 l0,110" />
        <path id="right-margin-Ultralight-S" d="M310,56 l0,110" />
        <path id="left-margin-Regular-S" d="M420,56 l0,110" />
        <path id="right-margin-Regular-S" d="M510,56 l0,110" />
        <path id="left-margin-Black-S" d="M620,56 l0,110" />
        <path id="right-margin-Black-S" d="M710,56 l0,110" />
        <path id="Capline-M" d="M18,276 l800,0" />
        <path id="Baseline-M" d="M18,346 l800,0" />
        <path id="Capline-L" d="M18,476 l800,0" />
        <path id="Baseline-L" d="M18,546 l800,0" />
    </g>
    <g id="Symbols">
        <g id="Ultralight-S">
            <path d="M265,119.077 C262.77,119.077 260.962,117.269 260.962,115.038 C260.962,112.808 262.77,111 265,111 C267.23,111 269.038,112.808 269.038,115.038 C269.038,116.11 268.613,117.137 267.856,117.894 C267.098,118.651 266.071,119.077 265,119.077 Z M300,111 C300,130.33 284.33,146 265,146 C245.67,146 230,130.33 230,111 C230,91.67 245.67,76 265,76 C284.322,76.02 299.98,91.678 300,111 Z M235.385,111 L235.385,111.111 C252.463,96.604 277.537,96.604 294.615,111.111 L294.615,111 C294.615,94.644 281.356,81.385 265,81.385 C248.644,81.385 235.385,94.644 235.385,111 Z M258.101,139.801 L252.363,124.462 L238.625,124.462 C242.574,132.166 249.685,137.767 258.101,139.801 Z M265,140.615 C265.279,140.615 265.559,140.615 265.838,140.615 L272.592,122.587 C273.386,120.487 275.395,119.095 277.64,119.09 L293.498,119.09 C293.626,118.65 293.74,118.202 293.835,117.744 C286.239,109.995 275.844,105.628 264.993,105.628 C254.142,105.628 243.747,109.995 236.152,117.744 C236.256,118.195 236.371,118.643 236.488,119.09 L252.363,119.09 C254.609,119.096 256.618,120.489 257.411,122.59 L264.142,140.615 C264.431,140.615 264.714,140.615 265,140.615 Z M291.375,124.462 L277.637,124.462 L271.886,139.804 C280.307,137.774 287.424,132.171 291.375,124.462 Z" />
        </g>
        <g id="Regular-S">
            <path d="M465,119.077 C462.77,119.077 460.962,117.269 460.962,115.038 C460.962,112.808 462.77,111 465,111 C467.23,111 469.038,112.808 469.038,115.038 C469.038,116.11 468.613,117.137 467.856,117.894 C467.098,118.651 466.071,119.077 465,119.077 Z M500,111 C500,130.33 484.33,146 465,146 C445.67,146 430,130.33 430,111 C430,91.67 445.67,76 465,76 C484.321,76.02 499.98,91.678 500,111 Z M435.385,111 L435.385,111.111 C452.463,96.604 477.537,96.604 494.615,111.111 L494.615,111 C494.615,94.644 481.356,81.385 465,81.385 C448.644,81.385 435.385,94.644 435.385,111 Z M458.101,139.801 L452.363,124.462 L438.625,124.462 C442.574,132.166 449.685,137.767 458.101,139.801 Z M465,140.615 C465.279,140.615 465.559,140.615 465.838,140.615 L472.592,122.587 C473.386,120.487 475.395,119.095 477.64,119.09 L493.498,119.09 C493.626,118.65 493.74,118.202 493.835,117.744 C486.239,109.995 475.844,105.628 464.993,105.628 C454.142,105.628 443.747,109.995 436.152,117.744 C436.256,118.195 436.371,118.643 436.488,119.09 L452.363,119.09 C454.609,119.096 456.618,120.489 457.411,122.59 L464.142,140.615 C464.431,140.615 464.714,140.615 465,140.615 Z M491.375,124.462 L477.637,124.462 L471.886,139.804 C480.307,137.774 487.424,132.171 491.375,124.462 Z" />
        </g>
        <g id="Black-S">
            <path d="M665,119.077 C662.77,119.077 660.962,117.269 660.962,115.038 C660.962,112.808 662.77,111 665,111 C667.23,111 669.038,112.808 669.038,115.038 C669.038,116.11 668.613,117.137 667.856,117.894 C667.098,118.651 666.071,119.077 665,119.077 Z M700,111 C700,130.33 684.33,146 665,146 C645.67,146 630,130.33 630,111 C630,91.67 645.67,76 665,76 C684.322,76.02 699.98,91.678 700,111 Z M635.385,111 L635.385,111.111 C652.463,96.604 677.537,96.604 694.615,111.111 L694.615,111 C694.615,94.644 681.356,81.385 665,81.385 C648.644,81.385 635.385,94.644 635.385,111 Z M658.101,139.801 L652.363,124.462 L638.625,124.462 C642.574,132.166 649.685,137.767 658.101,139.801 Z M665,140.615 C665.279,140.615 665.559,140.615 665.838,140.615 L672.592,122.587 C673.386,120.487 675.395,119.095 677.64,119.09 L693.498,119.09 C693.626,118.65 693.74,118.202 693.835,117.744 C686.239,109.995 675.844,105.628 664.993,105.628 C654.142,105.628 643.747,109.995 636.152,117.744 C636.256,118.195 636.371,118.643 636.488,119.09 L652.363,119.09 C654.609,119.096 656.618,120.489 657.411,122.59 L664.142,140.615 C664.431,140.615 664.714,140.615 665,140.615 Z M691.375,124.462 L677.637,124.462 L671.886,139.804 C680.307,137.774 687.424,132.171 691.375,124.462 Z" />
        </g>
    </g>
</svg>