<?xml version="1.0" encoding="UTF-8"?>
<svg height="600" width="800" xmlns="http://www.w3.org/2000/svg" xmlns:xlink="http://www.w3.org/1999/xlink">
    <g id="Notes" font-family="'LucidaGrande', 'Lucida Grande', sans-serif" font-size="13">
        <rect fill="white" height="600.0" width="800.0" x="0.0" y="0.0" />
        <g font-size="13">
            <text x="18.0" y="176.0">Small</text>
            <text x="18.0" y="376.0">Medium</text>
            <text x="18.0" y="576.0">Large</text>
        </g>
        <g font-size="9">
            <text x="250.0" y="30.0">Ultralight</text>
            <text x="450.0" y="30.0">Regular</text>
            <text x="650.0" y="30.0">Black</text>
            <text id="template-version" fill="#505050" text-anchor="end" x="785.0" y="575.0">Template v.3.0</text>
            <a href="https://github.com/swhitty/SwiftDraw">
                <text fill="#505050" text-anchor="end" x="785.0" y="590.0">https://github.com/swhitty/SwiftDraw</text>
            </a>
        </g>
    </g>
    <g id="Guides" stroke="rgb(39, 170, 225)" stroke-width="0.5">
        <path id="Capline-S" d="M18,76 l800,0" />
        <path id="H-reference" d="M85,145.755 L87.685,145.755 L113.369,79.287 L114.052,79.287 L114.052,76 L112.148,76 L85,145.755 Z M95.693,121.536 L130.996,121.536 L130.263,119.313 L96.474,119.313 L95.693,121.536 Z M139.15,145.755 L141.787,145.755 L114.638,76 L113.466,76 L113.466,79.287 L139.15,145.755 Z" stroke="none" />
        <path id="Baseline-S" d="M18,146 l800,0" />
        <path id="left-margin-Ultralight-S" d="M220,56 l0,110" />
        <path id="right-margin-Ultralight-S" d="M310,56 l0,110" />
        <path id="left-margin-Regular-S" d="M420,56 l0,110" />
        <path id="right-margin-Regular-S" d="M510,56 l0,110" />
        <path id="left-margin-Black-S" d="M620,56 l0,110" />
        <path id="right-margin-Black-S" d="M710,56 l0,110" />
        <path id="Capline-M" d="M18,276 l800,0" />
        <path id="Baseline-M" d="M18,346 l800,0" />
        <path id="Capline-L" d="M18,476 l800,0" />
        <path id="Baseline-L" d="M18,546 l800,0" />
    </g>
    <g id="Symbols">
        <g id="Ultralight-S">
            <path d="M277.28,122.95 C278.853,124.529 278.85,127.084 277.274,128.658 C275.697,130.233 273.142,130.233 271.566,128.658 C269.989,127.084 269.986,124.529 271.559,122.95 C272.317,122.19 273.346,121.763 274.42,121.763 C275.493,121.763 276.523,122.19 277.28,122.95 Z M250.021,120.258 C248.448,121.837 248.451,124.391 250.027,125.966 C251.604,127.541 254.158,127.541 255.735,125.966 C257.312,124.391 257.315,121.837 255.742,120.258 C254.984,119.5 253.956,119.074 252.885,119.074 C251.813,119.074 250.785,119.5 250.027,120.258 Z M253.05,107.133 C254.623,105.555 254.62,103 253.043,101.425 C251.466,99.85 248.912,99.85 247.335,101.425 C245.758,103 245.755,105.555 247.328,107.133 C248.087,107.893 249.117,108.319 250.19,108.318 C251.264,108.316 252.293,107.888 253.05,107.126 Z M269.203,106.797 C267.625,105.224 265.07,105.227 263.495,106.803 C261.921,108.38 261.921,110.934 263.495,112.511 C265.07,114.088 267.625,114.091 269.203,112.518 C269.964,111.76 270.391,110.731 270.391,109.657 C270.391,108.584 269.964,107.554 269.203,106.797 Z M300,111 C300,130.33 284.33,146 265,146 C245.67,146 230,130.33 230,111 C230,91.67 245.67,76 265,76 C265.714,76 266.399,76.284 266.904,76.789 C267.409,77.293 267.692,77.978 267.692,78.692 C267.692,82.263 269.111,85.687 271.635,88.211 C274.16,90.736 277.584,92.154 281.154,92.154 C281.868,92.154 282.553,92.438 283.058,92.942 C283.562,93.447 283.846,94.132 283.846,94.846 C283.846,98.416 285.264,101.84 287.789,104.365 C290.313,106.889 293.737,108.308 297.308,108.308 C298.022,108.308 298.707,108.591 299.211,109.096 C299.716,109.601 300,110.286 300,111 Z M294.511,113.487 C286.229,112.23 279.765,105.669 278.63,97.37 C270.331,96.235 263.77,89.771 262.513,81.489 C246.857,82.809 234.956,96.124 235.397,111.83 C235.837,127.535 248.465,140.163 264.17,140.603 C279.876,141.044 293.191,129.143 294.511,113.487 Z" />
        </g>
        <g id="Regular-S">
            <path d="M477.28,122.95 C478.853,124.529 478.85,127.084 477.274,128.658 C475.697,130.233 473.142,130.233 471.566,128.658 C469.989,127.084 469.986,124.529 471.559,122.95 C472.317,122.19 473.346,121.763 474.42,121.763 C475.493,121.763 476.523,122.19 477.28,122.95 Z M450.021,120.258 C448.448,121.837 448.451,124.391 450.027,125.966 C451.604,127.541 454.158,127.541 455.735,125.966 C457.312,124.391 457.315,121.837 455.742,120.258 C454.984,119.5 453.956,119.074 452.885,119.074 C451.813,119.074 450.785,119.5 450.027,120.258 Z M453.049,107.133 C454.623,105.555 454.62,103 453.043,101.425 C451.466,99.85 448.912,99.85 447.335,101.425 C445.758,103 445.755,105.555 447.328,107.133 C448.087,107.893 449.117,108.319 450.19,108.318 C451.264,108.316 452.293,107.888 453.049,107.126 Z M469.203,106.797 C467.625,105.224 465.07,105.227 463.495,106.803 C461.921,108.38 461.921,110.934 463.495,112.511 C465.07,114.088 467.625,114.091 469.203,112.518 C469.964,111.76 470.391,110.731 470.391,109.657 C470.391,108.584 469.964,107.554 469.203,106.797 Z M500,111 C500,130.33 484.33,146 465,146 C445.67,146 430,130.33 430,111 C430,91.67 445.67,76 465,76 C465.714,76 466.399,76.284 466.904,76.789 C467.409,77.293 467.692,77.978 467.692,78.692 C467.692,82.263 469.111,85.687 471.635,88.211 C474.16,90.736 477.584,92.154 481.154,92.154 C481.868,92.154 482.553,92.438 483.058,92.942 C483.562,93.447 483.846,94.132 483.846,94.846 C483.846,98.416 485.264,101.84 487.789,104.365 C490.313,106.889 493.737,108.308 497.308,108.308 C498.022,108.308 498.707,108.591 499.211,109.096 C499.716,109.601 500,110.286 500,111 Z M494.511,113.487 C486.229,112.23 479.765,105.669 478.63,97.37 C470.331,96.235 463.77,89.771 462.513,81.489 C446.857,82.809 434.956,96.124 435.397,111.83 C435.837,127.535 448.465,140.163 464.17,140.603 C479.876,141.044 493.191,129.143 494.511,113.487 Z" />
        </g>
        <g id="Black-S">
            <path d="M677.28,122.95 C678.853,124.529 678.85,127.084 677.274,128.658 C675.697,130.233 673.143,130.233 671.566,128.658 C669.989,127.084 669.986,124.529 671.559,122.95 C672.317,122.19 673.346,121.763 674.42,121.763 C675.493,121.763 676.523,122.19 677.28,122.95 Z M650.021,120.258 C648.448,121.837 648.451,124.391 650.027,125.966 C651.604,127.541 654.159,127.541 655.735,125.966 C657.312,124.391 657.315,121.837 655.742,120.258 C654.984,119.5 653.956,119.074 652.885,119.074 C651.813,119.074 650.785,119.5 650.027,120.258 Z M653.05,107.133 C654.623,105.555 654.62,103 653.043,101.425 C651.466,99.85 648.912,99.85 647.335,101.425 C645.758,103 645.755,105.555 647.328,107.133 C648.087,107.893 649.117,108.319 650.19,108.318 C651.264,108.316 652.293,107.888 653.05,107.126 Z M669.203,106.797 C667.625,105.224 665.07,105.227 663.495,106.803 C661.921,108.38 661.921,110.934 663.495,112.511 C665.07,114.088 667.625,114.091 669.203,112.518 C669.964,111.76 670.391,110.731 670.391,109.657 C670.391,108.584 669.964,107.554 669.203,106.797 Z M700,111 C700,130.33 684.33,146 665,146 C645.67,146 630,130.33 630,111 C630,91.67 645.67,76 665,76 C665.714,76 666.399,76.284 666.904,76.789 C667.409,77.293 667.692,77.978 667.692,78.692 C667.692,82.263 669.111,85.687 671.635,88.211 C674.16,90.736 677.584,92.154 681.154,92.154 C681.868,92.154 682.553,92.438 683.058,92.942 C683.562,93.447 683.846,94.132 683.846,94.846 C683.846,98.416 685.264,101.84 687.789,104.365 C690.313,106.889 693.737,108.308 697.308,108.308 C698.022,108.308 698.707,108.591 699.211,109.096 C699.716,109.601 700,110.286 700,111 Z M694.511,113.487 C686.229,112.23 679.765,105.669 678.63,97.37 C670.331,96.235 663.77,89.771 662.513,81.489 C646.857,82.809 634.956,96.124 635.397,111.83 C635.837,127.535 648.465,140.163 664.17,140.603 C679.876,141.044 693.192,129.143 694.511,113.487 Z" />
        </g>
    </g>
</svg>