<?xml version="1.0" encoding="UTF-8"?>
<svg height="600" width="800" xmlns="http://www.w3.org/2000/svg" xmlns:xlink="http://www.w3.org/1999/xlink">
    <g id="Notes" font-family="'LucidaGrande', 'Lucida Grande', sans-serif" font-size="13">
        <rect fill="white" height="600.0" width="800.0" x="0.0" y="0.0" />
        <g font-size="13">
            <text x="18.0" y="176.0">Small</text>
            <text x="18.0" y="376.0">Medium</text>
            <text x="18.0" y="576.0">Large</text>
        </g>
        <g font-size="9">
            <text x="250.0" y="30.0">Ultralight</text>
            <text x="450.0" y="30.0">Regular</text>
            <text x="650.0" y="30.0">Black</text>
            <text id="template-version" fill="#505050" text-anchor="end" x="785.0" y="575.0">Template v.3.0</text>
            <a href="https://github.com/swhitty/SwiftDraw">
                <text fill="#505050" text-anchor="end" x="785.0" y="590.0">https://github.com/swhitty/SwiftDraw</text>
            </a>
        </g>
    </g>
    <g id="Guides" stroke="rgb(39, 170, 225)" stroke-width="0.5">
        <path id="Capline-S" d="M18,76 l800,0" />
        <path id="H-reference" d="M85,145.755 L87.685,145.755 L113.369,79.287 L114.052,79.287 L114.052,76 L112.148,76 L85,145.755 Z M95.693,121.536 L130.996,121.536 L130.263,119.313 L96.474,119.313 L95.693,121.536 Z M139.15,145.755 L141.787,145.755 L114.638,76 L113.466,76 L113.466,79.287 L139.15,145.755 Z" stroke="none" />
        <path id="Baseline-S" d="M18,146 l800,0" />
        <path id="left-margin-Ultralight-S" d="M220,56 l0,110" />
        <path id="right-margin-Ultralight-S" d="M310,56 l0,110" />
        <path id="left-margin-Regular-S" d="M420,56 l0,110" />
        <path id="right-margin-Regular-S" d="M510,56 l0,110" />
        <path id="left-margin-Black-S" d="M620,56 l0,110" />
        <path id="right-margin-Black-S" d="M710,56 l0,110" />
        <path id="Capline-M" d="M18,276 l800,0" />
        <path id="Baseline-M" d="M18,346 l800,0" />
        <path id="Capline-L" d="M18,476 l800,0" />
        <path id="Baseline-L" d="M18,546 l800,0" />
    </g>
    <g id="Symbols">
        <g id="Ultralight-S">
            <path d="M265,76 C245.67,76 230,91.67 230,111 C230,130.33 245.67,146 265,146 C284.33,146 300,130.33 300,111 C299.979,91.677 284.32,76.02 264.999,76 Z M265,140.615 C248.644,140.615 235.385,127.356 235.385,111 C235.385,94.644 248.644,81.385 265,81.385 C281.356,81.385 294.615,94.644 294.615,111 C294.598,127.347 281.35,140.596 265.001,140.615 Z M265,105.615 C264.795,105.615 264.589,105.615 264.388,105.615 L270.004,96.226 C270.766,94.949 270.349,93.296 269.072,92.534 C267.795,91.772 266.142,92.19 265.38,93.467 L254.534,111.64 C251.775,116.383 252.549,122.389 256.42,126.278 C260.292,130.167 266.294,130.969 271.05,128.231 C275.806,125.494 278.128,119.901 276.71,114.6 C275.292,109.299 270.488,105.613 265,105.615 Z M265,124.462 C261.283,124.462 258.269,121.448 258.269,117.731 C258.269,114.013 261.283,111 265,111 C268.717,111 271.731,114.013 271.731,117.731 C271.731,119.516 271.022,121.228 269.759,122.49 C268.497,123.752 266.785,124.462 265,124.462 Z" />
        </g>
        <g id="Regular-S">
            <path d="M465,76 C445.67,76 430,91.67 430,111 C430,130.33 445.67,146 465,146 C484.33,146 500,130.33 500,111 C499.979,91.677 484.32,76.02 464.999,76 Z M465,140.615 C448.644,140.615 435.385,127.356 435.385,111 C435.385,94.644 448.644,81.385 465,81.385 C481.356,81.385 494.615,94.644 494.615,111 C494.598,127.347 481.35,140.596 465.001,140.615 Z M465,105.615 C464.795,105.615 464.589,105.615 464.387,105.615 L470.004,96.226 C470.766,94.949 470.349,93.296 469.072,92.534 C467.795,91.772 466.142,92.19 465.38,93.467 L454.534,111.64 C451.775,116.383 452.549,122.389 456.42,126.278 C460.292,130.167 466.294,130.969 471.05,128.231 C475.806,125.494 478.128,119.901 476.71,114.6 C475.292,109.299 470.488,105.613 465,105.615 Z M465,124.462 C461.283,124.462 458.269,121.448 458.269,117.731 C458.269,114.013 461.283,111 465,111 C468.717,111 471.731,114.013 471.731,117.731 C471.731,119.516 471.022,121.228 469.759,122.49 C468.497,123.752 466.785,124.462 465,124.462 Z" />
        </g>
        <g id="Black-S">
            <path d="M665,76 C645.67,76 630,91.67 630,111 C630,130.33 645.67,146 665,146 C684.33,146 700,130.33 700,111 C699.979,91.677 684.32,76.02 664.999,76 Z M665,140.615 C648.644,140.615 635.385,127.356 635.385,111 C635.385,94.644 648.644,81.385 665,81.385 C681.356,81.385 694.615,94.644 694.615,111 C694.598,127.347 681.35,140.596 665.001,140.615 Z M665,105.615 C664.795,105.615 664.589,105.615 664.388,105.615 L670.004,96.226 C670.766,94.949 670.349,93.296 669.072,92.534 C667.795,91.772 666.142,92.19 665.38,93.467 L654.534,111.64 C651.775,116.383 652.549,122.389 656.42,126.278 C660.292,130.167 666.294,130.969 671.05,128.231 C675.806,125.494 678.128,119.901 676.71,114.6 C675.292,109.299 670.488,105.613 665,105.615 Z M665,124.462 C661.283,124.462 658.269,121.448 658.269,117.731 C658.269,114.013 661.283,111 665,111 C668.717,111 671.731,114.013 671.731,117.731 C671.731,119.516 671.022,121.228 669.759,122.49 C668.497,123.752 666.785,124.462 665,124.462 Z" />
        </g>
    </g>
</svg>