<?xml version="1.0" encoding="UTF-8"?>
<svg height="600" width="800" xmlns="http://www.w3.org/2000/svg" xmlns:xlink="http://www.w3.org/1999/xlink">
    <g id="Notes" font-family="'LucidaGrande', 'Lucida Grande', sans-serif" font-size="13">
        <rect fill="white" height="600.0" width="800.0" x="0.0" y="0.0" />
        <g font-size="13">
            <text x="18.0" y="176.0">Small</text>
            <text x="18.0" y="376.0">Medium</text>
            <text x="18.0" y="576.0">Large</text>
        </g>
        <g font-size="9">
            <text x="250.0" y="30.0">Ultralight</text>
            <text x="450.0" y="30.0">Regular</text>
            <text x="650.0" y="30.0">Black</text>
            <text id="template-version" fill="#505050" text-anchor="end" x="785.0" y="575.0">Template v.3.0</text>
            <a href="https://github.com/swhitty/SwiftDraw">
                <text fill="#505050" text-anchor="end" x="785.0" y="590.0">https://github.com/swhitty/SwiftDraw</text>
            </a>
        </g>
    </g>
    <g id="Guides" stroke="rgb(39, 170, 225)" stroke-width="0.5">
        <path id="Capline-S" d="M18,76 l800,0" />
        <path id="H-reference" d="M85,145.755 L87.685,145.755 L113.369,79.287 L114.052,79.287 L114.052,76 L112.148,76 L85,145.755 Z M95.693,121.536 L130.996,121.536 L130.263,119.313 L96.474,119.313 L95.693,121.536 Z M139.15,145.755 L141.787,145.755 L114.638,76 L113.466,76 L113.466,79.287 L139.15,145.755 Z" stroke="none" />
        <path id="Baseline-S" d="M18,146 l800,0" />
        <path id="left-margin-Ultralight-S" d="M220,56 l0,110" />
        <path id="right-margin-Ultralight-S" d="M310,56 l0,110" />
        <path id="left-margin-Regular-S" d="M420,56 l0,110" />
        <path id="right-margin-Regular-S" d="M510,56 l0,110" />
        <path id="left-margin-Black-S" d="M620,56 l0,110" />
        <path id="right-margin-Black-S" d="M710,56 l0,110" />
        <path id="Capline-M" d="M18,276 l800,0" />
        <path id="Baseline-M" d="M18,346 l800,0" />
        <path id="Capline-L" d="M18,476 l800,0" />
        <path id="Baseline-L" d="M18,546 l800,0" />
    </g>
    <g id="Symbols">
        <g id="Ultralight-S">
            <path d="M300,111 C300,111.714 299.716,112.399 299.211,112.904 C298.707,113.409 298.022,113.692 297.308,113.692 L252.652,113.692 L272.289,133.326 C273.342,134.38 273.341,136.085 272.288,137.137 C271.236,138.188 269.53,138.187 268.479,137.135 L244.248,112.904 C243.742,112.399 243.458,111.714 243.458,110.999 C243.458,110.284 243.742,109.599 244.248,109.094 L268.479,84.863 C269.529,83.812 271.235,83.811 272.287,84.862 C273.34,85.914 273.341,87.619 272.289,88.672 L252.652,108.308 L297.308,108.308 C298.022,108.308 298.707,108.591 299.211,109.096 C299.716,109.601 300,110.286 300,111 Z M235.385,78.692 C234.671,78.692 233.986,78.976 233.481,79.481 C232.976,79.986 232.692,80.671 232.692,81.385 L232.692,140.615 C232.692,142.102 233.898,143.308 235.385,143.308 C236.872,143.308 238.077,142.102 238.077,140.615 L238.077,81.385 C238.077,80.671 237.793,79.986 237.288,79.481 C236.783,78.976 236.099,78.692 235.385,78.692 Z" />
        </g>
        <g id="Regular-S">
            <path d="M500,111 C500,111.714 499.716,112.399 499.211,112.904 C498.707,113.409 498.022,113.692 497.308,113.692 L452.652,113.692 L472.289,133.326 C473.342,134.38 473.341,136.085 472.288,137.137 C471.236,138.188 469.53,138.187 468.479,137.135 L444.248,112.904 C443.742,112.399 443.458,111.714 443.458,110.999 C443.458,110.284 443.742,109.599 444.248,109.094 L468.479,84.863 C469.529,83.812 471.235,83.811 472.287,84.862 C473.34,85.914 473.341,87.619 472.289,88.672 L452.652,108.308 L497.308,108.308 C498.022,108.308 498.707,108.591 499.211,109.096 C499.716,109.601 500,110.286 500,111 Z M435.385,78.692 C434.671,78.692 433.986,78.976 433.481,79.481 C432.976,79.986 432.692,80.671 432.692,81.385 L432.692,140.615 C432.692,142.102 433.898,143.308 435.385,143.308 C436.872,143.308 438.077,142.102 438.077,140.615 L438.077,81.385 C438.077,80.671 437.793,79.986 437.288,79.481 C436.783,78.976 436.099,78.692 435.385,78.692 Z" />
        </g>
        <g id="Black-S">
            <path d="M700,111 C700,111.714 699.716,112.399 699.211,112.904 C698.707,113.409 698.022,113.692 697.308,113.692 L652.652,113.692 L672.289,133.326 C673.342,134.38 673.341,136.085 672.288,137.137 C671.236,138.188 669.53,138.187 668.479,137.135 L644.248,112.904 C643.742,112.399 643.458,111.714 643.458,110.999 C643.458,110.284 643.742,109.599 644.248,109.094 L668.479,84.863 C669.529,83.812 671.235,83.811 672.287,84.862 C673.34,85.914 673.341,87.619 672.289,88.672 L652.652,108.308 L697.308,108.308 C698.022,108.308 698.707,108.591 699.211,109.096 C699.716,109.601 700,110.286 700,111 Z M635.385,78.692 C634.671,78.692 633.986,78.976 633.481,79.481 C632.976,79.986 632.692,80.671 632.692,81.385 L632.692,140.615 C632.692,142.102 633.898,143.308 635.385,143.308 C636.872,143.308 638.077,142.102 638.077,140.615 L638.077,81.385 C638.077,80.671 637.793,79.986 637.288,79.481 C636.783,78.976 636.099,78.692 635.385,78.692 Z" />
        </g>
    </g>
</svg>