<?xml version="1.0" encoding="UTF-8"?>
<svg height="600" width="800" xmlns="http://www.w3.org/2000/svg" xmlns:xlink="http://www.w3.org/1999/xlink">
    <g id="Notes" font-family="'LucidaGrande', 'Lucida Grande', sans-serif" font-size="13">
        <rect fill="white" height="600.0" width="800.0" x="0.0" y="0.0" />
        <g font-size="13">
            <text x="18.0" y="176.0">Small</text>
            <text x="18.0" y="376.0">Medium</text>
            <text x="18.0" y="576.0">Large</text>
        </g>
        <g font-size="9">
            <text x="250.0" y="30.0">Ultralight</text>
            <text x="450.0" y="30.0">Regular</text>
            <text x="650.0" y="30.0">Black</text>
            <text id="template-version" fill="#505050" text-anchor="end" x="785.0" y="575.0">Template v.3.0</text>
            <a href="https://github.com/swhitty/SwiftDraw">
                <text fill="#505050" text-anchor="end" x="785.0" y="590.0">https://github.com/swhitty/SwiftDraw</text>
            </a>
        </g>
    </g>
    <g id="Guides" stroke="rgb(39, 170, 225)" stroke-width="0.5">
        <path id="Capline-S" d="M18,76 l800,0" />
        <path id="H-reference" d="M85,145.755 L87.685,145.755 L113.369,79.287 L114.052,79.287 L114.052,76 L112.148,76 L85,145.755 Z M95.693,121.536 L130.996,121.536 L130.263,119.313 L96.474,119.313 L95.693,121.536 Z M139.15,145.755 L141.787,145.755 L114.638,76 L113.466,76 L113.466,79.287 L139.15,145.755 Z" stroke="none" />
        <path id="Baseline-S" d="M18,146 l800,0" />
        <path id="left-margin-Ultralight-S" d="M220,56 l0,110" />
        <path id="right-margin-Ultralight-S" d="M310,56 l0,110" />
        <path id="left-margin-Regular-S" d="M420,56 l0,110" />
        <path id="right-margin-Regular-S" d="M510,56 l0,110" />
        <path id="left-margin-Black-S" d="M620,56 l0,110" />
        <path id="right-margin-Black-S" d="M710,56 l0,110" />
        <path id="Capline-M" d="M18,276 l800,0" />
        <path id="Baseline-M" d="M18,346 l800,0" />
        <path id="Capline-L" d="M18,476 l800,0" />
        <path id="Baseline-L" d="M18,546 l800,0" />
    </g>
    <g id="Symbols">
        <g id="Ultralight-S">
            <path d="M297.308,121.769 C297.308,122.483 297.024,123.168 296.519,123.673 C296.014,124.178 295.329,124.462 294.615,124.462 L256.401,124.462 L240.069,142.426 C239.065,143.505 237.379,143.575 236.288,142.584 C235.197,141.592 235.106,139.908 236.085,138.805 L249.122,124.462 L235.385,124.462 C233.898,124.462 232.692,123.256 232.692,121.769 C232.692,120.282 233.898,119.077 235.385,119.077 L254.019,119.077 L268.702,102.923 L235.385,102.923 C233.898,102.923 232.692,101.718 232.692,100.231 C232.692,98.744 233.898,97.538 235.385,97.538 L273.599,97.538 L289.931,79.574 C290.935,78.495 292.621,78.425 293.712,79.416 C294.803,80.408 294.894,82.092 293.915,83.195 L280.878,97.538 L294.615,97.538 C296.102,97.538 297.308,98.744 297.308,100.231 C297.308,101.718 296.102,102.923 294.615,102.923 L275.981,102.923 L261.298,119.077 L294.615,119.077 C295.329,119.077 296.014,119.361 296.519,119.865 C297.024,120.37 297.308,121.055 297.308,121.769 Z" />
        </g>
        <g id="Regular-S">
            <path d="M497.308,121.769 C497.308,122.483 497.024,123.168 496.519,123.673 C496.014,124.178 495.329,124.462 494.615,124.462 L456.401,124.462 L440.069,142.426 C439.065,143.505 437.379,143.575 436.288,142.584 C435.197,141.592 435.106,139.908 436.085,138.805 L449.122,124.462 L435.385,124.462 C433.898,124.462 432.692,123.256 432.692,121.769 C432.692,120.282 433.898,119.077 435.385,119.077 L454.019,119.077 L468.702,102.923 L435.385,102.923 C433.898,102.923 432.692,101.718 432.692,100.231 C432.692,98.744 433.898,97.538 435.385,97.538 L473.599,97.538 L489.931,79.574 C490.935,78.495 492.621,78.425 493.712,79.416 C494.803,80.408 494.894,82.092 493.915,83.195 L480.878,97.538 L494.615,97.538 C496.102,97.538 497.308,98.744 497.308,100.231 C497.308,101.718 496.102,102.923 494.615,102.923 L475.981,102.923 L461.298,119.077 L494.615,119.077 C495.329,119.077 496.014,119.361 496.519,119.865 C497.024,120.37 497.308,121.055 497.308,121.769 Z" />
        </g>
        <g id="Black-S">
            <path d="M697.308,121.769 C697.308,122.483 697.024,123.168 696.519,123.673 C696.014,124.178 695.329,124.462 694.615,124.462 L656.401,124.462 L640.069,142.426 C639.065,143.505 637.379,143.575 636.288,142.584 C635.197,141.592 635.106,139.908 636.085,138.805 L649.122,124.462 L635.385,124.462 C633.898,124.462 632.692,123.256 632.692,121.769 C632.692,120.282 633.898,119.077 635.385,119.077 L654.019,119.077 L668.702,102.923 L635.385,102.923 C633.898,102.923 632.692,101.718 632.692,100.231 C632.692,98.744 633.898,97.538 635.385,97.538 L673.599,97.538 L689.931,79.574 C690.935,78.495 692.621,78.425 693.712,79.416 C694.803,80.408 694.894,82.092 693.915,83.195 L680.878,97.538 L694.615,97.538 C696.102,97.538 697.308,98.744 697.308,100.231 C697.308,101.718 696.102,102.923 694.615,102.923 L675.981,102.923 L661.298,119.077 L694.615,119.077 C695.329,119.077 696.014,119.361 696.519,119.865 C697.024,120.37 697.308,121.055 697.308,121.769 Z" />
        </g>
    </g>
</svg>