<?xml version="1.0" encoding="UTF-8"?>
<svg height="600" width="800" xmlns="http://www.w3.org/2000/svg" xmlns:xlink="http://www.w3.org/1999/xlink">
    <g id="Notes" font-family="'LucidaGrande', 'Lucida Grande', sans-serif" font-size="13">
        <rect fill="white" height="600.0" width="800.0" x="0.0" y="0.0" />
        <g font-size="13">
            <text x="18.0" y="176.0">Small</text>
            <text x="18.0" y="376.0">Medium</text>
            <text x="18.0" y="576.0">Large</text>
        </g>
        <g font-size="9">
            <text x="250.0" y="30.0">Ultralight</text>
            <text x="450.0" y="30.0">Regular</text>
            <text x="650.0" y="30.0">Black</text>
            <text id="template-version" fill="#505050" text-anchor="end" x="785.0" y="575.0">Template v.3.0</text>
            <a href="https://github.com/swhitty/SwiftDraw">
                <text fill="#505050" text-anchor="end" x="785.0" y="590.0">https://github.com/swhitty/SwiftDraw</text>
            </a>
        </g>
    </g>
    <g id="Guides" stroke="rgb(39, 170, 225)" stroke-width="0.5">
        <path id="Capline-S" d="M18,76 l800,0" />
        <path id="H-reference" d="M85,145.755 L87.685,145.755 L113.369,79.287 L114.052,79.287 L114.052,76 L112.148,76 L85,145.755 Z M95.693,121.536 L130.996,121.536 L130.263,119.313 L96.474,119.313 L95.693,121.536 Z M139.15,145.755 L141.787,145.755 L114.638,76 L113.466,76 L113.466,79.287 L139.15,145.755 Z" stroke="none" />
        <path id="Baseline-S" d="M18,146 l800,0" />
        <path id="left-margin-Ultralight-S" d="M220,56 l0,110" />
        <path id="right-margin-Ultralight-S" d="M310,56 l0,110" />
        <path id="left-margin-Regular-S" d="M420,56 l0,110" />
        <path id="right-margin-Regular-S" d="M510,56 l0,110" />
        <path id="left-margin-Black-S" d="M620,56 l0,110" />
        <path id="right-margin-Black-S" d="M710,56 l0,110" />
        <path id="Capline-M" d="M18,276 l800,0" />
        <path id="Baseline-M" d="M18,346 l800,0" />
        <path id="Capline-L" d="M18,476 l800,0" />
        <path id="Baseline-L" d="M18,546 l800,0" />
    </g>
    <g id="Symbols">
        <g id="Ultralight-S">
            <path d="M283.846,92.154 L265,92.154 L265,78.692 C265.001,77.603 264.345,76.62 263.338,76.203 C262.332,75.786 261.173,76.017 260.403,76.787 L228.095,109.095 C227.59,109.6 227.306,110.285 227.306,111 C227.306,111.714 227.59,112.4 228.095,112.905 L260.403,145.212 C261.173,145.983 262.332,146.214 263.338,145.797 C264.345,145.38 265.001,144.397 265,143.308 L265,129.846 L283.846,129.846 C284.56,129.846 285.245,129.562 285.75,129.058 C286.255,128.553 286.538,127.868 286.538,127.154 L286.538,94.846 C286.538,94.132 286.255,93.447 285.75,92.942 C285.245,92.438 284.56,92.154 283.846,92.154 Z M281.154,124.462 L262.308,124.462 C261.594,124.462 260.909,124.745 260.404,125.25 C259.899,125.755 259.615,126.44 259.615,127.154 L259.615,136.809 L233.806,111 L259.615,85.191 L259.615,94.846 C259.615,95.56 259.899,96.245 260.404,96.75 C260.909,97.255 261.594,97.538 262.308,97.538 L281.154,97.538 Z M297.308,94.846 L297.308,127.154 C297.308,128.641 296.102,129.846 294.615,129.846 C293.128,129.846 291.923,128.641 291.923,127.154 L291.923,94.846 C291.923,93.359 293.128,92.154 294.615,92.154 C296.102,92.154 297.308,93.359 297.308,94.846 Z" />
        </g>
        <g id="Regular-S">
            <path d="M483.846,92.154 L465,92.154 L465,78.692 C465.001,77.603 464.345,76.62 463.338,76.203 C462.332,75.786 461.173,76.017 460.403,76.787 L428.095,109.095 C427.59,109.6 427.306,110.285 427.306,111 C427.306,111.714 427.59,112.4 428.095,112.905 L460.403,145.212 C461.173,145.983 462.332,146.214 463.338,145.797 C464.345,145.38 465.001,144.397 465,143.308 L465,129.846 L483.846,129.846 C484.56,129.846 485.245,129.562 485.75,129.058 C486.255,128.553 486.538,127.868 486.538,127.154 L486.538,94.846 C486.538,94.132 486.255,93.447 485.75,92.942 C485.245,92.438 484.56,92.154 483.846,92.154 Z M481.154,124.462 L462.308,124.462 C461.594,124.462 460.909,124.745 460.404,125.25 C459.899,125.755 459.615,126.44 459.615,127.154 L459.615,136.809 L433.806,111 L459.615,85.191 L459.615,94.846 C459.615,95.56 459.899,96.245 460.404,96.75 C460.909,97.255 461.594,97.538 462.308,97.538 L481.154,97.538 Z M497.308,94.846 L497.308,127.154 C497.308,128.641 496.102,129.846 494.615,129.846 C493.128,129.846 491.923,128.641 491.923,127.154 L491.923,94.846 C491.923,93.359 493.128,92.154 494.615,92.154 C496.102,92.154 497.308,93.359 497.308,94.846 Z" />
        </g>
        <g id="Black-S">
            <path d="M683.846,92.154 L665,92.154 L665,78.692 C665.001,77.603 664.345,76.62 663.338,76.203 C662.332,75.786 661.173,76.017 660.403,76.787 L628.095,109.095 C627.59,109.6 627.306,110.285 627.306,111 C627.306,111.714 627.59,112.4 628.095,112.905 L660.403,145.212 C661.173,145.983 662.332,146.214 663.338,145.797 C664.345,145.38 665.001,144.397 665,143.308 L665,129.846 L683.846,129.846 C684.56,129.846 685.245,129.562 685.75,129.058 C686.255,128.553 686.538,127.868 686.538,127.154 L686.538,94.846 C686.538,94.132 686.255,93.447 685.75,92.942 C685.245,92.438 684.56,92.154 683.846,92.154 Z M681.154,124.462 L662.308,124.462 C661.594,124.462 660.909,124.745 660.404,125.25 C659.899,125.755 659.615,126.44 659.615,127.154 L659.615,136.809 L633.806,111 L659.615,85.191 L659.615,94.846 C659.615,95.56 659.899,96.245 660.404,96.75 C660.909,97.255 661.594,97.538 662.308,97.538 L681.154,97.538 Z M697.308,94.846 L697.308,127.154 C697.308,128.641 696.102,129.846 694.615,129.846 C693.128,129.846 691.923,128.641 691.923,127.154 L691.923,94.846 C691.923,93.359 693.128,92.154 694.615,92.154 C696.102,92.154 697.308,93.359 697.308,94.846 Z" />
        </g>
    </g>
</svg>