<?xml version="1.0" encoding="UTF-8"?>
<svg height="600" width="800" xmlns="http://www.w3.org/2000/svg" xmlns:xlink="http://www.w3.org/1999/xlink">
    <g id="Notes" font-family="'LucidaGrande', 'Lucida Grande', sans-serif" font-size="13">
        <rect fill="white" height="600.0" width="800.0" x="0.0" y="0.0" />
        <g font-size="13">
            <text x="18.0" y="176.0">Small</text>
            <text x="18.0" y="376.0">Medium</text>
            <text x="18.0" y="576.0">Large</text>
        </g>
        <g font-size="9">
            <text x="250.0" y="30.0">Ultralight</text>
            <text x="450.0" y="30.0">Regular</text>
            <text x="650.0" y="30.0">Black</text>
            <text id="template-version" fill="#505050" text-anchor="end" x="785.0" y="575.0">Template v.3.0</text>
            <a href="https://github.com/swhitty/SwiftDraw">
                <text fill="#505050" text-anchor="end" x="785.0" y="590.0">https://github.com/swhitty/SwiftDraw</text>
            </a>
        </g>
    </g>
    <g id="Guides" stroke="rgb(39, 170, 225)" stroke-width="0.5">
        <path id="Capline-S" d="M18,76 l800,0" />
        <path id="H-reference" d="M85,145.755 L87.685,145.755 L113.369,79.287 L114.052,79.287 L114.052,76 L112.148,76 L85,145.755 Z M95.693,121.536 L130.996,121.536 L130.263,119.313 L96.474,119.313 L95.693,121.536 Z M139.15,145.755 L141.787,145.755 L114.638,76 L113.466,76 L113.466,79.287 L139.15,145.755 Z" stroke="none" />
        <path id="Baseline-S" d="M18,146 l800,0" />
        <path id="left-margin-Ultralight-S" d="M220,56 l0,110" />
        <path id="right-margin-Ultralight-S" d="M310,56 l0,110" />
        <path id="left-margin-Regular-S" d="M420,56 l0,110" />
        <path id="right-margin-Regular-S" d="M510,56 l0,110" />
        <path id="left-margin-Black-S" d="M620,56 l0,110" />
        <path id="right-margin-Black-S" d="M710,56 l0,110" />
        <path id="Capline-M" d="M18,276 l800,0" />
        <path id="Baseline-M" d="M18,346 l800,0" />
        <path id="Capline-L" d="M18,476 l800,0" />
        <path id="Baseline-L" d="M18,546 l800,0" />
    </g>
    <g id="Symbols">
        <g id="Ultralight-S">
            <path d="M291.923,113.692 L265,113.692 C264.286,113.692 263.601,113.976 263.096,114.481 C262.591,114.986 262.308,115.671 262.308,116.385 L262.308,135.719 C262.306,137.021 263.237,138.138 264.519,138.371 L291.442,143.264 C291.601,143.294 291.762,143.308 291.923,143.308 C292.637,143.308 293.322,143.024 293.827,142.519 C294.332,142.014 294.615,141.329 294.615,140.615 L294.615,116.385 C294.615,115.671 294.332,114.986 293.827,114.481 C293.322,113.976 292.637,113.692 291.923,113.692 Z M289.231,137.388 L267.692,133.474 L267.692,119.077 L289.231,119.077 Z M254.231,113.692 L232.692,113.692 C231.978,113.692 231.293,113.976 230.789,114.481 C230.284,114.986 230,115.671 230,116.385 L230,129.846 C230,131.147 230.931,132.262 232.211,132.495 L253.749,136.412 C253.908,136.44 254.069,136.455 254.23,136.456 C254.944,136.456 255.629,136.172 256.134,135.667 C256.639,135.162 256.923,134.477 256.923,133.763 L256.923,116.385 C256.923,114.898 255.718,113.693 254.231,113.692 Z M251.538,130.536 L235.385,127.598 L235.385,119.077 L251.538,119.077 Z M293.65,79.318 C293.036,78.806 292.228,78.593 291.442,78.736 L264.519,83.633 C263.239,83.865 262.308,84.98 262.308,86.281 L262.308,105.615 C262.308,106.329 262.591,107.014 263.096,107.519 C263.601,108.024 264.286,108.308 265,108.308 L291.923,108.308 C292.637,108.308 293.322,108.024 293.827,107.519 C294.332,107.014 294.615,106.329 294.615,105.615 L294.615,81.385 C294.615,80.586 294.262,79.83 293.649,79.318 Z M289.231,102.923 L267.692,102.923 L267.692,88.526 L289.231,84.612 Z M255.957,86.17 C255.344,85.658 254.535,85.445 253.75,85.588 L232.211,89.505 C230.931,89.738 230,90.853 230,92.154 L230,105.615 C230,106.329 230.284,107.014 230.789,107.519 C231.293,108.024 231.978,108.308 232.692,108.308 L254.231,108.308 C254.945,108.308 255.63,108.024 256.135,107.519 C256.639,107.014 256.923,106.329 256.923,105.615 L256.923,88.237 C256.923,87.438 256.569,86.681 255.957,86.17 Z M251.538,102.923 L235.385,102.923 L235.385,94.402 L251.538,91.481 Z" />
        </g>
        <g id="Regular-S">
            <path d="M491.923,113.692 L465,113.692 C464.286,113.692 463.601,113.976 463.096,114.481 C462.591,114.986 462.308,115.671 462.308,116.385 L462.308,135.719 C462.306,137.021 463.237,138.138 464.519,138.371 L491.442,143.264 C491.601,143.294 491.762,143.308 491.923,143.308 C492.637,143.308 493.322,143.024 493.827,142.519 C494.332,142.014 494.615,141.329 494.615,140.615 L494.615,116.385 C494.615,115.671 494.332,114.986 493.827,114.481 C493.322,113.976 492.637,113.692 491.923,113.692 Z M489.231,137.388 L467.692,133.474 L467.692,119.077 L489.231,119.077 Z M454.231,113.692 L432.692,113.692 C431.978,113.692 431.293,113.976 430.789,114.481 C430.284,114.986 430,115.671 430,116.385 L430,129.846 C430,131.147 430.931,132.262 432.211,132.495 L453.749,136.412 C453.908,136.44 454.069,136.455 454.23,136.456 C454.944,136.456 455.629,136.172 456.134,135.667 C456.639,135.162 456.923,134.477 456.923,133.763 L456.923,116.385 C456.923,114.898 455.718,113.693 454.231,113.692 Z M451.538,130.536 L435.385,127.598 L435.385,119.077 L451.538,119.077 Z M493.65,79.318 C493.036,78.806 492.228,78.593 491.442,78.736 L464.519,83.633 C463.239,83.865 462.308,84.98 462.308,86.281 L462.308,105.615 C462.308,106.329 462.591,107.014 463.096,107.519 C463.601,108.024 464.286,108.308 465,108.308 L491.923,108.308 C492.637,108.308 493.322,108.024 493.827,107.519 C494.332,107.014 494.615,106.329 494.615,105.615 L494.615,81.385 C494.615,80.586 494.261,79.83 493.649,79.318 Z M489.231,102.923 L467.692,102.923 L467.692,88.526 L489.231,84.612 Z M455.957,86.17 C455.344,85.658 454.535,85.445 453.75,85.588 L432.211,89.505 C430.931,89.738 430,90.853 430,92.154 L430,105.615 C430,106.329 430.284,107.014 430.789,107.519 C431.293,108.024 431.978,108.308 432.692,108.308 L454.231,108.308 C454.945,108.308 455.63,108.024 456.135,107.519 C456.639,107.014 456.923,106.329 456.923,105.615 L456.923,88.237 C456.923,87.438 456.569,86.681 455.957,86.17 Z M451.538,102.923 L435.385,102.923 L435.385,94.402 L451.538,91.481 Z" />
        </g>
        <g id="Black-S">
            <path d="M691.923,113.692 L665,113.692 C664.286,113.692 663.601,113.976 663.096,114.481 C662.591,114.986 662.308,115.671 662.308,116.385 L662.308,135.719 C662.306,137.021 663.237,138.138 664.519,138.371 L691.442,143.264 C691.601,143.294 691.762,143.308 691.923,143.308 C692.637,143.308 693.322,143.024 693.827,142.519 C694.332,142.014 694.615,141.329 694.615,140.615 L694.615,116.385 C694.615,115.671 694.332,114.986 693.827,114.481 C693.322,113.976 692.637,113.692 691.923,113.692 Z M689.231,137.388 L667.692,133.474 L667.692,119.077 L689.231,119.077 Z M654.231,113.692 L632.692,113.692 C631.978,113.692 631.293,113.976 630.789,114.481 C630.284,114.986 630,115.671 630,116.385 L630,129.846 C630,131.147 630.931,132.262 632.211,132.495 L653.749,136.412 C653.908,136.44 654.069,136.455 654.23,136.456 C654.944,136.456 655.629,136.172 656.134,135.667 C656.639,135.162 656.923,134.477 656.923,133.763 L656.923,116.385 C656.923,114.898 655.718,113.693 654.231,113.692 Z M651.538,130.536 L635.385,127.598 L635.385,119.077 L651.538,119.077 Z M693.65,79.318 C693.036,78.806 692.228,78.593 691.442,78.736 L664.519,83.633 C663.239,83.865 662.308,84.98 662.308,86.281 L662.308,105.615 C662.308,106.329 662.591,107.014 663.096,107.519 C663.601,108.024 664.286,108.308 665,108.308 L691.923,108.308 C692.637,108.308 693.322,108.024 693.827,107.519 C694.332,107.014 694.615,106.329 694.615,105.615 L694.615,81.385 C694.615,80.586 694.262,79.83 693.649,79.318 Z M689.231,102.923 L667.692,102.923 L667.692,88.526 L689.231,84.612 Z M655.957,86.17 C655.344,85.658 654.535,85.445 653.75,85.588 L632.211,89.505 C630.931,89.738 630,90.853 630,92.154 L630,105.615 C630,106.329 630.284,107.014 630.789,107.519 C631.293,108.024 631.978,108.308 632.692,108.308 L654.231,108.308 C654.945,108.308 655.63,108.024 656.135,107.519 C656.639,107.014 656.923,106.329 656.923,105.615 L656.923,88.237 C656.923,87.438 656.569,86.681 655.957,86.17 Z M651.538,102.923 L635.385,102.923 L635.385,94.402 L651.538,91.481 Z" />
        </g>
    </g>
</svg>