<?xml version="1.0" encoding="UTF-8"?>
<svg height="600" width="800" xmlns="http://www.w3.org/2000/svg" xmlns:xlink="http://www.w3.org/1999/xlink">
    <g id="Notes" font-family="'LucidaGrande', 'Lucida Grande', sans-serif" font-size="13">
        <rect fill="white" height="600.0" width="800.0" x="0.0" y="0.0" />
        <g font-size="13">
            <text x="18.0" y="176.0">Small</text>
            <text x="18.0" y="376.0">Medium</text>
            <text x="18.0" y="576.0">Large</text>
        </g>
        <g font-size="9">
            <text x="250.0" y="30.0">Ultralight</text>
            <text x="450.0" y="30.0">Regular</text>
            <text x="650.0" y="30.0">Black</text>
            <text id="template-version" fill="#505050" text-anchor="end" x="785.0" y="575.0">Template v.3.0</text>
            <a href="https://github.com/swhitty/SwiftDraw">
                <text fill="#505050" text-anchor="end" x="785.0" y="590.0">https://github.com/swhitty/SwiftDraw</text>
            </a>
        </g>
    </g>
    <g id="Guides" stroke="rgb(39, 170, 225)" stroke-width="0.5">
        <path id="Capline-S" d="M18,76 l800,0" />
        <path id="H-reference" d="M85,145.755 L87.685,145.755 L113.369,79.287 L114.052,79.287 L114.052,76 L112.148,76 L85,145.755 Z M95.693,121.536 L130.996,121.536 L130.263,119.313 L96.474,119.313 L95.693,121.536 Z M139.15,145.755 L141.787,145.755 L114.638,76 L113.466,76 L113.466,79.287 L139.15,145.755 Z" stroke="none" />
        <path id="Baseline-S" d="M18,146 l800,0" />
        <path id="left-margin-Ultralight-S" d="M220,56 l0,110" />
        <path id="right-margin-Ultralight-S" d="M310,56 l0,110" />
        <path id="left-margin-Regular-S" d="M420,56 l0,110" />
        <path id="right-margin-Regular-S" d="M510,56 l0,110" />
        <path id="left-margin-Black-S" d="M620,56 l0,110" />
        <path id="right-margin-Black-S" d="M710,56 l0,110" />
        <path id="Capline-M" d="M18,276 l800,0" />
        <path id="Baseline-M" d="M18,346 l800,0" />
        <path id="Capline-L" d="M18,476 l800,0" />
        <path id="Baseline-L" d="M18,546 l800,0" />
    </g>
    <g id="Symbols">
        <g id="Ultralight-S">
            <path d="M305.385,111 C305.402,117.411 303.322,123.652 299.462,128.772 C298.571,129.96 296.882,130.202 295.691,129.309 C294.501,128.416 294.26,126.727 295.153,125.537 C298.313,121.351 300.015,116.245 300,111 C300,97.618 289.152,86.769 275.769,86.769 C262.387,86.769 251.538,97.618 251.538,111 C251.538,112.487 250.333,113.692 248.846,113.692 C247.359,113.692 246.154,112.487 246.154,111 C246.154,108.269 246.528,105.565 247.265,102.95 C246.894,102.923 246.524,102.923 246.154,102.923 C237.232,102.923 230,110.155 230,119.077 C230,127.998 237.232,135.231 246.154,135.231 L254.231,135.231 C255.718,135.231 256.923,136.436 256.923,137.923 C256.923,139.41 255.718,140.615 254.231,140.615 L246.154,140.615 C238.083,140.617 230.688,136.107 226.996,128.93 C223.304,121.752 223.934,113.114 228.629,106.548 C233.324,99.983 241.295,96.594 249.28,97.767 C255.422,85.484 269.202,79.034 282.568,82.187 C295.934,85.339 305.379,97.267 305.385,111 Z M281.941,125.249 L275.769,131.425 L275.769,111 C275.769,109.513 274.564,108.308 273.077,108.308 C271.59,108.308 270.385,109.513 270.385,111 L270.385,131.425 L264.212,125.249 C263.162,124.198 261.457,124.197 260.404,125.248 C259.351,126.299 259.35,128.005 260.402,129.058 L271.171,139.827 C271.676,140.332 272.361,140.616 273.076,140.616 C273.79,140.616 274.476,140.332 274.981,139.827 L285.75,129.058 C286.802,128.004 286.801,126.298 285.749,125.247 C284.696,124.196 282.991,124.196 281.939,125.249 Z" />
        </g>
        <g id="Regular-S">
            <path d="M505.385,111 C505.402,117.411 503.322,123.652 499.462,128.772 C498.571,129.96 496.882,130.202 495.691,129.309 C494.501,128.416 494.26,126.727 495.153,125.537 C498.313,121.351 500.015,116.245 500,111 C500,97.618 489.151,86.769 475.769,86.769 C462.387,86.769 451.538,97.618 451.538,111 C451.538,112.487 450.333,113.692 448.846,113.692 C447.359,113.692 446.154,112.487 446.154,111 C446.154,108.269 446.528,105.565 447.265,102.95 C446.894,102.923 446.524,102.923 446.154,102.923 C437.232,102.923 430,110.155 430,119.077 C430,127.998 437.232,135.231 446.154,135.231 L454.231,135.231 C455.718,135.231 456.923,136.436 456.923,137.923 C456.923,139.41 455.718,140.615 454.231,140.615 L446.154,140.615 C438.083,140.617 430.688,136.107 426.996,128.93 C423.304,121.752 423.934,113.114 428.629,106.548 C433.324,99.983 441.295,96.594 449.28,97.767 C455.422,85.484 469.202,79.034 482.568,82.187 C495.934,85.339 505.379,97.267 505.385,111 Z M481.941,125.249 L475.769,131.425 L475.769,111 C475.769,109.513 474.564,108.308 473.077,108.308 C471.59,108.308 470.385,109.513 470.385,111 L470.385,131.425 L464.212,125.249 C463.162,124.198 461.457,124.197 460.404,125.248 C459.351,126.299 459.35,128.005 460.402,129.058 L471.171,139.827 C471.676,140.332 472.361,140.616 473.076,140.616 C473.79,140.616 474.476,140.332 474.981,139.827 L485.75,129.058 C486.802,128.004 486.801,126.298 485.749,125.247 C484.696,124.196 482.991,124.196 481.939,125.249 Z" />
        </g>
        <g id="Black-S">
            <path d="M705.385,111 C705.402,117.411 703.322,123.652 699.462,128.772 C698.571,129.96 696.882,130.202 695.691,129.309 C694.501,128.416 694.26,126.727 695.153,125.537 C698.313,121.351 700.016,116.245 700,111 C700,97.618 689.152,86.769 675.769,86.769 C662.387,86.769 651.538,97.618 651.538,111 C651.538,112.487 650.333,113.692 648.846,113.692 C647.359,113.692 646.154,112.487 646.154,111 C646.154,108.269 646.528,105.565 647.265,102.95 C646.894,102.923 646.524,102.923 646.154,102.923 C637.232,102.923 630,110.155 630,119.077 C630,127.998 637.232,135.231 646.154,135.231 L654.231,135.231 C655.718,135.231 656.923,136.436 656.923,137.923 C656.923,139.41 655.718,140.615 654.231,140.615 L646.154,140.615 C638.083,140.617 630.688,136.107 626.996,128.93 C623.304,121.752 623.934,113.114 628.629,106.548 C633.324,99.983 641.295,96.594 649.28,97.767 C655.422,85.484 669.202,79.034 682.568,82.187 C695.934,85.339 705.379,97.267 705.385,111 Z M681.941,125.249 L675.769,131.425 L675.769,111 C675.769,109.513 674.564,108.308 673.077,108.308 C671.59,108.308 670.385,109.513 670.385,111 L670.385,131.425 L664.213,125.249 C663.162,124.198 661.457,124.197 660.404,125.248 C659.351,126.299 659.35,128.005 660.402,129.058 L671.171,139.827 C671.676,140.332 672.361,140.616 673.076,140.616 C673.79,140.616 674.476,140.332 674.981,139.827 L685.75,129.058 C686.802,128.004 686.801,126.298 685.749,125.247 C684.696,124.196 682.991,124.196 681.939,125.249 Z" />
        </g>
    </g>
</svg>