<?xml version="1.0" encoding="UTF-8"?>
<svg height="600" width="800" xmlns="http://www.w3.org/2000/svg" xmlns:xlink="http://www.w3.org/1999/xlink">
    <g id="Notes" font-family="'LucidaGrande', 'Lucida Grande', sans-serif" font-size="13">
        <rect fill="white" height="600.0" width="800.0" x="0.0" y="0.0" />
        <g font-size="13">
            <text x="18.0" y="176.0">Small</text>
            <text x="18.0" y="376.0">Medium</text>
            <text x="18.0" y="576.0">Large</text>
        </g>
        <g font-size="9">
            <text x="250.0" y="30.0">Ultralight</text>
            <text x="450.0" y="30.0">Regular</text>
            <text x="650.0" y="30.0">Black</text>
            <text id="template-version" fill="#505050" text-anchor="end" x="785.0" y="575.0">Template v.3.0</text>
            <a href="https://github.com/swhitty/SwiftDraw">
                <text fill="#505050" text-anchor="end" x="785.0" y="590.0">https://github.com/swhitty/SwiftDraw</text>
            </a>
        </g>
    </g>
    <g id="Guides" stroke="rgb(39, 170, 225)" stroke-width="0.5">
        <path id="Capline-S" d="M18,76 l800,0" />
        <path id="H-reference" d="M85,145.755 L87.685,145.755 L113.369,79.287 L114.052,79.287 L114.052,76 L112.148,76 L85,145.755 Z M95.693,121.536 L130.996,121.536 L130.263,119.313 L96.474,119.313 L95.693,121.536 Z M139.15,145.755 L141.787,145.755 L114.638,76 L113.466,76 L113.466,79.287 L139.15,145.755 Z" stroke="none" />
        <path id="Baseline-S" d="M18,146 l800,0" />
        <path id="left-margin-Ultralight-S" d="M220,56 l0,110" />
        <path id="right-margin-Ultralight-S" d="M310,56 l0,110" />
        <path id="left-margin-Regular-S" d="M420,56 l0,110" />
        <path id="right-margin-Regular-S" d="M510,56 l0,110" />
        <path id="left-margin-Black-S" d="M620,56 l0,110" />
        <path id="right-margin-Black-S" d="M710,56 l0,110" />
        <path id="Capline-M" d="M18,276 l800,0" />
        <path id="Baseline-M" d="M18,346 l800,0" />
        <path id="Capline-L" d="M18,476 l800,0" />
        <path id="Baseline-L" d="M18,546 l800,0" />
    </g>
    <g id="Symbols">
        <g id="Ultralight-S">
            <path d="M298.802,97.989 L266.494,76.451 C265.59,75.847 264.41,75.847 263.506,76.451 L231.198,97.989 C230.449,98.489 229.999,99.33 230,100.231 L230,135.231 C230,136.659 230.567,138.028 231.577,139.038 C232.587,140.048 233.957,140.615 235.385,140.615 L294.615,140.615 C296.043,140.615 297.413,140.048 298.423,139.038 C299.433,138.028 300,136.659 300,135.231 L300,100.231 C300.001,99.33 299.551,98.489 298.802,97.989 Z M254.473,119.077 L235.385,132.538 L235.385,105.457 Z M259.982,121.769 L270.018,121.769 L289.076,135.231 L240.924,135.231 Z M275.527,119.077 L294.615,105.457 L294.615,132.538 Z M265,81.926 L292.566,100.305 L270.018,116.385 L259.989,116.385 L237.441,100.305 Z" />
        </g>
        <g id="Regular-S">
            <path d="M498.802,97.989 L466.494,76.451 C465.59,75.847 464.41,75.847 463.506,76.451 L431.198,97.989 C430.449,98.489 429.999,99.33 430,100.231 L430,135.231 C430,136.659 430.567,138.028 431.577,139.038 C432.587,140.048 433.957,140.615 435.385,140.615 L494.615,140.615 C496.043,140.615 497.413,140.048 498.423,139.038 C499.433,138.028 500,136.659 500,135.231 L500,100.231 C500.001,99.33 499.551,98.489 498.802,97.989 Z M454.473,119.077 L435.385,132.538 L435.385,105.457 Z M459.982,121.769 L470.018,121.769 L489.076,135.231 L440.924,135.231 Z M475.527,119.077 L494.615,105.457 L494.615,132.538 Z M465,81.926 L492.566,100.305 L470.018,116.385 L459.989,116.385 L437.441,100.305 Z" />
        </g>
        <g id="Black-S">
            <path d="M698.802,97.989 L666.494,76.451 C665.59,75.847 664.411,75.847 663.506,76.451 L631.198,97.989 C630.449,98.489 629.999,99.33 630,100.231 L630,135.231 C630,136.659 630.567,138.028 631.577,139.038 C632.587,140.048 633.957,140.615 635.385,140.615 L694.615,140.615 C696.044,140.615 697.413,140.048 698.423,139.038 C699.433,138.028 700,136.659 700,135.231 L700,100.231 C700.001,99.33 699.551,98.489 698.802,97.989 Z M654.473,119.077 L635.385,132.538 L635.385,105.457 Z M659.982,121.769 L670.018,121.769 L689.076,135.231 L640.924,135.231 Z M675.527,119.077 L694.615,105.457 L694.615,132.538 Z M665,81.926 L692.566,100.305 L670.018,116.385 L659.989,116.385 L637.441,100.305 Z" />
        </g>
    </g>
</svg>