<?xml version="1.0" encoding="UTF-8"?>
<svg height="600" width="800" xmlns="http://www.w3.org/2000/svg" xmlns:xlink="http://www.w3.org/1999/xlink">
    <g id="Notes" font-family="'LucidaGrande', 'Lucida Grande', sans-serif" font-size="13">
        <rect fill="white" height="600.0" width="800.0" x="0.0" y="0.0" />
        <g font-size="13">
            <text x="18.0" y="176.0">Small</text>
            <text x="18.0" y="376.0">Medium</text>
            <text x="18.0" y="576.0">Large</text>
        </g>
        <g font-size="9">
            <text x="250.0" y="30.0">Ultralight</text>
            <text x="450.0" y="30.0">Regular</text>
            <text x="650.0" y="30.0">Black</text>
            <text id="template-version" fill="#505050" text-anchor="end" x="785.0" y="575.0">Template v.3.0</text>
            <a href="https://github.com/swhitty/SwiftDraw">
                <text fill="#505050" text-anchor="end" x="785.0" y="590.0">https://github.com/swhitty/SwiftDraw</text>
            </a>
        </g>
    </g>
    <g id="Guides" stroke="rgb(39, 170, 225)" stroke-width="0.5">
        <path id="Capline-S" d="M18,76 l800,0" />
        <path id="H-reference" d="M85,145.755 L87.685,145.755 L113.369,79.287 L114.052,79.287 L114.052,76 L112.148,76 L85,145.755 Z M95.693,121.536 L130.996,121.536 L130.263,119.313 L96.474,119.313 L95.693,121.536 Z M139.15,145.755 L141.787,145.755 L114.638,76 L113.466,76 L113.466,79.287 L139.15,145.755 Z" stroke="none" />
        <path id="Baseline-S" d="M18,146 l800,0" />
        <path id="left-margin-Ultralight-S" d="M220,56 l0,110" />
        <path id="right-margin-Ultralight-S" d="M310,56 l0,110" />
        <path id="left-margin-Regular-S" d="M420,56 l0,110" />
        <path id="right-margin-Regular-S" d="M510,56 l0,110" />
        <path id="left-margin-Black-S" d="M620,56 l0,110" />
        <path id="right-margin-Black-S" d="M710,56 l0,110" />
        <path id="Capline-M" d="M18,276 l800,0" />
        <path id="Baseline-M" d="M18,346 l800,0" />
        <path id="Capline-L" d="M18,476 l800,0" />
        <path id="Baseline-L" d="M18,546 l800,0" />
    </g>
    <g id="Symbols">
        <g id="Ultralight-S">
            <path d="M302.692,118.172 C302.692,123.593 301.625,128.231 299.606,131.579 C297.106,135.729 293.212,137.923 288.369,137.923 C278.966,137.923 272.289,125.471 265.222,112.272 C259.494,101.577 253.002,89.462 246.827,89.462 C243.67,89.462 240.116,92.827 237.32,98.437 C234.345,104.595 232.765,111.333 232.692,118.172 C232.692,122.614 233.493,126.289 235.008,128.8 C236.522,131.31 238.689,132.538 241.631,132.538 C246.719,132.538 252.013,124.28 256.516,116.2 C257.233,114.903 258.874,114.431 260.177,115.152 C261.48,115.873 261.952,117.514 261.231,118.818 C256.068,128.066 249.879,137.923 241.631,137.923 C236.781,137.923 232.881,135.729 230.394,131.579 C228.375,128.214 227.308,123.593 227.308,118.172 C227.387,110.502 229.159,102.944 232.497,96.038 C236.334,88.324 241.422,84.077 246.827,84.077 C256.23,84.077 262.903,96.529 269.974,109.728 C275.699,120.423 282.19,132.538 288.369,132.538 C291.311,132.538 293.478,131.317 294.992,128.8 C296.507,126.282 297.308,122.614 297.308,118.172 C297.236,111.334 295.658,104.596 292.684,98.438 C289.904,92.827 286.333,89.462 283.173,89.462 C280.36,89.462 277.223,91.979 273.578,97.162 C273.033,97.968 272.094,98.417 271.123,98.336 C270.153,98.254 269.302,97.655 268.898,96.769 C268.495,95.883 268.601,94.848 269.176,94.062 C272.205,89.775 276.917,84.077 283.173,84.077 C288.575,84.077 293.663,88.324 297.5,96.038 C300.839,102.943 302.612,110.501 302.692,118.172 Z" />
        </g>
        <g id="Regular-S">
            <path d="M502.692,118.172 C502.692,123.593 501.625,128.231 499.606,131.579 C497.106,135.729 493.212,137.923 488.369,137.923 C478.966,137.923 472.289,125.471 465.222,112.272 C459.494,101.577 453.002,89.462 446.827,89.462 C443.67,89.462 440.116,92.827 437.32,98.437 C434.345,104.595 432.765,111.333 432.692,118.172 C432.692,122.614 433.493,126.289 435.008,128.8 C436.522,131.31 438.689,132.538 441.631,132.538 C446.719,132.538 452.013,124.28 456.516,116.2 C457.233,114.903 458.874,114.431 460.177,115.152 C461.48,115.873 461.952,117.514 461.231,118.818 C456.068,128.066 449.879,137.923 441.631,137.923 C436.781,137.923 432.881,135.729 430.394,131.579 C428.375,128.214 427.308,123.593 427.308,118.172 C427.387,110.502 429.159,102.944 432.497,96.038 C436.334,88.324 441.422,84.077 446.827,84.077 C456.23,84.077 462.903,96.529 469.974,109.728 C475.699,120.423 482.19,132.538 488.369,132.538 C491.311,132.538 493.478,131.317 494.992,128.8 C496.507,126.282 497.308,122.614 497.308,118.172 C497.236,111.334 495.658,104.596 492.684,98.438 C489.904,92.827 486.333,89.462 483.173,89.462 C480.36,89.462 477.223,91.979 473.578,97.162 C473.033,97.968 472.094,98.417 471.123,98.336 C470.153,98.254 469.302,97.655 468.898,96.769 C468.495,95.883 468.601,94.848 469.176,94.062 C472.205,89.775 476.917,84.077 483.173,84.077 C488.575,84.077 493.663,88.324 497.5,96.038 C500.839,102.943 502.612,110.501 502.692,118.172 Z" />
        </g>
        <g id="Black-S">
            <path d="M702.692,118.172 C702.692,123.593 701.625,128.231 699.606,131.579 C697.106,135.729 693.212,137.923 688.369,137.923 C678.966,137.923 672.289,125.471 665.222,112.272 C659.494,101.577 653.002,89.462 646.827,89.462 C643.67,89.462 640.116,92.827 637.32,98.437 C634.345,104.595 632.765,111.333 632.692,118.172 C632.692,122.614 633.493,126.289 635.008,128.8 C636.522,131.31 638.689,132.538 641.631,132.538 C646.719,132.538 652.013,124.28 656.516,116.2 C657.233,114.903 658.874,114.431 660.177,115.152 C661.48,115.873 661.952,117.514 661.231,118.818 C656.068,128.066 649.879,137.923 641.631,137.923 C636.781,137.923 632.881,135.729 630.394,131.579 C628.375,128.214 627.308,123.593 627.308,118.172 C627.387,110.502 629.159,102.944 632.497,96.038 C636.334,88.324 641.422,84.077 646.827,84.077 C656.23,84.077 662.903,96.529 669.974,109.728 C675.699,120.423 682.19,132.538 688.369,132.538 C691.311,132.538 693.478,131.317 694.992,128.8 C696.507,126.282 697.308,122.614 697.308,118.172 C697.236,111.334 695.658,104.596 692.684,98.438 C689.904,92.827 686.333,89.462 683.173,89.462 C680.36,89.462 677.223,91.979 673.578,97.162 C673.033,97.968 672.094,98.417 671.123,98.336 C670.153,98.254 669.302,97.655 668.898,96.769 C668.495,95.883 668.601,94.848 669.176,94.062 C672.205,89.775 676.917,84.077 683.173,84.077 C688.575,84.077 693.663,88.324 697.5,96.038 C700.839,102.943 702.612,110.501 702.692,118.172 Z" />
        </g>
    </g>
</svg>