<?xml version="1.0" encoding="UTF-8"?>
<svg height="600" width="800" xmlns="http://www.w3.org/2000/svg" xmlns:xlink="http://www.w3.org/1999/xlink">
    <g id="Notes" font-family="'LucidaGrande', 'Lucida Grande', sans-serif" font-size="13">
        <rect fill="white" height="600.0" width="800.0" x="0.0" y="0.0" />
        <g font-size="13">
            <text x="18.0" y="176.0">Small</text>
            <text x="18.0" y="376.0">Medium</text>
            <text x="18.0" y="576.0">Large</text>
        </g>
        <g font-size="9">
            <text x="250.0" y="30.0">Ultralight</text>
            <text x="450.0" y="30.0">Regular</text>
            <text x="650.0" y="30.0">Black</text>
            <text id="template-version" fill="#505050" text-anchor="end" x="785.0" y="575.0">Template v.3.0</text>
            <a href="https://github.com/swhitty/SwiftDraw">
                <text fill="#505050" text-anchor="end" x="785.0" y="590.0">https://github.com/swhitty/SwiftDraw</text>
            </a>
        </g>
    </g>
    <g id="Guides" stroke="rgb(39, 170, 225)" stroke-width="0.5">
        <path id="Capline-S" d="M18,76 l800,0" />
        <path id="H-reference" d="M85,145.755 L87.685,145.755 L113.369,79.287 L114.052,79.287 L114.052,76 L112.148,76 L85,145.755 Z M95.693,121.536 L130.996,121.536 L130.263,119.313 L96.474,119.313 L95.693,121.536 Z M139.15,145.755 L141.787,145.755 L114.638,76 L113.466,76 L113.466,79.287 L139.15,145.755 Z" stroke="none" />
        <path id="Baseline-S" d="M18,146 l800,0" />
        <path id="left-margin-Ultralight-S" d="M220,56 l0,110" />
        <path id="right-margin-Ultralight-S" d="M310,56 l0,110" />
        <path id="left-margin-Regular-S" d="M420,56 l0,110" />
        <path id="right-margin-Regular-S" d="M510,56 l0,110" />
        <path id="left-margin-Black-S" d="M620,56 l0,110" />
        <path id="right-margin-Black-S" d="M710,56 l0,110" />
        <path id="Capline-M" d="M18,276 l800,0" />
        <path id="Baseline-M" d="M18,346 l800,0" />
        <path id="Capline-L" d="M18,476 l800,0" />
        <path id="Baseline-L" d="M18,546 l800,0" />
    </g>
    <g id="Symbols">
        <g id="Ultralight-S">
            <path d="M289.231,113.692 L240.924,113.692 C242.307,125.949 252.666,135.216 265,135.231 L289.231,135.231 C290.718,135.231 291.923,136.436 291.923,137.923 C291.923,139.41 290.718,140.615 289.231,140.615 L265,140.615 C248.644,140.615 235.385,127.356 235.385,111 C235.385,94.644 248.644,81.385 265,81.385 L289.231,81.385 C290.718,81.385 291.923,82.59 291.923,84.077 C291.923,85.564 290.718,86.769 289.231,86.769 L265,86.769 C252.666,86.784 242.307,96.051 240.924,108.308 L289.231,108.308 C290.718,108.308 291.923,109.513 291.923,111 C291.923,112.487 290.718,113.692 289.231,113.692 Z" />
        </g>
        <g id="Regular-S">
            <path d="M489.231,113.692 L440.924,113.692 C442.307,125.949 452.666,135.216 465,135.231 L489.231,135.231 C490.718,135.231 491.923,136.436 491.923,137.923 C491.923,139.41 490.718,140.615 489.231,140.615 L465,140.615 C448.644,140.615 435.385,127.356 435.385,111 C435.385,94.644 448.644,81.385 465,81.385 L489.231,81.385 C490.718,81.385 491.923,82.59 491.923,84.077 C491.923,85.564 490.718,86.769 489.231,86.769 L465,86.769 C452.666,86.784 442.307,96.051 440.924,108.308 L489.231,108.308 C490.718,108.308 491.923,109.513 491.923,111 C491.923,112.487 490.718,113.692 489.231,113.692 Z" />
        </g>
        <g id="Black-S">
            <path d="M689.231,113.692 L640.924,113.692 C642.307,125.949 652.666,135.216 665,135.231 L689.231,135.231 C690.718,135.231 691.923,136.436 691.923,137.923 C691.923,139.41 690.718,140.615 689.231,140.615 L665,140.615 C648.644,140.615 635.385,127.356 635.385,111 C635.385,94.644 648.644,81.385 665,81.385 L689.231,81.385 C690.718,81.385 691.923,82.59 691.923,84.077 C691.923,85.564 690.718,86.769 689.231,86.769 L665,86.769 C652.666,86.784 642.307,96.051 640.924,108.308 L689.231,108.308 C690.718,108.308 691.923,109.513 691.923,111 C691.923,112.487 690.718,113.692 689.231,113.692 Z" />
        </g>
    </g>
</svg>