<?xml version="1.0" encoding="UTF-8"?>
<svg height="600" width="800" xmlns="http://www.w3.org/2000/svg" xmlns:xlink="http://www.w3.org/1999/xlink">
    <g id="Notes" font-family="'LucidaGrande', 'Lucida Grande', sans-serif" font-size="13">
        <rect fill="white" height="600.0" width="800.0" x="0.0" y="0.0" />
        <g font-size="13">
            <text x="18.0" y="176.0">Small</text>
            <text x="18.0" y="376.0">Medium</text>
            <text x="18.0" y="576.0">Large</text>
        </g>
        <g font-size="9">
            <text x="250.0" y="30.0">Ultralight</text>
            <text x="450.0" y="30.0">Regular</text>
            <text x="650.0" y="30.0">Black</text>
            <text id="template-version" fill="#505050" text-anchor="end" x="785.0" y="575.0">Template v.3.0</text>
            <a href="https://github.com/swhitty/SwiftDraw">
                <text fill="#505050" text-anchor="end" x="785.0" y="590.0">https://github.com/swhitty/SwiftDraw</text>
            </a>
        </g>
    </g>
    <g id="Guides" stroke="rgb(39, 170, 225)" stroke-width="0.5">
        <path id="Capline-S" d="M18,76 l800,0" />
        <path id="H-reference" d="M85,145.755 L87.685,145.755 L113.369,79.287 L114.052,79.287 L114.052,76 L112.148,76 L85,145.755 Z M95.693,121.536 L130.996,121.536 L130.263,119.313 L96.474,119.313 L95.693,121.536 Z M139.15,145.755 L141.787,145.755 L114.638,76 L113.466,76 L113.466,79.287 L139.15,145.755 Z" stroke="none" />
        <path id="Baseline-S" d="M18,146 l800,0" />
        <path id="left-margin-Ultralight-S" d="M220,56 l0,110" />
        <path id="right-margin-Ultralight-S" d="M310,56 l0,110" />
        <path id="left-margin-Regular-S" d="M420,56 l0,110" />
        <path id="right-margin-Regular-S" d="M510,56 l0,110" />
        <path id="left-margin-Black-S" d="M620,56 l0,110" />
        <path id="right-margin-Black-S" d="M710,56 l0,110" />
        <path id="Capline-M" d="M18,276 l800,0" />
        <path id="Baseline-M" d="M18,346 l800,0" />
        <path id="Capline-L" d="M18,476 l800,0" />
        <path id="Baseline-L" d="M18,546 l800,0" />
    </g>
    <g id="Symbols">
        <g id="Ultralight-S">
            <path d="M305.385,108.308 L302.692,108.308 L302.692,97.538 C302.692,96.11 302.125,94.741 301.115,93.731 C300.105,92.721 298.736,92.154 297.308,92.154 L291.923,92.154 L291.923,89.462 C291.923,88.033 291.356,86.664 290.346,85.654 C289.336,84.644 287.967,84.077 286.538,84.077 L278.462,84.077 C277.033,84.077 275.664,84.644 274.654,85.654 C273.644,86.664 273.077,88.033 273.077,89.462 L273.077,108.308 L256.923,108.308 L256.923,89.462 C256.923,88.033 256.356,86.664 255.346,85.654 C254.336,84.644 252.967,84.077 251.538,84.077 L243.462,84.077 C242.033,84.077 240.664,84.644 239.654,85.654 C238.644,86.664 238.077,88.033 238.077,89.462 L238.077,92.154 L232.692,92.154 C231.264,92.154 229.895,92.721 228.885,93.731 C227.875,94.741 227.308,96.11 227.308,97.538 L227.308,108.308 L224.615,108.308 C223.128,108.308 221.923,109.513 221.923,111 C221.923,112.487 223.128,113.692 224.615,113.692 L227.308,113.692 L227.308,124.462 C227.308,125.89 227.875,127.259 228.885,128.269 C229.895,129.279 231.264,129.846 232.692,129.846 L238.077,129.846 L238.077,132.538 C238.077,133.967 238.644,135.336 239.654,136.346 C240.664,137.356 242.033,137.923 243.462,137.923 L251.538,137.923 C252.967,137.923 254.336,137.356 255.346,136.346 C256.356,135.336 256.923,133.967 256.923,132.538 L256.923,113.692 L273.077,113.692 L273.077,132.538 C273.077,133.967 273.644,135.336 274.654,136.346 C275.664,137.356 277.033,137.923 278.462,137.923 L286.538,137.923 C287.967,137.923 289.336,137.356 290.346,136.346 C291.356,135.336 291.923,133.967 291.923,132.538 L291.923,129.846 L297.308,129.846 C298.736,129.846 300.105,129.279 301.115,128.269 C302.125,127.259 302.692,125.89 302.692,124.462 L302.692,113.692 L305.385,113.692 C306.872,113.692 308.077,112.487 308.077,111 C308.077,109.513 306.872,108.308 305.385,108.308 Z M232.692,124.462 L232.692,97.538 L238.077,97.538 L238.077,124.462 Z M251.538,132.538 L243.462,132.538 L243.462,89.462 L251.538,89.462 L251.538,132.538 Z M286.538,132.538 L278.462,132.538 L278.462,89.462 L286.538,89.462 L286.538,127.093 C286.538,127.113 286.538,127.134 286.538,127.154 C286.538,127.174 286.538,127.194 286.538,127.214 L286.538,132.538 Z M297.308,124.462 L291.923,124.462 L291.923,97.538 L297.308,97.538 Z" />
        </g>
        <g id="Regular-S">
            <path d="M505.385,108.308 L502.692,108.308 L502.692,97.538 C502.692,96.11 502.125,94.741 501.115,93.731 C500.105,92.721 498.736,92.154 497.308,92.154 L491.923,92.154 L491.923,89.462 C491.923,88.033 491.356,86.664 490.346,85.654 C489.336,84.644 487.967,84.077 486.538,84.077 L478.462,84.077 C477.033,84.077 475.664,84.644 474.654,85.654 C473.644,86.664 473.077,88.033 473.077,89.462 L473.077,108.308 L456.923,108.308 L456.923,89.462 C456.923,88.033 456.356,86.664 455.346,85.654 C454.336,84.644 452.967,84.077 451.538,84.077 L443.462,84.077 C442.033,84.077 440.664,84.644 439.654,85.654 C438.644,86.664 438.077,88.033 438.077,89.462 L438.077,92.154 L432.692,92.154 C431.264,92.154 429.895,92.721 428.885,93.731 C427.875,94.741 427.308,96.11 427.308,97.538 L427.308,108.308 L424.615,108.308 C423.128,108.308 421.923,109.513 421.923,111 C421.923,112.487 423.128,113.692 424.615,113.692 L427.308,113.692 L427.308,124.462 C427.308,125.89 427.875,127.259 428.885,128.269 C429.895,129.279 431.264,129.846 432.692,129.846 L438.077,129.846 L438.077,132.538 C438.077,133.967 438.644,135.336 439.654,136.346 C440.664,137.356 442.033,137.923 443.462,137.923 L451.538,137.923 C452.967,137.923 454.336,137.356 455.346,136.346 C456.356,135.336 456.923,133.967 456.923,132.538 L456.923,113.692 L473.077,113.692 L473.077,132.538 C473.077,133.967 473.644,135.336 474.654,136.346 C475.664,137.356 477.033,137.923 478.462,137.923 L486.538,137.923 C487.967,137.923 489.336,137.356 490.346,136.346 C491.356,135.336 491.923,133.967 491.923,132.538 L491.923,129.846 L497.308,129.846 C498.736,129.846 500.105,129.279 501.115,128.269 C502.125,127.259 502.692,125.89 502.692,124.462 L502.692,113.692 L505.385,113.692 C506.872,113.692 508.077,112.487 508.077,111 C508.077,109.513 506.872,108.308 505.385,108.308 Z M432.692,124.462 L432.692,97.538 L438.077,97.538 L438.077,124.462 Z M451.538,132.538 L443.462,132.538 L443.462,89.462 L451.538,89.462 L451.538,132.538 Z M486.538,132.538 L478.462,132.538 L478.462,89.462 L486.538,89.462 L486.538,127.093 C486.538,127.113 486.538,127.134 486.538,127.154 C486.538,127.174 486.538,127.194 486.538,127.214 L486.538,132.538 Z M497.308,124.462 L491.923,124.462 L491.923,97.538 L497.308,97.538 Z" />
        </g>
        <g id="Black-S">
            <path d="M705.385,108.308 L702.692,108.308 L702.692,97.538 C702.692,96.11 702.125,94.741 701.115,93.731 C700.105,92.721 698.736,92.154 697.308,92.154 L691.923,92.154 L691.923,89.462 C691.923,88.033 691.356,86.664 690.346,85.654 C689.336,84.644 687.967,84.077 686.538,84.077 L678.462,84.077 C677.033,84.077 675.664,84.644 674.654,85.654 C673.644,86.664 673.077,88.033 673.077,89.462 L673.077,108.308 L656.923,108.308 L656.923,89.462 C656.923,88.033 656.356,86.664 655.346,85.654 C654.336,84.644 652.967,84.077 651.538,84.077 L643.462,84.077 C642.033,84.077 640.664,84.644 639.654,85.654 C638.644,86.664 638.077,88.033 638.077,89.462 L638.077,92.154 L632.692,92.154 C631.264,92.154 629.895,92.721 628.885,93.731 C627.875,94.741 627.308,96.11 627.308,97.538 L627.308,108.308 L624.615,108.308 C623.128,108.308 621.923,109.513 621.923,111 C621.923,112.487 623.128,113.692 624.615,113.692 L627.308,113.692 L627.308,124.462 C627.308,125.89 627.875,127.259 628.885,128.269 C629.895,129.279 631.264,129.846 632.692,129.846 L638.077,129.846 L638.077,132.538 C638.077,133.967 638.644,135.336 639.654,136.346 C640.664,137.356 642.033,137.923 643.462,137.923 L651.538,137.923 C652.967,137.923 654.336,137.356 655.346,136.346 C656.356,135.336 656.923,133.967 656.923,132.538 L656.923,113.692 L673.077,113.692 L673.077,132.538 C673.077,133.967 673.644,135.336 674.654,136.346 C675.664,137.356 677.033,137.923 678.462,137.923 L686.538,137.923 C687.967,137.923 689.336,137.356 690.346,136.346 C691.356,135.336 691.923,133.967 691.923,132.538 L691.923,129.846 L697.308,129.846 C698.736,129.846 700.105,129.279 701.115,128.269 C702.125,127.259 702.692,125.89 702.692,124.462 L702.692,113.692 L705.385,113.692 C706.872,113.692 708.077,112.487 708.077,111 C708.077,109.513 706.872,108.308 705.385,108.308 Z M632.692,124.462 L632.692,97.538 L638.077,97.538 L638.077,124.462 Z M651.538,132.538 L643.462,132.538 L643.462,89.462 L651.538,89.462 L651.538,132.538 Z M686.538,132.538 L678.462,132.538 L678.462,89.462 L686.538,89.462 L686.538,127.093 C686.538,127.113 686.538,127.134 686.538,127.154 C686.538,127.174 686.538,127.194 686.538,127.214 L686.538,132.538 Z M697.308,124.462 L691.923,124.462 L691.923,97.538 L697.308,97.538 Z" />
        </g>
    </g>
</svg>