<?xml version="1.0" encoding="UTF-8"?>
<svg height="600" width="800" xmlns="http://www.w3.org/2000/svg" xmlns:xlink="http://www.w3.org/1999/xlink">
    <g id="Notes" font-family="'LucidaGrande', 'Lucida Grande', sans-serif" font-size="13">
        <rect fill="white" height="600.0" width="800.0" x="0.0" y="0.0" />
        <g font-size="13">
            <text x="18.0" y="176.0">Small</text>
            <text x="18.0" y="376.0">Medium</text>
            <text x="18.0" y="576.0">Large</text>
        </g>
        <g font-size="9">
            <text x="250.0" y="30.0">Ultralight</text>
            <text x="450.0" y="30.0">Regular</text>
            <text x="650.0" y="30.0">Black</text>
            <text id="template-version" fill="#505050" text-anchor="end" x="785.0" y="575.0">Template v.3.0</text>
            <a href="https://github.com/swhitty/SwiftDraw">
                <text fill="#505050" text-anchor="end" x="785.0" y="590.0">https://github.com/swhitty/SwiftDraw</text>
            </a>
        </g>
    </g>
    <g id="Guides" stroke="rgb(39, 170, 225)" stroke-width="0.5">
        <path id="Capline-S" d="M18,76 l800,0" />
        <path id="H-reference" d="M85,145.755 L87.685,145.755 L113.369,79.287 L114.052,79.287 L114.052,76 L112.148,76 L85,145.755 Z M95.693,121.536 L130.996,121.536 L130.263,119.313 L96.474,119.313 L95.693,121.536 Z M139.15,145.755 L141.787,145.755 L114.638,76 L113.466,76 L113.466,79.287 L139.15,145.755 Z" stroke="none" />
        <path id="Baseline-S" d="M18,146 l800,0" />
        <path id="left-margin-Ultralight-S" d="M220,56 l0,110" />
        <path id="right-margin-Ultralight-S" d="M310,56 l0,110" />
        <path id="left-margin-Regular-S" d="M420,56 l0,110" />
        <path id="right-margin-Regular-S" d="M510,56 l0,110" />
        <path id="left-margin-Black-S" d="M620,56 l0,110" />
        <path id="right-margin-Black-S" d="M710,56 l0,110" />
        <path id="Capline-M" d="M18,276 l800,0" />
        <path id="Baseline-M" d="M18,346 l800,0" />
        <path id="Capline-L" d="M18,476 l800,0" />
        <path id="Baseline-L" d="M18,546 l800,0" />
    </g>
    <g id="Symbols">
        <g id="Ultralight-S">
            <path d="M262.308,111 C262.308,105.052 257.486,100.231 251.538,100.231 C245.591,100.231 240.769,105.052 240.769,111 C240.769,116.948 245.591,121.769 251.538,121.769 C254.395,121.769 257.134,120.635 259.153,118.615 C261.173,116.595 262.308,113.856 262.308,111 Z M246.154,111 C246.154,108.026 248.565,105.615 251.538,105.615 C254.512,105.615 256.923,108.026 256.923,111 C256.923,113.974 254.512,116.385 251.538,116.385 C250.11,116.385 248.741,115.817 247.731,114.808 C246.721,113.798 246.154,112.428 246.154,111 Z M297.308,102.923 L291.923,102.923 L291.923,81.385 C291.923,80.671 291.639,79.986 291.135,79.481 C290.63,78.976 289.945,78.692 289.231,78.692 L256.923,78.692 C256.209,78.692 255.524,78.976 255.019,79.481 C254.514,79.986 254.231,80.671 254.231,81.385 L254.231,89.462 L235.385,89.462 C233.957,89.462 232.587,90.029 231.577,91.039 C230.567,92.048 230,93.418 230,94.846 L230,127.154 C230,128.582 230.567,129.952 231.577,130.961 C232.587,131.971 233.957,132.538 235.385,132.538 L246.154,132.538 L246.154,137.923 C246.154,139.351 246.721,140.721 247.731,141.731 C248.741,142.74 250.11,143.308 251.538,143.308 L294.615,143.308 C296.043,143.308 297.413,142.74 298.423,141.731 C299.433,140.721 300,139.351 300,137.923 L300,105.615 C300,104.901 299.716,104.217 299.211,103.712 C298.707,103.207 298.022,102.923 297.308,102.923 Z M277.674,123.115 L294.615,110.882 L294.615,135.349 Z M259.615,84.077 L286.538,84.077 L286.538,110.071 L273.077,119.794 L273.077,94.846 C273.077,93.418 272.51,92.048 271.5,91.039 C270.49,90.029 269.12,89.462 267.692,89.462 L259.615,89.462 Z M235.385,94.846 L267.692,94.846 L267.692,121.062 C267.692,121.103 267.692,121.143 267.692,121.184 L267.692,127.154 L235.385,127.154 Z M251.538,132.538 L267.692,132.538 C269.12,132.538 270.49,131.971 271.5,130.961 C272.51,129.952 273.077,128.582 273.077,127.154 L273.077,126.437 L288.982,137.923 L251.538,137.923 Z" />
        </g>
        <g id="Regular-S">
            <path d="M462.308,111 C462.308,105.052 457.486,100.231 451.538,100.231 C445.591,100.231 440.769,105.052 440.769,111 C440.769,116.948 445.591,121.769 451.538,121.769 C454.395,121.769 457.134,120.635 459.153,118.615 C461.173,116.595 462.308,113.856 462.308,111 Z M446.154,111 C446.154,108.026 448.565,105.615 451.538,105.615 C454.512,105.615 456.923,108.026 456.923,111 C456.923,113.974 454.512,116.385 451.538,116.385 C450.11,116.385 448.741,115.817 447.731,114.808 C446.721,113.798 446.154,112.428 446.154,111 Z M497.308,102.923 L491.923,102.923 L491.923,81.385 C491.923,80.671 491.639,79.986 491.135,79.481 C490.63,78.976 489.945,78.692 489.231,78.692 L456.923,78.692 C456.209,78.692 455.524,78.976 455.019,79.481 C454.514,79.986 454.231,80.671 454.231,81.385 L454.231,89.462 L435.385,89.462 C433.957,89.462 432.587,90.029 431.577,91.039 C430.567,92.048 430,93.418 430,94.846 L430,127.154 C430,128.582 430.567,129.952 431.577,130.961 C432.587,131.971 433.957,132.538 435.385,132.538 L446.154,132.538 L446.154,137.923 C446.154,139.351 446.721,140.721 447.731,141.731 C448.741,142.74 450.11,143.308 451.538,143.308 L494.615,143.308 C496.043,143.308 497.413,142.74 498.423,141.731 C499.433,140.721 500,139.351 500,137.923 L500,105.615 C500,104.901 499.716,104.217 499.211,103.712 C498.707,103.207 498.022,102.923 497.308,102.923 Z M477.674,123.115 L494.615,110.882 L494.615,135.349 Z M459.615,84.077 L486.538,84.077 L486.538,110.071 L473.077,119.794 L473.077,94.846 C473.077,93.418 472.51,92.048 471.5,91.039 C470.49,90.029 469.12,89.462 467.692,89.462 L459.615,89.462 Z M435.385,94.846 L467.692,94.846 L467.692,121.062 C467.692,121.103 467.692,121.143 467.692,121.184 L467.692,127.154 L435.385,127.154 Z M451.538,132.538 L467.692,132.538 C469.12,132.538 470.49,131.971 471.5,130.961 C472.51,129.952 473.077,128.582 473.077,127.154 L473.077,126.437 L488.982,137.923 L451.538,137.923 Z" />
        </g>
        <g id="Black-S">
            <path d="M662.308,111 C662.308,105.052 657.486,100.231 651.538,100.231 C645.591,100.231 640.769,105.052 640.769,111 C640.769,116.948 645.591,121.769 651.538,121.769 C654.395,121.769 657.134,120.635 659.153,118.615 C661.173,116.595 662.308,113.856 662.308,111 Z M646.154,111 C646.154,108.026 648.565,105.615 651.538,105.615 C654.512,105.615 656.923,108.026 656.923,111 C656.923,113.974 654.512,116.385 651.539,116.385 C650.11,116.385 648.741,115.817 647.731,114.808 C646.721,113.798 646.154,112.428 646.154,111 Z M697.308,102.923 L691.923,102.923 L691.923,81.385 C691.923,80.671 691.639,79.986 691.135,79.481 C690.63,78.976 689.945,78.692 689.231,78.692 L656.923,78.692 C656.209,78.692 655.524,78.976 655.019,79.481 C654.514,79.986 654.231,80.671 654.231,81.385 L654.231,89.462 L635.385,89.462 C633.957,89.462 632.587,90.029 631.577,91.039 C630.567,92.048 630,93.418 630,94.846 L630,127.154 C630,128.582 630.567,129.952 631.577,130.961 C632.587,131.971 633.957,132.538 635.385,132.538 L646.154,132.538 L646.154,137.923 C646.154,139.351 646.721,140.721 647.731,141.731 C648.741,142.74 650.11,143.308 651.538,143.308 L694.615,143.308 C696.044,143.308 697.413,142.74 698.423,141.731 C699.433,140.721 700,139.351 700,137.923 L700,105.615 C700,104.901 699.716,104.217 699.211,103.712 C698.707,103.207 698.022,102.923 697.308,102.923 Z M677.674,123.115 L694.615,110.882 L694.615,135.349 Z M659.615,84.077 L686.538,84.077 L686.538,110.071 L673.077,119.794 L673.077,94.846 C673.077,93.418 672.51,92.048 671.5,91.039 C670.49,90.029 669.12,89.462 667.692,89.462 L659.615,89.462 Z M635.385,94.846 L667.692,94.846 L667.692,121.062 C667.692,121.103 667.692,121.143 667.692,121.184 L667.692,127.154 L635.385,127.154 Z M651.538,132.538 L667.692,132.538 C669.12,132.538 670.49,131.971 671.5,130.961 C672.51,129.952 673.077,128.582 673.077,127.154 L673.077,126.437 L688.982,137.923 L651.538,137.923 Z" />
        </g>
    </g>
</svg>