<?xml version="1.0" encoding="UTF-8"?>
<svg height="600" width="800" xmlns="http://www.w3.org/2000/svg" xmlns:xlink="http://www.w3.org/1999/xlink">
    <g id="Notes" font-family="'LucidaGrande', 'Lucida Grande', sans-serif" font-size="13">
        <rect fill="white" height="600.0" width="800.0" x="0.0" y="0.0" />
        <g font-size="13">
            <text x="18.0" y="176.0">Small</text>
            <text x="18.0" y="376.0">Medium</text>
            <text x="18.0" y="576.0">Large</text>
        </g>
        <g font-size="9">
            <text x="250.0" y="30.0">Ultralight</text>
            <text x="450.0" y="30.0">Regular</text>
            <text x="650.0" y="30.0">Black</text>
            <text id="template-version" fill="#505050" text-anchor="end" x="785.0" y="575.0">Template v.3.0</text>
            <a href="https://github.com/swhitty/SwiftDraw">
                <text fill="#505050" text-anchor="end" x="785.0" y="590.0">https://github.com/swhitty/SwiftDraw</text>
            </a>
        </g>
    </g>
    <g id="Guides" stroke="rgb(39, 170, 225)" stroke-width="0.5">
        <path id="Capline-S" d="M18,76 l800,0" />
        <path id="H-reference" d="M85,145.755 L87.685,145.755 L113.369,79.287 L114.052,79.287 L114.052,76 L112.148,76 L85,145.755 Z M95.693,121.536 L130.996,121.536 L130.263,119.313 L96.474,119.313 L95.693,121.536 Z M139.15,145.755 L141.787,145.755 L114.638,76 L113.466,76 L113.466,79.287 L139.15,145.755 Z" stroke="none" />
        <path id="Baseline-S" d="M18,146 l800,0" />
        <path id="left-margin-Ultralight-S" d="M220,56 l0,110" />
        <path id="right-margin-Ultralight-S" d="M310,56 l0,110" />
        <path id="left-margin-Regular-S" d="M420,56 l0,110" />
        <path id="right-margin-Regular-S" d="M510,56 l0,110" />
        <path id="left-margin-Black-S" d="M620,56 l0,110" />
        <path id="right-margin-Black-S" d="M710,56 l0,110" />
        <path id="Capline-M" d="M18,276 l800,0" />
        <path id="Baseline-M" d="M18,346 l800,0" />
        <path id="Capline-L" d="M18,476 l800,0" />
        <path id="Baseline-L" d="M18,546 l800,0" />
    </g>
    <g id="Symbols">
        <g id="Ultralight-S">
            <path d="M306.653,92.49 C305.779,92.022 304.717,92.072 303.89,92.622 L291.923,100.584 L291.923,92.154 C291.923,90.726 291.356,89.356 290.346,88.346 C289.336,87.337 287.967,86.769 286.538,86.769 L259.972,86.769 C258.485,86.769 257.28,87.975 257.28,89.462 C257.28,90.948 258.485,92.154 259.972,92.154 L286.538,92.154 L286.538,121.645 C286.538,123.132 287.744,124.337 289.231,124.337 C290.718,124.337 291.923,123.132 291.923,121.645 L291.923,121.433 L303.89,129.412 C304.335,129.701 304.855,129.852 305.385,129.846 C306.099,129.846 306.783,129.562 307.288,129.058 C307.793,128.553 308.077,127.868 308.077,127.154 L308.077,94.846 C308.07,93.859 307.524,92.955 306.653,92.49 Z M302.692,122.123 L291.923,114.944 L291.923,107.056 L302.692,99.894 Z M240.069,79.574 C239.426,78.849 238.442,78.525 237.494,78.728 C236.546,78.93 235.779,79.626 235.488,80.551 C235.196,81.475 235.424,82.486 236.085,83.195 L239.332,86.769 L232.692,86.769 C231.264,86.769 229.895,87.337 228.885,88.346 C227.875,89.356 227.308,90.726 227.308,92.154 L227.308,129.846 C227.308,131.274 227.875,132.644 228.885,133.654 C229.895,134.663 231.264,135.231 232.692,135.231 L283.388,135.231 L289.931,142.426 C290.574,143.151 291.558,143.475 292.506,143.272 C293.454,143.07 294.221,142.374 294.512,141.449 C294.804,140.525 294.576,139.514 293.915,138.805 Z M232.692,129.846 L232.692,92.154 L244.229,92.154 L278.495,129.846 Z" />
        </g>
        <g id="Regular-S">
            <path d="M506.653,92.49 C505.779,92.022 504.717,92.072 503.89,92.622 L491.923,100.584 L491.923,92.154 C491.923,90.726 491.356,89.356 490.346,88.346 C489.336,87.337 487.967,86.769 486.538,86.769 L459.972,86.769 C458.485,86.769 457.28,87.975 457.28,89.462 C457.28,90.948 458.485,92.154 459.972,92.154 L486.538,92.154 L486.538,121.645 C486.538,123.132 487.744,124.337 489.231,124.337 C490.718,124.337 491.923,123.132 491.923,121.645 L491.923,121.433 L503.89,129.412 C504.335,129.701 504.855,129.852 505.385,129.846 C506.099,129.846 506.783,129.562 507.288,129.058 C507.793,128.553 508.077,127.868 508.077,127.154 L508.077,94.846 C508.07,93.859 507.524,92.955 506.653,92.49 Z M502.692,122.123 L491.923,114.944 L491.923,107.056 L502.692,99.894 Z M440.069,79.574 C439.426,78.849 438.442,78.525 437.494,78.728 C436.546,78.93 435.779,79.626 435.488,80.551 C435.196,81.475 435.424,82.486 436.085,83.195 L439.332,86.769 L432.692,86.769 C431.264,86.769 429.895,87.337 428.885,88.346 C427.875,89.356 427.308,90.726 427.308,92.154 L427.308,129.846 C427.308,131.274 427.875,132.644 428.885,133.654 C429.895,134.663 431.264,135.231 432.692,135.231 L483.388,135.231 L489.931,142.426 C490.574,143.151 491.558,143.475 492.506,143.272 C493.454,143.07 494.221,142.374 494.512,141.449 C494.804,140.525 494.576,139.514 493.915,138.805 Z M432.692,129.846 L432.692,92.154 L444.229,92.154 L478.495,129.846 Z" />
        </g>
        <g id="Black-S">
            <path d="M706.653,92.49 C705.779,92.022 704.717,92.072 703.89,92.622 L691.923,100.584 L691.923,92.154 C691.923,90.726 691.356,89.356 690.346,88.346 C689.336,87.337 687.967,86.769 686.538,86.769 L659.972,86.769 C658.485,86.769 657.28,87.975 657.28,89.462 C657.28,90.948 658.485,92.154 659.972,92.154 L686.538,92.154 L686.538,121.645 C686.538,123.132 687.744,124.337 689.231,124.337 C690.718,124.337 691.923,123.132 691.923,121.645 L691.923,121.433 L703.89,129.412 C704.335,129.701 704.855,129.852 705.385,129.846 C706.099,129.846 706.783,129.562 707.288,129.058 C707.793,128.553 708.077,127.868 708.077,127.154 L708.077,94.846 C708.07,93.859 707.524,92.955 706.653,92.49 Z M702.692,122.123 L691.923,114.944 L691.923,107.056 L702.692,99.894 Z M640.069,79.574 C639.426,78.849 638.442,78.525 637.494,78.728 C636.546,78.93 635.779,79.626 635.488,80.551 C635.196,81.475 635.424,82.486 636.085,83.195 L639.332,86.769 L632.692,86.769 C631.264,86.769 629.895,87.337 628.885,88.346 C627.875,89.356 627.308,90.726 627.308,92.154 L627.308,129.846 C627.308,131.274 627.875,132.644 628.885,133.654 C629.895,134.663 631.264,135.231 632.692,135.231 L683.388,135.231 L689.931,142.426 C690.574,143.151 691.558,143.475 692.506,143.272 C693.454,143.07 694.221,142.374 694.512,141.449 C694.804,140.525 694.576,139.514 693.915,138.805 Z M632.692,129.846 L632.692,92.154 L644.229,92.154 L678.495,129.846 Z" />
        </g>
    </g>
</svg>