<?xml version="1.0" encoding="UTF-8"?>
<svg height="600" width="800" xmlns="http://www.w3.org/2000/svg" xmlns:xlink="http://www.w3.org/1999/xlink">
    <g id="Notes" font-family="'LucidaGrande', 'Lucida Grande', sans-serif" font-size="13">
        <rect fill="white" height="600.0" width="800.0" x="0.0" y="0.0" />
        <g font-size="13">
            <text x="18.0" y="176.0">Small</text>
            <text x="18.0" y="376.0">Medium</text>
            <text x="18.0" y="576.0">Large</text>
        </g>
        <g font-size="9">
            <text x="250.0" y="30.0">Ultralight</text>
            <text x="450.0" y="30.0">Regular</text>
            <text x="650.0" y="30.0">Black</text>
            <text id="template-version" fill="#505050" text-anchor="end" x="785.0" y="575.0">Template v.3.0</text>
            <a href="https://github.com/swhitty/SwiftDraw">
                <text fill="#505050" text-anchor="end" x="785.0" y="590.0">https://github.com/swhitty/SwiftDraw</text>
            </a>
        </g>
    </g>
    <g id="Guides" stroke="rgb(39, 170, 225)" stroke-width="0.5">
        <path id="Capline-S" d="M18,76 l800,0" />
        <path id="H-reference" d="M85,145.755 L87.685,145.755 L113.369,79.287 L114.052,79.287 L114.052,76 L112.148,76 L85,145.755 Z M95.693,121.536 L130.996,121.536 L130.263,119.313 L96.474,119.313 L95.693,121.536 Z M139.15,145.755 L141.787,145.755 L114.638,76 L113.466,76 L113.466,79.287 L139.15,145.755 Z" stroke="none" />
        <path id="Baseline-S" d="M18,146 l800,0" />
        <path id="left-margin-Ultralight-S" d="M220,56 l0,110" />
        <path id="right-margin-Ultralight-S" d="M310,56 l0,110" />
        <path id="left-margin-Regular-S" d="M420,56 l0,110" />
        <path id="right-margin-Regular-S" d="M510,56 l0,110" />
        <path id="left-margin-Black-S" d="M620,56 l0,110" />
        <path id="right-margin-Black-S" d="M710,56 l0,110" />
        <path id="Capline-M" d="M18,276 l800,0" />
        <path id="Baseline-M" d="M18,346 l800,0" />
        <path id="Capline-L" d="M18,476 l800,0" />
        <path id="Baseline-L" d="M18,546 l800,0" />
    </g>
    <g id="Symbols">
        <g id="Ultralight-S">
            <path d="M251.538,111 C251.538,110.286 251.822,109.601 252.327,109.096 C252.832,108.591 253.517,108.308 254.231,108.308 L262.308,108.308 L262.308,100.231 C262.308,98.744 263.513,97.538 265,97.538 C266.487,97.538 267.692,98.744 267.692,100.231 L267.692,108.308 L275.769,108.308 C277.256,108.308 278.462,109.513 278.462,111 C278.462,112.487 277.256,113.692 275.769,113.692 L267.692,113.692 L267.692,121.769 C267.692,123.256 266.487,124.462 265,124.462 C263.513,124.462 262.308,123.256 262.308,121.769 L262.308,113.692 L254.231,113.692 C253.517,113.692 252.832,113.409 252.327,112.904 C251.822,112.399 251.538,111.714 251.538,111 Z M297.308,86.769 L297.308,105.615 C297.308,123.358 288.719,134.11 281.514,140.006 C273.753,146.353 266.033,148.511 265.697,148.598 C265.234,148.724 264.746,148.724 264.283,148.598 C263.947,148.511 256.237,146.353 248.466,140.006 C241.281,134.11 232.692,123.358 232.692,105.615 L232.692,86.769 C232.692,85.341 233.26,83.972 234.269,82.962 C235.279,81.952 236.649,81.385 238.077,81.385 L291.923,81.385 C293.351,81.385 294.721,81.952 295.731,82.962 C296.74,83.972 297.308,85.341 297.308,86.769 Z M291.923,86.769 L238.077,86.769 L238.077,105.615 C238.077,118.168 242.728,128.335 251.899,135.84 C255.803,139.033 260.238,141.518 265,143.18 C269.826,141.488 274.315,138.959 278.263,135.709 C287.326,128.217 291.923,118.091 291.923,105.615 Z" />
        </g>
        <g id="Regular-S">
            <path d="M451.538,111 C451.538,110.286 451.822,109.601 452.327,109.096 C452.832,108.591 453.517,108.308 454.231,108.308 L462.308,108.308 L462.308,100.231 C462.308,98.744 463.513,97.538 465,97.538 C466.487,97.538 467.692,98.744 467.692,100.231 L467.692,108.308 L475.769,108.308 C477.256,108.308 478.462,109.513 478.462,111 C478.462,112.487 477.256,113.692 475.769,113.692 L467.692,113.692 L467.692,121.769 C467.692,123.256 466.487,124.462 465,124.462 C463.513,124.462 462.308,123.256 462.308,121.769 L462.308,113.692 L454.231,113.692 C453.517,113.692 452.832,113.409 452.327,112.904 C451.822,112.399 451.538,111.714 451.538,111 Z M497.308,86.769 L497.308,105.615 C497.308,123.358 488.719,134.11 481.514,140.006 C473.753,146.353 466.033,148.511 465.697,148.598 C465.234,148.724 464.746,148.724 464.283,148.598 C463.947,148.511 456.237,146.353 448.466,140.006 C441.281,134.11 432.692,123.358 432.692,105.615 L432.692,86.769 C432.692,85.341 433.26,83.972 434.269,82.962 C435.279,81.952 436.649,81.385 438.077,81.385 L491.923,81.385 C493.351,81.385 494.721,81.952 495.731,82.962 C496.74,83.972 497.308,85.341 497.308,86.769 Z M491.923,86.769 L438.077,86.769 L438.077,105.615 C438.077,118.168 442.728,128.335 451.899,135.84 C455.803,139.033 460.237,141.518 465,143.18 C469.826,141.488 474.315,138.959 478.263,135.709 C487.326,128.217 491.923,118.091 491.923,105.615 Z" />
        </g>
        <g id="Black-S">
            <path d="M651.538,111 C651.538,110.286 651.822,109.601 652.327,109.096 C652.832,108.591 653.517,108.308 654.231,108.308 L662.308,108.308 L662.308,100.231 C662.308,98.744 663.513,97.538 665,97.538 C666.487,97.538 667.692,98.744 667.692,100.231 L667.692,108.308 L675.769,108.308 C677.256,108.308 678.462,109.513 678.462,111 C678.462,112.487 677.256,113.692 675.769,113.692 L667.692,113.692 L667.692,121.769 C667.692,123.256 666.487,124.462 665,124.462 C663.513,124.462 662.308,123.256 662.308,121.769 L662.308,113.692 L654.231,113.692 C653.517,113.692 652.832,113.409 652.327,112.904 C651.822,112.399 651.538,111.714 651.538,111 Z M697.308,86.769 L697.308,105.615 C697.308,123.358 688.719,134.11 681.514,140.006 C673.753,146.353 666.033,148.511 665.697,148.598 C665.234,148.724 664.746,148.724 664.283,148.598 C663.947,148.511 656.237,146.353 648.466,140.006 C641.281,134.11 632.692,123.358 632.692,105.615 L632.692,86.769 C632.692,85.341 633.26,83.972 634.269,82.962 C635.279,81.952 636.649,81.385 638.077,81.385 L691.923,81.385 C693.351,81.385 694.721,81.952 695.731,82.962 C696.74,83.972 697.308,85.341 697.308,86.769 Z M691.923,86.769 L638.077,86.769 L638.077,105.615 C638.077,118.168 642.728,128.335 651.899,135.84 C655.803,139.033 660.238,141.518 665,143.18 C669.826,141.488 674.315,138.959 678.263,135.709 C687.326,128.217 691.923,118.091 691.923,105.615 Z" />
        </g>
    </g>
</svg>