<?xml version="1.0" encoding="UTF-8"?>
<svg height="600" width="800" xmlns="http://www.w3.org/2000/svg" xmlns:xlink="http://www.w3.org/1999/xlink">
    <g id="Notes" font-family="'LucidaGrande', 'Lucida Grande', sans-serif" font-size="13">
        <rect fill="white" height="600.0" width="800.0" x="0.0" y="0.0" />
        <g font-size="13">
            <text x="18.0" y="176.0">Small</text>
            <text x="18.0" y="376.0">Medium</text>
            <text x="18.0" y="576.0">Large</text>
        </g>
        <g font-size="9">
            <text x="250.0" y="30.0">Ultralight</text>
            <text x="450.0" y="30.0">Regular</text>
            <text x="650.0" y="30.0">Black</text>
            <text id="template-version" fill="#505050" text-anchor="end" x="785.0" y="575.0">Template v.3.0</text>
            <a href="https://github.com/swhitty/SwiftDraw">
                <text fill="#505050" text-anchor="end" x="785.0" y="590.0">https://github.com/swhitty/SwiftDraw</text>
            </a>
        </g>
    </g>
    <g id="Guides" stroke="rgb(39, 170, 225)" stroke-width="0.5">
        <path id="Capline-S" d="M18,76 l800,0" />
        <path id="H-reference" d="M85,145.755 L87.685,145.755 L113.369,79.287 L114.052,79.287 L114.052,76 L112.148,76 L85,145.755 Z M95.693,121.536 L130.996,121.536 L130.263,119.313 L96.474,119.313 L95.693,121.536 Z M139.15,145.755 L141.787,145.755 L114.638,76 L113.466,76 L113.466,79.287 L139.15,145.755 Z" stroke="none" />
        <path id="Baseline-S" d="M18,146 l800,0" />
        <path id="left-margin-Ultralight-S" d="M220,56 l0,110" />
        <path id="right-margin-Ultralight-S" d="M310,56 l0,110" />
        <path id="left-margin-Regular-S" d="M420,56 l0,110" />
        <path id="right-margin-Regular-S" d="M510,56 l0,110" />
        <path id="left-margin-Black-S" d="M620,56 l0,110" />
        <path id="right-margin-Black-S" d="M710,56 l0,110" />
        <path id="Capline-M" d="M18,276 l800,0" />
        <path id="Baseline-M" d="M18,346 l800,0" />
        <path id="Capline-L" d="M18,476 l800,0" />
        <path id="Baseline-L" d="M18,546 l800,0" />
    </g>
    <g id="Symbols">
        <g id="Ultralight-S">
            <path d="M277.745,92.349 C284.804,88.619 289.224,81.292 289.231,73.308 C289.231,72.594 288.947,71.909 288.442,71.404 C287.937,70.899 287.253,70.615 286.538,70.615 L283.846,70.615 C276.008,70.618 268.789,74.88 265,81.741 C261.211,74.88 253.992,70.618 246.154,70.615 L243.462,70.615 C241.975,70.615 240.769,71.821 240.769,73.308 C240.769,74.795 241.975,76 243.462,76 L246.154,76 C254.087,76.011 260.842,81.771 262.106,89.603 C247.368,91.045 235.961,103.151 235.397,117.949 C234.832,132.746 245.284,145.685 259.869,148.247 C274.453,150.808 288.688,142.203 293.199,128.098 C297.709,113.994 291.109,98.726 277.745,92.349 Z M283.621,76 C282.31,83.683 275.711,89.341 267.918,89.462 C269.228,81.779 275.828,76.121 283.621,76 Z M265,143.308 C251.618,143.308 240.769,132.459 240.769,119.077 C240.769,105.695 251.618,94.846 265,94.846 C278.382,94.846 289.231,105.695 289.231,119.077 C289.215,132.454 278.375,143.293 264.999,143.308 Z M283.809,122.213 C282.391,130.208 276.132,136.467 268.137,137.886 C267.99,137.91 267.841,137.922 267.692,137.923 C266.293,137.921 265.128,136.847 265.013,135.452 C264.898,134.057 265.871,132.807 267.251,132.575 C272.99,131.556 277.482,127.063 278.502,121.325 C278.759,119.87 280.14,118.895 281.597,119.138 C283.054,119.382 284.043,120.754 283.812,122.213 Z" />
        </g>
        <g id="Regular-S">
            <path d="M477.745,92.349 C484.804,88.619 489.224,81.292 489.231,73.308 C489.231,72.594 488.947,71.909 488.442,71.404 C487.937,70.899 487.253,70.615 486.538,70.615 L483.846,70.615 C476.008,70.618 468.789,74.88 465,81.741 C461.211,74.88 453.992,70.618 446.154,70.615 L443.462,70.615 C441.975,70.615 440.769,71.821 440.769,73.308 C440.769,74.795 441.975,76 443.462,76 L446.154,76 C454.087,76.011 460.842,81.771 462.106,89.603 C447.368,91.045 435.961,103.151 435.397,117.949 C434.832,132.746 445.284,145.685 459.869,148.247 C474.453,150.808 488.688,142.203 493.199,128.098 C497.709,113.994 491.109,98.726 477.745,92.349 Z M483.621,76 C482.31,83.683 475.711,89.341 467.918,89.462 C469.228,81.779 475.828,76.121 483.621,76 Z M465,143.308 C451.618,143.308 440.769,132.459 440.769,119.077 C440.769,105.695 451.618,94.846 465,94.846 C478.382,94.846 489.231,105.695 489.231,119.077 C489.215,132.454 478.375,143.293 464.999,143.308 Z M483.809,122.213 C482.391,130.208 476.132,136.467 468.137,137.886 C467.99,137.91 467.841,137.922 467.692,137.923 C466.293,137.921 465.128,136.847 465.013,135.452 C464.898,134.057 465.871,132.807 467.251,132.575 C472.99,131.556 477.482,127.063 478.502,121.325 C478.759,119.87 480.14,118.895 481.597,119.138 C483.054,119.382 484.043,120.754 483.812,122.213 Z" />
        </g>
        <g id="Black-S">
            <path d="M677.745,92.349 C684.804,88.619 689.224,81.292 689.231,73.308 C689.231,72.594 688.947,71.909 688.442,71.404 C687.937,70.899 687.253,70.615 686.538,70.615 L683.846,70.615 C676.008,70.618 668.789,74.88 665,81.741 C661.211,74.88 653.992,70.618 646.154,70.615 L643.462,70.615 C641.975,70.615 640.769,71.821 640.769,73.308 C640.769,74.795 641.975,76 643.462,76 L646.154,76 C654.087,76.011 660.842,81.771 662.106,89.603 C647.368,91.045 635.961,103.151 635.397,117.949 C634.832,132.746 645.284,145.685 659.869,148.247 C674.453,150.808 688.688,142.203 693.199,128.098 C697.709,113.994 691.109,98.726 677.745,92.349 Z M683.621,76 C682.31,83.683 675.711,89.341 667.918,89.462 C669.228,81.779 675.828,76.121 683.621,76 Z M665,143.308 C651.618,143.308 640.769,132.459 640.769,119.077 C640.769,105.695 651.618,94.846 665,94.846 C678.382,94.846 689.231,105.695 689.231,119.077 C689.215,132.454 678.375,143.293 664.999,143.308 Z M683.809,122.213 C682.391,130.208 676.132,136.467 668.137,137.886 C667.99,137.91 667.841,137.922 667.692,137.923 C666.293,137.921 665.128,136.847 665.013,135.452 C664.898,134.057 665.871,132.807 667.251,132.575 C672.99,131.556 677.482,127.063 678.502,121.325 C678.759,119.87 680.14,118.895 681.597,119.138 C683.054,119.382 684.043,120.754 683.812,122.213 Z" />
        </g>
    </g>
</svg>