<?xml version="1.0" encoding="UTF-8"?>
<svg height="600" width="800" xmlns="http://www.w3.org/2000/svg" xmlns:xlink="http://www.w3.org/1999/xlink">
    <g id="Notes" font-family="'LucidaGrande', 'Lucida Grande', sans-serif" font-size="13">
        <rect fill="white" height="600.0" width="800.0" x="0.0" y="0.0" />
        <g font-size="13">
            <text x="18.0" y="176.0">Small</text>
            <text x="18.0" y="376.0">Medium</text>
            <text x="18.0" y="576.0">Large</text>
        </g>
        <g font-size="9">
            <text x="250.0" y="30.0">Ultralight</text>
            <text x="450.0" y="30.0">Regular</text>
            <text x="650.0" y="30.0">Black</text>
            <text id="template-version" fill="#505050" text-anchor="end" x="785.0" y="575.0">Template v.3.0</text>
            <a href="https://github.com/swhitty/SwiftDraw">
                <text fill="#505050" text-anchor="end" x="785.0" y="590.0">https://github.com/swhitty/SwiftDraw</text>
            </a>
        </g>
    </g>
    <g id="Guides" stroke="rgb(39, 170, 225)" stroke-width="0.5">
        <path id="Capline-S" d="M18,76 l800,0" />
        <path id="H-reference" d="M85,145.755 L87.685,145.755 L113.369,79.287 L114.052,79.287 L114.052,76 L112.148,76 L85,145.755 Z M95.693,121.536 L130.996,121.536 L130.263,119.313 L96.474,119.313 L95.693,121.536 Z M139.15,145.755 L141.787,145.755 L114.638,76 L113.466,76 L113.466,79.287 L139.15,145.755 Z" stroke="none" />
        <path id="Baseline-S" d="M18,146 l800,0" />
        <path id="left-margin-Ultralight-S" d="M220,56 l0,110" />
        <path id="right-margin-Ultralight-S" d="M310,56 l0,110" />
        <path id="left-margin-Regular-S" d="M420,56 l0,110" />
        <path id="right-margin-Regular-S" d="M510,56 l0,110" />
        <path id="left-margin-Black-S" d="M620,56 l0,110" />
        <path id="right-margin-Black-S" d="M710,56 l0,110" />
        <path id="Capline-M" d="M18,276 l800,0" />
        <path id="Baseline-M" d="M18,346 l800,0" />
        <path id="Capline-L" d="M18,476 l800,0" />
        <path id="Baseline-L" d="M18,546 l800,0" />
    </g>
    <g id="Symbols">
        <g id="Ultralight-S">
            <path d="M252.885,115.038 C250.654,115.038 248.846,113.23 248.846,111 C248.846,108.77 250.654,106.962 252.885,106.962 C255.115,106.962 256.923,108.77 256.923,111 C256.923,112.071 256.498,113.098 255.74,113.856 C254.983,114.613 253.956,115.038 252.885,115.038 Z M277.115,106.962 C274.885,106.962 273.077,108.77 273.077,111 C273.077,113.23 274.885,115.038 277.115,115.038 C279.346,115.038 281.154,113.23 281.154,111 C281.154,109.929 280.728,108.902 279.971,108.144 C279.214,107.387 278.186,106.962 277.115,106.962 Z M272.986,122.183 C268.095,125.219 261.905,125.219 257.014,122.183 C255.757,121.39 254.093,121.766 253.299,123.024 C252.505,124.282 252.881,125.945 254.139,126.739 C260.786,130.883 269.212,130.883 275.859,126.739 C277.118,125.945 277.494,124.281 276.7,123.023 C275.906,121.765 274.243,121.389 272.985,122.183 Z M300,111 C300,130.33 284.33,146 265,146 C245.67,146 230,130.33 230,111 C230,91.67 245.67,76 265,76 C284.322,76.02 299.98,91.678 300,111 Z M294.615,111 C294.594,95.16 282.133,82.136 266.313,81.415 C262.415,86.897 262.308,92.113 262.308,92.154 C262.308,93.641 263.513,94.846 265,94.846 C266.487,94.846 267.692,93.641 267.692,92.154 C267.692,90.667 268.898,89.462 270.385,89.462 C271.872,89.462 273.077,90.667 273.077,92.154 C273.077,96.615 269.461,100.231 265,100.231 C260.539,100.231 256.923,96.615 256.923,92.154 C256.923,91.908 256.967,87.341 259.77,81.846 C244.341,84.614 233.742,98.925 235.592,114.491 C237.442,130.057 251.101,141.485 266.749,140.559 C282.396,139.634 294.613,126.675 294.615,111 Z" />
        </g>
        <g id="Regular-S">
            <path d="M452.885,115.038 C450.654,115.038 448.846,113.23 448.846,111 C448.846,108.77 450.654,106.962 452.885,106.962 C455.115,106.962 456.923,108.77 456.923,111 C456.923,112.071 456.498,113.098 455.74,113.856 C454.983,114.613 453.956,115.038 452.885,115.038 Z M477.115,106.962 C474.885,106.962 473.077,108.77 473.077,111 C473.077,113.23 474.885,115.038 477.115,115.038 C479.346,115.038 481.154,113.23 481.154,111 C481.154,109.929 480.728,108.902 479.971,108.144 C479.214,107.387 478.186,106.962 477.115,106.962 Z M472.986,122.183 C468.095,125.219 461.905,125.219 457.014,122.183 C455.757,121.39 454.093,121.766 453.299,123.024 C452.505,124.282 452.881,125.945 454.139,126.739 C460.786,130.883 469.212,130.883 475.859,126.739 C477.118,125.945 477.494,124.281 476.7,123.023 C475.906,121.765 474.243,121.389 472.985,122.183 Z M500,111 C500,130.33 484.33,146 465,146 C445.67,146 430,130.33 430,111 C430,91.67 445.67,76 465,76 C484.321,76.02 499.98,91.678 500,111 Z M494.615,111 C494.594,95.16 482.133,82.136 466.313,81.415 C462.415,86.897 462.308,92.113 462.308,92.154 C462.308,93.641 463.513,94.846 465,94.846 C466.487,94.846 467.692,93.641 467.692,92.154 C467.692,90.667 468.898,89.462 470.385,89.462 C471.872,89.462 473.077,90.667 473.077,92.154 C473.077,96.615 469.461,100.231 465,100.231 C460.539,100.231 456.923,96.615 456.923,92.154 C456.923,91.908 456.967,87.341 459.77,81.846 C444.341,84.614 433.742,98.925 435.592,114.491 C437.442,130.057 451.101,141.485 466.749,140.559 C482.396,139.634 494.613,126.675 494.615,111 Z" />
        </g>
        <g id="Black-S">
            <path d="M652.885,115.038 C650.654,115.038 648.846,113.23 648.846,111 C648.846,108.77 650.654,106.962 652.885,106.962 C655.115,106.962 656.923,108.77 656.923,111 C656.923,112.071 656.498,113.098 655.74,113.856 C654.983,114.613 653.956,115.038 652.885,115.038 Z M677.115,106.962 C674.885,106.962 673.077,108.77 673.077,111 C673.077,113.23 674.885,115.038 677.115,115.038 C679.346,115.038 681.154,113.23 681.154,111 C681.154,109.929 680.728,108.902 679.971,108.144 C679.214,107.387 678.186,106.962 677.115,106.962 Z M672.986,122.183 C668.095,125.219 661.905,125.219 657.014,122.183 C655.757,121.39 654.093,121.766 653.299,123.024 C652.505,124.282 652.881,125.945 654.139,126.739 C660.786,130.883 669.212,130.883 675.859,126.739 C677.118,125.945 677.494,124.281 676.7,123.023 C675.906,121.765 674.243,121.389 672.985,122.183 Z M700,111 C700,130.33 684.33,146 665,146 C645.67,146 630,130.33 630,111 C630,91.67 645.67,76 665,76 C684.322,76.02 699.98,91.678 700,111 Z M694.615,111 C694.594,95.16 682.133,82.136 666.313,81.415 C662.415,86.897 662.308,92.113 662.308,92.154 C662.308,93.641 663.513,94.846 665,94.846 C666.487,94.846 667.692,93.641 667.692,92.154 C667.692,90.667 668.898,89.462 670.385,89.462 C671.872,89.462 673.077,90.667 673.077,92.154 C673.077,96.615 669.461,100.231 665,100.231 C660.539,100.231 656.923,96.615 656.923,92.154 C656.923,91.908 656.967,87.341 659.77,81.846 C644.341,84.614 633.742,98.925 635.592,114.491 C637.442,130.057 651.101,141.485 666.749,140.559 C682.396,139.634 694.613,126.675 694.615,111 Z" />
        </g>
    </g>
</svg>