<?xml version="1.0" encoding="UTF-8"?>
<svg height="600" width="800" xmlns="http://www.w3.org/2000/svg" xmlns:xlink="http://www.w3.org/1999/xlink">
    <g id="Notes" font-family="'LucidaGrande', 'Lucida Grande', sans-serif" font-size="13">
        <rect fill="white" height="600.0" width="800.0" x="0.0" y="0.0" />
        <g font-size="13">
            <text x="18.0" y="176.0">Small</text>
            <text x="18.0" y="376.0">Medium</text>
            <text x="18.0" y="576.0">Large</text>
        </g>
        <g font-size="9">
            <text x="250.0" y="30.0">Ultralight</text>
            <text x="450.0" y="30.0">Regular</text>
            <text x="650.0" y="30.0">Black</text>
            <text id="template-version" fill="#505050" text-anchor="end" x="785.0" y="575.0">Template v.3.0</text>
            <a href="https://github.com/swhitty/SwiftDraw">
                <text fill="#505050" text-anchor="end" x="785.0" y="590.0">https://github.com/swhitty/SwiftDraw</text>
            </a>
        </g>
    </g>
    <g id="Guides" stroke="rgb(39, 170, 225)" stroke-width="0.5">
        <path id="Capline-S" d="M18,76 l800,0" />
        <path id="H-reference" d="M85,145.755 L87.685,145.755 L113.369,79.287 L114.052,79.287 L114.052,76 L112.148,76 L85,145.755 Z M95.693,121.536 L130.996,121.536 L130.263,119.313 L96.474,119.313 L95.693,121.536 Z M139.15,145.755 L141.787,145.755 L114.638,76 L113.466,76 L113.466,79.287 L139.15,145.755 Z" stroke="none" />
        <path id="Baseline-S" d="M18,146 l800,0" />
        <path id="left-margin-Ultralight-S" d="M220,56 l0,110" />
        <path id="right-margin-Ultralight-S" d="M310,56 l0,110" />
        <path id="left-margin-Regular-S" d="M420,56 l0,110" />
        <path id="right-margin-Regular-S" d="M510,56 l0,110" />
        <path id="left-margin-Black-S" d="M620,56 l0,110" />
        <path id="right-margin-Black-S" d="M710,56 l0,110" />
        <path id="Capline-M" d="M18,276 l800,0" />
        <path id="Baseline-M" d="M18,346 l800,0" />
        <path id="Capline-L" d="M18,476 l800,0" />
        <path id="Baseline-L" d="M18,546 l800,0" />
    </g>
    <g id="Symbols">
        <g id="Ultralight-S">
            <path d="M265,76 C245.67,76 230,91.67 230,111 C230,130.33 245.67,146 265,146 C284.33,146 300,130.33 300,111 C299.979,91.677 284.32,76.02 264.999,76 Z M265,140.615 C248.644,140.615 235.385,127.356 235.385,111 C235.385,94.644 248.644,81.385 265,81.385 C281.356,81.385 294.615,94.644 294.615,111 C294.598,127.347 281.35,140.596 265.001,140.615 Z M259.615,94.846 C259.615,91.872 262.026,89.462 265,89.462 C267.974,89.462 270.385,91.872 270.385,94.846 C270.385,97.82 267.974,100.231 265,100.231 C263.572,100.231 262.202,99.663 261.193,98.654 C260.183,97.644 259.615,96.274 259.615,94.846 Z M283.846,105.615 C283.846,106.329 283.562,107.014 283.058,107.519 C282.553,108.024 281.868,108.308 281.154,108.308 L267.692,108.308 L267.692,112.878 L278.011,128.359 C278.836,129.599 278.5,131.271 277.262,132.095 C276.023,132.92 274.351,132.584 273.527,131.345 L264.999,118.557 L256.471,131.345 C255.648,132.582 253.976,132.918 252.737,132.094 C251.499,131.269 251.163,129.597 251.987,128.359 L262.305,112.878 L262.305,108.308 L248.846,108.308 C247.359,108.308 246.154,107.102 246.154,105.615 C246.154,104.128 247.359,102.923 248.846,102.923 L281.154,102.923 C281.868,102.923 282.553,103.207 283.058,103.712 C283.562,104.217 283.846,104.901 283.846,105.615 Z" />
        </g>
        <g id="Regular-S">
            <path d="M465,76 C445.67,76 430,91.67 430,111 C430,130.33 445.67,146 465,146 C484.33,146 500,130.33 500,111 C499.979,91.677 484.32,76.02 464.999,76 Z M465,140.615 C448.644,140.615 435.385,127.356 435.385,111 C435.385,94.644 448.644,81.385 465,81.385 C481.356,81.385 494.615,94.644 494.615,111 C494.598,127.347 481.35,140.596 465.001,140.615 Z M459.615,94.846 C459.615,91.872 462.026,89.462 465,89.462 C467.974,89.462 470.385,91.872 470.385,94.846 C470.385,97.82 467.974,100.231 465,100.231 C463.572,100.231 462.202,99.663 461.193,98.654 C460.183,97.644 459.615,96.274 459.615,94.846 Z M483.846,105.615 C483.846,106.329 483.562,107.014 483.058,107.519 C482.553,108.024 481.868,108.308 481.154,108.308 L467.692,108.308 L467.692,112.878 L478.011,128.359 C478.836,129.599 478.5,131.271 477.262,132.095 C476.023,132.92 474.351,132.584 473.527,131.345 L464.999,118.557 L456.471,131.345 C455.648,132.582 453.976,132.918 452.737,132.094 C451.499,131.269 451.163,129.597 451.987,128.359 L462.305,112.878 L462.305,108.308 L448.846,108.308 C447.359,108.308 446.154,107.102 446.154,105.615 C446.154,104.128 447.359,102.923 448.846,102.923 L481.154,102.923 C481.868,102.923 482.553,103.207 483.058,103.712 C483.562,104.217 483.846,104.901 483.846,105.615 Z" />
        </g>
        <g id="Black-S">
            <path d="M665,76 C645.67,76 630,91.67 630,111 C630,130.33 645.67,146 665,146 C684.33,146 700,130.33 700,111 C699.979,91.677 684.32,76.02 664.999,76 Z M665,140.615 C648.644,140.615 635.385,127.356 635.385,111 C635.385,94.644 648.644,81.385 665,81.385 C681.356,81.385 694.615,94.644 694.615,111 C694.598,127.347 681.35,140.596 665.001,140.615 Z M659.615,94.846 C659.615,91.872 662.026,89.462 665,89.462 C667.974,89.462 670.385,91.872 670.385,94.846 C670.385,97.82 667.974,100.231 665,100.231 C663.572,100.231 662.202,99.663 661.193,98.654 C660.183,97.644 659.615,96.274 659.615,94.846 Z M683.846,105.615 C683.846,106.329 683.562,107.014 683.058,107.519 C682.553,108.024 681.868,108.308 681.154,108.308 L667.692,108.308 L667.692,112.878 L678.011,128.359 C678.836,129.599 678.5,131.271 677.262,132.095 C676.023,132.92 674.351,132.584 673.527,131.345 L664.999,118.557 L656.471,131.345 C655.648,132.582 653.976,132.918 652.737,132.094 C651.499,131.269 651.163,129.597 651.987,128.359 L662.305,112.878 L662.305,108.308 L648.846,108.308 C647.359,108.308 646.154,107.102 646.154,105.615 C646.154,104.128 647.359,102.923 648.846,102.923 L681.154,102.923 C681.868,102.923 682.553,103.207 683.058,103.712 C683.562,104.217 683.846,104.901 683.846,105.615 Z" />
        </g>
    </g>
</svg>