<?xml version="1.0" encoding="UTF-8"?>
<svg height="600" width="800" xmlns="http://www.w3.org/2000/svg" xmlns:xlink="http://www.w3.org/1999/xlink">
    <g id="Notes" font-family="'LucidaGrande', 'Lucida Grande', sans-serif" font-size="13">
        <rect fill="white" height="600.0" width="800.0" x="0.0" y="0.0" />
        <g font-size="13">
            <text x="18.0" y="176.0">Small</text>
            <text x="18.0" y="376.0">Medium</text>
            <text x="18.0" y="576.0">Large</text>
        </g>
        <g font-size="9">
            <text x="250.0" y="30.0">Ultralight</text>
            <text x="450.0" y="30.0">Regular</text>
            <text x="650.0" y="30.0">Black</text>
            <text id="template-version" fill="#505050" text-anchor="end" x="785.0" y="575.0">Template v.3.0</text>
            <a href="https://github.com/swhitty/SwiftDraw">
                <text fill="#505050" text-anchor="end" x="785.0" y="590.0">https://github.com/swhitty/SwiftDraw</text>
            </a>
        </g>
    </g>
    <g id="Guides" stroke="rgb(39, 170, 225)" stroke-width="0.5">
        <path id="Capline-S" d="M18,76 l800,0" />
        <path id="H-reference" d="M85,145.755 L87.685,145.755 L113.369,79.287 L114.052,79.287 L114.052,76 L112.148,76 L85,145.755 Z M95.693,121.536 L130.996,121.536 L130.263,119.313 L96.474,119.313 L95.693,121.536 Z M139.15,145.755 L141.787,145.755 L114.638,76 L113.466,76 L113.466,79.287 L139.15,145.755 Z" stroke="none" />
        <path id="Baseline-S" d="M18,146 l800,0" />
        <path id="left-margin-Ultralight-S" d="M220,56 l0,110" />
        <path id="right-margin-Ultralight-S" d="M310,56 l0,110" />
        <path id="left-margin-Regular-S" d="M420,56 l0,110" />
        <path id="right-margin-Regular-S" d="M510,56 l0,110" />
        <path id="left-margin-Black-S" d="M620,56 l0,110" />
        <path id="right-margin-Black-S" d="M710,56 l0,110" />
        <path id="Capline-M" d="M18,276 l800,0" />
        <path id="Baseline-M" d="M18,346 l800,0" />
        <path id="Capline-L" d="M18,476 l800,0" />
        <path id="Baseline-L" d="M18,546 l800,0" />
    </g>
    <g id="Symbols">
        <g id="Ultralight-S">
            <path d="M304.712,101.15 L285.865,79.611 C285.356,79.029 284.62,78.694 283.846,78.692 L246.154,78.692 C245.38,78.694 244.644,79.029 244.135,79.611 L225.288,101.15 C224.378,102.189 224.402,103.75 225.346,104.761 L263.038,145.145 C263.547,145.691 264.26,146.001 265.007,146.001 C265.753,146.001 266.466,145.691 266.975,145.145 L304.668,104.761 C305.607,103.747 305.626,102.186 304.712,101.15 Z M296.759,100.231 L282.5,100.231 L270.385,84.077 L282.625,84.077 Z M247.022,105.615 L257.162,130.967 L233.503,105.615 Z M277.176,105.615 L265,136.059 L252.824,105.615 Z M254.231,100.231 L265,85.871 L275.769,100.231 Z M282.978,105.615 L296.497,105.615 L272.838,130.967 Z M247.375,84.077 L259.615,84.077 L247.5,100.231 L233.241,100.231 Z" />
        </g>
        <g id="Regular-S">
            <path d="M504.712,101.15 L485.865,79.611 C485.356,79.029 484.62,78.694 483.846,78.692 L446.154,78.692 C445.38,78.694 444.644,79.029 444.135,79.611 L425.288,101.15 C424.378,102.189 424.402,103.75 425.346,104.761 L463.038,145.145 C463.547,145.691 464.26,146.001 465.007,146.001 C465.753,146.001 466.466,145.691 466.975,145.145 L504.668,104.761 C505.607,103.747 505.626,102.186 504.712,101.15 Z M496.759,100.231 L482.5,100.231 L470.385,84.077 L482.625,84.077 Z M447.022,105.615 L457.162,130.967 L433.503,105.615 Z M477.176,105.615 L465,136.059 L452.824,105.615 Z M454.231,100.231 L465,85.871 L475.769,100.231 Z M482.978,105.615 L496.497,105.615 L472.838,130.967 Z M447.375,84.077 L459.615,84.077 L447.5,100.231 L433.241,100.231 Z" />
        </g>
        <g id="Black-S">
            <path d="M704.712,101.15 L685.865,79.611 C685.356,79.029 684.62,78.694 683.846,78.692 L646.154,78.692 C645.38,78.694 644.644,79.029 644.135,79.611 L625.288,101.15 C624.378,102.189 624.402,103.75 625.346,104.761 L663.038,145.145 C663.547,145.691 664.26,146.001 665.007,146.001 C665.753,146.001 666.466,145.691 666.975,145.145 L704.668,104.761 C705.607,103.747 705.626,102.186 704.712,101.15 Z M696.759,100.231 L682.5,100.231 L670.385,84.077 L682.625,84.077 Z M647.022,105.615 L657.162,130.967 L633.503,105.615 Z M677.176,105.615 L665,136.059 L652.824,105.615 Z M654.231,100.231 L665,85.871 L675.769,100.231 Z M682.978,105.615 L696.497,105.615 L672.838,130.967 Z M647.375,84.077 L659.615,84.077 L647.5,100.231 L633.241,100.231 Z" />
        </g>
    </g>
</svg>