<?xml version="1.0" encoding="UTF-8"?>
<svg height="600" width="800" xmlns="http://www.w3.org/2000/svg" xmlns:xlink="http://www.w3.org/1999/xlink">
    <g id="Notes" font-family="'LucidaGrande', 'Lucida Grande', sans-serif" font-size="13">
        <rect fill="white" height="600.0" width="800.0" x="0.0" y="0.0" />
        <g font-size="13">
            <text x="18.0" y="176.0">Small</text>
            <text x="18.0" y="376.0">Medium</text>
            <text x="18.0" y="576.0">Large</text>
        </g>
        <g font-size="9">
            <text x="250.0" y="30.0">Ultralight</text>
            <text x="450.0" y="30.0">Regular</text>
            <text x="650.0" y="30.0">Black</text>
            <text id="template-version" fill="#505050" text-anchor="end" x="785.0" y="575.0">Template v.3.0</text>
            <a href="https://github.com/swhitty/SwiftDraw">
                <text fill="#505050" text-anchor="end" x="785.0" y="590.0">https://github.com/swhitty/SwiftDraw</text>
            </a>
        </g>
    </g>
    <g id="Guides" stroke="rgb(39, 170, 225)" stroke-width="0.5">
        <path id="Capline-S" d="M18,76 l800,0" />
        <path id="H-reference" d="M85,145.755 L87.685,145.755 L113.369,79.287 L114.052,79.287 L114.052,76 L112.148,76 L85,145.755 Z M95.693,121.536 L130.996,121.536 L130.263,119.313 L96.474,119.313 L95.693,121.536 Z M139.15,145.755 L141.787,145.755 L114.638,76 L113.466,76 L113.466,79.287 L139.15,145.755 Z" stroke="none" />
        <path id="Baseline-S" d="M18,146 l800,0" />
        <path id="left-margin-Ultralight-S" d="M220,56 l0,110" />
        <path id="right-margin-Ultralight-S" d="M310,56 l0,110" />
        <path id="left-margin-Regular-S" d="M420,56 l0,110" />
        <path id="right-margin-Regular-S" d="M510,56 l0,110" />
        <path id="left-margin-Black-S" d="M620,56 l0,110" />
        <path id="right-margin-Black-S" d="M710,56 l0,110" />
        <path id="Capline-M" d="M18,276 l800,0" />
        <path id="Baseline-M" d="M18,346 l800,0" />
        <path id="Capline-L" d="M18,476 l800,0" />
        <path id="Baseline-L" d="M18,546 l800,0" />
    </g>
    <g id="Symbols">
        <g id="Ultralight-S">
            <path d="M291.136,84.858 C291.641,85.363 291.925,86.048 291.925,86.763 C291.925,87.477 291.641,88.162 291.136,88.667 L272.289,107.513 C271.239,108.565 269.534,108.566 268.482,107.515 C267.43,106.464 267.429,104.76 268.48,103.707 L287.326,84.861 C287.83,84.355 288.515,84.07 289.23,84.07 C289.945,84.069 290.63,84.353 291.136,84.858 Z M305.385,87.58 C305.396,92.084 303.606,96.405 300.413,99.582 L282.5,117.495 C281.494,118.511 280.123,119.081 278.694,119.077 L273.077,119.077 L273.077,124.741 C273.077,125.915 272.693,127.056 271.983,127.992 C271.909,128.09 271.828,128.183 271.741,128.271 L269.049,130.963 C266.946,133.064 263.539,133.064 261.436,130.963 L255.139,124.663 L229.226,150.597 C228.176,151.649 226.47,151.65 225.417,150.598 C224.365,149.547 224.364,147.841 225.415,146.789 L251.346,120.858 L245.052,114.562 C244.042,113.552 243.475,112.182 243.475,110.754 C243.475,109.325 244.042,107.956 245.052,106.946 L247.745,104.253 C247.831,104.167 247.923,104.086 248.021,104.011 C248.955,103.31 250.091,102.928 251.259,102.923 L256.923,102.923 L256.923,97.303 C256.921,95.876 257.488,94.507 258.498,93.5 L276.415,75.586 C281.269,70.735 288.565,69.284 294.905,71.909 C301.245,74.534 305.381,80.718 305.385,87.58 Z M300,87.58 C300,82.895 297.178,78.67 292.849,76.876 C288.52,75.083 283.536,76.073 280.222,79.385 L262.308,97.303 L262.308,102.923 C262.308,104.351 261.74,105.721 260.731,106.731 C259.721,107.74 258.351,108.308 256.923,108.308 L251.296,108.308 L248.846,110.754 L265.242,127.154 L267.692,124.704 L267.692,119.077 C267.692,117.649 268.26,116.279 269.269,115.269 C270.279,114.26 271.649,113.692 273.077,113.692 L278.694,113.692 L296.608,95.775 C298.787,93.606 300.009,90.655 300,87.58 Z" />
        </g>
        <g id="Regular-S">
            <path d="M491.136,84.858 C491.641,85.363 491.925,86.048 491.925,86.763 C491.925,87.477 491.641,88.162 491.136,88.667 L472.289,107.513 C471.239,108.565 469.534,108.566 468.482,107.515 C467.43,106.464 467.429,104.76 468.48,103.707 L487.326,84.861 C487.83,84.355 488.515,84.07 489.23,84.07 C489.945,84.069 490.63,84.353 491.136,84.858 Z M505.385,87.58 C505.396,92.084 503.606,96.405 500.413,99.582 L482.5,117.495 C481.494,118.511 480.123,119.081 478.694,119.077 L473.077,119.077 L473.077,124.741 C473.077,125.915 472.692,127.056 471.983,127.992 C471.909,128.09 471.828,128.183 471.741,128.271 L469.049,130.963 C466.946,133.064 463.539,133.064 461.436,130.963 L455.139,124.663 L429.226,150.597 C428.176,151.649 426.47,151.65 425.417,150.598 C424.365,149.547 424.364,147.841 425.415,146.789 L451.346,120.858 L445.052,114.562 C444.042,113.552 443.475,112.182 443.475,110.754 C443.475,109.325 444.042,107.956 445.052,106.946 L447.745,104.253 C447.831,104.167 447.923,104.086 448.021,104.011 C448.955,103.31 450.091,102.928 451.259,102.923 L456.923,102.923 L456.923,97.303 C456.921,95.876 457.488,94.507 458.498,93.5 L476.415,75.586 C481.269,70.735 488.565,69.284 494.905,71.909 C501.245,74.534 505.381,80.718 505.385,87.58 Z M500,87.58 C500,82.895 497.178,78.67 492.849,76.876 C488.52,75.083 483.536,76.073 480.222,79.385 L462.308,97.303 L462.308,102.923 C462.308,104.351 461.74,105.721 460.731,106.731 C459.721,107.74 458.351,108.308 456.923,108.308 L451.296,108.308 L448.846,110.754 L465.242,127.154 L467.692,124.704 L467.692,119.077 C467.692,117.649 468.26,116.279 469.269,115.269 C470.279,114.26 471.649,113.692 473.077,113.692 L478.694,113.692 L496.608,95.775 C498.787,93.606 500.009,90.655 500,87.58 Z" />
        </g>
        <g id="Black-S">
            <path d="M691.136,84.858 C691.641,85.363 691.925,86.048 691.925,86.763 C691.925,87.477 691.641,88.162 691.136,88.667 L672.289,107.513 C671.239,108.565 669.534,108.566 668.482,107.515 C667.43,106.464 667.429,104.76 668.48,103.707 L687.326,84.861 C687.83,84.355 688.515,84.07 689.23,84.07 C689.945,84.069 690.63,84.353 691.136,84.858 Z M705.385,87.58 C705.396,92.084 703.606,96.405 700.414,99.582 L682.5,117.495 C681.494,118.511 680.123,119.081 678.694,119.077 L673.077,119.077 L673.077,124.741 C673.077,125.915 672.693,127.056 671.983,127.992 C671.909,128.09 671.828,128.183 671.741,128.271 L669.049,130.963 C666.946,133.064 663.539,133.064 661.436,130.963 L655.139,124.663 L629.226,150.597 C628.176,151.649 626.47,151.65 625.417,150.598 C624.365,149.547 624.364,147.841 625.415,146.789 L651.346,120.858 L645.052,114.562 C644.042,113.552 643.475,112.182 643.475,110.754 C643.475,109.325 644.042,107.956 645.052,106.946 L647.745,104.253 C647.831,104.167 647.923,104.086 648.021,104.011 C648.955,103.31 650.091,102.928 651.259,102.923 L656.923,102.923 L656.923,97.303 C656.921,95.876 657.488,94.507 658.498,93.5 L676.415,75.586 C681.269,70.735 688.565,69.284 694.905,71.909 C701.245,74.534 705.381,80.718 705.385,87.58 Z M700,87.58 C700,82.895 697.178,78.67 692.849,76.876 C688.52,75.083 683.536,76.073 680.222,79.385 L662.308,97.303 L662.308,102.923 C662.308,104.351 661.74,105.721 660.731,106.731 C659.721,107.74 658.351,108.308 656.923,108.308 L651.296,108.308 L648.846,110.754 L665.242,127.154 L667.692,124.704 L667.692,119.077 C667.692,117.649 668.26,116.279 669.269,115.269 C670.279,114.26 671.649,113.692 673.077,113.692 L678.694,113.692 L696.608,95.775 C698.787,93.606 700.009,90.655 700,87.58 Z" />
        </g>
    </g>
</svg>