<?xml version="1.0" encoding="UTF-8"?>
<svg height="600" width="800" xmlns="http://www.w3.org/2000/svg" xmlns:xlink="http://www.w3.org/1999/xlink">
    <g id="Notes" font-family="'LucidaGrande', 'Lucida Grande', sans-serif" font-size="13">
        <rect fill="white" height="600.0" width="800.0" x="0.0" y="0.0" />
        <g font-size="13">
            <text x="18.0" y="176.0">Small</text>
            <text x="18.0" y="376.0">Medium</text>
            <text x="18.0" y="576.0">Large</text>
        </g>
        <g font-size="9">
            <text x="250.0" y="30.0">Ultralight</text>
            <text x="450.0" y="30.0">Regular</text>
            <text x="650.0" y="30.0">Black</text>
            <text id="template-version" fill="#505050" text-anchor="end" x="785.0" y="575.0">Template v.3.0</text>
            <a href="https://github.com/swhitty/SwiftDraw">
                <text fill="#505050" text-anchor="end" x="785.0" y="590.0">https://github.com/swhitty/SwiftDraw</text>
            </a>
        </g>
    </g>
    <g id="Guides" stroke="rgb(39, 170, 225)" stroke-width="0.5">
        <path id="Capline-S" d="M18,76 l800,0" />
        <path id="H-reference" d="M85,145.755 L87.685,145.755 L113.369,79.287 L114.052,79.287 L114.052,76 L112.148,76 L85,145.755 Z M95.693,121.536 L130.996,121.536 L130.263,119.313 L96.474,119.313 L95.693,121.536 Z M139.15,145.755 L141.787,145.755 L114.638,76 L113.466,76 L113.466,79.287 L139.15,145.755 Z" stroke="none" />
        <path id="Baseline-S" d="M18,146 l800,0" />
        <path id="left-margin-Ultralight-S" d="M220,56 l0,110" />
        <path id="right-margin-Ultralight-S" d="M310,56 l0,110" />
        <path id="left-margin-Regular-S" d="M420,56 l0,110" />
        <path id="right-margin-Regular-S" d="M510,56 l0,110" />
        <path id="left-margin-Black-S" d="M620,56 l0,110" />
        <path id="right-margin-Black-S" d="M710,56 l0,110" />
        <path id="Capline-M" d="M18,276 l800,0" />
        <path id="Baseline-M" d="M18,346 l800,0" />
        <path id="Capline-L" d="M18,476 l800,0" />
        <path id="Baseline-L" d="M18,546 l800,0" />
    </g>
    <g id="Symbols">
        <g id="Ultralight-S">
            <path d="M305.385,89.462 L224.615,89.462 C223.128,89.462 221.923,90.667 221.923,92.154 C221.923,93.641 223.128,94.846 224.615,94.846 L227.308,94.846 L227.308,132.538 C227.308,134.025 228.513,135.231 230,135.231 C231.487,135.231 232.692,134.025 232.692,132.538 L232.692,116.385 L297.308,116.385 L297.308,132.538 C297.308,134.025 298.513,135.231 300,135.231 C301.487,135.231 302.692,134.025 302.692,132.538 L302.692,94.846 L305.385,94.846 C306.872,94.846 308.077,93.641 308.077,92.154 C308.077,90.667 306.872,89.462 305.385,89.462 Z M232.692,94.846 L262.308,94.846 L262.308,111 L232.692,111 Z M297.308,111 L267.692,111 L267.692,94.846 L297.308,94.846 Z M254.231,102.923 C254.231,103.637 253.947,104.322 253.442,104.827 C252.937,105.332 252.253,105.615 251.538,105.615 L243.462,105.615 C241.975,105.615 240.769,104.41 240.769,102.923 C240.769,101.436 241.975,100.231 243.462,100.231 L251.538,100.231 C252.253,100.231 252.937,100.514 253.442,101.019 C253.947,101.524 254.231,102.209 254.231,102.923 Z M275.769,102.923 C275.769,102.209 276.053,101.524 276.558,101.019 C277.063,100.514 277.747,100.231 278.462,100.231 L286.538,100.231 C288.025,100.231 289.231,101.436 289.231,102.923 C289.231,104.41 288.025,105.615 286.538,105.615 L278.462,105.615 C277.747,105.615 277.063,105.332 276.558,104.827 C276.053,104.322 275.769,103.637 275.769,102.923 Z" />
        </g>
        <g id="Regular-S">
            <path d="M505.385,89.462 L424.615,89.462 C423.128,89.462 421.923,90.667 421.923,92.154 C421.923,93.641 423.128,94.846 424.615,94.846 L427.308,94.846 L427.308,132.538 C427.308,134.025 428.513,135.231 430,135.231 C431.487,135.231 432.692,134.025 432.692,132.538 L432.692,116.385 L497.308,116.385 L497.308,132.538 C497.308,134.025 498.513,135.231 500,135.231 C501.487,135.231 502.692,134.025 502.692,132.538 L502.692,94.846 L505.385,94.846 C506.872,94.846 508.077,93.641 508.077,92.154 C508.077,90.667 506.872,89.462 505.385,89.462 Z M432.692,94.846 L462.308,94.846 L462.308,111 L432.692,111 Z M497.308,111 L467.692,111 L467.692,94.846 L497.308,94.846 Z M454.231,102.923 C454.231,103.637 453.947,104.322 453.442,104.827 C452.937,105.332 452.253,105.615 451.538,105.615 L443.462,105.615 C441.975,105.615 440.769,104.41 440.769,102.923 C440.769,101.436 441.975,100.231 443.462,100.231 L451.538,100.231 C452.253,100.231 452.937,100.514 453.442,101.019 C453.947,101.524 454.231,102.209 454.231,102.923 Z M475.769,102.923 C475.769,102.209 476.053,101.524 476.558,101.019 C477.063,100.514 477.747,100.231 478.462,100.231 L486.538,100.231 C488.025,100.231 489.231,101.436 489.231,102.923 C489.231,104.41 488.025,105.615 486.538,105.615 L478.462,105.615 C477.747,105.615 477.063,105.332 476.558,104.827 C476.053,104.322 475.769,103.637 475.769,102.923 Z" />
        </g>
        <g id="Black-S">
            <path d="M705.385,89.462 L624.615,89.462 C623.128,89.462 621.923,90.667 621.923,92.154 C621.923,93.641 623.128,94.846 624.615,94.846 L627.308,94.846 L627.308,132.538 C627.308,134.025 628.513,135.231 630,135.231 C631.487,135.231 632.692,134.025 632.692,132.538 L632.692,116.385 L697.308,116.385 L697.308,132.538 C697.308,134.025 698.513,135.231 700,135.231 C701.487,135.231 702.692,134.025 702.692,132.538 L702.692,94.846 L705.385,94.846 C706.872,94.846 708.077,93.641 708.077,92.154 C708.077,90.667 706.872,89.462 705.385,89.462 Z M632.692,94.846 L662.308,94.846 L662.308,111 L632.692,111 Z M697.308,111 L667.692,111 L667.692,94.846 L697.308,94.846 Z M654.231,102.923 C654.231,103.637 653.947,104.322 653.442,104.827 C652.937,105.332 652.253,105.615 651.538,105.615 L643.462,105.615 C641.975,105.615 640.769,104.41 640.769,102.923 C640.769,101.436 641.975,100.231 643.462,100.231 L651.538,100.231 C652.253,100.231 652.937,100.514 653.442,101.019 C653.947,101.524 654.231,102.209 654.231,102.923 Z M675.769,102.923 C675.769,102.209 676.053,101.524 676.558,101.019 C677.063,100.514 677.747,100.231 678.462,100.231 L686.538,100.231 C688.025,100.231 689.231,101.436 689.231,102.923 C689.231,104.41 688.025,105.615 686.538,105.615 L678.462,105.615 C677.747,105.615 677.063,105.332 676.558,104.827 C676.053,104.322 675.769,103.637 675.769,102.923 Z" />
        </g>
    </g>
</svg>