<?xml version="1.0" encoding="UTF-8"?>
<svg height="600" width="800" xmlns="http://www.w3.org/2000/svg" xmlns:xlink="http://www.w3.org/1999/xlink">
    <g id="Notes" font-family="'LucidaGrande', 'Lucida Grande', sans-serif" font-size="13">
        <rect fill="white" height="600.0" width="800.0" x="0.0" y="0.0" />
        <g font-size="13">
            <text x="18.0" y="176.0">Small</text>
            <text x="18.0" y="376.0">Medium</text>
            <text x="18.0" y="576.0">Large</text>
        </g>
        <g font-size="9">
            <text x="250.0" y="30.0">Ultralight</text>
            <text x="450.0" y="30.0">Regular</text>
            <text x="650.0" y="30.0">Black</text>
            <text id="template-version" fill="#505050" text-anchor="end" x="785.0" y="575.0">Template v.3.0</text>
            <a href="https://github.com/swhitty/SwiftDraw">
                <text fill="#505050" text-anchor="end" x="785.0" y="590.0">https://github.com/swhitty/SwiftDraw</text>
            </a>
        </g>
    </g>
    <g id="Guides" stroke="rgb(39, 170, 225)" stroke-width="0.5">
        <path id="Capline-S" d="M18,76 l800,0" />
        <path id="H-reference" d="M85,145.755 L87.685,145.755 L113.369,79.287 L114.052,79.287 L114.052,76 L112.148,76 L85,145.755 Z M95.693,121.536 L130.996,121.536 L130.263,119.313 L96.474,119.313 L95.693,121.536 Z M139.15,145.755 L141.787,145.755 L114.638,76 L113.466,76 L113.466,79.287 L139.15,145.755 Z" stroke="none" />
        <path id="Baseline-S" d="M18,146 l800,0" />
        <path id="left-margin-Ultralight-S" d="M220,56 l0,110" />
        <path id="right-margin-Ultralight-S" d="M310,56 l0,110" />
        <path id="left-margin-Regular-S" d="M420,56 l0,110" />
        <path id="right-margin-Regular-S" d="M510,56 l0,110" />
        <path id="left-margin-Black-S" d="M620,56 l0,110" />
        <path id="right-margin-Black-S" d="M710,56 l0,110" />
        <path id="Capline-M" d="M18,276 l800,0" />
        <path id="Baseline-M" d="M18,346 l800,0" />
        <path id="Capline-L" d="M18,476 l800,0" />
        <path id="Baseline-L" d="M18,546 l800,0" />
    </g>
    <g id="Symbols">
        <g id="Ultralight-S">
            <path d="M300,111 C300,130.33 284.33,146 265,146 C245.67,146 230,130.33 230,111 C230,97.202 238.013,84.629 250.414,78.938 C251.766,78.317 253.364,78.909 253.985,80.261 C254.606,81.612 254.014,83.21 252.663,83.831 C242.166,88.65 235.385,99.312 235.385,111 C235.385,127.356 248.644,140.615 265,140.615 C281.356,140.615 294.615,127.356 294.615,111 C294.615,99.312 287.834,88.65 277.337,83.831 C275.986,83.21 275.394,81.612 276.015,80.261 C276.636,78.909 278.234,78.317 279.586,78.938 C291.987,84.629 300,97.202 300,111 Z" />
        </g>
        <g id="Regular-S">
            <path d="M500,111 C500,130.33 484.33,146 465,146 C445.67,146 430,130.33 430,111 C430,97.202 438.013,84.629 450.414,78.938 C451.766,78.317 453.364,78.909 453.985,80.261 C454.606,81.612 454.014,83.21 452.663,83.831 C442.166,88.65 435.385,99.312 435.385,111 C435.385,127.356 448.644,140.615 465,140.615 C481.356,140.615 494.615,127.356 494.615,111 C494.615,99.312 487.834,88.65 477.337,83.831 C475.986,83.21 475.394,81.612 476.015,80.261 C476.636,78.909 478.234,78.317 479.586,78.938 C491.987,84.629 500,97.202 500,111 Z" />
        </g>
        <g id="Black-S">
            <path d="M700,111 C700,130.33 684.33,146 665,146 C645.67,146 630,130.33 630,111 C630,97.202 638.013,84.629 650.414,78.938 C651.766,78.317 653.364,78.909 653.985,80.261 C654.606,81.612 654.014,83.21 652.663,83.831 C642.166,88.65 635.385,99.312 635.385,111 C635.385,127.356 648.644,140.615 665,140.615 C681.356,140.615 694.615,127.356 694.615,111 C694.615,99.312 687.834,88.65 677.338,83.831 C675.986,83.21 675.394,81.612 676.015,80.261 C676.636,78.909 678.234,78.317 679.586,78.938 C691.987,84.629 700,97.202 700,111 Z" />
        </g>
    </g>
</svg>