<?xml version="1.0" encoding="UTF-8"?>
<svg height="600" width="800" xmlns="http://www.w3.org/2000/svg" xmlns:xlink="http://www.w3.org/1999/xlink">
    <g id="Notes" font-family="'LucidaGrande', 'Lucida Grande', sans-serif" font-size="13">
        <rect fill="white" height="600.0" width="800.0" x="0.0" y="0.0" />
        <g font-size="13">
            <text x="18.0" y="176.0">Small</text>
            <text x="18.0" y="376.0">Medium</text>
            <text x="18.0" y="576.0">Large</text>
        </g>
        <g font-size="9">
            <text x="250.0" y="30.0">Ultralight</text>
            <text x="450.0" y="30.0">Regular</text>
            <text x="650.0" y="30.0">Black</text>
            <text id="template-version" fill="#505050" text-anchor="end" x="785.0" y="575.0">Template v.3.0</text>
            <a href="https://github.com/swhitty/SwiftDraw">
                <text fill="#505050" text-anchor="end" x="785.0" y="590.0">https://github.com/swhitty/SwiftDraw</text>
            </a>
        </g>
    </g>
    <g id="Guides" stroke="rgb(39, 170, 225)" stroke-width="0.5">
        <path id="Capline-S" d="M18,76 l800,0" />
        <path id="H-reference" d="M85,145.755 L87.685,145.755 L113.369,79.287 L114.052,79.287 L114.052,76 L112.148,76 L85,145.755 Z M95.693,121.536 L130.996,121.536 L130.263,119.313 L96.474,119.313 L95.693,121.536 Z M139.15,145.755 L141.787,145.755 L114.638,76 L113.466,76 L113.466,79.287 L139.15,145.755 Z" stroke="none" />
        <path id="Baseline-S" d="M18,146 l800,0" />
        <path id="left-margin-Ultralight-S" d="M220,56 l0,110" />
        <path id="right-margin-Ultralight-S" d="M310,56 l0,110" />
        <path id="left-margin-Regular-S" d="M420,56 l0,110" />
        <path id="right-margin-Regular-S" d="M510,56 l0,110" />
        <path id="left-margin-Black-S" d="M620,56 l0,110" />
        <path id="right-margin-Black-S" d="M710,56 l0,110" />
        <path id="Capline-M" d="M18,276 l800,0" />
        <path id="Baseline-M" d="M18,346 l800,0" />
        <path id="Capline-L" d="M18,476 l800,0" />
        <path id="Baseline-L" d="M18,546 l800,0" />
    </g>
    <g id="Symbols">
        <g id="Ultralight-S">
            <path d="M294.615,78.692 L278.462,78.692 C276.975,78.692 275.769,79.898 275.769,81.385 C275.769,82.872 276.975,84.077 278.462,84.077 L288.117,84.077 L278.462,93.732 L272.289,87.56 C271.239,86.508 269.534,86.507 268.482,87.558 C267.43,88.609 267.429,90.314 268.48,91.366 L274.655,97.538 L269.351,102.842 C259.31,94.829 244.757,96.055 236.197,105.635 C227.637,115.215 228.05,129.813 237.139,138.893 C246.227,147.974 260.825,148.374 270.398,139.805 C279.97,131.237 281.183,116.683 273.161,106.649 L278.462,101.351 L284.634,107.524 C285.684,108.575 287.389,108.576 288.441,107.525 C289.493,106.475 289.494,104.77 288.443,103.718 L282.268,97.538 L291.923,87.887 L291.923,97.538 C291.923,99.025 293.128,100.231 294.615,100.231 C296.102,100.231 297.308,99.025 297.308,97.538 L297.308,81.385 C297.308,80.671 297.024,79.986 296.519,79.481 C296.014,78.976 295.329,78.692 294.615,78.692 Z M267.558,135.106 C261.201,141.464 251.239,142.446 243.763,137.453 C236.288,132.46 233.379,122.881 236.817,114.574 C240.254,106.267 249.081,101.545 257.899,103.295 C266.717,105.045 273.071,112.779 273.077,121.769 C273.077,126.771 271.092,131.568 267.557,135.106 Z" />
        </g>
        <g id="Regular-S">
            <path d="M494.615,78.692 L478.462,78.692 C476.975,78.692 475.769,79.898 475.769,81.385 C475.769,82.872 476.975,84.077 478.462,84.077 L488.117,84.077 L478.462,93.732 L472.289,87.56 C471.239,86.508 469.534,86.507 468.482,87.558 C467.43,88.609 467.429,90.314 468.48,91.366 L474.655,97.538 L469.351,102.842 C459.31,94.829 444.757,96.055 436.197,105.635 C427.637,115.215 428.05,129.813 437.139,138.893 C446.227,147.974 460.825,148.374 470.398,139.805 C479.97,131.237 481.183,116.683 473.161,106.649 L478.462,101.351 L484.634,107.524 C485.684,108.575 487.389,108.576 488.441,107.525 C489.493,106.475 489.494,104.77 488.443,103.718 L482.268,97.538 L491.923,87.887 L491.923,97.538 C491.923,99.025 493.128,100.231 494.615,100.231 C496.102,100.231 497.308,99.025 497.308,97.538 L497.308,81.385 C497.308,80.671 497.024,79.986 496.519,79.481 C496.014,78.976 495.329,78.692 494.615,78.692 Z M467.558,135.106 C461.201,141.464 451.239,142.446 443.763,137.453 C436.288,132.46 433.379,122.881 436.817,114.574 C440.254,106.267 449.081,101.545 457.899,103.295 C466.717,105.045 473.071,112.779 473.077,121.769 C473.077,126.771 471.092,131.568 467.557,135.106 Z" />
        </g>
        <g id="Black-S">
            <path d="M694.615,78.692 L678.462,78.692 C676.975,78.692 675.769,79.898 675.769,81.385 C675.769,82.872 676.975,84.077 678.462,84.077 L688.117,84.077 L678.462,93.732 L672.289,87.56 C671.239,86.508 669.534,86.507 668.482,87.558 C667.43,88.609 667.429,90.314 668.48,91.366 L674.655,97.538 L669.351,102.842 C659.31,94.829 644.757,96.055 636.197,105.635 C627.637,115.215 628.05,129.813 637.139,138.893 C646.227,147.974 660.825,148.374 670.398,139.805 C679.97,131.237 681.183,116.683 673.161,106.649 L678.462,101.351 L684.634,107.524 C685.684,108.575 687.389,108.576 688.441,107.525 C689.494,106.475 689.494,104.77 688.443,103.718 L682.268,97.538 L691.923,87.887 L691.923,97.538 C691.923,99.025 693.128,100.231 694.615,100.231 C696.102,100.231 697.308,99.025 697.308,97.538 L697.308,81.385 C697.308,80.671 697.024,79.986 696.519,79.481 C696.014,78.976 695.329,78.692 694.615,78.692 Z M667.558,135.106 C661.201,141.464 651.239,142.446 643.763,137.453 C636.288,132.46 633.379,122.881 636.817,114.574 C640.254,106.267 649.081,101.545 657.899,103.295 C666.717,105.045 673.071,112.779 673.077,121.769 C673.077,126.771 671.092,131.568 667.557,135.106 Z" />
        </g>
    </g>
</svg>