<?xml version="1.0" encoding="UTF-8"?>
<svg height="600" width="800" xmlns="http://www.w3.org/2000/svg" xmlns:xlink="http://www.w3.org/1999/xlink">
    <g id="Notes" font-family="'LucidaGrande', 'Lucida Grande', sans-serif" font-size="13">
        <rect fill="white" height="600.0" width="800.0" x="0.0" y="0.0" />
        <g font-size="13">
            <text x="18.0" y="176.0">Small</text>
            <text x="18.0" y="376.0">Medium</text>
            <text x="18.0" y="576.0">Large</text>
        </g>
        <g font-size="9">
            <text x="250.0" y="30.0">Ultralight</text>
            <text x="450.0" y="30.0">Regular</text>
            <text x="650.0" y="30.0">Black</text>
            <text id="template-version" fill="#505050" text-anchor="end" x="785.0" y="575.0">Template v.3.0</text>
            <a href="https://github.com/swhitty/SwiftDraw">
                <text fill="#505050" text-anchor="end" x="785.0" y="590.0">https://github.com/swhitty/SwiftDraw</text>
            </a>
        </g>
    </g>
    <g id="Guides" stroke="rgb(39, 170, 225)" stroke-width="0.5">
        <path id="Capline-S" d="M18,76 l800,0" />
        <path id="H-reference" d="M85,145.755 L87.685,145.755 L113.369,79.287 L114.052,79.287 L114.052,76 L112.148,76 L85,145.755 Z M95.693,121.536 L130.996,121.536 L130.263,119.313 L96.474,119.313 L95.693,121.536 Z M139.15,145.755 L141.787,145.755 L114.638,76 L113.466,76 L113.466,79.287 L139.15,145.755 Z" stroke="none" />
        <path id="Baseline-S" d="M18,146 l800,0" />
        <path id="left-margin-Ultralight-S" d="M220,56 l0,110" />
        <path id="right-margin-Ultralight-S" d="M310,56 l0,110" />
        <path id="left-margin-Regular-S" d="M420,56 l0,110" />
        <path id="right-margin-Regular-S" d="M510,56 l0,110" />
        <path id="left-margin-Black-S" d="M620,56 l0,110" />
        <path id="right-margin-Black-S" d="M710,56 l0,110" />
        <path id="Capline-M" d="M18,276 l800,0" />
        <path id="Baseline-M" d="M18,346 l800,0" />
        <path id="Capline-L" d="M18,476 l800,0" />
        <path id="Baseline-L" d="M18,546 l800,0" />
    </g>
    <g id="Symbols">
        <g id="Ultralight-S">
            <path d="M299.212,141.403 L282.362,124.556 C292.508,112.375 291.279,94.368 279.571,83.68 C267.864,72.991 249.82,73.401 238.611,84.611 C227.401,95.82 226.991,113.864 237.68,125.571 C248.368,137.279 266.375,138.508 278.556,128.362 L295.403,145.213 C296.453,146.264 298.159,146.265 299.211,145.214 C300.264,144.162 300.265,142.457 299.214,141.404 Z M235.385,105.615 C235.385,92.233 246.233,81.385 259.615,81.385 C272.998,81.385 283.846,92.233 283.846,105.615 C283.846,118.998 272.998,129.846 259.615,129.846 C246.239,129.831 235.399,118.992 235.385,105.615 Z" />
        </g>
        <g id="Regular-S">
            <path d="M499.212,141.403 L482.362,124.556 C492.508,112.375 491.279,94.368 479.571,83.68 C467.864,72.991 449.82,73.401 438.611,84.611 C427.401,95.82 426.991,113.864 437.68,125.571 C448.368,137.279 466.375,138.508 478.556,128.362 L495.403,145.213 C496.453,146.264 498.159,146.265 499.211,145.214 C500.264,144.162 500.265,142.457 499.214,141.404 Z M435.385,105.615 C435.385,92.233 446.233,81.385 459.615,81.385 C472.998,81.385 483.846,92.233 483.846,105.615 C483.846,118.998 472.998,129.846 459.615,129.846 C446.239,129.831 435.399,118.992 435.385,105.615 Z" />
        </g>
        <g id="Black-S">
            <path d="M699.213,141.403 L682.362,124.556 C692.508,112.375 691.279,94.368 679.571,83.68 C667.864,72.991 649.82,73.401 638.611,84.611 C627.401,95.82 626.991,113.864 637.68,125.571 C648.368,137.279 666.375,138.508 678.556,128.362 L695.403,145.213 C696.453,146.264 698.159,146.265 699.211,145.214 C700.264,144.162 700.265,142.457 699.214,141.404 Z M635.385,105.615 C635.385,92.233 646.233,81.385 659.615,81.385 C672.998,81.385 683.846,92.233 683.846,105.615 C683.846,118.998 672.998,129.846 659.615,129.846 C646.239,129.831 635.399,118.992 635.385,105.615 Z" />
        </g>
    </g>
</svg>