<?xml version="1.0" encoding="UTF-8"?>
<svg height="600" width="800" xmlns="http://www.w3.org/2000/svg" xmlns:xlink="http://www.w3.org/1999/xlink">
    <g id="Notes" font-family="'LucidaGrande', 'Lucida Grande', sans-serif" font-size="13">
        <rect fill="white" height="600.0" width="800.0" x="0.0" y="0.0" />
        <g font-size="13">
            <text x="18.0" y="176.0">Small</text>
            <text x="18.0" y="376.0">Medium</text>
            <text x="18.0" y="576.0">Large</text>
        </g>
        <g font-size="9">
            <text x="250.0" y="30.0">Ultralight</text>
            <text x="450.0" y="30.0">Regular</text>
            <text x="650.0" y="30.0">Black</text>
            <text id="template-version" fill="#505050" text-anchor="end" x="785.0" y="575.0">Template v.3.0</text>
            <a href="https://github.com/swhitty/SwiftDraw">
                <text fill="#505050" text-anchor="end" x="785.0" y="590.0">https://github.com/swhitty/SwiftDraw</text>
            </a>
        </g>
    </g>
    <g id="Guides" stroke="rgb(39, 170, 225)" stroke-width="0.5">
        <path id="Capline-S" d="M18,76 l800,0" />
        <path id="H-reference" d="M85,145.755 L87.685,145.755 L113.369,79.287 L114.052,79.287 L114.052,76 L112.148,76 L85,145.755 Z M95.693,121.536 L130.996,121.536 L130.263,119.313 L96.474,119.313 L95.693,121.536 Z M139.15,145.755 L141.787,145.755 L114.638,76 L113.466,76 L113.466,79.287 L139.15,145.755 Z" stroke="none" />
        <path id="Baseline-S" d="M18,146 l800,0" />
        <path id="left-margin-Ultralight-S" d="M220,56 l0,110" />
        <path id="right-margin-Ultralight-S" d="M310,56 l0,110" />
        <path id="left-margin-Regular-S" d="M420,56 l0,110" />
        <path id="right-margin-Regular-S" d="M510,56 l0,110" />
        <path id="left-margin-Black-S" d="M620,56 l0,110" />
        <path id="right-margin-Black-S" d="M710,56 l0,110" />
        <path id="Capline-M" d="M18,276 l800,0" />
        <path id="Baseline-M" d="M18,346 l800,0" />
        <path id="Capline-L" d="M18,476 l800,0" />
        <path id="Baseline-L" d="M18,546 l800,0" />
    </g>
    <g id="Symbols">
        <g id="Ultralight-S">
            <path d="M302.632,106.352 L246.154,74.035 C244.478,73.057 242.405,73.057 240.729,74.035 C239.077,74.982 238.064,76.745 238.077,78.649 L238.077,143.351 C238.071,145.253 239.09,147.011 240.742,147.952 C242.419,148.929 244.491,148.929 246.167,147.952 L302.632,115.644 C304.329,114.714 305.384,112.932 305.384,110.997 C305.384,109.061 304.329,107.28 302.632,106.349 Z M243.462,139.495 L243.462,82.505 L271.963,111 Z M275.769,114.806 L282.137,121.174 L252.353,138.223 Z M252.346,83.774 L282.14,100.826 L275.769,107.194 Z M286.979,118.404 L279.576,111 L286.979,103.596 L299.913,111 Z" />
        </g>
        <g id="Regular-S">
            <path d="M502.632,106.352 L446.154,74.035 C444.478,73.057 442.405,73.057 440.729,74.035 C439.077,74.982 438.064,76.745 438.077,78.649 L438.077,143.351 C438.071,145.253 439.09,147.011 440.742,147.952 C442.418,148.929 444.491,148.929 446.167,147.952 L502.632,115.644 C504.329,114.714 505.384,112.932 505.384,110.997 C505.384,109.061 504.329,107.28 502.632,106.349 Z M443.462,139.495 L443.462,82.505 L471.963,111 Z M475.769,114.806 L482.137,121.174 L452.353,138.223 Z M452.346,83.774 L482.14,100.826 L475.769,107.194 Z M486.979,118.404 L479.575,111 L486.979,103.596 L499.912,111 Z" />
        </g>
        <g id="Black-S">
            <path d="M702.632,106.352 L646.154,74.035 C644.478,73.057 642.405,73.057 640.729,74.035 C639.077,74.982 638.064,76.745 638.077,78.649 L638.077,143.351 C638.071,145.253 639.09,147.011 640.742,147.952 C642.419,148.929 644.491,148.929 646.167,147.952 L702.632,115.644 C704.329,114.714 705.384,112.932 705.384,110.997 C705.384,109.061 704.329,107.28 702.632,106.349 Z M643.462,139.495 L643.462,82.505 L671.963,111 Z M675.769,114.806 L682.137,121.174 L652.353,138.223 Z M652.346,83.774 L682.14,100.826 L675.769,107.194 Z M686.979,118.404 L679.576,111 L686.979,103.596 L699.913,111 Z" />
        </g>
    </g>
</svg>