<?xml version="1.0" encoding="UTF-8"?>
<svg height="600" width="800" xmlns="http://www.w3.org/2000/svg" xmlns:xlink="http://www.w3.org/1999/xlink">
    <g id="Notes" font-family="'LucidaGrande', 'Lucida Grande', sans-serif" font-size="13">
        <rect fill="white" height="600.0" width="800.0" x="0.0" y="0.0" />
        <g font-size="13">
            <text x="18.0" y="176.0">Small</text>
            <text x="18.0" y="376.0">Medium</text>
            <text x="18.0" y="576.0">Large</text>
        </g>
        <g font-size="9">
            <text x="250.0" y="30.0">Ultralight</text>
            <text x="450.0" y="30.0">Regular</text>
            <text x="650.0" y="30.0">Black</text>
            <text id="template-version" fill="#505050" text-anchor="end" x="785.0" y="575.0">Template v.3.0</text>
            <a href="https://github.com/swhitty/SwiftDraw">
                <text fill="#505050" text-anchor="end" x="785.0" y="590.0">https://github.com/swhitty/SwiftDraw</text>
            </a>
        </g>
    </g>
    <g id="Guides" stroke="rgb(39, 170, 225)" stroke-width="0.5">
        <path id="Capline-S" d="M18,76 l800,0" />
        <path id="H-reference" d="M85,145.755 L87.685,145.755 L113.369,79.287 L114.052,79.287 L114.052,76 L112.148,76 L85,145.755 Z M95.693,121.536 L130.996,121.536 L130.263,119.313 L96.474,119.313 L95.693,121.536 Z M139.15,145.755 L141.787,145.755 L114.638,76 L113.466,76 L113.466,79.287 L139.15,145.755 Z" stroke="none" />
        <path id="Baseline-S" d="M18,146 l800,0" />
        <path id="left-margin-Ultralight-S" d="M220,56 l0,110" />
        <path id="right-margin-Ultralight-S" d="M310,56 l0,110" />
        <path id="left-margin-Regular-S" d="M420,56 l0,110" />
        <path id="right-margin-Regular-S" d="M510,56 l0,110" />
        <path id="left-margin-Black-S" d="M620,56 l0,110" />
        <path id="right-margin-Black-S" d="M710,56 l0,110" />
        <path id="Capline-M" d="M18,276 l800,0" />
        <path id="Baseline-M" d="M18,346 l800,0" />
        <path id="Capline-L" d="M18,476 l800,0" />
        <path id="Baseline-L" d="M18,546 l800,0" />
    </g>
    <g id="Symbols">
        <g id="Ultralight-S">
            <path d="M277.674,102.136 L268.806,111 L277.674,119.864 C278.727,120.918 278.726,122.624 277.673,123.675 C276.62,124.727 274.915,124.726 273.863,123.673 L265,114.806 L256.136,123.674 C255.085,124.726 253.38,124.727 252.327,123.675 C251.274,122.624 251.273,120.918 252.325,119.865 L261.194,111 L252.326,102.136 C251.273,101.082 251.274,99.376 252.327,98.325 C253.38,97.273 255.085,97.274 256.137,98.327 L265,107.194 L273.864,98.326 C274.915,97.274 276.62,97.273 277.673,98.325 C278.726,99.376 278.727,101.082 277.675,102.135 Z M300,111 C300,130.33 284.33,146 265,146 C245.67,146 230,130.33 230,111 C230,91.67 245.67,76 265,76 C284.322,76.02 299.98,91.678 300,111 Z M294.615,111 C294.615,94.644 281.356,81.385 265,81.385 C248.644,81.385 235.385,94.644 235.385,111 C235.385,127.356 248.644,140.615 265,140.615 C281.348,140.597 294.597,127.348 294.615,111 Z" />
        </g>
        <g id="Regular-S">
            <path d="M477.674,102.136 L468.806,111 L477.674,119.864 C478.727,120.918 478.726,122.624 477.673,123.675 C476.62,124.727 474.915,124.726 473.863,123.673 L465,114.806 L456.136,123.674 C455.085,124.726 453.38,124.727 452.327,123.675 C451.274,122.624 451.273,120.918 452.325,119.865 L461.194,111 L452.326,102.136 C451.273,101.082 451.274,99.376 452.327,98.325 C453.38,97.273 455.085,97.274 456.137,98.327 L465,107.194 L473.864,98.326 C474.915,97.274 476.62,97.273 477.673,98.325 C478.726,99.376 478.727,101.082 477.675,102.135 Z M500,111 C500,130.33 484.33,146 465,146 C445.67,146 430,130.33 430,111 C430,91.67 445.67,76 465,76 C484.321,76.02 499.98,91.678 500,111 Z M494.615,111 C494.615,94.644 481.356,81.385 465,81.385 C448.644,81.385 435.385,94.644 435.385,111 C435.385,127.356 448.644,140.615 465,140.615 C481.348,140.597 494.597,127.348 494.615,111 Z" />
        </g>
        <g id="Black-S">
            <path d="M677.674,102.136 L668.806,111 L677.674,119.864 C678.727,120.918 678.726,122.624 677.673,123.675 C676.62,124.727 674.915,124.726 673.863,123.673 L665,114.806 L656.136,123.674 C655.085,124.726 653.38,124.727 652.327,123.675 C651.274,122.624 651.273,120.918 652.325,119.865 L661.194,111 L652.326,102.136 C651.273,101.082 651.274,99.376 652.327,98.325 C653.38,97.273 655.085,97.274 656.137,98.327 L665,107.194 L673.864,98.326 C674.915,97.274 676.62,97.273 677.673,98.325 C678.726,99.376 678.727,101.082 677.675,102.135 Z M700,111 C700,130.33 684.33,146 665,146 C645.67,146 630,130.33 630,111 C630,91.67 645.67,76 665,76 C684.322,76.02 699.98,91.678 700,111 Z M694.615,111 C694.615,94.644 681.356,81.385 665,81.385 C648.644,81.385 635.385,94.644 635.385,111 C635.385,127.356 648.644,140.615 665,140.615 C681.348,140.597 694.597,127.348 694.615,111 Z" />
        </g>
    </g>
</svg>