<?xml version="1.0" encoding="UTF-8"?>
<svg height="600" width="800" xmlns="http://www.w3.org/2000/svg" xmlns:xlink="http://www.w3.org/1999/xlink">
    <g id="Notes" font-family="'LucidaGrande', 'Lucida Grande', sans-serif" font-size="13">
        <rect fill="white" height="600.0" width="800.0" x="0.0" y="0.0" />
        <g font-size="13">
            <text x="18.0" y="176.0">Small</text>
            <text x="18.0" y="376.0">Medium</text>
            <text x="18.0" y="576.0">Large</text>
        </g>
        <g font-size="9">
            <text x="250.0" y="30.0">Ultralight</text>
            <text x="450.0" y="30.0">Regular</text>
            <text x="650.0" y="30.0">Black</text>
            <text id="template-version" fill="#505050" text-anchor="end" x="785.0" y="575.0">Template v.3.0</text>
            <a href="https://github.com/swhitty/SwiftDraw">
                <text fill="#505050" text-anchor="end" x="785.0" y="590.0">https://github.com/swhitty/SwiftDraw</text>
            </a>
        </g>
    </g>
    <g id="Guides" stroke="rgb(39, 170, 225)" stroke-width="0.5">
        <path id="Capline-S" d="M18,76 l800,0" />
        <path id="H-reference" d="M85,145.755 L87.685,145.755 L113.369,79.287 L114.052,79.287 L114.052,76 L112.148,76 L85,145.755 Z M95.693,121.536 L130.996,121.536 L130.263,119.313 L96.474,119.313 L95.693,121.536 Z M139.15,145.755 L141.787,145.755 L114.638,76 L113.466,76 L113.466,79.287 L139.15,145.755 Z" stroke="none" />
        <path id="Baseline-S" d="M18,146 l800,0" />
        <path id="left-margin-Ultralight-S" d="M220,56 l0,110" />
        <path id="right-margin-Ultralight-S" d="M310,56 l0,110" />
        <path id="left-margin-Regular-S" d="M420,56 l0,110" />
        <path id="right-margin-Regular-S" d="M510,56 l0,110" />
        <path id="left-margin-Black-S" d="M620,56 l0,110" />
        <path id="right-margin-Black-S" d="M710,56 l0,110" />
        <path id="Capline-M" d="M18,276 l800,0" />
        <path id="Baseline-M" d="M18,346 l800,0" />
        <path id="Capline-L" d="M18,476 l800,0" />
        <path id="Baseline-L" d="M18,546 l800,0" />
    </g>
    <g id="Symbols">
        <g id="Ultralight-S">
            <path d="M297.308,100.5 L297.308,100.231 C297.297,89.828 288.866,81.396 278.462,81.385 L275.77,81.385 C274.342,81.385 272.972,81.952 271.962,82.962 C270.953,83.972 270.385,85.341 270.385,86.769 L270.385,127.154 L265,127.154 L265,92.154 C265,91.44 264.716,90.755 264.211,90.25 C263.707,89.745 263.022,89.462 262.308,89.462 L227.308,89.462 C225.88,89.462 224.51,90.029 223.5,91.039 C222.49,92.048 221.923,93.418 221.923,94.846 L221.923,129.846 C221.928,134.322 224.702,138.329 228.89,139.91 C233.079,141.49 237.808,140.315 240.769,136.957 C243.403,139.95 247.475,141.243 251.353,140.317 C255.231,139.391 258.281,136.398 259.279,132.538 L286.875,132.538 C288.222,137.8 293.276,141.235 298.664,140.551 C304.052,139.867 308.088,135.277 308.077,129.846 L308.077,113.692 C308.069,107.297 303.571,101.788 297.307,100.5 Z M275.769,86.769 L278.462,86.769 C282.032,86.769 285.456,88.188 287.98,90.712 C290.505,93.237 291.923,96.661 291.923,100.231 L291.923,102.923 C291.923,103.637 292.207,104.322 292.712,104.827 C293.217,105.332 293.901,105.615 294.615,105.615 C296.758,105.615 298.812,106.466 300.327,107.981 C301.841,109.496 302.692,111.55 302.692,113.692 L302.692,120.527 C301.058,119.575 299.199,119.075 297.308,119.077 C292.397,119.082 288.109,122.401 286.875,127.154 L275.769,127.154 Z M259.615,94.846 L259.615,127.154 L259.279,127.154 C258.28,123.294 255.231,120.302 251.353,119.376 C247.476,118.45 243.404,119.743 240.769,122.735 C237.386,118.877 231.746,117.951 227.308,120.527 L227.308,94.846 Z M232.692,135.231 C229.718,135.231 227.308,132.82 227.308,129.846 C227.308,126.872 229.718,124.462 232.692,124.462 C235.666,124.462 238.077,126.872 238.077,129.846 C238.077,131.274 237.51,132.644 236.5,133.654 C235.49,134.663 234.12,135.231 232.692,135.231 Z M248.846,135.231 C245.872,135.231 243.462,132.82 243.462,129.846 C243.462,126.872 245.872,124.462 248.846,124.462 C251.82,124.462 254.231,126.872 254.231,129.846 C254.231,131.274 253.663,132.644 252.654,133.654 C251.644,134.663 250.274,135.231 248.846,135.231 Z M297.308,135.231 C294.334,135.231 291.923,132.82 291.923,129.846 C291.923,126.872 294.334,124.462 297.308,124.462 C300.282,124.462 302.692,126.872 302.692,129.846 C302.692,131.274 302.125,132.644 301.115,133.654 C300.105,134.663 298.736,135.231 297.308,135.231 Z" />
        </g>
        <g id="Regular-S">
            <path d="M497.308,100.5 L497.308,100.231 C497.297,89.828 488.866,81.396 478.462,81.385 L475.77,81.385 C474.342,81.385 472.972,81.952 471.962,82.962 C470.953,83.972 470.385,85.341 470.385,86.769 L470.385,127.154 L465,127.154 L465,92.154 C465,91.44 464.716,90.755 464.211,90.25 C463.707,89.745 463.022,89.462 462.308,89.462 L427.308,89.462 C425.88,89.462 424.51,90.029 423.5,91.039 C422.49,92.048 421.923,93.418 421.923,94.846 L421.923,129.846 C421.928,134.322 424.702,138.329 428.89,139.91 C433.078,141.49 437.808,140.315 440.769,136.957 C443.403,139.95 447.475,141.243 451.353,140.317 C455.231,139.391 458.281,136.398 459.279,132.538 L486.875,132.538 C488.222,137.8 493.276,141.235 498.664,140.551 C504.052,139.867 508.088,135.277 508.077,129.846 L508.077,113.692 C508.069,107.297 503.571,101.788 497.307,100.5 Z M475.769,86.769 L478.462,86.769 C482.032,86.769 485.456,88.188 487.98,90.712 C490.505,93.237 491.923,96.661 491.923,100.231 L491.923,102.923 C491.923,103.637 492.207,104.322 492.712,104.827 C493.217,105.332 493.901,105.615 494.615,105.615 C496.758,105.615 498.812,106.466 500.327,107.981 C501.841,109.496 502.692,111.55 502.692,113.692 L502.692,120.527 C501.058,119.575 499.199,119.075 497.308,119.077 C492.397,119.082 488.109,122.401 486.875,127.154 L475.769,127.154 Z M459.615,94.846 L459.615,127.154 L459.279,127.154 C458.28,123.294 455.231,120.302 451.353,119.376 C447.476,118.45 443.404,119.743 440.769,122.735 C437.386,118.877 431.746,117.951 427.308,120.527 L427.308,94.846 Z M432.692,135.231 C429.718,135.231 427.308,132.82 427.308,129.846 C427.308,126.872 429.718,124.462 432.692,124.462 C435.666,124.462 438.077,126.872 438.077,129.846 C438.077,131.274 437.51,132.644 436.5,133.654 C435.49,134.663 434.12,135.231 432.692,135.231 Z M448.846,135.231 C445.872,135.231 443.462,132.82 443.462,129.846 C443.462,126.872 445.872,124.462 448.846,124.462 C451.82,124.462 454.231,126.872 454.231,129.846 C454.231,131.274 453.663,132.644 452.654,133.654 C451.644,134.663 450.274,135.231 448.846,135.231 Z M497.308,135.231 C494.334,135.231 491.923,132.82 491.923,129.846 C491.923,126.872 494.334,124.462 497.308,124.462 C500.282,124.462 502.692,126.872 502.692,129.846 C502.692,131.274 502.125,132.644 501.115,133.654 C500.105,134.663 498.736,135.231 497.308,135.231 Z" />
        </g>
        <g id="Black-S">
            <path d="M697.308,100.5 L697.308,100.231 C697.297,89.828 688.866,81.396 678.462,81.385 L675.77,81.385 C674.342,81.385 672.972,81.952 671.962,82.962 C670.953,83.972 670.385,85.341 670.385,86.769 L670.385,127.154 L665,127.154 L665,92.154 C665,91.44 664.716,90.755 664.211,90.25 C663.707,89.745 663.022,89.462 662.308,89.462 L627.308,89.462 C625.88,89.462 624.51,90.029 623.5,91.039 C622.49,92.048 621.923,93.418 621.923,94.846 L621.923,129.846 C621.928,134.322 624.702,138.329 628.89,139.91 C633.079,141.49 637.808,140.315 640.769,136.957 C643.403,139.95 647.475,141.243 651.353,140.317 C655.231,139.391 658.281,136.398 659.279,132.538 L686.875,132.538 C688.222,137.8 693.276,141.235 698.664,140.551 C704.052,139.867 708.088,135.277 708.077,129.846 L708.077,113.692 C708.069,107.297 703.571,101.788 697.307,100.5 Z M675.769,86.769 L678.462,86.769 C682.032,86.769 685.456,88.188 687.98,90.712 C690.505,93.237 691.923,96.661 691.923,100.231 L691.923,102.923 C691.923,103.637 692.207,104.322 692.712,104.827 C693.217,105.332 693.901,105.615 694.615,105.615 C696.758,105.615 698.812,106.466 700.327,107.981 C701.841,109.496 702.692,111.55 702.692,113.692 L702.692,120.527 C701.058,119.575 699.199,119.075 697.308,119.077 C692.397,119.082 688.109,122.401 686.875,127.154 L675.769,127.154 Z M659.615,94.846 L659.615,127.154 L659.279,127.154 C658.28,123.294 655.231,120.302 651.353,119.376 C647.476,118.45 643.404,119.743 640.769,122.735 C637.386,118.877 631.746,117.951 627.308,120.527 L627.308,94.846 Z M632.692,135.231 C629.719,135.231 627.308,132.82 627.308,129.846 C627.308,126.872 629.719,124.462 632.692,124.462 C635.666,124.462 638.077,126.872 638.077,129.846 C638.077,131.274 637.51,132.644 636.5,133.654 C635.49,134.663 634.12,135.231 632.692,135.231 Z M648.846,135.231 C645.872,135.231 643.462,132.82 643.462,129.846 C643.462,126.872 645.872,124.462 648.846,124.462 C651.82,124.462 654.231,126.872 654.231,129.846 C654.231,131.274 653.663,132.644 652.654,133.654 C651.644,134.663 650.274,135.231 648.846,135.231 Z M697.308,135.231 C694.334,135.231 691.923,132.82 691.923,129.846 C691.923,126.872 694.334,124.462 697.308,124.462 C700.282,124.462 702.692,126.872 702.692,129.846 C702.692,131.274 702.125,132.644 701.115,133.654 C700.105,134.663 698.736,135.231 697.308,135.231 Z" />
        </g>
    </g>
</svg>