<?xml version="1.0" encoding="UTF-8"?>
<svg height="600" width="800" xmlns="http://www.w3.org/2000/svg" xmlns:xlink="http://www.w3.org/1999/xlink">
    <g id="Notes" font-family="'LucidaGrande', 'Lucida Grande', sans-serif" font-size="13">
        <rect fill="white" height="600.0" width="800.0" x="0.0" y="0.0" />
        <g font-size="13">
            <text x="18.0" y="176.0">Small</text>
            <text x="18.0" y="376.0">Medium</text>
            <text x="18.0" y="576.0">Large</text>
        </g>
        <g font-size="9">
            <text x="250.0" y="30.0">Ultralight</text>
            <text x="450.0" y="30.0">Regular</text>
            <text x="650.0" y="30.0">Black</text>
            <text id="template-version" fill="#505050" text-anchor="end" x="785.0" y="575.0">Template v.3.0</text>
            <a href="https://github.com/swhitty/SwiftDraw">
                <text fill="#505050" text-anchor="end" x="785.0" y="590.0">https://github.com/swhitty/SwiftDraw</text>
            </a>
        </g>
    </g>
    <g id="Guides" stroke="rgb(39, 170, 225)" stroke-width="0.5">
        <path id="Capline-S" d="M18,76 l800,0" />
        <path id="H-reference" d="M85,145.755 L87.685,145.755 L113.369,79.287 L114.052,79.287 L114.052,76 L112.148,76 L85,145.755 Z M95.693,121.536 L130.996,121.536 L130.263,119.313 L96.474,119.313 L95.693,121.536 Z M139.15,145.755 L141.787,145.755 L114.638,76 L113.466,76 L113.466,79.287 L139.15,145.755 Z" stroke="none" />
        <path id="Baseline-S" d="M18,146 l800,0" />
        <path id="left-margin-Ultralight-S" d="M220,56 l0,110" />
        <path id="right-margin-Ultralight-S" d="M310,56 l0,110" />
        <path id="left-margin-Regular-S" d="M420,56 l0,110" />
        <path id="right-margin-Regular-S" d="M510,56 l0,110" />
        <path id="left-margin-Black-S" d="M620,56 l0,110" />
        <path id="right-margin-Black-S" d="M710,56 l0,110" />
        <path id="Capline-M" d="M18,276 l800,0" />
        <path id="Baseline-M" d="M18,346 l800,0" />
        <path id="Capline-L" d="M18,476 l800,0" />
        <path id="Baseline-L" d="M18,546 l800,0" />
    </g>
    <g id="Symbols">
        <g id="Ultralight-S">
            <path d="M270.385,84.077 L270.385,137.923 C270.385,139.41 269.179,140.615 267.692,140.615 C266.205,140.615 265,139.41 265,137.923 L265,88.832 L255.617,94.463 C254.343,95.228 252.688,94.816 251.922,93.541 C251.156,92.266 251.569,90.611 252.844,89.845 L266.305,81.768 C267.137,81.269 268.174,81.255 269.018,81.733 C269.863,82.211 270.385,83.106 270.385,84.077 Z" />
        </g>
        <g id="Regular-S">
            <path d="M470.385,84.077 L470.385,137.923 C470.385,139.41 469.179,140.615 467.692,140.615 C466.205,140.615 465,139.41 465,137.923 L465,88.832 L455.617,94.463 C454.343,95.228 452.688,94.816 451.922,93.541 C451.156,92.266 451.569,90.611 452.844,89.845 L466.305,81.768 C467.137,81.269 468.174,81.255 469.018,81.733 C469.863,82.211 470.385,83.106 470.385,84.077 Z" />
        </g>
        <g id="Black-S">
            <path d="M670.385,84.077 L670.385,137.923 C670.385,139.41 669.179,140.615 667.692,140.615 C666.205,140.615 665,139.41 665,137.923 L665,88.832 L655.617,94.463 C654.343,95.228 652.688,94.816 651.922,93.541 C651.156,92.266 651.569,90.611 652.844,89.845 L666.305,81.768 C667.137,81.269 668.174,81.255 669.018,81.733 C669.863,82.211 670.385,83.106 670.385,84.077 Z" />
        </g>
    </g>
</svg>