<?xml version="1.0" encoding="UTF-8"?>
<svg height="600" width="800" xmlns="http://www.w3.org/2000/svg" xmlns:xlink="http://www.w3.org/1999/xlink">
    <g id="Notes" font-family="'LucidaGrande', 'Lucida Grande', sans-serif" font-size="13">
        <rect fill="white" height="600.0" width="800.0" x="0.0" y="0.0" />
        <g font-size="13">
            <text x="18.0" y="176.0">Small</text>
            <text x="18.0" y="376.0">Medium</text>
            <text x="18.0" y="576.0">Large</text>
        </g>
        <g font-size="9">
            <text x="250.0" y="30.0">Ultralight</text>
            <text x="450.0" y="30.0">Regular</text>
            <text x="650.0" y="30.0">Black</text>
            <text id="template-version" fill="#505050" text-anchor="end" x="785.0" y="575.0">Template v.3.0</text>
            <a href="https://github.com/swhitty/SwiftDraw">
                <text fill="#505050" text-anchor="end" x="785.0" y="590.0">https://github.com/swhitty/SwiftDraw</text>
            </a>
        </g>
    </g>
    <g id="Guides" stroke="rgb(39, 170, 225)" stroke-width="0.5">
        <path id="Capline-S" d="M18,76 l800,0" />
        <path id="H-reference" d="M85,145.755 L87.685,145.755 L113.369,79.287 L114.052,79.287 L114.052,76 L112.148,76 L85,145.755 Z M95.693,121.536 L130.996,121.536 L130.263,119.313 L96.474,119.313 L95.693,121.536 Z M139.15,145.755 L141.787,145.755 L114.638,76 L113.466,76 L113.466,79.287 L139.15,145.755 Z" stroke="none" />
        <path id="Baseline-S" d="M18,146 l800,0" />
        <path id="left-margin-Ultralight-S" d="M220,56 l0,110" />
        <path id="right-margin-Ultralight-S" d="M310,56 l0,110" />
        <path id="left-margin-Regular-S" d="M420,56 l0,110" />
        <path id="right-margin-Regular-S" d="M510,56 l0,110" />
        <path id="left-margin-Black-S" d="M620,56 l0,110" />
        <path id="right-margin-Black-S" d="M710,56 l0,110" />
        <path id="Capline-M" d="M18,276 l800,0" />
        <path id="Baseline-M" d="M18,346 l800,0" />
        <path id="Capline-L" d="M18,476 l800,0" />
        <path id="Baseline-L" d="M18,546 l800,0" />
    </g>
    <g id="Symbols">
        <g id="Ultralight-S">
            <path d="M294.615,78.692 L278.462,78.692 C276.975,78.692 275.769,79.898 275.769,81.385 C275.769,82.872 276.975,84.077 278.462,84.077 L288.117,84.077 L273.959,98.235 C262.852,89.156 246.577,90.381 236.953,101.019 C227.33,111.658 227.738,127.974 237.882,138.118 C248.026,148.262 264.342,148.67 274.981,139.047 C285.619,129.423 286.844,113.148 277.765,102.041 L291.923,87.887 L291.923,97.538 C291.923,99.025 293.128,100.231 294.615,100.231 C296.102,100.231 297.308,99.025 297.308,97.538 L297.308,81.385 C297.308,80.671 297.024,79.986 296.519,79.481 C296.014,78.976 295.329,78.692 294.615,78.692 Z M272.148,134.319 C263.736,142.727 250.1,142.725 241.69,134.314 C233.281,125.903 233.281,112.268 241.69,103.856 C250.1,95.445 263.736,95.443 272.148,103.852 C280.545,112.272 280.545,125.899 272.148,134.319 Z" />
        </g>
        <g id="Regular-S">
            <path d="M494.615,78.692 L478.462,78.692 C476.975,78.692 475.769,79.898 475.769,81.385 C475.769,82.872 476.975,84.077 478.462,84.077 L488.117,84.077 L473.959,98.235 C462.852,89.156 446.577,90.381 436.953,101.019 C427.33,111.658 427.738,127.974 437.882,138.118 C448.026,148.262 464.342,148.67 474.981,139.047 C485.619,129.423 486.844,113.148 477.765,102.041 L491.923,87.887 L491.923,97.538 C491.923,99.025 493.128,100.231 494.615,100.231 C496.102,100.231 497.308,99.025 497.308,97.538 L497.308,81.385 C497.308,80.671 497.024,79.986 496.519,79.481 C496.014,78.976 495.329,78.692 494.615,78.692 Z M472.148,134.319 C463.736,142.727 450.1,142.725 441.69,134.314 C433.281,125.903 433.281,112.268 441.69,103.856 C450.1,95.445 463.736,95.443 472.148,103.852 C480.545,112.272 480.545,125.899 472.148,134.319 Z" />
        </g>
        <g id="Black-S">
            <path d="M694.615,78.692 L678.462,78.692 C676.975,78.692 675.769,79.898 675.769,81.385 C675.769,82.872 676.975,84.077 678.462,84.077 L688.117,84.077 L673.959,98.235 C662.852,89.156 646.577,90.381 636.953,101.019 C627.33,111.658 627.738,127.974 637.882,138.118 C648.026,148.262 664.342,148.67 674.981,139.047 C685.619,129.423 686.844,113.148 677.765,102.041 L691.923,87.887 L691.923,97.538 C691.923,99.025 693.128,100.231 694.615,100.231 C696.102,100.231 697.308,99.025 697.308,97.538 L697.308,81.385 C697.308,80.671 697.024,79.986 696.519,79.481 C696.014,78.976 695.329,78.692 694.615,78.692 Z M672.148,134.319 C663.736,142.727 650.1,142.725 641.69,134.314 C633.281,125.903 633.281,112.268 641.69,103.856 C650.1,95.445 663.736,95.443 672.148,103.852 C680.545,112.272 680.545,125.899 672.148,134.319 Z" />
        </g>
    </g>
</svg>