<?xml version="1.0" encoding="UTF-8"?>
<svg height="600" width="800" xmlns="http://www.w3.org/2000/svg" xmlns:xlink="http://www.w3.org/1999/xlink">
    <g id="Notes" font-family="'LucidaGrande', 'Lucida Grande', sans-serif" font-size="13">
        <rect fill="white" height="600.0" width="800.0" x="0.0" y="0.0" />
        <g font-size="13">
            <text x="18.0" y="176.0">Small</text>
            <text x="18.0" y="376.0">Medium</text>
            <text x="18.0" y="576.0">Large</text>
        </g>
        <g font-size="9">
            <text x="250.0" y="30.0">Ultralight</text>
            <text x="450.0" y="30.0">Regular</text>
            <text x="650.0" y="30.0">Black</text>
            <text id="template-version" fill="#505050" text-anchor="end" x="785.0" y="575.0">Template v.3.0</text>
            <a href="https://github.com/swhitty/SwiftDraw">
                <text fill="#505050" text-anchor="end" x="785.0" y="590.0">https://github.com/swhitty/SwiftDraw</text>
            </a>
        </g>
    </g>
    <g id="Guides" stroke="rgb(39, 170, 225)" stroke-width="0.5">
        <path id="Capline-S" d="M18,76 l800,0" />
        <path id="H-reference" d="M85,145.755 L87.685,145.755 L113.369,79.287 L114.052,79.287 L114.052,76 L112.148,76 L85,145.755 Z M95.693,121.536 L130.996,121.536 L130.263,119.313 L96.474,119.313 L95.693,121.536 Z M139.15,145.755 L141.787,145.755 L114.638,76 L113.466,76 L113.466,79.287 L139.15,145.755 Z" stroke="none" />
        <path id="Baseline-S" d="M18,146 l800,0" />
        <path id="left-margin-Ultralight-S" d="M220,56 l0,110" />
        <path id="right-margin-Ultralight-S" d="M310,56 l0,110" />
        <path id="left-margin-Regular-S" d="M420,56 l0,110" />
        <path id="right-margin-Regular-S" d="M510,56 l0,110" />
        <path id="left-margin-Black-S" d="M620,56 l0,110" />
        <path id="right-margin-Black-S" d="M710,56 l0,110" />
        <path id="Capline-M" d="M18,276 l800,0" />
        <path id="Baseline-M" d="M18,346 l800,0" />
        <path id="Capline-L" d="M18,476 l800,0" />
        <path id="Baseline-L" d="M18,546 l800,0" />
    </g>
    <g id="Symbols">
        <g id="Ultralight-S">
            <path d="M305.385,109.654 C305.378,102.376 301.188,95.749 294.616,92.622 L294.616,92.154 C294.609,85.031 289.938,78.753 283.118,76.7 C276.297,74.647 268.937,77.304 265,83.239 C261.063,77.303 253.703,74.647 246.882,76.7 C240.062,78.753 235.391,85.031 235.385,92.154 L235.385,92.622 C228.806,95.741 224.613,102.37 224.613,109.65 C224.613,116.931 228.806,123.56 235.385,126.679 L235.385,127.154 C235.391,134.277 240.062,140.555 246.882,142.608 C253.703,144.661 261.063,142.004 265,136.069 C268.937,142.004 276.297,144.66 283.118,142.607 C289.938,140.554 294.609,134.276 294.615,127.154 L294.615,126.679 C301.187,123.554 305.376,116.93 305.385,109.654 Z M251.538,137.923 C246.039,137.922 241.424,133.779 240.833,128.312 C241.704,128.436 242.582,128.499 243.462,128.5 L246.154,128.5 C247.641,128.5 248.846,127.295 248.846,125.808 C248.846,124.321 247.641,123.115 246.154,123.115 L243.462,123.115 C236.899,123.123 231.287,118.397 230.178,111.929 C229.069,105.461 232.785,99.136 238.975,96.956 C240.05,96.576 240.769,95.559 240.769,94.419 L240.769,92.154 C240.769,86.206 245.591,81.385 251.538,81.385 C257.486,81.385 262.308,86.206 262.308,92.154 L262.308,115.126 C259.351,112.467 255.515,110.997 251.538,111 C250.052,111 248.846,112.205 248.846,113.692 C248.846,115.179 250.052,116.385 251.538,116.385 C257.486,116.385 262.308,121.206 262.308,127.154 C262.308,133.102 257.486,137.923 251.538,137.923 Z M286.538,123.115 L283.846,123.115 C282.359,123.115 281.154,124.321 281.154,125.808 C281.154,127.295 282.359,128.5 283.846,128.5 L286.538,128.5 C287.418,128.499 288.296,128.436 289.167,128.312 C288.544,134.075 283.469,138.311 277.687,137.895 C271.904,137.479 267.489,132.56 267.698,126.766 C267.906,120.973 272.664,116.384 278.462,116.385 C279.948,116.385 281.154,115.179 281.154,113.692 C281.154,112.205 279.948,111 278.462,111 C274.485,110.997 270.649,112.467 267.692,115.126 L267.692,92.154 C267.692,86.206 272.514,81.385 278.462,81.385 C284.409,81.385 289.231,86.206 289.231,92.154 L289.231,94.419 C289.231,95.559 289.949,96.575 291.024,96.956 C297.214,99.135 300.931,105.461 299.822,111.929 C298.713,118.397 293.101,123.123 286.538,123.115 Z M291.923,105.615 C291.923,106.329 291.639,107.014 291.135,107.519 C290.63,108.024 289.945,108.308 289.231,108.308 L287.885,108.308 C284.671,108.308 281.59,107.031 279.318,104.759 C277.046,102.487 275.769,99.406 275.769,96.192 L275.769,94.846 C275.769,93.359 276.975,92.154 278.462,92.154 C279.948,92.154 281.154,93.359 281.154,94.846 L281.154,96.192 C281.154,97.977 281.863,99.689 283.125,100.952 C284.388,102.214 286.1,102.923 287.885,102.923 L289.231,102.923 C289.945,102.923 290.63,103.207 291.135,103.712 C291.639,104.217 291.923,104.901 291.923,105.615 Z M242.115,108.308 L240.769,108.308 C239.282,108.308 238.077,107.102 238.077,105.615 C238.077,104.128 239.282,102.923 240.769,102.923 L242.115,102.923 C243.9,102.923 245.612,102.214 246.875,100.952 C248.137,99.689 248.846,97.977 248.846,96.192 L248.846,94.846 C248.846,93.359 250.052,92.154 251.538,92.154 C253.025,92.154 254.231,93.359 254.231,94.846 L254.231,96.192 C254.231,99.406 252.954,102.487 250.682,104.759 C248.41,107.031 245.329,108.308 242.115,108.308 Z" />
        </g>
        <g id="Regular-S">
            <path d="M505.385,109.654 C505.378,102.376 501.188,95.749 494.616,92.622 L494.616,92.154 C494.609,85.031 489.938,78.753 483.118,76.7 C476.297,74.647 468.937,77.304 465,83.239 C461.063,77.303 453.703,74.647 446.882,76.7 C440.062,78.753 435.391,85.031 435.385,92.154 L435.385,92.622 C428.806,95.741 424.613,102.37 424.613,109.65 C424.613,116.931 428.806,123.56 435.385,126.679 L435.385,127.154 C435.391,134.277 440.062,140.555 446.882,142.608 C453.703,144.661 461.063,142.004 465,136.069 C468.937,142.004 476.297,144.66 483.118,142.607 C489.938,140.554 494.609,134.276 494.615,127.154 L494.615,126.679 C501.187,123.554 505.376,116.93 505.385,109.654 Z M451.538,137.923 C446.039,137.922 441.424,133.779 440.833,128.312 C441.704,128.436 442.582,128.499 443.462,128.5 L446.154,128.5 C447.641,128.5 448.846,127.295 448.846,125.808 C448.846,124.321 447.641,123.115 446.154,123.115 L443.462,123.115 C436.899,123.123 431.287,118.397 430.178,111.929 C429.069,105.461 432.785,99.136 438.975,96.956 C440.05,96.576 440.769,95.559 440.769,94.419 L440.769,92.154 C440.769,86.206 445.591,81.385 451.538,81.385 C457.486,81.385 462.308,86.206 462.308,92.154 L462.308,115.126 C459.351,112.467 455.515,110.997 451.538,111 C450.052,111 448.846,112.205 448.846,113.692 C448.846,115.179 450.052,116.385 451.538,116.385 C457.486,116.385 462.308,121.206 462.308,127.154 C462.308,133.102 457.486,137.923 451.538,137.923 Z M486.538,123.115 L483.846,123.115 C482.359,123.115 481.154,124.321 481.154,125.808 C481.154,127.295 482.359,128.5 483.846,128.5 L486.538,128.5 C487.418,128.499 488.296,128.436 489.167,128.312 C488.544,134.075 483.469,138.311 477.687,137.895 C471.904,137.479 467.489,132.56 467.698,126.766 C467.906,120.973 472.664,116.384 478.462,116.385 C479.948,116.385 481.154,115.179 481.154,113.692 C481.154,112.205 479.948,111 478.462,111 C474.485,110.997 470.649,112.467 467.692,115.126 L467.692,92.154 C467.692,86.206 472.514,81.385 478.462,81.385 C484.409,81.385 489.231,86.206 489.231,92.154 L489.231,94.419 C489.231,95.559 489.949,96.575 491.024,96.956 C497.214,99.135 500.931,105.461 499.822,111.929 C498.713,118.397 493.101,123.123 486.538,123.115 Z M491.923,105.615 C491.923,106.329 491.639,107.014 491.135,107.519 C490.63,108.024 489.945,108.308 489.231,108.308 L487.885,108.308 C484.671,108.308 481.59,107.031 479.318,104.759 C477.046,102.487 475.769,99.406 475.769,96.192 L475.769,94.846 C475.769,93.359 476.975,92.154 478.462,92.154 C479.948,92.154 481.154,93.359 481.154,94.846 L481.154,96.192 C481.154,97.977 481.863,99.689 483.125,100.952 C484.388,102.214 486.099,102.923 487.885,102.923 L489.231,102.923 C489.945,102.923 490.63,103.207 491.135,103.712 C491.639,104.217 491.923,104.901 491.923,105.615 Z M442.115,108.308 L440.769,108.308 C439.282,108.308 438.077,107.102 438.077,105.615 C438.077,104.128 439.282,102.923 440.769,102.923 L442.115,102.923 C443.9,102.923 445.612,102.214 446.875,100.952 C448.137,99.689 448.846,97.977 448.846,96.192 L448.846,94.846 C448.846,93.359 450.052,92.154 451.538,92.154 C453.025,92.154 454.231,93.359 454.231,94.846 L454.231,96.192 C454.231,99.406 452.954,102.487 450.682,104.759 C448.41,107.031 445.329,108.308 442.115,108.308 Z" />
        </g>
        <g id="Black-S">
            <path d="M705.385,109.654 C705.378,102.376 701.188,95.749 694.616,92.622 L694.616,92.154 C694.609,85.031 689.938,78.753 683.118,76.7 C676.297,74.647 668.937,77.304 665,83.239 C661.063,77.303 653.703,74.647 646.882,76.7 C640.062,78.753 635.391,85.031 635.385,92.154 L635.385,92.622 C628.806,95.741 624.613,102.37 624.613,109.65 C624.613,116.931 628.806,123.56 635.385,126.679 L635.385,127.154 C635.391,134.277 640.062,140.555 646.882,142.608 C653.703,144.661 661.063,142.004 665,136.069 C668.937,142.004 676.297,144.66 683.118,142.607 C689.938,140.554 694.609,134.276 694.615,127.154 L694.615,126.679 C701.187,123.554 705.376,116.93 705.385,109.654 Z M651.538,137.923 C646.039,137.922 641.424,133.779 640.833,128.312 C641.704,128.436 642.582,128.499 643.462,128.5 L646.154,128.5 C647.641,128.5 648.846,127.295 648.846,125.808 C648.846,124.321 647.641,123.115 646.154,123.115 L643.462,123.115 C636.899,123.123 631.287,118.397 630.178,111.929 C629.069,105.461 632.785,99.136 638.976,96.956 C640.05,96.576 640.769,95.559 640.769,94.419 L640.769,92.154 C640.769,86.206 645.591,81.385 651.538,81.385 C657.486,81.385 662.308,86.206 662.308,92.154 L662.308,115.126 C659.351,112.467 655.515,110.997 651.538,111 C650.052,111 648.846,112.205 648.846,113.692 C648.846,115.179 650.052,116.385 651.538,116.385 C657.486,116.385 662.308,121.206 662.308,127.154 C662.308,133.102 657.486,137.923 651.538,137.923 Z M686.538,123.115 L683.846,123.115 C682.359,123.115 681.154,124.321 681.154,125.808 C681.154,127.295 682.359,128.5 683.846,128.5 L686.538,128.5 C687.418,128.499 688.296,128.436 689.167,128.312 C688.544,134.075 683.469,138.311 677.687,137.895 C671.904,137.479 667.489,132.56 667.698,126.766 C667.906,120.973 672.664,116.384 678.462,116.385 C679.948,116.385 681.154,115.179 681.154,113.692 C681.154,112.205 679.948,111 678.462,111 C674.485,110.997 670.649,112.467 667.692,115.126 L667.692,92.154 C667.692,86.206 672.514,81.385 678.462,81.385 C684.409,81.385 689.231,86.206 689.231,92.154 L689.231,94.419 C689.231,95.559 689.949,96.575 691.024,96.956 C697.214,99.135 700.931,105.461 699.822,111.929 C698.713,118.397 693.101,123.123 686.538,123.115 Z M691.923,105.615 C691.923,106.329 691.639,107.014 691.135,107.519 C690.63,108.024 689.945,108.308 689.231,108.308 L687.885,108.308 C684.671,108.308 681.59,107.031 679.318,104.759 C677.046,102.487 675.769,99.406 675.769,96.192 L675.769,94.846 C675.769,93.359 676.975,92.154 678.462,92.154 C679.948,92.154 681.154,93.359 681.154,94.846 L681.154,96.192 C681.154,97.977 681.863,99.689 683.125,100.952 C684.388,102.214 686.1,102.923 687.885,102.923 L689.231,102.923 C689.945,102.923 690.63,103.207 691.135,103.712 C691.639,104.217 691.923,104.901 691.923,105.615 Z M642.115,108.308 L640.769,108.308 C639.282,108.308 638.077,107.102 638.077,105.615 C638.077,104.128 639.282,102.923 640.769,102.923 L642.115,102.923 C643.901,102.923 645.612,102.214 646.875,100.952 C648.137,99.689 648.846,97.977 648.846,96.192 L648.846,94.846 C648.846,93.359 650.052,92.154 651.538,92.154 C653.025,92.154 654.231,93.359 654.231,94.846 L654.231,96.192 C654.231,99.406 652.954,102.487 650.682,104.759 C648.41,107.031 645.329,108.308 642.115,108.308 Z" />
        </g>
    </g>
</svg>