<?xml version="1.0" encoding="UTF-8"?>
<svg height="600" width="800" xmlns="http://www.w3.org/2000/svg" xmlns:xlink="http://www.w3.org/1999/xlink">
    <g id="Notes" font-family="'LucidaGrande', 'Lucida Grande', sans-serif" font-size="13">
        <rect fill="white" height="600.0" width="800.0" x="0.0" y="0.0" />
        <g font-size="13">
            <text x="18.0" y="176.0">Small</text>
            <text x="18.0" y="376.0">Medium</text>
            <text x="18.0" y="576.0">Large</text>
        </g>
        <g font-size="9">
            <text x="250.0" y="30.0">Ultralight</text>
            <text x="450.0" y="30.0">Regular</text>
            <text x="650.0" y="30.0">Black</text>
            <text id="template-version" fill="#505050" text-anchor="end" x="785.0" y="575.0">Template v.3.0</text>
            <a href="https://github.com/swhitty/SwiftDraw">
                <text fill="#505050" text-anchor="end" x="785.0" y="590.0">https://github.com/swhitty/SwiftDraw</text>
            </a>
        </g>
    </g>
    <g id="Guides" stroke="rgb(39, 170, 225)" stroke-width="0.5">
        <path id="Capline-S" d="M18,76 l800,0" />
        <path id="H-reference" d="M85,145.755 L87.685,145.755 L113.369,79.287 L114.052,79.287 L114.052,76 L112.148,76 L85,145.755 Z M95.693,121.536 L130.996,121.536 L130.263,119.313 L96.474,119.313 L95.693,121.536 Z M139.15,145.755 L141.787,145.755 L114.638,76 L113.466,76 L113.466,79.287 L139.15,145.755 Z" stroke="none" />
        <path id="Baseline-S" d="M18,146 l800,0" />
        <path id="left-margin-Ultralight-S" d="M220,56 l0,110" />
        <path id="right-margin-Ultralight-S" d="M310,56 l0,110" />
        <path id="left-margin-Regular-S" d="M420,56 l0,110" />
        <path id="right-margin-Regular-S" d="M510,56 l0,110" />
        <path id="left-margin-Black-S" d="M620,56 l0,110" />
        <path id="right-margin-Black-S" d="M710,56 l0,110" />
        <path id="Capline-M" d="M18,276 l800,0" />
        <path id="Baseline-M" d="M18,346 l800,0" />
        <path id="Capline-L" d="M18,476 l800,0" />
        <path id="Baseline-L" d="M18,546 l800,0" />
    </g>
    <g id="Symbols">
        <g id="Ultralight-S">
            <path d="M225.962,105.279 L263.654,126.817 C264.482,127.291 265.498,127.291 266.326,126.817 L304.018,105.279 C304.858,104.8 305.377,103.907 305.377,102.94 C305.377,101.973 304.858,101.08 304.018,100.601 L266.326,79.063 C265.498,78.589 264.482,78.589 263.654,79.063 L225.962,100.601 C225.121,101.08 224.603,101.973 224.603,102.94 C224.603,103.907 225.121,104.8 225.962,105.279 Z M265,84.484 L297.264,102.923 L265,121.362 L232.736,102.923 Z M305.028,115.038 C305.392,115.659 305.493,116.401 305.307,117.096 C305.121,117.792 304.664,118.384 304.038,118.74 L266.346,140.279 C265.518,140.752 264.502,140.752 263.674,140.279 L225.962,118.74 C224.66,117.989 224.217,116.334 224.964,115.04 C225.712,113.746 227.366,113.302 228.661,114.05 L265.007,134.827 L301.353,114.05 C302.641,113.309 304.286,113.751 305.028,115.038 Z" />
        </g>
        <g id="Regular-S">
            <path d="M425.962,105.279 L463.654,126.817 C464.482,127.291 465.498,127.291 466.326,126.817 L504.018,105.279 C504.858,104.8 505.377,103.907 505.377,102.94 C505.377,101.973 504.858,101.08 504.018,100.601 L466.326,79.063 C465.498,78.589 464.482,78.589 463.654,79.063 L425.962,100.601 C425.121,101.08 424.603,101.973 424.603,102.94 C424.603,103.907 425.121,104.8 425.962,105.279 Z M465,84.484 L497.264,102.923 L465,121.362 L432.736,102.923 Z M505.028,115.038 C505.392,115.659 505.493,116.401 505.307,117.096 C505.121,117.792 504.664,118.384 504.038,118.74 L466.346,140.279 C465.518,140.752 464.502,140.752 463.674,140.279 L425.962,118.74 C424.66,117.989 424.217,116.334 424.964,115.04 C425.711,113.746 427.366,113.302 428.661,114.05 L465.007,134.827 L501.353,114.05 C502.641,113.309 504.286,113.751 505.028,115.038 Z" />
        </g>
        <g id="Black-S">
            <path d="M625.962,105.279 L663.654,126.817 C664.482,127.291 665.498,127.291 666.326,126.817 L704.018,105.279 C704.859,104.8 705.377,103.907 705.377,102.94 C705.377,101.973 704.859,101.08 704.018,100.601 L666.326,79.063 C665.498,78.589 664.482,78.589 663.654,79.063 L625.962,100.601 C625.121,101.08 624.603,101.973 624.603,102.94 C624.603,103.907 625.121,104.8 625.962,105.279 Z M665,84.484 L697.264,102.923 L665,121.362 L632.736,102.923 Z M705.028,115.038 C705.392,115.659 705.493,116.401 705.307,117.096 C705.121,117.792 704.664,118.384 704.038,118.74 L666.346,140.279 C665.518,140.752 664.502,140.752 663.674,140.279 L625.962,118.74 C624.661,117.989 624.217,116.334 624.964,115.04 C625.711,113.746 627.366,113.302 628.661,114.05 L665.007,134.827 L701.353,114.05 C702.641,113.309 704.286,113.751 705.028,115.038 Z" />
        </g>
    </g>
</svg>