<?xml version="1.0" encoding="UTF-8"?>
<svg height="600" width="800" xmlns="http://www.w3.org/2000/svg" xmlns:xlink="http://www.w3.org/1999/xlink">
    <g id="Notes" font-family="'LucidaGrande', 'Lucida Grande', sans-serif" font-size="13">
        <rect fill="white" height="600.0" width="800.0" x="0.0" y="0.0" />
        <g font-size="13">
            <text x="18.0" y="176.0">Small</text>
            <text x="18.0" y="376.0">Medium</text>
            <text x="18.0" y="576.0">Large</text>
        </g>
        <g font-size="9">
            <text x="250.0" y="30.0">Ultralight</text>
            <text x="450.0" y="30.0">Regular</text>
            <text x="650.0" y="30.0">Black</text>
            <text id="template-version" fill="#505050" text-anchor="end" x="785.0" y="575.0">Template v.3.0</text>
            <a href="https://github.com/swhitty/SwiftDraw">
                <text fill="#505050" text-anchor="end" x="785.0" y="590.0">https://github.com/swhitty/SwiftDraw</text>
            </a>
        </g>
    </g>
    <g id="Guides" stroke="rgb(39, 170, 225)" stroke-width="0.5">
        <path id="Capline-S" d="M18,76 l800,0" />
        <path id="H-reference" d="M85,145.755 L87.685,145.755 L113.369,79.287 L114.052,79.287 L114.052,76 L112.148,76 L85,145.755 Z M95.693,121.536 L130.996,121.536 L130.263,119.313 L96.474,119.313 L95.693,121.536 Z M139.15,145.755 L141.787,145.755 L114.638,76 L113.466,76 L113.466,79.287 L139.15,145.755 Z" stroke="none" />
        <path id="Baseline-S" d="M18,146 l800,0" />
        <path id="left-margin-Ultralight-S" d="M220,56 l0,110" />
        <path id="right-margin-Ultralight-S" d="M310,56 l0,110" />
        <path id="left-margin-Regular-S" d="M420,56 l0,110" />
        <path id="right-margin-Regular-S" d="M510,56 l0,110" />
        <path id="left-margin-Black-S" d="M620,56 l0,110" />
        <path id="right-margin-Black-S" d="M710,56 l0,110" />
        <path id="Capline-M" d="M18,276 l800,0" />
        <path id="Baseline-M" d="M18,346 l800,0" />
        <path id="Capline-L" d="M18,476 l800,0" />
        <path id="Baseline-L" d="M18,546 l800,0" />
    </g>
    <g id="Symbols">
        <g id="Ultralight-S">
            <path d="M291.923,84.077 L238.077,84.077 C235.935,84.077 233.88,84.928 232.366,86.443 C230.851,87.957 230,90.012 230,92.154 L230,129.846 C230,131.988 230.851,134.043 232.366,135.557 C233.88,137.072 235.935,137.923 238.077,137.923 L291.923,137.923 C294.065,137.923 296.12,137.072 297.634,135.557 C299.149,134.043 300,131.988 300,129.846 L300,92.154 C300,90.012 299.149,87.957 297.634,86.443 C296.12,84.928 294.065,84.077 291.923,84.077 Z M235.385,100.231 L294.615,100.231 L294.615,105.615 L275.769,105.615 C275.055,105.615 274.37,105.899 273.865,106.404 C273.361,106.909 273.077,107.594 273.077,108.308 C273.077,112.768 269.461,116.385 265,116.385 C260.539,116.385 256.923,112.768 256.923,108.308 C256.923,107.594 256.639,106.909 256.135,106.404 C255.63,105.899 254.945,105.615 254.231,105.615 L235.385,105.615 Z M238.077,89.462 L291.923,89.462 C292.637,89.462 293.322,89.745 293.827,90.25 C294.332,90.755 294.615,91.44 294.615,92.154 L294.615,94.846 L235.385,94.846 L235.385,92.154 C235.385,91.44 235.668,90.755 236.173,90.25 C236.678,89.745 237.363,89.462 238.077,89.462 Z M291.923,132.538 L238.077,132.538 C237.363,132.538 236.678,132.255 236.173,131.75 C235.668,131.245 235.385,130.56 235.385,129.846 L235.385,111 L251.808,111 C253.082,117.274 258.598,121.783 265,121.783 C271.402,121.783 276.918,117.274 278.192,111 L294.615,111 L294.615,129.846 C294.615,130.56 294.332,131.245 293.827,131.75 C293.322,132.255 292.637,132.538 291.923,132.538 Z" />
        </g>
        <g id="Regular-S">
            <path d="M491.923,84.077 L438.077,84.077 C435.935,84.077 433.88,84.928 432.366,86.443 C430.851,87.957 430,90.012 430,92.154 L430,129.846 C430,131.988 430.851,134.043 432.366,135.557 C433.88,137.072 435.935,137.923 438.077,137.923 L491.923,137.923 C494.065,137.923 496.12,137.072 497.634,135.557 C499.149,134.043 500,131.988 500,129.846 L500,92.154 C500,90.012 499.149,87.957 497.634,86.443 C496.12,84.928 494.065,84.077 491.923,84.077 Z M435.385,100.231 L494.615,100.231 L494.615,105.615 L475.769,105.615 C475.055,105.615 474.37,105.899 473.865,106.404 C473.361,106.909 473.077,107.594 473.077,108.308 C473.077,112.768 469.461,116.385 465,116.385 C460.539,116.385 456.923,112.768 456.923,108.308 C456.923,107.594 456.639,106.909 456.135,106.404 C455.63,105.899 454.945,105.615 454.231,105.615 L435.385,105.615 Z M438.077,89.462 L491.923,89.462 C492.637,89.462 493.322,89.745 493.827,90.25 C494.332,90.755 494.615,91.44 494.615,92.154 L494.615,94.846 L435.385,94.846 L435.385,92.154 C435.385,91.44 435.668,90.755 436.173,90.25 C436.678,89.745 437.363,89.462 438.077,89.462 Z M491.923,132.538 L438.077,132.538 C437.363,132.538 436.678,132.255 436.173,131.75 C435.668,131.245 435.385,130.56 435.385,129.846 L435.385,111 L451.808,111 C453.082,117.274 458.598,121.783 465,121.783 C471.402,121.783 476.918,117.274 478.192,111 L494.615,111 L494.615,129.846 C494.615,130.56 494.332,131.245 493.827,131.75 C493.322,132.255 492.637,132.538 491.923,132.538 Z" />
        </g>
        <g id="Black-S">
            <path d="M691.923,84.077 L638.077,84.077 C635.935,84.077 633.88,84.928 632.366,86.443 C630.851,87.957 630,90.012 630,92.154 L630,129.846 C630,131.988 630.851,134.043 632.366,135.557 C633.88,137.072 635.935,137.923 638.077,137.923 L691.923,137.923 C694.065,137.923 696.12,137.072 697.634,135.557 C699.149,134.043 700,131.988 700,129.846 L700,92.154 C700,90.012 699.149,87.957 697.634,86.443 C696.12,84.928 694.065,84.077 691.923,84.077 Z M635.385,100.231 L694.615,100.231 L694.615,105.615 L675.769,105.615 C675.055,105.615 674.37,105.899 673.865,106.404 C673.361,106.909 673.077,107.594 673.077,108.308 C673.077,112.768 669.461,116.385 665,116.385 C660.539,116.385 656.923,112.768 656.923,108.308 C656.923,107.594 656.639,106.909 656.135,106.404 C655.63,105.899 654.945,105.615 654.231,105.615 L635.385,105.615 Z M638.077,89.462 L691.923,89.462 C692.637,89.462 693.322,89.745 693.827,90.25 C694.332,90.755 694.615,91.44 694.615,92.154 L694.615,94.846 L635.385,94.846 L635.385,92.154 C635.385,91.44 635.668,90.755 636.173,90.25 C636.678,89.745 637.363,89.462 638.077,89.462 Z M691.923,132.538 L638.077,132.538 C637.363,132.538 636.678,132.255 636.173,131.75 C635.668,131.245 635.385,130.56 635.385,129.846 L635.385,111 L651.808,111 C653.082,117.274 658.598,121.783 665,121.783 C671.402,121.783 676.918,117.274 678.192,111 L694.615,111 L694.615,129.846 C694.615,130.56 694.332,131.245 693.827,131.75 C693.322,132.255 692.637,132.538 691.923,132.538 Z" />
        </g>
    </g>
</svg>