<?xml version="1.0" encoding="UTF-8"?>
<svg height="600" width="800" xmlns="http://www.w3.org/2000/svg" xmlns:xlink="http://www.w3.org/1999/xlink">
    <g id="Notes" font-family="'LucidaGrande', 'Lucida Grande', sans-serif" font-size="13">
        <rect fill="white" height="600.0" width="800.0" x="0.0" y="0.0" />
        <g font-size="13">
            <text x="18.0" y="176.0">Small</text>
            <text x="18.0" y="376.0">Medium</text>
            <text x="18.0" y="576.0">Large</text>
        </g>
        <g font-size="9">
            <text x="250.0" y="30.0">Ultralight</text>
            <text x="450.0" y="30.0">Regular</text>
            <text x="650.0" y="30.0">Black</text>
            <text id="template-version" fill="#505050" text-anchor="end" x="785.0" y="575.0">Template v.3.0</text>
            <a href="https://github.com/swhitty/SwiftDraw">
                <text fill="#505050" text-anchor="end" x="785.0" y="590.0">https://github.com/swhitty/SwiftDraw</text>
            </a>
        </g>
    </g>
    <g id="Guides" stroke="rgb(39, 170, 225)" stroke-width="0.5">
        <path id="Capline-S" d="M18,76 l800,0" />
        <path id="H-reference" d="M85,145.755 L87.685,145.755 L113.369,79.287 L114.052,79.287 L114.052,76 L112.148,76 L85,145.755 Z M95.693,121.536 L130.996,121.536 L130.263,119.313 L96.474,119.313 L95.693,121.536 Z M139.15,145.755 L141.787,145.755 L114.638,76 L113.466,76 L113.466,79.287 L139.15,145.755 Z" stroke="none" />
        <path id="Baseline-S" d="M18,146 l800,0" />
        <path id="left-margin-Ultralight-S" d="M220,56 l0,110" />
        <path id="right-margin-Ultralight-S" d="M310,56 l0,110" />
        <path id="left-margin-Regular-S" d="M420,56 l0,110" />
        <path id="right-margin-Regular-S" d="M510,56 l0,110" />
        <path id="left-margin-Black-S" d="M620,56 l0,110" />
        <path id="right-margin-Black-S" d="M710,56 l0,110" />
        <path id="Capline-M" d="M18,276 l800,0" />
        <path id="Baseline-M" d="M18,346 l800,0" />
        <path id="Capline-L" d="M18,476 l800,0" />
        <path id="Baseline-L" d="M18,546 l800,0" />
    </g>
    <g id="Symbols">
        <g id="Ultralight-S">
            <path d="M265,76 C245.67,76 230,91.67 230,111 C230,130.33 245.67,146 265,146 C284.33,146 300,130.33 300,111 C299.979,91.677 284.32,76.02 264.999,76 Z M265,140.615 C248.644,140.615 235.385,127.356 235.385,111 C235.385,94.644 248.644,81.385 265,81.385 C281.356,81.385 294.615,94.644 294.615,111 C294.598,127.347 281.35,140.596 265.001,140.615 Z M277.674,98.326 C278.18,98.831 278.464,99.516 278.464,100.231 C278.464,100.945 278.18,101.631 277.674,102.136 L260.729,119.077 L270.385,119.077 C271.872,119.077 273.077,120.282 273.077,121.769 C273.077,123.256 271.872,124.462 270.385,124.462 L254.231,124.462 C253.517,124.462 252.832,124.178 252.327,123.673 C251.822,123.168 251.538,122.483 251.538,121.769 L251.538,105.615 C251.538,104.128 252.744,102.923 254.231,102.923 C255.718,102.923 256.923,104.128 256.923,105.615 L256.923,115.271 L273.864,98.326 C274.369,97.82 275.055,97.536 275.769,97.536 C276.484,97.536 277.169,97.82 277.674,98.326 Z" />
        </g>
        <g id="Regular-S">
            <path d="M465,76 C445.67,76 430,91.67 430,111 C430,130.33 445.67,146 465,146 C484.33,146 500,130.33 500,111 C499.979,91.677 484.32,76.02 464.999,76 Z M465,140.615 C448.644,140.615 435.385,127.356 435.385,111 C435.385,94.644 448.644,81.385 465,81.385 C481.356,81.385 494.615,94.644 494.615,111 C494.598,127.347 481.35,140.596 465.001,140.615 Z M477.674,98.326 C478.18,98.831 478.464,99.516 478.464,100.231 C478.464,100.945 478.18,101.631 477.674,102.136 L460.729,119.077 L470.385,119.077 C471.872,119.077 473.077,120.282 473.077,121.769 C473.077,123.256 471.872,124.462 470.385,124.462 L454.231,124.462 C453.517,124.462 452.832,124.178 452.327,123.673 C451.822,123.168 451.538,122.483 451.538,121.769 L451.538,105.615 C451.538,104.128 452.744,102.923 454.231,102.923 C455.718,102.923 456.923,104.128 456.923,105.615 L456.923,115.271 L473.864,98.326 C474.369,97.82 475.055,97.536 475.769,97.536 C476.484,97.536 477.169,97.82 477.674,98.326 Z" />
        </g>
        <g id="Black-S">
            <path d="M665,76 C645.67,76 630,91.67 630,111 C630,130.33 645.67,146 665,146 C684.33,146 700,130.33 700,111 C699.979,91.677 684.32,76.02 664.999,76 Z M665,140.615 C648.644,140.615 635.385,127.356 635.385,111 C635.385,94.644 648.644,81.385 665,81.385 C681.356,81.385 694.615,94.644 694.615,111 C694.598,127.347 681.35,140.596 665.001,140.615 Z M677.674,98.326 C678.18,98.831 678.464,99.516 678.464,100.231 C678.464,100.945 678.18,101.631 677.674,102.136 L660.729,119.077 L670.385,119.077 C671.872,119.077 673.077,120.282 673.077,121.769 C673.077,123.256 671.872,124.462 670.385,124.462 L654.231,124.462 C653.517,124.462 652.832,124.178 652.327,123.673 C651.822,123.168 651.538,122.483 651.538,121.769 L651.538,105.615 C651.538,104.128 652.744,102.923 654.231,102.923 C655.718,102.923 656.923,104.128 656.923,105.615 L656.923,115.271 L673.864,98.326 C674.369,97.82 675.055,97.536 675.769,97.536 C676.484,97.536 677.169,97.82 677.674,98.326 Z" />
        </g>
    </g>
</svg>