<?xml version="1.0" encoding="UTF-8"?>
<svg height="600" width="800" xmlns="http://www.w3.org/2000/svg" xmlns:xlink="http://www.w3.org/1999/xlink">
    <g id="Notes" font-family="'LucidaGrande', 'Lucida Grande', sans-serif" font-size="13">
        <rect fill="white" height="600.0" width="800.0" x="0.0" y="0.0" />
        <g font-size="13">
            <text x="18.0" y="176.0">Small</text>
            <text x="18.0" y="376.0">Medium</text>
            <text x="18.0" y="576.0">Large</text>
        </g>
        <g font-size="9">
            <text x="250.0" y="30.0">Ultralight</text>
            <text x="450.0" y="30.0">Regular</text>
            <text x="650.0" y="30.0">Black</text>
            <text id="template-version" fill="#505050" text-anchor="end" x="785.0" y="575.0">Template v.3.0</text>
            <a href="https://github.com/swhitty/SwiftDraw">
                <text fill="#505050" text-anchor="end" x="785.0" y="590.0">https://github.com/swhitty/SwiftDraw</text>
            </a>
        </g>
    </g>
    <g id="Guides" stroke="rgb(39, 170, 225)" stroke-width="0.5">
        <path id="Capline-S" d="M18,76 l800,0" />
        <path id="H-reference" d="M85,145.755 L87.685,145.755 L113.369,79.287 L114.052,79.287 L114.052,76 L112.148,76 L85,145.755 Z M95.693,121.536 L130.996,121.536 L130.263,119.313 L96.474,119.313 L95.693,121.536 Z M139.15,145.755 L141.787,145.755 L114.638,76 L113.466,76 L113.466,79.287 L139.15,145.755 Z" stroke="none" />
        <path id="Baseline-S" d="M18,146 l800,0" />
        <path id="left-margin-Ultralight-S" d="M220,56 l0,110" />
        <path id="right-margin-Ultralight-S" d="M310,56 l0,110" />
        <path id="left-margin-Regular-S" d="M420,56 l0,110" />
        <path id="right-margin-Regular-S" d="M510,56 l0,110" />
        <path id="left-margin-Black-S" d="M620,56 l0,110" />
        <path id="right-margin-Black-S" d="M710,56 l0,110" />
        <path id="Capline-M" d="M18,276 l800,0" />
        <path id="Baseline-M" d="M18,346 l800,0" />
        <path id="Capline-L" d="M18,476 l800,0" />
        <path id="Baseline-L" d="M18,546 l800,0" />
    </g>
    <g id="Symbols">
        <g id="Ultralight-S">
            <path d="M302.235,79.15 C300.215,77.13 297.475,75.995 294.619,75.995 C291.762,75.995 289.023,77.13 287.003,79.15 L287.003,79.15 C284.983,81.17 283.848,83.909 283.848,86.766 C283.848,89.622 284.983,92.362 287.003,94.382 C287.1,94.479 287.205,94.574 287.306,94.668 L278.344,111.313 C275.611,110.647 272.727,111.069 270.301,112.491 L263.509,105.7 C266.274,101.027 265.128,95.027 260.836,91.702 C256.544,88.377 250.448,88.767 246.615,92.612 L246.615,92.612 C244.595,94.631 243.46,97.371 243.46,100.227 C243.46,103.084 244.595,105.824 246.615,107.843 C246.713,107.941 246.813,108.035 246.914,108.129 L237.952,124.778 C234.294,123.877 230.43,124.955 227.765,127.618 L227.765,127.618 C223.56,131.824 223.561,138.642 227.767,142.848 C231.972,147.053 238.79,147.053 242.996,142.848 C247.202,138.642 247.202,131.824 242.997,127.618 C242.9,127.521 242.795,127.426 242.694,127.332 L251.656,110.687 C252.499,110.893 253.363,110.998 254.231,111 C256.154,111.002 258.042,110.49 259.7,109.516 L266.491,116.307 C263.65,121.128 264.975,127.322 269.54,130.559 C274.105,133.796 280.388,132.997 283.998,128.721 C287.608,124.446 287.342,118.117 283.385,114.16 C283.288,114.063 283.187,113.968 283.086,113.874 L292.048,97.229 C292.888,97.434 293.75,97.538 294.615,97.538 C298.97,97.538 302.896,94.914 304.563,90.891 C306.23,86.868 305.31,82.237 302.231,79.157 Z M239.188,139.044 C237.085,141.146 233.675,141.147 231.571,139.043 C229.467,136.94 229.467,133.53 231.57,131.426 L231.57,131.426 C233.672,129.323 237.083,129.322 239.187,131.425 C241.291,133.528 241.292,136.938 239.189,139.042 Z M250.421,104.044 C249.411,103.034 248.844,101.664 248.844,100.236 C248.844,98.808 249.411,97.438 250.421,96.428 L250.421,96.428 C252.524,94.325 255.933,94.326 258.036,96.428 C260.138,98.531 260.138,101.94 258.036,104.043 C255.933,106.146 252.524,106.146 250.421,104.044 Z M279.579,125.582 C277.476,127.685 274.067,127.685 271.963,125.583 C269.86,123.48 269.86,120.07 271.963,117.967 L271.963,117.967 C274.065,115.864 277.475,115.864 279.578,117.966 C281.681,120.069 281.682,123.479 279.579,125.582 Z M298.425,90.582 C296.322,92.683 292.911,92.682 290.808,90.578 C288.705,88.473 288.706,85.062 290.81,82.958 L290.81,82.958 C292.912,80.856 296.323,80.855 298.427,82.959 C300.53,85.062 300.531,88.473 298.428,90.576 Z" />
        </g>
        <g id="Regular-S">
            <path d="M502.235,79.15 C500.215,77.13 497.475,75.995 494.619,75.995 C491.762,75.995 489.023,77.13 487.003,79.15 L487.003,79.15 C484.983,81.17 483.848,83.909 483.848,86.766 C483.848,89.622 484.983,92.362 487.003,94.382 C487.1,94.479 487.205,94.574 487.306,94.668 L478.344,111.313 C475.611,110.647 472.727,111.069 470.3,112.491 L463.509,105.7 C466.274,101.027 465.128,95.027 460.836,91.702 C456.544,88.377 450.448,88.767 446.615,92.612 L446.615,92.612 C444.595,94.631 443.46,97.371 443.46,100.227 C443.46,103.084 444.595,105.824 446.615,107.843 C446.712,107.941 446.813,108.035 446.914,108.129 L437.952,124.778 C434.294,123.877 430.43,124.955 427.765,127.618 L427.765,127.618 C423.56,131.824 423.561,138.642 427.767,142.848 C431.972,147.053 438.79,147.053 442.996,142.848 C447.202,138.642 447.202,131.824 442.997,127.618 C442.9,127.521 442.795,127.426 442.694,127.332 L451.656,110.687 C452.499,110.893 453.363,110.998 454.231,111 C456.153,111.002 458.042,110.49 459.7,109.516 L466.491,116.307 C463.65,121.128 464.975,127.322 469.54,130.559 C474.105,133.796 480.388,132.997 483.998,128.721 C487.608,124.446 487.342,118.117 483.385,114.16 C483.287,114.063 483.187,113.968 483.086,113.874 L492.048,97.229 C492.888,97.434 493.75,97.538 494.615,97.538 C498.97,97.538 502.896,94.914 504.563,90.891 C506.23,86.868 505.31,82.237 502.231,79.157 Z M439.188,139.044 C437.085,141.146 433.675,141.147 431.571,139.043 C429.467,136.94 429.467,133.53 431.57,131.426 L431.57,131.426 C433.672,129.323 437.082,129.322 439.187,131.425 C441.291,133.528 441.292,136.938 439.189,139.042 Z M450.421,104.044 C449.411,103.034 448.844,101.664 448.844,100.236 C448.844,98.808 449.411,97.438 450.421,96.428 L450.421,96.428 C452.524,94.325 455.933,94.326 458.036,96.428 C460.138,98.531 460.138,101.94 458.036,104.043 C455.933,106.146 452.524,106.146 450.421,104.044 Z M479.579,125.582 C477.476,127.685 474.067,127.685 471.963,125.583 C469.86,123.48 469.86,120.07 471.963,117.967 L471.963,117.967 C474.065,115.864 477.475,115.864 479.578,117.966 C481.681,120.069 481.682,123.479 479.579,125.582 Z M498.425,90.582 C496.322,92.683 492.911,92.682 490.808,90.578 C488.705,88.473 488.706,85.062 490.81,82.958 L490.81,82.958 C492.912,80.856 496.323,80.855 498.427,82.959 C500.53,85.062 500.531,88.473 498.428,90.576 Z" />
        </g>
        <g id="Black-S">
            <path d="M702.235,79.15 C700.215,77.13 697.475,75.995 694.619,75.995 C691.762,75.995 689.023,77.13 687.003,79.15 L687.003,79.15 C684.983,81.17 683.848,83.909 683.848,86.766 C683.848,89.622 684.983,92.362 687.003,94.382 C687.101,94.479 687.205,94.574 687.306,94.668 L678.344,111.313 C675.611,110.647 672.727,111.069 670.301,112.491 L663.509,105.7 C666.274,101.027 665.128,95.027 660.836,91.702 C656.544,88.377 650.448,88.767 646.615,92.612 L646.615,92.612 C644.595,94.631 643.46,97.371 643.46,100.227 C643.46,103.084 644.595,105.824 646.615,107.843 C646.713,107.941 646.813,108.035 646.914,108.129 L637.952,124.778 C634.294,123.877 630.43,124.955 627.765,127.618 L627.765,127.618 C623.56,131.824 623.561,138.642 627.767,142.848 C631.972,147.053 638.79,147.053 642.996,142.848 C647.202,138.642 647.202,131.824 642.997,127.618 C642.9,127.521 642.795,127.426 642.694,127.332 L651.656,110.687 C652.499,110.893 653.363,110.998 654.231,111 C656.154,111.002 658.042,110.49 659.7,109.516 L666.491,116.307 C663.65,121.128 664.975,127.322 669.54,130.559 C674.105,133.796 680.388,132.997 683.998,128.721 C687.608,124.446 687.342,118.117 683.385,114.16 C683.288,114.063 683.187,113.968 683.086,113.874 L692.048,97.229 C692.888,97.434 693.75,97.538 694.615,97.538 C698.97,97.538 702.896,94.914 704.563,90.891 C706.23,86.868 705.31,82.237 702.231,79.157 Z M639.188,139.044 C637.086,141.146 633.675,141.147 631.571,139.043 C629.467,136.94 629.467,133.53 631.57,131.426 L631.57,131.426 C633.672,129.323 637.083,129.322 639.187,131.425 C641.291,133.528 641.292,136.938 639.189,139.042 Z M650.421,104.044 C649.411,103.034 648.844,101.664 648.844,100.236 C648.844,98.808 649.411,97.438 650.421,96.428 L650.421,96.428 C652.524,94.325 655.933,94.326 658.036,96.428 C660.138,98.531 660.138,101.94 658.036,104.043 C655.933,106.146 652.524,106.146 650.421,104.044 Z M679.579,125.582 C677.477,127.685 674.067,127.685 671.963,125.583 C669.86,123.48 669.86,120.07 671.963,117.967 L671.963,117.967 C674.065,115.864 677.475,115.864 679.578,117.966 C681.681,120.069 681.682,123.479 679.579,125.582 Z M698.425,90.582 C696.322,92.683 692.911,92.682 690.808,90.578 C688.705,88.473 688.706,85.062 690.81,82.958 L690.81,82.958 C692.912,80.856 696.323,80.855 698.427,82.959 C700.53,85.062 700.531,88.473 698.428,90.576 Z" />
        </g>
    </g>
</svg>