<?xml version="1.0" encoding="UTF-8"?>
<svg height="600" width="800" xmlns="http://www.w3.org/2000/svg" xmlns:xlink="http://www.w3.org/1999/xlink">
    <g id="Notes" font-family="'LucidaGrande', 'Lucida Grande', sans-serif" font-size="13">
        <rect fill="white" height="600.0" width="800.0" x="0.0" y="0.0" />
        <g font-size="13">
            <text x="18.0" y="176.0">Small</text>
            <text x="18.0" y="376.0">Medium</text>
            <text x="18.0" y="576.0">Large</text>
        </g>
        <g font-size="9">
            <text x="250.0" y="30.0">Ultralight</text>
            <text x="450.0" y="30.0">Regular</text>
            <text x="650.0" y="30.0">Black</text>
            <text id="template-version" fill="#505050" text-anchor="end" x="785.0" y="575.0">Template v.3.0</text>
            <a href="https://github.com/swhitty/SwiftDraw">
                <text fill="#505050" text-anchor="end" x="785.0" y="590.0">https://github.com/swhitty/SwiftDraw</text>
            </a>
        </g>
    </g>
    <g id="Guides" stroke="rgb(39, 170, 225)" stroke-width="0.5">
        <path id="Capline-S" d="M18,76 l800,0" />
        <path id="H-reference" d="M85,145.755 L87.685,145.755 L113.369,79.287 L114.052,79.287 L114.052,76 L112.148,76 L85,145.755 Z M95.693,121.536 L130.996,121.536 L130.263,119.313 L96.474,119.313 L95.693,121.536 Z M139.15,145.755 L141.787,145.755 L114.638,76 L113.466,76 L113.466,79.287 L139.15,145.755 Z" stroke="none" />
        <path id="Baseline-S" d="M18,146 l800,0" />
        <path id="left-margin-Ultralight-S" d="M220,56 l0,110" />
        <path id="right-margin-Ultralight-S" d="M310,56 l0,110" />
        <path id="left-margin-Regular-S" d="M420,56 l0,110" />
        <path id="right-margin-Regular-S" d="M510,56 l0,110" />
        <path id="left-margin-Black-S" d="M620,56 l0,110" />
        <path id="right-margin-Black-S" d="M710,56 l0,110" />
        <path id="Capline-M" d="M18,276 l800,0" />
        <path id="Baseline-M" d="M18,346 l800,0" />
        <path id="Capline-L" d="M18,476 l800,0" />
        <path id="Baseline-L" d="M18,546 l800,0" />
    </g>
    <g id="Symbols">
        <g id="Ultralight-S">
            <path d="M294.063,123.943 L278.212,116.839 L278.172,116.819 C276.499,116.102 274.577,116.28 273.063,117.29 C272.976,117.348 272.892,117.411 272.811,117.478 L264.62,124.462 C259.43,121.941 254.073,116.624 251.552,111.501 L258.545,103.186 C258.612,103.101 258.676,103.017 258.737,102.926 C259.724,101.418 259.891,99.515 259.181,97.858 L259.181,97.818 L252.057,81.937 C251.108,79.747 248.832,78.444 246.463,78.733 C237.03,79.974 229.983,88.024 230,97.538 C230,124.26 251.74,146 278.462,146 C287.976,146.017 296.026,138.97 297.267,129.537 C297.556,127.168 296.253,124.892 294.063,123.943 Z M278.462,140.615 C254.682,140.589 235.411,121.318 235.385,97.538 C235.358,90.74 240.381,84.978 247.119,84.077 C247.118,84.09 247.118,84.104 247.119,84.117 L254.187,99.935 L247.231,108.261 C247.16,108.342 247.096,108.428 247.039,108.52 C246.009,110.1 245.881,112.105 246.702,113.803 C249.751,120.039 256.035,126.275 262.338,129.321 C264.049,130.135 266.062,129.989 267.638,128.937 C267.726,128.879 267.809,128.815 267.888,128.746 L276.069,121.769 L291.886,128.857 L291.886,128.857 C291.886,128.857 291.913,128.857 291.923,128.857 C291.031,135.604 285.267,140.639 278.462,140.615 Z M286.538,102.923 L286.538,84.077 C286.538,82.59 287.744,81.385 289.231,81.385 C290.718,81.385 291.923,82.59 291.923,84.077 L291.923,102.923 C291.923,104.41 290.718,105.615 289.231,105.615 C287.744,105.615 286.538,104.41 286.538,102.923 Z M273.077,102.923 L273.077,84.077 C273.077,82.59 274.282,81.385 275.769,81.385 C277.256,81.385 278.462,82.59 278.462,84.077 L278.462,102.923 C278.462,104.41 277.256,105.615 275.769,105.615 C274.282,105.615 273.077,104.41 273.077,102.923 Z" />
        </g>
        <g id="Regular-S">
            <path d="M494.063,123.943 L478.212,116.839 L478.172,116.819 C476.499,116.102 474.577,116.28 473.063,117.29 C472.976,117.348 472.891,117.411 472.811,117.478 L464.62,124.462 C459.43,121.941 454.073,116.624 451.552,111.501 L458.545,103.186 C458.612,103.101 458.676,103.017 458.737,102.926 C459.724,101.418 459.891,99.515 459.181,97.858 L459.181,97.818 L452.057,81.937 C451.108,79.747 448.832,78.444 446.463,78.733 C437.03,79.974 429.983,88.024 430,97.538 C430,124.26 451.74,146 478.462,146 C487.976,146.017 496.026,138.97 497.267,129.537 C497.556,127.168 496.253,124.892 494.063,123.943 Z M478.462,140.615 C454.682,140.589 435.411,121.318 435.385,97.538 C435.358,90.74 440.381,84.978 447.119,84.077 C447.118,84.09 447.118,84.104 447.119,84.117 L454.187,99.935 L447.231,108.261 C447.16,108.342 447.096,108.428 447.039,108.52 C446.009,110.1 445.881,112.105 446.702,113.803 C449.751,120.039 456.035,126.275 462.338,129.321 C464.049,130.135 466.062,129.989 467.638,128.937 C467.726,128.879 467.809,128.815 467.887,128.746 L476.069,121.769 L491.886,128.857 L491.886,128.857 C491.886,128.857 491.913,128.857 491.923,128.857 C491.031,135.604 485.267,140.639 478.462,140.615 Z M486.538,102.923 L486.538,84.077 C486.538,82.59 487.744,81.385 489.231,81.385 C490.718,81.385 491.923,82.59 491.923,84.077 L491.923,102.923 C491.923,104.41 490.718,105.615 489.231,105.615 C487.744,105.615 486.538,104.41 486.538,102.923 Z M473.077,102.923 L473.077,84.077 C473.077,82.59 474.282,81.385 475.769,81.385 C477.256,81.385 478.462,82.59 478.462,84.077 L478.462,102.923 C478.462,104.41 477.256,105.615 475.769,105.615 C474.282,105.615 473.077,104.41 473.077,102.923 Z" />
        </g>
        <g id="Black-S">
            <path d="M694.063,123.943 L678.213,116.839 L678.172,116.819 C676.499,116.102 674.577,116.28 673.063,117.29 C672.976,117.348 672.892,117.411 672.811,117.478 L664.62,124.462 C659.43,121.941 654.073,116.624 651.552,111.501 L658.545,103.186 C658.613,103.101 658.676,103.017 658.737,102.926 C659.724,101.418 659.891,99.515 659.181,97.858 L659.181,97.818 L652.057,81.937 C651.108,79.747 648.832,78.444 646.464,78.733 C637.03,79.974 629.983,88.024 630,97.538 C630,124.26 651.74,146 678.462,146 C687.976,146.017 696.026,138.97 697.267,129.537 C697.557,127.168 696.253,124.892 694.063,123.943 Z M678.462,140.615 C654.682,140.589 635.411,121.318 635.385,97.538 C635.358,90.74 640.381,84.978 647.119,84.077 C647.118,84.09 647.118,84.104 647.119,84.117 L654.187,99.935 L647.231,108.261 C647.16,108.342 647.096,108.428 647.039,108.52 C646.009,110.1 645.881,112.105 646.702,113.803 C649.751,120.039 656.035,126.275 662.338,129.321 C664.049,130.135 666.062,129.989 667.638,128.937 C667.726,128.879 667.809,128.815 667.888,128.746 L676.069,121.769 L691.886,128.857 L691.886,128.857 C691.886,128.857 691.913,128.857 691.923,128.857 C691.031,135.604 685.267,140.639 678.462,140.615 Z M686.538,102.923 L686.538,84.077 C686.538,82.59 687.744,81.385 689.231,81.385 C690.718,81.385 691.923,82.59 691.923,84.077 L691.923,102.923 C691.923,104.41 690.718,105.615 689.231,105.615 C687.744,105.615 686.538,104.41 686.538,102.923 Z M673.077,102.923 L673.077,84.077 C673.077,82.59 674.282,81.385 675.769,81.385 C677.256,81.385 678.462,82.59 678.462,84.077 L678.462,102.923 C678.462,104.41 677.256,105.615 675.769,105.615 C674.282,105.615 673.077,104.41 673.077,102.923 Z" />
        </g>
    </g>
</svg>