<?xml version="1.0" encoding="UTF-8"?>
<svg height="600" width="800" xmlns="http://www.w3.org/2000/svg" xmlns:xlink="http://www.w3.org/1999/xlink">
    <g id="Notes" font-family="'LucidaGrande', 'Lucida Grande', sans-serif" font-size="13">
        <rect fill="white" height="600.0" width="800.0" x="0.0" y="0.0" />
        <g font-size="13">
            <text x="18.0" y="176.0">Small</text>
            <text x="18.0" y="376.0">Medium</text>
            <text x="18.0" y="576.0">Large</text>
        </g>
        <g font-size="9">
            <text x="250.0" y="30.0">Ultralight</text>
            <text x="450.0" y="30.0">Regular</text>
            <text x="650.0" y="30.0">Black</text>
            <text id="template-version" fill="#505050" text-anchor="end" x="785.0" y="575.0">Template v.3.0</text>
            <a href="https://github.com/swhitty/SwiftDraw">
                <text fill="#505050" text-anchor="end" x="785.0" y="590.0">https://github.com/swhitty/SwiftDraw</text>
            </a>
        </g>
    </g>
    <g id="Guides" stroke="rgb(39, 170, 225)" stroke-width="0.5">
        <path id="Capline-S" d="M18,76 l800,0" />
        <path id="H-reference" d="M85,145.755 L87.685,145.755 L113.369,79.287 L114.052,79.287 L114.052,76 L112.148,76 L85,145.755 Z M95.693,121.536 L130.996,121.536 L130.263,119.313 L96.474,119.313 L95.693,121.536 Z M139.15,145.755 L141.787,145.755 L114.638,76 L113.466,76 L113.466,79.287 L139.15,145.755 Z" stroke="none" />
        <path id="Baseline-S" d="M18,146 l800,0" />
        <path id="left-margin-Ultralight-S" d="M220,56 l0,110" />
        <path id="right-margin-Ultralight-S" d="M310,56 l0,110" />
        <path id="left-margin-Regular-S" d="M420,56 l0,110" />
        <path id="right-margin-Regular-S" d="M510,56 l0,110" />
        <path id="left-margin-Black-S" d="M620,56 l0,110" />
        <path id="right-margin-Black-S" d="M710,56 l0,110" />
        <path id="Capline-M" d="M18,276 l800,0" />
        <path id="Baseline-M" d="M18,346 l800,0" />
        <path id="Capline-L" d="M18,476 l800,0" />
        <path id="Baseline-L" d="M18,546 l800,0" />
    </g>
    <g id="Symbols">
        <g id="Ultralight-S">
            <path d="M254.231,137.923 C254.231,138.637 253.947,139.322 253.442,139.827 C252.937,140.332 252.253,140.615 251.538,140.615 L235.176,140.615 C232.319,140.612 230.004,138.296 230,135.439 L230,132.538 C230,131.052 231.205,129.846 232.692,129.846 C234.179,129.846 235.385,131.052 235.385,132.538 L235.385,135.231 L251.538,135.231 C252.253,135.231 252.937,135.514 253.442,136.019 C253.947,136.524 254.231,137.209 254.231,137.923 Z M275.769,135.231 L265,135.231 C263.513,135.231 262.308,136.436 262.308,137.923 C262.308,139.41 263.513,140.615 265,140.615 L275.769,140.615 C277.256,140.615 278.462,139.41 278.462,137.923 C278.462,136.436 277.256,135.231 275.769,135.231 Z M297.308,116.385 C296.594,116.385 295.909,116.668 295.404,117.173 C294.899,117.678 294.615,118.363 294.615,119.077 L294.615,135.231 L289.231,135.231 C287.744,135.231 286.538,136.436 286.538,137.923 C286.538,139.41 287.744,140.615 289.231,140.615 L294.915,140.615 C297.722,140.612 299.996,138.337 300,135.53 L300,119.077 C300,118.363 299.716,117.678 299.211,117.173 C298.707,116.668 298.022,116.385 297.308,116.385 Z M294.615,92.154 L278.462,92.154 C276.975,92.154 275.769,93.359 275.769,94.846 C275.769,96.333 276.975,97.538 278.462,97.538 L294.615,97.538 L294.615,105.615 C294.615,107.102 295.821,108.308 297.308,108.308 C298.795,108.308 300,107.102 300,105.615 L300,97.538 C300,96.11 299.433,94.741 298.423,93.731 C297.413,92.721 296.043,92.154 294.615,92.154 Z M230,94.846 L230,86.769 C230,85.341 230.567,83.972 231.577,82.962 C232.587,81.952 233.957,81.385 235.385,81.385 L253.117,81.385 C254.546,81.38 255.917,81.949 256.923,82.963 L266.905,92.941 C267.676,93.711 267.906,94.87 267.489,95.877 C267.072,96.883 266.09,97.539 265,97.538 L232.692,97.538 C231.978,97.538 231.293,97.255 230.789,96.75 C230.284,96.245 230,95.56 230,94.846 Z M235.385,92.154 L258.501,92.154 L253.117,86.769 L235.385,86.769 Z M232.692,121.769 C233.406,121.769 234.091,121.486 234.596,120.981 C235.101,120.476 235.385,119.791 235.385,119.077 L235.385,108.308 C235.385,106.821 234.179,105.615 232.692,105.615 C231.205,105.615 230,106.821 230,108.308 L230,119.077 C230,119.791 230.284,120.476 230.789,120.981 C231.293,121.486 231.978,121.769 232.692,121.769 Z" />
        </g>
        <g id="Regular-S">
            <path d="M454.231,137.923 C454.231,138.637 453.947,139.322 453.442,139.827 C452.937,140.332 452.253,140.615 451.538,140.615 L435.176,140.615 C432.319,140.612 430.004,138.296 430,135.439 L430,132.538 C430,131.052 431.205,129.846 432.692,129.846 C434.179,129.846 435.385,131.052 435.385,132.538 L435.385,135.231 L451.538,135.231 C452.253,135.231 452.937,135.514 453.442,136.019 C453.947,136.524 454.231,137.209 454.231,137.923 Z M475.769,135.231 L465,135.231 C463.513,135.231 462.308,136.436 462.308,137.923 C462.308,139.41 463.513,140.615 465,140.615 L475.769,140.615 C477.256,140.615 478.462,139.41 478.462,137.923 C478.462,136.436 477.256,135.231 475.769,135.231 Z M497.308,116.385 C496.594,116.385 495.909,116.668 495.404,117.173 C494.899,117.678 494.615,118.363 494.615,119.077 L494.615,135.231 L489.231,135.231 C487.744,135.231 486.538,136.436 486.538,137.923 C486.538,139.41 487.744,140.615 489.231,140.615 L494.915,140.615 C497.722,140.612 499.996,138.337 500,135.53 L500,119.077 C500,118.363 499.716,117.678 499.211,117.173 C498.707,116.668 498.022,116.385 497.308,116.385 Z M494.615,92.154 L478.462,92.154 C476.975,92.154 475.769,93.359 475.769,94.846 C475.769,96.333 476.975,97.538 478.462,97.538 L494.615,97.538 L494.615,105.615 C494.615,107.102 495.821,108.308 497.308,108.308 C498.795,108.308 500,107.102 500,105.615 L500,97.538 C500,96.11 499.433,94.741 498.423,93.731 C497.413,92.721 496.043,92.154 494.615,92.154 Z M430,94.846 L430,86.769 C430,85.341 430.567,83.972 431.577,82.962 C432.587,81.952 433.957,81.385 435.385,81.385 L453.117,81.385 C454.546,81.38 455.917,81.949 456.923,82.963 L466.905,92.941 C467.676,93.711 467.906,94.87 467.489,95.877 C467.072,96.883 466.09,97.539 465,97.538 L432.692,97.538 C431.978,97.538 431.293,97.255 430.789,96.75 C430.284,96.245 430,95.56 430,94.846 Z M435.385,92.154 L458.501,92.154 L453.117,86.769 L435.385,86.769 Z M432.692,121.769 C433.406,121.769 434.091,121.486 434.596,120.981 C435.101,120.476 435.385,119.791 435.385,119.077 L435.385,108.308 C435.385,106.821 434.179,105.615 432.692,105.615 C431.205,105.615 430,106.821 430,108.308 L430,119.077 C430,119.791 430.284,120.476 430.789,120.981 C431.293,121.486 431.978,121.769 432.692,121.769 Z" />
        </g>
        <g id="Black-S">
            <path d="M654.231,137.923 C654.231,138.637 653.947,139.322 653.442,139.827 C652.937,140.332 652.253,140.615 651.538,140.615 L635.176,140.615 C632.319,140.612 630.004,138.296 630,135.439 L630,132.538 C630,131.052 631.205,129.846 632.692,129.846 C634.179,129.846 635.385,131.052 635.385,132.538 L635.385,135.231 L651.538,135.231 C652.253,135.231 652.937,135.514 653.442,136.019 C653.947,136.524 654.231,137.209 654.231,137.923 Z M675.769,135.231 L665,135.231 C663.513,135.231 662.308,136.436 662.308,137.923 C662.308,139.41 663.513,140.615 665,140.615 L675.769,140.615 C677.256,140.615 678.462,139.41 678.462,137.923 C678.462,136.436 677.256,135.231 675.769,135.231 Z M697.308,116.385 C696.594,116.385 695.909,116.668 695.404,117.173 C694.899,117.678 694.615,118.363 694.615,119.077 L694.615,135.231 L689.231,135.231 C687.744,135.231 686.538,136.436 686.538,137.923 C686.538,139.41 687.744,140.615 689.231,140.615 L694.915,140.615 C697.722,140.612 699.996,138.337 700,135.53 L700,119.077 C700,118.363 699.716,117.678 699.211,117.173 C698.707,116.668 698.022,116.385 697.308,116.385 Z M694.615,92.154 L678.462,92.154 C676.975,92.154 675.769,93.359 675.769,94.846 C675.769,96.333 676.975,97.538 678.462,97.538 L694.615,97.538 L694.615,105.615 C694.615,107.102 695.821,108.308 697.308,108.308 C698.795,108.308 700,107.102 700,105.615 L700,97.538 C700,96.11 699.433,94.741 698.423,93.731 C697.413,92.721 696.044,92.154 694.615,92.154 Z M630,94.846 L630,86.769 C630,85.341 630.567,83.972 631.577,82.962 C632.587,81.952 633.957,81.385 635.385,81.385 L653.117,81.385 C654.546,81.38 655.917,81.949 656.923,82.963 L666.905,92.941 C667.676,93.711 667.906,94.87 667.489,95.877 C667.072,96.883 666.09,97.539 665,97.538 L632.692,97.538 C631.978,97.538 631.293,97.255 630.789,96.75 C630.284,96.245 630,95.56 630,94.846 Z M635.385,92.154 L658.501,92.154 L653.117,86.769 L635.385,86.769 Z M632.692,121.769 C633.406,121.769 634.091,121.486 634.596,120.981 C635.101,120.476 635.385,119.791 635.385,119.077 L635.385,108.308 C635.385,106.821 634.179,105.615 632.692,105.615 C631.205,105.615 630,106.821 630,108.308 L630,119.077 C630,119.791 630.284,120.476 630.789,120.981 C631.293,121.486 631.978,121.769 632.692,121.769 Z" />
        </g>
    </g>
</svg>