<?xml version="1.0" encoding="UTF-8"?>
<svg height="600" width="800" xmlns="http://www.w3.org/2000/svg" xmlns:xlink="http://www.w3.org/1999/xlink">
    <g id="Notes" font-family="'LucidaGrande', 'Lucida Grande', sans-serif" font-size="13">
        <rect fill="white" height="600.0" width="800.0" x="0.0" y="0.0" />
        <g font-size="13">
            <text x="18.0" y="176.0">Small</text>
            <text x="18.0" y="376.0">Medium</text>
            <text x="18.0" y="576.0">Large</text>
        </g>
        <g font-size="9">
            <text x="250.0" y="30.0">Ultralight</text>
            <text x="450.0" y="30.0">Regular</text>
            <text x="650.0" y="30.0">Black</text>
            <text id="template-version" fill="#505050" text-anchor="end" x="785.0" y="575.0">Template v.3.0</text>
            <a href="https://github.com/swhitty/SwiftDraw">
                <text fill="#505050" text-anchor="end" x="785.0" y="590.0">https://github.com/swhitty/SwiftDraw</text>
            </a>
        </g>
    </g>
    <g id="Guides" stroke="rgb(39, 170, 225)" stroke-width="0.5">
        <path id="Capline-S" d="M18,76 l800,0" />
        <path id="H-reference" d="M85,145.755 L87.685,145.755 L113.369,79.287 L114.052,79.287 L114.052,76 L112.148,76 L85,145.755 Z M95.693,121.536 L130.996,121.536 L130.263,119.313 L96.474,119.313 L95.693,121.536 Z M139.15,145.755 L141.787,145.755 L114.638,76 L113.466,76 L113.466,79.287 L139.15,145.755 Z" stroke="none" />
        <path id="Baseline-S" d="M18,146 l800,0" />
        <path id="left-margin-Ultralight-S" d="M220,56 l0,110" />
        <path id="right-margin-Ultralight-S" d="M310,56 l0,110" />
        <path id="left-margin-Regular-S" d="M420,56 l0,110" />
        <path id="right-margin-Regular-S" d="M510,56 l0,110" />
        <path id="left-margin-Black-S" d="M620,56 l0,110" />
        <path id="right-margin-Black-S" d="M710,56 l0,110" />
        <path id="Capline-M" d="M18,276 l800,0" />
        <path id="Baseline-M" d="M18,346 l800,0" />
        <path id="Capline-L" d="M18,476 l800,0" />
        <path id="Baseline-L" d="M18,546 l800,0" />
    </g>
    <g id="Symbols">
        <g id="Ultralight-S">
            <path d="M248.846,108.308 C248.846,107.594 249.13,106.909 249.635,106.404 C250.14,105.899 250.824,105.615 251.538,105.615 L256.923,105.615 L256.923,100.231 C256.923,98.744 258.128,97.538 259.615,97.538 C261.102,97.538 262.308,98.744 262.308,100.231 L262.308,105.615 L267.692,105.615 C269.179,105.615 270.385,106.821 270.385,108.308 C270.385,109.795 269.179,111 267.692,111 L262.308,111 L262.308,116.385 C262.308,117.872 261.102,119.077 259.615,119.077 C258.128,119.077 256.923,117.872 256.923,116.385 L256.923,111 L251.538,111 C250.824,111 250.14,110.716 249.635,110.211 C249.13,109.707 248.846,109.022 248.846,108.308 Z M308.077,108.308 L308.077,129.846 C308.077,131.274 307.51,132.644 306.5,133.654 C305.49,134.663 304.12,135.231 302.692,135.231 L296.971,135.231 C295.751,139.996 291.457,143.329 286.538,143.329 C281.62,143.329 277.326,139.996 276.106,135.231 L259.279,135.231 C258.059,139.996 253.765,143.329 248.846,143.329 C243.927,143.329 239.634,139.996 238.413,135.231 L232.692,135.231 C231.264,135.231 229.895,134.663 228.885,133.654 C227.875,132.644 227.308,131.274 227.308,129.846 L227.308,92.154 C227.308,90.726 227.875,89.356 228.885,88.346 C229.895,87.337 231.264,86.769 232.692,86.769 L283.846,86.769 C284.56,86.769 285.245,87.053 285.75,87.558 C286.255,88.063 286.538,88.747 286.538,89.462 L286.538,92.154 L298.176,92.154 C300.38,92.147 302.365,93.49 303.177,95.539 L307.888,107.318 C308.014,107.633 308.078,107.969 308.077,108.308 Z M286.538,97.538 L286.538,105.615 L301.407,105.615 L298.176,97.538 Z M232.692,129.846 L238.413,129.846 C239.634,125.081 243.927,121.748 248.846,121.748 C253.765,121.748 258.059,125.081 259.279,129.846 L276.106,129.846 C276.835,127.051 278.653,124.665 281.154,123.22 L281.154,92.154 L232.692,92.154 Z M254.231,132.538 C254.231,129.565 251.82,127.154 248.846,127.154 C245.872,127.154 243.462,129.565 243.462,132.538 C243.462,135.512 245.872,137.923 248.846,137.923 C250.274,137.923 251.644,137.356 252.654,136.346 C253.663,135.336 254.231,133.967 254.231,132.538 Z M291.923,132.538 C291.923,129.565 289.512,127.154 286.538,127.154 C283.565,127.154 281.154,129.565 281.154,132.538 C281.154,135.512 283.565,137.923 286.538,137.923 C287.967,137.923 289.336,137.356 290.346,136.346 C291.356,135.336 291.923,133.967 291.923,132.538 Z M302.692,129.846 L302.692,111 L286.538,111 L286.538,121.769 C291.449,121.774 295.737,125.094 296.971,129.846 Z" />
        </g>
        <g id="Regular-S">
            <path d="M448.846,108.308 C448.846,107.594 449.13,106.909 449.635,106.404 C450.14,105.899 450.824,105.615 451.538,105.615 L456.923,105.615 L456.923,100.231 C456.923,98.744 458.128,97.538 459.615,97.538 C461.102,97.538 462.308,98.744 462.308,100.231 L462.308,105.615 L467.692,105.615 C469.179,105.615 470.385,106.821 470.385,108.308 C470.385,109.795 469.179,111 467.692,111 L462.308,111 L462.308,116.385 C462.308,117.872 461.102,119.077 459.615,119.077 C458.128,119.077 456.923,117.872 456.923,116.385 L456.923,111 L451.538,111 C450.824,111 450.14,110.716 449.635,110.211 C449.13,109.707 448.846,109.022 448.846,108.308 Z M508.077,108.308 L508.077,129.846 C508.077,131.274 507.51,132.644 506.5,133.654 C505.49,134.663 504.12,135.231 502.692,135.231 L496.971,135.231 C495.751,139.996 491.457,143.329 486.538,143.329 C481.62,143.329 477.326,139.996 476.106,135.231 L459.279,135.231 C458.059,139.996 453.765,143.329 448.846,143.329 C443.927,143.329 439.634,139.996 438.413,135.231 L432.692,135.231 C431.264,135.231 429.895,134.663 428.885,133.654 C427.875,132.644 427.308,131.274 427.308,129.846 L427.308,92.154 C427.308,90.726 427.875,89.356 428.885,88.346 C429.895,87.337 431.264,86.769 432.692,86.769 L483.846,86.769 C484.56,86.769 485.245,87.053 485.75,87.558 C486.255,88.063 486.538,88.747 486.538,89.462 L486.538,92.154 L498.176,92.154 C500.38,92.147 502.365,93.49 503.177,95.539 L507.888,107.318 C508.014,107.633 508.078,107.969 508.077,108.308 Z M486.538,97.538 L486.538,105.615 L501.407,105.615 L498.176,97.538 Z M432.692,129.846 L438.413,129.846 C439.634,125.081 443.927,121.748 448.846,121.748 C453.765,121.748 458.059,125.081 459.279,129.846 L476.106,129.846 C476.835,127.051 478.653,124.665 481.154,123.22 L481.154,92.154 L432.692,92.154 Z M454.231,132.538 C454.231,129.565 451.82,127.154 448.846,127.154 C445.872,127.154 443.462,129.565 443.462,132.538 C443.462,135.512 445.872,137.923 448.846,137.923 C450.274,137.923 451.644,137.356 452.654,136.346 C453.663,135.336 454.231,133.967 454.231,132.538 Z M491.923,132.538 C491.923,129.565 489.512,127.154 486.538,127.154 C483.565,127.154 481.154,129.565 481.154,132.538 C481.154,135.512 483.565,137.923 486.538,137.923 C487.967,137.923 489.336,137.356 490.346,136.346 C491.356,135.336 491.923,133.967 491.923,132.538 Z M502.692,129.846 L502.692,111 L486.538,111 L486.538,121.769 C491.449,121.774 495.737,125.094 496.971,129.846 Z" />
        </g>
        <g id="Black-S">
            <path d="M648.846,108.308 C648.846,107.594 649.13,106.909 649.635,106.404 C650.14,105.899 650.824,105.615 651.538,105.615 L656.923,105.615 L656.923,100.231 C656.923,98.744 658.128,97.538 659.615,97.538 C661.102,97.538 662.308,98.744 662.308,100.231 L662.308,105.615 L667.692,105.615 C669.179,105.615 670.385,106.821 670.385,108.308 C670.385,109.795 669.179,111 667.692,111 L662.308,111 L662.308,116.385 C662.308,117.872 661.102,119.077 659.615,119.077 C658.128,119.077 656.923,117.872 656.923,116.385 L656.923,111 L651.538,111 C650.824,111 650.14,110.716 649.635,110.211 C649.13,109.707 648.846,109.022 648.846,108.308 Z M708.077,108.308 L708.077,129.846 C708.077,131.274 707.51,132.644 706.5,133.654 C705.49,134.663 704.12,135.231 702.692,135.231 L696.971,135.231 C695.751,139.996 691.457,143.329 686.538,143.329 C681.62,143.329 677.326,139.996 676.106,135.231 L659.279,135.231 C658.059,139.996 653.765,143.329 648.846,143.329 C643.927,143.329 639.634,139.996 638.413,135.231 L632.692,135.231 C631.264,135.231 629.895,134.663 628.885,133.654 C627.875,132.644 627.308,131.274 627.308,129.846 L627.308,92.154 C627.308,90.726 627.875,89.356 628.885,88.346 C629.895,87.337 631.264,86.769 632.692,86.769 L683.846,86.769 C684.56,86.769 685.245,87.053 685.75,87.558 C686.255,88.063 686.538,88.747 686.538,89.462 L686.538,92.154 L698.176,92.154 C700.38,92.147 702.365,93.49 703.177,95.539 L707.888,107.318 C708.014,107.633 708.078,107.969 708.077,108.308 Z M686.538,97.538 L686.538,105.615 L701.407,105.615 L698.176,97.538 Z M632.692,129.846 L638.413,129.846 C639.634,125.081 643.927,121.748 648.846,121.748 C653.765,121.748 658.059,125.081 659.279,129.846 L676.106,129.846 C676.835,127.051 678.653,124.665 681.154,123.22 L681.154,92.154 L632.692,92.154 Z M654.231,132.538 C654.231,129.565 651.82,127.154 648.846,127.154 C645.872,127.154 643.462,129.565 643.462,132.538 C643.462,135.512 645.872,137.923 648.846,137.923 C650.274,137.923 651.644,137.356 652.654,136.346 C653.663,135.336 654.231,133.967 654.231,132.538 Z M691.923,132.538 C691.923,129.565 689.512,127.154 686.538,127.154 C683.565,127.154 681.154,129.565 681.154,132.538 C681.154,135.512 683.565,137.923 686.538,137.923 C687.967,137.923 689.336,137.356 690.346,136.346 C691.356,135.336 691.923,133.967 691.923,132.538 Z M702.692,129.846 L702.692,111 L686.538,111 L686.538,121.769 C691.449,121.774 695.737,125.094 696.971,129.846 Z" />
        </g>
    </g>
</svg>