<?xml version="1.0" encoding="UTF-8"?>
<svg height="600" width="800" xmlns="http://www.w3.org/2000/svg" xmlns:xlink="http://www.w3.org/1999/xlink">
    <g id="Notes" font-family="'LucidaGrande', 'Lucida Grande', sans-serif" font-size="13">
        <rect fill="white" height="600.0" width="800.0" x="0.0" y="0.0" />
        <g font-size="13">
            <text x="18.0" y="176.0">Small</text>
            <text x="18.0" y="376.0">Medium</text>
            <text x="18.0" y="576.0">Large</text>
        </g>
        <g font-size="9">
            <text x="250.0" y="30.0">Ultralight</text>
            <text x="450.0" y="30.0">Regular</text>
            <text x="650.0" y="30.0">Black</text>
            <text id="template-version" fill="#505050" text-anchor="end" x="785.0" y="575.0">Template v.3.0</text>
            <a href="https://github.com/swhitty/SwiftDraw">
                <text fill="#505050" text-anchor="end" x="785.0" y="590.0">https://github.com/swhitty/SwiftDraw</text>
            </a>
        </g>
    </g>
    <g id="Guides" stroke="rgb(39, 170, 225)" stroke-width="0.5">
        <path id="Capline-S" d="M18,76 l800,0" />
        <path id="H-reference" d="M85,145.755 L87.685,145.755 L113.369,79.287 L114.052,79.287 L114.052,76 L112.148,76 L85,145.755 Z M95.693,121.536 L130.996,121.536 L130.263,119.313 L96.474,119.313 L95.693,121.536 Z M139.15,145.755 L141.787,145.755 L114.638,76 L113.466,76 L113.466,79.287 L139.15,145.755 Z" stroke="none" />
        <path id="Baseline-S" d="M18,146 l800,0" />
        <path id="left-margin-Ultralight-S" d="M220,56 l0,110" />
        <path id="right-margin-Ultralight-S" d="M310,56 l0,110" />
        <path id="left-margin-Regular-S" d="M420,56 l0,110" />
        <path id="right-margin-Regular-S" d="M510,56 l0,110" />
        <path id="left-margin-Black-S" d="M620,56 l0,110" />
        <path id="right-margin-Black-S" d="M710,56 l0,110" />
        <path id="Capline-M" d="M18,276 l800,0" />
        <path id="Baseline-M" d="M18,346 l800,0" />
        <path id="Capline-L" d="M18,476 l800,0" />
        <path id="Baseline-L" d="M18,546 l800,0" />
    </g>
    <g id="Symbols">
        <g id="Ultralight-S">
            <path d="M251.538,119.077 L251.538,135.231 C251.538,136.718 250.333,137.923 248.846,137.923 C247.359,137.923 246.154,136.718 246.154,135.231 L246.154,119.077 C246.154,117.59 247.359,116.385 248.846,116.385 C250.333,116.385 251.538,117.59 251.538,119.077 Z M235.385,129.846 C234.671,129.846 233.986,130.13 233.481,130.635 C232.976,131.14 232.692,131.824 232.692,132.538 L232.692,135.231 C232.692,136.718 233.898,137.923 235.385,137.923 C236.872,137.923 238.077,136.718 238.077,135.231 L238.077,132.538 C238.077,131.824 237.793,131.14 237.288,130.635 C236.783,130.13 236.099,129.846 235.385,129.846 Z M293.915,138.805 L240.069,79.574 C239.426,78.849 238.442,78.525 237.494,78.728 C236.546,78.93 235.779,79.626 235.488,80.551 C235.196,81.475 235.424,82.486 236.085,83.195 L259.615,109.078 L259.615,135.231 C259.615,136.718 260.821,137.923 262.308,137.923 C263.795,137.923 265,136.718 265,135.231 L265,115.001 L273.077,123.886 L273.077,135.231 C273.077,136.718 274.282,137.923 275.769,137.923 C277.256,137.923 278.462,136.718 278.462,135.231 L278.462,129.809 L289.931,142.426 C290.574,143.151 291.558,143.475 292.506,143.272 C293.454,143.07 294.221,142.374 294.512,141.449 C294.804,140.525 294.576,139.514 293.915,138.805 Z M275.769,109.526 C276.483,109.526 277.168,109.242 277.673,108.737 C278.178,108.232 278.462,107.548 278.462,106.834 L278.462,92.154 C278.462,90.667 277.256,89.462 275.769,89.462 C274.282,89.462 273.077,90.667 273.077,92.154 L273.077,106.837 C273.077,108.324 274.282,109.529 275.769,109.529 Z M289.231,124.334 C289.945,124.334 290.63,124.05 291.135,123.545 C291.639,123.04 291.923,122.355 291.923,121.641 L291.923,78.692 C291.923,77.205 290.718,76 289.231,76 C287.744,76 286.538,77.205 286.538,78.692 L286.538,121.645 C286.538,122.359 286.822,123.044 287.327,123.548 C287.832,124.053 288.517,124.337 289.231,124.337 Z" />
        </g>
        <g id="Regular-S">
            <path d="M451.538,119.077 L451.538,135.231 C451.538,136.718 450.333,137.923 448.846,137.923 C447.359,137.923 446.154,136.718 446.154,135.231 L446.154,119.077 C446.154,117.59 447.359,116.385 448.846,116.385 C450.333,116.385 451.538,117.59 451.538,119.077 Z M435.385,129.846 C434.671,129.846 433.986,130.13 433.481,130.635 C432.976,131.14 432.692,131.824 432.692,132.538 L432.692,135.231 C432.692,136.718 433.898,137.923 435.385,137.923 C436.872,137.923 438.077,136.718 438.077,135.231 L438.077,132.538 C438.077,131.824 437.793,131.14 437.288,130.635 C436.783,130.13 436.099,129.846 435.385,129.846 Z M493.915,138.805 L440.069,79.574 C439.426,78.849 438.442,78.525 437.494,78.728 C436.546,78.93 435.779,79.626 435.488,80.551 C435.196,81.475 435.424,82.486 436.085,83.195 L459.615,109.078 L459.615,135.231 C459.615,136.718 460.821,137.923 462.308,137.923 C463.795,137.923 465,136.718 465,135.231 L465,115.001 L473.077,123.886 L473.077,135.231 C473.077,136.718 474.282,137.923 475.769,137.923 C477.256,137.923 478.462,136.718 478.462,135.231 L478.462,129.809 L489.931,142.426 C490.574,143.151 491.558,143.475 492.506,143.272 C493.454,143.07 494.221,142.374 494.512,141.449 C494.804,140.525 494.576,139.514 493.915,138.805 Z M475.769,109.526 C476.483,109.526 477.168,109.242 477.673,108.737 C478.178,108.232 478.462,107.548 478.462,106.834 L478.462,92.154 C478.462,90.667 477.256,89.462 475.769,89.462 C474.282,89.462 473.077,90.667 473.077,92.154 L473.077,106.837 C473.077,108.324 474.282,109.529 475.769,109.529 Z M489.231,124.334 C489.945,124.334 490.63,124.05 491.135,123.545 C491.639,123.04 491.923,122.355 491.923,121.641 L491.923,78.692 C491.923,77.205 490.718,76 489.231,76 C487.744,76 486.538,77.205 486.538,78.692 L486.538,121.645 C486.538,122.359 486.822,123.044 487.327,123.548 C487.832,124.053 488.517,124.337 489.231,124.337 Z" />
        </g>
        <g id="Black-S">
            <path d="M651.538,119.077 L651.538,135.231 C651.538,136.718 650.333,137.923 648.846,137.923 C647.359,137.923 646.154,136.718 646.154,135.231 L646.154,119.077 C646.154,117.59 647.359,116.385 648.846,116.385 C650.333,116.385 651.538,117.59 651.538,119.077 Z M635.385,129.846 C634.671,129.846 633.986,130.13 633.481,130.635 C632.976,131.14 632.692,131.824 632.692,132.538 L632.692,135.231 C632.692,136.718 633.898,137.923 635.385,137.923 C636.872,137.923 638.077,136.718 638.077,135.231 L638.077,132.538 C638.077,131.824 637.793,131.14 637.288,130.635 C636.783,130.13 636.099,129.846 635.385,129.846 Z M693.915,138.805 L640.069,79.574 C639.426,78.849 638.442,78.525 637.494,78.728 C636.546,78.93 635.779,79.626 635.488,80.551 C635.196,81.475 635.424,82.486 636.085,83.195 L659.615,109.078 L659.615,135.231 C659.615,136.718 660.821,137.923 662.308,137.923 C663.795,137.923 665,136.718 665,135.231 L665,115.001 L673.077,123.886 L673.077,135.231 C673.077,136.718 674.282,137.923 675.769,137.923 C677.256,137.923 678.462,136.718 678.462,135.231 L678.462,129.809 L689.931,142.426 C690.574,143.151 691.558,143.475 692.506,143.272 C693.454,143.07 694.221,142.374 694.512,141.449 C694.804,140.525 694.576,139.514 693.915,138.805 Z M675.769,109.526 C676.483,109.526 677.168,109.242 677.673,108.737 C678.178,108.232 678.462,107.548 678.462,106.834 L678.462,92.154 C678.462,90.667 677.256,89.462 675.769,89.462 C674.282,89.462 673.077,90.667 673.077,92.154 L673.077,106.837 C673.077,108.324 674.282,109.529 675.769,109.529 Z M689.231,124.334 C689.945,124.334 690.63,124.05 691.135,123.545 C691.639,123.04 691.923,122.355 691.923,121.641 L691.923,78.692 C691.923,77.205 690.718,76 689.231,76 C687.744,76 686.538,77.205 686.538,78.692 L686.538,121.645 C686.538,122.359 686.822,123.044 687.327,123.548 C687.832,124.053 688.517,124.337 689.231,124.337 Z" />
        </g>
    </g>
</svg>