<?xml version="1.0" encoding="UTF-8"?>
<svg height="600" width="800" xmlns="http://www.w3.org/2000/svg" xmlns:xlink="http://www.w3.org/1999/xlink">
    <g id="Notes" font-family="'LucidaGrande', 'Lucida Grande', sans-serif" font-size="13">
        <rect fill="white" height="600.0" width="800.0" x="0.0" y="0.0" />
        <g font-size="13">
            <text x="18.0" y="176.0">Small</text>
            <text x="18.0" y="376.0">Medium</text>
            <text x="18.0" y="576.0">Large</text>
        </g>
        <g font-size="9">
            <text x="250.0" y="30.0">Ultralight</text>
            <text x="450.0" y="30.0">Regular</text>
            <text x="650.0" y="30.0">Black</text>
            <text id="template-version" fill="#505050" text-anchor="end" x="785.0" y="575.0">Template v.3.0</text>
            <a href="https://github.com/swhitty/SwiftDraw">
                <text fill="#505050" text-anchor="end" x="785.0" y="590.0">https://github.com/swhitty/SwiftDraw</text>
            </a>
        </g>
    </g>
    <g id="Guides" stroke="rgb(39, 170, 225)" stroke-width="0.5">
        <path id="Capline-S" d="M18,76 l800,0" />
        <path id="H-reference" d="M85,145.755 L87.685,145.755 L113.369,79.287 L114.052,79.287 L114.052,76 L112.148,76 L85,145.755 Z M95.693,121.536 L130.996,121.536 L130.263,119.313 L96.474,119.313 L95.693,121.536 Z M139.15,145.755 L141.787,145.755 L114.638,76 L113.466,76 L113.466,79.287 L139.15,145.755 Z" stroke="none" />
        <path id="Baseline-S" d="M18,146 l800,0" />
        <path id="left-margin-Ultralight-S" d="M220,56 l0,110" />
        <path id="right-margin-Ultralight-S" d="M310,56 l0,110" />
        <path id="left-margin-Regular-S" d="M420,56 l0,110" />
        <path id="right-margin-Regular-S" d="M510,56 l0,110" />
        <path id="left-margin-Black-S" d="M620,56 l0,110" />
        <path id="right-margin-Black-S" d="M710,56 l0,110" />
        <path id="Capline-M" d="M18,276 l800,0" />
        <path id="Baseline-M" d="M18,346 l800,0" />
        <path id="Capline-L" d="M18,476 l800,0" />
        <path id="Baseline-L" d="M18,546 l800,0" />
    </g>
    <g id="Symbols">
        <g id="Ultralight-S">
            <path d="M297.308,122.496 L297.308,116.385 C297.279,101.618 287.264,88.745 272.96,85.086 C275.458,81.14 274.688,75.961 271.152,72.911 C267.616,69.861 262.38,69.861 258.844,72.911 C255.308,75.961 254.538,81.14 257.035,85.086 C242.733,88.746 232.719,101.621 232.692,116.385 L232.692,122.496 C231.028,123.457 230.002,125.232 230,127.154 L230,137.923 C230,139.351 230.567,140.721 231.577,141.731 C232.587,142.74 233.957,143.308 235.385,143.308 L294.615,143.308 C296.043,143.308 297.413,142.74 298.423,141.731 C299.433,140.721 300,139.351 300,137.923 L300,127.154 C299.998,125.232 298.972,123.457 297.308,122.496 Z M260.962,80.038 C260.962,77.808 262.77,76 265,76 C267.23,76 269.038,77.808 269.038,80.038 C269.038,82.269 267.23,84.077 265,84.077 C263.929,84.077 262.902,83.651 262.144,82.894 C261.387,82.137 260.962,81.11 260.962,80.038 Z M265,89.462 C279.862,89.478 291.906,101.522 291.923,116.385 L291.923,121.769 L238.077,121.769 L238.077,116.385 C238.093,101.523 250.137,89.479 264.999,89.462 Z M262.308,127.154 L262.308,137.923 L248.846,137.923 L248.846,127.154 Z M267.692,127.154 L281.154,127.154 L281.154,137.923 L267.692,137.923 Z M235.385,127.154 L243.462,127.154 L243.462,137.923 L235.385,137.923 Z M294.615,137.923 L286.538,137.923 L286.538,127.154 L294.615,127.154 L294.615,137.923 Z" />
        </g>
        <g id="Regular-S">
            <path d="M497.308,122.496 L497.308,116.385 C497.279,101.618 487.264,88.745 472.96,85.086 C475.458,81.14 474.688,75.961 471.152,72.911 C467.616,69.861 462.38,69.861 458.844,72.911 C455.308,75.961 454.538,81.14 457.035,85.086 C442.733,88.746 432.719,101.621 432.692,116.385 L432.692,122.496 C431.028,123.457 430.002,125.232 430,127.154 L430,137.923 C430,139.351 430.567,140.721 431.577,141.731 C432.587,142.74 433.957,143.308 435.385,143.308 L494.615,143.308 C496.043,143.308 497.413,142.74 498.423,141.731 C499.433,140.721 500,139.351 500,137.923 L500,127.154 C499.998,125.232 498.972,123.457 497.308,122.496 Z M460.962,80.038 C460.962,77.808 462.77,76 465,76 C467.23,76 469.038,77.808 469.038,80.038 C469.038,82.269 467.23,84.077 465,84.077 C463.929,84.077 462.902,83.651 462.144,82.894 C461.387,82.137 460.962,81.11 460.962,80.038 Z M465,89.462 C479.862,89.478 491.906,101.522 491.923,116.385 L491.923,121.769 L438.077,121.769 L438.077,116.385 C438.093,101.523 450.137,89.479 464.999,89.462 Z M462.308,127.154 L462.308,137.923 L448.846,137.923 L448.846,127.154 Z M467.692,127.154 L481.154,127.154 L481.154,137.923 L467.692,137.923 Z M435.385,127.154 L443.462,127.154 L443.462,137.923 L435.385,137.923 Z M494.615,137.923 L486.538,137.923 L486.538,127.154 L494.615,127.154 L494.615,137.923 Z" />
        </g>
        <g id="Black-S">
            <path d="M697.308,122.496 L697.308,116.385 C697.279,101.618 687.264,88.745 672.96,85.086 C675.458,81.14 674.688,75.961 671.152,72.911 C667.616,69.861 662.38,69.861 658.844,72.911 C655.308,75.961 654.538,81.14 657.035,85.086 C642.733,88.746 632.719,101.621 632.692,116.385 L632.692,122.496 C631.028,123.457 630.002,125.232 630,127.154 L630,137.923 C630,139.351 630.567,140.721 631.577,141.731 C632.587,142.74 633.957,143.308 635.385,143.308 L694.615,143.308 C696.044,143.308 697.413,142.74 698.423,141.731 C699.433,140.721 700,139.351 700,137.923 L700,127.154 C699.998,125.232 698.972,123.457 697.308,122.496 Z M660.962,80.038 C660.962,77.808 662.77,76 665,76 C667.23,76 669.038,77.808 669.038,80.038 C669.038,82.269 667.23,84.077 665,84.077 C663.929,84.077 662.902,83.651 662.144,82.894 C661.387,82.137 660.962,81.11 660.962,80.038 Z M665,89.462 C679.862,89.478 691.906,101.522 691.923,116.385 L691.923,121.769 L638.077,121.769 L638.077,116.385 C638.093,101.523 650.137,89.479 664.999,89.462 Z M662.308,127.154 L662.308,137.923 L648.846,137.923 L648.846,127.154 Z M667.692,127.154 L681.154,127.154 L681.154,137.923 L667.692,137.923 Z M635.385,127.154 L643.462,127.154 L643.462,137.923 L635.385,137.923 Z M694.615,137.923 L686.538,137.923 L686.538,127.154 L694.615,127.154 L694.615,137.923 Z" />
        </g>
    </g>
</svg>