<?xml version="1.0" encoding="UTF-8"?>
<svg height="600" width="800" xmlns="http://www.w3.org/2000/svg" xmlns:xlink="http://www.w3.org/1999/xlink">
    <g id="Notes" font-family="'LucidaGrande', 'Lucida Grande', sans-serif" font-size="13">
        <rect fill="white" height="600.0" width="800.0" x="0.0" y="0.0" />
        <g font-size="13">
            <text x="18.0" y="176.0">Small</text>
            <text x="18.0" y="376.0">Medium</text>
            <text x="18.0" y="576.0">Large</text>
        </g>
        <g font-size="9">
            <text x="250.0" y="30.0">Ultralight</text>
            <text x="450.0" y="30.0">Regular</text>
            <text x="650.0" y="30.0">Black</text>
            <text id="template-version" fill="#505050" text-anchor="end" x="785.0" y="575.0">Template v.3.0</text>
            <a href="https://github.com/swhitty/SwiftDraw">
                <text fill="#505050" text-anchor="end" x="785.0" y="590.0">https://github.com/swhitty/SwiftDraw</text>
            </a>
        </g>
    </g>
    <g id="Guides" stroke="rgb(39, 170, 225)" stroke-width="0.5">
        <path id="Capline-S" d="M18,76 l800,0" />
        <path id="H-reference" d="M85,145.755 L87.685,145.755 L113.369,79.287 L114.052,79.287 L114.052,76 L112.148,76 L85,145.755 Z M95.693,121.536 L130.996,121.536 L130.263,119.313 L96.474,119.313 L95.693,121.536 Z M139.15,145.755 L141.787,145.755 L114.638,76 L113.466,76 L113.466,79.287 L139.15,145.755 Z" stroke="none" />
        <path id="Baseline-S" d="M18,146 l800,0" />
        <path id="left-margin-Ultralight-S" d="M220,56 l0,110" />
        <path id="right-margin-Ultralight-S" d="M310,56 l0,110" />
        <path id="left-margin-Regular-S" d="M420,56 l0,110" />
        <path id="right-margin-Regular-S" d="M510,56 l0,110" />
        <path id="left-margin-Black-S" d="M620,56 l0,110" />
        <path id="right-margin-Black-S" d="M710,56 l0,110" />
        <path id="Capline-M" d="M18,276 l800,0" />
        <path id="Baseline-M" d="M18,346 l800,0" />
        <path id="Capline-L" d="M18,476 l800,0" />
        <path id="Baseline-L" d="M18,546 l800,0" />
    </g>
    <g id="Symbols">
        <g id="Ultralight-S">
            <path d="M236.455,111 C237.596,111.938 238.515,113.118 239.147,114.453 C240.762,117.785 240.762,121.857 240.762,125.808 C240.762,133.989 241.099,137.923 248.839,137.923 C250.326,137.923 251.532,139.128 251.532,140.615 C251.532,142.102 250.326,143.308 248.839,143.308 C242.957,143.308 238.972,141.241 236.993,137.163 C235.378,133.831 235.378,129.759 235.378,125.808 C235.378,117.626 235.041,113.692 227.301,113.692 C225.814,113.692 224.609,112.487 224.609,111 C224.609,109.513 225.814,108.308 227.301,108.308 C235.041,108.308 235.378,104.374 235.378,96.192 C235.378,92.248 235.378,88.169 236.993,84.838 C238.979,80.759 242.963,78.692 248.846,78.692 C250.333,78.692 251.538,79.898 251.538,81.385 C251.538,82.872 250.333,84.077 248.846,84.077 C241.106,84.077 240.769,88.011 240.769,96.192 C240.769,100.137 240.769,104.215 239.154,107.547 C238.52,108.883 237.598,110.062 236.455,111 Z M302.692,108.308 C294.952,108.308 294.615,104.374 294.615,96.192 C294.615,92.248 294.615,88.169 293,84.838 C291.021,80.759 287.037,78.692 281.154,78.692 C279.667,78.692 278.462,79.898 278.462,81.385 C278.462,82.872 279.667,84.077 281.154,84.077 C288.894,84.077 289.231,88.011 289.231,96.192 C289.231,100.137 289.231,104.215 290.846,107.547 C291.478,108.882 292.398,110.062 293.538,111 C292.398,111.938 291.478,113.118 290.846,114.453 C289.231,117.785 289.231,121.857 289.231,125.808 C289.231,133.989 288.894,137.923 281.154,137.923 C279.667,137.923 278.462,139.128 278.462,140.615 C278.462,142.102 279.667,143.308 281.154,143.308 C287.037,143.308 291.021,141.241 293,137.163 C294.615,133.831 294.615,129.759 294.615,125.808 C294.615,117.626 294.952,113.692 302.692,113.692 C304.179,113.692 305.385,112.487 305.385,111 C305.385,109.513 304.179,108.308 302.692,108.308 Z" />
        </g>
        <g id="Regular-S">
            <path d="M436.455,111 C437.596,111.938 438.515,113.118 439.147,114.453 C440.762,117.785 440.762,121.857 440.762,125.808 C440.762,133.989 441.099,137.923 448.839,137.923 C450.326,137.923 451.532,139.128 451.532,140.615 C451.532,142.102 450.326,143.308 448.839,143.308 C442.957,143.308 438.972,141.241 436.993,137.163 C435.378,133.831 435.378,129.759 435.378,125.808 C435.378,117.626 435.041,113.692 427.301,113.692 C425.814,113.692 424.609,112.487 424.609,111 C424.609,109.513 425.814,108.308 427.301,108.308 C435.041,108.308 435.378,104.374 435.378,96.192 C435.378,92.248 435.378,88.169 436.993,84.838 C438.979,80.759 442.963,78.692 448.846,78.692 C450.333,78.692 451.538,79.898 451.538,81.385 C451.538,82.872 450.333,84.077 448.846,84.077 C441.106,84.077 440.769,88.011 440.769,96.192 C440.769,100.137 440.769,104.215 439.154,107.547 C438.52,108.883 437.598,110.062 436.455,111 Z M502.692,108.308 C494.952,108.308 494.615,104.374 494.615,96.192 C494.615,92.248 494.615,88.169 493,84.838 C491.021,80.759 487.037,78.692 481.154,78.692 C479.667,78.692 478.462,79.898 478.462,81.385 C478.462,82.872 479.667,84.077 481.154,84.077 C488.894,84.077 489.231,88.011 489.231,96.192 C489.231,100.137 489.231,104.215 490.846,107.547 C491.478,108.882 492.397,110.062 493.538,111 C492.397,111.938 491.478,113.118 490.846,114.453 C489.231,117.785 489.231,121.857 489.231,125.808 C489.231,133.989 488.894,137.923 481.154,137.923 C479.667,137.923 478.462,139.128 478.462,140.615 C478.462,142.102 479.667,143.308 481.154,143.308 C487.037,143.308 491.021,141.241 493,137.163 C494.615,133.831 494.615,129.759 494.615,125.808 C494.615,117.626 494.952,113.692 502.692,113.692 C504.179,113.692 505.385,112.487 505.385,111 C505.385,109.513 504.179,108.308 502.692,108.308 Z" />
        </g>
        <g id="Black-S">
            <path d="M636.455,111 C637.596,111.938 638.515,113.118 639.147,114.453 C640.763,117.785 640.763,121.857 640.763,125.808 C640.763,133.989 641.099,137.923 648.839,137.923 C650.326,137.923 651.532,139.128 651.532,140.615 C651.532,142.102 650.326,143.308 648.839,143.308 C642.957,143.308 638.972,141.241 636.993,137.163 C635.378,133.831 635.378,129.759 635.378,125.808 C635.378,117.626 635.041,113.692 627.301,113.692 C625.814,113.692 624.609,112.487 624.609,111 C624.609,109.513 625.814,108.308 627.301,108.308 C635.041,108.308 635.378,104.374 635.378,96.192 C635.378,92.248 635.378,88.169 636.993,84.838 C638.979,80.759 642.964,78.692 648.846,78.692 C650.333,78.692 651.538,79.898 651.538,81.385 C651.538,82.872 650.333,84.077 648.846,84.077 C641.106,84.077 640.769,88.011 640.769,96.192 C640.769,100.137 640.769,104.215 639.154,107.547 C638.52,108.883 637.598,110.062 636.455,111 Z M702.692,108.308 C694.952,108.308 694.615,104.374 694.615,96.192 C694.615,92.248 694.615,88.169 693,84.838 C691.021,80.759 687.037,78.692 681.154,78.692 C679.667,78.692 678.462,79.898 678.462,81.385 C678.462,82.872 679.667,84.077 681.154,84.077 C688.894,84.077 689.231,88.011 689.231,96.192 C689.231,100.137 689.231,104.215 690.846,107.547 C691.478,108.882 692.398,110.062 693.538,111 C692.398,111.938 691.478,113.118 690.846,114.453 C689.231,117.785 689.231,121.857 689.231,125.808 C689.231,133.989 688.894,137.923 681.154,137.923 C679.667,137.923 678.462,139.128 678.462,140.615 C678.462,142.102 679.667,143.308 681.154,143.308 C687.037,143.308 691.021,141.241 693,137.163 C694.615,133.831 694.615,129.759 694.615,125.808 C694.615,117.626 694.952,113.692 702.692,113.692 C704.179,113.692 705.385,112.487 705.385,111 C705.385,109.513 704.179,108.308 702.692,108.308 Z" />
        </g>
    </g>
</svg>