<?xml version="1.0" encoding="UTF-8"?>
<svg height="600" width="800" xmlns="http://www.w3.org/2000/svg" xmlns:xlink="http://www.w3.org/1999/xlink">
    <g id="Notes" font-family="'LucidaGrande', 'Lucida Grande', sans-serif" font-size="13">
        <rect fill="white" height="600.0" width="800.0" x="0.0" y="0.0" />
        <g font-size="13">
            <text x="18.0" y="176.0">Small</text>
            <text x="18.0" y="376.0">Medium</text>
            <text x="18.0" y="576.0">Large</text>
        </g>
        <g font-size="9">
            <text x="250.0" y="30.0">Ultralight</text>
            <text x="450.0" y="30.0">Regular</text>
            <text x="650.0" y="30.0">Black</text>
            <text id="template-version" fill="#505050" text-anchor="end" x="785.0" y="575.0">Template v.3.0</text>
            <a href="https://github.com/swhitty/SwiftDraw">
                <text fill="#505050" text-anchor="end" x="785.0" y="590.0">https://github.com/swhitty/SwiftDraw</text>
            </a>
        </g>
    </g>
    <g id="Guides" stroke="rgb(39, 170, 225)" stroke-width="0.5">
        <path id="Capline-S" d="M18,76 l800,0" />
        <path id="H-reference" d="M85,145.755 L87.685,145.755 L113.369,79.287 L114.052,79.287 L114.052,76 L112.148,76 L85,145.755 Z M95.693,121.536 L130.996,121.536 L130.263,119.313 L96.474,119.313 L95.693,121.536 Z M139.15,145.755 L141.787,145.755 L114.638,76 L113.466,76 L113.466,79.287 L139.15,145.755 Z" stroke="none" />
        <path id="Baseline-S" d="M18,146 l800,0" />
        <path id="left-margin-Ultralight-S" d="M220,56 l0,110" />
        <path id="right-margin-Ultralight-S" d="M310,56 l0,110" />
        <path id="left-margin-Regular-S" d="M420,56 l0,110" />
        <path id="right-margin-Regular-S" d="M510,56 l0,110" />
        <path id="left-margin-Black-S" d="M620,56 l0,110" />
        <path id="right-margin-Black-S" d="M710,56 l0,110" />
        <path id="Capline-M" d="M18,276 l800,0" />
        <path id="Baseline-M" d="M18,346 l800,0" />
        <path id="Capline-L" d="M18,476 l800,0" />
        <path id="Baseline-L" d="M18,546 l800,0" />
    </g>
    <g id="Symbols">
        <g id="Ultralight-S">
            <path d="M256.923,81.385 L240.769,81.385 C239.341,81.385 237.972,81.952 236.962,82.962 C235.952,83.972 235.385,85.341 235.385,86.769 L235.385,102.923 C235.385,104.351 235.952,105.721 236.962,106.731 C237.972,107.74 239.341,108.308 240.769,108.308 L256.923,108.308 C258.351,108.308 259.721,107.74 260.731,106.731 C261.74,105.721 262.308,104.351 262.308,102.923 L262.308,86.769 C262.308,85.341 261.74,83.972 260.731,82.962 C259.721,81.952 258.351,81.385 256.923,81.385 Z M256.923,102.923 L240.769,102.923 L240.769,86.769 L256.923,86.769 L256.923,102.923 Z M256.923,113.692 L240.769,113.692 C239.341,113.692 237.972,114.26 236.962,115.269 C235.952,116.279 235.385,117.649 235.385,119.077 L235.385,135.231 C235.385,136.659 235.952,138.028 236.962,139.038 C237.972,140.048 239.341,140.615 240.769,140.615 L256.923,140.615 C258.351,140.615 259.721,140.048 260.731,139.038 C261.74,138.028 262.308,136.659 262.308,135.231 L262.308,119.077 C262.308,117.649 261.74,116.279 260.731,115.269 C259.721,114.26 258.351,113.692 256.923,113.692 Z M256.923,135.231 L240.769,135.231 L240.769,119.077 L256.923,119.077 L256.923,135.231 Z M289.231,81.385 L273.077,81.385 C271.649,81.385 270.279,81.952 269.269,82.962 C268.26,83.972 267.692,85.341 267.692,86.769 L267.692,102.923 C267.692,104.351 268.26,105.721 269.269,106.731 C270.279,107.74 271.649,108.308 273.077,108.308 L289.231,108.308 C290.659,108.308 292.028,107.74 293.038,106.731 C294.048,105.721 294.615,104.351 294.615,102.923 L294.615,86.769 C294.615,85.341 294.048,83.972 293.038,82.962 C292.028,81.952 290.659,81.385 289.231,81.385 Z M289.231,102.923 L273.077,102.923 L273.077,86.769 L289.231,86.769 L289.231,102.923 Z M267.692,127.154 L267.692,116.385 C267.692,114.898 268.898,113.692 270.385,113.692 C271.872,113.692 273.077,114.898 273.077,116.385 L273.077,127.154 C273.077,128.641 271.872,129.846 270.385,129.846 C268.898,129.846 267.692,128.641 267.692,127.154 Z M294.615,121.769 C294.615,122.483 294.332,123.168 293.827,123.673 C293.322,124.178 292.637,124.462 291.923,124.462 L283.846,124.462 L283.846,137.923 C283.846,138.637 283.562,139.322 283.058,139.827 C282.553,140.332 281.868,140.615 281.154,140.615 L270.385,140.615 C268.898,140.615 267.692,139.41 267.692,137.923 C267.692,136.436 268.898,135.231 270.385,135.231 L278.462,135.231 L278.462,116.385 C278.462,114.898 279.667,113.692 281.154,113.692 C282.641,113.692 283.846,114.898 283.846,116.385 L283.846,119.077 L291.923,119.077 C292.637,119.077 293.322,119.361 293.827,119.865 C294.332,120.37 294.615,121.055 294.615,121.769 Z M294.615,132.538 L294.615,137.923 C294.615,139.41 293.41,140.615 291.923,140.615 C290.436,140.615 289.231,139.41 289.231,137.923 L289.231,132.538 C289.231,131.052 290.436,129.846 291.923,129.846 C293.41,129.846 294.615,131.052 294.615,132.538 Z" />
        </g>
        <g id="Regular-S">
            <path d="M456.923,81.385 L440.769,81.385 C439.341,81.385 437.972,81.952 436.962,82.962 C435.952,83.972 435.385,85.341 435.385,86.769 L435.385,102.923 C435.385,104.351 435.952,105.721 436.962,106.731 C437.972,107.74 439.341,108.308 440.769,108.308 L456.923,108.308 C458.351,108.308 459.721,107.74 460.731,106.731 C461.74,105.721 462.308,104.351 462.308,102.923 L462.308,86.769 C462.308,85.341 461.74,83.972 460.731,82.962 C459.721,81.952 458.351,81.385 456.923,81.385 Z M456.923,102.923 L440.769,102.923 L440.769,86.769 L456.923,86.769 L456.923,102.923 Z M456.923,113.692 L440.769,113.692 C439.341,113.692 437.972,114.26 436.962,115.269 C435.952,116.279 435.385,117.649 435.385,119.077 L435.385,135.231 C435.385,136.659 435.952,138.028 436.962,139.038 C437.972,140.048 439.341,140.615 440.769,140.615 L456.923,140.615 C458.351,140.615 459.721,140.048 460.731,139.038 C461.74,138.028 462.308,136.659 462.308,135.231 L462.308,119.077 C462.308,117.649 461.74,116.279 460.731,115.269 C459.721,114.26 458.351,113.692 456.923,113.692 Z M456.923,135.231 L440.769,135.231 L440.769,119.077 L456.923,119.077 L456.923,135.231 Z M489.231,81.385 L473.077,81.385 C471.649,81.385 470.279,81.952 469.269,82.962 C468.26,83.972 467.692,85.341 467.692,86.769 L467.692,102.923 C467.692,104.351 468.26,105.721 469.269,106.731 C470.279,107.74 471.649,108.308 473.077,108.308 L489.231,108.308 C490.659,108.308 492.028,107.74 493.038,106.731 C494.048,105.721 494.615,104.351 494.615,102.923 L494.615,86.769 C494.615,85.341 494.048,83.972 493.038,82.962 C492.028,81.952 490.659,81.385 489.231,81.385 Z M489.231,102.923 L473.077,102.923 L473.077,86.769 L489.231,86.769 L489.231,102.923 Z M467.692,127.154 L467.692,116.385 C467.692,114.898 468.898,113.692 470.385,113.692 C471.872,113.692 473.077,114.898 473.077,116.385 L473.077,127.154 C473.077,128.641 471.872,129.846 470.385,129.846 C468.898,129.846 467.692,128.641 467.692,127.154 Z M494.615,121.769 C494.615,122.483 494.332,123.168 493.827,123.673 C493.322,124.178 492.637,124.462 491.923,124.462 L483.846,124.462 L483.846,137.923 C483.846,138.637 483.562,139.322 483.058,139.827 C482.553,140.332 481.868,140.615 481.154,140.615 L470.385,140.615 C468.898,140.615 467.692,139.41 467.692,137.923 C467.692,136.436 468.898,135.231 470.385,135.231 L478.462,135.231 L478.462,116.385 C478.462,114.898 479.667,113.692 481.154,113.692 C482.641,113.692 483.846,114.898 483.846,116.385 L483.846,119.077 L491.923,119.077 C492.637,119.077 493.322,119.361 493.827,119.865 C494.332,120.37 494.615,121.055 494.615,121.769 Z M494.615,132.538 L494.615,137.923 C494.615,139.41 493.41,140.615 491.923,140.615 C490.436,140.615 489.231,139.41 489.231,137.923 L489.231,132.538 C489.231,131.052 490.436,129.846 491.923,129.846 C493.41,129.846 494.615,131.052 494.615,132.538 Z" />
        </g>
        <g id="Black-S">
            <path d="M656.923,81.385 L640.769,81.385 C639.341,81.385 637.972,81.952 636.962,82.962 C635.952,83.972 635.385,85.341 635.385,86.769 L635.385,102.923 C635.385,104.351 635.952,105.721 636.962,106.731 C637.972,107.74 639.341,108.308 640.769,108.308 L656.923,108.308 C658.351,108.308 659.721,107.74 660.731,106.731 C661.74,105.721 662.308,104.351 662.308,102.923 L662.308,86.769 C662.308,85.341 661.74,83.972 660.731,82.962 C659.721,81.952 658.351,81.385 656.923,81.385 Z M656.923,102.923 L640.769,102.923 L640.769,86.769 L656.923,86.769 L656.923,102.923 Z M656.923,113.692 L640.769,113.692 C639.341,113.692 637.972,114.26 636.962,115.269 C635.952,116.279 635.385,117.649 635.385,119.077 L635.385,135.231 C635.385,136.659 635.952,138.028 636.962,139.038 C637.972,140.048 639.341,140.615 640.769,140.615 L656.923,140.615 C658.351,140.615 659.721,140.048 660.731,139.038 C661.74,138.028 662.308,136.659 662.308,135.231 L662.308,119.077 C662.308,117.649 661.74,116.279 660.731,115.269 C659.721,114.26 658.351,113.692 656.923,113.692 Z M656.923,135.231 L640.769,135.231 L640.769,119.077 L656.923,119.077 L656.923,135.231 Z M689.231,81.385 L673.077,81.385 C671.649,81.385 670.279,81.952 669.269,82.962 C668.26,83.972 667.692,85.341 667.692,86.769 L667.692,102.923 C667.692,104.351 668.26,105.721 669.269,106.731 C670.279,107.74 671.649,108.308 673.077,108.308 L689.231,108.308 C690.659,108.308 692.028,107.74 693.038,106.731 C694.048,105.721 694.615,104.351 694.615,102.923 L694.615,86.769 C694.615,85.341 694.048,83.972 693.038,82.962 C692.028,81.952 690.659,81.385 689.231,81.385 Z M689.231,102.923 L673.077,102.923 L673.077,86.769 L689.231,86.769 L689.231,102.923 Z M667.692,127.154 L667.692,116.385 C667.692,114.898 668.898,113.692 670.385,113.692 C671.872,113.692 673.077,114.898 673.077,116.385 L673.077,127.154 C673.077,128.641 671.872,129.846 670.385,129.846 C668.898,129.846 667.692,128.641 667.692,127.154 Z M694.615,121.769 C694.615,122.483 694.332,123.168 693.827,123.673 C693.322,124.178 692.637,124.462 691.923,124.462 L683.846,124.462 L683.846,137.923 C683.846,138.637 683.562,139.322 683.058,139.827 C682.553,140.332 681.868,140.615 681.154,140.615 L670.385,140.615 C668.898,140.615 667.692,139.41 667.692,137.923 C667.692,136.436 668.898,135.231 670.385,135.231 L678.462,135.231 L678.462,116.385 C678.462,114.898 679.667,113.692 681.154,113.692 C682.641,113.692 683.846,114.898 683.846,116.385 L683.846,119.077 L691.923,119.077 C692.637,119.077 693.322,119.361 693.827,119.865 C694.332,120.37 694.615,121.055 694.615,121.769 Z M694.615,132.538 L694.615,137.923 C694.615,139.41 693.41,140.615 691.923,140.615 C690.436,140.615 689.231,139.41 689.231,137.923 L689.231,132.538 C689.231,131.052 690.436,129.846 691.923,129.846 C693.41,129.846 694.615,131.052 694.615,132.538 Z" />
        </g>
    </g>
</svg>