<?xml version="1.0" encoding="UTF-8"?>
<svg height="600" width="800" xmlns="http://www.w3.org/2000/svg" xmlns:xlink="http://www.w3.org/1999/xlink">
    <g id="Notes" font-family="'LucidaGrande', 'Lucida Grande', sans-serif" font-size="13">
        <rect fill="white" height="600.0" width="800.0" x="0.0" y="0.0" />
        <g font-size="13">
            <text x="18.0" y="176.0">Small</text>
            <text x="18.0" y="376.0">Medium</text>
            <text x="18.0" y="576.0">Large</text>
        </g>
        <g font-size="9">
            <text x="250.0" y="30.0">Ultralight</text>
            <text x="450.0" y="30.0">Regular</text>
            <text x="650.0" y="30.0">Black</text>
            <text id="template-version" fill="#505050" text-anchor="end" x="785.0" y="575.0">Template v.3.0</text>
            <a href="https://github.com/swhitty/SwiftDraw">
                <text fill="#505050" text-anchor="end" x="785.0" y="590.0">https://github.com/swhitty/SwiftDraw</text>
            </a>
        </g>
    </g>
    <g id="Guides" stroke="rgb(39, 170, 225)" stroke-width="0.5">
        <path id="Capline-S" d="M18,76 l800,0" />
        <path id="H-reference" d="M85,145.755 L87.685,145.755 L113.369,79.287 L114.052,79.287 L114.052,76 L112.148,76 L85,145.755 Z M95.693,121.536 L130.996,121.536 L130.263,119.313 L96.474,119.313 L95.693,121.536 Z M139.15,145.755 L141.787,145.755 L114.638,76 L113.466,76 L113.466,79.287 L139.15,145.755 Z" stroke="none" />
        <path id="Baseline-S" d="M18,146 l800,0" />
        <path id="left-margin-Ultralight-S" d="M220,56 l0,110" />
        <path id="right-margin-Ultralight-S" d="M310,56 l0,110" />
        <path id="left-margin-Regular-S" d="M420,56 l0,110" />
        <path id="right-margin-Regular-S" d="M510,56 l0,110" />
        <path id="left-margin-Black-S" d="M620,56 l0,110" />
        <path id="right-margin-Black-S" d="M710,56 l0,110" />
        <path id="Capline-M" d="M18,276 l800,0" />
        <path id="Baseline-M" d="M18,346 l800,0" />
        <path id="Capline-L" d="M18,476 l800,0" />
        <path id="Baseline-L" d="M18,546 l800,0" />
    </g>
    <g id="Symbols">
        <g id="Ultralight-S">
            <path d="M293.828,95.634 L274.982,76.788 C274.476,76.283 273.791,75.999 273.077,76 L240.769,76 C239.341,76 237.972,76.567 236.962,77.577 C235.952,78.587 235.385,79.957 235.385,81.385 L235.385,140.615 C235.385,142.043 235.952,143.413 236.962,144.423 C237.972,145.433 239.341,146 240.769,146 L289.231,146 C290.659,146 292.028,145.433 293.038,144.423 C294.048,143.413 294.615,142.043 294.615,140.615 L294.615,97.538 C294.616,96.824 294.333,96.139 293.828,95.634 Z M275.769,85.191 L285.425,94.846 L275.769,94.846 Z M289.231,140.615 L259.615,140.615 L259.615,135.231 L262.308,135.231 C263.795,135.231 265,134.025 265,132.538 C265,131.052 263.795,129.846 262.308,129.846 L259.615,129.846 L259.615,124.462 L262.308,124.462 C263.795,124.462 265,123.256 265,121.769 C265,120.282 263.795,119.077 262.308,119.077 L259.615,119.077 L259.615,113.692 L262.308,113.692 C263.795,113.692 265,112.487 265,111 C265,109.513 263.795,108.308 262.308,108.308 L259.615,108.308 L259.615,105.615 C259.615,104.128 258.41,102.923 256.923,102.923 C255.436,102.923 254.231,104.128 254.231,105.615 L254.231,108.308 L251.538,108.308 C250.052,108.308 248.846,109.513 248.846,111 C248.846,112.487 250.052,113.692 251.538,113.692 L254.231,113.692 L254.231,119.077 L251.538,119.077 C250.052,119.077 248.846,120.282 248.846,121.769 C248.846,123.256 250.052,124.462 251.538,124.462 L254.231,124.462 L254.231,129.846 L251.538,129.846 C250.052,129.846 248.846,131.052 248.846,132.538 C248.846,134.025 250.052,135.231 251.538,135.231 L254.231,135.231 L254.231,140.615 L240.769,140.615 L240.769,81.385 L270.385,81.385 L270.385,97.538 C270.385,98.253 270.668,98.937 271.173,99.442 C271.678,99.947 272.363,100.231 273.077,100.231 L289.231,100.231 L289.231,140.615 Z" />
        </g>
        <g id="Regular-S">
            <path d="M493.828,95.634 L474.982,76.788 C474.476,76.283 473.791,75.999 473.077,76 L440.769,76 C439.341,76 437.972,76.567 436.962,77.577 C435.952,78.587 435.385,79.957 435.385,81.385 L435.385,140.615 C435.385,142.043 435.952,143.413 436.962,144.423 C437.972,145.433 439.341,146 440.769,146 L489.231,146 C490.659,146 492.028,145.433 493.038,144.423 C494.048,143.413 494.615,142.043 494.615,140.615 L494.615,97.538 C494.616,96.824 494.333,96.139 493.828,95.634 Z M475.769,85.191 L485.424,94.846 L475.769,94.846 Z M489.231,140.615 L459.615,140.615 L459.615,135.231 L462.308,135.231 C463.795,135.231 465,134.025 465,132.538 C465,131.052 463.795,129.846 462.308,129.846 L459.615,129.846 L459.615,124.462 L462.308,124.462 C463.795,124.462 465,123.256 465,121.769 C465,120.282 463.795,119.077 462.308,119.077 L459.615,119.077 L459.615,113.692 L462.308,113.692 C463.795,113.692 465,112.487 465,111 C465,109.513 463.795,108.308 462.308,108.308 L459.615,108.308 L459.615,105.615 C459.615,104.128 458.41,102.923 456.923,102.923 C455.436,102.923 454.231,104.128 454.231,105.615 L454.231,108.308 L451.538,108.308 C450.052,108.308 448.846,109.513 448.846,111 C448.846,112.487 450.052,113.692 451.538,113.692 L454.231,113.692 L454.231,119.077 L451.538,119.077 C450.052,119.077 448.846,120.282 448.846,121.769 C448.846,123.256 450.052,124.462 451.538,124.462 L454.231,124.462 L454.231,129.846 L451.538,129.846 C450.052,129.846 448.846,131.052 448.846,132.538 C448.846,134.025 450.052,135.231 451.538,135.231 L454.231,135.231 L454.231,140.615 L440.769,140.615 L440.769,81.385 L470.385,81.385 L470.385,97.538 C470.385,98.253 470.668,98.937 471.173,99.442 C471.678,99.947 472.363,100.231 473.077,100.231 L489.231,100.231 L489.231,140.615 Z" />
        </g>
        <g id="Black-S">
            <path d="M693.828,95.634 L674.982,76.788 C674.476,76.283 673.791,75.999 673.077,76 L640.769,76 C639.341,76 637.972,76.567 636.962,77.577 C635.952,78.587 635.385,79.957 635.385,81.385 L635.385,140.615 C635.385,142.043 635.952,143.413 636.962,144.423 C637.972,145.433 639.341,146 640.769,146 L689.231,146 C690.659,146 692.028,145.433 693.038,144.423 C694.048,143.413 694.615,142.043 694.615,140.615 L694.615,97.538 C694.616,96.824 694.333,96.139 693.828,95.634 Z M675.769,85.191 L685.425,94.846 L675.769,94.846 Z M689.231,140.615 L659.615,140.615 L659.615,135.231 L662.308,135.231 C663.795,135.231 665,134.025 665,132.538 C665,131.052 663.795,129.846 662.308,129.846 L659.615,129.846 L659.615,124.462 L662.308,124.462 C663.795,124.462 665,123.256 665,121.769 C665,120.282 663.795,119.077 662.308,119.077 L659.615,119.077 L659.615,113.692 L662.308,113.692 C663.795,113.692 665,112.487 665,111 C665,109.513 663.795,108.308 662.308,108.308 L659.615,108.308 L659.615,105.615 C659.615,104.128 658.41,102.923 656.923,102.923 C655.436,102.923 654.231,104.128 654.231,105.615 L654.231,108.308 L651.538,108.308 C650.052,108.308 648.846,109.513 648.846,111 C648.846,112.487 650.052,113.692 651.538,113.692 L654.231,113.692 L654.231,119.077 L651.538,119.077 C650.052,119.077 648.846,120.282 648.846,121.769 C648.846,123.256 650.052,124.462 651.538,124.462 L654.231,124.462 L654.231,129.846 L651.538,129.846 C650.052,129.846 648.846,131.052 648.846,132.538 C648.846,134.025 650.052,135.231 651.538,135.231 L654.231,135.231 L654.231,140.615 L640.769,140.615 L640.769,81.385 L670.385,81.385 L670.385,97.538 C670.385,98.253 670.668,98.937 671.173,99.442 C671.678,99.947 672.363,100.231 673.077,100.231 L689.231,100.231 L689.231,140.615 Z" />
        </g>
    </g>
</svg>