<?xml version="1.0" encoding="UTF-8"?>
<svg height="600" width="800" xmlns="http://www.w3.org/2000/svg" xmlns:xlink="http://www.w3.org/1999/xlink">
    <g id="Notes" font-family="'LucidaGrande', 'Lucida Grande', sans-serif" font-size="13">
        <rect fill="white" height="600.0" width="800.0" x="0.0" y="0.0" />
        <g font-size="13">
            <text x="18.0" y="176.0">Small</text>
            <text x="18.0" y="376.0">Medium</text>
            <text x="18.0" y="576.0">Large</text>
        </g>
        <g font-size="9">
            <text x="250.0" y="30.0">Ultralight</text>
            <text x="450.0" y="30.0">Regular</text>
            <text x="650.0" y="30.0">Black</text>
            <text id="template-version" fill="#505050" text-anchor="end" x="785.0" y="575.0">Template v.3.0</text>
            <a href="https://github.com/swhitty/SwiftDraw">
                <text fill="#505050" text-anchor="end" x="785.0" y="590.0">https://github.com/swhitty/SwiftDraw</text>
            </a>
        </g>
    </g>
    <g id="Guides" stroke="rgb(39, 170, 225)" stroke-width="0.5">
        <path id="Capline-S" d="M18,76 l800,0" />
        <path id="H-reference" d="M85,145.755 L87.685,145.755 L113.369,79.287 L114.052,79.287 L114.052,76 L112.148,76 L85,145.755 Z M95.693,121.536 L130.996,121.536 L130.263,119.313 L96.474,119.313 L95.693,121.536 Z M139.15,145.755 L141.787,145.755 L114.638,76 L113.466,76 L113.466,79.287 L139.15,145.755 Z" stroke="none" />
        <path id="Baseline-S" d="M18,146 l800,0" />
        <path id="left-margin-Ultralight-S" d="M220,56 l0,110" />
        <path id="right-margin-Ultralight-S" d="M310,56 l0,110" />
        <path id="left-margin-Regular-S" d="M420,56 l0,110" />
        <path id="right-margin-Regular-S" d="M510,56 l0,110" />
        <path id="left-margin-Black-S" d="M620,56 l0,110" />
        <path id="right-margin-Black-S" d="M710,56 l0,110" />
        <path id="Capline-M" d="M18,276 l800,0" />
        <path id="Baseline-M" d="M18,346 l800,0" />
        <path id="Capline-L" d="M18,476 l800,0" />
        <path id="Baseline-L" d="M18,546 l800,0" />
    </g>
    <g id="Symbols">
        <g id="Ultralight-S">
            <path d="M300,86.769 C299.979,106.092 284.32,121.75 264.999,121.769 L239.191,121.769 L250.751,133.326 C251.803,134.38 251.802,136.085 250.75,137.137 C249.697,138.188 247.992,138.187 246.94,137.135 L230.786,120.981 C230.281,120.476 229.997,119.79 229.997,119.076 C229.997,118.361 230.281,117.676 230.786,117.171 L246.94,101.017 C247.991,99.966 249.696,99.965 250.749,101.016 C251.801,102.068 251.802,103.773 250.751,104.826 L239.191,116.385 L265,116.385 C281.348,116.366 294.597,103.118 294.615,86.769 C294.615,85.282 295.821,84.077 297.308,84.077 C298.795,84.077 300,85.282 300,86.769 Z" />
        </g>
        <g id="Regular-S">
            <path d="M500,86.769 C499.979,106.092 484.32,121.75 464.999,121.769 L439.191,121.769 L450.751,133.326 C451.803,134.38 451.802,136.085 450.75,137.137 C449.697,138.188 447.992,138.187 446.94,137.135 L430.786,120.981 C430.281,120.476 429.997,119.79 429.997,119.076 C429.997,118.361 430.281,117.676 430.786,117.171 L446.94,101.017 C447.991,99.966 449.696,99.965 450.749,101.016 C451.801,102.068 451.802,103.773 450.751,104.826 L439.191,116.385 L465,116.385 C481.348,116.366 494.597,103.118 494.615,86.769 C494.615,85.282 495.821,84.077 497.308,84.077 C498.795,84.077 500,85.282 500,86.769 Z" />
        </g>
        <g id="Black-S">
            <path d="M700,86.769 C699.979,106.092 684.32,121.75 664.999,121.769 L639.191,121.769 L650.751,133.326 C651.803,134.38 651.802,136.085 650.75,137.137 C649.697,138.188 647.992,138.187 646.94,137.135 L630.786,120.981 C630.281,120.476 629.997,119.79 629.997,119.076 C629.997,118.361 630.281,117.676 630.786,117.171 L646.94,101.017 C647.991,99.966 649.696,99.965 650.749,101.016 C651.801,102.068 651.802,103.773 650.751,104.826 L639.191,116.385 L665,116.385 C681.348,116.366 694.597,103.118 694.615,86.769 C694.615,85.282 695.821,84.077 697.308,84.077 C698.795,84.077 700,85.282 700,86.769 Z" />
        </g>
    </g>
</svg>