<?xml version="1.0" encoding="UTF-8"?>
<svg height="600" width="800" xmlns="http://www.w3.org/2000/svg" xmlns:xlink="http://www.w3.org/1999/xlink">
    <g id="Notes" font-family="'LucidaGrande', 'Lucida Grande', sans-serif" font-size="13">
        <rect fill="white" height="600.0" width="800.0" x="0.0" y="0.0" />
        <g font-size="13">
            <text x="18.0" y="176.0">Small</text>
            <text x="18.0" y="376.0">Medium</text>
            <text x="18.0" y="576.0">Large</text>
        </g>
        <g font-size="9">
            <text x="250.0" y="30.0">Ultralight</text>
            <text x="450.0" y="30.0">Regular</text>
            <text x="650.0" y="30.0">Black</text>
            <text id="template-version" fill="#505050" text-anchor="end" x="785.0" y="575.0">Template v.3.0</text>
            <a href="https://github.com/swhitty/SwiftDraw">
                <text fill="#505050" text-anchor="end" x="785.0" y="590.0">https://github.com/swhitty/SwiftDraw</text>
            </a>
        </g>
    </g>
    <g id="Guides" stroke="rgb(39, 170, 225)" stroke-width="0.5">
        <path id="Capline-S" d="M18,76 l800,0" />
        <path id="H-reference" d="M85,145.755 L87.685,145.755 L113.369,79.287 L114.052,79.287 L114.052,76 L112.148,76 L85,145.755 Z M95.693,121.536 L130.996,121.536 L130.263,119.313 L96.474,119.313 L95.693,121.536 Z M139.15,145.755 L141.787,145.755 L114.638,76 L113.466,76 L113.466,79.287 L139.15,145.755 Z" stroke="none" />
        <path id="Baseline-S" d="M18,146 l800,0" />
        <path id="left-margin-Ultralight-S" d="M220,56 l0,110" />
        <path id="right-margin-Ultralight-S" d="M310,56 l0,110" />
        <path id="left-margin-Regular-S" d="M420,56 l0,110" />
        <path id="right-margin-Regular-S" d="M510,56 l0,110" />
        <path id="left-margin-Black-S" d="M620,56 l0,110" />
        <path id="right-margin-Black-S" d="M710,56 l0,110" />
        <path id="Capline-M" d="M18,276 l800,0" />
        <path id="Baseline-M" d="M18,346 l800,0" />
        <path id="Capline-L" d="M18,476 l800,0" />
        <path id="Baseline-L" d="M18,546 l800,0" />
    </g>
    <g id="Symbols">
        <g id="Ultralight-S">
            <path d="M283.846,129.846 C283.846,132.702 282.712,135.442 280.692,137.461 C278.672,139.481 275.933,140.615 273.077,140.615 C268.466,140.615 264.007,137.61 262.476,133.474 C261.991,132.089 262.705,130.57 264.081,130.06 C265.458,129.55 266.989,130.236 267.524,131.603 C268.278,133.639 270.721,135.231 273.077,135.231 C276.051,135.231 278.462,132.82 278.462,129.846 C278.462,126.872 276.051,124.462 273.077,124.462 L235.385,124.462 C233.898,124.462 232.692,123.256 232.692,121.769 C232.692,120.282 233.898,119.077 235.385,119.077 L273.077,119.077 C275.933,119.077 278.672,120.212 280.692,122.231 C282.712,124.251 283.846,126.99 283.846,129.846 Z M262.308,102.923 C268.255,102.923 273.077,98.102 273.077,92.154 C273.077,86.206 268.255,81.385 262.308,81.385 C257.697,81.385 253.238,84.39 251.707,88.526 C251.222,89.911 251.936,91.43 253.312,91.94 C254.688,92.45 256.22,91.764 256.755,90.397 C257.509,88.361 259.952,86.769 262.308,86.769 C265.282,86.769 267.692,89.18 267.692,92.154 C267.692,95.128 265.282,97.538 262.308,97.538 L230,97.538 C228.513,97.538 227.308,98.744 227.308,100.231 C227.308,101.718 228.513,102.923 230,102.923 Z M291.923,92.154 C287.312,92.154 282.853,95.159 281.322,99.295 C280.837,100.68 281.551,102.199 282.928,102.709 C284.304,103.219 285.835,102.533 286.37,101.166 C287.124,99.13 289.567,97.538 291.923,97.538 C294.897,97.538 297.308,99.949 297.308,102.923 C297.308,105.897 294.897,108.308 291.923,108.308 L232.692,108.308 C231.205,108.308 230,109.513 230,111 C230,112.487 231.205,113.692 232.692,113.692 L291.923,113.692 C297.871,113.692 302.692,108.871 302.692,102.923 C302.692,96.975 297.871,92.154 291.923,92.154 Z" />
        </g>
        <g id="Regular-S">
            <path d="M483.846,129.846 C483.846,132.702 482.712,135.442 480.692,137.461 C478.672,139.481 475.933,140.615 473.077,140.615 C468.466,140.615 464.007,137.61 462.476,133.474 C461.991,132.089 462.705,130.57 464.081,130.06 C465.458,129.55 466.989,130.236 467.524,131.603 C468.278,133.639 470.721,135.231 473.077,135.231 C476.051,135.231 478.462,132.82 478.462,129.846 C478.462,126.872 476.051,124.462 473.077,124.462 L435.385,124.462 C433.898,124.462 432.692,123.256 432.692,121.769 C432.692,120.282 433.898,119.077 435.385,119.077 L473.077,119.077 C475.933,119.077 478.672,120.212 480.692,122.231 C482.712,124.251 483.846,126.99 483.846,129.846 Z M462.308,102.923 C468.255,102.923 473.077,98.102 473.077,92.154 C473.077,86.206 468.255,81.385 462.308,81.385 C457.697,81.385 453.238,84.39 451.707,88.526 C451.222,89.911 451.936,91.43 453.312,91.94 C454.688,92.45 456.22,91.764 456.755,90.397 C457.509,88.361 459.952,86.769 462.308,86.769 C465.282,86.769 467.692,89.18 467.692,92.154 C467.692,95.128 465.282,97.538 462.308,97.538 L430,97.538 C428.513,97.538 427.308,98.744 427.308,100.231 C427.308,101.718 428.513,102.923 430,102.923 Z M491.923,92.154 C487.312,92.154 482.853,95.159 481.322,99.295 C480.837,100.68 481.551,102.199 482.928,102.709 C484.304,103.219 485.835,102.533 486.37,101.166 C487.124,99.13 489.567,97.538 491.923,97.538 C494.897,97.538 497.308,99.949 497.308,102.923 C497.308,105.897 494.897,108.308 491.923,108.308 L432.692,108.308 C431.205,108.308 430,109.513 430,111 C430,112.487 431.205,113.692 432.692,113.692 L491.923,113.692 C497.871,113.692 502.692,108.871 502.692,102.923 C502.692,96.975 497.871,92.154 491.923,92.154 Z" />
        </g>
        <g id="Black-S">
            <path d="M683.846,129.846 C683.846,132.702 682.712,135.442 680.692,137.461 C678.672,139.481 675.933,140.615 673.077,140.615 C668.466,140.615 664.007,137.61 662.476,133.474 C661.991,132.089 662.705,130.57 664.081,130.06 C665.458,129.55 666.989,130.236 667.524,131.603 C668.278,133.639 670.721,135.231 673.077,135.231 C676.051,135.231 678.462,132.82 678.462,129.846 C678.462,126.872 676.051,124.462 673.077,124.462 L635.385,124.462 C633.898,124.462 632.692,123.256 632.692,121.769 C632.692,120.282 633.898,119.077 635.385,119.077 L673.077,119.077 C675.933,119.077 678.672,120.212 680.692,122.231 C682.712,124.251 683.846,126.99 683.846,129.846 Z M662.308,102.923 C668.255,102.923 673.077,98.102 673.077,92.154 C673.077,86.206 668.255,81.385 662.308,81.385 C657.697,81.385 653.238,84.39 651.707,88.526 C651.222,89.911 651.936,91.43 653.312,91.94 C654.688,92.45 656.22,91.764 656.755,90.397 C657.509,88.361 659.952,86.769 662.308,86.769 C665.282,86.769 667.692,89.18 667.692,92.154 C667.692,95.128 665.282,97.538 662.308,97.538 L630,97.538 C628.513,97.538 627.308,98.744 627.308,100.231 C627.308,101.718 628.513,102.923 630,102.923 Z M691.923,92.154 C687.312,92.154 682.853,95.159 681.322,99.295 C680.837,100.68 681.552,102.199 682.928,102.709 C684.304,103.219 685.835,102.533 686.37,101.166 C687.124,99.13 689.567,97.538 691.923,97.538 C694.897,97.538 697.308,99.949 697.308,102.923 C697.308,105.897 694.897,108.308 691.923,108.308 L632.692,108.308 C631.205,108.308 630,109.513 630,111 C630,112.487 631.205,113.692 632.692,113.692 L691.923,113.692 C697.871,113.692 702.692,108.871 702.692,102.923 C702.692,96.975 697.871,92.154 691.923,92.154 Z" />
        </g>
    </g>
</svg>