<?xml version="1.0" encoding="UTF-8"?>
<svg height="600" width="800" xmlns="http://www.w3.org/2000/svg" xmlns:xlink="http://www.w3.org/1999/xlink">
    <g id="Notes" font-family="'LucidaGrande', 'Lucida Grande', sans-serif" font-size="13">
        <rect fill="white" height="600.0" width="800.0" x="0.0" y="0.0" />
        <g font-size="13">
            <text x="18.0" y="176.0">Small</text>
            <text x="18.0" y="376.0">Medium</text>
            <text x="18.0" y="576.0">Large</text>
        </g>
        <g font-size="9">
            <text x="250.0" y="30.0">Ultralight</text>
            <text x="450.0" y="30.0">Regular</text>
            <text x="650.0" y="30.0">Black</text>
            <text id="template-version" fill="#505050" text-anchor="end" x="785.0" y="575.0">Template v.3.0</text>
            <a href="https://github.com/swhitty/SwiftDraw">
                <text fill="#505050" text-anchor="end" x="785.0" y="590.0">https://github.com/swhitty/SwiftDraw</text>
            </a>
        </g>
    </g>
    <g id="Guides" stroke="rgb(39, 170, 225)" stroke-width="0.5">
        <path id="Capline-S" d="M18,76 l800,0" />
        <path id="H-reference" d="M85,145.755 L87.685,145.755 L113.369,79.287 L114.052,79.287 L114.052,76 L112.148,76 L85,145.755 Z M95.693,121.536 L130.996,121.536 L130.263,119.313 L96.474,119.313 L95.693,121.536 Z M139.15,145.755 L141.787,145.755 L114.638,76 L113.466,76 L113.466,79.287 L139.15,145.755 Z" stroke="none" />
        <path id="Baseline-S" d="M18,146 l800,0" />
        <path id="left-margin-Ultralight-S" d="M220,56 l0,110" />
        <path id="right-margin-Ultralight-S" d="M310,56 l0,110" />
        <path id="left-margin-Regular-S" d="M420,56 l0,110" />
        <path id="right-margin-Regular-S" d="M510,56 l0,110" />
        <path id="left-margin-Black-S" d="M620,56 l0,110" />
        <path id="right-margin-Black-S" d="M710,56 l0,110" />
        <path id="Capline-M" d="M18,276 l800,0" />
        <path id="Baseline-M" d="M18,346 l800,0" />
        <path id="Capline-L" d="M18,476 l800,0" />
        <path id="Baseline-L" d="M18,546 l800,0" />
    </g>
    <g id="Symbols">
        <g id="Ultralight-S">
            <path d="M265,76 C245.67,76 230,91.67 230,111 C230,130.33 245.67,146 265,146 C284.33,146 300,130.33 300,111 C299.979,91.677 284.32,76.02 264.999,76 Z M265,140.615 C248.644,140.615 235.385,127.356 235.385,111 C235.385,94.644 248.644,81.385 265,81.385 C281.356,81.385 294.615,94.644 294.615,111 C294.598,127.347 281.35,140.596 265.001,140.615 Z M259.615,100.231 L259.615,121.769 C259.615,123.256 258.41,124.462 256.923,124.462 C255.436,124.462 254.231,123.256 254.231,121.769 L254.231,100.231 C254.231,98.744 255.436,97.538 256.923,97.538 C258.41,97.538 259.615,98.744 259.615,100.231 Z M275.769,100.231 L275.769,121.769 C275.769,123.256 274.564,124.462 273.077,124.462 C271.59,124.462 270.385,123.256 270.385,121.769 L270.385,100.231 C270.385,98.744 271.59,97.538 273.077,97.538 C274.564,97.538 275.769,98.744 275.769,100.231 Z" />
        </g>
        <g id="Regular-S">
            <path d="M465,76 C445.67,76 430,91.67 430,111 C430,130.33 445.67,146 465,146 C484.33,146 500,130.33 500,111 C499.979,91.677 484.32,76.02 464.999,76 Z M465,140.615 C448.644,140.615 435.385,127.356 435.385,111 C435.385,94.644 448.644,81.385 465,81.385 C481.356,81.385 494.615,94.644 494.615,111 C494.598,127.347 481.35,140.596 465.001,140.615 Z M459.615,100.231 L459.615,121.769 C459.615,123.256 458.41,124.462 456.923,124.462 C455.436,124.462 454.231,123.256 454.231,121.769 L454.231,100.231 C454.231,98.744 455.436,97.538 456.923,97.538 C458.41,97.538 459.615,98.744 459.615,100.231 Z M475.769,100.231 L475.769,121.769 C475.769,123.256 474.564,124.462 473.077,124.462 C471.59,124.462 470.385,123.256 470.385,121.769 L470.385,100.231 C470.385,98.744 471.59,97.538 473.077,97.538 C474.564,97.538 475.769,98.744 475.769,100.231 Z" />
        </g>
        <g id="Black-S">
            <path d="M665,76 C645.67,76 630,91.67 630,111 C630,130.33 645.67,146 665,146 C684.33,146 700,130.33 700,111 C699.979,91.677 684.32,76.02 664.999,76 Z M665,140.615 C648.644,140.615 635.385,127.356 635.385,111 C635.385,94.644 648.644,81.385 665,81.385 C681.356,81.385 694.615,94.644 694.615,111 C694.598,127.347 681.35,140.596 665.001,140.615 Z M659.615,100.231 L659.615,121.769 C659.615,123.256 658.41,124.462 656.923,124.462 C655.436,124.462 654.231,123.256 654.231,121.769 L654.231,100.231 C654.231,98.744 655.436,97.538 656.923,97.538 C658.41,97.538 659.615,98.744 659.615,100.231 Z M675.769,100.231 L675.769,121.769 C675.769,123.256 674.564,124.462 673.077,124.462 C671.59,124.462 670.385,123.256 670.385,121.769 L670.385,100.231 C670.385,98.744 671.59,97.538 673.077,97.538 C674.564,97.538 675.769,98.744 675.769,100.231 Z" />
        </g>
    </g>
</svg>