<?xml version="1.0" encoding="UTF-8"?>
<svg height="600" width="800" xmlns="http://www.w3.org/2000/svg" xmlns:xlink="http://www.w3.org/1999/xlink">
    <g id="Notes" font-family="'LucidaGrande', 'Lucida Grande', sans-serif" font-size="13">
        <rect fill="white" height="600.0" width="800.0" x="0.0" y="0.0" />
        <g font-size="13">
            <text x="18.0" y="176.0">Small</text>
            <text x="18.0" y="376.0">Medium</text>
            <text x="18.0" y="576.0">Large</text>
        </g>
        <g font-size="9">
            <text x="250.0" y="30.0">Ultralight</text>
            <text x="450.0" y="30.0">Regular</text>
            <text x="650.0" y="30.0">Black</text>
            <text id="template-version" fill="#505050" text-anchor="end" x="785.0" y="575.0">Template v.3.0</text>
            <a href="https://github.com/swhitty/SwiftDraw">
                <text fill="#505050" text-anchor="end" x="785.0" y="590.0">https://github.com/swhitty/SwiftDraw</text>
            </a>
        </g>
    </g>
    <g id="Guides" stroke="rgb(39, 170, 225)" stroke-width="0.5">
        <path id="Capline-S" d="M18,76 l800,0" />
        <path id="H-reference" d="M85,145.755 L87.685,145.755 L113.369,79.287 L114.052,79.287 L114.052,76 L112.148,76 L85,145.755 Z M95.693,121.536 L130.996,121.536 L130.263,119.313 L96.474,119.313 L95.693,121.536 Z M139.15,145.755 L141.787,145.755 L114.638,76 L113.466,76 L113.466,79.287 L139.15,145.755 Z" stroke="none" />
        <path id="Baseline-S" d="M18,146 l800,0" />
        <path id="left-margin-Ultralight-S" d="M220,56 l0,110" />
        <path id="right-margin-Ultralight-S" d="M310,56 l0,110" />
        <path id="left-margin-Regular-S" d="M420,56 l0,110" />
        <path id="right-margin-Regular-S" d="M510,56 l0,110" />
        <path id="left-margin-Black-S" d="M620,56 l0,110" />
        <path id="right-margin-Black-S" d="M710,56 l0,110" />
        <path id="Capline-M" d="M18,276 l800,0" />
        <path id="Baseline-M" d="M18,346 l800,0" />
        <path id="Capline-L" d="M18,476 l800,0" />
        <path id="Baseline-L" d="M18,546 l800,0" />
    </g>
    <g id="Symbols">
        <g id="Ultralight-S">
            <path d="M302.692,137.923 L297.308,137.923 L297.308,100.231 C297.308,98.803 296.74,97.433 295.731,96.423 C294.721,95.413 293.351,94.846 291.923,94.846 L270.385,94.846 L270.385,78.692 C270.386,76.705 269.293,74.879 267.541,73.942 C265.79,73.004 263.664,73.107 262.011,74.21 L235.088,92.154 C233.588,93.155 232.689,94.84 232.692,96.643 L232.692,137.923 L227.308,137.923 C225.821,137.923 224.615,139.128 224.615,140.615 C224.615,142.102 225.821,143.308 227.308,143.308 L302.692,143.308 C304.179,143.308 305.385,142.102 305.385,140.615 C305.385,139.128 304.179,137.923 302.692,137.923 Z M291.923,100.231 L291.923,137.923 L270.385,137.923 L270.385,100.231 Z M238.077,96.643 L265,78.692 L265,137.923 L238.077,137.923 Z M259.615,105.615 L259.615,111 C259.615,112.487 258.41,113.692 256.923,113.692 C255.436,113.692 254.231,112.487 254.231,111 L254.231,105.615 C254.231,104.128 255.436,102.923 256.923,102.923 C258.41,102.923 259.615,104.128 259.615,105.615 Z M248.846,105.615 L248.846,111 C248.846,112.487 247.641,113.692 246.154,113.692 C244.667,113.692 243.462,112.487 243.462,111 L243.462,105.615 C243.462,104.128 244.667,102.923 246.154,102.923 C247.641,102.923 248.846,104.128 248.846,105.615 Z M248.846,124.462 L248.846,129.846 C248.846,131.333 247.641,132.538 246.154,132.538 C244.667,132.538 243.462,131.333 243.462,129.846 L243.462,124.462 C243.462,122.975 244.667,121.769 246.154,121.769 C247.641,121.769 248.846,122.975 248.846,124.462 Z M259.615,124.462 L259.615,129.846 C259.615,131.333 258.41,132.538 256.923,132.538 C255.436,132.538 254.231,131.333 254.231,129.846 L254.231,124.462 C254.231,122.975 255.436,121.769 256.923,121.769 C258.41,121.769 259.615,122.975 259.615,124.462 Z" />
        </g>
        <g id="Regular-S">
            <path d="M502.692,137.923 L497.308,137.923 L497.308,100.231 C497.308,98.803 496.74,97.433 495.731,96.423 C494.721,95.413 493.351,94.846 491.923,94.846 L470.385,94.846 L470.385,78.692 C470.386,76.705 469.293,74.879 467.541,73.942 C465.79,73.004 463.664,73.107 462.011,74.21 L435.088,92.154 C433.588,93.155 432.689,94.84 432.692,96.643 L432.692,137.923 L427.308,137.923 C425.821,137.923 424.615,139.128 424.615,140.615 C424.615,142.102 425.821,143.308 427.308,143.308 L502.692,143.308 C504.179,143.308 505.385,142.102 505.385,140.615 C505.385,139.128 504.179,137.923 502.692,137.923 Z M491.923,100.231 L491.923,137.923 L470.385,137.923 L470.385,100.231 Z M438.077,96.643 L465,78.692 L465,137.923 L438.077,137.923 Z M459.615,105.615 L459.615,111 C459.615,112.487 458.41,113.692 456.923,113.692 C455.436,113.692 454.231,112.487 454.231,111 L454.231,105.615 C454.231,104.128 455.436,102.923 456.923,102.923 C458.41,102.923 459.615,104.128 459.615,105.615 Z M448.846,105.615 L448.846,111 C448.846,112.487 447.641,113.692 446.154,113.692 C444.667,113.692 443.462,112.487 443.462,111 L443.462,105.615 C443.462,104.128 444.667,102.923 446.154,102.923 C447.641,102.923 448.846,104.128 448.846,105.615 Z M448.846,124.462 L448.846,129.846 C448.846,131.333 447.641,132.538 446.154,132.538 C444.667,132.538 443.462,131.333 443.462,129.846 L443.462,124.462 C443.462,122.975 444.667,121.769 446.154,121.769 C447.641,121.769 448.846,122.975 448.846,124.462 Z M459.615,124.462 L459.615,129.846 C459.615,131.333 458.41,132.538 456.923,132.538 C455.436,132.538 454.231,131.333 454.231,129.846 L454.231,124.462 C454.231,122.975 455.436,121.769 456.923,121.769 C458.41,121.769 459.615,122.975 459.615,124.462 Z" />
        </g>
        <g id="Black-S">
            <path d="M702.692,137.923 L697.308,137.923 L697.308,100.231 C697.308,98.803 696.74,97.433 695.731,96.423 C694.721,95.413 693.351,94.846 691.923,94.846 L670.385,94.846 L670.385,78.692 C670.386,76.705 669.293,74.879 667.541,73.942 C665.79,73.004 663.664,73.107 662.011,74.21 L635.089,92.154 C633.588,93.155 632.689,94.84 632.692,96.643 L632.692,137.923 L627.308,137.923 C625.821,137.923 624.615,139.128 624.615,140.615 C624.615,142.102 625.821,143.308 627.308,143.308 L702.692,143.308 C704.179,143.308 705.385,142.102 705.385,140.615 C705.385,139.128 704.179,137.923 702.692,137.923 Z M691.923,100.231 L691.923,137.923 L670.385,137.923 L670.385,100.231 Z M638.077,96.643 L665,78.692 L665,137.923 L638.077,137.923 Z M659.615,105.615 L659.615,111 C659.615,112.487 658.41,113.692 656.923,113.692 C655.436,113.692 654.231,112.487 654.231,111 L654.231,105.615 C654.231,104.128 655.436,102.923 656.923,102.923 C658.41,102.923 659.615,104.128 659.615,105.615 Z M648.846,105.615 L648.846,111 C648.846,112.487 647.641,113.692 646.154,113.692 C644.667,113.692 643.462,112.487 643.462,111 L643.462,105.615 C643.462,104.128 644.667,102.923 646.154,102.923 C647.641,102.923 648.846,104.128 648.846,105.615 Z M648.846,124.462 L648.846,129.846 C648.846,131.333 647.641,132.538 646.154,132.538 C644.667,132.538 643.462,131.333 643.462,129.846 L643.462,124.462 C643.462,122.975 644.667,121.769 646.154,121.769 C647.641,121.769 648.846,122.975 648.846,124.462 Z M659.615,124.462 L659.615,129.846 C659.615,131.333 658.41,132.538 656.923,132.538 C655.436,132.538 654.231,131.333 654.231,129.846 L654.231,124.462 C654.231,122.975 655.436,121.769 656.923,121.769 C658.41,121.769 659.615,122.975 659.615,124.462 Z" />
        </g>
    </g>
</svg>