<?xml version="1.0" encoding="UTF-8"?>
<svg height="600" width="800" xmlns="http://www.w3.org/2000/svg" xmlns:xlink="http://www.w3.org/1999/xlink">
    <g id="Notes" font-family="'LucidaGrande', 'Lucida Grande', sans-serif" font-size="13">
        <rect fill="white" height="600.0" width="800.0" x="0.0" y="0.0" />
        <g font-size="13">
            <text x="18.0" y="176.0">Small</text>
            <text x="18.0" y="376.0">Medium</text>
            <text x="18.0" y="576.0">Large</text>
        </g>
        <g font-size="9">
            <text x="250.0" y="30.0">Ultralight</text>
            <text x="450.0" y="30.0">Regular</text>
            <text x="650.0" y="30.0">Black</text>
            <text id="template-version" fill="#505050" text-anchor="end" x="785.0" y="575.0">Template v.3.0</text>
            <a href="https://github.com/swhitty/SwiftDraw">
                <text fill="#505050" text-anchor="end" x="785.0" y="590.0">https://github.com/swhitty/SwiftDraw</text>
            </a>
        </g>
    </g>
    <g id="Guides" stroke="rgb(39, 170, 225)" stroke-width="0.5">
        <path id="Capline-S" d="M18,76 l800,0" />
        <path id="H-reference" d="M85,145.755 L87.685,145.755 L113.369,79.287 L114.052,79.287 L114.052,76 L112.148,76 L85,145.755 Z M95.693,121.536 L130.996,121.536 L130.263,119.313 L96.474,119.313 L95.693,121.536 Z M139.15,145.755 L141.787,145.755 L114.638,76 L113.466,76 L113.466,79.287 L139.15,145.755 Z" stroke="none" />
        <path id="Baseline-S" d="M18,146 l800,0" />
        <path id="left-margin-Ultralight-S" d="M220,56 l0,110" />
        <path id="right-margin-Ultralight-S" d="M310,56 l0,110" />
        <path id="left-margin-Regular-S" d="M420,56 l0,110" />
        <path id="right-margin-Regular-S" d="M510,56 l0,110" />
        <path id="left-margin-Black-S" d="M620,56 l0,110" />
        <path id="right-margin-Black-S" d="M710,56 l0,110" />
        <path id="Capline-M" d="M18,276 l800,0" />
        <path id="Baseline-M" d="M18,346 l800,0" />
        <path id="Capline-L" d="M18,476 l800,0" />
        <path id="Baseline-L" d="M18,546 l800,0" />
    </g>
    <g id="Symbols">
        <g id="Ultralight-S">
            <path d="M286.538,100.231 C291.174,96.754 293.065,90.702 291.232,85.205 C289.4,79.708 284.256,76 278.462,76 L254.231,76 C248.437,76 243.292,79.708 241.46,85.205 C239.628,90.702 241.518,96.754 246.154,100.231 C242.682,102.833 240.677,106.949 240.768,111.287 C240.86,115.625 243.036,119.652 246.615,122.106 C241.08,126.314 239.219,133.805 242.139,140.114 C245.06,146.424 251.977,149.851 258.766,148.354 C265.556,146.856 270.389,140.837 270.385,133.885 L270.385,121.769 C276.332,126.23 284.77,125.025 289.231,119.077 C293.692,113.129 292.486,104.692 286.538,100.231 Z M286.538,89.462 C286.538,91.604 285.688,93.658 284.173,95.173 C282.658,96.688 280.604,97.538 278.462,97.538 L270.385,97.538 L270.385,81.385 L278.462,81.385 C280.604,81.385 282.658,82.236 284.173,83.75 C285.688,85.265 286.538,87.319 286.538,89.462 Z M246.154,89.462 C246.154,87.319 247.005,85.265 248.52,83.75 C250.034,82.236 252.089,81.385 254.231,81.385 L265,81.385 L265,97.538 L254.231,97.538 C252.089,97.538 250.034,96.688 248.52,95.173 C247.005,93.658 246.154,91.604 246.154,89.462 Z M254.231,119.077 C249.77,119.077 246.154,115.461 246.154,111 C246.154,106.539 249.77,102.923 254.231,102.923 L265,102.923 L265,119.077 L254.231,119.077 Z M265,133.885 C265,139.089 260.781,143.308 255.577,143.308 C250.373,143.308 246.154,139.089 246.154,133.885 C246.154,128.68 250.373,124.462 255.577,124.462 L265,124.462 Z M278.462,119.077 C274.001,119.077 270.385,115.461 270.385,111 C270.385,106.539 274.001,102.923 278.462,102.923 C282.922,102.923 286.538,106.539 286.538,111 C286.538,113.142 285.688,115.197 284.173,116.711 C282.658,118.226 280.604,119.077 278.462,119.077 Z" />
        </g>
        <g id="Regular-S">
            <path d="M486.538,100.231 C491.174,96.754 493.065,90.702 491.232,85.205 C489.4,79.708 484.256,76 478.462,76 L454.231,76 C448.436,76 443.292,79.708 441.46,85.205 C439.628,90.702 441.518,96.754 446.154,100.231 C442.682,102.833 440.677,106.949 440.768,111.287 C440.86,115.625 443.036,119.652 446.615,122.106 C441.08,126.314 439.219,133.805 442.139,140.114 C445.06,146.424 451.977,149.851 458.766,148.354 C465.555,146.856 470.389,140.837 470.385,133.885 L470.385,121.769 C476.332,126.23 484.77,125.025 489.231,119.077 C493.692,113.129 492.486,104.692 486.538,100.231 Z M486.538,89.462 C486.538,91.604 485.688,93.658 484.173,95.173 C482.658,96.688 480.604,97.538 478.462,97.538 L470.385,97.538 L470.385,81.385 L478.462,81.385 C480.604,81.385 482.658,82.236 484.173,83.75 C485.688,85.265 486.538,87.319 486.538,89.462 Z M446.154,89.462 C446.154,87.319 447.005,85.265 448.52,83.75 C450.034,82.236 452.089,81.385 454.231,81.385 L465,81.385 L465,97.538 L454.231,97.538 C452.089,97.538 450.034,96.688 448.52,95.173 C447.005,93.658 446.154,91.604 446.154,89.462 Z M454.231,119.077 C449.77,119.077 446.154,115.461 446.154,111 C446.154,106.539 449.77,102.923 454.231,102.923 L465,102.923 L465,119.077 L454.231,119.077 Z M465,133.885 C465,139.089 460.781,143.308 455.577,143.308 C450.373,143.308 446.154,139.089 446.154,133.885 C446.154,128.68 450.373,124.462 455.577,124.462 L465,124.462 Z M478.462,119.077 C474.001,119.077 470.385,115.461 470.385,111 C470.385,106.539 474.001,102.923 478.462,102.923 C482.922,102.923 486.538,106.539 486.538,111 C486.538,113.142 485.688,115.197 484.173,116.711 C482.658,118.226 480.604,119.077 478.462,119.077 Z" />
        </g>
        <g id="Black-S">
            <path d="M686.538,100.231 C691.174,96.754 693.065,90.702 691.232,85.205 C689.4,79.708 684.256,76 678.462,76 L654.231,76 C648.437,76 643.292,79.708 641.46,85.205 C639.628,90.702 641.518,96.754 646.154,100.231 C642.682,102.833 640.677,106.949 640.768,111.287 C640.86,115.625 643.036,119.652 646.615,122.106 C641.08,126.314 639.219,133.805 642.139,140.114 C645.06,146.424 651.977,149.851 658.766,148.354 C665.556,146.856 670.389,140.837 670.385,133.885 L670.385,121.769 C676.332,126.23 684.77,125.025 689.231,119.077 C693.692,113.129 692.486,104.692 686.538,100.231 Z M686.538,89.462 C686.538,91.604 685.688,93.658 684.173,95.173 C682.658,96.688 680.604,97.538 678.462,97.538 L670.385,97.538 L670.385,81.385 L678.462,81.385 C680.604,81.385 682.658,82.236 684.173,83.75 C685.688,85.265 686.538,87.319 686.538,89.462 Z M646.154,89.462 C646.154,87.319 647.005,85.265 648.52,83.75 C650.034,82.236 652.089,81.385 654.231,81.385 L665,81.385 L665,97.538 L654.231,97.538 C652.089,97.538 650.034,96.688 648.52,95.173 C647.005,93.658 646.154,91.604 646.154,89.462 Z M654.231,119.077 C649.77,119.077 646.154,115.461 646.154,111 C646.154,106.539 649.77,102.923 654.231,102.923 L665,102.923 L665,119.077 L654.231,119.077 Z M665,133.885 C665,139.089 660.781,143.308 655.577,143.308 C650.373,143.308 646.154,139.089 646.154,133.885 C646.154,128.68 650.373,124.462 655.577,124.462 L665,124.462 Z M678.462,119.077 C674.001,119.077 670.385,115.461 670.385,111 C670.385,106.539 674.001,102.923 678.462,102.923 C682.922,102.923 686.538,106.539 686.538,111 C686.538,113.142 685.688,115.197 684.173,116.711 C682.658,118.226 680.604,119.077 678.462,119.077 Z" />
        </g>
    </g>
</svg>