<?xml version="1.0" encoding="UTF-8"?>
<svg height="600" width="800" xmlns="http://www.w3.org/2000/svg" xmlns:xlink="http://www.w3.org/1999/xlink">
    <g id="Notes" font-family="'LucidaGrande', 'Lucida Grande', sans-serif" font-size="13">
        <rect fill="white" height="600.0" width="800.0" x="0.0" y="0.0" />
        <g font-size="13">
            <text x="18.0" y="176.0">Small</text>
            <text x="18.0" y="376.0">Medium</text>
            <text x="18.0" y="576.0">Large</text>
        </g>
        <g font-size="9">
            <text x="250.0" y="30.0">Ultralight</text>
            <text x="450.0" y="30.0">Regular</text>
            <text x="650.0" y="30.0">Black</text>
            <text id="template-version" fill="#505050" text-anchor="end" x="785.0" y="575.0">Template v.3.0</text>
            <a href="https://github.com/swhitty/SwiftDraw">
                <text fill="#505050" text-anchor="end" x="785.0" y="590.0">https://github.com/swhitty/SwiftDraw</text>
            </a>
        </g>
    </g>
    <g id="Guides" stroke="rgb(39, 170, 225)" stroke-width="0.5">
        <path id="Capline-S" d="M18,76 l800,0" />
        <path id="H-reference" d="M85,145.755 L87.685,145.755 L113.369,79.287 L114.052,79.287 L114.052,76 L112.148,76 L85,145.755 Z M95.693,121.536 L130.996,121.536 L130.263,119.313 L96.474,119.313 L95.693,121.536 Z M139.15,145.755 L141.787,145.755 L114.638,76 L113.466,76 L113.466,79.287 L139.15,145.755 Z" stroke="none" />
        <path id="Baseline-S" d="M18,146 l800,0" />
        <path id="left-margin-Ultralight-S" d="M220,56 l0,110" />
        <path id="right-margin-Ultralight-S" d="M310,56 l0,110" />
        <path id="left-margin-Regular-S" d="M420,56 l0,110" />
        <path id="right-margin-Regular-S" d="M510,56 l0,110" />
        <path id="left-margin-Black-S" d="M620,56 l0,110" />
        <path id="right-margin-Black-S" d="M710,56 l0,110" />
        <path id="Capline-M" d="M18,276 l800,0" />
        <path id="Baseline-M" d="M18,346 l800,0" />
        <path id="Capline-L" d="M18,476 l800,0" />
        <path id="Baseline-L" d="M18,546 l800,0" />
    </g>
    <g id="Symbols">
        <g id="Ultralight-S">
            <path d="M304.597,87.557 L288.443,71.403 C287.393,70.351 285.687,70.35 284.635,71.402 C283.582,72.453 283.581,74.159 284.633,75.211 L290.809,81.385 L266.915,105.279 L255.345,93.729 C253.242,91.628 249.835,91.628 247.732,93.729 L228.886,112.575 C227.872,113.583 227.303,114.955 227.308,116.385 L227.308,143.308 C227.308,144.736 227.875,146.105 228.885,147.115 C229.895,148.125 231.264,148.692 232.692,148.692 L259.615,148.692 C261.044,148.697 262.415,148.128 263.422,147.114 L282.268,128.268 C284.369,126.165 284.369,122.758 282.268,120.655 L270.721,109.095 L294.615,85.201 L300.788,91.376 C301.838,92.428 303.543,92.429 304.596,91.378 C305.649,90.326 305.65,88.62 304.598,87.568 Z M278.462,124.462 L259.615,143.308 L232.692,143.308 L232.692,116.385 L251.538,97.538 L263.095,109.095 L249.634,122.557 C248.581,123.61 248.582,125.316 249.635,126.367 C250.687,127.419 252.393,127.418 253.444,126.365 L266.906,112.904 Z" />
        </g>
        <g id="Regular-S">
            <path d="M504.597,87.557 L488.443,71.403 C487.393,70.351 485.687,70.35 484.635,71.402 C483.582,72.453 483.581,74.159 484.633,75.211 L490.809,81.385 L466.915,105.279 L455.345,93.729 C453.242,91.628 449.835,91.628 447.732,93.729 L428.886,112.575 C427.872,113.583 427.303,114.955 427.308,116.385 L427.308,143.308 C427.308,144.736 427.875,146.105 428.885,147.115 C429.895,148.125 431.264,148.692 432.692,148.692 L459.615,148.692 C461.044,148.697 462.415,148.128 463.422,147.114 L482.268,128.268 C484.369,126.165 484.369,122.758 482.268,120.655 L470.721,109.095 L494.615,85.201 L500.787,91.376 C501.838,92.428 503.543,92.429 504.596,91.378 C505.649,90.326 505.65,88.62 504.598,87.568 Z M478.462,124.462 L459.615,143.308 L432.692,143.308 L432.692,116.385 L451.538,97.538 L463.095,109.095 L449.634,122.557 C448.581,123.61 448.582,125.316 449.635,126.367 C450.687,127.419 452.393,127.418 453.444,126.365 L466.906,112.904 Z" />
        </g>
        <g id="Black-S">
            <path d="M704.597,87.557 L688.443,71.403 C687.393,70.351 685.687,70.35 684.635,71.402 C683.582,72.453 683.581,74.159 684.633,75.211 L690.809,81.385 L666.915,105.279 L655.345,93.729 C653.242,91.628 649.835,91.628 647.732,93.729 L628.886,112.575 C627.872,113.583 627.303,114.955 627.308,116.385 L627.308,143.308 C627.308,144.736 627.875,146.105 628.885,147.115 C629.895,148.125 631.264,148.692 632.692,148.692 L659.615,148.692 C661.044,148.697 662.415,148.128 663.422,147.114 L682.268,128.268 C684.369,126.165 684.369,122.758 682.268,120.655 L670.721,109.095 L694.615,85.201 L700.788,91.376 C701.838,92.428 703.544,92.429 704.596,91.378 C705.649,90.326 705.65,88.62 704.598,87.568 Z M678.462,124.462 L659.615,143.308 L632.692,143.308 L632.692,116.385 L651.538,97.538 L663.095,109.095 L649.634,122.557 C648.581,123.61 648.582,125.316 649.635,126.367 C650.687,127.419 652.393,127.418 653.444,126.365 L666.906,112.904 Z" />
        </g>
    </g>
</svg>