<?xml version="1.0" encoding="UTF-8"?>
<svg height="600" width="800" xmlns="http://www.w3.org/2000/svg" xmlns:xlink="http://www.w3.org/1999/xlink">
    <g id="Notes" font-family="'LucidaGrande', 'Lucida Grande', sans-serif" font-size="13">
        <rect fill="white" height="600.0" width="800.0" x="0.0" y="0.0" />
        <g font-size="13">
            <text x="18.0" y="176.0">Small</text>
            <text x="18.0" y="376.0">Medium</text>
            <text x="18.0" y="576.0">Large</text>
        </g>
        <g font-size="9">
            <text x="250.0" y="30.0">Ultralight</text>
            <text x="450.0" y="30.0">Regular</text>
            <text x="650.0" y="30.0">Black</text>
            <text id="template-version" fill="#505050" text-anchor="end" x="785.0" y="575.0">Template v.3.0</text>
            <a href="https://github.com/swhitty/SwiftDraw">
                <text fill="#505050" text-anchor="end" x="785.0" y="590.0">https://github.com/swhitty/SwiftDraw</text>
            </a>
        </g>
    </g>
    <g id="Guides" stroke="rgb(39, 170, 225)" stroke-width="0.5">
        <path id="Capline-S" d="M18,76 l800,0" />
        <path id="H-reference" d="M85,145.755 L87.685,145.755 L113.369,79.287 L114.052,79.287 L114.052,76 L112.148,76 L85,145.755 Z M95.693,121.536 L130.996,121.536 L130.263,119.313 L96.474,119.313 L95.693,121.536 Z M139.15,145.755 L141.787,145.755 L114.638,76 L113.466,76 L113.466,79.287 L139.15,145.755 Z" stroke="none" />
        <path id="Baseline-S" d="M18,146 l800,0" />
        <path id="left-margin-Ultralight-S" d="M220,56 l0,110" />
        <path id="right-margin-Ultralight-S" d="M310,56 l0,110" />
        <path id="left-margin-Regular-S" d="M420,56 l0,110" />
        <path id="right-margin-Regular-S" d="M510,56 l0,110" />
        <path id="left-margin-Black-S" d="M620,56 l0,110" />
        <path id="right-margin-Black-S" d="M710,56 l0,110" />
        <path id="Capline-M" d="M18,276 l800,0" />
        <path id="Baseline-M" d="M18,346 l800,0" />
        <path id="Capline-L" d="M18,476 l800,0" />
        <path id="Baseline-L" d="M18,546 l800,0" />
    </g>
    <g id="Symbols">
        <g id="Ultralight-S">
            <path d="M301.885,116.311 L278.842,78.531 C277.862,76.952 276.133,75.994 274.275,76 L255.722,76 C253.864,75.994 252.137,76.952 251.158,78.531 L251.141,78.554 L228.129,116.284 C227.077,117.965 227.035,120.088 228.018,121.81 L237.212,137.903 C238.171,139.58 239.955,140.615 241.887,140.615 L288.11,140.615 C290.042,140.615 291.826,139.58 292.785,137.903 L301.979,121.81 C302.963,120.099 302.927,117.986 301.885,116.311 Z M295.625,116.385 L279.983,116.385 L268.14,96.64 L275.796,83.878 Z M256.294,116.385 L265,101.873 L273.706,116.385 Z M276.937,121.769 L285.014,135.231 L244.986,135.231 L253.063,121.769 Z M265,91.407 L258.983,81.385 L271.024,81.368 Z M254.2,83.878 L261.86,96.64 L250.014,116.385 L234.375,116.385 Z M234.22,121.769 L246.783,121.769 L240.338,132.512 Z M289.662,132.515 L283.213,121.769 L295.803,121.769 Z" />
        </g>
        <g id="Regular-S">
            <path d="M501.885,116.311 L478.842,78.531 C477.862,76.952 476.133,75.994 474.275,76 L455.722,76 C453.864,75.994 452.137,76.952 451.158,78.531 L451.141,78.554 L428.129,116.284 C427.077,117.965 427.035,120.088 428.018,121.81 L437.212,137.903 C438.171,139.58 439.955,140.615 441.887,140.615 L488.11,140.615 C490.042,140.615 491.826,139.58 492.785,137.903 L501.979,121.81 C502.963,120.099 502.927,117.986 501.885,116.311 Z M495.625,116.385 L479.983,116.385 L468.14,96.64 L475.796,83.878 Z M456.294,116.385 L465,101.873 L473.706,116.385 Z M476.937,121.769 L485.014,135.231 L444.986,135.231 L453.063,121.769 Z M465,91.407 L458.983,81.385 L471.024,81.368 Z M454.2,83.878 L461.86,96.64 L450.014,116.385 L434.375,116.385 Z M434.22,121.769 L446.783,121.769 L440.338,132.512 Z M489.662,132.515 L483.213,121.769 L495.803,121.769 Z" />
        </g>
        <g id="Black-S">
            <path d="M701.885,116.311 L678.842,78.531 C677.862,76.952 676.133,75.994 674.275,76 L655.722,76 C653.864,75.994 652.137,76.952 651.158,78.531 L651.141,78.554 L628.129,116.284 C627.077,117.965 627.035,120.088 628.018,121.81 L637.212,137.903 C638.171,139.58 639.955,140.615 641.887,140.615 L688.11,140.615 C690.042,140.615 691.826,139.58 692.785,137.903 L701.979,121.81 C702.963,120.099 702.927,117.986 701.885,116.311 Z M695.625,116.385 L679.983,116.385 L668.14,96.64 L675.796,83.878 Z M656.294,116.385 L665,101.873 L673.706,116.385 Z M676.937,121.769 L685.014,135.231 L644.986,135.231 L653.063,121.769 Z M665,91.407 L658.983,81.385 L671.024,81.368 Z M654.201,83.878 L661.86,96.64 L650.014,116.385 L634.375,116.385 Z M634.22,121.769 L646.783,121.769 L640.339,132.512 Z M689.662,132.515 L683.214,121.769 L695.803,121.769 Z" />
        </g>
    </g>
</svg>