<?xml version="1.0" encoding="UTF-8"?>
<svg height="600" width="800" xmlns="http://www.w3.org/2000/svg" xmlns:xlink="http://www.w3.org/1999/xlink">
    <g id="Notes" font-family="'LucidaGrande', 'Lucida Grande', sans-serif" font-size="13">
        <rect fill="white" height="600.0" width="800.0" x="0.0" y="0.0" />
        <g font-size="13">
            <text x="18.0" y="176.0">Small</text>
            <text x="18.0" y="376.0">Medium</text>
            <text x="18.0" y="576.0">Large</text>
        </g>
        <g font-size="9">
            <text x="250.0" y="30.0">Ultralight</text>
            <text x="450.0" y="30.0">Regular</text>
            <text x="650.0" y="30.0">Black</text>
            <text id="template-version" fill="#505050" text-anchor="end" x="785.0" y="575.0">Template v.3.0</text>
            <a href="https://github.com/swhitty/SwiftDraw">
                <text fill="#505050" text-anchor="end" x="785.0" y="590.0">https://github.com/swhitty/SwiftDraw</text>
            </a>
        </g>
    </g>
    <g id="Guides" stroke="rgb(39, 170, 225)" stroke-width="0.5">
        <path id="Capline-S" d="M18,76 l800,0" />
        <path id="H-reference" d="M85,145.755 L87.685,145.755 L113.369,79.287 L114.052,79.287 L114.052,76 L112.148,76 L85,145.755 Z M95.693,121.536 L130.996,121.536 L130.263,119.313 L96.474,119.313 L95.693,121.536 Z M139.15,145.755 L141.787,145.755 L114.638,76 L113.466,76 L113.466,79.287 L139.15,145.755 Z" stroke="none" />
        <path id="Baseline-S" d="M18,146 l800,0" />
        <path id="left-margin-Ultralight-S" d="M220,56 l0,110" />
        <path id="right-margin-Ultralight-S" d="M310,56 l0,110" />
        <path id="left-margin-Regular-S" d="M420,56 l0,110" />
        <path id="right-margin-Regular-S" d="M510,56 l0,110" />
        <path id="left-margin-Black-S" d="M620,56 l0,110" />
        <path id="right-margin-Black-S" d="M710,56 l0,110" />
        <path id="Capline-M" d="M18,276 l800,0" />
        <path id="Baseline-M" d="M18,346 l800,0" />
        <path id="Capline-L" d="M18,476 l800,0" />
        <path id="Baseline-L" d="M18,546 l800,0" />
    </g>
    <g id="Symbols">
        <g id="Ultralight-S">
            <path d="M297.308,86.769 L281.154,86.769 L281.154,73.308 C281.154,71.821 279.948,70.615 278.462,70.615 C276.975,70.615 275.769,71.821 275.769,73.308 L275.769,86.769 L254.231,86.769 L254.231,73.308 C254.231,71.821 253.025,70.615 251.538,70.615 C250.052,70.615 248.846,71.821 248.846,73.308 L248.846,86.769 L232.877,86.769 C230.767,86.769 230,88.378 230,89.462 C230,90.176 230.284,90.86 230.789,91.365 C231.293,91.87 231.978,92.154 232.692,92.154 L238.077,92.154 L238.077,121.769 C238.077,125.339 239.495,128.763 242.02,131.288 C244.544,133.812 247.968,135.231 251.538,135.231 L262.308,135.231 L262.308,148.692 C262.308,150.179 263.513,151.385 265,151.385 C266.487,151.385 267.692,150.179 267.692,148.692 L267.692,135.231 L278.462,135.231 C282.032,135.231 285.456,133.812 287.98,131.288 C290.505,128.763 291.923,125.339 291.923,121.769 L291.923,92.154 L297.308,92.154 C298.795,92.154 300,90.948 300,89.462 C300,87.975 298.795,86.769 297.308,86.769 Z M278.462,129.846 L251.538,129.846 C249.396,129.846 247.342,128.995 245.827,127.48 C244.312,125.966 243.462,123.911 243.462,121.769 L243.462,92.154 L286.538,92.154 L286.538,121.769 C286.538,123.911 285.688,125.966 284.173,127.48 C282.658,128.995 280.604,129.846 278.462,129.846 Z M272.599,109.465 C273.102,110.192 273.216,111.119 272.905,111.946 L268.867,122.715 C268.352,124.103 266.8,124.814 265.405,124.296 C264.009,123.778 263.298,122.227 263.816,120.831 L266.508,113.7 L259.615,113.7 C258.732,113.7 257.905,113.267 257.402,112.541 C256.9,111.815 256.785,110.889 257.095,110.062 L261.133,99.293 C261.648,97.905 263.2,97.194 264.595,97.712 C265.991,98.23 266.702,99.781 266.184,101.176 L263.492,108.308 L270.385,108.308 C271.268,108.307 272.096,108.74 272.599,109.465 Z" />
        </g>
        <g id="Regular-S">
            <path d="M497.308,86.769 L481.154,86.769 L481.154,73.308 C481.154,71.821 479.948,70.615 478.462,70.615 C476.975,70.615 475.769,71.821 475.769,73.308 L475.769,86.769 L454.231,86.769 L454.231,73.308 C454.231,71.821 453.025,70.615 451.538,70.615 C450.052,70.615 448.846,71.821 448.846,73.308 L448.846,86.769 L432.877,86.769 C430.767,86.769 430,88.378 430,89.462 C430,90.176 430.284,90.86 430.789,91.365 C431.293,91.87 431.978,92.154 432.692,92.154 L438.077,92.154 L438.077,121.769 C438.077,125.339 439.495,128.763 442.02,131.288 C444.544,133.812 447.968,135.231 451.538,135.231 L462.308,135.231 L462.308,148.692 C462.308,150.179 463.513,151.385 465,151.385 C466.487,151.385 467.692,150.179 467.692,148.692 L467.692,135.231 L478.462,135.231 C482.032,135.231 485.456,133.812 487.98,131.288 C490.505,128.763 491.923,125.339 491.923,121.769 L491.923,92.154 L497.308,92.154 C498.795,92.154 500,90.948 500,89.462 C500,87.975 498.795,86.769 497.308,86.769 Z M478.462,129.846 L451.538,129.846 C449.396,129.846 447.342,128.995 445.827,127.48 C444.312,125.966 443.462,123.911 443.462,121.769 L443.462,92.154 L486.538,92.154 L486.538,121.769 C486.538,123.911 485.688,125.966 484.173,127.48 C482.658,128.995 480.604,129.846 478.462,129.846 Z M472.599,109.465 C473.102,110.192 473.216,111.119 472.905,111.946 L468.867,122.715 C468.352,124.103 466.8,124.814 465.405,124.296 C464.009,123.778 463.298,122.227 463.816,120.831 L466.508,113.7 L459.615,113.7 C458.732,113.7 457.905,113.267 457.402,112.541 C456.9,111.815 456.785,110.889 457.095,110.062 L461.133,99.293 C461.648,97.905 463.2,97.194 464.595,97.712 C465.991,98.23 466.702,99.781 466.184,101.176 L463.492,108.308 L470.385,108.308 C471.268,108.307 472.096,108.74 472.599,109.465 Z" />
        </g>
        <g id="Black-S">
            <path d="M697.308,86.769 L681.154,86.769 L681.154,73.308 C681.154,71.821 679.948,70.615 678.462,70.615 C676.975,70.615 675.769,71.821 675.769,73.308 L675.769,86.769 L654.231,86.769 L654.231,73.308 C654.231,71.821 653.025,70.615 651.538,70.615 C650.052,70.615 648.846,71.821 648.846,73.308 L648.846,86.769 L632.877,86.769 C630.767,86.769 630,88.378 630,89.462 C630,90.176 630.284,90.86 630.789,91.365 C631.293,91.87 631.978,92.154 632.692,92.154 L638.077,92.154 L638.077,121.769 C638.077,125.339 639.495,128.763 642.02,131.288 C644.544,133.812 647.968,135.231 651.539,135.231 L662.308,135.231 L662.308,148.692 C662.308,150.179 663.513,151.385 665,151.385 C666.487,151.385 667.692,150.179 667.692,148.692 L667.692,135.231 L678.462,135.231 C682.032,135.231 685.456,133.812 687.98,131.288 C690.505,128.763 691.923,125.339 691.923,121.769 L691.923,92.154 L697.308,92.154 C698.795,92.154 700,90.948 700,89.462 C700,87.975 698.795,86.769 697.308,86.769 Z M678.462,129.846 L651.538,129.846 C649.396,129.846 647.342,128.995 645.827,127.48 C644.312,125.966 643.462,123.911 643.462,121.769 L643.462,92.154 L686.538,92.154 L686.538,121.769 C686.538,123.911 685.688,125.966 684.173,127.48 C682.658,128.995 680.604,129.846 678.462,129.846 Z M672.599,109.465 C673.102,110.192 673.216,111.119 672.905,111.946 L668.867,122.715 C668.352,124.103 666.8,124.814 665.405,124.296 C664.009,123.778 663.298,122.227 663.816,120.831 L666.508,113.7 L659.615,113.7 C658.732,113.7 657.905,113.267 657.402,112.541 C656.9,111.815 656.785,110.889 657.095,110.062 L661.133,99.293 C661.648,97.905 663.2,97.194 664.595,97.712 C665.991,98.23 666.702,99.781 666.184,101.176 L663.492,108.308 L670.385,108.308 C671.268,108.307 672.096,108.74 672.599,109.465 Z" />
        </g>
    </g>
</svg>