<?xml version="1.0" encoding="UTF-8"?>
<svg height="600" width="800" xmlns="http://www.w3.org/2000/svg" xmlns:xlink="http://www.w3.org/1999/xlink">
    <g id="Notes" font-family="'LucidaGrande', 'Lucida Grande', sans-serif" font-size="13">
        <rect fill="white" height="600.0" width="800.0" x="0.0" y="0.0" />
        <g font-size="13">
            <text x="18.0" y="176.0">Small</text>
            <text x="18.0" y="376.0">Medium</text>
            <text x="18.0" y="576.0">Large</text>
        </g>
        <g font-size="9">
            <text x="250.0" y="30.0">Ultralight</text>
            <text x="450.0" y="30.0">Regular</text>
            <text x="650.0" y="30.0">Black</text>
            <text id="template-version" fill="#505050" text-anchor="end" x="785.0" y="575.0">Template v.3.0</text>
            <a href="https://github.com/swhitty/SwiftDraw">
                <text fill="#505050" text-anchor="end" x="785.0" y="590.0">https://github.com/swhitty/SwiftDraw</text>
            </a>
        </g>
    </g>
    <g id="Guides" stroke="rgb(39, 170, 225)" stroke-width="0.5">
        <path id="Capline-S" d="M18,76 l800,0" />
        <path id="H-reference" d="M85,145.755 L87.685,145.755 L113.369,79.287 L114.052,79.287 L114.052,76 L112.148,76 L85,145.755 Z M95.693,121.536 L130.996,121.536 L130.263,119.313 L96.474,119.313 L95.693,121.536 Z M139.15,145.755 L141.787,145.755 L114.638,76 L113.466,76 L113.466,79.287 L139.15,145.755 Z" stroke="none" />
        <path id="Baseline-S" d="M18,146 l800,0" />
        <path id="left-margin-Ultralight-S" d="M220,56 l0,110" />
        <path id="right-margin-Ultralight-S" d="M310,56 l0,110" />
        <path id="left-margin-Regular-S" d="M420,56 l0,110" />
        <path id="right-margin-Regular-S" d="M510,56 l0,110" />
        <path id="left-margin-Black-S" d="M620,56 l0,110" />
        <path id="right-margin-Black-S" d="M710,56 l0,110" />
        <path id="Capline-M" d="M18,276 l800,0" />
        <path id="Baseline-M" d="M18,346 l800,0" />
        <path id="Capline-L" d="M18,476 l800,0" />
        <path id="Baseline-L" d="M18,546 l800,0" />
    </g>
    <g id="Symbols">
        <g id="Ultralight-S">
            <path d="M294.615,81.385 L235.385,81.385 C233.957,81.385 232.587,81.952 231.577,82.962 C230.567,83.972 230,85.341 230,86.769 L230,135.231 C230,136.659 230.567,138.028 231.577,139.038 C232.587,140.048 233.957,140.615 235.385,140.615 L294.615,140.615 C296.043,140.615 297.413,140.048 298.423,139.038 C299.433,138.028 300,136.659 300,135.231 L300,86.769 C300,85.341 299.433,83.972 298.423,82.962 C297.413,81.952 296.043,81.385 294.615,81.385 Z M294.615,135.231 L235.385,135.231 L235.385,86.769 L294.615,86.769 L294.615,135.231 Z M281.844,97.424 C277.314,94.025 271.33,92.154 265,92.154 C258.67,92.154 252.686,94.025 248.173,97.424 C243.391,100.995 240.769,105.817 240.769,111 C240.769,116.183 243.391,121.005 248.173,124.576 C252.686,127.975 258.67,129.846 265,129.846 C271.33,129.846 277.314,127.975 281.844,124.576 C286.609,121.005 289.231,116.183 289.231,111 C289.231,105.817 286.609,100.995 281.844,97.424 Z M265,124.462 C254.608,124.462 246.154,118.424 246.154,111 C246.154,103.576 254.608,97.538 265,97.538 C275.392,97.538 283.846,103.576 283.846,111 C283.846,118.424 275.392,124.462 265,124.462 Z" />
        </g>
        <g id="Regular-S">
            <path d="M494.615,81.385 L435.385,81.385 C433.957,81.385 432.587,81.952 431.577,82.962 C430.567,83.972 430,85.341 430,86.769 L430,135.231 C430,136.659 430.567,138.028 431.577,139.038 C432.587,140.048 433.957,140.615 435.385,140.615 L494.615,140.615 C496.043,140.615 497.413,140.048 498.423,139.038 C499.433,138.028 500,136.659 500,135.231 L500,86.769 C500,85.341 499.433,83.972 498.423,82.962 C497.413,81.952 496.043,81.385 494.615,81.385 Z M494.615,135.231 L435.385,135.231 L435.385,86.769 L494.615,86.769 L494.615,135.231 Z M481.844,97.424 C477.314,94.025 471.33,92.154 465,92.154 C458.67,92.154 452.686,94.025 448.173,97.424 C443.391,100.995 440.769,105.817 440.769,111 C440.769,116.183 443.391,121.005 448.173,124.576 C452.686,127.975 458.67,129.846 465,129.846 C471.33,129.846 477.314,127.975 481.844,124.576 C486.609,121.005 489.231,116.183 489.231,111 C489.231,105.817 486.609,100.995 481.844,97.424 Z M465,124.462 C454.608,124.462 446.154,118.424 446.154,111 C446.154,103.576 454.608,97.538 465,97.538 C475.392,97.538 483.846,103.576 483.846,111 C483.846,118.424 475.392,124.462 465,124.462 Z" />
        </g>
        <g id="Black-S">
            <path d="M694.615,81.385 L635.385,81.385 C633.957,81.385 632.587,81.952 631.577,82.962 C630.567,83.972 630,85.341 630,86.769 L630,135.231 C630,136.659 630.567,138.028 631.577,139.038 C632.587,140.048 633.957,140.615 635.385,140.615 L694.615,140.615 C696.044,140.615 697.413,140.048 698.423,139.038 C699.433,138.028 700,136.659 700,135.231 L700,86.769 C700,85.341 699.433,83.972 698.423,82.962 C697.413,81.952 696.044,81.385 694.615,81.385 Z M694.615,135.231 L635.385,135.231 L635.385,86.769 L694.615,86.769 L694.615,135.231 Z M681.844,97.424 C677.314,94.025 671.33,92.154 665,92.154 C658.67,92.154 652.686,94.025 648.173,97.424 C643.391,100.995 640.769,105.817 640.769,111 C640.769,116.183 643.391,121.005 648.173,124.576 C652.686,127.975 658.67,129.846 665,129.846 C671.33,129.846 677.314,127.975 681.844,124.576 C686.609,121.005 689.231,116.183 689.231,111 C689.231,105.817 686.609,100.995 681.844,97.424 Z M665,124.462 C654.608,124.462 646.154,118.424 646.154,111 C646.154,103.576 654.608,97.538 665,97.538 C675.392,97.538 683.846,103.576 683.846,111 C683.846,118.424 675.392,124.462 665,124.462 Z" />
        </g>
    </g>
</svg>