<?xml version="1.0" encoding="UTF-8"?>
<svg height="600" width="800" xmlns="http://www.w3.org/2000/svg" xmlns:xlink="http://www.w3.org/1999/xlink">
    <g id="Notes" font-family="'LucidaGrande', 'Lucida Grande', sans-serif" font-size="13">
        <rect fill="white" height="600.0" width="800.0" x="0.0" y="0.0" />
        <g font-size="13">
            <text x="18.0" y="176.0">Small</text>
            <text x="18.0" y="376.0">Medium</text>
            <text x="18.0" y="576.0">Large</text>
        </g>
        <g font-size="9">
            <text x="250.0" y="30.0">Ultralight</text>
            <text x="450.0" y="30.0">Regular</text>
            <text x="650.0" y="30.0">Black</text>
            <text id="template-version" fill="#505050" text-anchor="end" x="785.0" y="575.0">Template v.3.0</text>
            <a href="https://github.com/swhitty/SwiftDraw">
                <text fill="#505050" text-anchor="end" x="785.0" y="590.0">https://github.com/swhitty/SwiftDraw</text>
            </a>
        </g>
    </g>
    <g id="Guides" stroke="rgb(39, 170, 225)" stroke-width="0.5">
        <path id="Capline-S" d="M18,76 l800,0" />
        <path id="H-reference" d="M85,145.755 L87.685,145.755 L113.369,79.287 L114.052,79.287 L114.052,76 L112.148,76 L85,145.755 Z M95.693,121.536 L130.996,121.536 L130.263,119.313 L96.474,119.313 L95.693,121.536 Z M139.15,145.755 L141.787,145.755 L114.638,76 L113.466,76 L113.466,79.287 L139.15,145.755 Z" stroke="none" />
        <path id="Baseline-S" d="M18,146 l800,0" />
        <path id="left-margin-Ultralight-S" d="M220,56 l0,110" />
        <path id="right-margin-Ultralight-S" d="M310,56 l0,110" />
        <path id="left-margin-Regular-S" d="M420,56 l0,110" />
        <path id="right-margin-Regular-S" d="M510,56 l0,110" />
        <path id="left-margin-Black-S" d="M620,56 l0,110" />
        <path id="right-margin-Black-S" d="M710,56 l0,110" />
        <path id="Capline-M" d="M18,276 l800,0" />
        <path id="Baseline-M" d="M18,346 l800,0" />
        <path id="Capline-L" d="M18,476 l800,0" />
        <path id="Baseline-L" d="M18,546 l800,0" />
    </g>
    <g id="Symbols">
        <g id="Ultralight-S">
            <path d="M294.114,120.642 L288.5,128.5 L294.114,136.358 C294.899,137.566 294.594,139.177 293.423,140.015 C292.252,140.853 290.628,140.621 289.739,139.488 L285.192,133.131 L280.652,139.488 C280.113,140.319 279.16,140.786 278.173,140.704 C277.186,140.622 276.323,140.005 275.927,139.097 C275.531,138.189 275.666,137.137 276.277,136.358 L281.884,128.5 L276.271,120.642 C275.486,119.434 275.79,117.823 276.962,116.985 C278.133,116.147 279.756,116.379 280.646,117.512 L285.192,123.869 L289.732,117.512 C290.622,116.379 292.245,116.147 293.416,116.985 C294.588,117.823 294.892,119.434 294.107,120.642 Z M263.519,125.575 C262.173,125.185 260.78,124.785 260.002,124.283 C259.582,124.007 259.588,123.947 259.629,123.644 C259.639,123.147 259.89,122.686 260.302,122.409 C261.85,121.359 265.464,121.826 266.975,122.22 C268.413,122.604 269.891,121.75 270.275,120.311 C270.659,118.873 269.805,117.395 268.366,117.011 C267.653,116.826 261.299,115.254 257.314,117.94 C255.609,119.085 254.499,120.928 254.286,122.971 C253.612,128.315 258.879,129.84 262.026,130.748 C266.085,131.923 266.441,132.404 266.327,133.303 C266.223,134.114 265.903,134.423 265.607,134.625 C264.059,135.655 260.501,135.15 259.027,134.743 C257.594,134.342 256.104,135.18 255.703,136.615 C255.301,138.051 256.139,139.54 257.574,139.942 C259.243,140.381 260.961,140.608 262.686,140.615 C264.645,140.615 266.826,140.278 268.572,139.114 C270.318,137.954 271.453,136.073 271.665,133.988 C272.404,128.163 266.848,126.538 263.519,125.575 Z M248.846,116.385 L235.385,116.385 C233.898,116.385 232.692,117.59 232.692,119.077 C232.692,120.564 233.898,121.769 235.385,121.769 L239.423,121.769 L239.423,137.923 C239.423,139.41 240.628,140.615 242.115,140.615 C243.602,140.615 244.808,139.41 244.808,137.923 L244.808,121.769 L248.846,121.769 C250.333,121.769 251.538,120.564 251.538,119.077 C251.538,117.59 250.333,116.385 248.846,116.385 Z M294.615,97.538 L294.615,105.615 C294.615,107.102 293.41,108.308 291.923,108.308 C290.436,108.308 289.231,107.102 289.231,105.615 L289.231,100.231 L273.077,100.231 C272.363,100.231 271.678,99.947 271.173,99.442 C270.668,98.937 270.385,98.253 270.385,97.538 L270.385,81.385 L240.769,81.385 L240.769,105.615 C240.769,107.102 239.564,108.308 238.077,108.308 C236.59,108.308 235.385,107.102 235.385,105.615 L235.385,81.385 C235.385,79.957 235.952,78.587 236.962,77.577 C237.972,76.567 239.341,76 240.769,76 L273.077,76 C273.791,75.999 274.476,76.283 274.982,76.788 L293.828,95.634 C294.333,96.139 294.616,96.824 294.615,97.538 Z M285.425,94.846 L275.769,85.191 L275.769,94.846 Z" />
        </g>
        <g id="Regular-S">
            <path d="M494.114,120.642 L488.5,128.5 L494.114,136.358 C494.899,137.566 494.594,139.177 493.423,140.015 C492.252,140.853 490.628,140.621 489.739,139.488 L485.192,133.131 L480.652,139.488 C480.113,140.319 479.16,140.786 478.173,140.704 C477.186,140.622 476.323,140.005 475.927,139.097 C475.531,138.189 475.666,137.137 476.277,136.358 L481.884,128.5 L476.271,120.642 C475.486,119.434 475.79,117.823 476.962,116.985 C478.133,116.147 479.756,116.379 480.646,117.512 L485.192,123.869 L489.732,117.512 C490.622,116.379 492.245,116.147 493.416,116.985 C494.588,117.823 494.892,119.434 494.107,120.642 Z M463.519,125.575 C462.173,125.185 460.78,124.785 460.002,124.283 C459.582,124.007 459.588,123.947 459.629,123.644 C459.639,123.147 459.89,122.686 460.302,122.409 C461.85,121.359 465.464,121.826 466.975,122.22 C468.413,122.604 469.891,121.75 470.275,120.311 C470.659,118.873 469.805,117.395 468.366,117.011 C467.653,116.826 461.299,115.254 457.314,117.94 C455.609,119.085 454.499,120.928 454.286,122.971 C453.612,128.315 458.879,129.84 462.026,130.748 C466.085,131.923 466.441,132.404 466.327,133.303 C466.223,134.114 465.903,134.423 465.607,134.625 C464.059,135.655 460.501,135.15 459.027,134.743 C457.594,134.342 456.104,135.18 455.703,136.615 C455.301,138.051 456.139,139.54 457.574,139.942 C459.243,140.381 460.961,140.608 462.686,140.615 C464.645,140.615 466.826,140.278 468.572,139.114 C470.318,137.954 471.453,136.073 471.665,133.988 C472.404,128.163 466.848,126.538 463.519,125.575 Z M448.846,116.385 L435.385,116.385 C433.898,116.385 432.692,117.59 432.692,119.077 C432.692,120.564 433.898,121.769 435.385,121.769 L439.423,121.769 L439.423,137.923 C439.423,139.41 440.628,140.615 442.115,140.615 C443.602,140.615 444.808,139.41 444.808,137.923 L444.808,121.769 L448.846,121.769 C450.333,121.769 451.538,120.564 451.538,119.077 C451.538,117.59 450.333,116.385 448.846,116.385 Z M494.615,97.538 L494.615,105.615 C494.615,107.102 493.41,108.308 491.923,108.308 C490.436,108.308 489.231,107.102 489.231,105.615 L489.231,100.231 L473.077,100.231 C472.363,100.231 471.678,99.947 471.173,99.442 C470.668,98.937 470.385,98.253 470.385,97.538 L470.385,81.385 L440.769,81.385 L440.769,105.615 C440.769,107.102 439.564,108.308 438.077,108.308 C436.59,108.308 435.385,107.102 435.385,105.615 L435.385,81.385 C435.385,79.957 435.952,78.587 436.962,77.577 C437.972,76.567 439.341,76 440.769,76 L473.077,76 C473.791,75.999 474.476,76.283 474.982,76.788 L493.828,95.634 C494.333,96.139 494.616,96.824 494.615,97.538 Z M485.424,94.846 L475.769,85.191 L475.769,94.846 Z" />
        </g>
        <g id="Black-S">
            <path d="M694.114,120.642 L688.5,128.5 L694.114,136.358 C694.899,137.566 694.594,139.177 693.423,140.015 C692.252,140.853 690.628,140.621 689.739,139.488 L685.192,133.131 L680.652,139.488 C680.113,140.319 679.16,140.786 678.173,140.704 C677.186,140.622 676.323,140.005 675.927,139.097 C675.531,138.189 675.666,137.137 676.277,136.358 L681.884,128.5 L676.271,120.642 C675.486,119.434 675.79,117.823 676.962,116.985 C678.133,116.147 679.756,116.379 680.646,117.512 L685.192,123.869 L689.732,117.512 C690.622,116.379 692.245,116.147 693.416,116.985 C694.588,117.823 694.892,119.434 694.107,120.642 Z M663.519,125.575 C662.173,125.185 660.78,124.785 660.002,124.283 C659.582,124.007 659.589,123.947 659.629,123.644 C659.639,123.147 659.89,122.686 660.302,122.409 C661.85,121.359 665.464,121.826 666.975,122.22 C668.413,122.604 669.891,121.75 670.275,120.311 C670.659,118.873 669.805,117.395 668.366,117.011 C667.653,116.826 661.299,115.254 657.314,117.94 C655.609,119.085 654.499,120.928 654.286,122.971 C653.612,128.315 658.879,129.84 662.026,130.748 C666.085,131.923 666.441,132.404 666.327,133.303 C666.223,134.114 665.903,134.423 665.607,134.625 C664.059,135.655 660.501,135.15 659.027,134.743 C657.594,134.342 656.104,135.18 655.703,136.615 C655.301,138.051 656.139,139.54 657.574,139.942 C659.243,140.381 660.961,140.608 662.686,140.615 C664.645,140.615 666.826,140.278 668.572,139.114 C670.318,137.954 671.453,136.073 671.665,133.988 C672.404,128.163 666.848,126.538 663.519,125.575 Z M648.846,116.385 L635.385,116.385 C633.898,116.385 632.692,117.59 632.692,119.077 C632.692,120.564 633.898,121.769 635.385,121.769 L639.423,121.769 L639.423,137.923 C639.423,139.41 640.628,140.615 642.115,140.615 C643.602,140.615 644.808,139.41 644.808,137.923 L644.808,121.769 L648.846,121.769 C650.333,121.769 651.538,120.564 651.538,119.077 C651.538,117.59 650.333,116.385 648.846,116.385 Z M694.615,97.538 L694.615,105.615 C694.615,107.102 693.41,108.308 691.923,108.308 C690.436,108.308 689.231,107.102 689.231,105.615 L689.231,100.231 L673.077,100.231 C672.363,100.231 671.678,99.947 671.173,99.442 C670.668,98.937 670.385,98.253 670.385,97.538 L670.385,81.385 L640.769,81.385 L640.769,105.615 C640.769,107.102 639.564,108.308 638.077,108.308 C636.59,108.308 635.385,107.102 635.385,105.615 L635.385,81.385 C635.385,79.957 635.952,78.587 636.962,77.577 C637.972,76.567 639.341,76 640.769,76 L673.077,76 C673.791,75.999 674.476,76.283 674.982,76.788 L693.828,95.634 C694.333,96.139 694.616,96.824 694.615,97.538 Z M685.425,94.846 L675.769,85.191 L675.769,94.846 Z" />
        </g>
    </g>
</svg>