<?xml version="1.0" encoding="UTF-8"?>
<svg height="600" width="800" xmlns="http://www.w3.org/2000/svg" xmlns:xlink="http://www.w3.org/1999/xlink">
    <g id="Notes" font-family="'LucidaGrande', 'Lucida Grande', sans-serif" font-size="13">
        <rect fill="white" height="600.0" width="800.0" x="0.0" y="0.0" />
        <g font-size="13">
            <text x="18.0" y="176.0">Small</text>
            <text x="18.0" y="376.0">Medium</text>
            <text x="18.0" y="576.0">Large</text>
        </g>
        <g font-size="9">
            <text x="250.0" y="30.0">Ultralight</text>
            <text x="450.0" y="30.0">Regular</text>
            <text x="650.0" y="30.0">Black</text>
            <text id="template-version" fill="#505050" text-anchor="end" x="785.0" y="575.0">Template v.3.0</text>
            <a href="https://github.com/swhitty/SwiftDraw">
                <text fill="#505050" text-anchor="end" x="785.0" y="590.0">https://github.com/swhitty/SwiftDraw</text>
            </a>
        </g>
    </g>
    <g id="Guides" stroke="rgb(39, 170, 225)" stroke-width="0.5">
        <path id="Capline-S" d="M18,76 l800,0" />
        <path id="H-reference" d="M85,145.755 L87.685,145.755 L113.369,79.287 L114.052,79.287 L114.052,76 L112.148,76 L85,145.755 Z M95.693,121.536 L130.996,121.536 L130.263,119.313 L96.474,119.313 L95.693,121.536 Z M139.15,145.755 L141.787,145.755 L114.638,76 L113.466,76 L113.466,79.287 L139.15,145.755 Z" stroke="none" />
        <path id="Baseline-S" d="M18,146 l800,0" />
        <path id="left-margin-Ultralight-S" d="M220,56 l0,110" />
        <path id="right-margin-Ultralight-S" d="M310,56 l0,110" />
        <path id="left-margin-Regular-S" d="M420,56 l0,110" />
        <path id="right-margin-Regular-S" d="M510,56 l0,110" />
        <path id="left-margin-Black-S" d="M620,56 l0,110" />
        <path id="right-margin-Black-S" d="M710,56 l0,110" />
        <path id="Capline-M" d="M18,276 l800,0" />
        <path id="Baseline-M" d="M18,346 l800,0" />
        <path id="Capline-L" d="M18,476 l800,0" />
        <path id="Baseline-L" d="M18,546 l800,0" />
    </g>
    <g id="Symbols">
        <g id="Ultralight-S">
            <path d="M307.791,100.81 C307.134,98.852 305.414,97.442 303.365,97.182 C297.222,96.356 291.309,94.296 285.983,91.124 L289.453,87.658 C292.49,84.336 292.375,79.213 289.193,76.031 C286.011,72.849 280.888,72.734 277.566,75.771 L273.124,80.217 C272.34,79.275 271.842,78.588 271.64,78.302 C270.728,76.999 269.286,76.165 267.701,76.026 C266.116,75.886 264.551,76.455 263.425,77.578 L250.421,90.592 C249.298,91.718 248.73,93.282 248.869,94.866 C249.008,96.45 249.84,97.891 251.141,98.804 C251.431,99.006 252.117,99.504 253.06,100.288 L224.383,128.961 C221.346,132.282 221.461,137.405 224.643,140.588 C227.825,143.77 232.948,143.884 236.27,140.848 L263.967,113.147 C267.137,118.474 269.198,124.386 270.025,130.529 C270.288,132.574 271.695,134.288 273.649,134.945 C274.208,135.133 274.793,135.23 275.382,135.231 C276.805,135.23 278.169,134.662 279.172,133.652 L306.492,106.329 C307.947,104.89 308.452,102.746 307.791,100.81 Z M281.386,79.577 C282.122,78.701 283.29,78.314 284.404,78.578 C285.518,78.842 286.388,79.712 286.652,80.826 C286.917,81.94 286.53,83.108 285.653,83.845 L281.43,88.068 C279.815,86.853 278.273,85.544 276.812,84.148 Z M232.46,137.038 C231.724,137.915 230.556,138.301 229.442,138.037 C228.328,137.773 227.458,136.903 227.194,135.789 C226.929,134.675 227.316,133.507 228.193,132.771 L256.994,103.97 C258.391,105.428 259.701,106.969 260.914,108.584 Z M275.365,129.819 C272.404,107.732 256.088,95.694 254.231,94.399 L267.241,81.385 C268.54,83.236 280.578,99.558 302.662,102.513 Z" />
        </g>
        <g id="Regular-S">
            <path d="M507.791,100.81 C507.134,98.852 505.414,97.442 503.365,97.182 C497.222,96.356 491.309,94.296 485.983,91.124 L489.453,87.658 C492.49,84.336 492.375,79.213 489.193,76.031 C486.011,72.849 480.888,72.734 477.566,75.771 L473.124,80.217 C472.34,79.275 471.842,78.588 471.64,78.302 C470.728,76.999 469.286,76.165 467.701,76.026 C466.116,75.886 464.551,76.455 463.425,77.578 L450.421,90.592 C449.298,91.718 448.73,93.282 448.869,94.866 C449.008,96.45 449.84,97.891 451.141,98.804 C451.431,99.006 452.117,99.504 453.06,100.288 L424.383,128.961 C421.346,132.282 421.461,137.405 424.643,140.588 C427.825,143.77 432.948,143.884 436.27,140.848 L463.967,113.147 C467.137,118.474 469.198,124.386 470.025,130.529 C470.288,132.574 471.695,134.288 473.649,134.945 C474.207,135.133 474.793,135.23 475.382,135.231 C476.805,135.23 478.169,134.662 479.172,133.652 L506.492,106.329 C507.947,104.89 508.452,102.746 507.791,100.81 Z M481.386,79.577 C482.122,78.701 483.29,78.314 484.404,78.578 C485.518,78.842 486.388,79.712 486.652,80.826 C486.917,81.94 486.53,83.108 485.653,83.845 L481.43,88.068 C479.815,86.853 478.273,85.544 476.812,84.148 Z M432.46,137.038 C431.724,137.915 430.556,138.301 429.442,138.037 C428.328,137.773 427.458,136.903 427.194,135.789 C426.929,134.675 427.316,133.507 428.193,132.771 L456.994,103.97 C458.391,105.428 459.7,106.969 460.914,108.584 Z M475.365,129.819 C472.404,107.732 456.088,95.694 454.231,94.399 L467.241,81.385 C468.54,83.236 480.578,99.558 502.662,102.513 Z" />
        </g>
        <g id="Black-S">
            <path d="M707.791,100.81 C707.134,98.852 705.414,97.442 703.365,97.182 C697.222,96.356 691.309,94.296 685.983,91.124 L689.453,87.658 C692.49,84.336 692.375,79.213 689.193,76.031 C686.011,72.849 680.888,72.734 677.566,75.771 L673.124,80.217 C672.34,79.275 671.842,78.588 671.64,78.302 C670.728,76.999 669.286,76.165 667.701,76.026 C666.116,75.886 664.551,76.455 663.425,77.578 L650.421,90.592 C649.298,91.718 648.73,93.282 648.869,94.866 C649.008,96.45 649.84,97.891 651.141,98.804 C651.431,99.006 652.117,99.504 653.06,100.288 L624.383,128.961 C621.346,132.282 621.461,137.405 624.643,140.588 C627.825,143.77 632.948,143.884 636.27,140.848 L663.967,113.147 C667.137,118.474 669.198,124.386 670.025,130.529 C670.288,132.574 671.695,134.288 673.649,134.945 C674.208,135.133 674.793,135.23 675.382,135.231 C676.805,135.23 678.169,134.662 679.172,133.652 L706.492,106.329 C707.947,104.89 708.452,102.746 707.791,100.81 Z M681.386,79.577 C682.122,78.701 683.29,78.314 684.404,78.578 C685.518,78.842 686.388,79.712 686.653,80.826 C686.917,81.94 686.53,83.108 685.653,83.845 L681.43,88.068 C679.815,86.853 678.273,85.544 676.812,84.148 Z M632.46,137.038 C631.724,137.915 630.556,138.301 629.442,138.037 C628.328,137.773 627.458,136.903 627.194,135.789 C626.929,134.675 627.316,133.507 628.193,132.771 L656.994,103.97 C658.391,105.428 659.701,106.969 660.914,108.584 Z M675.365,129.819 C672.404,107.732 656.089,95.694 654.231,94.399 L667.241,81.385 C668.54,83.236 680.578,99.558 702.662,102.513 Z" />
        </g>
    </g>
</svg>