<?xml version="1.0" encoding="UTF-8"?>
<svg height="600" width="800" xmlns="http://www.w3.org/2000/svg" xmlns:xlink="http://www.w3.org/1999/xlink">
    <g id="Notes" font-family="'LucidaGrande', 'Lucida Grande', sans-serif" font-size="13">
        <rect fill="white" height="600.0" width="800.0" x="0.0" y="0.0" />
        <g font-size="13">
            <text x="18.0" y="176.0">Small</text>
            <text x="18.0" y="376.0">Medium</text>
            <text x="18.0" y="576.0">Large</text>
        </g>
        <g font-size="9">
            <text x="250.0" y="30.0">Ultralight</text>
            <text x="450.0" y="30.0">Regular</text>
            <text x="650.0" y="30.0">Black</text>
            <text id="template-version" fill="#505050" text-anchor="end" x="785.0" y="575.0">Template v.3.0</text>
            <a href="https://github.com/swhitty/SwiftDraw">
                <text fill="#505050" text-anchor="end" x="785.0" y="590.0">https://github.com/swhitty/SwiftDraw</text>
            </a>
        </g>
    </g>
    <g id="Guides" stroke="rgb(39, 170, 225)" stroke-width="0.5">
        <path id="Capline-S" d="M18,76 l800,0" />
        <path id="H-reference" d="M85,145.755 L87.685,145.755 L113.369,79.287 L114.052,79.287 L114.052,76 L112.148,76 L85,145.755 Z M95.693,121.536 L130.996,121.536 L130.263,119.313 L96.474,119.313 L95.693,121.536 Z M139.15,145.755 L141.787,145.755 L114.638,76 L113.466,76 L113.466,79.287 L139.15,145.755 Z" stroke="none" />
        <path id="Baseline-S" d="M18,146 l800,0" />
        <path id="left-margin-Ultralight-S" d="M220,56 l0,110" />
        <path id="right-margin-Ultralight-S" d="M310,56 l0,110" />
        <path id="left-margin-Regular-S" d="M420,56 l0,110" />
        <path id="right-margin-Regular-S" d="M510,56 l0,110" />
        <path id="left-margin-Black-S" d="M620,56 l0,110" />
        <path id="right-margin-Black-S" d="M710,56 l0,110" />
        <path id="Capline-M" d="M18,276 l800,0" />
        <path id="Baseline-M" d="M18,346 l800,0" />
        <path id="Capline-L" d="M18,476 l800,0" />
        <path id="Baseline-L" d="M18,546 l800,0" />
    </g>
    <g id="Symbols">
        <g id="Ultralight-S">
            <path d="M235.385,111 C235.385,110.286 235.668,109.601 236.173,109.096 C236.678,108.591 237.363,108.308 238.077,108.308 L262.308,108.308 C263.795,108.308 265,109.513 265,111 C265,112.487 263.795,113.692 262.308,113.692 L238.077,113.692 C237.363,113.692 236.678,113.409 236.173,112.904 C235.668,112.399 235.385,111.714 235.385,111 Z M238.077,92.154 L256.923,92.154 C258.41,92.154 259.615,90.948 259.615,89.462 C259.615,87.975 258.41,86.769 256.923,86.769 L238.077,86.769 C236.59,86.769 235.385,87.975 235.385,89.462 C235.385,90.948 236.59,92.154 238.077,92.154 Z M283.846,129.846 L238.077,129.846 C236.59,129.846 235.385,131.052 235.385,132.538 C235.385,134.025 236.59,135.231 238.077,135.231 L283.846,135.231 C285.333,135.231 286.538,134.025 286.538,132.538 C286.538,131.052 285.333,129.846 283.846,129.846 Z M299.212,95.634 L285.751,82.172 C285.246,81.667 284.561,81.382 283.846,81.382 C283.132,81.382 282.446,81.667 281.941,82.172 L268.48,95.634 C267.427,96.687 267.428,98.393 268.481,99.444 C269.533,100.496 271.239,100.495 272.29,99.442 L281.154,90.575 L281.154,116.385 C281.154,117.872 282.359,119.077 283.846,119.077 C285.333,119.077 286.538,117.872 286.538,116.385 L286.538,90.575 L295.403,99.443 C296.453,100.495 298.159,100.496 299.211,99.444 C300.264,98.393 300.265,96.687 299.214,95.635 Z" />
        </g>
        <g id="Regular-S">
            <path d="M435.385,111 C435.385,110.286 435.668,109.601 436.173,109.096 C436.678,108.591 437.363,108.308 438.077,108.308 L462.308,108.308 C463.795,108.308 465,109.513 465,111 C465,112.487 463.795,113.692 462.308,113.692 L438.077,113.692 C437.363,113.692 436.678,113.409 436.173,112.904 C435.668,112.399 435.385,111.714 435.385,111 Z M438.077,92.154 L456.923,92.154 C458.41,92.154 459.615,90.948 459.615,89.462 C459.615,87.975 458.41,86.769 456.923,86.769 L438.077,86.769 C436.59,86.769 435.385,87.975 435.385,89.462 C435.385,90.948 436.59,92.154 438.077,92.154 Z M483.846,129.846 L438.077,129.846 C436.59,129.846 435.385,131.052 435.385,132.538 C435.385,134.025 436.59,135.231 438.077,135.231 L483.846,135.231 C485.333,135.231 486.538,134.025 486.538,132.538 C486.538,131.052 485.333,129.846 483.846,129.846 Z M499.212,95.634 L485.751,82.172 C485.246,81.667 484.561,81.382 483.846,81.382 C483.132,81.382 482.446,81.667 481.941,82.172 L468.48,95.634 C467.427,96.687 467.428,98.393 468.481,99.444 C469.533,100.496 471.239,100.495 472.29,99.442 L481.154,90.575 L481.154,116.385 C481.154,117.872 482.359,119.077 483.846,119.077 C485.333,119.077 486.538,117.872 486.538,116.385 L486.538,90.575 L495.403,99.443 C496.453,100.495 498.159,100.496 499.211,99.444 C500.264,98.393 500.265,96.687 499.214,95.635 Z" />
        </g>
        <g id="Black-S">
            <path d="M635.385,111 C635.385,110.286 635.668,109.601 636.173,109.096 C636.678,108.591 637.363,108.308 638.077,108.308 L662.308,108.308 C663.795,108.308 665,109.513 665,111 C665,112.487 663.795,113.692 662.308,113.692 L638.077,113.692 C637.363,113.692 636.678,113.409 636.173,112.904 C635.668,112.399 635.385,111.714 635.385,111 Z M638.077,92.154 L656.923,92.154 C658.41,92.154 659.615,90.948 659.615,89.462 C659.615,87.975 658.41,86.769 656.923,86.769 L638.077,86.769 C636.59,86.769 635.385,87.975 635.385,89.462 C635.385,90.948 636.59,92.154 638.077,92.154 Z M683.846,129.846 L638.077,129.846 C636.59,129.846 635.385,131.052 635.385,132.538 C635.385,134.025 636.59,135.231 638.077,135.231 L683.846,135.231 C685.333,135.231 686.538,134.025 686.538,132.538 C686.538,131.052 685.333,129.846 683.846,129.846 Z M699.213,95.634 L685.751,82.172 C685.246,81.667 684.561,81.382 683.846,81.382 C683.132,81.382 682.446,81.667 681.941,82.172 L668.48,95.634 C667.427,96.687 667.428,98.393 668.481,99.444 C669.533,100.496 671.239,100.495 672.291,99.442 L681.154,90.575 L681.154,116.385 C681.154,117.872 682.359,119.077 683.846,119.077 C685.333,119.077 686.538,117.872 686.538,116.385 L686.538,90.575 L695.403,99.443 C696.453,100.495 698.159,100.496 699.211,99.444 C700.264,98.393 700.265,96.687 699.214,95.635 Z" />
        </g>
    </g>
</svg>