<?xml version="1.0" encoding="UTF-8"?>
<svg height="600" width="800" xmlns="http://www.w3.org/2000/svg" xmlns:xlink="http://www.w3.org/1999/xlink">
    <g id="Notes" font-family="'LucidaGrande', 'Lucida Grande', sans-serif" font-size="13">
        <rect fill="white" height="600.0" width="800.0" x="0.0" y="0.0" />
        <g font-size="13">
            <text x="18.0" y="176.0">Small</text>
            <text x="18.0" y="376.0">Medium</text>
            <text x="18.0" y="576.0">Large</text>
        </g>
        <g font-size="9">
            <text x="250.0" y="30.0">Ultralight</text>
            <text x="450.0" y="30.0">Regular</text>
            <text x="650.0" y="30.0">Black</text>
            <text id="template-version" fill="#505050" text-anchor="end" x="785.0" y="575.0">Template v.3.0</text>
            <a href="https://github.com/swhitty/SwiftDraw">
                <text fill="#505050" text-anchor="end" x="785.0" y="590.0">https://github.com/swhitty/SwiftDraw</text>
            </a>
        </g>
    </g>
    <g id="Guides" stroke="rgb(39, 170, 225)" stroke-width="0.5">
        <path id="Capline-S" d="M18,76 l800,0" />
        <path id="H-reference" d="M85,145.755 L87.685,145.755 L113.369,79.287 L114.052,79.287 L114.052,76 L112.148,76 L85,145.755 Z M95.693,121.536 L130.996,121.536 L130.263,119.313 L96.474,119.313 L95.693,121.536 Z M139.15,145.755 L141.787,145.755 L114.638,76 L113.466,76 L113.466,79.287 L139.15,145.755 Z" stroke="none" />
        <path id="Baseline-S" d="M18,146 l800,0" />
        <path id="left-margin-Ultralight-S" d="M220,56 l0,110" />
        <path id="right-margin-Ultralight-S" d="M310,56 l0,110" />
        <path id="left-margin-Regular-S" d="M420,56 l0,110" />
        <path id="right-margin-Regular-S" d="M510,56 l0,110" />
        <path id="left-margin-Black-S" d="M620,56 l0,110" />
        <path id="right-margin-Black-S" d="M710,56 l0,110" />
        <path id="Capline-M" d="M18,276 l800,0" />
        <path id="Baseline-M" d="M18,346 l800,0" />
        <path id="Capline-L" d="M18,476 l800,0" />
        <path id="Baseline-L" d="M18,546 l800,0" />
    </g>
    <g id="Symbols">
        <g id="Ultralight-S">
            <path d="M294.615,108.308 C293.688,108.308 292.825,108.786 292.334,109.573 C290.928,111.831 289.376,113.994 287.686,116.048 L281.935,85.783 C281.587,83.925 280.289,82.385 278.516,81.726 C276.744,81.068 274.756,81.388 273.279,82.569 L273.235,82.603 L265,89.462 L256.765,82.603 L256.721,82.569 C255.245,81.388 253.258,81.068 251.486,81.724 C249.714,82.381 248.415,83.919 248.065,85.776 L242.314,116.048 C240.624,113.993 239.071,111.829 237.666,109.57 C237.174,108.784 236.312,108.307 235.385,108.308 C227.95,108.308 221.923,114.335 221.923,121.769 C221.923,129.204 227.95,135.231 235.385,135.231 L294.615,135.231 C302.05,135.231 308.077,129.204 308.077,121.769 C308.077,114.335 302.05,108.308 294.615,108.308 Z M253.359,86.769 L261.594,93.635 L261.635,93.668 C263.598,95.253 266.402,95.253 268.365,93.668 L268.406,93.635 L276.641,86.769 L281.245,111 L248.755,111 Z M235.385,129.846 C231.195,129.846 227.701,126.642 227.338,122.469 C226.976,118.295 229.865,114.536 233.991,113.813 C239.181,121.712 244.717,126.7 249.654,129.846 Z M265,129.846 C264.889,129.846 256.422,129.712 246.874,120.894 L247.729,116.385 L282.268,116.385 L283.123,120.877 C280.386,123.451 277.285,125.605 273.918,127.272 C268.736,129.769 265.02,129.846 265,129.846 Z M294.615,129.846 L280.346,129.846 C285.283,126.7 290.819,121.712 296.009,113.813 C300.135,114.536 303.024,118.295 302.662,122.469 C302.299,126.642 298.805,129.846 294.615,129.846 Z" />
        </g>
        <g id="Regular-S">
            <path d="M494.615,108.308 C493.688,108.308 492.825,108.786 492.334,109.573 C490.928,111.831 489.376,113.994 487.686,116.048 L481.935,85.783 C481.587,83.925 480.289,82.385 478.516,81.726 C476.744,81.068 474.756,81.388 473.279,82.569 L473.235,82.603 L465,89.462 L456.765,82.603 L456.721,82.569 C455.245,81.388 453.258,81.068 451.486,81.724 C449.714,82.381 448.415,83.919 448.065,85.776 L442.314,116.048 C440.624,113.993 439.071,111.829 437.666,109.57 C437.174,108.784 436.312,108.307 435.385,108.308 C427.95,108.308 421.923,114.335 421.923,121.769 C421.923,129.204 427.95,135.231 435.385,135.231 L494.615,135.231 C502.05,135.231 508.077,129.204 508.077,121.769 C508.077,114.335 502.05,108.308 494.615,108.308 Z M453.359,86.769 L461.594,93.635 L461.635,93.668 C463.598,95.253 466.402,95.253 468.365,93.668 L468.406,93.635 L476.641,86.769 L481.245,111 L448.755,111 Z M435.385,129.846 C431.195,129.846 427.701,126.642 427.338,122.469 C426.976,118.295 429.865,114.536 433.991,113.813 C439.181,121.712 444.717,126.7 449.654,129.846 Z M465,129.846 C464.889,129.846 456.422,129.712 446.874,120.894 L447.729,116.385 L482.268,116.385 L483.123,120.877 C480.386,123.451 477.285,125.605 473.918,127.272 C468.736,129.769 465.02,129.846 465,129.846 Z M494.615,129.846 L480.346,129.846 C485.283,126.7 490.819,121.712 496.009,113.813 C500.135,114.536 503.024,118.295 502.662,122.469 C502.299,126.642 498.805,129.846 494.615,129.846 Z" />
        </g>
        <g id="Black-S">
            <path d="M694.615,108.308 C693.688,108.308 692.825,108.786 692.334,109.573 C690.928,111.831 689.376,113.994 687.686,116.048 L681.935,85.783 C681.587,83.925 680.289,82.385 678.516,81.726 C676.744,81.068 674.756,81.388 673.279,82.569 L673.235,82.603 L665,89.462 L656.765,82.603 L656.721,82.569 C655.245,81.388 653.258,81.068 651.486,81.724 C649.714,82.381 648.415,83.919 648.065,85.776 L642.314,116.048 C640.624,113.993 639.071,111.829 637.666,109.57 C637.174,108.784 636.312,108.307 635.385,108.308 C627.95,108.308 621.923,114.335 621.923,121.769 C621.923,129.204 627.95,135.231 635.385,135.231 L694.615,135.231 C702.05,135.231 708.077,129.204 708.077,121.769 C708.077,114.335 702.05,108.308 694.615,108.308 Z M653.359,86.769 L661.594,93.635 L661.635,93.668 C663.598,95.253 666.402,95.253 668.365,93.668 L668.406,93.635 L676.641,86.769 L681.245,111 L648.755,111 Z M635.385,129.846 C631.195,129.846 627.701,126.642 627.339,122.469 C626.976,118.295 629.865,114.536 633.991,113.813 C639.181,121.712 644.717,126.7 649.654,129.846 Z M665,129.846 C664.889,129.846 656.422,129.712 646.874,120.894 L647.729,116.385 L682.268,116.385 L683.123,120.877 C680.386,123.451 677.285,125.605 673.918,127.272 C668.736,129.769 665.02,129.846 665,129.846 Z M694.615,129.846 L680.346,129.846 C685.283,126.7 690.819,121.712 696.009,113.813 C700.135,114.536 703.024,118.295 702.662,122.469 C702.299,126.642 698.805,129.846 694.615,129.846 Z" />
        </g>
    </g>
</svg>