<?xml version="1.0" encoding="UTF-8"?>
<svg height="600" width="800" xmlns="http://www.w3.org/2000/svg" xmlns:xlink="http://www.w3.org/1999/xlink">
    <g id="Notes" font-family="'LucidaGrande', 'Lucida Grande', sans-serif" font-size="13">
        <rect fill="white" height="600.0" width="800.0" x="0.0" y="0.0" />
        <g font-size="13">
            <text x="18.0" y="176.0">Small</text>
            <text x="18.0" y="376.0">Medium</text>
            <text x="18.0" y="576.0">Large</text>
        </g>
        <g font-size="9">
            <text x="250.0" y="30.0">Ultralight</text>
            <text x="450.0" y="30.0">Regular</text>
            <text x="650.0" y="30.0">Black</text>
            <text id="template-version" fill="#505050" text-anchor="end" x="785.0" y="575.0">Template v.3.0</text>
            <a href="https://github.com/swhitty/SwiftDraw">
                <text fill="#505050" text-anchor="end" x="785.0" y="590.0">https://github.com/swhitty/SwiftDraw</text>
            </a>
        </g>
    </g>
    <g id="Guides" stroke="rgb(39, 170, 225)" stroke-width="0.5">
        <path id="Capline-S" d="M18,76 l800,0" />
        <path id="H-reference" d="M85,145.755 L87.685,145.755 L113.369,79.287 L114.052,79.287 L114.052,76 L112.148,76 L85,145.755 Z M95.693,121.536 L130.996,121.536 L130.263,119.313 L96.474,119.313 L95.693,121.536 Z M139.15,145.755 L141.787,145.755 L114.638,76 L113.466,76 L113.466,79.287 L139.15,145.755 Z" stroke="none" />
        <path id="Baseline-S" d="M18,146 l800,0" />
        <path id="left-margin-Ultralight-S" d="M220,56 l0,110" />
        <path id="right-margin-Ultralight-S" d="M310,56 l0,110" />
        <path id="left-margin-Regular-S" d="M420,56 l0,110" />
        <path id="right-margin-Regular-S" d="M510,56 l0,110" />
        <path id="left-margin-Black-S" d="M620,56 l0,110" />
        <path id="right-margin-Black-S" d="M710,56 l0,110" />
        <path id="Capline-M" d="M18,276 l800,0" />
        <path id="Baseline-M" d="M18,346 l800,0" />
        <path id="Capline-L" d="M18,476 l800,0" />
        <path id="Baseline-L" d="M18,546 l800,0" />
    </g>
    <g id="Symbols">
        <g id="Ultralight-S">
            <path d="M235.385,86.769 L235.385,135.231 C235.385,136.718 234.179,137.923 232.692,137.923 C231.205,137.923 230,136.718 230,135.231 L230,86.769 C230,85.282 231.205,84.077 232.692,84.077 C234.179,84.077 235.385,85.282 235.385,86.769 Z M302.692,100.231 L302.692,121.769 C302.692,123.197 302.125,124.567 301.115,125.577 C300.105,126.587 298.736,127.154 297.308,127.154 L246.154,127.154 C244.726,127.154 243.356,126.587 242.346,125.577 C241.337,124.567 240.769,123.197 240.769,121.769 L240.769,100.231 C240.769,98.803 241.337,97.433 242.346,96.423 C243.356,95.413 244.726,94.846 246.154,94.846 L297.308,94.846 C298.736,94.846 300.105,95.413 301.115,96.423 C302.125,97.433 302.692,98.803 302.692,100.231 Z M297.308,121.769 L297.308,100.231 L246.154,100.231 L246.154,121.769 L297.308,121.769 Z" />
        </g>
        <g id="Regular-S">
            <path d="M435.385,86.769 L435.385,135.231 C435.385,136.718 434.179,137.923 432.692,137.923 C431.205,137.923 430,136.718 430,135.231 L430,86.769 C430,85.282 431.205,84.077 432.692,84.077 C434.179,84.077 435.385,85.282 435.385,86.769 Z M502.692,100.231 L502.692,121.769 C502.692,123.197 502.125,124.567 501.115,125.577 C500.105,126.587 498.736,127.154 497.308,127.154 L446.154,127.154 C444.726,127.154 443.356,126.587 442.346,125.577 C441.337,124.567 440.769,123.197 440.769,121.769 L440.769,100.231 C440.769,98.803 441.337,97.433 442.346,96.423 C443.356,95.413 444.726,94.846 446.154,94.846 L497.308,94.846 C498.736,94.846 500.105,95.413 501.115,96.423 C502.125,97.433 502.692,98.803 502.692,100.231 Z M497.308,121.769 L497.308,100.231 L446.154,100.231 L446.154,121.769 L497.308,121.769 Z" />
        </g>
        <g id="Black-S">
            <path d="M635.385,86.769 L635.385,135.231 C635.385,136.718 634.179,137.923 632.692,137.923 C631.205,137.923 630,136.718 630,135.231 L630,86.769 C630,85.282 631.205,84.077 632.692,84.077 C634.179,84.077 635.385,85.282 635.385,86.769 Z M702.692,100.231 L702.692,121.769 C702.692,123.197 702.125,124.567 701.115,125.577 C700.105,126.587 698.736,127.154 697.308,127.154 L646.154,127.154 C644.726,127.154 643.356,126.587 642.346,125.577 C641.337,124.567 640.769,123.197 640.769,121.769 L640.769,100.231 C640.769,98.803 641.337,97.433 642.346,96.423 C643.356,95.413 644.726,94.846 646.154,94.846 L697.308,94.846 C698.736,94.846 700.105,95.413 701.115,96.423 C702.125,97.433 702.692,98.803 702.692,100.231 Z M697.308,121.769 L697.308,100.231 L646.154,100.231 L646.154,121.769 L697.308,121.769 Z" />
        </g>
    </g>
</svg>