<?xml version="1.0" encoding="UTF-8"?>
<svg height="600" width="800" xmlns="http://www.w3.org/2000/svg" xmlns:xlink="http://www.w3.org/1999/xlink">
    <g id="Notes" font-family="'LucidaGrande', 'Lucida Grande', sans-serif" font-size="13">
        <rect fill="white" height="600.0" width="800.0" x="0.0" y="0.0" />
        <g font-size="13">
            <text x="18.0" y="176.0">Small</text>
            <text x="18.0" y="376.0">Medium</text>
            <text x="18.0" y="576.0">Large</text>
        </g>
        <g font-size="9">
            <text x="250.0" y="30.0">Ultralight</text>
            <text x="450.0" y="30.0">Regular</text>
            <text x="650.0" y="30.0">Black</text>
            <text id="template-version" fill="#505050" text-anchor="end" x="785.0" y="575.0">Template v.3.0</text>
            <a href="https://github.com/swhitty/SwiftDraw">
                <text fill="#505050" text-anchor="end" x="785.0" y="590.0">https://github.com/swhitty/SwiftDraw</text>
            </a>
        </g>
    </g>
    <g id="Guides" stroke="rgb(39, 170, 225)" stroke-width="0.5">
        <path id="Capline-S" d="M18,76 l800,0" />
        <path id="H-reference" d="M85,145.755 L87.685,145.755 L113.369,79.287 L114.052,79.287 L114.052,76 L112.148,76 L85,145.755 Z M95.693,121.536 L130.996,121.536 L130.263,119.313 L96.474,119.313 L95.693,121.536 Z M139.15,145.755 L141.787,145.755 L114.638,76 L113.466,76 L113.466,79.287 L139.15,145.755 Z" stroke="none" />
        <path id="Baseline-S" d="M18,146 l800,0" />
        <path id="left-margin-Ultralight-S" d="M220,56 l0,110" />
        <path id="right-margin-Ultralight-S" d="M310,56 l0,110" />
        <path id="left-margin-Regular-S" d="M420,56 l0,110" />
        <path id="right-margin-Regular-S" d="M510,56 l0,110" />
        <path id="left-margin-Black-S" d="M620,56 l0,110" />
        <path id="right-margin-Black-S" d="M710,56 l0,110" />
        <path id="Capline-M" d="M18,276 l800,0" />
        <path id="Baseline-M" d="M18,346 l800,0" />
        <path id="Capline-L" d="M18,476 l800,0" />
        <path id="Baseline-L" d="M18,546 l800,0" />
    </g>
    <g id="Symbols">
        <g id="Ultralight-S">
            <path d="M286.538,113.692 C286.538,114.406 286.255,115.091 285.75,115.596 C285.245,116.101 284.56,116.385 283.846,116.385 L281.154,116.385 L281.154,119.077 C281.154,120.564 279.948,121.769 278.462,121.769 C276.975,121.769 275.769,120.564 275.769,119.077 L275.769,116.385 L273.077,116.385 C271.59,116.385 270.385,115.179 270.385,113.692 C270.385,112.205 271.59,111 273.077,111 L275.769,111 L275.769,108.308 C275.769,106.821 276.975,105.615 278.462,105.615 C279.948,105.615 281.154,106.821 281.154,108.308 L281.154,111 L283.846,111 C284.56,111 285.245,111.284 285.75,111.789 C286.255,112.293 286.538,112.978 286.538,113.692 Z M256.923,111 L246.154,111 C244.667,111 243.462,112.205 243.462,113.692 C243.462,115.179 244.667,116.385 246.154,116.385 L256.923,116.385 C258.41,116.385 259.615,115.179 259.615,113.692 C259.615,112.205 258.41,111 256.923,111 Z M302.692,97.538 L302.692,129.846 C302.692,131.274 302.125,132.644 301.115,133.654 C300.105,134.663 298.736,135.231 297.308,135.231 L232.692,135.231 C231.264,135.231 229.895,134.663 228.885,133.654 C227.875,132.644 227.308,131.274 227.308,129.846 L227.308,97.538 C227.308,96.11 227.875,94.741 228.885,93.731 C229.895,92.721 231.264,92.154 232.692,92.154 L238.077,92.154 L238.077,86.769 C238.077,85.341 238.644,83.972 239.654,82.962 C240.664,81.952 242.033,81.385 243.462,81.385 L254.231,81.385 C255.659,81.385 257.028,81.952 258.038,82.962 C259.048,83.972 259.615,85.341 259.615,86.769 L259.615,92.154 L270.385,92.154 L270.385,86.769 C270.385,85.341 270.952,83.972 271.962,82.962 C272.972,81.952 274.341,81.385 275.769,81.385 L286.538,81.385 C287.967,81.385 289.336,81.952 290.346,82.962 C291.356,83.972 291.923,85.341 291.923,86.769 L291.923,92.154 L297.308,92.154 C298.736,92.154 300.105,92.721 301.115,93.731 C302.125,94.741 302.692,96.11 302.692,97.538 Z M275.769,92.154 L286.538,92.154 L286.538,86.769 L275.769,86.769 Z M243.462,92.154 L254.231,92.154 L254.231,86.769 L243.462,86.769 Z M297.308,129.846 L297.308,97.538 L232.692,97.538 L232.692,129.846 L297.308,129.846 Z" />
        </g>
        <g id="Regular-S">
            <path d="M486.538,113.692 C486.538,114.406 486.255,115.091 485.75,115.596 C485.245,116.101 484.56,116.385 483.846,116.385 L481.154,116.385 L481.154,119.077 C481.154,120.564 479.948,121.769 478.462,121.769 C476.975,121.769 475.769,120.564 475.769,119.077 L475.769,116.385 L473.077,116.385 C471.59,116.385 470.385,115.179 470.385,113.692 C470.385,112.205 471.59,111 473.077,111 L475.769,111 L475.769,108.308 C475.769,106.821 476.975,105.615 478.462,105.615 C479.948,105.615 481.154,106.821 481.154,108.308 L481.154,111 L483.846,111 C484.56,111 485.245,111.284 485.75,111.789 C486.255,112.293 486.538,112.978 486.538,113.692 Z M456.923,111 L446.154,111 C444.667,111 443.462,112.205 443.462,113.692 C443.462,115.179 444.667,116.385 446.154,116.385 L456.923,116.385 C458.41,116.385 459.615,115.179 459.615,113.692 C459.615,112.205 458.41,111 456.923,111 Z M502.692,97.538 L502.692,129.846 C502.692,131.274 502.125,132.644 501.115,133.654 C500.105,134.663 498.736,135.231 497.308,135.231 L432.692,135.231 C431.264,135.231 429.895,134.663 428.885,133.654 C427.875,132.644 427.308,131.274 427.308,129.846 L427.308,97.538 C427.308,96.11 427.875,94.741 428.885,93.731 C429.895,92.721 431.264,92.154 432.692,92.154 L438.077,92.154 L438.077,86.769 C438.077,85.341 438.644,83.972 439.654,82.962 C440.664,81.952 442.033,81.385 443.462,81.385 L454.231,81.385 C455.659,81.385 457.028,81.952 458.038,82.962 C459.048,83.972 459.615,85.341 459.615,86.769 L459.615,92.154 L470.385,92.154 L470.385,86.769 C470.385,85.341 470.952,83.972 471.962,82.962 C472.972,81.952 474.341,81.385 475.769,81.385 L486.538,81.385 C487.967,81.385 489.336,81.952 490.346,82.962 C491.356,83.972 491.923,85.341 491.923,86.769 L491.923,92.154 L497.308,92.154 C498.736,92.154 500.105,92.721 501.115,93.731 C502.125,94.741 502.692,96.11 502.692,97.538 Z M475.769,92.154 L486.538,92.154 L486.538,86.769 L475.769,86.769 Z M443.462,92.154 L454.231,92.154 L454.231,86.769 L443.462,86.769 Z M497.308,129.846 L497.308,97.538 L432.692,97.538 L432.692,129.846 L497.308,129.846 Z" />
        </g>
        <g id="Black-S">
            <path d="M686.538,113.692 C686.538,114.406 686.255,115.091 685.75,115.596 C685.245,116.101 684.56,116.385 683.846,116.385 L681.154,116.385 L681.154,119.077 C681.154,120.564 679.948,121.769 678.462,121.769 C676.975,121.769 675.769,120.564 675.769,119.077 L675.769,116.385 L673.077,116.385 C671.59,116.385 670.385,115.179 670.385,113.692 C670.385,112.205 671.59,111 673.077,111 L675.769,111 L675.769,108.308 C675.769,106.821 676.975,105.615 678.462,105.615 C679.948,105.615 681.154,106.821 681.154,108.308 L681.154,111 L683.846,111 C684.56,111 685.245,111.284 685.75,111.789 C686.255,112.293 686.538,112.978 686.538,113.692 Z M656.923,111 L646.154,111 C644.667,111 643.462,112.205 643.462,113.692 C643.462,115.179 644.667,116.385 646.154,116.385 L656.923,116.385 C658.41,116.385 659.615,115.179 659.615,113.692 C659.615,112.205 658.41,111 656.923,111 Z M702.692,97.538 L702.692,129.846 C702.692,131.274 702.125,132.644 701.115,133.654 C700.105,134.663 698.736,135.231 697.308,135.231 L632.692,135.231 C631.264,135.231 629.895,134.663 628.885,133.654 C627.875,132.644 627.308,131.274 627.308,129.846 L627.308,97.538 C627.308,96.11 627.875,94.741 628.885,93.731 C629.895,92.721 631.264,92.154 632.692,92.154 L638.077,92.154 L638.077,86.769 C638.077,85.341 638.644,83.972 639.654,82.962 C640.664,81.952 642.033,81.385 643.462,81.385 L654.231,81.385 C655.659,81.385 657.028,81.952 658.038,82.962 C659.048,83.972 659.615,85.341 659.615,86.769 L659.615,92.154 L670.385,92.154 L670.385,86.769 C670.385,85.341 670.952,83.972 671.962,82.962 C672.972,81.952 674.341,81.385 675.769,81.385 L686.538,81.385 C687.967,81.385 689.336,81.952 690.346,82.962 C691.356,83.972 691.923,85.341 691.923,86.769 L691.923,92.154 L697.308,92.154 C698.736,92.154 700.105,92.721 701.115,93.731 C702.125,94.741 702.692,96.11 702.692,97.538 Z M675.769,92.154 L686.538,92.154 L686.538,86.769 L675.769,86.769 Z M643.462,92.154 L654.231,92.154 L654.231,86.769 L643.462,86.769 Z M697.308,129.846 L697.308,97.538 L632.692,97.538 L632.692,129.846 L697.308,129.846 Z" />
        </g>
    </g>
</svg>