<?xml version="1.0" encoding="UTF-8"?>
<svg height="600" width="800" xmlns="http://www.w3.org/2000/svg" xmlns:xlink="http://www.w3.org/1999/xlink">
    <g id="Notes" font-family="'LucidaGrande', 'Lucida Grande', sans-serif" font-size="13">
        <rect fill="white" height="600.0" width="800.0" x="0.0" y="0.0" />
        <g font-size="13">
            <text x="18.0" y="176.0">Small</text>
            <text x="18.0" y="376.0">Medium</text>
            <text x="18.0" y="576.0">Large</text>
        </g>
        <g font-size="9">
            <text x="250.0" y="30.0">Ultralight</text>
            <text x="450.0" y="30.0">Regular</text>
            <text x="650.0" y="30.0">Black</text>
            <text id="template-version" fill="#505050" text-anchor="end" x="785.0" y="575.0">Template v.3.0</text>
            <a href="https://github.com/swhitty/SwiftDraw">
                <text fill="#505050" text-anchor="end" x="785.0" y="590.0">https://github.com/swhitty/SwiftDraw</text>
            </a>
        </g>
    </g>
    <g id="Guides" stroke="rgb(39, 170, 225)" stroke-width="0.5">
        <path id="Capline-S" d="M18,76 l800,0" />
        <path id="H-reference" d="M85,145.755 L87.685,145.755 L113.369,79.287 L114.052,79.287 L114.052,76 L112.148,76 L85,145.755 Z M95.693,121.536 L130.996,121.536 L130.263,119.313 L96.474,119.313 L95.693,121.536 Z M139.15,145.755 L141.787,145.755 L114.638,76 L113.466,76 L113.466,79.287 L139.15,145.755 Z" stroke="none" />
        <path id="Baseline-S" d="M18,146 l800,0" />
        <path id="left-margin-Ultralight-S" d="M220,56 l0,110" />
        <path id="right-margin-Ultralight-S" d="M310,56 l0,110" />
        <path id="left-margin-Regular-S" d="M420,56 l0,110" />
        <path id="right-margin-Regular-S" d="M510,56 l0,110" />
        <path id="left-margin-Black-S" d="M620,56 l0,110" />
        <path id="right-margin-Black-S" d="M710,56 l0,110" />
        <path id="Capline-M" d="M18,276 l800,0" />
        <path id="Baseline-M" d="M18,346 l800,0" />
        <path id="Capline-L" d="M18,476 l800,0" />
        <path id="Baseline-L" d="M18,546 l800,0" />
    </g>
    <g id="Symbols">
        <g id="Ultralight-S">
            <path d="M294.615,115.038 L294.615,127.154 C294.615,135.766 291.758,141.575 291.637,141.82 C291.181,142.731 290.25,143.307 289.231,143.308 C288.813,143.308 288.402,143.21 288.029,143.022 C286.7,142.357 286.16,140.74 286.825,139.411 C286.845,139.37 289.234,134.426 289.234,127.154 L289.234,115.038 C289.234,112.808 287.426,111 285.196,111 C282.965,111 281.157,112.808 281.157,115.038 L281.157,116.385 C281.157,117.872 279.952,119.077 278.465,119.077 C276.978,119.077 275.773,117.872 275.773,116.385 L275.773,109.654 C275.773,107.423 273.965,105.615 271.734,105.615 C269.504,105.615 267.696,107.423 267.696,109.654 L267.696,113.692 C267.696,115.179 266.49,116.385 265.003,116.385 C263.516,116.385 262.311,115.179 262.311,113.692 L262.311,90.808 C262.311,88.577 260.503,86.769 258.273,86.769 C256.042,86.769 254.234,88.577 254.234,90.808 L254.234,127.154 C254.234,128.355 253.438,129.412 252.282,129.742 C251.127,130.073 249.892,129.597 249.257,128.577 L242.97,118.481 L242.923,118.404 C241.812,116.473 239.341,115.808 237.407,116.921 C235.473,118.034 234.808,120.505 235.921,122.439 L245.78,139.269 C246.346,140.103 246.398,141.183 245.917,142.068 C245.435,142.952 244.5,143.494 243.492,143.472 C242.485,143.45 241.575,142.867 241.133,141.962 L231.265,125.135 C228.647,120.633 230.174,114.864 234.674,112.247 C239.173,109.631 244.942,111.157 247.559,115.657 L248.846,117.731 L248.846,90.808 C248.846,85.603 253.065,81.385 258.269,81.385 C263.473,81.385 267.692,85.603 267.692,90.808 L267.692,101.139 C270.144,99.976 272.977,99.926 275.468,101.001 C277.959,102.077 279.866,104.174 280.7,106.756 C283.619,105.173 287.157,105.243 290.012,106.942 C292.866,108.641 294.615,111.717 294.615,115.038 Z M307.289,84.864 L296.52,74.095 C295.469,73.044 293.764,73.045 292.712,74.097 C291.661,75.149 291.662,76.853 292.714,77.905 L298.883,84.077 L281.154,84.077 C279.667,84.077 278.462,85.282 278.462,86.769 C278.462,88.256 279.667,89.462 281.154,89.462 L298.886,89.462 L292.711,95.634 C291.658,96.685 291.658,98.39 292.709,99.442 C293.76,100.494 295.465,100.494 296.517,99.443 L307.286,88.674 C307.792,88.169 308.077,87.484 308.077,86.77 C308.078,86.055 307.794,85.37 307.289,84.864 Z" />
        </g>
        <g id="Regular-S">
            <path d="M494.615,115.038 L494.615,127.154 C494.615,135.766 491.758,141.575 491.637,141.82 C491.181,142.731 490.25,143.307 489.231,143.308 C488.813,143.308 488.402,143.21 488.029,143.022 C486.7,142.357 486.16,140.74 486.824,139.411 C486.845,139.37 489.234,134.426 489.234,127.154 L489.234,115.038 C489.234,112.808 487.426,111 485.196,111 C482.965,111 481.157,112.808 481.157,115.038 L481.157,116.385 C481.157,117.872 479.952,119.077 478.465,119.077 C476.978,119.077 475.773,117.872 475.773,116.385 L475.773,109.654 C475.773,107.423 473.965,105.615 471.734,105.615 C469.504,105.615 467.696,107.423 467.696,109.654 L467.696,113.692 C467.696,115.179 466.49,116.385 465.003,116.385 C463.516,116.385 462.311,115.179 462.311,113.692 L462.311,90.808 C462.311,88.577 460.503,86.769 458.273,86.769 C456.042,86.769 454.234,88.577 454.234,90.808 L454.234,127.154 C454.234,128.355 453.438,129.412 452.282,129.742 C451.127,130.073 449.892,129.597 449.257,128.577 L442.97,118.481 L442.923,118.404 C441.812,116.473 439.341,115.808 437.407,116.921 C435.473,118.034 434.808,120.505 435.921,122.439 L445.78,139.269 C446.346,140.103 446.398,141.183 445.917,142.068 C445.435,142.952 444.5,143.494 443.492,143.472 C442.485,143.45 441.575,142.867 441.133,141.962 L431.265,125.135 C428.647,120.633 430.174,114.864 434.674,112.247 C439.173,109.631 444.942,111.157 447.559,115.657 L448.846,117.731 L448.846,90.808 C448.846,85.603 453.065,81.385 458.269,81.385 C463.473,81.385 467.692,85.603 467.692,90.808 L467.692,101.139 C470.144,99.976 472.977,99.926 475.468,101.001 C477.959,102.077 479.866,104.174 480.699,106.756 C483.619,105.173 487.157,105.243 490.012,106.942 C492.866,108.641 494.615,111.717 494.615,115.038 Z M507.289,84.864 L496.52,74.095 C495.469,73.044 493.764,73.045 492.712,74.097 C491.661,75.149 491.662,76.853 492.714,77.905 L498.883,84.077 L481.154,84.077 C479.667,84.077 478.462,85.282 478.462,86.769 C478.462,88.256 479.667,89.462 481.154,89.462 L498.886,89.462 L492.711,95.634 C491.658,96.685 491.658,98.39 492.709,99.442 C493.76,100.494 495.465,100.494 496.517,99.443 L507.286,88.674 C507.792,88.169 508.077,87.484 508.077,86.77 C508.078,86.055 507.794,85.37 507.289,84.864 Z" />
        </g>
        <g id="Black-S">
            <path d="M694.615,115.038 L694.615,127.154 C694.615,135.766 691.758,141.575 691.637,141.82 C691.181,142.731 690.25,143.307 689.231,143.308 C688.813,143.308 688.402,143.21 688.029,143.022 C686.7,142.357 686.16,140.74 686.825,139.411 C686.845,139.37 689.234,134.426 689.234,127.154 L689.234,115.038 C689.234,112.808 687.426,111 685.196,111 C682.965,111 681.157,112.808 681.157,115.038 L681.157,116.385 C681.157,117.872 679.952,119.077 678.465,119.077 C676.978,119.077 675.773,117.872 675.773,116.385 L675.773,109.654 C675.773,107.423 673.965,105.615 671.734,105.615 C669.504,105.615 667.696,107.423 667.696,109.654 L667.696,113.692 C667.696,115.179 666.49,116.385 665.003,116.385 C663.516,116.385 662.311,115.179 662.311,113.692 L662.311,90.808 C662.311,88.577 660.503,86.769 658.273,86.769 C656.042,86.769 654.234,88.577 654.234,90.808 L654.234,127.154 C654.234,128.355 653.438,129.412 652.282,129.742 C651.127,130.073 649.892,129.597 649.257,128.577 L642.97,118.481 L642.923,118.404 C641.812,116.473 639.341,115.808 637.407,116.921 C635.473,118.034 634.808,120.505 635.921,122.439 L645.78,139.269 C646.346,140.103 646.398,141.183 645.917,142.068 C645.435,142.952 644.5,143.494 643.492,143.472 C642.485,143.45 641.575,142.867 641.133,141.962 L631.265,125.135 C628.647,120.633 630.174,114.864 634.674,112.247 C639.173,109.631 644.942,111.157 647.559,115.657 L648.846,117.731 L648.846,90.808 C648.846,85.603 653.065,81.385 658.269,81.385 C663.473,81.385 667.692,85.603 667.692,90.808 L667.692,101.139 C670.144,99.976 672.977,99.926 675.468,101.001 C677.959,102.077 679.866,104.174 680.7,106.756 C683.619,105.173 687.157,105.243 690.012,106.942 C692.866,108.641 694.615,111.717 694.615,115.038 Z M707.289,84.864 L696.52,74.095 C695.469,73.044 693.764,73.045 692.713,74.097 C691.661,75.149 691.662,76.853 692.714,77.905 L698.883,84.077 L681.154,84.077 C679.667,84.077 678.462,85.282 678.462,86.769 C678.462,88.256 679.667,89.462 681.154,89.462 L698.886,89.462 L692.711,95.634 C691.659,96.685 691.658,98.39 692.709,99.442 C693.76,100.494 695.465,100.494 696.517,99.443 L707.286,88.674 C707.792,88.169 708.077,87.484 708.077,86.77 C708.078,86.055 707.794,85.37 707.289,84.864 Z" />
        </g>
    </g>
</svg>