<?xml version="1.0" encoding="UTF-8"?>
<svg height="600" width="800" xmlns="http://www.w3.org/2000/svg" xmlns:xlink="http://www.w3.org/1999/xlink">
    <g id="Notes" font-family="'LucidaGrande', 'Lucida Grande', sans-serif" font-size="13">
        <rect fill="white" height="600.0" width="800.0" x="0.0" y="0.0" />
        <g font-size="13">
            <text x="18.0" y="176.0">Small</text>
            <text x="18.0" y="376.0">Medium</text>
            <text x="18.0" y="576.0">Large</text>
        </g>
        <g font-size="9">
            <text x="250.0" y="30.0">Ultralight</text>
            <text x="450.0" y="30.0">Regular</text>
            <text x="650.0" y="30.0">Black</text>
            <text id="template-version" fill="#505050" text-anchor="end" x="785.0" y="575.0">Template v.3.0</text>
            <a href="https://github.com/swhitty/SwiftDraw">
                <text fill="#505050" text-anchor="end" x="785.0" y="590.0">https://github.com/swhitty/SwiftDraw</text>
            </a>
        </g>
    </g>
    <g id="Guides" stroke="rgb(39, 170, 225)" stroke-width="0.5">
        <path id="Capline-S" d="M18,76 l800,0" />
        <path id="H-reference" d="M85,145.755 L87.685,145.755 L113.369,79.287 L114.052,79.287 L114.052,76 L112.148,76 L85,145.755 Z M95.693,121.536 L130.996,121.536 L130.263,119.313 L96.474,119.313 L95.693,121.536 Z M139.15,145.755 L141.787,145.755 L114.638,76 L113.466,76 L113.466,79.287 L139.15,145.755 Z" stroke="none" />
        <path id="Baseline-S" d="M18,146 l800,0" />
        <path id="left-margin-Ultralight-S" d="M220,56 l0,110" />
        <path id="right-margin-Ultralight-S" d="M310,56 l0,110" />
        <path id="left-margin-Regular-S" d="M420,56 l0,110" />
        <path id="right-margin-Regular-S" d="M510,56 l0,110" />
        <path id="left-margin-Black-S" d="M620,56 l0,110" />
        <path id="right-margin-Black-S" d="M710,56 l0,110" />
        <path id="Capline-M" d="M18,276 l800,0" />
        <path id="Baseline-M" d="M18,346 l800,0" />
        <path id="Capline-L" d="M18,476 l800,0" />
        <path id="Baseline-L" d="M18,546 l800,0" />
    </g>
    <g id="Symbols">
        <g id="Ultralight-S">
            <path d="M265,70.615 C251.624,70.63 240.784,81.47 240.769,94.846 L240.769,127.154 C240.769,128.582 241.337,129.952 242.346,130.961 C243.356,131.971 244.726,132.538 246.154,132.538 L256.923,132.538 L256.923,146 C256.926,150.46 260.541,154.073 265,154.073 C269.459,154.073 273.074,150.459 273.077,146 L273.077,132.538 L283.846,132.538 C285.274,132.538 286.644,131.971 287.654,130.961 C288.663,129.952 289.231,128.582 289.231,127.154 L289.231,94.846 C289.215,81.469 278.375,70.63 264.999,70.615 Z M267.692,146 C267.692,147.487 266.487,148.692 265,148.692 C263.513,148.692 262.308,147.487 262.308,146 L262.308,132.538 L267.692,132.538 Z M283.846,127.154 L246.154,127.154 L246.154,94.846 C246.154,84.438 254.592,76 265,76 C275.408,76 283.846,84.438 283.846,94.846 L283.846,127.154 Z M262.308,92.154 L262.308,119.077 C262.308,120.564 261.102,121.769 259.615,121.769 C258.128,121.769 256.923,120.564 256.923,119.077 L256.923,92.154 C256.923,90.667 258.128,89.462 259.615,89.462 C261.102,89.462 262.308,90.667 262.308,92.154 Z M273.077,92.154 L273.077,119.077 C273.077,120.564 271.872,121.769 270.385,121.769 C268.898,121.769 267.692,120.564 267.692,119.077 L267.692,92.154 C267.692,90.667 268.898,89.462 270.385,89.462 C271.872,89.462 273.077,90.667 273.077,92.154 Z" />
        </g>
        <g id="Regular-S">
            <path d="M465,70.615 C451.624,70.63 440.784,81.47 440.769,94.846 L440.769,127.154 C440.769,128.582 441.337,129.952 442.346,130.961 C443.356,131.971 444.726,132.538 446.154,132.538 L456.923,132.538 L456.923,146 C456.926,150.46 460.541,154.073 465,154.073 C469.459,154.073 473.074,150.459 473.077,146 L473.077,132.538 L483.846,132.538 C485.274,132.538 486.644,131.971 487.654,130.961 C488.663,129.952 489.231,128.582 489.231,127.154 L489.231,94.846 C489.215,81.469 478.375,70.63 464.999,70.615 Z M467.692,146 C467.692,147.487 466.487,148.692 465,148.692 C463.513,148.692 462.308,147.487 462.308,146 L462.308,132.538 L467.692,132.538 Z M483.846,127.154 L446.154,127.154 L446.154,94.846 C446.154,84.438 454.592,76 465,76 C475.408,76 483.846,84.438 483.846,94.846 L483.846,127.154 Z M462.308,92.154 L462.308,119.077 C462.308,120.564 461.102,121.769 459.615,121.769 C458.128,121.769 456.923,120.564 456.923,119.077 L456.923,92.154 C456.923,90.667 458.128,89.462 459.615,89.462 C461.102,89.462 462.308,90.667 462.308,92.154 Z M473.077,92.154 L473.077,119.077 C473.077,120.564 471.872,121.769 470.385,121.769 C468.898,121.769 467.692,120.564 467.692,119.077 L467.692,92.154 C467.692,90.667 468.898,89.462 470.385,89.462 C471.872,89.462 473.077,90.667 473.077,92.154 Z" />
        </g>
        <g id="Black-S">
            <path d="M665,70.615 C651.624,70.63 640.784,81.47 640.769,94.846 L640.769,127.154 C640.769,128.582 641.337,129.952 642.346,130.961 C643.356,131.971 644.726,132.538 646.154,132.538 L656.923,132.538 L656.923,146 C656.926,150.46 660.541,154.073 665,154.073 C669.459,154.073 673.075,150.459 673.077,146 L673.077,132.538 L683.846,132.538 C685.274,132.538 686.644,131.971 687.654,130.961 C688.663,129.952 689.231,128.582 689.231,127.154 L689.231,94.846 C689.215,81.469 678.375,70.63 664.999,70.615 Z M667.692,146 C667.692,147.487 666.487,148.692 665,148.692 C663.513,148.692 662.308,147.487 662.308,146 L662.308,132.538 L667.692,132.538 Z M683.846,127.154 L646.154,127.154 L646.154,94.846 C646.154,84.438 654.592,76 665,76 C675.408,76 683.846,84.438 683.846,94.846 L683.846,127.154 Z M662.308,92.154 L662.308,119.077 C662.308,120.564 661.102,121.769 659.615,121.769 C658.128,121.769 656.923,120.564 656.923,119.077 L656.923,92.154 C656.923,90.667 658.128,89.462 659.615,89.462 C661.102,89.462 662.308,90.667 662.308,92.154 Z M673.077,92.154 L673.077,119.077 C673.077,120.564 671.872,121.769 670.385,121.769 C668.898,121.769 667.692,120.564 667.692,119.077 L667.692,92.154 C667.692,90.667 668.898,89.462 670.385,89.462 C671.872,89.462 673.077,90.667 673.077,92.154 Z" />
        </g>
    </g>
</svg>