<?xml version="1.0" encoding="UTF-8"?>
<svg height="600" width="800" xmlns="http://www.w3.org/2000/svg" xmlns:xlink="http://www.w3.org/1999/xlink">
    <g id="Notes" font-family="'LucidaGrande', 'Lucida Grande', sans-serif" font-size="13">
        <rect fill="white" height="600.0" width="800.0" x="0.0" y="0.0" />
        <g font-size="13">
            <text x="18.0" y="176.0">Small</text>
            <text x="18.0" y="376.0">Medium</text>
            <text x="18.0" y="576.0">Large</text>
        </g>
        <g font-size="9">
            <text x="250.0" y="30.0">Ultralight</text>
            <text x="450.0" y="30.0">Regular</text>
            <text x="650.0" y="30.0">Black</text>
            <text id="template-version" fill="#505050" text-anchor="end" x="785.0" y="575.0">Template v.3.0</text>
            <a href="https://github.com/swhitty/SwiftDraw">
                <text fill="#505050" text-anchor="end" x="785.0" y="590.0">https://github.com/swhitty/SwiftDraw</text>
            </a>
        </g>
    </g>
    <g id="Guides" stroke="rgb(39, 170, 225)" stroke-width="0.5">
        <path id="Capline-S" d="M18,76 l800,0" />
        <path id="H-reference" d="M85,145.755 L87.685,145.755 L113.369,79.287 L114.052,79.287 L114.052,76 L112.148,76 L85,145.755 Z M95.693,121.536 L130.996,121.536 L130.263,119.313 L96.474,119.313 L95.693,121.536 Z M139.15,145.755 L141.787,145.755 L114.638,76 L113.466,76 L113.466,79.287 L139.15,145.755 Z" stroke="none" />
        <path id="Baseline-S" d="M18,146 l800,0" />
        <path id="left-margin-Ultralight-S" d="M220,56 l0,110" />
        <path id="right-margin-Ultralight-S" d="M310,56 l0,110" />
        <path id="left-margin-Regular-S" d="M420,56 l0,110" />
        <path id="right-margin-Regular-S" d="M510,56 l0,110" />
        <path id="left-margin-Black-S" d="M620,56 l0,110" />
        <path id="right-margin-Black-S" d="M710,56 l0,110" />
        <path id="Capline-M" d="M18,276 l800,0" />
        <path id="Baseline-M" d="M18,346 l800,0" />
        <path id="Capline-L" d="M18,476 l800,0" />
        <path id="Baseline-L" d="M18,546 l800,0" />
    </g>
    <g id="Symbols">
        <g id="Ultralight-S">
            <path d="M304.119,88.115 C303.331,87.624 302.345,87.573 301.511,87.981 C287.063,95.048 276.745,91.737 265.838,88.243 C254.396,84.578 242.533,80.792 226.143,88.795 C225.209,89.243 224.614,90.188 224.615,91.225 L224.615,131.586 C224.615,132.515 225.094,133.378 225.882,133.87 C226.669,134.362 227.655,134.413 228.489,134.006 C242.937,126.938 253.255,130.25 264.179,133.743 C270.654,135.813 277.25,137.923 284.708,137.923 C290.459,137.923 296.733,136.671 303.86,133.191 C304.784,132.74 305.37,131.803 305.372,130.775 L305.372,90.414 C305.38,89.483 304.906,88.613 304.119,88.115 Z M300,129.062 C286.337,135.177 276.358,131.987 265.821,128.618 C259.346,126.548 252.75,124.438 245.292,124.438 C240.053,124.463 234.867,125.492 230.013,127.467 L230.013,92.938 C243.677,86.823 253.655,90.013 264.192,93.382 C274.729,96.751 285.576,100.231 300,94.54 Z M265,100.231 C259.052,100.231 254.231,105.052 254.231,111 C254.231,116.948 259.052,121.769 265,121.769 C270.948,121.769 275.769,116.948 275.769,111 C275.769,108.144 274.635,105.405 272.615,103.385 C270.595,101.365 267.856,100.231 265,100.231 Z M265,116.385 C262.026,116.385 259.615,113.974 259.615,111 C259.615,108.026 262.026,105.615 265,105.615 C267.974,105.615 270.385,108.026 270.385,111 C270.385,112.428 269.817,113.798 268.807,114.808 C267.798,115.817 266.428,116.385 265,116.385 Z M240.769,100.231 L240.769,116.385 C240.769,117.872 239.564,119.077 238.077,119.077 C236.59,119.077 235.385,117.872 235.385,116.385 L235.385,100.231 C235.385,98.744 236.59,97.538 238.077,97.538 C239.564,97.538 240.769,98.744 240.769,100.231 Z M289.231,121.769 L289.231,105.615 C289.231,104.128 290.436,102.923 291.923,102.923 C293.41,102.923 294.615,104.128 294.615,105.615 L294.615,121.769 C294.615,123.256 293.41,124.462 291.923,124.462 C290.436,124.462 289.231,123.256 289.231,121.769 Z" />
        </g>
        <g id="Regular-S">
            <path d="M504.119,88.115 C503.331,87.624 502.345,87.573 501.511,87.981 C487.063,95.048 476.745,91.737 465.838,88.243 C454.396,84.578 442.533,80.792 426.143,88.795 C425.209,89.243 424.614,90.188 424.615,91.225 L424.615,131.586 C424.615,132.515 425.094,133.378 425.882,133.87 C426.669,134.362 427.655,134.413 428.489,134.006 C442.937,126.938 453.255,130.25 464.179,133.743 C470.654,135.813 477.25,137.923 484.708,137.923 C490.459,137.923 496.733,136.671 503.86,133.191 C504.784,132.74 505.37,131.803 505.371,130.775 L505.371,90.414 C505.38,89.483 504.906,88.613 504.119,88.115 Z M500,129.062 C486.337,135.177 476.358,131.987 465.821,128.618 C459.346,126.548 452.75,124.438 445.292,124.438 C440.053,124.463 434.866,125.492 430.013,127.467 L430.013,92.938 C443.677,86.823 453.655,90.013 464.192,93.382 C474.729,96.751 485.576,100.231 500,94.54 Z M465,100.231 C459.052,100.231 454.231,105.052 454.231,111 C454.231,116.948 459.052,121.769 465,121.769 C470.948,121.769 475.769,116.948 475.769,111 C475.769,108.144 474.635,105.405 472.615,103.385 C470.595,101.365 467.856,100.231 465,100.231 Z M465,116.385 C462.026,116.385 459.615,113.974 459.615,111 C459.615,108.026 462.026,105.615 465,105.615 C467.974,105.615 470.385,108.026 470.385,111 C470.385,112.428 469.817,113.798 468.807,114.808 C467.798,115.817 466.428,116.385 465,116.385 Z M440.769,100.231 L440.769,116.385 C440.769,117.872 439.564,119.077 438.077,119.077 C436.59,119.077 435.385,117.872 435.385,116.385 L435.385,100.231 C435.385,98.744 436.59,97.538 438.077,97.538 C439.564,97.538 440.769,98.744 440.769,100.231 Z M489.231,121.769 L489.231,105.615 C489.231,104.128 490.436,102.923 491.923,102.923 C493.41,102.923 494.615,104.128 494.615,105.615 L494.615,121.769 C494.615,123.256 493.41,124.462 491.923,124.462 C490.436,124.462 489.231,123.256 489.231,121.769 Z" />
        </g>
        <g id="Black-S">
            <path d="M704.119,88.115 C703.331,87.624 702.345,87.573 701.511,87.981 C687.063,95.048 676.745,91.737 665.838,88.243 C654.396,84.578 642.533,80.792 626.143,88.795 C625.209,89.243 624.615,90.188 624.615,91.225 L624.615,131.586 C624.615,132.515 625.094,133.378 625.882,133.87 C626.669,134.362 627.655,134.413 628.489,134.006 C642.937,126.938 653.255,130.25 664.179,133.743 C670.654,135.813 677.25,137.923 684.708,137.923 C690.459,137.923 696.733,136.671 703.86,133.191 C704.784,132.74 705.37,131.803 705.372,130.775 L705.372,90.414 C705.38,89.483 704.906,88.613 704.119,88.115 Z M700,129.062 C686.337,135.177 676.358,131.987 665.821,128.618 C659.346,126.548 652.75,124.438 645.292,124.438 C640.053,124.463 634.867,125.492 630.013,127.467 L630.013,92.938 C643.677,86.823 653.655,90.013 664.192,93.382 C674.729,96.751 685.576,100.231 700,94.54 Z M665,100.231 C659.052,100.231 654.231,105.052 654.231,111 C654.231,116.948 659.052,121.769 665,121.769 C670.948,121.769 675.769,116.948 675.769,111 C675.769,108.144 674.635,105.405 672.615,103.385 C670.595,101.365 667.856,100.231 665,100.231 Z M665,116.385 C662.026,116.385 659.615,113.974 659.615,111 C659.615,108.026 662.026,105.615 665,105.615 C667.974,105.615 670.385,108.026 670.385,111 C670.385,112.428 669.817,113.798 668.807,114.808 C667.798,115.817 666.428,116.385 665,116.385 Z M640.769,100.231 L640.769,116.385 C640.769,117.872 639.564,119.077 638.077,119.077 C636.59,119.077 635.385,117.872 635.385,116.385 L635.385,100.231 C635.385,98.744 636.59,97.538 638.077,97.538 C639.564,97.538 640.769,98.744 640.769,100.231 Z M689.231,121.769 L689.231,105.615 C689.231,104.128 690.436,102.923 691.923,102.923 C693.41,102.923 694.615,104.128 694.615,105.615 L694.615,121.769 C694.615,123.256 693.41,124.462 691.923,124.462 C690.436,124.462 689.231,123.256 689.231,121.769 Z" />
        </g>
    </g>
</svg>