<?xml version="1.0" encoding="UTF-8"?>
<svg height="600" width="800" xmlns="http://www.w3.org/2000/svg" xmlns:xlink="http://www.w3.org/1999/xlink">
    <g id="Notes" font-family="'LucidaGrande', 'Lucida Grande', sans-serif" font-size="13">
        <rect fill="white" height="600.0" width="800.0" x="0.0" y="0.0" />
        <g font-size="13">
            <text x="18.0" y="176.0">Small</text>
            <text x="18.0" y="376.0">Medium</text>
            <text x="18.0" y="576.0">Large</text>
        </g>
        <g font-size="9">
            <text x="250.0" y="30.0">Ultralight</text>
            <text x="450.0" y="30.0">Regular</text>
            <text x="650.0" y="30.0">Black</text>
            <text id="template-version" fill="#505050" text-anchor="end" x="785.0" y="575.0">Template v.3.0</text>
            <a href="https://github.com/swhitty/SwiftDraw">
                <text fill="#505050" text-anchor="end" x="785.0" y="590.0">https://github.com/swhitty/SwiftDraw</text>
            </a>
        </g>
    </g>
    <g id="Guides" stroke="rgb(39, 170, 225)" stroke-width="0.5">
        <path id="Capline-S" d="M18,76 l800,0" />
        <path id="H-reference" d="M85,145.755 L87.685,145.755 L113.369,79.287 L114.052,79.287 L114.052,76 L112.148,76 L85,145.755 Z M95.693,121.536 L130.996,121.536 L130.263,119.313 L96.474,119.313 L95.693,121.536 Z M139.15,145.755 L141.787,145.755 L114.638,76 L113.466,76 L113.466,79.287 L139.15,145.755 Z" stroke="none" />
        <path id="Baseline-S" d="M18,146 l800,0" />
        <path id="left-margin-Ultralight-S" d="M220,56 l0,110" />
        <path id="right-margin-Ultralight-S" d="M310,56 l0,110" />
        <path id="left-margin-Regular-S" d="M420,56 l0,110" />
        <path id="right-margin-Regular-S" d="M510,56 l0,110" />
        <path id="left-margin-Black-S" d="M620,56 l0,110" />
        <path id="right-margin-Black-S" d="M710,56 l0,110" />
        <path id="Capline-M" d="M18,276 l800,0" />
        <path id="Baseline-M" d="M18,346 l800,0" />
        <path id="Capline-L" d="M18,476 l800,0" />
        <path id="Baseline-L" d="M18,546 l800,0" />
    </g>
    <g id="Symbols">
        <g id="Ultralight-S">
            <path d="M300,89.462 L290.345,89.462 L299.212,80.597 C300.265,79.543 300.264,77.838 299.211,76.786 C298.159,75.735 296.453,75.736 295.402,76.789 L286.538,85.655 L286.538,76 C286.538,74.513 285.333,73.308 283.846,73.308 C282.359,73.308 281.154,74.513 281.154,76 L281.154,86.961 C272.72,82.092 262.067,83.488 255.173,90.367 L255.173,90.367 L255.173,90.367 L255.173,90.367 C241.678,103.623 231.531,135.153 230.542,138.307 C229.586,140.358 230.015,142.788 231.615,144.388 C233.215,145.988 235.645,146.417 237.697,145.462 C240.85,144.472 272.421,134.312 285.643,120.824 C292.517,113.927 293.909,103.277 289.039,94.846 L300,94.846 C301.487,94.846 302.692,93.641 302.692,92.154 C302.692,90.667 301.487,89.462 300,89.462 Z M281.787,117.058 C278.778,120.127 274.635,123.048 270.058,125.717 L261.517,117.172 C260.466,116.121 258.761,116.12 257.708,117.171 C256.656,118.222 256.655,119.928 257.706,120.981 L265.14,128.415 C251.386,135.546 236.09,140.335 235.861,140.406 C235.696,140.46 235.536,140.53 235.385,140.615 C235.466,140.464 235.532,140.305 235.583,140.141 C235.681,139.828 245.006,109.994 257.122,96.165 L268.487,107.53 C269.537,108.582 271.243,108.583 272.295,107.531 C273.348,106.48 273.349,104.774 272.297,103.722 L261.022,92.45 C267.871,87.577 277.312,88.771 282.733,95.195 C288.154,101.619 287.742,111.126 281.787,117.058 Z" />
        </g>
        <g id="Regular-S">
            <path d="M500,89.462 L490.345,89.462 L499.212,80.597 C500.265,79.543 500.264,77.838 499.211,76.786 C498.159,75.735 496.453,75.736 495.402,76.789 L486.538,85.655 L486.538,76 C486.538,74.513 485.333,73.308 483.846,73.308 C482.359,73.308 481.154,74.513 481.154,76 L481.154,86.961 C472.72,82.092 462.067,83.488 455.173,90.367 L455.173,90.367 L455.173,90.367 L455.173,90.367 C441.678,103.623 431.531,135.153 430.542,138.307 C429.586,140.358 430.015,142.788 431.615,144.388 C433.215,145.988 435.645,146.417 437.697,145.462 C440.85,144.472 472.421,134.312 485.643,120.824 C492.517,113.927 493.909,103.277 489.039,94.846 L500,94.846 C501.487,94.846 502.692,93.641 502.692,92.154 C502.692,90.667 501.487,89.462 500,89.462 Z M481.787,117.058 C478.778,120.127 474.635,123.048 470.058,125.717 L461.517,117.172 C460.466,116.121 458.761,116.12 457.708,117.171 C456.656,118.222 456.655,119.928 457.706,120.981 L465.14,128.415 C451.386,135.546 436.09,140.335 435.861,140.406 C435.696,140.46 435.536,140.53 435.385,140.615 C435.466,140.464 435.532,140.305 435.583,140.141 C435.681,139.828 445.006,109.994 457.122,96.165 L468.487,107.53 C469.537,108.582 471.242,108.583 472.295,107.531 C473.348,106.48 473.349,104.774 472.297,103.722 L461.022,92.45 C467.871,87.577 477.312,88.771 482.733,95.195 C488.154,101.619 487.742,111.126 481.787,117.058 Z" />
        </g>
        <g id="Black-S">
            <path d="M700,89.462 L690.345,89.462 L699.213,80.597 C700.265,79.543 700.264,77.838 699.211,76.786 C698.159,75.735 696.453,75.736 695.402,76.789 L686.538,85.655 L686.538,76 C686.538,74.513 685.333,73.308 683.846,73.308 C682.359,73.308 681.154,74.513 681.154,76 L681.154,86.961 C672.72,82.092 662.067,83.488 655.173,90.367 L655.173,90.367 L655.173,90.367 L655.173,90.367 C641.678,103.623 631.531,135.153 630.542,138.307 C629.586,140.358 630.015,142.788 631.615,144.388 C633.215,145.988 635.645,146.417 637.697,145.462 C640.85,144.472 672.421,134.312 685.643,120.824 C692.517,113.927 693.909,103.277 689.039,94.846 L700,94.846 C701.487,94.846 702.692,93.641 702.692,92.154 C702.692,90.667 701.487,89.462 700,89.462 Z M681.787,117.058 C678.778,120.127 674.635,123.048 670.058,125.717 L661.517,117.172 C660.466,116.121 658.761,116.12 657.708,117.171 C656.656,118.222 656.655,119.928 657.706,120.981 L665.14,128.415 C651.386,135.546 636.09,140.335 635.861,140.406 C635.696,140.46 635.536,140.53 635.385,140.615 C635.466,140.464 635.532,140.305 635.583,140.141 C635.681,139.828 645.006,109.994 657.122,96.165 L668.487,107.53 C669.537,108.582 671.243,108.583 672.295,107.531 C673.348,106.48 673.349,104.774 672.297,103.722 L661.022,92.45 C667.871,87.577 677.312,88.771 682.733,95.195 C688.154,101.619 687.742,111.126 681.787,117.058 Z" />
        </g>
    </g>
</svg>