<?xml version="1.0" encoding="UTF-8"?>
<svg height="600" width="800" xmlns="http://www.w3.org/2000/svg" xmlns:xlink="http://www.w3.org/1999/xlink">
    <g id="Notes" font-family="'LucidaGrande', 'Lucida Grande', sans-serif" font-size="13">
        <rect fill="white" height="600.0" width="800.0" x="0.0" y="0.0" />
        <g font-size="13">
            <text x="18.0" y="176.0">Small</text>
            <text x="18.0" y="376.0">Medium</text>
            <text x="18.0" y="576.0">Large</text>
        </g>
        <g font-size="9">
            <text x="250.0" y="30.0">Ultralight</text>
            <text x="450.0" y="30.0">Regular</text>
            <text x="650.0" y="30.0">Black</text>
            <text id="template-version" fill="#505050" text-anchor="end" x="785.0" y="575.0">Template v.3.0</text>
            <a href="https://github.com/swhitty/SwiftDraw">
                <text fill="#505050" text-anchor="end" x="785.0" y="590.0">https://github.com/swhitty/SwiftDraw</text>
            </a>
        </g>
    </g>
    <g id="Guides" stroke="rgb(39, 170, 225)" stroke-width="0.5">
        <path id="Capline-S" d="M18,76 l800,0" />
        <path id="H-reference" d="M85,145.755 L87.685,145.755 L113.369,79.287 L114.052,79.287 L114.052,76 L112.148,76 L85,145.755 Z M95.693,121.536 L130.996,121.536 L130.263,119.313 L96.474,119.313 L95.693,121.536 Z M139.15,145.755 L141.787,145.755 L114.638,76 L113.466,76 L113.466,79.287 L139.15,145.755 Z" stroke="none" />
        <path id="Baseline-S" d="M18,146 l800,0" />
        <path id="left-margin-Ultralight-S" d="M220,56 l0,110" />
        <path id="right-margin-Ultralight-S" d="M310,56 l0,110" />
        <path id="left-margin-Regular-S" d="M420,56 l0,110" />
        <path id="right-margin-Regular-S" d="M510,56 l0,110" />
        <path id="left-margin-Black-S" d="M620,56 l0,110" />
        <path id="right-margin-Black-S" d="M710,56 l0,110" />
        <path id="Capline-M" d="M18,276 l800,0" />
        <path id="Baseline-M" d="M18,346 l800,0" />
        <path id="Capline-L" d="M18,476 l800,0" />
        <path id="Baseline-L" d="M18,546 l800,0" />
    </g>
    <g id="Symbols">
        <g id="Ultralight-S">
            <path d="M265,76 C252.709,75.997 241.317,82.442 234.988,92.979 C228.66,103.516 228.322,116.601 234.099,127.45 L230.279,138.909 C229.634,140.844 230.138,142.978 231.58,144.42 C233.022,145.862 235.156,146.366 237.091,145.721 L248.55,141.901 C261.408,148.74 277.157,146.902 288.095,137.286 C299.033,127.67 302.873,112.286 297.737,98.658 C292.602,85.03 279.564,76.006 265,76 Z M265,140.615 C259.794,140.619 254.679,139.248 250.172,136.641 C249.505,136.254 248.703,136.172 247.971,136.415 L235.385,140.615 L239.581,128.029 C239.826,127.297 239.745,126.496 239.359,125.828 C232.647,114.223 234.567,99.557 244.041,90.072 C253.514,80.587 268.178,78.648 279.791,85.345 C291.404,92.043 297.069,105.706 293.604,118.656 C290.138,131.606 278.406,140.613 265,140.615 Z" />
        </g>
        <g id="Regular-S">
            <path d="M465,76 C452.709,75.997 441.317,82.442 434.988,92.979 C428.66,103.516 428.322,116.601 434.099,127.45 L430.279,138.909 C429.634,140.844 430.138,142.978 431.58,144.42 C433.022,145.862 435.156,146.366 437.091,145.721 L448.55,141.901 C461.408,148.74 477.157,146.902 488.095,137.286 C499.033,127.67 502.873,112.286 497.737,98.658 C492.602,85.03 479.564,76.006 465,76 Z M465,140.615 C459.794,140.619 454.679,139.248 450.172,136.641 C449.505,136.254 448.703,136.172 447.971,136.415 L435.385,140.615 L439.581,128.029 C439.826,127.297 439.745,126.496 439.359,125.828 C432.647,114.223 434.567,99.557 444.041,90.072 C453.514,80.587 468.178,78.648 479.791,85.345 C491.404,92.043 497.069,105.706 493.604,118.656 C490.138,131.606 478.406,140.613 465,140.615 Z" />
        </g>
        <g id="Black-S">
            <path d="M665,76 C652.709,75.997 641.317,82.442 634.988,92.979 C628.66,103.516 628.322,116.601 634.099,127.45 L630.279,138.909 C629.634,140.844 630.138,142.978 631.58,144.42 C633.022,145.862 635.156,146.366 637.091,145.721 L648.55,141.901 C661.408,148.74 677.157,146.902 688.095,137.286 C699.033,127.67 702.873,112.286 697.737,98.658 C692.602,85.03 679.564,76.006 665,76 Z M665,140.615 C659.794,140.619 654.679,139.248 650.172,136.641 C649.505,136.254 648.703,136.172 647.971,136.415 L635.385,140.615 L639.581,128.029 C639.826,127.297 639.745,126.496 639.359,125.828 C632.647,114.223 634.567,99.557 644.041,90.072 C653.514,80.587 668.178,78.648 679.791,85.345 C691.404,92.043 697.069,105.706 693.604,118.656 C690.138,131.606 678.406,140.613 665,140.615 Z" />
        </g>
    </g>
</svg>