<?xml version="1.0" encoding="UTF-8"?>
<svg height="600" width="800" xmlns="http://www.w3.org/2000/svg" xmlns:xlink="http://www.w3.org/1999/xlink">
    <g id="Notes" font-family="'LucidaGrande', 'Lucida Grande', sans-serif" font-size="13">
        <rect fill="white" height="600.0" width="800.0" x="0.0" y="0.0" />
        <g font-size="13">
            <text x="18.0" y="176.0">Small</text>
            <text x="18.0" y="376.0">Medium</text>
            <text x="18.0" y="576.0">Large</text>
        </g>
        <g font-size="9">
            <text x="250.0" y="30.0">Ultralight</text>
            <text x="450.0" y="30.0">Regular</text>
            <text x="650.0" y="30.0">Black</text>
            <text id="template-version" fill="#505050" text-anchor="end" x="785.0" y="575.0">Template v.3.0</text>
            <a href="https://github.com/swhitty/SwiftDraw">
                <text fill="#505050" text-anchor="end" x="785.0" y="590.0">https://github.com/swhitty/SwiftDraw</text>
            </a>
        </g>
    </g>
    <g id="Guides" stroke="rgb(39, 170, 225)" stroke-width="0.5">
        <path id="Capline-S" d="M18,76 l800,0" />
        <path id="H-reference" d="M85,145.755 L87.685,145.755 L113.369,79.287 L114.052,79.287 L114.052,76 L112.148,76 L85,145.755 Z M95.693,121.536 L130.996,121.536 L130.263,119.313 L96.474,119.313 L95.693,121.536 Z M139.15,145.755 L141.787,145.755 L114.638,76 L113.466,76 L113.466,79.287 L139.15,145.755 Z" stroke="none" />
        <path id="Baseline-S" d="M18,146 l800,0" />
        <path id="left-margin-Ultralight-S" d="M220,56 l0,110" />
        <path id="right-margin-Ultralight-S" d="M310,56 l0,110" />
        <path id="left-margin-Regular-S" d="M420,56 l0,110" />
        <path id="right-margin-Regular-S" d="M510,56 l0,110" />
        <path id="left-margin-Black-S" d="M620,56 l0,110" />
        <path id="right-margin-Black-S" d="M710,56 l0,110" />
        <path id="Capline-M" d="M18,276 l800,0" />
        <path id="Baseline-M" d="M18,346 l800,0" />
        <path id="Capline-L" d="M18,476 l800,0" />
        <path id="Baseline-L" d="M18,546 l800,0" />
    </g>
    <g id="Symbols">
        <g id="Ultralight-S">
            <path d="M285.192,94.846 C283.621,94.844 282.075,95.237 280.696,95.99 C279.683,92.852 277.102,90.471 273.892,89.714 C270.682,88.957 267.309,89.933 265,92.288 C262.32,89.553 258.252,88.712 254.707,90.159 C251.162,91.607 248.846,95.056 248.846,98.885 L248.846,105.615 L244.808,105.615 C242.309,105.615 239.912,106.608 238.145,108.375 C236.377,110.143 235.385,112.539 235.385,115.038 L235.385,119.077 C235.385,135.433 248.644,148.692 265,148.692 C281.356,148.692 294.615,135.433 294.615,119.077 L294.615,104.269 C294.615,101.77 293.623,99.373 291.855,97.606 C290.088,95.839 287.691,94.846 285.192,94.846 Z M289.231,119.077 C289.231,132.459 278.382,143.308 265,143.308 C251.618,143.308 240.769,132.459 240.769,119.077 L240.769,115.038 C240.769,113.967 241.195,112.94 241.952,112.183 C242.709,111.425 243.737,111 244.808,111 L248.846,111 L248.846,119.077 C248.846,120.564 250.052,121.769 251.538,121.769 C253.025,121.769 254.231,120.564 254.231,119.077 L254.231,98.885 C254.231,96.654 256.039,94.846 258.269,94.846 C260.5,94.846 262.308,96.654 262.308,98.885 L262.308,108.308 C262.308,109.795 263.513,111 265,111 C266.487,111 267.692,109.795 267.692,108.308 L267.692,98.885 C267.692,96.654 269.5,94.846 271.731,94.846 C273.961,94.846 275.769,96.654 275.769,98.885 L275.769,108.308 C275.769,109.795 276.975,111 278.462,111 C279.948,111 281.154,109.795 281.154,108.308 L281.154,104.269 C281.154,102.039 282.962,100.231 285.192,100.231 C287.423,100.231 289.231,102.039 289.231,104.269 Z" />
        </g>
        <g id="Regular-S">
            <path d="M485.192,94.846 C483.621,94.844 482.075,95.237 480.696,95.99 C479.683,92.852 477.102,90.471 473.892,89.714 C470.682,88.957 467.309,89.933 465,92.288 C462.32,89.553 458.252,88.712 454.707,90.159 C451.162,91.607 448.846,95.056 448.846,98.885 L448.846,105.615 L444.808,105.615 C442.309,105.615 439.912,106.608 438.145,108.375 C436.377,110.143 435.385,112.539 435.385,115.038 L435.385,119.077 C435.385,135.433 448.644,148.692 465,148.692 C481.356,148.692 494.615,135.433 494.615,119.077 L494.615,104.269 C494.615,101.77 493.623,99.373 491.855,97.606 C490.088,95.839 487.691,94.846 485.192,94.846 Z M489.231,119.077 C489.231,132.459 478.382,143.308 465,143.308 C451.618,143.308 440.769,132.459 440.769,119.077 L440.769,115.038 C440.769,113.967 441.195,112.94 441.952,112.183 C442.709,111.425 443.737,111 444.808,111 L448.846,111 L448.846,119.077 C448.846,120.564 450.052,121.769 451.538,121.769 C453.025,121.769 454.231,120.564 454.231,119.077 L454.231,98.885 C454.231,96.654 456.039,94.846 458.269,94.846 C460.5,94.846 462.308,96.654 462.308,98.885 L462.308,108.308 C462.308,109.795 463.513,111 465,111 C466.487,111 467.692,109.795 467.692,108.308 L467.692,98.885 C467.692,96.654 469.5,94.846 471.731,94.846 C473.961,94.846 475.769,96.654 475.769,98.885 L475.769,108.308 C475.769,109.795 476.975,111 478.462,111 C479.948,111 481.154,109.795 481.154,108.308 L481.154,104.269 C481.154,102.039 482.962,100.231 485.192,100.231 C487.423,100.231 489.231,102.039 489.231,104.269 Z" />
        </g>
        <g id="Black-S">
            <path d="M685.192,94.846 C683.621,94.844 682.075,95.237 680.696,95.99 C679.683,92.852 677.102,90.471 673.892,89.714 C670.682,88.957 667.309,89.933 665,92.288 C662.32,89.553 658.252,88.712 654.707,90.159 C651.162,91.607 648.846,95.056 648.846,98.885 L648.846,105.615 L644.808,105.615 C642.309,105.615 639.912,106.608 638.145,108.375 C636.377,110.143 635.385,112.539 635.385,115.038 L635.385,119.077 C635.385,135.433 648.644,148.692 665,148.692 C681.356,148.692 694.615,135.433 694.615,119.077 L694.615,104.269 C694.615,101.77 693.623,99.373 691.855,97.606 C690.088,95.839 687.691,94.846 685.192,94.846 Z M689.231,119.077 C689.231,132.459 678.382,143.308 665,143.308 C651.618,143.308 640.769,132.459 640.769,119.077 L640.769,115.038 C640.769,113.967 641.195,112.94 641.952,112.183 C642.709,111.425 643.737,111 644.808,111 L648.846,111 L648.846,119.077 C648.846,120.564 650.052,121.769 651.538,121.769 C653.025,121.769 654.231,120.564 654.231,119.077 L654.231,98.885 C654.231,96.654 656.039,94.846 658.269,94.846 C660.5,94.846 662.308,96.654 662.308,98.885 L662.308,108.308 C662.308,109.795 663.513,111 665,111 C666.487,111 667.692,109.795 667.692,108.308 L667.692,98.885 C667.692,96.654 669.5,94.846 671.731,94.846 C673.961,94.846 675.769,96.654 675.769,98.885 L675.769,108.308 C675.769,109.795 676.975,111 678.462,111 C679.948,111 681.154,109.795 681.154,108.308 L681.154,104.269 C681.154,102.039 682.962,100.231 685.192,100.231 C687.423,100.231 689.231,102.039 689.231,104.269 Z" />
        </g>
    </g>
</svg>