<?xml version="1.0" encoding="UTF-8"?>
<svg height="600" width="800" xmlns="http://www.w3.org/2000/svg" xmlns:xlink="http://www.w3.org/1999/xlink">
    <g id="Notes" font-family="'LucidaGrande', 'Lucida Grande', sans-serif" font-size="13">
        <rect fill="white" height="600.0" width="800.0" x="0.0" y="0.0" />
        <g font-size="13">
            <text x="18.0" y="176.0">Small</text>
            <text x="18.0" y="376.0">Medium</text>
            <text x="18.0" y="576.0">Large</text>
        </g>
        <g font-size="9">
            <text x="250.0" y="30.0">Ultralight</text>
            <text x="450.0" y="30.0">Regular</text>
            <text x="650.0" y="30.0">Black</text>
            <text id="template-version" fill="#505050" text-anchor="end" x="785.0" y="575.0">Template v.3.0</text>
            <a href="https://github.com/swhitty/SwiftDraw">
                <text fill="#505050" text-anchor="end" x="785.0" y="590.0">https://github.com/swhitty/SwiftDraw</text>
            </a>
        </g>
    </g>
    <g id="Guides" stroke="rgb(39, 170, 225)" stroke-width="0.5">
        <path id="Capline-S" d="M18,76 l800,0" />
        <path id="H-reference" d="M85,145.755 L87.685,145.755 L113.369,79.287 L114.052,79.287 L114.052,76 L112.148,76 L85,145.755 Z M95.693,121.536 L130.996,121.536 L130.263,119.313 L96.474,119.313 L95.693,121.536 Z M139.15,145.755 L141.787,145.755 L114.638,76 L113.466,76 L113.466,79.287 L139.15,145.755 Z" stroke="none" />
        <path id="Baseline-S" d="M18,146 l800,0" />
        <path id="left-margin-Ultralight-S" d="M220,56 l0,110" />
        <path id="right-margin-Ultralight-S" d="M310,56 l0,110" />
        <path id="left-margin-Regular-S" d="M420,56 l0,110" />
        <path id="right-margin-Regular-S" d="M510,56 l0,110" />
        <path id="left-margin-Black-S" d="M620,56 l0,110" />
        <path id="right-margin-Black-S" d="M710,56 l0,110" />
        <path id="Capline-M" d="M18,276 l800,0" />
        <path id="Baseline-M" d="M18,346 l800,0" />
        <path id="Capline-L" d="M18,476 l800,0" />
        <path id="Baseline-L" d="M18,546 l800,0" />
    </g>
    <g id="Symbols">
        <g id="Ultralight-S">
            <path d="M291.923,78.692 C291.923,79.406 291.639,80.091 291.135,80.596 C290.63,81.101 289.945,81.385 289.231,81.385 L240.769,81.385 C239.282,81.385 238.077,80.179 238.077,78.692 C238.077,77.205 239.282,76 240.769,76 L289.231,76 C289.945,76 290.63,76.284 291.135,76.789 C291.639,77.293 291.923,77.978 291.923,78.692 Z M281.154,92.154 L281.154,143.308 C281.154,144.736 280.587,146.105 279.577,147.115 C278.567,148.125 277.197,148.692 275.769,148.692 L254.231,148.692 C252.803,148.692 251.433,148.125 250.423,147.115 C249.413,146.105 248.846,144.736 248.846,143.308 L248.846,92.154 C248.846,90.726 249.413,89.356 250.423,88.346 C251.433,87.337 252.803,86.769 254.231,86.769 L275.769,86.769 C277.197,86.769 278.567,87.337 279.577,88.346 C280.587,89.356 281.154,90.726 281.154,92.154 Z M275.769,92.154 L254.231,92.154 L254.231,143.308 L275.769,143.308 Z" />
        </g>
        <g id="Regular-S">
            <path d="M491.923,78.692 C491.923,79.406 491.639,80.091 491.135,80.596 C490.63,81.101 489.945,81.385 489.231,81.385 L440.769,81.385 C439.282,81.385 438.077,80.179 438.077,78.692 C438.077,77.205 439.282,76 440.769,76 L489.231,76 C489.945,76 490.63,76.284 491.135,76.789 C491.639,77.293 491.923,77.978 491.923,78.692 Z M481.154,92.154 L481.154,143.308 C481.154,144.736 480.587,146.105 479.577,147.115 C478.567,148.125 477.197,148.692 475.769,148.692 L454.231,148.692 C452.803,148.692 451.433,148.125 450.423,147.115 C449.413,146.105 448.846,144.736 448.846,143.308 L448.846,92.154 C448.846,90.726 449.413,89.356 450.423,88.346 C451.433,87.337 452.803,86.769 454.231,86.769 L475.769,86.769 C477.197,86.769 478.567,87.337 479.577,88.346 C480.587,89.356 481.154,90.726 481.154,92.154 Z M475.769,92.154 L454.231,92.154 L454.231,143.308 L475.769,143.308 Z" />
        </g>
        <g id="Black-S">
            <path d="M691.923,78.692 C691.923,79.406 691.639,80.091 691.135,80.596 C690.63,81.101 689.945,81.385 689.231,81.385 L640.769,81.385 C639.282,81.385 638.077,80.179 638.077,78.692 C638.077,77.205 639.282,76 640.769,76 L689.231,76 C689.945,76 690.63,76.284 691.135,76.789 C691.639,77.293 691.923,77.978 691.923,78.692 Z M681.154,92.154 L681.154,143.308 C681.154,144.736 680.587,146.105 679.577,147.115 C678.567,148.125 677.197,148.692 675.769,148.692 L654.231,148.692 C652.803,148.692 651.433,148.125 650.423,147.115 C649.413,146.105 648.846,144.736 648.846,143.308 L648.846,92.154 C648.846,90.726 649.413,89.356 650.423,88.346 C651.433,87.337 652.803,86.769 654.231,86.769 L675.769,86.769 C677.197,86.769 678.567,87.337 679.577,88.346 C680.587,89.356 681.154,90.726 681.154,92.154 Z M675.769,92.154 L654.231,92.154 L654.231,143.308 L675.769,143.308 Z" />
        </g>
    </g>
</svg>