<?xml version="1.0" encoding="UTF-8"?>
<svg height="600" width="800" xmlns="http://www.w3.org/2000/svg" xmlns:xlink="http://www.w3.org/1999/xlink">
    <g id="Notes" font-family="'LucidaGrande', 'Lucida Grande', sans-serif" font-size="13">
        <rect fill="white" height="600.0" width="800.0" x="0.0" y="0.0" />
        <g font-size="13">
            <text x="18.0" y="176.0">Small</text>
            <text x="18.0" y="376.0">Medium</text>
            <text x="18.0" y="576.0">Large</text>
        </g>
        <g font-size="9">
            <text x="250.0" y="30.0">Ultralight</text>
            <text x="450.0" y="30.0">Regular</text>
            <text x="650.0" y="30.0">Black</text>
            <text id="template-version" fill="#505050" text-anchor="end" x="785.0" y="575.0">Template v.3.0</text>
            <a href="https://github.com/swhitty/SwiftDraw">
                <text fill="#505050" text-anchor="end" x="785.0" y="590.0">https://github.com/swhitty/SwiftDraw</text>
            </a>
        </g>
    </g>
    <g id="Guides" stroke="rgb(39, 170, 225)" stroke-width="0.5">
        <path id="Capline-S" d="M18,76 l800,0" />
        <path id="H-reference" d="M85,145.755 L87.685,145.755 L113.369,79.287 L114.052,79.287 L114.052,76 L112.148,76 L85,145.755 Z M95.693,121.536 L130.996,121.536 L130.263,119.313 L96.474,119.313 L95.693,121.536 Z M139.15,145.755 L141.787,145.755 L114.638,76 L113.466,76 L113.466,79.287 L139.15,145.755 Z" stroke="none" />
        <path id="Baseline-S" d="M18,146 l800,0" />
        <path id="left-margin-Ultralight-S" d="M220,56 l0,110" />
        <path id="right-margin-Ultralight-S" d="M310,56 l0,110" />
        <path id="left-margin-Regular-S" d="M420,56 l0,110" />
        <path id="right-margin-Regular-S" d="M510,56 l0,110" />
        <path id="left-margin-Black-S" d="M620,56 l0,110" />
        <path id="right-margin-Black-S" d="M710,56 l0,110" />
        <path id="Capline-M" d="M18,276 l800,0" />
        <path id="Baseline-M" d="M18,346 l800,0" />
        <path id="Capline-L" d="M18,476 l800,0" />
        <path id="Baseline-L" d="M18,546 l800,0" />
    </g>
    <g id="Symbols">
        <g id="Ultralight-S">
            <path d="M291.943,129.846 L273.077,129.846 C272.363,129.846 271.678,130.13 271.173,130.635 C270.668,131.14 270.385,131.824 270.385,132.538 L270.385,136.577 C270.385,143.273 275.813,148.701 282.508,148.701 C289.204,148.701 294.632,143.273 294.632,136.577 L294.632,132.538 C294.632,131.053 293.429,129.848 291.943,129.846 Z M289.251,136.577 C289.251,140.294 286.237,143.308 282.52,143.308 C278.803,143.308 275.789,140.294 275.789,136.577 L275.789,135.231 L289.251,135.231 Z M256.923,121.769 L238.077,121.769 C237.363,121.769 236.678,122.053 236.173,122.558 C235.668,123.063 235.385,123.747 235.385,124.462 L235.385,128.5 C235.385,135.191 240.809,140.615 247.5,140.615 C254.191,140.615 259.615,135.191 259.615,128.5 L259.615,124.462 C259.615,123.747 259.332,123.063 258.827,122.558 C258.322,122.053 257.637,121.769 256.923,121.769 Z M254.231,128.5 C254.231,132.217 251.217,135.231 247.5,135.231 C243.783,135.231 240.769,132.217 240.769,128.5 L240.769,127.154 L254.231,127.154 Z M247.5,73.308 C243.583,73.308 239.783,76.777 236.798,83.067 C232.11,92.955 230.552,107.635 236.896,115.375 C237.408,116 238.174,116.362 238.982,116.361 L255.994,116.361 C256.802,116.362 257.569,116 258.081,115.375 C264.425,107.635 262.866,92.945 258.178,83.067 C255.19,76.777 251.394,73.308 247.5,73.308 Z M254.618,111 L240.359,111 C236.522,104.909 237.932,93.264 241.668,85.386 C243.845,80.786 246.211,78.692 247.5,78.692 C248.789,78.692 251.141,80.786 253.322,85.386 C257.044,93.264 258.454,104.909 254.618,111 Z M274.006,124.462 L291.018,124.462 C291.826,124.463 292.592,124.101 293.104,123.475 C299.448,115.735 297.89,101.045 293.202,91.168 C290.217,84.854 286.417,81.385 282.5,81.385 C278.583,81.385 274.797,84.854 271.808,91.144 C267.12,101.032 265.562,115.712 271.906,123.452 C272.418,124.088 273.189,124.459 274.006,124.462 Z M276.698,93.463 C278.872,88.863 281.238,86.769 282.5,86.769 C283.762,86.769 286.141,88.863 288.319,93.463 C292.054,101.341 293.464,112.982 289.631,119.077 L275.382,119.077 C271.546,112.986 272.956,101.341 276.691,93.463 Z" />
        </g>
        <g id="Regular-S">
            <path d="M491.943,129.846 L473.077,129.846 C472.363,129.846 471.678,130.13 471.173,130.635 C470.668,131.14 470.385,131.824 470.385,132.538 L470.385,136.577 C470.385,143.273 475.813,148.701 482.508,148.701 C489.204,148.701 494.632,143.273 494.632,136.577 L494.632,132.538 C494.632,131.053 493.429,129.848 491.943,129.846 Z M489.251,136.577 C489.251,140.294 486.237,143.308 482.52,143.308 C478.803,143.308 475.789,140.294 475.789,136.577 L475.789,135.231 L489.251,135.231 Z M456.923,121.769 L438.077,121.769 C437.363,121.769 436.678,122.053 436.173,122.558 C435.668,123.063 435.385,123.747 435.385,124.462 L435.385,128.5 C435.385,135.191 440.809,140.615 447.5,140.615 C454.191,140.615 459.615,135.191 459.615,128.5 L459.615,124.462 C459.615,123.747 459.332,123.063 458.827,122.558 C458.322,122.053 457.637,121.769 456.923,121.769 Z M454.231,128.5 C454.231,132.217 451.217,135.231 447.5,135.231 C443.783,135.231 440.769,132.217 440.769,128.5 L440.769,127.154 L454.231,127.154 Z M447.5,73.308 C443.583,73.308 439.783,76.777 436.798,83.067 C432.11,92.955 430.552,107.635 436.896,115.375 C437.408,116 438.174,116.362 438.982,116.361 L455.994,116.361 C456.802,116.362 457.569,116 458.081,115.375 C464.424,107.635 462.866,92.945 458.178,83.067 C455.19,76.777 451.394,73.308 447.5,73.308 Z M454.618,111 L440.359,111 C436.522,104.909 437.932,93.264 441.668,85.386 C443.845,80.786 446.211,78.692 447.5,78.692 C448.789,78.692 451.141,80.786 453.322,85.386 C457.044,93.264 458.454,104.909 454.618,111 Z M474.006,124.462 L491.018,124.462 C491.826,124.463 492.592,124.101 493.104,123.475 C499.448,115.735 497.89,101.045 493.202,91.168 C490.217,84.854 486.417,81.385 482.5,81.385 C478.583,81.385 474.797,84.854 471.808,91.144 C467.12,101.032 465.562,115.712 471.906,123.452 C472.418,124.088 473.189,124.459 474.006,124.462 Z M476.698,93.463 C478.872,88.863 481.238,86.769 482.5,86.769 C483.762,86.769 486.141,88.863 488.319,93.463 C492.054,101.341 493.464,112.982 489.631,119.077 L475.382,119.077 C471.546,112.986 472.956,101.341 476.691,93.463 Z" />
        </g>
        <g id="Black-S">
            <path d="M691.943,129.846 L673.077,129.846 C672.363,129.846 671.678,130.13 671.173,130.635 C670.668,131.14 670.385,131.824 670.385,132.538 L670.385,136.577 C670.385,143.273 675.813,148.701 682.508,148.701 C689.204,148.701 694.632,143.273 694.632,136.577 L694.632,132.538 C694.632,131.053 693.429,129.848 691.943,129.846 Z M689.251,136.577 C689.251,140.294 686.237,143.308 682.52,143.308 C678.803,143.308 675.789,140.294 675.789,136.577 L675.789,135.231 L689.251,135.231 Z M656.923,121.769 L638.077,121.769 C637.363,121.769 636.678,122.053 636.173,122.558 C635.668,123.063 635.385,123.747 635.385,124.462 L635.385,128.5 C635.385,135.191 640.809,140.615 647.5,140.615 C654.191,140.615 659.615,135.191 659.615,128.5 L659.615,124.462 C659.615,123.747 659.332,123.063 658.827,122.558 C658.322,122.053 657.637,121.769 656.923,121.769 Z M654.231,128.5 C654.231,132.217 651.217,135.231 647.5,135.231 C643.783,135.231 640.769,132.217 640.769,128.5 L640.769,127.154 L654.231,127.154 Z M647.5,73.308 C643.583,73.308 639.783,76.777 636.798,83.067 C632.11,92.955 630.552,107.635 636.896,115.375 C637.408,116 638.174,116.362 638.982,116.361 L655.994,116.361 C656.802,116.362 657.569,116 658.081,115.375 C664.425,107.635 662.866,92.945 658.178,83.067 C655.19,76.777 651.394,73.308 647.5,73.308 Z M654.618,111 L640.359,111 C636.522,104.909 637.932,93.264 641.668,85.386 C643.845,80.786 646.211,78.692 647.5,78.692 C648.789,78.692 651.141,80.786 653.322,85.386 C657.044,93.264 658.454,104.909 654.618,111 Z M674.006,124.462 L691.018,124.462 C691.826,124.463 692.592,124.101 693.104,123.475 C699.448,115.735 697.89,101.045 693.202,91.168 C690.217,84.854 686.417,81.385 682.5,81.385 C678.583,81.385 674.797,84.854 671.808,91.144 C667.12,101.032 665.562,115.712 671.906,123.452 C672.418,124.088 673.189,124.459 674.006,124.462 Z M676.698,93.463 C678.872,88.863 681.238,86.769 682.5,86.769 C683.762,86.769 686.141,88.863 688.319,93.463 C692.054,101.341 693.464,112.982 689.631,119.077 L675.382,119.077 C671.546,112.986 672.956,101.341 676.691,93.463 Z" />
        </g>
    </g>
</svg>