<?xml version="1.0" encoding="UTF-8"?>
<svg height="600" width="800" xmlns="http://www.w3.org/2000/svg" xmlns:xlink="http://www.w3.org/1999/xlink">
    <g id="Notes" font-family="'LucidaGrande', 'Lucida Grande', sans-serif" font-size="13">
        <rect fill="white" height="600.0" width="800.0" x="0.0" y="0.0" />
        <g font-size="13">
            <text x="18.0" y="176.0">Small</text>
            <text x="18.0" y="376.0">Medium</text>
            <text x="18.0" y="576.0">Large</text>
        </g>
        <g font-size="9">
            <text x="250.0" y="30.0">Ultralight</text>
            <text x="450.0" y="30.0">Regular</text>
            <text x="650.0" y="30.0">Black</text>
            <text id="template-version" fill="#505050" text-anchor="end" x="785.0" y="575.0">Template v.3.0</text>
            <a href="https://github.com/swhitty/SwiftDraw">
                <text fill="#505050" text-anchor="end" x="785.0" y="590.0">https://github.com/swhitty/SwiftDraw</text>
            </a>
        </g>
    </g>
    <g id="Guides" stroke="rgb(39, 170, 225)" stroke-width="0.5">
        <path id="Capline-S" d="M18,76 l800,0" />
        <path id="H-reference" d="M85,145.755 L87.685,145.755 L113.369,79.287 L114.052,79.287 L114.052,76 L112.148,76 L85,145.755 Z M95.693,121.536 L130.996,121.536 L130.263,119.313 L96.474,119.313 L95.693,121.536 Z M139.15,145.755 L141.787,145.755 L114.638,76 L113.466,76 L113.466,79.287 L139.15,145.755 Z" stroke="none" />
        <path id="Baseline-S" d="M18,146 l800,0" />
        <path id="left-margin-Ultralight-S" d="M220,56 l0,110" />
        <path id="right-margin-Ultralight-S" d="M310,56 l0,110" />
        <path id="left-margin-Regular-S" d="M420,56 l0,110" />
        <path id="right-margin-Regular-S" d="M510,56 l0,110" />
        <path id="left-margin-Black-S" d="M620,56 l0,110" />
        <path id="right-margin-Black-S" d="M710,56 l0,110" />
        <path id="Capline-M" d="M18,276 l800,0" />
        <path id="Baseline-M" d="M18,346 l800,0" />
        <path id="Capline-L" d="M18,476 l800,0" />
        <path id="Baseline-L" d="M18,546 l800,0" />
    </g>
    <g id="Symbols">
        <g id="Ultralight-S">
            <path d="M281.154,137.923 C281.154,138.637 280.87,139.322 280.365,139.827 C279.86,140.332 279.176,140.615 278.462,140.615 L251.538,140.615 C250.519,140.615 249.586,140.039 249.13,139.127 C248.674,138.215 248.773,137.124 249.385,136.308 L273.595,104.027 C275.946,100.957 276.471,96.862 274.97,93.299 C273.469,89.735 270.173,87.25 266.334,86.787 C262.495,86.325 258.703,87.955 256.398,91.06 C255.892,91.733 255.465,92.463 255.126,93.234 C254.53,94.596 252.943,95.218 251.581,94.622 C250.218,94.027 249.597,92.439 250.192,91.077 C252.684,85.374 258.229,81.61 264.448,81.399 C270.668,81.188 276.455,84.569 279.327,90.09 C282.198,95.611 281.643,102.29 277.9,107.261 L256.923,135.231 L278.462,135.231 C279.176,135.231 279.86,135.514 280.365,136.019 C280.87,136.524 281.154,137.209 281.154,137.923 Z" />
        </g>
        <g id="Regular-S">
            <path d="M481.154,137.923 C481.154,138.637 480.87,139.322 480.365,139.827 C479.86,140.332 479.176,140.615 478.462,140.615 L451.538,140.615 C450.519,140.615 449.586,140.039 449.13,139.127 C448.674,138.215 448.773,137.124 449.385,136.308 L473.595,104.027 C475.946,100.957 476.471,96.862 474.97,93.299 C473.469,89.735 470.173,87.25 466.334,86.787 C462.495,86.325 458.703,87.955 456.398,91.06 C455.892,91.733 455.465,92.463 455.126,93.234 C454.53,94.596 452.943,95.218 451.581,94.622 C450.218,94.027 449.597,92.439 450.192,91.077 C452.683,85.374 458.229,81.61 464.448,81.399 C470.668,81.188 476.455,84.569 479.326,90.09 C482.198,95.611 481.643,102.29 477.9,107.261 L456.923,135.231 L478.462,135.231 C479.176,135.231 479.86,135.514 480.365,136.019 C480.87,136.524 481.154,137.209 481.154,137.923 Z" />
        </g>
        <g id="Black-S">
            <path d="M681.154,137.923 C681.154,138.637 680.87,139.322 680.365,139.827 C679.86,140.332 679.176,140.615 678.462,140.615 L651.538,140.615 C650.519,140.615 649.586,140.039 649.13,139.127 C648.674,138.215 648.773,137.124 649.385,136.308 L673.595,104.027 C675.946,100.957 676.471,96.862 674.97,93.299 C673.469,89.735 670.173,87.25 666.334,86.787 C662.495,86.325 658.703,87.955 656.398,91.06 C655.892,91.733 655.465,92.463 655.126,93.234 C654.53,94.596 652.943,95.218 651.581,94.622 C650.218,94.027 649.597,92.439 650.192,91.077 C652.684,85.374 658.229,81.61 664.448,81.399 C670.668,81.188 676.455,84.569 679.327,90.09 C682.198,95.611 681.643,102.29 677.9,107.261 L656.923,135.231 L678.462,135.231 C679.176,135.231 679.86,135.514 680.365,136.019 C680.87,136.524 681.154,137.209 681.154,137.923 Z" />
        </g>
    </g>
</svg>