<?xml version="1.0" encoding="UTF-8"?>
<svg height="600" width="800" xmlns="http://www.w3.org/2000/svg" xmlns:xlink="http://www.w3.org/1999/xlink">
    <g id="Notes" font-family="'LucidaGrande', 'Lucida Grande', sans-serif" font-size="13">
        <rect fill="white" height="600.0" width="800.0" x="0.0" y="0.0" />
        <g font-size="13">
            <text x="18.0" y="176.0">Small</text>
            <text x="18.0" y="376.0">Medium</text>
            <text x="18.0" y="576.0">Large</text>
        </g>
        <g font-size="9">
            <text x="250.0" y="30.0">Ultralight</text>
            <text x="450.0" y="30.0">Regular</text>
            <text x="650.0" y="30.0">Black</text>
            <text id="template-version" fill="#505050" text-anchor="end" x="785.0" y="575.0">Template v.3.0</text>
            <a href="https://github.com/swhitty/SwiftDraw">
                <text fill="#505050" text-anchor="end" x="785.0" y="590.0">https://github.com/swhitty/SwiftDraw</text>
            </a>
        </g>
    </g>
    <g id="Guides" stroke="rgb(39, 170, 225)" stroke-width="0.5">
        <path id="Capline-S" d="M18,76 l800,0" />
        <path id="H-reference" d="M85,145.755 L87.685,145.755 L113.369,79.287 L114.052,79.287 L114.052,76 L112.148,76 L85,145.755 Z M95.693,121.536 L130.996,121.536 L130.263,119.313 L96.474,119.313 L95.693,121.536 Z M139.15,145.755 L141.787,145.755 L114.638,76 L113.466,76 L113.466,79.287 L139.15,145.755 Z" stroke="none" />
        <path id="Baseline-S" d="M18,146 l800,0" />
        <path id="left-margin-Ultralight-S" d="M220,56 l0,110" />
        <path id="right-margin-Ultralight-S" d="M310,56 l0,110" />
        <path id="left-margin-Regular-S" d="M420,56 l0,110" />
        <path id="right-margin-Regular-S" d="M510,56 l0,110" />
        <path id="left-margin-Black-S" d="M620,56 l0,110" />
        <path id="right-margin-Black-S" d="M710,56 l0,110" />
        <path id="Capline-M" d="M18,276 l800,0" />
        <path id="Baseline-M" d="M18,346 l800,0" />
        <path id="Capline-L" d="M18,476 l800,0" />
        <path id="Baseline-L" d="M18,546 l800,0" />
    </g>
    <g id="Symbols">
        <g id="Ultralight-S">
            <path d="M230,111 C230,114.57 231.418,117.994 233.943,120.519 C236.467,123.043 239.891,124.462 243.462,124.462 L256.923,124.462 C258.41,124.462 259.615,125.667 259.615,127.154 C259.615,128.641 258.41,129.846 256.923,129.846 L243.462,129.846 C233.053,129.846 224.615,121.408 224.615,111 C224.615,100.592 233.053,92.154 243.462,92.154 L256.923,92.154 C258.41,92.154 259.615,93.359 259.615,94.846 C259.615,96.333 258.41,97.538 256.923,97.538 L243.462,97.538 C239.891,97.538 236.467,98.957 233.943,101.481 C231.418,104.006 230,107.43 230,111 Z M286.538,92.154 L273.077,92.154 C271.59,92.154 270.385,93.359 270.385,94.846 C270.385,96.333 271.59,97.538 273.077,97.538 L286.538,97.538 C293.973,97.538 300,103.565 300,111 C300,118.435 293.973,124.462 286.538,124.462 L273.077,124.462 C271.59,124.462 270.385,125.667 270.385,127.154 C270.385,128.641 271.59,129.846 273.077,129.846 L286.538,129.846 C296.947,129.846 305.385,121.408 305.385,111 C305.385,100.592 296.947,92.154 286.538,92.154 Z" />
        </g>
        <g id="Regular-S">
            <path d="M430,111 C430,114.57 431.418,117.994 433.943,120.519 C436.467,123.043 439.891,124.462 443.462,124.462 L456.923,124.462 C458.41,124.462 459.615,125.667 459.615,127.154 C459.615,128.641 458.41,129.846 456.923,129.846 L443.462,129.846 C433.053,129.846 424.615,121.408 424.615,111 C424.615,100.592 433.053,92.154 443.462,92.154 L456.923,92.154 C458.41,92.154 459.615,93.359 459.615,94.846 C459.615,96.333 458.41,97.538 456.923,97.538 L443.462,97.538 C439.891,97.538 436.467,98.957 433.943,101.481 C431.418,104.006 430,107.43 430,111 Z M486.538,92.154 L473.077,92.154 C471.59,92.154 470.385,93.359 470.385,94.846 C470.385,96.333 471.59,97.538 473.077,97.538 L486.538,97.538 C493.973,97.538 500,103.565 500,111 C500,118.435 493.973,124.462 486.538,124.462 L473.077,124.462 C471.59,124.462 470.385,125.667 470.385,127.154 C470.385,128.641 471.59,129.846 473.077,129.846 L486.538,129.846 C496.947,129.846 505.385,121.408 505.385,111 C505.385,100.592 496.947,92.154 486.538,92.154 Z" />
        </g>
        <g id="Black-S">
            <path d="M630,111 C630,114.57 631.418,117.994 633.943,120.519 C636.467,123.043 639.891,124.462 643.462,124.462 L656.923,124.462 C658.41,124.462 659.615,125.667 659.615,127.154 C659.615,128.641 658.41,129.846 656.923,129.846 L643.462,129.846 C633.053,129.846 624.615,121.408 624.615,111 C624.615,100.592 633.053,92.154 643.462,92.154 L656.923,92.154 C658.41,92.154 659.615,93.359 659.615,94.846 C659.615,96.333 658.41,97.538 656.923,97.538 L643.462,97.538 C639.891,97.538 636.467,98.957 633.943,101.481 C631.418,104.006 630,107.43 630,111 Z M686.538,92.154 L673.077,92.154 C671.59,92.154 670.385,93.359 670.385,94.846 C670.385,96.333 671.59,97.538 673.077,97.538 L686.538,97.538 C693.973,97.538 700,103.565 700,111 C700,118.435 693.973,124.462 686.538,124.462 L673.077,124.462 C671.59,124.462 670.385,125.667 670.385,127.154 C670.385,128.641 671.59,129.846 673.077,129.846 L686.538,129.846 C696.947,129.846 705.385,121.408 705.385,111 C705.385,100.592 696.947,92.154 686.538,92.154 Z" />
        </g>
    </g>
</svg>