<?xml version="1.0" encoding="UTF-8"?>
<svg height="600" width="800" xmlns="http://www.w3.org/2000/svg" xmlns:xlink="http://www.w3.org/1999/xlink">
    <g id="Notes" font-family="'LucidaGrande', 'Lucida Grande', sans-serif" font-size="13">
        <rect fill="white" height="600.0" width="800.0" x="0.0" y="0.0" />
        <g font-size="13">
            <text x="18.0" y="176.0">Small</text>
            <text x="18.0" y="376.0">Medium</text>
            <text x="18.0" y="576.0">Large</text>
        </g>
        <g font-size="9">
            <text x="250.0" y="30.0">Ultralight</text>
            <text x="450.0" y="30.0">Regular</text>
            <text x="650.0" y="30.0">Black</text>
            <text id="template-version" fill="#505050" text-anchor="end" x="785.0" y="575.0">Template v.3.0</text>
            <a href="https://github.com/swhitty/SwiftDraw">
                <text fill="#505050" text-anchor="end" x="785.0" y="590.0">https://github.com/swhitty/SwiftDraw</text>
            </a>
        </g>
    </g>
    <g id="Guides" stroke="rgb(39, 170, 225)" stroke-width="0.5">
        <path id="Capline-S" d="M18,76 l800,0" />
        <path id="H-reference" d="M85,145.755 L87.685,145.755 L113.369,79.287 L114.052,79.287 L114.052,76 L112.148,76 L85,145.755 Z M95.693,121.536 L130.996,121.536 L130.263,119.313 L96.474,119.313 L95.693,121.536 Z M139.15,145.755 L141.787,145.755 L114.638,76 L113.466,76 L113.466,79.287 L139.15,145.755 Z" stroke="none" />
        <path id="Baseline-S" d="M18,146 l800,0" />
        <path id="left-margin-Ultralight-S" d="M220,56 l0,110" />
        <path id="right-margin-Ultralight-S" d="M310,56 l0,110" />
        <path id="left-margin-Regular-S" d="M420,56 l0,110" />
        <path id="right-margin-Regular-S" d="M510,56 l0,110" />
        <path id="left-margin-Black-S" d="M620,56 l0,110" />
        <path id="right-margin-Black-S" d="M710,56 l0,110" />
        <path id="Capline-M" d="M18,276 l800,0" />
        <path id="Baseline-M" d="M18,346 l800,0" />
        <path id="Capline-L" d="M18,476 l800,0" />
        <path id="Baseline-L" d="M18,546 l800,0" />
    </g>
    <g id="Symbols">
        <g id="Ultralight-S">
            <path d="M302.692,111 L295.251,111 L302.494,93.163 C302.898,92.264 302.779,91.215 302.182,90.43 C301.585,89.645 300.607,89.249 299.632,89.398 C298.657,89.547 297.841,90.217 297.506,91.144 L289.429,111 L275.561,111 L267.484,91.144 C267.071,90.13 266.085,89.467 264.99,89.467 C263.895,89.467 262.909,90.13 262.496,91.144 L254.419,111 L240.561,111 L232.484,91.144 C231.89,89.824 230.359,89.21 229.018,89.753 C227.676,90.296 227.004,91.802 227.496,93.163 L234.738,111 L227.308,111 C225.821,111 224.615,112.205 224.615,113.692 C224.615,115.179 225.821,116.385 227.308,116.385 L236.936,116.385 L245.013,136.24 C245.426,137.255 246.412,137.918 247.507,137.918 C248.602,137.918 249.588,137.255 250,136.24 L258.077,116.385 L271.956,116.385 L280.033,136.24 C280.446,137.255 281.432,137.918 282.527,137.918 C283.622,137.918 284.608,137.255 285.021,136.24 L293.098,116.385 L302.692,116.385 C304.179,116.385 305.385,115.179 305.385,113.692 C305.385,112.205 304.179,111 302.692,111 Z M247.5,128.079 L242.748,116.385 L252.252,116.385 Z M260.248,111 L265,99.309 L269.752,111 Z M282.5,128.079 L277.748,116.385 L287.252,116.385 Z" />
        </g>
        <g id="Regular-S">
            <path d="M502.692,111 L495.251,111 L502.494,93.163 C502.898,92.264 502.779,91.215 502.182,90.43 C501.585,89.645 500.607,89.249 499.632,89.398 C498.657,89.547 497.841,90.217 497.506,91.144 L489.429,111 L475.561,111 L467.484,91.144 C467.071,90.13 466.085,89.467 464.99,89.467 C463.895,89.467 462.909,90.13 462.496,91.144 L454.419,111 L440.561,111 L432.484,91.144 C431.89,89.824 430.359,89.21 429.018,89.753 C427.676,90.296 427.004,91.802 427.496,93.163 L434.738,111 L427.308,111 C425.821,111 424.615,112.205 424.615,113.692 C424.615,115.179 425.821,116.385 427.308,116.385 L436.936,116.385 L445.013,136.24 C445.426,137.255 446.412,137.918 447.507,137.918 C448.602,137.918 449.588,137.255 450,136.24 L458.077,116.385 L471.956,116.385 L480.033,136.24 C480.446,137.255 481.432,137.918 482.527,137.918 C483.622,137.918 484.608,137.255 485.021,136.24 L493.098,116.385 L502.692,116.385 C504.179,116.385 505.385,115.179 505.385,113.692 C505.385,112.205 504.179,111 502.692,111 Z M447.5,128.079 L442.748,116.385 L452.252,116.385 Z M460.248,111 L465,99.309 L469.752,111 Z M482.5,128.079 L477.748,116.385 L487.252,116.385 Z" />
        </g>
        <g id="Black-S">
            <path d="M702.692,111 L695.251,111 L702.494,93.163 C702.898,92.264 702.779,91.215 702.182,90.43 C701.585,89.645 700.607,89.249 699.632,89.398 C698.657,89.547 697.841,90.217 697.506,91.144 L689.429,111 L675.561,111 L667.484,91.144 C667.071,90.13 666.085,89.467 664.99,89.467 C663.895,89.467 662.909,90.13 662.496,91.144 L654.419,111 L640.561,111 L632.484,91.144 C631.89,89.824 630.359,89.21 629.018,89.753 C627.676,90.296 627.004,91.802 627.496,93.163 L634.738,111 L627.308,111 C625.821,111 624.615,112.205 624.615,113.692 C624.615,115.179 625.821,116.385 627.308,116.385 L636.936,116.385 L645.013,136.24 C645.426,137.255 646.412,137.918 647.507,137.918 C648.602,137.918 649.588,137.255 650,136.24 L658.077,116.385 L671.956,116.385 L680.033,136.24 C680.446,137.255 681.432,137.918 682.527,137.918 C683.622,137.918 684.608,137.255 685.021,136.24 L693.098,116.385 L702.692,116.385 C704.179,116.385 705.385,115.179 705.385,113.692 C705.385,112.205 704.179,111 702.692,111 Z M647.5,128.079 L642.748,116.385 L652.252,116.385 Z M660.248,111 L665,99.309 L669.752,111 Z M682.5,128.079 L677.748,116.385 L687.252,116.385 Z" />
        </g>
    </g>
</svg>