<?xml version="1.0" encoding="UTF-8"?>
<svg height="600" width="800" xmlns="http://www.w3.org/2000/svg" xmlns:xlink="http://www.w3.org/1999/xlink">
    <g id="Notes" font-family="'LucidaGrande', 'Lucida Grande', sans-serif" font-size="13">
        <rect fill="white" height="600.0" width="800.0" x="0.0" y="0.0" />
        <g font-size="13">
            <text x="18.0" y="176.0">Small</text>
            <text x="18.0" y="376.0">Medium</text>
            <text x="18.0" y="576.0">Large</text>
        </g>
        <g font-size="9">
            <text x="250.0" y="30.0">Ultralight</text>
            <text x="450.0" y="30.0">Regular</text>
            <text x="650.0" y="30.0">Black</text>
            <text id="template-version" fill="#505050" text-anchor="end" x="785.0" y="575.0">Template v.3.0</text>
            <a href="https://github.com/swhitty/SwiftDraw">
                <text fill="#505050" text-anchor="end" x="785.0" y="590.0">https://github.com/swhitty/SwiftDraw</text>
            </a>
        </g>
    </g>
    <g id="Guides" stroke="rgb(39, 170, 225)" stroke-width="0.5">
        <path id="Capline-S" d="M18,76 l800,0" />
        <path id="H-reference" d="M85,145.755 L87.685,145.755 L113.369,79.287 L114.052,79.287 L114.052,76 L112.148,76 L85,145.755 Z M95.693,121.536 L130.996,121.536 L130.263,119.313 L96.474,119.313 L95.693,121.536 Z M139.15,145.755 L141.787,145.755 L114.638,76 L113.466,76 L113.466,79.287 L139.15,145.755 Z" stroke="none" />
        <path id="Baseline-S" d="M18,146 l800,0" />
        <path id="left-margin-Ultralight-S" d="M220,56 l0,110" />
        <path id="right-margin-Ultralight-S" d="M310,56 l0,110" />
        <path id="left-margin-Regular-S" d="M420,56 l0,110" />
        <path id="right-margin-Regular-S" d="M510,56 l0,110" />
        <path id="left-margin-Black-S" d="M620,56 l0,110" />
        <path id="right-margin-Black-S" d="M710,56 l0,110" />
        <path id="Capline-M" d="M18,276 l800,0" />
        <path id="Baseline-M" d="M18,346 l800,0" />
        <path id="Capline-L" d="M18,476 l800,0" />
        <path id="Baseline-L" d="M18,546 l800,0" />
    </g>
    <g id="Symbols">
        <g id="Ultralight-S">
            <path d="M293.828,111.788 C294.333,112.292 294.617,112.978 294.617,113.692 C294.617,114.407 294.333,115.092 293.828,115.597 L266.905,142.52 C266.4,143.026 265.715,143.31 265,143.31 C264.285,143.31 263.6,143.026 263.095,142.52 L236.172,115.597 C235.12,114.543 235.121,112.838 236.173,111.786 C237.226,110.735 238.931,110.736 239.983,111.789 L265,136.809 L290.018,111.788 C290.523,111.282 291.209,110.998 291.923,110.998 C292.638,110.998 293.323,111.282 293.828,111.788 Z M263.095,115.597 C263.6,116.103 264.285,116.387 265,116.387 C265.715,116.387 266.4,116.103 266.905,115.597 L293.828,88.674 C294.88,87.62 294.879,85.915 293.827,84.863 C292.774,83.812 291.069,83.813 290.017,84.865 L265,109.886 L239.982,84.864 C238.931,83.813 237.226,83.812 236.173,84.863 C235.121,85.915 235.12,87.62 236.171,88.673 Z" />
        </g>
        <g id="Regular-S">
            <path d="M493.828,111.788 C494.333,112.292 494.617,112.978 494.617,113.692 C494.617,114.407 494.333,115.092 493.828,115.597 L466.905,142.52 C466.4,143.026 465.715,143.31 465,143.31 C464.285,143.31 463.6,143.026 463.095,142.52 L436.172,115.597 C435.12,114.543 435.121,112.838 436.173,111.786 C437.226,110.735 438.931,110.736 439.983,111.789 L465,136.809 L490.018,111.788 C490.523,111.282 491.208,110.998 491.923,110.998 C492.638,110.998 493.323,111.282 493.828,111.788 Z M463.095,115.597 C463.6,116.103 464.285,116.387 465,116.387 C465.715,116.387 466.4,116.103 466.905,115.597 L493.828,88.674 C494.88,87.62 494.879,85.915 493.827,84.863 C492.774,83.812 491.069,83.813 490.017,84.865 L465,109.886 L439.982,84.864 C438.931,83.813 437.226,83.812 436.173,84.863 C435.121,85.915 435.12,87.62 436.171,88.673 Z" />
        </g>
        <g id="Black-S">
            <path d="M693.828,111.788 C694.333,112.292 694.618,112.978 694.618,113.692 C694.618,114.407 694.333,115.092 693.828,115.597 L666.905,142.52 C666.4,143.026 665.715,143.31 665,143.31 C664.285,143.31 663.6,143.026 663.095,142.52 L636.172,115.597 C635.12,114.543 635.121,112.838 636.173,111.786 C637.226,110.735 638.931,110.736 639.983,111.789 L665,136.809 L690.018,111.788 C690.523,111.282 691.209,110.998 691.923,110.998 C692.638,110.998 693.323,111.282 693.828,111.788 Z M663.095,115.597 C663.6,116.103 664.285,116.387 665,116.387 C665.715,116.387 666.4,116.103 666.905,115.597 L693.828,88.674 C694.88,87.62 694.879,85.915 693.827,84.863 C692.774,83.812 691.069,83.813 690.017,84.865 L665,109.886 L639.982,84.864 C638.931,83.813 637.226,83.812 636.173,84.863 C635.121,85.915 635.12,87.62 636.171,88.673 Z" />
        </g>
    </g>
</svg>