<?xml version="1.0" encoding="UTF-8"?>
<svg height="600" width="800" xmlns="http://www.w3.org/2000/svg" xmlns:xlink="http://www.w3.org/1999/xlink">
    <g id="Notes" font-family="'LucidaGrande', 'Lucida Grande', sans-serif" font-size="13">
        <rect fill="white" height="600.0" width="800.0" x="0.0" y="0.0" />
        <g font-size="13">
            <text x="18.0" y="176.0">Small</text>
            <text x="18.0" y="376.0">Medium</text>
            <text x="18.0" y="576.0">Large</text>
        </g>
        <g font-size="9">
            <text x="250.0" y="30.0">Ultralight</text>
            <text x="450.0" y="30.0">Regular</text>
            <text x="650.0" y="30.0">Black</text>
            <text id="template-version" fill="#505050" text-anchor="end" x="785.0" y="575.0">Template v.3.0</text>
            <a href="https://github.com/swhitty/SwiftDraw">
                <text fill="#505050" text-anchor="end" x="785.0" y="590.0">https://github.com/swhitty/SwiftDraw</text>
            </a>
        </g>
    </g>
    <g id="Guides" stroke="rgb(39, 170, 225)" stroke-width="0.5">
        <path id="Capline-S" d="M18,76 l800,0" />
        <path id="H-reference" d="M85,145.755 L87.685,145.755 L113.369,79.287 L114.052,79.287 L114.052,76 L112.148,76 L85,145.755 Z M95.693,121.536 L130.996,121.536 L130.263,119.313 L96.474,119.313 L95.693,121.536 Z M139.15,145.755 L141.787,145.755 L114.638,76 L113.466,76 L113.466,79.287 L139.15,145.755 Z" stroke="none" />
        <path id="Baseline-S" d="M18,146 l800,0" />
        <path id="left-margin-Ultralight-S" d="M220,56 l0,110" />
        <path id="right-margin-Ultralight-S" d="M310,56 l0,110" />
        <path id="left-margin-Regular-S" d="M420,56 l0,110" />
        <path id="right-margin-Regular-S" d="M510,56 l0,110" />
        <path id="left-margin-Black-S" d="M620,56 l0,110" />
        <path id="right-margin-Black-S" d="M710,56 l0,110" />
        <path id="Capline-M" d="M18,276 l800,0" />
        <path id="Baseline-M" d="M18,346 l800,0" />
        <path id="Capline-L" d="M18,476 l800,0" />
        <path id="Baseline-L" d="M18,546 l800,0" />
    </g>
    <g id="Symbols">
        <g id="Ultralight-S">
            <path d="M297.308,135.231 L294.615,135.231 L294.615,81.385 C294.615,80.671 294.332,79.986 293.827,79.481 C293.322,78.976 292.637,78.692 291.923,78.692 L273.077,78.692 C272.363,78.692 271.678,78.976 271.173,79.481 C270.668,79.986 270.385,80.671 270.385,81.385 L270.385,94.846 L254.231,94.846 C253.517,94.846 252.832,95.13 252.327,95.635 C251.822,96.14 251.538,96.824 251.538,97.538 L251.538,111 L238.077,111 C237.363,111 236.678,111.284 236.173,111.789 C235.668,112.293 235.385,112.978 235.385,113.692 L235.385,135.231 L232.692,135.231 C231.205,135.231 230,136.436 230,137.923 C230,139.41 231.205,140.615 232.692,140.615 L297.308,140.615 C298.795,140.615 300,139.41 300,137.923 C300,136.436 298.795,135.231 297.308,135.231 Z M275.769,84.077 L289.231,84.077 L289.231,135.231 L275.769,135.231 Z M256.923,100.231 L270.385,100.231 L270.385,135.231 L256.923,135.231 Z M240.769,116.385 L251.538,116.385 L251.538,135.231 L240.769,135.231 Z" />
        </g>
        <g id="Regular-S">
            <path d="M497.308,135.231 L494.615,135.231 L494.615,81.385 C494.615,80.671 494.332,79.986 493.827,79.481 C493.322,78.976 492.637,78.692 491.923,78.692 L473.077,78.692 C472.363,78.692 471.678,78.976 471.173,79.481 C470.668,79.986 470.385,80.671 470.385,81.385 L470.385,94.846 L454.231,94.846 C453.517,94.846 452.832,95.13 452.327,95.635 C451.822,96.14 451.538,96.824 451.538,97.538 L451.538,111 L438.077,111 C437.363,111 436.678,111.284 436.173,111.789 C435.668,112.293 435.385,112.978 435.385,113.692 L435.385,135.231 L432.692,135.231 C431.205,135.231 430,136.436 430,137.923 C430,139.41 431.205,140.615 432.692,140.615 L497.308,140.615 C498.795,140.615 500,139.41 500,137.923 C500,136.436 498.795,135.231 497.308,135.231 Z M475.769,84.077 L489.231,84.077 L489.231,135.231 L475.769,135.231 Z M456.923,100.231 L470.385,100.231 L470.385,135.231 L456.923,135.231 Z M440.769,116.385 L451.538,116.385 L451.538,135.231 L440.769,135.231 Z" />
        </g>
        <g id="Black-S">
            <path d="M697.308,135.231 L694.615,135.231 L694.615,81.385 C694.615,80.671 694.332,79.986 693.827,79.481 C693.322,78.976 692.637,78.692 691.923,78.692 L673.077,78.692 C672.363,78.692 671.678,78.976 671.173,79.481 C670.668,79.986 670.385,80.671 670.385,81.385 L670.385,94.846 L654.231,94.846 C653.517,94.846 652.832,95.13 652.327,95.635 C651.822,96.14 651.538,96.824 651.538,97.538 L651.538,111 L638.077,111 C637.363,111 636.678,111.284 636.173,111.789 C635.668,112.293 635.385,112.978 635.385,113.692 L635.385,135.231 L632.692,135.231 C631.205,135.231 630,136.436 630,137.923 C630,139.41 631.205,140.615 632.692,140.615 L697.308,140.615 C698.795,140.615 700,139.41 700,137.923 C700,136.436 698.795,135.231 697.308,135.231 Z M675.769,84.077 L689.231,84.077 L689.231,135.231 L675.769,135.231 Z M656.923,100.231 L670.385,100.231 L670.385,135.231 L656.923,135.231 Z M640.769,116.385 L651.538,116.385 L651.538,135.231 L640.769,135.231 Z" />
        </g>
    </g>
</svg>