<?xml version="1.0" encoding="UTF-8"?>
<svg height="600" width="800" xmlns="http://www.w3.org/2000/svg" xmlns:xlink="http://www.w3.org/1999/xlink">
    <g id="Notes" font-family="'LucidaGrande', 'Lucida Grande', sans-serif" font-size="13">
        <rect fill="white" height="600.0" width="800.0" x="0.0" y="0.0" />
        <g font-size="13">
            <text x="18.0" y="176.0">Small</text>
            <text x="18.0" y="376.0">Medium</text>
            <text x="18.0" y="576.0">Large</text>
        </g>
        <g font-size="9">
            <text x="250.0" y="30.0">Ultralight</text>
            <text x="450.0" y="30.0">Regular</text>
            <text x="650.0" y="30.0">Black</text>
            <text id="template-version" fill="#505050" text-anchor="end" x="785.0" y="575.0">Template v.3.0</text>
            <a href="https://github.com/swhitty/SwiftDraw">
                <text fill="#505050" text-anchor="end" x="785.0" y="590.0">https://github.com/swhitty/SwiftDraw</text>
            </a>
        </g>
    </g>
    <g id="Guides" stroke="rgb(39, 170, 225)" stroke-width="0.5">
        <path id="Capline-S" d="M18,76 l800,0" />
        <path id="H-reference" d="M85,145.755 L87.685,145.755 L113.369,79.287 L114.052,79.287 L114.052,76 L112.148,76 L85,145.755 Z M95.693,121.536 L130.996,121.536 L130.263,119.313 L96.474,119.313 L95.693,121.536 Z M139.15,145.755 L141.787,145.755 L114.638,76 L113.466,76 L113.466,79.287 L139.15,145.755 Z" stroke="none" />
        <path id="Baseline-S" d="M18,146 l800,0" />
        <path id="left-margin-Ultralight-S" d="M220,56 l0,110" />
        <path id="right-margin-Ultralight-S" d="M310,56 l0,110" />
        <path id="left-margin-Regular-S" d="M420,56 l0,110" />
        <path id="right-margin-Regular-S" d="M510,56 l0,110" />
        <path id="left-margin-Black-S" d="M620,56 l0,110" />
        <path id="right-margin-Black-S" d="M710,56 l0,110" />
        <path id="Capline-M" d="M18,276 l800,0" />
        <path id="Baseline-M" d="M18,346 l800,0" />
        <path id="Capline-L" d="M18,476 l800,0" />
        <path id="Baseline-L" d="M18,546 l800,0" />
    </g>
    <g id="Symbols">
        <g id="Ultralight-S">
            <path d="M265,76 C245.67,76 230,91.67 230,111 C230,130.33 245.67,146 265,146 C284.33,146 300,130.33 300,111 C299.979,91.677 284.32,76.02 264.999,76 Z M265,81.385 C275.014,81.389 284.347,86.453 289.81,94.846 L265,94.846 C258.026,94.854 251.841,99.33 249.654,105.952 L241.887,92.49 C247.502,85.468 256.008,81.381 265,81.385 Z M275.769,111 C275.769,116.948 270.948,121.769 265,121.769 C259.052,121.769 254.231,116.948 254.231,111 C254.231,105.052 259.052,100.231 265,100.231 C267.856,100.231 270.595,101.365 272.615,103.385 C274.635,105.405 275.769,108.144 275.769,111 Z M235.385,111 C235.379,106.337 236.482,101.739 238.602,97.585 L251.01,119.077 C251.03,119.111 251.054,119.141 251.074,119.171 C254.581,125.154 261.515,128.232 268.305,126.817 L260.531,140.279 C246.077,138.052 235.403,125.624 235.385,111 Z M266.578,140.572 L278.99,119.077 C279.017,119.03 279.037,118.983 279.064,118.936 C282.478,112.914 281.666,105.385 277.045,100.231 L292.596,100.231 C296.052,109.085 295.048,119.059 289.898,127.047 C284.747,135.035 276.076,140.065 266.585,140.572 Z" />
        </g>
        <g id="Regular-S">
            <path d="M465,76 C445.67,76 430,91.67 430,111 C430,130.33 445.67,146 465,146 C484.33,146 500,130.33 500,111 C499.979,91.677 484.32,76.02 464.999,76 Z M465,81.385 C475.014,81.389 484.347,86.453 489.81,94.846 L465,94.846 C458.026,94.854 451.841,99.33 449.654,105.952 L441.887,92.49 C447.502,85.468 456.008,81.381 465,81.385 Z M475.769,111 C475.769,116.948 470.948,121.769 465,121.769 C459.052,121.769 454.231,116.948 454.231,111 C454.231,105.052 459.052,100.231 465,100.231 C467.856,100.231 470.595,101.365 472.615,103.385 C474.635,105.405 475.769,108.144 475.769,111 Z M435.385,111 C435.379,106.337 436.482,101.739 438.602,97.585 L451.01,119.077 C451.03,119.111 451.054,119.141 451.074,119.171 C454.581,125.154 461.515,128.232 468.305,126.817 L460.531,140.279 C446.077,138.052 435.403,125.624 435.385,111 Z M466.578,140.572 L478.99,119.077 C479.017,119.03 479.037,118.983 479.064,118.936 C482.478,112.914 481.666,105.385 477.045,100.231 L492.596,100.231 C496.052,109.085 495.048,119.059 489.898,127.047 C484.747,135.035 476.076,140.065 466.585,140.572 Z" />
        </g>
        <g id="Black-S">
            <path d="M665,76 C645.67,76 630,91.67 630,111 C630,130.33 645.67,146 665,146 C684.33,146 700,130.33 700,111 C699.979,91.677 684.32,76.02 664.999,76 Z M665,81.385 C675.014,81.389 684.348,86.453 689.81,94.846 L665,94.846 C658.026,94.854 651.841,99.33 649.654,105.952 L641.887,92.49 C647.502,85.468 656.008,81.381 665,81.385 Z M675.769,111 C675.769,116.948 670.948,121.769 665,121.769 C659.052,121.769 654.231,116.948 654.231,111 C654.231,105.052 659.052,100.231 665,100.231 C667.856,100.231 670.595,101.365 672.615,103.385 C674.635,105.405 675.769,108.144 675.769,111 Z M635.385,111 C635.379,106.337 636.482,101.739 638.602,97.585 L651.01,119.077 C651.03,119.111 651.054,119.141 651.074,119.171 C654.581,125.154 661.515,128.232 668.305,126.817 L660.531,140.279 C646.077,138.052 635.403,125.624 635.385,111 Z M666.578,140.572 L678.99,119.077 C679.017,119.03 679.037,118.983 679.064,118.936 C682.478,112.914 681.666,105.385 677.045,100.231 L692.596,100.231 C696.052,109.085 695.048,119.059 689.898,127.047 C684.747,135.035 676.076,140.065 666.585,140.572 Z" />
        </g>
    </g>
</svg>