<?xml version="1.0" encoding="UTF-8"?>
<svg height="600" width="800" xmlns="http://www.w3.org/2000/svg" xmlns:xlink="http://www.w3.org/1999/xlink">
    <g id="Notes" font-family="'LucidaGrande', 'Lucida Grande', sans-serif" font-size="13">
        <rect fill="white" height="600.0" width="800.0" x="0.0" y="0.0" />
        <g font-size="13">
            <text x="18.0" y="176.0">Small</text>
            <text x="18.0" y="376.0">Medium</text>
            <text x="18.0" y="576.0">Large</text>
        </g>
        <g font-size="9">
            <text x="250.0" y="30.0">Ultralight</text>
            <text x="450.0" y="30.0">Regular</text>
            <text x="650.0" y="30.0">Black</text>
            <text id="template-version" fill="#505050" text-anchor="end" x="785.0" y="575.0">Template v.3.0</text>
            <a href="https://github.com/swhitty/SwiftDraw">
                <text fill="#505050" text-anchor="end" x="785.0" y="590.0">https://github.com/swhitty/SwiftDraw</text>
            </a>
        </g>
    </g>
    <g id="Guides" stroke="rgb(39, 170, 225)" stroke-width="0.5">
        <path id="Capline-S" d="M18,76 l800,0" />
        <path id="H-reference" d="M85,145.755 L87.685,145.755 L113.369,79.287 L114.052,79.287 L114.052,76 L112.148,76 L85,145.755 Z M95.693,121.536 L130.996,121.536 L130.263,119.313 L96.474,119.313 L95.693,121.536 Z M139.15,145.755 L141.787,145.755 L114.638,76 L113.466,76 L113.466,79.287 L139.15,145.755 Z" stroke="none" />
        <path id="Baseline-S" d="M18,146 l800,0" />
        <path id="left-margin-Ultralight-S" d="M220,56 l0,110" />
        <path id="right-margin-Ultralight-S" d="M310,56 l0,110" />
        <path id="left-margin-Regular-S" d="M420,56 l0,110" />
        <path id="right-margin-Regular-S" d="M510,56 l0,110" />
        <path id="left-margin-Black-S" d="M620,56 l0,110" />
        <path id="right-margin-Black-S" d="M710,56 l0,110" />
        <path id="Capline-M" d="M18,276 l800,0" />
        <path id="Baseline-M" d="M18,346 l800,0" />
        <path id="Capline-L" d="M18,476 l800,0" />
        <path id="Baseline-L" d="M18,546 l800,0" />
    </g>
    <g id="Symbols">
        <g id="Ultralight-S">
            <path d="M291.923,78.692 L238.077,78.692 C236.649,78.692 235.279,79.26 234.269,80.269 C233.26,81.279 232.692,82.649 232.692,84.077 L232.692,137.923 C232.692,139.351 233.26,140.721 234.269,141.731 C235.279,142.74 236.649,143.308 238.077,143.308 L291.923,143.308 C293.351,143.308 294.721,142.74 295.731,141.731 C296.74,140.721 297.308,139.351 297.308,137.923 L297.308,84.077 C297.308,82.649 296.74,81.279 295.731,80.269 C294.721,79.26 293.351,78.692 291.923,78.692 Z M291.923,137.923 L238.077,137.923 L238.077,84.077 L291.923,84.077 L291.923,137.923 Z M271.058,93.776 C266.649,91.232 261.12,91.714 257.219,94.985 C253.318,98.255 251.877,103.614 253.612,108.4 C255.348,113.185 259.889,116.375 264.98,116.385 C265.191,116.385 265.403,116.385 265.616,116.364 L259.996,125.788 C259.626,126.402 259.517,127.137 259.692,127.832 C259.867,128.527 260.312,129.123 260.928,129.489 C261.542,129.859 262.278,129.968 262.973,129.793 C263.667,129.618 264.264,129.173 264.63,128.557 L275.48,110.384 L275.503,110.35 L275.503,110.35 C277.112,107.563 277.548,104.251 276.714,101.142 C275.88,98.034 273.846,95.384 271.058,93.776 Z M270.832,107.635 L270.832,107.635 C268.974,110.854 264.858,111.958 261.639,110.101 C258.419,108.243 257.315,104.127 259.172,100.907 C261.03,97.688 265.145,96.583 268.365,98.44 C271.583,100.3 272.685,104.416 270.826,107.635 Z" />
        </g>
        <g id="Regular-S">
            <path d="M491.923,78.692 L438.077,78.692 C436.649,78.692 435.279,79.26 434.269,80.269 C433.26,81.279 432.692,82.649 432.692,84.077 L432.692,137.923 C432.692,139.351 433.26,140.721 434.269,141.731 C435.279,142.74 436.649,143.308 438.077,143.308 L491.923,143.308 C493.351,143.308 494.721,142.74 495.731,141.731 C496.74,140.721 497.308,139.351 497.308,137.923 L497.308,84.077 C497.308,82.649 496.74,81.279 495.731,80.269 C494.721,79.26 493.351,78.692 491.923,78.692 Z M491.923,137.923 L438.077,137.923 L438.077,84.077 L491.923,84.077 L491.923,137.923 Z M471.058,93.776 C466.649,91.232 461.12,91.714 457.219,94.985 C453.318,98.255 451.877,103.614 453.612,108.4 C455.348,113.185 459.889,116.375 464.98,116.385 C465.191,116.385 465.403,116.385 465.616,116.364 L459.996,125.788 C459.626,126.402 459.517,127.137 459.692,127.832 C459.867,128.527 460.312,129.123 460.928,129.489 C461.542,129.859 462.278,129.968 462.973,129.793 C463.667,129.618 464.264,129.173 464.63,128.557 L475.48,110.384 L475.503,110.35 L475.503,110.35 C477.112,107.563 477.548,104.251 476.714,101.142 C475.88,98.034 473.846,95.384 471.058,93.776 Z M470.832,107.635 L470.832,107.635 C468.974,110.854 464.858,111.958 461.639,110.101 C458.419,108.243 457.315,104.127 459.172,100.907 C461.03,97.688 465.145,96.583 468.365,98.44 C471.583,100.3 472.685,104.416 470.825,107.635 Z" />
        </g>
        <g id="Black-S">
            <path d="M691.923,78.692 L638.077,78.692 C636.649,78.692 635.279,79.26 634.269,80.269 C633.26,81.279 632.692,82.649 632.692,84.077 L632.692,137.923 C632.692,139.351 633.26,140.721 634.269,141.731 C635.279,142.74 636.649,143.308 638.077,143.308 L691.923,143.308 C693.351,143.308 694.721,142.74 695.731,141.731 C696.74,140.721 697.308,139.351 697.308,137.923 L697.308,84.077 C697.308,82.649 696.74,81.279 695.731,80.269 C694.721,79.26 693.351,78.692 691.923,78.692 Z M691.923,137.923 L638.077,137.923 L638.077,84.077 L691.923,84.077 L691.923,137.923 Z M671.058,93.776 C666.649,91.232 661.12,91.714 657.219,94.985 C653.318,98.255 651.877,103.614 653.612,108.4 C655.348,113.185 659.889,116.375 664.98,116.385 C665.191,116.385 665.403,116.385 665.616,116.364 L659.996,125.788 C659.626,126.402 659.517,127.137 659.692,127.832 C659.867,128.527 660.312,129.123 660.928,129.489 C661.542,129.859 662.278,129.968 662.973,129.793 C663.667,129.618 664.264,129.173 664.63,128.557 L675.48,110.384 L675.503,110.35 L675.503,110.35 C677.112,107.563 677.548,104.251 676.714,101.142 C675.88,98.034 673.846,95.384 671.058,93.776 Z M670.832,107.635 L670.832,107.635 C668.974,110.854 664.858,111.958 661.639,110.101 C658.419,108.243 657.315,104.127 659.172,100.907 C661.03,97.688 665.146,96.583 668.365,98.44 C671.583,100.3 672.685,104.416 670.826,107.635 Z" />
        </g>
    </g>
</svg>