<?xml version="1.0" encoding="UTF-8"?>
<svg height="600" width="800" xmlns="http://www.w3.org/2000/svg" xmlns:xlink="http://www.w3.org/1999/xlink">
    <g id="Notes" font-family="'LucidaGrande', 'Lucida Grande', sans-serif" font-size="13">
        <rect fill="white" height="600.0" width="800.0" x="0.0" y="0.0" />
        <g font-size="13">
            <text x="18.0" y="176.0">Small</text>
            <text x="18.0" y="376.0">Medium</text>
            <text x="18.0" y="576.0">Large</text>
        </g>
        <g font-size="9">
            <text x="250.0" y="30.0">Ultralight</text>
            <text x="450.0" y="30.0">Regular</text>
            <text x="650.0" y="30.0">Black</text>
            <text id="template-version" fill="#505050" text-anchor="end" x="785.0" y="575.0">Template v.3.0</text>
            <a href="https://github.com/swhitty/SwiftDraw">
                <text fill="#505050" text-anchor="end" x="785.0" y="590.0">https://github.com/swhitty/SwiftDraw</text>
            </a>
        </g>
    </g>
    <g id="Guides" stroke="rgb(39, 170, 225)" stroke-width="0.5">
        <path id="Capline-S" d="M18,76 l800,0" />
        <path id="H-reference" d="M85,145.755 L87.685,145.755 L113.369,79.287 L114.052,79.287 L114.052,76 L112.148,76 L85,145.755 Z M95.693,121.536 L130.996,121.536 L130.263,119.313 L96.474,119.313 L95.693,121.536 Z M139.15,145.755 L141.787,145.755 L114.638,76 L113.466,76 L113.466,79.287 L139.15,145.755 Z" stroke="none" />
        <path id="Baseline-S" d="M18,146 l800,0" />
        <path id="left-margin-Ultralight-S" d="M220,56 l0,110" />
        <path id="right-margin-Ultralight-S" d="M310,56 l0,110" />
        <path id="left-margin-Regular-S" d="M420,56 l0,110" />
        <path id="right-margin-Regular-S" d="M510,56 l0,110" />
        <path id="left-margin-Black-S" d="M620,56 l0,110" />
        <path id="right-margin-Black-S" d="M710,56 l0,110" />
        <path id="Capline-M" d="M18,276 l800,0" />
        <path id="Baseline-M" d="M18,346 l800,0" />
        <path id="Capline-L" d="M18,476 l800,0" />
        <path id="Baseline-L" d="M18,546 l800,0" />
    </g>
    <g id="Symbols">
        <g id="Ultralight-S">
            <path d="M302.692,86.769 L302.692,102.923 C302.692,103.637 302.409,104.322 301.904,104.827 C301.399,105.332 300.714,105.615 300,105.615 L283.846,105.615 C282.359,105.615 281.154,104.41 281.154,102.923 C281.154,101.436 282.359,100.231 283.846,100.231 L293.067,100.231 L284.119,92.033 L284.035,91.952 C273.591,81.513 256.689,81.433 246.148,91.773 C235.606,102.113 235.36,119.014 245.596,129.656 C255.832,140.299 272.73,140.711 283.473,130.58 C284.552,129.558 286.257,129.605 287.28,130.685 C288.302,131.765 288.256,133.47 287.175,134.493 C281.19,140.17 273.25,143.326 265,143.308 L264.556,143.308 C249.997,143.108 237.37,133.195 233.721,119.099 C230.073,105.003 236.304,90.209 248.937,82.97 C261.571,75.732 277.486,77.839 287.8,88.115 L297.308,96.798 L297.308,86.769 C297.308,85.282 298.513,84.077 300,84.077 C301.487,84.077 302.692,85.282 302.692,86.769 Z" />
        </g>
        <g id="Regular-S">
            <path d="M502.692,86.769 L502.692,102.923 C502.692,103.637 502.409,104.322 501.904,104.827 C501.399,105.332 500.714,105.615 500,105.615 L483.846,105.615 C482.359,105.615 481.154,104.41 481.154,102.923 C481.154,101.436 482.359,100.231 483.846,100.231 L493.067,100.231 L484.119,92.033 L484.035,91.952 C473.591,81.513 456.689,81.433 446.148,91.773 C435.606,102.113 435.36,119.014 445.596,129.656 C455.832,140.299 472.73,140.711 483.473,130.58 C484.552,129.558 486.257,129.605 487.28,130.685 C488.302,131.765 488.256,133.47 487.175,134.493 C481.19,140.17 473.25,143.326 465,143.308 L464.556,143.308 C449.997,143.108 437.37,133.195 433.721,119.099 C430.073,105.003 436.304,90.209 448.937,82.97 C461.571,75.732 477.486,77.839 487.8,88.115 L497.308,96.798 L497.308,86.769 C497.308,85.282 498.513,84.077 500,84.077 C501.487,84.077 502.692,85.282 502.692,86.769 Z" />
        </g>
        <g id="Black-S">
            <path d="M702.692,86.769 L702.692,102.923 C702.692,103.637 702.409,104.322 701.904,104.827 C701.399,105.332 700.714,105.615 700,105.615 L683.846,105.615 C682.359,105.615 681.154,104.41 681.154,102.923 C681.154,101.436 682.359,100.231 683.846,100.231 L693.067,100.231 L684.119,92.033 L684.035,91.952 C673.591,81.513 656.689,81.433 646.148,91.773 C635.606,102.113 635.36,119.014 645.596,129.656 C655.832,140.299 672.73,140.711 683.473,130.58 C684.552,129.558 686.257,129.605 687.28,130.685 C688.302,131.765 688.256,133.47 687.175,134.493 C681.19,140.17 673.25,143.326 665,143.308 L664.556,143.308 C649.997,143.108 637.37,133.195 633.721,119.099 C630.073,105.003 636.304,90.209 648.937,82.97 C661.571,75.732 677.486,77.839 687.8,88.115 L697.308,96.798 L697.308,86.769 C697.308,85.282 698.513,84.077 700,84.077 C701.487,84.077 702.692,85.282 702.692,86.769 Z" />
        </g>
    </g>
</svg>