<?xml version="1.0" encoding="UTF-8"?>
<svg height="600" width="800" xmlns="http://www.w3.org/2000/svg" xmlns:xlink="http://www.w3.org/1999/xlink">
    <g id="Notes" font-family="'LucidaGrande', 'Lucida Grande', sans-serif" font-size="13">
        <rect fill="white" height="600.0" width="800.0" x="0.0" y="0.0" />
        <g font-size="13">
            <text x="18.0" y="176.0">Small</text>
            <text x="18.0" y="376.0">Medium</text>
            <text x="18.0" y="576.0">Large</text>
        </g>
        <g font-size="9">
            <text x="250.0" y="30.0">Ultralight</text>
            <text x="450.0" y="30.0">Regular</text>
            <text x="650.0" y="30.0">Black</text>
            <text id="template-version" fill="#505050" text-anchor="end" x="785.0" y="575.0">Template v.3.0</text>
            <a href="https://github.com/swhitty/SwiftDraw">
                <text fill="#505050" text-anchor="end" x="785.0" y="590.0">https://github.com/swhitty/SwiftDraw</text>
            </a>
        </g>
    </g>
    <g id="Guides" stroke="rgb(39, 170, 225)" stroke-width="0.5">
        <path id="Capline-S" d="M18,76 l800,0" />
        <path id="H-reference" d="M85,145.755 L87.685,145.755 L113.369,79.287 L114.052,79.287 L114.052,76 L112.148,76 L85,145.755 Z M95.693,121.536 L130.996,121.536 L130.263,119.313 L96.474,119.313 L95.693,121.536 Z M139.15,145.755 L141.787,145.755 L114.638,76 L113.466,76 L113.466,79.287 L139.15,145.755 Z" stroke="none" />
        <path id="Baseline-S" d="M18,146 l800,0" />
        <path id="left-margin-Ultralight-S" d="M220,56 l0,110" />
        <path id="right-margin-Ultralight-S" d="M310,56 l0,110" />
        <path id="left-margin-Regular-S" d="M420,56 l0,110" />
        <path id="right-margin-Regular-S" d="M510,56 l0,110" />
        <path id="left-margin-Black-S" d="M620,56 l0,110" />
        <path id="right-margin-Black-S" d="M710,56 l0,110" />
        <path id="Capline-M" d="M18,276 l800,0" />
        <path id="Baseline-M" d="M18,346 l800,0" />
        <path id="Capline-L" d="M18,476 l800,0" />
        <path id="Baseline-L" d="M18,546 l800,0" />
    </g>
    <g id="Symbols">
        <g id="Ultralight-S">
            <path d="M301.205,111.283 L275.769,98.568 L275.769,84.077 C275.769,78.129 270.948,73.308 265,73.308 C259.052,73.308 254.231,78.129 254.231,84.077 L254.231,98.568 L228.795,111.283 C227.883,111.739 227.307,112.672 227.308,113.692 L227.308,124.462 C227.308,125.268 227.67,126.032 228.294,126.543 C228.917,127.054 229.737,127.258 230.528,127.1 L254.231,122.362 L254.231,128.732 L249.634,133.326 C249.129,133.831 248.846,134.517 248.846,135.231 L248.846,146 C248.845,146.896 249.289,147.734 250.031,148.236 C250.774,148.737 251.717,148.837 252.548,148.5 L265,143.516 L277.452,148.5 C278.283,148.837 279.226,148.737 279.969,148.236 C280.711,147.734 281.155,146.896 281.154,146 L281.154,135.231 C281.154,134.517 280.871,133.831 280.366,133.326 L275.769,128.732 L275.769,122.362 L299.472,127.1 C300.262,127.258 301.082,127.054 301.706,126.543 C302.33,126.032 302.692,125.268 302.692,124.462 L302.692,113.692 C302.693,112.672 302.117,111.739 301.205,111.283 Z M297.308,121.177 L273.605,116.438 C272.815,116.28 271.995,116.485 271.371,116.996 C270.747,117.507 270.385,118.271 270.385,119.077 L270.385,129.846 C270.384,130.56 270.667,131.245 271.172,131.751 L275.769,136.345 L275.769,142.022 L266.01,138.115 C265.368,137.858 264.652,137.858 264.011,138.115 L254.231,142.022 L254.231,136.345 L258.828,131.751 C259.333,131.246 259.616,130.56 259.615,129.846 L259.615,119.077 C259.615,118.271 259.253,117.507 258.629,116.996 C258.006,116.485 257.186,116.28 256.395,116.438 L232.692,121.177 L232.692,115.355 L258.128,102.64 C259.04,102.184 259.616,101.251 259.615,100.231 L259.615,84.077 C259.615,81.103 262.026,78.692 265,78.692 C267.974,78.692 270.385,81.103 270.385,84.077 L270.385,100.231 C270.384,101.251 270.96,102.184 271.872,102.641 L297.308,115.355 Z" />
        </g>
        <g id="Regular-S">
            <path d="M501.205,111.283 L475.769,98.568 L475.769,84.077 C475.769,78.129 470.948,73.308 465,73.308 C459.052,73.308 454.231,78.129 454.231,84.077 L454.231,98.568 L428.795,111.283 C427.883,111.739 427.307,112.672 427.308,113.692 L427.308,124.462 C427.308,125.268 427.67,126.032 428.294,126.543 C428.917,127.054 429.737,127.258 430.528,127.1 L454.231,122.362 L454.231,128.732 L449.634,133.326 C449.129,133.831 448.846,134.517 448.846,135.231 L448.846,146 C448.845,146.896 449.289,147.734 450.031,148.236 C450.774,148.737 451.717,148.837 452.548,148.5 L465,143.516 L477.452,148.5 C478.283,148.837 479.226,148.737 479.969,148.236 C480.711,147.734 481.155,146.896 481.154,146 L481.154,135.231 C481.154,134.517 480.871,133.831 480.366,133.326 L475.769,128.732 L475.769,122.362 L499.472,127.1 C500.262,127.258 501.082,127.054 501.706,126.543 C502.33,126.032 502.692,125.268 502.692,124.462 L502.692,113.692 C502.693,112.672 502.117,111.739 501.205,111.283 Z M497.308,121.177 L473.605,116.438 C472.815,116.28 471.995,116.485 471.371,116.996 C470.747,117.507 470.385,118.271 470.385,119.077 L470.385,129.846 C470.384,130.56 470.667,131.245 471.172,131.751 L475.769,136.345 L475.769,142.022 L466.01,138.115 C465.368,137.858 464.652,137.858 464.011,138.115 L454.231,142.022 L454.231,136.345 L458.828,131.751 C459.333,131.246 459.616,130.56 459.615,129.846 L459.615,119.077 C459.615,118.271 459.253,117.507 458.629,116.996 C458.006,116.485 457.186,116.28 456.395,116.438 L432.692,121.177 L432.692,115.355 L458.128,102.64 C459.04,102.184 459.616,101.251 459.615,100.231 L459.615,84.077 C459.615,81.103 462.026,78.692 465,78.692 C467.974,78.692 470.385,81.103 470.385,84.077 L470.385,100.231 C470.384,101.251 470.96,102.184 471.872,102.641 L497.308,115.355 Z" />
        </g>
        <g id="Black-S">
            <path d="M701.205,111.283 L675.769,98.568 L675.769,84.077 C675.769,78.129 670.948,73.308 665,73.308 C659.052,73.308 654.231,78.129 654.231,84.077 L654.231,98.568 L628.795,111.283 C627.883,111.739 627.307,112.672 627.308,113.692 L627.308,124.462 C627.308,125.268 627.67,126.032 628.294,126.543 C628.917,127.054 629.737,127.258 630.528,127.1 L654.231,122.362 L654.231,128.732 L649.634,133.326 C649.129,133.831 648.846,134.517 648.846,135.231 L648.846,146 C648.845,146.896 649.289,147.734 650.031,148.236 C650.774,148.737 651.717,148.837 652.548,148.5 L665,143.516 L677.452,148.5 C678.283,148.837 679.226,148.737 679.969,148.236 C680.711,147.734 681.155,146.896 681.154,146 L681.154,135.231 C681.154,134.517 680.871,133.831 680.366,133.326 L675.769,128.732 L675.769,122.362 L699.472,127.1 C700.262,127.258 701.082,127.054 701.706,126.543 C702.33,126.032 702.692,125.268 702.692,124.462 L702.692,113.692 C702.693,112.672 702.117,111.739 701.205,111.283 Z M697.308,121.177 L673.605,116.438 C672.815,116.28 671.995,116.485 671.371,116.996 C670.747,117.507 670.385,118.271 670.385,119.077 L670.385,129.846 C670.384,130.56 670.667,131.245 671.172,131.751 L675.769,136.345 L675.769,142.022 L666.01,138.115 C665.368,137.858 664.652,137.858 664.011,138.115 L654.231,142.022 L654.231,136.345 L658.828,131.751 C659.333,131.246 659.616,130.56 659.615,129.846 L659.615,119.077 C659.615,118.271 659.253,117.507 658.629,116.996 C658.006,116.485 657.186,116.28 656.395,116.438 L632.692,121.177 L632.692,115.355 L658.128,102.64 C659.04,102.184 659.616,101.251 659.615,100.231 L659.615,84.077 C659.615,81.103 662.026,78.692 665,78.692 C667.974,78.692 670.385,81.103 670.385,84.077 L670.385,100.231 C670.384,101.251 670.96,102.184 671.872,102.641 L697.308,115.355 Z" />
        </g>
    </g>
</svg>