<?xml version="1.0" encoding="UTF-8"?>
<svg height="600" width="800" xmlns="http://www.w3.org/2000/svg" xmlns:xlink="http://www.w3.org/1999/xlink">
    <g id="Notes" font-family="'LucidaGrande', 'Lucida Grande', sans-serif" font-size="13">
        <rect fill="white" height="600.0" width="800.0" x="0.0" y="0.0" />
        <g font-size="13">
            <text x="18.0" y="176.0">Small</text>
            <text x="18.0" y="376.0">Medium</text>
            <text x="18.0" y="576.0">Large</text>
        </g>
        <g font-size="9">
            <text x="250.0" y="30.0">Ultralight</text>
            <text x="450.0" y="30.0">Regular</text>
            <text x="650.0" y="30.0">Black</text>
            <text id="template-version" fill="#505050" text-anchor="end" x="785.0" y="575.0">Template v.3.0</text>
            <a href="https://github.com/swhitty/SwiftDraw">
                <text fill="#505050" text-anchor="end" x="785.0" y="590.0">https://github.com/swhitty/SwiftDraw</text>
            </a>
        </g>
    </g>
    <g id="Guides" stroke="rgb(39, 170, 225)" stroke-width="0.5">
        <path id="Capline-S" d="M18,76 l800,0" />
        <path id="H-reference" d="M85,145.755 L87.685,145.755 L113.369,79.287 L114.052,79.287 L114.052,76 L112.148,76 L85,145.755 Z M95.693,121.536 L130.996,121.536 L130.263,119.313 L96.474,119.313 L95.693,121.536 Z M139.15,145.755 L141.787,145.755 L114.638,76 L113.466,76 L113.466,79.287 L139.15,145.755 Z" stroke="none" />
        <path id="Baseline-S" d="M18,146 l800,0" />
        <path id="left-margin-Ultralight-S" d="M220,56 l0,110" />
        <path id="right-margin-Ultralight-S" d="M310,56 l0,110" />
        <path id="left-margin-Regular-S" d="M420,56 l0,110" />
        <path id="right-margin-Regular-S" d="M510,56 l0,110" />
        <path id="left-margin-Black-S" d="M620,56 l0,110" />
        <path id="right-margin-Black-S" d="M710,56 l0,110" />
        <path id="Capline-M" d="M18,276 l800,0" />
        <path id="Baseline-M" d="M18,346 l800,0" />
        <path id="Capline-L" d="M18,476 l800,0" />
        <path id="Baseline-L" d="M18,546 l800,0" />
    </g>
    <g id="Symbols">
        <g id="Ultralight-S">
            <path d="M305.152,109.91 C305.035,109.644 302.184,103.32 295.847,96.983 C287.403,88.539 276.738,84.077 265,84.077 C253.262,84.077 242.597,88.539 234.153,96.983 C227.816,103.32 224.952,109.654 224.848,109.91 C224.538,110.606 224.538,111.401 224.848,112.097 C224.965,112.363 227.816,118.683 234.153,125.02 C242.597,133.461 253.262,137.923 265,137.923 C276.738,137.923 287.403,133.461 295.847,125.02 C302.184,118.683 305.035,112.363 305.152,112.097 C305.462,111.401 305.462,110.606 305.152,109.91 Z M265,132.538 C254.641,132.538 245.592,128.773 238.1,121.349 C235.027,118.292 232.412,114.806 230.337,111 C232.411,107.194 235.026,103.708 238.1,100.651 C245.592,93.227 254.641,89.462 265,89.462 C275.359,89.462 284.408,93.227 291.9,100.651 C294.979,103.707 297.6,107.193 299.68,111 C297.254,115.53 286.683,132.538 265,132.538 Z M265,94.846 C256.078,94.846 248.846,102.078 248.846,111 C248.846,119.922 256.078,127.154 265,127.154 C273.922,127.154 281.154,119.922 281.154,111 C281.145,102.082 273.918,94.855 265,94.846 Z M265,121.769 C259.052,121.769 254.231,116.948 254.231,111 C254.231,105.052 259.052,100.231 265,100.231 C270.948,100.231 275.769,105.052 275.769,111 C275.769,113.856 274.635,116.595 272.615,118.615 C270.595,120.635 267.856,121.769 265,121.769 Z" />
        </g>
        <g id="Regular-S">
            <path d="M505.152,109.91 C505.035,109.644 502.184,103.32 495.847,96.983 C487.403,88.539 476.738,84.077 465,84.077 C453.262,84.077 442.597,88.539 434.153,96.983 C427.816,103.32 424.952,109.654 424.848,109.91 C424.538,110.606 424.538,111.401 424.848,112.097 C424.965,112.363 427.816,118.683 434.153,125.02 C442.597,133.461 453.262,137.923 465,137.923 C476.738,137.923 487.403,133.461 495.847,125.02 C502.184,118.683 505.035,112.363 505.152,112.097 C505.462,111.401 505.462,110.606 505.152,109.91 Z M465,132.538 C454.641,132.538 445.592,128.773 438.1,121.349 C435.027,118.292 432.412,114.806 430.337,111 C432.411,107.194 435.026,103.708 438.1,100.651 C445.592,93.227 454.641,89.462 465,89.462 C475.359,89.462 484.408,93.227 491.9,100.651 C494.979,103.707 497.6,107.193 499.68,111 C497.254,115.53 486.683,132.538 465,132.538 Z M465,94.846 C456.078,94.846 448.846,102.078 448.846,111 C448.846,119.922 456.078,127.154 465,127.154 C473.922,127.154 481.154,119.922 481.154,111 C481.145,102.082 473.918,94.855 465,94.846 Z M465,121.769 C459.052,121.769 454.231,116.948 454.231,111 C454.231,105.052 459.052,100.231 465,100.231 C470.948,100.231 475.769,105.052 475.769,111 C475.769,113.856 474.635,116.595 472.615,118.615 C470.595,120.635 467.856,121.769 465,121.769 Z" />
        </g>
        <g id="Black-S">
            <path d="M705.152,109.91 C705.035,109.644 702.184,103.32 695.847,96.983 C687.403,88.539 676.738,84.077 665,84.077 C653.262,84.077 642.597,88.539 634.153,96.983 C627.816,103.32 624.952,109.654 624.848,109.91 C624.538,110.606 624.538,111.401 624.848,112.097 C624.965,112.363 627.816,118.683 634.153,125.02 C642.597,133.461 653.262,137.923 665,137.923 C676.738,137.923 687.403,133.461 695.847,125.02 C702.184,118.683 705.035,112.363 705.152,112.097 C705.462,111.401 705.462,110.606 705.152,109.91 Z M665,132.538 C654.641,132.538 645.592,128.773 638.101,121.349 C635.027,118.292 632.412,114.806 630.337,111 C632.411,107.194 635.026,103.708 638.101,100.651 C645.592,93.227 654.641,89.462 665,89.462 C675.359,89.462 684.408,93.227 691.9,100.651 C694.979,103.707 697.6,107.193 699.68,111 C697.254,115.53 686.683,132.538 665,132.538 Z M665,94.846 C656.078,94.846 648.846,102.078 648.846,111 C648.846,119.922 656.078,127.154 665,127.154 C673.922,127.154 681.154,119.922 681.154,111 C681.145,102.082 673.918,94.855 665,94.846 Z M665,121.769 C659.052,121.769 654.231,116.948 654.231,111 C654.231,105.052 659.052,100.231 665,100.231 C670.948,100.231 675.769,105.052 675.769,111 C675.769,113.856 674.635,116.595 672.615,118.615 C670.595,120.635 667.856,121.769 665,121.769 Z" />
        </g>
    </g>
</svg>