<?xml version="1.0" encoding="UTF-8"?>
<svg height="600" width="800" xmlns="http://www.w3.org/2000/svg" xmlns:xlink="http://www.w3.org/1999/xlink">
    <g id="Notes" font-family="'LucidaGrande', 'Lucida Grande', sans-serif" font-size="13">
        <rect fill="white" height="600.0" width="800.0" x="0.0" y="0.0" />
        <g font-size="13">
            <text x="18.0" y="176.0">Small</text>
            <text x="18.0" y="376.0">Medium</text>
            <text x="18.0" y="576.0">Large</text>
        </g>
        <g font-size="9">
            <text x="250.0" y="30.0">Ultralight</text>
            <text x="450.0" y="30.0">Regular</text>
            <text x="650.0" y="30.0">Black</text>
            <text id="template-version" fill="#505050" text-anchor="end" x="785.0" y="575.0">Template v.3.0</text>
            <a href="https://github.com/swhitty/SwiftDraw">
                <text fill="#505050" text-anchor="end" x="785.0" y="590.0">https://github.com/swhitty/SwiftDraw</text>
            </a>
        </g>
    </g>
    <g id="Guides" stroke="rgb(39, 170, 225)" stroke-width="0.5">
        <path id="Capline-S" d="M18,76 l800,0" />
        <path id="H-reference" d="M85,145.755 L87.685,145.755 L113.369,79.287 L114.052,79.287 L114.052,76 L112.148,76 L85,145.755 Z M95.693,121.536 L130.996,121.536 L130.263,119.313 L96.474,119.313 L95.693,121.536 Z M139.15,145.755 L141.787,145.755 L114.638,76 L113.466,76 L113.466,79.287 L139.15,145.755 Z" stroke="none" />
        <path id="Baseline-S" d="M18,146 l800,0" />
        <path id="left-margin-Ultralight-S" d="M220,56 l0,110" />
        <path id="right-margin-Ultralight-S" d="M310,56 l0,110" />
        <path id="left-margin-Regular-S" d="M420,56 l0,110" />
        <path id="right-margin-Regular-S" d="M510,56 l0,110" />
        <path id="left-margin-Black-S" d="M620,56 l0,110" />
        <path id="right-margin-Black-S" d="M710,56 l0,110" />
        <path id="Capline-M" d="M18,276 l800,0" />
        <path id="Baseline-M" d="M18,346 l800,0" />
        <path id="Capline-L" d="M18,476 l800,0" />
        <path id="Baseline-L" d="M18,546 l800,0" />
    </g>
    <g id="Symbols">
        <g id="Ultralight-S">
            <path d="M297.308,116.385 L297.308,137.923 C297.308,138.637 297.024,139.322 296.519,139.827 C296.014,140.332 295.329,140.615 294.615,140.615 L235.385,140.615 C234.671,140.615 233.986,140.332 233.481,139.827 C232.976,139.322 232.692,138.637 232.692,137.923 L232.692,116.385 C232.692,114.898 233.898,113.692 235.385,113.692 C236.872,113.692 238.077,114.898 238.077,116.385 L238.077,135.231 L291.923,135.231 L291.923,116.385 C291.923,114.898 293.128,113.692 294.615,113.692 C296.102,113.692 297.308,114.898 297.308,116.385 Z M263.095,118.289 C263.6,118.795 264.285,119.079 265,119.079 C265.715,119.079 266.4,118.795 266.905,118.289 L280.366,104.828 C281.419,103.774 281.418,102.069 280.365,101.017 C279.313,99.966 277.607,99.967 276.556,101.019 L267.692,109.886 L267.692,78.692 C267.692,77.205 266.487,76 265,76 C263.513,76 262.308,77.205 262.308,78.692 L262.308,109.886 L253.443,101.018 C252.393,99.967 250.687,99.966 249.635,101.017 C248.582,102.069 248.581,103.774 249.633,104.827 Z" />
        </g>
        <g id="Regular-S">
            <path d="M497.308,116.385 L497.308,137.923 C497.308,138.637 497.024,139.322 496.519,139.827 C496.014,140.332 495.329,140.615 494.615,140.615 L435.385,140.615 C434.671,140.615 433.986,140.332 433.481,139.827 C432.976,139.322 432.692,138.637 432.692,137.923 L432.692,116.385 C432.692,114.898 433.898,113.692 435.385,113.692 C436.872,113.692 438.077,114.898 438.077,116.385 L438.077,135.231 L491.923,135.231 L491.923,116.385 C491.923,114.898 493.128,113.692 494.615,113.692 C496.102,113.692 497.308,114.898 497.308,116.385 Z M463.095,118.289 C463.6,118.795 464.285,119.079 465,119.079 C465.715,119.079 466.4,118.795 466.905,118.289 L480.366,104.828 C481.419,103.774 481.418,102.069 480.365,101.017 C479.313,99.966 477.607,99.967 476.556,101.019 L467.692,109.886 L467.692,78.692 C467.692,77.205 466.487,76 465,76 C463.513,76 462.308,77.205 462.308,78.692 L462.308,109.886 L453.443,101.018 C452.393,99.967 450.687,99.966 449.635,101.017 C448.582,102.069 448.581,103.774 449.633,104.827 Z" />
        </g>
        <g id="Black-S">
            <path d="M697.308,116.385 L697.308,137.923 C697.308,138.637 697.024,139.322 696.519,139.827 C696.014,140.332 695.329,140.615 694.615,140.615 L635.385,140.615 C634.671,140.615 633.986,140.332 633.481,139.827 C632.976,139.322 632.692,138.637 632.692,137.923 L632.692,116.385 C632.692,114.898 633.898,113.692 635.385,113.692 C636.872,113.692 638.077,114.898 638.077,116.385 L638.077,135.231 L691.923,135.231 L691.923,116.385 C691.923,114.898 693.128,113.692 694.615,113.692 C696.102,113.692 697.308,114.898 697.308,116.385 Z M663.095,118.289 C663.6,118.795 664.285,119.079 665,119.079 C665.715,119.079 666.4,118.795 666.905,118.289 L680.366,104.828 C681.419,103.774 681.418,102.069 680.365,101.017 C679.313,99.966 677.607,99.967 676.556,101.019 L667.692,109.886 L667.692,78.692 C667.692,77.205 666.487,76 665,76 C663.513,76 662.308,77.205 662.308,78.692 L662.308,109.886 L653.443,101.018 C652.393,99.967 650.687,99.966 649.635,101.017 C648.582,102.069 648.581,103.774 649.633,104.827 Z" />
        </g>
    </g>
</svg>