<?xml version="1.0" encoding="UTF-8"?>
<svg height="600" width="800" xmlns="http://www.w3.org/2000/svg" xmlns:xlink="http://www.w3.org/1999/xlink">
    <g id="Notes" font-family="'LucidaGrande', 'Lucida Grande', sans-serif" font-size="13">
        <rect fill="white" height="600.0" width="800.0" x="0.0" y="0.0" />
        <g font-size="13">
            <text x="18.0" y="176.0">Small</text>
            <text x="18.0" y="376.0">Medium</text>
            <text x="18.0" y="576.0">Large</text>
        </g>
        <g font-size="9">
            <text x="250.0" y="30.0">Ultralight</text>
            <text x="450.0" y="30.0">Regular</text>
            <text x="650.0" y="30.0">Black</text>
            <text id="template-version" fill="#505050" text-anchor="end" x="785.0" y="575.0">Template v.3.0</text>
            <a href="https://github.com/swhitty/SwiftDraw">
                <text fill="#505050" text-anchor="end" x="785.0" y="590.0">https://github.com/swhitty/SwiftDraw</text>
            </a>
        </g>
    </g>
    <g id="Guides" stroke="rgb(39, 170, 225)" stroke-width="0.5">
        <path id="Capline-S" d="M18,76 l800,0" />
        <path id="H-reference" d="M85,145.755 L87.685,145.755 L113.369,79.287 L114.052,79.287 L114.052,76 L112.148,76 L85,145.755 Z M95.693,121.536 L130.996,121.536 L130.263,119.313 L96.474,119.313 L95.693,121.536 Z M139.15,145.755 L141.787,145.755 L114.638,76 L113.466,76 L113.466,79.287 L139.15,145.755 Z" stroke="none" />
        <path id="Baseline-S" d="M18,146 l800,0" />
        <path id="left-margin-Ultralight-S" d="M220,56 l0,110" />
        <path id="right-margin-Ultralight-S" d="M310,56 l0,110" />
        <path id="left-margin-Regular-S" d="M420,56 l0,110" />
        <path id="right-margin-Regular-S" d="M510,56 l0,110" />
        <path id="left-margin-Black-S" d="M620,56 l0,110" />
        <path id="right-margin-Black-S" d="M710,56 l0,110" />
        <path id="Capline-M" d="M18,276 l800,0" />
        <path id="Baseline-M" d="M18,346 l800,0" />
        <path id="Capline-L" d="M18,476 l800,0" />
        <path id="Baseline-L" d="M18,546 l800,0" />
    </g>
    <g id="Symbols">
        <g id="Ultralight-S">
            <path d="M301.124,107.204 L268.796,74.876 C266.696,72.788 263.304,72.788 261.204,74.876 L228.876,107.204 C226.788,109.304 226.788,112.696 228.876,114.796 L261.204,147.124 C263.304,149.212 266.696,149.212 268.796,147.124 L301.124,114.796 C303.212,112.696 303.212,109.304 301.124,107.204 Z M265,78.692 L283.846,97.538 L275.769,97.538 C275.055,97.538 274.37,97.821 273.864,98.326 L265,107.19 L256.136,98.326 C255.63,97.821 254.945,97.538 254.231,97.538 L246.154,97.538 Z M240.769,102.923 L253.113,102.923 L261.19,111 L253.113,119.077 L240.769,119.077 L232.692,111 Z M265,143.308 L246.154,124.462 L254.231,124.462 C254.945,124.462 255.63,124.179 256.136,123.674 L265,114.806 L273.864,123.674 C274.37,124.179 275.055,124.462 275.769,124.462 L283.846,124.462 Z M289.231,119.077 L276.887,119.077 L268.81,111 L276.887,102.923 L289.231,102.923 L297.308,111 Z" />
        </g>
        <g id="Regular-S">
            <path d="M501.124,107.204 L468.796,74.876 C466.696,72.788 463.304,72.788 461.204,74.876 L428.876,107.204 C426.788,109.304 426.788,112.696 428.876,114.796 L461.204,147.124 C463.304,149.212 466.696,149.212 468.796,147.124 L501.124,114.796 C503.212,112.696 503.212,109.304 501.124,107.204 Z M465,78.692 L483.846,97.538 L475.769,97.538 C475.055,97.538 474.37,97.821 473.864,98.326 L465,107.19 L456.136,98.326 C455.63,97.821 454.945,97.538 454.231,97.538 L446.154,97.538 Z M440.769,102.923 L453.113,102.923 L461.19,111 L453.113,119.077 L440.769,119.077 L432.692,111 Z M465,143.308 L446.154,124.462 L454.231,124.462 C454.945,124.462 455.63,124.179 456.136,123.674 L465,114.806 L473.864,123.674 C474.37,124.179 475.055,124.462 475.769,124.462 L483.846,124.462 Z M489.231,119.077 L476.887,119.077 L468.81,111 L476.887,102.923 L489.231,102.923 L497.308,111 Z" />
        </g>
        <g id="Black-S">
            <path d="M701.124,107.204 L668.796,74.876 C666.696,72.788 663.304,72.788 661.204,74.876 L628.876,107.204 C626.788,109.304 626.788,112.696 628.876,114.796 L661.204,147.124 C663.304,149.212 666.696,149.212 668.796,147.124 L701.124,114.796 C703.212,112.696 703.212,109.304 701.124,107.204 Z M665,78.692 L683.846,97.538 L675.769,97.538 C675.055,97.538 674.37,97.821 673.864,98.326 L665,107.19 L656.136,98.326 C655.63,97.821 654.945,97.538 654.231,97.538 L646.154,97.538 Z M640.769,102.923 L653.113,102.923 L661.19,111 L653.113,119.077 L640.769,119.077 L632.692,111 Z M665,143.308 L646.154,124.462 L654.231,124.462 C654.945,124.462 655.63,124.179 656.136,123.674 L665,114.806 L673.864,123.674 C674.37,124.179 675.055,124.462 675.769,124.462 L683.846,124.462 Z M689.231,119.077 L676.887,119.077 L668.81,111 L676.887,102.923 L689.231,102.923 L697.308,111 Z" />
        </g>
    </g>
</svg>