<?xml version="1.0" encoding="UTF-8"?>
<svg height="600" width="800" xmlns="http://www.w3.org/2000/svg" xmlns:xlink="http://www.w3.org/1999/xlink">
    <g id="Notes" font-family="'LucidaGrande', 'Lucida Grande', sans-serif" font-size="13">
        <rect fill="white" height="600.0" width="800.0" x="0.0" y="0.0" />
        <g font-size="13">
            <text x="18.0" y="176.0">Small</text>
            <text x="18.0" y="376.0">Medium</text>
            <text x="18.0" y="576.0">Large</text>
        </g>
        <g font-size="9">
            <text x="250.0" y="30.0">Ultralight</text>
            <text x="450.0" y="30.0">Regular</text>
            <text x="650.0" y="30.0">Black</text>
            <text id="template-version" fill="#505050" text-anchor="end" x="785.0" y="575.0">Template v.3.0</text>
            <a href="https://github.com/swhitty/SwiftDraw">
                <text fill="#505050" text-anchor="end" x="785.0" y="590.0">https://github.com/swhitty/SwiftDraw</text>
            </a>
        </g>
    </g>
    <g id="Guides" stroke="rgb(39, 170, 225)" stroke-width="0.5">
        <path id="Capline-S" d="M18,76 l800,0" />
        <path id="H-reference" d="M85,145.755 L87.685,145.755 L113.369,79.287 L114.052,79.287 L114.052,76 L112.148,76 L85,145.755 Z M95.693,121.536 L130.996,121.536 L130.263,119.313 L96.474,119.313 L95.693,121.536 Z M139.15,145.755 L141.787,145.755 L114.638,76 L113.466,76 L113.466,79.287 L139.15,145.755 Z" stroke="none" />
        <path id="Baseline-S" d="M18,146 l800,0" />
        <path id="left-margin-Ultralight-S" d="M220,56 l0,110" />
        <path id="right-margin-Ultralight-S" d="M310,56 l0,110" />
        <path id="left-margin-Regular-S" d="M420,56 l0,110" />
        <path id="right-margin-Regular-S" d="M510,56 l0,110" />
        <path id="left-margin-Black-S" d="M620,56 l0,110" />
        <path id="right-margin-Black-S" d="M710,56 l0,110" />
        <path id="Capline-M" d="M18,276 l800,0" />
        <path id="Baseline-M" d="M18,346 l800,0" />
        <path id="Capline-L" d="M18,476 l800,0" />
        <path id="Baseline-L" d="M18,546 l800,0" />
    </g>
    <g id="Symbols">
        <g id="Ultralight-S">
            <path d="M265,76 C245.67,76 230,91.67 230,111 C230,130.33 245.67,146 265,146 C284.33,146 300,130.33 300,111 C299.979,91.677 284.32,76.02 264.999,76 Z M265,140.615 C248.644,140.615 235.385,127.356 235.385,111 C235.385,94.644 248.644,81.385 265,81.385 C281.356,81.385 294.615,94.644 294.615,111 C294.598,127.347 281.35,140.596 265.001,140.615 Z M278.462,117.731 C278.462,120.23 277.469,122.627 275.702,124.394 C273.934,126.161 271.538,127.154 269.038,127.154 L267.692,127.154 L267.692,129.846 C267.692,131.333 266.487,132.538 265,132.538 C263.513,132.538 262.308,131.333 262.308,129.846 L262.308,127.154 L256.923,127.154 C255.436,127.154 254.231,125.948 254.231,124.462 C254.231,122.975 255.436,121.769 256.923,121.769 L269.038,121.769 C271.269,121.769 273.077,119.961 273.077,117.731 C273.077,115.5 271.269,113.692 269.038,113.692 L260.962,113.692 C255.757,113.692 251.538,109.473 251.538,104.269 C251.538,99.065 255.757,94.846 260.962,94.846 L262.308,94.846 L262.308,92.154 C262.308,90.667 263.513,89.462 265,89.462 C266.487,89.462 267.692,90.667 267.692,92.154 L267.692,94.846 L273.077,94.846 C274.564,94.846 275.769,96.052 275.769,97.538 C275.769,99.025 274.564,100.231 273.077,100.231 L260.962,100.231 C258.731,100.231 256.923,102.039 256.923,104.269 C256.923,106.5 258.731,108.308 260.962,108.308 L269.038,108.308 C271.538,108.308 273.934,109.3 275.702,111.068 C277.469,112.835 278.462,115.232 278.462,117.731 Z" />
        </g>
        <g id="Regular-S">
            <path d="M465,76 C445.67,76 430,91.67 430,111 C430,130.33 445.67,146 465,146 C484.33,146 500,130.33 500,111 C499.979,91.677 484.32,76.02 464.999,76 Z M465,140.615 C448.644,140.615 435.385,127.356 435.385,111 C435.385,94.644 448.644,81.385 465,81.385 C481.356,81.385 494.615,94.644 494.615,111 C494.598,127.347 481.35,140.596 465.001,140.615 Z M478.462,117.731 C478.462,120.23 477.469,122.627 475.702,124.394 C473.934,126.161 471.538,127.154 469.038,127.154 L467.692,127.154 L467.692,129.846 C467.692,131.333 466.487,132.538 465,132.538 C463.513,132.538 462.308,131.333 462.308,129.846 L462.308,127.154 L456.923,127.154 C455.436,127.154 454.231,125.948 454.231,124.462 C454.231,122.975 455.436,121.769 456.923,121.769 L469.038,121.769 C471.269,121.769 473.077,119.961 473.077,117.731 C473.077,115.5 471.269,113.692 469.038,113.692 L460.962,113.692 C455.757,113.692 451.538,109.473 451.538,104.269 C451.538,99.065 455.757,94.846 460.962,94.846 L462.308,94.846 L462.308,92.154 C462.308,90.667 463.513,89.462 465,89.462 C466.487,89.462 467.692,90.667 467.692,92.154 L467.692,94.846 L473.077,94.846 C474.564,94.846 475.769,96.052 475.769,97.538 C475.769,99.025 474.564,100.231 473.077,100.231 L460.962,100.231 C458.731,100.231 456.923,102.039 456.923,104.269 C456.923,106.5 458.731,108.308 460.962,108.308 L469.038,108.308 C471.538,108.308 473.934,109.3 475.702,111.068 C477.469,112.835 478.462,115.232 478.462,117.731 Z" />
        </g>
        <g id="Black-S">
            <path d="M665,76 C645.67,76 630,91.67 630,111 C630,130.33 645.67,146 665,146 C684.33,146 700,130.33 700,111 C699.979,91.677 684.32,76.02 664.999,76 Z M665,140.615 C648.644,140.615 635.385,127.356 635.385,111 C635.385,94.644 648.644,81.385 665,81.385 C681.356,81.385 694.615,94.644 694.615,111 C694.598,127.347 681.35,140.596 665.001,140.615 Z M678.462,117.731 C678.462,120.23 677.469,122.627 675.702,124.394 C673.934,126.161 671.538,127.154 669.038,127.154 L667.692,127.154 L667.692,129.846 C667.692,131.333 666.487,132.538 665,132.538 C663.513,132.538 662.308,131.333 662.308,129.846 L662.308,127.154 L656.923,127.154 C655.436,127.154 654.231,125.948 654.231,124.462 C654.231,122.975 655.436,121.769 656.923,121.769 L669.038,121.769 C671.269,121.769 673.077,119.961 673.077,117.731 C673.077,115.5 671.269,113.692 669.038,113.692 L660.962,113.692 C655.757,113.692 651.538,109.473 651.538,104.269 C651.538,99.065 655.757,94.846 660.962,94.846 L662.308,94.846 L662.308,92.154 C662.308,90.667 663.513,89.462 665,89.462 C666.487,89.462 667.692,90.667 667.692,92.154 L667.692,94.846 L673.077,94.846 C674.564,94.846 675.769,96.052 675.769,97.538 C675.769,99.025 674.564,100.231 673.077,100.231 L660.962,100.231 C658.731,100.231 656.923,102.039 656.923,104.269 C656.923,106.5 658.731,108.308 660.962,108.308 L669.038,108.308 C671.538,108.308 673.934,109.3 675.702,111.068 C677.469,112.835 678.462,115.232 678.462,117.731 Z" />
        </g>
    </g>
</svg>