<?xml version="1.0" encoding="UTF-8"?>
<svg height="600" width="800" xmlns="http://www.w3.org/2000/svg" xmlns:xlink="http://www.w3.org/1999/xlink">
    <g id="Notes" font-family="'LucidaGrande', 'Lucida Grande', sans-serif" font-size="13">
        <rect fill="white" height="600.0" width="800.0" x="0.0" y="0.0" />
        <g font-size="13">
            <text x="18.0" y="176.0">Small</text>
            <text x="18.0" y="376.0">Medium</text>
            <text x="18.0" y="576.0">Large</text>
        </g>
        <g font-size="9">
            <text x="250.0" y="30.0">Ultralight</text>
            <text x="450.0" y="30.0">Regular</text>
            <text x="650.0" y="30.0">Black</text>
            <text id="template-version" fill="#505050" text-anchor="end" x="785.0" y="575.0">Template v.3.0</text>
            <a href="https://github.com/swhitty/SwiftDraw">
                <text fill="#505050" text-anchor="end" x="785.0" y="590.0">https://github.com/swhitty/SwiftDraw</text>
            </a>
        </g>
    </g>
    <g id="Guides" stroke="rgb(39, 170, 225)" stroke-width="0.5">
        <path id="Capline-S" d="M18,76 l800,0" />
        <path id="H-reference" d="M85,145.755 L87.685,145.755 L113.369,79.287 L114.052,79.287 L114.052,76 L112.148,76 L85,145.755 Z M95.693,121.536 L130.996,121.536 L130.263,119.313 L96.474,119.313 L95.693,121.536 Z M139.15,145.755 L141.787,145.755 L114.638,76 L113.466,76 L113.466,79.287 L139.15,145.755 Z" stroke="none" />
        <path id="Baseline-S" d="M18,146 l800,0" />
        <path id="left-margin-Ultralight-S" d="M220,56 l0,110" />
        <path id="right-margin-Ultralight-S" d="M310,56 l0,110" />
        <path id="left-margin-Regular-S" d="M420,56 l0,110" />
        <path id="right-margin-Regular-S" d="M510,56 l0,110" />
        <path id="left-margin-Black-S" d="M620,56 l0,110" />
        <path id="right-margin-Black-S" d="M710,56 l0,110" />
        <path id="Capline-M" d="M18,276 l800,0" />
        <path id="Baseline-M" d="M18,346 l800,0" />
        <path id="Capline-L" d="M18,476 l800,0" />
        <path id="Baseline-L" d="M18,546 l800,0" />
    </g>
    <g id="Symbols">
        <g id="Ultralight-S">
            <path d="M294.615,86.769 L281.154,86.769 L281.154,84.077 C281.154,81.935 280.303,79.88 278.788,78.366 C277.273,76.851 275.219,76 273.077,76 L256.923,76 C254.781,76 252.727,76.851 251.212,78.366 C249.697,79.88 248.846,81.935 248.846,84.077 L248.846,86.769 L235.385,86.769 C232.411,86.769 230,89.18 230,92.154 L230,135.231 C230,136.659 230.567,138.028 231.577,139.038 C232.587,140.048 233.957,140.615 235.385,140.615 L294.615,140.615 C296.043,140.615 297.413,140.048 298.423,139.038 C299.433,138.028 300,136.659 300,135.231 L300,92.154 C300,90.726 299.433,89.356 298.423,88.346 C297.413,87.337 296.043,86.769 294.615,86.769 Z M254.231,84.077 C254.231,83.363 254.514,82.678 255.019,82.173 C255.524,81.668 256.209,81.385 256.923,81.385 L273.077,81.385 C273.791,81.385 274.476,81.668 274.981,82.173 C275.486,82.678 275.769,83.363 275.769,84.077 L275.769,86.769 L254.231,86.769 Z M294.615,135.231 L235.385,135.231 L235.385,92.154 L294.615,92.154 L294.615,135.231 Z M275.769,113.692 C275.769,114.406 275.486,115.091 274.981,115.596 C274.476,116.101 273.791,116.385 273.077,116.385 L267.692,116.385 L267.692,121.769 C267.692,123.256 266.487,124.462 265,124.462 C263.513,124.462 262.308,123.256 262.308,121.769 L262.308,116.385 L256.923,116.385 C255.436,116.385 254.231,115.179 254.231,113.692 C254.231,112.205 255.436,111 256.923,111 L262.308,111 L262.308,105.615 C262.308,104.128 263.513,102.923 265,102.923 C266.487,102.923 267.692,104.128 267.692,105.615 L267.692,111 L273.077,111 C273.791,111 274.476,111.284 274.981,111.789 C275.486,112.293 275.769,112.978 275.769,113.692 Z" />
        </g>
        <g id="Regular-S">
            <path d="M494.615,86.769 L481.154,86.769 L481.154,84.077 C481.154,81.935 480.303,79.88 478.788,78.366 C477.273,76.851 475.219,76 473.077,76 L456.923,76 C454.781,76 452.727,76.851 451.212,78.366 C449.697,79.88 448.846,81.935 448.846,84.077 L448.846,86.769 L435.385,86.769 C432.411,86.769 430,89.18 430,92.154 L430,135.231 C430,136.659 430.567,138.028 431.577,139.038 C432.587,140.048 433.957,140.615 435.385,140.615 L494.615,140.615 C496.043,140.615 497.413,140.048 498.423,139.038 C499.433,138.028 500,136.659 500,135.231 L500,92.154 C500,90.726 499.433,89.356 498.423,88.346 C497.413,87.337 496.043,86.769 494.615,86.769 Z M454.231,84.077 C454.231,83.363 454.514,82.678 455.019,82.173 C455.524,81.668 456.209,81.385 456.923,81.385 L473.077,81.385 C473.791,81.385 474.476,81.668 474.981,82.173 C475.486,82.678 475.769,83.363 475.769,84.077 L475.769,86.769 L454.231,86.769 Z M494.615,135.231 L435.385,135.231 L435.385,92.154 L494.615,92.154 L494.615,135.231 Z M475.769,113.692 C475.769,114.406 475.486,115.091 474.981,115.596 C474.476,116.101 473.791,116.385 473.077,116.385 L467.692,116.385 L467.692,121.769 C467.692,123.256 466.487,124.462 465,124.462 C463.513,124.462 462.308,123.256 462.308,121.769 L462.308,116.385 L456.923,116.385 C455.436,116.385 454.231,115.179 454.231,113.692 C454.231,112.205 455.436,111 456.923,111 L462.308,111 L462.308,105.615 C462.308,104.128 463.513,102.923 465,102.923 C466.487,102.923 467.692,104.128 467.692,105.615 L467.692,111 L473.077,111 C473.791,111 474.476,111.284 474.981,111.789 C475.486,112.293 475.769,112.978 475.769,113.692 Z" />
        </g>
        <g id="Black-S">
            <path d="M694.615,86.769 L681.154,86.769 L681.154,84.077 C681.154,81.935 680.303,79.88 678.788,78.366 C677.273,76.851 675.219,76 673.077,76 L656.923,76 C654.781,76 652.727,76.851 651.212,78.366 C649.697,79.88 648.846,81.935 648.846,84.077 L648.846,86.769 L635.385,86.769 C632.411,86.769 630,89.18 630,92.154 L630,135.231 C630,136.659 630.567,138.028 631.577,139.038 C632.587,140.048 633.957,140.615 635.385,140.615 L694.615,140.615 C696.044,140.615 697.413,140.048 698.423,139.038 C699.433,138.028 700,136.659 700,135.231 L700,92.154 C700,90.726 699.433,89.356 698.423,88.346 C697.413,87.337 696.044,86.769 694.615,86.769 Z M654.231,84.077 C654.231,83.363 654.514,82.678 655.019,82.173 C655.524,81.668 656.209,81.385 656.923,81.385 L673.077,81.385 C673.791,81.385 674.476,81.668 674.981,82.173 C675.486,82.678 675.769,83.363 675.769,84.077 L675.769,86.769 L654.231,86.769 Z M694.615,135.231 L635.385,135.231 L635.385,92.154 L694.615,92.154 L694.615,135.231 Z M675.769,113.692 C675.769,114.406 675.486,115.091 674.981,115.596 C674.476,116.101 673.791,116.385 673.077,116.385 L667.692,116.385 L667.692,121.769 C667.692,123.256 666.487,124.462 665,124.462 C663.513,124.462 662.308,123.256 662.308,121.769 L662.308,116.385 L656.923,116.385 C655.436,116.385 654.231,115.179 654.231,113.692 C654.231,112.205 655.436,111 656.923,111 L662.308,111 L662.308,105.615 C662.308,104.128 663.513,102.923 665,102.923 C666.487,102.923 667.692,104.128 667.692,105.615 L667.692,111 L673.077,111 C673.791,111 674.476,111.284 674.981,111.789 C675.486,112.293 675.769,112.978 675.769,113.692 Z" />
        </g>
    </g>
</svg>