<?xml version="1.0" encoding="UTF-8"?>
<svg height="600" width="800" xmlns="http://www.w3.org/2000/svg" xmlns:xlink="http://www.w3.org/1999/xlink">
    <g id="Notes" font-family="'LucidaGrande', 'Lucida Grande', sans-serif" font-size="13">
        <rect fill="white" height="600.0" width="800.0" x="0.0" y="0.0" />
        <g font-size="13">
            <text x="18.0" y="176.0">Small</text>
            <text x="18.0" y="376.0">Medium</text>
            <text x="18.0" y="576.0">Large</text>
        </g>
        <g font-size="9">
            <text x="250.0" y="30.0">Ultralight</text>
            <text x="450.0" y="30.0">Regular</text>
            <text x="650.0" y="30.0">Black</text>
            <text id="template-version" fill="#505050" text-anchor="end" x="785.0" y="575.0">Template v.3.0</text>
            <a href="https://github.com/swhitty/SwiftDraw">
                <text fill="#505050" text-anchor="end" x="785.0" y="590.0">https://github.com/swhitty/SwiftDraw</text>
            </a>
        </g>
    </g>
    <g id="Guides" stroke="rgb(39, 170, 225)" stroke-width="0.5">
        <path id="Capline-S" d="M18,76 l800,0" />
        <path id="H-reference" d="M85,145.755 L87.685,145.755 L113.369,79.287 L114.052,79.287 L114.052,76 L112.148,76 L85,145.755 Z M95.693,121.536 L130.996,121.536 L130.263,119.313 L96.474,119.313 L95.693,121.536 Z M139.15,145.755 L141.787,145.755 L114.638,76 L113.466,76 L113.466,79.287 L139.15,145.755 Z" stroke="none" />
        <path id="Baseline-S" d="M18,146 l800,0" />
        <path id="left-margin-Ultralight-S" d="M220,56 l0,110" />
        <path id="right-margin-Ultralight-S" d="M310,56 l0,110" />
        <path id="left-margin-Regular-S" d="M420,56 l0,110" />
        <path id="right-margin-Regular-S" d="M510,56 l0,110" />
        <path id="left-margin-Black-S" d="M620,56 l0,110" />
        <path id="right-margin-Black-S" d="M710,56 l0,110" />
        <path id="Capline-M" d="M18,276 l800,0" />
        <path id="Baseline-M" d="M18,346 l800,0" />
        <path id="Capline-L" d="M18,476 l800,0" />
        <path id="Baseline-L" d="M18,546 l800,0" />
    </g>
    <g id="Symbols">
        <g id="Ultralight-S">
            <path d="M293.828,102.136 L266.905,129.059 C266.4,129.564 265.715,129.848 265,129.848 C264.285,129.848 263.6,129.564 263.095,129.059 L236.172,102.136 C235.12,101.082 235.121,99.376 236.173,98.325 C237.226,97.273 238.931,97.274 239.983,98.327 L265,123.348 L290.018,98.326 C291.069,97.274 292.774,97.273 293.827,98.325 C294.879,99.376 294.88,101.082 293.829,102.135 Z" />
        </g>
        <g id="Regular-S">
            <path d="M493.828,102.136 L466.905,129.059 C466.4,129.564 465.715,129.848 465,129.848 C464.285,129.848 463.6,129.564 463.095,129.059 L436.172,102.136 C435.12,101.082 435.121,99.376 436.173,98.325 C437.226,97.273 438.931,97.274 439.983,98.327 L465,123.348 L490.018,98.326 C491.069,97.274 492.774,97.273 493.827,98.325 C494.879,99.376 494.88,101.082 493.829,102.135 Z" />
        </g>
        <g id="Black-S">
            <path d="M693.828,102.136 L666.905,129.059 C666.4,129.564 665.715,129.848 665,129.848 C664.285,129.848 663.6,129.564 663.095,129.059 L636.172,102.136 C635.12,101.082 635.121,99.376 636.173,98.325 C637.226,97.273 638.931,97.274 639.983,98.327 L665,123.348 L690.018,98.326 C691.069,97.274 692.774,97.273 693.827,98.325 C694.879,99.376 694.88,101.082 693.829,102.135 Z" />
        </g>
    </g>
</svg>