<?xml version="1.0" encoding="UTF-8"?>
<svg height="600" width="800" xmlns="http://www.w3.org/2000/svg" xmlns:xlink="http://www.w3.org/1999/xlink">
    <g id="Notes" font-family="'LucidaGrande', 'Lucida Grande', sans-serif" font-size="13">
        <rect fill="white" height="600.0" width="800.0" x="0.0" y="0.0" />
        <g font-size="13">
            <text x="18.0" y="176.0">Small</text>
            <text x="18.0" y="376.0">Medium</text>
            <text x="18.0" y="576.0">Large</text>
        </g>
        <g font-size="9">
            <text x="250.0" y="30.0">Ultralight</text>
            <text x="450.0" y="30.0">Regular</text>
            <text x="650.0" y="30.0">Black</text>
            <text id="template-version" fill="#505050" text-anchor="end" x="785.0" y="575.0">Template v.3.0</text>
            <a href="https://github.com/swhitty/SwiftDraw">
                <text fill="#505050" text-anchor="end" x="785.0" y="590.0">https://github.com/swhitty/SwiftDraw</text>
            </a>
        </g>
    </g>
    <g id="Guides" stroke="rgb(39, 170, 225)" stroke-width="0.5">
        <path id="Capline-S" d="M18,76 l800,0" />
        <path id="H-reference" d="M85,145.755 L87.685,145.755 L113.369,79.287 L114.052,79.287 L114.052,76 L112.148,76 L85,145.755 Z M95.693,121.536 L130.996,121.536 L130.263,119.313 L96.474,119.313 L95.693,121.536 Z M139.15,145.755 L141.787,145.755 L114.638,76 L113.466,76 L113.466,79.287 L139.15,145.755 Z" stroke="none" />
        <path id="Baseline-S" d="M18,146 l800,0" />
        <path id="left-margin-Ultralight-S" d="M220,56 l0,110" />
        <path id="right-margin-Ultralight-S" d="M310,56 l0,110" />
        <path id="left-margin-Regular-S" d="M420,56 l0,110" />
        <path id="right-margin-Regular-S" d="M510,56 l0,110" />
        <path id="left-margin-Black-S" d="M620,56 l0,110" />
        <path id="right-margin-Black-S" d="M710,56 l0,110" />
        <path id="Capline-M" d="M18,276 l800,0" />
        <path id="Baseline-M" d="M18,346 l800,0" />
        <path id="Capline-L" d="M18,476 l800,0" />
        <path id="Baseline-L" d="M18,546 l800,0" />
    </g>
    <g id="Symbols">
        <g id="Ultralight-S">
            <path d="M291.923,108.308 L291.923,135.231 C291.923,136.718 290.718,137.923 289.231,137.923 C287.744,137.923 286.538,136.718 286.538,135.231 L286.538,108.308 C286.538,96.412 276.895,86.769 265,86.769 C253.105,86.769 243.462,96.412 243.462,108.308 L243.462,135.231 C243.462,136.718 242.256,137.923 240.769,137.923 C239.282,137.923 238.077,136.718 238.077,135.231 L238.077,108.308 C238.077,93.438 250.131,81.385 265,81.385 C279.869,81.385 291.923,93.438 291.923,108.308 Z" />
        </g>
        <g id="Regular-S">
            <path d="M491.923,108.308 L491.923,135.231 C491.923,136.718 490.718,137.923 489.231,137.923 C487.744,137.923 486.538,136.718 486.538,135.231 L486.538,108.308 C486.538,96.412 476.895,86.769 465,86.769 C453.105,86.769 443.462,96.412 443.462,108.308 L443.462,135.231 C443.462,136.718 442.256,137.923 440.769,137.923 C439.282,137.923 438.077,136.718 438.077,135.231 L438.077,108.308 C438.077,93.438 450.131,81.385 465,81.385 C479.869,81.385 491.923,93.438 491.923,108.308 Z" />
        </g>
        <g id="Black-S">
            <path d="M691.923,108.308 L691.923,135.231 C691.923,136.718 690.718,137.923 689.231,137.923 C687.744,137.923 686.538,136.718 686.538,135.231 L686.538,108.308 C686.538,96.412 676.895,86.769 665,86.769 C653.105,86.769 643.462,96.412 643.462,108.308 L643.462,135.231 C643.462,136.718 642.256,137.923 640.769,137.923 C639.282,137.923 638.077,136.718 638.077,135.231 L638.077,108.308 C638.077,93.438 650.131,81.385 665,81.385 C679.869,81.385 691.923,93.438 691.923,108.308 Z" />
        </g>
    </g>
</svg>