<?xml version="1.0" encoding="UTF-8"?>
<svg height="600" width="800" xmlns="http://www.w3.org/2000/svg" xmlns:xlink="http://www.w3.org/1999/xlink">
    <g id="Notes" font-family="'LucidaGrande', 'Lucida Grande', sans-serif" font-size="13">
        <rect fill="white" height="600.0" width="800.0" x="0.0" y="0.0" />
        <g font-size="13">
            <text x="18.0" y="176.0">Small</text>
            <text x="18.0" y="376.0">Medium</text>
            <text x="18.0" y="576.0">Large</text>
        </g>
        <g font-size="9">
            <text x="250.0" y="30.0">Ultralight</text>
            <text x="450.0" y="30.0">Regular</text>
            <text x="650.0" y="30.0">Black</text>
            <text id="template-version" fill="#505050" text-anchor="end" x="785.0" y="575.0">Template v.3.0</text>
            <a href="https://github.com/swhitty/SwiftDraw">
                <text fill="#505050" text-anchor="end" x="785.0" y="590.0">https://github.com/swhitty/SwiftDraw</text>
            </a>
        </g>
    </g>
    <g id="Guides" stroke="rgb(39, 170, 225)" stroke-width="0.5">
        <path id="Capline-S" d="M18,76 l800,0" />
        <path id="H-reference" d="M85,145.755 L87.685,145.755 L113.369,79.287 L114.052,79.287 L114.052,76 L112.148,76 L85,145.755 Z M95.693,121.536 L130.996,121.536 L130.263,119.313 L96.474,119.313 L95.693,121.536 Z M139.15,145.755 L141.787,145.755 L114.638,76 L113.466,76 L113.466,79.287 L139.15,145.755 Z" stroke="none" />
        <path id="Baseline-S" d="M18,146 l800,0" />
        <path id="left-margin-Ultralight-S" d="M220,56 l0,110" />
        <path id="right-margin-Ultralight-S" d="M310,56 l0,110" />
        <path id="left-margin-Regular-S" d="M420,56 l0,110" />
        <path id="right-margin-Regular-S" d="M510,56 l0,110" />
        <path id="left-margin-Black-S" d="M620,56 l0,110" />
        <path id="right-margin-Black-S" d="M710,56 l0,110" />
        <path id="Capline-M" d="M18,276 l800,0" />
        <path id="Baseline-M" d="M18,346 l800,0" />
        <path id="Capline-L" d="M18,476 l800,0" />
        <path id="Baseline-L" d="M18,546 l800,0" />
    </g>
    <g id="Symbols">
        <g id="Ultralight-S">
            <path d="M280.693,95.3 C278.207,81.934 266.145,72.518 252.574,73.351 C239.004,74.184 228.184,85.004 227.351,98.574 C226.518,112.145 235.934,124.207 249.3,126.693 C251.787,140.06 263.848,149.475 277.419,148.642 C290.989,147.809 301.809,136.989 302.642,123.419 C303.475,109.848 294.06,97.787 280.693,95.3 Z M297.308,121.769 C297.308,122.281 297.284,122.779 297.247,123.287 L280.42,106.46 C280.857,104.639 281.103,102.776 281.154,100.904 C290.681,103.34 297.335,111.936 297.308,121.769 Z M271.26,121.066 L288.965,138.775 C287.307,140.064 285.469,141.103 283.51,141.861 L266.057,124.408 C267.913,123.496 269.659,122.375 271.26,121.066 Z M275.066,117.26 C276.374,115.661 277.496,113.917 278.408,112.063 L295.861,129.51 C295.103,131.466 294.063,133.302 292.775,134.958 Z M232.692,100.231 C232.692,88.335 242.335,78.692 254.231,78.692 C266.126,78.692 275.769,88.335 275.769,100.231 C275.769,112.126 266.126,121.769 254.231,121.769 C242.341,121.756 232.705,112.121 232.692,100.231 Z M254.904,127.154 C256.775,127.108 258.636,126.868 260.457,126.437 L277.284,143.264 C276.782,143.301 276.274,143.325 275.766,143.325 C265.929,143.349 257.333,136.686 254.904,127.154 Z" />
        </g>
        <g id="Regular-S">
            <path d="M480.693,95.3 C478.207,81.934 466.145,72.518 452.574,73.351 C439.004,74.184 428.184,85.004 427.351,98.574 C426.518,112.145 435.934,124.207 449.3,126.693 C451.787,140.06 463.848,149.475 477.419,148.642 C490.989,147.809 501.809,136.989 502.642,123.419 C503.475,109.848 494.06,97.787 480.693,95.3 Z M497.308,121.769 C497.308,122.281 497.284,122.779 497.247,123.287 L480.42,106.46 C480.857,104.639 481.103,102.776 481.154,100.904 C490.681,103.34 497.335,111.936 497.308,121.769 Z M471.26,121.066 L488.965,138.775 C487.307,140.064 485.469,141.103 483.51,141.861 L466.057,124.408 C467.913,123.496 469.659,122.375 471.26,121.066 Z M475.066,117.26 C476.374,115.661 477.496,113.917 478.408,112.063 L495.861,129.51 C495.103,131.466 494.063,133.302 492.775,134.958 Z M432.692,100.231 C432.692,88.335 442.335,78.692 454.231,78.692 C466.126,78.692 475.769,88.335 475.769,100.231 C475.769,112.126 466.126,121.769 454.231,121.769 C442.341,121.756 432.705,112.121 432.692,100.231 Z M454.904,127.154 C456.775,127.108 458.636,126.868 460.457,126.437 L477.284,143.264 C476.782,143.301 476.274,143.325 475.766,143.325 C465.929,143.349 457.333,136.686 454.904,127.154 Z" />
        </g>
        <g id="Black-S">
            <path d="M680.693,95.3 C678.207,81.934 666.145,72.518 652.574,73.351 C639.004,74.184 628.184,85.004 627.351,98.574 C626.518,112.145 635.934,124.207 649.3,126.693 C651.787,140.06 663.849,149.475 677.419,148.642 C690.989,147.809 701.809,136.989 702.642,123.419 C703.475,109.848 694.06,97.787 680.693,95.3 Z M697.308,121.769 C697.308,122.281 697.284,122.779 697.247,123.287 L680.42,106.46 C680.857,104.639 681.103,102.776 681.154,100.904 C690.681,103.34 697.335,111.936 697.308,121.769 Z M671.26,121.066 L688.965,138.775 C687.307,140.064 685.469,141.103 683.51,141.861 L666.057,124.408 C667.913,123.496 669.659,122.375 671.26,121.066 Z M675.066,117.26 C676.374,115.661 677.496,113.917 678.408,112.063 L695.861,129.51 C695.103,131.466 694.063,133.302 692.775,134.958 Z M632.692,100.231 C632.692,88.335 642.335,78.692 654.231,78.692 C666.126,78.692 675.769,88.335 675.769,100.231 C675.769,112.126 666.126,121.769 654.231,121.769 C642.341,121.756 632.705,112.121 632.692,100.231 Z M654.904,127.154 C656.775,127.108 658.636,126.868 660.457,126.437 L677.284,143.264 C676.782,143.301 676.274,143.325 675.766,143.325 C665.929,143.349 657.333,136.686 654.904,127.154 Z" />
        </g>
    </g>
</svg>