<?xml version="1.0" encoding="UTF-8"?>
<svg height="600" width="800" xmlns="http://www.w3.org/2000/svg" xmlns:xlink="http://www.w3.org/1999/xlink">
    <g id="Notes" font-family="'LucidaGrande', 'Lucida Grande', sans-serif" font-size="13">
        <rect fill="white" height="600.0" width="800.0" x="0.0" y="0.0" />
        <g font-size="13">
            <text x="18.0" y="176.0">Small</text>
            <text x="18.0" y="376.0">Medium</text>
            <text x="18.0" y="576.0">Large</text>
        </g>
        <g font-size="9">
            <text x="250.0" y="30.0">Ultralight</text>
            <text x="450.0" y="30.0">Regular</text>
            <text x="650.0" y="30.0">Black</text>
            <text id="template-version" fill="#505050" text-anchor="end" x="785.0" y="575.0">Template v.3.0</text>
            <a href="https://github.com/swhitty/SwiftDraw">
                <text fill="#505050" text-anchor="end" x="785.0" y="590.0">https://github.com/swhitty/SwiftDraw</text>
            </a>
        </g>
    </g>
    <g id="Guides" stroke="rgb(39, 170, 225)" stroke-width="0.5">
        <path id="Capline-S" d="M18,76 l800,0" />
        <path id="H-reference" d="M85,145.755 L87.685,145.755 L113.369,79.287 L114.052,79.287 L114.052,76 L112.148,76 L85,145.755 Z M95.693,121.536 L130.996,121.536 L130.263,119.313 L96.474,119.313 L95.693,121.536 Z M139.15,145.755 L141.787,145.755 L114.638,76 L113.466,76 L113.466,79.287 L139.15,145.755 Z" stroke="none" />
        <path id="Baseline-S" d="M18,146 l800,0" />
        <path id="left-margin-Ultralight-S" d="M220,56 l0,110" />
        <path id="right-margin-Ultralight-S" d="M310,56 l0,110" />
        <path id="left-margin-Regular-S" d="M420,56 l0,110" />
        <path id="right-margin-Regular-S" d="M510,56 l0,110" />
        <path id="left-margin-Black-S" d="M620,56 l0,110" />
        <path id="right-margin-Black-S" d="M710,56 l0,110" />
        <path id="Capline-M" d="M18,276 l800,0" />
        <path id="Baseline-M" d="M18,346 l800,0" />
        <path id="Capline-L" d="M18,476 l800,0" />
        <path id="Baseline-L" d="M18,546 l800,0" />
    </g>
    <g id="Symbols">
        <g id="Ultralight-S">
            <path d="M288.154,125 L269.486,111 L288.154,97 C288.832,96.492 289.231,95.694 289.231,94.846 C289.231,93.999 288.832,93.201 288.154,92.692 L266.615,76.538 C265.8,75.927 264.708,75.828 263.796,76.284 C262.884,76.74 262.308,77.673 262.308,78.692 L262.308,105.615 L245.077,92.692 C243.887,91.8 242.2,92.041 241.308,93.231 C240.416,94.42 240.657,96.108 241.846,97 L260.514,111 L241.846,125 C240.657,125.892 240.416,127.58 241.308,128.769 C242.2,129.959 243.887,130.2 245.077,129.308 L262.308,116.385 L262.308,143.308 C262.308,144.327 262.884,145.26 263.796,145.716 C264.708,146.172 265.8,146.073 266.615,145.462 L288.154,129.308 C288.832,128.799 289.231,128.001 289.231,127.154 C289.231,126.306 288.832,125.508 288.154,125 Z M267.692,84.077 L282.052,94.846 L267.692,105.615 Z M267.692,137.923 L267.692,116.385 L282.052,127.154 Z M242.115,115.038 C239.885,115.038 238.077,113.23 238.077,111 C238.077,108.77 239.885,106.962 242.115,106.962 C244.346,106.962 246.154,108.77 246.154,111 C246.154,112.071 245.728,113.098 244.971,113.856 C244.214,114.613 243.186,115.038 242.115,115.038 Z M294.615,111 C294.615,113.23 292.807,115.038 290.577,115.038 C288.347,115.038 286.538,113.23 286.538,111 C286.538,108.77 288.347,106.962 290.577,106.962 C291.648,106.962 292.675,107.387 293.433,108.144 C294.19,108.902 294.615,109.929 294.615,111 Z" />
        </g>
        <g id="Regular-S">
            <path d="M488.154,125 L469.486,111 L488.154,97 C488.832,96.492 489.231,95.694 489.231,94.846 C489.231,93.999 488.832,93.201 488.154,92.692 L466.615,76.538 C465.8,75.927 464.708,75.828 463.796,76.284 C462.884,76.74 462.308,77.673 462.308,78.692 L462.308,105.615 L445.077,92.692 C443.887,91.8 442.2,92.041 441.308,93.231 C440.416,94.42 440.657,96.108 441.846,97 L460.514,111 L441.846,125 C440.657,125.892 440.416,127.58 441.308,128.769 C442.2,129.959 443.887,130.2 445.077,129.308 L462.308,116.385 L462.308,143.308 C462.308,144.327 462.884,145.26 463.796,145.716 C464.708,146.172 465.8,146.073 466.615,145.462 L488.154,129.308 C488.832,128.799 489.231,128.001 489.231,127.154 C489.231,126.306 488.832,125.508 488.154,125 Z M467.692,84.077 L482.052,94.846 L467.692,105.615 Z M467.692,137.923 L467.692,116.385 L482.052,127.154 Z M442.115,115.038 C439.885,115.038 438.077,113.23 438.077,111 C438.077,108.77 439.885,106.962 442.115,106.962 C444.346,106.962 446.154,108.77 446.154,111 C446.154,112.071 445.728,113.098 444.971,113.856 C444.214,114.613 443.186,115.038 442.115,115.038 Z M494.615,111 C494.615,113.23 492.807,115.038 490.577,115.038 C488.347,115.038 486.538,113.23 486.538,111 C486.538,108.77 488.347,106.962 490.577,106.962 C491.648,106.962 492.675,107.387 493.433,108.144 C494.19,108.902 494.615,109.929 494.615,111 Z" />
        </g>
        <g id="Black-S">
            <path d="M688.154,125 L669.486,111 L688.154,97 C688.832,96.492 689.231,95.694 689.231,94.846 C689.231,93.999 688.832,93.201 688.154,92.692 L666.615,76.538 C665.8,75.927 664.708,75.828 663.796,76.284 C662.884,76.74 662.308,77.673 662.308,78.692 L662.308,105.615 L645.077,92.692 C643.887,91.8 642.2,92.041 641.308,93.231 C640.416,94.42 640.657,96.108 641.846,97 L660.514,111 L641.846,125 C640.657,125.892 640.416,127.58 641.308,128.769 C642.2,129.959 643.887,130.2 645.077,129.308 L662.308,116.385 L662.308,143.308 C662.308,144.327 662.884,145.26 663.796,145.716 C664.708,146.172 665.8,146.073 666.615,145.462 L688.154,129.308 C688.832,128.799 689.231,128.001 689.231,127.154 C689.231,126.306 688.832,125.508 688.154,125 Z M667.692,84.077 L682.052,94.846 L667.692,105.615 Z M667.692,137.923 L667.692,116.385 L682.052,127.154 Z M642.115,115.038 C639.885,115.038 638.077,113.23 638.077,111 C638.077,108.77 639.885,106.962 642.115,106.962 C644.346,106.962 646.154,108.77 646.154,111 C646.154,112.071 645.728,113.098 644.971,113.856 C644.214,114.613 643.186,115.038 642.115,115.038 Z M694.615,111 C694.615,113.23 692.807,115.038 690.577,115.038 C688.347,115.038 686.538,113.23 686.538,111 C686.538,108.77 688.347,106.962 690.577,106.962 C691.648,106.962 692.675,107.387 693.433,108.144 C694.19,108.902 694.615,109.929 694.615,111 Z" />
        </g>
    </g>
</svg>