<?xml version="1.0" encoding="UTF-8"?>
<svg height="600" width="800" xmlns="http://www.w3.org/2000/svg" xmlns:xlink="http://www.w3.org/1999/xlink">
    <g id="Notes" font-family="'LucidaGrande', 'Lucida Grande', sans-serif" font-size="13">
        <rect fill="white" height="600.0" width="800.0" x="0.0" y="0.0" />
        <g font-size="13">
            <text x="18.0" y="176.0">Small</text>
            <text x="18.0" y="376.0">Medium</text>
            <text x="18.0" y="576.0">Large</text>
        </g>
        <g font-size="9">
            <text x="250.0" y="30.0">Ultralight</text>
            <text x="450.0" y="30.0">Regular</text>
            <text x="650.0" y="30.0">Black</text>
            <text id="template-version" fill="#505050" text-anchor="end" x="785.0" y="575.0">Template v.3.0</text>
            <a href="https://github.com/swhitty/SwiftDraw">
                <text fill="#505050" text-anchor="end" x="785.0" y="590.0">https://github.com/swhitty/SwiftDraw</text>
            </a>
        </g>
    </g>
    <g id="Guides" stroke="rgb(39, 170, 225)" stroke-width="0.5">
        <path id="Capline-S" d="M18,76 l800,0" />
        <path id="H-reference" d="M85,145.755 L87.685,145.755 L113.369,79.287 L114.052,79.287 L114.052,76 L112.148,76 L85,145.755 Z M95.693,121.536 L130.996,121.536 L130.263,119.313 L96.474,119.313 L95.693,121.536 Z M139.15,145.755 L141.787,145.755 L114.638,76 L113.466,76 L113.466,79.287 L139.15,145.755 Z" stroke="none" />
        <path id="Baseline-S" d="M18,146 l800,0" />
        <path id="left-margin-Ultralight-S" d="M220,56 l0,110" />
        <path id="right-margin-Ultralight-S" d="M310,56 l0,110" />
        <path id="left-margin-Regular-S" d="M420,56 l0,110" />
        <path id="right-margin-Regular-S" d="M510,56 l0,110" />
        <path id="left-margin-Black-S" d="M620,56 l0,110" />
        <path id="right-margin-Black-S" d="M710,56 l0,110" />
        <path id="Capline-M" d="M18,276 l800,0" />
        <path id="Baseline-M" d="M18,346 l800,0" />
        <path id="Capline-L" d="M18,476 l800,0" />
        <path id="Baseline-L" d="M18,546 l800,0" />
    </g>
    <g id="Symbols">
        <g id="Ultralight-S">
            <path d="M266.346,76 C247.768,76.02 232.713,91.076 232.692,109.654 L232.692,137.923 C232.692,139.351 233.26,140.721 234.269,141.731 C235.279,142.74 236.649,143.308 238.077,143.308 L266.346,143.308 C284.933,143.308 300,128.24 300,109.654 C300,91.067 284.933,76 266.346,76 Z M266.346,137.923 L238.077,137.923 L238.077,109.654 C238.077,94.041 250.733,81.385 266.346,81.385 C281.959,81.385 294.615,94.041 294.615,109.654 C294.615,125.266 281.959,137.923 266.346,137.923 Z" />
        </g>
        <g id="Regular-S">
            <path d="M466.346,76 C447.768,76.02 432.713,91.076 432.692,109.654 L432.692,137.923 C432.692,139.351 433.26,140.721 434.269,141.731 C435.279,142.74 436.649,143.308 438.077,143.308 L466.346,143.308 C484.933,143.308 500,128.24 500,109.654 C500,91.067 484.933,76 466.346,76 Z M466.346,137.923 L438.077,137.923 L438.077,109.654 C438.077,94.041 450.733,81.385 466.346,81.385 C481.959,81.385 494.615,94.041 494.615,109.654 C494.615,125.266 481.959,137.923 466.346,137.923 Z" />
        </g>
        <g id="Black-S">
            <path d="M666.346,76 C647.768,76.02 632.713,91.076 632.692,109.654 L632.692,137.923 C632.692,139.351 633.26,140.721 634.269,141.731 C635.279,142.74 636.649,143.308 638.077,143.308 L666.346,143.308 C684.933,143.308 700,128.24 700,109.654 C700,91.067 684.933,76 666.346,76 Z M666.346,137.923 L638.077,137.923 L638.077,109.654 C638.077,94.041 650.734,81.385 666.346,81.385 C681.959,81.385 694.615,94.041 694.615,109.654 C694.615,125.266 681.959,137.923 666.346,137.923 Z" />
        </g>
    </g>
</svg>