<?xml version="1.0" encoding="UTF-8"?>
<svg height="600" width="800" xmlns="http://www.w3.org/2000/svg" xmlns:xlink="http://www.w3.org/1999/xlink">
    <g id="Notes" font-family="'LucidaGrande', 'Lucida Grande', sans-serif" font-size="13">
        <rect fill="white" height="600.0" width="800.0" x="0.0" y="0.0" />
        <g font-size="13">
            <text x="18.0" y="176.0">Small</text>
            <text x="18.0" y="376.0">Medium</text>
            <text x="18.0" y="576.0">Large</text>
        </g>
        <g font-size="9">
            <text x="250.0" y="30.0">Ultralight</text>
            <text x="450.0" y="30.0">Regular</text>
            <text x="650.0" y="30.0">Black</text>
            <text id="template-version" fill="#505050" text-anchor="end" x="785.0" y="575.0">Template v.3.0</text>
            <a href="https://github.com/swhitty/SwiftDraw">
                <text fill="#505050" text-anchor="end" x="785.0" y="590.0">https://github.com/swhitty/SwiftDraw</text>
            </a>
        </g>
    </g>
    <g id="Guides" stroke="rgb(39, 170, 225)" stroke-width="0.5">
        <path id="Capline-S" d="M18,76 l800,0" />
        <path id="H-reference" d="M85,145.755 L87.685,145.755 L113.369,79.287 L114.052,79.287 L114.052,76 L112.148,76 L85,145.755 Z M95.693,121.536 L130.996,121.536 L130.263,119.313 L96.474,119.313 L95.693,121.536 Z M139.15,145.755 L141.787,145.755 L114.638,76 L113.466,76 L113.466,79.287 L139.15,145.755 Z" stroke="none" />
        <path id="Baseline-S" d="M18,146 l800,0" />
        <path id="left-margin-Ultralight-S" d="M220,56 l0,110" />
        <path id="right-margin-Ultralight-S" d="M310,56 l0,110" />
        <path id="left-margin-Regular-S" d="M420,56 l0,110" />
        <path id="right-margin-Regular-S" d="M510,56 l0,110" />
        <path id="left-margin-Black-S" d="M620,56 l0,110" />
        <path id="right-margin-Black-S" d="M710,56 l0,110" />
        <path id="Capline-M" d="M18,276 l800,0" />
        <path id="Baseline-M" d="M18,346 l800,0" />
        <path id="Capline-L" d="M18,476 l800,0" />
        <path id="Baseline-L" d="M18,546 l800,0" />
    </g>
    <g id="Symbols">
        <g id="Ultralight-S">
            <path d="M289.749,86.251 C276.081,72.583 253.92,72.582 240.251,86.251 C226.583,99.919 226.582,122.08 240.251,135.749 C253.919,149.417 276.08,149.418 289.748,135.749 C303.417,122.081 303.418,99.92 289.749,86.251 Z M283.846,133.841 C282.186,135.213 280.381,136.398 278.462,137.375 L278.462,101.345 L283.846,95.96 Z M256.923,122.883 L262.308,117.499 L262.308,140.477 C260.486,140.307 258.683,139.969 256.923,139.468 Z M251.538,137.375 C249.58,136.377 247.74,135.162 246.053,133.753 L251.538,128.268 Z M267.692,112.114 L273.077,106.729 L273.077,139.481 C271.317,139.983 269.514,140.321 267.692,140.491 Z M235.385,111 C235.385,99.521 242.027,89.07 252.428,84.194 C262.828,79.317 275.111,80.895 283.941,88.242 L242.243,129.95 C237.795,124.639 235.366,117.928 235.385,111 Z M289.231,128.025 L289.231,93.975 C296.408,104.19 296.408,117.81 289.231,128.025 Z" />
        </g>
        <g id="Regular-S">
            <path d="M489.749,86.251 C476.081,72.583 453.92,72.582 440.251,86.251 C426.583,99.919 426.582,122.08 440.251,135.749 C453.919,149.417 476.08,149.418 489.748,135.749 C503.417,122.081 503.418,99.92 489.749,86.251 Z M483.846,133.841 C482.186,135.213 480.381,136.398 478.462,137.375 L478.462,101.345 L483.846,95.96 Z M456.923,122.883 L462.308,117.499 L462.308,140.477 C460.486,140.307 458.683,139.969 456.923,139.468 Z M451.538,137.375 C449.58,136.377 447.74,135.162 446.053,133.753 L451.538,128.268 Z M467.692,112.114 L473.077,106.729 L473.077,139.481 C471.317,139.983 469.514,140.321 467.692,140.491 Z M435.385,111 C435.385,99.521 442.027,89.07 452.428,84.194 C462.828,79.317 475.111,80.895 483.941,88.242 L442.243,129.95 C437.795,124.639 435.366,117.928 435.385,111 Z M489.231,128.025 L489.231,93.975 C496.408,104.19 496.408,117.81 489.231,128.025 Z" />
        </g>
        <g id="Black-S">
            <path d="M689.749,86.251 C676.081,72.583 653.92,72.582 640.251,86.251 C626.583,99.919 626.582,122.08 640.251,135.749 C653.919,149.417 676.08,149.418 689.748,135.749 C703.417,122.081 703.418,99.92 689.749,86.251 Z M683.846,133.841 C682.186,135.213 680.381,136.398 678.462,137.375 L678.462,101.345 L683.846,95.96 Z M656.923,122.883 L662.308,117.499 L662.308,140.477 C660.486,140.307 658.683,139.969 656.923,139.468 Z M651.538,137.375 C649.58,136.377 647.74,135.162 646.053,133.753 L651.538,128.268 Z M667.692,112.114 L673.077,106.729 L673.077,139.481 C671.317,139.983 669.514,140.321 667.692,140.491 Z M635.385,111 C635.385,99.521 642.027,89.07 652.428,84.194 C662.828,79.317 675.111,80.895 683.941,88.242 L642.243,129.95 C637.795,124.639 635.366,117.928 635.385,111 Z M689.231,128.025 L689.231,93.975 C696.408,104.19 696.408,117.81 689.231,128.025 Z" />
        </g>
    </g>
</svg>