<?xml version="1.0" encoding="UTF-8"?>
<svg height="600" width="800" xmlns="http://www.w3.org/2000/svg" xmlns:xlink="http://www.w3.org/1999/xlink">
    <g id="Notes" font-family="'LucidaGrande', 'Lucida Grande', sans-serif" font-size="13">
        <rect fill="white" height="600.0" width="800.0" x="0.0" y="0.0" />
        <g font-size="13">
            <text x="18.0" y="176.0">Small</text>
            <text x="18.0" y="376.0">Medium</text>
            <text x="18.0" y="576.0">Large</text>
        </g>
        <g font-size="9">
            <text x="250.0" y="30.0">Ultralight</text>
            <text x="450.0" y="30.0">Regular</text>
            <text x="650.0" y="30.0">Black</text>
            <text id="template-version" fill="#505050" text-anchor="end" x="785.0" y="575.0">Template v.3.0</text>
            <a href="https://github.com/swhitty/SwiftDraw">
                <text fill="#505050" text-anchor="end" x="785.0" y="590.0">https://github.com/swhitty/SwiftDraw</text>
            </a>
        </g>
    </g>
    <g id="Guides" stroke="rgb(39, 170, 225)" stroke-width="0.5">
        <path id="Capline-S" d="M18,76 l800,0" />
        <path id="H-reference" d="M85,145.755 L87.685,145.755 L113.369,79.287 L114.052,79.287 L114.052,76 L112.148,76 L85,145.755 Z M95.693,121.536 L130.996,121.536 L130.263,119.313 L96.474,119.313 L95.693,121.536 Z M139.15,145.755 L141.787,145.755 L114.638,76 L113.466,76 L113.466,79.287 L139.15,145.755 Z" stroke="none" />
        <path id="Baseline-S" d="M18,146 l800,0" />
        <path id="left-margin-Ultralight-S" d="M220,56 l0,110" />
        <path id="right-margin-Ultralight-S" d="M310,56 l0,110" />
        <path id="left-margin-Regular-S" d="M420,56 l0,110" />
        <path id="right-margin-Regular-S" d="M510,56 l0,110" />
        <path id="left-margin-Black-S" d="M620,56 l0,110" />
        <path id="right-margin-Black-S" d="M710,56 l0,110" />
        <path id="Capline-M" d="M18,276 l800,0" />
        <path id="Baseline-M" d="M18,346 l800,0" />
        <path id="Capline-L" d="M18,476 l800,0" />
        <path id="Baseline-L" d="M18,546 l800,0" />
    </g>
    <g id="Symbols">
        <g id="Ultralight-S">
            <path d="M299.212,123.674 L283.059,139.828 C282.554,140.333 281.868,140.618 281.154,140.618 C280.439,140.618 279.754,140.333 279.249,139.828 L263.095,123.674 C262.043,122.62 262.044,120.915 263.096,119.863 C264.149,118.812 265.854,118.813 266.906,119.865 L278.462,131.425 L278.462,92.154 L232.692,92.154 C231.205,92.154 230,90.948 230,89.462 C230,87.975 231.205,86.769 232.692,86.769 L281.154,86.769 C281.868,86.769 282.553,87.053 283.058,87.558 C283.562,88.063 283.846,88.747 283.846,89.462 L283.846,131.425 L295.403,119.864 C296.453,118.813 298.159,118.812 299.211,119.863 C300.264,120.915 300.265,122.62 299.214,123.673 Z" />
        </g>
        <g id="Regular-S">
            <path d="M499.212,123.674 L483.059,139.828 C482.554,140.333 481.868,140.618 481.154,140.618 C480.439,140.618 479.754,140.333 479.249,139.828 L463.095,123.674 C462.043,122.62 462.044,120.915 463.096,119.863 C464.149,118.812 465.854,118.813 466.906,119.865 L478.462,131.425 L478.462,92.154 L432.692,92.154 C431.205,92.154 430,90.948 430,89.462 C430,87.975 431.205,86.769 432.692,86.769 L481.154,86.769 C481.868,86.769 482.553,87.053 483.058,87.558 C483.562,88.063 483.846,88.747 483.846,89.462 L483.846,131.425 L495.403,119.864 C496.453,118.813 498.159,118.812 499.211,119.863 C500.264,120.915 500.265,122.62 499.214,123.673 Z" />
        </g>
        <g id="Black-S">
            <path d="M699.213,123.674 L683.059,139.828 C682.554,140.333 681.868,140.618 681.154,140.618 C680.439,140.618 679.754,140.333 679.249,139.828 L663.095,123.674 C662.043,122.62 662.044,120.915 663.096,119.863 C664.149,118.812 665.854,118.813 666.906,119.865 L678.462,131.425 L678.462,92.154 L632.692,92.154 C631.205,92.154 630,90.948 630,89.462 C630,87.975 631.205,86.769 632.692,86.769 L681.154,86.769 C681.868,86.769 682.553,87.053 683.058,87.558 C683.562,88.063 683.846,88.747 683.846,89.462 L683.846,131.425 L695.403,119.864 C696.453,118.813 698.159,118.812 699.211,119.863 C700.264,120.915 700.265,122.62 699.214,123.673 Z" />
        </g>
    </g>
</svg>