<?xml version="1.0" encoding="UTF-8"?>
<svg height="600" width="800" xmlns="http://www.w3.org/2000/svg" xmlns:xlink="http://www.w3.org/1999/xlink">
    <g id="Notes" font-family="'LucidaGrande', 'Lucida Grande', sans-serif" font-size="13">
        <rect fill="white" height="600.0" width="800.0" x="0.0" y="0.0" />
        <g font-size="13">
            <text x="18.0" y="176.0">Small</text>
            <text x="18.0" y="376.0">Medium</text>
            <text x="18.0" y="576.0">Large</text>
        </g>
        <g font-size="9">
            <text x="250.0" y="30.0">Ultralight</text>
            <text x="450.0" y="30.0">Regular</text>
            <text x="650.0" y="30.0">Black</text>
            <text id="template-version" fill="#505050" text-anchor="end" x="785.0" y="575.0">Template v.3.0</text>
            <a href="https://github.com/swhitty/SwiftDraw">
                <text fill="#505050" text-anchor="end" x="785.0" y="590.0">https://github.com/swhitty/SwiftDraw</text>
            </a>
        </g>
    </g>
    <g id="Guides" stroke="rgb(39, 170, 225)" stroke-width="0.5">
        <path id="Capline-S" d="M18,76 l800,0" />
        <path id="H-reference" d="M85,145.755 L87.685,145.755 L113.369,79.287 L114.052,79.287 L114.052,76 L112.148,76 L85,145.755 Z M95.693,121.536 L130.996,121.536 L130.263,119.313 L96.474,119.313 L95.693,121.536 Z M139.15,145.755 L141.787,145.755 L114.638,76 L113.466,76 L113.466,79.287 L139.15,145.755 Z" stroke="none" />
        <path id="Baseline-S" d="M18,146 l800,0" />
        <path id="left-margin-Ultralight-S" d="M220,56 l0,110" />
        <path id="right-margin-Ultralight-S" d="M310,56 l0,110" />
        <path id="left-margin-Regular-S" d="M420,56 l0,110" />
        <path id="right-margin-Regular-S" d="M510,56 l0,110" />
        <path id="left-margin-Black-S" d="M620,56 l0,110" />
        <path id="right-margin-Black-S" d="M710,56 l0,110" />
        <path id="Capline-M" d="M18,276 l800,0" />
        <path id="Baseline-M" d="M18,346 l800,0" />
        <path id="Capline-L" d="M18,476 l800,0" />
        <path id="Baseline-L" d="M18,546 l800,0" />
    </g>
    <g id="Symbols">
        <g id="Ultralight-S">
            <path d="M289.231,86.769 C289.231,87.483 288.947,88.168 288.442,88.673 C287.937,89.178 287.253,89.462 286.538,89.462 L275.019,89.462 L260.659,132.538 L270.385,132.538 C271.872,132.538 273.077,133.744 273.077,135.231 C273.077,136.718 271.872,137.923 270.385,137.923 L243.462,137.923 C241.975,137.923 240.769,136.718 240.769,135.231 C240.769,133.744 241.975,132.538 243.462,132.538 L254.981,132.538 L269.341,89.462 L259.615,89.462 C258.128,89.462 256.923,88.256 256.923,86.769 C256.923,85.282 258.128,84.077 259.615,84.077 L286.538,84.077 C287.253,84.077 287.937,84.361 288.442,84.865 C288.947,85.37 289.231,86.055 289.231,86.769 Z" />
        </g>
        <g id="Regular-S">
            <path d="M489.231,86.769 C489.231,87.483 488.947,88.168 488.442,88.673 C487.937,89.178 487.253,89.462 486.538,89.462 L475.019,89.462 L460.659,132.538 L470.385,132.538 C471.872,132.538 473.077,133.744 473.077,135.231 C473.077,136.718 471.872,137.923 470.385,137.923 L443.462,137.923 C441.975,137.923 440.769,136.718 440.769,135.231 C440.769,133.744 441.975,132.538 443.462,132.538 L454.981,132.538 L469.341,89.462 L459.615,89.462 C458.128,89.462 456.923,88.256 456.923,86.769 C456.923,85.282 458.128,84.077 459.615,84.077 L486.538,84.077 C487.253,84.077 487.937,84.361 488.442,84.865 C488.947,85.37 489.231,86.055 489.231,86.769 Z" />
        </g>
        <g id="Black-S">
            <path d="M689.231,86.769 C689.231,87.483 688.947,88.168 688.442,88.673 C687.937,89.178 687.253,89.462 686.538,89.462 L675.019,89.462 L660.659,132.538 L670.385,132.538 C671.872,132.538 673.077,133.744 673.077,135.231 C673.077,136.718 671.872,137.923 670.385,137.923 L643.462,137.923 C641.975,137.923 640.769,136.718 640.769,135.231 C640.769,133.744 641.975,132.538 643.462,132.538 L654.981,132.538 L669.341,89.462 L659.615,89.462 C658.128,89.462 656.923,88.256 656.923,86.769 C656.923,85.282 658.128,84.077 659.615,84.077 L686.538,84.077 C687.253,84.077 687.937,84.361 688.442,84.865 C688.947,85.37 689.231,86.055 689.231,86.769 Z" />
        </g>
    </g>
</svg>