<?xml version="1.0" encoding="UTF-8"?>
<svg height="600" width="800" xmlns="http://www.w3.org/2000/svg" xmlns:xlink="http://www.w3.org/1999/xlink">
    <g id="Notes" font-family="'LucidaGrande', 'Lucida Grande', sans-serif" font-size="13">
        <rect fill="white" height="600.0" width="800.0" x="0.0" y="0.0" />
        <g font-size="13">
            <text x="18.0" y="176.0">Small</text>
            <text x="18.0" y="376.0">Medium</text>
            <text x="18.0" y="576.0">Large</text>
        </g>
        <g font-size="9">
            <text x="250.0" y="30.0">Ultralight</text>
            <text x="450.0" y="30.0">Regular</text>
            <text x="650.0" y="30.0">Black</text>
            <text id="template-version" fill="#505050" text-anchor="end" x="785.0" y="575.0">Template v.3.0</text>
            <a href="https://github.com/swhitty/SwiftDraw">
                <text fill="#505050" text-anchor="end" x="785.0" y="590.0">https://github.com/swhitty/SwiftDraw</text>
            </a>
        </g>
    </g>
    <g id="Guides" stroke="rgb(39, 170, 225)" stroke-width="0.5">
        <path id="Capline-S" d="M18,76 l800,0" />
        <path id="H-reference" d="M85,145.755 L87.685,145.755 L113.369,79.287 L114.052,79.287 L114.052,76 L112.148,76 L85,145.755 Z M95.693,121.536 L130.996,121.536 L130.263,119.313 L96.474,119.313 L95.693,121.536 Z M139.15,145.755 L141.787,145.755 L114.638,76 L113.466,76 L113.466,79.287 L139.15,145.755 Z" stroke="none" />
        <path id="Baseline-S" d="M18,146 l800,0" />
        <path id="left-margin-Ultralight-S" d="M220,56 l0,110" />
        <path id="right-margin-Ultralight-S" d="M310,56 l0,110" />
        <path id="left-margin-Regular-S" d="M420,56 l0,110" />
        <path id="right-margin-Regular-S" d="M510,56 l0,110" />
        <path id="left-margin-Black-S" d="M620,56 l0,110" />
        <path id="right-margin-Black-S" d="M710,56 l0,110" />
        <path id="Capline-M" d="M18,276 l800,0" />
        <path id="Baseline-M" d="M18,346 l800,0" />
        <path id="Capline-L" d="M18,476 l800,0" />
        <path id="Baseline-L" d="M18,546 l800,0" />
    </g>
    <g id="Symbols">
        <g id="Ultralight-S">
            <path d="M294.615,119.077 C294.615,119.791 294.332,120.476 293.827,120.981 C293.322,121.486 292.637,121.769 291.923,121.769 L267.692,121.769 L267.692,139.501 L273.864,133.326 C274.915,132.274 276.62,132.273 277.673,133.325 C278.726,134.376 278.727,136.082 277.675,137.135 L266.906,147.904 C266.401,148.409 265.716,148.693 265.001,148.693 C264.286,148.693 263.601,148.409 263.096,147.904 L252.327,137.135 C251.275,136.081 251.276,134.375 252.328,133.324 C253.381,132.272 255.086,132.273 256.138,133.326 L262.308,139.501 L262.308,121.769 L238.077,121.769 C236.59,121.769 235.385,120.564 235.385,119.077 C235.385,117.59 236.59,116.385 238.077,116.385 L291.923,116.385 C292.637,116.385 293.322,116.668 293.827,117.173 C294.332,117.678 294.615,118.363 294.615,119.077 Z M238.077,105.615 L291.923,105.615 C293.41,105.615 294.615,104.41 294.615,102.923 C294.615,101.436 293.41,100.231 291.923,100.231 L267.692,100.231 L267.692,82.499 L273.864,88.674 C274.915,89.726 276.62,89.727 277.673,88.675 C278.726,87.624 278.727,85.918 277.675,84.865 L266.906,74.096 C266.401,73.591 265.716,73.307 265.001,73.307 C264.286,73.307 263.601,73.591 263.096,74.096 L252.327,84.865 C251.275,85.919 251.275,87.625 252.328,88.676 C253.381,89.728 255.086,89.727 256.138,88.674 L262.308,82.499 L262.308,100.231 L238.077,100.231 C236.59,100.231 235.385,101.436 235.385,102.923 C235.385,104.41 236.59,105.615 238.077,105.615 Z" />
        </g>
        <g id="Regular-S">
            <path d="M494.615,119.077 C494.615,119.791 494.332,120.476 493.827,120.981 C493.322,121.486 492.637,121.769 491.923,121.769 L467.692,121.769 L467.692,139.501 L473.864,133.326 C474.915,132.274 476.62,132.273 477.673,133.325 C478.726,134.376 478.727,136.082 477.675,137.135 L466.906,147.904 C466.401,148.409 465.716,148.693 465.001,148.693 C464.286,148.693 463.601,148.409 463.096,147.904 L452.327,137.135 C451.275,136.081 451.275,134.375 452.328,133.324 C453.381,132.272 455.086,132.273 456.138,133.326 L462.308,139.501 L462.308,121.769 L438.077,121.769 C436.59,121.769 435.385,120.564 435.385,119.077 C435.385,117.59 436.59,116.385 438.077,116.385 L491.923,116.385 C492.637,116.385 493.322,116.668 493.827,117.173 C494.332,117.678 494.615,118.363 494.615,119.077 Z M438.077,105.615 L491.923,105.615 C493.41,105.615 494.615,104.41 494.615,102.923 C494.615,101.436 493.41,100.231 491.923,100.231 L467.692,100.231 L467.692,82.499 L473.864,88.674 C474.915,89.726 476.62,89.727 477.673,88.675 C478.726,87.624 478.727,85.918 477.675,84.865 L466.906,74.096 C466.401,73.591 465.716,73.307 465.001,73.307 C464.286,73.307 463.601,73.591 463.096,74.096 L452.327,84.865 C451.275,85.919 451.275,87.625 452.328,88.676 C453.381,89.728 455.086,89.727 456.138,88.674 L462.308,82.499 L462.308,100.231 L438.077,100.231 C436.59,100.231 435.385,101.436 435.385,102.923 C435.385,104.41 436.59,105.615 438.077,105.615 Z" />
        </g>
        <g id="Black-S">
            <path d="M694.615,119.077 C694.615,119.791 694.332,120.476 693.827,120.981 C693.322,121.486 692.637,121.769 691.923,121.769 L667.692,121.769 L667.692,139.501 L673.864,133.326 C674.915,132.274 676.62,132.273 677.673,133.325 C678.726,134.376 678.727,136.082 677.675,137.135 L666.906,147.904 C666.401,148.409 665.716,148.693 665.001,148.693 C664.286,148.693 663.601,148.409 663.096,147.904 L652.327,137.135 C651.275,136.081 651.276,134.375 652.328,133.324 C653.381,132.272 655.086,132.273 656.138,133.326 L662.308,139.501 L662.308,121.769 L638.077,121.769 C636.59,121.769 635.385,120.564 635.385,119.077 C635.385,117.59 636.59,116.385 638.077,116.385 L691.923,116.385 C692.637,116.385 693.322,116.668 693.827,117.173 C694.332,117.678 694.615,118.363 694.615,119.077 Z M638.077,105.615 L691.923,105.615 C693.41,105.615 694.615,104.41 694.615,102.923 C694.615,101.436 693.41,100.231 691.923,100.231 L667.692,100.231 L667.692,82.499 L673.864,88.674 C674.915,89.726 676.62,89.727 677.673,88.675 C678.726,87.624 678.727,85.918 677.675,84.865 L666.906,74.096 C666.401,73.591 665.716,73.307 665.001,73.307 C664.286,73.307 663.601,73.591 663.096,74.096 L652.327,84.865 C651.275,85.919 651.276,87.625 652.328,88.676 C653.381,89.728 655.086,89.727 656.138,88.674 L662.308,82.499 L662.308,100.231 L638.077,100.231 C636.59,100.231 635.385,101.436 635.385,102.923 C635.385,104.41 636.59,105.615 638.077,105.615 Z" />
        </g>
    </g>
</svg>