<?xml version="1.0" encoding="UTF-8"?>
<svg height="600" width="800" xmlns="http://www.w3.org/2000/svg" xmlns:xlink="http://www.w3.org/1999/xlink">
    <g id="Notes" font-family="'LucidaGrande', 'Lucida Grande', sans-serif" font-size="13">
        <rect fill="white" height="600.0" width="800.0" x="0.0" y="0.0" />
        <g font-size="13">
            <text x="18.0" y="176.0">Small</text>
            <text x="18.0" y="376.0">Medium</text>
            <text x="18.0" y="576.0">Large</text>
        </g>
        <g font-size="9">
            <text x="250.0" y="30.0">Ultralight</text>
            <text x="450.0" y="30.0">Regular</text>
            <text x="650.0" y="30.0">Black</text>
            <text id="template-version" fill="#505050" text-anchor="end" x="785.0" y="575.0">Template v.3.0</text>
            <a href="https://github.com/swhitty/SwiftDraw">
                <text fill="#505050" text-anchor="end" x="785.0" y="590.0">https://github.com/swhitty/SwiftDraw</text>
            </a>
        </g>
    </g>
    <g id="Guides" stroke="rgb(39, 170, 225)" stroke-width="0.5">
        <path id="Capline-S" d="M18,76 l800,0" />
        <path id="H-reference" d="M85,145.755 L87.685,145.755 L113.369,79.287 L114.052,79.287 L114.052,76 L112.148,76 L85,145.755 Z M95.693,121.536 L130.996,121.536 L130.263,119.313 L96.474,119.313 L95.693,121.536 Z M139.15,145.755 L141.787,145.755 L114.638,76 L113.466,76 L113.466,79.287 L139.15,145.755 Z" stroke="none" />
        <path id="Baseline-S" d="M18,146 l800,0" />
        <path id="left-margin-Ultralight-S" d="M220,56 l0,110" />
        <path id="right-margin-Ultralight-S" d="M310,56 l0,110" />
        <path id="left-margin-Regular-S" d="M420,56 l0,110" />
        <path id="right-margin-Regular-S" d="M510,56 l0,110" />
        <path id="left-margin-Black-S" d="M620,56 l0,110" />
        <path id="right-margin-Black-S" d="M710,56 l0,110" />
        <path id="Capline-M" d="M18,276 l800,0" />
        <path id="Baseline-M" d="M18,346 l800,0" />
        <path id="Capline-L" d="M18,476 l800,0" />
        <path id="Baseline-L" d="M18,546 l800,0" />
    </g>
    <g id="Symbols">
        <g id="Ultralight-S">
            <path d="M305.385,111 C305.385,111.714 305.101,112.399 304.596,112.904 C304.091,113.409 303.406,113.692 302.692,113.692 L294.494,113.692 C294.204,116.949 293.37,120.134 292.027,123.115 C291.594,124.084 290.632,124.707 289.571,124.707 C289.191,124.707 288.816,124.626 288.47,124.468 C287.117,123.856 286.515,122.265 287.124,120.911 C291.055,112.117 289.408,101.829 282.929,94.701 C276.449,87.573 266.364,84.957 257.236,88.035 C256.318,88.371 255.289,88.184 254.549,87.545 C253.809,86.905 253.474,85.915 253.673,84.958 C253.873,84 254.576,83.226 255.51,82.936 C257.711,82.193 259.993,81.714 262.308,81.509 L262.308,73.308 C262.308,71.821 263.513,70.615 265,70.615 C266.487,70.615 267.692,71.821 267.692,73.308 L267.692,81.509 C281.912,82.826 293.174,94.088 294.491,108.308 L302.692,108.308 C303.406,108.308 304.091,108.591 304.596,109.096 C305.101,109.601 305.385,110.286 305.385,111 Z M293.915,138.805 C294.576,139.514 294.804,140.525 294.512,141.449 C294.221,142.374 293.454,143.07 292.506,143.272 C291.558,143.475 290.574,143.151 289.931,142.426 L282.837,134.635 C278.435,137.965 273.189,139.993 267.692,140.491 L267.692,148.692 C267.692,150.179 266.487,151.385 265,151.385 C263.513,151.385 262.308,150.179 262.308,148.692 L262.308,140.491 C248.088,139.174 236.826,127.912 235.509,113.692 L227.308,113.692 C225.821,113.692 224.615,112.487 224.615,111 C224.615,109.513 225.821,108.308 227.308,108.308 L235.509,108.308 C236.107,101.854 238.798,95.772 243.172,90.989 L236.085,83.195 C235.424,82.486 235.196,81.475 235.488,80.551 C235.779,79.626 236.546,78.93 237.494,78.728 C238.442,78.525 239.426,78.849 240.069,79.574 Z M279.202,130.627 L246.827,94.998 C238.729,104.264 238.863,118.129 247.139,127.237 C255.415,136.345 269.204,137.803 279.202,130.627 Z" />
        </g>
        <g id="Regular-S">
            <path d="M505.385,111 C505.385,111.714 505.101,112.399 504.596,112.904 C504.091,113.409 503.406,113.692 502.692,113.692 L494.494,113.692 C494.204,116.949 493.37,120.134 492.027,123.115 C491.594,124.084 490.632,124.707 489.571,124.707 C489.191,124.707 488.816,124.626 488.47,124.468 C487.117,123.856 486.515,122.265 487.124,120.911 C491.055,112.117 489.408,101.829 482.929,94.701 C476.449,87.573 466.364,84.957 457.236,88.035 C456.318,88.371 455.289,88.184 454.549,87.545 C453.809,86.905 453.474,85.915 453.673,84.958 C453.873,84 454.576,83.226 455.51,82.936 C457.711,82.193 459.993,81.714 462.308,81.509 L462.308,73.308 C462.308,71.821 463.513,70.615 465,70.615 C466.487,70.615 467.692,71.821 467.692,73.308 L467.692,81.509 C481.912,82.826 493.174,94.088 494.491,108.308 L502.692,108.308 C503.406,108.308 504.091,108.591 504.596,109.096 C505.101,109.601 505.385,110.286 505.385,111 Z M493.915,138.805 C494.576,139.514 494.804,140.525 494.512,141.449 C494.221,142.374 493.454,143.07 492.506,143.272 C491.558,143.475 490.574,143.151 489.931,142.426 L482.837,134.635 C478.435,137.965 473.189,139.993 467.692,140.491 L467.692,148.692 C467.692,150.179 466.487,151.385 465,151.385 C463.513,151.385 462.308,150.179 462.308,148.692 L462.308,140.491 C448.088,139.174 436.826,127.912 435.509,113.692 L427.308,113.692 C425.821,113.692 424.615,112.487 424.615,111 C424.615,109.513 425.821,108.308 427.308,108.308 L435.509,108.308 C436.107,101.854 438.798,95.772 443.172,90.989 L436.085,83.195 C435.424,82.486 435.196,81.475 435.488,80.551 C435.779,79.626 436.546,78.93 437.494,78.728 C438.442,78.525 439.426,78.849 440.069,79.574 Z M479.202,130.627 L446.827,94.998 C438.729,104.264 438.863,118.129 447.139,127.237 C455.415,136.345 469.204,137.803 479.202,130.627 Z" />
        </g>
        <g id="Black-S">
            <path d="M705.385,111 C705.385,111.714 705.101,112.399 704.596,112.904 C704.091,113.409 703.406,113.692 702.692,113.692 L694.494,113.692 C694.204,116.949 693.37,120.134 692.027,123.115 C691.594,124.084 690.632,124.707 689.571,124.707 C689.191,124.707 688.816,124.626 688.47,124.468 C687.117,123.856 686.515,122.265 687.124,120.911 C691.055,112.117 689.409,101.829 682.929,94.701 C676.449,87.573 666.364,84.957 657.236,88.035 C656.318,88.371 655.289,88.184 654.549,87.545 C653.809,86.905 653.474,85.915 653.673,84.958 C653.873,84 654.576,83.226 655.51,82.936 C657.711,82.193 659.993,81.714 662.308,81.509 L662.308,73.308 C662.308,71.821 663.513,70.615 665,70.615 C666.487,70.615 667.692,71.821 667.692,73.308 L667.692,81.509 C681.912,82.826 693.174,94.088 694.491,108.308 L702.692,108.308 C703.406,108.308 704.091,108.591 704.596,109.096 C705.101,109.601 705.385,110.286 705.385,111 Z M693.915,138.805 C694.576,139.514 694.804,140.525 694.512,141.449 C694.221,142.374 693.454,143.07 692.506,143.272 C691.558,143.475 690.574,143.151 689.931,142.426 L682.837,134.635 C678.435,137.965 673.189,139.993 667.692,140.491 L667.692,148.692 C667.692,150.179 666.487,151.385 665,151.385 C663.513,151.385 662.308,150.179 662.308,148.692 L662.308,140.491 C648.088,139.174 636.826,127.912 635.509,113.692 L627.308,113.692 C625.821,113.692 624.615,112.487 624.615,111 C624.615,109.513 625.821,108.308 627.308,108.308 L635.509,108.308 C636.107,101.854 638.798,95.772 643.172,90.989 L636.085,83.195 C635.424,82.486 635.196,81.475 635.488,80.551 C635.779,79.626 636.546,78.93 637.494,78.728 C638.442,78.525 639.426,78.849 640.069,79.574 Z M679.202,130.627 L646.827,94.998 C638.729,104.264 638.863,118.129 647.139,127.237 C655.415,136.345 669.204,137.803 679.202,130.627 Z" />
        </g>
    </g>
</svg>