<?xml version="1.0" encoding="UTF-8"?>
<svg height="600" width="800" xmlns="http://www.w3.org/2000/svg" xmlns:xlink="http://www.w3.org/1999/xlink">
    <g id="Notes" font-family="'LucidaGrande', 'Lucida Grande', sans-serif" font-size="13">
        <rect fill="white" height="600.0" width="800.0" x="0.0" y="0.0" />
        <g font-size="13">
            <text x="18.0" y="176.0">Small</text>
            <text x="18.0" y="376.0">Medium</text>
            <text x="18.0" y="576.0">Large</text>
        </g>
        <g font-size="9">
            <text x="250.0" y="30.0">Ultralight</text>
            <text x="450.0" y="30.0">Regular</text>
            <text x="650.0" y="30.0">Black</text>
            <text id="template-version" fill="#505050" text-anchor="end" x="785.0" y="575.0">Template v.3.0</text>
            <a href="https://github.com/swhitty/SwiftDraw">
                <text fill="#505050" text-anchor="end" x="785.0" y="590.0">https://github.com/swhitty/SwiftDraw</text>
            </a>
        </g>
    </g>
    <g id="Guides" stroke="rgb(39, 170, 225)" stroke-width="0.5">
        <path id="Capline-S" d="M18,76 l800,0" />
        <path id="H-reference" d="M85,145.755 L87.685,145.755 L113.369,79.287 L114.052,79.287 L114.052,76 L112.148,76 L85,145.755 Z M95.693,121.536 L130.996,121.536 L130.263,119.313 L96.474,119.313 L95.693,121.536 Z M139.15,145.755 L141.787,145.755 L114.638,76 L113.466,76 L113.466,79.287 L139.15,145.755 Z" stroke="none" />
        <path id="Baseline-S" d="M18,146 l800,0" />
        <path id="left-margin-Ultralight-S" d="M220,56 l0,110" />
        <path id="right-margin-Ultralight-S" d="M310,56 l0,110" />
        <path id="left-margin-Regular-S" d="M420,56 l0,110" />
        <path id="right-margin-Regular-S" d="M510,56 l0,110" />
        <path id="left-margin-Black-S" d="M620,56 l0,110" />
        <path id="right-margin-Black-S" d="M710,56 l0,110" />
        <path id="Capline-M" d="M18,276 l800,0" />
        <path id="Baseline-M" d="M18,346 l800,0" />
        <path id="Capline-L" d="M18,476 l800,0" />
        <path id="Baseline-L" d="M18,546 l800,0" />
    </g>
    <g id="Symbols">
        <g id="Ultralight-S">
            <path d="M300.673,94.887 C299.139,93.149 296.933,92.153 294.615,92.154 L275.769,92.154 L275.769,86.769 C275.769,83.199 274.351,79.775 271.826,77.25 C269.302,74.726 265.878,73.308 262.308,73.308 C261.288,73.307 260.355,73.883 259.898,74.795 L247.184,100.231 L232.692,100.231 C231.264,100.231 229.895,100.798 228.885,101.808 C227.875,102.818 227.308,104.187 227.308,105.615 L227.308,135.231 C227.308,136.659 227.875,138.028 228.885,139.038 C229.895,140.048 231.264,140.615 232.692,140.615 L290.577,140.615 C294.648,140.617 298.084,137.588 298.593,133.548 L302.632,101.24 C302.921,98.939 302.208,96.625 300.673,94.887 Z M232.692,105.615 L246.154,105.615 L246.154,135.231 L232.692,135.231 Z M297.288,100.567 L293.249,132.875 C293.079,134.221 291.934,135.231 290.577,135.231 L251.538,135.231 L251.538,103.559 L263.893,78.847 C267.668,79.603 270.386,82.919 270.385,86.769 L270.385,94.846 C270.385,95.56 270.668,96.245 271.173,96.75 C271.678,97.255 272.363,97.538 273.077,97.538 L294.615,97.538 C295.388,97.538 296.124,97.87 296.635,98.45 C297.147,99.029 297.384,99.801 297.288,100.567 Z" />
        </g>
        <g id="Regular-S">
            <path d="M500.673,94.887 C499.139,93.149 496.933,92.153 494.615,92.154 L475.769,92.154 L475.769,86.769 C475.769,83.199 474.351,79.775 471.826,77.25 C469.302,74.726 465.878,73.308 462.308,73.308 C461.288,73.307 460.355,73.883 459.898,74.795 L447.184,100.231 L432.692,100.231 C431.264,100.231 429.895,100.798 428.885,101.808 C427.875,102.818 427.308,104.187 427.308,105.615 L427.308,135.231 C427.308,136.659 427.875,138.028 428.885,139.038 C429.895,140.048 431.264,140.615 432.692,140.615 L490.577,140.615 C494.648,140.617 498.084,137.588 498.593,133.548 L502.632,101.24 C502.921,98.939 502.208,96.625 500.673,94.887 Z M432.692,105.615 L446.154,105.615 L446.154,135.231 L432.692,135.231 Z M497.287,100.567 L493.249,132.875 C493.079,134.221 491.934,135.231 490.577,135.231 L451.538,135.231 L451.538,103.559 L463.893,78.847 C467.668,79.603 470.386,82.919 470.385,86.769 L470.385,94.846 C470.385,95.56 470.668,96.245 471.173,96.75 C471.678,97.255 472.363,97.538 473.077,97.538 L494.615,97.538 C495.388,97.538 496.124,97.87 496.635,98.45 C497.147,99.029 497.384,99.801 497.287,100.567 Z" />
        </g>
        <g id="Black-S">
            <path d="M700.673,94.887 C699.139,93.149 696.933,92.153 694.615,92.154 L675.769,92.154 L675.769,86.769 C675.769,83.199 674.351,79.775 671.826,77.25 C669.302,74.726 665.878,73.308 662.308,73.308 C661.288,73.307 660.355,73.883 659.898,74.795 L647.184,100.231 L632.692,100.231 C631.264,100.231 629.895,100.798 628.885,101.808 C627.875,102.818 627.308,104.187 627.308,105.615 L627.308,135.231 C627.308,136.659 627.875,138.028 628.885,139.038 C629.895,140.048 631.264,140.615 632.692,140.615 L690.577,140.615 C694.648,140.617 698.084,137.588 698.593,133.548 L702.632,101.24 C702.921,98.939 702.208,96.625 700.673,94.887 Z M632.692,105.615 L646.154,105.615 L646.154,135.231 L632.692,135.231 Z M697.288,100.567 L693.249,132.875 C693.079,134.221 691.934,135.231 690.577,135.231 L651.538,135.231 L651.538,103.559 L663.893,78.847 C667.668,79.603 670.386,82.919 670.385,86.769 L670.385,94.846 C670.385,95.56 670.668,96.245 671.173,96.75 C671.678,97.255 672.363,97.538 673.077,97.538 L694.615,97.538 C695.388,97.538 696.124,97.87 696.635,98.45 C697.147,99.029 697.384,99.801 697.288,100.567 Z" />
        </g>
    </g>
</svg>