<?xml version="1.0" encoding="UTF-8"?>
<svg height="600" width="800" xmlns="http://www.w3.org/2000/svg" xmlns:xlink="http://www.w3.org/1999/xlink">
    <g id="Notes" font-family="'LucidaGrande', 'Lucida Grande', sans-serif" font-size="13">
        <rect fill="white" height="600.0" width="800.0" x="0.0" y="0.0" />
        <g font-size="13">
            <text x="18.0" y="176.0">Small</text>
            <text x="18.0" y="376.0">Medium</text>
            <text x="18.0" y="576.0">Large</text>
        </g>
        <g font-size="9">
            <text x="250.0" y="30.0">Ultralight</text>
            <text x="450.0" y="30.0">Regular</text>
            <text x="650.0" y="30.0">Black</text>
            <text id="template-version" fill="#505050" text-anchor="end" x="785.0" y="575.0">Template v.3.0</text>
            <a href="https://github.com/swhitty/SwiftDraw">
                <text fill="#505050" text-anchor="end" x="785.0" y="590.0">https://github.com/swhitty/SwiftDraw</text>
            </a>
        </g>
    </g>
    <g id="Guides" stroke="rgb(39, 170, 225)" stroke-width="0.5">
        <path id="Capline-S" d="M18,76 l800,0" />
        <path id="H-reference" d="M85,145.755 L87.685,145.755 L113.369,79.287 L114.052,79.287 L114.052,76 L112.148,76 L85,145.755 Z M95.693,121.536 L130.996,121.536 L130.263,119.313 L96.474,119.313 L95.693,121.536 Z M139.15,145.755 L141.787,145.755 L114.638,76 L113.466,76 L113.466,79.287 L139.15,145.755 Z" stroke="none" />
        <path id="Baseline-S" d="M18,146 l800,0" />
        <path id="left-margin-Ultralight-S" d="M220,56 l0,110" />
        <path id="right-margin-Ultralight-S" d="M310,56 l0,110" />
        <path id="left-margin-Regular-S" d="M420,56 l0,110" />
        <path id="right-margin-Regular-S" d="M510,56 l0,110" />
        <path id="left-margin-Black-S" d="M620,56 l0,110" />
        <path id="right-margin-Black-S" d="M710,56 l0,110" />
        <path id="Capline-M" d="M18,276 l800,0" />
        <path id="Baseline-M" d="M18,346 l800,0" />
        <path id="Capline-L" d="M18,476 l800,0" />
        <path id="Baseline-L" d="M18,546 l800,0" />
    </g>
    <g id="Symbols">
        <g id="Ultralight-S">
            <path d="M285.051,116.667 L274.282,111.283 C273.419,110.853 272.392,110.917 271.589,111.451 L266.646,114.749 C264.376,113.501 262.509,111.634 261.261,109.364 L264.559,104.421 C265.093,103.618 265.157,102.591 264.727,101.728 L259.343,90.959 C258.887,90.04 257.949,89.459 256.923,89.462 C253.353,89.462 249.929,90.88 247.404,93.404 C244.88,95.929 243.462,99.353 243.462,102.923 C243.479,119.27 256.727,132.519 273.076,132.538 C276.646,132.538 280.07,131.12 282.594,128.596 C285.119,126.071 286.537,122.647 286.537,119.077 C286.538,118.057 285.963,117.124 285.051,116.667 Z M273.077,127.154 C259.701,127.139 248.861,116.299 248.846,102.923 C248.845,99.073 251.562,95.757 255.337,95.001 L259.201,102.741 L255.913,107.635 C255.414,108.383 255.322,109.331 255.668,110.162 C257.594,114.74 261.236,118.382 265.814,120.309 C266.648,120.67 267.607,120.586 268.365,120.087 L273.282,116.809 L281.023,120.672 C280.261,124.452 276.933,127.167 273.077,127.154 Z M265,76 C252.709,75.997 241.317,82.442 234.988,92.979 C228.66,103.516 228.322,116.601 234.099,127.45 L230.279,138.909 C229.634,140.844 230.138,142.978 231.58,144.42 C233.022,145.862 235.156,146.366 237.091,145.721 L248.55,141.901 C261.408,148.74 277.157,146.902 288.095,137.286 C299.033,127.67 302.873,112.286 297.737,98.658 C292.602,85.03 279.564,76.006 265,76 Z M265,140.615 C259.794,140.619 254.679,139.248 250.172,136.641 C249.505,136.254 248.703,136.172 247.971,136.415 L235.385,140.615 L239.581,128.029 C239.826,127.297 239.745,126.496 239.359,125.828 C232.647,114.223 234.567,99.557 244.041,90.072 C253.514,80.587 268.178,78.648 279.791,85.345 C291.404,92.043 297.069,105.706 293.604,118.656 C290.138,131.606 278.406,140.613 265,140.615 Z" />
        </g>
        <g id="Regular-S">
            <path d="M485.051,116.667 L474.282,111.283 C473.419,110.853 472.392,110.917 471.589,111.451 L466.646,114.749 C464.376,113.501 462.509,111.634 461.261,109.364 L464.559,104.421 C465.093,103.618 465.157,102.591 464.727,101.728 L459.343,90.959 C458.887,90.04 457.949,89.459 456.923,89.462 C453.353,89.462 449.929,90.88 447.404,93.404 C444.88,95.929 443.462,99.353 443.462,102.923 C443.479,119.27 456.727,132.519 473.076,132.538 C476.646,132.538 480.07,131.12 482.594,128.596 C485.119,126.071 486.537,122.647 486.537,119.077 C486.538,118.057 485.963,117.124 485.051,116.667 Z M473.077,127.154 C459.701,127.139 448.861,116.299 448.846,102.923 C448.845,99.073 451.562,95.757 455.337,95.001 L459.201,102.741 L455.913,107.635 C455.414,108.383 455.322,109.331 455.668,110.162 C457.594,114.74 461.236,118.382 465.814,120.309 C466.648,120.67 467.607,120.586 468.365,120.087 L473.282,116.809 L481.023,120.672 C480.261,124.452 476.933,127.167 473.077,127.154 Z M465,76 C452.709,75.997 441.317,82.442 434.988,92.979 C428.66,103.516 428.322,116.601 434.099,127.45 L430.279,138.909 C429.634,140.844 430.138,142.978 431.58,144.42 C433.022,145.862 435.156,146.366 437.091,145.721 L448.55,141.901 C461.408,148.74 477.157,146.902 488.095,137.286 C499.033,127.67 502.873,112.286 497.737,98.658 C492.602,85.03 479.564,76.006 465,76 Z M465,140.615 C459.794,140.619 454.679,139.248 450.172,136.641 C449.505,136.254 448.703,136.172 447.971,136.415 L435.385,140.615 L439.581,128.029 C439.826,127.297 439.745,126.496 439.359,125.828 C432.647,114.223 434.567,99.557 444.041,90.072 C453.514,80.587 468.178,78.648 479.791,85.345 C491.404,92.043 497.069,105.706 493.604,118.656 C490.138,131.606 478.406,140.613 465,140.615 Z" />
        </g>
        <g id="Black-S">
            <path d="M685.051,116.667 L674.282,111.283 C673.419,110.853 672.392,110.917 671.589,111.451 L666.646,114.749 C664.376,113.501 662.509,111.634 661.261,109.364 L664.559,104.421 C665.093,103.618 665.157,102.591 664.727,101.728 L659.343,90.959 C658.888,90.04 657.949,89.459 656.923,89.462 C653.353,89.462 649.929,90.88 647.404,93.404 C644.88,95.929 643.462,99.353 643.462,102.923 C643.479,119.27 656.727,132.519 673.076,132.538 C676.646,132.538 680.07,131.12 682.594,128.596 C685.119,126.071 686.537,122.647 686.537,119.077 C686.538,118.057 685.963,117.124 685.051,116.667 Z M673.077,127.154 C659.701,127.139 648.861,116.299 648.846,102.923 C648.845,99.073 651.562,95.757 655.337,95.001 L659.201,102.741 L655.913,107.635 C655.414,108.383 655.322,109.331 655.668,110.162 C657.594,114.74 661.236,118.382 665.814,120.309 C666.648,120.67 667.607,120.586 668.365,120.087 L673.282,116.809 L681.023,120.672 C680.261,124.452 676.933,127.167 673.077,127.154 Z M665,76 C652.709,75.997 641.317,82.442 634.988,92.979 C628.66,103.516 628.322,116.601 634.099,127.45 L630.279,138.909 C629.634,140.844 630.138,142.978 631.58,144.42 C633.022,145.862 635.156,146.366 637.091,145.721 L648.55,141.901 C661.408,148.74 677.157,146.902 688.095,137.286 C699.033,127.67 702.873,112.286 697.737,98.658 C692.602,85.03 679.564,76.006 665,76 Z M665,140.615 C659.794,140.619 654.679,139.248 650.172,136.641 C649.505,136.254 648.703,136.172 647.971,136.415 L635.385,140.615 L639.581,128.029 C639.826,127.297 639.745,126.496 639.359,125.828 C632.647,114.223 634.567,99.557 644.041,90.072 C653.514,80.587 668.178,78.648 679.791,85.345 C691.404,92.043 697.069,105.706 693.604,118.656 C690.138,131.606 678.406,140.613 665,140.615 Z" />
        </g>
    </g>
</svg>