<?xml version="1.0" encoding="UTF-8"?>
<svg height="600" width="800" xmlns="http://www.w3.org/2000/svg" xmlns:xlink="http://www.w3.org/1999/xlink">
    <g id="Notes" font-family="'LucidaGrande', 'Lucida Grande', sans-serif" font-size="13">
        <rect fill="white" height="600.0" width="800.0" x="0.0" y="0.0" />
        <g font-size="13">
            <text x="18.0" y="176.0">Small</text>
            <text x="18.0" y="376.0">Medium</text>
            <text x="18.0" y="576.0">Large</text>
        </g>
        <g font-size="9">
            <text x="250.0" y="30.0">Ultralight</text>
            <text x="450.0" y="30.0">Regular</text>
            <text x="650.0" y="30.0">Black</text>
            <text id="template-version" fill="#505050" text-anchor="end" x="785.0" y="575.0">Template v.3.0</text>
            <a href="https://github.com/swhitty/SwiftDraw">
                <text fill="#505050" text-anchor="end" x="785.0" y="590.0">https://github.com/swhitty/SwiftDraw</text>
            </a>
        </g>
    </g>
    <g id="Guides" stroke="rgb(39, 170, 225)" stroke-width="0.5">
        <path id="Capline-S" d="M18,76 l800,0" />
        <path id="H-reference" d="M85,145.755 L87.685,145.755 L113.369,79.287 L114.052,79.287 L114.052,76 L112.148,76 L85,145.755 Z M95.693,121.536 L130.996,121.536 L130.263,119.313 L96.474,119.313 L95.693,121.536 Z M139.15,145.755 L141.787,145.755 L114.638,76 L113.466,76 L113.466,79.287 L139.15,145.755 Z" stroke="none" />
        <path id="Baseline-S" d="M18,146 l800,0" />
        <path id="left-margin-Ultralight-S" d="M220,56 l0,110" />
        <path id="right-margin-Ultralight-S" d="M310,56 l0,110" />
        <path id="left-margin-Regular-S" d="M420,56 l0,110" />
        <path id="right-margin-Regular-S" d="M510,56 l0,110" />
        <path id="left-margin-Black-S" d="M620,56 l0,110" />
        <path id="right-margin-Black-S" d="M710,56 l0,110" />
        <path id="Capline-M" d="M18,276 l800,0" />
        <path id="Baseline-M" d="M18,346 l800,0" />
        <path id="Capline-L" d="M18,476 l800,0" />
        <path id="Baseline-L" d="M18,546 l800,0" />
    </g>
    <g id="Symbols">
        <g id="Ultralight-S">
            <path d="M300.135,106.453 L251.646,76.791 C249.981,75.772 247.896,75.733 246.194,76.69 C244.509,77.632 243.464,79.41 243.462,81.341 L243.462,140.659 C243.475,143.621 245.885,146.011 248.846,146 C249.839,146 250.812,145.726 251.66,145.209 L300.135,115.547 C301.719,114.581 302.686,112.859 302.686,111.003 C302.686,109.148 301.719,107.426 300.135,106.46 Z M248.846,140.595 L248.846,81.385 L297.25,111 Z" />
        </g>
        <g id="Regular-S">
            <path d="M500.135,106.453 L451.646,76.791 C449.981,75.772 447.895,75.733 446.194,76.69 C444.509,77.632 443.464,79.41 443.462,81.341 L443.462,140.659 C443.475,143.621 445.885,146.011 448.846,146 C449.839,146 450.812,145.726 451.66,145.209 L500.135,115.547 C501.719,114.581 502.686,112.859 502.686,111.003 C502.686,109.148 501.719,107.426 500.135,106.46 Z M448.846,140.595 L448.846,81.385 L497.25,111 Z" />
        </g>
        <g id="Black-S">
            <path d="M700.135,106.453 L651.646,76.791 C649.982,75.772 647.896,75.733 646.194,76.69 C644.509,77.632 643.464,79.41 643.462,81.341 L643.462,140.659 C643.475,143.621 645.885,146.011 648.846,146 C649.839,146 650.812,145.726 651.66,145.209 L700.135,115.547 C701.719,114.581 702.686,112.859 702.686,111.003 C702.686,109.148 701.719,107.426 700.135,106.46 Z M648.846,140.595 L648.846,81.385 L697.25,111 Z" />
        </g>
    </g>
</svg>