<?xml version="1.0" encoding="UTF-8"?>
<svg height="600" width="800" xmlns="http://www.w3.org/2000/svg" xmlns:xlink="http://www.w3.org/1999/xlink">
    <g id="Notes" font-family="'LucidaGrande', 'Lucida Grande', sans-serif" font-size="13">
        <rect fill="white" height="600.0" width="800.0" x="0.0" y="0.0" />
        <g font-size="13">
            <text x="18.0" y="176.0">Small</text>
            <text x="18.0" y="376.0">Medium</text>
            <text x="18.0" y="576.0">Large</text>
        </g>
        <g font-size="9">
            <text x="250.0" y="30.0">Ultralight</text>
            <text x="450.0" y="30.0">Regular</text>
            <text x="650.0" y="30.0">Black</text>
            <text id="template-version" fill="#505050" text-anchor="end" x="785.0" y="575.0">Template v.3.0</text>
            <a href="https://github.com/swhitty/SwiftDraw">
                <text fill="#505050" text-anchor="end" x="785.0" y="590.0">https://github.com/swhitty/SwiftDraw</text>
            </a>
        </g>
    </g>
    <g id="Guides" stroke="rgb(39, 170, 225)" stroke-width="0.5">
        <path id="Capline-S" d="M18,76 l800,0" />
        <path id="H-reference" d="M85,145.755 L87.685,145.755 L113.369,79.287 L114.052,79.287 L114.052,76 L112.148,76 L85,145.755 Z M95.693,121.536 L130.996,121.536 L130.263,119.313 L96.474,119.313 L95.693,121.536 Z M139.15,145.755 L141.787,145.755 L114.638,76 L113.466,76 L113.466,79.287 L139.15,145.755 Z" stroke="none" />
        <path id="Baseline-S" d="M18,146 l800,0" />
        <path id="left-margin-Ultralight-S" d="M220,56 l0,110" />
        <path id="right-margin-Ultralight-S" d="M310,56 l0,110" />
        <path id="left-margin-Regular-S" d="M420,56 l0,110" />
        <path id="right-margin-Regular-S" d="M510,56 l0,110" />
        <path id="left-margin-Black-S" d="M620,56 l0,110" />
        <path id="right-margin-Black-S" d="M710,56 l0,110" />
        <path id="Capline-M" d="M18,276 l800,0" />
        <path id="Baseline-M" d="M18,346 l800,0" />
        <path id="Capline-L" d="M18,476 l800,0" />
        <path id="Baseline-L" d="M18,546 l800,0" />
    </g>
    <g id="Symbols">
        <g id="Ultralight-S">
            <path d="M285.192,84.077 C283.795,84.075 282.415,84.387 281.154,84.989 L281.154,82.731 C281.154,78.087 277.776,74.138 273.192,73.418 C268.608,72.699 264.183,75.423 262.761,79.84 C259.842,78.257 256.306,78.327 253.453,80.025 C250.599,81.722 248.849,84.795 248.846,88.115 L248.846,109.654 L247.561,107.591 C244.961,103.105 239.226,101.562 234.726,104.137 C230.226,106.713 228.653,112.44 231.205,116.953 C236.589,128.318 240.941,136.378 245.918,141.416 C250.946,146.518 256.654,148.692 265,148.692 C281.348,148.674 294.597,135.425 294.615,119.077 L294.615,93.5 C294.615,91.001 293.623,88.604 291.855,86.837 C290.088,85.07 287.691,84.077 285.192,84.077 Z M289.231,119.077 C289.215,132.454 278.375,143.293 264.999,143.308 C258.14,143.308 253.722,141.665 249.744,137.637 C245.292,133.124 241.193,125.471 236.024,114.561 C235.994,114.494 235.96,114.429 235.923,114.365 C234.808,112.432 235.471,109.962 237.403,108.847 C239.336,107.733 241.806,108.396 242.92,110.328 C242.934,110.355 242.95,110.381 242.968,110.406 L249.251,120.502 C249.885,121.525 251.122,122.002 252.279,121.671 C253.436,121.34 254.233,120.281 254.231,119.077 L254.231,88.115 C254.231,85.885 256.039,84.077 258.269,84.077 C260.5,84.077 262.308,85.885 262.308,88.115 L262.308,108.308 C262.309,109.794 263.514,110.997 265,110.997 C266.486,110.997 267.691,109.794 267.692,108.308 L267.692,82.731 C267.692,80.5 269.5,78.692 271.731,78.692 C273.961,78.692 275.769,80.5 275.769,82.731 L275.769,108.308 C275.769,109.795 276.975,111 278.462,111 C279.948,111 281.154,109.795 281.154,108.308 L281.154,93.5 C281.154,91.27 282.962,89.462 285.192,89.462 C287.423,89.462 289.231,91.27 289.231,93.5 Z" />
        </g>
        <g id="Regular-S">
            <path d="M485.192,84.077 C483.795,84.075 482.415,84.387 481.154,84.989 L481.154,82.731 C481.154,78.087 477.776,74.138 473.192,73.418 C468.608,72.699 464.183,75.423 462.761,79.84 C459.842,78.257 456.306,78.327 453.453,80.025 C450.599,81.722 448.849,84.795 448.846,88.115 L448.846,109.654 L447.561,107.591 C444.961,103.105 439.226,101.562 434.726,104.137 C430.226,106.713 428.653,112.44 431.205,116.953 C436.589,128.318 440.941,136.378 445.918,141.416 C450.946,146.518 456.654,148.692 465,148.692 C481.348,148.674 494.597,135.425 494.615,119.077 L494.615,93.5 C494.615,91.001 493.623,88.604 491.855,86.837 C490.088,85.07 487.691,84.077 485.192,84.077 Z M489.231,119.077 C489.215,132.454 478.375,143.293 464.999,143.308 C458.14,143.308 453.722,141.665 449.744,137.637 C445.292,133.124 441.193,125.471 436.024,114.561 C435.994,114.494 435.96,114.429 435.923,114.365 C434.808,112.432 435.471,109.962 437.403,108.847 C439.336,107.733 441.806,108.396 442.92,110.328 C442.934,110.355 442.95,110.381 442.967,110.406 L449.251,120.502 C449.885,121.525 451.122,122.002 452.279,121.671 C453.436,121.34 454.233,120.281 454.231,119.077 L454.231,88.115 C454.231,85.885 456.039,84.077 458.269,84.077 C460.5,84.077 462.308,85.885 462.308,88.115 L462.308,108.308 C462.309,109.794 463.514,110.997 465,110.997 C466.486,110.997 467.691,109.794 467.692,108.308 L467.692,82.731 C467.692,80.5 469.5,78.692 471.731,78.692 C473.961,78.692 475.769,80.5 475.769,82.731 L475.769,108.308 C475.769,109.795 476.975,111 478.462,111 C479.948,111 481.154,109.795 481.154,108.308 L481.154,93.5 C481.154,91.27 482.962,89.462 485.192,89.462 C487.423,89.462 489.231,91.27 489.231,93.5 Z" />
        </g>
        <g id="Black-S">
            <path d="M685.192,84.077 C683.795,84.075 682.415,84.387 681.154,84.989 L681.154,82.731 C681.154,78.087 677.776,74.138 673.192,73.418 C668.608,72.699 664.183,75.423 662.761,79.84 C659.842,78.257 656.306,78.327 653.453,80.025 C650.599,81.722 648.849,84.795 648.846,88.115 L648.846,109.654 L647.561,107.591 C644.961,103.105 639.226,101.562 634.726,104.137 C630.226,106.713 628.653,112.44 631.205,116.953 C636.589,128.318 640.941,136.378 645.918,141.416 C650.946,146.518 656.654,148.692 665,148.692 C681.348,148.674 694.597,135.425 694.615,119.077 L694.615,93.5 C694.615,91.001 693.623,88.604 691.855,86.837 C690.088,85.07 687.691,84.077 685.192,84.077 Z M689.231,119.077 C689.215,132.454 678.375,143.293 664.999,143.308 C658.141,143.308 653.722,141.665 649.744,137.637 C645.292,133.124 641.193,125.471 636.024,114.561 C635.994,114.494 635.96,114.429 635.923,114.365 C634.808,112.432 635.471,109.962 637.403,108.847 C639.336,107.733 641.806,108.396 642.92,110.328 C642.934,110.355 642.95,110.381 642.968,110.406 L649.251,120.502 C649.885,121.525 651.122,122.002 652.279,121.671 C653.436,121.34 654.233,120.281 654.231,119.077 L654.231,88.115 C654.231,85.885 656.039,84.077 658.269,84.077 C660.5,84.077 662.308,85.885 662.308,88.115 L662.308,108.308 C662.309,109.794 663.514,110.997 665,110.997 C666.486,110.997 667.691,109.794 667.692,108.308 L667.692,82.731 C667.692,80.5 669.5,78.692 671.731,78.692 C673.961,78.692 675.769,80.5 675.769,82.731 L675.769,108.308 C675.769,109.795 676.975,111 678.462,111 C679.948,111 681.154,109.795 681.154,108.308 L681.154,93.5 C681.154,91.27 682.962,89.462 685.192,89.462 C687.423,89.462 689.231,91.27 689.231,93.5 Z" />
        </g>
    </g>
</svg>