<?xml version="1.0" encoding="UTF-8"?>
<svg height="600" width="800" xmlns="http://www.w3.org/2000/svg" xmlns:xlink="http://www.w3.org/1999/xlink">
    <g id="Notes" font-family="'LucidaGrande', 'Lucida Grande', sans-serif" font-size="13">
        <rect fill="white" height="600.0" width="800.0" x="0.0" y="0.0" />
        <g font-size="13">
            <text x="18.0" y="176.0">Small</text>
            <text x="18.0" y="376.0">Medium</text>
            <text x="18.0" y="576.0">Large</text>
        </g>
        <g font-size="9">
            <text x="250.0" y="30.0">Ultralight</text>
            <text x="450.0" y="30.0">Regular</text>
            <text x="650.0" y="30.0">Black</text>
            <text id="template-version" fill="#505050" text-anchor="end" x="785.0" y="575.0">Template v.3.0</text>
            <a href="https://github.com/swhitty/SwiftDraw">
                <text fill="#505050" text-anchor="end" x="785.0" y="590.0">https://github.com/swhitty/SwiftDraw</text>
            </a>
        </g>
    </g>
    <g id="Guides" stroke="rgb(39, 170, 225)" stroke-width="0.5">
        <path id="Capline-S" d="M18,76 l800,0" />
        <path id="H-reference" d="M85,145.755 L87.685,145.755 L113.369,79.287 L114.052,79.287 L114.052,76 L112.148,76 L85,145.755 Z M95.693,121.536 L130.996,121.536 L130.263,119.313 L96.474,119.313 L95.693,121.536 Z M139.15,145.755 L141.787,145.755 L114.638,76 L113.466,76 L113.466,79.287 L139.15,145.755 Z" stroke="none" />
        <path id="Baseline-S" d="M18,146 l800,0" />
        <path id="left-margin-Ultralight-S" d="M220,56 l0,110" />
        <path id="right-margin-Ultralight-S" d="M310,56 l0,110" />
        <path id="left-margin-Regular-S" d="M420,56 l0,110" />
        <path id="right-margin-Regular-S" d="M510,56 l0,110" />
        <path id="left-margin-Black-S" d="M620,56 l0,110" />
        <path id="right-margin-Black-S" d="M710,56 l0,110" />
        <path id="Capline-M" d="M18,276 l800,0" />
        <path id="Baseline-M" d="M18,346 l800,0" />
        <path id="Capline-L" d="M18,476 l800,0" />
        <path id="Baseline-L" d="M18,546 l800,0" />
    </g>
    <g id="Symbols">
        <g id="Ultralight-S">
            <path d="M265,76 C245.67,76 230,91.67 230,111 C230,130.33 245.67,146 265,146 C284.33,146 300,130.33 300,111 C299.979,91.677 284.32,76.02 264.999,76 Z M294.615,111 C294.619,114.797 293.888,118.562 292.462,122.084 L277.419,112.832 C276.779,112.438 276.064,112.182 275.319,112.082 L267.639,111.045 C265.476,110.763 263.354,111.805 262.255,113.69 L259.32,113.69 L258.041,111.045 C257.325,109.553 255.958,108.475 254.339,108.127 L251.647,107.545 L254.278,102.923 L259.901,102.923 C260.811,102.921 261.706,102.69 262.503,102.25 L266.625,99.975 C266.988,99.773 267.326,99.532 267.635,99.255 L276.691,91.063 C278.562,89.387 279.018,86.637 277.788,84.447 L277.667,84.228 C288.011,89.133 294.607,99.553 294.615,111 Z M270.152,81.836 L273.077,87.072 L264.021,95.263 L259.901,97.538 L254.278,97.538 C252.351,97.536 250.57,98.562 249.607,100.231 L246.669,105.356 L243.253,96.256 L246.935,87.55 C253.524,82.458 261.955,80.381 270.156,81.829 Z M235.385,111 C235.38,106.599 236.362,102.252 238.258,98.279 L242.075,108.466 C242.721,110.18 244.194,111.448 245.985,111.832 L253.197,113.383 L254.48,116.048 C255.388,117.897 257.266,119.071 259.326,119.077 L259.824,119.077 L257.391,124.539 C256.515,126.505 256.893,128.804 258.353,130.385 L258.4,130.432 L265,137.23 L264.347,140.595 C248.263,140.221 235.411,127.089 235.385,111 Z M269.907,140.205 L270.287,138.25 C270.604,136.565 270.105,134.83 268.941,133.572 C268.924,133.557 268.909,133.541 268.894,133.525 L262.308,126.73 L266.918,116.385 L274.598,117.421 L289.985,126.885 C285.477,133.964 278.182,138.804 269.907,140.205 Z" />
        </g>
        <g id="Regular-S">
            <path d="M465,76 C445.67,76 430,91.67 430,111 C430,130.33 445.67,146 465,146 C484.33,146 500,130.33 500,111 C499.979,91.677 484.32,76.02 464.999,76 Z M494.615,111 C494.619,114.797 493.888,118.562 492.462,122.084 L477.419,112.832 C476.779,112.438 476.064,112.182 475.319,112.082 L467.639,111.045 C465.476,110.763 463.354,111.805 462.255,113.69 L459.32,113.69 L458.041,111.045 C457.325,109.553 455.958,108.475 454.339,108.127 L451.647,107.545 L454.278,102.923 L459.901,102.923 C460.811,102.921 461.706,102.69 462.503,102.25 L466.625,99.975 C466.988,99.773 467.326,99.532 467.635,99.255 L476.691,91.063 C478.562,89.387 479.018,86.637 477.788,84.447 L477.667,84.228 C488.011,89.133 494.607,99.553 494.615,111 Z M470.152,81.836 L473.077,87.072 L464.021,95.263 L459.901,97.538 L454.278,97.538 C452.351,97.536 450.57,98.562 449.607,100.231 L446.669,105.356 L443.253,96.256 L446.935,87.55 C453.524,82.458 461.955,80.381 470.156,81.829 Z M435.385,111 C435.38,106.599 436.362,102.252 438.258,98.279 L442.075,108.466 C442.721,110.18 444.194,111.448 445.985,111.832 L453.197,113.383 L454.48,116.048 C455.388,117.897 457.266,119.071 459.326,119.077 L459.824,119.077 L457.391,124.539 C456.515,126.505 456.893,128.804 458.353,130.385 L458.4,130.432 L465,137.23 L464.347,140.595 C448.263,140.221 435.411,127.089 435.385,111 Z M469.907,140.205 L470.287,138.25 C470.604,136.565 470.105,134.83 468.941,133.572 C468.924,133.557 468.909,133.541 468.894,133.525 L462.308,126.73 L466.918,116.385 L474.598,117.421 L489.985,126.885 C485.477,133.964 478.182,138.804 469.907,140.205 Z" />
        </g>
        <g id="Black-S">
            <path d="M665,76 C645.67,76 630,91.67 630,111 C630,130.33 645.67,146 665,146 C684.33,146 700,130.33 700,111 C699.979,91.677 684.32,76.02 664.999,76 Z M694.615,111 C694.619,114.797 693.888,118.562 692.462,122.084 L677.419,112.832 C676.779,112.438 676.064,112.182 675.319,112.082 L667.639,111.045 C665.476,110.763 663.354,111.805 662.255,113.69 L659.32,113.69 L658.041,111.045 C657.325,109.553 655.958,108.475 654.339,108.127 L651.647,107.545 L654.278,102.923 L659.901,102.923 C660.811,102.921 661.706,102.69 662.503,102.25 L666.625,99.975 C666.988,99.773 667.326,99.532 667.635,99.255 L676.691,91.063 C678.562,89.387 679.018,86.637 677.788,84.447 L677.667,84.228 C688.011,89.133 694.607,99.553 694.615,111 Z M670.152,81.836 L673.077,87.072 L664.021,95.263 L659.901,97.538 L654.278,97.538 C652.351,97.536 650.57,98.562 649.607,100.231 L646.669,105.356 L643.253,96.256 L646.935,87.55 C653.524,82.458 661.955,80.381 670.156,81.829 Z M635.385,111 C635.38,106.599 636.362,102.252 638.258,98.279 L642.075,108.466 C642.721,110.18 644.194,111.448 645.985,111.832 L653.197,113.383 L654.48,116.048 C655.388,117.897 657.266,119.071 659.326,119.077 L659.824,119.077 L657.391,124.539 C656.515,126.505 656.893,128.804 658.353,130.385 L658.401,130.432 L665,137.23 L664.347,140.595 C648.263,140.221 635.411,127.089 635.385,111 Z M669.907,140.205 L670.287,138.25 C670.604,136.565 670.105,134.83 668.941,133.572 C668.924,133.557 668.909,133.541 668.894,133.525 L662.308,126.73 L666.918,116.385 L674.598,117.421 L689.985,126.885 C685.477,133.964 678.182,138.804 669.907,140.205 Z" />
        </g>
    </g>
</svg>