<?xml version="1.0" encoding="UTF-8"?>
<svg height="600" width="800" xmlns="http://www.w3.org/2000/svg" xmlns:xlink="http://www.w3.org/1999/xlink">
    <g id="Notes" font-family="'LucidaGrande', 'Lucida Grande', sans-serif" font-size="13">
        <rect fill="white" height="600.0" width="800.0" x="0.0" y="0.0" />
        <g font-size="13">
            <text x="18.0" y="176.0">Small</text>
            <text x="18.0" y="376.0">Medium</text>
            <text x="18.0" y="576.0">Large</text>
        </g>
        <g font-size="9">
            <text x="250.0" y="30.0">Ultralight</text>
            <text x="450.0" y="30.0">Regular</text>
            <text x="650.0" y="30.0">Black</text>
            <text id="template-version" fill="#505050" text-anchor="end" x="785.0" y="575.0">Template v.3.0</text>
            <a href="https://github.com/swhitty/SwiftDraw">
                <text fill="#505050" text-anchor="end" x="785.0" y="590.0">https://github.com/swhitty/SwiftDraw</text>
            </a>
        </g>
    </g>
    <g id="Guides" stroke="rgb(39, 170, 225)" stroke-width="0.5">
        <path id="Capline-S" d="M18,76 l800,0" />
        <path id="H-reference" d="M85,145.755 L87.685,145.755 L113.369,79.287 L114.052,79.287 L114.052,76 L112.148,76 L85,145.755 Z M95.693,121.536 L130.996,121.536 L130.263,119.313 L96.474,119.313 L95.693,121.536 Z M139.15,145.755 L141.787,145.755 L114.638,76 L113.466,76 L113.466,79.287 L139.15,145.755 Z" stroke="none" />
        <path id="Baseline-S" d="M18,146 l800,0" />
        <path id="left-margin-Ultralight-S" d="M220,56 l0,110" />
        <path id="right-margin-Ultralight-S" d="M310,56 l0,110" />
        <path id="left-margin-Regular-S" d="M420,56 l0,110" />
        <path id="right-margin-Regular-S" d="M510,56 l0,110" />
        <path id="left-margin-Black-S" d="M620,56 l0,110" />
        <path id="right-margin-Black-S" d="M710,56 l0,110" />
        <path id="Capline-M" d="M18,276 l800,0" />
        <path id="Baseline-M" d="M18,346 l800,0" />
        <path id="Capline-L" d="M18,476 l800,0" />
        <path id="Baseline-L" d="M18,546 l800,0" />
    </g>
    <g id="Symbols">
        <g id="Ultralight-S">
            <path d="M302.692,110.539 C301.438,96.161 292.115,83.749 278.657,78.539 C265.198,73.328 249.947,76.227 239.339,86.012 C232.397,92.389 228.108,101.145 227.325,110.539 C227.195,112.042 227.703,113.531 228.723,114.642 C229.744,115.753 231.184,116.385 232.692,116.385 L262.308,116.385 L262.308,135.231 C262.308,141.178 267.129,146 273.077,146 C279.025,146 283.846,141.178 283.846,135.231 C283.846,133.744 282.641,132.538 281.154,132.538 C279.667,132.538 278.462,133.744 278.462,135.231 C278.462,138.205 276.051,140.615 273.077,140.615 C270.103,140.615 267.692,138.205 267.692,135.231 L267.692,116.385 L297.308,116.385 C298.819,116.39 300.264,115.76 301.288,114.648 C302.312,113.536 302.822,112.045 302.692,110.539 Z M232.692,111 L232.692,111 C233.918,96.758 244.342,85.008 258.337,82.095 C254.392,87.442 249.469,96.902 248.903,111 Z M254.281,111 C254.749,100.645 257.825,93.227 260.44,88.708 C261.729,86.462 263.258,84.364 265,82.448 C266.739,84.364 268.264,86.463 269.55,88.708 C274.019,96.428 275.433,104.7 275.709,111 Z M281.087,111 C280.521,96.902 275.598,87.442 271.663,82.078 C285.668,84.985 296.098,96.748 297.308,111 Z" />
        </g>
        <g id="Regular-S">
            <path d="M502.692,110.539 C501.438,96.161 492.115,83.749 478.657,78.539 C465.198,73.328 449.947,76.227 439.339,86.012 C432.397,92.389 428.108,101.145 427.325,110.539 C427.195,112.042 427.703,113.531 428.723,114.642 C429.744,115.753 431.184,116.385 432.692,116.385 L462.308,116.385 L462.308,135.231 C462.308,141.178 467.129,146 473.077,146 C479.025,146 483.846,141.178 483.846,135.231 C483.846,133.744 482.641,132.538 481.154,132.538 C479.667,132.538 478.462,133.744 478.462,135.231 C478.462,138.205 476.051,140.615 473.077,140.615 C470.103,140.615 467.692,138.205 467.692,135.231 L467.692,116.385 L497.308,116.385 C498.819,116.39 500.264,115.76 501.288,114.648 C502.312,113.536 502.822,112.045 502.692,110.539 Z M432.692,111 L432.692,111 C433.918,96.758 444.342,85.008 458.336,82.095 C454.392,87.442 449.469,96.902 448.903,111 Z M454.281,111 C454.749,100.645 457.825,93.227 460.44,88.708 C461.729,86.462 463.258,84.364 465,82.448 C466.739,84.364 468.264,86.463 469.55,88.708 C474.019,96.428 475.433,104.7 475.709,111 Z M481.087,111 C480.521,96.902 475.598,87.442 471.663,82.078 C485.668,84.985 496.098,96.748 497.308,111 Z" />
        </g>
        <g id="Black-S">
            <path d="M702.692,110.539 C701.438,96.161 692.115,83.749 678.657,78.539 C665.198,73.328 649.947,76.227 639.339,86.012 C632.397,92.389 628.108,101.145 627.325,110.539 C627.195,112.042 627.703,113.531 628.723,114.642 C629.744,115.753 631.184,116.385 632.692,116.385 L662.308,116.385 L662.308,135.231 C662.308,141.178 667.129,146 673.077,146 C679.025,146 683.846,141.178 683.846,135.231 C683.846,133.744 682.641,132.538 681.154,132.538 C679.667,132.538 678.462,133.744 678.462,135.231 C678.462,138.205 676.051,140.615 673.077,140.615 C670.103,140.615 667.692,138.205 667.692,135.231 L667.692,116.385 L697.308,116.385 C698.819,116.39 700.264,115.76 701.288,114.648 C702.312,113.536 702.822,112.045 702.692,110.539 Z M632.692,111 L632.692,111 C633.918,96.758 644.342,85.008 658.337,82.095 C654.392,87.442 649.469,96.902 648.903,111 Z M654.281,111 C654.749,100.645 657.825,93.227 660.44,88.708 C661.729,86.462 663.258,84.364 665,82.448 C666.739,84.364 668.264,86.463 669.55,88.708 C674.019,96.428 675.433,104.7 675.709,111 Z M681.087,111 C680.521,96.902 675.598,87.442 671.663,82.078 C685.668,84.985 696.098,96.748 697.308,111 Z" />
        </g>
    </g>
</svg>