<?xml version="1.0" encoding="UTF-8"?>
<svg height="600" width="800" xmlns="http://www.w3.org/2000/svg" xmlns:xlink="http://www.w3.org/1999/xlink">
    <g id="Notes" font-family="'LucidaGrande', 'Lucida Grande', sans-serif" font-size="13">
        <rect fill="white" height="600.0" width="800.0" x="0.0" y="0.0" />
        <g font-size="13">
            <text x="18.0" y="176.0">Small</text>
            <text x="18.0" y="376.0">Medium</text>
            <text x="18.0" y="576.0">Large</text>
        </g>
        <g font-size="9">
            <text x="250.0" y="30.0">Ultralight</text>
            <text x="450.0" y="30.0">Regular</text>
            <text x="650.0" y="30.0">Black</text>
            <text id="template-version" fill="#505050" text-anchor="end" x="785.0" y="575.0">Template v.3.0</text>
            <a href="https://github.com/swhitty/SwiftDraw">
                <text fill="#505050" text-anchor="end" x="785.0" y="590.0">https://github.com/swhitty/SwiftDraw</text>
            </a>
        </g>
    </g>
    <g id="Guides" stroke="rgb(39, 170, 225)" stroke-width="0.5">
        <path id="Capline-S" d="M18,76 l800,0" />
        <path id="H-reference" d="M85,145.755 L87.685,145.755 L113.369,79.287 L114.052,79.287 L114.052,76 L112.148,76 L85,145.755 Z M95.693,121.536 L130.996,121.536 L130.263,119.313 L96.474,119.313 L95.693,121.536 Z M139.15,145.755 L141.787,145.755 L114.638,76 L113.466,76 L113.466,79.287 L139.15,145.755 Z" stroke="none" />
        <path id="Baseline-S" d="M18,146 l800,0" />
        <path id="left-margin-Ultralight-S" d="M220,56 l0,110" />
        <path id="right-margin-Ultralight-S" d="M310,56 l0,110" />
        <path id="left-margin-Regular-S" d="M420,56 l0,110" />
        <path id="right-margin-Regular-S" d="M510,56 l0,110" />
        <path id="left-margin-Black-S" d="M620,56 l0,110" />
        <path id="right-margin-Black-S" d="M710,56 l0,110" />
        <path id="Capline-M" d="M18,276 l800,0" />
        <path id="Baseline-M" d="M18,346 l800,0" />
        <path id="Capline-L" d="M18,476 l800,0" />
        <path id="Baseline-L" d="M18,546 l800,0" />
    </g>
    <g id="Symbols">
        <g id="Ultralight-S">
            <path d="M287.844,100.231 C287.868,99.79 287.885,99.346 287.885,98.885 C287.885,86.246 277.639,76 265,76 C252.361,76 242.115,86.246 242.115,98.885 C242.115,99.332 242.115,99.776 242.156,100.231 C234.633,104.081 229.844,111.763 229.7,120.212 C229.556,128.662 234.08,136.503 241.467,140.607 C248.854,144.712 257.902,144.411 265,139.825 C272.098,144.411 281.146,144.712 288.533,140.607 C295.92,136.503 300.444,128.662 300.3,120.212 C300.156,111.763 295.367,104.081 287.844,100.231 Z M265,133.033 C261.732,129.911 259.802,125.643 259.615,121.126 C263.143,121.984 266.824,121.984 270.351,121.126 C270.174,125.638 268.256,129.905 265,133.033 Z M265,116.385 C263.398,116.384 261.803,116.163 260.262,115.728 C261.106,112.714 262.742,109.981 265,107.813 C267.258,109.981 268.894,112.714 269.738,115.728 C268.197,116.163 266.602,116.384 265,116.385 Z M255.318,113.453 C251.827,111.129 249.283,107.633 248.146,103.596 C252.269,102.433 256.675,102.826 260.527,104.7 C258.157,107.191 256.376,110.182 255.318,113.453 Z M269.473,104.683 C273.327,102.814 277.733,102.428 281.854,103.596 C280.72,107.639 278.176,111.142 274.682,113.47 C273.628,110.187 271.847,107.183 269.473,104.683 Z M265,81.385 C274.393,81.387 282.112,88.797 282.5,98.181 C276.522,96.727 270.211,97.752 265,101.022 C259.794,97.756 253.489,96.732 247.517,98.181 C247.904,88.803 255.614,81.396 265,81.385 Z M235.385,120.423 C235.387,114.565 238.322,109.096 243.202,105.854 C245.038,111.53 249.007,116.271 254.271,119.077 C254.248,119.518 254.231,119.962 254.231,120.423 C254.228,126.283 256.482,131.919 260.526,136.162 C255.104,138.794 248.708,138.45 243.599,135.252 C238.49,132.053 235.386,126.451 235.385,120.423 Z M277.115,137.923 C274.467,137.926 271.853,137.324 269.473,136.163 C273.517,131.921 275.772,126.284 275.769,120.423 C275.769,119.975 275.752,119.531 275.729,119.077 C280.996,116.268 284.965,111.522 286.798,105.841 C293.231,110.109 296.107,118.088 293.876,125.479 C291.646,132.87 284.836,137.926 277.115,137.923 Z" />
        </g>
        <g id="Regular-S">
            <path d="M487.844,100.231 C487.868,99.79 487.885,99.346 487.885,98.885 C487.885,86.246 477.639,76 465,76 C452.361,76 442.115,86.246 442.115,98.885 C442.115,99.332 442.115,99.776 442.156,100.231 C434.633,104.081 429.844,111.763 429.7,120.212 C429.556,128.662 434.08,136.503 441.467,140.607 C448.854,144.712 457.902,144.411 465,139.825 C472.098,144.411 481.146,144.712 488.533,140.607 C495.92,136.503 500.444,128.662 500.3,120.212 C500.156,111.763 495.367,104.081 487.844,100.231 Z M465,133.033 C461.732,129.911 459.802,125.643 459.615,121.126 C463.143,121.984 466.824,121.984 470.351,121.126 C470.174,125.638 468.256,129.905 465,133.033 Z M465,116.385 C463.398,116.384 461.803,116.163 460.262,115.728 C461.106,112.714 462.742,109.981 465,107.813 C467.258,109.981 468.894,112.714 469.738,115.728 C468.197,116.163 466.602,116.384 465,116.385 Z M455.318,113.453 C451.827,111.129 449.283,107.633 448.146,103.596 C452.269,102.433 456.675,102.826 460.527,104.7 C458.157,107.191 456.376,110.182 455.318,113.453 Z M469.473,104.683 C473.327,102.814 477.733,102.428 481.854,103.596 C480.72,107.639 478.176,111.142 474.682,113.47 C473.628,110.187 471.847,107.183 469.473,104.683 Z M465,81.385 C474.393,81.387 482.112,88.797 482.5,98.181 C476.522,96.727 470.211,97.752 465,101.022 C459.794,97.756 453.489,96.732 447.517,98.181 C447.904,88.803 455.614,81.396 465,81.385 Z M435.385,120.423 C435.387,114.565 438.322,109.096 443.202,105.854 C445.038,111.53 449.007,116.271 454.271,119.077 C454.248,119.518 454.231,119.962 454.231,120.423 C454.228,126.283 456.482,131.919 460.526,136.162 C455.104,138.794 448.708,138.45 443.599,135.252 C438.49,132.053 435.386,126.451 435.385,120.423 Z M477.115,137.923 C474.467,137.926 471.853,137.324 469.473,136.163 C473.517,131.921 475.772,126.284 475.769,120.423 C475.769,119.975 475.752,119.531 475.729,119.077 C480.996,116.268 484.965,111.522 486.798,105.841 C493.231,110.109 496.107,118.088 493.876,125.479 C491.646,132.87 484.835,137.926 477.115,137.923 Z" />
        </g>
        <g id="Black-S">
            <path d="M687.844,100.231 C687.868,99.79 687.885,99.346 687.885,98.885 C687.885,86.246 677.639,76 665,76 C652.361,76 642.115,86.246 642.115,98.885 C642.115,99.332 642.115,99.776 642.156,100.231 C634.633,104.081 629.844,111.763 629.7,120.212 C629.556,128.662 634.08,136.503 641.467,140.607 C648.854,144.712 657.902,144.411 665,139.825 C672.098,144.411 681.146,144.712 688.533,140.607 C695.92,136.503 700.444,128.662 700.3,120.212 C700.156,111.763 695.367,104.081 687.844,100.231 Z M665,133.033 C661.732,129.911 659.802,125.643 659.615,121.126 C663.143,121.984 666.824,121.984 670.351,121.126 C670.174,125.638 668.256,129.905 665,133.033 Z M665,116.385 C663.398,116.384 661.804,116.163 660.262,115.728 C661.106,112.714 662.742,109.981 665,107.813 C667.258,109.981 668.894,112.714 669.738,115.728 C668.197,116.163 666.602,116.384 665,116.385 Z M655.318,113.453 C651.827,111.129 649.283,107.633 648.146,103.596 C652.269,102.433 656.675,102.826 660.527,104.7 C658.157,107.191 656.376,110.182 655.318,113.453 Z M669.473,104.683 C673.327,102.814 677.733,102.428 681.854,103.596 C680.72,107.639 678.176,111.142 674.682,113.47 C673.628,110.187 671.847,107.183 669.473,104.683 Z M665,81.385 C674.393,81.387 682.112,88.797 682.5,98.181 C676.522,96.727 670.211,97.752 665,101.022 C659.794,97.756 653.489,96.732 647.517,98.181 C647.904,88.803 655.614,81.396 665,81.385 Z M635.385,120.423 C635.388,114.565 638.322,109.096 643.202,105.854 C645.038,111.53 649.007,116.271 654.271,119.077 C654.248,119.518 654.231,119.962 654.231,120.423 C654.228,126.283 656.482,131.919 660.526,136.162 C655.104,138.794 648.708,138.45 643.599,135.252 C638.49,132.053 635.386,126.451 635.385,120.423 Z M677.115,137.923 C674.467,137.926 671.853,137.324 669.473,136.163 C673.517,131.921 675.772,126.284 675.769,120.423 C675.769,119.975 675.752,119.531 675.729,119.077 C680.996,116.268 684.965,111.522 686.798,105.841 C693.231,110.109 696.107,118.088 693.876,125.479 C691.646,132.87 684.836,137.926 677.115,137.923 Z" />
        </g>
    </g>
</svg>