<?xml version="1.0" encoding="UTF-8"?>
<svg height="600" width="800" xmlns="http://www.w3.org/2000/svg" xmlns:xlink="http://www.w3.org/1999/xlink">
    <g id="Notes" font-family="'LucidaGrande', 'Lucida Grande', sans-serif" font-size="13">
        <rect fill="white" height="600.0" width="800.0" x="0.0" y="0.0" />
        <g font-size="13">
            <text x="18.0" y="176.0">Small</text>
            <text x="18.0" y="376.0">Medium</text>
            <text x="18.0" y="576.0">Large</text>
        </g>
        <g font-size="9">
            <text x="250.0" y="30.0">Ultralight</text>
            <text x="450.0" y="30.0">Regular</text>
            <text x="650.0" y="30.0">Black</text>
            <text id="template-version" fill="#505050" text-anchor="end" x="785.0" y="575.0">Template v.3.0</text>
            <a href="https://github.com/swhitty/SwiftDraw">
                <text fill="#505050" text-anchor="end" x="785.0" y="590.0">https://github.com/swhitty/SwiftDraw</text>
            </a>
        </g>
    </g>
    <g id="Guides" stroke="rgb(39, 170, 225)" stroke-width="0.5">
        <path id="Capline-S" d="M18,76 l800,0" />
        <path id="H-reference" d="M85,145.755 L87.685,145.755 L113.369,79.287 L114.052,79.287 L114.052,76 L112.148,76 L85,145.755 Z M95.693,121.536 L130.996,121.536 L130.263,119.313 L96.474,119.313 L95.693,121.536 Z M139.15,145.755 L141.787,145.755 L114.638,76 L113.466,76 L113.466,79.287 L139.15,145.755 Z" stroke="none" />
        <path id="Baseline-S" d="M18,146 l800,0" />
        <path id="left-margin-Ultralight-S" d="M220,56 l0,110" />
        <path id="right-margin-Ultralight-S" d="M310,56 l0,110" />
        <path id="left-margin-Regular-S" d="M420,56 l0,110" />
        <path id="right-margin-Regular-S" d="M510,56 l0,110" />
        <path id="left-margin-Black-S" d="M620,56 l0,110" />
        <path id="right-margin-Black-S" d="M710,56 l0,110" />
        <path id="Capline-M" d="M18,276 l800,0" />
        <path id="Baseline-M" d="M18,346 l800,0" />
        <path id="Capline-L" d="M18,476 l800,0" />
        <path id="Baseline-L" d="M18,546 l800,0" />
    </g>
    <g id="Symbols">
        <g id="Ultralight-S">
            <path d="M286.538,106.962 C286.538,109.192 284.73,111 282.5,111 C280.27,111 278.462,109.192 278.462,106.962 C278.462,104.731 280.27,102.923 282.5,102.923 C283.571,102.923 284.598,103.349 285.356,104.106 C286.113,104.863 286.538,105.89 286.538,106.962 Z M273.077,89.462 L259.615,89.462 C258.128,89.462 256.923,90.667 256.923,92.154 C256.923,93.641 258.128,94.846 259.615,94.846 L273.077,94.846 C274.564,94.846 275.769,93.641 275.769,92.154 C275.769,90.667 274.564,89.462 273.077,89.462 Z M305.385,105.615 L305.385,116.385 C305.385,118.527 304.534,120.581 303.019,122.096 C301.504,123.611 299.45,124.462 297.308,124.462 L296.513,124.462 L291.058,139.734 C290.293,141.877 288.263,143.308 285.987,143.308 L281.706,143.308 C279.43,143.308 277.399,141.877 276.634,139.734 L275.988,137.923 L256.704,137.923 L256.058,139.734 C255.293,141.877 253.263,143.308 250.987,143.308 L246.706,143.308 C244.43,143.308 242.399,141.877 241.634,139.734 L237.404,127.901 C233.379,123.346 230.86,117.66 230.188,111.619 C228.418,112.549 227.308,114.384 227.308,116.385 C227.308,117.872 226.102,119.077 224.615,119.077 C223.128,119.077 221.923,117.872 221.923,116.385 C221.931,111.445 225.3,107.144 230.094,105.952 C231.341,90.567 244.18,78.712 259.615,78.692 L294.615,78.692 C296.102,78.692 297.308,79.898 297.308,81.385 C297.308,82.872 296.102,84.077 294.615,84.077 L287.417,84.077 C291.885,87.212 295.399,91.521 297.57,96.529 C297.715,96.865 297.856,97.202 297.991,97.538 C302.183,97.894 305.4,101.408 305.385,105.615 Z M300,105.615 C300,104.901 299.716,104.217 299.211,103.712 C298.707,103.207 298.022,102.923 297.308,102.923 L296.076,102.923 C294.899,102.924 293.858,102.161 293.505,101.038 C290.339,90.935 280.972,84.064 270.385,84.077 L259.615,84.077 C250.007,84.076 241.306,89.753 237.436,98.548 C233.566,107.342 235.258,117.593 241.749,124.677 C241.991,124.941 242.179,125.251 242.3,125.589 L246.706,137.923 L250.987,137.923 L252.272,134.325 C252.655,133.254 253.669,132.539 254.806,132.538 L277.886,132.538 C279.023,132.539 280.038,133.254 280.42,134.325 L281.706,137.923 L285.987,137.923 L292.081,120.864 C292.464,119.793 293.478,119.078 294.615,119.077 L297.308,119.077 C298.022,119.077 298.707,118.793 299.211,118.288 C299.716,117.783 300,117.099 300,116.385 Z" />
        </g>
        <g id="Regular-S">
            <path d="M486.538,106.962 C486.538,109.192 484.73,111 482.5,111 C480.27,111 478.462,109.192 478.462,106.962 C478.462,104.731 480.27,102.923 482.5,102.923 C483.571,102.923 484.598,103.349 485.356,104.106 C486.113,104.863 486.538,105.89 486.538,106.962 Z M473.077,89.462 L459.615,89.462 C458.128,89.462 456.923,90.667 456.923,92.154 C456.923,93.641 458.128,94.846 459.615,94.846 L473.077,94.846 C474.564,94.846 475.769,93.641 475.769,92.154 C475.769,90.667 474.564,89.462 473.077,89.462 Z M505.385,105.615 L505.385,116.385 C505.385,118.527 504.534,120.581 503.019,122.096 C501.504,123.611 499.45,124.462 497.308,124.462 L496.513,124.462 L491.058,139.734 C490.293,141.877 488.263,143.308 485.987,143.308 L481.706,143.308 C479.43,143.308 477.399,141.877 476.634,139.734 L475.988,137.923 L456.704,137.923 L456.058,139.734 C455.293,141.877 453.263,143.308 450.987,143.308 L446.706,143.308 C444.43,143.308 442.399,141.877 441.634,139.734 L437.404,127.901 C433.379,123.346 430.86,117.66 430.188,111.619 C428.418,112.549 427.308,114.384 427.308,116.385 C427.308,117.872 426.102,119.077 424.615,119.077 C423.128,119.077 421.923,117.872 421.923,116.385 C421.931,111.445 425.3,107.144 430.094,105.952 C431.341,90.567 444.18,78.712 459.615,78.692 L494.615,78.692 C496.102,78.692 497.308,79.898 497.308,81.385 C497.308,82.872 496.102,84.077 494.615,84.077 L487.417,84.077 C491.885,87.212 495.399,91.521 497.57,96.529 C497.715,96.865 497.856,97.202 497.991,97.538 C502.183,97.894 505.4,101.408 505.385,105.615 Z M500,105.615 C500,104.901 499.716,104.217 499.211,103.712 C498.707,103.207 498.022,102.923 497.308,102.923 L496.076,102.923 C494.899,102.924 493.858,102.161 493.505,101.038 C490.339,90.935 480.972,84.064 470.385,84.077 L459.615,84.077 C450.007,84.076 441.306,89.753 437.436,98.548 C433.566,107.342 435.258,117.593 441.749,124.677 C441.991,124.941 442.179,125.251 442.3,125.589 L446.706,137.923 L450.987,137.923 L452.272,134.325 C452.655,133.254 453.669,132.539 454.806,132.538 L477.886,132.538 C479.023,132.539 480.038,133.254 480.42,134.325 L481.706,137.923 L485.987,137.923 L492.081,120.864 C492.464,119.793 493.478,119.078 494.615,119.077 L497.308,119.077 C498.022,119.077 498.707,118.793 499.211,118.288 C499.716,117.783 500,117.099 500,116.385 Z" />
        </g>
        <g id="Black-S">
            <path d="M686.538,106.962 C686.538,109.192 684.73,111 682.5,111 C680.27,111 678.462,109.192 678.462,106.962 C678.462,104.731 680.27,102.923 682.5,102.923 C683.571,102.923 684.598,103.349 685.356,104.106 C686.113,104.863 686.538,105.89 686.538,106.962 Z M673.077,89.462 L659.615,89.462 C658.128,89.462 656.923,90.667 656.923,92.154 C656.923,93.641 658.128,94.846 659.615,94.846 L673.077,94.846 C674.564,94.846 675.769,93.641 675.769,92.154 C675.769,90.667 674.564,89.462 673.077,89.462 Z M705.385,105.615 L705.385,116.385 C705.385,118.527 704.534,120.581 703.019,122.096 C701.504,123.611 699.45,124.462 697.308,124.462 L696.513,124.462 L691.058,139.734 C690.293,141.877 688.263,143.308 685.987,143.308 L681.706,143.308 C679.43,143.308 677.399,141.877 676.634,139.734 L675.988,137.923 L656.704,137.923 L656.058,139.734 C655.293,141.877 653.263,143.308 650.987,143.308 L646.706,143.308 C644.43,143.308 642.399,141.877 641.634,139.734 L637.404,127.901 C633.379,123.346 630.86,117.66 630.188,111.619 C628.418,112.549 627.308,114.384 627.308,116.385 C627.308,117.872 626.102,119.077 624.615,119.077 C623.128,119.077 621.923,117.872 621.923,116.385 C621.931,111.445 625.3,107.144 630.094,105.952 C631.341,90.567 644.18,78.712 659.615,78.692 L694.615,78.692 C696.102,78.692 697.308,79.898 697.308,81.385 C697.308,82.872 696.102,84.077 694.615,84.077 L687.417,84.077 C691.885,87.212 695.399,91.521 697.57,96.529 C697.715,96.865 697.856,97.202 697.991,97.538 C702.183,97.894 705.4,101.408 705.385,105.615 Z M700,105.615 C700,104.901 699.716,104.217 699.211,103.712 C698.707,103.207 698.022,102.923 697.308,102.923 L696.076,102.923 C694.899,102.924 693.858,102.161 693.505,101.038 C690.339,90.935 680.972,84.064 670.385,84.077 L659.615,84.077 C650.007,84.076 641.306,89.753 637.436,98.548 C633.566,107.342 635.258,117.593 641.749,124.677 C641.992,124.941 642.179,125.251 642.3,125.589 L646.706,137.923 L650.987,137.923 L652.272,134.325 C652.655,133.254 653.669,132.539 654.806,132.538 L677.886,132.538 C679.023,132.539 680.038,133.254 680.42,134.325 L681.706,137.923 L685.987,137.923 L692.081,120.864 C692.464,119.793 693.478,119.078 694.615,119.077 L697.308,119.077 C698.022,119.077 698.707,118.793 699.211,118.288 C699.716,117.783 700,117.099 700,116.385 Z" />
        </g>
    </g>
</svg>