<?xml version="1.0" encoding="UTF-8"?>
<svg height="600" width="800" xmlns="http://www.w3.org/2000/svg" xmlns:xlink="http://www.w3.org/1999/xlink">
    <g id="Notes" font-family="'LucidaGrande', 'Lucida Grande', sans-serif" font-size="13">
        <rect fill="white" height="600.0" width="800.0" x="0.0" y="0.0" />
        <g font-size="13">
            <text x="18.0" y="176.0">Small</text>
            <text x="18.0" y="376.0">Medium</text>
            <text x="18.0" y="576.0">Large</text>
        </g>
        <g font-size="9">
            <text x="250.0" y="30.0">Ultralight</text>
            <text x="450.0" y="30.0">Regular</text>
            <text x="650.0" y="30.0">Black</text>
            <text id="template-version" fill="#505050" text-anchor="end" x="785.0" y="575.0">Template v.3.0</text>
            <a href="https://github.com/swhitty/SwiftDraw">
                <text fill="#505050" text-anchor="end" x="785.0" y="590.0">https://github.com/swhitty/SwiftDraw</text>
            </a>
        </g>
    </g>
    <g id="Guides" stroke="rgb(39, 170, 225)" stroke-width="0.5">
        <path id="Capline-S" d="M18,76 l800,0" />
        <path id="H-reference" d="M85,145.755 L87.685,145.755 L113.369,79.287 L114.052,79.287 L114.052,76 L112.148,76 L85,145.755 Z M95.693,121.536 L130.996,121.536 L130.263,119.313 L96.474,119.313 L95.693,121.536 Z M139.15,145.755 L141.787,145.755 L114.638,76 L113.466,76 L113.466,79.287 L139.15,145.755 Z" stroke="none" />
        <path id="Baseline-S" d="M18,146 l800,0" />
        <path id="left-margin-Ultralight-S" d="M220,56 l0,110" />
        <path id="right-margin-Ultralight-S" d="M310,56 l0,110" />
        <path id="left-margin-Regular-S" d="M420,56 l0,110" />
        <path id="right-margin-Regular-S" d="M510,56 l0,110" />
        <path id="left-margin-Black-S" d="M620,56 l0,110" />
        <path id="right-margin-Black-S" d="M710,56 l0,110" />
        <path id="Capline-M" d="M18,276 l800,0" />
        <path id="Baseline-M" d="M18,346 l800,0" />
        <path id="Capline-L" d="M18,476 l800,0" />
        <path id="Baseline-L" d="M18,546 l800,0" />
    </g>
    <g id="Symbols">
        <g id="Ultralight-S">
            <path d="M230,129.846 L300,129.846 C301.487,129.846 302.692,128.641 302.692,127.154 C302.692,125.667 301.487,124.462 300,124.462 L297.308,124.462 L297.308,119.077 C297.287,102.285 284.422,88.301 267.691,86.884 L267.691,81.385 L273.076,81.385 C274.563,81.385 275.768,80.179 275.768,78.692 C275.768,77.205 274.563,76 273.076,76 L256.923,76 C255.436,76 254.231,77.205 254.231,78.692 C254.231,80.179 255.436,81.385 256.923,81.385 L262.308,81.385 L262.308,86.884 C245.577,88.302 232.713,102.286 232.692,119.077 L232.692,124.462 L230,124.462 C228.513,124.462 227.308,125.667 227.308,127.154 C227.308,128.641 228.513,129.846 230,129.846 Z M238.077,119.077 C238.077,104.208 250.131,92.154 265,92.154 C279.869,92.154 291.923,104.208 291.923,119.077 L291.923,124.462 L238.077,124.462 Z M302.692,137.923 C302.692,138.637 302.409,139.322 301.904,139.827 C301.399,140.332 300.714,140.615 300,140.615 L230,140.615 C228.513,140.615 227.308,139.41 227.308,137.923 C227.308,136.436 228.513,135.231 230,135.231 L300,135.231 C300.714,135.231 301.399,135.514 301.904,136.019 C302.409,136.524 302.692,137.209 302.692,137.923 Z" />
        </g>
        <g id="Regular-S">
            <path d="M430,129.846 L500,129.846 C501.487,129.846 502.692,128.641 502.692,127.154 C502.692,125.667 501.487,124.462 500,124.462 L497.308,124.462 L497.308,119.077 C497.287,102.285 484.422,88.301 467.691,86.884 L467.691,81.385 L473.076,81.385 C474.563,81.385 475.768,80.179 475.768,78.692 C475.768,77.205 474.563,76 473.076,76 L456.923,76 C455.436,76 454.231,77.205 454.231,78.692 C454.231,80.179 455.436,81.385 456.923,81.385 L462.308,81.385 L462.308,86.884 C445.577,88.302 432.713,102.286 432.692,119.077 L432.692,124.462 L430,124.462 C428.513,124.462 427.308,125.667 427.308,127.154 C427.308,128.641 428.513,129.846 430,129.846 Z M438.077,119.077 C438.077,104.208 450.131,92.154 465,92.154 C479.869,92.154 491.923,104.208 491.923,119.077 L491.923,124.462 L438.077,124.462 Z M502.692,137.923 C502.692,138.637 502.409,139.322 501.904,139.827 C501.399,140.332 500.714,140.615 500,140.615 L430,140.615 C428.513,140.615 427.308,139.41 427.308,137.923 C427.308,136.436 428.513,135.231 430,135.231 L500,135.231 C500.714,135.231 501.399,135.514 501.904,136.019 C502.409,136.524 502.692,137.209 502.692,137.923 Z" />
        </g>
        <g id="Black-S">
            <path d="M630,129.846 L700,129.846 C701.487,129.846 702.692,128.641 702.692,127.154 C702.692,125.667 701.487,124.462 700,124.462 L697.308,124.462 L697.308,119.077 C697.287,102.285 684.422,88.301 667.691,86.884 L667.691,81.385 L673.076,81.385 C674.563,81.385 675.768,80.179 675.768,78.692 C675.768,77.205 674.563,76 673.076,76 L656.923,76 C655.436,76 654.231,77.205 654.231,78.692 C654.231,80.179 655.436,81.385 656.923,81.385 L662.308,81.385 L662.308,86.884 C645.577,88.302 632.713,102.286 632.692,119.077 L632.692,124.462 L630,124.462 C628.513,124.462 627.308,125.667 627.308,127.154 C627.308,128.641 628.513,129.846 630,129.846 Z M638.077,119.077 C638.077,104.208 650.131,92.154 665,92.154 C679.869,92.154 691.923,104.208 691.923,119.077 L691.923,124.462 L638.077,124.462 Z M702.692,137.923 C702.692,138.637 702.409,139.322 701.904,139.827 C701.399,140.332 700.714,140.615 700,140.615 L630,140.615 C628.513,140.615 627.308,139.41 627.308,137.923 C627.308,136.436 628.513,135.231 630,135.231 L700,135.231 C700.714,135.231 701.399,135.514 701.904,136.019 C702.409,136.524 702.692,137.209 702.692,137.923 Z" />
        </g>
    </g>
</svg>