<?xml version="1.0" encoding="UTF-8"?>
<svg height="600" width="800" xmlns="http://www.w3.org/2000/svg" xmlns:xlink="http://www.w3.org/1999/xlink">
    <g id="Notes" font-family="'LucidaGrande', 'Lucida Grande', sans-serif" font-size="13">
        <rect fill="white" height="600.0" width="800.0" x="0.0" y="0.0" />
        <g font-size="13">
            <text x="18.0" y="176.0">Small</text>
            <text x="18.0" y="376.0">Medium</text>
            <text x="18.0" y="576.0">Large</text>
        </g>
        <g font-size="9">
            <text x="250.0" y="30.0">Ultralight</text>
            <text x="450.0" y="30.0">Regular</text>
            <text x="650.0" y="30.0">Black</text>
            <text id="template-version" fill="#505050" text-anchor="end" x="785.0" y="575.0">Template v.3.0</text>
            <a href="https://github.com/swhitty/SwiftDraw">
                <text fill="#505050" text-anchor="end" x="785.0" y="590.0">https://github.com/swhitty/SwiftDraw</text>
            </a>
        </g>
    </g>
    <g id="Guides" stroke="rgb(39, 170, 225)" stroke-width="0.5">
        <path id="Capline-S" d="M18,76 l800,0" />
        <path id="H-reference" d="M85,145.755 L87.685,145.755 L113.369,79.287 L114.052,79.287 L114.052,76 L112.148,76 L85,145.755 Z M95.693,121.536 L130.996,121.536 L130.263,119.313 L96.474,119.313 L95.693,121.536 Z M139.15,145.755 L141.787,145.755 L114.638,76 L113.466,76 L113.466,79.287 L139.15,145.755 Z" stroke="none" />
        <path id="Baseline-S" d="M18,146 l800,0" />
        <path id="left-margin-Ultralight-S" d="M220,56 l0,110" />
        <path id="right-margin-Ultralight-S" d="M310,56 l0,110" />
        <path id="left-margin-Regular-S" d="M420,56 l0,110" />
        <path id="right-margin-Regular-S" d="M510,56 l0,110" />
        <path id="left-margin-Black-S" d="M620,56 l0,110" />
        <path id="right-margin-Black-S" d="M710,56 l0,110" />
        <path id="Capline-M" d="M18,276 l800,0" />
        <path id="Baseline-M" d="M18,346 l800,0" />
        <path id="Capline-L" d="M18,476 l800,0" />
        <path id="Baseline-L" d="M18,546 l800,0" />
    </g>
    <g id="Symbols">
        <g id="Ultralight-S">
            <path d="M265,76 C245.67,76 230,91.67 230,111 C230,130.33 245.67,146 265,146 C284.33,146 300,130.33 300,111 C299.979,91.677 284.32,76.02 264.999,76 Z M265,140.615 C248.644,140.615 235.385,127.356 235.385,111 C235.385,94.644 248.644,81.385 265,81.385 C281.356,81.385 294.615,94.644 294.615,111 C294.598,127.347 281.35,140.596 265.001,140.615 Z M281.154,111 C281.154,111.714 280.87,112.399 280.365,112.904 C279.86,113.409 279.176,113.692 278.462,113.692 L267.692,113.692 L267.692,124.462 C267.692,125.948 266.487,127.154 265,127.154 C263.513,127.154 262.308,125.948 262.308,124.462 L262.308,113.692 L251.538,113.692 C250.052,113.692 248.846,112.487 248.846,111 C248.846,109.513 250.052,108.308 251.538,108.308 L262.308,108.308 L262.308,97.538 C262.308,96.052 263.513,94.846 265,94.846 C266.487,94.846 267.692,96.052 267.692,97.538 L267.692,108.308 L278.462,108.308 C279.176,108.308 279.86,108.591 280.365,109.096 C280.87,109.601 281.154,110.286 281.154,111 Z" />
        </g>
        <g id="Regular-S">
            <path d="M465,76 C445.67,76 430,91.67 430,111 C430,130.33 445.67,146 465,146 C484.33,146 500,130.33 500,111 C499.979,91.677 484.32,76.02 464.999,76 Z M465,140.615 C448.644,140.615 435.385,127.356 435.385,111 C435.385,94.644 448.644,81.385 465,81.385 C481.356,81.385 494.615,94.644 494.615,111 C494.598,127.347 481.35,140.596 465.001,140.615 Z M481.154,111 C481.154,111.714 480.87,112.399 480.365,112.904 C479.86,113.409 479.176,113.692 478.462,113.692 L467.692,113.692 L467.692,124.462 C467.692,125.948 466.487,127.154 465,127.154 C463.513,127.154 462.308,125.948 462.308,124.462 L462.308,113.692 L451.538,113.692 C450.052,113.692 448.846,112.487 448.846,111 C448.846,109.513 450.052,108.308 451.538,108.308 L462.308,108.308 L462.308,97.538 C462.308,96.052 463.513,94.846 465,94.846 C466.487,94.846 467.692,96.052 467.692,97.538 L467.692,108.308 L478.462,108.308 C479.176,108.308 479.86,108.591 480.365,109.096 C480.87,109.601 481.154,110.286 481.154,111 Z" />
        </g>
        <g id="Black-S">
            <path d="M665,76 C645.67,76 630,91.67 630,111 C630,130.33 645.67,146 665,146 C684.33,146 700,130.33 700,111 C699.979,91.677 684.32,76.02 664.999,76 Z M665,140.615 C648.644,140.615 635.385,127.356 635.385,111 C635.385,94.644 648.644,81.385 665,81.385 C681.356,81.385 694.615,94.644 694.615,111 C694.598,127.347 681.35,140.596 665.001,140.615 Z M681.154,111 C681.154,111.714 680.87,112.399 680.365,112.904 C679.86,113.409 679.176,113.692 678.462,113.692 L667.692,113.692 L667.692,124.462 C667.692,125.948 666.487,127.154 665,127.154 C663.513,127.154 662.308,125.948 662.308,124.462 L662.308,113.692 L651.538,113.692 C650.052,113.692 648.846,112.487 648.846,111 C648.846,109.513 650.052,108.308 651.538,108.308 L662.308,108.308 L662.308,97.538 C662.308,96.052 663.513,94.846 665,94.846 C666.487,94.846 667.692,96.052 667.692,97.538 L667.692,108.308 L678.462,108.308 C679.176,108.308 679.86,108.591 680.365,109.096 C680.87,109.601 681.154,110.286 681.154,111 Z" />
        </g>
    </g>
</svg>