<?xml version="1.0" encoding="UTF-8"?>
<svg height="600" width="800" xmlns="http://www.w3.org/2000/svg" xmlns:xlink="http://www.w3.org/1999/xlink">
    <g id="Notes" font-family="'LucidaGrande', 'Lucida Grande', sans-serif" font-size="13">
        <rect fill="white" height="600.0" width="800.0" x="0.0" y="0.0" />
        <g font-size="13">
            <text x="18.0" y="176.0">Small</text>
            <text x="18.0" y="376.0">Medium</text>
            <text x="18.0" y="576.0">Large</text>
        </g>
        <g font-size="9">
            <text x="250.0" y="30.0">Ultralight</text>
            <text x="450.0" y="30.0">Regular</text>
            <text x="650.0" y="30.0">Black</text>
            <text id="template-version" fill="#505050" text-anchor="end" x="785.0" y="575.0">Template v.3.0</text>
            <a href="https://github.com/swhitty/SwiftDraw">
                <text fill="#505050" text-anchor="end" x="785.0" y="590.0">https://github.com/swhitty/SwiftDraw</text>
            </a>
        </g>
    </g>
    <g id="Guides" stroke="rgb(39, 170, 225)" stroke-width="0.5">
        <path id="Capline-S" d="M18,76 l800,0" />
        <path id="H-reference" d="M85,145.755 L87.685,145.755 L113.369,79.287 L114.052,79.287 L114.052,76 L112.148,76 L85,145.755 Z M95.693,121.536 L130.996,121.536 L130.263,119.313 L96.474,119.313 L95.693,121.536 Z M139.15,145.755 L141.787,145.755 L114.638,76 L113.466,76 L113.466,79.287 L139.15,145.755 Z" stroke="none" />
        <path id="Baseline-S" d="M18,146 l800,0" />
        <path id="left-margin-Ultralight-S" d="M220,56 l0,110" />
        <path id="right-margin-Ultralight-S" d="M310,56 l0,110" />
        <path id="left-margin-Regular-S" d="M420,56 l0,110" />
        <path id="right-margin-Regular-S" d="M510,56 l0,110" />
        <path id="left-margin-Black-S" d="M620,56 l0,110" />
        <path id="right-margin-Black-S" d="M710,56 l0,110" />
        <path id="Capline-M" d="M18,276 l800,0" />
        <path id="Baseline-M" d="M18,346 l800,0" />
        <path id="Capline-L" d="M18,476 l800,0" />
        <path id="Baseline-L" d="M18,546 l800,0" />
    </g>
    <g id="Symbols">
        <g id="Ultralight-S">
            <path d="M275.769,94.846 L238.077,94.846 C236.649,94.846 235.279,95.413 234.269,96.423 C233.26,97.433 232.692,98.803 232.692,100.231 L232.692,137.923 C232.692,139.351 233.26,140.721 234.269,141.731 C235.279,142.74 236.649,143.308 238.077,143.308 L275.769,143.308 C277.197,143.308 278.567,142.74 279.577,141.731 C280.587,140.721 281.154,139.351 281.154,137.923 L281.154,100.231 C281.154,98.803 280.587,97.433 279.577,96.423 C278.567,95.413 277.197,94.846 275.769,94.846 Z M275.769,137.923 L238.077,137.923 L238.077,100.231 L275.769,100.231 Z M267.692,81.385 C267.692,80.671 267.976,79.986 268.481,79.481 C268.986,78.976 269.671,78.692 270.385,78.692 L275.769,78.692 C277.256,78.692 278.462,79.898 278.462,81.385 C278.462,82.872 277.256,84.077 275.769,84.077 L270.385,84.077 C269.671,84.077 268.986,83.793 268.481,83.288 C267.976,82.783 267.692,82.099 267.692,81.385 Z M297.308,84.077 L297.308,86.769 C297.308,88.256 296.102,89.462 294.615,89.462 C293.128,89.462 291.923,88.256 291.923,86.769 L291.923,84.077 L289.231,84.077 C287.744,84.077 286.538,82.872 286.538,81.385 C286.538,79.898 287.744,78.692 289.231,78.692 L291.923,78.692 C293.351,78.692 294.721,79.26 295.731,80.269 C296.74,81.279 297.308,82.649 297.308,84.077 Z M297.308,100.231 L297.308,105.615 C297.308,107.102 296.102,108.308 294.615,108.308 C293.128,108.308 291.923,107.102 291.923,105.615 L291.923,100.231 C291.923,98.744 293.128,97.538 294.615,97.538 C296.102,97.538 297.308,98.744 297.308,100.231 Z M297.308,119.077 L297.308,121.769 C297.308,123.197 296.74,124.567 295.731,125.577 C294.721,126.587 293.351,127.154 291.923,127.154 L289.231,127.154 C287.744,127.154 286.538,125.948 286.538,124.462 C286.538,122.975 287.744,121.769 289.231,121.769 L291.923,121.769 L291.923,119.077 C291.923,117.59 293.128,116.385 294.615,116.385 C296.102,116.385 297.308,117.59 297.308,119.077 Z M248.846,86.769 L248.846,84.077 C248.846,82.649 249.413,81.279 250.423,80.269 C251.433,79.26 252.803,78.692 254.231,78.692 L256.923,78.692 C258.41,78.692 259.615,79.898 259.615,81.385 C259.615,82.872 258.41,84.077 256.923,84.077 L254.231,84.077 L254.231,86.769 C254.231,88.256 253.025,89.462 251.538,89.462 C250.052,89.462 248.846,88.256 248.846,86.769 Z" />
        </g>
        <g id="Regular-S">
            <path d="M475.769,94.846 L438.077,94.846 C436.649,94.846 435.279,95.413 434.269,96.423 C433.26,97.433 432.692,98.803 432.692,100.231 L432.692,137.923 C432.692,139.351 433.26,140.721 434.269,141.731 C435.279,142.74 436.649,143.308 438.077,143.308 L475.769,143.308 C477.197,143.308 478.567,142.74 479.577,141.731 C480.587,140.721 481.154,139.351 481.154,137.923 L481.154,100.231 C481.154,98.803 480.587,97.433 479.577,96.423 C478.567,95.413 477.197,94.846 475.769,94.846 Z M475.769,137.923 L438.077,137.923 L438.077,100.231 L475.769,100.231 Z M467.692,81.385 C467.692,80.671 467.976,79.986 468.481,79.481 C468.986,78.976 469.671,78.692 470.385,78.692 L475.769,78.692 C477.256,78.692 478.462,79.898 478.462,81.385 C478.462,82.872 477.256,84.077 475.769,84.077 L470.385,84.077 C469.671,84.077 468.986,83.793 468.481,83.288 C467.976,82.783 467.692,82.099 467.692,81.385 Z M497.308,84.077 L497.308,86.769 C497.308,88.256 496.102,89.462 494.615,89.462 C493.128,89.462 491.923,88.256 491.923,86.769 L491.923,84.077 L489.231,84.077 C487.744,84.077 486.538,82.872 486.538,81.385 C486.538,79.898 487.744,78.692 489.231,78.692 L491.923,78.692 C493.351,78.692 494.721,79.26 495.731,80.269 C496.74,81.279 497.308,82.649 497.308,84.077 Z M497.308,100.231 L497.308,105.615 C497.308,107.102 496.102,108.308 494.615,108.308 C493.128,108.308 491.923,107.102 491.923,105.615 L491.923,100.231 C491.923,98.744 493.128,97.538 494.615,97.538 C496.102,97.538 497.308,98.744 497.308,100.231 Z M497.308,119.077 L497.308,121.769 C497.308,123.197 496.74,124.567 495.731,125.577 C494.721,126.587 493.351,127.154 491.923,127.154 L489.231,127.154 C487.744,127.154 486.538,125.948 486.538,124.462 C486.538,122.975 487.744,121.769 489.231,121.769 L491.923,121.769 L491.923,119.077 C491.923,117.59 493.128,116.385 494.615,116.385 C496.102,116.385 497.308,117.59 497.308,119.077 Z M448.846,86.769 L448.846,84.077 C448.846,82.649 449.413,81.279 450.423,80.269 C451.433,79.26 452.803,78.692 454.231,78.692 L456.923,78.692 C458.41,78.692 459.615,79.898 459.615,81.385 C459.615,82.872 458.41,84.077 456.923,84.077 L454.231,84.077 L454.231,86.769 C454.231,88.256 453.025,89.462 451.538,89.462 C450.052,89.462 448.846,88.256 448.846,86.769 Z" />
        </g>
        <g id="Black-S">
            <path d="M675.769,94.846 L638.077,94.846 C636.649,94.846 635.279,95.413 634.269,96.423 C633.26,97.433 632.692,98.803 632.692,100.231 L632.692,137.923 C632.692,139.351 633.26,140.721 634.269,141.731 C635.279,142.74 636.649,143.308 638.077,143.308 L675.769,143.308 C677.197,143.308 678.567,142.74 679.577,141.731 C680.587,140.721 681.154,139.351 681.154,137.923 L681.154,100.231 C681.154,98.803 680.587,97.433 679.577,96.423 C678.567,95.413 677.197,94.846 675.769,94.846 Z M675.769,137.923 L638.077,137.923 L638.077,100.231 L675.769,100.231 Z M667.692,81.385 C667.692,80.671 667.976,79.986 668.481,79.481 C668.986,78.976 669.671,78.692 670.385,78.692 L675.769,78.692 C677.256,78.692 678.462,79.898 678.462,81.385 C678.462,82.872 677.256,84.077 675.769,84.077 L670.385,84.077 C669.671,84.077 668.986,83.793 668.481,83.288 C667.976,82.783 667.692,82.099 667.692,81.385 Z M697.308,84.077 L697.308,86.769 C697.308,88.256 696.102,89.462 694.615,89.462 C693.128,89.462 691.923,88.256 691.923,86.769 L691.923,84.077 L689.231,84.077 C687.744,84.077 686.538,82.872 686.538,81.385 C686.538,79.898 687.744,78.692 689.231,78.692 L691.923,78.692 C693.351,78.692 694.721,79.26 695.731,80.269 C696.74,81.279 697.308,82.649 697.308,84.077 Z M697.308,100.231 L697.308,105.615 C697.308,107.102 696.102,108.308 694.615,108.308 C693.128,108.308 691.923,107.102 691.923,105.615 L691.923,100.231 C691.923,98.744 693.128,97.538 694.615,97.538 C696.102,97.538 697.308,98.744 697.308,100.231 Z M697.308,119.077 L697.308,121.769 C697.308,123.197 696.74,124.567 695.731,125.577 C694.721,126.587 693.351,127.154 691.923,127.154 L689.231,127.154 C687.744,127.154 686.538,125.948 686.538,124.462 C686.538,122.975 687.744,121.769 689.231,121.769 L691.923,121.769 L691.923,119.077 C691.923,117.59 693.128,116.385 694.615,116.385 C696.102,116.385 697.308,117.59 697.308,119.077 Z M648.846,86.769 L648.846,84.077 C648.846,82.649 649.413,81.279 650.423,80.269 C651.433,79.26 652.803,78.692 654.231,78.692 L656.923,78.692 C658.41,78.692 659.615,79.898 659.615,81.385 C659.615,82.872 658.41,84.077 656.923,84.077 L654.231,84.077 L654.231,86.769 C654.231,88.256 653.025,89.462 651.538,89.462 C650.052,89.462 648.846,88.256 648.846,86.769 Z" />
        </g>
    </g>
</svg>