<?xml version="1.0" encoding="UTF-8"?>
<svg height="600" width="800" xmlns="http://www.w3.org/2000/svg" xmlns:xlink="http://www.w3.org/1999/xlink">
    <g id="Notes" font-family="'LucidaGrande', 'Lucida Grande', sans-serif" font-size="13">
        <rect fill="white" height="600.0" width="800.0" x="0.0" y="0.0" />
        <g font-size="13">
            <text x="18.0" y="176.0">Small</text>
            <text x="18.0" y="376.0">Medium</text>
            <text x="18.0" y="576.0">Large</text>
        </g>
        <g font-size="9">
            <text x="250.0" y="30.0">Ultralight</text>
            <text x="450.0" y="30.0">Regular</text>
            <text x="650.0" y="30.0">Black</text>
            <text id="template-version" fill="#505050" text-anchor="end" x="785.0" y="575.0">Template v.3.0</text>
            <a href="https://github.com/swhitty/SwiftDraw">
                <text fill="#505050" text-anchor="end" x="785.0" y="590.0">https://github.com/swhitty/SwiftDraw</text>
            </a>
        </g>
    </g>
    <g id="Guides" stroke="rgb(39, 170, 225)" stroke-width="0.5">
        <path id="Capline-S" d="M18,76 l800,0" />
        <path id="H-reference" d="M85,145.755 L87.685,145.755 L113.369,79.287 L114.052,79.287 L114.052,76 L112.148,76 L85,145.755 Z M95.693,121.536 L130.996,121.536 L130.263,119.313 L96.474,119.313 L95.693,121.536 Z M139.15,145.755 L141.787,145.755 L114.638,76 L113.466,76 L113.466,79.287 L139.15,145.755 Z" stroke="none" />
        <path id="Baseline-S" d="M18,146 l800,0" />
        <path id="left-margin-Ultralight-S" d="M220,56 l0,110" />
        <path id="right-margin-Ultralight-S" d="M310,56 l0,110" />
        <path id="left-margin-Regular-S" d="M420,56 l0,110" />
        <path id="right-margin-Regular-S" d="M510,56 l0,110" />
        <path id="left-margin-Black-S" d="M620,56 l0,110" />
        <path id="right-margin-Black-S" d="M710,56 l0,110" />
        <path id="Capline-M" d="M18,276 l800,0" />
        <path id="Baseline-M" d="M18,346 l800,0" />
        <path id="Capline-L" d="M18,476 l800,0" />
        <path id="Baseline-L" d="M18,546 l800,0" />
    </g>
    <g id="Symbols">
        <g id="Ultralight-S">
            <path d="M265,76 C245.67,76 230,91.67 230,111 C230,130.33 245.67,146 265,146 C284.33,146 300,130.33 300,111 C299.979,91.677 284.32,76.02 264.999,76 Z M290.752,125.613 L279.438,125.613 L276.321,121.318 L280.572,108.94 L285.62,107.295 L294.451,114.069 C294.033,118.132 292.773,122.063 290.752,125.612 Z M235.56,114.069 L244.374,107.298 L249.422,108.944 L253.672,121.322 L250.562,125.613 L239.248,125.613 C237.225,122.064 235.963,118.133 235.543,114.069 Z M238.925,97.027 L240.779,103.287 L235.624,107.221 C236.081,103.651 237.189,100.196 238.895,97.027 Z M258.606,119.077 L254.749,107.853 L265,100.806 L275.251,107.853 L271.394,119.077 Z M289.254,103.287 L291.109,97.027 C292.814,100.196 293.923,103.651 294.38,107.221 Z M287.168,91.38 L283.967,102.176 L278.896,103.822 L267.692,96.122 L267.692,90.878 L277.482,84.148 C281.17,85.872 284.465,88.333 287.164,91.38 Z M271.081,82.014 L265,86.194 L258.919,82.014 C262.93,81.175 267.07,81.175 271.081,82.014 Z M252.518,84.148 L262.308,90.878 L262.308,96.122 L251.108,103.822 L246.036,102.176 L242.836,91.38 C245.535,88.333 248.83,85.872 252.518,84.148 Z M243.175,130.997 L250.031,130.997 L252.444,137.819 C248.94,136.17 245.791,133.853 243.175,130.997 Z M258.942,139.986 L254.944,128.739 L258.05,124.462 L271.95,124.462 L275.056,128.739 L271.075,139.986 C267.068,140.826 262.932,140.826 258.925,139.986 Z M277.573,137.819 L279.986,130.997 L286.841,130.997 C284.22,133.854 281.066,136.172 277.556,137.819 Z" />
        </g>
        <g id="Regular-S">
            <path d="M465,76 C445.67,76 430,91.67 430,111 C430,130.33 445.67,146 465,146 C484.33,146 500,130.33 500,111 C499.979,91.677 484.32,76.02 464.999,76 Z M490.752,125.613 L479.438,125.613 L476.321,121.318 L480.572,108.94 L485.62,107.295 L494.45,114.069 C494.033,118.132 492.773,122.063 490.752,125.612 Z M435.56,114.069 L444.374,107.298 L449.422,108.944 L453.672,121.322 L450.562,125.613 L439.248,125.613 C437.225,122.064 435.963,118.133 435.543,114.069 Z M438.925,97.027 L440.779,103.287 L435.624,107.221 C436.081,103.651 437.189,100.196 438.895,97.027 Z M458.606,119.077 L454.749,107.853 L465,100.806 L475.251,107.853 L471.394,119.077 Z M489.254,103.287 L491.109,97.027 C492.814,100.196 493.923,103.651 494.38,107.221 Z M487.168,91.38 L483.967,102.176 L478.896,103.822 L467.692,96.122 L467.692,90.878 L477.482,84.148 C481.17,85.872 484.465,88.333 487.164,91.38 Z M471.081,82.014 L465,86.194 L458.919,82.014 C462.929,81.175 467.07,81.175 471.081,82.014 Z M452.518,84.148 L462.308,90.878 L462.308,96.122 L451.108,103.822 L446.036,102.176 L442.836,91.38 C445.535,88.333 448.83,85.872 452.518,84.148 Z M443.175,130.997 L450.031,130.997 L452.444,137.819 C448.94,136.17 445.791,133.853 443.175,130.997 Z M458.942,139.986 L454.944,128.739 L458.05,124.462 L471.949,124.462 L475.056,128.739 L471.074,139.986 C467.068,140.826 462.932,140.826 458.925,139.986 Z M477.573,137.819 L479.986,130.997 L486.841,130.997 C484.22,133.854 481.066,136.172 477.556,137.819 Z" />
        </g>
        <g id="Black-S">
            <path d="M665,76 C645.67,76 630,91.67 630,111 C630,130.33 645.67,146 665,146 C684.33,146 700,130.33 700,111 C699.979,91.677 684.32,76.02 664.999,76 Z M690.752,125.613 L679.438,125.613 L676.321,121.318 L680.572,108.94 L685.62,107.295 L694.451,114.069 C694.033,118.132 692.773,122.063 690.752,125.612 Z M635.56,114.069 L644.374,107.298 L649.422,108.944 L653.672,121.322 L650.562,125.613 L639.248,125.613 C637.225,122.064 635.963,118.133 635.543,114.069 Z M638.925,97.027 L640.779,103.287 L635.624,107.221 C636.081,103.651 637.189,100.196 638.895,97.027 Z M658.606,119.077 L654.749,107.853 L665,100.806 L675.251,107.853 L671.394,119.077 Z M689.254,103.287 L691.109,97.027 C692.814,100.196 693.923,103.651 694.38,107.221 Z M687.168,91.38 L683.967,102.176 L678.896,103.822 L667.692,96.122 L667.692,90.878 L677.482,84.148 C681.17,85.872 684.465,88.333 687.164,91.38 Z M671.081,82.014 L665,86.194 L658.919,82.014 C662.93,81.175 667.07,81.175 671.081,82.014 Z M652.518,84.148 L662.308,90.878 L662.308,96.122 L651.108,103.822 L646.036,102.176 L642.836,91.38 C645.535,88.333 648.83,85.872 652.518,84.148 Z M643.175,130.997 L650.031,130.997 L652.444,137.819 C648.94,136.17 645.792,133.853 643.175,130.997 Z M658.942,139.986 L654.944,128.739 L658.05,124.462 L671.95,124.462 L675.056,128.739 L671.075,139.986 C667.068,140.826 662.932,140.826 658.925,139.986 Z M677.573,137.819 L679.986,130.997 L686.841,130.997 C684.22,133.854 681.066,136.172 677.556,137.819 Z" />
        </g>
    </g>
</svg>