<?xml version="1.0" encoding="UTF-8"?>
<svg height="600" width="800" xmlns="http://www.w3.org/2000/svg" xmlns:xlink="http://www.w3.org/1999/xlink">
    <g id="Notes" font-family="'LucidaGrande', 'Lucida Grande', sans-serif" font-size="13">
        <rect fill="white" height="600.0" width="800.0" x="0.0" y="0.0" />
        <g font-size="13">
            <text x="18.0" y="176.0">Small</text>
            <text x="18.0" y="376.0">Medium</text>
            <text x="18.0" y="576.0">Large</text>
        </g>
        <g font-size="9">
            <text x="250.0" y="30.0">Ultralight</text>
            <text x="450.0" y="30.0">Regular</text>
            <text x="650.0" y="30.0">Black</text>
            <text id="template-version" fill="#505050" text-anchor="end" x="785.0" y="575.0">Template v.3.0</text>
            <a href="https://github.com/swhitty/SwiftDraw">
                <text fill="#505050" text-anchor="end" x="785.0" y="590.0">https://github.com/swhitty/SwiftDraw</text>
            </a>
        </g>
    </g>
    <g id="Guides" stroke="rgb(39, 170, 225)" stroke-width="0.5">
        <path id="Capline-S" d="M18,76 l800,0" />
        <path id="H-reference" d="M85,145.755 L87.685,145.755 L113.369,79.287 L114.052,79.287 L114.052,76 L112.148,76 L85,145.755 Z M95.693,121.536 L130.996,121.536 L130.263,119.313 L96.474,119.313 L95.693,121.536 Z M139.15,145.755 L141.787,145.755 L114.638,76 L113.466,76 L113.466,79.287 L139.15,145.755 Z" stroke="none" />
        <path id="Baseline-S" d="M18,146 l800,0" />
        <path id="left-margin-Ultralight-S" d="M220,56 l0,110" />
        <path id="right-margin-Ultralight-S" d="M310,56 l0,110" />
        <path id="left-margin-Regular-S" d="M420,56 l0,110" />
        <path id="right-margin-Regular-S" d="M510,56 l0,110" />
        <path id="left-margin-Black-S" d="M620,56 l0,110" />
        <path id="right-margin-Black-S" d="M710,56 l0,110" />
        <path id="Capline-M" d="M18,276 l800,0" />
        <path id="Baseline-M" d="M18,346 l800,0" />
        <path id="Capline-L" d="M18,476 l800,0" />
        <path id="Baseline-L" d="M18,546 l800,0" />
    </g>
    <g id="Symbols">
        <g id="Ultralight-S">
            <path d="M294.615,81.385 L235.385,81.385 C233.957,81.385 232.587,81.952 231.577,82.962 C230.567,83.972 230,85.341 230,86.769 L230,129.846 C230,131.274 230.567,132.644 231.577,133.654 C232.587,134.663 233.957,135.231 235.385,135.231 L255.722,135.231 L260.326,143.288 C261.284,144.965 263.068,145.999 265,145.999 C266.932,145.999 268.716,144.965 269.675,143.288 L274.278,135.231 L294.615,135.231 C296.043,135.231 297.413,134.663 298.423,133.654 C299.433,132.644 300,131.274 300,129.846 L300,86.769 C300,85.341 299.433,83.972 298.423,82.962 C297.413,81.952 296.043,81.385 294.615,81.385 Z M294.615,129.846 L272.717,129.846 C271.746,129.837 270.846,130.352 270.361,131.192 L264.976,140.615 L259.592,131.192 C259.107,130.352 258.207,129.837 257.236,129.846 L235.385,129.846 L235.385,86.769 L294.615,86.769 Z" />
        </g>
        <g id="Regular-S">
            <path d="M494.615,81.385 L435.385,81.385 C433.957,81.385 432.587,81.952 431.577,82.962 C430.567,83.972 430,85.341 430,86.769 L430,129.846 C430,131.274 430.567,132.644 431.577,133.654 C432.587,134.663 433.957,135.231 435.385,135.231 L455.722,135.231 L460.325,143.288 C461.284,144.965 463.068,145.999 465,145.999 C466.932,145.999 468.716,144.965 469.674,143.288 L474.278,135.231 L494.615,135.231 C496.043,135.231 497.413,134.663 498.423,133.654 C499.433,132.644 500,131.274 500,129.846 L500,86.769 C500,85.341 499.433,83.972 498.423,82.962 C497.413,81.952 496.043,81.385 494.615,81.385 Z M494.615,129.846 L472.717,129.846 C471.746,129.837 470.846,130.352 470.361,131.192 L464.976,140.615 L459.592,131.192 C459.107,130.352 458.207,129.837 457.236,129.846 L435.385,129.846 L435.385,86.769 L494.615,86.769 Z" />
        </g>
        <g id="Black-S">
            <path d="M694.615,81.385 L635.385,81.385 C633.957,81.385 632.587,81.952 631.577,82.962 C630.567,83.972 630,85.341 630,86.769 L630,129.846 C630,131.274 630.567,132.644 631.577,133.654 C632.587,134.663 633.957,135.231 635.385,135.231 L655.722,135.231 L660.326,143.288 C661.284,144.965 663.068,145.999 665,145.999 C666.932,145.999 668.716,144.965 669.675,143.288 L674.278,135.231 L694.615,135.231 C696.044,135.231 697.413,134.663 698.423,133.654 C699.433,132.644 700,131.274 700,129.846 L700,86.769 C700,85.341 699.433,83.972 698.423,82.962 C697.413,81.952 696.044,81.385 694.615,81.385 Z M694.615,129.846 L672.717,129.846 C671.746,129.837 670.846,130.352 670.361,131.192 L664.976,140.615 L659.592,131.192 C659.107,130.352 658.207,129.837 657.236,129.846 L635.385,129.846 L635.385,86.769 L694.615,86.769 Z" />
        </g>
    </g>
</svg>