<?xml version="1.0" encoding="UTF-8"?>
<svg height="600" width="800" xmlns="http://www.w3.org/2000/svg" xmlns:xlink="http://www.w3.org/1999/xlink">
    <g id="Notes" font-family="'LucidaGrande', 'Lucida Grande', sans-serif" font-size="13">
        <rect fill="white" height="600.0" width="800.0" x="0.0" y="0.0" />
        <g font-size="13">
            <text x="18.0" y="176.0">Small</text>
            <text x="18.0" y="376.0">Medium</text>
            <text x="18.0" y="576.0">Large</text>
        </g>
        <g font-size="9">
            <text x="250.0" y="30.0">Ultralight</text>
            <text x="450.0" y="30.0">Regular</text>
            <text x="650.0" y="30.0">Black</text>
            <text id="template-version" fill="#505050" text-anchor="end" x="785.0" y="575.0">Template v.3.0</text>
            <a href="https://github.com/swhitty/SwiftDraw">
                <text fill="#505050" text-anchor="end" x="785.0" y="590.0">https://github.com/swhitty/SwiftDraw</text>
            </a>
        </g>
    </g>
    <g id="Guides" stroke="rgb(39, 170, 225)" stroke-width="0.5">
        <path id="Capline-S" d="M18,76 l800,0" />
        <path id="H-reference" d="M85,145.755 L87.685,145.755 L113.369,79.287 L114.052,79.287 L114.052,76 L112.148,76 L85,145.755 Z M95.693,121.536 L130.996,121.536 L130.263,119.313 L96.474,119.313 L95.693,121.536 Z M139.15,145.755 L141.787,145.755 L114.638,76 L113.466,76 L113.466,79.287 L139.15,145.755 Z" stroke="none" />
        <path id="Baseline-S" d="M18,146 l800,0" />
        <path id="left-margin-Ultralight-S" d="M220,56 l0,110" />
        <path id="right-margin-Ultralight-S" d="M310,56 l0,110" />
        <path id="left-margin-Regular-S" d="M420,56 l0,110" />
        <path id="right-margin-Regular-S" d="M510,56 l0,110" />
        <path id="left-margin-Black-S" d="M620,56 l0,110" />
        <path id="right-margin-Black-S" d="M710,56 l0,110" />
        <path id="Capline-M" d="M18,276 l800,0" />
        <path id="Baseline-M" d="M18,346 l800,0" />
        <path id="Capline-L" d="M18,476 l800,0" />
        <path id="Baseline-L" d="M18,546 l800,0" />
    </g>
    <g id="Symbols">
        <g id="Ultralight-S">
            <path d="M294.615,81.385 L244.986,81.385 C243.096,81.39 241.346,82.381 240.369,84 L224.999,109.613 C224.486,110.467 224.486,111.533 224.999,112.387 L240.369,138 C241.346,139.619 243.096,140.61 244.986,140.615 L294.615,140.615 C296.043,140.615 297.413,140.048 298.423,139.038 C299.433,138.028 300,136.659 300,135.231 L300,86.769 C300,85.341 299.433,83.972 298.423,82.962 C297.413,81.952 296.043,81.385 294.615,81.385 Z M242.677,136.617 L244.986,135.231 L244.986,135.231 Z M294.615,135.231 L244.986,135.231 L230.448,111 L244.986,86.769 L294.615,86.769 Z M257.711,117.172 L263.886,111 L257.711,104.828 C256.658,103.774 256.659,102.069 257.712,101.017 C258.764,99.966 260.47,99.967 261.521,101.019 L267.692,107.194 L273.864,101.018 C274.915,99.967 276.62,99.966 277.673,101.017 C278.726,102.069 278.727,103.774 277.675,104.827 L271.499,111 L277.674,117.172 C278.727,118.226 278.726,119.931 277.673,120.983 C276.62,122.034 274.915,122.033 273.863,120.981 L267.692,114.806 L261.52,120.982 C260.47,122.033 258.764,122.034 257.712,120.983 C256.659,119.931 256.658,118.226 257.71,117.173 Z" />
        </g>
        <g id="Regular-S">
            <path d="M494.615,81.385 L444.986,81.385 C443.096,81.39 441.346,82.381 440.369,84 L424.999,109.613 C424.486,110.467 424.486,111.533 424.999,112.387 L440.369,138 C441.346,139.619 443.096,140.61 444.986,140.615 L494.615,140.615 C496.043,140.615 497.413,140.048 498.423,139.038 C499.433,138.028 500,136.659 500,135.231 L500,86.769 C500,85.341 499.433,83.972 498.423,82.962 C497.413,81.952 496.043,81.385 494.615,81.385 Z M442.677,136.617 L444.986,135.231 L444.986,135.231 Z M494.615,135.231 L444.986,135.231 L430.448,111 L444.986,86.769 L494.615,86.769 Z M457.711,117.172 L463.886,111 L457.711,104.828 C456.658,103.774 456.659,102.069 457.712,101.017 C458.764,99.966 460.47,99.967 461.521,101.019 L467.692,107.194 L473.864,101.018 C474.915,99.967 476.62,99.966 477.673,101.017 C478.726,102.069 478.727,103.774 477.675,104.827 L471.499,111 L477.674,117.172 C478.727,118.226 478.726,119.931 477.673,120.983 C476.62,122.034 474.915,122.033 473.863,120.981 L467.692,114.806 L461.52,120.982 C460.47,122.033 458.764,122.034 457.712,120.983 C456.659,119.931 456.658,118.226 457.71,117.173 Z" />
        </g>
        <g id="Black-S">
            <path d="M694.615,81.385 L644.986,81.385 C643.096,81.39 641.346,82.381 640.369,84 L624.999,109.613 C624.486,110.467 624.486,111.533 624.999,112.387 L640.369,138 C641.346,139.619 643.096,140.61 644.986,140.615 L694.615,140.615 C696.044,140.615 697.413,140.048 698.423,139.038 C699.433,138.028 700,136.659 700,135.231 L700,86.769 C700,85.341 699.433,83.972 698.423,82.962 C697.413,81.952 696.044,81.385 694.615,81.385 Z M642.677,136.617 L644.986,135.231 L644.986,135.231 Z M694.615,135.231 L644.986,135.231 L630.448,111 L644.986,86.769 L694.615,86.769 Z M657.711,117.172 L663.886,111 L657.711,104.828 C656.658,103.774 656.659,102.069 657.712,101.017 C658.764,99.966 660.47,99.967 661.521,101.019 L667.692,107.194 L673.864,101.018 C674.915,99.967 676.62,99.966 677.673,101.017 C678.726,102.069 678.727,103.774 677.675,104.827 L671.499,111 L677.674,117.172 C678.727,118.226 678.726,119.931 677.673,120.983 C676.62,122.034 674.915,122.033 673.863,120.981 L667.692,114.806 L661.52,120.982 C660.47,122.033 658.764,122.034 657.712,120.983 C656.659,119.931 656.658,118.226 657.71,117.173 Z" />
        </g>
    </g>
</svg>