<?xml version="1.0" encoding="UTF-8"?>
<svg height="600" width="800" xmlns="http://www.w3.org/2000/svg" xmlns:xlink="http://www.w3.org/1999/xlink">
    <g id="Notes" font-family="'LucidaGrande', 'Lucida Grande', sans-serif" font-size="13">
        <rect fill="white" height="600.0" width="800.0" x="0.0" y="0.0" />
        <g font-size="13">
            <text x="18.0" y="176.0">Small</text>
            <text x="18.0" y="376.0">Medium</text>
            <text x="18.0" y="576.0">Large</text>
        </g>
        <g font-size="9">
            <text x="250.0" y="30.0">Ultralight</text>
            <text x="450.0" y="30.0">Regular</text>
            <text x="650.0" y="30.0">Black</text>
            <text id="template-version" fill="#505050" text-anchor="end" x="785.0" y="575.0">Template v.3.0</text>
            <a href="https://github.com/swhitty/SwiftDraw">
                <text fill="#505050" text-anchor="end" x="785.0" y="590.0">https://github.com/swhitty/SwiftDraw</text>
            </a>
        </g>
    </g>
    <g id="Guides" stroke="rgb(39, 170, 225)" stroke-width="0.5">
        <path id="Capline-S" d="M18,76 l800,0" />
        <path id="H-reference" d="M85,145.755 L87.685,145.755 L113.369,79.287 L114.052,79.287 L114.052,76 L112.148,76 L85,145.755 Z M95.693,121.536 L130.996,121.536 L130.263,119.313 L96.474,119.313 L95.693,121.536 Z M139.15,145.755 L141.787,145.755 L114.638,76 L113.466,76 L113.466,79.287 L139.15,145.755 Z" stroke="none" />
        <path id="Baseline-S" d="M18,146 l800,0" />
        <path id="left-margin-Ultralight-S" d="M220,56 l0,110" />
        <path id="right-margin-Ultralight-S" d="M310,56 l0,110" />
        <path id="left-margin-Regular-S" d="M420,56 l0,110" />
        <path id="right-margin-Regular-S" d="M510,56 l0,110" />
        <path id="left-margin-Black-S" d="M620,56 l0,110" />
        <path id="right-margin-Black-S" d="M710,56 l0,110" />
        <path id="Capline-M" d="M18,276 l800,0" />
        <path id="Baseline-M" d="M18,346 l800,0" />
        <path id="Capline-L" d="M18,476 l800,0" />
        <path id="Baseline-L" d="M18,546 l800,0" />
    </g>
    <g id="Symbols">
        <g id="Ultralight-S">
            <path d="M301.275,97.875 L266.275,79.029 C265.479,78.6 264.521,78.6 263.725,79.029 L228.725,97.875 C227.857,98.342 227.313,99.245 227.308,100.231 L227.308,121.769 C227.307,122.761 227.851,123.672 228.725,124.142 L263.725,142.988 C264.521,143.416 265.479,143.416 266.275,142.988 L301.275,124.142 C302.149,123.672 302.693,122.761 302.692,121.769 L302.692,100.231 C302.687,99.245 302.143,98.342 301.275,97.875 Z M297.308,117.263 L285.68,111 L297.308,104.737 Z M280,107.941 L267.692,101.314 L267.692,85.891 L294.323,100.231 Z M265,116.018 L255.678,111 L265,105.982 L274.322,111 Z M262.308,85.891 L262.308,101.314 L250,107.941 L235.677,100.231 Z M232.692,104.737 L244.32,111 L232.692,117.263 Z M250,114.059 L262.308,120.686 L262.308,136.109 L235.677,121.769 Z M267.692,136.109 L267.692,120.686 L280,114.059 L294.323,121.769 Z" />
        </g>
        <g id="Regular-S">
            <path d="M501.275,97.875 L466.275,79.029 C465.479,78.6 464.521,78.6 463.725,79.029 L428.725,97.875 C427.857,98.342 427.313,99.245 427.308,100.231 L427.308,121.769 C427.307,122.761 427.851,123.672 428.724,124.142 L463.724,142.988 C464.521,143.416 465.479,143.416 466.275,142.988 L501.275,124.142 C502.149,123.672 502.693,122.761 502.692,121.769 L502.692,100.231 C502.687,99.245 502.143,98.342 501.275,97.875 Z M497.308,117.263 L485.68,111 L497.308,104.737 Z M480,107.941 L467.692,101.314 L467.692,85.891 L494.323,100.231 Z M465,116.018 L455.678,111 L465,105.982 L474.322,111 Z M462.308,85.891 L462.308,101.314 L450,107.941 L435.677,100.231 Z M432.692,104.737 L444.32,111 L432.692,117.263 Z M450,114.059 L462.308,120.686 L462.308,136.109 L435.677,121.769 Z M467.692,136.109 L467.692,120.686 L480,114.059 L494.323,121.769 Z" />
        </g>
        <g id="Black-S">
            <path d="M701.276,97.875 L666.276,79.029 C665.479,78.6 664.521,78.6 663.725,79.029 L628.725,97.875 C627.857,98.342 627.313,99.245 627.308,100.231 L627.308,121.769 C627.307,122.761 627.851,123.672 628.725,124.142 L663.725,142.988 C664.521,143.416 665.479,143.416 666.276,142.988 L701.276,124.142 C702.149,123.672 702.693,122.761 702.692,121.769 L702.692,100.231 C702.687,99.245 702.143,98.342 701.276,97.875 Z M697.308,117.263 L685.68,111 L697.308,104.737 Z M680,107.941 L667.692,101.314 L667.692,85.891 L694.323,100.231 Z M665,116.018 L655.678,111 L665,105.982 L674.322,111 Z M662.308,85.891 L662.308,101.314 L650,107.941 L635.677,100.231 Z M632.692,104.737 L644.32,111 L632.692,117.263 Z M650,114.059 L662.308,120.686 L662.308,136.109 L635.677,121.769 Z M667.692,136.109 L667.692,120.686 L680,114.059 L694.323,121.769 Z" />
        </g>
    </g>
</svg>