<?xml version="1.0" encoding="UTF-8"?>
<svg height="600" width="800" xmlns="http://www.w3.org/2000/svg" xmlns:xlink="http://www.w3.org/1999/xlink">
    <g id="Notes" font-family="'LucidaGrande', 'Lucida Grande', sans-serif" font-size="13">
        <rect fill="white" height="600.0" width="800.0" x="0.0" y="0.0" />
        <g font-size="13">
            <text x="18.0" y="176.0">Small</text>
            <text x="18.0" y="376.0">Medium</text>
            <text x="18.0" y="576.0">Large</text>
        </g>
        <g font-size="9">
            <text x="250.0" y="30.0">Ultralight</text>
            <text x="450.0" y="30.0">Regular</text>
            <text x="650.0" y="30.0">Black</text>
            <text id="template-version" fill="#505050" text-anchor="end" x="785.0" y="575.0">Template v.3.0</text>
            <a href="https://github.com/swhitty/SwiftDraw">
                <text fill="#505050" text-anchor="end" x="785.0" y="590.0">https://github.com/swhitty/SwiftDraw</text>
            </a>
        </g>
    </g>
    <g id="Guides" stroke="rgb(39, 170, 225)" stroke-width="0.5">
        <path id="Capline-S" d="M18,76 l800,0" />
        <path id="H-reference" d="M85,145.755 L87.685,145.755 L113.369,79.287 L114.052,79.287 L114.052,76 L112.148,76 L85,145.755 Z M95.693,121.536 L130.996,121.536 L130.263,119.313 L96.474,119.313 L95.693,121.536 Z M139.15,145.755 L141.787,145.755 L114.638,76 L113.466,76 L113.466,79.287 L139.15,145.755 Z" stroke="none" />
        <path id="Baseline-S" d="M18,146 l800,0" />
        <path id="left-margin-Ultralight-S" d="M220,56 l0,110" />
        <path id="right-margin-Ultralight-S" d="M310,56 l0,110" />
        <path id="left-margin-Regular-S" d="M420,56 l0,110" />
        <path id="right-margin-Regular-S" d="M510,56 l0,110" />
        <path id="left-margin-Black-S" d="M620,56 l0,110" />
        <path id="right-margin-Black-S" d="M710,56 l0,110" />
        <path id="Capline-M" d="M18,276 l800,0" />
        <path id="Baseline-M" d="M18,346 l800,0" />
        <path id="Capline-L" d="M18,476 l800,0" />
        <path id="Baseline-L" d="M18,546 l800,0" />
    </g>
    <g id="Symbols">
        <g id="Ultralight-S">
            <path d="M301.531,118.209 L287.228,108.308 L301.531,98.407 C302.258,97.904 302.692,97.076 302.692,96.192 C302.692,95.308 302.258,94.481 301.531,93.978 L284.031,81.863 C283.11,81.225 281.89,81.225 280.969,81.863 L265,92.918 L249.031,81.863 C248.11,81.225 246.89,81.225 245.969,81.863 L228.469,93.978 C227.742,94.481 227.308,95.308 227.308,96.192 C227.308,97.076 227.742,97.904 228.469,98.407 L242.788,108.308 L228.486,118.209 C227.758,118.711 227.325,119.539 227.325,120.423 C227.325,121.307 227.758,122.135 228.486,122.638 L245.986,134.753 C246.907,135.39 248.127,135.39 249.048,134.753 L265,123.698 L280.969,134.753 C281.89,135.39 283.11,135.39 284.031,134.753 L301.531,122.637 C302.258,122.135 302.692,121.307 302.692,120.423 C302.692,119.539 302.258,118.711 301.531,118.209 Z M265,117.149 L252.228,108.308 L265.017,99.467 L277.788,108.308 Z M282.5,87.351 L295.288,96.192 L282.5,105.033 L269.728,96.192 Z M247.5,87.351 L260.288,96.192 L247.5,105.033 L234.728,96.192 Z M247.5,129.264 L234.728,120.423 L247.517,111.582 L260.288,120.423 Z M282.5,129.264 L269.728,120.423 L282.5,111.582 L295.288,120.423 Z M275.254,137.556 C276.102,138.777 275.801,140.453 274.581,141.302 L266.541,146.868 C265.62,147.505 264.4,147.505 263.479,146.868 L255.429,141.288 C254.213,140.44 253.912,138.769 254.755,137.549 C255.598,136.33 257.268,136.021 258.491,136.86 L265,141.379 L271.509,136.873 C272.732,136.027 274.409,136.333 275.254,137.556 Z" />
        </g>
        <g id="Regular-S">
            <path d="M501.531,118.209 L487.228,108.308 L501.531,98.407 C502.258,97.904 502.692,97.076 502.692,96.192 C502.692,95.308 502.258,94.481 501.531,93.978 L484.031,81.863 C483.11,81.225 481.89,81.225 480.969,81.863 L465,92.918 L449.031,81.863 C448.11,81.225 446.89,81.225 445.969,81.863 L428.469,93.978 C427.742,94.481 427.308,95.308 427.308,96.192 C427.308,97.076 427.742,97.904 428.469,98.407 L442.788,108.308 L428.486,118.209 C427.758,118.711 427.325,119.539 427.325,120.423 C427.325,121.307 427.758,122.135 428.486,122.638 L445.986,134.753 C446.907,135.39 448.127,135.39 449.048,134.753 L465,123.698 L480.969,134.753 C481.89,135.39 483.11,135.39 484.031,134.753 L501.531,122.637 C502.258,122.135 502.692,121.307 502.692,120.423 C502.692,119.539 502.258,118.711 501.531,118.209 Z M465,117.149 L452.228,108.308 L465.017,99.467 L477.788,108.308 Z M482.5,87.351 L495.288,96.192 L482.5,105.033 L469.728,96.192 Z M447.5,87.351 L460.288,96.192 L447.5,105.033 L434.728,96.192 Z M447.5,129.264 L434.728,120.423 L447.517,111.582 L460.288,120.423 Z M482.5,129.264 L469.728,120.423 L482.5,111.582 L495.288,120.423 Z M475.254,137.556 C476.102,138.777 475.801,140.453 474.581,141.302 L466.541,146.868 C465.62,147.505 464.4,147.505 463.479,146.868 L455.429,141.288 C454.213,140.44 453.911,138.769 454.755,137.549 C455.598,136.33 457.268,136.021 458.491,136.86 L465,141.379 L471.509,136.873 C472.732,136.027 474.409,136.333 475.254,137.556 Z" />
        </g>
        <g id="Black-S">
            <path d="M701.531,118.209 L687.228,108.308 L701.531,98.407 C702.258,97.904 702.692,97.076 702.692,96.192 C702.692,95.308 702.258,94.481 701.531,93.978 L684.031,81.863 C683.11,81.225 681.89,81.225 680.969,81.863 L665,92.918 L649.031,81.863 C648.11,81.225 646.89,81.225 645.969,81.863 L628.469,93.978 C627.742,94.481 627.308,95.308 627.308,96.192 C627.308,97.076 627.742,97.904 628.469,98.407 L642.788,108.308 L628.486,118.209 C627.759,118.711 627.325,119.539 627.325,120.423 C627.325,121.307 627.759,122.135 628.486,122.638 L645.986,134.753 C646.907,135.39 648.127,135.39 649.048,134.753 L665,123.698 L680.969,134.753 C681.89,135.39 683.11,135.39 684.031,134.753 L701.531,122.637 C702.258,122.135 702.692,121.307 702.692,120.423 C702.692,119.539 702.258,118.711 701.531,118.209 Z M665,117.149 L652.228,108.308 L665.017,99.467 L677.788,108.308 Z M682.5,87.351 L695.288,96.192 L682.5,105.033 L669.728,96.192 Z M647.5,87.351 L660.288,96.192 L647.5,105.033 L634.728,96.192 Z M647.5,129.264 L634.728,120.423 L647.517,111.582 L660.288,120.423 Z M682.5,129.264 L669.728,120.423 L682.5,111.582 L695.288,120.423 Z M675.254,137.556 C676.102,138.777 675.801,140.453 674.581,141.302 L666.541,146.868 C665.62,147.505 664.4,147.505 663.479,146.868 L655.429,141.288 C654.213,140.44 653.912,138.769 654.755,137.549 C655.598,136.33 657.268,136.021 658.491,136.86 L665,141.379 L671.509,136.873 C672.732,136.027 674.409,136.333 675.254,137.556 Z" />
        </g>
    </g>
</svg>