<?xml version="1.0" encoding="UTF-8"?>
<svg height="600" width="800" xmlns="http://www.w3.org/2000/svg" xmlns:xlink="http://www.w3.org/1999/xlink">
    <g id="Notes" font-family="'LucidaGrande', 'Lucida Grande', sans-serif" font-size="13">
        <rect fill="white" height="600.0" width="800.0" x="0.0" y="0.0" />
        <g font-size="13">
            <text x="18.0" y="176.0">Small</text>
            <text x="18.0" y="376.0">Medium</text>
            <text x="18.0" y="576.0">Large</text>
        </g>
        <g font-size="9">
            <text x="250.0" y="30.0">Ultralight</text>
            <text x="450.0" y="30.0">Regular</text>
            <text x="650.0" y="30.0">Black</text>
            <text id="template-version" fill="#505050" text-anchor="end" x="785.0" y="575.0">Template v.3.0</text>
            <a href="https://github.com/swhitty/SwiftDraw">
                <text fill="#505050" text-anchor="end" x="785.0" y="590.0">https://github.com/swhitty/SwiftDraw</text>
            </a>
        </g>
    </g>
    <g id="Guides" stroke="rgb(39, 170, 225)" stroke-width="0.5">
        <path id="Capline-S" d="M18,76 l800,0" />
        <path id="H-reference" d="M85,145.755 L87.685,145.755 L113.369,79.287 L114.052,79.287 L114.052,76 L112.148,76 L85,145.755 Z M95.693,121.536 L130.996,121.536 L130.263,119.313 L96.474,119.313 L95.693,121.536 Z M139.15,145.755 L141.787,145.755 L114.638,76 L113.466,76 L113.466,79.287 L139.15,145.755 Z" stroke="none" />
        <path id="Baseline-S" d="M18,146 l800,0" />
        <path id="left-margin-Ultralight-S" d="M220,56 l0,110" />
        <path id="right-margin-Ultralight-S" d="M310,56 l0,110" />
        <path id="left-margin-Regular-S" d="M420,56 l0,110" />
        <path id="right-margin-Regular-S" d="M510,56 l0,110" />
        <path id="left-margin-Black-S" d="M620,56 l0,110" />
        <path id="right-margin-Black-S" d="M710,56 l0,110" />
        <path id="Capline-M" d="M18,276 l800,0" />
        <path id="Baseline-M" d="M18,346 l800,0" />
        <path id="Capline-L" d="M18,476 l800,0" />
        <path id="Baseline-L" d="M18,546 l800,0" />
    </g>
    <g id="Symbols">
        <g id="Ultralight-S">
            <path d="M238.077,113.692 C238.077,112.978 238.361,112.293 238.865,111.789 C239.37,111.284 240.055,111 240.769,111 L246.154,111 C247.641,111 248.846,112.205 248.846,113.692 C248.846,115.179 247.641,116.385 246.154,116.385 L240.769,116.385 C240.055,116.385 239.37,116.101 238.865,115.596 C238.361,115.091 238.077,114.406 238.077,113.692 Z M293.915,138.805 C294.576,139.514 294.804,140.525 294.512,141.449 C294.221,142.374 293.454,143.07 292.506,143.272 C291.558,143.475 290.574,143.151 289.931,142.426 L285.838,137.923 L232.692,137.923 C231.264,137.923 229.895,137.356 228.885,136.346 C227.875,135.336 227.308,133.967 227.308,132.538 L227.308,89.462 C227.308,88.033 227.875,86.664 228.885,85.654 C229.895,84.644 231.264,84.077 232.692,84.077 L236.886,84.077 L236.085,83.195 C235.424,82.486 235.196,81.475 235.488,80.551 C235.779,79.626 236.546,78.93 237.494,78.728 C238.442,78.525 239.426,78.849 240.069,79.574 Z M280.942,132.538 L276.045,127.154 L240.769,127.154 C239.282,127.154 238.077,125.948 238.077,124.462 C238.077,122.975 239.282,121.769 240.769,121.769 L271.152,121.769 L266.255,116.385 L256.923,116.385 C255.436,116.385 254.231,115.179 254.231,113.692 C254.231,112.205 255.436,111 256.923,111 L261.362,111 L241.779,89.462 L232.692,89.462 L232.692,132.538 Z M289.231,116.385 C290.718,116.385 291.923,115.179 291.923,113.692 C291.923,112.205 290.718,111 289.231,111 L282.002,111 C280.515,111 279.31,112.205 279.31,113.692 C279.31,115.179 280.515,116.385 282.002,116.385 Z M297.308,84.077 L257.525,84.077 C256.039,84.077 254.833,85.282 254.833,86.769 C254.833,88.256 256.039,89.462 257.525,89.462 L297.308,89.462 L297.308,133.491 C297.308,134.978 298.513,136.183 300,136.183 C301.487,136.183 302.692,134.978 302.692,133.491 L302.692,89.462 C302.692,88.033 302.125,86.664 301.115,85.654 C300.105,84.644 298.736,84.077 297.308,84.077 Z" />
        </g>
        <g id="Regular-S">
            <path d="M438.077,113.692 C438.077,112.978 438.361,112.293 438.865,111.789 C439.37,111.284 440.055,111 440.769,111 L446.154,111 C447.641,111 448.846,112.205 448.846,113.692 C448.846,115.179 447.641,116.385 446.154,116.385 L440.769,116.385 C440.055,116.385 439.37,116.101 438.865,115.596 C438.361,115.091 438.077,114.406 438.077,113.692 Z M493.915,138.805 C494.576,139.514 494.804,140.525 494.512,141.449 C494.221,142.374 493.454,143.07 492.506,143.272 C491.558,143.475 490.574,143.151 489.931,142.426 L485.838,137.923 L432.692,137.923 C431.264,137.923 429.895,137.356 428.885,136.346 C427.875,135.336 427.308,133.967 427.308,132.538 L427.308,89.462 C427.308,88.033 427.875,86.664 428.885,85.654 C429.895,84.644 431.264,84.077 432.692,84.077 L436.886,84.077 L436.085,83.195 C435.424,82.486 435.196,81.475 435.488,80.551 C435.779,79.626 436.546,78.93 437.494,78.728 C438.442,78.525 439.426,78.849 440.069,79.574 Z M480.942,132.538 L476.045,127.154 L440.769,127.154 C439.282,127.154 438.077,125.948 438.077,124.462 C438.077,122.975 439.282,121.769 440.769,121.769 L471.152,121.769 L466.255,116.385 L456.923,116.385 C455.436,116.385 454.231,115.179 454.231,113.692 C454.231,112.205 455.436,111 456.923,111 L461.362,111 L441.779,89.462 L432.692,89.462 L432.692,132.538 Z M489.231,116.385 C490.718,116.385 491.923,115.179 491.923,113.692 C491.923,112.205 490.718,111 489.231,111 L482.002,111 C480.515,111 479.31,112.205 479.31,113.692 C479.31,115.179 480.515,116.385 482.002,116.385 Z M497.308,84.077 L457.525,84.077 C456.039,84.077 454.833,85.282 454.833,86.769 C454.833,88.256 456.039,89.462 457.525,89.462 L497.308,89.462 L497.308,133.491 C497.308,134.978 498.513,136.183 500,136.183 C501.487,136.183 502.692,134.978 502.692,133.491 L502.692,89.462 C502.692,88.033 502.125,86.664 501.115,85.654 C500.105,84.644 498.736,84.077 497.308,84.077 Z" />
        </g>
        <g id="Black-S">
            <path d="M638.077,113.692 C638.077,112.978 638.361,112.293 638.865,111.789 C639.37,111.284 640.055,111 640.769,111 L646.154,111 C647.641,111 648.846,112.205 648.846,113.692 C648.846,115.179 647.641,116.385 646.154,116.385 L640.769,116.385 C640.055,116.385 639.37,116.101 638.865,115.596 C638.361,115.091 638.077,114.406 638.077,113.692 Z M693.915,138.805 C694.576,139.514 694.804,140.525 694.512,141.449 C694.221,142.374 693.454,143.07 692.506,143.272 C691.558,143.475 690.574,143.151 689.931,142.426 L685.839,137.923 L632.692,137.923 C631.264,137.923 629.895,137.356 628.885,136.346 C627.875,135.336 627.308,133.967 627.308,132.538 L627.308,89.462 C627.308,88.033 627.875,86.664 628.885,85.654 C629.895,84.644 631.264,84.077 632.692,84.077 L636.886,84.077 L636.085,83.195 C635.424,82.486 635.196,81.475 635.488,80.551 C635.779,79.626 636.546,78.93 637.494,78.728 C638.442,78.525 639.426,78.849 640.069,79.574 Z M680.942,132.538 L676.045,127.154 L640.769,127.154 C639.282,127.154 638.077,125.948 638.077,124.462 C638.077,122.975 639.282,121.769 640.769,121.769 L671.152,121.769 L666.255,116.385 L656.923,116.385 C655.436,116.385 654.231,115.179 654.231,113.692 C654.231,112.205 655.436,111 656.923,111 L661.362,111 L641.779,89.462 L632.692,89.462 L632.692,132.538 Z M689.231,116.385 C690.718,116.385 691.923,115.179 691.923,113.692 C691.923,112.205 690.718,111 689.231,111 L682.002,111 C680.515,111 679.31,112.205 679.31,113.692 C679.31,115.179 680.515,116.385 682.002,116.385 Z M697.308,84.077 L657.526,84.077 C656.039,84.077 654.833,85.282 654.833,86.769 C654.833,88.256 656.039,89.462 657.526,89.462 L697.308,89.462 L697.308,133.491 C697.308,134.978 698.513,136.183 700,136.183 C701.487,136.183 702.692,134.978 702.692,133.491 L702.692,89.462 C702.692,88.033 702.125,86.664 701.115,85.654 C700.105,84.644 698.736,84.077 697.308,84.077 Z" />
        </g>
    </g>
</svg>