<?xml version="1.0" encoding="UTF-8"?>
<svg height="600" width="800" xmlns="http://www.w3.org/2000/svg" xmlns:xlink="http://www.w3.org/1999/xlink">
    <g id="Notes" font-family="'LucidaGrande', 'Lucida Grande', sans-serif" font-size="13">
        <rect fill="white" height="600.0" width="800.0" x="0.0" y="0.0" />
        <g font-size="13">
            <text x="18.0" y="176.0">Small</text>
            <text x="18.0" y="376.0">Medium</text>
            <text x="18.0" y="576.0">Large</text>
        </g>
        <g font-size="9">
            <text x="250.0" y="30.0">Ultralight</text>
            <text x="450.0" y="30.0">Regular</text>
            <text x="650.0" y="30.0">Black</text>
            <text id="template-version" fill="#505050" text-anchor="end" x="785.0" y="575.0">Template v.3.0</text>
            <a href="https://github.com/swhitty/SwiftDraw">
                <text fill="#505050" text-anchor="end" x="785.0" y="590.0">https://github.com/swhitty/SwiftDraw</text>
            </a>
        </g>
    </g>
    <g id="Guides" stroke="rgb(39, 170, 225)" stroke-width="0.5">
        <path id="Capline-S" d="M18,76 l800,0" />
        <path id="H-reference" d="M85,145.755 L87.685,145.755 L113.369,79.287 L114.052,79.287 L114.052,76 L112.148,76 L85,145.755 Z M95.693,121.536 L130.996,121.536 L130.263,119.313 L96.474,119.313 L95.693,121.536 Z M139.15,145.755 L141.787,145.755 L114.638,76 L113.466,76 L113.466,79.287 L139.15,145.755 Z" stroke="none" />
        <path id="Baseline-S" d="M18,146 l800,0" />
        <path id="left-margin-Ultralight-S" d="M220,56 l0,110" />
        <path id="right-margin-Ultralight-S" d="M310,56 l0,110" />
        <path id="left-margin-Regular-S" d="M420,56 l0,110" />
        <path id="right-margin-Regular-S" d="M510,56 l0,110" />
        <path id="left-margin-Black-S" d="M620,56 l0,110" />
        <path id="right-margin-Black-S" d="M710,56 l0,110" />
        <path id="Capline-M" d="M18,276 l800,0" />
        <path id="Baseline-M" d="M18,346 l800,0" />
        <path id="Capline-L" d="M18,476 l800,0" />
        <path id="Baseline-L" d="M18,546 l800,0" />
    </g>
    <g id="Symbols">
        <g id="Ultralight-S">
            <path d="M289.231,105.615 C282.6,105.632 276.648,109.684 274.201,115.846 C273.828,115.806 273.452,115.786 273.077,115.786 C267.137,115.786 262.308,120.753 262.308,126.854 C262.308,132.956 267.137,137.923 273.077,137.923 L289.231,137.923 C298.152,137.923 305.385,130.691 305.385,121.769 C305.385,112.848 298.152,105.615 289.231,105.615 Z M289.231,132.538 L273.077,132.538 C270.109,132.538 267.692,129.988 267.692,126.854 C267.692,123.721 270.109,121.17 273.077,121.17 C273.744,121.168 274.405,121.299 275.022,121.554 C275.764,121.858 276.604,121.815 277.311,121.437 C278.018,121.058 278.52,120.385 278.68,119.599 C279.822,114.05 285.067,110.335 290.68,111.098 C296.293,111.862 300.355,116.844 299.973,122.496 C299.591,128.148 294.896,132.537 289.231,132.538 Z M230,121.769 L230,127.154 C230,128.641 228.795,129.846 227.308,129.846 C225.821,129.846 224.615,128.641 224.615,127.154 L224.615,121.769 C224.615,107.704 233.037,95.004 245.994,89.53 C258.952,84.055 273.928,86.87 284.014,96.676 C285.042,97.719 285.047,99.393 284.027,100.443 C283.006,101.493 281.333,101.534 280.261,100.536 C271.727,92.238 259.055,89.856 248.09,94.488 C237.126,99.12 230,109.866 230,121.769 Z M240.769,121.769 L240.769,127.154 C240.769,128.641 239.564,129.846 238.077,129.846 C236.59,129.846 235.385,128.641 235.385,127.154 L235.385,121.769 C235.391,112.638 240.529,104.286 248.675,100.164 C256.821,96.042 266.593,96.849 273.953,102.251 C274.756,102.81 275.193,103.76 275.094,104.733 C274.994,105.707 274.375,106.55 273.476,106.935 C272.577,107.321 271.539,107.188 270.766,106.589 C265.042,102.387 257.441,101.76 251.106,104.967 C244.77,108.173 240.774,114.668 240.769,121.769 Z M261.49,113.911 C259.085,113.337 256.55,113.896 254.61,115.429 C252.67,116.961 251.538,119.297 251.538,121.769 L251.538,127.154 C251.538,128.641 250.333,129.846 248.846,129.846 C247.359,129.846 246.154,128.641 246.154,127.154 L246.154,121.769 C246.154,117.647 248.04,113.754 251.273,111.201 C254.507,108.648 258.731,107.716 262.738,108.672 C264.185,109.016 265.079,110.468 264.735,111.915 C264.391,113.361 262.94,114.256 261.493,113.912 Z" />
        </g>
        <g id="Regular-S">
            <path d="M489.231,105.615 C482.6,105.632 476.648,109.684 474.201,115.846 C473.828,115.806 473.452,115.786 473.077,115.786 C467.137,115.786 462.308,120.753 462.308,126.854 C462.308,132.956 467.137,137.923 473.077,137.923 L489.231,137.923 C498.152,137.923 505.385,130.691 505.385,121.769 C505.385,112.848 498.152,105.615 489.231,105.615 Z M489.231,132.538 L473.077,132.538 C470.109,132.538 467.692,129.988 467.692,126.854 C467.692,123.721 470.109,121.17 473.077,121.17 C473.744,121.168 474.405,121.299 475.022,121.554 C475.764,121.858 476.604,121.815 477.311,121.437 C478.018,121.058 478.52,120.385 478.68,119.599 C479.822,114.05 485.067,110.335 490.68,111.098 C496.293,111.862 500.355,116.844 499.973,122.496 C499.591,128.148 494.896,132.537 489.231,132.538 Z M430,121.769 L430,127.154 C430,128.641 428.795,129.846 427.308,129.846 C425.821,129.846 424.615,128.641 424.615,127.154 L424.615,121.769 C424.615,107.704 433.037,95.004 445.994,89.53 C458.952,84.055 473.928,86.87 484.014,96.676 C485.042,97.719 485.047,99.393 484.027,100.443 C483.006,101.493 481.333,101.534 480.261,100.536 C471.727,92.238 459.055,89.856 448.09,94.488 C437.126,99.12 430,109.866 430,121.769 Z M440.769,121.769 L440.769,127.154 C440.769,128.641 439.564,129.846 438.077,129.846 C436.59,129.846 435.385,128.641 435.385,127.154 L435.385,121.769 C435.391,112.638 440.529,104.286 448.675,100.164 C456.821,96.042 466.593,96.849 473.953,102.251 C474.756,102.81 475.193,103.76 475.094,104.733 C474.994,105.707 474.375,106.55 473.476,106.935 C472.577,107.321 471.539,107.188 470.766,106.589 C465.042,102.387 457.441,101.76 451.106,104.967 C444.77,108.173 440.774,114.668 440.769,121.769 Z M461.49,113.911 C459.085,113.337 456.55,113.896 454.61,115.429 C452.67,116.961 451.538,119.297 451.538,121.769 L451.538,127.154 C451.538,128.641 450.333,129.846 448.846,129.846 C447.359,129.846 446.154,128.641 446.154,127.154 L446.154,121.769 C446.154,117.647 448.04,113.754 451.273,111.201 C454.507,108.648 458.731,107.716 462.738,108.672 C464.185,109.016 465.079,110.468 464.735,111.915 C464.391,113.361 462.94,114.256 461.493,113.912 Z" />
        </g>
        <g id="Black-S">
            <path d="M689.231,105.615 C682.6,105.632 676.648,109.684 674.201,115.846 C673.828,115.806 673.452,115.786 673.077,115.786 C667.137,115.786 662.308,120.753 662.308,126.854 C662.308,132.956 667.137,137.923 673.077,137.923 L689.231,137.923 C698.152,137.923 705.385,130.691 705.385,121.769 C705.385,112.848 698.152,105.615 689.231,105.615 Z M689.231,132.538 L673.077,132.538 C670.109,132.538 667.692,129.988 667.692,126.854 C667.692,123.721 670.109,121.17 673.077,121.17 C673.744,121.168 674.405,121.299 675.022,121.554 C675.765,121.858 676.604,121.815 677.311,121.437 C678.018,121.058 678.521,120.385 678.68,119.599 C679.822,114.05 685.067,110.335 690.68,111.098 C696.294,111.862 700.355,116.844 699.973,122.496 C699.591,128.148 694.896,132.537 689.231,132.538 Z M630,121.769 L630,127.154 C630,128.641 628.795,129.846 627.308,129.846 C625.821,129.846 624.615,128.641 624.615,127.154 L624.615,121.769 C624.615,107.704 633.037,95.004 645.994,89.53 C658.952,84.055 673.928,86.87 684.014,96.676 C685.042,97.719 685.047,99.393 684.027,100.443 C683.006,101.493 681.333,101.534 680.261,100.536 C671.727,92.238 659.055,89.856 648.09,94.488 C637.126,99.12 630,109.866 630,121.769 Z M640.769,121.769 L640.769,127.154 C640.769,128.641 639.564,129.846 638.077,129.846 C636.59,129.846 635.385,128.641 635.385,127.154 L635.385,121.769 C635.391,112.638 640.529,104.286 648.675,100.164 C656.821,96.042 666.593,96.849 673.953,102.251 C674.756,102.81 675.193,103.76 675.094,104.733 C674.994,105.707 674.375,106.55 673.476,106.935 C672.577,107.321 671.539,107.188 670.766,106.589 C665.042,102.387 657.441,101.76 651.106,104.967 C644.77,108.173 640.774,114.668 640.769,121.769 Z M661.49,113.911 C659.085,113.337 656.55,113.896 654.61,115.429 C652.67,116.961 651.538,119.297 651.538,121.769 L651.538,127.154 C651.538,128.641 650.333,129.846 648.846,129.846 C647.359,129.846 646.154,128.641 646.154,127.154 L646.154,121.769 C646.154,117.647 648.04,113.754 651.273,111.201 C654.507,108.648 658.731,107.716 662.738,108.672 C664.185,109.016 665.079,110.468 664.735,111.915 C664.391,113.361 662.94,114.256 661.493,113.912 Z" />
        </g>
    </g>
</svg>