<?xml version="1.0" encoding="UTF-8"?>
<svg height="600" width="800" xmlns="http://www.w3.org/2000/svg" xmlns:xlink="http://www.w3.org/1999/xlink">
    <g id="Notes" font-family="'LucidaGrande', 'Lucida Grande', sans-serif" font-size="13">
        <rect fill="white" height="600.0" width="800.0" x="0.0" y="0.0" />
        <g font-size="13">
            <text x="18.0" y="176.0">Small</text>
            <text x="18.0" y="376.0">Medium</text>
            <text x="18.0" y="576.0">Large</text>
        </g>
        <g font-size="9">
            <text x="250.0" y="30.0">Ultralight</text>
            <text x="450.0" y="30.0">Regular</text>
            <text x="650.0" y="30.0">Black</text>
            <text id="template-version" fill="#505050" text-anchor="end" x="785.0" y="575.0">Template v.3.0</text>
            <a href="https://github.com/swhitty/SwiftDraw">
                <text fill="#505050" text-anchor="end" x="785.0" y="590.0">https://github.com/swhitty/SwiftDraw</text>
            </a>
        </g>
    </g>
    <g id="Guides" stroke="rgb(39, 170, 225)" stroke-width="0.5">
        <path id="Capline-S" d="M18,76 l800,0" />
        <path id="H-reference" d="M85,145.755 L87.685,145.755 L113.369,79.287 L114.052,79.287 L114.052,76 L112.148,76 L85,145.755 Z M95.693,121.536 L130.996,121.536 L130.263,119.313 L96.474,119.313 L95.693,121.536 Z M139.15,145.755 L141.787,145.755 L114.638,76 L113.466,76 L113.466,79.287 L139.15,145.755 Z" stroke="none" />
        <path id="Baseline-S" d="M18,146 l800,0" />
        <path id="left-margin-Ultralight-S" d="M220,56 l0,110" />
        <path id="right-margin-Ultralight-S" d="M310,56 l0,110" />
        <path id="left-margin-Regular-S" d="M420,56 l0,110" />
        <path id="right-margin-Regular-S" d="M510,56 l0,110" />
        <path id="left-margin-Black-S" d="M620,56 l0,110" />
        <path id="right-margin-Black-S" d="M710,56 l0,110" />
        <path id="Capline-M" d="M18,276 l800,0" />
        <path id="Baseline-M" d="M18,346 l800,0" />
        <path id="Capline-L" d="M18,476 l800,0" />
        <path id="Baseline-L" d="M18,546 l800,0" />
    </g>
    <g id="Symbols">
        <g id="Ultralight-S">
            <path d="M302.692,92.154 C302.692,92.868 302.409,93.553 301.904,94.058 C301.399,94.562 300.714,94.846 300,94.846 L254.231,94.846 L254.231,134.117 L265.788,122.557 C266.838,121.505 268.543,121.504 269.596,122.556 C270.649,123.607 270.65,125.313 269.598,126.365 L253.444,142.519 C252.939,143.025 252.254,143.309 251.54,143.309 C250.825,143.309 250.14,143.025 249.635,142.519 L233.481,126.365 C232.428,125.312 232.429,123.606 233.482,122.555 C234.535,121.503 236.24,121.504 237.292,122.557 L248.846,134.117 L248.846,92.154 C248.846,91.44 249.13,90.755 249.635,90.25 C250.14,89.745 250.824,89.462 251.538,89.462 L300,89.462 C300.714,89.462 301.399,89.745 301.904,90.25 C302.409,90.755 302.692,91.44 302.692,92.154 Z" />
        </g>
        <g id="Regular-S">
            <path d="M502.692,92.154 C502.692,92.868 502.409,93.553 501.904,94.058 C501.399,94.562 500.714,94.846 500,94.846 L454.231,94.846 L454.231,134.117 L465.787,122.557 C466.838,121.505 468.543,121.504 469.596,122.556 C470.649,123.607 470.65,125.313 469.598,126.365 L453.444,142.519 C452.939,143.025 452.254,143.309 451.54,143.309 C450.825,143.309 450.14,143.025 449.635,142.519 L433.481,126.365 C432.428,125.312 432.429,123.606 433.482,122.555 C434.534,121.503 436.24,121.504 437.292,122.557 L448.846,134.117 L448.846,92.154 C448.846,91.44 449.13,90.755 449.635,90.25 C450.14,89.745 450.824,89.462 451.538,89.462 L500,89.462 C500.714,89.462 501.399,89.745 501.904,90.25 C502.409,90.755 502.692,91.44 502.692,92.154 Z" />
        </g>
        <g id="Black-S">
            <path d="M702.692,92.154 C702.692,92.868 702.409,93.553 701.904,94.058 C701.399,94.562 700.714,94.846 700,94.846 L654.231,94.846 L654.231,134.117 L665.788,122.557 C666.838,121.505 668.544,121.504 669.596,122.556 C670.649,123.607 670.65,125.313 669.598,126.365 L653.444,142.519 C652.939,143.025 652.254,143.309 651.54,143.309 C650.825,143.309 650.14,143.025 649.635,142.519 L633.481,126.365 C632.428,125.312 632.429,123.606 633.482,122.555 C634.535,121.503 636.24,121.504 637.292,122.557 L648.846,134.117 L648.846,92.154 C648.846,91.44 649.13,90.755 649.635,90.25 C650.14,89.745 650.824,89.462 651.538,89.462 L700,89.462 C700.714,89.462 701.399,89.745 701.904,90.25 C702.409,90.755 702.692,91.44 702.692,92.154 Z" />
        </g>
    </g>
</svg>