<?xml version="1.0" encoding="UTF-8"?>
<svg height="600" width="800" xmlns="http://www.w3.org/2000/svg" xmlns:xlink="http://www.w3.org/1999/xlink">
    <g id="Notes" font-family="'LucidaGrande', 'Lucida Grande', sans-serif" font-size="13">
        <rect fill="white" height="600.0" width="800.0" x="0.0" y="0.0" />
        <g font-size="13">
            <text x="18.0" y="176.0">Small</text>
            <text x="18.0" y="376.0">Medium</text>
            <text x="18.0" y="576.0">Large</text>
        </g>
        <g font-size="9">
            <text x="250.0" y="30.0">Ultralight</text>
            <text x="450.0" y="30.0">Regular</text>
            <text x="650.0" y="30.0">Black</text>
            <text id="template-version" fill="#505050" text-anchor="end" x="785.0" y="575.0">Template v.3.0</text>
            <a href="https://github.com/swhitty/SwiftDraw">
                <text fill="#505050" text-anchor="end" x="785.0" y="590.0">https://github.com/swhitty/SwiftDraw</text>
            </a>
        </g>
    </g>
    <g id="Guides" stroke="rgb(39, 170, 225)" stroke-width="0.5">
        <path id="Capline-S" d="M18,76 l800,0" />
        <path id="H-reference" d="M85,145.755 L87.685,145.755 L113.369,79.287 L114.052,79.287 L114.052,76 L112.148,76 L85,145.755 Z M95.693,121.536 L130.996,121.536 L130.263,119.313 L96.474,119.313 L95.693,121.536 Z M139.15,145.755 L141.787,145.755 L114.638,76 L113.466,76 L113.466,79.287 L139.15,145.755 Z" stroke="none" />
        <path id="Baseline-S" d="M18,146 l800,0" />
        <path id="left-margin-Ultralight-S" d="M220,56 l0,110" />
        <path id="right-margin-Ultralight-S" d="M310,56 l0,110" />
        <path id="left-margin-Regular-S" d="M420,56 l0,110" />
        <path id="right-margin-Regular-S" d="M510,56 l0,110" />
        <path id="left-margin-Black-S" d="M620,56 l0,110" />
        <path id="right-margin-Black-S" d="M710,56 l0,110" />
        <path id="Capline-M" d="M18,276 l800,0" />
        <path id="Baseline-M" d="M18,346 l800,0" />
        <path id="Capline-L" d="M18,476 l800,0" />
        <path id="Baseline-L" d="M18,546 l800,0" />
    </g>
    <g id="Symbols">
        <g id="Ultralight-S">
            <path d="M284.741,87.967 C278.62,78.79 271.239,73.308 265,73.308 C258.761,73.308 251.38,78.79 245.259,87.967 C238.986,97.384 235.385,108.722 235.385,119.077 C235.385,135.433 248.644,148.692 265,148.692 C281.356,148.692 294.615,135.433 294.615,119.077 C294.615,108.722 291.014,97.384 284.741,87.967 Z M265,143.308 C251.624,143.293 240.784,132.453 240.769,119.077 C240.769,109.758 244.04,99.507 249.741,90.956 C254.631,83.619 260.763,78.692 265,78.692 C268.197,78.692 272.471,81.496 276.476,86.022 L262.981,101.129 C262.353,101.831 262.137,102.811 262.412,103.711 C262.688,104.612 263.414,105.304 264.327,105.535 L272.606,107.604 L270.418,118.549 C270.127,120.006 271.072,121.423 272.528,121.715 C272.709,121.753 272.893,121.771 273.077,121.769 C274.358,121.767 275.461,120.862 275.712,119.605 L278.404,106.144 C278.686,104.735 277.812,103.353 276.419,103.004 L269.971,101.392 L279.841,90.337 C279.983,90.542 280.121,90.747 280.259,90.956 C285.96,99.507 289.231,109.758 289.231,119.077 C289.215,132.454 278.375,143.293 264.999,143.308 Z" />
        </g>
        <g id="Regular-S">
            <path d="M484.741,87.967 C478.62,78.79 471.239,73.308 465,73.308 C458.761,73.308 451.38,78.79 445.259,87.967 C438.986,97.384 435.385,108.722 435.385,119.077 C435.385,135.433 448.644,148.692 465,148.692 C481.356,148.692 494.615,135.433 494.615,119.077 C494.615,108.722 491.014,97.384 484.741,87.967 Z M465,143.308 C451.624,143.293 440.784,132.453 440.769,119.077 C440.769,109.758 444.04,99.507 449.741,90.956 C454.631,83.619 460.763,78.692 465,78.692 C468.197,78.692 472.471,81.496 476.476,86.022 L462.981,101.129 C462.353,101.831 462.137,102.811 462.412,103.711 C462.688,104.612 463.414,105.304 464.327,105.535 L472.606,107.604 L470.418,118.549 C470.127,120.006 471.072,121.423 472.528,121.715 C472.709,121.753 472.893,121.771 473.077,121.769 C474.358,121.767 475.461,120.862 475.712,119.605 L478.404,106.144 C478.686,104.735 477.812,103.353 476.419,103.004 L469.971,101.392 L479.841,90.337 C479.983,90.542 480.121,90.747 480.259,90.956 C485.96,99.507 489.231,109.758 489.231,119.077 C489.215,132.454 478.375,143.293 464.999,143.308 Z" />
        </g>
        <g id="Black-S">
            <path d="M684.741,87.967 C678.62,78.79 671.239,73.308 665,73.308 C658.761,73.308 651.38,78.79 645.259,87.967 C638.986,97.384 635.385,108.722 635.385,119.077 C635.385,135.433 648.644,148.692 665,148.692 C681.356,148.692 694.615,135.433 694.615,119.077 C694.615,108.722 691.014,97.384 684.741,87.967 Z M665,143.308 C651.624,143.293 640.784,132.453 640.769,119.077 C640.769,109.758 644.04,99.507 649.741,90.956 C654.631,83.619 660.763,78.692 665,78.692 C668.197,78.692 672.471,81.496 676.476,86.022 L662.981,101.129 C662.353,101.831 662.137,102.811 662.412,103.711 C662.688,104.612 663.414,105.304 664.327,105.535 L672.606,107.604 L670.418,118.549 C670.127,120.006 671.072,121.423 672.528,121.715 C672.709,121.753 672.893,121.771 673.077,121.769 C674.358,121.767 675.461,120.862 675.712,119.605 L678.404,106.144 C678.686,104.735 677.812,103.353 676.419,103.004 L669.971,101.392 L679.841,90.337 C679.983,90.542 680.121,90.747 680.259,90.956 C685.96,99.507 689.231,109.758 689.231,119.077 C689.215,132.454 678.375,143.293 664.999,143.308 Z" />
        </g>
    </g>
</svg>