<?xml version="1.0" encoding="UTF-8"?>
<svg height="600" width="800" xmlns="http://www.w3.org/2000/svg" xmlns:xlink="http://www.w3.org/1999/xlink">
    <g id="Notes" font-family="'LucidaGrande', 'Lucida Grande', sans-serif" font-size="13">
        <rect fill="white" height="600.0" width="800.0" x="0.0" y="0.0" />
        <g font-size="13">
            <text x="18.0" y="176.0">Small</text>
            <text x="18.0" y="376.0">Medium</text>
            <text x="18.0" y="576.0">Large</text>
        </g>
        <g font-size="9">
            <text x="250.0" y="30.0">Ultralight</text>
            <text x="450.0" y="30.0">Regular</text>
            <text x="650.0" y="30.0">Black</text>
            <text id="template-version" fill="#505050" text-anchor="end" x="785.0" y="575.0">Template v.3.0</text>
            <a href="https://github.com/swhitty/SwiftDraw">
                <text fill="#505050" text-anchor="end" x="785.0" y="590.0">https://github.com/swhitty/SwiftDraw</text>
            </a>
        </g>
    </g>
    <g id="Guides" stroke="rgb(39, 170, 225)" stroke-width="0.5">
        <path id="Capline-S" d="M18,76 l800,0" />
        <path id="H-reference" d="M85,145.755 L87.685,145.755 L113.369,79.287 L114.052,79.287 L114.052,76 L112.148,76 L85,145.755 Z M95.693,121.536 L130.996,121.536 L130.263,119.313 L96.474,119.313 L95.693,121.536 Z M139.15,145.755 L141.787,145.755 L114.638,76 L113.466,76 L113.466,79.287 L139.15,145.755 Z" stroke="none" />
        <path id="Baseline-S" d="M18,146 l800,0" />
        <path id="left-margin-Ultralight-S" d="M220,56 l0,110" />
        <path id="right-margin-Ultralight-S" d="M310,56 l0,110" />
        <path id="left-margin-Regular-S" d="M420,56 l0,110" />
        <path id="right-margin-Regular-S" d="M510,56 l0,110" />
        <path id="left-margin-Black-S" d="M620,56 l0,110" />
        <path id="right-margin-Black-S" d="M710,56 l0,110" />
        <path id="Capline-M" d="M18,276 l800,0" />
        <path id="Baseline-M" d="M18,346 l800,0" />
        <path id="Capline-L" d="M18,476 l800,0" />
        <path id="Baseline-L" d="M18,546 l800,0" />
    </g>
    <g id="Symbols">
        <g id="Ultralight-S">
            <path d="M302.692,132.538 L300,132.538 L300,86.769 C300,85.341 299.433,83.972 298.423,82.962 C297.413,81.952 296.043,81.385 294.615,81.385 L235.385,81.385 C233.957,81.385 232.587,81.952 231.577,82.962 C230.567,83.972 230,85.341 230,86.769 L230,132.538 L227.308,132.538 C225.821,132.538 224.615,133.744 224.615,135.231 C224.615,136.718 225.821,137.923 227.308,137.923 L302.692,137.923 C304.179,137.923 305.385,136.718 305.385,135.231 C305.385,133.744 304.179,132.538 302.692,132.538 Z M235.385,86.769 L294.615,86.769 L294.615,132.538 L289.231,132.538 L289.231,124.462 C289.231,123.747 288.947,123.063 288.442,122.558 C287.937,122.053 287.253,121.769 286.538,121.769 L262.308,121.769 C261.594,121.769 260.909,122.053 260.404,122.558 C259.899,123.063 259.615,123.747 259.615,124.462 L259.615,132.538 L246.154,132.538 L246.154,97.538 L283.846,97.538 L283.846,113.692 C283.846,115.179 285.052,116.385 286.538,116.385 C288.025,116.385 289.231,115.179 289.231,113.692 L289.231,94.846 C289.231,94.132 288.947,93.447 288.442,92.942 C287.937,92.438 287.253,92.154 286.538,92.154 L243.462,92.154 C242.747,92.154 242.063,92.438 241.558,92.942 C241.053,93.447 240.769,94.132 240.769,94.846 L240.769,132.538 L235.385,132.538 Z M283.846,132.538 L265,132.538 L265,127.154 L283.846,127.154 Z" />
        </g>
        <g id="Regular-S">
            <path d="M502.692,132.538 L500,132.538 L500,86.769 C500,85.341 499.433,83.972 498.423,82.962 C497.413,81.952 496.043,81.385 494.615,81.385 L435.385,81.385 C433.957,81.385 432.587,81.952 431.577,82.962 C430.567,83.972 430,85.341 430,86.769 L430,132.538 L427.308,132.538 C425.821,132.538 424.615,133.744 424.615,135.231 C424.615,136.718 425.821,137.923 427.308,137.923 L502.692,137.923 C504.179,137.923 505.385,136.718 505.385,135.231 C505.385,133.744 504.179,132.538 502.692,132.538 Z M435.385,86.769 L494.615,86.769 L494.615,132.538 L489.231,132.538 L489.231,124.462 C489.231,123.747 488.947,123.063 488.442,122.558 C487.937,122.053 487.253,121.769 486.538,121.769 L462.308,121.769 C461.594,121.769 460.909,122.053 460.404,122.558 C459.899,123.063 459.615,123.747 459.615,124.462 L459.615,132.538 L446.154,132.538 L446.154,97.538 L483.846,97.538 L483.846,113.692 C483.846,115.179 485.052,116.385 486.538,116.385 C488.025,116.385 489.231,115.179 489.231,113.692 L489.231,94.846 C489.231,94.132 488.947,93.447 488.442,92.942 C487.937,92.438 487.253,92.154 486.538,92.154 L443.462,92.154 C442.747,92.154 442.063,92.438 441.558,92.942 C441.053,93.447 440.769,94.132 440.769,94.846 L440.769,132.538 L435.385,132.538 Z M483.846,132.538 L465,132.538 L465,127.154 L483.846,127.154 Z" />
        </g>
        <g id="Black-S">
            <path d="M702.692,132.538 L700,132.538 L700,86.769 C700,85.341 699.433,83.972 698.423,82.962 C697.413,81.952 696.044,81.385 694.615,81.385 L635.385,81.385 C633.957,81.385 632.587,81.952 631.577,82.962 C630.567,83.972 630,85.341 630,86.769 L630,132.538 L627.308,132.538 C625.821,132.538 624.615,133.744 624.615,135.231 C624.615,136.718 625.821,137.923 627.308,137.923 L702.692,137.923 C704.179,137.923 705.385,136.718 705.385,135.231 C705.385,133.744 704.179,132.538 702.692,132.538 Z M635.385,86.769 L694.615,86.769 L694.615,132.538 L689.231,132.538 L689.231,124.462 C689.231,123.747 688.947,123.063 688.442,122.558 C687.937,122.053 687.253,121.769 686.538,121.769 L662.308,121.769 C661.594,121.769 660.909,122.053 660.404,122.558 C659.899,123.063 659.615,123.747 659.615,124.462 L659.615,132.538 L646.154,132.538 L646.154,97.538 L683.846,97.538 L683.846,113.692 C683.846,115.179 685.052,116.385 686.538,116.385 C688.025,116.385 689.231,115.179 689.231,113.692 L689.231,94.846 C689.231,94.132 688.947,93.447 688.442,92.942 C687.937,92.438 687.253,92.154 686.538,92.154 L643.462,92.154 C642.747,92.154 642.063,92.438 641.558,92.942 C641.053,93.447 640.769,94.132 640.769,94.846 L640.769,132.538 L635.385,132.538 Z M683.846,132.538 L665,132.538 L665,127.154 L683.846,127.154 Z" />
        </g>
    </g>
</svg>