<?xml version="1.0" encoding="UTF-8"?>
<svg height="600" width="800" xmlns="http://www.w3.org/2000/svg" xmlns:xlink="http://www.w3.org/1999/xlink">
    <g id="Notes" font-family="'LucidaGrande', 'Lucida Grande', sans-serif" font-size="13">
        <rect fill="white" height="600.0" width="800.0" x="0.0" y="0.0" />
        <g font-size="13">
            <text x="18.0" y="176.0">Small</text>
            <text x="18.0" y="376.0">Medium</text>
            <text x="18.0" y="576.0">Large</text>
        </g>
        <g font-size="9">
            <text x="250.0" y="30.0">Ultralight</text>
            <text x="450.0" y="30.0">Regular</text>
            <text x="650.0" y="30.0">Black</text>
            <text id="template-version" fill="#505050" text-anchor="end" x="785.0" y="575.0">Template v.3.0</text>
            <a href="https://github.com/swhitty/SwiftDraw">
                <text fill="#505050" text-anchor="end" x="785.0" y="590.0">https://github.com/swhitty/SwiftDraw</text>
            </a>
        </g>
    </g>
    <g id="Guides" stroke="rgb(39, 170, 225)" stroke-width="0.5">
        <path id="Capline-S" d="M18,76 l800,0" />
        <path id="H-reference" d="M85,145.755 L87.685,145.755 L113.369,79.287 L114.052,79.287 L114.052,76 L112.148,76 L85,145.755 Z M95.693,121.536 L130.996,121.536 L130.263,119.313 L96.474,119.313 L95.693,121.536 Z M139.15,145.755 L141.787,145.755 L114.638,76 L113.466,76 L113.466,79.287 L139.15,145.755 Z" stroke="none" />
        <path id="Baseline-S" d="M18,146 l800,0" />
        <path id="left-margin-Ultralight-S" d="M220,56 l0,110" />
        <path id="right-margin-Ultralight-S" d="M310,56 l0,110" />
        <path id="left-margin-Regular-S" d="M420,56 l0,110" />
        <path id="right-margin-Regular-S" d="M510,56 l0,110" />
        <path id="left-margin-Black-S" d="M620,56 l0,110" />
        <path id="right-margin-Black-S" d="M710,56 l0,110" />
        <path id="Capline-M" d="M18,276 l800,0" />
        <path id="Baseline-M" d="M18,346 l800,0" />
        <path id="Capline-L" d="M18,476 l800,0" />
        <path id="Baseline-L" d="M18,546 l800,0" />
    </g>
    <g id="Symbols">
        <g id="Ultralight-S">
            <path d="M307.885,107.298 L303.174,95.519 C302.355,93.479 300.374,92.145 298.176,92.154 L286.538,92.154 L286.538,89.462 C286.538,87.975 285.333,86.769 283.846,86.769 C282.359,86.769 281.154,87.975 281.154,89.462 L281.154,123.22 C278.653,124.665 276.835,127.051 276.106,129.846 L259.279,129.846 C258.059,125.081 253.765,121.748 248.846,121.748 C243.927,121.748 239.634,125.081 238.413,129.846 L232.692,129.846 L232.692,113.692 C232.692,112.205 231.487,111 230,111 C228.513,111 227.308,112.205 227.308,113.692 L227.308,129.846 C227.308,131.274 227.875,132.644 228.885,133.654 C229.895,134.663 231.264,135.231 232.692,135.231 L238.413,135.231 C239.634,139.996 243.927,143.329 248.846,143.329 C253.765,143.329 258.059,139.996 259.279,135.231 L276.106,135.231 C277.326,139.996 281.62,143.329 286.538,143.329 C291.457,143.329 295.751,139.996 296.971,135.231 L302.692,135.231 C304.12,135.231 305.49,134.663 306.5,133.654 C307.51,132.644 308.077,131.274 308.077,129.846 L308.077,108.308 C308.079,107.962 308.014,107.619 307.885,107.298 Z M298.176,97.538 L301.407,105.615 L286.538,105.615 L286.538,97.538 Z M248.846,137.923 C245.872,137.923 243.462,135.512 243.462,132.538 C243.462,129.565 245.872,127.154 248.846,127.154 C251.82,127.154 254.231,129.565 254.231,132.538 C254.231,133.967 253.663,135.336 252.654,136.346 C251.644,137.356 250.274,137.923 248.846,137.923 Z M286.538,137.923 C283.565,137.923 281.154,135.512 281.154,132.538 C281.154,129.565 283.565,127.154 286.538,127.154 C289.512,127.154 291.923,129.565 291.923,132.538 C291.923,133.967 291.356,135.336 290.346,136.346 C289.336,137.356 287.967,137.923 286.538,137.923 Z M296.971,129.846 C295.737,125.094 291.449,121.774 286.538,121.769 L286.538,111 L302.692,111 L302.692,129.846 Z M230,100.231 C228.513,100.231 227.308,101.436 227.308,102.923 C227.308,104.41 228.513,105.615 230,105.615 L273.077,105.615 C274.564,105.615 275.769,104.41 275.769,102.923 C275.769,101.436 274.564,100.231 273.077,100.231 L267.692,100.231 L267.692,92.154 L273.077,92.154 C274.564,92.154 275.769,90.948 275.769,89.462 C275.769,87.975 274.564,86.769 273.077,86.769 L230,86.769 C228.513,86.769 227.308,87.975 227.308,89.462 C227.308,90.948 228.513,92.154 230,92.154 L235.385,92.154 L235.385,100.231 Z M262.308,100.231 L254.231,100.231 L254.231,92.154 L262.308,92.154 Z M240.769,92.154 L248.846,92.154 L248.846,100.231 L240.769,100.231 Z" />
        </g>
        <g id="Regular-S">
            <path d="M507.885,107.298 L503.174,95.519 C502.355,93.479 500.374,92.145 498.176,92.154 L486.538,92.154 L486.538,89.462 C486.538,87.975 485.333,86.769 483.846,86.769 C482.359,86.769 481.154,87.975 481.154,89.462 L481.154,123.22 C478.653,124.665 476.835,127.051 476.106,129.846 L459.279,129.846 C458.059,125.081 453.765,121.748 448.846,121.748 C443.927,121.748 439.634,125.081 438.413,129.846 L432.692,129.846 L432.692,113.692 C432.692,112.205 431.487,111 430,111 C428.513,111 427.308,112.205 427.308,113.692 L427.308,129.846 C427.308,131.274 427.875,132.644 428.885,133.654 C429.895,134.663 431.264,135.231 432.692,135.231 L438.413,135.231 C439.634,139.996 443.927,143.329 448.846,143.329 C453.765,143.329 458.059,139.996 459.279,135.231 L476.106,135.231 C477.326,139.996 481.62,143.329 486.538,143.329 C491.457,143.329 495.751,139.996 496.971,135.231 L502.692,135.231 C504.12,135.231 505.49,134.663 506.5,133.654 C507.51,132.644 508.077,131.274 508.077,129.846 L508.077,108.308 C508.079,107.962 508.014,107.619 507.885,107.298 Z M498.176,97.538 L501.407,105.615 L486.538,105.615 L486.538,97.538 Z M448.846,137.923 C445.872,137.923 443.462,135.512 443.462,132.538 C443.462,129.565 445.872,127.154 448.846,127.154 C451.82,127.154 454.231,129.565 454.231,132.538 C454.231,133.967 453.663,135.336 452.654,136.346 C451.644,137.356 450.274,137.923 448.846,137.923 Z M486.538,137.923 C483.565,137.923 481.154,135.512 481.154,132.538 C481.154,129.565 483.565,127.154 486.538,127.154 C489.512,127.154 491.923,129.565 491.923,132.538 C491.923,133.967 491.356,135.336 490.346,136.346 C489.336,137.356 487.967,137.923 486.538,137.923 Z M496.971,129.846 C495.737,125.094 491.449,121.774 486.538,121.769 L486.538,111 L502.692,111 L502.692,129.846 Z M430,100.231 C428.513,100.231 427.308,101.436 427.308,102.923 C427.308,104.41 428.513,105.615 430,105.615 L473.077,105.615 C474.564,105.615 475.769,104.41 475.769,102.923 C475.769,101.436 474.564,100.231 473.077,100.231 L467.692,100.231 L467.692,92.154 L473.077,92.154 C474.564,92.154 475.769,90.948 475.769,89.462 C475.769,87.975 474.564,86.769 473.077,86.769 L430,86.769 C428.513,86.769 427.308,87.975 427.308,89.462 C427.308,90.948 428.513,92.154 430,92.154 L435.385,92.154 L435.385,100.231 Z M462.308,100.231 L454.231,100.231 L454.231,92.154 L462.308,92.154 Z M440.769,92.154 L448.846,92.154 L448.846,100.231 L440.769,100.231 Z" />
        </g>
        <g id="Black-S">
            <path d="M707.885,107.298 L703.174,95.519 C702.355,93.479 700.374,92.145 698.176,92.154 L686.538,92.154 L686.538,89.462 C686.538,87.975 685.333,86.769 683.846,86.769 C682.359,86.769 681.154,87.975 681.154,89.462 L681.154,123.22 C678.653,124.665 676.835,127.051 676.106,129.846 L659.279,129.846 C658.059,125.081 653.765,121.748 648.846,121.748 C643.927,121.748 639.634,125.081 638.413,129.846 L632.692,129.846 L632.692,113.692 C632.692,112.205 631.487,111 630,111 C628.513,111 627.308,112.205 627.308,113.692 L627.308,129.846 C627.308,131.274 627.875,132.644 628.885,133.654 C629.895,134.663 631.264,135.231 632.692,135.231 L638.413,135.231 C639.634,139.996 643.927,143.329 648.846,143.329 C653.765,143.329 658.059,139.996 659.279,135.231 L676.106,135.231 C677.326,139.996 681.62,143.329 686.538,143.329 C691.457,143.329 695.751,139.996 696.971,135.231 L702.692,135.231 C704.12,135.231 705.49,134.663 706.5,133.654 C707.51,132.644 708.077,131.274 708.077,129.846 L708.077,108.308 C708.079,107.962 708.014,107.619 707.885,107.298 Z M698.176,97.538 L701.407,105.615 L686.538,105.615 L686.538,97.538 Z M648.846,137.923 C645.872,137.923 643.462,135.512 643.462,132.538 C643.462,129.565 645.872,127.154 648.846,127.154 C651.82,127.154 654.231,129.565 654.231,132.538 C654.231,133.967 653.663,135.336 652.654,136.346 C651.644,137.356 650.274,137.923 648.846,137.923 Z M686.538,137.923 C683.565,137.923 681.154,135.512 681.154,132.538 C681.154,129.565 683.565,127.154 686.538,127.154 C689.512,127.154 691.923,129.565 691.923,132.538 C691.923,133.967 691.356,135.336 690.346,136.346 C689.336,137.356 687.967,137.923 686.538,137.923 Z M696.971,129.846 C695.737,125.094 691.449,121.774 686.538,121.769 L686.538,111 L702.692,111 L702.692,129.846 Z M630,100.231 C628.513,100.231 627.308,101.436 627.308,102.923 C627.308,104.41 628.513,105.615 630,105.615 L673.077,105.615 C674.564,105.615 675.769,104.41 675.769,102.923 C675.769,101.436 674.564,100.231 673.077,100.231 L667.692,100.231 L667.692,92.154 L673.077,92.154 C674.564,92.154 675.769,90.948 675.769,89.462 C675.769,87.975 674.564,86.769 673.077,86.769 L630,86.769 C628.513,86.769 627.308,87.975 627.308,89.462 C627.308,90.948 628.513,92.154 630,92.154 L635.385,92.154 L635.385,100.231 Z M662.308,100.231 L654.231,100.231 L654.231,92.154 L662.308,92.154 Z M640.769,92.154 L648.846,92.154 L648.846,100.231 L640.769,100.231 Z" />
        </g>
    </g>
</svg>