<?xml version="1.0" encoding="UTF-8"?>
<svg height="600" width="800" xmlns="http://www.w3.org/2000/svg" xmlns:xlink="http://www.w3.org/1999/xlink">
    <g id="Notes" font-family="'LucidaGrande', 'Lucida Grande', sans-serif" font-size="13">
        <rect fill="white" height="600.0" width="800.0" x="0.0" y="0.0" />
        <g font-size="13">
            <text x="18.0" y="176.0">Small</text>
            <text x="18.0" y="376.0">Medium</text>
            <text x="18.0" y="576.0">Large</text>
        </g>
        <g font-size="9">
            <text x="250.0" y="30.0">Ultralight</text>
            <text x="450.0" y="30.0">Regular</text>
            <text x="650.0" y="30.0">Black</text>
            <text id="template-version" fill="#505050" text-anchor="end" x="785.0" y="575.0">Template v.3.0</text>
            <a href="https://github.com/swhitty/SwiftDraw">
                <text fill="#505050" text-anchor="end" x="785.0" y="590.0">https://github.com/swhitty/SwiftDraw</text>
            </a>
        </g>
    </g>
    <g id="Guides" stroke="rgb(39, 170, 225)" stroke-width="0.5">
        <path id="Capline-S" d="M18,76 l800,0" />
        <path id="H-reference" d="M85,145.755 L87.685,145.755 L113.369,79.287 L114.052,79.287 L114.052,76 L112.148,76 L85,145.755 Z M95.693,121.536 L130.996,121.536 L130.263,119.313 L96.474,119.313 L95.693,121.536 Z M139.15,145.755 L141.787,145.755 L114.638,76 L113.466,76 L113.466,79.287 L139.15,145.755 Z" stroke="none" />
        <path id="Baseline-S" d="M18,146 l800,0" />
        <path id="left-margin-Ultralight-S" d="M220,56 l0,110" />
        <path id="right-margin-Ultralight-S" d="M310,56 l0,110" />
        <path id="left-margin-Regular-S" d="M420,56 l0,110" />
        <path id="right-margin-Regular-S" d="M510,56 l0,110" />
        <path id="left-margin-Black-S" d="M620,56 l0,110" />
        <path id="right-margin-Black-S" d="M710,56 l0,110" />
        <path id="Capline-M" d="M18,276 l800,0" />
        <path id="Baseline-M" d="M18,346 l800,0" />
        <path id="Capline-L" d="M18,476 l800,0" />
        <path id="Baseline-L" d="M18,546 l800,0" />
    </g>
    <g id="Symbols">
        <g id="Ultralight-S">
            <path d="M291.782,89.408 C284.805,85.921 275.544,84.077 265,84.077 C254.456,84.077 245.195,85.921 238.218,89.408 C231.242,92.894 227.308,97.801 227.308,102.923 L227.308,119.077 C227.308,124.199 231.286,129.123 238.218,132.592 C245.151,136.062 254.456,137.923 265,137.923 C275.544,137.923 284.805,136.079 291.782,132.592 C298.758,129.106 302.692,124.199 302.692,119.077 L302.692,102.923 C302.692,97.801 298.714,92.877 291.782,89.408 Z M265,89.462 C286.081,89.462 297.308,97.279 297.308,102.923 C297.308,108.567 286.081,116.385 265,116.385 C243.919,116.385 232.692,108.567 232.692,102.923 C232.692,97.279 243.919,89.462 265,89.462 Z M262.308,121.722 L262.308,132.491 C255.913,132.283 250.529,131.34 246.154,129.971 L246.154,119.43 C251.428,120.835 256.851,121.605 262.308,121.722 Z M267.692,121.722 C273.149,121.605 278.572,120.835 283.846,119.43 L283.846,129.967 C279.471,131.337 274.086,132.279 267.692,132.488 Z M232.692,119.077 L232.692,112.861 C234.387,114.267 236.242,115.468 238.218,116.438 C239.036,116.846 239.901,117.229 240.769,117.593 L240.769,127.827 C235.442,125.188 232.692,121.867 232.692,119.077 Z M289.231,127.827 L289.231,117.593 C290.109,117.229 290.964,116.846 291.782,116.438 C293.758,115.468 295.613,114.267 297.308,112.861 L297.308,119.077 C297.308,121.867 294.558,125.188 289.231,127.827 Z" />
        </g>
        <g id="Regular-S">
            <path d="M491.782,89.408 C484.805,85.921 475.544,84.077 465,84.077 C454.456,84.077 445.195,85.921 438.218,89.408 C431.242,92.894 427.308,97.801 427.308,102.923 L427.308,119.077 C427.308,124.199 431.286,129.123 438.218,132.592 C445.151,136.062 454.456,137.923 465,137.923 C475.544,137.923 484.805,136.079 491.782,132.592 C498.758,129.106 502.692,124.199 502.692,119.077 L502.692,102.923 C502.692,97.801 498.714,92.877 491.782,89.408 Z M465,89.462 C486.081,89.462 497.308,97.279 497.308,102.923 C497.308,108.567 486.081,116.385 465,116.385 C443.919,116.385 432.692,108.567 432.692,102.923 C432.692,97.279 443.919,89.462 465,89.462 Z M462.308,121.722 L462.308,132.491 C455.913,132.283 450.529,131.34 446.154,129.971 L446.154,119.43 C451.428,120.835 456.851,121.605 462.308,121.722 Z M467.692,121.722 C473.149,121.605 478.572,120.835 483.846,119.43 L483.846,129.967 C479.471,131.337 474.086,132.279 467.692,132.488 Z M432.692,119.077 L432.692,112.861 C434.387,114.267 436.242,115.468 438.218,116.438 C439.036,116.846 439.901,117.229 440.769,117.593 L440.769,127.827 C435.442,125.188 432.692,121.867 432.692,119.077 Z M489.231,127.827 L489.231,117.593 C490.109,117.229 490.964,116.846 491.782,116.438 C493.758,115.468 495.613,114.267 497.308,112.861 L497.308,119.077 C497.308,121.867 494.558,125.188 489.231,127.827 Z" />
        </g>
        <g id="Black-S">
            <path d="M691.782,89.408 C684.805,85.921 675.544,84.077 665,84.077 C654.456,84.077 645.195,85.921 638.218,89.408 C631.242,92.894 627.308,97.801 627.308,102.923 L627.308,119.077 C627.308,124.199 631.286,129.123 638.218,132.592 C645.151,136.062 654.456,137.923 665,137.923 C675.544,137.923 684.805,136.079 691.782,132.592 C698.758,129.106 702.692,124.199 702.692,119.077 L702.692,102.923 C702.692,97.801 698.714,92.877 691.782,89.408 Z M665,89.462 C686.081,89.462 697.308,97.279 697.308,102.923 C697.308,108.567 686.081,116.385 665,116.385 C643.919,116.385 632.692,108.567 632.692,102.923 C632.692,97.279 643.919,89.462 665,89.462 Z M662.308,121.722 L662.308,132.491 C655.913,132.283 650.529,131.34 646.154,129.971 L646.154,119.43 C651.428,120.835 656.851,121.605 662.308,121.722 Z M667.692,121.722 C673.149,121.605 678.572,120.835 683.846,119.43 L683.846,129.967 C679.471,131.337 674.086,132.279 667.692,132.488 Z M632.692,119.077 L632.692,112.861 C634.387,114.267 636.242,115.468 638.218,116.438 C639.036,116.846 639.901,117.229 640.769,117.593 L640.769,127.827 C635.442,125.188 632.692,121.867 632.692,119.077 Z M689.231,127.827 L689.231,117.593 C690.109,117.229 690.964,116.846 691.782,116.438 C693.758,115.468 695.613,114.267 697.308,112.861 L697.308,119.077 C697.308,121.867 694.558,125.188 689.231,127.827 Z" />
        </g>
    </g>
</svg>