<?xml version="1.0" encoding="UTF-8"?>
<svg height="600" width="800" xmlns="http://www.w3.org/2000/svg" xmlns:xlink="http://www.w3.org/1999/xlink">
    <g id="Notes" font-family="'LucidaGrande', 'Lucida Grande', sans-serif" font-size="13">
        <rect fill="white" height="600.0" width="800.0" x="0.0" y="0.0" />
        <g font-size="13">
            <text x="18.0" y="176.0">Small</text>
            <text x="18.0" y="376.0">Medium</text>
            <text x="18.0" y="576.0">Large</text>
        </g>
        <g font-size="9">
            <text x="250.0" y="30.0">Ultralight</text>
            <text x="450.0" y="30.0">Regular</text>
            <text x="650.0" y="30.0">Black</text>
            <text id="template-version" fill="#505050" text-anchor="end" x="785.0" y="575.0">Template v.3.0</text>
            <a href="https://github.com/swhitty/SwiftDraw">
                <text fill="#505050" text-anchor="end" x="785.0" y="590.0">https://github.com/swhitty/SwiftDraw</text>
            </a>
        </g>
    </g>
    <g id="Guides" stroke="rgb(39, 170, 225)" stroke-width="0.5">
        <path id="Capline-S" d="M18,76 l800,0" />
        <path id="H-reference" d="M85,145.755 L87.685,145.755 L113.369,79.287 L114.052,79.287 L114.052,76 L112.148,76 L85,145.755 Z M95.693,121.536 L130.996,121.536 L130.263,119.313 L96.474,119.313 L95.693,121.536 Z M139.15,145.755 L141.787,145.755 L114.638,76 L113.466,76 L113.466,79.287 L139.15,145.755 Z" stroke="none" />
        <path id="Baseline-S" d="M18,146 l800,0" />
        <path id="left-margin-Ultralight-S" d="M220,56 l0,110" />
        <path id="right-margin-Ultralight-S" d="M310,56 l0,110" />
        <path id="left-margin-Regular-S" d="M420,56 l0,110" />
        <path id="right-margin-Regular-S" d="M510,56 l0,110" />
        <path id="left-margin-Black-S" d="M620,56 l0,110" />
        <path id="right-margin-Black-S" d="M710,56 l0,110" />
        <path id="Capline-M" d="M18,276 l800,0" />
        <path id="Baseline-M" d="M18,346 l800,0" />
        <path id="Capline-L" d="M18,476 l800,0" />
        <path id="Baseline-L" d="M18,546 l800,0" />
    </g>
    <g id="Symbols">
        <g id="Ultralight-S">
            <path d="M291.923,78.692 L238.077,78.692 C236.649,78.692 235.279,79.26 234.269,80.269 C233.26,81.279 232.692,82.649 232.692,84.077 L232.692,137.923 C232.692,139.351 233.26,140.721 234.269,141.731 C235.279,142.74 236.649,143.308 238.077,143.308 L291.923,143.308 C293.351,143.308 294.721,142.74 295.731,141.731 C296.74,140.721 297.308,139.351 297.308,137.923 L297.308,84.077 C297.308,82.649 296.74,81.279 295.731,80.269 C294.721,79.26 293.351,78.692 291.923,78.692 Z M291.923,137.923 L238.077,137.923 L238.077,84.077 L291.923,84.077 L291.923,137.923 Z M265,89.462 C253.105,89.462 243.462,99.105 243.462,111 C243.462,122.895 253.105,132.538 265,132.538 C276.895,132.538 286.538,122.895 286.538,111 C286.525,99.11 276.89,89.475 265,89.462 Z M265,127.154 C256.078,127.154 248.846,119.922 248.846,111 C248.846,102.078 256.078,94.846 265,94.846 C273.922,94.846 281.154,102.078 281.154,111 C281.145,119.918 273.918,127.145 265,127.154 Z M289.231,90.808 C289.231,93.038 287.423,94.846 285.192,94.846 C282.962,94.846 281.154,93.038 281.154,90.808 C281.154,88.577 282.962,86.769 285.192,86.769 C286.263,86.769 287.291,87.195 288.048,87.952 C288.805,88.709 289.231,89.737 289.231,90.808 Z M264.212,107.52 L258.828,112.905 C257.778,113.956 256.072,113.957 255.019,112.906 C253.967,111.854 253.966,110.149 255.017,109.096 L260.402,103.712 C261.452,102.66 263.158,102.659 264.21,103.711 C265.263,104.762 265.264,106.468 264.212,107.52 Z M274.982,106.403 C275.487,106.908 275.771,107.593 275.771,108.308 C275.771,109.022 275.487,109.708 274.982,110.213 L264.212,120.982 C263.162,122.033 261.457,122.034 260.404,120.983 C259.351,119.931 259.35,118.226 260.402,117.173 L271.171,106.404 C271.676,105.898 272.361,105.613 273.076,105.613 C273.791,105.613 274.477,105.897 274.982,106.403 Z" />
        </g>
        <g id="Regular-S">
            <path d="M491.923,78.692 L438.077,78.692 C436.649,78.692 435.279,79.26 434.269,80.269 C433.26,81.279 432.692,82.649 432.692,84.077 L432.692,137.923 C432.692,139.351 433.26,140.721 434.269,141.731 C435.279,142.74 436.649,143.308 438.077,143.308 L491.923,143.308 C493.351,143.308 494.721,142.74 495.731,141.731 C496.74,140.721 497.308,139.351 497.308,137.923 L497.308,84.077 C497.308,82.649 496.74,81.279 495.731,80.269 C494.721,79.26 493.351,78.692 491.923,78.692 Z M491.923,137.923 L438.077,137.923 L438.077,84.077 L491.923,84.077 L491.923,137.923 Z M465,89.462 C453.105,89.462 443.462,99.105 443.462,111 C443.462,122.895 453.105,132.538 465,132.538 C476.895,132.538 486.538,122.895 486.538,111 C486.525,99.11 476.89,89.475 465,89.462 Z M465,127.154 C456.078,127.154 448.846,119.922 448.846,111 C448.846,102.078 456.078,94.846 465,94.846 C473.922,94.846 481.154,102.078 481.154,111 C481.145,119.918 473.918,127.145 465,127.154 Z M489.231,90.808 C489.231,93.038 487.423,94.846 485.192,94.846 C482.962,94.846 481.154,93.038 481.154,90.808 C481.154,88.577 482.962,86.769 485.192,86.769 C486.263,86.769 487.291,87.195 488.048,87.952 C488.805,88.709 489.231,89.737 489.231,90.808 Z M464.212,107.52 L458.828,112.905 C457.778,113.956 456.072,113.957 455.019,112.906 C453.967,111.854 453.966,110.149 455.017,109.096 L460.402,103.712 C461.452,102.66 463.158,102.659 464.21,103.711 C465.263,104.762 465.264,106.468 464.212,107.52 Z M474.982,106.403 C475.487,106.908 475.771,107.593 475.771,108.308 C475.771,109.022 475.487,109.708 474.982,110.213 L464.212,120.982 C463.162,122.033 461.457,122.034 460.404,120.983 C459.351,119.931 459.35,118.226 460.402,117.173 L471.171,106.404 C471.676,105.898 472.361,105.613 473.076,105.613 C473.791,105.613 474.477,105.897 474.982,106.403 Z" />
        </g>
        <g id="Black-S">
            <path d="M691.923,78.692 L638.077,78.692 C636.649,78.692 635.279,79.26 634.269,80.269 C633.26,81.279 632.692,82.649 632.692,84.077 L632.692,137.923 C632.692,139.351 633.26,140.721 634.269,141.731 C635.279,142.74 636.649,143.308 638.077,143.308 L691.923,143.308 C693.351,143.308 694.721,142.74 695.731,141.731 C696.74,140.721 697.308,139.351 697.308,137.923 L697.308,84.077 C697.308,82.649 696.74,81.279 695.731,80.269 C694.721,79.26 693.351,78.692 691.923,78.692 Z M691.923,137.923 L638.077,137.923 L638.077,84.077 L691.923,84.077 L691.923,137.923 Z M665,89.462 C653.105,89.462 643.462,99.105 643.462,111 C643.462,122.895 653.105,132.538 665,132.538 C676.895,132.538 686.538,122.895 686.538,111 C686.526,99.11 676.89,89.475 665,89.462 Z M665,127.154 C656.078,127.154 648.846,119.922 648.846,111 C648.846,102.078 656.078,94.846 665,94.846 C673.922,94.846 681.154,102.078 681.154,111 C681.145,119.918 673.918,127.145 665,127.154 Z M689.231,90.808 C689.231,93.038 687.423,94.846 685.192,94.846 C682.962,94.846 681.154,93.038 681.154,90.808 C681.154,88.577 682.962,86.769 685.192,86.769 C686.263,86.769 687.291,87.195 688.048,87.952 C688.805,88.709 689.231,89.737 689.231,90.808 Z M664.213,107.52 L658.828,112.905 C657.778,113.956 656.072,113.957 655.019,112.906 C653.967,111.854 653.966,110.149 655.017,109.096 L660.402,103.712 C661.452,102.66 663.158,102.659 664.21,103.711 C665.263,104.762 665.264,106.468 664.213,107.52 Z M674.982,106.403 C675.487,106.908 675.771,107.593 675.771,108.308 C675.771,109.022 675.487,109.708 674.982,110.213 L664.213,120.982 C663.162,122.033 661.457,122.034 660.404,120.983 C659.351,119.931 659.35,118.226 660.402,117.173 L671.171,106.404 C671.676,105.898 672.361,105.613 673.076,105.613 C673.791,105.613 674.477,105.897 674.982,106.403 Z" />
        </g>
    </g>
</svg>