<?xml version="1.0" encoding="UTF-8"?>
<svg height="600" width="800" xmlns="http://www.w3.org/2000/svg" xmlns:xlink="http://www.w3.org/1999/xlink">
    <g id="Notes" font-family="'LucidaGrande', 'Lucida Grande', sans-serif" font-size="13">
        <rect fill="white" height="600.0" width="800.0" x="0.0" y="0.0" />
        <g font-size="13">
            <text x="18.0" y="176.0">Small</text>
            <text x="18.0" y="376.0">Medium</text>
            <text x="18.0" y="576.0">Large</text>
        </g>
        <g font-size="9">
            <text x="250.0" y="30.0">Ultralight</text>
            <text x="450.0" y="30.0">Regular</text>
            <text x="650.0" y="30.0">Black</text>
            <text id="template-version" fill="#505050" text-anchor="end" x="785.0" y="575.0">Template v.3.0</text>
            <a href="https://github.com/swhitty/SwiftDraw">
                <text fill="#505050" text-anchor="end" x="785.0" y="590.0">https://github.com/swhitty/SwiftDraw</text>
            </a>
        </g>
    </g>
    <g id="Guides" stroke="rgb(39, 170, 225)" stroke-width="0.5">
        <path id="Capline-S" d="M18,76 l800,0" />
        <path id="H-reference" d="M85,145.755 L87.685,145.755 L113.369,79.287 L114.052,79.287 L114.052,76 L112.148,76 L85,145.755 Z M95.693,121.536 L130.996,121.536 L130.263,119.313 L96.474,119.313 L95.693,121.536 Z M139.15,145.755 L141.787,145.755 L114.638,76 L113.466,76 L113.466,79.287 L139.15,145.755 Z" stroke="none" />
        <path id="Baseline-S" d="M18,146 l800,0" />
        <path id="left-margin-Ultralight-S" d="M220,56 l0,110" />
        <path id="right-margin-Ultralight-S" d="M310,56 l0,110" />
        <path id="left-margin-Regular-S" d="M420,56 l0,110" />
        <path id="right-margin-Regular-S" d="M510,56 l0,110" />
        <path id="left-margin-Black-S" d="M620,56 l0,110" />
        <path id="right-margin-Black-S" d="M710,56 l0,110" />
        <path id="Capline-M" d="M18,276 l800,0" />
        <path id="Baseline-M" d="M18,346 l800,0" />
        <path id="Capline-L" d="M18,476 l800,0" />
        <path id="Baseline-L" d="M18,546 l800,0" />
    </g>
    <g id="Symbols">
        <g id="Ultralight-S">
            <path d="M278.462,102.923 L251.538,102.923 C247.968,102.923 244.544,104.341 242.02,106.866 C239.495,109.39 238.077,112.814 238.077,116.385 L238.077,119.077 C238.077,122.647 239.495,126.071 242.02,128.596 C244.544,131.12 247.968,132.538 251.538,132.538 L278.462,132.538 C282.032,132.538 285.456,131.12 287.98,128.596 C290.505,126.071 291.923,122.647 291.923,119.077 L291.923,116.385 C291.923,112.814 290.505,109.39 287.98,106.866 C285.456,104.341 282.032,102.923 278.462,102.923 Z M286.538,119.077 C286.538,121.219 285.688,123.273 284.173,124.788 C282.658,126.303 280.604,127.154 278.462,127.154 L251.538,127.154 C249.396,127.154 247.342,126.303 245.827,124.788 C244.312,123.273 243.462,121.219 243.462,119.077 L243.462,116.385 C243.462,114.242 244.312,112.188 245.827,110.673 C247.342,109.159 249.396,108.308 251.538,108.308 L278.462,108.308 C280.604,108.308 282.658,109.159 284.173,110.673 C285.688,112.188 286.538,114.242 286.538,116.385 Z M291.923,81.385 C287.013,81.389 282.725,84.709 281.49,89.462 L248.51,89.462 C247.163,84.2 242.108,80.765 236.72,81.449 C231.332,82.133 227.297,86.723 227.308,92.154 L227.308,119.077 C227.323,132.454 238.163,143.293 251.539,143.308 L278.462,143.308 C291.839,143.293 302.678,132.453 302.693,119.077 L302.693,92.154 C302.693,89.298 301.558,86.558 299.539,84.539 C297.519,82.519 294.779,81.384 291.923,81.385 Z M297.308,119.077 C297.297,129.48 288.866,137.912 278.462,137.923 L251.538,137.923 C241.135,137.912 232.703,129.481 232.692,119.077 L232.692,92.154 C232.692,89.18 235.103,86.769 238.077,86.769 C241.051,86.769 243.462,89.18 243.462,92.154 C243.462,92.868 243.745,93.553 244.25,94.058 C244.755,94.562 245.44,94.846 246.154,94.846 L283.846,94.846 C284.56,94.846 285.245,94.562 285.75,94.058 C286.255,93.553 286.538,92.868 286.538,92.154 C286.538,89.18 288.949,86.769 291.923,86.769 C294.897,86.769 297.308,89.18 297.308,92.154 Z M256.923,117.731 C256.923,119.961 255.115,121.769 252.885,121.769 C250.654,121.769 248.846,119.961 248.846,117.731 C248.846,115.5 250.654,113.692 252.885,113.692 C253.956,113.692 254.983,114.118 255.74,114.875 C256.498,115.633 256.923,116.66 256.923,117.731 Z M281.154,117.731 C281.154,119.961 279.346,121.769 277.115,121.769 C274.885,121.769 273.077,119.961 273.077,117.731 C273.077,115.5 274.885,113.692 277.115,113.692 C278.186,113.692 279.214,114.118 279.971,114.875 C280.728,115.633 281.154,116.66 281.154,117.731 Z" />
        </g>
        <g id="Regular-S">
            <path d="M478.462,102.923 L451.538,102.923 C447.968,102.923 444.544,104.341 442.02,106.866 C439.495,109.39 438.077,112.814 438.077,116.385 L438.077,119.077 C438.077,122.647 439.495,126.071 442.02,128.596 C444.544,131.12 447.968,132.538 451.538,132.538 L478.462,132.538 C482.032,132.538 485.456,131.12 487.98,128.596 C490.505,126.071 491.923,122.647 491.923,119.077 L491.923,116.385 C491.923,112.814 490.505,109.39 487.98,106.866 C485.456,104.341 482.032,102.923 478.462,102.923 Z M486.538,119.077 C486.538,121.219 485.688,123.273 484.173,124.788 C482.658,126.303 480.604,127.154 478.462,127.154 L451.538,127.154 C449.396,127.154 447.342,126.303 445.827,124.788 C444.312,123.273 443.462,121.219 443.462,119.077 L443.462,116.385 C443.462,114.242 444.312,112.188 445.827,110.673 C447.342,109.159 449.396,108.308 451.538,108.308 L478.462,108.308 C480.604,108.308 482.658,109.159 484.173,110.673 C485.688,112.188 486.538,114.242 486.538,116.385 Z M491.923,81.385 C487.013,81.389 482.725,84.709 481.49,89.462 L448.51,89.462 C447.162,84.2 442.108,80.765 436.72,81.449 C431.332,82.133 427.297,86.723 427.308,92.154 L427.308,119.077 C427.323,132.454 438.163,143.293 451.539,143.308 L478.462,143.308 C491.839,143.293 502.678,132.453 502.693,119.077 L502.693,92.154 C502.693,89.298 501.558,86.558 499.539,84.539 C497.519,82.519 494.779,81.384 491.923,81.385 Z M497.308,119.077 C497.297,129.48 488.866,137.912 478.462,137.923 L451.538,137.923 C441.135,137.912 432.703,129.481 432.692,119.077 L432.692,92.154 C432.692,89.18 435.103,86.769 438.077,86.769 C441.051,86.769 443.462,89.18 443.462,92.154 C443.462,92.868 443.745,93.553 444.25,94.058 C444.755,94.562 445.44,94.846 446.154,94.846 L483.846,94.846 C484.56,94.846 485.245,94.562 485.75,94.058 C486.255,93.553 486.538,92.868 486.538,92.154 C486.538,89.18 488.949,86.769 491.923,86.769 C494.897,86.769 497.308,89.18 497.308,92.154 Z M456.923,117.731 C456.923,119.961 455.115,121.769 452.885,121.769 C450.654,121.769 448.846,119.961 448.846,117.731 C448.846,115.5 450.654,113.692 452.885,113.692 C453.956,113.692 454.983,114.118 455.74,114.875 C456.498,115.633 456.923,116.66 456.923,117.731 Z M481.154,117.731 C481.154,119.961 479.346,121.769 477.115,121.769 C474.885,121.769 473.077,119.961 473.077,117.731 C473.077,115.5 474.885,113.692 477.115,113.692 C478.186,113.692 479.214,114.118 479.971,114.875 C480.728,115.633 481.154,116.66 481.154,117.731 Z" />
        </g>
        <g id="Black-S">
            <path d="M678.462,102.923 L651.538,102.923 C647.968,102.923 644.544,104.341 642.02,106.866 C639.495,109.39 638.077,112.814 638.077,116.385 L638.077,119.077 C638.077,122.647 639.495,126.071 642.02,128.596 C644.544,131.12 647.968,132.538 651.539,132.538 L678.462,132.538 C682.032,132.538 685.456,131.12 687.98,128.596 C690.505,126.071 691.923,122.647 691.923,119.077 L691.923,116.385 C691.923,112.814 690.505,109.39 687.98,106.866 C685.456,104.341 682.032,102.923 678.462,102.923 Z M686.538,119.077 C686.538,121.219 685.688,123.273 684.173,124.788 C682.658,126.303 680.604,127.154 678.462,127.154 L651.538,127.154 C649.396,127.154 647.342,126.303 645.827,124.788 C644.312,123.273 643.462,121.219 643.462,119.077 L643.462,116.385 C643.462,114.242 644.312,112.188 645.827,110.673 C647.342,109.159 649.396,108.308 651.538,108.308 L678.462,108.308 C680.604,108.308 682.658,109.159 684.173,110.673 C685.688,112.188 686.538,114.242 686.538,116.385 Z M691.923,81.385 C687.013,81.389 682.725,84.709 681.49,89.462 L648.51,89.462 C647.163,84.2 642.108,80.765 636.72,81.449 C631.332,82.133 627.297,86.723 627.308,92.154 L627.308,119.077 C627.323,132.454 638.163,143.293 651.539,143.308 L678.462,143.308 C691.839,143.293 702.678,132.453 702.693,119.077 L702.693,92.154 C702.693,89.298 701.558,86.558 699.539,84.539 C697.519,82.519 694.779,81.384 691.923,81.385 Z M697.308,119.077 C697.297,129.48 688.866,137.912 678.462,137.923 L651.538,137.923 C641.135,137.912 632.703,129.481 632.692,119.077 L632.692,92.154 C632.692,89.18 635.103,86.769 638.077,86.769 C641.051,86.769 643.462,89.18 643.462,92.154 C643.462,92.868 643.745,93.553 644.25,94.058 C644.755,94.562 645.44,94.846 646.154,94.846 L683.846,94.846 C684.56,94.846 685.245,94.562 685.75,94.058 C686.255,93.553 686.538,92.868 686.538,92.154 C686.538,89.18 688.949,86.769 691.923,86.769 C694.897,86.769 697.308,89.18 697.308,92.154 Z M656.923,117.731 C656.923,119.961 655.115,121.769 652.885,121.769 C650.654,121.769 648.846,119.961 648.846,117.731 C648.846,115.5 650.654,113.692 652.885,113.692 C653.956,113.692 654.983,114.118 655.74,114.875 C656.498,115.633 656.923,116.66 656.923,117.731 Z M681.154,117.731 C681.154,119.961 679.346,121.769 677.115,121.769 C674.885,121.769 673.077,119.961 673.077,117.731 C673.077,115.5 674.885,113.692 677.115,113.692 C678.186,113.692 679.214,114.118 679.971,114.875 C680.728,115.633 681.154,116.66 681.154,117.731 Z" />
        </g>
    </g>
</svg>