<?xml version="1.0" encoding="UTF-8"?>
<svg height="600" width="800" xmlns="http://www.w3.org/2000/svg" xmlns:xlink="http://www.w3.org/1999/xlink">
    <g id="Notes" font-family="'LucidaGrande', 'Lucida Grande', sans-serif" font-size="13">
        <rect fill="white" height="600.0" width="800.0" x="0.0" y="0.0" />
        <g font-size="13">
            <text x="18.0" y="176.0">Small</text>
            <text x="18.0" y="376.0">Medium</text>
            <text x="18.0" y="576.0">Large</text>
        </g>
        <g font-size="9">
            <text x="250.0" y="30.0">Ultralight</text>
            <text x="450.0" y="30.0">Regular</text>
            <text x="650.0" y="30.0">Black</text>
            <text id="template-version" fill="#505050" text-anchor="end" x="785.0" y="575.0">Template v.3.0</text>
            <a href="https://github.com/swhitty/SwiftDraw">
                <text fill="#505050" text-anchor="end" x="785.0" y="590.0">https://github.com/swhitty/SwiftDraw</text>
            </a>
        </g>
    </g>
    <g id="Guides" stroke="rgb(39, 170, 225)" stroke-width="0.5">
        <path id="Capline-S" d="M18,76 l800,0" />
        <path id="H-reference" d="M85,145.755 L87.685,145.755 L113.369,79.287 L114.052,79.287 L114.052,76 L112.148,76 L85,145.755 Z M95.693,121.536 L130.996,121.536 L130.263,119.313 L96.474,119.313 L95.693,121.536 Z M139.15,145.755 L141.787,145.755 L114.638,76 L113.466,76 L113.466,79.287 L139.15,145.755 Z" stroke="none" />
        <path id="Baseline-S" d="M18,146 l800,0" />
        <path id="left-margin-Ultralight-S" d="M220,56 l0,110" />
        <path id="right-margin-Ultralight-S" d="M310,56 l0,110" />
        <path id="left-margin-Regular-S" d="M420,56 l0,110" />
        <path id="right-margin-Regular-S" d="M510,56 l0,110" />
        <path id="left-margin-Black-S" d="M620,56 l0,110" />
        <path id="right-margin-Black-S" d="M710,56 l0,110" />
        <path id="Capline-M" d="M18,276 l800,0" />
        <path id="Baseline-M" d="M18,346 l800,0" />
        <path id="Capline-L" d="M18,476 l800,0" />
        <path id="Baseline-L" d="M18,546 l800,0" />
    </g>
    <g id="Symbols">
        <g id="Ultralight-S">
            <path d="M289.49,86.059 C282.974,79.606 274.171,75.991 265,76 L264.64,76 C245.451,76.197 229.999,91.81 230,111 C230,125.471 238.945,137.607 253.342,142.692 C256.637,143.854 260.291,143.345 263.143,141.327 C265.995,139.309 267.691,136.032 267.692,132.538 C267.692,131.11 268.26,129.741 269.269,128.731 C270.279,127.721 271.649,127.154 273.077,127.154 L288.628,127.154 C293.662,127.178 298.032,123.693 299.128,118.781 C299.73,116.131 300.023,113.421 300,110.704 C299.931,101.415 296.146,92.539 289.49,86.059 Z M293.865,117.596 C293.314,120.043 291.137,121.778 288.628,121.769 L273.077,121.769 C270.221,121.769 267.482,122.904 265.462,124.923 C263.442,126.943 262.308,129.682 262.308,132.538 C262.305,134.284 261.457,135.919 260.032,136.927 C258.607,137.935 256.782,138.189 255.136,137.61 C242.953,133.312 235.385,123.115 235.385,111 C235.385,94.761 248.459,81.552 264.695,81.385 L264.998,81.385 C281.23,81.448 294.412,94.517 294.614,110.748 C294.633,113.051 294.386,115.349 293.878,117.596 Z M269.038,93.5 C269.038,95.73 267.23,97.538 265,97.538 C262.77,97.538 260.962,95.73 260.962,93.5 C260.962,91.27 262.77,89.462 265,89.462 C266.071,89.462 267.098,89.887 267.856,90.644 C268.613,91.402 269.038,92.429 269.038,93.5 Z M254.231,101.577 C254.231,103.807 252.423,105.615 250.192,105.615 C247.962,105.615 246.154,103.807 246.154,101.577 C246.154,99.347 247.962,97.538 250.192,97.538 C251.263,97.538 252.291,97.964 253.048,98.721 C253.805,99.479 254.231,100.506 254.231,101.577 Z M254.231,120.423 C254.231,122.653 252.423,124.462 250.192,124.462 C247.962,124.462 246.154,122.653 246.154,120.423 C246.154,118.193 247.962,116.385 250.192,116.385 C251.263,116.385 252.291,116.81 253.048,117.567 C253.805,118.325 254.231,119.352 254.231,120.423 Z M283.846,101.577 C283.846,103.807 282.038,105.615 279.808,105.615 C277.577,105.615 275.769,103.807 275.769,101.577 C275.769,99.347 277.577,97.538 279.808,97.538 C280.879,97.538 281.906,97.964 282.663,98.721 C283.421,99.479 283.846,100.506 283.846,101.577 Z" />
        </g>
        <g id="Regular-S">
            <path d="M489.49,86.059 C482.974,79.606 474.171,75.991 465,76 L464.64,76 C445.451,76.197 429.999,91.81 430,111 C430,125.471 438.945,137.607 453.342,142.692 C456.637,143.854 460.291,143.345 463.143,141.327 C465.995,139.309 467.691,136.032 467.692,132.538 C467.692,131.11 468.26,129.741 469.269,128.731 C470.279,127.721 471.649,127.154 473.077,127.154 L488.628,127.154 C493.661,127.178 498.032,123.693 499.128,118.781 C499.73,116.131 500.023,113.421 500,110.704 C499.931,101.415 496.146,92.539 489.49,86.059 Z M493.865,117.596 C493.314,120.043 491.137,121.778 488.628,121.769 L473.077,121.769 C470.221,121.769 467.482,122.904 465.462,124.923 C463.442,126.943 462.308,129.682 462.308,132.538 C462.305,134.284 461.457,135.919 460.032,136.927 C458.607,137.935 456.782,138.189 455.136,137.61 C442.953,133.312 435.385,123.115 435.385,111 C435.385,94.761 448.459,81.552 464.695,81.385 L464.998,81.385 C481.23,81.448 494.412,94.517 494.614,110.748 C494.633,113.051 494.386,115.349 493.878,117.596 Z M469.038,93.5 C469.038,95.73 467.23,97.538 465,97.538 C462.77,97.538 460.962,95.73 460.962,93.5 C460.962,91.27 462.77,89.462 465,89.462 C466.071,89.462 467.098,89.887 467.856,90.644 C468.613,91.402 469.038,92.429 469.038,93.5 Z M454.231,101.577 C454.231,103.807 452.423,105.615 450.192,105.615 C447.962,105.615 446.154,103.807 446.154,101.577 C446.154,99.347 447.962,97.538 450.192,97.538 C451.263,97.538 452.291,97.964 453.048,98.721 C453.805,99.479 454.231,100.506 454.231,101.577 Z M454.231,120.423 C454.231,122.653 452.423,124.462 450.192,124.462 C447.962,124.462 446.154,122.653 446.154,120.423 C446.154,118.193 447.962,116.385 450.192,116.385 C451.263,116.385 452.291,116.81 453.048,117.567 C453.805,118.325 454.231,119.352 454.231,120.423 Z M483.846,101.577 C483.846,103.807 482.038,105.615 479.808,105.615 C477.577,105.615 475.769,103.807 475.769,101.577 C475.769,99.347 477.577,97.538 479.808,97.538 C480.879,97.538 481.906,97.964 482.663,98.721 C483.421,99.479 483.846,100.506 483.846,101.577 Z" />
        </g>
        <g id="Black-S">
            <path d="M689.49,86.059 C682.974,79.606 674.171,75.991 665,76 L664.64,76 C645.451,76.197 629.999,91.81 630,111 C630,125.471 638.945,137.607 653.342,142.692 C656.637,143.854 660.291,143.345 663.143,141.327 C665.995,139.309 667.691,136.032 667.692,132.538 C667.692,131.11 668.26,129.741 669.269,128.731 C670.279,127.721 671.649,127.154 673.077,127.154 L688.628,127.154 C693.662,127.178 698.032,123.693 699.128,118.781 C699.73,116.131 700.023,113.421 700,110.704 C699.931,101.415 696.146,92.539 689.49,86.059 Z M693.865,117.596 C693.314,120.043 691.137,121.778 688.628,121.769 L673.077,121.769 C670.221,121.769 667.482,122.904 665.462,124.923 C663.442,126.943 662.308,129.682 662.308,132.538 C662.305,134.284 661.457,135.919 660.032,136.927 C658.607,137.935 656.782,138.189 655.136,137.61 C642.953,133.312 635.385,123.115 635.385,111 C635.385,94.761 648.459,81.552 664.695,81.385 L664.998,81.385 C681.23,81.448 694.412,94.517 694.614,110.748 C694.633,113.051 694.386,115.349 693.878,117.596 Z M669.038,93.5 C669.038,95.73 667.23,97.538 665,97.538 C662.77,97.538 660.962,95.73 660.962,93.5 C660.962,91.27 662.77,89.462 665,89.462 C666.071,89.462 667.098,89.887 667.856,90.644 C668.613,91.402 669.038,92.429 669.038,93.5 Z M654.231,101.577 C654.231,103.807 652.423,105.615 650.192,105.615 C647.962,105.615 646.154,103.807 646.154,101.577 C646.154,99.347 647.962,97.538 650.192,97.538 C651.263,97.538 652.291,97.964 653.048,98.721 C653.805,99.479 654.231,100.506 654.231,101.577 Z M654.231,120.423 C654.231,122.653 652.423,124.462 650.192,124.462 C647.962,124.462 646.154,122.653 646.154,120.423 C646.154,118.193 647.962,116.385 650.192,116.385 C651.263,116.385 652.291,116.81 653.048,117.567 C653.805,118.325 654.231,119.352 654.231,120.423 Z M683.846,101.577 C683.846,103.807 682.038,105.615 679.808,105.615 C677.577,105.615 675.769,103.807 675.769,101.577 C675.769,99.347 677.577,97.538 679.808,97.538 C680.879,97.538 681.906,97.964 682.663,98.721 C683.421,99.479 683.846,100.506 683.846,101.577 Z" />
        </g>
    </g>
</svg>