<?xml version="1.0" encoding="UTF-8"?>
<svg height="600" width="800" xmlns="http://www.w3.org/2000/svg" xmlns:xlink="http://www.w3.org/1999/xlink">
    <g id="Notes" font-family="'LucidaGrande', 'Lucida Grande', sans-serif" font-size="13">
        <rect fill="white" height="600.0" width="800.0" x="0.0" y="0.0" />
        <g font-size="13">
            <text x="18.0" y="176.0">Small</text>
            <text x="18.0" y="376.0">Medium</text>
            <text x="18.0" y="576.0">Large</text>
        </g>
        <g font-size="9">
            <text x="250.0" y="30.0">Ultralight</text>
            <text x="450.0" y="30.0">Regular</text>
            <text x="650.0" y="30.0">Black</text>
            <text id="template-version" fill="#505050" text-anchor="end" x="785.0" y="575.0">Template v.3.0</text>
            <a href="https://github.com/swhitty/SwiftDraw">
                <text fill="#505050" text-anchor="end" x="785.0" y="590.0">https://github.com/swhitty/SwiftDraw</text>
            </a>
        </g>
    </g>
    <g id="Guides" stroke="rgb(39, 170, 225)" stroke-width="0.5">
        <path id="Capline-S" d="M18,76 l800,0" />
        <path id="H-reference" d="M85,145.755 L87.685,145.755 L113.369,79.287 L114.052,79.287 L114.052,76 L112.148,76 L85,145.755 Z M95.693,121.536 L130.996,121.536 L130.263,119.313 L96.474,119.313 L95.693,121.536 Z M139.15,145.755 L141.787,145.755 L114.638,76 L113.466,76 L113.466,79.287 L139.15,145.755 Z" stroke="none" />
        <path id="Baseline-S" d="M18,146 l800,0" />
        <path id="left-margin-Ultralight-S" d="M220,56 l0,110" />
        <path id="right-margin-Ultralight-S" d="M310,56 l0,110" />
        <path id="left-margin-Regular-S" d="M420,56 l0,110" />
        <path id="right-margin-Regular-S" d="M510,56 l0,110" />
        <path id="left-margin-Black-S" d="M620,56 l0,110" />
        <path id="right-margin-Black-S" d="M710,56 l0,110" />
        <path id="Capline-M" d="M18,276 l800,0" />
        <path id="Baseline-M" d="M18,346 l800,0" />
        <path id="Capline-L" d="M18,476 l800,0" />
        <path id="Baseline-L" d="M18,546 l800,0" />
    </g>
    <g id="Symbols">
        <g id="Ultralight-S">
            <path d="M300,84.077 L275.769,84.077 C271.532,84.077 267.542,86.072 265,89.462 C262.458,86.072 258.468,84.077 254.231,84.077 L230,84.077 C229.286,84.077 228.601,84.361 228.096,84.865 C227.591,85.37 227.308,86.055 227.308,86.769 L227.308,135.231 C227.308,135.945 227.591,136.63 228.096,137.135 C228.601,137.639 229.286,137.923 230,137.923 L254.231,137.923 C256.373,137.923 258.427,138.774 259.942,140.289 C261.457,141.803 262.308,143.858 262.308,146 C262.308,147.487 263.513,148.692 265,148.692 C266.487,148.692 267.692,147.487 267.692,146 C267.692,143.858 268.543,141.803 270.058,140.289 C271.573,138.774 273.627,137.923 275.769,137.923 L300,137.923 C300.714,137.923 301.399,137.639 301.904,137.135 C302.409,136.63 302.692,135.945 302.692,135.231 L302.692,86.769 C302.692,86.055 302.409,85.37 301.904,84.865 C301.399,84.361 300.714,84.077 300,84.077 Z M254.231,132.538 L232.692,132.538 L232.692,89.462 L254.231,89.462 C256.373,89.462 258.427,90.312 259.942,91.827 C261.457,93.342 262.308,95.396 262.308,97.538 L262.308,135.231 C259.98,133.479 257.144,132.534 254.231,132.538 Z M297.308,132.538 L275.769,132.538 C272.856,132.534 270.02,133.479 267.692,135.231 L267.692,97.538 C267.692,95.396 268.543,93.342 270.058,91.827 C271.573,90.312 273.627,89.462 275.769,89.462 L297.308,89.462 Z" />
        </g>
        <g id="Regular-S">
            <path d="M500,84.077 L475.769,84.077 C471.532,84.077 467.542,86.072 465,89.462 C462.458,86.072 458.468,84.077 454.231,84.077 L430,84.077 C429.286,84.077 428.601,84.361 428.096,84.865 C427.591,85.37 427.308,86.055 427.308,86.769 L427.308,135.231 C427.308,135.945 427.591,136.63 428.096,137.135 C428.601,137.639 429.286,137.923 430,137.923 L454.231,137.923 C456.373,137.923 458.427,138.774 459.942,140.289 C461.457,141.803 462.308,143.858 462.308,146 C462.308,147.487 463.513,148.692 465,148.692 C466.487,148.692 467.692,147.487 467.692,146 C467.692,143.858 468.543,141.803 470.058,140.289 C471.573,138.774 473.627,137.923 475.769,137.923 L500,137.923 C500.714,137.923 501.399,137.639 501.904,137.135 C502.409,136.63 502.692,135.945 502.692,135.231 L502.692,86.769 C502.692,86.055 502.409,85.37 501.904,84.865 C501.399,84.361 500.714,84.077 500,84.077 Z M454.231,132.538 L432.692,132.538 L432.692,89.462 L454.231,89.462 C456.373,89.462 458.427,90.312 459.942,91.827 C461.457,93.342 462.308,95.396 462.308,97.538 L462.308,135.231 C459.98,133.479 457.144,132.534 454.231,132.538 Z M497.308,132.538 L475.769,132.538 C472.856,132.534 470.02,133.479 467.692,135.231 L467.692,97.538 C467.692,95.396 468.543,93.342 470.058,91.827 C471.573,90.312 473.627,89.462 475.769,89.462 L497.308,89.462 Z" />
        </g>
        <g id="Black-S">
            <path d="M700,84.077 L675.769,84.077 C671.532,84.077 667.542,86.072 665,89.462 C662.458,86.072 658.468,84.077 654.231,84.077 L630,84.077 C629.286,84.077 628.601,84.361 628.096,84.865 C627.591,85.37 627.308,86.055 627.308,86.769 L627.308,135.231 C627.308,135.945 627.591,136.63 628.096,137.135 C628.601,137.639 629.286,137.923 630,137.923 L654.231,137.923 C656.373,137.923 658.427,138.774 659.942,140.289 C661.457,141.803 662.308,143.858 662.308,146 C662.308,147.487 663.513,148.692 665,148.692 C666.487,148.692 667.692,147.487 667.692,146 C667.692,143.858 668.543,141.803 670.058,140.289 C671.573,138.774 673.627,137.923 675.769,137.923 L700,137.923 C700.714,137.923 701.399,137.639 701.904,137.135 C702.409,136.63 702.692,135.945 702.692,135.231 L702.692,86.769 C702.692,86.055 702.409,85.37 701.904,84.865 C701.399,84.361 700.714,84.077 700,84.077 Z M654.231,132.538 L632.692,132.538 L632.692,89.462 L654.231,89.462 C656.373,89.462 658.427,90.312 659.942,91.827 C661.457,93.342 662.308,95.396 662.308,97.538 L662.308,135.231 C659.98,133.479 657.144,132.534 654.231,132.538 Z M697.308,132.538 L675.769,132.538 C672.856,132.534 670.02,133.479 667.692,135.231 L667.692,97.538 C667.692,95.396 668.543,93.342 670.058,91.827 C671.573,90.312 673.627,89.462 675.769,89.462 L697.308,89.462 Z" />
        </g>
    </g>
</svg>