<?xml version="1.0" encoding="UTF-8"?>
<svg height="600" width="800" xmlns="http://www.w3.org/2000/svg" xmlns:xlink="http://www.w3.org/1999/xlink">
    <g id="Notes" font-family="'LucidaGrande', 'Lucida Grande', sans-serif" font-size="13">
        <rect fill="white" height="600.0" width="800.0" x="0.0" y="0.0" />
        <g font-size="13">
            <text x="18.0" y="176.0">Small</text>
            <text x="18.0" y="376.0">Medium</text>
            <text x="18.0" y="576.0">Large</text>
        </g>
        <g font-size="9">
            <text x="250.0" y="30.0">Ultralight</text>
            <text x="450.0" y="30.0">Regular</text>
            <text x="650.0" y="30.0">Black</text>
            <text id="template-version" fill="#505050" text-anchor="end" x="785.0" y="575.0">Template v.3.0</text>
            <a href="https://github.com/swhitty/SwiftDraw">
                <text fill="#505050" text-anchor="end" x="785.0" y="590.0">https://github.com/swhitty/SwiftDraw</text>
            </a>
        </g>
    </g>
    <g id="Guides" stroke="rgb(39, 170, 225)" stroke-width="0.5">
        <path id="Capline-S" d="M18,76 l800,0" />
        <path id="H-reference" d="M85,145.755 L87.685,145.755 L113.369,79.287 L114.052,79.287 L114.052,76 L112.148,76 L85,145.755 Z M95.693,121.536 L130.996,121.536 L130.263,119.313 L96.474,119.313 L95.693,121.536 Z M139.15,145.755 L141.787,145.755 L114.638,76 L113.466,76 L113.466,79.287 L139.15,145.755 Z" stroke="none" />
        <path id="Baseline-S" d="M18,146 l800,0" />
        <path id="left-margin-Ultralight-S" d="M220,56 l0,110" />
        <path id="right-margin-Ultralight-S" d="M310,56 l0,110" />
        <path id="left-margin-Regular-S" d="M420,56 l0,110" />
        <path id="right-margin-Regular-S" d="M510,56 l0,110" />
        <path id="left-margin-Black-S" d="M620,56 l0,110" />
        <path id="right-margin-Black-S" d="M710,56 l0,110" />
        <path id="Capline-M" d="M18,276 l800,0" />
        <path id="Baseline-M" d="M18,346 l800,0" />
        <path id="Capline-L" d="M18,476 l800,0" />
        <path id="Baseline-L" d="M18,546 l800,0" />
    </g>
    <g id="Symbols">
        <g id="Ultralight-S">
            <path d="M300,100.231 C300.001,99.98 299.967,99.731 299.899,99.49 L295.07,82.596 C294.403,80.294 292.301,78.705 289.904,78.692 L240.096,78.692 C237.699,78.705 235.597,80.294 234.93,82.596 L230.104,99.49 C230.035,99.731 230,99.98 230,100.231 L230,100.231 L230,105.615 C230.002,109.859 231.999,113.848 235.39,116.389 L235.39,140.619 C235.39,141.333 235.674,142.018 236.178,142.523 C236.683,143.028 237.368,143.312 238.082,143.312 L291.923,143.312 C292.637,143.312 293.322,143.028 293.827,142.523 C294.332,142.018 294.615,141.333 294.615,140.619 L294.615,116.385 C298.005,113.842 300,109.853 300,105.615 L300,100.231 Z M240.096,84.077 L289.904,84.077 L293.747,97.538 L236.263,97.538 Z M256.923,102.923 L273.077,102.923 L273.077,105.615 C273.077,110.076 269.461,113.692 265,113.692 C260.539,113.692 256.923,110.076 256.923,105.615 Z M251.538,102.923 L251.538,105.615 C251.537,108.44 250.061,111.059 247.644,112.522 C245.228,113.985 242.223,114.079 239.719,112.77 C239.532,112.624 239.326,112.504 239.107,112.413 C236.789,110.93 235.386,108.368 235.385,105.615 L235.385,102.923 Z M289.231,137.923 L240.769,137.923 L240.769,118.808 C241.656,118.986 242.557,119.077 243.462,119.077 C247.699,119.077 251.689,117.082 254.231,113.692 C256.773,117.082 260.763,119.077 265,119.077 C269.237,119.077 273.227,117.082 275.769,113.692 C278.312,117.082 282.301,119.077 286.538,119.077 C287.443,119.077 288.344,118.986 289.231,118.808 Z M290.89,112.413 C290.674,112.505 290.47,112.623 290.284,112.767 C287.781,114.077 284.775,113.984 282.358,112.522 C279.941,111.06 278.463,108.441 278.462,105.615 L278.462,102.923 L294.615,102.923 L294.615,105.615 C294.613,108.368 293.209,110.93 290.89,112.413 Z" />
        </g>
        <g id="Regular-S">
            <path d="M500,100.231 C500.001,99.98 499.967,99.731 499.899,99.49 L495.07,82.596 C494.403,80.294 492.301,78.705 489.904,78.692 L440.096,78.692 C437.699,78.705 435.597,80.294 434.93,82.596 L430.104,99.49 C430.035,99.731 430,99.98 430,100.231 L430,100.231 L430,105.615 C430.002,109.859 431.999,113.848 435.39,116.389 L435.39,140.619 C435.39,141.333 435.674,142.018 436.178,142.523 C436.683,143.028 437.368,143.312 438.082,143.312 L491.923,143.312 C492.637,143.312 493.322,143.028 493.827,142.523 C494.332,142.018 494.615,141.333 494.615,140.619 L494.615,116.385 C498.005,113.842 500,109.853 500,105.615 L500,100.231 Z M440.096,84.077 L489.904,84.077 L493.747,97.538 L436.263,97.538 Z M456.923,102.923 L473.077,102.923 L473.077,105.615 C473.077,110.076 469.461,113.692 465,113.692 C460.539,113.692 456.923,110.076 456.923,105.615 Z M451.538,102.923 L451.538,105.615 C451.537,108.44 450.061,111.059 447.644,112.522 C445.228,113.985 442.223,114.079 439.719,112.77 C439.532,112.624 439.326,112.504 439.107,112.413 C436.789,110.93 435.386,108.368 435.385,105.615 L435.385,102.923 Z M489.231,137.923 L440.769,137.923 L440.769,118.808 C441.656,118.986 442.557,119.077 443.462,119.077 C447.699,119.077 451.688,117.082 454.231,113.692 C456.773,117.082 460.763,119.077 465,119.077 C469.237,119.077 473.227,117.082 475.769,113.692 C478.311,117.082 482.301,119.077 486.538,119.077 C487.443,119.077 488.344,118.986 489.231,118.808 Z M490.89,112.413 C490.674,112.505 490.47,112.623 490.284,112.767 C487.781,114.077 484.775,113.984 482.358,112.522 C479.941,111.06 478.463,108.441 478.462,105.615 L478.462,102.923 L494.615,102.923 L494.615,105.615 C494.613,108.368 493.209,110.93 490.89,112.413 Z" />
        </g>
        <g id="Black-S">
            <path d="M700,100.231 C700.001,99.98 699.967,99.731 699.899,99.49 L695.07,82.596 C694.403,80.294 692.301,78.705 689.904,78.692 L640.096,78.692 C637.699,78.705 635.597,80.294 634.93,82.596 L630.104,99.49 C630.035,99.731 630,99.98 630,100.231 L630,100.231 L630,105.615 C630.002,109.859 631.999,113.848 635.39,116.389 L635.39,140.619 C635.39,141.333 635.674,142.018 636.178,142.523 C636.683,143.028 637.368,143.312 638.082,143.312 L691.923,143.312 C692.637,143.312 693.322,143.028 693.827,142.523 C694.332,142.018 694.615,141.333 694.615,140.619 L694.615,116.385 C698.005,113.842 700,109.853 700,105.615 L700,100.231 Z M640.096,84.077 L689.904,84.077 L693.747,97.538 L636.263,97.538 Z M656.923,102.923 L673.077,102.923 L673.077,105.615 C673.077,110.076 669.461,113.692 665,113.692 C660.539,113.692 656.923,110.076 656.923,105.615 Z M651.538,102.923 L651.538,105.615 C651.537,108.44 650.061,111.059 647.644,112.522 C645.228,113.985 642.223,114.079 639.719,112.77 C639.532,112.624 639.326,112.504 639.107,112.413 C636.789,110.93 635.386,108.368 635.385,105.615 L635.385,102.923 Z M689.231,137.923 L640.769,137.923 L640.769,118.808 C641.656,118.986 642.557,119.077 643.462,119.077 C647.699,119.077 651.689,117.082 654.231,113.692 C656.773,117.082 660.763,119.077 665,119.077 C669.237,119.077 673.227,117.082 675.769,113.692 C678.312,117.082 682.301,119.077 686.538,119.077 C687.443,119.077 688.344,118.986 689.231,118.808 Z M690.89,112.413 C690.674,112.505 690.47,112.623 690.284,112.767 C687.781,114.077 684.775,113.984 682.358,112.522 C679.941,111.06 678.463,108.441 678.462,105.615 L678.462,102.923 L694.615,102.923 L694.615,105.615 C694.613,108.368 693.209,110.93 690.89,112.413 Z" />
        </g>
    </g>
</svg>