<?xml version="1.0" encoding="UTF-8"?>
<svg height="600" width="800" xmlns="http://www.w3.org/2000/svg" xmlns:xlink="http://www.w3.org/1999/xlink">
    <g id="Notes" font-family="'LucidaGrande', 'Lucida Grande', sans-serif" font-size="13">
        <rect fill="white" height="600.0" width="800.0" x="0.0" y="0.0" />
        <g font-size="13">
            <text x="18.0" y="176.0">Small</text>
            <text x="18.0" y="376.0">Medium</text>
            <text x="18.0" y="576.0">Large</text>
        </g>
        <g font-size="9">
            <text x="250.0" y="30.0">Ultralight</text>
            <text x="450.0" y="30.0">Regular</text>
            <text x="650.0" y="30.0">Black</text>
            <text id="template-version" fill="#505050" text-anchor="end" x="785.0" y="575.0">Template v.3.0</text>
            <a href="https://github.com/swhitty/SwiftDraw">
                <text fill="#505050" text-anchor="end" x="785.0" y="590.0">https://github.com/swhitty/SwiftDraw</text>
            </a>
        </g>
    </g>
    <g id="Guides" stroke="rgb(39, 170, 225)" stroke-width="0.5">
        <path id="Capline-S" d="M18,76 l800,0" />
        <path id="H-reference" d="M85,145.755 L87.685,145.755 L113.369,79.287 L114.052,79.287 L114.052,76 L112.148,76 L85,145.755 Z M95.693,121.536 L130.996,121.536 L130.263,119.313 L96.474,119.313 L95.693,121.536 Z M139.15,145.755 L141.787,145.755 L114.638,76 L113.466,76 L113.466,79.287 L139.15,145.755 Z" stroke="none" />
        <path id="Baseline-S" d="M18,146 l800,0" />
        <path id="left-margin-Ultralight-S" d="M220,56 l0,110" />
        <path id="right-margin-Ultralight-S" d="M310,56 l0,110" />
        <path id="left-margin-Regular-S" d="M420,56 l0,110" />
        <path id="right-margin-Regular-S" d="M510,56 l0,110" />
        <path id="left-margin-Black-S" d="M620,56 l0,110" />
        <path id="right-margin-Black-S" d="M710,56 l0,110" />
        <path id="Capline-M" d="M18,276 l800,0" />
        <path id="Baseline-M" d="M18,346 l800,0" />
        <path id="Capline-L" d="M18,476 l800,0" />
        <path id="Baseline-L" d="M18,546 l800,0" />
    </g>
    <g id="Symbols">
        <g id="Ultralight-S">
            <path d="M300,143.308 L291.923,143.308 L291.923,78.692 L294.615,78.692 C296.102,78.692 297.308,77.487 297.308,76 C297.308,74.513 296.102,73.308 294.615,73.308 L235.385,73.308 C233.898,73.308 232.692,74.513 232.692,76 C232.692,77.487 233.898,78.692 235.385,78.692 L238.077,78.692 L238.077,143.308 L230,143.308 C228.513,143.308 227.308,144.513 227.308,146 C227.308,147.487 228.513,148.692 230,148.692 L300,148.692 C301.487,148.692 302.692,147.487 302.692,146 C302.692,144.513 301.487,143.308 300,143.308 Z M243.462,78.692 L286.538,78.692 L286.538,143.308 L275.769,143.308 L275.769,129.846 C275.769,129.132 275.486,128.447 274.981,127.942 C274.476,127.438 273.791,127.154 273.077,127.154 L256.923,127.154 C256.209,127.154 255.524,127.438 255.019,127.942 C254.514,128.447 254.231,129.132 254.231,129.846 L254.231,143.308 L243.462,143.308 Z M270.385,143.308 L259.615,143.308 L259.615,132.538 L270.385,132.538 Z M251.538,89.462 C251.538,88.747 251.822,88.063 252.327,87.558 C252.832,87.053 253.517,86.769 254.231,86.769 L259.615,86.769 C261.102,86.769 262.308,87.975 262.308,89.462 C262.308,90.948 261.102,92.154 259.615,92.154 L254.231,92.154 C253.517,92.154 252.832,91.87 252.327,91.365 C251.822,90.86 251.538,90.176 251.538,89.462 Z M267.692,89.462 C267.692,88.747 267.976,88.063 268.481,87.558 C268.986,87.053 269.671,86.769 270.385,86.769 L275.769,86.769 C277.256,86.769 278.462,87.975 278.462,89.462 C278.462,90.948 277.256,92.154 275.769,92.154 L270.385,92.154 C269.671,92.154 268.986,91.87 268.481,91.365 C267.976,90.86 267.692,90.176 267.692,89.462 Z M251.538,102.923 C251.538,102.209 251.822,101.524 252.327,101.019 C252.832,100.514 253.517,100.231 254.231,100.231 L259.615,100.231 C261.102,100.231 262.308,101.436 262.308,102.923 C262.308,104.41 261.102,105.615 259.615,105.615 L254.231,105.615 C253.517,105.615 252.832,105.332 252.327,104.827 C251.822,104.322 251.538,103.637 251.538,102.923 Z M267.692,102.923 C267.692,102.209 267.976,101.524 268.481,101.019 C268.986,100.514 269.671,100.231 270.385,100.231 L275.769,100.231 C277.256,100.231 278.462,101.436 278.462,102.923 C278.462,104.41 277.256,105.615 275.769,105.615 L270.385,105.615 C269.671,105.615 268.986,105.332 268.481,104.827 C267.976,104.322 267.692,103.637 267.692,102.923 Z M251.538,116.385 C251.538,115.671 251.822,114.986 252.327,114.481 C252.832,113.976 253.517,113.692 254.231,113.692 L259.615,113.692 C261.102,113.692 262.308,114.898 262.308,116.385 C262.308,117.872 261.102,119.077 259.615,119.077 L254.231,119.077 C253.517,119.077 252.832,118.793 252.327,118.288 C251.822,117.783 251.538,117.099 251.538,116.385 Z M267.692,116.385 C267.692,115.671 267.976,114.986 268.481,114.481 C268.986,113.976 269.671,113.692 270.385,113.692 L275.769,113.692 C277.256,113.692 278.462,114.898 278.462,116.385 C278.462,117.872 277.256,119.077 275.769,119.077 L270.385,119.077 C269.671,119.077 268.986,118.793 268.481,118.288 C267.976,117.783 267.692,117.099 267.692,116.385 Z" />
        </g>
        <g id="Regular-S">
            <path d="M500,143.308 L491.923,143.308 L491.923,78.692 L494.615,78.692 C496.102,78.692 497.308,77.487 497.308,76 C497.308,74.513 496.102,73.308 494.615,73.308 L435.385,73.308 C433.898,73.308 432.692,74.513 432.692,76 C432.692,77.487 433.898,78.692 435.385,78.692 L438.077,78.692 L438.077,143.308 L430,143.308 C428.513,143.308 427.308,144.513 427.308,146 C427.308,147.487 428.513,148.692 430,148.692 L500,148.692 C501.487,148.692 502.692,147.487 502.692,146 C502.692,144.513 501.487,143.308 500,143.308 Z M443.462,78.692 L486.538,78.692 L486.538,143.308 L475.769,143.308 L475.769,129.846 C475.769,129.132 475.486,128.447 474.981,127.942 C474.476,127.438 473.791,127.154 473.077,127.154 L456.923,127.154 C456.209,127.154 455.524,127.438 455.019,127.942 C454.514,128.447 454.231,129.132 454.231,129.846 L454.231,143.308 L443.462,143.308 Z M470.385,143.308 L459.615,143.308 L459.615,132.538 L470.385,132.538 Z M451.538,89.462 C451.538,88.747 451.822,88.063 452.327,87.558 C452.832,87.053 453.517,86.769 454.231,86.769 L459.615,86.769 C461.102,86.769 462.308,87.975 462.308,89.462 C462.308,90.948 461.102,92.154 459.615,92.154 L454.231,92.154 C453.517,92.154 452.832,91.87 452.327,91.365 C451.822,90.86 451.538,90.176 451.538,89.462 Z M467.692,89.462 C467.692,88.747 467.976,88.063 468.481,87.558 C468.986,87.053 469.671,86.769 470.385,86.769 L475.769,86.769 C477.256,86.769 478.462,87.975 478.462,89.462 C478.462,90.948 477.256,92.154 475.769,92.154 L470.385,92.154 C469.671,92.154 468.986,91.87 468.481,91.365 C467.976,90.86 467.692,90.176 467.692,89.462 Z M451.538,102.923 C451.538,102.209 451.822,101.524 452.327,101.019 C452.832,100.514 453.517,100.231 454.231,100.231 L459.615,100.231 C461.102,100.231 462.308,101.436 462.308,102.923 C462.308,104.41 461.102,105.615 459.615,105.615 L454.231,105.615 C453.517,105.615 452.832,105.332 452.327,104.827 C451.822,104.322 451.538,103.637 451.538,102.923 Z M467.692,102.923 C467.692,102.209 467.976,101.524 468.481,101.019 C468.986,100.514 469.671,100.231 470.385,100.231 L475.769,100.231 C477.256,100.231 478.462,101.436 478.462,102.923 C478.462,104.41 477.256,105.615 475.769,105.615 L470.385,105.615 C469.671,105.615 468.986,105.332 468.481,104.827 C467.976,104.322 467.692,103.637 467.692,102.923 Z M451.538,116.385 C451.538,115.671 451.822,114.986 452.327,114.481 C452.832,113.976 453.517,113.692 454.231,113.692 L459.615,113.692 C461.102,113.692 462.308,114.898 462.308,116.385 C462.308,117.872 461.102,119.077 459.615,119.077 L454.231,119.077 C453.517,119.077 452.832,118.793 452.327,118.288 C451.822,117.783 451.538,117.099 451.538,116.385 Z M467.692,116.385 C467.692,115.671 467.976,114.986 468.481,114.481 C468.986,113.976 469.671,113.692 470.385,113.692 L475.769,113.692 C477.256,113.692 478.462,114.898 478.462,116.385 C478.462,117.872 477.256,119.077 475.769,119.077 L470.385,119.077 C469.671,119.077 468.986,118.793 468.481,118.288 C467.976,117.783 467.692,117.099 467.692,116.385 Z" />
        </g>
        <g id="Black-S">
            <path d="M700,143.308 L691.923,143.308 L691.923,78.692 L694.615,78.692 C696.102,78.692 697.308,77.487 697.308,76 C697.308,74.513 696.102,73.308 694.615,73.308 L635.385,73.308 C633.898,73.308 632.692,74.513 632.692,76 C632.692,77.487 633.898,78.692 635.385,78.692 L638.077,78.692 L638.077,143.308 L630,143.308 C628.513,143.308 627.308,144.513 627.308,146 C627.308,147.487 628.513,148.692 630,148.692 L700,148.692 C701.487,148.692 702.692,147.487 702.692,146 C702.692,144.513 701.487,143.308 700,143.308 Z M643.462,78.692 L686.538,78.692 L686.538,143.308 L675.769,143.308 L675.769,129.846 C675.769,129.132 675.486,128.447 674.981,127.942 C674.476,127.438 673.791,127.154 673.077,127.154 L656.923,127.154 C656.209,127.154 655.524,127.438 655.019,127.942 C654.514,128.447 654.231,129.132 654.231,129.846 L654.231,143.308 L643.462,143.308 Z M670.385,143.308 L659.615,143.308 L659.615,132.538 L670.385,132.538 Z M651.538,89.462 C651.538,88.747 651.822,88.063 652.327,87.558 C652.832,87.053 653.517,86.769 654.231,86.769 L659.615,86.769 C661.102,86.769 662.308,87.975 662.308,89.462 C662.308,90.948 661.102,92.154 659.615,92.154 L654.231,92.154 C653.517,92.154 652.832,91.87 652.327,91.365 C651.822,90.86 651.538,90.176 651.538,89.462 Z M667.692,89.462 C667.692,88.747 667.976,88.063 668.481,87.558 C668.986,87.053 669.671,86.769 670.385,86.769 L675.769,86.769 C677.256,86.769 678.462,87.975 678.462,89.462 C678.462,90.948 677.256,92.154 675.769,92.154 L670.385,92.154 C669.671,92.154 668.986,91.87 668.481,91.365 C667.976,90.86 667.692,90.176 667.692,89.462 Z M651.538,102.923 C651.538,102.209 651.822,101.524 652.327,101.019 C652.832,100.514 653.517,100.231 654.231,100.231 L659.615,100.231 C661.102,100.231 662.308,101.436 662.308,102.923 C662.308,104.41 661.102,105.615 659.615,105.615 L654.231,105.615 C653.517,105.615 652.832,105.332 652.327,104.827 C651.822,104.322 651.538,103.637 651.538,102.923 Z M667.692,102.923 C667.692,102.209 667.976,101.524 668.481,101.019 C668.986,100.514 669.671,100.231 670.385,100.231 L675.769,100.231 C677.256,100.231 678.462,101.436 678.462,102.923 C678.462,104.41 677.256,105.615 675.769,105.615 L670.385,105.615 C669.671,105.615 668.986,105.332 668.481,104.827 C667.976,104.322 667.692,103.637 667.692,102.923 Z M651.538,116.385 C651.538,115.671 651.822,114.986 652.327,114.481 C652.832,113.976 653.517,113.692 654.231,113.692 L659.615,113.692 C661.102,113.692 662.308,114.898 662.308,116.385 C662.308,117.872 661.102,119.077 659.615,119.077 L654.231,119.077 C653.517,119.077 652.832,118.793 652.327,118.288 C651.822,117.783 651.538,117.099 651.538,116.385 Z M667.692,116.385 C667.692,115.671 667.976,114.986 668.481,114.481 C668.986,113.976 669.671,113.692 670.385,113.692 L675.769,113.692 C677.256,113.692 678.462,114.898 678.462,116.385 C678.462,117.872 677.256,119.077 675.769,119.077 L670.385,119.077 C669.671,119.077 668.986,118.793 668.481,118.288 C667.976,117.783 667.692,117.099 667.692,116.385 Z" />
        </g>
    </g>
</svg>