<?xml version="1.0" encoding="UTF-8"?>
<svg height="600" width="800" xmlns="http://www.w3.org/2000/svg" xmlns:xlink="http://www.w3.org/1999/xlink">
    <g id="Notes" font-family="'LucidaGrande', 'Lucida Grande', sans-serif" font-size="13">
        <rect fill="white" height="600.0" width="800.0" x="0.0" y="0.0" />
        <g font-size="13">
            <text x="18.0" y="176.0">Small</text>
            <text x="18.0" y="376.0">Medium</text>
            <text x="18.0" y="576.0">Large</text>
        </g>
        <g font-size="9">
            <text x="250.0" y="30.0">Ultralight</text>
            <text x="450.0" y="30.0">Regular</text>
            <text x="650.0" y="30.0">Black</text>
            <text id="template-version" fill="#505050" text-anchor="end" x="785.0" y="575.0">Template v.3.0</text>
            <a href="https://github.com/swhitty/SwiftDraw">
                <text fill="#505050" text-anchor="end" x="785.0" y="590.0">https://github.com/swhitty/SwiftDraw</text>
            </a>
        </g>
    </g>
    <g id="Guides" stroke="rgb(39, 170, 225)" stroke-width="0.5">
        <path id="Capline-S" d="M18,76 l800,0" />
        <path id="H-reference" d="M85,145.755 L87.685,145.755 L113.369,79.287 L114.052,79.287 L114.052,76 L112.148,76 L85,145.755 Z M95.693,121.536 L130.996,121.536 L130.263,119.313 L96.474,119.313 L95.693,121.536 Z M139.15,145.755 L141.787,145.755 L114.638,76 L113.466,76 L113.466,79.287 L139.15,145.755 Z" stroke="none" />
        <path id="Baseline-S" d="M18,146 l800,0" />
        <path id="left-margin-Ultralight-S" d="M220,56 l0,110" />
        <path id="right-margin-Ultralight-S" d="M310,56 l0,110" />
        <path id="left-margin-Regular-S" d="M420,56 l0,110" />
        <path id="right-margin-Regular-S" d="M510,56 l0,110" />
        <path id="left-margin-Black-S" d="M620,56 l0,110" />
        <path id="right-margin-Black-S" d="M710,56 l0,110" />
        <path id="Capline-M" d="M18,276 l800,0" />
        <path id="Baseline-M" d="M18,346 l800,0" />
        <path id="Capline-L" d="M18,476 l800,0" />
        <path id="Baseline-L" d="M18,546 l800,0" />
    </g>
    <g id="Symbols">
        <g id="Ultralight-S">
            <path d="M283.594,89.192 C279.219,82.324 272.791,78.692 265,78.692 C257.209,78.692 250.781,82.324 246.406,89.192 C242.788,94.907 240.769,102.65 240.769,111 C240.769,119.35 242.788,127.093 246.406,132.808 C250.781,139.676 257.209,143.308 265,143.308 C272.791,143.308 279.219,139.676 283.594,132.808 C287.228,127.087 289.231,119.346 289.231,111 C289.231,102.654 287.228,94.907 283.594,89.192 Z M265,137.923 C251.983,137.923 246.154,124.401 246.154,111 C246.154,97.599 251.983,84.077 265,84.077 C278.017,84.077 283.846,97.599 283.846,111 C283.846,124.401 278.017,137.923 265,137.923 Z" />
        </g>
        <g id="Regular-S">
            <path d="M483.594,89.192 C479.219,82.324 472.791,78.692 465,78.692 C457.209,78.692 450.781,82.324 446.406,89.192 C442.788,94.907 440.769,102.65 440.769,111 C440.769,119.35 442.788,127.093 446.406,132.808 C450.781,139.676 457.209,143.308 465,143.308 C472.791,143.308 479.219,139.676 483.594,132.808 C487.228,127.087 489.231,119.346 489.231,111 C489.231,102.654 487.228,94.907 483.594,89.192 Z M465,137.923 C451.983,137.923 446.154,124.401 446.154,111 C446.154,97.599 451.983,84.077 465,84.077 C478.017,84.077 483.846,97.599 483.846,111 C483.846,124.401 478.017,137.923 465,137.923 Z" />
        </g>
        <g id="Black-S">
            <path d="M683.594,89.192 C679.219,82.324 672.791,78.692 665,78.692 C657.209,78.692 650.781,82.324 646.406,89.192 C642.788,94.907 640.769,102.65 640.769,111 C640.769,119.35 642.788,127.093 646.406,132.808 C650.781,139.676 657.209,143.308 665,143.308 C672.791,143.308 679.219,139.676 683.594,132.808 C687.228,127.087 689.231,119.346 689.231,111 C689.231,102.654 687.228,94.907 683.594,89.192 Z M665,137.923 C651.983,137.923 646.154,124.401 646.154,111 C646.154,97.599 651.983,84.077 665,84.077 C678.017,84.077 683.846,97.599 683.846,111 C683.846,124.401 678.017,137.923 665,137.923 Z" />
        </g>
    </g>
</svg>