<?xml version="1.0" encoding="UTF-8"?>
<svg height="600" width="800" xmlns="http://www.w3.org/2000/svg" xmlns:xlink="http://www.w3.org/1999/xlink">
    <g id="Notes" font-family="'LucidaGrande', 'Lucida Grande', sans-serif" font-size="13">
        <rect fill="white" height="600.0" width="800.0" x="0.0" y="0.0" />
        <g font-size="13">
            <text x="18.0" y="176.0">Small</text>
            <text x="18.0" y="376.0">Medium</text>
            <text x="18.0" y="576.0">Large</text>
        </g>
        <g font-size="9">
            <text x="250.0" y="30.0">Ultralight</text>
            <text x="450.0" y="30.0">Regular</text>
            <text x="650.0" y="30.0">Black</text>
            <text id="template-version" fill="#505050" text-anchor="end" x="785.0" y="575.0">Template v.3.0</text>
            <a href="https://github.com/swhitty/SwiftDraw">
                <text fill="#505050" text-anchor="end" x="785.0" y="590.0">https://github.com/swhitty/SwiftDraw</text>
            </a>
        </g>
    </g>
    <g id="Guides" stroke="rgb(39, 170, 225)" stroke-width="0.5">
        <path id="Capline-S" d="M18,76 l800,0" />
        <path id="H-reference" d="M85,145.755 L87.685,145.755 L113.369,79.287 L114.052,79.287 L114.052,76 L112.148,76 L85,145.755 Z M95.693,121.536 L130.996,121.536 L130.263,119.313 L96.474,119.313 L95.693,121.536 Z M139.15,145.755 L141.787,145.755 L114.638,76 L113.466,76 L113.466,79.287 L139.15,145.755 Z" stroke="none" />
        <path id="Baseline-S" d="M18,146 l800,0" />
        <path id="left-margin-Ultralight-S" d="M220,56 l0,110" />
        <path id="right-margin-Ultralight-S" d="M310,56 l0,110" />
        <path id="left-margin-Regular-S" d="M420,56 l0,110" />
        <path id="right-margin-Regular-S" d="M510,56 l0,110" />
        <path id="left-margin-Black-S" d="M620,56 l0,110" />
        <path id="right-margin-Black-S" d="M710,56 l0,110" />
        <path id="Capline-M" d="M18,276 l800,0" />
        <path id="Baseline-M" d="M18,346 l800,0" />
        <path id="Capline-L" d="M18,476 l800,0" />
        <path id="Baseline-L" d="M18,546 l800,0" />
    </g>
    <g id="Symbols">
        <g id="Ultralight-S">
            <path d="M302.692,97.616 C302.557,102.303 300.63,106.759 297.308,110.068 L285.613,121.769 C282.173,125.228 277.491,127.167 272.612,127.154 L272.596,127.154 C267.633,127.15 262.882,125.14 259.423,121.581 C255.964,118.022 254.092,113.215 254.231,108.254 C254.23,106.842 255.436,105.636 256.923,105.636 C258.411,105.636 259.616,106.842 259.616,108.33 C259.497,111.85 260.811,115.269 263.258,117.802 C265.706,120.336 269.076,121.767 272.599,121.769 L272.599,121.769 C276.048,121.778 279.357,120.408 281.79,117.963 L293.485,106.268 C298.507,101.182 298.482,92.995 293.427,87.94 C288.373,82.886 280.186,82.86 275.1,87.883 L271.398,91.585 C270.339,92.591 268.672,92.569 267.64,91.537 C266.607,90.505 266.586,88.837 267.591,87.779 L271.293,84.077 C274.743,80.626 279.422,78.688 284.3,78.688 C289.179,78.688 293.858,80.626 297.308,84.077 C300.883,87.661 302.829,92.556 302.692,97.616 Z M258.606,130.405 L254.904,134.107 C252.465,136.562 249.143,137.937 245.683,137.923 L245.683,137.923 C240.427,137.919 235.691,134.75 233.681,129.894 C231.671,125.038 232.783,119.449 236.499,115.732 L248.173,104.037 C251.936,100.254 257.628,99.155 262.529,101.264 C267.429,103.373 270.544,108.262 270.385,113.595 C270.384,115.158 271.589,116.364 273.077,116.364 C274.564,116.364 275.77,115.158 275.77,113.67 C275.88,108.644 273.935,103.791 270.385,100.231 C263.203,93.052 251.562,93.052 244.38,100.231 L232.692,111.925 C227.436,117.18 225.861,125.082 228.701,131.95 C231.541,138.818 238.237,143.3 245.669,143.308 L245.669,143.308 C250.549,143.322 255.232,141.383 258.673,137.923 L262.375,134.221 C263.278,133.157 263.219,131.58 262.238,130.587 C261.257,129.594 259.681,129.515 258.606,130.405 Z" />
        </g>
        <g id="Regular-S">
            <path d="M502.692,97.616 C502.557,102.303 500.63,106.759 497.308,110.068 L485.613,121.769 C482.173,125.228 477.491,127.167 472.612,127.154 L472.596,127.154 C467.633,127.15 462.882,125.14 459.423,121.581 C455.964,118.022 454.092,113.215 454.231,108.254 C454.23,106.842 455.436,105.636 456.923,105.636 C458.411,105.636 459.616,106.842 459.616,108.33 C459.496,111.85 460.811,115.269 463.258,117.802 C465.705,120.336 469.076,121.767 472.599,121.769 L472.599,121.769 C476.048,121.778 479.357,120.408 481.79,117.963 L493.485,106.268 C498.507,101.182 498.482,92.995 493.427,87.94 C488.373,82.886 480.186,82.86 475.1,87.883 L471.398,91.585 C470.339,92.591 468.672,92.569 467.64,91.537 C466.607,90.505 466.586,88.837 467.591,87.779 L471.293,84.077 C474.743,80.626 479.422,78.688 484.3,78.688 C489.179,78.688 493.858,80.626 497.308,84.077 C500.883,87.661 502.829,92.556 502.692,97.616 Z M458.606,130.405 L454.904,134.107 C452.465,136.562 449.143,137.937 445.683,137.923 L445.683,137.923 C440.427,137.919 435.691,134.75 433.681,129.894 C431.671,125.038 432.783,119.449 436.499,115.732 L448.173,104.037 C451.936,100.254 457.628,99.155 462.529,101.264 C467.429,103.373 470.544,108.262 470.385,113.595 C470.384,115.158 471.589,116.364 473.077,116.364 C474.564,116.364 475.77,115.158 475.77,113.67 C475.88,108.644 473.935,103.791 470.385,100.231 C463.203,93.052 451.562,93.052 444.38,100.231 L432.692,111.925 C427.436,117.18 425.861,125.082 428.701,131.95 C431.541,138.818 438.237,143.3 445.669,143.308 L445.669,143.308 C450.549,143.322 455.232,141.383 458.673,137.923 L462.375,134.221 C463.278,133.157 463.219,131.58 462.238,130.587 C461.257,129.594 459.681,129.515 458.606,130.405 Z" />
        </g>
        <g id="Black-S">
            <path d="M702.692,97.616 C702.557,102.303 700.63,106.759 697.308,110.068 L685.613,121.769 C682.173,125.228 677.491,127.167 672.613,127.154 L672.596,127.154 C667.633,127.15 662.882,125.14 659.423,121.581 C655.964,118.022 654.092,113.215 654.231,108.254 C654.23,106.842 655.436,105.636 656.923,105.636 C658.411,105.636 659.616,106.842 659.616,108.33 C659.497,111.85 660.811,115.269 663.258,117.802 C665.706,120.336 669.076,121.767 672.599,121.769 L672.599,121.769 C676.048,121.778 679.357,120.408 681.79,117.963 L693.485,106.268 C698.508,101.182 698.482,92.995 693.427,87.94 C688.373,82.886 680.186,82.86 675.1,87.883 L671.398,91.585 C670.339,92.591 668.672,92.569 667.64,91.537 C666.607,90.505 666.586,88.837 667.591,87.779 L671.293,84.077 C674.743,80.626 679.422,78.688 684.3,78.688 C689.179,78.688 693.858,80.626 697.308,84.077 C700.883,87.661 702.829,92.556 702.692,97.616 Z M658.606,130.405 L654.904,134.107 C652.465,136.562 649.143,137.937 645.683,137.923 L645.683,137.923 C640.427,137.919 635.691,134.75 633.681,129.894 C631.671,125.038 632.783,119.449 636.499,115.732 L648.173,104.037 C651.936,100.254 657.628,99.155 662.529,101.264 C667.43,103.373 670.544,108.262 670.385,113.595 C670.384,115.158 671.589,116.364 673.077,116.364 C674.564,116.364 675.77,115.158 675.77,113.67 C675.88,108.644 673.935,103.791 670.385,100.231 C663.203,93.052 651.562,93.052 644.38,100.231 L632.692,111.925 C627.436,117.18 625.861,125.082 628.701,131.95 C631.541,138.818 638.237,143.3 645.669,143.308 L645.669,143.308 C650.549,143.322 655.232,141.383 658.673,137.923 L662.375,134.221 C663.278,133.157 663.219,131.58 662.238,130.587 C661.258,129.594 659.681,129.515 658.606,130.405 Z" />
        </g>
    </g>
</svg>