<?xml version="1.0" encoding="UTF-8"?>
<svg height="600" width="800" xmlns="http://www.w3.org/2000/svg" xmlns:xlink="http://www.w3.org/1999/xlink">
    <g id="Notes" font-family="'LucidaGrande', 'Lucida Grande', sans-serif" font-size="13">
        <rect fill="white" height="600.0" width="800.0" x="0.0" y="0.0" />
        <g font-size="13">
            <text x="18.0" y="176.0">Small</text>
            <text x="18.0" y="376.0">Medium</text>
            <text x="18.0" y="576.0">Large</text>
        </g>
        <g font-size="9">
            <text x="250.0" y="30.0">Ultralight</text>
            <text x="450.0" y="30.0">Regular</text>
            <text x="650.0" y="30.0">Black</text>
            <text id="template-version" fill="#505050" text-anchor="end" x="785.0" y="575.0">Template v.3.0</text>
            <a href="https://github.com/swhitty/SwiftDraw">
                <text fill="#505050" text-anchor="end" x="785.0" y="590.0">https://github.com/swhitty/SwiftDraw</text>
            </a>
        </g>
    </g>
    <g id="Guides" stroke="rgb(39, 170, 225)" stroke-width="0.5">
        <path id="Capline-S" d="M18,76 l800,0" />
        <path id="H-reference" d="M85,145.755 L87.685,145.755 L113.369,79.287 L114.052,79.287 L114.052,76 L112.148,76 L85,145.755 Z M95.693,121.536 L130.996,121.536 L130.263,119.313 L96.474,119.313 L95.693,121.536 Z M139.15,145.755 L141.787,145.755 L114.638,76 L113.466,76 L113.466,79.287 L139.15,145.755 Z" stroke="none" />
        <path id="Baseline-S" d="M18,146 l800,0" />
        <path id="left-margin-Ultralight-S" d="M220,56 l0,110" />
        <path id="right-margin-Ultralight-S" d="M310,56 l0,110" />
        <path id="left-margin-Regular-S" d="M420,56 l0,110" />
        <path id="right-margin-Regular-S" d="M510,56 l0,110" />
        <path id="left-margin-Black-S" d="M620,56 l0,110" />
        <path id="right-margin-Black-S" d="M710,56 l0,110" />
        <path id="Capline-M" d="M18,276 l800,0" />
        <path id="Baseline-M" d="M18,346 l800,0" />
        <path id="Capline-L" d="M18,476 l800,0" />
        <path id="Baseline-L" d="M18,546 l800,0" />
    </g>
    <g id="Symbols">
        <g id="Ultralight-S">
            <path d="M265,76 C245.67,76 230,91.67 230,111 C230,130.33 245.67,146 265,146 C284.33,146 300,130.33 300,111 C299.979,91.677 284.32,76.02 264.999,76 Z M265,140.615 C248.644,140.615 235.385,127.356 235.385,111 C235.385,94.644 248.644,81.385 265,81.385 C281.356,81.385 294.615,94.644 294.615,111 C294.598,127.347 281.35,140.596 265.001,140.615 Z M281.235,108.718 L259.696,95.257 C258.866,94.738 257.821,94.711 256.965,95.185 C256.109,95.659 255.577,96.56 255.577,97.538 L255.577,124.462 C255.577,125.44 256.109,126.341 256.965,126.815 C257.821,127.289 258.866,127.262 259.696,126.743 L281.235,113.282 C282.021,112.789 282.498,111.927 282.498,111 C282.498,110.073 282.021,109.211 281.235,108.718 Z M260.962,119.605 L260.962,102.395 L274.729,111 Z" />
        </g>
        <g id="Regular-S">
            <path d="M465,76 C445.67,76 430,91.67 430,111 C430,130.33 445.67,146 465,146 C484.33,146 500,130.33 500,111 C499.979,91.677 484.32,76.02 464.999,76 Z M465,140.615 C448.644,140.615 435.385,127.356 435.385,111 C435.385,94.644 448.644,81.385 465,81.385 C481.356,81.385 494.615,94.644 494.615,111 C494.598,127.347 481.35,140.596 465.001,140.615 Z M481.235,108.718 L459.696,95.257 C458.866,94.738 457.821,94.711 456.965,95.185 C456.109,95.659 455.577,96.56 455.577,97.538 L455.577,124.462 C455.577,125.44 456.109,126.341 456.965,126.815 C457.821,127.289 458.866,127.262 459.696,126.743 L481.235,113.282 C482.021,112.789 482.498,111.927 482.498,111 C482.498,110.073 482.021,109.211 481.235,108.718 Z M460.962,119.605 L460.962,102.395 L474.729,111 Z" />
        </g>
        <g id="Black-S">
            <path d="M665,76 C645.67,76 630,91.67 630,111 C630,130.33 645.67,146 665,146 C684.33,146 700,130.33 700,111 C699.979,91.677 684.32,76.02 664.999,76 Z M665,140.615 C648.644,140.615 635.385,127.356 635.385,111 C635.385,94.644 648.644,81.385 665,81.385 C681.356,81.385 694.615,94.644 694.615,111 C694.598,127.347 681.35,140.596 665.001,140.615 Z M681.235,108.718 L659.696,95.257 C658.866,94.738 657.821,94.711 656.965,95.185 C656.109,95.659 655.577,96.56 655.577,97.538 L655.577,124.462 C655.577,125.44 656.109,126.341 656.965,126.815 C657.821,127.289 658.866,127.262 659.696,126.743 L681.235,113.282 C682.021,112.789 682.498,111.927 682.498,111 C682.498,110.073 682.021,109.211 681.235,108.718 Z M660.962,119.605 L660.962,102.395 L674.729,111 Z" />
        </g>
    </g>
</svg>