<?xml version="1.0" encoding="UTF-8"?>
<svg height="600" width="800" xmlns="http://www.w3.org/2000/svg" xmlns:xlink="http://www.w3.org/1999/xlink">
    <g id="Notes" font-family="'LucidaGrande', 'Lucida Grande', sans-serif" font-size="13">
        <rect fill="white" height="600.0" width="800.0" x="0.0" y="0.0" />
        <g font-size="13">
            <text x="18.0" y="176.0">Small</text>
            <text x="18.0" y="376.0">Medium</text>
            <text x="18.0" y="576.0">Large</text>
        </g>
        <g font-size="9">
            <text x="250.0" y="30.0">Ultralight</text>
            <text x="450.0" y="30.0">Regular</text>
            <text x="650.0" y="30.0">Black</text>
            <text id="template-version" fill="#505050" text-anchor="end" x="785.0" y="575.0">Template v.3.0</text>
            <a href="https://github.com/swhitty/SwiftDraw">
                <text fill="#505050" text-anchor="end" x="785.0" y="590.0">https://github.com/swhitty/SwiftDraw</text>
            </a>
        </g>
    </g>
    <g id="Guides" stroke="rgb(39, 170, 225)" stroke-width="0.5">
        <path id="Capline-S" d="M18,76 l800,0" />
        <path id="H-reference" d="M85,145.755 L87.685,145.755 L113.369,79.287 L114.052,79.287 L114.052,76 L112.148,76 L85,145.755 Z M95.693,121.536 L130.996,121.536 L130.263,119.313 L96.474,119.313 L95.693,121.536 Z M139.15,145.755 L141.787,145.755 L114.638,76 L113.466,76 L113.466,79.287 L139.15,145.755 Z" stroke="none" />
        <path id="Baseline-S" d="M18,146 l800,0" />
        <path id="left-margin-Ultralight-S" d="M220,56 l0,110" />
        <path id="right-margin-Ultralight-S" d="M310,56 l0,110" />
        <path id="left-margin-Regular-S" d="M420,56 l0,110" />
        <path id="right-margin-Regular-S" d="M510,56 l0,110" />
        <path id="left-margin-Black-S" d="M620,56 l0,110" />
        <path id="right-margin-Black-S" d="M710,56 l0,110" />
        <path id="Capline-M" d="M18,276 l800,0" />
        <path id="Baseline-M" d="M18,346 l800,0" />
        <path id="Capline-L" d="M18,476 l800,0" />
        <path id="Baseline-L" d="M18,546 l800,0" />
    </g>
    <g id="Symbols">
        <g id="Ultralight-S">
            <path d="M297.308,140.615 C297.308,141.329 297.024,142.014 296.519,142.519 C296.014,143.024 295.329,143.308 294.615,143.308 L235.385,143.308 C233.898,143.308 232.692,142.102 232.692,140.615 C232.692,139.128 233.898,137.923 235.385,137.923 L294.615,137.923 C295.329,137.923 296.014,138.207 296.519,138.712 C297.024,139.217 297.308,139.901 297.308,140.615 Z M248.846,127.154 C249.56,127.154 250.246,126.871 250.751,126.366 L283.846,93.268 L283.846,119.077 C283.846,120.564 285.052,121.769 286.538,121.769 C288.025,121.769 289.231,120.564 289.231,119.077 L289.231,86.769 C289.231,86.055 288.947,85.37 288.442,84.865 C287.937,84.361 287.253,84.077 286.538,84.077 L254.231,84.077 C252.744,84.077 251.538,85.282 251.538,86.769 C251.538,88.256 252.744,89.462 254.231,89.462 L280.04,89.462 L246.941,122.557 C246.17,123.327 245.94,124.486 246.357,125.492 C246.774,126.499 247.757,127.155 248.846,127.154 Z" />
        </g>
        <g id="Regular-S">
            <path d="M497.308,140.615 C497.308,141.329 497.024,142.014 496.519,142.519 C496.014,143.024 495.329,143.308 494.615,143.308 L435.385,143.308 C433.898,143.308 432.692,142.102 432.692,140.615 C432.692,139.128 433.898,137.923 435.385,137.923 L494.615,137.923 C495.329,137.923 496.014,138.207 496.519,138.712 C497.024,139.217 497.308,139.901 497.308,140.615 Z M448.846,127.154 C449.56,127.154 450.246,126.871 450.751,126.366 L483.846,93.268 L483.846,119.077 C483.846,120.564 485.052,121.769 486.538,121.769 C488.025,121.769 489.231,120.564 489.231,119.077 L489.231,86.769 C489.231,86.055 488.947,85.37 488.442,84.865 C487.937,84.361 487.253,84.077 486.538,84.077 L454.231,84.077 C452.744,84.077 451.538,85.282 451.538,86.769 C451.538,88.256 452.744,89.462 454.231,89.462 L480.04,89.462 L446.941,122.557 C446.17,123.327 445.94,124.486 446.357,125.492 C446.774,126.499 447.757,127.155 448.846,127.154 Z" />
        </g>
        <g id="Black-S">
            <path d="M697.308,140.615 C697.308,141.329 697.024,142.014 696.519,142.519 C696.014,143.024 695.329,143.308 694.615,143.308 L635.385,143.308 C633.898,143.308 632.692,142.102 632.692,140.615 C632.692,139.128 633.898,137.923 635.385,137.923 L694.615,137.923 C695.329,137.923 696.014,138.207 696.519,138.712 C697.024,139.217 697.308,139.901 697.308,140.615 Z M648.846,127.154 C649.56,127.154 650.246,126.871 650.751,126.366 L683.846,93.268 L683.846,119.077 C683.846,120.564 685.052,121.769 686.538,121.769 C688.025,121.769 689.231,120.564 689.231,119.077 L689.231,86.769 C689.231,86.055 688.947,85.37 688.442,84.865 C687.937,84.361 687.253,84.077 686.538,84.077 L654.231,84.077 C652.744,84.077 651.538,85.282 651.538,86.769 C651.538,88.256 652.744,89.462 654.231,89.462 L680.04,89.462 L646.941,122.557 C646.17,123.327 645.94,124.486 646.357,125.492 C646.774,126.499 647.757,127.155 648.846,127.154 Z" />
        </g>
    </g>
</svg>