<?xml version="1.0" encoding="UTF-8"?>
<svg height="600" width="800" xmlns="http://www.w3.org/2000/svg" xmlns:xlink="http://www.w3.org/1999/xlink">
    <g id="Notes" font-family="'LucidaGrande', 'Lucida Grande', sans-serif" font-size="13">
        <rect fill="white" height="600.0" width="800.0" x="0.0" y="0.0" />
        <g font-size="13">
            <text x="18.0" y="176.0">Small</text>
            <text x="18.0" y="376.0">Medium</text>
            <text x="18.0" y="576.0">Large</text>
        </g>
        <g font-size="9">
            <text x="250.0" y="30.0">Ultralight</text>
            <text x="450.0" y="30.0">Regular</text>
            <text x="650.0" y="30.0">Black</text>
            <text id="template-version" fill="#505050" text-anchor="end" x="785.0" y="575.0">Template v.3.0</text>
            <a href="https://github.com/swhitty/SwiftDraw">
                <text fill="#505050" text-anchor="end" x="785.0" y="590.0">https://github.com/swhitty/SwiftDraw</text>
            </a>
        </g>
    </g>
    <g id="Guides" stroke="rgb(39, 170, 225)" stroke-width="0.5">
        <path id="Capline-S" d="M18,76 l800,0" />
        <path id="H-reference" d="M85,145.755 L87.685,145.755 L113.369,79.287 L114.052,79.287 L114.052,76 L112.148,76 L85,145.755 Z M95.693,121.536 L130.996,121.536 L130.263,119.313 L96.474,119.313 L95.693,121.536 Z M139.15,145.755 L141.787,145.755 L114.638,76 L113.466,76 L113.466,79.287 L139.15,145.755 Z" stroke="none" />
        <path id="Baseline-S" d="M18,146 l800,0" />
        <path id="left-margin-Ultralight-S" d="M220,56 l0,110" />
        <path id="right-margin-Ultralight-S" d="M310,56 l0,110" />
        <path id="left-margin-Regular-S" d="M420,56 l0,110" />
        <path id="right-margin-Regular-S" d="M510,56 l0,110" />
        <path id="left-margin-Black-S" d="M620,56 l0,110" />
        <path id="right-margin-Black-S" d="M710,56 l0,110" />
        <path id="Capline-M" d="M18,276 l800,0" />
        <path id="Baseline-M" d="M18,346 l800,0" />
        <path id="Capline-L" d="M18,476 l800,0" />
        <path id="Baseline-L" d="M18,546 l800,0" />
    </g>
    <g id="Symbols">
        <g id="Ultralight-S">
            <path d="M254.231,137.923 C254.231,138.637 253.947,139.322 253.442,139.827 C252.937,140.332 252.253,140.615 251.538,140.615 L235.385,140.615 C232.5,140.614 229.835,139.073 228.393,136.575 C226.952,134.076 226.952,130.998 228.395,128.5 L239.935,108.56 L235.206,109.822 C233.768,110.207 232.288,109.353 231.902,107.912 C231.516,106.472 232.371,104.992 233.811,104.606 L244.839,101.655 C245.529,101.47 246.265,101.567 246.883,101.924 C247.502,102.281 247.953,102.87 248.138,103.56 L251.096,114.588 C251.284,115.281 251.188,116.02 250.829,116.642 C250.47,117.264 249.877,117.716 249.183,117.899 C248.954,117.959 248.719,117.989 248.483,117.99 C247.265,117.989 246.2,117.17 245.885,115.994 L244.606,111.232 L233.066,131.192 C232.586,132.023 232.585,133.047 233.063,133.879 C233.54,134.711 234.425,135.226 235.385,135.231 L251.538,135.231 C252.253,135.231 252.937,135.514 253.442,136.019 C253.947,136.524 254.231,137.209 254.231,137.923 Z M301.592,128.5 L293.804,115.038 C293.03,113.821 291.434,113.43 290.185,114.152 C288.936,114.874 288.478,116.452 289.147,117.731 L296.934,131.192 C297.414,132.023 297.415,133.047 296.937,133.879 C296.46,134.711 295.575,135.226 294.615,135.231 L271.499,135.231 L274.978,131.751 C276.03,130.7 276.031,128.995 274.98,127.943 C273.929,126.891 272.224,126.89 271.172,127.942 L263.095,136.018 C262.589,136.523 262.305,137.209 262.305,137.923 C262.305,138.638 262.589,139.323 263.095,139.828 L271.172,147.905 C272.224,148.956 273.928,148.955 274.98,147.904 C276.031,146.852 276.03,145.147 274.978,144.096 L271.499,140.615 L294.615,140.615 C297.5,140.614 300.165,139.073 301.607,136.575 C303.048,134.076 303.048,130.998 301.605,128.5 Z M265,78.692 C265.964,78.683 266.856,79.199 267.329,80.038 L278.869,99.978 L274.13,98.706 C272.714,98.374 271.29,99.227 270.914,100.632 C270.538,102.037 271.347,103.487 272.74,103.906 L283.772,106.864 C284,106.924 284.234,106.954 284.469,106.955 C285.686,106.954 286.752,106.135 287.067,104.959 L290.025,93.924 C290.301,92.986 290.048,91.972 289.362,91.275 C288.676,90.578 287.667,90.307 286.724,90.568 C285.782,90.829 285.055,91.58 284.826,92.531 L283.547,97.3 L271.99,77.346 C270.546,74.852 267.882,73.316 265,73.316 C262.118,73.316 259.454,74.852 258.01,77.346 L250.216,90.808 C249.52,92.09 249.972,93.694 251.235,94.424 C252.499,95.154 254.114,94.744 254.877,93.5 L262.671,80.038 C263.144,79.199 264.036,78.683 265,78.692 Z" />
        </g>
        <g id="Regular-S">
            <path d="M454.231,137.923 C454.231,138.637 453.947,139.322 453.442,139.827 C452.937,140.332 452.253,140.615 451.538,140.615 L435.385,140.615 C432.5,140.614 429.835,139.073 428.393,136.575 C426.952,134.076 426.952,130.998 428.395,128.5 L439.935,108.56 L435.206,109.822 C433.768,110.207 432.288,109.353 431.902,107.912 C431.516,106.472 432.371,104.992 433.811,104.606 L444.839,101.655 C445.529,101.47 446.265,101.567 446.883,101.924 C447.502,102.281 447.953,102.87 448.138,103.56 L451.096,114.588 C451.284,115.281 451.188,116.02 450.829,116.642 C450.47,117.264 449.877,117.716 449.183,117.899 C448.954,117.959 448.719,117.989 448.483,117.99 C447.265,117.989 446.2,117.17 445.885,115.994 L444.606,111.232 L433.066,131.192 C432.586,132.023 432.585,133.047 433.063,133.879 C433.54,134.711 434.425,135.226 435.385,135.231 L451.538,135.231 C452.253,135.231 452.937,135.514 453.442,136.019 C453.947,136.524 454.231,137.209 454.231,137.923 Z M501.592,128.5 L493.804,115.038 C493.03,113.821 491.434,113.43 490.185,114.152 C488.936,114.874 488.478,116.452 489.147,117.731 L496.934,131.192 C497.414,132.023 497.415,133.047 496.937,133.879 C496.46,134.711 495.575,135.226 494.615,135.231 L471.499,135.231 L474.978,131.751 C476.03,130.7 476.031,128.995 474.98,127.943 C473.929,126.891 472.224,126.89 471.172,127.942 L463.095,136.018 C462.589,136.523 462.305,137.209 462.305,137.923 C462.305,138.638 462.589,139.323 463.095,139.828 L471.172,147.905 C472.224,148.956 473.928,148.955 474.98,147.904 C476.031,146.852 476.03,145.147 474.978,144.096 L471.499,140.615 L494.615,140.615 C497.5,140.614 500.165,139.073 501.607,136.575 C503.048,134.076 503.048,130.998 501.605,128.5 Z M465,78.692 C465.964,78.683 466.856,79.199 467.329,80.038 L478.869,99.978 L474.13,98.706 C472.714,98.374 471.29,99.227 470.914,100.632 C470.538,102.037 471.347,103.487 472.74,103.906 L483.772,106.864 C484,106.924 484.234,106.954 484.469,106.955 C485.686,106.954 486.752,106.135 487.067,104.959 L490.025,93.924 C490.301,92.986 490.048,91.972 489.362,91.275 C488.676,90.578 487.667,90.307 486.724,90.568 C485.782,90.829 485.055,91.58 484.825,92.531 L483.547,97.3 L471.99,77.346 C470.546,74.852 467.882,73.316 465,73.316 C462.118,73.316 459.454,74.852 458.01,77.346 L450.216,90.808 C449.519,92.09 449.972,93.694 451.235,94.424 C452.499,95.154 454.114,94.744 454.877,93.5 L462.671,80.038 C463.144,79.199 464.036,78.683 465,78.692 Z" />
        </g>
        <g id="Black-S">
            <path d="M654.231,137.923 C654.231,138.637 653.947,139.322 653.442,139.827 C652.937,140.332 652.253,140.615 651.538,140.615 L635.385,140.615 C632.5,140.614 629.835,139.073 628.393,136.575 C626.952,134.076 626.952,130.998 628.395,128.5 L639.935,108.56 L635.206,109.822 C633.768,110.207 632.288,109.353 631.902,107.912 C631.516,106.472 632.371,104.992 633.811,104.606 L644.839,101.655 C645.529,101.47 646.265,101.567 646.883,101.924 C647.502,102.281 647.953,102.87 648.138,103.56 L651.096,114.588 C651.284,115.281 651.188,116.02 650.829,116.642 C650.47,117.264 649.877,117.716 649.183,117.899 C648.954,117.959 648.719,117.989 648.483,117.99 C647.265,117.989 646.2,117.17 645.885,115.994 L644.606,111.232 L633.066,131.192 C632.586,132.023 632.585,133.047 633.063,133.879 C633.54,134.711 634.425,135.226 635.385,135.231 L651.538,135.231 C652.253,135.231 652.937,135.514 653.442,136.019 C653.947,136.524 654.231,137.209 654.231,137.923 Z M701.592,128.5 L693.804,115.038 C693.03,113.821 691.434,113.43 690.185,114.152 C688.936,114.874 688.478,116.452 689.147,117.731 L696.934,131.192 C697.414,132.023 697.415,133.047 696.937,133.879 C696.46,134.711 695.575,135.226 694.615,135.231 L671.499,135.231 L674.978,131.751 C676.03,130.7 676.031,128.995 674.98,127.943 C673.929,126.891 672.224,126.89 671.172,127.942 L663.095,136.018 C662.589,136.523 662.305,137.209 662.305,137.923 C662.305,138.638 662.589,139.323 663.095,139.828 L671.172,147.905 C672.224,148.956 673.928,148.955 674.98,147.904 C676.031,146.852 676.03,145.147 674.978,144.096 L671.499,140.615 L694.615,140.615 C697.5,140.614 700.165,139.073 701.607,136.575 C703.048,134.076 703.048,130.998 701.605,128.5 Z M665,78.692 C665.964,78.683 666.856,79.199 667.329,80.038 L678.869,99.978 L674.13,98.706 C672.714,98.374 671.29,99.227 670.914,100.632 C670.538,102.037 671.347,103.487 672.74,103.906 L683.772,106.864 C684,106.924 684.234,106.954 684.469,106.955 C685.686,106.954 686.752,106.135 687.067,104.959 L690.025,93.924 C690.302,92.986 690.048,91.972 689.362,91.275 C688.676,90.578 687.667,90.307 686.724,90.568 C685.782,90.829 685.055,91.58 684.826,92.531 L683.547,97.3 L671.99,77.346 C670.546,74.852 667.882,73.316 665,73.316 C662.118,73.316 659.454,74.852 658.01,77.346 L650.216,90.808 C649.52,92.09 649.972,93.694 651.235,94.424 C652.499,95.154 654.114,94.744 654.877,93.5 L662.671,80.038 C663.144,79.199 664.036,78.683 665,78.692 Z" />
        </g>
    </g>
</svg>