<?xml version="1.0" encoding="UTF-8"?>
<svg height="600" width="800" xmlns="http://www.w3.org/2000/svg" xmlns:xlink="http://www.w3.org/1999/xlink">
    <g id="Notes" font-family="'LucidaGrande', 'Lucida Grande', sans-serif" font-size="13">
        <rect fill="white" height="600.0" width="800.0" x="0.0" y="0.0" />
        <g font-size="13">
            <text x="18.0" y="176.0">Small</text>
            <text x="18.0" y="376.0">Medium</text>
            <text x="18.0" y="576.0">Large</text>
        </g>
        <g font-size="9">
            <text x="250.0" y="30.0">Ultralight</text>
            <text x="450.0" y="30.0">Regular</text>
            <text x="650.0" y="30.0">Black</text>
            <text id="template-version" fill="#505050" text-anchor="end" x="785.0" y="575.0">Template v.3.0</text>
            <a href="https://github.com/swhitty/SwiftDraw">
                <text fill="#505050" text-anchor="end" x="785.0" y="590.0">https://github.com/swhitty/SwiftDraw</text>
            </a>
        </g>
    </g>
    <g id="Guides" stroke="rgb(39, 170, 225)" stroke-width="0.5">
        <path id="Capline-S" d="M18,76 l800,0" />
        <path id="H-reference" d="M85,145.755 L87.685,145.755 L113.369,79.287 L114.052,79.287 L114.052,76 L112.148,76 L85,145.755 Z M95.693,121.536 L130.996,121.536 L130.263,119.313 L96.474,119.313 L95.693,121.536 Z M139.15,145.755 L141.787,145.755 L114.638,76 L113.466,76 L113.466,79.287 L139.15,145.755 Z" stroke="none" />
        <path id="Baseline-S" d="M18,146 l800,0" />
        <path id="left-margin-Ultralight-S" d="M220,56 l0,110" />
        <path id="right-margin-Ultralight-S" d="M310,56 l0,110" />
        <path id="left-margin-Regular-S" d="M420,56 l0,110" />
        <path id="right-margin-Regular-S" d="M510,56 l0,110" />
        <path id="left-margin-Black-S" d="M620,56 l0,110" />
        <path id="right-margin-Black-S" d="M710,56 l0,110" />
        <path id="Capline-M" d="M18,276 l800,0" />
        <path id="Baseline-M" d="M18,346 l800,0" />
        <path id="Capline-L" d="M18,476 l800,0" />
        <path id="Baseline-L" d="M18,546 l800,0" />
    </g>
    <g id="Symbols">
        <g id="Ultralight-S">
            <path d="M301.905,109.095 L269.597,76.788 C268.827,76.017 267.668,75.786 266.662,76.203 C265.655,76.62 264.999,77.603 265,78.692 L265,92.154 L238.077,92.154 C236.649,92.154 235.279,92.721 234.269,93.731 C233.26,94.741 232.692,96.11 232.692,97.538 L232.692,124.462 C232.692,125.89 233.26,127.259 234.269,128.269 C235.279,129.279 236.649,129.846 238.077,129.846 L265,129.846 L265,143.308 C264.999,144.397 265.655,145.38 266.662,145.797 C267.668,146.214 268.827,145.983 269.597,145.212 L301.905,112.905 C302.41,112.4 302.694,111.715 302.694,111 C302.694,110.285 302.41,109.6 301.905,109.095 Z M270.385,136.809 L270.385,127.154 C270.385,126.44 270.101,125.755 269.596,125.25 C269.091,124.745 268.406,124.462 267.692,124.462 L238.077,124.462 L238.077,97.538 L267.692,97.538 C268.406,97.538 269.091,97.255 269.596,96.75 C270.101,96.245 270.385,95.56 270.385,94.846 L270.385,85.191 L296.194,111 Z" />
        </g>
        <g id="Regular-S">
            <path d="M501.905,109.095 L469.597,76.788 C468.827,76.017 467.668,75.786 466.662,76.203 C465.655,76.62 464.999,77.603 465,78.692 L465,92.154 L438.077,92.154 C436.649,92.154 435.279,92.721 434.269,93.731 C433.26,94.741 432.692,96.11 432.692,97.538 L432.692,124.462 C432.692,125.89 433.26,127.259 434.269,128.269 C435.279,129.279 436.649,129.846 438.077,129.846 L465,129.846 L465,143.308 C464.999,144.397 465.655,145.38 466.662,145.797 C467.668,146.214 468.827,145.983 469.597,145.212 L501.905,112.905 C502.41,112.4 502.694,111.715 502.694,111 C502.694,110.285 502.41,109.6 501.905,109.095 Z M470.385,136.809 L470.385,127.154 C470.385,126.44 470.101,125.755 469.596,125.25 C469.091,124.745 468.406,124.462 467.692,124.462 L438.077,124.462 L438.077,97.538 L467.692,97.538 C468.406,97.538 469.091,97.255 469.596,96.75 C470.101,96.245 470.385,95.56 470.385,94.846 L470.385,85.191 L496.194,111 Z" />
        </g>
        <g id="Black-S">
            <path d="M701.905,109.095 L669.597,76.788 C668.827,76.017 667.668,75.786 666.662,76.203 C665.655,76.62 664.999,77.603 665,78.692 L665,92.154 L638.077,92.154 C636.649,92.154 635.279,92.721 634.269,93.731 C633.26,94.741 632.692,96.11 632.692,97.538 L632.692,124.462 C632.692,125.89 633.26,127.259 634.269,128.269 C635.279,129.279 636.649,129.846 638.077,129.846 L665,129.846 L665,143.308 C664.999,144.397 665.655,145.38 666.662,145.797 C667.668,146.214 668.827,145.983 669.597,145.212 L701.905,112.905 C702.41,112.4 702.694,111.715 702.694,111 C702.694,110.285 702.41,109.6 701.905,109.095 Z M670.385,136.809 L670.385,127.154 C670.385,126.44 670.101,125.755 669.596,125.25 C669.091,124.745 668.406,124.462 667.692,124.462 L638.077,124.462 L638.077,97.538 L667.692,97.538 C668.406,97.538 669.091,97.255 669.596,96.75 C670.101,96.245 670.385,95.56 670.385,94.846 L670.385,85.191 L696.194,111 Z" />
        </g>
    </g>
</svg>