<?xml version="1.0" encoding="UTF-8"?>
<svg height="600" width="800" xmlns="http://www.w3.org/2000/svg" xmlns:xlink="http://www.w3.org/1999/xlink">
    <g id="Notes" font-family="'LucidaGrande', 'Lucida Grande', sans-serif" font-size="13">
        <rect fill="white" height="600.0" width="800.0" x="0.0" y="0.0" />
        <g font-size="13">
            <text x="18.0" y="176.0">Small</text>
            <text x="18.0" y="376.0">Medium</text>
            <text x="18.0" y="576.0">Large</text>
        </g>
        <g font-size="9">
            <text x="250.0" y="30.0">Ultralight</text>
            <text x="450.0" y="30.0">Regular</text>
            <text x="650.0" y="30.0">Black</text>
            <text id="template-version" fill="#505050" text-anchor="end" x="785.0" y="575.0">Template v.3.0</text>
            <a href="https://github.com/swhitty/SwiftDraw">
                <text fill="#505050" text-anchor="end" x="785.0" y="590.0">https://github.com/swhitty/SwiftDraw</text>
            </a>
        </g>
    </g>
    <g id="Guides" stroke="rgb(39, 170, 225)" stroke-width="0.5">
        <path id="Capline-S" d="M18,76 l800,0" />
        <path id="H-reference" d="M85,145.755 L87.685,145.755 L113.369,79.287 L114.052,79.287 L114.052,76 L112.148,76 L85,145.755 Z M95.693,121.536 L130.996,121.536 L130.263,119.313 L96.474,119.313 L95.693,121.536 Z M139.15,145.755 L141.787,145.755 L114.638,76 L113.466,76 L113.466,79.287 L139.15,145.755 Z" stroke="none" />
        <path id="Baseline-S" d="M18,146 l800,0" />
        <path id="left-margin-Ultralight-S" d="M220,56 l0,110" />
        <path id="right-margin-Ultralight-S" d="M310,56 l0,110" />
        <path id="left-margin-Regular-S" d="M420,56 l0,110" />
        <path id="right-margin-Regular-S" d="M510,56 l0,110" />
        <path id="left-margin-Black-S" d="M620,56 l0,110" />
        <path id="right-margin-Black-S" d="M710,56 l0,110" />
        <path id="Capline-M" d="M18,276 l800,0" />
        <path id="Baseline-M" d="M18,346 l800,0" />
        <path id="Capline-L" d="M18,476 l800,0" />
        <path id="Baseline-L" d="M18,546 l800,0" />
    </g>
    <g id="Symbols">
        <g id="Ultralight-S">
            <path d="M304.934,109.506 L289.567,86.476 C288.574,84.978 286.896,84.077 285.098,84.077 L235.385,84.077 C232.411,84.077 230,86.488 230,89.462 L230,132.538 C230,133.967 230.567,135.336 231.577,136.346 C232.587,137.356 233.957,137.923 235.385,137.923 L285.098,137.923 C286.894,137.92 288.57,137.021 289.567,135.527 L304.924,112.494 C305.53,111.592 305.534,110.413 304.934,109.506 Z M285.098,132.538 L235.385,132.538 L235.385,89.462 L285.098,89.462 L299.455,111 Z" />
        </g>
        <g id="Regular-S">
            <path d="M504.934,109.506 L489.567,86.476 C488.574,84.978 486.896,84.077 485.098,84.077 L435.385,84.077 C432.411,84.077 430,86.488 430,89.462 L430,132.538 C430,133.967 430.567,135.336 431.577,136.346 C432.587,137.356 433.957,137.923 435.385,137.923 L485.098,137.923 C486.894,137.92 488.57,137.021 489.567,135.527 L504.924,112.494 C505.53,111.592 505.534,110.413 504.934,109.506 Z M485.098,132.538 L435.385,132.538 L435.385,89.462 L485.098,89.462 L499.455,111 Z" />
        </g>
        <g id="Black-S">
            <path d="M704.934,109.506 L689.567,86.476 C688.574,84.978 686.896,84.077 685.098,84.077 L635.385,84.077 C632.411,84.077 630,86.488 630,89.462 L630,132.538 C630,133.967 630.567,135.336 631.577,136.346 C632.587,137.356 633.957,137.923 635.385,137.923 L685.098,137.923 C686.894,137.92 688.57,137.021 689.567,135.527 L704.924,112.494 C705.53,111.592 705.534,110.413 704.934,109.506 Z M685.098,132.538 L635.385,132.538 L635.385,89.462 L685.098,89.462 L699.455,111 Z" />
        </g>
    </g>
</svg>