<?xml version="1.0" encoding="UTF-8"?>
<svg height="600" width="800" xmlns="http://www.w3.org/2000/svg" xmlns:xlink="http://www.w3.org/1999/xlink">
    <g id="Notes" font-family="'LucidaGrande', 'Lucida Grande', sans-serif" font-size="13">
        <rect fill="white" height="600.0" width="800.0" x="0.0" y="0.0" />
        <g font-size="13">
            <text x="18.0" y="176.0">Small</text>
            <text x="18.0" y="376.0">Medium</text>
            <text x="18.0" y="576.0">Large</text>
        </g>
        <g font-size="9">
            <text x="250.0" y="30.0">Ultralight</text>
            <text x="450.0" y="30.0">Regular</text>
            <text x="650.0" y="30.0">Black</text>
            <text id="template-version" fill="#505050" text-anchor="end" x="785.0" y="575.0">Template v.3.0</text>
            <a href="https://github.com/swhitty/SwiftDraw">
                <text fill="#505050" text-anchor="end" x="785.0" y="590.0">https://github.com/swhitty/SwiftDraw</text>
            </a>
        </g>
    </g>
    <g id="Guides" stroke="rgb(39, 170, 225)" stroke-width="0.5">
        <path id="Capline-S" d="M18,76 l800,0" />
        <path id="H-reference" d="M85,145.755 L87.685,145.755 L113.369,79.287 L114.052,79.287 L114.052,76 L112.148,76 L85,145.755 Z M95.693,121.536 L130.996,121.536 L130.263,119.313 L96.474,119.313 L95.693,121.536 Z M139.15,145.755 L141.787,145.755 L114.638,76 L113.466,76 L113.466,79.287 L139.15,145.755 Z" stroke="none" />
        <path id="Baseline-S" d="M18,146 l800,0" />
        <path id="left-margin-Ultralight-S" d="M220,56 l0,110" />
        <path id="right-margin-Ultralight-S" d="M310,56 l0,110" />
        <path id="left-margin-Regular-S" d="M420,56 l0,110" />
        <path id="right-margin-Regular-S" d="M510,56 l0,110" />
        <path id="left-margin-Black-S" d="M620,56 l0,110" />
        <path id="right-margin-Black-S" d="M710,56 l0,110" />
        <path id="Capline-M" d="M18,276 l800,0" />
        <path id="Baseline-M" d="M18,346 l800,0" />
        <path id="Capline-L" d="M18,476 l800,0" />
        <path id="Baseline-L" d="M18,546 l800,0" />
    </g>
    <g id="Symbols">
        <g id="Ultralight-S">
            <path d="M286.538,76 C285.824,76 285.14,76.284 284.635,76.789 C284.13,77.293 283.846,77.978 283.846,78.692 L283.846,89.462 L246.154,89.462 L246.154,78.692 C246.154,77.205 244.948,76 243.462,76 C241.975,76 240.769,77.205 240.769,78.692 L240.769,143.308 C240.769,144.795 241.975,146 243.462,146 C244.948,146 246.154,144.795 246.154,143.308 L246.154,132.538 L283.846,132.538 L283.846,143.308 C283.846,144.795 285.052,146 286.538,146 C288.025,146 289.231,144.795 289.231,143.308 L289.231,78.692 C289.231,77.978 288.947,77.293 288.442,76.789 C287.937,76.284 287.253,76 286.538,76 Z M283.846,94.846 L283.846,108.308 L246.154,108.308 L246.154,94.846 Z M246.154,127.154 L246.154,113.692 L283.846,113.692 L283.846,127.154 Z" />
        </g>
        <g id="Regular-S">
            <path d="M486.538,76 C485.824,76 485.14,76.284 484.635,76.789 C484.13,77.293 483.846,77.978 483.846,78.692 L483.846,89.462 L446.154,89.462 L446.154,78.692 C446.154,77.205 444.948,76 443.462,76 C441.975,76 440.769,77.205 440.769,78.692 L440.769,143.308 C440.769,144.795 441.975,146 443.462,146 C444.948,146 446.154,144.795 446.154,143.308 L446.154,132.538 L483.846,132.538 L483.846,143.308 C483.846,144.795 485.052,146 486.538,146 C488.025,146 489.231,144.795 489.231,143.308 L489.231,78.692 C489.231,77.978 488.947,77.293 488.442,76.789 C487.937,76.284 487.253,76 486.538,76 Z M483.846,94.846 L483.846,108.308 L446.154,108.308 L446.154,94.846 Z M446.154,127.154 L446.154,113.692 L483.846,113.692 L483.846,127.154 Z" />
        </g>
        <g id="Black-S">
            <path d="M686.538,76 C685.824,76 685.14,76.284 684.635,76.789 C684.13,77.293 683.846,77.978 683.846,78.692 L683.846,89.462 L646.154,89.462 L646.154,78.692 C646.154,77.205 644.948,76 643.462,76 C641.975,76 640.769,77.205 640.769,78.692 L640.769,143.308 C640.769,144.795 641.975,146 643.462,146 C644.948,146 646.154,144.795 646.154,143.308 L646.154,132.538 L683.846,132.538 L683.846,143.308 C683.846,144.795 685.052,146 686.538,146 C688.025,146 689.231,144.795 689.231,143.308 L689.231,78.692 C689.231,77.978 688.947,77.293 688.442,76.789 C687.937,76.284 687.253,76 686.538,76 Z M683.846,94.846 L683.846,108.308 L646.154,108.308 L646.154,94.846 Z M646.154,127.154 L646.154,113.692 L683.846,113.692 L683.846,127.154 Z" />
        </g>
    </g>
</svg>