<?xml version="1.0" encoding="UTF-8"?>
<svg height="600" width="800" xmlns="http://www.w3.org/2000/svg" xmlns:xlink="http://www.w3.org/1999/xlink">
    <g id="Notes" font-family="'LucidaGrande', 'Lucida Grande', sans-serif" font-size="13">
        <rect fill="white" height="600.0" width="800.0" x="0.0" y="0.0" />
        <g font-size="13">
            <text x="18.0" y="176.0">Small</text>
            <text x="18.0" y="376.0">Medium</text>
            <text x="18.0" y="576.0">Large</text>
        </g>
        <g font-size="9">
            <text x="250.0" y="30.0">Ultralight</text>
            <text x="450.0" y="30.0">Regular</text>
            <text x="650.0" y="30.0">Black</text>
            <text id="template-version" fill="#505050" text-anchor="end" x="785.0" y="575.0">Template v.3.0</text>
            <a href="https://github.com/swhitty/SwiftDraw">
                <text fill="#505050" text-anchor="end" x="785.0" y="590.0">https://github.com/swhitty/SwiftDraw</text>
            </a>
        </g>
    </g>
    <g id="Guides" stroke="rgb(39, 170, 225)" stroke-width="0.5">
        <path id="Capline-S" d="M18,76 l800,0" />
        <path id="H-reference" d="M85,145.755 L87.685,145.755 L113.369,79.287 L114.052,79.287 L114.052,76 L112.148,76 L85,145.755 Z M95.693,121.536 L130.996,121.536 L130.263,119.313 L96.474,119.313 L95.693,121.536 Z M139.15,145.755 L141.787,145.755 L114.638,76 L113.466,76 L113.466,79.287 L139.15,145.755 Z" stroke="none" />
        <path id="Baseline-S" d="M18,146 l800,0" />
        <path id="left-margin-Ultralight-S" d="M220,56 l0,110" />
        <path id="right-margin-Ultralight-S" d="M310,56 l0,110" />
        <path id="left-margin-Regular-S" d="M420,56 l0,110" />
        <path id="right-margin-Regular-S" d="M510,56 l0,110" />
        <path id="left-margin-Black-S" d="M620,56 l0,110" />
        <path id="right-margin-Black-S" d="M710,56 l0,110" />
        <path id="Capline-M" d="M18,276 l800,0" />
        <path id="Baseline-M" d="M18,346 l800,0" />
        <path id="Capline-L" d="M18,476 l800,0" />
        <path id="Baseline-L" d="M18,546 l800,0" />
    </g>
    <g id="Symbols">
        <g id="Ultralight-S">
            <path d="M251.538,133.885 C251.538,136.115 249.73,137.923 247.5,137.923 C245.27,137.923 243.462,136.115 243.462,133.885 C243.462,131.654 245.27,129.846 247.5,129.846 C248.571,129.846 249.598,130.272 250.356,131.029 C251.113,131.786 251.538,132.814 251.538,133.885 Z M260.962,135.231 C258.731,135.231 256.923,137.039 256.923,139.269 C256.923,141.5 258.731,143.308 260.962,143.308 C263.192,143.308 265,141.5 265,139.269 C265,138.198 264.575,137.171 263.817,136.414 C263.06,135.656 262.033,135.231 260.962,135.231 Z M277.115,129.846 C274.885,129.846 273.077,131.654 273.077,133.885 C273.077,136.115 274.885,137.923 277.115,137.923 C279.346,137.923 281.154,136.115 281.154,133.885 C281.154,132.814 280.728,131.786 279.971,131.029 C279.214,130.272 278.186,129.846 277.115,129.846 Z M244.808,143.308 C242.577,143.308 240.769,145.116 240.769,147.346 C240.769,149.577 242.577,151.385 244.808,151.385 C247.038,151.385 248.846,149.577 248.846,147.346 C248.846,146.275 248.421,145.248 247.663,144.491 C246.906,143.733 245.879,143.308 244.808,143.308 Z M274.423,143.308 C272.193,143.308 270.385,145.116 270.385,147.346 C270.385,149.577 272.193,151.385 274.423,151.385 C276.653,151.385 278.462,149.577 278.462,147.346 C278.462,146.275 278.036,145.248 277.279,144.491 C276.521,143.733 275.494,143.308 274.423,143.308 Z M300,98.885 C299.985,113.005 288.542,124.447 274.422,124.462 L247.5,124.462 C237.835,124.462 230,116.627 230,106.962 C230,97.297 237.835,89.462 247.5,89.462 C248.506,89.462 249.51,89.548 250.502,89.717 C254.932,78.21 266.935,71.495 279.059,73.741 C291.183,75.986 299.985,86.554 300,98.885 Z M294.615,98.885 C294.571,87.986 285.893,79.085 274.999,78.764 C264.105,78.443 254.918,86.816 254.231,97.693 C254.235,99.028 253.028,100.235 251.538,100.235 C250.049,100.235 248.842,99.028 248.842,97.539 C248.889,96.717 248.975,96.717 249.101,95.105 C248.573,94.985 248.039,94.899 247.5,94.846 C240.809,94.846 235.385,100.27 235.385,106.962 C235.385,113.653 240.809,119.077 247.5,119.077 L274.423,119.077 C285.57,119.064 294.602,110.031 294.615,98.885 Z" />
        </g>
        <g id="Regular-S">
            <path d="M451.538,133.885 C451.538,136.115 449.73,137.923 447.5,137.923 C445.27,137.923 443.462,136.115 443.462,133.885 C443.462,131.654 445.27,129.846 447.5,129.846 C448.571,129.846 449.598,130.272 450.356,131.029 C451.113,131.786 451.538,132.814 451.538,133.885 Z M460.962,135.231 C458.731,135.231 456.923,137.039 456.923,139.269 C456.923,141.5 458.731,143.308 460.962,143.308 C463.192,143.308 465,141.5 465,139.269 C465,138.198 464.575,137.171 463.817,136.414 C463.06,135.656 462.033,135.231 460.962,135.231 Z M477.115,129.846 C474.885,129.846 473.077,131.654 473.077,133.885 C473.077,136.115 474.885,137.923 477.115,137.923 C479.346,137.923 481.154,136.115 481.154,133.885 C481.154,132.814 480.728,131.786 479.971,131.029 C479.214,130.272 478.186,129.846 477.115,129.846 Z M444.808,143.308 C442.577,143.308 440.769,145.116 440.769,147.346 C440.769,149.577 442.577,151.385 444.808,151.385 C447.038,151.385 448.846,149.577 448.846,147.346 C448.846,146.275 448.421,145.248 447.663,144.491 C446.906,143.733 445.879,143.308 444.808,143.308 Z M474.423,143.308 C472.193,143.308 470.385,145.116 470.385,147.346 C470.385,149.577 472.193,151.385 474.423,151.385 C476.653,151.385 478.462,149.577 478.462,147.346 C478.462,146.275 478.036,145.248 477.279,144.491 C476.521,143.733 475.494,143.308 474.423,143.308 Z M500,98.885 C499.985,113.005 488.542,124.447 474.422,124.462 L447.5,124.462 C437.835,124.462 430,116.627 430,106.962 C430,97.297 437.835,89.462 447.5,89.462 C448.506,89.462 449.51,89.548 450.502,89.717 C454.932,78.21 466.935,71.495 479.059,73.741 C491.183,75.986 499.985,86.554 500,98.885 Z M494.615,98.885 C494.571,87.986 485.893,79.085 474.999,78.764 C464.105,78.443 454.918,86.816 454.231,97.693 C454.235,99.028 453.028,100.235 451.538,100.235 C450.049,100.235 448.842,99.028 448.842,97.539 C448.889,96.717 448.975,96.717 449.101,95.105 C448.573,94.985 448.039,94.899 447.5,94.846 C440.809,94.846 435.385,100.27 435.385,106.962 C435.385,113.653 440.809,119.077 447.5,119.077 L474.423,119.077 C485.57,119.064 494.602,110.031 494.615,98.885 Z" />
        </g>
        <g id="Black-S">
            <path d="M651.538,133.885 C651.538,136.115 649.73,137.923 647.5,137.923 C645.27,137.923 643.462,136.115 643.462,133.885 C643.462,131.654 645.27,129.846 647.5,129.846 C648.571,129.846 649.598,130.272 650.356,131.029 C651.113,131.786 651.538,132.814 651.538,133.885 Z M660.962,135.231 C658.731,135.231 656.923,137.039 656.923,139.269 C656.923,141.5 658.731,143.308 660.962,143.308 C663.192,143.308 665,141.5 665,139.269 C665,138.198 664.575,137.171 663.817,136.414 C663.06,135.656 662.033,135.231 660.962,135.231 Z M677.115,129.846 C674.885,129.846 673.077,131.654 673.077,133.885 C673.077,136.115 674.885,137.923 677.115,137.923 C679.346,137.923 681.154,136.115 681.154,133.885 C681.154,132.814 680.728,131.786 679.971,131.029 C679.214,130.272 678.186,129.846 677.115,129.846 Z M644.808,143.308 C642.577,143.308 640.769,145.116 640.769,147.346 C640.769,149.577 642.577,151.385 644.808,151.385 C647.038,151.385 648.846,149.577 648.846,147.346 C648.846,146.275 648.421,145.248 647.663,144.491 C646.906,143.733 645.879,143.308 644.808,143.308 Z M674.423,143.308 C672.193,143.308 670.385,145.116 670.385,147.346 C670.385,149.577 672.193,151.385 674.423,151.385 C676.653,151.385 678.462,149.577 678.462,147.346 C678.462,146.275 678.036,145.248 677.279,144.491 C676.521,143.733 675.494,143.308 674.423,143.308 Z M700,98.885 C699.985,113.005 688.542,124.447 674.422,124.462 L647.5,124.462 C637.835,124.462 630,116.627 630,106.962 C630,97.297 637.835,89.462 647.5,89.462 C648.506,89.462 649.51,89.548 650.502,89.717 C654.932,78.21 666.935,71.495 679.059,73.741 C691.183,75.986 699.985,86.554 700,98.885 Z M694.615,98.885 C694.571,87.986 685.893,79.085 674.999,78.764 C664.105,78.443 654.918,86.816 654.231,97.693 C654.235,99.028 653.028,100.235 651.538,100.235 C650.049,100.235 648.842,99.028 648.842,97.539 C648.889,96.717 648.975,96.717 649.101,95.105 C648.573,94.985 648.039,94.899 647.5,94.846 C640.809,94.846 635.385,100.27 635.385,106.962 C635.385,113.653 640.809,119.077 647.5,119.077 L674.423,119.077 C685.57,119.064 694.602,110.031 694.615,98.885 Z" />
        </g>
    </g>
</svg>