<?xml version="1.0" encoding="UTF-8"?>
<svg height="600" width="800" xmlns="http://www.w3.org/2000/svg" xmlns:xlink="http://www.w3.org/1999/xlink">
    <g id="Notes" font-family="'LucidaGrande', 'Lucida Grande', sans-serif" font-size="13">
        <rect fill="white" height="600.0" width="800.0" x="0.0" y="0.0" />
        <g font-size="13">
            <text x="18.0" y="176.0">Small</text>
            <text x="18.0" y="376.0">Medium</text>
            <text x="18.0" y="576.0">Large</text>
        </g>
        <g font-size="9">
            <text x="250.0" y="30.0">Ultralight</text>
            <text x="450.0" y="30.0">Regular</text>
            <text x="650.0" y="30.0">Black</text>
            <text id="template-version" fill="#505050" text-anchor="end" x="785.0" y="575.0">Template v.3.0</text>
            <a href="https://github.com/swhitty/SwiftDraw">
                <text fill="#505050" text-anchor="end" x="785.0" y="590.0">https://github.com/swhitty/SwiftDraw</text>
            </a>
        </g>
    </g>
    <g id="Guides" stroke="rgb(39, 170, 225)" stroke-width="0.5">
        <path id="Capline-S" d="M18,76 l800,0" />
        <path id="H-reference" d="M85,145.755 L87.685,145.755 L113.369,79.287 L114.052,79.287 L114.052,76 L112.148,76 L85,145.755 Z M95.693,121.536 L130.996,121.536 L130.263,119.313 L96.474,119.313 L95.693,121.536 Z M139.15,145.755 L141.787,145.755 L114.638,76 L113.466,76 L113.466,79.287 L139.15,145.755 Z" stroke="none" />
        <path id="Baseline-S" d="M18,146 l800,0" />
        <path id="left-margin-Ultralight-S" d="M220,56 l0,110" />
        <path id="right-margin-Ultralight-S" d="M310,56 l0,110" />
        <path id="left-margin-Regular-S" d="M420,56 l0,110" />
        <path id="right-margin-Regular-S" d="M510,56 l0,110" />
        <path id="left-margin-Black-S" d="M620,56 l0,110" />
        <path id="right-margin-Black-S" d="M710,56 l0,110" />
        <path id="Capline-M" d="M18,276 l800,0" />
        <path id="Baseline-M" d="M18,346 l800,0" />
        <path id="Capline-L" d="M18,476 l800,0" />
        <path id="Baseline-L" d="M18,546 l800,0" />
    </g>
    <g id="Symbols">
        <g id="Ultralight-S">
            <path d="M299.212,120.982 L283.059,137.136 C282.008,138.187 280.303,138.188 279.25,137.137 C278.198,136.085 278.197,134.38 279.248,133.327 L290.809,121.769 L265,121.769 C245.678,121.749 230.02,106.091 230,86.769 C230,85.282 231.205,84.077 232.692,84.077 C234.179,84.077 235.385,85.282 235.385,86.769 C235.402,103.116 248.65,116.365 264.999,116.385 L290.808,116.385 L279.248,104.828 C278.195,103.774 278.196,102.069 279.249,101.017 C280.301,99.966 282.007,99.967 283.058,101.019 L299.212,117.173 C299.718,117.678 300.001,118.363 300.001,119.077 C300.002,119.792 299.718,120.477 299.212,120.982 Z" />
        </g>
        <g id="Regular-S">
            <path d="M499.212,120.982 L483.059,137.136 C482.008,138.187 480.303,138.188 479.25,137.137 C478.198,136.085 478.197,134.38 479.248,133.327 L490.809,121.769 L465,121.769 C445.678,121.749 430.02,106.091 430,86.769 C430,85.282 431.205,84.077 432.692,84.077 C434.179,84.077 435.385,85.282 435.385,86.769 C435.402,103.116 448.65,116.365 464.999,116.385 L490.808,116.385 L479.248,104.828 C478.195,103.774 478.196,102.069 479.249,101.017 C480.301,99.966 482.007,99.967 483.058,101.019 L499.212,117.173 C499.718,117.678 500.001,118.363 500.001,119.077 C500.002,119.792 499.718,120.477 499.212,120.982 Z" />
        </g>
        <g id="Black-S">
            <path d="M699.213,120.982 L683.059,137.136 C682.008,138.187 680.303,138.188 679.25,137.137 C678.198,136.085 678.197,134.38 679.248,133.327 L690.809,121.769 L665,121.769 C645.679,121.749 630.02,106.091 630,86.769 C630,85.282 631.205,84.077 632.692,84.077 C634.179,84.077 635.385,85.282 635.385,86.769 C635.402,103.116 648.65,116.365 664.999,116.385 L690.808,116.385 L679.248,104.828 C678.195,103.774 678.196,102.069 679.249,101.017 C680.301,99.966 682.007,99.967 683.058,101.019 L699.212,117.173 C699.718,117.678 700.001,118.363 700.002,119.077 C700.002,119.792 699.718,120.477 699.213,120.982 Z" />
        </g>
    </g>
</svg>