<?xml version="1.0" encoding="UTF-8"?>
<svg height="600" width="800" xmlns="http://www.w3.org/2000/svg" xmlns:xlink="http://www.w3.org/1999/xlink">
    <g id="Notes" font-family="'LucidaGrande', 'Lucida Grande', sans-serif" font-size="13">
        <rect fill="white" height="600.0" width="800.0" x="0.0" y="0.0" />
        <g font-size="13">
            <text x="18.0" y="176.0">Small</text>
            <text x="18.0" y="376.0">Medium</text>
            <text x="18.0" y="576.0">Large</text>
        </g>
        <g font-size="9">
            <text x="250.0" y="30.0">Ultralight</text>
            <text x="450.0" y="30.0">Regular</text>
            <text x="650.0" y="30.0">Black</text>
            <text id="template-version" fill="#505050" text-anchor="end" x="785.0" y="575.0">Template v.3.0</text>
            <a href="https://github.com/swhitty/SwiftDraw">
                <text fill="#505050" text-anchor="end" x="785.0" y="590.0">https://github.com/swhitty/SwiftDraw</text>
            </a>
        </g>
    </g>
    <g id="Guides" stroke="rgb(39, 170, 225)" stroke-width="0.5">
        <path id="Capline-S" d="M18,76 l800,0" />
        <path id="H-reference" d="M85,145.755 L87.685,145.755 L113.369,79.287 L114.052,79.287 L114.052,76 L112.148,76 L85,145.755 Z M95.693,121.536 L130.996,121.536 L130.263,119.313 L96.474,119.313 L95.693,121.536 Z M139.15,145.755 L141.787,145.755 L114.638,76 L113.466,76 L113.466,79.287 L139.15,145.755 Z" stroke="none" />
        <path id="Baseline-S" d="M18,146 l800,0" />
        <path id="left-margin-Ultralight-S" d="M220,56 l0,110" />
        <path id="right-margin-Ultralight-S" d="M310,56 l0,110" />
        <path id="left-margin-Regular-S" d="M420,56 l0,110" />
        <path id="right-margin-Regular-S" d="M510,56 l0,110" />
        <path id="left-margin-Black-S" d="M620,56 l0,110" />
        <path id="right-margin-Black-S" d="M710,56 l0,110" />
        <path id="Capline-M" d="M18,276 l800,0" />
        <path id="Baseline-M" d="M18,346 l800,0" />
        <path id="Capline-L" d="M18,476 l800,0" />
        <path id="Baseline-L" d="M18,546 l800,0" />
    </g>
    <g id="Symbols">
        <g id="Ultralight-S">
            <path d="M289.231,89.462 L289.231,81.385 C289.231,79.957 288.663,78.587 287.654,77.577 C286.644,76.567 285.274,76 283.846,76 L246.154,76 C244.726,76 243.356,76.567 242.346,77.577 C241.337,78.587 240.769,79.957 240.769,81.385 L240.769,89.462 C240.769,90.89 241.337,92.259 242.346,93.269 C243.356,94.279 244.726,94.846 246.154,94.846 L248.388,94.846 L240.803,142.887 C240.571,144.355 241.573,145.734 243.041,145.966 C243.18,145.989 243.321,146 243.462,146 C244.785,145.998 245.91,145.035 246.117,143.728 L248.738,127.154 L281.262,127.154 L283.88,143.728 C284.087,145.036 285.214,146 286.538,146 C286.68,146 286.822,145.989 286.963,145.966 C288.431,145.734 289.432,144.355 289.201,142.887 L281.612,94.846 L283.846,94.846 C285.274,94.846 286.644,94.279 287.654,93.269 C288.663,92.259 289.231,90.89 289.231,89.462 Z M246.154,81.385 L283.846,81.385 L283.846,89.462 L246.154,89.462 Z M280.41,121.769 L249.59,121.769 L253.84,94.846 L276.16,94.846 Z" />
        </g>
        <g id="Regular-S">
            <path d="M489.231,89.462 L489.231,81.385 C489.231,79.957 488.663,78.587 487.654,77.577 C486.644,76.567 485.274,76 483.846,76 L446.154,76 C444.726,76 443.356,76.567 442.346,77.577 C441.337,78.587 440.769,79.957 440.769,81.385 L440.769,89.462 C440.769,90.89 441.337,92.259 442.346,93.269 C443.356,94.279 444.726,94.846 446.154,94.846 L448.388,94.846 L440.803,142.887 C440.571,144.355 441.573,145.734 443.041,145.966 C443.18,145.989 443.321,146 443.462,146 C444.785,145.998 445.91,145.035 446.117,143.728 L448.738,127.154 L481.262,127.154 L483.88,143.728 C484.087,145.036 485.214,146 486.538,146 C486.68,146 486.822,145.989 486.962,145.966 C488.431,145.734 489.432,144.355 489.2,142.887 L481.612,94.846 L483.846,94.846 C485.274,94.846 486.644,94.279 487.654,93.269 C488.663,92.259 489.231,90.89 489.231,89.462 Z M446.154,81.385 L483.846,81.385 L483.846,89.462 L446.154,89.462 Z M480.41,121.769 L449.59,121.769 L453.84,94.846 L476.16,94.846 Z" />
        </g>
        <g id="Black-S">
            <path d="M689.231,89.462 L689.231,81.385 C689.231,79.957 688.663,78.587 687.654,77.577 C686.644,76.567 685.274,76 683.846,76 L646.154,76 C644.726,76 643.356,76.567 642.346,77.577 C641.337,78.587 640.769,79.957 640.769,81.385 L640.769,89.462 C640.769,90.89 641.337,92.259 642.346,93.269 C643.356,94.279 644.726,94.846 646.154,94.846 L648.388,94.846 L640.803,142.887 C640.571,144.355 641.573,145.734 643.041,145.966 C643.18,145.989 643.321,146 643.462,146 C644.785,145.998 645.91,145.035 646.117,143.728 L648.738,127.154 L681.262,127.154 L683.88,143.728 C684.087,145.036 685.214,146 686.538,146 C686.681,146 686.822,145.989 686.963,145.966 C688.431,145.734 689.432,144.355 689.201,142.887 L681.612,94.846 L683.846,94.846 C685.274,94.846 686.644,94.279 687.654,93.269 C688.663,92.259 689.231,90.89 689.231,89.462 Z M646.154,81.385 L683.846,81.385 L683.846,89.462 L646.154,89.462 Z M680.41,121.769 L649.59,121.769 L653.84,94.846 L676.16,94.846 Z" />
        </g>
    </g>
</svg>