<?xml version="1.0" encoding="UTF-8"?>
<svg height="600" width="800" xmlns="http://www.w3.org/2000/svg" xmlns:xlink="http://www.w3.org/1999/xlink">
    <g id="Notes" font-family="'LucidaGrande', 'Lucida Grande', sans-serif" font-size="13">
        <rect fill="white" height="600.0" width="800.0" x="0.0" y="0.0" />
        <g font-size="13">
            <text x="18.0" y="176.0">Small</text>
            <text x="18.0" y="376.0">Medium</text>
            <text x="18.0" y="576.0">Large</text>
        </g>
        <g font-size="9">
            <text x="250.0" y="30.0">Ultralight</text>
            <text x="450.0" y="30.0">Regular</text>
            <text x="650.0" y="30.0">Black</text>
            <text id="template-version" fill="#505050" text-anchor="end" x="785.0" y="575.0">Template v.3.0</text>
            <a href="https://github.com/swhitty/SwiftDraw">
                <text fill="#505050" text-anchor="end" x="785.0" y="590.0">https://github.com/swhitty/SwiftDraw</text>
            </a>
        </g>
    </g>
    <g id="Guides" stroke="rgb(39, 170, 225)" stroke-width="0.5">
        <path id="Capline-S" d="M18,76 l800,0" />
        <path id="H-reference" d="M85,145.755 L87.685,145.755 L113.369,79.287 L114.052,79.287 L114.052,76 L112.148,76 L85,145.755 Z M95.693,121.536 L130.996,121.536 L130.263,119.313 L96.474,119.313 L95.693,121.536 Z M139.15,145.755 L141.787,145.755 L114.638,76 L113.466,76 L113.466,79.287 L139.15,145.755 Z" stroke="none" />
        <path id="Baseline-S" d="M18,146 l800,0" />
        <path id="left-margin-Ultralight-S" d="M220,56 l0,110" />
        <path id="right-margin-Ultralight-S" d="M310,56 l0,110" />
        <path id="left-margin-Regular-S" d="M420,56 l0,110" />
        <path id="right-margin-Regular-S" d="M510,56 l0,110" />
        <path id="left-margin-Black-S" d="M620,56 l0,110" />
        <path id="right-margin-Black-S" d="M710,56 l0,110" />
        <path id="Capline-M" d="M18,276 l800,0" />
        <path id="Baseline-M" d="M18,346 l800,0" />
        <path id="Capline-L" d="M18,476 l800,0" />
        <path id="Baseline-L" d="M18,546 l800,0" />
    </g>
    <g id="Symbols">
        <g id="Ultralight-S">
            <path d="M294.615,81.385 L235.385,81.385 C233.957,81.385 232.587,81.952 231.577,82.962 C230.567,83.972 230,85.341 230,86.769 L230,135.231 C230,136.659 230.567,138.028 231.577,139.038 C232.587,140.048 233.957,140.615 235.385,140.615 L294.615,140.615 C296.043,140.615 297.413,140.048 298.423,139.038 C299.433,138.028 300,136.659 300,135.231 L300,86.769 C300,85.341 299.433,83.972 298.423,82.962 C297.413,81.952 296.043,81.385 294.615,81.385 Z M294.615,108.308 L278.462,108.308 L278.462,86.769 L294.615,86.769 Z M235.385,86.769 L273.077,86.769 L273.077,135.231 L235.385,135.231 Z M294.615,135.231 L278.462,135.231 L278.462,113.692 L294.615,113.692 L294.615,135.231 Z M282.5,97.538 C282.5,95.308 284.308,93.5 286.538,93.5 C288.769,93.5 290.577,95.308 290.577,97.538 C290.577,99.769 288.769,101.577 286.538,101.577 C285.467,101.577 284.44,101.151 283.683,100.394 C282.925,99.637 282.5,98.61 282.5,97.538 Z M290.577,124.462 C290.577,126.692 288.769,128.5 286.538,128.5 C284.308,128.5 282.5,126.692 282.5,124.462 C282.5,122.231 284.308,120.423 286.538,120.423 C287.61,120.423 288.637,120.849 289.394,121.606 C290.151,122.363 290.577,123.39 290.577,124.462 Z M267.608,123.788 C266.737,120.535 264.671,117.731 261.823,115.934 C264.916,112.859 265.849,108.222 264.186,104.19 C262.523,100.158 258.592,97.527 254.231,97.527 C249.869,97.527 245.938,100.158 244.275,104.19 C242.612,108.222 243.545,112.859 246.638,115.934 C243.792,117.733 241.727,120.537 240.853,123.788 C240.483,125.235 241.352,126.702 242.793,127.071 C244.235,127.44 245.702,126.571 246.071,125.13 C246.959,121.68 250.466,119.072 254.232,119.072 C257.998,119.072 261.508,121.673 262.393,125.13 C262.761,126.566 264.228,127.435 265.669,127.066 C267.111,126.697 267.98,125.23 267.611,123.788 Z M248.846,108.308 C248.846,105.334 251.257,102.923 254.231,102.923 C257.205,102.923 259.615,105.334 259.615,108.308 C259.615,111.282 257.205,113.692 254.231,113.692 C252.803,113.692 251.433,113.125 250.423,112.115 C249.413,111.105 248.846,109.736 248.846,108.308 Z" />
        </g>
        <g id="Regular-S">
            <path d="M494.615,81.385 L435.385,81.385 C433.957,81.385 432.587,81.952 431.577,82.962 C430.567,83.972 430,85.341 430,86.769 L430,135.231 C430,136.659 430.567,138.028 431.577,139.038 C432.587,140.048 433.957,140.615 435.385,140.615 L494.615,140.615 C496.043,140.615 497.413,140.048 498.423,139.038 C499.433,138.028 500,136.659 500,135.231 L500,86.769 C500,85.341 499.433,83.972 498.423,82.962 C497.413,81.952 496.043,81.385 494.615,81.385 Z M494.615,108.308 L478.462,108.308 L478.462,86.769 L494.615,86.769 Z M435.385,86.769 L473.077,86.769 L473.077,135.231 L435.385,135.231 Z M494.615,135.231 L478.462,135.231 L478.462,113.692 L494.615,113.692 L494.615,135.231 Z M482.5,97.538 C482.5,95.308 484.308,93.5 486.538,93.5 C488.769,93.5 490.577,95.308 490.577,97.538 C490.577,99.769 488.769,101.577 486.538,101.577 C485.467,101.577 484.44,101.151 483.683,100.394 C482.925,99.637 482.5,98.61 482.5,97.538 Z M490.577,124.462 C490.577,126.692 488.769,128.5 486.538,128.5 C484.308,128.5 482.5,126.692 482.5,124.462 C482.5,122.231 484.308,120.423 486.538,120.423 C487.61,120.423 488.637,120.849 489.394,121.606 C490.151,122.363 490.577,123.39 490.577,124.462 Z M467.608,123.788 C466.737,120.535 464.671,117.731 461.823,115.934 C464.916,112.859 465.849,108.222 464.186,104.19 C462.523,100.158 458.592,97.527 454.231,97.527 C449.869,97.527 445.938,100.158 444.275,104.19 C442.612,108.222 443.545,112.859 446.638,115.934 C443.792,117.733 441.727,120.537 440.853,123.788 C440.483,125.235 441.352,126.702 442.793,127.071 C444.235,127.44 445.702,126.571 446.071,125.13 C446.959,121.68 450.466,119.072 454.232,119.072 C457.998,119.072 461.508,121.673 462.393,125.13 C462.761,126.566 464.228,127.435 465.669,127.066 C467.111,126.697 467.98,125.23 467.611,123.788 Z M448.846,108.308 C448.846,105.334 451.257,102.923 454.231,102.923 C457.205,102.923 459.615,105.334 459.615,108.308 C459.615,111.282 457.205,113.692 454.231,113.692 C452.803,113.692 451.433,113.125 450.423,112.115 C449.413,111.105 448.846,109.736 448.846,108.308 Z" />
        </g>
        <g id="Black-S">
            <path d="M694.615,81.385 L635.385,81.385 C633.957,81.385 632.587,81.952 631.577,82.962 C630.567,83.972 630,85.341 630,86.769 L630,135.231 C630,136.659 630.567,138.028 631.577,139.038 C632.587,140.048 633.957,140.615 635.385,140.615 L694.615,140.615 C696.044,140.615 697.413,140.048 698.423,139.038 C699.433,138.028 700,136.659 700,135.231 L700,86.769 C700,85.341 699.433,83.972 698.423,82.962 C697.413,81.952 696.044,81.385 694.615,81.385 Z M694.615,108.308 L678.462,108.308 L678.462,86.769 L694.615,86.769 Z M635.385,86.769 L673.077,86.769 L673.077,135.231 L635.385,135.231 Z M694.615,135.231 L678.462,135.231 L678.462,113.692 L694.615,113.692 L694.615,135.231 Z M682.5,97.538 C682.5,95.308 684.308,93.5 686.538,93.5 C688.769,93.5 690.577,95.308 690.577,97.538 C690.577,99.769 688.769,101.577 686.538,101.577 C685.467,101.577 684.44,101.151 683.683,100.394 C682.925,99.637 682.5,98.61 682.5,97.538 Z M690.577,124.462 C690.577,126.692 688.769,128.5 686.538,128.5 C684.308,128.5 682.5,126.692 682.5,124.462 C682.5,122.231 684.308,120.423 686.538,120.423 C687.61,120.423 688.637,120.849 689.394,121.606 C690.151,122.363 690.577,123.39 690.577,124.462 Z M667.608,123.788 C666.737,120.535 664.671,117.731 661.823,115.934 C664.916,112.859 665.849,108.222 664.186,104.19 C662.523,100.158 658.592,97.527 654.231,97.527 C649.869,97.527 645.938,100.158 644.275,104.19 C642.612,108.222 643.545,112.859 646.638,115.934 C643.792,117.733 641.727,120.537 640.853,123.788 C640.483,125.235 641.352,126.702 642.793,127.071 C644.235,127.44 645.702,126.571 646.071,125.13 C646.959,121.68 650.466,119.072 654.232,119.072 C657.998,119.072 661.508,121.673 662.393,125.13 C662.761,126.566 664.228,127.435 665.669,127.066 C667.111,126.697 667.98,125.23 667.611,123.788 Z M648.846,108.308 C648.846,105.334 651.257,102.923 654.231,102.923 C657.205,102.923 659.615,105.334 659.615,108.308 C659.615,111.282 657.205,113.692 654.231,113.692 C652.803,113.692 651.433,113.125 650.423,112.115 C649.413,111.105 648.846,109.736 648.846,108.308 Z" />
        </g>
    </g>
</svg>