<?xml version="1.0" encoding="UTF-8"?>
<svg height="600" width="800" xmlns="http://www.w3.org/2000/svg" xmlns:xlink="http://www.w3.org/1999/xlink">
    <g id="Notes" font-family="'LucidaGrande', 'Lucida Grande', sans-serif" font-size="13">
        <rect fill="white" height="600.0" width="800.0" x="0.0" y="0.0" />
        <g font-size="13">
            <text x="18.0" y="176.0">Small</text>
            <text x="18.0" y="376.0">Medium</text>
            <text x="18.0" y="576.0">Large</text>
        </g>
        <g font-size="9">
            <text x="250.0" y="30.0">Ultralight</text>
            <text x="450.0" y="30.0">Regular</text>
            <text x="650.0" y="30.0">Black</text>
            <text id="template-version" fill="#505050" text-anchor="end" x="785.0" y="575.0">Template v.3.0</text>
            <a href="https://github.com/swhitty/SwiftDraw">
                <text fill="#505050" text-anchor="end" x="785.0" y="590.0">https://github.com/swhitty/SwiftDraw</text>
            </a>
        </g>
    </g>
    <g id="Guides" stroke="rgb(39, 170, 225)" stroke-width="0.5">
        <path id="Capline-S" d="M18,76 l800,0" />
        <path id="H-reference" d="M85,145.755 L87.685,145.755 L113.369,79.287 L114.052,79.287 L114.052,76 L112.148,76 L85,145.755 Z M95.693,121.536 L130.996,121.536 L130.263,119.313 L96.474,119.313 L95.693,121.536 Z M139.15,145.755 L141.787,145.755 L114.638,76 L113.466,76 L113.466,79.287 L139.15,145.755 Z" stroke="none" />
        <path id="Baseline-S" d="M18,146 l800,0" />
        <path id="left-margin-Ultralight-S" d="M220,56 l0,110" />
        <path id="right-margin-Ultralight-S" d="M310,56 l0,110" />
        <path id="left-margin-Regular-S" d="M420,56 l0,110" />
        <path id="right-margin-Regular-S" d="M510,56 l0,110" />
        <path id="left-margin-Black-S" d="M620,56 l0,110" />
        <path id="right-margin-Black-S" d="M710,56 l0,110" />
        <path id="Capline-M" d="M18,276 l800,0" />
        <path id="Baseline-M" d="M18,346 l800,0" />
        <path id="Capline-L" d="M18,476 l800,0" />
        <path id="Baseline-L" d="M18,546 l800,0" />
    </g>
    <g id="Symbols">
        <g id="Ultralight-S">
            <path d="M300,137.923 C300,138.637 299.716,139.322 299.211,139.827 C298.707,140.332 298.022,140.615 297.308,140.615 L232.692,140.615 C231.978,140.615 231.293,140.332 230.789,139.827 C230.284,139.322 230,138.637 230,137.923 L230,84.077 C230,82.59 231.205,81.385 232.692,81.385 C234.179,81.385 235.385,82.59 235.385,84.077 L235.385,135.231 L297.308,135.231 C298.022,135.231 298.707,135.514 299.211,136.019 C299.716,136.524 300,137.209 300,137.923 Z M266.346,121.769 C268.577,121.769 270.385,119.961 270.385,117.731 C270.385,115.5 268.577,113.692 266.346,113.692 C264.116,113.692 262.308,115.5 262.308,117.731 C262.308,118.802 262.733,119.829 263.491,120.586 C264.248,121.344 265.275,121.769 266.346,121.769 Z M258.269,102.923 C260.5,102.923 262.308,101.115 262.308,98.885 C262.308,96.654 260.5,94.846 258.269,94.846 C256.039,94.846 254.231,96.654 254.231,98.885 C254.231,99.956 254.656,100.983 255.414,101.74 C256.171,102.498 257.198,102.923 258.269,102.923 Z M247.5,127.154 C249.73,127.154 251.538,125.346 251.538,123.115 C251.538,120.885 249.73,119.077 247.5,119.077 C245.27,119.077 243.462,120.885 243.462,123.115 C243.462,124.186 243.887,125.214 244.644,125.971 C245.402,126.728 246.429,127.154 247.5,127.154 Z M279.808,111 C282.038,111 283.846,109.192 283.846,106.962 C283.846,104.731 282.038,102.923 279.808,102.923 C277.577,102.923 275.769,104.731 275.769,106.962 C275.769,108.033 276.195,109.06 276.952,109.817 C277.709,110.575 278.737,111 279.808,111 Z M287.885,97.538 C290.115,97.538 291.923,95.73 291.923,93.5 C291.923,91.27 290.115,89.462 287.885,89.462 C285.654,89.462 283.846,91.27 283.846,93.5 C283.846,94.571 284.272,95.598 285.029,96.356 C285.786,97.113 286.814,97.538 287.885,97.538 Z M281.154,123.115 C281.154,125.346 282.962,127.154 285.192,127.154 C287.423,127.154 289.231,125.346 289.231,123.115 C289.231,120.885 287.423,119.077 285.192,119.077 C284.121,119.077 283.094,119.502 282.337,120.26 C281.579,121.017 281.154,122.044 281.154,123.115 Z" />
        </g>
        <g id="Regular-S">
            <path d="M500,137.923 C500,138.637 499.716,139.322 499.211,139.827 C498.707,140.332 498.022,140.615 497.308,140.615 L432.692,140.615 C431.978,140.615 431.293,140.332 430.789,139.827 C430.284,139.322 430,138.637 430,137.923 L430,84.077 C430,82.59 431.205,81.385 432.692,81.385 C434.179,81.385 435.385,82.59 435.385,84.077 L435.385,135.231 L497.308,135.231 C498.022,135.231 498.707,135.514 499.211,136.019 C499.716,136.524 500,137.209 500,137.923 Z M466.346,121.769 C468.577,121.769 470.385,119.961 470.385,117.731 C470.385,115.5 468.577,113.692 466.346,113.692 C464.116,113.692 462.308,115.5 462.308,117.731 C462.308,118.802 462.733,119.829 463.491,120.586 C464.248,121.344 465.275,121.769 466.346,121.769 Z M458.269,102.923 C460.5,102.923 462.308,101.115 462.308,98.885 C462.308,96.654 460.5,94.846 458.269,94.846 C456.039,94.846 454.231,96.654 454.231,98.885 C454.231,99.956 454.656,100.983 455.414,101.74 C456.171,102.498 457.198,102.923 458.269,102.923 Z M447.5,127.154 C449.73,127.154 451.538,125.346 451.538,123.115 C451.538,120.885 449.73,119.077 447.5,119.077 C445.27,119.077 443.462,120.885 443.462,123.115 C443.462,124.186 443.887,125.214 444.644,125.971 C445.402,126.728 446.429,127.154 447.5,127.154 Z M479.808,111 C482.038,111 483.846,109.192 483.846,106.962 C483.846,104.731 482.038,102.923 479.808,102.923 C477.577,102.923 475.769,104.731 475.769,106.962 C475.769,108.033 476.195,109.06 476.952,109.817 C477.709,110.575 478.737,111 479.808,111 Z M487.885,97.538 C490.115,97.538 491.923,95.73 491.923,93.5 C491.923,91.27 490.115,89.462 487.885,89.462 C485.654,89.462 483.846,91.27 483.846,93.5 C483.846,94.571 484.272,95.598 485.029,96.356 C485.786,97.113 486.814,97.538 487.885,97.538 Z M481.154,123.115 C481.154,125.346 482.962,127.154 485.192,127.154 C487.423,127.154 489.231,125.346 489.231,123.115 C489.231,120.885 487.423,119.077 485.192,119.077 C484.121,119.077 483.094,119.502 482.337,120.26 C481.579,121.017 481.154,122.044 481.154,123.115 Z" />
        </g>
        <g id="Black-S">
            <path d="M700,137.923 C700,138.637 699.716,139.322 699.211,139.827 C698.707,140.332 698.022,140.615 697.308,140.615 L632.692,140.615 C631.978,140.615 631.293,140.332 630.789,139.827 C630.284,139.322 630,138.637 630,137.923 L630,84.077 C630,82.59 631.205,81.385 632.692,81.385 C634.179,81.385 635.385,82.59 635.385,84.077 L635.385,135.231 L697.308,135.231 C698.022,135.231 698.707,135.514 699.211,136.019 C699.716,136.524 700,137.209 700,137.923 Z M666.346,121.769 C668.577,121.769 670.385,119.961 670.385,117.731 C670.385,115.5 668.577,113.692 666.346,113.692 C664.116,113.692 662.308,115.5 662.308,117.731 C662.308,118.802 662.733,119.829 663.491,120.586 C664.248,121.344 665.275,121.769 666.346,121.769 Z M658.269,102.923 C660.5,102.923 662.308,101.115 662.308,98.885 C662.308,96.654 660.5,94.846 658.269,94.846 C656.039,94.846 654.231,96.654 654.231,98.885 C654.231,99.956 654.656,100.983 655.414,101.74 C656.171,102.498 657.198,102.923 658.269,102.923 Z M647.5,127.154 C649.73,127.154 651.538,125.346 651.538,123.115 C651.538,120.885 649.73,119.077 647.5,119.077 C645.27,119.077 643.462,120.885 643.462,123.115 C643.462,124.186 643.887,125.214 644.644,125.971 C645.402,126.728 646.429,127.154 647.5,127.154 Z M679.808,111 C682.038,111 683.846,109.192 683.846,106.962 C683.846,104.731 682.038,102.923 679.808,102.923 C677.577,102.923 675.769,104.731 675.769,106.962 C675.769,108.033 676.195,109.06 676.952,109.817 C677.709,110.575 678.737,111 679.808,111 Z M687.885,97.538 C690.115,97.538 691.923,95.73 691.923,93.5 C691.923,91.27 690.115,89.462 687.885,89.462 C685.654,89.462 683.846,91.27 683.846,93.5 C683.846,94.571 684.272,95.598 685.029,96.356 C685.786,97.113 686.814,97.538 687.885,97.538 Z M681.154,123.115 C681.154,125.346 682.962,127.154 685.192,127.154 C687.423,127.154 689.231,125.346 689.231,123.115 C689.231,120.885 687.423,119.077 685.192,119.077 C684.121,119.077 683.094,119.502 682.337,120.26 C681.579,121.017 681.154,122.044 681.154,123.115 Z" />
        </g>
    </g>
</svg>