<?xml version="1.0" encoding="UTF-8"?>
<svg height="600" width="800" xmlns="http://www.w3.org/2000/svg" xmlns:xlink="http://www.w3.org/1999/xlink">
    <g id="Notes" font-family="'LucidaGrande', 'Lucida Grande', sans-serif" font-size="13">
        <rect fill="white" height="600.0" width="800.0" x="0.0" y="0.0" />
        <g font-size="13">
            <text x="18.0" y="176.0">Small</text>
            <text x="18.0" y="376.0">Medium</text>
            <text x="18.0" y="576.0">Large</text>
        </g>
        <g font-size="9">
            <text x="250.0" y="30.0">Ultralight</text>
            <text x="450.0" y="30.0">Regular</text>
            <text x="650.0" y="30.0">Black</text>
            <text id="template-version" fill="#505050" text-anchor="end" x="785.0" y="575.0">Template v.3.0</text>
            <a href="https://github.com/swhitty/SwiftDraw">
                <text fill="#505050" text-anchor="end" x="785.0" y="590.0">https://github.com/swhitty/SwiftDraw</text>
            </a>
        </g>
    </g>
    <g id="Guides" stroke="rgb(39, 170, 225)" stroke-width="0.5">
        <path id="Capline-S" d="M18,76 l800,0" />
        <path id="H-reference" d="M85,145.755 L87.685,145.755 L113.369,79.287 L114.052,79.287 L114.052,76 L112.148,76 L85,145.755 Z M95.693,121.536 L130.996,121.536 L130.263,119.313 L96.474,119.313 L95.693,121.536 Z M139.15,145.755 L141.787,145.755 L114.638,76 L113.466,76 L113.466,79.287 L139.15,145.755 Z" stroke="none" />
        <path id="Baseline-S" d="M18,146 l800,0" />
        <path id="left-margin-Ultralight-S" d="M220,56 l0,110" />
        <path id="right-margin-Ultralight-S" d="M310,56 l0,110" />
        <path id="left-margin-Regular-S" d="M420,56 l0,110" />
        <path id="right-margin-Regular-S" d="M510,56 l0,110" />
        <path id="left-margin-Black-S" d="M620,56 l0,110" />
        <path id="right-margin-Black-S" d="M710,56 l0,110" />
        <path id="Capline-M" d="M18,276 l800,0" />
        <path id="Baseline-M" d="M18,346 l800,0" />
        <path id="Capline-L" d="M18,476 l800,0" />
        <path id="Baseline-L" d="M18,546 l800,0" />
    </g>
    <g id="Symbols">
        <g id="Ultralight-S">
            <path d="M299.212,104.828 L283.059,120.982 C282.008,122.033 280.303,122.034 279.25,120.983 C278.198,119.931 278.197,118.226 279.248,117.173 L293.501,102.923 L279.249,88.674 C278.197,87.62 278.198,85.915 279.25,84.863 C280.303,83.812 282.008,83.813 283.06,84.865 L299.214,101.019 C299.719,101.524 300.002,102.21 300.002,102.924 C300.002,103.638 299.718,104.323 299.212,104.828 Z M283.059,101.018 L266.905,84.864 C265.854,83.813 264.149,83.812 263.096,84.863 C262.044,85.915 262.043,87.62 263.094,88.673 L274.655,100.231 L265,100.231 C245.678,100.251 230.02,115.909 230,135.231 C230,136.718 231.205,137.923 232.692,137.923 C234.179,137.923 235.385,136.718 235.385,135.231 C235.402,118.884 248.65,105.635 264.999,105.615 L274.654,105.615 L263.094,117.172 C262.041,118.226 262.042,119.931 263.095,120.983 C264.148,122.034 265.853,122.033 266.905,120.981 L283.058,104.827 C283.564,104.322 283.848,103.637 283.848,102.923 C283.848,102.208 283.564,101.523 283.059,101.018 Z" />
        </g>
        <g id="Regular-S">
            <path d="M499.212,104.828 L483.059,120.982 C482.008,122.033 480.303,122.034 479.25,120.983 C478.198,119.931 478.197,118.226 479.248,117.173 L493.501,102.923 L479.249,88.674 C478.197,87.62 478.198,85.915 479.25,84.863 C480.303,83.812 482.008,83.813 483.06,84.865 L499.214,101.019 C499.719,101.524 500.002,102.21 500.002,102.924 C500.002,103.638 499.718,104.323 499.212,104.828 Z M483.059,101.018 L466.905,84.864 C465.854,83.813 464.149,83.812 463.096,84.863 C462.044,85.915 462.043,87.62 463.094,88.673 L474.655,100.231 L465,100.231 C445.678,100.251 430.02,115.909 430,135.231 C430,136.718 431.205,137.923 432.692,137.923 C434.179,137.923 435.385,136.718 435.385,135.231 C435.402,118.884 448.65,105.635 464.999,105.615 L474.654,105.615 L463.094,117.172 C462.041,118.226 462.042,119.931 463.095,120.983 C464.148,122.034 465.853,122.033 466.905,120.981 L483.058,104.827 C483.564,104.322 483.848,103.637 483.848,102.923 C483.848,102.208 483.564,101.523 483.059,101.018 Z" />
        </g>
        <g id="Black-S">
            <path d="M699.213,104.828 L683.059,120.982 C682.008,122.033 680.303,122.034 679.25,120.983 C678.198,119.931 678.197,118.226 679.248,117.173 L693.501,102.923 L679.249,88.674 C678.197,87.62 678.198,85.915 679.25,84.863 C680.303,83.812 682.008,83.813 683.06,84.865 L699.214,101.019 C699.719,101.524 700.002,102.21 700.002,102.924 C700.002,103.638 699.718,104.323 699.213,104.828 Z M683.059,101.018 L666.905,84.864 C665.854,83.813 664.149,83.812 663.096,84.863 C662.044,85.915 662.043,87.62 663.094,88.673 L674.655,100.231 L665,100.231 C645.679,100.251 630.02,115.909 630,135.231 C630,136.718 631.205,137.923 632.692,137.923 C634.179,137.923 635.385,136.718 635.385,135.231 C635.402,118.884 648.65,105.635 664.999,105.615 L674.654,105.615 L663.094,117.172 C662.041,118.226 662.042,119.931 663.095,120.983 C664.148,122.034 665.853,122.033 666.905,120.981 L683.058,104.827 C683.564,104.322 683.848,103.637 683.848,102.923 C683.848,102.208 683.564,101.523 683.059,101.018 Z" />
        </g>
    </g>
</svg>