<?xml version="1.0" encoding="UTF-8"?>
<svg height="600" width="800" xmlns="http://www.w3.org/2000/svg" xmlns:xlink="http://www.w3.org/1999/xlink">
    <g id="Notes" font-family="'LucidaGrande', 'Lucida Grande', sans-serif" font-size="13">
        <rect fill="white" height="600.0" width="800.0" x="0.0" y="0.0" />
        <g font-size="13">
            <text x="18.0" y="176.0">Small</text>
            <text x="18.0" y="376.0">Medium</text>
            <text x="18.0" y="576.0">Large</text>
        </g>
        <g font-size="9">
            <text x="250.0" y="30.0">Ultralight</text>
            <text x="450.0" y="30.0">Regular</text>
            <text x="650.0" y="30.0">Black</text>
            <text id="template-version" fill="#505050" text-anchor="end" x="785.0" y="575.0">Template v.3.0</text>
            <a href="https://github.com/swhitty/SwiftDraw">
                <text fill="#505050" text-anchor="end" x="785.0" y="590.0">https://github.com/swhitty/SwiftDraw</text>
            </a>
        </g>
    </g>
    <g id="Guides" stroke="rgb(39, 170, 225)" stroke-width="0.5">
        <path id="Capline-S" d="M18,76 l800,0" />
        <path id="H-reference" d="M85,145.755 L87.685,145.755 L113.369,79.287 L114.052,79.287 L114.052,76 L112.148,76 L85,145.755 Z M95.693,121.536 L130.996,121.536 L130.263,119.313 L96.474,119.313 L95.693,121.536 Z M139.15,145.755 L141.787,145.755 L114.638,76 L113.466,76 L113.466,79.287 L139.15,145.755 Z" stroke="none" />
        <path id="Baseline-S" d="M18,146 l800,0" />
        <path id="left-margin-Ultralight-S" d="M220,56 l0,110" />
        <path id="right-margin-Ultralight-S" d="M310,56 l0,110" />
        <path id="left-margin-Regular-S" d="M420,56 l0,110" />
        <path id="right-margin-Regular-S" d="M510,56 l0,110" />
        <path id="left-margin-Black-S" d="M620,56 l0,110" />
        <path id="right-margin-Black-S" d="M710,56 l0,110" />
        <path id="Capline-M" d="M18,276 l800,0" />
        <path id="Baseline-M" d="M18,346 l800,0" />
        <path id="Capline-L" d="M18,476 l800,0" />
        <path id="Baseline-L" d="M18,546 l800,0" />
    </g>
    <g id="Symbols">
        <g id="Ultralight-S">
            <path d="M283.846,111 C283.865,121.877 281.745,132.653 277.607,142.714 C277.197,143.729 276.212,144.395 275.117,144.397 C274.771,144.394 274.428,144.325 274.107,144.195 C273.446,143.924 272.92,143.4 272.644,142.741 C272.369,142.081 272.368,141.339 272.64,140.678 C276.507,131.263 278.485,121.179 278.462,111 C278.462,109.513 279.667,108.308 281.154,108.308 C282.641,108.308 283.846,109.513 283.846,111 Z M265,97.538 C268.829,97.541 272.477,99.172 275.032,102.025 C275.669,102.759 276.652,103.093 277.605,102.899 C278.557,102.705 279.331,102.012 279.629,101.087 C279.927,100.162 279.704,99.148 279.044,98.434 C273.834,92.612 265.572,90.608 258.274,93.397 C250.975,96.185 246.154,103.187 246.154,111 C246.154,118.75 244.186,126.375 240.434,133.159 C239.713,134.463 240.184,136.102 241.486,136.822 C242.787,137.542 244.426,137.071 245.146,135.769 C249.338,128.186 251.538,119.664 251.538,111 C251.538,107.43 252.957,104.006 255.481,101.481 C258.006,98.957 261.43,97.538 265,97.538 Z M265,76 C261.026,75.995 257.08,76.669 253.332,77.992 C251.957,78.507 251.247,80.028 251.737,81.413 C252.227,82.797 253.737,83.533 255.129,83.067 C264.195,79.871 274.248,81.27 282.096,86.822 C289.944,92.374 294.611,101.387 294.615,111 C294.619,118.044 293.836,125.068 292.28,131.94 C291.951,133.387 292.854,134.827 294.3,135.161 C294.496,135.206 294.697,135.229 294.899,135.228 C296.156,135.228 297.245,134.358 297.524,133.132 C299.168,125.869 299.998,118.446 300,111 C299.979,91.677 284.32,76.02 264.999,76 Z M245.259,88.93 C246.368,87.937 246.462,86.235 245.47,85.126 C244.478,84.018 242.776,83.924 241.667,84.915 C234.25,91.559 230.008,101.043 230,111 C230.007,115.26 229.089,119.47 227.307,123.339 C226.686,124.69 227.279,126.289 228.63,126.909 C229.981,127.53 231.58,126.938 232.201,125.586 C234.307,121.013 235.394,116.035 235.385,111 C235.392,102.575 238.982,94.55 245.258,88.93 Z M260.262,135.48 C259.613,135.182 258.872,135.153 258.202,135.402 C257.533,135.65 256.989,136.153 256.691,136.802 C256.045,138.216 255.345,139.626 254.574,140.989 C254.226,141.614 254.142,142.352 254.339,143.039 C254.536,143.727 254.998,144.308 255.624,144.654 C256.022,144.876 256.471,144.992 256.926,144.99 C257.905,144.991 258.807,144.46 259.282,143.604 C260.103,142.12 260.877,140.575 261.584,139.054 C261.883,138.405 261.912,137.663 261.664,136.993 C261.416,136.322 260.911,135.778 260.262,135.48 Z M265,108.308 C264.286,108.308 263.601,108.591 263.096,109.096 C262.591,109.601 262.308,110.286 262.308,111 C262.31,116.223 261.655,121.425 260.359,126.483 C259.988,127.922 260.854,129.389 262.294,129.761 C262.514,129.816 262.74,129.845 262.967,129.845 C264.194,129.844 265.265,129.013 265.572,127.825 C266.983,122.328 267.695,116.674 267.692,110.999 C267.691,109.513 266.486,108.308 265,108.308 Z" />
        </g>
        <g id="Regular-S">
            <path d="M483.846,111 C483.865,121.877 481.745,132.653 477.607,142.714 C477.197,143.729 476.212,144.395 475.117,144.397 C474.771,144.394 474.428,144.325 474.107,144.195 C473.446,143.924 472.92,143.4 472.644,142.741 C472.369,142.081 472.368,141.339 472.64,140.678 C476.507,131.263 478.485,121.179 478.462,111 C478.462,109.513 479.667,108.308 481.154,108.308 C482.641,108.308 483.846,109.513 483.846,111 Z M465,97.538 C468.829,97.541 472.477,99.172 475.032,102.025 C475.669,102.759 476.652,103.093 477.605,102.899 C478.557,102.705 479.331,102.012 479.629,101.087 C479.927,100.162 479.704,99.148 479.044,98.434 C473.834,92.612 465.572,90.608 458.274,93.397 C450.975,96.185 446.154,103.187 446.154,111 C446.154,118.75 444.186,126.375 440.434,133.159 C439.713,134.463 440.184,136.102 441.486,136.822 C442.787,137.542 444.426,137.071 445.146,135.769 C449.338,128.186 451.538,119.664 451.538,111 C451.538,107.43 452.957,104.006 455.481,101.481 C458.006,98.957 461.43,97.538 465,97.538 Z M465,76 C461.026,75.995 457.08,76.669 453.332,77.992 C451.957,78.507 451.247,80.028 451.737,81.413 C452.227,82.797 453.737,83.533 455.129,83.067 C464.195,79.871 474.248,81.27 482.096,86.822 C489.944,92.374 494.611,101.387 494.615,111 C494.619,118.044 493.836,125.068 492.28,131.94 C491.951,133.387 492.854,134.827 494.3,135.161 C494.496,135.206 494.697,135.229 494.899,135.228 C496.156,135.228 497.245,134.358 497.524,133.132 C499.168,125.869 499.998,118.446 500,111 C499.979,91.677 484.32,76.02 464.999,76 Z M445.259,88.93 C446.368,87.937 446.462,86.235 445.47,85.126 C444.478,84.018 442.776,83.924 441.667,84.915 C434.25,91.559 430.008,101.043 430,111 C430.007,115.26 429.089,119.47 427.307,123.339 C426.686,124.69 427.279,126.289 428.63,126.909 C429.981,127.53 431.58,126.938 432.201,125.586 C434.307,121.013 435.394,116.035 435.385,111 C435.392,102.575 438.982,94.55 445.258,88.93 Z M460.262,135.48 C459.613,135.182 458.872,135.153 458.202,135.402 C457.533,135.65 456.989,136.153 456.691,136.802 C456.045,138.216 455.345,139.626 454.574,140.989 C454.226,141.614 454.142,142.352 454.339,143.039 C454.536,143.727 454.998,144.308 455.624,144.654 C456.022,144.876 456.471,144.992 456.926,144.99 C457.905,144.991 458.807,144.46 459.282,143.604 C460.103,142.12 460.877,140.575 461.584,139.054 C461.883,138.405 461.912,137.663 461.664,136.993 C461.416,136.322 460.911,135.778 460.262,135.48 Z M465,108.308 C464.286,108.308 463.601,108.591 463.096,109.096 C462.591,109.601 462.308,110.286 462.308,111 C462.309,116.223 461.655,121.425 460.359,126.483 C459.988,127.922 460.854,129.389 462.294,129.761 C462.514,129.816 462.74,129.845 462.967,129.845 C464.194,129.844 465.265,129.013 465.572,127.825 C466.983,122.328 467.695,116.674 467.692,110.999 C467.691,109.513 466.486,108.308 465,108.308 Z" />
        </g>
        <g id="Black-S">
            <path d="M683.846,111 C683.865,121.877 681.745,132.653 677.607,142.714 C677.197,143.729 676.212,144.395 675.117,144.397 C674.771,144.394 674.428,144.325 674.107,144.195 C673.446,143.924 672.92,143.4 672.644,142.741 C672.369,142.081 672.368,141.339 672.64,140.678 C676.507,131.263 678.485,121.179 678.462,111 C678.462,109.513 679.667,108.308 681.154,108.308 C682.641,108.308 683.846,109.513 683.846,111 Z M665,97.538 C668.829,97.541 672.477,99.172 675.032,102.025 C675.669,102.759 676.652,103.093 677.605,102.899 C678.557,102.705 679.331,102.012 679.629,101.087 C679.927,100.162 679.704,99.148 679.044,98.434 C673.834,92.612 665.572,90.608 658.274,93.397 C650.975,96.185 646.154,103.187 646.154,111 C646.154,118.75 644.186,126.375 640.434,133.159 C639.713,134.463 640.184,136.102 641.486,136.822 C642.787,137.542 644.426,137.071 645.146,135.769 C649.338,128.186 651.538,119.664 651.538,111 C651.538,107.43 652.957,104.006 655.481,101.481 C658.006,98.957 661.43,97.538 665,97.538 Z M665,76 C661.026,75.995 657.08,76.669 653.332,77.992 C651.957,78.507 651.247,80.028 651.737,81.413 C652.227,82.797 653.737,83.533 655.129,83.067 C664.195,79.871 674.248,81.27 682.096,86.822 C689.944,92.374 694.611,101.387 694.615,111 C694.619,118.044 693.836,125.068 692.28,131.94 C691.951,133.387 692.854,134.827 694.3,135.161 C694.496,135.206 694.697,135.229 694.899,135.228 C696.156,135.228 697.245,134.358 697.524,133.132 C699.168,125.869 699.998,118.446 700,111 C699.979,91.677 684.32,76.02 664.999,76 Z M645.259,88.93 C646.368,87.937 646.462,86.235 645.47,85.126 C644.478,84.018 642.776,83.924 641.667,84.915 C634.25,91.559 630.008,101.043 630,111 C630.007,115.26 629.089,119.47 627.307,123.339 C626.686,124.69 627.279,126.289 628.63,126.909 C629.981,127.53 631.58,126.938 632.201,125.586 C634.307,121.013 635.394,116.035 635.385,111 C635.392,102.575 638.982,94.55 645.258,88.93 Z M660.262,135.48 C659.613,135.182 658.872,135.153 658.202,135.402 C657.533,135.65 656.989,136.153 656.691,136.802 C656.045,138.216 655.345,139.626 654.574,140.989 C654.226,141.614 654.142,142.352 654.339,143.039 C654.536,143.727 654.998,144.308 655.624,144.654 C656.022,144.876 656.471,144.992 656.926,144.99 C657.905,144.991 658.807,144.46 659.282,143.604 C660.103,142.12 660.877,140.575 661.584,139.054 C661.883,138.405 661.912,137.663 661.664,136.993 C661.416,136.322 660.911,135.778 660.262,135.48 Z M665,108.308 C664.286,108.308 663.601,108.591 663.096,109.096 C662.591,109.601 662.308,110.286 662.308,111 C662.31,116.223 661.655,121.425 660.359,126.483 C659.988,127.922 660.854,129.389 662.294,129.761 C662.514,129.816 662.74,129.845 662.967,129.845 C664.194,129.844 665.265,129.013 665.572,127.825 C666.983,122.328 667.695,116.674 667.692,110.999 C667.691,109.513 666.486,108.308 665,108.308 Z" />
        </g>
    </g>
</svg>