<?xml version="1.0" encoding="UTF-8"?>
<svg height="600" width="800" xmlns="http://www.w3.org/2000/svg" xmlns:xlink="http://www.w3.org/1999/xlink">
    <g id="Notes" font-family="'LucidaGrande', 'Lucida Grande', sans-serif" font-size="13">
        <rect fill="white" height="600.0" width="800.0" x="0.0" y="0.0" />
        <g font-size="13">
            <text x="18.0" y="176.0">Small</text>
            <text x="18.0" y="376.0">Medium</text>
            <text x="18.0" y="576.0">Large</text>
        </g>
        <g font-size="9">
            <text x="250.0" y="30.0">Ultralight</text>
            <text x="450.0" y="30.0">Regular</text>
            <text x="650.0" y="30.0">Black</text>
            <text id="template-version" fill="#505050" text-anchor="end" x="785.0" y="575.0">Template v.3.0</text>
            <a href="https://github.com/swhitty/SwiftDraw">
                <text fill="#505050" text-anchor="end" x="785.0" y="590.0">https://github.com/swhitty/SwiftDraw</text>
            </a>
        </g>
    </g>
    <g id="Guides" stroke="rgb(39, 170, 225)" stroke-width="0.5">
        <path id="Capline-S" d="M18,76 l800,0" />
        <path id="H-reference" d="M85,145.755 L87.685,145.755 L113.369,79.287 L114.052,79.287 L114.052,76 L112.148,76 L85,145.755 Z M95.693,121.536 L130.996,121.536 L130.263,119.313 L96.474,119.313 L95.693,121.536 Z M139.15,145.755 L141.787,145.755 L114.638,76 L113.466,76 L113.466,79.287 L139.15,145.755 Z" stroke="none" />
        <path id="Baseline-S" d="M18,146 l800,0" />
        <path id="left-margin-Ultralight-S" d="M220,56 l0,110" />
        <path id="right-margin-Ultralight-S" d="M310,56 l0,110" />
        <path id="left-margin-Regular-S" d="M420,56 l0,110" />
        <path id="right-margin-Regular-S" d="M510,56 l0,110" />
        <path id="left-margin-Black-S" d="M620,56 l0,110" />
        <path id="right-margin-Black-S" d="M710,56 l0,110" />
        <path id="Capline-M" d="M18,276 l800,0" />
        <path id="Baseline-M" d="M18,346 l800,0" />
        <path id="Capline-L" d="M18,476 l800,0" />
        <path id="Baseline-L" d="M18,546 l800,0" />
    </g>
    <g id="Symbols">
        <g id="Ultralight-S">
            <path d="M275.769,86.769 L243.462,86.769 C242.033,86.769 240.664,87.337 239.654,88.346 C238.644,89.356 238.077,90.726 238.077,92.154 L238.077,143.308 C238.077,144.316 238.641,145.24 239.537,145.702 C240.434,146.163 241.514,146.085 242.334,145.499 L259.615,133.154 L276.9,145.499 C277.721,146.083 278.799,146.16 279.694,145.699 C280.59,145.238 281.153,144.315 281.154,143.308 L281.154,92.154 C281.154,90.726 280.587,89.356 279.577,88.346 C278.567,87.337 277.197,86.769 275.769,86.769 Z M275.769,138.078 L261.177,127.645 C260.241,126.977 258.983,126.977 258.047,127.645 L243.462,138.075 L243.462,92.154 L275.769,92.154 Z M291.923,81.385 L291.923,132.538 C291.923,134.025 290.718,135.231 289.231,135.231 C287.744,135.231 286.538,134.025 286.538,132.538 L286.538,81.385 L251.538,81.385 C250.052,81.385 248.846,80.179 248.846,78.692 C248.846,77.205 250.052,76 251.538,76 L286.538,76 C287.967,76 289.336,76.567 290.346,77.577 C291.356,78.587 291.923,79.957 291.923,81.385 Z" />
        </g>
        <g id="Regular-S">
            <path d="M475.769,86.769 L443.462,86.769 C442.033,86.769 440.664,87.337 439.654,88.346 C438.644,89.356 438.077,90.726 438.077,92.154 L438.077,143.308 C438.077,144.316 438.641,145.24 439.537,145.702 C440.434,146.163 441.514,146.085 442.334,145.499 L459.615,133.154 L476.9,145.499 C477.721,146.083 478.799,146.16 479.694,145.699 C480.59,145.238 481.153,144.315 481.154,143.308 L481.154,92.154 C481.154,90.726 480.587,89.356 479.577,88.346 C478.567,87.337 477.197,86.769 475.769,86.769 Z M475.769,138.078 L461.177,127.645 C460.241,126.977 458.983,126.977 458.047,127.645 L443.462,138.075 L443.462,92.154 L475.769,92.154 Z M491.923,81.385 L491.923,132.538 C491.923,134.025 490.718,135.231 489.231,135.231 C487.744,135.231 486.538,134.025 486.538,132.538 L486.538,81.385 L451.538,81.385 C450.052,81.385 448.846,80.179 448.846,78.692 C448.846,77.205 450.052,76 451.538,76 L486.538,76 C487.967,76 489.336,76.567 490.346,77.577 C491.356,78.587 491.923,79.957 491.923,81.385 Z" />
        </g>
        <g id="Black-S">
            <path d="M675.769,86.769 L643.462,86.769 C642.033,86.769 640.664,87.337 639.654,88.346 C638.644,89.356 638.077,90.726 638.077,92.154 L638.077,143.308 C638.077,144.316 638.641,145.24 639.537,145.702 C640.434,146.163 641.514,146.085 642.334,145.499 L659.615,133.154 L676.9,145.499 C677.721,146.083 678.799,146.16 679.694,145.699 C680.59,145.238 681.153,144.315 681.154,143.308 L681.154,92.154 C681.154,90.726 680.587,89.356 679.577,88.346 C678.567,87.337 677.197,86.769 675.769,86.769 Z M675.769,138.078 L661.177,127.645 C660.241,126.977 658.983,126.977 658.047,127.645 L643.462,138.075 L643.462,92.154 L675.769,92.154 Z M691.923,81.385 L691.923,132.538 C691.923,134.025 690.718,135.231 689.231,135.231 C687.744,135.231 686.538,134.025 686.538,132.538 L686.538,81.385 L651.538,81.385 C650.052,81.385 648.846,80.179 648.846,78.692 C648.846,77.205 650.052,76 651.538,76 L686.538,76 C687.967,76 689.336,76.567 690.346,77.577 C691.356,78.587 691.923,79.957 691.923,81.385 Z" />
        </g>
    </g>
</svg>