<?xml version="1.0" encoding="UTF-8"?>
<svg height="600" width="800" xmlns="http://www.w3.org/2000/svg" xmlns:xlink="http://www.w3.org/1999/xlink">
    <g id="Notes" font-family="'LucidaGrande', 'Lucida Grande', sans-serif" font-size="13">
        <rect fill="white" height="600.0" width="800.0" x="0.0" y="0.0" />
        <g font-size="13">
            <text x="18.0" y="176.0">Small</text>
            <text x="18.0" y="376.0">Medium</text>
            <text x="18.0" y="576.0">Large</text>
        </g>
        <g font-size="9">
            <text x="250.0" y="30.0">Ultralight</text>
            <text x="450.0" y="30.0">Regular</text>
            <text x="650.0" y="30.0">Black</text>
            <text id="template-version" fill="#505050" text-anchor="end" x="785.0" y="575.0">Template v.3.0</text>
            <a href="https://github.com/swhitty/SwiftDraw">
                <text fill="#505050" text-anchor="end" x="785.0" y="590.0">https://github.com/swhitty/SwiftDraw</text>
            </a>
        </g>
    </g>
    <g id="Guides" stroke="rgb(39, 170, 225)" stroke-width="0.5">
        <path id="Capline-S" d="M18,76 l800,0" />
        <path id="H-reference" d="M85,145.755 L87.685,145.755 L113.369,79.287 L114.052,79.287 L114.052,76 L112.148,76 L85,145.755 Z M95.693,121.536 L130.996,121.536 L130.263,119.313 L96.474,119.313 L95.693,121.536 Z M139.15,145.755 L141.787,145.755 L114.638,76 L113.466,76 L113.466,79.287 L139.15,145.755 Z" stroke="none" />
        <path id="Baseline-S" d="M18,146 l800,0" />
        <path id="left-margin-Ultralight-S" d="M220,56 l0,110" />
        <path id="right-margin-Ultralight-S" d="M310,56 l0,110" />
        <path id="left-margin-Regular-S" d="M420,56 l0,110" />
        <path id="right-margin-Regular-S" d="M510,56 l0,110" />
        <path id="left-margin-Black-S" d="M620,56 l0,110" />
        <path id="right-margin-Black-S" d="M710,56 l0,110" />
        <path id="Capline-M" d="M18,276 l800,0" />
        <path id="Baseline-M" d="M18,346 l800,0" />
        <path id="Capline-L" d="M18,476 l800,0" />
        <path id="Baseline-L" d="M18,546 l800,0" />
    </g>
    <g id="Symbols">
        <g id="Ultralight-S">
            <path d="M291.136,133.326 C292.188,134.38 292.187,136.085 291.135,137.137 C290.082,138.188 288.376,138.187 287.325,137.135 L265,114.806 L242.674,137.136 C241.624,138.187 239.918,138.188 238.865,137.137 C237.813,136.085 237.812,134.38 238.863,133.327 L261.194,111 L238.864,88.674 C237.812,87.62 237.813,85.915 238.865,84.863 C239.918,83.812 241.624,83.813 242.675,84.865 L265,107.194 L287.326,84.864 C288.376,83.813 290.082,83.812 291.135,84.863 C292.187,85.915 292.188,87.62 291.137,88.673 L268.806,111 Z" />
        </g>
        <g id="Regular-S">
            <path d="M491.136,133.326 C492.188,134.38 492.187,136.085 491.135,137.137 C490.082,138.188 488.376,138.187 487.325,137.135 L465,114.806 L442.674,137.136 C441.624,138.187 439.918,138.188 438.865,137.137 C437.813,136.085 437.812,134.38 438.863,133.327 L461.194,111 L438.864,88.674 C437.812,87.62 437.813,85.915 438.865,84.863 C439.918,83.812 441.624,83.813 442.675,84.865 L465,107.194 L487.326,84.864 C488.376,83.813 490.082,83.812 491.135,84.863 C492.187,85.915 492.188,87.62 491.137,88.673 L468.806,111 Z" />
        </g>
        <g id="Black-S">
            <path d="M691.136,133.326 C692.188,134.38 692.187,136.085 691.135,137.137 C690.082,138.188 688.376,138.187 687.325,137.135 L665,114.806 L642.674,137.136 C641.624,138.187 639.918,138.188 638.865,137.137 C637.813,136.085 637.812,134.38 638.863,133.327 L661.194,111 L638.864,88.674 C637.812,87.62 637.813,85.915 638.865,84.863 C639.918,83.812 641.624,83.813 642.675,84.865 L665,107.194 L687.326,84.864 C688.376,83.813 690.082,83.812 691.135,84.863 C692.187,85.915 692.188,87.62 691.137,88.673 L668.806,111 Z" />
        </g>
    </g>
</svg>