<?xml version="1.0" encoding="UTF-8"?>
<svg height="600" width="800" xmlns="http://www.w3.org/2000/svg" xmlns:xlink="http://www.w3.org/1999/xlink">
    <g id="Notes" font-family="'LucidaGrande', 'Lucida Grande', sans-serif" font-size="13">
        <rect fill="white" height="600.0" width="800.0" x="0.0" y="0.0" />
        <g font-size="13">
            <text x="18.0" y="176.0">Small</text>
            <text x="18.0" y="376.0">Medium</text>
            <text x="18.0" y="576.0">Large</text>
        </g>
        <g font-size="9">
            <text x="250.0" y="30.0">Ultralight</text>
            <text x="450.0" y="30.0">Regular</text>
            <text x="650.0" y="30.0">Black</text>
            <text id="template-version" fill="#505050" text-anchor="end" x="785.0" y="575.0">Template v.3.0</text>
            <a href="https://github.com/swhitty/SwiftDraw">
                <text fill="#505050" text-anchor="end" x="785.0" y="590.0">https://github.com/swhitty/SwiftDraw</text>
            </a>
        </g>
    </g>
    <g id="Guides" stroke="rgb(39, 170, 225)" stroke-width="0.5">
        <path id="Capline-S" d="M18,76 l800,0" />
        <path id="H-reference" d="M85,145.755 L87.685,145.755 L113.369,79.287 L114.052,79.287 L114.052,76 L112.148,76 L85,145.755 Z M95.693,121.536 L130.996,121.536 L130.263,119.313 L96.474,119.313 L95.693,121.536 Z M139.15,145.755 L141.787,145.755 L114.638,76 L113.466,76 L113.466,79.287 L139.15,145.755 Z" stroke="none" />
        <path id="Baseline-S" d="M18,146 l800,0" />
        <path id="left-margin-Ultralight-S" d="M220,56 l0,110" />
        <path id="right-margin-Ultralight-S" d="M310,56 l0,110" />
        <path id="left-margin-Regular-S" d="M420,56 l0,110" />
        <path id="right-margin-Regular-S" d="M510,56 l0,110" />
        <path id="left-margin-Black-S" d="M620,56 l0,110" />
        <path id="right-margin-Black-S" d="M710,56 l0,110" />
        <path id="Capline-M" d="M18,276 l800,0" />
        <path id="Baseline-M" d="M18,346 l800,0" />
        <path id="Capline-L" d="M18,476 l800,0" />
        <path id="Baseline-L" d="M18,546 l800,0" />
    </g>
    <g id="Symbols">
        <g id="Ultralight-S">
            <path d="M298.738,89.149 L297.17,88.243 C297.354,87.269 297.354,86.269 297.17,85.295 L298.738,84.39 C300.026,83.646 300.467,81.999 299.724,80.711 C298.98,79.423 297.333,78.982 296.045,79.726 L294.474,80.634 C293.722,79.989 292.857,79.488 291.923,79.157 L291.923,77.346 C291.923,75.859 290.718,74.654 289.231,74.654 C287.744,74.654 286.538,75.859 286.538,77.346 L286.538,79.157 C285.604,79.488 284.74,79.989 283.987,80.634 L282.416,79.725 C281.128,78.982 279.481,79.423 278.738,80.711 C277.994,81.999 278.435,83.646 279.723,84.39 L281.292,85.295 C281.108,86.269 281.108,87.269 281.292,88.243 L279.723,89.148 C278.667,89.757 278.152,91 278.468,92.177 C278.783,93.355 279.85,94.173 281.069,94.173 C281.542,94.174 282.007,94.05 282.416,93.813 L283.987,92.904 C284.739,93.55 285.604,94.05 286.538,94.382 L286.538,96.192 C286.538,97.679 287.744,98.885 289.231,98.885 C290.718,98.885 291.923,97.679 291.923,96.192 L291.923,94.382 C292.857,94.05 293.722,93.55 294.474,92.904 L296.046,93.813 C296.455,94.05 296.919,94.175 297.392,94.173 C298.611,94.174 299.678,93.355 299.993,92.178 C300.309,91 299.794,89.758 298.738,89.149 Z M286.538,86.769 C286.538,85.282 287.744,84.077 289.231,84.077 C290.718,84.077 291.923,85.282 291.923,86.769 C291.923,88.256 290.718,89.462 289.231,89.462 C288.517,89.462 287.832,89.178 287.327,88.673 C286.822,88.168 286.538,87.483 286.538,86.769 Z M296.416,102.96 C294.949,103.205 293.96,104.593 294.205,106.06 C294.478,107.692 294.616,109.345 294.615,111 C294.622,118.249 291.958,125.247 287.131,130.656 C284.129,126.305 279.907,122.939 274.996,120.981 C280.403,116.722 282.518,109.505 280.264,103.002 C278.01,96.498 271.884,92.137 265.001,92.137 C258.118,92.137 251.991,96.498 249.737,103.002 C247.484,109.505 249.598,116.722 255.005,120.981 C250.095,122.939 245.873,126.305 242.87,130.656 C235.135,121.94 233.231,109.497 238.006,98.866 C242.781,88.235 253.346,81.393 265,81.385 C266.655,81.384 268.308,81.522 269.94,81.795 C271.4,82.025 272.772,81.037 273.015,79.58 C273.259,78.123 272.283,76.742 270.829,76.485 C255.827,73.961 240.914,81.425 233.942,94.946 C226.971,108.468 229.54,124.946 240.297,135.703 C251.054,146.46 267.532,149.029 281.054,142.058 C294.575,135.086 302.039,120.173 299.515,105.171 C299.27,103.705 297.882,102.715 296.416,102.96 Z M254.231,108.308 C254.231,102.36 259.052,97.538 265,97.538 C270.948,97.538 275.769,102.36 275.769,108.308 C275.769,114.255 270.948,119.077 265,119.077 C262.144,119.077 259.405,117.942 257.385,115.923 C255.365,113.903 254.231,111.164 254.231,108.308 Z M246.854,134.389 C250.812,128.199 257.653,124.454 265,124.454 C272.347,124.454 279.188,128.199 283.146,134.389 C272.473,142.69 257.527,142.69 246.854,134.389 Z" />
        </g>
        <g id="Regular-S">
            <path d="M498.738,89.149 L497.17,88.243 C497.354,87.269 497.354,86.269 497.17,85.295 L498.738,84.39 C500.026,83.646 500.467,81.999 499.724,80.711 C498.98,79.423 497.333,78.982 496.045,79.726 L494.474,80.634 C493.722,79.989 492.857,79.488 491.923,79.157 L491.923,77.346 C491.923,75.859 490.718,74.654 489.231,74.654 C487.744,74.654 486.538,75.859 486.538,77.346 L486.538,79.157 C485.604,79.488 484.74,79.989 483.987,80.634 L482.416,79.725 C481.128,78.982 479.481,79.423 478.738,80.711 C477.994,81.999 478.435,83.646 479.723,84.39 L481.292,85.295 C481.108,86.269 481.108,87.269 481.292,88.243 L479.723,89.148 C478.667,89.757 478.152,91 478.468,92.177 C478.783,93.355 479.85,94.173 481.069,94.173 C481.542,94.174 482.007,94.05 482.416,93.813 L483.987,92.904 C484.739,93.55 485.604,94.05 486.538,94.382 L486.538,96.192 C486.538,97.679 487.744,98.885 489.231,98.885 C490.718,98.885 491.923,97.679 491.923,96.192 L491.923,94.382 C492.857,94.05 493.722,93.55 494.474,92.904 L496.046,93.813 C496.454,94.05 496.919,94.175 497.392,94.173 C498.611,94.174 499.678,93.355 499.993,92.178 C500.309,91 499.794,89.758 498.738,89.149 Z M486.538,86.769 C486.538,85.282 487.744,84.077 489.231,84.077 C490.718,84.077 491.923,85.282 491.923,86.769 C491.923,88.256 490.718,89.462 489.231,89.462 C488.517,89.462 487.832,89.178 487.327,88.673 C486.822,88.168 486.538,87.483 486.538,86.769 Z M496.416,102.96 C494.949,103.205 493.96,104.593 494.205,106.06 C494.478,107.692 494.615,109.345 494.615,111 C494.622,118.249 491.958,125.247 487.131,130.656 C484.129,126.305 479.907,122.939 474.996,120.981 C480.403,116.722 482.518,109.505 480.264,103.002 C478.01,96.498 471.884,92.137 465.001,92.137 C458.118,92.137 451.991,96.498 449.737,103.002 C447.484,109.505 449.598,116.722 455.005,120.981 C450.095,122.939 445.873,126.305 442.87,130.656 C435.135,121.94 433.231,109.497 438.006,98.866 C442.781,88.235 453.346,81.393 465,81.385 C466.655,81.384 468.308,81.522 469.94,81.795 C471.4,82.025 472.772,81.037 473.015,79.58 C473.259,78.123 472.283,76.742 470.829,76.485 C455.827,73.961 440.914,81.425 433.942,94.946 C426.971,108.468 429.54,124.946 440.297,135.703 C451.054,146.46 467.532,149.029 481.054,142.058 C494.575,135.086 502.039,120.173 499.515,105.171 C499.27,103.705 497.882,102.715 496.416,102.96 Z M454.231,108.308 C454.231,102.36 459.052,97.538 465,97.538 C470.948,97.538 475.769,102.36 475.769,108.308 C475.769,114.255 470.948,119.077 465,119.077 C462.144,119.077 459.405,117.942 457.385,115.923 C455.365,113.903 454.231,111.164 454.231,108.308 Z M446.854,134.389 C450.812,128.199 457.652,124.454 465,124.454 C472.347,124.454 479.188,128.199 483.146,134.389 C472.473,142.69 457.527,142.69 446.854,134.389 Z" />
        </g>
        <g id="Black-S">
            <path d="M698.738,89.149 L697.17,88.243 C697.354,87.269 697.354,86.269 697.17,85.295 L698.738,84.39 C700.026,83.646 700.468,81.999 699.724,80.711 C698.98,79.423 697.333,78.982 696.045,79.726 L694.474,80.634 C693.722,79.989 692.857,79.488 691.923,79.157 L691.923,77.346 C691.923,75.859 690.718,74.654 689.231,74.654 C687.744,74.654 686.538,75.859 686.538,77.346 L686.538,79.157 C685.604,79.488 684.74,79.989 683.988,80.634 L682.416,79.725 C681.128,78.982 679.481,79.423 678.738,80.711 C677.994,81.999 678.435,83.646 679.723,84.39 L681.292,85.295 C681.108,86.269 681.108,87.269 681.292,88.243 L679.723,89.148 C678.667,89.757 678.152,91 678.468,92.177 C678.783,93.355 679.851,94.173 681.069,94.173 C681.542,94.174 682.007,94.05 682.416,93.813 L683.987,92.904 C684.739,93.55 685.604,94.05 686.538,94.382 L686.538,96.192 C686.538,97.679 687.744,98.885 689.231,98.885 C690.718,98.885 691.923,97.679 691.923,96.192 L691.923,94.382 C692.857,94.05 693.722,93.55 694.474,92.904 L696.046,93.813 C696.455,94.05 696.919,94.175 697.392,94.173 C698.611,94.174 699.678,93.355 699.993,92.178 C700.309,91 699.794,89.758 698.738,89.149 Z M686.538,86.769 C686.538,85.282 687.744,84.077 689.231,84.077 C690.718,84.077 691.923,85.282 691.923,86.769 C691.923,88.256 690.718,89.462 689.231,89.462 C688.517,89.462 687.832,89.178 687.327,88.673 C686.822,88.168 686.538,87.483 686.538,86.769 Z M696.416,102.96 C694.949,103.205 693.96,104.593 694.205,106.06 C694.478,107.692 694.616,109.345 694.615,111 C694.622,118.249 691.958,125.247 687.131,130.656 C684.129,126.305 679.907,122.939 674.996,120.981 C680.403,116.722 682.518,109.505 680.264,103.002 C678.01,96.498 671.884,92.137 665.001,92.137 C658.118,92.137 651.991,96.498 649.737,103.002 C647.484,109.505 649.598,116.722 655.005,120.981 C650.095,122.939 645.873,126.305 642.87,130.656 C635.135,121.94 633.231,109.497 638.006,98.866 C642.781,88.235 653.346,81.393 665,81.385 C666.655,81.384 668.308,81.522 669.94,81.795 C671.4,82.025 672.772,81.037 673.015,79.58 C673.259,78.123 672.283,76.742 670.829,76.485 C655.827,73.961 640.914,81.425 633.942,94.946 C626.971,108.468 629.54,124.946 640.297,135.703 C651.055,146.46 667.532,149.029 681.054,142.058 C694.575,135.086 702.039,120.173 699.515,105.171 C699.27,103.705 697.882,102.715 696.416,102.96 Z M654.231,108.308 C654.231,102.36 659.052,97.538 665,97.538 C670.948,97.538 675.769,102.36 675.769,108.308 C675.769,114.255 670.948,119.077 665,119.077 C662.144,119.077 659.405,117.942 657.385,115.923 C655.365,113.903 654.231,111.164 654.231,108.308 Z M646.854,134.389 C650.812,128.199 657.653,124.454 665,124.454 C672.347,124.454 679.188,128.199 683.146,134.389 C672.473,142.69 657.527,142.69 646.854,134.389 Z" />
        </g>
    </g>
</svg>