<?xml version="1.0" encoding="UTF-8"?>
<svg height="600" width="800" xmlns="http://www.w3.org/2000/svg" xmlns:xlink="http://www.w3.org/1999/xlink">
    <g id="Notes" font-family="'LucidaGrande', 'Lucida Grande', sans-serif" font-size="13">
        <rect fill="white" height="600.0" width="800.0" x="0.0" y="0.0" />
        <g font-size="13">
            <text x="18.0" y="176.0">Small</text>
            <text x="18.0" y="376.0">Medium</text>
            <text x="18.0" y="576.0">Large</text>
        </g>
        <g font-size="9">
            <text x="250.0" y="30.0">Ultralight</text>
            <text x="450.0" y="30.0">Regular</text>
            <text x="650.0" y="30.0">Black</text>
            <text id="template-version" fill="#505050" text-anchor="end" x="785.0" y="575.0">Template v.3.0</text>
            <a href="https://github.com/swhitty/SwiftDraw">
                <text fill="#505050" text-anchor="end" x="785.0" y="590.0">https://github.com/swhitty/SwiftDraw</text>
            </a>
        </g>
    </g>
    <g id="Guides" stroke="rgb(39, 170, 225)" stroke-width="0.5">
        <path id="Capline-S" d="M18,76 l800,0" />
        <path id="H-reference" d="M85,145.755 L87.685,145.755 L113.369,79.287 L114.052,79.287 L114.052,76 L112.148,76 L85,145.755 Z M95.693,121.536 L130.996,121.536 L130.263,119.313 L96.474,119.313 L95.693,121.536 Z M139.15,145.755 L141.787,145.755 L114.638,76 L113.466,76 L113.466,79.287 L139.15,145.755 Z" stroke="none" />
        <path id="Baseline-S" d="M18,146 l800,0" />
        <path id="left-margin-Ultralight-S" d="M220,56 l0,110" />
        <path id="right-margin-Ultralight-S" d="M310,56 l0,110" />
        <path id="left-margin-Regular-S" d="M420,56 l0,110" />
        <path id="right-margin-Regular-S" d="M510,56 l0,110" />
        <path id="left-margin-Black-S" d="M620,56 l0,110" />
        <path id="right-margin-Black-S" d="M710,56 l0,110" />
        <path id="Capline-M" d="M18,276 l800,0" />
        <path id="Baseline-M" d="M18,346 l800,0" />
        <path id="Capline-L" d="M18,476 l800,0" />
        <path id="Baseline-L" d="M18,546 l800,0" />
    </g>
    <g id="Symbols">
        <g id="Ultralight-S">
            <path d="M300,86.769 L300,135.231 C300,136.659 299.433,138.028 298.423,139.038 C297.413,140.048 296.043,140.615 294.615,140.615 L270.385,140.615 C268.898,140.615 267.692,139.41 267.692,137.923 C267.692,136.436 268.898,135.231 270.385,135.231 L294.615,135.231 L294.615,86.769 L235.385,86.769 L235.385,100.231 C235.385,101.718 234.179,102.923 232.692,102.923 C231.205,102.923 230,101.718 230,100.231 L230,86.769 C230,85.341 230.567,83.972 231.577,82.962 C232.587,81.952 233.957,81.385 235.385,81.385 L294.615,81.385 C296.043,81.385 297.413,81.952 298.423,82.962 C299.433,83.972 300,85.341 300,86.769 Z M232.692,129.846 C231.205,129.846 230,131.052 230,132.538 C230,134.025 231.205,135.231 232.692,135.231 C233.406,135.231 234.091,135.514 234.596,136.019 C235.101,136.524 235.385,137.209 235.385,137.923 C235.385,139.41 236.59,140.615 238.077,140.615 C239.564,140.615 240.769,139.41 240.769,137.923 C240.769,135.781 239.918,133.727 238.404,132.212 C236.889,130.697 234.834,129.846 232.692,129.846 Z M232.692,119.077 C231.205,119.077 230,120.282 230,121.769 C230,123.256 231.205,124.462 232.692,124.462 C236.263,124.462 239.687,125.88 242.211,128.404 C244.736,130.929 246.154,134.353 246.154,137.923 C246.154,139.41 247.359,140.615 248.846,140.615 C250.333,140.615 251.538,139.41 251.538,137.923 C251.528,127.52 243.097,119.088 232.693,119.077 Z M232.692,108.308 C231.205,108.308 230,109.513 230,111 C230,112.487 231.205,113.692 232.692,113.692 C246.068,113.707 256.908,124.547 256.923,137.923 C256.923,139.41 258.128,140.615 259.615,140.615 C261.102,140.615 262.308,139.41 262.308,137.923 C262.29,121.576 249.042,108.327 232.694,108.308 Z" />
        </g>
        <g id="Regular-S">
            <path d="M500,86.769 L500,135.231 C500,136.659 499.433,138.028 498.423,139.038 C497.413,140.048 496.043,140.615 494.615,140.615 L470.385,140.615 C468.898,140.615 467.692,139.41 467.692,137.923 C467.692,136.436 468.898,135.231 470.385,135.231 L494.615,135.231 L494.615,86.769 L435.385,86.769 L435.385,100.231 C435.385,101.718 434.179,102.923 432.692,102.923 C431.205,102.923 430,101.718 430,100.231 L430,86.769 C430,85.341 430.567,83.972 431.577,82.962 C432.587,81.952 433.957,81.385 435.385,81.385 L494.615,81.385 C496.043,81.385 497.413,81.952 498.423,82.962 C499.433,83.972 500,85.341 500,86.769 Z M432.692,129.846 C431.205,129.846 430,131.052 430,132.538 C430,134.025 431.205,135.231 432.692,135.231 C433.406,135.231 434.091,135.514 434.596,136.019 C435.101,136.524 435.385,137.209 435.385,137.923 C435.385,139.41 436.59,140.615 438.077,140.615 C439.564,140.615 440.769,139.41 440.769,137.923 C440.769,135.781 439.918,133.727 438.404,132.212 C436.889,130.697 434.834,129.846 432.692,129.846 Z M432.692,119.077 C431.205,119.077 430,120.282 430,121.769 C430,123.256 431.205,124.462 432.692,124.462 C436.263,124.462 439.687,125.88 442.211,128.404 C444.736,130.929 446.154,134.353 446.154,137.923 C446.154,139.41 447.359,140.615 448.846,140.615 C450.333,140.615 451.538,139.41 451.538,137.923 C451.528,127.52 443.097,119.088 432.693,119.077 Z M432.692,108.308 C431.205,108.308 430,109.513 430,111 C430,112.487 431.205,113.692 432.692,113.692 C446.068,113.707 456.908,124.547 456.923,137.923 C456.923,139.41 458.128,140.615 459.615,140.615 C461.102,140.615 462.308,139.41 462.308,137.923 C462.29,121.576 449.042,108.327 432.694,108.308 Z" />
        </g>
        <g id="Black-S">
            <path d="M700,86.769 L700,135.231 C700,136.659 699.433,138.028 698.423,139.038 C697.413,140.048 696.044,140.615 694.615,140.615 L670.385,140.615 C668.898,140.615 667.692,139.41 667.692,137.923 C667.692,136.436 668.898,135.231 670.385,135.231 L694.615,135.231 L694.615,86.769 L635.385,86.769 L635.385,100.231 C635.385,101.718 634.179,102.923 632.692,102.923 C631.205,102.923 630,101.718 630,100.231 L630,86.769 C630,85.341 630.567,83.972 631.577,82.962 C632.587,81.952 633.957,81.385 635.385,81.385 L694.615,81.385 C696.044,81.385 697.413,81.952 698.423,82.962 C699.433,83.972 700,85.341 700,86.769 Z M632.692,129.846 C631.205,129.846 630,131.052 630,132.538 C630,134.025 631.205,135.231 632.692,135.231 C633.406,135.231 634.091,135.514 634.596,136.019 C635.101,136.524 635.385,137.209 635.385,137.923 C635.385,139.41 636.59,140.615 638.077,140.615 C639.564,140.615 640.769,139.41 640.769,137.923 C640.769,135.781 639.918,133.727 638.404,132.212 C636.889,130.697 634.834,129.846 632.692,129.846 Z M632.692,119.077 C631.205,119.077 630,120.282 630,121.769 C630,123.256 631.205,124.462 632.692,124.462 C636.263,124.462 639.687,125.88 642.211,128.404 C644.736,130.929 646.154,134.353 646.154,137.923 C646.154,139.41 647.359,140.615 648.846,140.615 C650.333,140.615 651.538,139.41 651.538,137.923 C651.528,127.52 643.097,119.088 632.693,119.077 Z M632.692,108.308 C631.205,108.308 630,109.513 630,111 C630,112.487 631.205,113.692 632.692,113.692 C646.068,113.707 656.908,124.547 656.923,137.923 C656.923,139.41 658.128,140.615 659.615,140.615 C661.102,140.615 662.308,139.41 662.308,137.923 C662.29,121.576 649.042,108.327 632.694,108.308 Z" />
        </g>
    </g>
</svg>