<?xml version="1.0" encoding="UTF-8"?>
<svg height="600" width="800" xmlns="http://www.w3.org/2000/svg" xmlns:xlink="http://www.w3.org/1999/xlink">
    <g id="Notes" font-family="'LucidaGrande', 'Lucida Grande', sans-serif" font-size="13">
        <rect fill="white" height="600.0" width="800.0" x="0.0" y="0.0" />
        <g font-size="13">
            <text x="18.0" y="176.0">Small</text>
            <text x="18.0" y="376.0">Medium</text>
            <text x="18.0" y="576.0">Large</text>
        </g>
        <g font-size="9">
            <text x="250.0" y="30.0">Ultralight</text>
            <text x="450.0" y="30.0">Regular</text>
            <text x="650.0" y="30.0">Black</text>
            <text id="template-version" fill="#505050" text-anchor="end" x="785.0" y="575.0">Template v.3.0</text>
            <a href="https://github.com/swhitty/SwiftDraw">
                <text fill="#505050" text-anchor="end" x="785.0" y="590.0">https://github.com/swhitty/SwiftDraw</text>
            </a>
        </g>
    </g>
    <g id="Guides" stroke="rgb(39, 170, 225)" stroke-width="0.5">
        <path id="Capline-S" d="M18,76 l800,0" />
        <path id="H-reference" d="M85,145.755 L87.685,145.755 L113.369,79.287 L114.052,79.287 L114.052,76 L112.148,76 L85,145.755 Z M95.693,121.536 L130.996,121.536 L130.263,119.313 L96.474,119.313 L95.693,121.536 Z M139.15,145.755 L141.787,145.755 L114.638,76 L113.466,76 L113.466,79.287 L139.15,145.755 Z" stroke="none" />
        <path id="Baseline-S" d="M18,146 l800,0" />
        <path id="left-margin-Ultralight-S" d="M220,56 l0,110" />
        <path id="right-margin-Ultralight-S" d="M310,56 l0,110" />
        <path id="left-margin-Regular-S" d="M420,56 l0,110" />
        <path id="right-margin-Regular-S" d="M510,56 l0,110" />
        <path id="left-margin-Black-S" d="M620,56 l0,110" />
        <path id="right-margin-Black-S" d="M710,56 l0,110" />
        <path id="Capline-M" d="M18,276 l800,0" />
        <path id="Baseline-M" d="M18,346 l800,0" />
        <path id="Capline-L" d="M18,476 l800,0" />
        <path id="Baseline-L" d="M18,546 l800,0" />
    </g>
    <g id="Symbols">
        <g id="Ultralight-S">
            <path d="M297.308,111 C297.308,126.706 286.015,140.135 270.544,142.83 C255.072,145.525 239.904,136.704 234.595,121.925 C229.285,107.145 235.373,90.688 249.022,82.922 C262.671,75.155 279.928,78.328 289.922,90.442 C290.576,91.179 290.776,92.214 290.443,93.141 C290.11,94.068 289.297,94.739 288.323,94.891 C287.35,95.042 286.371,94.65 285.772,93.868 C277.608,83.967 263.59,81.205 252.28,87.269 C240.97,93.332 235.511,106.535 239.238,118.815 C242.965,131.095 254.84,139.038 267.613,137.793 C280.385,136.548 290.504,126.461 291.788,113.692 L265,113.692 C263.513,113.692 262.308,112.487 262.308,111 C262.308,109.513 263.513,108.308 265,108.308 L294.615,108.308 C296.102,108.308 297.308,109.513 297.308,111 Z" />
        </g>
        <g id="Regular-S">
            <path d="M497.308,111 C497.308,126.706 486.015,140.135 470.544,142.83 C455.072,145.525 439.904,136.704 434.595,121.925 C429.285,107.145 435.373,90.688 449.022,82.922 C462.671,75.155 479.928,78.328 489.922,90.442 C490.576,91.179 490.776,92.214 490.443,93.141 C490.11,94.068 489.297,94.739 488.323,94.891 C487.35,95.042 486.371,94.65 485.772,93.868 C477.608,83.967 463.59,81.205 452.28,87.269 C440.97,93.332 435.511,106.535 439.238,118.815 C442.965,131.095 454.84,139.038 467.613,137.793 C480.385,136.548 490.504,126.461 491.788,113.692 L465,113.692 C463.513,113.692 462.308,112.487 462.308,111 C462.308,109.513 463.513,108.308 465,108.308 L494.615,108.308 C496.102,108.308 497.308,109.513 497.308,111 Z" />
        </g>
        <g id="Black-S">
            <path d="M697.308,111 C697.308,126.706 686.015,140.135 670.544,142.83 C655.072,145.525 639.904,136.704 634.595,121.925 C629.285,107.145 635.373,90.688 649.022,82.922 C662.671,75.155 679.928,78.328 689.922,90.442 C690.576,91.179 690.776,92.214 690.443,93.141 C690.11,94.068 689.297,94.739 688.323,94.891 C687.35,95.042 686.371,94.65 685.772,93.868 C677.608,83.967 663.59,81.205 652.28,87.269 C640.97,93.332 635.511,106.535 639.238,118.815 C642.965,131.095 654.841,139.038 667.613,137.793 C680.385,136.548 690.504,126.461 691.789,113.692 L665,113.692 C663.513,113.692 662.308,112.487 662.308,111 C662.308,109.513 663.513,108.308 665,108.308 L694.615,108.308 C696.102,108.308 697.308,109.513 697.308,111 Z" />
        </g>
    </g>
</svg>