<?xml version="1.0" encoding="UTF-8"?>
<svg height="600" width="800" xmlns="http://www.w3.org/2000/svg" xmlns:xlink="http://www.w3.org/1999/xlink">
    <g id="Notes" font-family="'LucidaGrande', 'Lucida Grande', sans-serif" font-size="13">
        <rect fill="white" height="600.0" width="800.0" x="0.0" y="0.0" />
        <g font-size="13">
            <text x="18.0" y="176.0">Small</text>
            <text x="18.0" y="376.0">Medium</text>
            <text x="18.0" y="576.0">Large</text>
        </g>
        <g font-size="9">
            <text x="250.0" y="30.0">Ultralight</text>
            <text x="450.0" y="30.0">Regular</text>
            <text x="650.0" y="30.0">Black</text>
            <text id="template-version" fill="#505050" text-anchor="end" x="785.0" y="575.0">Template v.3.0</text>
            <a href="https://github.com/swhitty/SwiftDraw">
                <text fill="#505050" text-anchor="end" x="785.0" y="590.0">https://github.com/swhitty/SwiftDraw</text>
            </a>
        </g>
    </g>
    <g id="Guides" stroke="rgb(39, 170, 225)" stroke-width="0.5">
        <path id="Capline-S" d="M18,76 l800,0" />
        <path id="H-reference" d="M85,145.755 L87.685,145.755 L113.369,79.287 L114.052,79.287 L114.052,76 L112.148,76 L85,145.755 Z M95.693,121.536 L130.996,121.536 L130.263,119.313 L96.474,119.313 L95.693,121.536 Z M139.15,145.755 L141.787,145.755 L114.638,76 L113.466,76 L113.466,79.287 L139.15,145.755 Z" stroke="none" />
        <path id="Baseline-S" d="M18,146 l800,0" />
        <path id="left-margin-Ultralight-S" d="M220,56 l0,110" />
        <path id="right-margin-Ultralight-S" d="M310,56 l0,110" />
        <path id="left-margin-Regular-S" d="M420,56 l0,110" />
        <path id="right-margin-Regular-S" d="M510,56 l0,110" />
        <path id="left-margin-Black-S" d="M620,56 l0,110" />
        <path id="right-margin-Black-S" d="M710,56 l0,110" />
        <path id="Capline-M" d="M18,276 l800,0" />
        <path id="Baseline-M" d="M18,346 l800,0" />
        <path id="Capline-L" d="M18,476 l800,0" />
        <path id="Baseline-L" d="M18,546 l800,0" />
    </g>
    <g id="Symbols">
        <g id="Ultralight-S">
            <path d="M289.749,86.251 C276.081,72.583 253.92,72.582 240.251,86.251 C226.583,99.919 226.582,122.08 240.251,135.749 C253.919,149.417 276.08,149.418 289.748,135.749 C303.417,122.081 303.418,99.92 289.749,86.251 Z M254.231,138.596 L254.231,119.077 L275.769,119.077 L275.769,138.596 C268.842,141.289 261.158,141.289 254.231,138.596 Z M270.385,113.692 L259.615,113.692 L259.615,101.893 L270.385,96.509 Z M285.939,131.939 C284.484,133.398 282.88,134.701 281.154,135.826 L281.154,119.077 C281.154,117.649 280.587,116.279 279.577,115.269 C278.567,114.26 277.197,113.692 275.769,113.692 L275.769,92.154 C275.77,91.22 275.287,90.353 274.493,89.862 C273.699,89.371 272.707,89.326 271.872,89.744 L255.718,97.821 C254.806,98.278 254.23,99.211 254.231,100.231 L254.231,113.692 C252.803,113.692 251.433,114.26 250.423,115.269 C249.413,116.279 248.846,117.649 248.846,119.077 L248.846,135.826 C238.332,128.987 233.267,116.267 236.202,104.072 C239.136,91.878 249.434,82.854 261.909,81.547 C274.383,80.24 286.328,86.933 291.726,98.254 C297.125,109.575 294.807,123.069 285.939,131.939 Z" />
        </g>
        <g id="Regular-S">
            <path d="M489.749,86.251 C476.081,72.583 453.92,72.582 440.251,86.251 C426.583,99.919 426.582,122.08 440.251,135.749 C453.919,149.417 476.08,149.418 489.748,135.749 C503.417,122.081 503.418,99.92 489.749,86.251 Z M454.231,138.596 L454.231,119.077 L475.769,119.077 L475.769,138.596 C468.842,141.289 461.158,141.289 454.231,138.596 Z M470.385,113.692 L459.615,113.692 L459.615,101.893 L470.385,96.509 Z M485.939,131.939 C484.484,133.398 482.88,134.701 481.154,135.826 L481.154,119.077 C481.154,117.649 480.587,116.279 479.577,115.269 C478.567,114.26 477.197,113.692 475.769,113.692 L475.769,92.154 C475.77,91.22 475.287,90.353 474.493,89.862 C473.699,89.371 472.707,89.326 471.872,89.744 L455.718,97.821 C454.806,98.278 454.23,99.211 454.231,100.231 L454.231,113.692 C452.803,113.692 451.433,114.26 450.423,115.269 C449.413,116.279 448.846,117.649 448.846,119.077 L448.846,135.826 C438.332,128.987 433.267,116.267 436.202,104.072 C439.136,91.878 449.434,82.854 461.909,81.547 C474.383,80.24 486.328,86.933 491.726,98.254 C497.125,109.575 494.807,123.069 485.939,131.939 Z" />
        </g>
        <g id="Black-S">
            <path d="M689.749,86.251 C676.081,72.583 653.92,72.582 640.251,86.251 C626.583,99.919 626.582,122.08 640.251,135.749 C653.919,149.417 676.08,149.418 689.748,135.749 C703.417,122.081 703.418,99.92 689.749,86.251 Z M654.231,138.596 L654.231,119.077 L675.769,119.077 L675.769,138.596 C668.842,141.289 661.158,141.289 654.231,138.596 Z M670.385,113.692 L659.615,113.692 L659.615,101.893 L670.385,96.509 Z M685.939,131.939 C684.484,133.398 682.88,134.701 681.154,135.826 L681.154,119.077 C681.154,117.649 680.587,116.279 679.577,115.269 C678.567,114.26 677.197,113.692 675.769,113.692 L675.769,92.154 C675.77,91.22 675.287,90.353 674.493,89.862 C673.699,89.371 672.707,89.326 671.872,89.744 L655.718,97.821 C654.806,98.278 654.23,99.211 654.231,100.231 L654.231,113.692 C652.803,113.692 651.433,114.26 650.423,115.269 C649.413,116.279 648.846,117.649 648.846,119.077 L648.846,135.826 C638.332,128.987 633.267,116.267 636.202,104.072 C639.136,91.878 649.434,82.854 661.909,81.547 C674.383,80.24 686.328,86.933 691.726,98.254 C697.125,109.575 694.807,123.069 685.939,131.939 Z" />
        </g>
    </g>
</svg>