<?xml version="1.0" encoding="UTF-8"?>
<svg height="600" width="800" xmlns="http://www.w3.org/2000/svg" xmlns:xlink="http://www.w3.org/1999/xlink">
    <g id="Notes" font-family="'LucidaGrande', 'Lucida Grande', sans-serif" font-size="13">
        <rect fill="white" height="600.0" width="800.0" x="0.0" y="0.0" />
        <g font-size="13">
            <text x="18.0" y="176.0">Small</text>
            <text x="18.0" y="376.0">Medium</text>
            <text x="18.0" y="576.0">Large</text>
        </g>
        <g font-size="9">
            <text x="250.0" y="30.0">Ultralight</text>
            <text x="450.0" y="30.0">Regular</text>
            <text x="650.0" y="30.0">Black</text>
            <text id="template-version" fill="#505050" text-anchor="end" x="785.0" y="575.0">Template v.3.0</text>
            <a href="https://github.com/swhitty/SwiftDraw">
                <text fill="#505050" text-anchor="end" x="785.0" y="590.0">https://github.com/swhitty/SwiftDraw</text>
            </a>
        </g>
    </g>
    <g id="Guides" stroke="rgb(39, 170, 225)" stroke-width="0.5">
        <path id="Capline-S" d="M18,76 l800,0" />
        <path id="H-reference" d="M85,145.755 L87.685,145.755 L113.369,79.287 L114.052,79.287 L114.052,76 L112.148,76 L85,145.755 Z M95.693,121.536 L130.996,121.536 L130.263,119.313 L96.474,119.313 L95.693,121.536 Z M139.15,145.755 L141.787,145.755 L114.638,76 L113.466,76 L113.466,79.287 L139.15,145.755 Z" stroke="none" />
        <path id="Baseline-S" d="M18,146 l800,0" />
        <path id="left-margin-Ultralight-S" d="M220,56 l0,110" />
        <path id="right-margin-Ultralight-S" d="M310,56 l0,110" />
        <path id="left-margin-Regular-S" d="M420,56 l0,110" />
        <path id="right-margin-Regular-S" d="M510,56 l0,110" />
        <path id="left-margin-Black-S" d="M620,56 l0,110" />
        <path id="right-margin-Black-S" d="M710,56 l0,110" />
        <path id="Capline-M" d="M18,276 l800,0" />
        <path id="Baseline-M" d="M18,346 l800,0" />
        <path id="Capline-L" d="M18,476 l800,0" />
        <path id="Baseline-L" d="M18,546 l800,0" />
    </g>
    <g id="Symbols">
        <g id="Ultralight-S">
            <path d="M291.136,118.289 L266.905,142.52 C266.4,143.026 265.715,143.31 265,143.31 C264.285,143.31 263.6,143.026 263.095,142.52 L238.864,118.289 C237.812,117.236 237.813,115.53 238.865,114.479 C239.918,113.427 241.624,113.428 242.675,114.481 L262.308,134.117 L262.308,81.385 C262.308,79.898 263.513,78.692 265,78.692 C266.487,78.692 267.692,79.898 267.692,81.385 L267.692,134.117 L287.326,114.48 C288.376,113.428 290.082,113.427 291.135,114.479 C292.187,115.53 292.188,117.236 291.137,118.288 Z" />
        </g>
        <g id="Regular-S">
            <path d="M491.136,118.289 L466.905,142.52 C466.4,143.026 465.715,143.31 465,143.31 C464.285,143.31 463.6,143.026 463.095,142.52 L438.864,118.289 C437.812,117.236 437.813,115.53 438.865,114.479 C439.918,113.427 441.624,113.428 442.675,114.481 L462.308,134.117 L462.308,81.385 C462.308,79.898 463.513,78.692 465,78.692 C466.487,78.692 467.692,79.898 467.692,81.385 L467.692,134.117 L487.326,114.48 C488.376,113.428 490.082,113.427 491.135,114.479 C492.187,115.53 492.188,117.236 491.137,118.288 Z" />
        </g>
        <g id="Black-S">
            <path d="M691.136,118.289 L666.905,142.52 C666.4,143.026 665.715,143.31 665,143.31 C664.285,143.31 663.6,143.026 663.095,142.52 L638.864,118.289 C637.812,117.236 637.813,115.53 638.865,114.479 C639.918,113.427 641.624,113.428 642.675,114.481 L662.308,134.117 L662.308,81.385 C662.308,79.898 663.513,78.692 665,78.692 C666.487,78.692 667.692,79.898 667.692,81.385 L667.692,134.117 L687.326,114.48 C688.376,113.428 690.082,113.427 691.135,114.479 C692.187,115.53 692.188,117.236 691.137,118.288 Z" />
        </g>
    </g>
</svg>