<?xml version="1.0" encoding="UTF-8"?>
<svg height="600" width="800" xmlns="http://www.w3.org/2000/svg" xmlns:xlink="http://www.w3.org/1999/xlink">
    <g id="Notes" font-family="'LucidaGrande', 'Lucida Grande', sans-serif" font-size="13">
        <rect fill="white" height="600.0" width="800.0" x="0.0" y="0.0" />
        <g font-size="13">
            <text x="18.0" y="176.0">Small</text>
            <text x="18.0" y="376.0">Medium</text>
            <text x="18.0" y="576.0">Large</text>
        </g>
        <g font-size="9">
            <text x="250.0" y="30.0">Ultralight</text>
            <text x="450.0" y="30.0">Regular</text>
            <text x="650.0" y="30.0">Black</text>
            <text id="template-version" fill="#505050" text-anchor="end" x="785.0" y="575.0">Template v.3.0</text>
            <a href="https://github.com/swhitty/SwiftDraw">
                <text fill="#505050" text-anchor="end" x="785.0" y="590.0">https://github.com/swhitty/SwiftDraw</text>
            </a>
        </g>
    </g>
    <g id="Guides" stroke="rgb(39, 170, 225)" stroke-width="0.5">
        <path id="Capline-S" d="M18,76 l800,0" />
        <path id="H-reference" d="M85,145.755 L87.685,145.755 L113.369,79.287 L114.052,79.287 L114.052,76 L112.148,76 L85,145.755 Z M95.693,121.536 L130.996,121.536 L130.263,119.313 L96.474,119.313 L95.693,121.536 Z M139.15,145.755 L141.787,145.755 L114.638,76 L113.466,76 L113.466,79.287 L139.15,145.755 Z" stroke="none" />
        <path id="Baseline-S" d="M18,146 l800,0" />
        <path id="left-margin-Ultralight-S" d="M220,56 l0,110" />
        <path id="right-margin-Ultralight-S" d="M310,56 l0,110" />
        <path id="left-margin-Regular-S" d="M420,56 l0,110" />
        <path id="right-margin-Regular-S" d="M510,56 l0,110" />
        <path id="left-margin-Black-S" d="M620,56 l0,110" />
        <path id="right-margin-Black-S" d="M710,56 l0,110" />
        <path id="Capline-M" d="M18,276 l800,0" />
        <path id="Baseline-M" d="M18,346 l800,0" />
        <path id="Capline-L" d="M18,476 l800,0" />
        <path id="Baseline-L" d="M18,546 l800,0" />
    </g>
    <g id="Symbols">
        <g id="Ultralight-S">
            <path d="M286.538,78.692 L243.462,78.692 C240.605,78.692 237.866,79.827 235.847,81.847 C233.827,83.866 232.692,86.605 232.692,89.462 L232.692,132.538 C232.692,135.395 233.827,138.134 235.847,140.153 C237.866,142.173 240.605,143.308 243.462,143.308 L286.538,143.308 C289.395,143.308 292.134,142.173 294.153,140.153 C296.173,138.134 297.308,135.395 297.308,132.538 L297.308,89.462 C297.308,86.605 296.173,83.866 294.153,81.847 C292.134,79.827 289.395,78.692 286.538,78.692 Z M291.923,132.538 C291.923,133.967 291.356,135.336 290.346,136.346 C289.336,137.356 287.967,137.923 286.538,137.923 L243.462,137.923 C242.033,137.923 240.664,137.356 239.654,136.346 C238.644,135.336 238.077,133.967 238.077,132.538 L238.077,89.462 C238.077,88.033 238.644,86.664 239.654,85.654 C240.664,84.644 242.033,84.077 243.462,84.077 L286.538,84.077 C287.967,84.077 289.336,84.644 290.346,85.654 C291.356,86.664 291.923,88.033 291.923,89.462 Z M269.038,111 C269.038,113.23 267.23,115.038 265,115.038 C262.77,115.038 260.962,113.23 260.962,111 C260.962,108.77 262.77,106.962 265,106.962 C266.071,106.962 267.098,107.387 267.856,108.144 C268.613,108.902 269.038,109.929 269.038,111 Z" />
        </g>
        <g id="Regular-S">
            <path d="M486.538,78.692 L443.462,78.692 C440.605,78.692 437.866,79.827 435.847,81.847 C433.827,83.866 432.692,86.605 432.692,89.462 L432.692,132.538 C432.692,135.395 433.827,138.134 435.847,140.153 C437.866,142.173 440.605,143.308 443.462,143.308 L486.538,143.308 C489.395,143.308 492.134,142.173 494.153,140.153 C496.173,138.134 497.308,135.395 497.308,132.538 L497.308,89.462 C497.308,86.605 496.173,83.866 494.153,81.847 C492.134,79.827 489.395,78.692 486.538,78.692 Z M491.923,132.538 C491.923,133.967 491.356,135.336 490.346,136.346 C489.336,137.356 487.967,137.923 486.538,137.923 L443.462,137.923 C442.033,137.923 440.664,137.356 439.654,136.346 C438.644,135.336 438.077,133.967 438.077,132.538 L438.077,89.462 C438.077,88.033 438.644,86.664 439.654,85.654 C440.664,84.644 442.033,84.077 443.462,84.077 L486.538,84.077 C487.967,84.077 489.336,84.644 490.346,85.654 C491.356,86.664 491.923,88.033 491.923,89.462 Z M469.038,111 C469.038,113.23 467.23,115.038 465,115.038 C462.77,115.038 460.962,113.23 460.962,111 C460.962,108.77 462.77,106.962 465,106.962 C466.071,106.962 467.098,107.387 467.856,108.144 C468.613,108.902 469.038,109.929 469.038,111 Z" />
        </g>
        <g id="Black-S">
            <path d="M686.538,78.692 L643.462,78.692 C640.605,78.692 637.866,79.827 635.847,81.847 C633.827,83.866 632.692,86.605 632.692,89.462 L632.692,132.538 C632.692,135.395 633.827,138.134 635.847,140.153 C637.866,142.173 640.605,143.308 643.462,143.308 L686.538,143.308 C689.395,143.308 692.134,142.173 694.153,140.153 C696.173,138.134 697.308,135.395 697.308,132.538 L697.308,89.462 C697.308,86.605 696.173,83.866 694.153,81.847 C692.134,79.827 689.395,78.692 686.538,78.692 Z M691.923,132.538 C691.923,133.967 691.356,135.336 690.346,136.346 C689.336,137.356 687.967,137.923 686.538,137.923 L643.462,137.923 C642.033,137.923 640.664,137.356 639.654,136.346 C638.644,135.336 638.077,133.967 638.077,132.538 L638.077,89.462 C638.077,88.033 638.644,86.664 639.654,85.654 C640.664,84.644 642.033,84.077 643.462,84.077 L686.538,84.077 C687.967,84.077 689.336,84.644 690.346,85.654 C691.356,86.664 691.923,88.033 691.923,89.462 Z M669.038,111 C669.038,113.23 667.23,115.038 665,115.038 C662.77,115.038 660.962,113.23 660.962,111 C660.962,108.77 662.77,106.962 665,106.962 C666.071,106.962 667.098,107.387 667.856,108.144 C668.613,108.902 669.038,109.929 669.038,111 Z" />
        </g>
    </g>
</svg>