<?xml version="1.0" encoding="UTF-8"?>
<svg height="600" width="800" xmlns="http://www.w3.org/2000/svg" xmlns:xlink="http://www.w3.org/1999/xlink">
    <g id="Notes" font-family="'LucidaGrande', 'Lucida Grande', sans-serif" font-size="13">
        <rect fill="white" height="600.0" width="800.0" x="0.0" y="0.0" />
        <g font-size="13">
            <text x="18.0" y="176.0">Small</text>
            <text x="18.0" y="376.0">Medium</text>
            <text x="18.0" y="576.0">Large</text>
        </g>
        <g font-size="9">
            <text x="250.0" y="30.0">Ultralight</text>
            <text x="450.0" y="30.0">Regular</text>
            <text x="650.0" y="30.0">Black</text>
            <text id="template-version" fill="#505050" text-anchor="end" x="785.0" y="575.0">Template v.3.0</text>
            <a href="https://github.com/swhitty/SwiftDraw">
                <text fill="#505050" text-anchor="end" x="785.0" y="590.0">https://github.com/swhitty/SwiftDraw</text>
            </a>
        </g>
    </g>
    <g id="Guides" stroke="rgb(39, 170, 225)" stroke-width="0.5">
        <path id="Capline-S" d="M18,76 l800,0" />
        <path id="H-reference" d="M85,145.755 L87.685,145.755 L113.369,79.287 L114.052,79.287 L114.052,76 L112.148,76 L85,145.755 Z M95.693,121.536 L130.996,121.536 L130.263,119.313 L96.474,119.313 L95.693,121.536 Z M139.15,145.755 L141.787,145.755 L114.638,76 L113.466,76 L113.466,79.287 L139.15,145.755 Z" stroke="none" />
        <path id="Baseline-S" d="M18,146 l800,0" />
        <path id="left-margin-Ultralight-S" d="M220,56 l0,110" />
        <path id="right-margin-Ultralight-S" d="M310,56 l0,110" />
        <path id="left-margin-Regular-S" d="M420,56 l0,110" />
        <path id="right-margin-Regular-S" d="M510,56 l0,110" />
        <path id="left-margin-Black-S" d="M620,56 l0,110" />
        <path id="right-margin-Black-S" d="M710,56 l0,110" />
        <path id="Capline-M" d="M18,276 l800,0" />
        <path id="Baseline-M" d="M18,346 l800,0" />
        <path id="Capline-L" d="M18,476 l800,0" />
        <path id="Baseline-L" d="M18,546 l800,0" />
    </g>
    <g id="Symbols">
        <g id="Ultralight-S">
            <path d="M294.615,86.769 L281.154,86.769 L281.154,84.077 C281.154,81.935 280.303,79.88 278.788,78.366 C277.273,76.851 275.219,76 273.077,76 L256.923,76 C254.781,76 252.727,76.851 251.212,78.366 C249.697,79.88 248.846,81.935 248.846,84.077 L248.846,86.769 L235.385,86.769 C232.411,86.769 230,89.18 230,92.154 L230,135.231 C230,136.659 230.567,138.028 231.577,139.038 C232.587,140.048 233.957,140.615 235.385,140.615 L294.615,140.615 C296.043,140.615 297.413,140.048 298.423,139.038 C299.433,138.028 300,136.659 300,135.231 L300,92.154 C300,90.726 299.433,89.356 298.423,88.346 C297.413,87.337 296.043,86.769 294.615,86.769 Z M254.231,84.077 C254.231,83.363 254.514,82.678 255.019,82.173 C255.524,81.668 256.209,81.385 256.923,81.385 L273.077,81.385 C273.791,81.385 274.476,81.668 274.981,82.173 C275.486,82.678 275.769,83.363 275.769,84.077 L275.769,86.769 L254.231,86.769 Z M294.615,92.154 L294.615,106.157 C285.528,111.104 275.346,113.694 265,113.692 C254.654,113.694 244.473,111.105 235.385,106.161 L235.385,92.154 Z M294.615,135.231 L235.385,135.231 L235.385,112.225 C244.606,116.735 254.735,119.079 265,119.077 C275.265,119.077 285.395,116.732 294.615,112.222 L294.615,135.231 Z M256.923,105.615 C256.923,104.901 257.207,104.217 257.712,103.712 C258.217,103.207 258.901,102.923 259.615,102.923 L270.385,102.923 C271.872,102.923 273.077,104.128 273.077,105.615 C273.077,107.102 271.872,108.308 270.385,108.308 L259.615,108.308 C258.901,108.308 258.217,108.024 257.712,107.519 C257.207,107.014 256.923,106.329 256.923,105.615 Z" />
        </g>
        <g id="Regular-S">
            <path d="M494.615,86.769 L481.154,86.769 L481.154,84.077 C481.154,81.935 480.303,79.88 478.788,78.366 C477.273,76.851 475.219,76 473.077,76 L456.923,76 C454.781,76 452.727,76.851 451.212,78.366 C449.697,79.88 448.846,81.935 448.846,84.077 L448.846,86.769 L435.385,86.769 C432.411,86.769 430,89.18 430,92.154 L430,135.231 C430,136.659 430.567,138.028 431.577,139.038 C432.587,140.048 433.957,140.615 435.385,140.615 L494.615,140.615 C496.043,140.615 497.413,140.048 498.423,139.038 C499.433,138.028 500,136.659 500,135.231 L500,92.154 C500,90.726 499.433,89.356 498.423,88.346 C497.413,87.337 496.043,86.769 494.615,86.769 Z M454.231,84.077 C454.231,83.363 454.514,82.678 455.019,82.173 C455.524,81.668 456.209,81.385 456.923,81.385 L473.077,81.385 C473.791,81.385 474.476,81.668 474.981,82.173 C475.486,82.678 475.769,83.363 475.769,84.077 L475.769,86.769 L454.231,86.769 Z M494.615,92.154 L494.615,106.157 C485.528,111.104 475.346,113.694 465,113.692 C454.654,113.694 444.473,111.105 435.385,106.161 L435.385,92.154 Z M494.615,135.231 L435.385,135.231 L435.385,112.225 C444.605,116.735 454.735,119.079 465,119.077 C475.265,119.077 485.395,116.732 494.615,112.222 L494.615,135.231 Z M456.923,105.615 C456.923,104.901 457.207,104.217 457.712,103.712 C458.217,103.207 458.901,102.923 459.615,102.923 L470.385,102.923 C471.872,102.923 473.077,104.128 473.077,105.615 C473.077,107.102 471.872,108.308 470.385,108.308 L459.615,108.308 C458.901,108.308 458.217,108.024 457.712,107.519 C457.207,107.014 456.923,106.329 456.923,105.615 Z" />
        </g>
        <g id="Black-S">
            <path d="M694.615,86.769 L681.154,86.769 L681.154,84.077 C681.154,81.935 680.303,79.88 678.788,78.366 C677.273,76.851 675.219,76 673.077,76 L656.923,76 C654.781,76 652.727,76.851 651.212,78.366 C649.697,79.88 648.846,81.935 648.846,84.077 L648.846,86.769 L635.385,86.769 C632.411,86.769 630,89.18 630,92.154 L630,135.231 C630,136.659 630.567,138.028 631.577,139.038 C632.587,140.048 633.957,140.615 635.385,140.615 L694.615,140.615 C696.044,140.615 697.413,140.048 698.423,139.038 C699.433,138.028 700,136.659 700,135.231 L700,92.154 C700,90.726 699.433,89.356 698.423,88.346 C697.413,87.337 696.044,86.769 694.615,86.769 Z M654.231,84.077 C654.231,83.363 654.514,82.678 655.019,82.173 C655.524,81.668 656.209,81.385 656.923,81.385 L673.077,81.385 C673.791,81.385 674.476,81.668 674.981,82.173 C675.486,82.678 675.769,83.363 675.769,84.077 L675.769,86.769 L654.231,86.769 Z M694.615,92.154 L694.615,106.157 C685.528,111.104 675.346,113.694 665,113.692 C654.654,113.694 644.473,111.105 635.385,106.161 L635.385,92.154 Z M694.615,135.231 L635.385,135.231 L635.385,112.225 C644.606,116.735 654.735,119.079 665,119.077 C675.265,119.077 685.395,116.732 694.615,112.222 L694.615,135.231 Z M656.923,105.615 C656.923,104.901 657.207,104.217 657.712,103.712 C658.217,103.207 658.901,102.923 659.615,102.923 L670.385,102.923 C671.872,102.923 673.077,104.128 673.077,105.615 C673.077,107.102 671.872,108.308 670.385,108.308 L659.615,108.308 C658.901,108.308 658.217,108.024 657.712,107.519 C657.207,107.014 656.923,106.329 656.923,105.615 Z" />
        </g>
    </g>
</svg>