<?xml version="1.0" encoding="UTF-8"?>
<svg height="600" width="800" xmlns="http://www.w3.org/2000/svg" xmlns:xlink="http://www.w3.org/1999/xlink">
    <g id="Notes" font-family="'LucidaGrande', 'Lucida Grande', sans-serif" font-size="13">
        <rect fill="white" height="600.0" width="800.0" x="0.0" y="0.0" />
        <g font-size="13">
            <text x="18.0" y="176.0">Small</text>
            <text x="18.0" y="376.0">Medium</text>
            <text x="18.0" y="576.0">Large</text>
        </g>
        <g font-size="9">
            <text x="250.0" y="30.0">Ultralight</text>
            <text x="450.0" y="30.0">Regular</text>
            <text x="650.0" y="30.0">Black</text>
            <text id="template-version" fill="#505050" text-anchor="end" x="785.0" y="575.0">Template v.3.0</text>
            <a href="https://github.com/swhitty/SwiftDraw">
                <text fill="#505050" text-anchor="end" x="785.0" y="590.0">https://github.com/swhitty/SwiftDraw</text>
            </a>
        </g>
    </g>
    <g id="Guides" stroke="rgb(39, 170, 225)" stroke-width="0.5">
        <path id="Capline-S" d="M18,76 l800,0" />
        <path id="H-reference" d="M85,145.755 L87.685,145.755 L113.369,79.287 L114.052,79.287 L114.052,76 L112.148,76 L85,145.755 Z M95.693,121.536 L130.996,121.536 L130.263,119.313 L96.474,119.313 L95.693,121.536 Z M139.15,145.755 L141.787,145.755 L114.638,76 L113.466,76 L113.466,79.287 L139.15,145.755 Z" stroke="none" />
        <path id="Baseline-S" d="M18,146 l800,0" />
        <path id="left-margin-Ultralight-S" d="M220,56 l0,110" />
        <path id="right-margin-Ultralight-S" d="M310,56 l0,110" />
        <path id="left-margin-Regular-S" d="M420,56 l0,110" />
        <path id="right-margin-Regular-S" d="M510,56 l0,110" />
        <path id="left-margin-Black-S" d="M620,56 l0,110" />
        <path id="right-margin-Black-S" d="M710,56 l0,110" />
        <path id="Capline-M" d="M18,276 l800,0" />
        <path id="Baseline-M" d="M18,346 l800,0" />
        <path id="Capline-L" d="M18,476 l800,0" />
        <path id="Baseline-L" d="M18,546 l800,0" />
    </g>
    <g id="Symbols">
        <g id="Ultralight-S">
            <path d="M251.538,128.5 C251.538,130.73 249.73,132.538 247.5,132.538 C245.27,132.538 243.462,130.73 243.462,128.5 C243.462,126.27 245.27,124.462 247.5,124.462 C248.571,124.462 249.598,124.887 250.356,125.644 C251.113,126.402 251.538,127.429 251.538,128.5 Z M302.692,120.487 L302.692,137.923 C302.692,139.351 302.125,140.721 301.115,141.731 C300.105,142.74 298.736,143.308 297.308,143.308 L247.5,143.308 C246.604,143.308 245.71,143.232 244.828,143.079 C236.813,141.617 231.485,133.955 232.904,125.932 L241.318,77.763 C241.559,76.358 242.351,75.106 243.517,74.285 C244.684,73.464 246.129,73.141 247.534,73.388 L265.956,76.673 C268.874,77.199 270.818,79.985 270.304,82.906 L266.238,106.127 L289.059,97.875 C291.844,96.869 294.918,98.3 295.941,101.079 L302.356,118.636 C302.562,119.232 302.675,119.856 302.692,120.487 Z M256.587,130.139 L265,81.97 L246.645,78.692 L238.232,126.851 C237.317,131.95 240.691,136.831 245.784,137.778 C248.203,138.212 250.695,137.658 252.703,136.24 C254.762,134.808 256.161,132.611 256.587,130.139 Z M261.224,133.548 L297.308,120.46 L290.887,102.923 L265.168,112.245 L261.877,131.064 C261.731,131.909 261.512,132.74 261.224,133.548 Z M297.308,126.185 L264.913,137.923 L297.308,137.923 Z" />
        </g>
        <g id="Regular-S">
            <path d="M451.538,128.5 C451.538,130.73 449.73,132.538 447.5,132.538 C445.27,132.538 443.462,130.73 443.462,128.5 C443.462,126.27 445.27,124.462 447.5,124.462 C448.571,124.462 449.598,124.887 450.356,125.644 C451.113,126.402 451.538,127.429 451.538,128.5 Z M502.692,120.487 L502.692,137.923 C502.692,139.351 502.125,140.721 501.115,141.731 C500.105,142.74 498.736,143.308 497.308,143.308 L447.5,143.308 C446.604,143.308 445.71,143.232 444.828,143.079 C436.813,141.617 431.485,133.955 432.904,125.932 L441.318,77.763 C441.559,76.358 442.351,75.106 443.517,74.285 C444.684,73.464 446.129,73.141 447.534,73.388 L465.956,76.673 C468.874,77.199 470.818,79.985 470.304,82.906 L466.238,106.127 L489.059,97.875 C491.844,96.869 494.918,98.3 495.941,101.079 L502.356,118.636 C502.562,119.232 502.675,119.856 502.692,120.487 Z M456.587,130.139 L465,81.97 L446.645,78.692 L438.232,126.851 C437.317,131.95 440.691,136.831 445.784,137.778 C448.203,138.212 450.695,137.658 452.703,136.24 C454.762,134.808 456.161,132.611 456.587,130.139 Z M461.224,133.548 L497.308,120.46 L490.887,102.923 L465.168,112.245 L461.877,131.064 C461.731,131.909 461.512,132.74 461.224,133.548 Z M497.308,126.185 L464.912,137.923 L497.308,137.923 Z" />
        </g>
        <g id="Black-S">
            <path d="M651.538,128.5 C651.538,130.73 649.73,132.538 647.5,132.538 C645.27,132.538 643.462,130.73 643.462,128.5 C643.462,126.27 645.27,124.462 647.5,124.462 C648.571,124.462 649.598,124.887 650.356,125.644 C651.113,126.402 651.538,127.429 651.538,128.5 Z M702.692,120.487 L702.692,137.923 C702.692,139.351 702.125,140.721 701.115,141.731 C700.105,142.74 698.736,143.308 697.308,143.308 L647.5,143.308 C646.604,143.308 645.71,143.232 644.828,143.079 C636.813,141.617 631.485,133.955 632.904,125.932 L641.318,77.763 C641.559,76.358 642.351,75.106 643.517,74.285 C644.684,73.464 646.129,73.141 647.534,73.388 L665.956,76.673 C668.874,77.199 670.818,79.985 670.304,82.906 L666.238,106.127 L689.059,97.875 C691.844,96.869 694.918,98.3 695.941,101.079 L702.356,118.636 C702.562,119.232 702.675,119.856 702.692,120.487 Z M656.587,130.139 L665,81.97 L646.645,78.692 L638.232,126.851 C637.317,131.95 640.691,136.831 645.784,137.778 C648.203,138.212 650.695,137.658 652.703,136.24 C654.762,134.808 656.161,132.611 656.587,130.139 Z M661.224,133.548 L697.308,120.46 L690.887,102.923 L665.168,112.245 L661.877,131.064 C661.731,131.909 661.512,132.74 661.224,133.548 Z M697.308,126.185 L664.913,137.923 L697.308,137.923 Z" />
        </g>
    </g>
</svg>