<?xml version="1.0" encoding="UTF-8"?>
<svg height="600" width="800" xmlns="http://www.w3.org/2000/svg" xmlns:xlink="http://www.w3.org/1999/xlink">
    <g id="Notes" font-family="'LucidaGrande', 'Lucida Grande', sans-serif" font-size="13">
        <rect fill="white" height="600.0" width="800.0" x="0.0" y="0.0" />
        <g font-size="13">
            <text x="18.0" y="176.0">Small</text>
            <text x="18.0" y="376.0">Medium</text>
            <text x="18.0" y="576.0">Large</text>
        </g>
        <g font-size="9">
            <text x="250.0" y="30.0">Ultralight</text>
            <text x="450.0" y="30.0">Regular</text>
            <text x="650.0" y="30.0">Black</text>
            <text id="template-version" fill="#505050" text-anchor="end" x="785.0" y="575.0">Template v.3.0</text>
            <a href="https://github.com/swhitty/SwiftDraw">
                <text fill="#505050" text-anchor="end" x="785.0" y="590.0">https://github.com/swhitty/SwiftDraw</text>
            </a>
        </g>
    </g>
    <g id="Guides" stroke="rgb(39, 170, 225)" stroke-width="0.5">
        <path id="Capline-S" d="M18,76 l800,0" />
        <path id="H-reference" d="M85,145.755 L87.685,145.755 L113.369,79.287 L114.052,79.287 L114.052,76 L112.148,76 L85,145.755 Z M95.693,121.536 L130.996,121.536 L130.263,119.313 L96.474,119.313 L95.693,121.536 Z M139.15,145.755 L141.787,145.755 L114.638,76 L113.466,76 L113.466,79.287 L139.15,145.755 Z" stroke="none" />
        <path id="Baseline-S" d="M18,146 l800,0" />
        <path id="left-margin-Ultralight-S" d="M220,56 l0,110" />
        <path id="right-margin-Ultralight-S" d="M310,56 l0,110" />
        <path id="left-margin-Regular-S" d="M420,56 l0,110" />
        <path id="right-margin-Regular-S" d="M510,56 l0,110" />
        <path id="left-margin-Black-S" d="M620,56 l0,110" />
        <path id="right-margin-Black-S" d="M710,56 l0,110" />
        <path id="Capline-M" d="M18,276 l800,0" />
        <path id="Baseline-M" d="M18,346 l800,0" />
        <path id="Capline-L" d="M18,476 l800,0" />
        <path id="Baseline-L" d="M18,546 l800,0" />
    </g>
    <g id="Symbols">
        <g id="Ultralight-S">
            <path d="M265,76 C245.67,76 230,91.67 230,111 C230,130.33 245.67,146 265,146 C284.33,146 300,130.33 300,111 C299.979,91.677 284.32,76.02 264.999,76 Z M265,127.154 C256.078,127.154 248.846,119.922 248.846,111 C248.846,102.078 256.078,94.846 265,94.846 C273.922,94.846 281.154,102.078 281.154,111 C281.145,119.918 273.918,127.145 265,127.154 Z M278.196,93.995 C275.153,91.616 271.524,90.105 267.692,89.62 L267.692,81.509 C273.667,82.047 279.335,84.395 283.94,88.24 Z M262.308,89.637 C258.476,90.122 254.847,91.633 251.804,94.012 L246.06,88.25 C250.665,84.406 256.333,82.057 262.308,81.519 Z M247.995,97.804 C245.616,100.847 244.105,104.476 243.62,108.308 L235.509,108.308 C236.047,102.333 238.395,96.665 242.24,92.06 Z M243.637,113.692 C244.122,117.524 245.633,121.153 248.012,124.196 L242.25,129.94 C238.406,125.335 236.057,119.667 235.519,113.692 Z M251.804,128.005 C254.849,130.378 258.478,131.883 262.308,132.363 L262.308,140.491 C256.333,139.953 250.665,137.605 246.06,133.76 Z M267.692,132.363 C271.522,131.883 275.151,130.378 278.196,128.005 L283.94,133.75 C279.335,137.594 273.667,139.943 267.692,140.481 Z M282.005,124.196 C284.378,121.151 285.883,117.522 286.363,113.692 L294.491,113.692 C293.953,119.667 291.605,125.335 287.76,129.94 Z M286.363,108.308 C285.883,104.478 284.378,100.849 282.005,97.804 L287.75,92.06 C291.594,96.665 293.943,102.333 294.481,108.308 Z" />
        </g>
        <g id="Regular-S">
            <path d="M465,76 C445.67,76 430,91.67 430,111 C430,130.33 445.67,146 465,146 C484.33,146 500,130.33 500,111 C499.979,91.677 484.32,76.02 464.999,76 Z M465,127.154 C456.078,127.154 448.846,119.922 448.846,111 C448.846,102.078 456.078,94.846 465,94.846 C473.922,94.846 481.154,102.078 481.154,111 C481.145,119.918 473.918,127.145 465,127.154 Z M478.196,93.995 C475.153,91.616 471.524,90.105 467.692,89.62 L467.692,81.509 C473.667,82.047 479.335,84.395 483.94,88.24 Z M462.308,89.637 C458.476,90.122 454.847,91.633 451.804,94.012 L446.06,88.25 C450.665,84.406 456.333,82.057 462.308,81.519 Z M447.995,97.804 C445.616,100.847 444.105,104.476 443.62,108.308 L435.509,108.308 C436.047,102.333 438.395,96.665 442.24,92.06 Z M443.637,113.692 C444.121,117.524 445.633,121.153 448.012,124.196 L442.25,129.94 C438.406,125.335 436.057,119.667 435.519,113.692 Z M451.804,128.005 C454.849,130.378 458.478,131.883 462.308,132.363 L462.308,140.491 C456.333,139.953 450.665,137.605 446.06,133.76 Z M467.692,132.363 C471.522,131.883 475.151,130.378 478.196,128.005 L483.94,133.75 C479.335,137.594 473.667,139.943 467.692,140.481 Z M482.005,124.196 C484.378,121.151 485.883,117.522 486.363,113.692 L494.491,113.692 C493.953,119.667 491.605,125.335 487.76,129.94 Z M486.363,108.308 C485.883,104.478 484.378,100.849 482.005,97.804 L487.75,92.06 C491.594,96.665 493.943,102.333 494.481,108.308 Z" />
        </g>
        <g id="Black-S">
            <path d="M665,76 C645.67,76 630,91.67 630,111 C630,130.33 645.67,146 665,146 C684.33,146 700,130.33 700,111 C699.979,91.677 684.32,76.02 664.999,76 Z M665,127.154 C656.078,127.154 648.846,119.922 648.846,111 C648.846,102.078 656.078,94.846 665,94.846 C673.922,94.846 681.154,102.078 681.154,111 C681.145,119.918 673.918,127.145 665,127.154 Z M678.196,93.995 C675.153,91.616 671.524,90.105 667.692,89.62 L667.692,81.509 C673.667,82.047 679.335,84.395 683.94,88.24 Z M662.308,89.637 C658.476,90.122 654.847,91.633 651.804,94.012 L646.06,88.25 C650.665,84.406 656.333,82.057 662.308,81.519 Z M647.995,97.804 C645.616,100.847 644.105,104.476 643.62,108.308 L635.509,108.308 C636.047,102.333 638.396,96.665 642.24,92.06 Z M643.637,113.692 C644.122,117.524 645.633,121.153 648.012,124.196 L642.25,129.94 C638.406,125.335 636.057,119.667 635.519,113.692 Z M651.804,128.005 C654.849,130.378 658.478,131.883 662.308,132.363 L662.308,140.491 C656.333,139.953 650.665,137.605 646.06,133.76 Z M667.692,132.363 C671.522,131.883 675.151,130.378 678.196,128.005 L683.94,133.75 C679.335,137.594 673.667,139.943 667.692,140.481 Z M682.005,124.196 C684.378,121.151 685.883,117.522 686.363,113.692 L694.491,113.692 C693.953,119.667 691.605,125.335 687.76,129.94 Z M686.363,108.308 C685.883,104.478 684.378,100.849 682.005,97.804 L687.75,92.06 C691.594,96.665 693.943,102.333 694.481,108.308 Z" />
        </g>
    </g>
</svg>