<?xml version="1.0" encoding="UTF-8"?>
<svg height="600" width="800" xmlns="http://www.w3.org/2000/svg" xmlns:xlink="http://www.w3.org/1999/xlink">
    <g id="Notes" font-family="'LucidaGrande', 'Lucida Grande', sans-serif" font-size="13">
        <rect fill="white" height="600.0" width="800.0" x="0.0" y="0.0" />
        <g font-size="13">
            <text x="18.0" y="176.0">Small</text>
            <text x="18.0" y="376.0">Medium</text>
            <text x="18.0" y="576.0">Large</text>
        </g>
        <g font-size="9">
            <text x="250.0" y="30.0">Ultralight</text>
            <text x="450.0" y="30.0">Regular</text>
            <text x="650.0" y="30.0">Black</text>
            <text id="template-version" fill="#505050" text-anchor="end" x="785.0" y="575.0">Template v.3.0</text>
            <a href="https://github.com/swhitty/SwiftDraw">
                <text fill="#505050" text-anchor="end" x="785.0" y="590.0">https://github.com/swhitty/SwiftDraw</text>
            </a>
        </g>
    </g>
    <g id="Guides" stroke="rgb(39, 170, 225)" stroke-width="0.5">
        <path id="Capline-S" d="M18,76 l800,0" />
        <path id="H-reference" d="M85,145.755 L87.685,145.755 L113.369,79.287 L114.052,79.287 L114.052,76 L112.148,76 L85,145.755 Z M95.693,121.536 L130.996,121.536 L130.263,119.313 L96.474,119.313 L95.693,121.536 Z M139.15,145.755 L141.787,145.755 L114.638,76 L113.466,76 L113.466,79.287 L139.15,145.755 Z" stroke="none" />
        <path id="Baseline-S" d="M18,146 l800,0" />
        <path id="left-margin-Ultralight-S" d="M220,56 l0,110" />
        <path id="right-margin-Ultralight-S" d="M310,56 l0,110" />
        <path id="left-margin-Regular-S" d="M420,56 l0,110" />
        <path id="right-margin-Regular-S" d="M510,56 l0,110" />
        <path id="left-margin-Black-S" d="M620,56 l0,110" />
        <path id="right-margin-Black-S" d="M710,56 l0,110" />
        <path id="Capline-M" d="M18,276 l800,0" />
        <path id="Baseline-M" d="M18,346 l800,0" />
        <path id="Capline-L" d="M18,476 l800,0" />
        <path id="Baseline-L" d="M18,546 l800,0" />
    </g>
    <g id="Symbols">
        <g id="Ultralight-S">
            <path d="M303.81,107.194 L298.425,101.809 C296.538,99.924 293.554,99.705 291.412,101.294 L274.706,84.588 C276.296,82.447 276.079,79.463 274.194,77.575 L268.81,72.19 C267.8,71.18 266.43,70.613 265.002,70.613 C263.573,70.613 262.204,71.18 261.194,72.19 L239.655,93.729 C238.645,94.739 238.078,96.108 238.078,97.537 C238.078,98.965 238.645,100.335 239.655,101.345 L245.04,106.729 C246.928,108.612 249.909,108.829 252.05,107.241 L254.463,109.654 L232.46,131.657 C229.423,134.978 229.538,140.101 232.72,143.283 C235.902,146.466 241.025,146.58 244.347,143.543 L266.346,121.54 L268.759,123.95 C267.169,126.092 267.386,129.075 269.271,130.963 L274.655,136.348 C275.665,137.358 277.035,137.926 278.463,137.926 C279.892,137.926 281.261,137.358 282.271,136.348 L303.81,114.81 C304.82,113.8 305.387,112.43 305.387,111.002 C305.387,109.573 304.82,108.204 303.81,107.194 Z M248.846,102.923 L243.462,97.538 L265,76 L270.385,81.385 Z M240.54,139.734 C239.359,140.908 237.451,140.908 236.27,139.734 C235.098,138.553 235.098,136.647 236.27,135.466 L258.269,113.463 L262.54,117.731 Z M255.913,103.482 L270.943,88.452 L287.548,105.057 L272.522,120.087 Z M278.462,132.538 L273.077,127.154 L274.423,125.808 L274.423,125.808 L293.269,106.962 L293.269,106.962 L294.615,105.615 L300,111 Z" />
        </g>
        <g id="Regular-S">
            <path d="M503.81,107.194 L498.425,101.809 C496.538,99.924 493.554,99.705 491.412,101.294 L474.706,84.588 C476.296,82.447 476.078,79.463 474.194,77.575 L468.81,72.19 C467.8,71.18 466.43,70.613 465.002,70.613 C463.573,70.613 462.204,71.18 461.194,72.19 L439.655,93.729 C438.645,94.739 438.078,96.108 438.078,97.537 C438.078,98.965 438.645,100.335 439.655,101.345 L445.04,106.729 C446.928,108.612 449.909,108.829 452.05,107.241 L454.463,109.654 L432.46,131.657 C429.423,134.978 429.538,140.101 432.72,143.283 C435.902,146.466 441.025,146.58 444.347,143.543 L466.346,121.54 L468.759,123.95 C467.169,126.092 467.386,129.075 469.271,130.963 L474.655,136.348 C475.665,137.358 477.035,137.926 478.463,137.926 C479.892,137.926 481.261,137.358 482.271,136.348 L503.81,114.81 C504.82,113.8 505.387,112.43 505.387,111.002 C505.387,109.573 504.82,108.204 503.81,107.194 Z M448.846,102.923 L443.462,97.538 L465,76 L470.385,81.385 Z M440.54,139.734 C439.359,140.908 437.451,140.908 436.27,139.734 C435.098,138.553 435.098,136.647 436.27,135.466 L458.269,113.463 L462.54,117.731 Z M455.913,103.482 L470.943,88.452 L487.548,105.057 L472.522,120.087 Z M478.462,132.538 L473.077,127.154 L474.423,125.808 L474.423,125.808 L493.269,106.962 L493.269,106.962 L494.615,105.615 L500,111 Z" />
        </g>
        <g id="Black-S">
            <path d="M703.81,107.194 L698.425,101.809 C696.538,99.924 693.554,99.705 691.412,101.294 L674.706,84.588 C676.296,82.447 676.079,79.463 674.194,77.575 L668.81,72.19 C667.8,71.18 666.43,70.613 665.002,70.613 C663.573,70.613 662.204,71.18 661.194,72.19 L639.655,93.729 C638.645,94.739 638.078,96.108 638.078,97.537 C638.078,98.965 638.645,100.335 639.655,101.345 L645.04,106.729 C646.928,108.612 649.909,108.829 652.05,107.241 L654.463,109.654 L632.46,131.657 C629.423,134.978 629.538,140.101 632.72,143.283 C635.902,146.466 641.025,146.58 644.347,143.543 L666.346,121.54 L668.759,123.95 C667.169,126.092 667.386,129.075 669.271,130.963 L674.655,136.348 C675.665,137.358 677.035,137.926 678.463,137.926 C679.892,137.926 681.261,137.358 682.271,136.348 L703.81,114.81 C704.82,113.8 705.387,112.43 705.387,111.002 C705.387,109.573 704.82,108.204 703.81,107.194 Z M648.846,102.923 L643.462,97.538 L665,76 L670.385,81.385 Z M640.54,139.734 C639.359,140.908 637.451,140.908 636.27,139.734 C635.098,138.553 635.098,136.647 636.27,135.466 L658.269,113.463 L662.54,117.731 Z M655.913,103.482 L670.943,88.452 L687.548,105.057 L672.522,120.087 Z M678.462,132.538 L673.077,127.154 L674.423,125.808 L674.423,125.808 L693.269,106.962 L693.269,106.962 L694.615,105.615 L700,111 Z" />
        </g>
    </g>
</svg>