<?xml version="1.0" encoding="UTF-8"?>
<svg height="600" width="800" xmlns="http://www.w3.org/2000/svg" xmlns:xlink="http://www.w3.org/1999/xlink">
    <g id="Notes" font-family="'LucidaGrande', 'Lucida Grande', sans-serif" font-size="13">
        <rect fill="white" height="600.0" width="800.0" x="0.0" y="0.0" />
        <g font-size="13">
            <text x="18.0" y="176.0">Small</text>
            <text x="18.0" y="376.0">Medium</text>
            <text x="18.0" y="576.0">Large</text>
        </g>
        <g font-size="9">
            <text x="250.0" y="30.0">Ultralight</text>
            <text x="450.0" y="30.0">Regular</text>
            <text x="650.0" y="30.0">Black</text>
            <text id="template-version" fill="#505050" text-anchor="end" x="785.0" y="575.0">Template v.3.0</text>
            <a href="https://github.com/swhitty/SwiftDraw">
                <text fill="#505050" text-anchor="end" x="785.0" y="590.0">https://github.com/swhitty/SwiftDraw</text>
            </a>
        </g>
    </g>
    <g id="Guides" stroke="rgb(39, 170, 225)" stroke-width="0.5">
        <path id="Capline-S" d="M18,76 l800,0" />
        <path id="H-reference" d="M85,145.755 L87.685,145.755 L113.369,79.287 L114.052,79.287 L114.052,76 L112.148,76 L85,145.755 Z M95.693,121.536 L130.996,121.536 L130.263,119.313 L96.474,119.313 L95.693,121.536 Z M139.15,145.755 L141.787,145.755 L114.638,76 L113.466,76 L113.466,79.287 L139.15,145.755 Z" stroke="none" />
        <path id="Baseline-S" d="M18,146 l800,0" />
        <path id="left-margin-Ultralight-S" d="M220,56 l0,110" />
        <path id="right-margin-Ultralight-S" d="M310,56 l0,110" />
        <path id="left-margin-Regular-S" d="M420,56 l0,110" />
        <path id="right-margin-Regular-S" d="M510,56 l0,110" />
        <path id="left-margin-Black-S" d="M620,56 l0,110" />
        <path id="right-margin-Black-S" d="M710,56 l0,110" />
        <path id="Capline-M" d="M18,276 l800,0" />
        <path id="Baseline-M" d="M18,346 l800,0" />
        <path id="Capline-L" d="M18,476 l800,0" />
        <path id="Baseline-L" d="M18,546 l800,0" />
    </g>
    <g id="Symbols">
        <g id="Ultralight-S">
            <path d="M299.956,78.736 C296.299,75.089 290.38,75.089 286.724,78.736 L228.095,137.385 C227.404,138.077 227.142,139.09 227.412,140.03 C227.682,140.971 228.441,141.691 229.394,141.911 C233.389,142.837 237.476,143.306 241.577,143.308 C252.666,143.308 263.762,139.875 274.204,133.134 C284.893,126.235 291.095,118.387 291.368,118.054 C292.207,116.982 292.115,115.453 291.152,114.49 L284.29,107.635 L299.956,91.965 C303.599,88.308 303.599,82.393 299.956,78.736 Z M285.562,116.533 C281.292,121.187 276.445,125.276 271.138,128.702 C259.551,136.139 247.601,139.108 235.543,137.553 L271.058,102.025 Z M296.15,88.163 L280.481,103.832 L274.867,98.212 L290.533,82.542 C292.084,80.991 294.598,80.991 296.15,82.542 C297.701,84.093 297.701,86.607 296.15,88.159 Z" />
        </g>
        <g id="Regular-S">
            <path d="M499.956,78.736 C496.299,75.089 490.38,75.089 486.724,78.736 L428.095,137.385 C427.403,138.077 427.142,139.09 427.412,140.03 C427.682,140.971 428.441,141.691 429.394,141.911 C433.389,142.837 437.476,143.306 441.577,143.308 C452.666,143.308 463.762,139.875 474.204,133.134 C484.893,126.235 491.095,118.387 491.368,118.054 C492.207,116.982 492.115,115.453 491.152,114.49 L484.29,107.635 L499.956,91.965 C503.599,88.308 503.599,82.393 499.956,78.736 Z M485.562,116.533 C481.292,121.187 476.445,125.276 471.138,128.702 C459.551,136.139 447.601,139.108 435.543,137.553 L471.058,102.025 Z M496.15,88.163 L480.481,103.832 L474.867,98.212 L490.533,82.542 C492.084,80.991 494.598,80.991 496.15,82.542 C497.701,84.093 497.701,86.607 496.15,88.159 Z" />
        </g>
        <g id="Black-S">
            <path d="M699.956,78.736 C696.299,75.089 690.38,75.089 686.724,78.736 L628.095,137.385 C627.404,138.077 627.142,139.09 627.412,140.03 C627.682,140.971 628.441,141.691 629.394,141.911 C633.389,142.837 637.476,143.306 641.577,143.308 C652.666,143.308 663.762,139.875 674.204,133.134 C684.893,126.235 691.095,118.387 691.368,118.054 C692.207,116.982 692.115,115.453 691.152,114.49 L684.29,107.635 L699.956,91.965 C703.599,88.308 703.599,82.393 699.956,78.736 Z M685.562,116.533 C681.292,121.187 676.445,125.276 671.138,128.702 C659.551,136.139 647.601,139.108 635.543,137.553 L671.058,102.025 Z M696.15,88.163 L680.481,103.832 L674.867,98.212 L690.533,82.542 C692.084,80.991 694.598,80.991 696.15,82.542 C697.701,84.093 697.701,86.607 696.15,88.159 Z" />
        </g>
    </g>
</svg>