<?xml version="1.0" encoding="UTF-8"?>
<svg height="600" width="800" xmlns="http://www.w3.org/2000/svg" xmlns:xlink="http://www.w3.org/1999/xlink">
    <g id="Notes" font-family="'LucidaGrande', 'Lucida Grande', sans-serif" font-size="13">
        <rect fill="white" height="600.0" width="800.0" x="0.0" y="0.0" />
        <g font-size="13">
            <text x="18.0" y="176.0">Small</text>
            <text x="18.0" y="376.0">Medium</text>
            <text x="18.0" y="576.0">Large</text>
        </g>
        <g font-size="9">
            <text x="250.0" y="30.0">Ultralight</text>
            <text x="450.0" y="30.0">Regular</text>
            <text x="650.0" y="30.0">Black</text>
            <text id="template-version" fill="#505050" text-anchor="end" x="785.0" y="575.0">Template v.3.0</text>
            <a href="https://github.com/swhitty/SwiftDraw">
                <text fill="#505050" text-anchor="end" x="785.0" y="590.0">https://github.com/swhitty/SwiftDraw</text>
            </a>
        </g>
    </g>
    <g id="Guides" stroke="rgb(39, 170, 225)" stroke-width="0.5">
        <path id="Capline-S" d="M18,76 l800,0" />
        <path id="H-reference" d="M85,145.755 L87.685,145.755 L113.369,79.287 L114.052,79.287 L114.052,76 L112.148,76 L85,145.755 Z M95.693,121.536 L130.996,121.536 L130.263,119.313 L96.474,119.313 L95.693,121.536 Z M139.15,145.755 L141.787,145.755 L114.638,76 L113.466,76 L113.466,79.287 L139.15,145.755 Z" stroke="none" />
        <path id="Baseline-S" d="M18,146 l800,0" />
        <path id="left-margin-Ultralight-S" d="M220,56 l0,110" />
        <path id="right-margin-Ultralight-S" d="M310,56 l0,110" />
        <path id="left-margin-Regular-S" d="M420,56 l0,110" />
        <path id="right-margin-Regular-S" d="M510,56 l0,110" />
        <path id="left-margin-Black-S" d="M620,56 l0,110" />
        <path id="right-margin-Black-S" d="M710,56 l0,110" />
        <path id="Capline-M" d="M18,276 l800,0" />
        <path id="Baseline-M" d="M18,346 l800,0" />
        <path id="Capline-L" d="M18,476 l800,0" />
        <path id="Baseline-L" d="M18,546 l800,0" />
    </g>
    <g id="Symbols">
        <g id="Ultralight-S">
            <path d="M270.475,83.38 C270.66,82.69 271.111,82.102 271.73,81.745 C272.348,81.387 273.084,81.291 273.774,81.475 C283.936,84.127 291.873,92.064 294.525,102.226 C294.71,102.916 294.613,103.652 294.255,104.27 C293.898,104.889 293.31,105.34 292.62,105.525 C292.392,105.584 292.158,105.615 291.923,105.615 C290.703,105.615 289.636,104.795 289.322,103.616 C287.159,95.32 280.68,88.841 272.384,86.678 C271.693,86.495 271.104,86.044 270.746,85.425 C270.388,84.806 270.291,84.071 270.475,83.38 Z M269.691,97.448 C274.332,98.686 277.314,101.668 278.552,106.309 C278.867,107.487 279.934,108.308 281.154,108.308 C281.389,108.307 281.623,108.277 281.85,108.217 C282.541,108.032 283.129,107.581 283.486,106.962 C283.843,106.344 283.94,105.609 283.755,104.919 C282.032,98.471 277.529,93.968 271.081,92.245 C269.645,91.861 268.169,92.714 267.785,94.151 C267.401,95.588 268.255,97.064 269.691,97.448 Z M297.267,129.537 C296.026,138.97 287.976,146.017 278.462,146 C251.74,146 230,124.26 230,97.538 C229.983,88.023 237.03,79.974 246.464,78.733 C248.832,78.443 251.109,79.747 252.057,81.936 L259.165,97.804 L259.165,97.845 C259.883,99.502 259.722,101.409 258.737,102.923 C258.676,103.014 258.612,103.098 258.545,103.182 L251.538,111.488 C254.059,116.61 259.417,121.921 264.606,124.448 L272.798,117.478 C272.878,117.411 272.962,117.348 273.05,117.29 C274.563,116.281 276.483,116.104 278.155,116.819 L278.199,116.839 L294.053,123.943 C296.247,124.889 297.555,127.166 297.267,129.537 Z M291.923,128.863 C291.923,128.863 291.9,128.863 291.886,128.863 L291.886,128.863 L276.069,121.779 L267.874,128.749 C267.795,128.816 267.711,128.879 267.625,128.938 C266.049,129.989 264.036,130.135 262.325,129.321 C256.021,126.275 249.738,120.039 246.689,113.803 C245.868,112.105 245.995,110.1 247.025,108.52 C247.083,108.428 247.147,108.342 247.217,108.261 L254.231,99.945 L247.163,84.127 C247.162,84.114 247.162,84.1 247.163,84.087 C240.412,84.968 235.366,90.729 235.385,97.538 C235.411,121.318 254.682,140.589 278.462,140.615 C285.266,140.639 291.03,135.606 291.923,128.86 Z" />
        </g>
        <g id="Regular-S">
            <path d="M470.475,83.38 C470.66,82.69 471.111,82.102 471.73,81.745 C472.348,81.387 473.084,81.291 473.774,81.475 C483.936,84.127 491.873,92.064 494.525,102.226 C494.709,102.916 494.613,103.652 494.255,104.27 C493.898,104.889 493.31,105.34 492.62,105.525 C492.392,105.584 492.158,105.615 491.923,105.615 C490.703,105.615 489.636,104.795 489.322,103.616 C487.159,95.32 480.68,88.841 472.384,86.678 C471.693,86.495 471.104,86.044 470.746,85.425 C470.388,84.806 470.291,84.071 470.475,83.38 Z M469.691,97.448 C474.332,98.686 477.314,101.668 478.552,106.309 C478.867,107.487 479.934,108.308 481.154,108.308 C481.389,108.307 481.623,108.277 481.85,108.217 C482.541,108.032 483.129,107.581 483.486,106.962 C483.843,106.344 483.94,105.609 483.755,104.919 C482.032,98.471 477.529,93.968 471.081,92.245 C469.645,91.861 468.169,92.714 467.785,94.151 C467.401,95.588 468.255,97.064 469.691,97.448 Z M497.267,129.537 C496.026,138.97 487.976,146.017 478.462,146 C451.74,146 430,124.26 430,97.538 C429.983,88.023 437.03,79.974 446.464,78.733 C448.832,78.443 451.109,79.747 452.057,81.936 L459.165,97.804 L459.165,97.845 C459.883,99.502 459.722,101.409 458.737,102.923 C458.676,103.014 458.612,103.098 458.545,103.182 L451.538,111.488 C454.059,116.61 459.417,121.921 464.606,124.448 L472.798,117.478 C472.878,117.411 472.962,117.348 473.05,117.29 C474.563,116.281 476.483,116.104 478.155,116.819 L478.199,116.839 L494.053,123.943 C496.247,124.889 497.555,127.166 497.267,129.537 Z M491.923,128.863 C491.923,128.863 491.9,128.863 491.886,128.863 L491.886,128.863 L476.069,121.779 L467.874,128.749 C467.795,128.816 467.711,128.879 467.625,128.938 C466.049,129.989 464.036,130.135 462.324,129.321 C456.021,126.275 449.738,120.039 446.689,113.803 C445.868,112.105 445.995,110.1 447.025,108.52 C447.083,108.428 447.147,108.342 447.217,108.261 L454.231,99.945 L447.163,84.127 C447.162,84.114 447.162,84.1 447.163,84.087 C440.412,84.968 435.366,90.729 435.385,97.538 C435.411,121.318 454.682,140.589 478.462,140.615 C485.266,140.639 491.03,135.606 491.923,128.86 Z" />
        </g>
        <g id="Black-S">
            <path d="M670.476,83.38 C670.66,82.69 671.111,82.102 671.73,81.745 C672.348,81.387 673.084,81.291 673.774,81.475 C683.936,84.127 691.873,92.064 694.525,102.226 C694.71,102.916 694.613,103.652 694.255,104.27 C693.898,104.889 693.31,105.34 692.62,105.525 C692.392,105.584 692.158,105.615 691.923,105.615 C690.703,105.615 689.636,104.795 689.322,103.616 C687.159,95.32 680.68,88.841 672.384,86.678 C671.693,86.495 671.104,86.044 670.746,85.425 C670.388,84.806 670.291,84.071 670.475,83.38 Z M669.691,97.448 C674.332,98.686 677.314,101.668 678.552,106.309 C678.867,107.487 679.934,108.308 681.154,108.308 C681.389,108.307 681.623,108.277 681.851,108.217 C682.541,108.032 683.129,107.581 683.486,106.962 C683.844,106.344 683.94,105.609 683.755,104.919 C682.032,98.471 677.529,93.968 671.081,92.245 C669.645,91.861 668.169,92.714 667.785,94.151 C667.401,95.588 668.255,97.064 669.691,97.448 Z M697.267,129.537 C696.026,138.97 687.976,146.017 678.462,146 C651.74,146 630,124.26 630,97.538 C629.983,88.023 637.031,79.974 646.464,78.733 C648.832,78.443 651.109,79.747 652.057,81.936 L659.165,97.804 L659.165,97.845 C659.883,99.502 659.722,101.409 658.737,102.923 C658.676,103.014 658.613,103.098 658.545,103.182 L651.538,111.488 C654.059,116.61 659.417,121.921 664.606,124.448 L672.798,117.478 C672.878,117.411 672.962,117.348 673.05,117.29 C674.563,116.281 676.483,116.104 678.155,116.819 L678.199,116.839 L694.053,123.943 C696.247,124.889 697.555,127.166 697.267,129.537 Z M691.923,128.863 C691.923,128.863 691.9,128.863 691.886,128.863 L691.886,128.863 L676.069,121.779 L667.874,128.749 C667.795,128.816 667.711,128.879 667.625,128.938 C666.049,129.989 664.036,130.135 662.325,129.321 C656.021,126.275 649.738,120.039 646.689,113.803 C645.868,112.105 645.995,110.1 647.026,108.52 C647.083,108.428 647.147,108.342 647.217,108.261 L654.231,99.945 L647.163,84.127 C647.162,84.114 647.162,84.1 647.163,84.087 C640.412,84.968 635.366,90.729 635.385,97.538 C635.411,121.318 654.682,140.589 678.462,140.615 C685.266,140.639 691.03,135.606 691.923,128.86 Z" />
        </g>
    </g>
</svg>