<?xml version="1.0" encoding="UTF-8"?>
<svg height="600" width="800" xmlns="http://www.w3.org/2000/svg" xmlns:xlink="http://www.w3.org/1999/xlink">
    <g id="Notes" font-family="'LucidaGrande', 'Lucida Grande', sans-serif" font-size="13">
        <rect fill="white" height="600.0" width="800.0" x="0.0" y="0.0" />
        <g font-size="13">
            <text x="18.0" y="176.0">Small</text>
            <text x="18.0" y="376.0">Medium</text>
            <text x="18.0" y="576.0">Large</text>
        </g>
        <g font-size="9">
            <text x="250.0" y="30.0">Ultralight</text>
            <text x="450.0" y="30.0">Regular</text>
            <text x="650.0" y="30.0">Black</text>
            <text id="template-version" fill="#505050" text-anchor="end" x="785.0" y="575.0">Template v.3.0</text>
            <a href="https://github.com/swhitty/SwiftDraw">
                <text fill="#505050" text-anchor="end" x="785.0" y="590.0">https://github.com/swhitty/SwiftDraw</text>
            </a>
        </g>
    </g>
    <g id="Guides" stroke="rgb(39, 170, 225)" stroke-width="0.5">
        <path id="Capline-S" d="M18,76 l800,0" />
        <path id="H-reference" d="M85,145.755 L87.685,145.755 L113.369,79.287 L114.052,79.287 L114.052,76 L112.148,76 L85,145.755 Z M95.693,121.536 L130.996,121.536 L130.263,119.313 L96.474,119.313 L95.693,121.536 Z M139.15,145.755 L141.787,145.755 L114.638,76 L113.466,76 L113.466,79.287 L139.15,145.755 Z" stroke="none" />
        <path id="Baseline-S" d="M18,146 l800,0" />
        <path id="left-margin-Ultralight-S" d="M220,56 l0,110" />
        <path id="right-margin-Ultralight-S" d="M310,56 l0,110" />
        <path id="left-margin-Regular-S" d="M420,56 l0,110" />
        <path id="right-margin-Regular-S" d="M510,56 l0,110" />
        <path id="left-margin-Black-S" d="M620,56 l0,110" />
        <path id="right-margin-Black-S" d="M710,56 l0,110" />
        <path id="Capline-M" d="M18,276 l800,0" />
        <path id="Baseline-M" d="M18,346 l800,0" />
        <path id="Capline-L" d="M18,476 l800,0" />
        <path id="Baseline-L" d="M18,546 l800,0" />
    </g>
    <g id="Symbols">
        <g id="Ultralight-S">
            <path d="M240.069,79.574 C239.426,78.849 238.442,78.525 237.494,78.728 C236.546,78.93 235.779,79.626 235.488,80.551 C235.196,81.475 235.424,82.486 236.085,83.195 L240.52,88.075 C235.447,94.119 232.674,101.763 232.692,109.654 L232.692,137.923 C232.692,139.351 233.26,140.721 234.269,141.731 C235.279,142.74 236.649,143.308 238.077,143.308 L266.346,143.308 C273.137,143.299 279.767,141.243 285.371,137.408 L289.931,142.426 C290.574,143.151 291.558,143.475 292.506,143.272 C293.454,143.07 294.221,142.374 294.512,141.449 C294.804,140.525 294.576,139.514 293.915,138.805 Z M266.346,137.923 L238.077,137.923 L238.077,109.654 C238.063,103.279 240.217,97.09 244.186,92.103 L281.712,133.383 C277.144,136.365 271.802,137.943 266.346,137.923 Z M300,109.654 C300.005,115.778 298.335,121.789 295.172,127.034 C294.404,128.306 292.749,128.716 291.475,127.948 C290.201,127.179 289.792,125.524 290.56,124.25 C297.018,113.548 295.683,99.876 287.275,90.627 C278.867,81.378 265.383,78.749 254.116,84.161 C252.777,84.806 251.167,84.243 250.522,82.903 C249.877,81.563 250.441,79.953 251.781,79.308 C262.21,74.301 274.48,75.002 284.271,81.164 C294.062,87.326 300.002,98.085 300,109.654 Z" />
        </g>
        <g id="Regular-S">
            <path d="M440.069,79.574 C439.426,78.849 438.442,78.525 437.494,78.728 C436.546,78.93 435.779,79.626 435.488,80.551 C435.196,81.475 435.424,82.486 436.085,83.195 L440.52,88.075 C435.447,94.119 432.674,101.763 432.692,109.654 L432.692,137.923 C432.692,139.351 433.26,140.721 434.269,141.731 C435.279,142.74 436.649,143.308 438.077,143.308 L466.346,143.308 C473.137,143.299 479.767,141.243 485.371,137.408 L489.931,142.426 C490.574,143.151 491.558,143.475 492.506,143.272 C493.454,143.07 494.221,142.374 494.512,141.449 C494.804,140.525 494.576,139.514 493.915,138.805 Z M466.346,137.923 L438.077,137.923 L438.077,109.654 C438.063,103.279 440.217,97.09 444.185,92.103 L481.712,133.383 C477.144,136.365 471.802,137.943 466.346,137.923 Z M500,109.654 C500.005,115.778 498.335,121.789 495.172,127.034 C494.404,128.306 492.749,128.716 491.475,127.948 C490.201,127.179 489.792,125.524 490.56,124.25 C497.018,113.548 495.682,99.876 487.275,90.627 C478.867,81.378 465.383,78.749 454.116,84.161 C452.777,84.806 451.167,84.243 450.522,82.903 C449.877,81.563 450.441,79.953 451.781,79.308 C462.21,74.301 474.48,75.002 484.271,81.164 C494.062,87.326 500.002,98.085 500,109.654 Z" />
        </g>
        <g id="Black-S">
            <path d="M640.069,79.574 C639.426,78.849 638.442,78.525 637.494,78.728 C636.546,78.93 635.779,79.626 635.488,80.551 C635.196,81.475 635.424,82.486 636.085,83.195 L640.52,88.075 C635.447,94.119 632.674,101.763 632.692,109.654 L632.692,137.923 C632.692,139.351 633.26,140.721 634.269,141.731 C635.279,142.74 636.649,143.308 638.077,143.308 L666.346,143.308 C673.137,143.299 679.767,141.243 685.371,137.408 L689.931,142.426 C690.574,143.151 691.558,143.475 692.506,143.272 C693.454,143.07 694.221,142.374 694.512,141.449 C694.804,140.525 694.576,139.514 693.915,138.805 Z M666.346,137.923 L638.077,137.923 L638.077,109.654 C638.063,103.279 640.217,97.09 644.186,92.103 L681.713,133.383 C677.144,136.365 671.802,137.943 666.346,137.923 Z M700,109.654 C700.005,115.778 698.335,121.789 695.172,127.034 C694.404,128.306 692.749,128.716 691.475,127.948 C690.201,127.179 689.792,125.524 690.56,124.25 C697.018,113.548 695.683,99.876 687.275,90.627 C678.867,81.378 665.383,78.749 654.116,84.161 C652.777,84.806 651.167,84.243 650.522,82.903 C649.877,81.563 650.441,79.953 651.781,79.308 C662.21,74.301 674.48,75.002 684.271,81.164 C694.062,87.326 700.002,98.085 700,109.654 Z" />
        </g>
    </g>
</svg>