<?xml version="1.0" encoding="UTF-8"?>
<svg height="600" width="800" xmlns="http://www.w3.org/2000/svg" xmlns:xlink="http://www.w3.org/1999/xlink">
    <g id="Notes" font-family="'LucidaGrande', 'Lucida Grande', sans-serif" font-size="13">
        <rect fill="white" height="600.0" width="800.0" x="0.0" y="0.0" />
        <g font-size="13">
            <text x="18.0" y="176.0">Small</text>
            <text x="18.0" y="376.0">Medium</text>
            <text x="18.0" y="576.0">Large</text>
        </g>
        <g font-size="9">
            <text x="250.0" y="30.0">Ultralight</text>
            <text x="450.0" y="30.0">Regular</text>
            <text x="650.0" y="30.0">Black</text>
            <text id="template-version" fill="#505050" text-anchor="end" x="785.0" y="575.0">Template v.3.0</text>
            <a href="https://github.com/swhitty/SwiftDraw">
                <text fill="#505050" text-anchor="end" x="785.0" y="590.0">https://github.com/swhitty/SwiftDraw</text>
            </a>
        </g>
    </g>
    <g id="Guides" stroke="rgb(39, 170, 225)" stroke-width="0.5">
        <path id="Capline-S" d="M18,76 l800,0" />
        <path id="H-reference" d="M85,145.755 L87.685,145.755 L113.369,79.287 L114.052,79.287 L114.052,76 L112.148,76 L85,145.755 Z M95.693,121.536 L130.996,121.536 L130.263,119.313 L96.474,119.313 L95.693,121.536 Z M139.15,145.755 L141.787,145.755 L114.638,76 L113.466,76 L113.466,79.287 L139.15,145.755 Z" stroke="none" />
        <path id="Baseline-S" d="M18,146 l800,0" />
        <path id="left-margin-Ultralight-S" d="M220,56 l0,110" />
        <path id="right-margin-Ultralight-S" d="M310,56 l0,110" />
        <path id="left-margin-Regular-S" d="M420,56 l0,110" />
        <path id="right-margin-Regular-S" d="M510,56 l0,110" />
        <path id="left-margin-Black-S" d="M620,56 l0,110" />
        <path id="right-margin-Black-S" d="M710,56 l0,110" />
        <path id="Capline-M" d="M18,276 l800,0" />
        <path id="Baseline-M" d="M18,346 l800,0" />
        <path id="Capline-L" d="M18,476 l800,0" />
        <path id="Baseline-L" d="M18,546 l800,0" />
    </g>
    <g id="Symbols">
        <g id="Ultralight-S">
            <path d="M293.828,95.634 L274.982,76.788 C274.476,76.283 273.791,75.999 273.077,76 L240.769,76 C239.341,76 237.972,76.567 236.962,77.577 C235.952,78.587 235.385,79.957 235.385,81.385 L235.385,140.615 C235.385,142.043 235.952,143.413 236.962,144.423 C237.972,145.433 239.341,146 240.769,146 L289.231,146 C290.659,146 292.028,145.433 293.038,144.423 C294.048,143.413 294.615,142.043 294.615,140.615 L294.615,97.538 C294.616,96.824 294.333,96.139 293.828,95.634 Z M275.769,85.191 L285.425,94.846 L275.769,94.846 Z M289.231,140.615 L240.769,140.615 L240.769,81.385 L270.385,81.385 L270.385,97.538 C270.385,98.253 270.668,98.937 271.173,99.442 C271.678,99.947 272.363,100.231 273.077,100.231 L289.231,100.231 L289.231,140.615 Z M275.769,119.077 C275.769,119.791 275.486,120.476 274.981,120.981 C274.476,121.486 273.791,121.769 273.077,121.769 L256.923,121.769 C255.436,121.769 254.231,120.564 254.231,119.077 C254.231,117.59 255.436,116.385 256.923,116.385 L273.077,116.385 C273.791,116.385 274.476,116.668 274.981,117.173 C275.486,117.678 275.769,118.363 275.769,119.077 Z" />
        </g>
        <g id="Regular-S">
            <path d="M493.828,95.634 L474.982,76.788 C474.476,76.283 473.791,75.999 473.077,76 L440.769,76 C439.341,76 437.972,76.567 436.962,77.577 C435.952,78.587 435.385,79.957 435.385,81.385 L435.385,140.615 C435.385,142.043 435.952,143.413 436.962,144.423 C437.972,145.433 439.341,146 440.769,146 L489.231,146 C490.659,146 492.028,145.433 493.038,144.423 C494.048,143.413 494.615,142.043 494.615,140.615 L494.615,97.538 C494.616,96.824 494.333,96.139 493.828,95.634 Z M475.769,85.191 L485.424,94.846 L475.769,94.846 Z M489.231,140.615 L440.769,140.615 L440.769,81.385 L470.385,81.385 L470.385,97.538 C470.385,98.253 470.668,98.937 471.173,99.442 C471.678,99.947 472.363,100.231 473.077,100.231 L489.231,100.231 L489.231,140.615 Z M475.769,119.077 C475.769,119.791 475.486,120.476 474.981,120.981 C474.476,121.486 473.791,121.769 473.077,121.769 L456.923,121.769 C455.436,121.769 454.231,120.564 454.231,119.077 C454.231,117.59 455.436,116.385 456.923,116.385 L473.077,116.385 C473.791,116.385 474.476,116.668 474.981,117.173 C475.486,117.678 475.769,118.363 475.769,119.077 Z" />
        </g>
        <g id="Black-S">
            <path d="M693.828,95.634 L674.982,76.788 C674.476,76.283 673.791,75.999 673.077,76 L640.769,76 C639.341,76 637.972,76.567 636.962,77.577 C635.952,78.587 635.385,79.957 635.385,81.385 L635.385,140.615 C635.385,142.043 635.952,143.413 636.962,144.423 C637.972,145.433 639.341,146 640.769,146 L689.231,146 C690.659,146 692.028,145.433 693.038,144.423 C694.048,143.413 694.615,142.043 694.615,140.615 L694.615,97.538 C694.616,96.824 694.333,96.139 693.828,95.634 Z M675.769,85.191 L685.425,94.846 L675.769,94.846 Z M689.231,140.615 L640.769,140.615 L640.769,81.385 L670.385,81.385 L670.385,97.538 C670.385,98.253 670.668,98.937 671.173,99.442 C671.678,99.947 672.363,100.231 673.077,100.231 L689.231,100.231 L689.231,140.615 Z M675.769,119.077 C675.769,119.791 675.486,120.476 674.981,120.981 C674.476,121.486 673.791,121.769 673.077,121.769 L656.923,121.769 C655.436,121.769 654.231,120.564 654.231,119.077 C654.231,117.59 655.436,116.385 656.923,116.385 L673.077,116.385 C673.791,116.385 674.476,116.668 674.981,117.173 C675.486,117.678 675.769,118.363 675.769,119.077 Z" />
        </g>
    </g>
</svg>