<?xml version="1.0" encoding="UTF-8"?>
<svg height="600" width="800" xmlns="http://www.w3.org/2000/svg" xmlns:xlink="http://www.w3.org/1999/xlink">
    <g id="Notes" font-family="'LucidaGrande', 'Lucida Grande', sans-serif" font-size="13">
        <rect fill="white" height="600.0" width="800.0" x="0.0" y="0.0" />
        <g font-size="13">
            <text x="18.0" y="176.0">Small</text>
            <text x="18.0" y="376.0">Medium</text>
            <text x="18.0" y="576.0">Large</text>
        </g>
        <g font-size="9">
            <text x="250.0" y="30.0">Ultralight</text>
            <text x="450.0" y="30.0">Regular</text>
            <text x="650.0" y="30.0">Black</text>
            <text id="template-version" fill="#505050" text-anchor="end" x="785.0" y="575.0">Template v.3.0</text>
            <a href="https://github.com/swhitty/SwiftDraw">
                <text fill="#505050" text-anchor="end" x="785.0" y="590.0">https://github.com/swhitty/SwiftDraw</text>
            </a>
        </g>
    </g>
    <g id="Guides" stroke="rgb(39, 170, 225)" stroke-width="0.5">
        <path id="Capline-S" d="M18,76 l800,0" />
        <path id="H-reference" d="M85,145.755 L87.685,145.755 L113.369,79.287 L114.052,79.287 L114.052,76 L112.148,76 L85,145.755 Z M95.693,121.536 L130.996,121.536 L130.263,119.313 L96.474,119.313 L95.693,121.536 Z M139.15,145.755 L141.787,145.755 L114.638,76 L113.466,76 L113.466,79.287 L139.15,145.755 Z" stroke="none" />
        <path id="Baseline-S" d="M18,146 l800,0" />
        <path id="left-margin-Ultralight-S" d="M220,56 l0,110" />
        <path id="right-margin-Ultralight-S" d="M310,56 l0,110" />
        <path id="left-margin-Regular-S" d="M420,56 l0,110" />
        <path id="right-margin-Regular-S" d="M510,56 l0,110" />
        <path id="left-margin-Black-S" d="M620,56 l0,110" />
        <path id="right-margin-Black-S" d="M710,56 l0,110" />
        <path id="Capline-M" d="M18,276 l800,0" />
        <path id="Baseline-M" d="M18,346 l800,0" />
        <path id="Capline-L" d="M18,476 l800,0" />
        <path id="Baseline-L" d="M18,546 l800,0" />
    </g>
    <g id="Symbols">
        <g id="Ultralight-S">
            <path d="M278.462,78.692 L251.538,78.692 C241.135,78.703 232.703,87.135 232.692,97.538 L232.692,124.462 C232.703,134.865 241.134,143.296 251.538,143.308 L267.692,143.308 C267.981,143.307 268.268,143.261 268.543,143.17 C277.371,140.225 294.224,123.371 297.169,114.544 C297.26,114.269 297.307,113.982 297.308,113.692 L297.308,97.538 C297.297,87.135 288.866,78.704 278.462,78.692 Z M238.077,124.462 L238.077,97.538 C238.077,93.968 239.495,90.544 242.02,88.02 C244.544,85.495 247.968,84.077 251.538,84.077 L278.462,84.077 C282.032,84.077 285.456,85.495 287.98,88.02 C290.505,90.544 291.923,93.968 291.923,97.538 L291.923,111 L283.846,111 C273.442,111.011 265.011,119.442 265,129.846 L265,137.923 L251.538,137.923 C247.968,137.923 244.544,136.505 242.02,133.98 C239.495,131.456 238.077,128.032 238.077,124.462 Z M270.385,136.288 L270.385,129.846 C270.385,126.276 271.803,122.852 274.327,120.327 C276.852,117.803 280.276,116.385 283.846,116.385 L290.288,116.385 C286.202,122.947 276.947,132.202 270.385,136.288 Z" />
        </g>
        <g id="Regular-S">
            <path d="M478.462,78.692 L451.538,78.692 C441.135,78.703 432.703,87.135 432.692,97.538 L432.692,124.462 C432.703,134.865 441.134,143.296 451.538,143.308 L467.692,143.308 C467.981,143.307 468.268,143.261 468.543,143.17 C477.37,140.225 494.224,123.371 497.169,114.544 C497.26,114.269 497.307,113.982 497.308,113.692 L497.308,97.538 C497.297,87.135 488.866,78.704 478.462,78.692 Z M438.077,124.462 L438.077,97.538 C438.077,93.968 439.495,90.544 442.02,88.02 C444.544,85.495 447.968,84.077 451.538,84.077 L478.462,84.077 C482.032,84.077 485.456,85.495 487.98,88.02 C490.505,90.544 491.923,93.968 491.923,97.538 L491.923,111 L483.846,111 C473.442,111.011 465.011,119.442 465,129.846 L465,137.923 L451.538,137.923 C447.968,137.923 444.544,136.505 442.02,133.98 C439.495,131.456 438.077,128.032 438.077,124.462 Z M470.385,136.288 L470.385,129.846 C470.385,126.276 471.803,122.852 474.327,120.327 C476.852,117.803 480.276,116.385 483.846,116.385 L490.287,116.385 C486.202,122.947 476.947,132.202 470.385,136.288 Z" />
        </g>
        <g id="Black-S">
            <path d="M678.462,78.692 L651.538,78.692 C641.135,78.703 632.703,87.135 632.692,97.538 L632.692,124.462 C632.703,134.865 641.134,143.296 651.538,143.308 L667.692,143.308 C667.981,143.307 668.268,143.261 668.543,143.17 C677.371,140.225 694.224,123.371 697.169,114.544 C697.26,114.269 697.307,113.982 697.308,113.692 L697.308,97.538 C697.297,87.135 688.866,78.704 678.462,78.692 Z M638.077,124.462 L638.077,97.538 C638.077,93.968 639.495,90.544 642.02,88.02 C644.544,85.495 647.968,84.077 651.538,84.077 L678.462,84.077 C682.032,84.077 685.456,85.495 687.98,88.02 C690.505,90.544 691.923,93.968 691.923,97.538 L691.923,111 L683.846,111 C673.442,111.011 665.011,119.442 665,129.846 L665,137.923 L651.538,137.923 C647.968,137.923 644.544,136.505 642.02,133.98 C639.495,131.456 638.077,128.032 638.077,124.462 Z M670.385,136.288 L670.385,129.846 C670.385,126.276 671.803,122.852 674.327,120.327 C676.852,117.803 680.276,116.385 683.846,116.385 L690.288,116.385 C686.202,122.947 676.947,132.202 670.385,136.288 Z" />
        </g>
    </g>
</svg>