<?xml version="1.0" encoding="UTF-8"?>
<svg height="600" width="800" xmlns="http://www.w3.org/2000/svg" xmlns:xlink="http://www.w3.org/1999/xlink">
    <g id="Notes" font-family="'LucidaGrande', 'Lucida Grande', sans-serif" font-size="13">
        <rect fill="white" height="600.0" width="800.0" x="0.0" y="0.0" />
        <g font-size="13">
            <text x="18.0" y="176.0">Small</text>
            <text x="18.0" y="376.0">Medium</text>
            <text x="18.0" y="576.0">Large</text>
        </g>
        <g font-size="9">
            <text x="250.0" y="30.0">Ultralight</text>
            <text x="450.0" y="30.0">Regular</text>
            <text x="650.0" y="30.0">Black</text>
            <text id="template-version" fill="#505050" text-anchor="end" x="785.0" y="575.0">Template v.3.0</text>
            <a href="https://github.com/swhitty/SwiftDraw">
                <text fill="#505050" text-anchor="end" x="785.0" y="590.0">https://github.com/swhitty/SwiftDraw</text>
            </a>
        </g>
    </g>
    <g id="Guides" stroke="rgb(39, 170, 225)" stroke-width="0.5">
        <path id="Capline-S" d="M18,76 l800,0" />
        <path id="H-reference" d="M85,145.755 L87.685,145.755 L113.369,79.287 L114.052,79.287 L114.052,76 L112.148,76 L85,145.755 Z M95.693,121.536 L130.996,121.536 L130.263,119.313 L96.474,119.313 L95.693,121.536 Z M139.15,145.755 L141.787,145.755 L114.638,76 L113.466,76 L113.466,79.287 L139.15,145.755 Z" stroke="none" />
        <path id="Baseline-S" d="M18,146 l800,0" />
        <path id="left-margin-Ultralight-S" d="M220,56 l0,110" />
        <path id="right-margin-Ultralight-S" d="M310,56 l0,110" />
        <path id="left-margin-Regular-S" d="M420,56 l0,110" />
        <path id="right-margin-Regular-S" d="M510,56 l0,110" />
        <path id="left-margin-Black-S" d="M620,56 l0,110" />
        <path id="right-margin-Black-S" d="M710,56 l0,110" />
        <path id="Capline-M" d="M18,276 l800,0" />
        <path id="Baseline-M" d="M18,346 l800,0" />
        <path id="Capline-L" d="M18,476 l800,0" />
        <path id="Baseline-L" d="M18,546 l800,0" />
    </g>
    <g id="Symbols">
        <g id="Ultralight-S">
            <path d="M274.258,76.273 C273.335,75.823 272.235,75.937 271.425,76.569 L247.921,94.846 L232.692,94.846 C231.264,94.846 229.895,95.413 228.885,96.423 C227.875,97.433 227.308,98.803 227.308,100.231 L227.308,121.769 C227.308,123.197 227.875,124.567 228.885,125.577 C229.895,126.587 231.264,127.154 232.692,127.154 L247.921,127.154 L271.425,145.431 C272.236,146.062 273.336,146.176 274.259,145.725 C275.183,145.273 275.768,144.336 275.769,143.308 L275.769,78.692 C275.77,77.664 275.183,76.725 274.259,76.273 Z M232.692,100.231 L246.154,100.231 L246.154,121.769 L232.692,121.769 Z M270.385,137.802 L251.538,123.146 L251.538,98.854 L270.385,84.198 Z M291.923,111 C291.926,114.279 290.729,117.446 288.558,119.904 C287.568,120.992 285.889,121.084 284.786,120.112 C283.684,119.139 283.565,117.462 284.52,116.344 C287.206,113.293 287.206,108.72 284.52,105.669 C283.865,104.95 283.649,103.934 283.955,103.011 C284.26,102.089 285.039,101.402 285.992,101.215 C286.946,101.028 287.927,101.369 288.558,102.108 C290.724,104.564 291.92,107.725 291.923,111 Z" />
        </g>
        <g id="Regular-S">
            <path d="M474.258,76.273 C473.334,75.823 472.235,75.937 471.424,76.569 L447.921,94.846 L432.692,94.846 C431.264,94.846 429.895,95.413 428.885,96.423 C427.875,97.433 427.308,98.803 427.308,100.231 L427.308,121.769 C427.308,123.197 427.875,124.567 428.885,125.577 C429.895,126.587 431.264,127.154 432.692,127.154 L447.921,127.154 L471.424,145.431 C472.236,146.062 473.336,146.176 474.259,145.725 C475.183,145.273 475.768,144.336 475.769,143.308 L475.769,78.692 C475.77,77.664 475.183,76.725 474.259,76.273 Z M432.692,100.231 L446.154,100.231 L446.154,121.769 L432.692,121.769 Z M470.385,137.802 L451.538,123.146 L451.538,98.854 L470.385,84.198 Z M491.923,111 C491.926,114.279 490.729,117.446 488.558,119.904 C487.568,120.992 485.889,121.084 484.786,120.112 C483.684,119.139 483.565,117.462 484.52,116.344 C487.206,113.293 487.206,108.72 484.52,105.669 C483.865,104.95 483.649,103.934 483.955,103.011 C484.26,102.089 485.039,101.402 485.992,101.215 C486.946,101.028 487.927,101.369 488.558,102.108 C490.724,104.564 491.92,107.725 491.923,111 Z" />
        </g>
        <g id="Black-S">
            <path d="M674.258,76.273 C673.335,75.823 672.235,75.937 671.425,76.569 L647.921,94.846 L632.692,94.846 C631.264,94.846 629.895,95.413 628.885,96.423 C627.875,97.433 627.308,98.803 627.308,100.231 L627.308,121.769 C627.308,123.197 627.875,124.567 628.885,125.577 C629.895,126.587 631.264,127.154 632.692,127.154 L647.921,127.154 L671.425,145.431 C672.236,146.062 673.336,146.176 674.259,145.725 C675.183,145.273 675.768,144.336 675.769,143.308 L675.769,78.692 C675.77,77.664 675.183,76.725 674.259,76.273 Z M632.692,100.231 L646.154,100.231 L646.154,121.769 L632.692,121.769 Z M670.385,137.802 L651.538,123.146 L651.538,98.854 L670.385,84.198 Z M691.923,111 C691.926,114.279 690.729,117.446 688.558,119.904 C687.568,120.992 685.889,121.084 684.786,120.112 C683.684,119.139 683.565,117.462 684.52,116.344 C687.206,113.293 687.206,108.72 684.52,105.669 C683.865,104.95 683.65,103.934 683.955,103.011 C684.26,102.089 685.039,101.402 685.992,101.215 C686.946,101.028 687.927,101.369 688.558,102.108 C690.724,104.564 691.92,107.725 691.923,111 Z" />
        </g>
    </g>
</svg>