<?xml version="1.0" encoding="UTF-8"?>
<svg height="600" width="800" xmlns="http://www.w3.org/2000/svg" xmlns:xlink="http://www.w3.org/1999/xlink">
    <g id="Notes" font-family="'LucidaGrande', 'Lucida Grande', sans-serif" font-size="13">
        <rect fill="white" height="600.0" width="800.0" x="0.0" y="0.0" />
        <g font-size="13">
            <text x="18.0" y="176.0">Small</text>
            <text x="18.0" y="376.0">Medium</text>
            <text x="18.0" y="576.0">Large</text>
        </g>
        <g font-size="9">
            <text x="250.0" y="30.0">Ultralight</text>
            <text x="450.0" y="30.0">Regular</text>
            <text x="650.0" y="30.0">Black</text>
            <text id="template-version" fill="#505050" text-anchor="end" x="785.0" y="575.0">Template v.3.0</text>
            <a href="https://github.com/swhitty/SwiftDraw">
                <text fill="#505050" text-anchor="end" x="785.0" y="590.0">https://github.com/swhitty/SwiftDraw</text>
            </a>
        </g>
    </g>
    <g id="Guides" stroke="rgb(39, 170, 225)" stroke-width="0.5">
        <path id="Capline-S" d="M18,76 l800,0" />
        <path id="H-reference" d="M85,145.755 L87.685,145.755 L113.369,79.287 L114.052,79.287 L114.052,76 L112.148,76 L85,145.755 Z M95.693,121.536 L130.996,121.536 L130.263,119.313 L96.474,119.313 L95.693,121.536 Z M139.15,145.755 L141.787,145.755 L114.638,76 L113.466,76 L113.466,79.287 L139.15,145.755 Z" stroke="none" />
        <path id="Baseline-S" d="M18,146 l800,0" />
        <path id="left-margin-Ultralight-S" d="M220,56 l0,110" />
        <path id="right-margin-Ultralight-S" d="M310,56 l0,110" />
        <path id="left-margin-Regular-S" d="M420,56 l0,110" />
        <path id="right-margin-Regular-S" d="M510,56 l0,110" />
        <path id="left-margin-Black-S" d="M620,56 l0,110" />
        <path id="right-margin-Black-S" d="M710,56 l0,110" />
        <path id="Capline-M" d="M18,276 l800,0" />
        <path id="Baseline-M" d="M18,346 l800,0" />
        <path id="Capline-L" d="M18,476 l800,0" />
        <path id="Baseline-L" d="M18,546 l800,0" />
    </g>
    <g id="Symbols">
        <g id="Ultralight-S">
            <path d="M283.614,131.192 L291.136,123.674 C292.188,122.62 292.187,120.915 291.135,119.863 C290.082,118.812 288.376,118.813 287.325,119.865 L279.808,127.386 L265.959,113.534 C275.076,112.3 281.681,104.217 281.074,95.037 C280.466,85.857 272.854,78.714 263.654,78.692 L246.154,78.692 C245.44,78.692 244.755,78.976 244.25,79.481 C243.745,79.986 243.462,80.671 243.462,81.385 L243.462,132.538 C243.462,134.025 244.667,135.231 246.154,135.231 C247.641,135.231 248.846,134.025 248.846,132.538 L248.846,113.692 L258.501,113.692 L276.001,131.192 L268.48,138.711 C267.427,139.764 267.428,141.47 268.481,142.521 C269.533,143.573 271.239,143.572 272.29,142.519 L279.808,134.999 L287.326,142.52 C288.376,143.572 290.082,143.573 291.135,142.521 C292.187,141.47 292.188,139.764 291.137,138.712 Z M248.846,84.077 L263.654,84.077 C270.345,84.077 275.769,89.501 275.769,96.192 C275.769,102.883 270.345,108.308 263.654,108.308 L248.846,108.308 Z" />
        </g>
        <g id="Regular-S">
            <path d="M483.614,131.192 L491.136,123.674 C492.188,122.62 492.187,120.915 491.135,119.863 C490.082,118.812 488.376,118.813 487.325,119.865 L479.808,127.386 L465.959,113.534 C475.076,112.3 481.681,104.217 481.074,95.037 C480.466,85.857 472.854,78.714 463.654,78.692 L446.154,78.692 C445.44,78.692 444.755,78.976 444.25,79.481 C443.745,79.986 443.462,80.671 443.462,81.385 L443.462,132.538 C443.462,134.025 444.667,135.231 446.154,135.231 C447.641,135.231 448.846,134.025 448.846,132.538 L448.846,113.692 L458.501,113.692 L476.001,131.192 L468.48,138.711 C467.427,139.764 467.428,141.47 468.481,142.521 C469.533,143.573 471.239,143.572 472.29,142.519 L479.808,134.999 L487.326,142.52 C488.376,143.572 490.082,143.573 491.135,142.521 C492.187,141.47 492.188,139.764 491.137,138.712 Z M448.846,84.077 L463.654,84.077 C470.345,84.077 475.769,89.501 475.769,96.192 C475.769,102.883 470.345,108.308 463.654,108.308 L448.846,108.308 Z" />
        </g>
        <g id="Black-S">
            <path d="M683.614,131.192 L691.136,123.674 C692.188,122.62 692.187,120.915 691.135,119.863 C690.082,118.812 688.376,118.813 687.325,119.865 L679.808,127.386 L665.959,113.534 C675.076,112.3 681.681,104.217 681.074,95.037 C680.466,85.857 672.854,78.714 663.654,78.692 L646.154,78.692 C645.44,78.692 644.755,78.976 644.25,79.481 C643.745,79.986 643.462,80.671 643.462,81.385 L643.462,132.538 C643.462,134.025 644.667,135.231 646.154,135.231 C647.641,135.231 648.846,134.025 648.846,132.538 L648.846,113.692 L658.501,113.692 L676.001,131.192 L668.48,138.711 C667.427,139.764 667.428,141.47 668.481,142.521 C669.533,143.573 671.239,143.572 672.291,142.519 L679.808,134.999 L687.326,142.52 C688.376,143.572 690.082,143.573 691.135,142.521 C692.187,141.47 692.188,139.764 691.137,138.712 Z M648.846,84.077 L663.654,84.077 C670.345,84.077 675.769,89.501 675.769,96.192 C675.769,102.883 670.345,108.308 663.654,108.308 L648.846,108.308 Z" />
        </g>
    </g>
</svg>