<?xml version="1.0" encoding="UTF-8"?>
<svg height="600" width="800" xmlns="http://www.w3.org/2000/svg" xmlns:xlink="http://www.w3.org/1999/xlink">
    <g id="Notes" font-family="'LucidaGrande', 'Lucida Grande', sans-serif" font-size="13">
        <rect fill="white" height="600.0" width="800.0" x="0.0" y="0.0" />
        <g font-size="13">
            <text x="18.0" y="176.0">Small</text>
            <text x="18.0" y="376.0">Medium</text>
            <text x="18.0" y="576.0">Large</text>
        </g>
        <g font-size="9">
            <text x="250.0" y="30.0">Ultralight</text>
            <text x="450.0" y="30.0">Regular</text>
            <text x="650.0" y="30.0">Black</text>
            <text id="template-version" fill="#505050" text-anchor="end" x="785.0" y="575.0">Template v.3.0</text>
            <a href="https://github.com/swhitty/SwiftDraw">
                <text fill="#505050" text-anchor="end" x="785.0" y="590.0">https://github.com/swhitty/SwiftDraw</text>
            </a>
        </g>
    </g>
    <g id="Guides" stroke="rgb(39, 170, 225)" stroke-width="0.5">
        <path id="Capline-S" d="M18,76 l800,0" />
        <path id="H-reference" d="M85,145.755 L87.685,145.755 L113.369,79.287 L114.052,79.287 L114.052,76 L112.148,76 L85,145.755 Z M95.693,121.536 L130.996,121.536 L130.263,119.313 L96.474,119.313 L95.693,121.536 Z M139.15,145.755 L141.787,145.755 L114.638,76 L113.466,76 L113.466,79.287 L139.15,145.755 Z" stroke="none" />
        <path id="Baseline-S" d="M18,146 l800,0" />
        <path id="left-margin-Ultralight-S" d="M220,56 l0,110" />
        <path id="right-margin-Ultralight-S" d="M310,56 l0,110" />
        <path id="left-margin-Regular-S" d="M420,56 l0,110" />
        <path id="right-margin-Regular-S" d="M510,56 l0,110" />
        <path id="left-margin-Black-S" d="M620,56 l0,110" />
        <path id="right-margin-Black-S" d="M710,56 l0,110" />
        <path id="Capline-M" d="M18,276 l800,0" />
        <path id="Baseline-M" d="M18,346 l800,0" />
        <path id="Capline-L" d="M18,476 l800,0" />
        <path id="Baseline-L" d="M18,546 l800,0" />
    </g>
    <g id="Symbols">
        <g id="Ultralight-S">
            <path d="M265,76 C245.67,76 230,91.67 230,111 C230,130.33 245.67,146 265,146 C284.33,146 300,130.33 300,111 C299.979,91.677 284.32,76.02 264.999,76 Z M265,140.615 C248.644,140.615 235.385,127.356 235.385,111 C235.385,94.644 248.644,81.385 265,81.385 C281.356,81.385 294.615,94.644 294.615,111 C294.598,127.347 281.35,140.596 265.001,140.615 Z M248.846,104.269 C248.846,102.039 250.654,100.231 252.885,100.231 C255.115,100.231 256.923,102.039 256.923,104.269 C256.923,106.5 255.115,108.308 252.885,108.308 C251.814,108.308 250.786,107.882 250.029,107.125 C249.272,106.368 248.846,105.34 248.846,104.269 Z M281.154,104.269 C281.154,106.5 279.346,108.308 277.115,108.308 C274.885,108.308 273.077,106.5 273.077,104.269 C273.077,102.039 274.885,100.231 277.115,100.231 C278.186,100.231 279.214,100.656 279.971,101.414 C280.728,102.171 281.154,103.198 281.154,104.269 Z M280.79,125.808 C281.321,126.642 281.351,127.701 280.869,128.564 C280.387,129.428 279.471,129.958 278.482,129.944 C277.493,129.931 276.591,129.376 276.133,128.5 C273.619,124.155 269.668,121.769 265,121.769 C260.332,121.769 256.381,124.159 253.867,128.5 C253.409,129.376 252.507,129.931 251.518,129.944 C250.529,129.958 249.613,129.428 249.131,128.564 C248.649,127.701 248.679,126.642 249.21,125.808 C252.673,119.821 258.427,116.385 265,116.385 C271.573,116.385 277.327,119.817 280.79,125.808 Z" />
        </g>
        <g id="Regular-S">
            <path d="M465,76 C445.67,76 430,91.67 430,111 C430,130.33 445.67,146 465,146 C484.33,146 500,130.33 500,111 C499.979,91.677 484.32,76.02 464.999,76 Z M465,140.615 C448.644,140.615 435.385,127.356 435.385,111 C435.385,94.644 448.644,81.385 465,81.385 C481.356,81.385 494.615,94.644 494.615,111 C494.598,127.347 481.35,140.596 465.001,140.615 Z M448.846,104.269 C448.846,102.039 450.654,100.231 452.885,100.231 C455.115,100.231 456.923,102.039 456.923,104.269 C456.923,106.5 455.115,108.308 452.885,108.308 C451.814,108.308 450.786,107.882 450.029,107.125 C449.272,106.368 448.846,105.34 448.846,104.269 Z M481.154,104.269 C481.154,106.5 479.346,108.308 477.115,108.308 C474.885,108.308 473.077,106.5 473.077,104.269 C473.077,102.039 474.885,100.231 477.115,100.231 C478.186,100.231 479.214,100.656 479.971,101.414 C480.728,102.171 481.154,103.198 481.154,104.269 Z M480.79,125.808 C481.321,126.642 481.351,127.701 480.869,128.564 C480.387,129.428 479.471,129.958 478.482,129.944 C477.493,129.931 476.591,129.376 476.133,128.5 C473.619,124.155 469.668,121.769 465,121.769 C460.332,121.769 456.381,124.159 453.867,128.5 C453.409,129.376 452.507,129.931 451.518,129.944 C450.529,129.958 449.613,129.428 449.131,128.564 C448.649,127.701 448.679,126.642 449.21,125.808 C452.673,119.821 458.427,116.385 465,116.385 C471.573,116.385 477.327,119.817 480.79,125.808 Z" />
        </g>
        <g id="Black-S">
            <path d="M665,76 C645.67,76 630,91.67 630,111 C630,130.33 645.67,146 665,146 C684.33,146 700,130.33 700,111 C699.979,91.677 684.32,76.02 664.999,76 Z M665,140.615 C648.644,140.615 635.385,127.356 635.385,111 C635.385,94.644 648.644,81.385 665,81.385 C681.356,81.385 694.615,94.644 694.615,111 C694.598,127.347 681.35,140.596 665.001,140.615 Z M648.846,104.269 C648.846,102.039 650.654,100.231 652.885,100.231 C655.115,100.231 656.923,102.039 656.923,104.269 C656.923,106.5 655.115,108.308 652.885,108.308 C651.814,108.308 650.786,107.882 650.029,107.125 C649.272,106.368 648.846,105.34 648.846,104.269 Z M681.154,104.269 C681.154,106.5 679.346,108.308 677.115,108.308 C674.885,108.308 673.077,106.5 673.077,104.269 C673.077,102.039 674.885,100.231 677.115,100.231 C678.186,100.231 679.214,100.656 679.971,101.414 C680.728,102.171 681.154,103.198 681.154,104.269 Z M680.79,125.808 C681.321,126.642 681.351,127.701 680.869,128.564 C680.387,129.428 679.471,129.958 678.482,129.944 C677.493,129.931 676.591,129.376 676.133,128.5 C673.619,124.155 669.668,121.769 665,121.769 C660.332,121.769 656.381,124.159 653.867,128.5 C653.409,129.376 652.507,129.931 651.518,129.944 C650.529,129.958 649.613,129.428 649.131,128.564 C648.649,127.701 648.679,126.642 649.21,125.808 C652.673,119.821 658.427,116.385 665,116.385 C671.573,116.385 677.327,119.817 680.79,125.808 Z" />
        </g>
    </g>
</svg>