<?xml version="1.0" encoding="UTF-8"?>
<svg height="600" width="800" xmlns="http://www.w3.org/2000/svg" xmlns:xlink="http://www.w3.org/1999/xlink">
    <g id="Notes" font-family="'LucidaGrande', 'Lucida Grande', sans-serif" font-size="13">
        <rect fill="white" height="600.0" width="800.0" x="0.0" y="0.0" />
        <g font-size="13">
            <text x="18.0" y="176.0">Small</text>
            <text x="18.0" y="376.0">Medium</text>
            <text x="18.0" y="576.0">Large</text>
        </g>
        <g font-size="9">
            <text x="250.0" y="30.0">Ultralight</text>
            <text x="450.0" y="30.0">Regular</text>
            <text x="650.0" y="30.0">Black</text>
            <text id="template-version" fill="#505050" text-anchor="end" x="785.0" y="575.0">Template v.3.0</text>
            <a href="https://github.com/swhitty/SwiftDraw">
                <text fill="#505050" text-anchor="end" x="785.0" y="590.0">https://github.com/swhitty/SwiftDraw</text>
            </a>
        </g>
    </g>
    <g id="Guides" stroke="rgb(39, 170, 225)" stroke-width="0.5">
        <path id="Capline-S" d="M18,76 l800,0" />
        <path id="H-reference" d="M85,145.755 L87.685,145.755 L113.369,79.287 L114.052,79.287 L114.052,76 L112.148,76 L85,145.755 Z M95.693,121.536 L130.996,121.536 L130.263,119.313 L96.474,119.313 L95.693,121.536 Z M139.15,145.755 L141.787,145.755 L114.638,76 L113.466,76 L113.466,79.287 L139.15,145.755 Z" stroke="none" />
        <path id="Baseline-S" d="M18,146 l800,0" />
        <path id="left-margin-Ultralight-S" d="M220,56 l0,110" />
        <path id="right-margin-Ultralight-S" d="M310,56 l0,110" />
        <path id="left-margin-Regular-S" d="M420,56 l0,110" />
        <path id="right-margin-Regular-S" d="M510,56 l0,110" />
        <path id="left-margin-Black-S" d="M620,56 l0,110" />
        <path id="right-margin-Black-S" d="M710,56 l0,110" />
        <path id="Capline-M" d="M18,276 l800,0" />
        <path id="Baseline-M" d="M18,346 l800,0" />
        <path id="Capline-L" d="M18,476 l800,0" />
        <path id="Baseline-L" d="M18,546 l800,0" />
    </g>
    <g id="Symbols">
        <g id="Ultralight-S">
            <path d="M294.615,81.385 L235.385,81.385 C233.957,81.385 232.587,81.952 231.577,82.962 C230.567,83.972 230,85.341 230,86.769 L230,132.538 C230,133.967 230.567,135.336 231.577,136.346 C232.587,137.356 233.957,137.923 235.385,137.923 L240.769,137.923 L240.769,143.308 C240.769,144.795 241.975,146 243.462,146 C244.948,146 246.154,144.795 246.154,143.308 L246.154,137.923 L283.846,137.923 L283.846,143.308 C283.846,144.795 285.052,146 286.538,146 C288.025,146 289.231,144.795 289.231,143.308 L289.231,137.923 L294.615,137.923 C296.043,137.923 297.413,137.356 298.423,136.346 C299.433,135.336 300,133.967 300,132.538 L300,86.769 C300,85.341 299.433,83.972 298.423,82.962 C297.413,81.952 296.043,81.385 294.615,81.385 Z M294.615,132.538 L235.385,132.538 L235.385,86.769 L294.615,86.769 L294.615,108.308 L289.002,108.308 C287.602,100.027 280.092,94.2 271.723,94.903 C263.355,95.605 256.92,102.602 256.92,111 C256.92,119.398 263.355,126.395 271.723,127.097 C280.092,127.8 287.602,121.973 289.002,113.692 L294.615,113.692 L294.615,132.538 Z M277.735,108.308 C276.516,106.197 274.032,105.168 271.678,105.799 C269.324,106.43 267.687,108.563 267.687,111 C267.687,113.437 269.324,115.57 271.678,116.201 C274.032,116.832 276.516,115.803 277.735,113.692 L283.51,113.692 C282.154,118.943 277.105,122.367 271.725,121.683 C266.346,121 262.313,116.423 262.313,111 C262.313,105.577 266.346,101 271.725,100.317 C277.105,99.633 282.154,103.057 283.51,108.308 Z" />
        </g>
        <g id="Regular-S">
            <path d="M494.615,81.385 L435.385,81.385 C433.957,81.385 432.587,81.952 431.577,82.962 C430.567,83.972 430,85.341 430,86.769 L430,132.538 C430,133.967 430.567,135.336 431.577,136.346 C432.587,137.356 433.957,137.923 435.385,137.923 L440.769,137.923 L440.769,143.308 C440.769,144.795 441.975,146 443.462,146 C444.948,146 446.154,144.795 446.154,143.308 L446.154,137.923 L483.846,137.923 L483.846,143.308 C483.846,144.795 485.052,146 486.538,146 C488.025,146 489.231,144.795 489.231,143.308 L489.231,137.923 L494.615,137.923 C496.043,137.923 497.413,137.356 498.423,136.346 C499.433,135.336 500,133.967 500,132.538 L500,86.769 C500,85.341 499.433,83.972 498.423,82.962 C497.413,81.952 496.043,81.385 494.615,81.385 Z M494.615,132.538 L435.385,132.538 L435.385,86.769 L494.615,86.769 L494.615,108.308 L489.002,108.308 C487.602,100.027 480.092,94.2 471.723,94.903 C463.355,95.605 456.92,102.602 456.92,111 C456.92,119.398 463.355,126.395 471.723,127.097 C480.092,127.8 487.602,121.973 489.002,113.692 L494.615,113.692 L494.615,132.538 Z M477.735,108.308 C476.516,106.197 474.032,105.168 471.678,105.799 C469.324,106.43 467.687,108.563 467.687,111 C467.687,113.437 469.324,115.57 471.678,116.201 C474.032,116.832 476.516,115.803 477.735,113.692 L483.51,113.692 C482.154,118.943 477.105,122.367 471.725,121.683 C466.346,121 462.313,116.423 462.313,111 C462.313,105.577 466.346,101 471.725,100.317 C477.105,99.633 482.154,103.057 483.51,108.308 Z" />
        </g>
        <g id="Black-S">
            <path d="M694.615,81.385 L635.385,81.385 C633.957,81.385 632.587,81.952 631.577,82.962 C630.567,83.972 630,85.341 630,86.769 L630,132.538 C630,133.967 630.567,135.336 631.577,136.346 C632.587,137.356 633.957,137.923 635.385,137.923 L640.769,137.923 L640.769,143.308 C640.769,144.795 641.975,146 643.462,146 C644.948,146 646.154,144.795 646.154,143.308 L646.154,137.923 L683.846,137.923 L683.846,143.308 C683.846,144.795 685.052,146 686.538,146 C688.025,146 689.231,144.795 689.231,143.308 L689.231,137.923 L694.615,137.923 C696.044,137.923 697.413,137.356 698.423,136.346 C699.433,135.336 700,133.967 700,132.538 L700,86.769 C700,85.341 699.433,83.972 698.423,82.962 C697.413,81.952 696.044,81.385 694.615,81.385 Z M694.615,132.538 L635.385,132.538 L635.385,86.769 L694.615,86.769 L694.615,108.308 L689.002,108.308 C687.602,100.027 680.092,94.2 671.723,94.903 C663.355,95.605 656.92,102.602 656.92,111 C656.92,119.398 663.355,126.395 671.723,127.097 C680.092,127.8 687.602,121.973 689.002,113.692 L694.615,113.692 L694.615,132.538 Z M677.735,108.308 C676.516,106.197 674.032,105.168 671.678,105.799 C669.324,106.43 667.687,108.563 667.687,111 C667.687,113.437 669.324,115.57 671.678,116.201 C674.032,116.832 676.516,115.803 677.735,113.692 L683.51,113.692 C682.154,118.943 677.105,122.367 671.725,121.683 C666.346,121 662.313,116.423 662.313,111 C662.313,105.577 666.346,101 671.725,100.317 C677.105,99.633 682.154,103.057 683.51,108.308 Z" />
        </g>
    </g>
</svg>