<?xml version="1.0" encoding="UTF-8"?>
<svg height="600" width="800" xmlns="http://www.w3.org/2000/svg" xmlns:xlink="http://www.w3.org/1999/xlink">
    <g id="Notes" font-family="'LucidaGrande', 'Lucida Grande', sans-serif" font-size="13">
        <rect fill="white" height="600.0" width="800.0" x="0.0" y="0.0" />
        <g font-size="13">
            <text x="18.0" y="176.0">Small</text>
            <text x="18.0" y="376.0">Medium</text>
            <text x="18.0" y="576.0">Large</text>
        </g>
        <g font-size="9">
            <text x="250.0" y="30.0">Ultralight</text>
            <text x="450.0" y="30.0">Regular</text>
            <text x="650.0" y="30.0">Black</text>
            <text id="template-version" fill="#505050" text-anchor="end" x="785.0" y="575.0">Template v.3.0</text>
            <a href="https://github.com/swhitty/SwiftDraw">
                <text fill="#505050" text-anchor="end" x="785.0" y="590.0">https://github.com/swhitty/SwiftDraw</text>
            </a>
        </g>
    </g>
    <g id="Guides" stroke="rgb(39, 170, 225)" stroke-width="0.5">
        <path id="Capline-S" d="M18,76 l800,0" />
        <path id="H-reference" d="M85,145.755 L87.685,145.755 L113.369,79.287 L114.052,79.287 L114.052,76 L112.148,76 L85,145.755 Z M95.693,121.536 L130.996,121.536 L130.263,119.313 L96.474,119.313 L95.693,121.536 Z M139.15,145.755 L141.787,145.755 L114.638,76 L113.466,76 L113.466,79.287 L139.15,145.755 Z" stroke="none" />
        <path id="Baseline-S" d="M18,146 l800,0" />
        <path id="left-margin-Ultralight-S" d="M220,56 l0,110" />
        <path id="right-margin-Ultralight-S" d="M310,56 l0,110" />
        <path id="left-margin-Regular-S" d="M420,56 l0,110" />
        <path id="right-margin-Regular-S" d="M510,56 l0,110" />
        <path id="left-margin-Black-S" d="M620,56 l0,110" />
        <path id="right-margin-Black-S" d="M710,56 l0,110" />
        <path id="Capline-M" d="M18,276 l800,0" />
        <path id="Baseline-M" d="M18,346 l800,0" />
        <path id="Capline-L" d="M18,476 l800,0" />
        <path id="Baseline-L" d="M18,546 l800,0" />
    </g>
    <g id="Symbols">
        <g id="Ultralight-S">
            <path d="M304.597,92.941 L293.828,82.172 C292.778,81.121 291.072,81.12 290.019,82.171 C288.967,83.222 288.966,84.928 290.017,85.981 L296.194,92.154 L291.923,92.154 C275.322,92.154 271.377,101.617 267.901,109.963 C264.744,117.539 262.207,123.624 251.249,124.381 C249.825,117.618 243.511,113.033 236.64,113.771 C229.769,114.508 224.572,120.329 224.615,127.24 C224.658,134.15 229.927,139.905 236.807,140.557 C243.687,141.209 249.943,136.545 251.283,129.765 C265.841,128.874 269.57,119.955 272.868,112.033 C276.244,103.933 278.909,97.538 291.923,97.538 L296.194,97.538 L290.018,103.711 C288.966,104.764 288.967,106.47 290.019,107.521 C291.072,108.573 292.778,108.572 293.829,107.519 L304.598,96.75 C305.103,96.245 305.387,95.56 305.387,94.845 C305.387,94.131 305.102,93.446 304.597,92.941 Z M238.077,135.231 C233.616,135.231 230,131.615 230,127.154 C230,122.693 233.616,119.077 238.077,119.077 C242.538,119.077 246.154,122.693 246.154,127.154 C246.154,129.296 245.303,131.35 243.788,132.865 C242.273,134.38 240.219,135.231 238.077,135.231 Z" />
        </g>
        <g id="Regular-S">
            <path d="M504.597,92.941 L493.828,82.172 C492.778,81.121 491.072,81.12 490.019,82.171 C488.967,83.222 488.966,84.928 490.017,85.981 L496.194,92.154 L491.923,92.154 C475.322,92.154 471.377,101.617 467.901,109.963 C464.744,117.539 462.207,123.624 451.249,124.381 C449.825,117.618 443.511,113.033 436.64,113.771 C429.769,114.508 424.572,120.329 424.615,127.24 C424.658,134.15 429.927,139.905 436.807,140.557 C443.687,141.209 449.943,136.545 451.283,129.765 C465.841,128.874 469.57,119.955 472.868,112.033 C476.244,103.933 478.909,97.538 491.923,97.538 L496.194,97.538 L490.018,103.711 C488.966,104.764 488.967,106.47 490.019,107.521 C491.072,108.573 492.778,108.572 493.829,107.519 L504.598,96.75 C505.103,96.245 505.387,95.56 505.387,94.845 C505.387,94.131 505.102,93.446 504.597,92.941 Z M438.077,135.231 C433.616,135.231 430,131.615 430,127.154 C430,122.693 433.616,119.077 438.077,119.077 C442.538,119.077 446.154,122.693 446.154,127.154 C446.154,129.296 445.303,131.35 443.788,132.865 C442.273,134.38 440.219,135.231 438.077,135.231 Z" />
        </g>
        <g id="Black-S">
            <path d="M704.597,92.941 L693.828,82.172 C692.778,81.121 691.072,81.12 690.019,82.171 C688.967,83.222 688.966,84.928 690.017,85.981 L696.194,92.154 L691.923,92.154 C675.322,92.154 671.377,101.617 667.901,109.963 C664.744,117.539 662.207,123.624 651.249,124.381 C649.825,117.618 643.511,113.033 636.64,113.771 C629.769,114.508 624.572,120.329 624.615,127.24 C624.659,134.15 629.927,139.905 636.807,140.557 C643.687,141.209 649.943,136.545 651.283,129.765 C665.841,128.874 669.57,119.955 672.868,112.033 C676.244,103.933 678.909,97.538 691.923,97.538 L696.194,97.538 L690.018,103.711 C688.966,104.764 688.967,106.47 690.019,107.521 C691.072,108.573 692.778,108.572 693.829,107.519 L704.598,96.75 C705.103,96.245 705.387,95.56 705.387,94.845 C705.387,94.131 705.103,93.446 704.597,92.941 Z M638.077,135.231 C633.616,135.231 630,131.615 630,127.154 C630,122.693 633.616,119.077 638.077,119.077 C642.538,119.077 646.154,122.693 646.154,127.154 C646.154,129.296 645.303,131.35 643.788,132.865 C642.273,134.38 640.219,135.231 638.077,135.231 Z" />
        </g>
    </g>
</svg>