<?xml version="1.0" encoding="UTF-8"?>
<svg height="600" width="800" xmlns="http://www.w3.org/2000/svg" xmlns:xlink="http://www.w3.org/1999/xlink">
    <g id="Notes" font-family="'LucidaGrande', 'Lucida Grande', sans-serif" font-size="13">
        <rect fill="white" height="600.0" width="800.0" x="0.0" y="0.0" />
        <g font-size="13">
            <text x="18.0" y="176.0">Small</text>
            <text x="18.0" y="376.0">Medium</text>
            <text x="18.0" y="576.0">Large</text>
        </g>
        <g font-size="9">
            <text x="250.0" y="30.0">Ultralight</text>
            <text x="450.0" y="30.0">Regular</text>
            <text x="650.0" y="30.0">Black</text>
            <text id="template-version" fill="#505050" text-anchor="end" x="785.0" y="575.0">Template v.3.0</text>
            <a href="https://github.com/swhitty/SwiftDraw">
                <text fill="#505050" text-anchor="end" x="785.0" y="590.0">https://github.com/swhitty/SwiftDraw</text>
            </a>
        </g>
    </g>
    <g id="Guides" stroke="rgb(39, 170, 225)" stroke-width="0.5">
        <path id="Capline-S" d="M18,76 l800,0" />
        <path id="H-reference" d="M85,145.755 L87.685,145.755 L113.369,79.287 L114.052,79.287 L114.052,76 L112.148,76 L85,145.755 Z M95.693,121.536 L130.996,121.536 L130.263,119.313 L96.474,119.313 L95.693,121.536 Z M139.15,145.755 L141.787,145.755 L114.638,76 L113.466,76 L113.466,79.287 L139.15,145.755 Z" stroke="none" />
        <path id="Baseline-S" d="M18,146 l800,0" />
        <path id="left-margin-Ultralight-S" d="M220,56 l0,110" />
        <path id="right-margin-Ultralight-S" d="M310,56 l0,110" />
        <path id="left-margin-Regular-S" d="M420,56 l0,110" />
        <path id="right-margin-Regular-S" d="M510,56 l0,110" />
        <path id="left-margin-Black-S" d="M620,56 l0,110" />
        <path id="right-margin-Black-S" d="M710,56 l0,110" />
        <path id="Capline-M" d="M18,276 l800,0" />
        <path id="Baseline-M" d="M18,346 l800,0" />
        <path id="Capline-L" d="M18,476 l800,0" />
        <path id="Baseline-L" d="M18,546 l800,0" />
    </g>
    <g id="Symbols">
        <g id="Ultralight-S">
            <path d="M305.385,135.231 L302.692,135.231 C301.978,135.231 301.293,134.947 300.789,134.442 C300.284,133.937 300,133.253 300,132.538 L300,121.769 C300,121.055 300.284,120.37 300.789,119.865 C301.293,119.361 301.978,119.077 302.692,119.077 L305.385,119.077 C306.872,119.077 308.077,117.872 308.077,116.385 C308.077,114.898 306.872,113.692 305.385,113.692 L302.692,113.692 C300.55,113.692 298.496,114.543 296.981,116.058 C295.466,117.573 294.615,119.627 294.615,121.769 L294.615,124.462 L288.962,124.462 C287.81,118.873 283.267,114.614 277.617,113.824 L265.485,84.7 C264.649,82.692 262.688,81.385 260.514,81.385 L230,81.385 C228.572,81.385 227.202,81.952 226.193,82.962 C225.183,83.972 224.615,85.341 224.615,86.769 L224.615,119.077 C221.556,123.156 221.064,128.613 223.344,133.174 C225.625,137.735 230.286,140.615 235.385,140.615 L275.769,140.615 C282.164,140.608 287.674,136.11 288.962,129.846 L294.615,129.846 L294.615,132.538 C294.615,134.681 295.466,136.735 296.981,138.25 C298.496,139.764 300.55,140.615 302.692,140.615 L305.385,140.615 C306.872,140.615 308.077,139.41 308.077,137.923 C308.077,136.436 306.872,135.231 305.385,135.231 Z M271.731,113.692 L243.462,113.692 L243.462,86.769 L260.514,86.769 Z M238.077,86.769 L238.077,113.692 L235.385,113.692 C233.531,113.691 231.697,114.075 230,114.82 L230,86.769 Z M275.769,135.231 L235.385,135.231 C230.924,135.231 227.308,131.615 227.308,127.154 C227.308,122.693 230.924,119.077 235.385,119.077 L275.769,119.077 C280.23,119.077 283.846,122.693 283.846,127.154 C283.846,131.615 280.23,135.231 275.769,135.231 Z M278.462,127.154 C278.462,127.868 278.178,128.553 277.673,129.058 C277.168,129.562 276.483,129.846 275.769,129.846 L235.385,129.846 C233.898,129.846 232.692,128.641 232.692,127.154 C232.692,125.667 233.898,124.462 235.385,124.462 L275.769,124.462 C276.483,124.462 277.168,124.745 277.673,125.25 C278.178,125.755 278.462,126.44 278.462,127.154 Z" />
        </g>
        <g id="Regular-S">
            <path d="M505.385,135.231 L502.692,135.231 C501.978,135.231 501.293,134.947 500.789,134.442 C500.284,133.937 500,133.253 500,132.538 L500,121.769 C500,121.055 500.284,120.37 500.789,119.865 C501.293,119.361 501.978,119.077 502.692,119.077 L505.385,119.077 C506.872,119.077 508.077,117.872 508.077,116.385 C508.077,114.898 506.872,113.692 505.385,113.692 L502.692,113.692 C500.55,113.692 498.496,114.543 496.981,116.058 C495.466,117.573 494.615,119.627 494.615,121.769 L494.615,124.462 L488.962,124.462 C487.81,118.873 483.267,114.614 477.617,113.824 L465.485,84.7 C464.649,82.692 462.688,81.385 460.514,81.385 L430,81.385 C428.572,81.385 427.202,81.952 426.193,82.962 C425.183,83.972 424.615,85.341 424.615,86.769 L424.615,119.077 C421.556,123.156 421.064,128.613 423.344,133.174 C425.625,137.735 430.286,140.615 435.385,140.615 L475.769,140.615 C482.164,140.608 487.674,136.11 488.962,129.846 L494.615,129.846 L494.615,132.538 C494.615,134.681 495.466,136.735 496.981,138.25 C498.496,139.764 500.55,140.615 502.692,140.615 L505.385,140.615 C506.872,140.615 508.077,139.41 508.077,137.923 C508.077,136.436 506.872,135.231 505.385,135.231 Z M471.731,113.692 L443.462,113.692 L443.462,86.769 L460.514,86.769 Z M438.077,86.769 L438.077,113.692 L435.385,113.692 C433.531,113.691 431.697,114.075 430,114.82 L430,86.769 Z M475.769,135.231 L435.385,135.231 C430.924,135.231 427.308,131.615 427.308,127.154 C427.308,122.693 430.924,119.077 435.385,119.077 L475.769,119.077 C480.23,119.077 483.846,122.693 483.846,127.154 C483.846,131.615 480.23,135.231 475.769,135.231 Z M478.462,127.154 C478.462,127.868 478.178,128.553 477.673,129.058 C477.168,129.562 476.483,129.846 475.769,129.846 L435.385,129.846 C433.898,129.846 432.692,128.641 432.692,127.154 C432.692,125.667 433.898,124.462 435.385,124.462 L475.769,124.462 C476.483,124.462 477.168,124.745 477.673,125.25 C478.178,125.755 478.462,126.44 478.462,127.154 Z" />
        </g>
        <g id="Black-S">
            <path d="M705.385,135.231 L702.692,135.231 C701.978,135.231 701.293,134.947 700.789,134.442 C700.284,133.937 700,133.253 700,132.538 L700,121.769 C700,121.055 700.284,120.37 700.789,119.865 C701.293,119.361 701.978,119.077 702.692,119.077 L705.385,119.077 C706.872,119.077 708.077,117.872 708.077,116.385 C708.077,114.898 706.872,113.692 705.385,113.692 L702.692,113.692 C700.55,113.692 698.496,114.543 696.981,116.058 C695.466,117.573 694.615,119.627 694.615,121.769 L694.615,124.462 L688.962,124.462 C687.81,118.873 683.267,114.614 677.617,113.824 L665.485,84.7 C664.649,82.692 662.688,81.385 660.514,81.385 L630,81.385 C628.572,81.385 627.202,81.952 626.193,82.962 C625.183,83.972 624.615,85.341 624.615,86.769 L624.615,119.077 C621.556,123.156 621.064,128.613 623.344,133.174 C625.625,137.735 630.286,140.615 635.385,140.615 L675.769,140.615 C682.164,140.608 687.674,136.11 688.962,129.846 L694.615,129.846 L694.615,132.538 C694.615,134.681 695.466,136.735 696.981,138.25 C698.496,139.764 700.55,140.615 702.692,140.615 L705.385,140.615 C706.872,140.615 708.077,139.41 708.077,137.923 C708.077,136.436 706.872,135.231 705.385,135.231 Z M671.731,113.692 L643.462,113.692 L643.462,86.769 L660.514,86.769 Z M638.077,86.769 L638.077,113.692 L635.385,113.692 C633.531,113.691 631.697,114.075 630,114.82 L630,86.769 Z M675.769,135.231 L635.385,135.231 C630.924,135.231 627.308,131.615 627.308,127.154 C627.308,122.693 630.924,119.077 635.385,119.077 L675.769,119.077 C680.23,119.077 683.846,122.693 683.846,127.154 C683.846,131.615 680.23,135.231 675.769,135.231 Z M678.462,127.154 C678.462,127.868 678.178,128.553 677.673,129.058 C677.168,129.562 676.483,129.846 675.769,129.846 L635.385,129.846 C633.898,129.846 632.692,128.641 632.692,127.154 C632.692,125.667 633.898,124.462 635.385,124.462 L675.769,124.462 C676.483,124.462 677.168,124.745 677.673,125.25 C678.178,125.755 678.462,126.44 678.462,127.154 Z" />
        </g>
    </g>
</svg>