<?xml version="1.0" encoding="UTF-8"?>
<svg height="600" width="800" xmlns="http://www.w3.org/2000/svg" xmlns:xlink="http://www.w3.org/1999/xlink">
    <g id="Notes" font-family="'LucidaGrande', 'Lucida Grande', sans-serif" font-size="13">
        <rect fill="white" height="600.0" width="800.0" x="0.0" y="0.0" />
        <g font-size="13">
            <text x="18.0" y="176.0">Small</text>
            <text x="18.0" y="376.0">Medium</text>
            <text x="18.0" y="576.0">Large</text>
        </g>
        <g font-size="9">
            <text x="250.0" y="30.0">Ultralight</text>
            <text x="450.0" y="30.0">Regular</text>
            <text x="650.0" y="30.0">Black</text>
            <text id="template-version" fill="#505050" text-anchor="end" x="785.0" y="575.0">Template v.3.0</text>
            <a href="https://github.com/swhitty/SwiftDraw">
                <text fill="#505050" text-anchor="end" x="785.0" y="590.0">https://github.com/swhitty/SwiftDraw</text>
            </a>
        </g>
    </g>
    <g id="Guides" stroke="rgb(39, 170, 225)" stroke-width="0.5">
        <path id="Capline-S" d="M18,76 l800,0" />
        <path id="H-reference" d="M85,145.755 L87.685,145.755 L113.369,79.287 L114.052,79.287 L114.052,76 L112.148,76 L85,145.755 Z M95.693,121.536 L130.996,121.536 L130.263,119.313 L96.474,119.313 L95.693,121.536 Z M139.15,145.755 L141.787,145.755 L114.638,76 L113.466,76 L113.466,79.287 L139.15,145.755 Z" stroke="none" />
        <path id="Baseline-S" d="M18,146 l800,0" />
        <path id="left-margin-Ultralight-S" d="M220,56 l0,110" />
        <path id="right-margin-Ultralight-S" d="M310,56 l0,110" />
        <path id="left-margin-Regular-S" d="M420,56 l0,110" />
        <path id="right-margin-Regular-S" d="M510,56 l0,110" />
        <path id="left-margin-Black-S" d="M620,56 l0,110" />
        <path id="right-margin-Black-S" d="M710,56 l0,110" />
        <path id="Capline-M" d="M18,276 l800,0" />
        <path id="Baseline-M" d="M18,346 l800,0" />
        <path id="Capline-L" d="M18,476 l800,0" />
        <path id="Baseline-L" d="M18,546 l800,0" />
    </g>
    <g id="Symbols">
        <g id="Ultralight-S">
            <path d="M305.385,99.113 C305.389,97.685 304.821,96.314 303.806,95.307 L280.693,72.19 C279.683,71.18 278.313,70.613 276.885,70.613 C275.457,70.613 274.087,71.18 273.077,72.19 L263.509,81.758 L243.99,89.085 C242.185,89.758 240.874,91.341 240.55,93.241 L232.729,140.171 C232.599,140.952 232.818,141.751 233.33,142.355 C233.841,142.959 234.593,143.308 235.385,143.308 C235.533,143.307 235.682,143.295 235.829,143.271 L282.756,135.45 C284.653,135.133 286.237,133.828 286.912,132.027 L294.238,112.508 L303.806,102.923 C304.821,101.916 305.39,100.543 305.385,99.113 Z M281.871,130.139 L243.233,136.577 L259.175,120.635 C263.29,122.859 268.415,121.727 271.211,117.976 C274.006,114.225 273.626,108.99 270.318,105.682 C267.01,102.374 261.775,101.994 258.024,104.79 C254.273,107.585 253.141,112.71 255.365,116.825 L239.423,132.774 L245.861,94.126 L264.327,87.203 L288.793,111.673 Z M259.615,112.346 C259.615,110.116 261.423,108.308 263.654,108.308 C265.884,108.308 267.692,110.116 267.692,112.346 C267.692,114.577 265.884,116.385 263.654,116.385 C262.583,116.385 261.556,115.959 260.798,115.202 C260.041,114.444 259.615,113.417 259.615,112.346 Z M291.923,107.19 L268.806,84.077 L276.883,76 L300,99.113 Z" />
        </g>
        <g id="Regular-S">
            <path d="M505.385,99.113 C505.389,97.685 504.821,96.314 503.806,95.307 L480.693,72.19 C479.683,71.18 478.313,70.613 476.885,70.613 C475.457,70.613 474.087,71.18 473.077,72.19 L463.509,81.758 L443.99,89.085 C442.185,89.758 440.874,91.341 440.55,93.241 L432.729,140.171 C432.599,140.952 432.818,141.751 433.33,142.355 C433.841,142.959 434.593,143.308 435.385,143.308 C435.533,143.307 435.682,143.295 435.829,143.271 L482.756,135.45 C484.653,135.133 486.237,133.828 486.912,132.027 L494.238,112.508 L503.806,102.923 C504.821,101.916 505.39,100.543 505.385,99.113 Z M481.871,130.139 L443.233,136.577 L459.174,120.635 C463.29,122.859 468.415,121.727 471.21,117.976 C474.006,114.225 473.626,108.99 470.318,105.682 C467.01,102.374 461.775,101.994 458.024,104.79 C454.273,107.585 453.141,112.71 455.365,116.825 L439.423,132.774 L445.861,94.126 L464.327,87.203 L488.793,111.673 Z M459.615,112.346 C459.615,110.116 461.423,108.308 463.654,108.308 C465.884,108.308 467.692,110.116 467.692,112.346 C467.692,114.577 465.884,116.385 463.654,116.385 C462.583,116.385 461.556,115.959 460.798,115.202 C460.041,114.444 459.615,113.417 459.615,112.346 Z M491.923,107.19 L468.806,84.077 L476.883,76 L500,99.113 Z" />
        </g>
        <g id="Black-S">
            <path d="M705.385,99.113 C705.389,97.685 704.821,96.314 703.806,95.307 L680.693,72.19 C679.683,71.18 678.313,70.613 676.885,70.613 C675.457,70.613 674.087,71.18 673.077,72.19 L663.509,81.758 L643.99,89.085 C642.185,89.758 640.874,91.341 640.55,93.241 L632.729,140.171 C632.599,140.952 632.818,141.751 633.33,142.355 C633.841,142.959 634.593,143.308 635.385,143.308 C635.533,143.307 635.682,143.295 635.829,143.271 L682.756,135.45 C684.653,135.133 686.237,133.828 686.912,132.027 L694.238,112.508 L703.806,102.923 C704.821,101.916 705.39,100.543 705.385,99.113 Z M681.871,130.139 L643.233,136.577 L659.175,120.635 C663.29,122.859 668.415,121.727 671.211,117.976 C674.006,114.225 673.626,108.99 670.318,105.682 C667.01,102.374 661.775,101.994 658.024,104.79 C654.273,107.585 653.141,112.71 655.365,116.825 L639.423,132.774 L645.861,94.126 L664.327,87.203 L688.793,111.673 Z M659.615,112.346 C659.615,110.116 661.423,108.308 663.654,108.308 C665.884,108.308 667.692,110.116 667.692,112.346 C667.692,114.577 665.884,116.385 663.654,116.385 C662.583,116.385 661.556,115.959 660.798,115.202 C660.041,114.444 659.615,113.417 659.615,112.346 Z M691.923,107.19 L668.806,84.077 L676.883,76 L700,99.113 Z" />
        </g>
    </g>
</svg>