<?xml version="1.0" encoding="UTF-8"?>
<svg height="600" width="800" xmlns="http://www.w3.org/2000/svg" xmlns:xlink="http://www.w3.org/1999/xlink">
    <g id="Notes" font-family="'LucidaGrande', 'Lucida Grande', sans-serif" font-size="13">
        <rect fill="white" height="600.0" width="800.0" x="0.0" y="0.0" />
        <g font-size="13">
            <text x="18.0" y="176.0">Small</text>
            <text x="18.0" y="376.0">Medium</text>
            <text x="18.0" y="576.0">Large</text>
        </g>
        <g font-size="9">
            <text x="250.0" y="30.0">Ultralight</text>
            <text x="450.0" y="30.0">Regular</text>
            <text x="650.0" y="30.0">Black</text>
            <text id="template-version" fill="#505050" text-anchor="end" x="785.0" y="575.0">Template v.3.0</text>
            <a href="https://github.com/swhitty/SwiftDraw">
                <text fill="#505050" text-anchor="end" x="785.0" y="590.0">https://github.com/swhitty/SwiftDraw</text>
            </a>
        </g>
    </g>
    <g id="Guides" stroke="rgb(39, 170, 225)" stroke-width="0.5">
        <path id="Capline-S" d="M18,76 l800,0" />
        <path id="H-reference" d="M85,145.755 L87.685,145.755 L113.369,79.287 L114.052,79.287 L114.052,76 L112.148,76 L85,145.755 Z M95.693,121.536 L130.996,121.536 L130.263,119.313 L96.474,119.313 L95.693,121.536 Z M139.15,145.755 L141.787,145.755 L114.638,76 L113.466,76 L113.466,79.287 L139.15,145.755 Z" stroke="none" />
        <path id="Baseline-S" d="M18,146 l800,0" />
        <path id="left-margin-Ultralight-S" d="M220,56 l0,110" />
        <path id="right-margin-Ultralight-S" d="M310,56 l0,110" />
        <path id="left-margin-Regular-S" d="M420,56 l0,110" />
        <path id="right-margin-Regular-S" d="M510,56 l0,110" />
        <path id="left-margin-Black-S" d="M620,56 l0,110" />
        <path id="right-margin-Black-S" d="M710,56 l0,110" />
        <path id="Capline-M" d="M18,276 l800,0" />
        <path id="Baseline-M" d="M18,346 l800,0" />
        <path id="Capline-L" d="M18,476 l800,0" />
        <path id="Baseline-L" d="M18,546 l800,0" />
    </g>
    <g id="Symbols">
        <g id="Ultralight-S">
            <path d="M299.212,131.751 L288.443,142.52 C287.938,143.026 287.253,143.31 286.538,143.31 C285.824,143.31 285.139,143.026 284.634,142.52 L273.864,131.751 C272.812,130.697 272.813,128.992 273.865,127.94 C274.918,126.889 276.624,126.89 277.675,127.942 L283.846,134.117 L283.846,114.806 L265,95.96 L246.154,114.806 L246.154,134.117 L252.326,127.941 C253.376,126.89 255.082,126.889 256.135,127.94 C257.187,128.992 257.188,130.697 256.137,131.75 L245.367,142.519 C244.862,143.025 244.177,143.309 243.463,143.309 C242.748,143.309 242.063,143.025 241.558,142.519 L230.789,131.75 C229.736,130.696 229.737,128.991 230.79,127.939 C231.842,126.888 233.548,126.889 234.599,127.941 L240.769,134.117 L240.769,113.692 C240.769,112.978 241.052,112.293 241.557,111.787 L262.308,91.04 L262.308,76 C262.308,74.513 263.513,73.308 265,73.308 C266.487,73.308 267.692,74.513 267.692,76 L267.692,91.04 L288.443,111.788 C288.948,112.293 289.231,112.978 289.231,113.692 L289.231,134.117 L295.403,127.941 C296.453,126.89 298.159,126.889 299.211,127.94 C300.264,128.992 300.265,130.697 299.214,131.75 Z" />
        </g>
        <g id="Regular-S">
            <path d="M499.212,131.751 L488.443,142.52 C487.938,143.026 487.253,143.31 486.538,143.31 C485.824,143.31 485.139,143.026 484.634,142.52 L473.864,131.751 C472.812,130.697 472.813,128.992 473.865,127.94 C474.918,126.889 476.624,126.89 477.675,127.942 L483.846,134.117 L483.846,114.806 L465,95.96 L446.154,114.806 L446.154,134.117 L452.326,127.941 C453.376,126.89 455.082,126.889 456.135,127.94 C457.187,128.992 457.188,130.697 456.137,131.75 L445.367,142.519 C444.862,143.025 444.177,143.309 443.463,143.309 C442.748,143.309 442.063,143.025 441.558,142.519 L430.789,131.75 C429.736,130.696 429.737,128.991 430.79,127.939 C431.842,126.888 433.548,126.889 434.599,127.941 L440.769,134.117 L440.769,113.692 C440.769,112.978 441.052,112.293 441.557,111.787 L462.308,91.04 L462.308,76 C462.308,74.513 463.513,73.308 465,73.308 C466.487,73.308 467.692,74.513 467.692,76 L467.692,91.04 L488.443,111.788 C488.948,112.293 489.231,112.978 489.231,113.692 L489.231,134.117 L495.403,127.941 C496.453,126.89 498.159,126.889 499.211,127.94 C500.264,128.992 500.265,130.697 499.214,131.75 Z" />
        </g>
        <g id="Black-S">
            <path d="M699.213,131.751 L688.443,142.52 C687.938,143.026 687.253,143.31 686.538,143.31 C685.824,143.31 685.139,143.026 684.634,142.52 L673.864,131.751 C672.812,130.697 672.813,128.992 673.865,127.94 C674.918,126.889 676.624,126.89 677.675,127.942 L683.846,134.117 L683.846,114.806 L665,95.96 L646.154,114.806 L646.154,134.117 L652.326,127.941 C653.376,126.89 655.082,126.889 656.135,127.94 C657.187,128.992 657.188,130.697 656.137,131.75 L645.367,142.519 C644.862,143.025 644.177,143.309 643.463,143.309 C642.748,143.309 642.063,143.025 641.558,142.519 L630.789,131.75 C629.736,130.696 629.737,128.991 630.79,127.939 C631.842,126.888 633.548,126.889 634.599,127.941 L640.769,134.117 L640.769,113.692 C640.769,112.978 641.052,112.293 641.557,111.787 L662.308,91.04 L662.308,76 C662.308,74.513 663.513,73.308 665,73.308 C666.487,73.308 667.692,74.513 667.692,76 L667.692,91.04 L688.443,111.788 C688.948,112.293 689.231,112.978 689.231,113.692 L689.231,134.117 L695.403,127.941 C696.453,126.89 698.159,126.889 699.211,127.94 C700.264,128.992 700.265,130.697 699.214,131.75 Z" />
        </g>
    </g>
</svg>