<?xml version="1.0" encoding="UTF-8"?>
<svg height="600" width="800" xmlns="http://www.w3.org/2000/svg" xmlns:xlink="http://www.w3.org/1999/xlink">
    <g id="Notes" font-family="'LucidaGrande', 'Lucida Grande', sans-serif" font-size="13">
        <rect fill="white" height="600.0" width="800.0" x="0.0" y="0.0" />
        <g font-size="13">
            <text x="18.0" y="176.0">Small</text>
            <text x="18.0" y="376.0">Medium</text>
            <text x="18.0" y="576.0">Large</text>
        </g>
        <g font-size="9">
            <text x="250.0" y="30.0">Ultralight</text>
            <text x="450.0" y="30.0">Regular</text>
            <text x="650.0" y="30.0">Black</text>
            <text id="template-version" fill="#505050" text-anchor="end" x="785.0" y="575.0">Template v.3.0</text>
            <a href="https://github.com/swhitty/SwiftDraw">
                <text fill="#505050" text-anchor="end" x="785.0" y="590.0">https://github.com/swhitty/SwiftDraw</text>
            </a>
        </g>
    </g>
    <g id="Guides" stroke="rgb(39, 170, 225)" stroke-width="0.5">
        <path id="Capline-S" d="M18,76 l800,0" />
        <path id="H-reference" d="M85,145.755 L87.685,145.755 L113.369,79.287 L114.052,79.287 L114.052,76 L112.148,76 L85,145.755 Z M95.693,121.536 L130.996,121.536 L130.263,119.313 L96.474,119.313 L95.693,121.536 Z M139.15,145.755 L141.787,145.755 L114.638,76 L113.466,76 L113.466,79.287 L139.15,145.755 Z" stroke="none" />
        <path id="Baseline-S" d="M18,146 l800,0" />
        <path id="left-margin-Ultralight-S" d="M220,56 l0,110" />
        <path id="right-margin-Ultralight-S" d="M310,56 l0,110" />
        <path id="left-margin-Regular-S" d="M420,56 l0,110" />
        <path id="right-margin-Regular-S" d="M510,56 l0,110" />
        <path id="left-margin-Black-S" d="M620,56 l0,110" />
        <path id="right-margin-Black-S" d="M710,56 l0,110" />
        <path id="Capline-M" d="M18,276 l800,0" />
        <path id="Baseline-M" d="M18,346 l800,0" />
        <path id="Capline-L" d="M18,476 l800,0" />
        <path id="Baseline-L" d="M18,546 l800,0" />
    </g>
    <g id="Symbols">
        <g id="Ultralight-S">
            <path d="M300,89.462 C299.997,83.866 295.709,79.205 290.133,78.736 C284.557,78.267 279.551,82.146 278.614,87.663 C277.676,93.18 281.12,98.495 286.538,99.894 L286.538,105.615 C286.538,106.329 286.255,107.014 285.75,107.519 C285.245,108.024 284.56,108.308 283.846,108.308 L254.231,108.308 C253.313,108.307 252.403,108.464 251.538,108.772 L251.538,99.894 C256.789,98.538 260.213,93.49 259.53,88.11 C258.846,82.73 254.269,78.698 248.846,78.698 C243.423,78.698 238.846,82.73 238.163,88.11 C237.479,93.49 240.903,98.538 246.154,99.894 L246.154,122.106 C240.903,123.462 237.479,128.51 238.163,133.89 C238.846,139.27 243.423,143.302 248.846,143.302 C254.269,143.302 258.846,139.27 259.53,133.89 C260.213,128.51 256.789,123.462 251.538,122.106 L251.538,116.385 C251.538,115.671 251.822,114.986 252.327,114.481 C252.832,113.976 253.517,113.692 254.231,113.692 L283.846,113.692 C285.988,113.692 288.043,112.841 289.557,111.327 C291.072,109.812 291.923,107.758 291.923,105.615 L291.923,99.894 C296.676,98.66 299.995,94.372 300,89.462 Z M243.462,89.462 C243.462,86.488 245.872,84.077 248.846,84.077 C251.82,84.077 254.231,86.488 254.231,89.462 C254.231,92.435 251.82,94.846 248.846,94.846 C247.418,94.846 246.048,94.279 245.039,93.269 C244.029,92.259 243.462,90.89 243.462,89.462 Z M254.231,132.538 C254.231,135.512 251.82,137.923 248.846,137.923 C245.872,137.923 243.462,135.512 243.462,132.538 C243.462,129.565 245.872,127.154 248.846,127.154 C250.274,127.154 251.644,127.721 252.654,128.731 C253.663,129.741 254.231,131.11 254.231,132.538 Z M289.231,94.846 C286.257,94.846 283.846,92.435 283.846,89.462 C283.846,86.488 286.257,84.077 289.231,84.077 C292.205,84.077 294.615,86.488 294.615,89.462 C294.615,90.89 294.048,92.259 293.038,93.269 C292.028,94.279 290.659,94.846 289.231,94.846 Z" />
        </g>
        <g id="Regular-S">
            <path d="M500,89.462 C499.997,83.866 495.709,79.205 490.133,78.736 C484.557,78.267 479.551,82.146 478.614,87.663 C477.676,93.18 481.12,98.495 486.538,99.894 L486.538,105.615 C486.538,106.329 486.255,107.014 485.75,107.519 C485.245,108.024 484.56,108.308 483.846,108.308 L454.231,108.308 C453.313,108.307 452.403,108.464 451.538,108.772 L451.538,99.894 C456.789,98.538 460.213,93.49 459.53,88.11 C458.846,82.73 454.269,78.698 448.846,78.698 C443.423,78.698 438.846,82.73 438.163,88.11 C437.479,93.49 440.903,98.538 446.154,99.894 L446.154,122.106 C440.903,123.462 437.479,128.51 438.163,133.89 C438.846,139.27 443.423,143.302 448.846,143.302 C454.269,143.302 458.846,139.27 459.53,133.89 C460.213,128.51 456.789,123.462 451.538,122.106 L451.538,116.385 C451.538,115.671 451.822,114.986 452.327,114.481 C452.832,113.976 453.517,113.692 454.231,113.692 L483.846,113.692 C485.988,113.692 488.043,112.841 489.557,111.327 C491.072,109.812 491.923,107.758 491.923,105.615 L491.923,99.894 C496.676,98.66 499.995,94.372 500,89.462 Z M443.462,89.462 C443.462,86.488 445.872,84.077 448.846,84.077 C451.82,84.077 454.231,86.488 454.231,89.462 C454.231,92.435 451.82,94.846 448.846,94.846 C447.418,94.846 446.048,94.279 445.039,93.269 C444.029,92.259 443.462,90.89 443.462,89.462 Z M454.231,132.538 C454.231,135.512 451.82,137.923 448.846,137.923 C445.872,137.923 443.462,135.512 443.462,132.538 C443.462,129.565 445.872,127.154 448.846,127.154 C450.274,127.154 451.644,127.721 452.654,128.731 C453.663,129.741 454.231,131.11 454.231,132.538 Z M489.231,94.846 C486.257,94.846 483.846,92.435 483.846,89.462 C483.846,86.488 486.257,84.077 489.231,84.077 C492.205,84.077 494.615,86.488 494.615,89.462 C494.615,90.89 494.048,92.259 493.038,93.269 C492.028,94.279 490.659,94.846 489.231,94.846 Z" />
        </g>
        <g id="Black-S">
            <path d="M700,89.462 C699.997,83.866 695.709,79.205 690.133,78.736 C684.557,78.267 679.551,82.146 678.614,87.663 C677.676,93.18 681.12,98.495 686.538,99.894 L686.538,105.615 C686.538,106.329 686.255,107.014 685.75,107.519 C685.245,108.024 684.56,108.308 683.846,108.308 L654.231,108.308 C653.313,108.307 652.403,108.464 651.538,108.772 L651.538,99.894 C656.789,98.538 660.213,93.49 659.53,88.11 C658.846,82.73 654.269,78.698 648.846,78.698 C643.423,78.698 638.846,82.73 638.163,88.11 C637.479,93.49 640.903,98.538 646.154,99.894 L646.154,122.106 C640.903,123.462 637.479,128.51 638.163,133.89 C638.846,139.27 643.423,143.302 648.846,143.302 C654.269,143.302 658.846,139.27 659.53,133.89 C660.213,128.51 656.789,123.462 651.538,122.106 L651.538,116.385 C651.538,115.671 651.822,114.986 652.327,114.481 C652.832,113.976 653.517,113.692 654.231,113.692 L683.846,113.692 C685.988,113.692 688.043,112.841 689.557,111.327 C691.072,109.812 691.923,107.758 691.923,105.615 L691.923,99.894 C696.676,98.66 699.995,94.372 700,89.462 Z M643.462,89.462 C643.462,86.488 645.872,84.077 648.846,84.077 C651.82,84.077 654.231,86.488 654.231,89.462 C654.231,92.435 651.82,94.846 648.846,94.846 C647.418,94.846 646.048,94.279 645.039,93.269 C644.029,92.259 643.462,90.89 643.462,89.462 Z M654.231,132.538 C654.231,135.512 651.82,137.923 648.846,137.923 C645.872,137.923 643.462,135.512 643.462,132.538 C643.462,129.565 645.872,127.154 648.846,127.154 C650.274,127.154 651.644,127.721 652.654,128.731 C653.663,129.741 654.231,131.11 654.231,132.538 Z M689.231,94.846 C686.257,94.846 683.846,92.435 683.846,89.462 C683.846,86.488 686.257,84.077 689.231,84.077 C692.205,84.077 694.615,86.488 694.615,89.462 C694.615,90.89 694.048,92.259 693.038,93.269 C692.028,94.279 690.659,94.846 689.231,94.846 Z" />
        </g>
    </g>
</svg>