<?xml version="1.0" encoding="UTF-8"?>
<svg height="600" width="800" xmlns="http://www.w3.org/2000/svg" xmlns:xlink="http://www.w3.org/1999/xlink">
    <g id="Notes" font-family="'LucidaGrande', 'Lucida Grande', sans-serif" font-size="13">
        <rect fill="white" height="600.0" width="800.0" x="0.0" y="0.0" />
        <g font-size="13">
            <text x="18.0" y="176.0">Small</text>
            <text x="18.0" y="376.0">Medium</text>
            <text x="18.0" y="576.0">Large</text>
        </g>
        <g font-size="9">
            <text x="250.0" y="30.0">Ultralight</text>
            <text x="450.0" y="30.0">Regular</text>
            <text x="650.0" y="30.0">Black</text>
            <text id="template-version" fill="#505050" text-anchor="end" x="785.0" y="575.0">Template v.3.0</text>
            <a href="https://github.com/swhitty/SwiftDraw">
                <text fill="#505050" text-anchor="end" x="785.0" y="590.0">https://github.com/swhitty/SwiftDraw</text>
            </a>
        </g>
    </g>
    <g id="Guides" stroke="rgb(39, 170, 225)" stroke-width="0.5">
        <path id="Capline-S" d="M18,76 l800,0" />
        <path id="H-reference" d="M85,145.755 L87.685,145.755 L113.369,79.287 L114.052,79.287 L114.052,76 L112.148,76 L85,145.755 Z M95.693,121.536 L130.996,121.536 L130.263,119.313 L96.474,119.313 L95.693,121.536 Z M139.15,145.755 L141.787,145.755 L114.638,76 L113.466,76 L113.466,79.287 L139.15,145.755 Z" stroke="none" />
        <path id="Baseline-S" d="M18,146 l800,0" />
        <path id="left-margin-Ultralight-S" d="M220,56 l0,110" />
        <path id="right-margin-Ultralight-S" d="M310,56 l0,110" />
        <path id="left-margin-Regular-S" d="M420,56 l0,110" />
        <path id="right-margin-Regular-S" d="M510,56 l0,110" />
        <path id="left-margin-Black-S" d="M620,56 l0,110" />
        <path id="right-margin-Black-S" d="M710,56 l0,110" />
        <path id="Capline-M" d="M18,276 l800,0" />
        <path id="Baseline-M" d="M18,346 l800,0" />
        <path id="Capline-L" d="M18,476 l800,0" />
        <path id="Baseline-L" d="M18,546 l800,0" />
    </g>
    <g id="Symbols">
        <g id="Ultralight-S">
            <path d="M262.308,113.692 L262.308,94.846 C262.308,93.359 263.513,92.154 265,92.154 C266.487,92.154 267.692,93.359 267.692,94.846 L267.692,113.692 C267.692,115.179 266.487,116.385 265,116.385 C263.513,116.385 262.308,115.179 262.308,113.692 Z M300,98.733 L300,123.267 C300.005,124.696 299.436,126.067 298.422,127.073 L281.073,144.422 C280.067,145.436 278.696,146.005 277.267,146 L252.733,146 C251.304,146.005 249.933,145.436 248.927,144.422 L231.578,127.073 C230.564,126.067 229.995,124.696 230,123.267 L230,98.733 C229.995,97.304 230.564,95.933 231.578,94.927 L248.927,77.578 C249.933,76.564 251.304,75.995 252.733,76 L277.267,76 C278.696,75.995 280.067,76.564 281.073,77.578 L298.422,94.927 C299.436,95.933 300.005,97.304 300,98.733 Z M294.615,98.733 L277.267,81.385 L252.733,81.385 L235.385,98.733 L235.385,123.267 L252.733,140.615 L277.267,140.615 L294.615,123.267 Z M265,121.769 C262.77,121.769 260.962,123.577 260.962,125.808 C260.962,128.038 262.77,129.846 265,129.846 C267.23,129.846 269.038,128.038 269.038,125.808 C269.038,124.737 268.613,123.709 267.856,122.952 C267.098,122.195 266.071,121.769 265,121.769 Z" />
        </g>
        <g id="Regular-S">
            <path d="M462.308,113.692 L462.308,94.846 C462.308,93.359 463.513,92.154 465,92.154 C466.487,92.154 467.692,93.359 467.692,94.846 L467.692,113.692 C467.692,115.179 466.487,116.385 465,116.385 C463.513,116.385 462.308,115.179 462.308,113.692 Z M500,98.733 L500,123.267 C500.005,124.696 499.436,126.067 498.422,127.073 L481.073,144.422 C480.067,145.436 478.696,146.005 477.267,146 L452.733,146 C451.304,146.005 449.933,145.436 448.927,144.422 L431.578,127.073 C430.564,126.067 429.995,124.696 430,123.267 L430,98.733 C429.995,97.304 430.564,95.933 431.578,94.927 L448.927,77.578 C449.933,76.564 451.304,75.995 452.733,76 L477.267,76 C478.696,75.995 480.067,76.564 481.073,77.578 L498.422,94.927 C499.436,95.933 500.005,97.304 500,98.733 Z M494.615,98.733 L477.267,81.385 L452.733,81.385 L435.385,98.733 L435.385,123.267 L452.733,140.615 L477.267,140.615 L494.615,123.267 Z M465,121.769 C462.77,121.769 460.962,123.577 460.962,125.808 C460.962,128.038 462.77,129.846 465,129.846 C467.23,129.846 469.038,128.038 469.038,125.808 C469.038,124.737 468.613,123.709 467.856,122.952 C467.098,122.195 466.071,121.769 465,121.769 Z" />
        </g>
        <g id="Black-S">
            <path d="M662.308,113.692 L662.308,94.846 C662.308,93.359 663.513,92.154 665,92.154 C666.487,92.154 667.692,93.359 667.692,94.846 L667.692,113.692 C667.692,115.179 666.487,116.385 665,116.385 C663.513,116.385 662.308,115.179 662.308,113.692 Z M700,98.733 L700,123.267 C700.005,124.696 699.436,126.067 698.422,127.073 L681.073,144.422 C680.067,145.436 678.696,146.005 677.267,146 L652.733,146 C651.304,146.005 649.933,145.436 648.927,144.422 L631.578,127.073 C630.564,126.067 629.995,124.696 630,123.267 L630,98.733 C629.995,97.304 630.564,95.933 631.578,94.927 L648.927,77.578 C649.933,76.564 651.304,75.995 652.733,76 L677.267,76 C678.696,75.995 680.067,76.564 681.073,77.578 L698.422,94.927 C699.436,95.933 700.005,97.304 700,98.733 Z M694.615,98.733 L677.267,81.385 L652.733,81.385 L635.385,98.733 L635.385,123.267 L652.733,140.615 L677.267,140.615 L694.615,123.267 Z M665,121.769 C662.77,121.769 660.962,123.577 660.962,125.808 C660.962,128.038 662.77,129.846 665,129.846 C667.23,129.846 669.038,128.038 669.038,125.808 C669.038,124.737 668.613,123.709 667.856,122.952 C667.098,122.195 666.071,121.769 665,121.769 Z" />
        </g>
    </g>
</svg>