<?xml version="1.0" encoding="UTF-8"?>
<svg height="600" width="800" xmlns="http://www.w3.org/2000/svg" xmlns:xlink="http://www.w3.org/1999/xlink">
    <g id="Notes" font-family="'LucidaGrande', 'Lucida Grande', sans-serif" font-size="13">
        <rect fill="white" height="600.0" width="800.0" x="0.0" y="0.0" />
        <g font-size="13">
            <text x="18.0" y="176.0">Small</text>
            <text x="18.0" y="376.0">Medium</text>
            <text x="18.0" y="576.0">Large</text>
        </g>
        <g font-size="9">
            <text x="250.0" y="30.0">Ultralight</text>
            <text x="450.0" y="30.0">Regular</text>
            <text x="650.0" y="30.0">Black</text>
            <text id="template-version" fill="#505050" text-anchor="end" x="785.0" y="575.0">Template v.3.0</text>
            <a href="https://github.com/swhitty/SwiftDraw">
                <text fill="#505050" text-anchor="end" x="785.0" y="590.0">https://github.com/swhitty/SwiftDraw</text>
            </a>
        </g>
    </g>
    <g id="Guides" stroke="rgb(39, 170, 225)" stroke-width="0.5">
        <path id="Capline-S" d="M18,76 l800,0" />
        <path id="H-reference" d="M85,145.755 L87.685,145.755 L113.369,79.287 L114.052,79.287 L114.052,76 L112.148,76 L85,145.755 Z M95.693,121.536 L130.996,121.536 L130.263,119.313 L96.474,119.313 L95.693,121.536 Z M139.15,145.755 L141.787,145.755 L114.638,76 L113.466,76 L113.466,79.287 L139.15,145.755 Z" stroke="none" />
        <path id="Baseline-S" d="M18,146 l800,0" />
        <path id="left-margin-Ultralight-S" d="M220,56 l0,110" />
        <path id="right-margin-Ultralight-S" d="M310,56 l0,110" />
        <path id="left-margin-Regular-S" d="M420,56 l0,110" />
        <path id="right-margin-Regular-S" d="M510,56 l0,110" />
        <path id="left-margin-Black-S" d="M620,56 l0,110" />
        <path id="right-margin-Black-S" d="M710,56 l0,110" />
        <path id="Capline-M" d="M18,276 l800,0" />
        <path id="Baseline-M" d="M18,346 l800,0" />
        <path id="Capline-L" d="M18,476 l800,0" />
        <path id="Baseline-L" d="M18,546 l800,0" />
    </g>
    <g id="Symbols">
        <g id="Ultralight-S">
            <path d="M293.915,138.805 L240.069,79.574 C239.426,78.849 238.442,78.525 237.494,78.728 C236.546,78.93 235.779,79.626 235.488,80.551 C235.196,81.475 235.424,82.486 236.085,83.195 L241.718,89.394 C237.119,97.308 236.855,107.016 241.018,115.168 C245.181,123.32 253.2,128.798 262.308,129.712 L262.308,135.231 L232.692,135.231 C231.205,135.231 230,136.436 230,137.923 C230,139.41 231.205,140.615 232.692,140.615 L288.285,140.615 L289.931,142.426 C290.574,143.151 291.558,143.475 292.506,143.272 C293.454,143.07 294.221,142.374 294.512,141.449 C294.804,140.525 294.576,139.514 293.915,138.805 Z M243.462,102.923 C243.457,99.705 244.177,96.528 245.569,93.627 L251.767,100.446 C251.031,104.382 252.084,108.441 254.642,111.522 C257.2,114.603 260.996,116.385 265,116.385 C265.404,116.385 265.804,116.364 266.205,116.327 L272.404,123.152 C265.798,125.571 258.427,124.61 252.661,120.58 C246.895,116.55 243.46,109.958 243.462,102.923 Z M267.692,135.231 L267.692,129.708 C270.655,129.412 273.548,128.626 276.254,127.383 L283.388,135.231 Z M250.704,83.172 C250.351,82.551 250.259,81.815 250.448,81.127 C250.637,80.438 251.093,79.853 251.713,79.5 C262.663,73.283 276.458,75.485 284.928,84.802 C293.398,94.119 294.279,108.061 287.05,118.37 C286.196,119.587 284.517,119.882 283.3,119.028 C282.082,118.175 281.787,116.495 282.641,115.278 C288.424,107.031 287.719,95.877 280.944,88.423 C274.168,80.97 263.131,79.208 254.372,84.182 C253.08,84.914 251.439,84.462 250.704,83.172 Z M272.683,105.424 C273.484,102.964 273.058,100.269 271.538,98.176 C270.018,96.083 267.587,94.845 265,94.846 C264.407,94.846 263.816,94.91 263.237,95.038 C262.268,95.335 261.215,95.064 260.511,94.336 C259.807,93.608 259.571,92.546 259.9,91.588 C260.23,90.631 261.069,89.939 262.072,89.798 C266.785,88.755 271.697,90.315 274.944,93.887 C278.19,97.459 279.276,102.497 277.788,107.089 C277.302,108.467 275.806,109.206 274.416,108.754 C273.027,108.302 272.252,106.824 272.67,105.424 Z" />
        </g>
        <g id="Regular-S">
            <path d="M493.915,138.805 L440.069,79.574 C439.426,78.849 438.442,78.525 437.494,78.728 C436.546,78.93 435.779,79.626 435.488,80.551 C435.196,81.475 435.424,82.486 436.085,83.195 L441.718,89.394 C437.119,97.308 436.855,107.016 441.018,115.168 C445.181,123.32 453.2,128.798 462.308,129.712 L462.308,135.231 L432.692,135.231 C431.205,135.231 430,136.436 430,137.923 C430,139.41 431.205,140.615 432.692,140.615 L488.285,140.615 L489.931,142.426 C490.574,143.151 491.558,143.475 492.506,143.272 C493.454,143.07 494.221,142.374 494.512,141.449 C494.804,140.525 494.576,139.514 493.915,138.805 Z M443.462,102.923 C443.457,99.705 444.177,96.528 445.569,93.627 L451.767,100.446 C451.031,104.382 452.084,108.441 454.642,111.522 C457.2,114.603 460.996,116.385 465,116.385 C465.404,116.385 465.804,116.364 466.205,116.327 L472.404,123.152 C465.798,125.571 458.427,124.61 452.661,120.58 C446.895,116.55 443.46,109.958 443.462,102.923 Z M467.692,135.231 L467.692,129.708 C470.655,129.412 473.548,128.626 476.254,127.383 L483.388,135.231 Z M450.704,83.172 C450.351,82.551 450.259,81.815 450.448,81.127 C450.637,80.438 451.093,79.853 451.713,79.5 C462.663,73.283 476.458,75.485 484.928,84.802 C493.398,94.119 494.279,108.061 487.05,118.37 C486.196,119.587 484.517,119.882 483.3,119.028 C482.082,118.175 481.787,116.495 482.641,115.278 C488.424,107.031 487.719,95.877 480.943,88.423 C474.168,80.97 463.131,79.208 454.372,84.182 C453.08,84.914 451.439,84.462 450.704,83.172 Z M472.683,105.424 C473.484,102.964 473.058,100.269 471.538,98.176 C470.018,96.083 467.587,94.845 465,94.846 C464.407,94.846 463.816,94.91 463.237,95.038 C462.268,95.335 461.215,95.064 460.511,94.336 C459.807,93.608 459.571,92.546 459.9,91.588 C460.23,90.631 461.069,89.939 462.072,89.798 C466.785,88.755 471.697,90.315 474.944,93.887 C478.19,97.459 479.276,102.497 477.788,107.089 C477.302,108.467 475.806,109.206 474.416,108.754 C473.027,108.302 472.252,106.824 472.67,105.424 Z" />
        </g>
        <g id="Black-S">
            <path d="M693.915,138.805 L640.069,79.574 C639.426,78.849 638.442,78.525 637.494,78.728 C636.546,78.93 635.779,79.626 635.488,80.551 C635.196,81.475 635.424,82.486 636.085,83.195 L641.718,89.394 C637.119,97.308 636.855,107.016 641.018,115.168 C645.181,123.32 653.2,128.798 662.308,129.712 L662.308,135.231 L632.692,135.231 C631.205,135.231 630,136.436 630,137.923 C630,139.41 631.205,140.615 632.692,140.615 L688.285,140.615 L689.931,142.426 C690.574,143.151 691.558,143.475 692.506,143.272 C693.454,143.07 694.221,142.374 694.512,141.449 C694.804,140.525 694.576,139.514 693.915,138.805 Z M643.462,102.923 C643.457,99.705 644.177,96.528 645.569,93.627 L651.767,100.446 C651.031,104.382 652.084,108.441 654.642,111.522 C657.2,114.603 660.996,116.385 665,116.385 C665.404,116.385 665.804,116.364 666.205,116.327 L672.404,123.152 C665.798,125.571 658.427,124.61 652.661,120.58 C646.895,116.55 643.46,109.958 643.462,102.923 Z M667.692,135.231 L667.692,129.708 C670.655,129.412 673.548,128.626 676.254,127.383 L683.388,135.231 Z M650.704,83.172 C650.351,82.551 650.259,81.815 650.448,81.127 C650.637,80.438 651.093,79.853 651.714,79.5 C662.663,73.283 676.458,75.485 684.928,84.802 C693.398,94.119 694.279,108.061 687.05,118.37 C686.196,119.587 684.517,119.882 683.3,119.028 C682.082,118.175 681.787,116.495 682.641,115.278 C688.424,107.031 687.719,95.877 680.944,88.423 C674.168,80.97 663.131,79.208 654.372,84.182 C653.08,84.914 651.439,84.462 650.704,83.172 Z M672.683,105.424 C673.484,102.964 673.058,100.269 671.538,98.176 C670.018,96.083 667.587,94.845 665,94.846 C664.407,94.846 663.816,94.91 663.237,95.038 C662.268,95.335 661.215,95.064 660.511,94.336 C659.807,93.608 659.571,92.546 659.901,91.588 C660.23,90.631 661.069,89.939 662.072,89.798 C666.785,88.755 671.697,90.315 674.944,93.887 C678.19,97.459 679.276,102.497 677.788,107.089 C677.302,108.467 675.806,109.206 674.416,108.754 C673.027,108.302 672.252,106.824 672.67,105.424 Z" />
        </g>
    </g>
</svg>