<?xml version="1.0" encoding="UTF-8"?>
<svg height="600" width="800" xmlns="http://www.w3.org/2000/svg" xmlns:xlink="http://www.w3.org/1999/xlink">
    <g id="Notes" font-family="'LucidaGrande', 'Lucida Grande', sans-serif" font-size="13">
        <rect fill="white" height="600.0" width="800.0" x="0.0" y="0.0" />
        <g font-size="13">
            <text x="18.0" y="176.0">Small</text>
            <text x="18.0" y="376.0">Medium</text>
            <text x="18.0" y="576.0">Large</text>
        </g>
        <g font-size="9">
            <text x="250.0" y="30.0">Ultralight</text>
            <text x="450.0" y="30.0">Regular</text>
            <text x="650.0" y="30.0">Black</text>
            <text id="template-version" fill="#505050" text-anchor="end" x="785.0" y="575.0">Template v.3.0</text>
            <a href="https://github.com/swhitty/SwiftDraw">
                <text fill="#505050" text-anchor="end" x="785.0" y="590.0">https://github.com/swhitty/SwiftDraw</text>
            </a>
        </g>
    </g>
    <g id="Guides" stroke="rgb(39, 170, 225)" stroke-width="0.5">
        <path id="Capline-S" d="M18,76 l800,0" />
        <path id="H-reference" d="M85,145.755 L87.685,145.755 L113.369,79.287 L114.052,79.287 L114.052,76 L112.148,76 L85,145.755 Z M95.693,121.536 L130.996,121.536 L130.263,119.313 L96.474,119.313 L95.693,121.536 Z M139.15,145.755 L141.787,145.755 L114.638,76 L113.466,76 L113.466,79.287 L139.15,145.755 Z" stroke="none" />
        <path id="Baseline-S" d="M18,146 l800,0" />
        <path id="left-margin-Ultralight-S" d="M220,56 l0,110" />
        <path id="right-margin-Ultralight-S" d="M310,56 l0,110" />
        <path id="left-margin-Regular-S" d="M420,56 l0,110" />
        <path id="right-margin-Regular-S" d="M510,56 l0,110" />
        <path id="left-margin-Black-S" d="M620,56 l0,110" />
        <path id="right-margin-Black-S" d="M710,56 l0,110" />
        <path id="Capline-M" d="M18,276 l800,0" />
        <path id="Baseline-M" d="M18,346 l800,0" />
        <path id="Capline-L" d="M18,476 l800,0" />
        <path id="Baseline-L" d="M18,546 l800,0" />
    </g>
    <g id="Symbols">
        <g id="Ultralight-S">
            <path d="M267.692,129.846 C282.562,129.846 294.615,117.792 294.615,102.923 C294.615,88.054 282.562,76 267.692,76 C252.823,76 240.769,88.054 240.769,102.923 C240.785,117.785 252.829,129.829 267.691,129.846 Z M267.692,81.385 C279.588,81.385 289.231,91.028 289.231,102.923 C289.231,114.818 279.588,124.462 267.692,124.462 C255.797,124.462 246.154,114.818 246.154,102.923 C246.167,91.033 255.802,81.398 267.692,81.385 Z M293.865,126.312 C294.36,126.828 294.631,127.519 294.616,128.233 C294.602,128.948 294.303,129.627 293.788,130.122 C287.452,136.232 279.165,139.914 270.385,140.521 L270.385,146 L278.462,146 C279.948,146 281.154,147.205 281.154,148.692 C281.154,150.179 279.948,151.385 278.462,151.385 L256.923,151.385 C255.436,151.385 254.231,150.179 254.231,148.692 C254.231,147.205 255.436,146 256.923,146 L265,146 L265,140.518 C250.423,139.474 237.763,130.097 232.515,116.458 C227.267,102.818 230.376,87.374 240.493,76.828 C241.155,76.116 242.15,75.817 243.094,76.045 C244.039,76.272 244.788,76.991 245.054,77.926 C245.32,78.861 245.061,79.866 244.377,80.557 C232.168,93.239 232.359,113.361 244.807,125.809 C257.255,138.256 277.377,138.448 290.059,126.238 C291.13,125.208 292.834,125.241 293.865,126.312 Z" />
        </g>
        <g id="Regular-S">
            <path d="M467.692,129.846 C482.561,129.846 494.615,117.792 494.615,102.923 C494.615,88.054 482.562,76 467.692,76 C452.823,76 440.769,88.054 440.769,102.923 C440.785,117.785 452.829,129.829 467.691,129.846 Z M467.692,81.385 C479.588,81.385 489.231,91.028 489.231,102.923 C489.231,114.818 479.588,124.462 467.692,124.462 C455.797,124.462 446.154,114.818 446.154,102.923 C446.167,91.033 455.802,81.398 467.692,81.385 Z M493.865,126.312 C494.36,126.828 494.631,127.519 494.616,128.233 C494.602,128.948 494.303,129.627 493.787,130.122 C487.452,136.232 479.165,139.914 470.385,140.521 L470.385,146 L478.462,146 C479.948,146 481.154,147.205 481.154,148.692 C481.154,150.179 479.948,151.385 478.462,151.385 L456.923,151.385 C455.436,151.385 454.231,150.179 454.231,148.692 C454.231,147.205 455.436,146 456.923,146 L465,146 L465,140.518 C450.423,139.474 437.763,130.097 432.515,116.458 C427.267,102.818 430.376,87.374 440.493,76.828 C441.155,76.116 442.149,75.817 443.094,76.045 C444.039,76.272 444.788,76.991 445.054,77.926 C445.32,78.861 445.061,79.866 444.377,80.557 C432.168,93.239 432.359,113.361 444.807,125.809 C457.255,138.256 477.377,138.448 490.059,126.238 C491.13,125.208 492.834,125.241 493.865,126.312 Z" />
        </g>
        <g id="Black-S">
            <path d="M667.692,129.846 C682.562,129.846 694.615,117.792 694.615,102.923 C694.615,88.054 682.562,76 667.692,76 C652.823,76 640.769,88.054 640.769,102.923 C640.785,117.785 652.829,129.829 667.692,129.846 Z M667.692,81.385 C679.588,81.385 689.231,91.028 689.231,102.923 C689.231,114.818 679.588,124.462 667.692,124.462 C655.797,124.462 646.154,114.818 646.154,102.923 C646.167,91.033 655.802,81.398 667.692,81.385 Z M693.865,126.312 C694.36,126.828 694.631,127.519 694.616,128.233 C694.602,128.948 694.303,129.627 693.788,130.122 C687.452,136.232 679.166,139.914 670.385,140.521 L670.385,146 L678.462,146 C679.948,146 681.154,147.205 681.154,148.692 C681.154,150.179 679.948,151.385 678.462,151.385 L656.923,151.385 C655.436,151.385 654.231,150.179 654.231,148.692 C654.231,147.205 655.436,146 656.923,146 L665,146 L665,140.518 C650.423,139.474 637.763,130.097 632.515,116.458 C627.267,102.818 630.376,87.374 640.493,76.828 C641.155,76.116 642.15,75.817 643.094,76.045 C644.039,76.272 644.788,76.991 645.054,77.926 C645.32,78.861 645.061,79.866 644.377,80.557 C632.168,93.239 632.359,113.361 644.807,125.809 C657.255,138.256 677.377,138.448 690.059,126.238 C691.13,125.208 692.834,125.241 693.865,126.312 Z" />
        </g>
    </g>
</svg>