<?xml version="1.0" encoding="UTF-8"?>
<svg height="600" width="800" xmlns="http://www.w3.org/2000/svg" xmlns:xlink="http://www.w3.org/1999/xlink">
    <g id="Notes" font-family="'LucidaGrande', 'Lucida Grande', sans-serif" font-size="13">
        <rect fill="white" height="600.0" width="800.0" x="0.0" y="0.0" />
        <g font-size="13">
            <text x="18.0" y="176.0">Small</text>
            <text x="18.0" y="376.0">Medium</text>
            <text x="18.0" y="576.0">Large</text>
        </g>
        <g font-size="9">
            <text x="250.0" y="30.0">Ultralight</text>
            <text x="450.0" y="30.0">Regular</text>
            <text x="650.0" y="30.0">Black</text>
            <text id="template-version" fill="#505050" text-anchor="end" x="785.0" y="575.0">Template v.3.0</text>
            <a href="https://github.com/swhitty/SwiftDraw">
                <text fill="#505050" text-anchor="end" x="785.0" y="590.0">https://github.com/swhitty/SwiftDraw</text>
            </a>
        </g>
    </g>
    <g id="Guides" stroke="rgb(39, 170, 225)" stroke-width="0.5">
        <path id="Capline-S" d="M18,76 l800,0" />
        <path id="H-reference" d="M85,145.755 L87.685,145.755 L113.369,79.287 L114.052,79.287 L114.052,76 L112.148,76 L85,145.755 Z M95.693,121.536 L130.996,121.536 L130.263,119.313 L96.474,119.313 L95.693,121.536 Z M139.15,145.755 L141.787,145.755 L114.638,76 L113.466,76 L113.466,79.287 L139.15,145.755 Z" stroke="none" />
        <path id="Baseline-S" d="M18,146 l800,0" />
        <path id="left-margin-Ultralight-S" d="M220,56 l0,110" />
        <path id="right-margin-Ultralight-S" d="M310,56 l0,110" />
        <path id="left-margin-Regular-S" d="M420,56 l0,110" />
        <path id="right-margin-Regular-S" d="M510,56 l0,110" />
        <path id="left-margin-Black-S" d="M620,56 l0,110" />
        <path id="right-margin-Black-S" d="M710,56 l0,110" />
        <path id="Capline-M" d="M18,276 l800,0" />
        <path id="Baseline-M" d="M18,346 l800,0" />
        <path id="Capline-L" d="M18,476 l800,0" />
        <path id="Baseline-L" d="M18,546 l800,0" />
    </g>
    <g id="Symbols">
        <g id="Ultralight-S">
            <path d="M256.923,119.077 C256.923,119.791 256.639,120.476 256.135,120.981 C255.63,121.486 254.945,121.769 254.231,121.769 L240.769,121.769 C239.282,121.769 238.077,120.564 238.077,119.077 C238.077,117.59 239.282,116.385 240.769,116.385 L254.231,116.385 C254.945,116.385 255.63,116.668 256.135,117.173 C256.639,117.678 256.923,118.363 256.923,119.077 Z M302.692,106.962 L302.692,127.154 C302.692,128.582 302.125,129.952 301.115,130.961 C300.105,131.971 298.736,132.538 297.308,132.538 L267.692,132.538 L267.692,143.308 C267.692,144.795 266.487,146 265,146 C263.513,146 262.308,144.795 262.308,143.308 L262.308,132.538 L232.692,132.538 C231.264,132.538 229.895,131.971 228.885,130.961 C227.875,129.952 227.308,128.582 227.308,127.154 L227.308,106.962 C227.32,95.815 236.353,86.782 247.5,86.769 L273.077,86.769 L273.077,76 C273.077,75.286 273.36,74.601 273.865,74.096 C274.37,73.591 275.055,73.308 275.769,73.308 L286.538,73.308 C288.025,73.308 289.23,74.513 289.23,76 C289.23,77.487 288.025,78.692 286.538,78.692 L278.462,78.692 L278.462,86.769 L282.5,86.769 C293.647,86.782 302.679,95.815 302.692,106.962 Z M262.308,127.154 L262.308,106.962 C262.308,98.783 255.678,92.154 247.5,92.154 C239.322,92.154 232.692,98.783 232.692,106.962 L232.692,127.154 Z M297.308,106.962 C297.299,98.788 290.675,92.163 282.501,92.154 L278.462,92.154 L278.462,116.385 C278.462,117.872 277.256,119.077 275.769,119.077 C274.282,119.077 273.077,117.872 273.077,116.385 L273.077,92.154 L261.214,92.154 C265.346,95.969 267.694,101.338 267.692,106.962 L267.692,127.154 L297.308,127.154 Z" />
        </g>
        <g id="Regular-S">
            <path d="M456.923,119.077 C456.923,119.791 456.639,120.476 456.135,120.981 C455.63,121.486 454.945,121.769 454.231,121.769 L440.769,121.769 C439.282,121.769 438.077,120.564 438.077,119.077 C438.077,117.59 439.282,116.385 440.769,116.385 L454.231,116.385 C454.945,116.385 455.63,116.668 456.135,117.173 C456.639,117.678 456.923,118.363 456.923,119.077 Z M502.692,106.962 L502.692,127.154 C502.692,128.582 502.125,129.952 501.115,130.961 C500.105,131.971 498.736,132.538 497.308,132.538 L467.692,132.538 L467.692,143.308 C467.692,144.795 466.487,146 465,146 C463.513,146 462.308,144.795 462.308,143.308 L462.308,132.538 L432.692,132.538 C431.264,132.538 429.895,131.971 428.885,130.961 C427.875,129.952 427.308,128.582 427.308,127.154 L427.308,106.962 C427.32,95.815 436.353,86.782 447.5,86.769 L473.077,86.769 L473.077,76 C473.077,75.286 473.36,74.601 473.865,74.096 C474.37,73.591 475.055,73.308 475.769,73.308 L486.538,73.308 C488.025,73.308 489.23,74.513 489.23,76 C489.23,77.487 488.025,78.692 486.538,78.692 L478.462,78.692 L478.462,86.769 L482.5,86.769 C493.647,86.782 502.679,95.815 502.692,106.962 Z M462.308,127.154 L462.308,106.962 C462.308,98.783 455.678,92.154 447.5,92.154 C439.322,92.154 432.692,98.783 432.692,106.962 L432.692,127.154 Z M497.308,106.962 C497.299,98.788 490.675,92.163 482.501,92.154 L478.462,92.154 L478.462,116.385 C478.462,117.872 477.256,119.077 475.769,119.077 C474.282,119.077 473.077,117.872 473.077,116.385 L473.077,92.154 L461.214,92.154 C465.346,95.969 467.694,101.338 467.692,106.962 L467.692,127.154 L497.308,127.154 Z" />
        </g>
        <g id="Black-S">
            <path d="M656.923,119.077 C656.923,119.791 656.639,120.476 656.135,120.981 C655.63,121.486 654.945,121.769 654.231,121.769 L640.769,121.769 C639.282,121.769 638.077,120.564 638.077,119.077 C638.077,117.59 639.282,116.385 640.769,116.385 L654.231,116.385 C654.945,116.385 655.63,116.668 656.135,117.173 C656.639,117.678 656.923,118.363 656.923,119.077 Z M702.692,106.962 L702.692,127.154 C702.692,128.582 702.125,129.952 701.115,130.961 C700.105,131.971 698.736,132.538 697.308,132.538 L667.692,132.538 L667.692,143.308 C667.692,144.795 666.487,146 665,146 C663.513,146 662.308,144.795 662.308,143.308 L662.308,132.538 L632.692,132.538 C631.264,132.538 629.895,131.971 628.885,130.961 C627.875,129.952 627.308,128.582 627.308,127.154 L627.308,106.962 C627.32,95.815 636.353,86.782 647.5,86.769 L673.077,86.769 L673.077,76 C673.077,75.286 673.36,74.601 673.865,74.096 C674.37,73.591 675.055,73.308 675.769,73.308 L686.538,73.308 C688.025,73.308 689.23,74.513 689.23,76 C689.23,77.487 688.025,78.692 686.538,78.692 L678.462,78.692 L678.462,86.769 L682.5,86.769 C693.647,86.782 702.679,95.815 702.692,106.962 Z M662.308,127.154 L662.308,106.962 C662.308,98.783 655.678,92.154 647.5,92.154 C639.322,92.154 632.692,98.783 632.692,106.962 L632.692,127.154 Z M697.308,106.962 C697.299,98.788 690.675,92.163 682.501,92.154 L678.462,92.154 L678.462,116.385 C678.462,117.872 677.256,119.077 675.769,119.077 C674.282,119.077 673.077,117.872 673.077,116.385 L673.077,92.154 L661.214,92.154 C665.346,95.969 667.694,101.338 667.692,106.962 L667.692,127.154 L697.308,127.154 Z" />
        </g>
    </g>
</svg>