<?xml version="1.0" encoding="UTF-8"?>
<svg height="600" width="800" xmlns="http://www.w3.org/2000/svg" xmlns:xlink="http://www.w3.org/1999/xlink">
    <g id="Notes" font-family="'LucidaGrande', 'Lucida Grande', sans-serif" font-size="13">
        <rect fill="white" height="600.0" width="800.0" x="0.0" y="0.0" />
        <g font-size="13">
            <text x="18.0" y="176.0">Small</text>
            <text x="18.0" y="376.0">Medium</text>
            <text x="18.0" y="576.0">Large</text>
        </g>
        <g font-size="9">
            <text x="250.0" y="30.0">Ultralight</text>
            <text x="450.0" y="30.0">Regular</text>
            <text x="650.0" y="30.0">Black</text>
            <text id="template-version" fill="#505050" text-anchor="end" x="785.0" y="575.0">Template v.3.0</text>
            <a href="https://github.com/swhitty/SwiftDraw">
                <text fill="#505050" text-anchor="end" x="785.0" y="590.0">https://github.com/swhitty/SwiftDraw</text>
            </a>
        </g>
    </g>
    <g id="Guides" stroke="rgb(39, 170, 225)" stroke-width="0.5">
        <path id="Capline-S" d="M18,76 l800,0" />
        <path id="H-reference" d="M85,145.755 L87.685,145.755 L113.369,79.287 L114.052,79.287 L114.052,76 L112.148,76 L85,145.755 Z M95.693,121.536 L130.996,121.536 L130.263,119.313 L96.474,119.313 L95.693,121.536 Z M139.15,145.755 L141.787,145.755 L114.638,76 L113.466,76 L113.466,79.287 L139.15,145.755 Z" stroke="none" />
        <path id="Baseline-S" d="M18,146 l800,0" />
        <path id="left-margin-Ultralight-S" d="M220,56 l0,110" />
        <path id="right-margin-Ultralight-S" d="M310,56 l0,110" />
        <path id="left-margin-Regular-S" d="M420,56 l0,110" />
        <path id="right-margin-Regular-S" d="M510,56 l0,110" />
        <path id="left-margin-Black-S" d="M620,56 l0,110" />
        <path id="right-margin-Black-S" d="M710,56 l0,110" />
        <path id="Capline-M" d="M18,276 l800,0" />
        <path id="Baseline-M" d="M18,346 l800,0" />
        <path id="Capline-L" d="M18,476 l800,0" />
        <path id="Baseline-L" d="M18,546 l800,0" />
    </g>
    <g id="Symbols">
        <g id="Ultralight-S">
            <path d="M301.986,135.264 L269.661,78.753 C268.707,77.057 266.913,76.008 264.968,76.008 C263.023,76.008 261.229,77.057 260.275,78.753 L228.004,135.291 C226.909,137.245 227.138,139.674 228.579,141.389 C230.02,143.104 232.372,143.747 234.486,143.005 L265,132.69 L295.514,142.998 C296.09,143.201 296.697,143.306 297.308,143.308 C299.221,143.301 300.988,142.28 301.948,140.624 C302.908,138.969 302.917,136.928 301.972,135.264 Z M297.257,137.903 L267.692,127.914 L267.692,108.308 C267.692,106.821 266.487,105.615 265,105.615 C263.513,105.615 262.308,106.821 262.308,108.308 L262.308,127.914 L232.746,137.903 L232.692,137.923 L264.953,81.385 L297.308,137.923 Z" />
        </g>
        <g id="Regular-S">
            <path d="M501.986,135.264 L469.661,78.753 C468.707,77.057 466.913,76.008 464.968,76.008 C463.023,76.008 461.229,77.057 460.275,78.753 L428.004,135.291 C426.909,137.245 427.138,139.674 428.579,141.389 C430.02,143.104 432.372,143.747 434.486,143.005 L465,132.69 L495.514,142.998 C496.09,143.201 496.697,143.306 497.308,143.308 C499.221,143.301 500.988,142.28 501.948,140.624 C502.908,138.969 502.917,136.928 501.972,135.264 Z M497.257,137.903 L467.692,127.914 L467.692,108.308 C467.692,106.821 466.487,105.615 465,105.615 C463.513,105.615 462.308,106.821 462.308,108.308 L462.308,127.914 L432.746,137.903 L432.692,137.923 L464.953,81.385 L497.308,137.923 Z" />
        </g>
        <g id="Black-S">
            <path d="M701.986,135.264 L669.661,78.753 C668.707,77.057 666.913,76.008 664.968,76.008 C663.023,76.008 661.229,77.057 660.275,78.753 L628.004,135.291 C626.909,137.245 627.138,139.674 628.579,141.389 C630.02,143.104 632.372,143.747 634.486,143.005 L665,132.69 L695.514,142.998 C696.09,143.201 696.697,143.306 697.308,143.308 C699.221,143.301 700.988,142.28 701.948,140.624 C702.908,138.969 702.917,136.928 701.972,135.264 Z M697.257,137.903 L667.692,127.914 L667.692,108.308 C667.692,106.821 666.487,105.615 665,105.615 C663.513,105.615 662.308,106.821 662.308,108.308 L662.308,127.914 L632.746,137.903 L632.692,137.923 L664.953,81.385 L697.308,137.923 Z" />
        </g>
    </g>
</svg>