<?xml version="1.0" encoding="UTF-8"?>
<svg height="600" width="800" xmlns="http://www.w3.org/2000/svg" xmlns:xlink="http://www.w3.org/1999/xlink">
    <g id="Notes" font-family="'LucidaGrande', 'Lucida Grande', sans-serif" font-size="13">
        <rect fill="white" height="600.0" width="800.0" x="0.0" y="0.0" />
        <g font-size="13">
            <text x="18.0" y="176.0">Small</text>
            <text x="18.0" y="376.0">Medium</text>
            <text x="18.0" y="576.0">Large</text>
        </g>
        <g font-size="9">
            <text x="250.0" y="30.0">Ultralight</text>
            <text x="450.0" y="30.0">Regular</text>
            <text x="650.0" y="30.0">Black</text>
            <text id="template-version" fill="#505050" text-anchor="end" x="785.0" y="575.0">Template v.3.0</text>
            <a href="https://github.com/swhitty/SwiftDraw">
                <text fill="#505050" text-anchor="end" x="785.0" y="590.0">https://github.com/swhitty/SwiftDraw</text>
            </a>
        </g>
    </g>
    <g id="Guides" stroke="rgb(39, 170, 225)" stroke-width="0.5">
        <path id="Capline-S" d="M18,76 l800,0" />
        <path id="H-reference" d="M85,145.755 L87.685,145.755 L113.369,79.287 L114.052,79.287 L114.052,76 L112.148,76 L85,145.755 Z M95.693,121.536 L130.996,121.536 L130.263,119.313 L96.474,119.313 L95.693,121.536 Z M139.15,145.755 L141.787,145.755 L114.638,76 L113.466,76 L113.466,79.287 L139.15,145.755 Z" stroke="none" />
        <path id="Baseline-S" d="M18,146 l800,0" />
        <path id="left-margin-Ultralight-S" d="M220,56 l0,110" />
        <path id="right-margin-Ultralight-S" d="M310,56 l0,110" />
        <path id="left-margin-Regular-S" d="M420,56 l0,110" />
        <path id="right-margin-Regular-S" d="M510,56 l0,110" />
        <path id="left-margin-Black-S" d="M620,56 l0,110" />
        <path id="right-margin-Black-S" d="M710,56 l0,110" />
        <path id="Capline-M" d="M18,276 l800,0" />
        <path id="Baseline-M" d="M18,346 l800,0" />
        <path id="Capline-L" d="M18,476 l800,0" />
        <path id="Baseline-L" d="M18,546 l800,0" />
    </g>
    <g id="Symbols">
        <g id="Ultralight-S">
            <path d="M267.692,105.615 L238.077,105.615 C237.363,105.615 236.678,105.899 236.173,106.404 C235.668,106.909 235.385,107.594 235.385,108.308 L235.385,137.923 C235.385,138.637 235.668,139.322 236.173,139.827 C236.678,140.332 237.363,140.615 238.077,140.615 L267.692,140.615 C268.406,140.615 269.091,140.332 269.596,139.827 C270.101,139.322 270.385,138.637 270.385,137.923 L270.385,108.308 C270.385,107.594 270.101,106.909 269.596,106.404 C269.091,105.899 268.406,105.615 267.692,105.615 Z M265,135.231 L240.769,135.231 L240.769,111 L265,111 Z M294.615,129.846 L294.615,135.231 C294.615,136.659 294.048,138.028 293.038,139.038 C292.028,140.048 290.659,140.615 289.231,140.615 L281.154,140.615 C279.667,140.615 278.462,139.41 278.462,137.923 C278.462,136.436 279.667,135.231 281.154,135.231 L289.231,135.231 L289.231,129.846 C289.231,128.359 290.436,127.154 291.923,127.154 C293.41,127.154 294.615,128.359 294.615,129.846 Z M294.615,105.615 L294.615,116.385 C294.615,117.872 293.41,119.077 291.923,119.077 C290.436,119.077 289.231,117.872 289.231,116.385 L289.231,105.615 C289.231,104.128 290.436,102.923 291.923,102.923 C293.41,102.923 294.615,104.128 294.615,105.615 Z M294.615,86.769 L294.615,92.154 C294.615,93.641 293.41,94.846 291.923,94.846 C290.436,94.846 289.231,93.641 289.231,92.154 L289.231,86.769 L283.846,86.769 C282.359,86.769 281.154,85.564 281.154,84.077 C281.154,82.59 282.359,81.385 283.846,81.385 L289.231,81.385 C290.659,81.385 292.028,81.952 293.038,82.962 C294.048,83.972 294.615,85.341 294.615,86.769 Z M273.077,84.077 C273.077,84.791 272.793,85.476 272.288,85.981 C271.783,86.486 271.099,86.769 270.385,86.769 L259.615,86.769 C258.128,86.769 256.923,85.564 256.923,84.077 C256.923,82.59 258.128,81.385 259.615,81.385 L270.385,81.385 C271.099,81.385 271.783,81.668 272.288,82.173 C272.793,82.678 273.077,83.363 273.077,84.077 Z M235.385,94.846 L235.385,86.769 C235.385,85.341 235.952,83.972 236.962,82.962 C237.972,81.952 239.341,81.385 240.769,81.385 L246.154,81.385 C247.641,81.385 248.846,82.59 248.846,84.077 C248.846,85.564 247.641,86.769 246.154,86.769 L240.769,86.769 L240.769,94.846 C240.769,96.333 239.564,97.538 238.077,97.538 C236.59,97.538 235.385,96.333 235.385,94.846 Z" />
        </g>
        <g id="Regular-S">
            <path d="M467.692,105.615 L438.077,105.615 C437.363,105.615 436.678,105.899 436.173,106.404 C435.668,106.909 435.385,107.594 435.385,108.308 L435.385,137.923 C435.385,138.637 435.668,139.322 436.173,139.827 C436.678,140.332 437.363,140.615 438.077,140.615 L467.692,140.615 C468.406,140.615 469.091,140.332 469.596,139.827 C470.101,139.322 470.385,138.637 470.385,137.923 L470.385,108.308 C470.385,107.594 470.101,106.909 469.596,106.404 C469.091,105.899 468.406,105.615 467.692,105.615 Z M465,135.231 L440.769,135.231 L440.769,111 L465,111 Z M494.615,129.846 L494.615,135.231 C494.615,136.659 494.048,138.028 493.038,139.038 C492.028,140.048 490.659,140.615 489.231,140.615 L481.154,140.615 C479.667,140.615 478.462,139.41 478.462,137.923 C478.462,136.436 479.667,135.231 481.154,135.231 L489.231,135.231 L489.231,129.846 C489.231,128.359 490.436,127.154 491.923,127.154 C493.41,127.154 494.615,128.359 494.615,129.846 Z M494.615,105.615 L494.615,116.385 C494.615,117.872 493.41,119.077 491.923,119.077 C490.436,119.077 489.231,117.872 489.231,116.385 L489.231,105.615 C489.231,104.128 490.436,102.923 491.923,102.923 C493.41,102.923 494.615,104.128 494.615,105.615 Z M494.615,86.769 L494.615,92.154 C494.615,93.641 493.41,94.846 491.923,94.846 C490.436,94.846 489.231,93.641 489.231,92.154 L489.231,86.769 L483.846,86.769 C482.359,86.769 481.154,85.564 481.154,84.077 C481.154,82.59 482.359,81.385 483.846,81.385 L489.231,81.385 C490.659,81.385 492.028,81.952 493.038,82.962 C494.048,83.972 494.615,85.341 494.615,86.769 Z M473.077,84.077 C473.077,84.791 472.793,85.476 472.288,85.981 C471.783,86.486 471.099,86.769 470.385,86.769 L459.615,86.769 C458.128,86.769 456.923,85.564 456.923,84.077 C456.923,82.59 458.128,81.385 459.615,81.385 L470.385,81.385 C471.099,81.385 471.783,81.668 472.288,82.173 C472.793,82.678 473.077,83.363 473.077,84.077 Z M435.385,94.846 L435.385,86.769 C435.385,85.341 435.952,83.972 436.962,82.962 C437.972,81.952 439.341,81.385 440.769,81.385 L446.154,81.385 C447.641,81.385 448.846,82.59 448.846,84.077 C448.846,85.564 447.641,86.769 446.154,86.769 L440.769,86.769 L440.769,94.846 C440.769,96.333 439.564,97.538 438.077,97.538 C436.59,97.538 435.385,96.333 435.385,94.846 Z" />
        </g>
        <g id="Black-S">
            <path d="M667.692,105.615 L638.077,105.615 C637.363,105.615 636.678,105.899 636.173,106.404 C635.668,106.909 635.385,107.594 635.385,108.308 L635.385,137.923 C635.385,138.637 635.668,139.322 636.173,139.827 C636.678,140.332 637.363,140.615 638.077,140.615 L667.692,140.615 C668.406,140.615 669.091,140.332 669.596,139.827 C670.101,139.322 670.385,138.637 670.385,137.923 L670.385,108.308 C670.385,107.594 670.101,106.909 669.596,106.404 C669.091,105.899 668.406,105.615 667.692,105.615 Z M665,135.231 L640.769,135.231 L640.769,111 L665,111 Z M694.615,129.846 L694.615,135.231 C694.615,136.659 694.048,138.028 693.038,139.038 C692.028,140.048 690.659,140.615 689.231,140.615 L681.154,140.615 C679.667,140.615 678.462,139.41 678.462,137.923 C678.462,136.436 679.667,135.231 681.154,135.231 L689.231,135.231 L689.231,129.846 C689.231,128.359 690.436,127.154 691.923,127.154 C693.41,127.154 694.615,128.359 694.615,129.846 Z M694.615,105.615 L694.615,116.385 C694.615,117.872 693.41,119.077 691.923,119.077 C690.436,119.077 689.231,117.872 689.231,116.385 L689.231,105.615 C689.231,104.128 690.436,102.923 691.923,102.923 C693.41,102.923 694.615,104.128 694.615,105.615 Z M694.615,86.769 L694.615,92.154 C694.615,93.641 693.41,94.846 691.923,94.846 C690.436,94.846 689.231,93.641 689.231,92.154 L689.231,86.769 L683.846,86.769 C682.359,86.769 681.154,85.564 681.154,84.077 C681.154,82.59 682.359,81.385 683.846,81.385 L689.231,81.385 C690.659,81.385 692.028,81.952 693.038,82.962 C694.048,83.972 694.615,85.341 694.615,86.769 Z M673.077,84.077 C673.077,84.791 672.793,85.476 672.288,85.981 C671.783,86.486 671.099,86.769 670.385,86.769 L659.615,86.769 C658.128,86.769 656.923,85.564 656.923,84.077 C656.923,82.59 658.128,81.385 659.615,81.385 L670.385,81.385 C671.099,81.385 671.783,81.668 672.288,82.173 C672.793,82.678 673.077,83.363 673.077,84.077 Z M635.385,94.846 L635.385,86.769 C635.385,85.341 635.952,83.972 636.962,82.962 C637.972,81.952 639.341,81.385 640.769,81.385 L646.154,81.385 C647.641,81.385 648.846,82.59 648.846,84.077 C648.846,85.564 647.641,86.769 646.154,86.769 L640.769,86.769 L640.769,94.846 C640.769,96.333 639.564,97.538 638.077,97.538 C636.59,97.538 635.385,96.333 635.385,94.846 Z" />
        </g>
    </g>
</svg>