<?xml version="1.0" encoding="UTF-8"?>
<svg height="600" width="800" xmlns="http://www.w3.org/2000/svg" xmlns:xlink="http://www.w3.org/1999/xlink">
    <g id="Notes" font-family="'LucidaGrande', 'Lucida Grande', sans-serif" font-size="13">
        <rect fill="white" height="600.0" width="800.0" x="0.0" y="0.0" />
        <g font-size="13">
            <text x="18.0" y="176.0">Small</text>
            <text x="18.0" y="376.0">Medium</text>
            <text x="18.0" y="576.0">Large</text>
        </g>
        <g font-size="9">
            <text x="250.0" y="30.0">Ultralight</text>
            <text x="450.0" y="30.0">Regular</text>
            <text x="650.0" y="30.0">Black</text>
            <text id="template-version" fill="#505050" text-anchor="end" x="785.0" y="575.0">Template v.3.0</text>
            <a href="https://github.com/swhitty/SwiftDraw">
                <text fill="#505050" text-anchor="end" x="785.0" y="590.0">https://github.com/swhitty/SwiftDraw</text>
            </a>
        </g>
    </g>
    <g id="Guides" stroke="rgb(39, 170, 225)" stroke-width="0.5">
        <path id="Capline-S" d="M18,76 l800,0" />
        <path id="H-reference" d="M85,145.755 L87.685,145.755 L113.369,79.287 L114.052,79.287 L114.052,76 L112.148,76 L85,145.755 Z M95.693,121.536 L130.996,121.536 L130.263,119.313 L96.474,119.313 L95.693,121.536 Z M139.15,145.755 L141.787,145.755 L114.638,76 L113.466,76 L113.466,79.287 L139.15,145.755 Z" stroke="none" />
        <path id="Baseline-S" d="M18,146 l800,0" />
        <path id="left-margin-Ultralight-S" d="M220,56 l0,110" />
        <path id="right-margin-Ultralight-S" d="M310,56 l0,110" />
        <path id="left-margin-Regular-S" d="M420,56 l0,110" />
        <path id="right-margin-Regular-S" d="M510,56 l0,110" />
        <path id="left-margin-Black-S" d="M620,56 l0,110" />
        <path id="right-margin-Black-S" d="M710,56 l0,110" />
        <path id="Capline-M" d="M18,276 l800,0" />
        <path id="Baseline-M" d="M18,346 l800,0" />
        <path id="Capline-L" d="M18,476 l800,0" />
        <path id="Baseline-L" d="M18,546 l800,0" />
    </g>
    <g id="Symbols">
        <g id="Ultralight-S">
            <path d="M289.231,89.462 L289.231,124.462 C289.231,125.948 288.025,127.154 286.538,127.154 C285.052,127.154 283.846,125.948 283.846,124.462 L283.846,95.96 L245.366,134.443 C244.316,135.495 242.61,135.496 241.558,134.444 C240.505,133.393 240.504,131.687 241.556,130.635 L280.04,92.154 L251.538,92.154 C250.052,92.154 248.846,90.948 248.846,89.462 C248.846,87.975 250.052,86.769 251.538,86.769 L286.538,86.769 C287.253,86.769 287.937,87.053 288.442,87.558 C288.947,88.063 289.231,88.747 289.231,89.462 Z" />
        </g>
        <g id="Regular-S">
            <path d="M489.231,89.462 L489.231,124.462 C489.231,125.948 488.025,127.154 486.538,127.154 C485.052,127.154 483.846,125.948 483.846,124.462 L483.846,95.96 L445.366,134.443 C444.316,135.495 442.61,135.496 441.558,134.444 C440.505,133.393 440.504,131.687 441.556,130.635 L480.04,92.154 L451.538,92.154 C450.052,92.154 448.846,90.948 448.846,89.462 C448.846,87.975 450.052,86.769 451.538,86.769 L486.538,86.769 C487.253,86.769 487.937,87.053 488.442,87.558 C488.947,88.063 489.231,88.747 489.231,89.462 Z" />
        </g>
        <g id="Black-S">
            <path d="M689.231,89.462 L689.231,124.462 C689.231,125.948 688.025,127.154 686.538,127.154 C685.052,127.154 683.846,125.948 683.846,124.462 L683.846,95.96 L645.366,134.443 C644.316,135.495 642.61,135.496 641.558,134.444 C640.505,133.393 640.504,131.687 641.556,130.635 L680.04,92.154 L651.538,92.154 C650.052,92.154 648.846,90.948 648.846,89.462 C648.846,87.975 650.052,86.769 651.538,86.769 L686.538,86.769 C687.253,86.769 687.937,87.053 688.442,87.558 C688.947,88.063 689.231,88.747 689.231,89.462 Z" />
        </g>
    </g>
</svg>