<?xml version="1.0" encoding="UTF-8"?>
<svg height="600" width="800" xmlns="http://www.w3.org/2000/svg" xmlns:xlink="http://www.w3.org/1999/xlink">
    <g id="Notes" font-family="'LucidaGrande', 'Lucida Grande', sans-serif" font-size="13">
        <rect fill="white" height="600.0" width="800.0" x="0.0" y="0.0" />
        <g font-size="13">
            <text x="18.0" y="176.0">Small</text>
            <text x="18.0" y="376.0">Medium</text>
            <text x="18.0" y="576.0">Large</text>
        </g>
        <g font-size="9">
            <text x="250.0" y="30.0">Ultralight</text>
            <text x="450.0" y="30.0">Regular</text>
            <text x="650.0" y="30.0">Black</text>
            <text id="template-version" fill="#505050" text-anchor="end" x="785.0" y="575.0">Template v.3.0</text>
            <a href="https://github.com/swhitty/SwiftDraw">
                <text fill="#505050" text-anchor="end" x="785.0" y="590.0">https://github.com/swhitty/SwiftDraw</text>
            </a>
        </g>
    </g>
    <g id="Guides" stroke="rgb(39, 170, 225)" stroke-width="0.5">
        <path id="Capline-S" d="M18,76 l800,0" />
        <path id="H-reference" d="M85,145.755 L87.685,145.755 L113.369,79.287 L114.052,79.287 L114.052,76 L112.148,76 L85,145.755 Z M95.693,121.536 L130.996,121.536 L130.263,119.313 L96.474,119.313 L95.693,121.536 Z M139.15,145.755 L141.787,145.755 L114.638,76 L113.466,76 L113.466,79.287 L139.15,145.755 Z" stroke="none" />
        <path id="Baseline-S" d="M18,146 l800,0" />
        <path id="left-margin-Ultralight-S" d="M220,56 l0,110" />
        <path id="right-margin-Ultralight-S" d="M310,56 l0,110" />
        <path id="left-margin-Regular-S" d="M420,56 l0,110" />
        <path id="right-margin-Regular-S" d="M510,56 l0,110" />
        <path id="left-margin-Black-S" d="M620,56 l0,110" />
        <path id="right-margin-Black-S" d="M710,56 l0,110" />
        <path id="Capline-M" d="M18,276 l800,0" />
        <path id="Baseline-M" d="M18,346 l800,0" />
        <path id="Capline-L" d="M18,476 l800,0" />
        <path id="Baseline-L" d="M18,546 l800,0" />
    </g>
    <g id="Symbols">
        <g id="Ultralight-S">
            <path d="M273.077,86.769 L273.077,127.154 C273.077,128.641 271.872,129.846 270.385,129.846 C268.898,129.846 267.692,128.641 267.692,127.154 L267.692,109.654 L238.077,109.654 L238.077,127.154 C238.077,128.641 236.872,129.846 235.385,129.846 C233.898,129.846 232.692,128.641 232.692,127.154 L232.692,86.769 C232.692,85.282 233.898,84.077 235.385,84.077 C236.872,84.077 238.077,85.282 238.077,86.769 L238.077,104.269 L267.692,104.269 L267.692,86.769 C267.692,85.282 268.898,84.077 270.385,84.077 C271.872,84.077 273.077,85.282 273.077,86.769 Z M302.692,135.231 L291.923,135.231 L303.214,120.174 C305.764,116.786 306.089,112.216 304.042,108.501 C301.996,104.786 297.96,102.619 293.733,102.964 C289.506,103.31 285.875,106.104 284.459,110.101 C284.118,111.013 284.295,112.037 284.923,112.781 C285.551,113.524 286.531,113.871 287.487,113.689 C288.442,113.506 289.225,112.821 289.534,111.899 C289.72,111.38 289.983,110.892 290.314,110.451 C291.458,108.874 293.364,108.037 295.299,108.263 C297.235,108.49 298.897,109.744 299.645,111.542 C300.394,113.341 300.113,115.404 298.91,116.937 L284.385,136.308 C283.773,137.124 283.674,138.215 284.13,139.127 C284.586,140.039 285.519,140.615 286.538,140.615 L302.692,140.615 C304.179,140.615 305.385,139.41 305.385,137.923 C305.385,136.436 304.179,135.231 302.692,135.231 Z" />
        </g>
        <g id="Regular-S">
            <path d="M473.077,86.769 L473.077,127.154 C473.077,128.641 471.872,129.846 470.385,129.846 C468.898,129.846 467.692,128.641 467.692,127.154 L467.692,109.654 L438.077,109.654 L438.077,127.154 C438.077,128.641 436.872,129.846 435.385,129.846 C433.898,129.846 432.692,128.641 432.692,127.154 L432.692,86.769 C432.692,85.282 433.898,84.077 435.385,84.077 C436.872,84.077 438.077,85.282 438.077,86.769 L438.077,104.269 L467.692,104.269 L467.692,86.769 C467.692,85.282 468.898,84.077 470.385,84.077 C471.872,84.077 473.077,85.282 473.077,86.769 Z M502.692,135.231 L491.923,135.231 L503.214,120.174 C505.764,116.786 506.089,112.216 504.042,108.501 C501.996,104.786 497.96,102.619 493.733,102.964 C489.506,103.31 485.875,106.104 484.459,110.101 C484.118,111.013 484.295,112.037 484.923,112.781 C485.551,113.524 486.531,113.871 487.487,113.689 C488.442,113.506 489.225,112.821 489.534,111.899 C489.72,111.38 489.983,110.892 490.314,110.451 C491.458,108.874 493.364,108.037 495.299,108.263 C497.235,108.49 498.897,109.744 499.645,111.542 C500.394,113.341 500.113,115.404 498.91,116.937 L484.385,136.308 C483.773,137.124 483.674,138.215 484.13,139.127 C484.586,140.039 485.519,140.615 486.538,140.615 L502.692,140.615 C504.179,140.615 505.385,139.41 505.385,137.923 C505.385,136.436 504.179,135.231 502.692,135.231 Z" />
        </g>
        <g id="Black-S">
            <path d="M673.077,86.769 L673.077,127.154 C673.077,128.641 671.872,129.846 670.385,129.846 C668.898,129.846 667.692,128.641 667.692,127.154 L667.692,109.654 L638.077,109.654 L638.077,127.154 C638.077,128.641 636.872,129.846 635.385,129.846 C633.898,129.846 632.692,128.641 632.692,127.154 L632.692,86.769 C632.692,85.282 633.898,84.077 635.385,84.077 C636.872,84.077 638.077,85.282 638.077,86.769 L638.077,104.269 L667.692,104.269 L667.692,86.769 C667.692,85.282 668.898,84.077 670.385,84.077 C671.872,84.077 673.077,85.282 673.077,86.769 Z M702.692,135.231 L691.923,135.231 L703.214,120.174 C705.764,116.786 706.089,112.216 704.042,108.501 C701.996,104.786 697.96,102.619 693.733,102.964 C689.506,103.31 685.875,106.104 684.459,110.101 C684.118,111.013 684.295,112.037 684.923,112.781 C685.551,113.524 686.531,113.871 687.487,113.689 C688.442,113.506 689.225,112.821 689.534,111.899 C689.72,111.38 689.983,110.892 690.314,110.451 C691.458,108.874 693.364,108.037 695.299,108.263 C697.235,108.49 698.897,109.744 699.645,111.542 C700.394,113.341 700.113,115.404 698.91,116.937 L684.385,136.308 C683.773,137.124 683.674,138.215 684.13,139.127 C684.586,140.039 685.519,140.615 686.538,140.615 L702.692,140.615 C704.179,140.615 705.385,139.41 705.385,137.923 C705.385,136.436 704.179,135.231 702.692,135.231 Z" />
        </g>
    </g>
</svg>