<?xml version="1.0" encoding="UTF-8"?>
<svg height="600" width="800" xmlns="http://www.w3.org/2000/svg" xmlns:xlink="http://www.w3.org/1999/xlink">
    <g id="Notes" font-family="'LucidaGrande', 'Lucida Grande', sans-serif" font-size="13">
        <rect fill="white" height="600.0" width="800.0" x="0.0" y="0.0" />
        <g font-size="13">
            <text x="18.0" y="176.0">Small</text>
            <text x="18.0" y="376.0">Medium</text>
            <text x="18.0" y="576.0">Large</text>
        </g>
        <g font-size="9">
            <text x="250.0" y="30.0">Ultralight</text>
            <text x="450.0" y="30.0">Regular</text>
            <text x="650.0" y="30.0">Black</text>
            <text id="template-version" fill="#505050" text-anchor="end" x="785.0" y="575.0">Template v.3.0</text>
            <a href="https://github.com/swhitty/SwiftDraw">
                <text fill="#505050" text-anchor="end" x="785.0" y="590.0">https://github.com/swhitty/SwiftDraw</text>
            </a>
        </g>
    </g>
    <g id="Guides" stroke="rgb(39, 170, 225)" stroke-width="0.5">
        <path id="Capline-S" d="M18,76 l800,0" />
        <path id="H-reference" d="M85,145.755 L87.685,145.755 L113.369,79.287 L114.052,79.287 L114.052,76 L112.148,76 L85,145.755 Z M95.693,121.536 L130.996,121.536 L130.263,119.313 L96.474,119.313 L95.693,121.536 Z M139.15,145.755 L141.787,145.755 L114.638,76 L113.466,76 L113.466,79.287 L139.15,145.755 Z" stroke="none" />
        <path id="Baseline-S" d="M18,146 l800,0" />
        <path id="left-margin-Ultralight-S" d="M220,56 l0,110" />
        <path id="right-margin-Ultralight-S" d="M310,56 l0,110" />
        <path id="left-margin-Regular-S" d="M420,56 l0,110" />
        <path id="right-margin-Regular-S" d="M510,56 l0,110" />
        <path id="left-margin-Black-S" d="M620,56 l0,110" />
        <path id="right-margin-Black-S" d="M710,56 l0,110" />
        <path id="Capline-M" d="M18,276 l800,0" />
        <path id="Baseline-M" d="M18,346 l800,0" />
        <path id="Capline-L" d="M18,476 l800,0" />
        <path id="Baseline-L" d="M18,546 l800,0" />
    </g>
    <g id="Symbols">
        <g id="Ultralight-S">
            <path d="M265,81.385 C247.157,81.385 232.692,95.849 232.692,113.692 C232.692,131.535 247.157,146 265,146 C282.843,146 297.308,131.535 297.308,113.692 C297.287,95.858 282.835,81.405 265,81.385 Z M265,140.615 C250.131,140.615 238.077,128.562 238.077,113.692 C238.077,98.823 250.131,86.769 265,86.769 C279.869,86.769 291.923,98.823 291.923,113.692 C291.907,128.554 279.863,140.598 265.001,140.615 Z M280.366,98.326 C280.872,98.831 281.156,99.516 281.156,100.231 C281.156,100.945 280.872,101.631 280.366,102.136 L266.905,115.597 C265.854,116.649 264.149,116.65 263.096,115.598 C262.044,114.547 262.043,112.841 263.094,111.789 L276.556,98.327 C277.061,97.821 277.746,97.537 278.461,97.536 C279.176,97.536 279.861,97.82 280.366,98.326 Z M254.231,73.308 C254.231,72.594 254.514,71.909 255.019,71.404 C255.524,70.899 256.209,70.615 256.923,70.615 L273.077,70.615 C274.564,70.615 275.769,71.821 275.769,73.308 C275.769,74.795 274.564,76 273.077,76 L256.923,76 C256.209,76 255.524,75.716 255.019,75.211 C254.514,74.707 254.231,74.022 254.231,73.308 Z" />
        </g>
        <g id="Regular-S">
            <path d="M465,81.385 C447.157,81.385 432.692,95.849 432.692,113.692 C432.692,131.535 447.157,146 465,146 C482.843,146 497.308,131.535 497.308,113.692 C497.287,95.858 482.835,81.405 465,81.385 Z M465,140.615 C450.131,140.615 438.077,128.562 438.077,113.692 C438.077,98.823 450.131,86.769 465,86.769 C479.869,86.769 491.923,98.823 491.923,113.692 C491.907,128.554 479.863,140.598 465.001,140.615 Z M480.366,98.326 C480.872,98.831 481.156,99.516 481.156,100.231 C481.156,100.945 480.872,101.631 480.366,102.136 L466.905,115.597 C465.854,116.649 464.149,116.65 463.096,115.598 C462.044,114.547 462.043,112.841 463.094,111.789 L476.556,98.327 C477.061,97.821 477.746,97.537 478.461,97.536 C479.176,97.536 479.861,97.82 480.366,98.326 Z M454.231,73.308 C454.231,72.594 454.514,71.909 455.019,71.404 C455.524,70.899 456.209,70.615 456.923,70.615 L473.077,70.615 C474.564,70.615 475.769,71.821 475.769,73.308 C475.769,74.795 474.564,76 473.077,76 L456.923,76 C456.209,76 455.524,75.716 455.019,75.211 C454.514,74.707 454.231,74.022 454.231,73.308 Z" />
        </g>
        <g id="Black-S">
            <path d="M665,81.385 C647.157,81.385 632.692,95.849 632.692,113.692 C632.692,131.535 647.157,146 665,146 C682.843,146 697.308,131.535 697.308,113.692 C697.287,95.858 682.835,81.405 665,81.385 Z M665,140.615 C650.131,140.615 638.077,128.562 638.077,113.692 C638.077,98.823 650.131,86.769 665,86.769 C679.869,86.769 691.923,98.823 691.923,113.692 C691.907,128.554 679.863,140.598 665.001,140.615 Z M680.366,98.326 C680.872,98.831 681.156,99.516 681.156,100.231 C681.156,100.945 680.872,101.631 680.366,102.136 L666.905,115.597 C665.854,116.649 664.149,116.65 663.096,115.598 C662.044,114.547 662.043,112.841 663.094,111.789 L676.556,98.327 C677.061,97.821 677.746,97.537 678.461,97.536 C679.176,97.536 679.861,97.82 680.366,98.326 Z M654.231,73.308 C654.231,72.594 654.514,71.909 655.019,71.404 C655.524,70.899 656.209,70.615 656.923,70.615 L673.077,70.615 C674.564,70.615 675.769,71.821 675.769,73.308 C675.769,74.795 674.564,76 673.077,76 L656.923,76 C656.209,76 655.524,75.716 655.019,75.211 C654.514,74.707 654.231,74.022 654.231,73.308 Z" />
        </g>
    </g>
</svg>