<?xml version="1.0" encoding="UTF-8"?>
<svg height="600" width="800" xmlns="http://www.w3.org/2000/svg" xmlns:xlink="http://www.w3.org/1999/xlink">
    <g id="Notes" font-family="'LucidaGrande', 'Lucida Grande', sans-serif" font-size="13">
        <rect fill="white" height="600.0" width="800.0" x="0.0" y="0.0" />
        <g font-size="13">
            <text x="18.0" y="176.0">Small</text>
            <text x="18.0" y="376.0">Medium</text>
            <text x="18.0" y="576.0">Large</text>
        </g>
        <g font-size="9">
            <text x="250.0" y="30.0">Ultralight</text>
            <text x="450.0" y="30.0">Regular</text>
            <text x="650.0" y="30.0">Black</text>
            <text id="template-version" fill="#505050" text-anchor="end" x="785.0" y="575.0">Template v.3.0</text>
            <a href="https://github.com/swhitty/SwiftDraw">
                <text fill="#505050" text-anchor="end" x="785.0" y="590.0">https://github.com/swhitty/SwiftDraw</text>
            </a>
        </g>
    </g>
    <g id="Guides" stroke="rgb(39, 170, 225)" stroke-width="0.5">
        <path id="Capline-S" d="M18,76 l800,0" />
        <path id="H-reference" d="M85,145.755 L87.685,145.755 L113.369,79.287 L114.052,79.287 L114.052,76 L112.148,76 L85,145.755 Z M95.693,121.536 L130.996,121.536 L130.263,119.313 L96.474,119.313 L95.693,121.536 Z M139.15,145.755 L141.787,145.755 L114.638,76 L113.466,76 L113.466,79.287 L139.15,145.755 Z" stroke="none" />
        <path id="Baseline-S" d="M18,146 l800,0" />
        <path id="left-margin-Ultralight-S" d="M220,56 l0,110" />
        <path id="right-margin-Ultralight-S" d="M310,56 l0,110" />
        <path id="left-margin-Regular-S" d="M420,56 l0,110" />
        <path id="right-margin-Regular-S" d="M510,56 l0,110" />
        <path id="left-margin-Black-S" d="M620,56 l0,110" />
        <path id="right-margin-Black-S" d="M710,56 l0,110" />
        <path id="Capline-M" d="M18,276 l800,0" />
        <path id="Baseline-M" d="M18,346 l800,0" />
        <path id="Capline-L" d="M18,476 l800,0" />
        <path id="Baseline-L" d="M18,546 l800,0" />
    </g>
    <g id="Symbols">
        <g id="Ultralight-S">
            <path d="M240.069,79.574 C239.426,78.849 238.442,78.525 237.494,78.728 C236.546,78.93 235.779,79.626 235.488,80.551 C235.196,81.475 235.424,82.486 236.085,83.195 L242.56,90.32 C230.337,97.821 225.08,109.385 224.848,109.91 C224.538,110.606 224.538,111.401 224.848,112.097 C224.965,112.363 227.816,118.683 234.153,125.02 C242.597,133.461 253.262,137.923 265,137.923 C271.033,137.957 277.005,136.715 282.524,134.278 L289.927,142.426 C290.571,143.151 291.555,143.475 292.503,143.272 C293.451,143.07 294.217,142.374 294.509,141.449 C294.801,140.525 294.573,139.514 293.912,138.805 Z M255.998,105.097 L270.021,120.527 C265.678,122.812 260.339,121.872 257.038,118.24 C253.737,114.608 253.309,109.203 255.998,105.097 Z M265,132.538 C254.641,132.538 245.592,128.773 238.1,121.349 C235.026,118.293 232.41,114.807 230.337,111 C231.915,108.042 236.953,99.763 246.272,94.382 L252.329,101.028 C247.487,107.23 247.817,116.018 253.111,121.838 C258.404,127.659 267.122,128.819 273.753,124.586 L278.711,130.038 C274.336,131.716 269.686,132.564 265,132.538 Z M267.019,100.423 C265.558,100.144 264.6,98.733 264.879,97.272 C265.158,95.812 266.568,94.853 268.029,95.132 C275.076,96.498 280.385,102.337 281.077,109.482 C281.215,110.963 280.127,112.275 278.647,112.413 C278.563,112.418 278.478,112.418 278.394,112.413 C277,112.419 275.831,111.359 275.702,109.97 C275.237,105.218 271.706,101.336 267.019,100.423 Z M305.142,112.097 C305.001,112.413 301.592,119.962 293.915,126.838 C293.202,127.497 292.187,127.721 291.262,127.423 C290.337,127.125 289.644,126.351 289.45,125.398 C289.256,124.446 289.59,123.463 290.325,122.826 C294.091,119.442 297.254,115.444 299.68,111 C297.602,107.19 294.981,103.701 291.899,100.645 C284.408,93.227 275.359,89.462 265,89.462 C262.817,89.459 260.638,89.636 258.485,89.99 C257.531,90.159 256.561,89.803 255.943,89.058 C255.325,88.313 255.155,87.293 255.497,86.388 C255.839,85.482 256.64,84.83 257.596,84.679 C260.043,84.275 262.52,84.074 265,84.077 C276.738,84.077 287.403,88.539 295.847,96.983 C302.184,103.32 305.035,109.644 305.152,109.91 C305.462,110.606 305.462,111.401 305.152,112.097 Z" />
        </g>
        <g id="Regular-S">
            <path d="M440.069,79.574 C439.426,78.849 438.442,78.525 437.494,78.728 C436.546,78.93 435.779,79.626 435.488,80.551 C435.196,81.475 435.424,82.486 436.085,83.195 L442.56,90.32 C430.337,97.821 425.08,109.385 424.848,109.91 C424.538,110.606 424.538,111.401 424.848,112.097 C424.965,112.363 427.816,118.683 434.153,125.02 C442.597,133.461 453.262,137.923 465,137.923 C471.033,137.957 477.005,136.715 482.524,134.278 L489.927,142.426 C490.571,143.151 491.555,143.475 492.503,143.272 C493.451,143.07 494.217,142.374 494.509,141.449 C494.801,140.525 494.573,139.514 493.912,138.805 Z M455.998,105.097 L470.021,120.527 C465.678,122.812 460.339,121.872 457.038,118.24 C453.737,114.608 453.309,109.203 455.998,105.097 Z M465,132.538 C454.641,132.538 445.592,128.773 438.1,121.349 C435.026,118.293 432.41,114.807 430.337,111 C431.915,108.042 436.953,99.763 446.272,94.382 L452.329,101.028 C447.487,107.23 447.817,116.018 453.111,121.838 C458.404,127.659 467.121,128.819 473.753,124.586 L478.711,130.038 C474.336,131.716 469.686,132.564 465,132.538 Z M467.019,100.423 C465.558,100.144 464.6,98.733 464.879,97.272 C465.158,95.812 466.568,94.853 468.029,95.132 C475.076,96.498 480.385,102.337 481.077,109.482 C481.215,110.963 480.127,112.275 478.647,112.413 C478.563,112.418 478.478,112.418 478.394,112.413 C476.999,112.419 475.831,111.359 475.702,109.97 C475.237,105.218 471.706,101.336 467.019,100.423 Z M505.142,112.097 C505.001,112.413 501.592,119.962 493.915,126.838 C493.201,127.497 492.187,127.721 491.262,127.423 C490.337,127.125 489.644,126.351 489.45,125.398 C489.256,124.446 489.59,123.463 490.324,122.826 C494.091,119.442 497.254,115.444 499.68,111 C497.602,107.19 494.981,103.701 491.899,100.645 C484.408,93.227 475.359,89.462 465,89.462 C462.817,89.459 460.638,89.636 458.485,89.99 C457.531,90.159 456.561,89.803 455.943,89.058 C455.325,88.313 455.155,87.293 455.497,86.388 C455.838,85.482 456.64,84.83 457.596,84.679 C460.043,84.275 462.52,84.074 465,84.077 C476.738,84.077 487.403,88.539 495.847,96.983 C502.184,103.32 505.035,109.644 505.152,109.91 C505.462,110.606 505.462,111.401 505.152,112.097 Z" />
        </g>
        <g id="Black-S">
            <path d="M640.069,79.574 C639.426,78.849 638.442,78.525 637.494,78.728 C636.546,78.93 635.779,79.626 635.488,80.551 C635.196,81.475 635.424,82.486 636.085,83.195 L642.56,90.32 C630.337,97.821 625.08,109.385 624.848,109.91 C624.538,110.606 624.538,111.401 624.848,112.097 C624.965,112.363 627.816,118.683 634.153,125.02 C642.597,133.461 653.262,137.923 665,137.923 C671.033,137.957 677.005,136.715 682.524,134.278 L689.927,142.426 C690.571,143.151 691.555,143.475 692.503,143.272 C693.451,143.07 694.217,142.374 694.509,141.449 C694.801,140.525 694.573,139.514 693.912,138.805 Z M655.998,105.097 L670.021,120.527 C665.678,122.812 660.339,121.872 657.038,118.24 C653.737,114.608 653.309,109.203 655.998,105.097 Z M665,132.538 C654.641,132.538 645.592,128.773 638.101,121.349 C635.026,118.293 632.41,114.807 630.337,111 C631.915,108.042 636.953,99.763 646.272,94.382 L652.329,101.028 C647.487,107.23 647.817,116.018 653.111,121.838 C658.404,127.659 667.122,128.819 673.753,124.586 L678.711,130.038 C674.336,131.716 669.686,132.564 665,132.538 Z M667.019,100.423 C665.558,100.144 664.6,98.733 664.879,97.272 C665.158,95.812 666.568,94.853 668.029,95.132 C675.076,96.498 680.385,102.337 681.077,109.482 C681.215,110.963 680.127,112.275 678.647,112.413 C678.563,112.418 678.478,112.418 678.394,112.413 C677,112.419 675.831,111.359 675.702,109.97 C675.237,105.218 671.706,101.336 667.019,100.423 Z M705.142,112.097 C705.001,112.413 701.592,119.962 693.915,126.838 C693.202,127.497 692.187,127.721 691.262,127.423 C690.337,127.125 689.644,126.351 689.45,125.398 C689.256,124.446 689.59,123.463 690.325,122.826 C694.091,119.442 697.254,115.444 699.68,111 C697.602,107.19 694.981,103.701 691.9,100.645 C684.408,93.227 675.359,89.462 665,89.462 C662.817,89.459 660.638,89.636 658.485,89.99 C657.531,90.159 656.561,89.803 655.943,89.058 C655.325,88.313 655.155,87.293 655.497,86.388 C655.839,85.482 656.64,84.83 657.596,84.679 C660.043,84.275 662.52,84.074 665,84.077 C676.738,84.077 687.403,88.539 695.847,96.983 C702.184,103.32 705.035,109.644 705.152,109.91 C705.462,110.606 705.462,111.401 705.152,112.097 Z" />
        </g>
    </g>
</svg>