<?xml version="1.0" encoding="UTF-8"?>
<svg height="600" width="800" xmlns="http://www.w3.org/2000/svg" xmlns:xlink="http://www.w3.org/1999/xlink">
    <g id="Notes" font-family="'LucidaGrande', 'Lucida Grande', sans-serif" font-size="13">
        <rect fill="white" height="600.0" width="800.0" x="0.0" y="0.0" />
        <g font-size="13">
            <text x="18.0" y="176.0">Small</text>
            <text x="18.0" y="376.0">Medium</text>
            <text x="18.0" y="576.0">Large</text>
        </g>
        <g font-size="9">
            <text x="250.0" y="30.0">Ultralight</text>
            <text x="450.0" y="30.0">Regular</text>
            <text x="650.0" y="30.0">Black</text>
            <text id="template-version" fill="#505050" text-anchor="end" x="785.0" y="575.0">Template v.3.0</text>
            <a href="https://github.com/swhitty/SwiftDraw">
                <text fill="#505050" text-anchor="end" x="785.0" y="590.0">https://github.com/swhitty/SwiftDraw</text>
            </a>
        </g>
    </g>
    <g id="Guides" stroke="rgb(39, 170, 225)" stroke-width="0.5">
        <path id="Capline-S" d="M18,76 l800,0" />
        <path id="H-reference" d="M85,145.755 L87.685,145.755 L113.369,79.287 L114.052,79.287 L114.052,76 L112.148,76 L85,145.755 Z M95.693,121.536 L130.996,121.536 L130.263,119.313 L96.474,119.313 L95.693,121.536 Z M139.15,145.755 L141.787,145.755 L114.638,76 L113.466,76 L113.466,79.287 L139.15,145.755 Z" stroke="none" />
        <path id="Baseline-S" d="M18,146 l800,0" />
        <path id="left-margin-Ultralight-S" d="M220,56 l0,110" />
        <path id="right-margin-Ultralight-S" d="M310,56 l0,110" />
        <path id="left-margin-Regular-S" d="M420,56 l0,110" />
        <path id="right-margin-Regular-S" d="M510,56 l0,110" />
        <path id="left-margin-Black-S" d="M620,56 l0,110" />
        <path id="right-margin-Black-S" d="M710,56 l0,110" />
        <path id="Capline-M" d="M18,276 l800,0" />
        <path id="Baseline-M" d="M18,346 l800,0" />
        <path id="Capline-L" d="M18,476 l800,0" />
        <path id="Baseline-L" d="M18,546 l800,0" />
    </g>
    <g id="Symbols">
        <g id="Ultralight-S">
            <path d="M289.231,81.385 C287.744,81.385 286.538,82.59 286.538,84.077 C286.538,85.564 287.744,86.769 289.231,86.769 C290.659,86.769 292.028,87.337 293.038,88.346 C294.048,89.356 294.615,90.726 294.615,92.154 L294.615,111.7 C290.759,108.52 285.559,107.5 280.787,108.987 C276.015,110.475 272.316,114.269 270.95,119.077 L259.05,119.077 C257.684,114.269 253.985,110.475 249.213,108.987 C244.441,107.5 239.241,108.52 235.385,111.7 L235.385,92.154 C235.385,89.18 237.795,86.769 240.769,86.769 C242.256,86.769 243.462,85.564 243.462,84.077 C243.462,82.59 242.256,81.385 240.769,81.385 C237.913,81.385 235.174,82.519 233.154,84.539 C231.135,86.558 230,89.298 230,92.154 L230,123.115 C230.015,131.021 236.237,137.52 244.134,137.88 C252.031,138.239 258.818,132.332 259.551,124.461 L270.449,124.461 C271.182,132.332 277.969,138.239 285.866,137.879 C293.763,137.519 299.985,131.02 300,123.115 L300,92.154 C300,89.298 298.865,86.558 296.846,84.539 C294.826,82.519 292.087,81.385 289.231,81.385 Z M244.808,132.538 C239.603,132.538 235.385,128.32 235.385,123.115 C235.385,117.911 239.603,113.692 244.808,113.692 C250.012,113.692 254.231,117.911 254.231,123.115 C254.231,125.615 253.238,128.011 251.471,129.779 C249.704,131.546 247.307,132.538 244.808,132.538 Z M285.192,132.538 C279.988,132.538 275.769,128.32 275.769,123.115 C275.769,117.911 279.988,113.692 285.192,113.692 C290.397,113.692 294.615,117.911 294.615,123.115 C294.615,125.615 293.623,128.011 291.855,129.779 C290.088,131.546 287.691,132.538 285.192,132.538 Z" />
        </g>
        <g id="Regular-S">
            <path d="M489.231,81.385 C487.744,81.385 486.538,82.59 486.538,84.077 C486.538,85.564 487.744,86.769 489.231,86.769 C490.659,86.769 492.028,87.337 493.038,88.346 C494.048,89.356 494.615,90.726 494.615,92.154 L494.615,111.7 C490.759,108.52 485.559,107.5 480.787,108.987 C476.015,110.475 472.316,114.269 470.95,119.077 L459.05,119.077 C457.684,114.269 453.985,110.475 449.213,108.987 C444.441,107.5 439.241,108.52 435.385,111.7 L435.385,92.154 C435.385,89.18 437.795,86.769 440.769,86.769 C442.256,86.769 443.462,85.564 443.462,84.077 C443.462,82.59 442.256,81.385 440.769,81.385 C437.913,81.385 435.174,82.519 433.154,84.539 C431.135,86.558 430,89.298 430,92.154 L430,123.115 C430.015,131.021 436.237,137.52 444.134,137.88 C452.031,138.239 458.818,132.332 459.551,124.461 L470.449,124.461 C471.182,132.332 477.969,138.239 485.866,137.879 C493.763,137.519 499.985,131.02 500,123.115 L500,92.154 C500,89.298 498.865,86.558 496.846,84.539 C494.826,82.519 492.087,81.385 489.231,81.385 Z M444.808,132.538 C439.603,132.538 435.385,128.32 435.385,123.115 C435.385,117.911 439.603,113.692 444.808,113.692 C450.012,113.692 454.231,117.911 454.231,123.115 C454.231,125.615 453.238,128.011 451.471,129.779 C449.704,131.546 447.307,132.538 444.808,132.538 Z M485.192,132.538 C479.988,132.538 475.769,128.32 475.769,123.115 C475.769,117.911 479.988,113.692 485.192,113.692 C490.397,113.692 494.615,117.911 494.615,123.115 C494.615,125.615 493.623,128.011 491.855,129.779 C490.088,131.546 487.691,132.538 485.192,132.538 Z" />
        </g>
        <g id="Black-S">
            <path d="M689.231,81.385 C687.744,81.385 686.538,82.59 686.538,84.077 C686.538,85.564 687.744,86.769 689.231,86.769 C690.659,86.769 692.028,87.337 693.038,88.346 C694.048,89.356 694.615,90.726 694.615,92.154 L694.615,111.7 C690.759,108.52 685.559,107.5 680.787,108.987 C676.015,110.475 672.316,114.269 670.95,119.077 L659.05,119.077 C657.684,114.269 653.985,110.475 649.213,108.987 C644.441,107.5 639.241,108.52 635.385,111.7 L635.385,92.154 C635.385,89.18 637.795,86.769 640.769,86.769 C642.256,86.769 643.462,85.564 643.462,84.077 C643.462,82.59 642.256,81.385 640.769,81.385 C637.913,81.385 635.174,82.519 633.154,84.539 C631.135,86.558 630,89.298 630,92.154 L630,123.115 C630.015,131.021 636.237,137.52 644.134,137.88 C652.031,138.239 658.818,132.332 659.552,124.461 L670.449,124.461 C671.182,132.332 677.969,138.239 685.866,137.879 C693.763,137.519 699.985,131.02 700,123.115 L700,92.154 C700,89.298 698.865,86.558 696.846,84.539 C694.826,82.519 692.087,81.385 689.231,81.385 Z M644.808,132.538 C639.604,132.538 635.385,128.32 635.385,123.115 C635.385,117.911 639.604,113.692 644.808,113.692 C650.012,113.692 654.231,117.911 654.231,123.115 C654.231,125.615 653.238,128.011 651.471,129.779 C649.704,131.546 647.307,132.538 644.808,132.538 Z M685.192,132.538 C679.988,132.538 675.769,128.32 675.769,123.115 C675.769,117.911 679.988,113.692 685.192,113.692 C690.397,113.692 694.615,117.911 694.615,123.115 C694.615,125.615 693.623,128.011 691.855,129.779 C690.088,131.546 687.691,132.538 685.192,132.538 Z" />
        </g>
    </g>
</svg>