<?xml version="1.0" encoding="UTF-8"?>
<svg height="600" width="800" xmlns="http://www.w3.org/2000/svg" xmlns:xlink="http://www.w3.org/1999/xlink">
    <g id="Notes" font-family="'LucidaGrande', 'Lucida Grande', sans-serif" font-size="13">
        <rect fill="white" height="600.0" width="800.0" x="0.0" y="0.0" />
        <g font-size="13">
            <text x="18.0" y="176.0">Small</text>
            <text x="18.0" y="376.0">Medium</text>
            <text x="18.0" y="576.0">Large</text>
        </g>
        <g font-size="9">
            <text x="250.0" y="30.0">Ultralight</text>
            <text x="450.0" y="30.0">Regular</text>
            <text x="650.0" y="30.0">Black</text>
            <text id="template-version" fill="#505050" text-anchor="end" x="785.0" y="575.0">Template v.3.0</text>
            <a href="https://github.com/swhitty/SwiftDraw">
                <text fill="#505050" text-anchor="end" x="785.0" y="590.0">https://github.com/swhitty/SwiftDraw</text>
            </a>
        </g>
    </g>
    <g id="Guides" stroke="rgb(39, 170, 225)" stroke-width="0.5">
        <path id="Capline-S" d="M18,76 l800,0" />
        <path id="H-reference" d="M85,145.755 L87.685,145.755 L113.369,79.287 L114.052,79.287 L114.052,76 L112.148,76 L85,145.755 Z M95.693,121.536 L130.996,121.536 L130.263,119.313 L96.474,119.313 L95.693,121.536 Z M139.15,145.755 L141.787,145.755 L114.638,76 L113.466,76 L113.466,79.287 L139.15,145.755 Z" stroke="none" />
        <path id="Baseline-S" d="M18,146 l800,0" />
        <path id="left-margin-Ultralight-S" d="M220,56 l0,110" />
        <path id="right-margin-Ultralight-S" d="M310,56 l0,110" />
        <path id="left-margin-Regular-S" d="M420,56 l0,110" />
        <path id="right-margin-Regular-S" d="M510,56 l0,110" />
        <path id="left-margin-Black-S" d="M620,56 l0,110" />
        <path id="right-margin-Black-S" d="M710,56 l0,110" />
        <path id="Capline-M" d="M18,276 l800,0" />
        <path id="Baseline-M" d="M18,346 l800,0" />
        <path id="Capline-L" d="M18,476 l800,0" />
        <path id="Baseline-L" d="M18,546 l800,0" />
    </g>
    <g id="Symbols">
        <g id="Ultralight-S">
            <path d="M300.024,130.775 C303.798,122.947 303.561,113.778 299.388,106.154 C295.215,98.531 287.618,93.391 278.99,92.352 C275.138,83.397 266.746,77.223 257.05,76.212 C247.353,75.201 237.868,79.51 232.252,87.479 C226.635,95.447 225.765,105.829 229.976,114.621 L227.53,122.937 C226.973,124.828 227.493,126.872 228.887,128.266 C230.281,129.66 232.326,130.181 234.217,129.624 L242.533,127.177 C245.203,128.46 248.066,129.296 251.007,129.651 C253.894,136.416 259.424,141.706 266.311,144.29 C273.198,146.874 280.842,146.527 287.467,143.331 L295.783,145.778 C297.673,146.334 299.717,145.814 301.111,144.421 C302.504,143.028 303.026,140.985 302.47,139.094 Z M242.788,121.601 C242.531,121.602 242.275,121.638 242.028,121.709 L232.692,124.462 L235.442,115.119 C235.637,114.444 235.561,113.72 235.23,113.1 C230.196,103.686 232.818,92.005 241.392,85.645 C249.966,79.285 261.905,80.165 269.453,87.714 C277.002,95.263 277.882,107.202 271.522,115.776 C265.162,124.35 253.481,126.971 244.067,121.938 C243.676,121.721 243.236,121.605 242.788,121.601 Z M294.545,131.27 L297.308,140.615 L287.965,137.866 C287.29,137.67 286.566,137.746 285.946,138.078 C275.636,143.583 262.817,139.869 257.048,129.705 C264.5,128.927 271.29,125.076 275.783,119.08 C280.276,113.083 282.064,105.485 280.716,98.114 C287.226,99.648 292.654,104.12 295.406,110.216 C298.157,116.311 297.921,123.34 294.767,129.237 C294.432,129.86 294.356,130.591 294.555,131.27 Z" />
        </g>
        <g id="Regular-S">
            <path d="M500.024,130.775 C503.798,122.947 503.561,113.778 499.388,106.154 C495.215,98.531 487.618,93.391 478.99,92.352 C475.138,83.397 466.746,77.223 457.05,76.212 C447.353,75.201 437.868,79.51 432.251,87.479 C426.635,95.447 425.765,105.829 429.976,114.621 L427.53,122.937 C426.973,124.828 427.493,126.872 428.887,128.266 C430.281,129.66 432.326,130.181 434.217,129.624 L442.533,127.177 C445.203,128.46 448.066,129.296 451.007,129.651 C453.894,136.416 459.424,141.706 466.311,144.29 C473.198,146.874 480.842,146.527 487.467,143.331 L495.783,145.778 C497.673,146.334 499.717,145.814 501.111,144.421 C502.504,143.028 503.026,140.985 502.47,139.094 Z M442.788,121.601 C442.531,121.602 442.275,121.638 442.028,121.709 L432.692,124.462 L435.442,115.119 C435.637,114.444 435.561,113.72 435.23,113.1 C430.196,103.686 432.818,92.005 441.392,85.645 C449.966,79.285 461.905,80.165 469.453,87.714 C477.002,95.263 477.882,107.202 471.522,115.776 C465.162,124.35 453.481,126.971 444.067,121.938 C443.676,121.721 443.236,121.605 442.788,121.601 Z M494.545,131.27 L497.308,140.615 L487.965,137.866 C487.29,137.67 486.566,137.746 485.946,138.078 C475.636,143.583 462.817,139.869 457.048,129.705 C464.5,128.927 471.29,125.076 475.783,119.08 C480.276,113.083 482.064,105.485 480.716,98.114 C487.226,99.648 492.654,104.12 495.406,110.216 C498.157,116.311 497.921,123.34 494.767,129.237 C494.432,129.86 494.356,130.591 494.555,131.27 Z" />
        </g>
        <g id="Black-S">
            <path d="M700.024,130.775 C703.798,122.947 703.561,113.778 699.388,106.154 C695.215,98.531 687.618,93.391 678.99,92.352 C675.138,83.397 666.746,77.223 657.05,76.212 C647.353,75.201 637.868,79.51 632.252,87.479 C626.635,95.447 625.765,105.829 629.976,114.621 L627.53,122.937 C626.973,124.828 627.493,126.872 628.887,128.266 C630.281,129.66 632.326,130.181 634.217,129.624 L642.533,127.177 C645.203,128.46 648.066,129.296 651.007,129.651 C653.894,136.416 659.424,141.706 666.311,144.29 C673.198,146.874 680.842,146.527 687.467,143.331 L695.783,145.778 C697.674,146.334 699.717,145.814 701.111,144.421 C702.504,143.028 703.026,140.985 702.47,139.094 Z M642.788,121.601 C642.531,121.602 642.275,121.638 642.028,121.709 L632.692,124.462 L635.442,115.119 C635.637,114.444 635.561,113.72 635.23,113.1 C630.196,103.686 632.818,92.005 641.392,85.645 C649.966,79.285 661.905,80.165 669.453,87.714 C677.002,95.263 677.882,107.202 671.522,115.776 C665.162,124.35 653.481,126.971 644.067,121.938 C643.676,121.721 643.236,121.605 642.788,121.601 Z M694.545,131.27 L697.308,140.615 L687.965,137.866 C687.29,137.67 686.566,137.746 685.946,138.078 C675.636,143.583 662.817,139.869 657.048,129.705 C664.5,128.927 671.29,125.076 675.783,119.08 C680.276,113.083 682.064,105.485 680.716,98.114 C687.226,99.648 692.654,104.12 695.406,110.216 C698.157,116.311 697.921,123.34 694.767,129.237 C694.432,129.86 694.356,130.591 694.555,131.27 Z" />
        </g>
    </g>
</svg>