<?xml version="1.0" encoding="UTF-8"?>
<svg height="600" width="800" xmlns="http://www.w3.org/2000/svg" xmlns:xlink="http://www.w3.org/1999/xlink">
    <g id="Notes" font-family="'LucidaGrande', 'Lucida Grande', sans-serif" font-size="13">
        <rect fill="white" height="600.0" width="800.0" x="0.0" y="0.0" />
        <g font-size="13">
            <text x="18.0" y="176.0">Small</text>
            <text x="18.0" y="376.0">Medium</text>
            <text x="18.0" y="576.0">Large</text>
        </g>
        <g font-size="9">
            <text x="250.0" y="30.0">Ultralight</text>
            <text x="450.0" y="30.0">Regular</text>
            <text x="650.0" y="30.0">Black</text>
            <text id="template-version" fill="#505050" text-anchor="end" x="785.0" y="575.0">Template v.3.0</text>
            <a href="https://github.com/swhitty/SwiftDraw">
                <text fill="#505050" text-anchor="end" x="785.0" y="590.0">https://github.com/swhitty/SwiftDraw</text>
            </a>
        </g>
    </g>
    <g id="Guides" stroke="rgb(39, 170, 225)" stroke-width="0.5">
        <path id="Capline-S" d="M18,76 l800,0" />
        <path id="H-reference" d="M85,145.755 L87.685,145.755 L113.369,79.287 L114.052,79.287 L114.052,76 L112.148,76 L85,145.755 Z M95.693,121.536 L130.996,121.536 L130.263,119.313 L96.474,119.313 L95.693,121.536 Z M139.15,145.755 L141.787,145.755 L114.638,76 L113.466,76 L113.466,79.287 L139.15,145.755 Z" stroke="none" />
        <path id="Baseline-S" d="M18,146 l800,0" />
        <path id="left-margin-Ultralight-S" d="M220,56 l0,110" />
        <path id="right-margin-Ultralight-S" d="M310,56 l0,110" />
        <path id="left-margin-Regular-S" d="M420,56 l0,110" />
        <path id="right-margin-Regular-S" d="M510,56 l0,110" />
        <path id="left-margin-Black-S" d="M620,56 l0,110" />
        <path id="right-margin-Black-S" d="M710,56 l0,110" />
        <path id="Capline-M" d="M18,276 l800,0" />
        <path id="Baseline-M" d="M18,346 l800,0" />
        <path id="Capline-L" d="M18,476 l800,0" />
        <path id="Baseline-L" d="M18,546 l800,0" />
    </g>
    <g id="Symbols">
        <g id="Ultralight-S">
            <path d="M265,76 C245.67,76 230,91.67 230,111 C230,130.33 245.67,146 265,146 C284.33,146 300,130.33 300,111 C299.979,91.677 284.32,76.02 264.999,76 Z M265,140.615 C248.644,140.615 235.385,127.356 235.385,111 C235.385,94.644 248.644,81.385 265,81.385 C281.356,81.385 294.615,94.644 294.615,111 C294.598,127.347 281.35,140.596 265.001,140.615 Z M281.154,111 C281.154,117.957 276.704,124.131 270.107,126.329 C263.51,128.527 256.246,126.257 252.075,120.693 C251.182,119.502 251.423,117.814 252.613,116.921 C253.803,116.029 255.491,116.27 256.383,117.46 C259.165,121.168 264.007,122.681 268.404,121.215 C272.802,119.749 275.768,115.634 275.768,110.998 C275.768,106.363 272.802,102.248 268.404,100.782 C264.007,99.316 259.165,100.829 256.383,104.537 C255.492,105.726 253.804,105.967 252.614,105.074 C251.424,104.182 251.182,102.494 252.075,101.304 C256.247,95.739 263.512,93.469 270.11,95.669 C276.708,97.869 281.157,104.045 281.154,111 Z" />
        </g>
        <g id="Regular-S">
            <path d="M465,76 C445.67,76 430,91.67 430,111 C430,130.33 445.67,146 465,146 C484.33,146 500,130.33 500,111 C499.979,91.677 484.32,76.02 464.999,76 Z M465,140.615 C448.644,140.615 435.385,127.356 435.385,111 C435.385,94.644 448.644,81.385 465,81.385 C481.356,81.385 494.615,94.644 494.615,111 C494.598,127.347 481.35,140.596 465.001,140.615 Z M481.154,111 C481.154,117.957 476.704,124.131 470.107,126.329 C463.51,128.527 456.246,126.257 452.075,120.693 C451.182,119.502 451.423,117.814 452.613,116.921 C453.803,116.029 455.491,116.27 456.383,117.46 C459.165,121.168 464.007,122.681 468.404,121.215 C472.802,119.749 475.768,115.634 475.768,110.998 C475.768,106.363 472.802,102.248 468.404,100.782 C464.007,99.316 459.165,100.829 456.383,104.537 C455.492,105.726 453.804,105.967 452.614,105.074 C451.424,104.182 451.182,102.494 452.075,101.304 C456.247,95.739 463.512,93.469 470.11,95.669 C476.708,97.869 481.157,104.045 481.154,111 Z" />
        </g>
        <g id="Black-S">
            <path d="M665,76 C645.67,76 630,91.67 630,111 C630,130.33 645.67,146 665,146 C684.33,146 700,130.33 700,111 C699.979,91.677 684.32,76.02 664.999,76 Z M665,140.615 C648.644,140.615 635.385,127.356 635.385,111 C635.385,94.644 648.644,81.385 665,81.385 C681.356,81.385 694.615,94.644 694.615,111 C694.598,127.347 681.35,140.596 665.001,140.615 Z M681.154,111 C681.154,117.957 676.704,124.131 670.107,126.329 C663.51,128.527 656.246,126.257 652.075,120.693 C651.182,119.502 651.423,117.814 652.613,116.921 C653.803,116.029 655.491,116.27 656.383,117.46 C659.165,121.168 664.007,122.681 668.404,121.215 C672.802,119.749 675.768,115.634 675.768,110.998 C675.768,106.363 672.802,102.248 668.404,100.782 C664.007,99.316 659.165,100.829 656.383,104.537 C655.492,105.726 653.804,105.967 652.614,105.074 C651.424,104.182 651.182,102.494 652.075,101.304 C656.247,95.739 663.512,93.469 670.11,95.669 C676.708,97.869 681.157,104.045 681.154,111 Z" />
        </g>
    </g>
</svg>