<?xml version="1.0" encoding="UTF-8"?>
<svg height="600" width="800" xmlns="http://www.w3.org/2000/svg" xmlns:xlink="http://www.w3.org/1999/xlink">
    <g id="Notes" font-family="'LucidaGrande', 'Lucida Grande', sans-serif" font-size="13">
        <rect fill="white" height="600.0" width="800.0" x="0.0" y="0.0" />
        <g font-size="13">
            <text x="18.0" y="176.0">Small</text>
            <text x="18.0" y="376.0">Medium</text>
            <text x="18.0" y="576.0">Large</text>
        </g>
        <g font-size="9">
            <text x="250.0" y="30.0">Ultralight</text>
            <text x="450.0" y="30.0">Regular</text>
            <text x="650.0" y="30.0">Black</text>
            <text id="template-version" fill="#505050" text-anchor="end" x="785.0" y="575.0">Template v.3.0</text>
            <a href="https://github.com/swhitty/SwiftDraw">
                <text fill="#505050" text-anchor="end" x="785.0" y="590.0">https://github.com/swhitty/SwiftDraw</text>
            </a>
        </g>
    </g>
    <g id="Guides" stroke="rgb(39, 170, 225)" stroke-width="0.5">
        <path id="Capline-S" d="M18,76 l800,0" />
        <path id="H-reference" d="M85,145.755 L87.685,145.755 L113.369,79.287 L114.052,79.287 L114.052,76 L112.148,76 L85,145.755 Z M95.693,121.536 L130.996,121.536 L130.263,119.313 L96.474,119.313 L95.693,121.536 Z M139.15,145.755 L141.787,145.755 L114.638,76 L113.466,76 L113.466,79.287 L139.15,145.755 Z" stroke="none" />
        <path id="Baseline-S" d="M18,146 l800,0" />
        <path id="left-margin-Ultralight-S" d="M220,56 l0,110" />
        <path id="right-margin-Ultralight-S" d="M310,56 l0,110" />
        <path id="left-margin-Regular-S" d="M420,56 l0,110" />
        <path id="right-margin-Regular-S" d="M510,56 l0,110" />
        <path id="left-margin-Black-S" d="M620,56 l0,110" />
        <path id="right-margin-Black-S" d="M710,56 l0,110" />
        <path id="Capline-M" d="M18,276 l800,0" />
        <path id="Baseline-M" d="M18,346 l800,0" />
        <path id="Capline-L" d="M18,476 l800,0" />
        <path id="Baseline-L" d="M18,546 l800,0" />
    </g>
    <g id="Symbols">
        <g id="Ultralight-S">
            <path d="M300,86.769 L246.154,86.769 L246.154,81.385 C246.154,80.671 245.87,79.986 245.365,79.481 C244.86,78.976 244.176,78.692 243.462,78.692 L238.077,78.692 C235.221,78.692 232.482,79.827 230.462,81.847 C228.442,83.866 227.308,86.605 227.308,89.462 L227.308,127.154 C227.308,130.01 228.442,132.749 230.462,134.769 C232.482,136.788 235.221,137.923 238.077,137.923 L300,137.923 C300.714,137.923 301.399,137.639 301.904,137.135 C302.409,136.63 302.692,135.945 302.692,135.231 L302.692,89.462 C302.692,88.747 302.409,88.063 301.904,87.558 C301.399,87.053 300.714,86.769 300,86.769 Z M232.692,89.462 C232.692,88.033 233.26,86.664 234.269,85.654 C235.279,84.644 236.649,84.077 238.077,84.077 L240.769,84.077 L240.769,116.385 L238.077,116.385 C236.186,116.382 234.328,116.88 232.692,117.828 Z M297.308,132.538 L238.077,132.538 C235.103,132.538 232.692,130.128 232.692,127.154 C232.692,124.18 235.103,121.769 238.077,121.769 L243.462,121.769 C244.176,121.769 244.86,121.486 245.365,120.981 C245.87,120.476 246.154,119.791 246.154,119.077 L246.154,92.154 L297.308,92.154 Z M256.923,113.692 C255.436,113.692 254.231,114.898 254.231,116.385 C254.231,117.872 255.436,119.077 256.923,119.077 L262.308,119.077 L262.308,121.769 C262.308,123.256 263.513,124.462 265,124.462 C266.487,124.462 267.692,123.256 267.692,121.769 L267.692,119.077 L275.769,119.077 L275.769,121.769 C275.769,123.256 276.975,124.462 278.462,124.462 C279.948,124.462 281.154,123.256 281.154,121.769 L281.154,119.077 L286.538,119.077 C288.025,119.077 289.231,117.872 289.231,116.385 C289.231,114.898 288.025,113.692 286.538,113.692 L281.154,113.692 L281.154,108.308 L286.538,108.308 C288.025,108.308 289.231,107.102 289.231,105.615 C289.231,104.128 288.025,102.923 286.538,102.923 L281.154,102.923 L281.154,100.231 C281.154,98.744 279.948,97.538 278.462,97.538 C276.975,97.538 275.769,98.744 275.769,100.231 L275.769,102.923 L267.692,102.923 L267.692,100.231 C267.692,98.744 266.487,97.538 265,97.538 C263.513,97.538 262.308,98.744 262.308,100.231 L262.308,102.923 L256.923,102.923 C255.436,102.923 254.231,104.128 254.231,105.615 C254.231,107.102 255.436,108.308 256.923,108.308 L262.308,108.308 L262.308,113.692 Z M267.692,108.308 L275.769,108.308 L275.769,113.692 L267.692,113.692 Z" />
        </g>
        <g id="Regular-S">
            <path d="M500,86.769 L446.154,86.769 L446.154,81.385 C446.154,80.671 445.87,79.986 445.365,79.481 C444.86,78.976 444.176,78.692 443.462,78.692 L438.077,78.692 C435.221,78.692 432.482,79.827 430.462,81.847 C428.442,83.866 427.308,86.605 427.308,89.462 L427.308,127.154 C427.308,130.01 428.442,132.749 430.462,134.769 C432.482,136.788 435.221,137.923 438.077,137.923 L500,137.923 C500.714,137.923 501.399,137.639 501.904,137.135 C502.409,136.63 502.692,135.945 502.692,135.231 L502.692,89.462 C502.692,88.747 502.409,88.063 501.904,87.558 C501.399,87.053 500.714,86.769 500,86.769 Z M432.692,89.462 C432.692,88.033 433.26,86.664 434.269,85.654 C435.279,84.644 436.649,84.077 438.077,84.077 L440.769,84.077 L440.769,116.385 L438.077,116.385 C436.186,116.382 434.328,116.88 432.692,117.828 Z M497.308,132.538 L438.077,132.538 C435.103,132.538 432.692,130.128 432.692,127.154 C432.692,124.18 435.103,121.769 438.077,121.769 L443.462,121.769 C444.176,121.769 444.86,121.486 445.365,120.981 C445.87,120.476 446.154,119.791 446.154,119.077 L446.154,92.154 L497.308,92.154 Z M456.923,113.692 C455.436,113.692 454.231,114.898 454.231,116.385 C454.231,117.872 455.436,119.077 456.923,119.077 L462.308,119.077 L462.308,121.769 C462.308,123.256 463.513,124.462 465,124.462 C466.487,124.462 467.692,123.256 467.692,121.769 L467.692,119.077 L475.769,119.077 L475.769,121.769 C475.769,123.256 476.975,124.462 478.462,124.462 C479.948,124.462 481.154,123.256 481.154,121.769 L481.154,119.077 L486.538,119.077 C488.025,119.077 489.231,117.872 489.231,116.385 C489.231,114.898 488.025,113.692 486.538,113.692 L481.154,113.692 L481.154,108.308 L486.538,108.308 C488.025,108.308 489.231,107.102 489.231,105.615 C489.231,104.128 488.025,102.923 486.538,102.923 L481.154,102.923 L481.154,100.231 C481.154,98.744 479.948,97.538 478.462,97.538 C476.975,97.538 475.769,98.744 475.769,100.231 L475.769,102.923 L467.692,102.923 L467.692,100.231 C467.692,98.744 466.487,97.538 465,97.538 C463.513,97.538 462.308,98.744 462.308,100.231 L462.308,102.923 L456.923,102.923 C455.436,102.923 454.231,104.128 454.231,105.615 C454.231,107.102 455.436,108.308 456.923,108.308 L462.308,108.308 L462.308,113.692 Z M467.692,108.308 L475.769,108.308 L475.769,113.692 L467.692,113.692 Z" />
        </g>
        <g id="Black-S">
            <path d="M700,86.769 L646.154,86.769 L646.154,81.385 C646.154,80.671 645.87,79.986 645.365,79.481 C644.86,78.976 644.176,78.692 643.462,78.692 L638.077,78.692 C635.221,78.692 632.482,79.827 630.462,81.847 C628.442,83.866 627.308,86.605 627.308,89.462 L627.308,127.154 C627.308,130.01 628.442,132.749 630.462,134.769 C632.482,136.788 635.221,137.923 638.077,137.923 L700,137.923 C700.714,137.923 701.399,137.639 701.904,137.135 C702.409,136.63 702.692,135.945 702.692,135.231 L702.692,89.462 C702.692,88.747 702.409,88.063 701.904,87.558 C701.399,87.053 700.714,86.769 700,86.769 Z M632.692,89.462 C632.692,88.033 633.26,86.664 634.269,85.654 C635.279,84.644 636.649,84.077 638.077,84.077 L640.769,84.077 L640.769,116.385 L638.077,116.385 C636.186,116.382 634.328,116.88 632.692,117.828 Z M697.308,132.538 L638.077,132.538 C635.103,132.538 632.692,130.128 632.692,127.154 C632.692,124.18 635.103,121.769 638.077,121.769 L643.462,121.769 C644.176,121.769 644.86,121.486 645.365,120.981 C645.87,120.476 646.154,119.791 646.154,119.077 L646.154,92.154 L697.308,92.154 Z M656.923,113.692 C655.436,113.692 654.231,114.898 654.231,116.385 C654.231,117.872 655.436,119.077 656.923,119.077 L662.308,119.077 L662.308,121.769 C662.308,123.256 663.513,124.462 665,124.462 C666.487,124.462 667.692,123.256 667.692,121.769 L667.692,119.077 L675.769,119.077 L675.769,121.769 C675.769,123.256 676.975,124.462 678.462,124.462 C679.948,124.462 681.154,123.256 681.154,121.769 L681.154,119.077 L686.538,119.077 C688.025,119.077 689.231,117.872 689.231,116.385 C689.231,114.898 688.025,113.692 686.538,113.692 L681.154,113.692 L681.154,108.308 L686.538,108.308 C688.025,108.308 689.231,107.102 689.231,105.615 C689.231,104.128 688.025,102.923 686.538,102.923 L681.154,102.923 L681.154,100.231 C681.154,98.744 679.948,97.538 678.462,97.538 C676.975,97.538 675.769,98.744 675.769,100.231 L675.769,102.923 L667.692,102.923 L667.692,100.231 C667.692,98.744 666.487,97.538 665,97.538 C663.513,97.538 662.308,98.744 662.308,100.231 L662.308,102.923 L656.923,102.923 C655.436,102.923 654.231,104.128 654.231,105.615 C654.231,107.102 655.436,108.308 656.923,108.308 L662.308,108.308 L662.308,113.692 Z M667.692,108.308 L675.769,108.308 L675.769,113.692 L667.692,113.692 Z" />
        </g>
    </g>
</svg>