<?xml version="1.0" encoding="UTF-8"?>
<svg height="600" width="800" xmlns="http://www.w3.org/2000/svg" xmlns:xlink="http://www.w3.org/1999/xlink">
    <g id="Notes" font-family="'LucidaGrande', 'Lucida Grande', sans-serif" font-size="13">
        <rect fill="white" height="600.0" width="800.0" x="0.0" y="0.0" />
        <g font-size="13">
            <text x="18.0" y="176.0">Small</text>
            <text x="18.0" y="376.0">Medium</text>
            <text x="18.0" y="576.0">Large</text>
        </g>
        <g font-size="9">
            <text x="250.0" y="30.0">Ultralight</text>
            <text x="450.0" y="30.0">Regular</text>
            <text x="650.0" y="30.0">Black</text>
            <text id="template-version" fill="#505050" text-anchor="end" x="785.0" y="575.0">Template v.3.0</text>
            <a href="https://github.com/swhitty/SwiftDraw">
                <text fill="#505050" text-anchor="end" x="785.0" y="590.0">https://github.com/swhitty/SwiftDraw</text>
            </a>
        </g>
    </g>
    <g id="Guides" stroke="rgb(39, 170, 225)" stroke-width="0.5">
        <path id="Capline-S" d="M18,76 l800,0" />
        <path id="H-reference" d="M85,145.755 L87.685,145.755 L113.369,79.287 L114.052,79.287 L114.052,76 L112.148,76 L85,145.755 Z M95.693,121.536 L130.996,121.536 L130.263,119.313 L96.474,119.313 L95.693,121.536 Z M139.15,145.755 L141.787,145.755 L114.638,76 L113.466,76 L113.466,79.287 L139.15,145.755 Z" stroke="none" />
        <path id="Baseline-S" d="M18,146 l800,0" />
        <path id="left-margin-Ultralight-S" d="M220,56 l0,110" />
        <path id="right-margin-Ultralight-S" d="M310,56 l0,110" />
        <path id="left-margin-Regular-S" d="M420,56 l0,110" />
        <path id="right-margin-Regular-S" d="M510,56 l0,110" />
        <path id="left-margin-Black-S" d="M620,56 l0,110" />
        <path id="right-margin-Black-S" d="M710,56 l0,110" />
        <path id="Capline-M" d="M18,276 l800,0" />
        <path id="Baseline-M" d="M18,346 l800,0" />
        <path id="Capline-L" d="M18,476 l800,0" />
        <path id="Baseline-L" d="M18,546 l800,0" />
    </g>
    <g id="Symbols">
        <g id="Ultralight-S">
            <path d="M294.615,78.692 L251.538,78.692 C250.824,78.692 250.14,78.976 249.635,79.481 C249.13,79.986 248.846,80.671 248.846,81.385 L248.846,94.846 L235.385,94.846 C234.671,94.846 233.986,95.13 233.481,95.635 C232.976,96.14 232.692,96.824 232.692,97.538 L232.692,140.615 C232.692,141.329 232.976,142.014 233.481,142.519 C233.986,143.024 234.671,143.308 235.385,143.308 L278.462,143.308 C279.176,143.308 279.86,143.024 280.365,142.519 C280.87,142.014 281.154,141.329 281.154,140.615 L281.154,127.154 L294.615,127.154 C295.329,127.154 296.014,126.87 296.519,126.365 C297.024,125.86 297.308,125.176 297.308,124.462 L297.308,81.385 C297.308,80.671 297.024,79.986 296.519,79.481 C296.014,78.976 295.329,78.692 294.615,78.692 Z M275.769,137.923 L238.077,137.923 L238.077,100.231 L275.769,100.231 Z M291.923,121.769 L281.154,121.769 L281.154,97.538 C281.154,96.824 280.87,96.14 280.365,95.635 C279.86,95.13 279.176,94.846 278.462,94.846 L254.231,94.846 L254.231,84.077 L291.923,84.077 Z" />
        </g>
        <g id="Regular-S">
            <path d="M494.615,78.692 L451.538,78.692 C450.824,78.692 450.14,78.976 449.635,79.481 C449.13,79.986 448.846,80.671 448.846,81.385 L448.846,94.846 L435.385,94.846 C434.671,94.846 433.986,95.13 433.481,95.635 C432.976,96.14 432.692,96.824 432.692,97.538 L432.692,140.615 C432.692,141.329 432.976,142.014 433.481,142.519 C433.986,143.024 434.671,143.308 435.385,143.308 L478.462,143.308 C479.176,143.308 479.86,143.024 480.365,142.519 C480.87,142.014 481.154,141.329 481.154,140.615 L481.154,127.154 L494.615,127.154 C495.329,127.154 496.014,126.87 496.519,126.365 C497.024,125.86 497.308,125.176 497.308,124.462 L497.308,81.385 C497.308,80.671 497.024,79.986 496.519,79.481 C496.014,78.976 495.329,78.692 494.615,78.692 Z M475.769,137.923 L438.077,137.923 L438.077,100.231 L475.769,100.231 Z M491.923,121.769 L481.154,121.769 L481.154,97.538 C481.154,96.824 480.87,96.14 480.365,95.635 C479.86,95.13 479.176,94.846 478.462,94.846 L454.231,94.846 L454.231,84.077 L491.923,84.077 Z" />
        </g>
        <g id="Black-S">
            <path d="M694.615,78.692 L651.538,78.692 C650.824,78.692 650.14,78.976 649.635,79.481 C649.13,79.986 648.846,80.671 648.846,81.385 L648.846,94.846 L635.385,94.846 C634.671,94.846 633.986,95.13 633.481,95.635 C632.976,96.14 632.692,96.824 632.692,97.538 L632.692,140.615 C632.692,141.329 632.976,142.014 633.481,142.519 C633.986,143.024 634.671,143.308 635.385,143.308 L678.462,143.308 C679.176,143.308 679.86,143.024 680.365,142.519 C680.87,142.014 681.154,141.329 681.154,140.615 L681.154,127.154 L694.615,127.154 C695.329,127.154 696.014,126.87 696.519,126.365 C697.024,125.86 697.308,125.176 697.308,124.462 L697.308,81.385 C697.308,80.671 697.024,79.986 696.519,79.481 C696.014,78.976 695.329,78.692 694.615,78.692 Z M675.769,137.923 L638.077,137.923 L638.077,100.231 L675.769,100.231 Z M691.923,121.769 L681.154,121.769 L681.154,97.538 C681.154,96.824 680.87,96.14 680.365,95.635 C679.86,95.13 679.176,94.846 678.462,94.846 L654.231,94.846 L654.231,84.077 L691.923,84.077 Z" />
        </g>
    </g>
</svg>