<?xml version="1.0" encoding="UTF-8"?>
<svg height="600" width="800" xmlns="http://www.w3.org/2000/svg" xmlns:xlink="http://www.w3.org/1999/xlink">
    <g id="Notes" font-family="'LucidaGrande', 'Lucida Grande', sans-serif" font-size="13">
        <rect fill="white" height="600.0" width="800.0" x="0.0" y="0.0" />
        <g font-size="13">
            <text x="18.0" y="176.0">Small</text>
            <text x="18.0" y="376.0">Medium</text>
            <text x="18.0" y="576.0">Large</text>
        </g>
        <g font-size="9">
            <text x="250.0" y="30.0">Ultralight</text>
            <text x="450.0" y="30.0">Regular</text>
            <text x="650.0" y="30.0">Black</text>
            <text id="template-version" fill="#505050" text-anchor="end" x="785.0" y="575.0">Template v.3.0</text>
            <a href="https://github.com/swhitty/SwiftDraw">
                <text fill="#505050" text-anchor="end" x="785.0" y="590.0">https://github.com/swhitty/SwiftDraw</text>
            </a>
        </g>
    </g>
    <g id="Guides" stroke="rgb(39, 170, 225)" stroke-width="0.5">
        <path id="Capline-S" d="M18,76 l800,0" />
        <path id="H-reference" d="M85,145.755 L87.685,145.755 L113.369,79.287 L114.052,79.287 L114.052,76 L112.148,76 L85,145.755 Z M95.693,121.536 L130.996,121.536 L130.263,119.313 L96.474,119.313 L95.693,121.536 Z M139.15,145.755 L141.787,145.755 L114.638,76 L113.466,76 L113.466,79.287 L139.15,145.755 Z" stroke="none" />
        <path id="Baseline-S" d="M18,146 l800,0" />
        <path id="left-margin-Ultralight-S" d="M220,56 l0,110" />
        <path id="right-margin-Ultralight-S" d="M310,56 l0,110" />
        <path id="left-margin-Regular-S" d="M420,56 l0,110" />
        <path id="right-margin-Regular-S" d="M510,56 l0,110" />
        <path id="left-margin-Black-S" d="M620,56 l0,110" />
        <path id="right-margin-Black-S" d="M710,56 l0,110" />
        <path id="Capline-M" d="M18,276 l800,0" />
        <path id="Baseline-M" d="M18,346 l800,0" />
        <path id="Capline-L" d="M18,476 l800,0" />
        <path id="Baseline-L" d="M18,546 l800,0" />
    </g>
    <g id="Symbols">
        <g id="Ultralight-S">
            <path d="M301.905,90.249 C301.4,89.743 300.715,89.459 300,89.459 C299.285,89.459 298.6,89.743 298.095,90.249 L286.538,101.809 L274.191,89.462 L285.751,77.905 C286.803,76.851 286.802,75.146 285.75,74.094 C284.697,73.043 282.992,73.044 281.94,74.096 L270.385,85.655 L261.52,76.788 C260.47,75.736 258.764,75.735 257.712,76.786 C256.659,77.838 256.658,79.543 257.71,80.596 L259.848,82.731 L242.011,100.567 C239.486,103.092 238.068,106.516 238.068,110.086 C238.068,113.657 239.486,117.081 242.011,119.605 L247.298,124.892 L230.788,141.403 C229.735,142.457 229.736,144.162 230.789,145.214 C231.841,146.265 233.547,146.264 234.598,145.211 L251.119,128.691 L256.406,133.978 C258.93,136.502 262.355,137.921 265.925,137.921 C269.495,137.921 272.919,136.502 275.444,133.978 L293.28,116.141 L295.414,118.278 C296.464,119.33 298.17,119.331 299.223,118.279 C300.275,117.228 300.276,115.522 299.225,114.47 L290.345,105.615 L301.905,94.059 C302.41,93.554 302.694,92.868 302.694,92.154 C302.694,91.439 302.41,90.754 301.905,90.249 Z M271.637,130.183 C270.122,131.698 268.067,132.55 265.924,132.55 C263.781,132.55 261.726,131.698 260.211,130.183 L245.817,115.789 C244.302,114.274 243.45,112.219 243.45,110.076 C243.45,107.933 244.302,105.878 245.817,104.363 L263.654,86.527 L289.463,112.346 Z" />
        </g>
        <g id="Regular-S">
            <path d="M501.905,90.249 C501.4,89.743 500.715,89.459 500,89.459 C499.285,89.459 498.6,89.743 498.095,90.249 L486.538,101.809 L474.191,89.462 L485.751,77.905 C486.803,76.851 486.802,75.146 485.75,74.094 C484.697,73.043 482.992,73.044 481.94,74.096 L470.385,85.655 L461.52,76.788 C460.47,75.736 458.764,75.735 457.712,76.786 C456.659,77.838 456.658,79.543 457.71,80.596 L459.848,82.731 L442.011,100.567 C439.486,103.092 438.068,106.516 438.068,110.086 C438.068,113.657 439.486,117.081 442.011,119.605 L447.298,124.892 L430.787,141.403 C429.735,142.457 429.736,144.162 430.789,145.214 C431.841,146.265 433.547,146.264 434.598,145.211 L451.119,128.691 L456.406,133.978 C458.93,136.502 462.354,137.921 465.925,137.921 C469.495,137.921 472.919,136.502 475.444,133.978 L493.28,116.141 L495.414,118.278 C496.464,119.33 498.17,119.331 499.223,118.279 C500.275,117.228 500.276,115.522 499.225,114.47 L490.345,105.615 L501.905,94.059 C502.41,93.554 502.694,92.868 502.694,92.154 C502.694,91.439 502.41,90.754 501.905,90.249 Z M471.637,130.183 C470.122,131.698 468.067,132.55 465.924,132.55 C463.781,132.55 461.726,131.698 460.211,130.183 L445.817,115.789 C444.302,114.274 443.45,112.219 443.45,110.076 C443.45,107.933 444.302,105.878 445.817,104.363 L463.654,86.527 L489.463,112.346 Z" />
        </g>
        <g id="Black-S">
            <path d="M701.905,90.249 C701.4,89.743 700.715,89.459 700,89.459 C699.285,89.459 698.6,89.743 698.095,90.249 L686.538,101.809 L674.191,89.462 L685.751,77.905 C686.803,76.851 686.802,75.146 685.75,74.094 C684.697,73.043 682.992,73.044 681.94,74.096 L670.385,85.655 L661.52,76.788 C660.47,75.736 658.764,75.735 657.712,76.786 C656.659,77.838 656.658,79.543 657.71,80.596 L659.848,82.731 L642.011,100.567 C639.486,103.092 638.068,106.516 638.068,110.086 C638.068,113.657 639.486,117.081 642.011,119.605 L647.298,124.892 L630.788,141.403 C629.735,142.457 629.736,144.162 630.789,145.214 C631.841,146.265 633.547,146.264 634.598,145.211 L651.119,128.691 L656.406,133.978 C658.93,136.502 662.355,137.921 665.925,137.921 C669.495,137.921 672.919,136.502 675.444,133.978 L693.28,116.141 L695.414,118.278 C696.464,119.33 698.17,119.331 699.223,118.279 C700.275,117.228 700.276,115.522 699.225,114.47 L690.345,105.615 L701.905,94.059 C702.41,93.554 702.694,92.868 702.694,92.154 C702.694,91.439 702.41,90.754 701.905,90.249 Z M671.637,130.183 C670.122,131.698 668.067,132.55 665.924,132.55 C663.781,132.55 661.726,131.698 660.211,130.183 L645.817,115.789 C644.302,114.274 643.45,112.219 643.45,110.076 C643.45,107.933 644.302,105.878 645.817,104.363 L663.654,86.527 L689.463,112.346 Z" />
        </g>
    </g>
</svg>