<?xml version="1.0" encoding="UTF-8"?>
<svg height="600" width="800" xmlns="http://www.w3.org/2000/svg" xmlns:xlink="http://www.w3.org/1999/xlink">
    <g id="Notes" font-family="'LucidaGrande', 'Lucida Grande', sans-serif" font-size="13">
        <rect fill="white" height="600.0" width="800.0" x="0.0" y="0.0" />
        <g font-size="13">
            <text x="18.0" y="176.0">Small</text>
            <text x="18.0" y="376.0">Medium</text>
            <text x="18.0" y="576.0">Large</text>
        </g>
        <g font-size="9">
            <text x="250.0" y="30.0">Ultralight</text>
            <text x="450.0" y="30.0">Regular</text>
            <text x="650.0" y="30.0">Black</text>
            <text id="template-version" fill="#505050" text-anchor="end" x="785.0" y="575.0">Template v.3.0</text>
            <a href="https://github.com/swhitty/SwiftDraw">
                <text fill="#505050" text-anchor="end" x="785.0" y="590.0">https://github.com/swhitty/SwiftDraw</text>
            </a>
        </g>
    </g>
    <g id="Guides" stroke="rgb(39, 170, 225)" stroke-width="0.5">
        <path id="Capline-S" d="M18,76 l800,0" />
        <path id="H-reference" d="M85,145.755 L87.685,145.755 L113.369,79.287 L114.052,79.287 L114.052,76 L112.148,76 L85,145.755 Z M95.693,121.536 L130.996,121.536 L130.263,119.313 L96.474,119.313 L95.693,121.536 Z M139.15,145.755 L141.787,145.755 L114.638,76 L113.466,76 L113.466,79.287 L139.15,145.755 Z" stroke="none" />
        <path id="Baseline-S" d="M18,146 l800,0" />
        <path id="left-margin-Ultralight-S" d="M220,56 l0,110" />
        <path id="right-margin-Ultralight-S" d="M310,56 l0,110" />
        <path id="left-margin-Regular-S" d="M420,56 l0,110" />
        <path id="right-margin-Regular-S" d="M510,56 l0,110" />
        <path id="left-margin-Black-S" d="M620,56 l0,110" />
        <path id="right-margin-Black-S" d="M710,56 l0,110" />
        <path id="Capline-M" d="M18,276 l800,0" />
        <path id="Baseline-M" d="M18,346 l800,0" />
        <path id="Capline-L" d="M18,476 l800,0" />
        <path id="Baseline-L" d="M18,546 l800,0" />
    </g>
    <g id="Symbols">
        <g id="Ultralight-S">
            <path d="M302.692,132.538 C302.692,133.253 302.409,133.937 301.904,134.442 C301.399,134.947 300.714,135.231 300,135.231 L251.538,135.231 C250.824,135.231 250.14,134.947 249.635,134.442 C249.13,133.937 248.846,133.253 248.846,132.538 L248.846,90.575 L237.289,102.136 C236.239,103.187 234.533,103.188 233.481,102.137 C232.428,101.085 232.427,99.38 233.479,98.327 L249.633,82.173 C250.138,81.668 250.823,81.384 251.537,81.384 C252.252,81.384 252.937,81.668 253.442,82.173 L269.596,98.327 C270.649,99.381 270.648,101.086 269.595,102.138 C268.542,103.189 266.837,103.188 265.785,102.136 L254.231,90.575 L254.231,129.846 L300,129.846 C300.714,129.846 301.399,130.13 301.904,130.635 C302.409,131.14 302.692,131.824 302.692,132.538 Z" />
        </g>
        <g id="Regular-S">
            <path d="M502.692,132.538 C502.692,133.253 502.409,133.937 501.904,134.442 C501.399,134.947 500.714,135.231 500,135.231 L451.538,135.231 C450.824,135.231 450.14,134.947 449.635,134.442 C449.13,133.937 448.846,133.253 448.846,132.538 L448.846,90.575 L437.289,102.136 C436.239,103.187 434.533,103.188 433.481,102.137 C432.428,101.085 432.427,99.38 433.479,98.327 L449.633,82.173 C450.138,81.668 450.823,81.384 451.537,81.384 C452.252,81.384 452.937,81.668 453.442,82.173 L469.596,98.327 C470.649,99.381 470.648,101.086 469.595,102.138 C468.542,103.189 466.837,103.188 465.785,102.136 L454.231,90.575 L454.231,129.846 L500,129.846 C500.714,129.846 501.399,130.13 501.904,130.635 C502.409,131.14 502.692,131.824 502.692,132.538 Z" />
        </g>
        <g id="Black-S">
            <path d="M702.692,132.538 C702.692,133.253 702.409,133.937 701.904,134.442 C701.399,134.947 700.714,135.231 700,135.231 L651.538,135.231 C650.824,135.231 650.14,134.947 649.635,134.442 C649.13,133.937 648.846,133.253 648.846,132.538 L648.846,90.575 L637.289,102.136 C636.239,103.187 634.533,103.188 633.481,102.137 C632.428,101.085 632.427,99.38 633.479,98.327 L649.633,82.173 C650.138,81.668 650.823,81.384 651.537,81.384 C652.252,81.384 652.937,81.668 653.442,82.173 L669.596,98.327 C670.649,99.381 670.648,101.086 669.595,102.138 C668.542,103.189 666.837,103.188 665.785,102.136 L654.231,90.575 L654.231,129.846 L700,129.846 C700.714,129.846 701.399,130.13 701.904,130.635 C702.409,131.14 702.692,131.824 702.692,132.538 Z" />
        </g>
    </g>
</svg>