<?xml version="1.0" encoding="UTF-8"?>
<svg height="600" width="800" xmlns="http://www.w3.org/2000/svg" xmlns:xlink="http://www.w3.org/1999/xlink">
    <g id="Notes" font-family="'LucidaGrande', 'Lucida Grande', sans-serif" font-size="13">
        <rect fill="white" height="600.0" width="800.0" x="0.0" y="0.0" />
        <g font-size="13">
            <text x="18.0" y="176.0">Small</text>
            <text x="18.0" y="376.0">Medium</text>
            <text x="18.0" y="576.0">Large</text>
        </g>
        <g font-size="9">
            <text x="250.0" y="30.0">Ultralight</text>
            <text x="450.0" y="30.0">Regular</text>
            <text x="650.0" y="30.0">Black</text>
            <text id="template-version" fill="#505050" text-anchor="end" x="785.0" y="575.0">Template v.3.0</text>
            <a href="https://github.com/swhitty/SwiftDraw">
                <text fill="#505050" text-anchor="end" x="785.0" y="590.0">https://github.com/swhitty/SwiftDraw</text>
            </a>
        </g>
    </g>
    <g id="Guides" stroke="rgb(39, 170, 225)" stroke-width="0.5">
        <path id="Capline-S" d="M18,76 l800,0" />
        <path id="H-reference" d="M85,145.755 L87.685,145.755 L113.369,79.287 L114.052,79.287 L114.052,76 L112.148,76 L85,145.755 Z M95.693,121.536 L130.996,121.536 L130.263,119.313 L96.474,119.313 L95.693,121.536 Z M139.15,145.755 L141.787,145.755 L114.638,76 L113.466,76 L113.466,79.287 L139.15,145.755 Z" stroke="none" />
        <path id="Baseline-S" d="M18,146 l800,0" />
        <path id="left-margin-Ultralight-S" d="M220,56 l0,110" />
        <path id="right-margin-Ultralight-S" d="M310,56 l0,110" />
        <path id="left-margin-Regular-S" d="M420,56 l0,110" />
        <path id="right-margin-Regular-S" d="M510,56 l0,110" />
        <path id="left-margin-Black-S" d="M620,56 l0,110" />
        <path id="right-margin-Black-S" d="M710,56 l0,110" />
        <path id="Capline-M" d="M18,276 l800,0" />
        <path id="Baseline-M" d="M18,346 l800,0" />
        <path id="Capline-L" d="M18,476 l800,0" />
        <path id="Baseline-L" d="M18,546 l800,0" />
    </g>
    <g id="Symbols">
        <g id="Ultralight-S">
            <path d="M291.923,105.615 L238.077,105.615 C236.649,105.615 235.279,106.183 234.269,107.193 C233.26,108.202 232.692,109.572 232.692,111 L232.692,119.077 C232.692,120.505 233.26,121.875 234.269,122.884 C235.279,123.894 236.649,124.462 238.077,124.462 L291.923,124.462 C293.351,124.462 294.721,123.894 295.731,122.884 C296.74,121.875 297.308,120.505 297.308,119.077 L297.308,111 C297.308,109.572 296.74,108.202 295.731,107.193 C294.721,106.183 293.351,105.615 291.923,105.615 Z M291.923,119.077 L238.077,119.077 L238.077,111 L291.923,111 L291.923,119.077 Z M291.923,81.385 L238.077,81.385 C236.649,81.385 235.279,81.952 234.269,82.962 C233.26,83.972 232.692,85.341 232.692,86.769 L232.692,94.846 C232.692,96.274 233.26,97.644 234.269,98.654 C235.279,99.663 236.649,100.231 238.077,100.231 L291.923,100.231 C293.351,100.231 294.721,99.663 295.731,98.654 C296.74,97.644 297.308,96.274 297.308,94.846 L297.308,86.769 C297.308,85.341 296.74,83.972 295.731,82.962 C294.721,81.952 293.351,81.385 291.923,81.385 Z M291.923,94.846 L238.077,94.846 L238.077,86.769 L291.923,86.769 L291.923,94.846 Z M275.769,140.615 C275.769,141.329 275.486,142.014 274.981,142.519 C274.476,143.024 273.791,143.308 273.077,143.308 L267.692,143.308 L267.692,148.692 C267.692,150.179 266.487,151.385 265,151.385 C263.513,151.385 262.308,150.179 262.308,148.692 L262.308,143.308 L256.923,143.308 C255.436,143.308 254.231,142.102 254.231,140.615 C254.231,139.128 255.436,137.923 256.923,137.923 L262.308,137.923 L262.308,132.538 C262.308,131.052 263.513,129.846 265,129.846 C266.487,129.846 267.692,131.052 267.692,132.538 L267.692,137.923 L273.077,137.923 C273.791,137.923 274.476,138.207 274.981,138.712 C275.486,139.217 275.769,139.901 275.769,140.615 Z" />
        </g>
        <g id="Regular-S">
            <path d="M491.923,105.615 L438.077,105.615 C436.649,105.615 435.279,106.183 434.269,107.193 C433.26,108.202 432.692,109.572 432.692,111 L432.692,119.077 C432.692,120.505 433.26,121.875 434.269,122.884 C435.279,123.894 436.649,124.462 438.077,124.462 L491.923,124.462 C493.351,124.462 494.721,123.894 495.731,122.884 C496.74,121.875 497.308,120.505 497.308,119.077 L497.308,111 C497.308,109.572 496.74,108.202 495.731,107.193 C494.721,106.183 493.351,105.615 491.923,105.615 Z M491.923,119.077 L438.077,119.077 L438.077,111 L491.923,111 L491.923,119.077 Z M491.923,81.385 L438.077,81.385 C436.649,81.385 435.279,81.952 434.269,82.962 C433.26,83.972 432.692,85.341 432.692,86.769 L432.692,94.846 C432.692,96.274 433.26,97.644 434.269,98.654 C435.279,99.663 436.649,100.231 438.077,100.231 L491.923,100.231 C493.351,100.231 494.721,99.663 495.731,98.654 C496.74,97.644 497.308,96.274 497.308,94.846 L497.308,86.769 C497.308,85.341 496.74,83.972 495.731,82.962 C494.721,81.952 493.351,81.385 491.923,81.385 Z M491.923,94.846 L438.077,94.846 L438.077,86.769 L491.923,86.769 L491.923,94.846 Z M475.769,140.615 C475.769,141.329 475.486,142.014 474.981,142.519 C474.476,143.024 473.791,143.308 473.077,143.308 L467.692,143.308 L467.692,148.692 C467.692,150.179 466.487,151.385 465,151.385 C463.513,151.385 462.308,150.179 462.308,148.692 L462.308,143.308 L456.923,143.308 C455.436,143.308 454.231,142.102 454.231,140.615 C454.231,139.128 455.436,137.923 456.923,137.923 L462.308,137.923 L462.308,132.538 C462.308,131.052 463.513,129.846 465,129.846 C466.487,129.846 467.692,131.052 467.692,132.538 L467.692,137.923 L473.077,137.923 C473.791,137.923 474.476,138.207 474.981,138.712 C475.486,139.217 475.769,139.901 475.769,140.615 Z" />
        </g>
        <g id="Black-S">
            <path d="M691.923,105.615 L638.077,105.615 C636.649,105.615 635.279,106.183 634.269,107.193 C633.26,108.202 632.692,109.572 632.692,111 L632.692,119.077 C632.692,120.505 633.26,121.875 634.269,122.884 C635.279,123.894 636.649,124.462 638.077,124.462 L691.923,124.462 C693.351,124.462 694.721,123.894 695.731,122.884 C696.74,121.875 697.308,120.505 697.308,119.077 L697.308,111 C697.308,109.572 696.74,108.202 695.731,107.193 C694.721,106.183 693.351,105.615 691.923,105.615 Z M691.923,119.077 L638.077,119.077 L638.077,111 L691.923,111 L691.923,119.077 Z M691.923,81.385 L638.077,81.385 C636.649,81.385 635.279,81.952 634.269,82.962 C633.26,83.972 632.692,85.341 632.692,86.769 L632.692,94.846 C632.692,96.274 633.26,97.644 634.269,98.654 C635.279,99.663 636.649,100.231 638.077,100.231 L691.923,100.231 C693.351,100.231 694.721,99.663 695.731,98.654 C696.74,97.644 697.308,96.274 697.308,94.846 L697.308,86.769 C697.308,85.341 696.74,83.972 695.731,82.962 C694.721,81.952 693.351,81.385 691.923,81.385 Z M691.923,94.846 L638.077,94.846 L638.077,86.769 L691.923,86.769 L691.923,94.846 Z M675.769,140.615 C675.769,141.329 675.486,142.014 674.981,142.519 C674.476,143.024 673.791,143.308 673.077,143.308 L667.692,143.308 L667.692,148.692 C667.692,150.179 666.487,151.385 665,151.385 C663.513,151.385 662.308,150.179 662.308,148.692 L662.308,143.308 L656.923,143.308 C655.436,143.308 654.231,142.102 654.231,140.615 C654.231,139.128 655.436,137.923 656.923,137.923 L662.308,137.923 L662.308,132.538 C662.308,131.052 663.513,129.846 665,129.846 C666.487,129.846 667.692,131.052 667.692,132.538 L667.692,137.923 L673.077,137.923 C673.791,137.923 674.476,138.207 674.981,138.712 C675.486,139.217 675.769,139.901 675.769,140.615 Z" />
        </g>
    </g>
</svg>