<?xml version="1.0" encoding="UTF-8"?>
<svg height="600" width="800" xmlns="http://www.w3.org/2000/svg" xmlns:xlink="http://www.w3.org/1999/xlink">
    <g id="Notes" font-family="'LucidaGrande', 'Lucida Grande', sans-serif" font-size="13">
        <rect fill="white" height="600.0" width="800.0" x="0.0" y="0.0" />
        <g font-size="13">
            <text x="18.0" y="176.0">Small</text>
            <text x="18.0" y="376.0">Medium</text>
            <text x="18.0" y="576.0">Large</text>
        </g>
        <g font-size="9">
            <text x="250.0" y="30.0">Ultralight</text>
            <text x="450.0" y="30.0">Regular</text>
            <text x="650.0" y="30.0">Black</text>
            <text id="template-version" fill="#505050" text-anchor="end" x="785.0" y="575.0">Template v.3.0</text>
            <a href="https://github.com/swhitty/SwiftDraw">
                <text fill="#505050" text-anchor="end" x="785.0" y="590.0">https://github.com/swhitty/SwiftDraw</text>
            </a>
        </g>
    </g>
    <g id="Guides" stroke="rgb(39, 170, 225)" stroke-width="0.5">
        <path id="Capline-S" d="M18,76 l800,0" />
        <path id="H-reference" d="M85,145.755 L87.685,145.755 L113.369,79.287 L114.052,79.287 L114.052,76 L112.148,76 L85,145.755 Z M95.693,121.536 L130.996,121.536 L130.263,119.313 L96.474,119.313 L95.693,121.536 Z M139.15,145.755 L141.787,145.755 L114.638,76 L113.466,76 L113.466,79.287 L139.15,145.755 Z" stroke="none" />
        <path id="Baseline-S" d="M18,146 l800,0" />
        <path id="left-margin-Ultralight-S" d="M220,56 l0,110" />
        <path id="right-margin-Ultralight-S" d="M310,56 l0,110" />
        <path id="left-margin-Regular-S" d="M420,56 l0,110" />
        <path id="right-margin-Regular-S" d="M510,56 l0,110" />
        <path id="left-margin-Black-S" d="M620,56 l0,110" />
        <path id="right-margin-Black-S" d="M710,56 l0,110" />
        <path id="Capline-M" d="M18,276 l800,0" />
        <path id="Baseline-M" d="M18,346 l800,0" />
        <path id="Capline-L" d="M18,476 l800,0" />
        <path id="Baseline-L" d="M18,546 l800,0" />
    </g>
    <g id="Symbols">
        <g id="Ultralight-S">
            <path d="M304.712,103.815 L293.38,91.245 C292.36,90.11 290.905,89.462 289.379,89.462 L267.692,89.462 L267.692,78.692 C267.692,77.205 266.487,76 265,76 C263.513,76 262.308,77.205 262.308,78.692 L262.308,89.462 L235.385,89.462 C233.957,89.462 232.587,90.029 231.577,91.039 C230.567,92.048 230,93.418 230,94.846 L230,116.385 C230,117.813 230.567,119.182 231.577,120.192 C232.587,121.202 233.957,121.769 235.385,121.769 L262.308,121.769 L262.308,143.308 C262.308,144.795 263.513,146 265,146 C266.487,146 267.692,144.795 267.692,143.308 L267.692,121.769 L289.379,121.769 C290.905,121.769 292.36,121.12 293.38,119.986 L304.712,107.416 C305.632,106.392 305.632,104.839 304.712,103.815 Z M289.379,116.385 L235.385,116.385 L235.385,94.846 L289.379,94.846 L299.071,105.615 Z" />
        </g>
        <g id="Regular-S">
            <path d="M504.712,103.815 L493.38,91.245 C492.36,90.11 490.905,89.462 489.379,89.462 L467.692,89.462 L467.692,78.692 C467.692,77.205 466.487,76 465,76 C463.513,76 462.308,77.205 462.308,78.692 L462.308,89.462 L435.385,89.462 C433.957,89.462 432.587,90.029 431.577,91.039 C430.567,92.048 430,93.418 430,94.846 L430,116.385 C430,117.813 430.567,119.182 431.577,120.192 C432.587,121.202 433.957,121.769 435.385,121.769 L462.308,121.769 L462.308,143.308 C462.308,144.795 463.513,146 465,146 C466.487,146 467.692,144.795 467.692,143.308 L467.692,121.769 L489.379,121.769 C490.905,121.769 492.36,121.12 493.38,119.986 L504.712,107.416 C505.632,106.392 505.632,104.839 504.712,103.815 Z M489.379,116.385 L435.385,116.385 L435.385,94.846 L489.379,94.846 L499.071,105.615 Z" />
        </g>
        <g id="Black-S">
            <path d="M704.712,103.815 L693.38,91.245 C692.36,90.11 690.905,89.462 689.379,89.462 L667.692,89.462 L667.692,78.692 C667.692,77.205 666.487,76 665,76 C663.513,76 662.308,77.205 662.308,78.692 L662.308,89.462 L635.385,89.462 C633.957,89.462 632.587,90.029 631.577,91.039 C630.567,92.048 630,93.418 630,94.846 L630,116.385 C630,117.813 630.567,119.182 631.577,120.192 C632.587,121.202 633.957,121.769 635.385,121.769 L662.308,121.769 L662.308,143.308 C662.308,144.795 663.513,146 665,146 C666.487,146 667.692,144.795 667.692,143.308 L667.692,121.769 L689.379,121.769 C690.905,121.769 692.36,121.12 693.38,119.986 L704.712,107.416 C705.632,106.392 705.632,104.839 704.712,103.815 Z M689.379,116.385 L635.385,116.385 L635.385,94.846 L689.379,94.846 L699.071,105.615 Z" />
        </g>
    </g>
</svg>