<?xml version="1.0" encoding="UTF-8"?>
<svg height="600" width="800" xmlns="http://www.w3.org/2000/svg" xmlns:xlink="http://www.w3.org/1999/xlink">
    <g id="Notes" font-family="'LucidaGrande', 'Lucida Grande', sans-serif" font-size="13">
        <rect fill="white" height="600.0" width="800.0" x="0.0" y="0.0" />
        <g font-size="13">
            <text x="18.0" y="176.0">Small</text>
            <text x="18.0" y="376.0">Medium</text>
            <text x="18.0" y="576.0">Large</text>
        </g>
        <g font-size="9">
            <text x="250.0" y="30.0">Ultralight</text>
            <text x="450.0" y="30.0">Regular</text>
            <text x="650.0" y="30.0">Black</text>
            <text id="template-version" fill="#505050" text-anchor="end" x="785.0" y="575.0">Template v.3.0</text>
            <a href="https://github.com/swhitty/SwiftDraw">
                <text fill="#505050" text-anchor="end" x="785.0" y="590.0">https://github.com/swhitty/SwiftDraw</text>
            </a>
        </g>
    </g>
    <g id="Guides" stroke="rgb(39, 170, 225)" stroke-width="0.5">
        <path id="Capline-S" d="M18,76 l800,0" />
        <path id="H-reference" d="M85,145.755 L87.685,145.755 L113.369,79.287 L114.052,79.287 L114.052,76 L112.148,76 L85,145.755 Z M95.693,121.536 L130.996,121.536 L130.263,119.313 L96.474,119.313 L95.693,121.536 Z M139.15,145.755 L141.787,145.755 L114.638,76 L113.466,76 L113.466,79.287 L139.15,145.755 Z" stroke="none" />
        <path id="Baseline-S" d="M18,146 l800,0" />
        <path id="left-margin-Ultralight-S" d="M220,56 l0,110" />
        <path id="right-margin-Ultralight-S" d="M310,56 l0,110" />
        <path id="left-margin-Regular-S" d="M420,56 l0,110" />
        <path id="right-margin-Regular-S" d="M510,56 l0,110" />
        <path id="left-margin-Black-S" d="M620,56 l0,110" />
        <path id="right-margin-Black-S" d="M710,56 l0,110" />
        <path id="Capline-M" d="M18,276 l800,0" />
        <path id="Baseline-M" d="M18,346 l800,0" />
        <path id="Capline-L" d="M18,476 l800,0" />
        <path id="Baseline-L" d="M18,546 l800,0" />
    </g>
    <g id="Symbols">
        <g id="Ultralight-S">
            <path d="M291.136,136.018 C292.188,137.072 292.187,138.778 291.135,139.829 C290.082,140.88 288.376,140.879 287.325,139.827 L260.402,112.904 C259.896,112.399 259.612,111.714 259.612,110.999 C259.612,110.284 259.896,109.599 260.402,109.094 L287.325,82.171 C288.375,81.12 290.081,81.119 291.133,82.17 C292.186,83.221 292.187,84.927 291.136,85.98 L266.114,111 Z M239.191,111 L264.212,85.982 C265.265,84.928 265.264,83.222 264.211,82.171 C263.159,81.12 261.453,81.121 260.402,82.173 L233.479,109.096 C232.973,109.601 232.689,110.286 232.689,111.001 C232.689,111.716 232.973,112.401 233.479,112.906 L260.402,139.829 C261.452,140.88 263.158,140.881 264.21,139.83 C265.263,138.779 265.264,137.073 264.212,136.02 Z" />
        </g>
        <g id="Regular-S">
            <path d="M491.136,136.018 C492.188,137.072 492.187,138.778 491.135,139.829 C490.082,140.88 488.376,140.879 487.325,139.827 L460.402,112.904 C459.896,112.399 459.612,111.714 459.612,110.999 C459.612,110.284 459.896,109.599 460.402,109.094 L487.325,82.171 C488.375,81.12 490.081,81.119 491.133,82.17 C492.186,83.221 492.187,84.927 491.136,85.98 L466.114,111 Z M439.191,111 L464.212,85.982 C465.265,84.928 465.264,83.222 464.211,82.171 C463.159,81.12 461.453,81.121 460.402,82.173 L433.479,109.096 C432.973,109.601 432.689,110.286 432.689,111.001 C432.689,111.716 432.973,112.401 433.479,112.906 L460.402,139.829 C461.452,140.88 463.158,140.881 464.21,139.83 C465.263,138.779 465.264,137.073 464.212,136.02 Z" />
        </g>
        <g id="Black-S">
            <path d="M691.136,136.018 C692.188,137.072 692.187,138.778 691.135,139.829 C690.082,140.88 688.376,140.879 687.325,139.827 L660.402,112.904 C659.896,112.399 659.612,111.714 659.612,110.999 C659.612,110.284 659.896,109.599 660.402,109.094 L687.325,82.171 C688.375,81.12 690.081,81.119 691.133,82.17 C692.186,83.221 692.187,84.927 691.136,85.98 L666.114,111 Z M639.191,111 L664.213,85.982 C665.265,84.928 665.264,83.222 664.211,82.171 C663.159,81.12 661.453,81.121 660.402,82.173 L633.479,109.096 C632.973,109.601 632.689,110.286 632.689,111.001 C632.689,111.716 632.973,112.401 633.479,112.906 L660.402,139.829 C661.452,140.88 663.158,140.881 664.21,139.83 C665.263,138.779 665.264,137.073 664.213,136.02 Z" />
        </g>
    </g>
</svg>