<?xml version="1.0" encoding="UTF-8"?>
<svg height="600" width="800" xmlns="http://www.w3.org/2000/svg" xmlns:xlink="http://www.w3.org/1999/xlink">
    <g id="Notes" font-family="'LucidaGrande', 'Lucida Grande', sans-serif" font-size="13">
        <rect fill="white" height="600.0" width="800.0" x="0.0" y="0.0" />
        <g font-size="13">
            <text x="18.0" y="176.0">Small</text>
            <text x="18.0" y="376.0">Medium</text>
            <text x="18.0" y="576.0">Large</text>
        </g>
        <g font-size="9">
            <text x="250.0" y="30.0">Ultralight</text>
            <text x="450.0" y="30.0">Regular</text>
            <text x="650.0" y="30.0">Black</text>
            <text id="template-version" fill="#505050" text-anchor="end" x="785.0" y="575.0">Template v.3.0</text>
            <a href="https://github.com/swhitty/SwiftDraw">
                <text fill="#505050" text-anchor="end" x="785.0" y="590.0">https://github.com/swhitty/SwiftDraw</text>
            </a>
        </g>
    </g>
    <g id="Guides" stroke="rgb(39, 170, 225)" stroke-width="0.5">
        <path id="Capline-S" d="M18,76 l800,0" />
        <path id="H-reference" d="M85,145.755 L87.685,145.755 L113.369,79.287 L114.052,79.287 L114.052,76 L112.148,76 L85,145.755 Z M95.693,121.536 L130.996,121.536 L130.263,119.313 L96.474,119.313 L95.693,121.536 Z M139.15,145.755 L141.787,145.755 L114.638,76 L113.466,76 L113.466,79.287 L139.15,145.755 Z" stroke="none" />
        <path id="Baseline-S" d="M18,146 l800,0" />
        <path id="left-margin-Ultralight-S" d="M220,56 l0,110" />
        <path id="right-margin-Ultralight-S" d="M310,56 l0,110" />
        <path id="left-margin-Regular-S" d="M420,56 l0,110" />
        <path id="right-margin-Regular-S" d="M510,56 l0,110" />
        <path id="left-margin-Black-S" d="M620,56 l0,110" />
        <path id="right-margin-Black-S" d="M710,56 l0,110" />
        <path id="Capline-M" d="M18,276 l800,0" />
        <path id="Baseline-M" d="M18,346 l800,0" />
        <path id="Capline-L" d="M18,476 l800,0" />
        <path id="Baseline-L" d="M18,546 l800,0" />
    </g>
    <g id="Symbols">
        <g id="Ultralight-S">
            <path d="M273.077,108.308 L267.692,108.308 L267.692,86.769 L270.385,86.769 C273.241,86.769 275.98,87.904 278,89.923 C280.019,91.943 281.154,94.682 281.154,97.538 C281.154,99.025 282.359,100.231 283.846,100.231 C285.333,100.231 286.538,99.025 286.538,97.538 C286.529,88.621 279.302,81.394 270.385,81.385 L267.692,81.385 L267.692,76 C267.692,74.513 266.487,73.308 265,73.308 C263.513,73.308 262.308,74.513 262.308,76 L262.308,81.385 L259.615,81.385 C250.694,81.385 243.462,88.617 243.462,97.538 C243.462,106.46 250.694,113.692 259.615,113.692 L262.308,113.692 L262.308,135.231 L256.923,135.231 C254.067,135.231 251.328,134.096 249.308,132.077 C247.288,130.057 246.154,127.318 246.154,124.462 C246.154,122.975 244.948,121.769 243.462,121.769 C241.975,121.769 240.769,122.975 240.769,124.462 C240.778,133.379 248.005,140.606 256.923,140.615 L262.308,140.615 L262.308,146 C262.308,147.487 263.513,148.692 265,148.692 C266.487,148.692 267.692,147.487 267.692,146 L267.692,140.615 L273.077,140.615 C281.998,140.615 289.231,133.383 289.231,124.462 C289.231,115.54 281.998,108.308 273.077,108.308 Z M259.615,108.308 C253.668,108.308 248.846,103.486 248.846,97.538 C248.846,91.591 253.668,86.769 259.615,86.769 L262.308,86.769 L262.308,108.308 Z M273.077,135.231 L267.692,135.231 L267.692,113.692 L273.077,113.692 C279.025,113.692 283.846,118.514 283.846,124.462 C283.846,130.409 279.025,135.231 273.077,135.231 Z" />
        </g>
        <g id="Regular-S">
            <path d="M473.077,108.308 L467.692,108.308 L467.692,86.769 L470.385,86.769 C473.241,86.769 475.98,87.904 478,89.923 C480.019,91.943 481.154,94.682 481.154,97.538 C481.154,99.025 482.359,100.231 483.846,100.231 C485.333,100.231 486.538,99.025 486.538,97.538 C486.529,88.621 479.302,81.394 470.385,81.385 L467.692,81.385 L467.692,76 C467.692,74.513 466.487,73.308 465,73.308 C463.513,73.308 462.308,74.513 462.308,76 L462.308,81.385 L459.615,81.385 C450.694,81.385 443.462,88.617 443.462,97.538 C443.462,106.46 450.694,113.692 459.615,113.692 L462.308,113.692 L462.308,135.231 L456.923,135.231 C454.067,135.231 451.328,134.096 449.308,132.077 C447.288,130.057 446.154,127.318 446.154,124.462 C446.154,122.975 444.948,121.769 443.462,121.769 C441.975,121.769 440.769,122.975 440.769,124.462 C440.778,133.379 448.005,140.606 456.923,140.615 L462.308,140.615 L462.308,146 C462.308,147.487 463.513,148.692 465,148.692 C466.487,148.692 467.692,147.487 467.692,146 L467.692,140.615 L473.077,140.615 C481.998,140.615 489.231,133.383 489.231,124.462 C489.231,115.54 481.998,108.308 473.077,108.308 Z M459.615,108.308 C453.668,108.308 448.846,103.486 448.846,97.538 C448.846,91.591 453.668,86.769 459.615,86.769 L462.308,86.769 L462.308,108.308 Z M473.077,135.231 L467.692,135.231 L467.692,113.692 L473.077,113.692 C479.025,113.692 483.846,118.514 483.846,124.462 C483.846,130.409 479.025,135.231 473.077,135.231 Z" />
        </g>
        <g id="Black-S">
            <path d="M673.077,108.308 L667.692,108.308 L667.692,86.769 L670.385,86.769 C673.241,86.769 675.98,87.904 678,89.923 C680.019,91.943 681.154,94.682 681.154,97.538 C681.154,99.025 682.359,100.231 683.846,100.231 C685.333,100.231 686.538,99.025 686.538,97.538 C686.529,88.621 679.302,81.394 670.385,81.385 L667.692,81.385 L667.692,76 C667.692,74.513 666.487,73.308 665,73.308 C663.513,73.308 662.308,74.513 662.308,76 L662.308,81.385 L659.615,81.385 C650.694,81.385 643.462,88.617 643.462,97.538 C643.462,106.46 650.694,113.692 659.615,113.692 L662.308,113.692 L662.308,135.231 L656.923,135.231 C654.067,135.231 651.328,134.096 649.308,132.077 C647.288,130.057 646.154,127.318 646.154,124.462 C646.154,122.975 644.948,121.769 643.462,121.769 C641.975,121.769 640.769,122.975 640.769,124.462 C640.779,133.379 648.005,140.606 656.923,140.615 L662.308,140.615 L662.308,146 C662.308,147.487 663.513,148.692 665,148.692 C666.487,148.692 667.692,147.487 667.692,146 L667.692,140.615 L673.077,140.615 C681.998,140.615 689.231,133.383 689.231,124.462 C689.231,115.54 681.998,108.308 673.077,108.308 Z M659.615,108.308 C653.668,108.308 648.846,103.486 648.846,97.538 C648.846,91.591 653.668,86.769 659.615,86.769 L662.308,86.769 L662.308,108.308 Z M673.077,135.231 L667.692,135.231 L667.692,113.692 L673.077,113.692 C679.025,113.692 683.846,118.514 683.846,124.462 C683.846,130.409 679.025,135.231 673.077,135.231 Z" />
        </g>
    </g>
</svg>