<?xml version="1.0" encoding="UTF-8"?>
<svg height="600" width="800" xmlns="http://www.w3.org/2000/svg" xmlns:xlink="http://www.w3.org/1999/xlink">
    <g id="Notes" font-family="'LucidaGrande', 'Lucida Grande', sans-serif" font-size="13">
        <rect fill="white" height="600.0" width="800.0" x="0.0" y="0.0" />
        <g font-size="13">
            <text x="18.0" y="176.0">Small</text>
            <text x="18.0" y="376.0">Medium</text>
            <text x="18.0" y="576.0">Large</text>
        </g>
        <g font-size="9">
            <text x="250.0" y="30.0">Ultralight</text>
            <text x="450.0" y="30.0">Regular</text>
            <text x="650.0" y="30.0">Black</text>
            <text id="template-version" fill="#505050" text-anchor="end" x="785.0" y="575.0">Template v.3.0</text>
            <a href="https://github.com/swhitty/SwiftDraw">
                <text fill="#505050" text-anchor="end" x="785.0" y="590.0">https://github.com/swhitty/SwiftDraw</text>
            </a>
        </g>
    </g>
    <g id="Guides" stroke="rgb(39, 170, 225)" stroke-width="0.5">
        <path id="Capline-S" d="M18,76 l800,0" />
        <path id="H-reference" d="M85,145.755 L87.685,145.755 L113.369,79.287 L114.052,79.287 L114.052,76 L112.148,76 L85,145.755 Z M95.693,121.536 L130.996,121.536 L130.263,119.313 L96.474,119.313 L95.693,121.536 Z M139.15,145.755 L141.787,145.755 L114.638,76 L113.466,76 L113.466,79.287 L139.15,145.755 Z" stroke="none" />
        <path id="Baseline-S" d="M18,146 l800,0" />
        <path id="left-margin-Ultralight-S" d="M220,56 l0,110" />
        <path id="right-margin-Ultralight-S" d="M310,56 l0,110" />
        <path id="left-margin-Regular-S" d="M420,56 l0,110" />
        <path id="right-margin-Regular-S" d="M510,56 l0,110" />
        <path id="left-margin-Black-S" d="M620,56 l0,110" />
        <path id="right-margin-Black-S" d="M710,56 l0,110" />
        <path id="Capline-M" d="M18,276 l800,0" />
        <path id="Baseline-M" d="M18,346 l800,0" />
        <path id="Capline-L" d="M18,476 l800,0" />
        <path id="Baseline-L" d="M18,546 l800,0" />
    </g>
    <g id="Symbols">
        <g id="Ultralight-S">
            <path d="M265,76 C245.67,76 230,91.67 230,111 C230,130.33 245.67,146 265,146 C284.33,146 300,130.33 300,111 C299.979,91.677 284.32,76.02 264.999,76 Z M265,140.615 C248.644,140.615 235.385,127.356 235.385,111 C235.385,94.644 248.644,81.385 265,81.385 C281.356,81.385 294.615,94.644 294.615,111 C294.598,127.347 281.35,140.596 265.001,140.615 Z M254.591,101.664 C257.68,107.505 257.68,114.495 254.591,120.336 C254.153,121.207 253.278,121.773 252.304,121.816 C251.329,121.859 250.408,121.371 249.895,120.542 C249.383,119.713 249.358,118.671 249.832,117.818 C252.121,113.561 252.121,108.439 249.832,104.182 C249.174,102.873 249.684,101.278 250.979,100.593 C252.274,99.907 253.879,100.384 254.591,101.664 Z M273.437,90.895 C280.162,103.462 280.162,118.558 273.437,131.125 C272.693,132.347 271.122,132.774 269.862,132.096 C268.602,131.418 268.092,129.872 268.702,128.577 C274.583,117.597 274.583,104.403 268.702,93.423 C268.001,92.108 268.498,90.476 269.811,89.777 C271.124,89.077 272.755,89.574 273.455,90.887 Z M264.014,96.28 C268.922,105.484 268.922,116.529 264.014,125.734 C263.571,126.6 262.696,127.16 261.724,127.199 C260.752,127.238 259.834,126.749 259.324,125.921 C258.814,125.093 258.79,124.054 259.262,123.203 C263.328,115.58 263.328,106.433 259.262,98.811 C258.79,97.96 258.814,96.921 259.324,96.092 C259.834,95.264 260.752,94.775 261.724,94.814 C262.696,94.853 263.571,95.413 264.014,96.28 Z" />
        </g>
        <g id="Regular-S">
            <path d="M465,76 C445.67,76 430,91.67 430,111 C430,130.33 445.67,146 465,146 C484.33,146 500,130.33 500,111 C499.979,91.677 484.32,76.02 464.999,76 Z M465,140.615 C448.644,140.615 435.385,127.356 435.385,111 C435.385,94.644 448.644,81.385 465,81.385 C481.356,81.385 494.615,94.644 494.615,111 C494.598,127.347 481.35,140.596 465.001,140.615 Z M454.591,101.664 C457.68,107.505 457.68,114.495 454.591,120.336 C454.153,121.207 453.278,121.773 452.304,121.816 C451.329,121.859 450.408,121.371 449.895,120.542 C449.383,119.713 449.358,118.671 449.832,117.818 C452.121,113.561 452.121,108.439 449.832,104.182 C449.174,102.873 449.684,101.278 450.979,100.593 C452.274,99.907 453.879,100.384 454.591,101.664 Z M473.437,90.895 C480.162,103.462 480.162,118.558 473.437,131.125 C472.693,132.347 471.122,132.774 469.862,132.096 C468.602,131.418 468.092,129.872 468.702,128.577 C474.583,117.597 474.583,104.403 468.702,93.423 C468.001,92.108 468.498,90.476 469.811,89.777 C471.124,89.077 472.755,89.574 473.455,90.887 Z M464.014,96.28 C468.922,105.484 468.922,116.529 464.014,125.734 C463.571,126.6 462.696,127.16 461.724,127.199 C460.752,127.238 459.834,126.749 459.324,125.921 C458.814,125.093 458.79,124.054 459.262,123.203 C463.328,115.58 463.328,106.433 459.262,98.811 C458.79,97.96 458.814,96.921 459.324,96.092 C459.834,95.264 460.752,94.775 461.724,94.814 C462.696,94.853 463.571,95.413 464.014,96.28 Z" />
        </g>
        <g id="Black-S">
            <path d="M665,76 C645.67,76 630,91.67 630,111 C630,130.33 645.67,146 665,146 C684.33,146 700,130.33 700,111 C699.979,91.677 684.32,76.02 664.999,76 Z M665,140.615 C648.644,140.615 635.385,127.356 635.385,111 C635.385,94.644 648.644,81.385 665,81.385 C681.356,81.385 694.615,94.644 694.615,111 C694.598,127.347 681.35,140.596 665.001,140.615 Z M654.591,101.664 C657.68,107.505 657.68,114.495 654.591,120.336 C654.153,121.207 653.278,121.773 652.304,121.816 C651.329,121.859 650.408,121.371 649.895,120.542 C649.383,119.713 649.358,118.671 649.832,117.818 C652.121,113.561 652.121,108.439 649.832,104.182 C649.174,102.873 649.684,101.278 650.979,100.593 C652.274,99.907 653.879,100.384 654.591,101.664 Z M673.437,90.895 C680.162,103.462 680.162,118.558 673.437,131.125 C672.693,132.347 671.122,132.774 669.862,132.096 C668.602,131.418 668.092,129.872 668.702,128.577 C674.583,117.597 674.583,104.403 668.702,93.423 C668.001,92.108 668.498,90.476 669.811,89.777 C671.124,89.077 672.755,89.574 673.455,90.887 Z M664.014,96.28 C668.922,105.484 668.922,116.529 664.014,125.734 C663.571,126.6 662.696,127.16 661.724,127.199 C660.752,127.238 659.834,126.749 659.324,125.921 C658.814,125.093 658.79,124.054 659.262,123.203 C663.328,115.58 663.328,106.433 659.262,98.811 C658.79,97.96 658.814,96.921 659.324,96.092 C659.834,95.264 660.752,94.775 661.724,94.814 C662.696,94.853 663.571,95.413 664.014,96.28 Z" />
        </g>
    </g>
</svg>