<?xml version="1.0" encoding="UTF-8"?>
<svg height="600" width="800" xmlns="http://www.w3.org/2000/svg" xmlns:xlink="http://www.w3.org/1999/xlink">
    <g id="Notes" font-family="'LucidaGrande', 'Lucida Grande', sans-serif" font-size="13">
        <rect fill="white" height="600.0" width="800.0" x="0.0" y="0.0" />
        <g font-size="13">
            <text x="18.0" y="176.0">Small</text>
            <text x="18.0" y="376.0">Medium</text>
            <text x="18.0" y="576.0">Large</text>
        </g>
        <g font-size="9">
            <text x="250.0" y="30.0">Ultralight</text>
            <text x="450.0" y="30.0">Regular</text>
            <text x="650.0" y="30.0">Black</text>
            <text id="template-version" fill="#505050" text-anchor="end" x="785.0" y="575.0">Template v.3.0</text>
            <a href="https://github.com/swhitty/SwiftDraw">
                <text fill="#505050" text-anchor="end" x="785.0" y="590.0">https://github.com/swhitty/SwiftDraw</text>
            </a>
        </g>
    </g>
    <g id="Guides" stroke="rgb(39, 170, 225)" stroke-width="0.5">
        <path id="Capline-S" d="M18,76 l800,0" />
        <path id="H-reference" d="M85,145.755 L87.685,145.755 L113.369,79.287 L114.052,79.287 L114.052,76 L112.148,76 L85,145.755 Z M95.693,121.536 L130.996,121.536 L130.263,119.313 L96.474,119.313 L95.693,121.536 Z M139.15,145.755 L141.787,145.755 L114.638,76 L113.466,76 L113.466,79.287 L139.15,145.755 Z" stroke="none" />
        <path id="Baseline-S" d="M18,146 l800,0" />
        <path id="left-margin-Ultralight-S" d="M220,56 l0,110" />
        <path id="right-margin-Ultralight-S" d="M310,56 l0,110" />
        <path id="left-margin-Regular-S" d="M420,56 l0,110" />
        <path id="right-margin-Regular-S" d="M510,56 l0,110" />
        <path id="left-margin-Black-S" d="M620,56 l0,110" />
        <path id="right-margin-Black-S" d="M710,56 l0,110" />
        <path id="Capline-M" d="M18,276 l800,0" />
        <path id="Baseline-M" d="M18,346 l800,0" />
        <path id="Capline-L" d="M18,476 l800,0" />
        <path id="Baseline-L" d="M18,546 l800,0" />
    </g>
    <g id="Symbols">
        <g id="Ultralight-S">
            <path d="M283.526,86.769 L246.154,86.769 C239.529,86.769 233.193,89.482 228.62,94.276 C224.048,99.07 221.637,105.527 221.95,112.144 C222.519,124.492 232.638,134.622 244.986,135.204 C250.32,135.453 255.755,133.218 261.604,128.372 C263.581,126.738 266.439,126.738 268.416,128.372 C271.973,131.324 277.452,135.231 283.846,135.231 C290.328,135.231 296.54,132.635 301.094,128.021 C305.647,123.408 308.162,117.162 308.077,110.68 C307.905,97.495 296.89,86.769 283.526,86.769 Z M297.261,124.239 C293.727,127.839 288.89,129.861 283.846,129.846 C279.175,129.846 274.76,126.646 271.849,124.236 C267.878,120.956 262.138,120.956 258.168,124.236 C253.396,128.163 249.163,130.011 245.238,129.826 C235.565,129.3 227.843,121.569 227.328,111.895 C227.083,106.747 228.957,101.723 232.514,97.994 C236.071,94.264 241,92.154 246.154,92.154 L283.526,92.154 C293.959,92.154 302.558,100.497 302.692,110.748 C302.773,115.793 300.814,120.657 297.261,124.239 Z M283.846,100.231 C283.846,100.945 283.562,101.63 283.058,102.135 C282.553,102.639 281.868,102.923 281.154,102.923 L248.846,102.923 C247.359,102.923 246.154,101.718 246.154,100.231 C246.154,98.744 247.359,97.538 248.846,97.538 L281.154,97.538 C281.868,97.538 282.553,97.822 283.058,98.327 C283.562,98.832 283.846,99.517 283.846,100.231 Z" />
        </g>
        <g id="Regular-S">
            <path d="M483.526,86.769 L446.154,86.769 C439.529,86.769 433.193,89.482 428.62,94.276 C424.048,99.07 421.637,105.527 421.95,112.144 C422.519,124.492 432.638,134.622 444.986,135.204 C450.32,135.453 455.755,133.218 461.604,128.372 C463.581,126.738 466.439,126.738 468.416,128.372 C471.973,131.324 477.452,135.231 483.846,135.231 C490.328,135.231 496.54,132.635 501.094,128.021 C505.647,123.408 508.162,117.162 508.077,110.68 C507.905,97.495 496.89,86.769 483.526,86.769 Z M497.261,124.239 C493.727,127.839 488.89,129.861 483.846,129.846 C479.175,129.846 474.76,126.646 471.849,124.236 C467.878,120.956 462.138,120.956 458.168,124.236 C453.396,128.163 449.162,130.011 445.238,129.826 C435.565,129.3 427.843,121.569 427.328,111.895 C427.083,106.747 428.957,101.723 432.514,97.994 C436.071,94.264 441,92.154 446.154,92.154 L483.526,92.154 C493.959,92.154 502.558,100.497 502.692,110.748 C502.773,115.793 500.814,120.657 497.26,124.239 Z M483.846,100.231 C483.846,100.945 483.562,101.63 483.058,102.135 C482.553,102.639 481.868,102.923 481.154,102.923 L448.846,102.923 C447.359,102.923 446.154,101.718 446.154,100.231 C446.154,98.744 447.359,97.538 448.846,97.538 L481.154,97.538 C481.868,97.538 482.553,97.822 483.058,98.327 C483.562,98.832 483.846,99.517 483.846,100.231 Z" />
        </g>
        <g id="Black-S">
            <path d="M683.526,86.769 L646.154,86.769 C639.529,86.769 633.193,89.482 628.62,94.276 C624.048,99.07 621.637,105.527 621.95,112.144 C622.519,124.492 632.638,134.622 644.986,135.204 C650.32,135.453 655.755,133.218 661.604,128.372 C663.581,126.738 666.44,126.738 668.416,128.372 C671.973,131.324 677.452,135.231 683.846,135.231 C690.328,135.231 696.541,132.635 701.094,128.021 C705.647,123.408 708.162,117.162 708.077,110.68 C707.905,97.495 696.89,86.769 683.526,86.769 Z M697.261,124.239 C693.727,127.839 688.89,129.861 683.846,129.846 C679.175,129.846 674.76,126.646 671.849,124.236 C667.878,120.956 662.138,120.956 658.168,124.236 C653.396,128.163 649.163,130.011 645.238,129.826 C635.565,129.3 627.843,121.569 627.328,111.895 C627.083,106.747 628.957,101.723 632.514,97.994 C636.071,94.264 641,92.154 646.154,92.154 L683.526,92.154 C693.959,92.154 702.558,100.497 702.692,110.748 C702.773,115.793 700.814,120.657 697.261,124.239 Z M683.846,100.231 C683.846,100.945 683.562,101.63 683.058,102.135 C682.553,102.639 681.868,102.923 681.154,102.923 L648.846,102.923 C647.359,102.923 646.154,101.718 646.154,100.231 C646.154,98.744 647.359,97.538 648.846,97.538 L681.154,97.538 C681.868,97.538 682.553,97.822 683.058,98.327 C683.562,98.832 683.846,99.517 683.846,100.231 Z" />
        </g>
    </g>
</svg>