<?xml version="1.0" encoding="UTF-8"?>
<svg height="600" width="800" xmlns="http://www.w3.org/2000/svg" xmlns:xlink="http://www.w3.org/1999/xlink">
    <g id="Notes" font-family="'LucidaGrande', 'Lucida Grande', sans-serif" font-size="13">
        <rect fill="white" height="600.0" width="800.0" x="0.0" y="0.0" />
        <g font-size="13">
            <text x="18.0" y="176.0">Small</text>
            <text x="18.0" y="376.0">Medium</text>
            <text x="18.0" y="576.0">Large</text>
        </g>
        <g font-size="9">
            <text x="250.0" y="30.0">Ultralight</text>
            <text x="450.0" y="30.0">Regular</text>
            <text x="650.0" y="30.0">Black</text>
            <text id="template-version" fill="#505050" text-anchor="end" x="785.0" y="575.0">Template v.3.0</text>
            <a href="https://github.com/swhitty/SwiftDraw">
                <text fill="#505050" text-anchor="end" x="785.0" y="590.0">https://github.com/swhitty/SwiftDraw</text>
            </a>
        </g>
    </g>
    <g id="Guides" stroke="rgb(39, 170, 225)" stroke-width="0.5">
        <path id="Capline-S" d="M18,76 l800,0" />
        <path id="H-reference" d="M85,145.755 L87.685,145.755 L113.369,79.287 L114.052,79.287 L114.052,76 L112.148,76 L85,145.755 Z M95.693,121.536 L130.996,121.536 L130.263,119.313 L96.474,119.313 L95.693,121.536 Z M139.15,145.755 L141.787,145.755 L114.638,76 L113.466,76 L113.466,79.287 L139.15,145.755 Z" stroke="none" />
        <path id="Baseline-S" d="M18,146 l800,0" />
        <path id="left-margin-Ultralight-S" d="M220,56 l0,110" />
        <path id="right-margin-Ultralight-S" d="M310,56 l0,110" />
        <path id="left-margin-Regular-S" d="M420,56 l0,110" />
        <path id="right-margin-Regular-S" d="M510,56 l0,110" />
        <path id="left-margin-Black-S" d="M620,56 l0,110" />
        <path id="right-margin-Black-S" d="M710,56 l0,110" />
        <path id="Capline-M" d="M18,276 l800,0" />
        <path id="Baseline-M" d="M18,346 l800,0" />
        <path id="Capline-L" d="M18,476 l800,0" />
        <path id="Baseline-L" d="M18,546 l800,0" />
    </g>
    <g id="Symbols">
        <g id="Ultralight-S">
            <path d="M305.385,86.769 C305.385,87.483 305.101,88.168 304.596,88.673 C304.091,89.178 303.406,89.462 302.692,89.462 L286.538,89.462 L286.538,102.923 C286.538,103.637 286.255,104.322 285.75,104.827 C285.245,105.332 284.56,105.615 283.846,105.615 L267.692,105.615 L267.692,119.077 C267.692,119.791 267.409,120.476 266.904,120.981 C266.399,121.486 265.714,121.769 265,121.769 L248.846,121.769 L248.846,135.231 C248.846,135.945 248.562,136.63 248.058,137.135 C247.553,137.639 246.868,137.923 246.154,137.923 L227.308,137.923 C225.821,137.923 224.615,136.718 224.615,135.231 C224.615,133.744 225.821,132.538 227.308,132.538 L243.462,132.538 L243.462,119.077 C243.462,118.363 243.745,117.678 244.25,117.173 C244.755,116.668 245.44,116.385 246.154,116.385 L262.308,116.385 L262.308,102.923 C262.308,102.209 262.591,101.524 263.096,101.019 C263.601,100.514 264.286,100.231 265,100.231 L281.154,100.231 L281.154,86.769 C281.154,86.055 281.438,85.37 281.942,84.865 C282.447,84.361 283.132,84.077 283.846,84.077 L302.692,84.077 C303.406,84.077 304.091,84.361 304.596,84.865 C305.101,85.37 305.385,86.055 305.385,86.769 Z" />
        </g>
        <g id="Regular-S">
            <path d="M505.385,86.769 C505.385,87.483 505.101,88.168 504.596,88.673 C504.091,89.178 503.406,89.462 502.692,89.462 L486.538,89.462 L486.538,102.923 C486.538,103.637 486.255,104.322 485.75,104.827 C485.245,105.332 484.56,105.615 483.846,105.615 L467.692,105.615 L467.692,119.077 C467.692,119.791 467.409,120.476 466.904,120.981 C466.399,121.486 465.714,121.769 465,121.769 L448.846,121.769 L448.846,135.231 C448.846,135.945 448.562,136.63 448.058,137.135 C447.553,137.639 446.868,137.923 446.154,137.923 L427.308,137.923 C425.821,137.923 424.615,136.718 424.615,135.231 C424.615,133.744 425.821,132.538 427.308,132.538 L443.462,132.538 L443.462,119.077 C443.462,118.363 443.745,117.678 444.25,117.173 C444.755,116.668 445.44,116.385 446.154,116.385 L462.308,116.385 L462.308,102.923 C462.308,102.209 462.591,101.524 463.096,101.019 C463.601,100.514 464.286,100.231 465,100.231 L481.154,100.231 L481.154,86.769 C481.154,86.055 481.438,85.37 481.942,84.865 C482.447,84.361 483.132,84.077 483.846,84.077 L502.692,84.077 C503.406,84.077 504.091,84.361 504.596,84.865 C505.101,85.37 505.385,86.055 505.385,86.769 Z" />
        </g>
        <g id="Black-S">
            <path d="M705.385,86.769 C705.385,87.483 705.101,88.168 704.596,88.673 C704.091,89.178 703.406,89.462 702.692,89.462 L686.538,89.462 L686.538,102.923 C686.538,103.637 686.255,104.322 685.75,104.827 C685.245,105.332 684.56,105.615 683.846,105.615 L667.692,105.615 L667.692,119.077 C667.692,119.791 667.409,120.476 666.904,120.981 C666.399,121.486 665.714,121.769 665,121.769 L648.846,121.769 L648.846,135.231 C648.846,135.945 648.562,136.63 648.058,137.135 C647.553,137.639 646.868,137.923 646.154,137.923 L627.308,137.923 C625.821,137.923 624.615,136.718 624.615,135.231 C624.615,133.744 625.821,132.538 627.308,132.538 L643.462,132.538 L643.462,119.077 C643.462,118.363 643.745,117.678 644.25,117.173 C644.755,116.668 645.44,116.385 646.154,116.385 L662.308,116.385 L662.308,102.923 C662.308,102.209 662.591,101.524 663.096,101.019 C663.601,100.514 664.286,100.231 665,100.231 L681.154,100.231 L681.154,86.769 C681.154,86.055 681.438,85.37 681.942,84.865 C682.447,84.361 683.132,84.077 683.846,84.077 L702.692,84.077 C703.406,84.077 704.091,84.361 704.596,84.865 C705.101,85.37 705.385,86.055 705.385,86.769 Z" />
        </g>
    </g>
</svg>