<?xml version="1.0" encoding="UTF-8"?>
<svg height="600" width="800" xmlns="http://www.w3.org/2000/svg" xmlns:xlink="http://www.w3.org/1999/xlink">
    <g id="Notes" font-family="'LucidaGrande', 'Lucida Grande', sans-serif" font-size="13">
        <rect fill="white" height="600.0" width="800.0" x="0.0" y="0.0" />
        <g font-size="13">
            <text x="18.0" y="176.0">Small</text>
            <text x="18.0" y="376.0">Medium</text>
            <text x="18.0" y="576.0">Large</text>
        </g>
        <g font-size="9">
            <text x="250.0" y="30.0">Ultralight</text>
            <text x="450.0" y="30.0">Regular</text>
            <text x="650.0" y="30.0">Black</text>
            <text id="template-version" fill="#505050" text-anchor="end" x="785.0" y="575.0">Template v.3.0</text>
            <a href="https://github.com/swhitty/SwiftDraw">
                <text fill="#505050" text-anchor="end" x="785.0" y="590.0">https://github.com/swhitty/SwiftDraw</text>
            </a>
        </g>
    </g>
    <g id="Guides" stroke="rgb(39, 170, 225)" stroke-width="0.5">
        <path id="Capline-S" d="M18,76 l800,0" />
        <path id="H-reference" d="M85,145.755 L87.685,145.755 L113.369,79.287 L114.052,79.287 L114.052,76 L112.148,76 L85,145.755 Z M95.693,121.536 L130.996,121.536 L130.263,119.313 L96.474,119.313 L95.693,121.536 Z M139.15,145.755 L141.787,145.755 L114.638,76 L113.466,76 L113.466,79.287 L139.15,145.755 Z" stroke="none" />
        <path id="Baseline-S" d="M18,146 l800,0" />
        <path id="left-margin-Ultralight-S" d="M220,56 l0,110" />
        <path id="right-margin-Ultralight-S" d="M310,56 l0,110" />
        <path id="left-margin-Regular-S" d="M420,56 l0,110" />
        <path id="right-margin-Regular-S" d="M510,56 l0,110" />
        <path id="left-margin-Black-S" d="M620,56 l0,110" />
        <path id="right-margin-Black-S" d="M710,56 l0,110" />
        <path id="Capline-M" d="M18,276 l800,0" />
        <path id="Baseline-M" d="M18,346 l800,0" />
        <path id="Capline-L" d="M18,476 l800,0" />
        <path id="Baseline-L" d="M18,546 l800,0" />
    </g>
    <g id="Symbols">
        <g id="Ultralight-S">
            <path d="M300,89.462 L300,84.077 C300,82.649 299.433,81.279 298.423,80.269 C297.413,79.26 296.043,78.692 294.615,78.692 L235.385,78.692 C233.957,78.692 232.587,79.26 231.577,80.269 C230.567,81.279 230,82.649 230,84.077 L230,89.462 C230,90.89 230.567,92.259 231.577,93.269 C232.587,94.279 233.957,94.846 235.385,94.846 L235.385,127.154 L232.692,127.154 C231.205,127.154 230,128.359 230,129.846 C230,131.333 231.205,132.538 232.692,132.538 L262.308,132.538 L262.308,138.388 C258.599,139.699 256.374,143.491 257.039,147.368 C257.705,151.245 261.066,154.079 265,154.079 C268.934,154.079 272.295,151.245 272.961,147.368 C273.626,143.491 271.401,139.699 267.692,138.388 L267.692,132.538 L297.308,132.538 C298.795,132.538 300,131.333 300,129.846 C300,128.359 298.795,127.154 297.308,127.154 L294.615,127.154 L294.615,94.846 C296.043,94.846 297.413,94.279 298.423,93.269 C299.433,92.259 300,90.89 300,89.462 Z M265,148.692 C263.513,148.692 262.308,147.487 262.308,146 C262.308,144.513 263.513,143.308 265,143.308 C266.487,143.308 267.692,144.513 267.692,146 C267.692,146.714 267.409,147.399 266.904,147.904 C266.399,148.409 265.714,148.692 265,148.692 Z M235.385,84.077 L294.615,84.077 L294.615,89.462 L235.385,89.462 Z M289.231,127.154 L240.769,127.154 L240.769,94.846 L289.231,94.846 Z" />
        </g>
        <g id="Regular-S">
            <path d="M500,89.462 L500,84.077 C500,82.649 499.433,81.279 498.423,80.269 C497.413,79.26 496.043,78.692 494.615,78.692 L435.385,78.692 C433.957,78.692 432.587,79.26 431.577,80.269 C430.567,81.279 430,82.649 430,84.077 L430,89.462 C430,90.89 430.567,92.259 431.577,93.269 C432.587,94.279 433.957,94.846 435.385,94.846 L435.385,127.154 L432.692,127.154 C431.205,127.154 430,128.359 430,129.846 C430,131.333 431.205,132.538 432.692,132.538 L462.308,132.538 L462.308,138.388 C458.599,139.699 456.374,143.491 457.039,147.368 C457.705,151.245 461.066,154.079 465,154.079 C468.934,154.079 472.295,151.245 472.961,147.368 C473.626,143.491 471.401,139.699 467.692,138.388 L467.692,132.538 L497.308,132.538 C498.795,132.538 500,131.333 500,129.846 C500,128.359 498.795,127.154 497.308,127.154 L494.615,127.154 L494.615,94.846 C496.043,94.846 497.413,94.279 498.423,93.269 C499.433,92.259 500,90.89 500,89.462 Z M465,148.692 C463.513,148.692 462.308,147.487 462.308,146 C462.308,144.513 463.513,143.308 465,143.308 C466.487,143.308 467.692,144.513 467.692,146 C467.692,146.714 467.409,147.399 466.904,147.904 C466.399,148.409 465.714,148.692 465,148.692 Z M435.385,84.077 L494.615,84.077 L494.615,89.462 L435.385,89.462 Z M489.231,127.154 L440.769,127.154 L440.769,94.846 L489.231,94.846 Z" />
        </g>
        <g id="Black-S">
            <path d="M700,89.462 L700,84.077 C700,82.649 699.433,81.279 698.423,80.269 C697.413,79.26 696.044,78.692 694.615,78.692 L635.385,78.692 C633.957,78.692 632.587,79.26 631.577,80.269 C630.567,81.279 630,82.649 630,84.077 L630,89.462 C630,90.89 630.567,92.259 631.577,93.269 C632.587,94.279 633.957,94.846 635.385,94.846 L635.385,127.154 L632.692,127.154 C631.205,127.154 630,128.359 630,129.846 C630,131.333 631.205,132.538 632.692,132.538 L662.308,132.538 L662.308,138.388 C658.599,139.699 656.374,143.491 657.039,147.368 C657.705,151.245 661.066,154.079 665,154.079 C668.934,154.079 672.295,151.245 672.961,147.368 C673.626,143.491 671.401,139.699 667.692,138.388 L667.692,132.538 L697.308,132.538 C698.795,132.538 700,131.333 700,129.846 C700,128.359 698.795,127.154 697.308,127.154 L694.615,127.154 L694.615,94.846 C696.044,94.846 697.413,94.279 698.423,93.269 C699.433,92.259 700,90.89 700,89.462 Z M665,148.692 C663.513,148.692 662.308,147.487 662.308,146 C662.308,144.513 663.513,143.308 665,143.308 C666.487,143.308 667.692,144.513 667.692,146 C667.692,146.714 667.409,147.399 666.904,147.904 C666.399,148.409 665.714,148.692 665,148.692 Z M635.385,84.077 L694.615,84.077 L694.615,89.462 L635.385,89.462 Z M689.231,127.154 L640.769,127.154 L640.769,94.846 L689.231,94.846 Z" />
        </g>
    </g>
</svg>