<?xml version="1.0" encoding="UTF-8"?>
<svg height="600" width="800" xmlns="http://www.w3.org/2000/svg" xmlns:xlink="http://www.w3.org/1999/xlink">
    <g id="Notes" font-family="'LucidaGrande', 'Lucida Grande', sans-serif" font-size="13">
        <rect fill="white" height="600.0" width="800.0" x="0.0" y="0.0" />
        <g font-size="13">
            <text x="18.0" y="176.0">Small</text>
            <text x="18.0" y="376.0">Medium</text>
            <text x="18.0" y="576.0">Large</text>
        </g>
        <g font-size="9">
            <text x="250.0" y="30.0">Ultralight</text>
            <text x="450.0" y="30.0">Regular</text>
            <text x="650.0" y="30.0">Black</text>
            <text id="template-version" fill="#505050" text-anchor="end" x="785.0" y="575.0">Template v.3.0</text>
            <a href="https://github.com/swhitty/SwiftDraw">
                <text fill="#505050" text-anchor="end" x="785.0" y="590.0">https://github.com/swhitty/SwiftDraw</text>
            </a>
        </g>
    </g>
    <g id="Guides" stroke="rgb(39, 170, 225)" stroke-width="0.5">
        <path id="Capline-S" d="M18,76 l800,0" />
        <path id="H-reference" d="M85,145.755 L87.685,145.755 L113.369,79.287 L114.052,79.287 L114.052,76 L112.148,76 L85,145.755 Z M95.693,121.536 L130.996,121.536 L130.263,119.313 L96.474,119.313 L95.693,121.536 Z M139.15,145.755 L141.787,145.755 L114.638,76 L113.466,76 L113.466,79.287 L139.15,145.755 Z" stroke="none" />
        <path id="Baseline-S" d="M18,146 l800,0" />
        <path id="left-margin-Ultralight-S" d="M220,56 l0,110" />
        <path id="right-margin-Ultralight-S" d="M310,56 l0,110" />
        <path id="left-margin-Regular-S" d="M420,56 l0,110" />
        <path id="right-margin-Regular-S" d="M510,56 l0,110" />
        <path id="left-margin-Black-S" d="M620,56 l0,110" />
        <path id="right-margin-Black-S" d="M710,56 l0,110" />
        <path id="Capline-M" d="M18,276 l800,0" />
        <path id="Baseline-M" d="M18,346 l800,0" />
        <path id="Capline-L" d="M18,476 l800,0" />
        <path id="Baseline-L" d="M18,546 l800,0" />
    </g>
    <g id="Symbols">
        <g id="Ultralight-S">
            <path d="M305.385,111 L289.547,111 L280.124,92.154 L286.538,92.154 C288.025,92.154 289.231,90.948 289.231,89.462 C289.231,87.975 288.025,86.769 286.538,86.769 L243.462,86.769 C241.975,86.769 240.769,87.975 240.769,89.462 C240.769,90.948 241.975,92.154 243.462,92.154 L249.876,92.154 L240.453,111 L224.615,111 C223.128,111 221.923,112.205 221.923,113.692 C221.923,115.179 223.128,116.385 224.615,116.385 L237.761,116.385 L230.283,131.334 C229.619,132.664 230.158,134.28 231.488,134.945 C231.861,135.134 232.274,135.232 232.692,135.231 C233.714,135.233 234.648,134.657 235.105,133.743 L243.778,116.385 L286.222,116.385 L294.898,133.743 C295.355,134.656 296.288,135.232 297.308,135.231 C297.725,135.231 298.137,135.133 298.509,134.945 C299.839,134.28 300.378,132.664 299.714,131.334 L292.239,116.385 L305.385,116.385 C306.872,116.385 308.077,115.179 308.077,113.692 C308.077,112.205 306.872,111 305.385,111 Z M246.47,111 L255.893,92.154 L274.107,92.154 L283.53,111 Z" />
        </g>
        <g id="Regular-S">
            <path d="M505.385,111 L489.547,111 L480.124,92.154 L486.538,92.154 C488.025,92.154 489.231,90.948 489.231,89.462 C489.231,87.975 488.025,86.769 486.538,86.769 L443.462,86.769 C441.975,86.769 440.769,87.975 440.769,89.462 C440.769,90.948 441.975,92.154 443.462,92.154 L449.876,92.154 L440.453,111 L424.615,111 C423.128,111 421.923,112.205 421.923,113.692 C421.923,115.179 423.128,116.385 424.615,116.385 L437.761,116.385 L430.283,131.334 C429.619,132.664 430.158,134.28 431.487,134.945 C431.861,135.134 432.274,135.232 432.692,135.231 C433.714,135.233 434.648,134.657 435.105,133.743 L443.778,116.385 L486.222,116.385 L494.898,133.743 C495.355,134.656 496.288,135.232 497.308,135.231 C497.725,135.231 498.137,135.133 498.509,134.945 C499.839,134.28 500.378,132.664 499.714,131.334 L492.239,116.385 L505.385,116.385 C506.872,116.385 508.077,115.179 508.077,113.692 C508.077,112.205 506.872,111 505.385,111 Z M446.47,111 L455.893,92.154 L474.107,92.154 L483.53,111 Z" />
        </g>
        <g id="Black-S">
            <path d="M705.385,111 L689.547,111 L680.124,92.154 L686.538,92.154 C688.025,92.154 689.231,90.948 689.231,89.462 C689.231,87.975 688.025,86.769 686.538,86.769 L643.462,86.769 C641.975,86.769 640.769,87.975 640.769,89.462 C640.769,90.948 641.975,92.154 643.462,92.154 L649.876,92.154 L640.453,111 L624.615,111 C623.128,111 621.923,112.205 621.923,113.692 C621.923,115.179 623.128,116.385 624.615,116.385 L637.761,116.385 L630.283,131.334 C629.619,132.664 630.158,134.28 631.488,134.945 C631.861,135.134 632.274,135.232 632.692,135.231 C633.714,135.233 634.648,134.657 635.105,133.743 L643.778,116.385 L686.222,116.385 L694.898,133.743 C695.355,134.656 696.288,135.232 697.308,135.231 C697.725,135.231 698.137,135.133 698.509,134.945 C699.839,134.28 700.378,132.664 699.714,131.334 L692.239,116.385 L705.385,116.385 C706.872,116.385 708.077,115.179 708.077,113.692 C708.077,112.205 706.872,111 705.385,111 Z M646.47,111 L655.893,92.154 L674.107,92.154 L683.53,111 Z" />
        </g>
    </g>
</svg>