<?xml version="1.0" encoding="UTF-8"?>
<svg height="600" width="800" xmlns="http://www.w3.org/2000/svg" xmlns:xlink="http://www.w3.org/1999/xlink">
    <g id="Notes" font-family="'LucidaGrande', 'Lucida Grande', sans-serif" font-size="13">
        <rect fill="white" height="600.0" width="800.0" x="0.0" y="0.0" />
        <g font-size="13">
            <text x="18.0" y="176.0">Small</text>
            <text x="18.0" y="376.0">Medium</text>
            <text x="18.0" y="576.0">Large</text>
        </g>
        <g font-size="9">
            <text x="250.0" y="30.0">Ultralight</text>
            <text x="450.0" y="30.0">Regular</text>
            <text x="650.0" y="30.0">Black</text>
            <text id="template-version" fill="#505050" text-anchor="end" x="785.0" y="575.0">Template v.3.0</text>
            <a href="https://github.com/swhitty/SwiftDraw">
                <text fill="#505050" text-anchor="end" x="785.0" y="590.0">https://github.com/swhitty/SwiftDraw</text>
            </a>
        </g>
    </g>
    <g id="Guides" stroke="rgb(39, 170, 225)" stroke-width="0.5">
        <path id="Capline-S" d="M18,76 l800,0" />
        <path id="H-reference" d="M85,145.755 L87.685,145.755 L113.369,79.287 L114.052,79.287 L114.052,76 L112.148,76 L85,145.755 Z M95.693,121.536 L130.996,121.536 L130.263,119.313 L96.474,119.313 L95.693,121.536 Z M139.15,145.755 L141.787,145.755 L114.638,76 L113.466,76 L113.466,79.287 L139.15,145.755 Z" stroke="none" />
        <path id="Baseline-S" d="M18,146 l800,0" />
        <path id="left-margin-Ultralight-S" d="M220,56 l0,110" />
        <path id="right-margin-Ultralight-S" d="M310,56 l0,110" />
        <path id="left-margin-Regular-S" d="M420,56 l0,110" />
        <path id="right-margin-Regular-S" d="M510,56 l0,110" />
        <path id="left-margin-Black-S" d="M620,56 l0,110" />
        <path id="right-margin-Black-S" d="M710,56 l0,110" />
        <path id="Capline-M" d="M18,276 l800,0" />
        <path id="Baseline-M" d="M18,346 l800,0" />
        <path id="Capline-L" d="M18,476 l800,0" />
        <path id="Baseline-L" d="M18,546 l800,0" />
    </g>
    <g id="Symbols">
        <g id="Ultralight-S">
            <path d="M251.118,82.832 L233.19,111 L251.118,139.168 C251.502,139.771 251.63,140.502 251.475,141.199 C251.319,141.897 250.893,142.504 250.29,142.887 C249.859,143.163 249.358,143.309 248.846,143.308 C247.924,143.309 247.066,142.837 246.571,142.059 L227.725,112.444 C227.164,111.562 227.164,110.435 227.725,109.553 L246.571,79.938 C247.369,78.683 249.033,78.313 250.288,79.111 C251.543,79.909 251.913,81.573 251.115,82.828 Z M302.272,109.556 L283.425,79.941 C282.628,78.686 280.963,78.316 279.709,79.115 C278.454,79.913 278.084,81.577 278.882,82.831 L296.81,111 L278.882,139.168 C278.498,139.771 278.37,140.502 278.525,141.199 C278.681,141.897 279.107,142.504 279.71,142.887 C280.141,143.163 280.642,143.309 281.154,143.308 C282.076,143.309 282.934,142.837 283.429,142.059 L302.275,112.444 C302.834,111.562 302.832,110.437 302.272,109.556 Z" />
        </g>
        <g id="Regular-S">
            <path d="M451.118,82.832 L433.19,111 L451.118,139.168 C451.502,139.771 451.63,140.502 451.475,141.199 C451.319,141.897 450.893,142.504 450.29,142.887 C449.859,143.163 449.358,143.309 448.846,143.308 C447.924,143.309 447.066,142.837 446.571,142.059 L427.725,112.444 C427.164,111.562 427.164,110.435 427.725,109.553 L446.571,79.938 C447.369,78.683 449.033,78.313 450.288,79.111 C451.543,79.909 451.913,81.573 451.115,82.828 Z M502.272,109.556 L483.425,79.941 C482.628,78.686 480.963,78.316 479.709,79.115 C478.454,79.913 478.084,81.577 478.882,82.831 L496.81,111 L478.882,139.168 C478.498,139.771 478.37,140.502 478.525,141.199 C478.681,141.897 479.107,142.504 479.71,142.887 C480.141,143.163 480.642,143.309 481.154,143.308 C482.076,143.309 482.934,142.837 483.429,142.059 L502.275,112.444 C502.834,111.562 502.832,110.437 502.272,109.556 Z" />
        </g>
        <g id="Black-S">
            <path d="M651.118,82.832 L633.19,111 L651.118,139.168 C651.502,139.771 651.63,140.502 651.475,141.199 C651.319,141.897 650.893,142.504 650.29,142.887 C649.859,143.163 649.358,143.309 648.846,143.308 C647.924,143.309 647.066,142.837 646.571,142.059 L627.725,112.444 C627.164,111.562 627.164,110.435 627.725,109.553 L646.571,79.938 C647.369,78.683 649.033,78.313 650.288,79.111 C651.543,79.909 651.913,81.573 651.115,82.828 Z M702.272,109.556 L683.425,79.941 C682.628,78.686 680.963,78.316 679.709,79.115 C678.454,79.913 678.084,81.577 678.882,82.831 L696.81,111 L678.882,139.168 C678.498,139.771 678.37,140.502 678.525,141.199 C678.681,141.897 679.107,142.504 679.71,142.887 C680.141,143.163 680.642,143.309 681.154,143.308 C682.076,143.309 682.934,142.837 683.429,142.059 L702.275,112.444 C702.834,111.562 702.832,110.437 702.272,109.556 Z" />
        </g>
    </g>
</svg>