<?xml version="1.0" encoding="UTF-8"?>
<svg height="600" width="800" xmlns="http://www.w3.org/2000/svg" xmlns:xlink="http://www.w3.org/1999/xlink">
    <g id="Notes" font-family="'LucidaGrande', 'Lucida Grande', sans-serif" font-size="13">
        <rect fill="white" height="600.0" width="800.0" x="0.0" y="0.0" />
        <g font-size="13">
            <text x="18.0" y="176.0">Small</text>
            <text x="18.0" y="376.0">Medium</text>
            <text x="18.0" y="576.0">Large</text>
        </g>
        <g font-size="9">
            <text x="250.0" y="30.0">Ultralight</text>
            <text x="450.0" y="30.0">Regular</text>
            <text x="650.0" y="30.0">Black</text>
            <text id="template-version" fill="#505050" text-anchor="end" x="785.0" y="575.0">Template v.3.0</text>
            <a href="https://github.com/swhitty/SwiftDraw">
                <text fill="#505050" text-anchor="end" x="785.0" y="590.0">https://github.com/swhitty/SwiftDraw</text>
            </a>
        </g>
    </g>
    <g id="Guides" stroke="rgb(39, 170, 225)" stroke-width="0.5">
        <path id="Capline-S" d="M18,76 l800,0" />
        <path id="H-reference" d="M85,145.755 L87.685,145.755 L113.369,79.287 L114.052,79.287 L114.052,76 L112.148,76 L85,145.755 Z M95.693,121.536 L130.996,121.536 L130.263,119.313 L96.474,119.313 L95.693,121.536 Z M139.15,145.755 L141.787,145.755 L114.638,76 L113.466,76 L113.466,79.287 L139.15,145.755 Z" stroke="none" />
        <path id="Baseline-S" d="M18,146 l800,0" />
        <path id="left-margin-Ultralight-S" d="M220,56 l0,110" />
        <path id="right-margin-Ultralight-S" d="M310,56 l0,110" />
        <path id="left-margin-Regular-S" d="M420,56 l0,110" />
        <path id="right-margin-Regular-S" d="M510,56 l0,110" />
        <path id="left-margin-Black-S" d="M620,56 l0,110" />
        <path id="right-margin-Black-S" d="M710,56 l0,110" />
        <path id="Capline-M" d="M18,276 l800,0" />
        <path id="Baseline-M" d="M18,346 l800,0" />
        <path id="Capline-L" d="M18,476 l800,0" />
        <path id="Baseline-L" d="M18,546 l800,0" />
    </g>
    <g id="Symbols">
        <g id="Ultralight-S">
            <path d="M278.462,105.615 C278.462,106.329 278.178,107.014 277.673,107.519 C277.168,108.024 276.483,108.308 275.769,108.308 L254.231,108.308 C252.744,108.308 251.538,107.102 251.538,105.615 C251.538,104.128 252.744,102.923 254.231,102.923 L275.769,102.923 C276.483,102.923 277.168,103.207 277.673,103.712 C278.178,104.217 278.462,104.901 278.462,105.615 Z M275.769,113.692 L254.231,113.692 C252.744,113.692 251.538,114.898 251.538,116.385 C251.538,117.872 252.744,119.077 254.231,119.077 L275.769,119.077 C277.256,119.077 278.462,117.872 278.462,116.385 C278.462,114.898 277.256,113.692 275.769,113.692 Z M300,111 C300,123.299 293.552,134.69 283.014,141.016 C272.476,147.342 259.391,147.677 248.543,141.897 L237.091,145.721 C235.156,146.366 233.022,145.862 231.58,144.42 C230.138,142.978 229.634,140.844 230.279,138.909 L234.099,127.45 C227.26,114.592 229.098,98.843 238.714,87.905 C248.33,76.967 263.714,73.127 277.342,78.263 C290.97,83.398 299.994,96.436 300,111 Z M294.615,111 C294.615,98.558 286.828,87.436 275.127,83.178 C263.427,78.921 250.313,82.436 242.311,91.975 C234.309,101.514 233.128,115.039 239.355,125.821 C239.741,126.489 239.822,127.29 239.577,128.022 L235.385,140.615 L247.971,136.419 C248.245,136.325 248.533,136.278 248.823,136.277 C249.295,136.278 249.76,136.404 250.169,136.641 C259.332,141.943 270.629,141.95 279.799,136.66 C288.969,131.369 294.618,121.587 294.615,111 Z" />
        </g>
        <g id="Regular-S">
            <path d="M478.462,105.615 C478.462,106.329 478.178,107.014 477.673,107.519 C477.168,108.024 476.483,108.308 475.769,108.308 L454.231,108.308 C452.744,108.308 451.538,107.102 451.538,105.615 C451.538,104.128 452.744,102.923 454.231,102.923 L475.769,102.923 C476.483,102.923 477.168,103.207 477.673,103.712 C478.178,104.217 478.462,104.901 478.462,105.615 Z M475.769,113.692 L454.231,113.692 C452.744,113.692 451.538,114.898 451.538,116.385 C451.538,117.872 452.744,119.077 454.231,119.077 L475.769,119.077 C477.256,119.077 478.462,117.872 478.462,116.385 C478.462,114.898 477.256,113.692 475.769,113.692 Z M500,111 C500,123.299 493.552,134.69 483.014,141.016 C472.476,147.342 459.391,147.677 448.543,141.897 L437.091,145.721 C435.156,146.366 433.022,145.862 431.58,144.42 C430.138,142.978 429.634,140.844 430.279,138.909 L434.099,127.45 C427.26,114.592 429.098,98.843 438.714,87.905 C448.33,76.967 463.714,73.127 477.342,78.263 C490.97,83.398 499.994,96.436 500,111 Z M494.615,111 C494.615,98.558 486.828,87.436 475.127,83.178 C463.427,78.921 450.313,82.436 442.311,91.975 C434.309,101.514 433.128,115.039 439.355,125.821 C439.741,126.489 439.822,127.29 439.577,128.022 L435.385,140.615 L447.971,136.419 C448.245,136.325 448.533,136.278 448.823,136.277 C449.295,136.278 449.76,136.404 450.169,136.641 C459.332,141.943 470.629,141.95 479.799,136.66 C488.969,131.369 494.618,121.587 494.615,111 Z" />
        </g>
        <g id="Black-S">
            <path d="M678.462,105.615 C678.462,106.329 678.178,107.014 677.673,107.519 C677.168,108.024 676.483,108.308 675.769,108.308 L654.231,108.308 C652.744,108.308 651.538,107.102 651.538,105.615 C651.538,104.128 652.744,102.923 654.231,102.923 L675.769,102.923 C676.483,102.923 677.168,103.207 677.673,103.712 C678.178,104.217 678.462,104.901 678.462,105.615 Z M675.769,113.692 L654.231,113.692 C652.744,113.692 651.538,114.898 651.538,116.385 C651.538,117.872 652.744,119.077 654.231,119.077 L675.769,119.077 C677.256,119.077 678.462,117.872 678.462,116.385 C678.462,114.898 677.256,113.692 675.769,113.692 Z M700,111 C700,123.299 693.552,134.69 683.014,141.016 C672.476,147.342 659.391,147.677 648.543,141.897 L637.091,145.721 C635.156,146.366 633.022,145.862 631.58,144.42 C630.138,142.978 629.634,140.844 630.279,138.909 L634.099,127.45 C627.26,114.592 629.098,98.843 638.714,87.905 C648.33,76.967 663.714,73.127 677.342,78.263 C690.97,83.398 699.994,96.436 700,111 Z M694.615,111 C694.615,98.558 686.828,87.436 675.127,83.178 C663.427,78.921 650.313,82.436 642.311,91.975 C634.309,101.514 633.128,115.039 639.355,125.821 C639.741,126.489 639.822,127.29 639.577,128.022 L635.385,140.615 L647.971,136.419 C648.245,136.325 648.533,136.278 648.823,136.277 C649.295,136.278 649.76,136.404 650.169,136.641 C659.332,141.943 670.629,141.95 679.799,136.66 C688.969,131.369 694.618,121.587 694.615,111 Z" />
        </g>
    </g>
</svg>