<?xml version="1.0" encoding="UTF-8"?>
<svg height="600" width="800" xmlns="http://www.w3.org/2000/svg" xmlns:xlink="http://www.w3.org/1999/xlink">
    <g id="Notes" font-family="'LucidaGrande', 'Lucida Grande', sans-serif" font-size="13">
        <rect fill="white" height="600.0" width="800.0" x="0.0" y="0.0" />
        <g font-size="13">
            <text x="18.0" y="176.0">Small</text>
            <text x="18.0" y="376.0">Medium</text>
            <text x="18.0" y="576.0">Large</text>
        </g>
        <g font-size="9">
            <text x="250.0" y="30.0">Ultralight</text>
            <text x="450.0" y="30.0">Regular</text>
            <text x="650.0" y="30.0">Black</text>
            <text id="template-version" fill="#505050" text-anchor="end" x="785.0" y="575.0">Template v.3.0</text>
            <a href="https://github.com/swhitty/SwiftDraw">
                <text fill="#505050" text-anchor="end" x="785.0" y="590.0">https://github.com/swhitty/SwiftDraw</text>
            </a>
        </g>
    </g>
    <g id="Guides" stroke="rgb(39, 170, 225)" stroke-width="0.5">
        <path id="Capline-S" d="M18,76 l800,0" />
        <path id="H-reference" d="M85,145.755 L87.685,145.755 L113.369,79.287 L114.052,79.287 L114.052,76 L112.148,76 L85,145.755 Z M95.693,121.536 L130.996,121.536 L130.263,119.313 L96.474,119.313 L95.693,121.536 Z M139.15,145.755 L141.787,145.755 L114.638,76 L113.466,76 L113.466,79.287 L139.15,145.755 Z" stroke="none" />
        <path id="Baseline-S" d="M18,146 l800,0" />
        <path id="left-margin-Ultralight-S" d="M220,56 l0,110" />
        <path id="right-margin-Ultralight-S" d="M310,56 l0,110" />
        <path id="left-margin-Regular-S" d="M420,56 l0,110" />
        <path id="right-margin-Regular-S" d="M510,56 l0,110" />
        <path id="left-margin-Black-S" d="M620,56 l0,110" />
        <path id="right-margin-Black-S" d="M710,56 l0,110" />
        <path id="Capline-M" d="M18,276 l800,0" />
        <path id="Baseline-M" d="M18,346 l800,0" />
        <path id="Capline-L" d="M18,476 l800,0" />
        <path id="Baseline-L" d="M18,546 l800,0" />
    </g>
    <g id="Symbols">
        <g id="Ultralight-S">
            <path d="M302.692,100.231 L291.923,100.231 C291.923,99.517 291.639,98.832 291.135,98.327 C290.63,97.822 289.945,97.538 289.231,97.538 L267.692,97.538 C266.978,97.538 266.293,97.822 265.789,98.327 C265.284,98.832 265,99.517 265,100.231 L243.462,100.231 L243.462,85.423 C243.462,84.352 243.887,83.325 244.644,82.567 C245.402,81.81 246.429,81.385 247.5,81.385 C249.449,81.377 251.146,82.715 251.592,84.612 C251.9,86.056 253.314,86.983 254.761,86.689 C256.208,86.396 257.148,84.992 256.869,83.542 C255.927,79.126 252.015,75.977 247.5,76 C242.296,76 238.077,80.219 238.077,85.423 L238.077,100.231 L227.308,100.231 C226.594,100.231 225.909,100.514 225.404,101.019 C224.899,101.524 224.615,102.209 224.615,102.923 L224.615,116.385 C224.626,126.788 233.057,135.219 243.461,135.231 L243.461,140.615 C243.462,142.102 244.667,143.306 246.153,143.306 C247.639,143.306 248.844,142.102 248.846,140.615 L248.846,135.231 L281.153,135.231 L281.153,140.615 C281.153,142.102 282.359,143.308 283.846,143.308 C285.332,143.308 286.538,142.102 286.538,140.615 L286.538,135.231 C296.942,135.22 305.373,126.788 305.384,116.385 L305.384,102.923 C305.384,101.436 304.179,100.231 302.692,100.231 Z M286.538,102.923 L286.538,113.692 L270.385,113.692 L270.385,102.923 Z M300,116.385 C300,119.955 298.582,123.379 296.057,125.903 C293.533,128.428 290.109,129.846 286.538,129.846 L243.462,129.846 C239.891,129.846 236.467,128.428 233.943,125.903 C231.418,123.379 230,119.955 230,116.385 L230,105.615 L265,105.615 L265,116.385 C265,117.099 265.284,117.783 265.789,118.288 C266.293,118.793 266.978,119.077 267.692,119.077 L289.231,119.077 C289.945,119.077 290.63,118.793 291.135,118.288 C291.639,117.783 291.923,117.099 291.923,116.385 L291.923,105.615 L300,105.615 Z" />
        </g>
        <g id="Regular-S">
            <path d="M502.692,100.231 L491.923,100.231 C491.923,99.517 491.639,98.832 491.135,98.327 C490.63,97.822 489.945,97.538 489.231,97.538 L467.692,97.538 C466.978,97.538 466.293,97.822 465.789,98.327 C465.284,98.832 465,99.517 465,100.231 L443.462,100.231 L443.462,85.423 C443.462,84.352 443.887,83.325 444.644,82.567 C445.402,81.81 446.429,81.385 447.5,81.385 C449.449,81.377 451.146,82.715 451.592,84.612 C451.9,86.056 453.314,86.983 454.761,86.689 C456.208,86.396 457.148,84.992 456.869,83.542 C455.927,79.126 452.015,75.977 447.5,76 C442.296,76 438.077,80.219 438.077,85.423 L438.077,100.231 L427.308,100.231 C426.594,100.231 425.909,100.514 425.404,101.019 C424.899,101.524 424.615,102.209 424.615,102.923 L424.615,116.385 C424.626,126.788 433.057,135.219 443.461,135.231 L443.461,140.615 C443.462,142.102 444.667,143.306 446.153,143.306 C447.639,143.306 448.844,142.102 448.845,140.615 L448.845,135.231 L481.153,135.231 L481.153,140.615 C481.153,142.102 482.359,143.308 483.845,143.308 C485.332,143.308 486.538,142.102 486.538,140.615 L486.538,135.231 C496.942,135.22 505.373,126.788 505.384,116.385 L505.384,102.923 C505.384,101.436 504.179,100.231 502.692,100.231 Z M486.538,102.923 L486.538,113.692 L470.385,113.692 L470.385,102.923 Z M500,116.385 C500,119.955 498.582,123.379 496.057,125.903 C493.533,128.428 490.109,129.846 486.538,129.846 L443.462,129.846 C439.891,129.846 436.467,128.428 433.943,125.903 C431.418,123.379 430,119.955 430,116.385 L430,105.615 L465,105.615 L465,116.385 C465,117.099 465.284,117.783 465.789,118.288 C466.293,118.793 466.978,119.077 467.692,119.077 L489.231,119.077 C489.945,119.077 490.63,118.793 491.135,118.288 C491.639,117.783 491.923,117.099 491.923,116.385 L491.923,105.615 L500,105.615 Z" />
        </g>
        <g id="Black-S">
            <path d="M702.692,100.231 L691.923,100.231 C691.923,99.517 691.639,98.832 691.135,98.327 C690.63,97.822 689.945,97.538 689.231,97.538 L667.692,97.538 C666.978,97.538 666.293,97.822 665.789,98.327 C665.284,98.832 665,99.517 665,100.231 L643.462,100.231 L643.462,85.423 C643.462,84.352 643.887,83.325 644.644,82.567 C645.402,81.81 646.429,81.385 647.5,81.385 C649.449,81.377 651.146,82.715 651.592,84.612 C651.9,86.056 653.314,86.983 654.761,86.689 C656.208,86.396 657.148,84.992 656.869,83.542 C655.927,79.126 652.015,75.977 647.5,76 C642.296,76 638.077,80.219 638.077,85.423 L638.077,100.231 L627.308,100.231 C626.594,100.231 625.909,100.514 625.404,101.019 C624.899,101.524 624.615,102.209 624.615,102.923 L624.615,116.385 C624.626,126.788 633.057,135.219 643.461,135.231 L643.461,140.615 C643.462,142.102 644.667,143.306 646.153,143.306 C647.639,143.306 648.844,142.102 648.846,140.615 L648.846,135.231 L681.153,135.231 L681.153,140.615 C681.153,142.102 682.359,143.308 683.846,143.308 C685.332,143.308 686.538,142.102 686.538,140.615 L686.538,135.231 C696.942,135.22 705.373,126.788 705.384,116.385 L705.384,102.923 C705.384,101.436 704.179,100.231 702.692,100.231 Z M686.538,102.923 L686.538,113.692 L670.385,113.692 L670.385,102.923 Z M700,116.385 C700,119.955 698.582,123.379 696.057,125.903 C693.533,128.428 690.109,129.846 686.538,129.846 L643.462,129.846 C639.891,129.846 636.467,128.428 633.943,125.903 C631.418,123.379 630,119.955 630,116.385 L630,105.615 L665,105.615 L665,116.385 C665,117.099 665.284,117.783 665.789,118.288 C666.293,118.793 666.978,119.077 667.692,119.077 L689.231,119.077 C689.945,119.077 690.63,118.793 691.135,118.288 C691.639,117.783 691.923,117.099 691.923,116.385 L691.923,105.615 L700,105.615 Z" />
        </g>
    </g>
</svg>