<?xml version="1.0" encoding="UTF-8"?>
<svg height="600" width="800" xmlns="http://www.w3.org/2000/svg" xmlns:xlink="http://www.w3.org/1999/xlink">
    <g id="Notes" font-family="'LucidaGrande', 'Lucida Grande', sans-serif" font-size="13">
        <rect fill="white" height="600.0" width="800.0" x="0.0" y="0.0" />
        <g font-size="13">
            <text x="18.0" y="176.0">Small</text>
            <text x="18.0" y="376.0">Medium</text>
            <text x="18.0" y="576.0">Large</text>
        </g>
        <g font-size="9">
            <text x="250.0" y="30.0">Ultralight</text>
            <text x="450.0" y="30.0">Regular</text>
            <text x="650.0" y="30.0">Black</text>
            <text id="template-version" fill="#505050" text-anchor="end" x="785.0" y="575.0">Template v.3.0</text>
            <a href="https://github.com/swhitty/SwiftDraw">
                <text fill="#505050" text-anchor="end" x="785.0" y="590.0">https://github.com/swhitty/SwiftDraw</text>
            </a>
        </g>
    </g>
    <g id="Guides" stroke="rgb(39, 170, 225)" stroke-width="0.5">
        <path id="Capline-S" d="M18,76 l800,0" />
        <path id="H-reference" d="M85,145.755 L87.685,145.755 L113.369,79.287 L114.052,79.287 L114.052,76 L112.148,76 L85,145.755 Z M95.693,121.536 L130.996,121.536 L130.263,119.313 L96.474,119.313 L95.693,121.536 Z M139.15,145.755 L141.787,145.755 L114.638,76 L113.466,76 L113.466,79.287 L139.15,145.755 Z" stroke="none" />
        <path id="Baseline-S" d="M18,146 l800,0" />
        <path id="left-margin-Ultralight-S" d="M220,56 l0,110" />
        <path id="right-margin-Ultralight-S" d="M310,56 l0,110" />
        <path id="left-margin-Regular-S" d="M420,56 l0,110" />
        <path id="right-margin-Regular-S" d="M510,56 l0,110" />
        <path id="left-margin-Black-S" d="M620,56 l0,110" />
        <path id="right-margin-Black-S" d="M710,56 l0,110" />
        <path id="Capline-M" d="M18,276 l800,0" />
        <path id="Baseline-M" d="M18,346 l800,0" />
        <path id="Capline-L" d="M18,476 l800,0" />
        <path id="Baseline-L" d="M18,546 l800,0" />
    </g>
    <g id="Symbols">
        <g id="Ultralight-S">
            <path d="M265,76 C245.67,76 230,91.67 230,111 C230,130.33 245.67,146 265,146 C284.33,146 300,130.33 300,111 C299.979,91.677 284.32,76.02 264.999,76 Z M235.385,111 C235.402,94.653 248.65,81.404 264.999,81.385 C272.433,81.385 278.46,87.412 278.46,94.846 C278.46,102.281 272.433,108.308 264.999,108.308 C258.536,108.307 252.523,111.617 249.068,117.079 C245.613,122.54 245.198,129.392 247.968,135.231 C240.078,129.684 235.384,120.644 235.385,111 Z M265,140.615 C257.565,140.615 251.538,134.588 251.538,127.154 C251.538,119.719 257.565,113.692 265,113.692 C271.458,113.691 277.466,110.383 280.92,104.926 C284.375,99.469 284.794,92.624 282.032,86.786 C292.585,94.218 297.11,107.628 293.216,119.934 C289.323,132.24 277.907,140.607 265,140.615 Z M269.038,127.154 C269.038,129.384 267.23,131.192 265,131.192 C262.77,131.192 260.962,129.384 260.962,127.154 C260.962,124.923 262.77,123.115 265,123.115 C266.071,123.115 267.098,123.541 267.856,124.298 C268.613,125.056 269.038,126.083 269.038,127.154 Z M260.962,94.846 C260.962,92.616 262.77,90.808 265,90.808 C267.23,90.808 269.038,92.616 269.038,94.846 C269.038,97.077 267.23,98.885 265,98.885 C263.929,98.885 262.902,98.459 262.144,97.702 C261.387,96.944 260.962,95.917 260.962,94.846 Z" />
        </g>
        <g id="Regular-S">
            <path d="M465,76 C445.67,76 430,91.67 430,111 C430,130.33 445.67,146 465,146 C484.33,146 500,130.33 500,111 C499.979,91.677 484.32,76.02 464.999,76 Z M435.385,111 C435.402,94.653 448.65,81.404 464.999,81.385 C472.433,81.385 478.46,87.412 478.46,94.846 C478.46,102.281 472.433,108.308 464.999,108.308 C458.536,108.307 452.523,111.617 449.068,117.079 C445.613,122.54 445.198,129.392 447.968,135.231 C440.078,129.684 435.384,120.644 435.385,111 Z M465,140.615 C457.565,140.615 451.538,134.588 451.538,127.154 C451.538,119.719 457.565,113.692 465,113.692 C471.458,113.691 477.466,110.383 480.92,104.926 C484.375,99.469 484.794,92.624 482.032,86.786 C492.585,94.218 497.11,107.628 493.216,119.934 C489.323,132.24 477.907,140.607 465,140.615 Z M469.038,127.154 C469.038,129.384 467.23,131.192 465,131.192 C462.77,131.192 460.962,129.384 460.962,127.154 C460.962,124.923 462.77,123.115 465,123.115 C466.071,123.115 467.098,123.541 467.856,124.298 C468.613,125.056 469.038,126.083 469.038,127.154 Z M460.962,94.846 C460.962,92.616 462.77,90.808 465,90.808 C467.23,90.808 469.038,92.616 469.038,94.846 C469.038,97.077 467.23,98.885 465,98.885 C463.929,98.885 462.902,98.459 462.144,97.702 C461.387,96.944 460.962,95.917 460.962,94.846 Z" />
        </g>
        <g id="Black-S">
            <path d="M665,76 C645.67,76 630,91.67 630,111 C630,130.33 645.67,146 665,146 C684.33,146 700,130.33 700,111 C699.979,91.677 684.32,76.02 664.999,76 Z M635.385,111 C635.402,94.653 648.65,81.404 664.999,81.385 C672.433,81.385 678.46,87.412 678.46,94.846 C678.46,102.281 672.433,108.308 664.999,108.308 C658.536,108.307 652.523,111.617 649.068,117.079 C645.613,122.54 645.198,129.392 647.968,135.231 C640.078,129.684 635.384,120.644 635.385,111 Z M665,140.615 C657.565,140.615 651.538,134.588 651.538,127.154 C651.538,119.719 657.565,113.692 665,113.692 C671.458,113.691 677.466,110.383 680.92,104.926 C684.375,99.469 684.794,92.624 682.032,86.786 C692.585,94.218 697.11,107.628 693.216,119.934 C689.323,132.24 677.907,140.607 665,140.615 Z M669.038,127.154 C669.038,129.384 667.23,131.192 665,131.192 C662.77,131.192 660.962,129.384 660.962,127.154 C660.962,124.923 662.77,123.115 665,123.115 C666.071,123.115 667.098,123.541 667.856,124.298 C668.613,125.056 669.038,126.083 669.038,127.154 Z M660.962,94.846 C660.962,92.616 662.77,90.808 665,90.808 C667.23,90.808 669.038,92.616 669.038,94.846 C669.038,97.077 667.23,98.885 665,98.885 C663.929,98.885 662.902,98.459 662.144,97.702 C661.387,96.944 660.962,95.917 660.962,94.846 Z" />
        </g>
    </g>
</svg>