<?xml version="1.0" encoding="UTF-8"?>
<svg height="600" width="800" xmlns="http://www.w3.org/2000/svg" xmlns:xlink="http://www.w3.org/1999/xlink">
    <g id="Notes" font-family="'LucidaGrande', 'Lucida Grande', sans-serif" font-size="13">
        <rect fill="white" height="600.0" width="800.0" x="0.0" y="0.0" />
        <g font-size="13">
            <text x="18.0" y="176.0">Small</text>
            <text x="18.0" y="376.0">Medium</text>
            <text x="18.0" y="576.0">Large</text>
        </g>
        <g font-size="9">
            <text x="250.0" y="30.0">Ultralight</text>
            <text x="450.0" y="30.0">Regular</text>
            <text x="650.0" y="30.0">Black</text>
            <text id="template-version" fill="#505050" text-anchor="end" x="785.0" y="575.0">Template v.3.0</text>
            <a href="https://github.com/swhitty/SwiftDraw">
                <text fill="#505050" text-anchor="end" x="785.0" y="590.0">https://github.com/swhitty/SwiftDraw</text>
            </a>
        </g>
    </g>
    <g id="Guides" stroke="rgb(39, 170, 225)" stroke-width="0.5">
        <path id="Capline-S" d="M18,76 l800,0" />
        <path id="H-reference" d="M85,145.755 L87.685,145.755 L113.369,79.287 L114.052,79.287 L114.052,76 L112.148,76 L85,145.755 Z M95.693,121.536 L130.996,121.536 L130.263,119.313 L96.474,119.313 L95.693,121.536 Z M139.15,145.755 L141.787,145.755 L114.638,76 L113.466,76 L113.466,79.287 L139.15,145.755 Z" stroke="none" />
        <path id="Baseline-S" d="M18,146 l800,0" />
        <path id="left-margin-Ultralight-S" d="M220,56 l0,110" />
        <path id="right-margin-Ultralight-S" d="M310,56 l0,110" />
        <path id="left-margin-Regular-S" d="M420,56 l0,110" />
        <path id="right-margin-Regular-S" d="M510,56 l0,110" />
        <path id="left-margin-Black-S" d="M620,56 l0,110" />
        <path id="right-margin-Black-S" d="M710,56 l0,110" />
        <path id="Capline-M" d="M18,276 l800,0" />
        <path id="Baseline-M" d="M18,346 l800,0" />
        <path id="Capline-L" d="M18,476 l800,0" />
        <path id="Baseline-L" d="M18,546 l800,0" />
    </g>
    <g id="Symbols">
        <g id="Ultralight-S">
            <path d="M302.692,137.923 L300,137.923 L300,92.154 C300,91.44 299.716,90.755 299.211,90.25 C298.707,89.745 298.022,89.462 297.308,89.462 L283.846,89.462 L283.846,81.385 C283.846,80.671 283.562,79.986 283.058,79.481 C282.553,78.976 281.868,78.692 281.154,78.692 L248.846,78.692 C248.132,78.692 247.447,78.976 246.942,79.481 C246.438,79.986 246.154,80.671 246.154,81.385 L246.154,100.231 L232.692,100.231 C231.978,100.231 231.293,100.514 230.789,101.019 C230.284,101.524 230,102.209 230,102.923 L230,137.923 L227.308,137.923 C225.821,137.923 224.615,139.128 224.615,140.615 C224.615,142.102 225.821,143.308 227.308,143.308 L302.692,143.308 C304.179,143.308 305.385,142.102 305.385,140.615 C305.385,139.128 304.179,137.923 302.692,137.923 Z M235.385,105.615 L248.846,105.615 C249.56,105.615 250.245,105.332 250.75,104.827 C251.255,104.322 251.538,103.637 251.538,102.923 L251.538,84.077 L278.462,84.077 L278.462,92.154 C278.462,92.868 278.745,93.553 279.25,94.058 C279.755,94.563 280.44,94.846 281.154,94.846 L294.615,94.846 L294.615,137.923 L273.077,137.923 L273.077,124.462 C273.077,123.747 272.793,123.063 272.288,122.558 C271.783,122.053 271.099,121.769 270.385,121.769 L259.615,121.769 C258.901,121.769 258.217,122.053 257.712,122.558 C257.207,123.063 256.923,123.747 256.923,124.462 L256.923,137.923 L235.385,137.923 Z M267.692,137.923 L262.308,137.923 L262.308,127.154 L267.692,127.154 Z M259.615,92.154 C259.615,91.44 259.899,90.755 260.404,90.25 C260.909,89.745 261.594,89.462 262.308,89.462 L267.692,89.462 C269.179,89.462 270.385,90.667 270.385,92.154 C270.385,93.641 269.179,94.846 267.692,94.846 L262.308,94.846 C261.594,94.846 260.909,94.562 260.404,94.058 C259.899,93.553 259.615,92.868 259.615,92.154 Z M259.615,102.923 C259.615,102.209 259.899,101.524 260.404,101.019 C260.909,100.514 261.594,100.231 262.308,100.231 L267.692,100.231 C269.179,100.231 270.385,101.436 270.385,102.923 C270.385,104.41 269.179,105.615 267.692,105.615 L262.308,105.615 C261.594,105.615 260.909,105.332 260.404,104.827 C259.899,104.322 259.615,103.637 259.615,102.923 Z M278.462,102.923 C278.462,102.209 278.745,101.524 279.25,101.019 C279.755,100.514 280.44,100.231 281.154,100.231 L286.538,100.231 C288.025,100.231 289.231,101.436 289.231,102.923 C289.231,104.41 288.025,105.615 286.538,105.615 L281.154,105.615 C280.44,105.615 279.755,105.332 279.25,104.827 C278.745,104.322 278.462,103.637 278.462,102.923 Z M251.538,113.692 C251.538,114.406 251.255,115.091 250.75,115.596 C250.245,116.101 249.56,116.385 248.846,116.385 L243.462,116.385 C241.975,116.385 240.769,115.179 240.769,113.692 C240.769,112.205 241.975,111 243.462,111 L248.846,111 C249.56,111 250.245,111.284 250.75,111.789 C251.255,112.293 251.538,112.978 251.538,113.692 Z M251.538,124.462 C251.538,125.176 251.255,125.86 250.75,126.365 C250.245,126.87 249.56,127.154 248.846,127.154 L243.462,127.154 C241.975,127.154 240.769,125.948 240.769,124.462 C240.769,122.975 241.975,121.769 243.462,121.769 L248.846,121.769 C249.56,121.769 250.245,122.053 250.75,122.558 C251.255,123.063 251.538,123.747 251.538,124.462 Z M259.615,113.692 C259.615,112.978 259.899,112.293 260.404,111.789 C260.909,111.284 261.594,111 262.308,111 L267.692,111 C269.179,111 270.385,112.205 270.385,113.692 C270.385,115.179 269.179,116.385 267.692,116.385 L262.308,116.385 C261.594,116.385 260.909,116.101 260.404,115.596 C259.899,115.091 259.615,114.406 259.615,113.692 Z M278.462,113.692 C278.462,112.978 278.745,112.293 279.25,111.789 C279.755,111.284 280.44,111 281.154,111 L286.538,111 C288.025,111 289.231,112.205 289.231,113.692 C289.231,115.179 288.025,116.385 286.538,116.385 L281.154,116.385 C280.44,116.385 279.755,116.101 279.25,115.596 C278.745,115.091 278.462,114.406 278.462,113.692 Z M278.462,124.462 C278.462,123.747 278.745,123.063 279.25,122.558 C279.755,122.053 280.44,121.769 281.154,121.769 L286.538,121.769 C288.025,121.769 289.231,122.975 289.231,124.462 C289.231,125.948 288.025,127.154 286.538,127.154 L281.154,127.154 C280.44,127.154 279.755,126.87 279.25,126.365 C278.745,125.86 278.462,125.176 278.462,124.462 Z" />
        </g>
        <g id="Regular-S">
            <path d="M502.692,137.923 L500,137.923 L500,92.154 C500,91.44 499.716,90.755 499.211,90.25 C498.707,89.745 498.022,89.462 497.308,89.462 L483.846,89.462 L483.846,81.385 C483.846,80.671 483.562,79.986 483.058,79.481 C482.553,78.976 481.868,78.692 481.154,78.692 L448.846,78.692 C448.132,78.692 447.447,78.976 446.942,79.481 C446.438,79.986 446.154,80.671 446.154,81.385 L446.154,100.231 L432.692,100.231 C431.978,100.231 431.293,100.514 430.789,101.019 C430.284,101.524 430,102.209 430,102.923 L430,137.923 L427.308,137.923 C425.821,137.923 424.615,139.128 424.615,140.615 C424.615,142.102 425.821,143.308 427.308,143.308 L502.692,143.308 C504.179,143.308 505.385,142.102 505.385,140.615 C505.385,139.128 504.179,137.923 502.692,137.923 Z M435.385,105.615 L448.846,105.615 C449.56,105.615 450.245,105.332 450.75,104.827 C451.255,104.322 451.538,103.637 451.538,102.923 L451.538,84.077 L478.462,84.077 L478.462,92.154 C478.462,92.868 478.745,93.553 479.25,94.058 C479.755,94.563 480.44,94.846 481.154,94.846 L494.615,94.846 L494.615,137.923 L473.077,137.923 L473.077,124.462 C473.077,123.747 472.793,123.063 472.288,122.558 C471.783,122.053 471.099,121.769 470.385,121.769 L459.615,121.769 C458.901,121.769 458.217,122.053 457.712,122.558 C457.207,123.063 456.923,123.747 456.923,124.462 L456.923,137.923 L435.385,137.923 Z M467.692,137.923 L462.308,137.923 L462.308,127.154 L467.692,127.154 Z M459.615,92.154 C459.615,91.44 459.899,90.755 460.404,90.25 C460.909,89.745 461.594,89.462 462.308,89.462 L467.692,89.462 C469.179,89.462 470.385,90.667 470.385,92.154 C470.385,93.641 469.179,94.846 467.692,94.846 L462.308,94.846 C461.594,94.846 460.909,94.562 460.404,94.058 C459.899,93.553 459.615,92.868 459.615,92.154 Z M459.615,102.923 C459.615,102.209 459.899,101.524 460.404,101.019 C460.909,100.514 461.594,100.231 462.308,100.231 L467.692,100.231 C469.179,100.231 470.385,101.436 470.385,102.923 C470.385,104.41 469.179,105.615 467.692,105.615 L462.308,105.615 C461.594,105.615 460.909,105.332 460.404,104.827 C459.899,104.322 459.615,103.637 459.615,102.923 Z M478.462,102.923 C478.462,102.209 478.745,101.524 479.25,101.019 C479.755,100.514 480.44,100.231 481.154,100.231 L486.538,100.231 C488.025,100.231 489.231,101.436 489.231,102.923 C489.231,104.41 488.025,105.615 486.538,105.615 L481.154,105.615 C480.44,105.615 479.755,105.332 479.25,104.827 C478.745,104.322 478.462,103.637 478.462,102.923 Z M451.538,113.692 C451.538,114.406 451.255,115.091 450.75,115.596 C450.245,116.101 449.56,116.385 448.846,116.385 L443.462,116.385 C441.975,116.385 440.769,115.179 440.769,113.692 C440.769,112.205 441.975,111 443.462,111 L448.846,111 C449.56,111 450.245,111.284 450.75,111.789 C451.255,112.293 451.538,112.978 451.538,113.692 Z M451.538,124.462 C451.538,125.176 451.255,125.86 450.75,126.365 C450.245,126.87 449.56,127.154 448.846,127.154 L443.462,127.154 C441.975,127.154 440.769,125.948 440.769,124.462 C440.769,122.975 441.975,121.769 443.462,121.769 L448.846,121.769 C449.56,121.769 450.245,122.053 450.75,122.558 C451.255,123.063 451.538,123.747 451.538,124.462 Z M459.615,113.692 C459.615,112.978 459.899,112.293 460.404,111.789 C460.909,111.284 461.594,111 462.308,111 L467.692,111 C469.179,111 470.385,112.205 470.385,113.692 C470.385,115.179 469.179,116.385 467.692,116.385 L462.308,116.385 C461.594,116.385 460.909,116.101 460.404,115.596 C459.899,115.091 459.615,114.406 459.615,113.692 Z M478.462,113.692 C478.462,112.978 478.745,112.293 479.25,111.789 C479.755,111.284 480.44,111 481.154,111 L486.538,111 C488.025,111 489.231,112.205 489.231,113.692 C489.231,115.179 488.025,116.385 486.538,116.385 L481.154,116.385 C480.44,116.385 479.755,116.101 479.25,115.596 C478.745,115.091 478.462,114.406 478.462,113.692 Z M478.462,124.462 C478.462,123.747 478.745,123.063 479.25,122.558 C479.755,122.053 480.44,121.769 481.154,121.769 L486.538,121.769 C488.025,121.769 489.231,122.975 489.231,124.462 C489.231,125.948 488.025,127.154 486.538,127.154 L481.154,127.154 C480.44,127.154 479.755,126.87 479.25,126.365 C478.745,125.86 478.462,125.176 478.462,124.462 Z" />
        </g>
        <g id="Black-S">
            <path d="M702.692,137.923 L700,137.923 L700,92.154 C700,91.44 699.716,90.755 699.211,90.25 C698.707,89.745 698.022,89.462 697.308,89.462 L683.846,89.462 L683.846,81.385 C683.846,80.671 683.562,79.986 683.058,79.481 C682.553,78.976 681.868,78.692 681.154,78.692 L648.846,78.692 C648.132,78.692 647.447,78.976 646.942,79.481 C646.438,79.986 646.154,80.671 646.154,81.385 L646.154,100.231 L632.692,100.231 C631.978,100.231 631.293,100.514 630.789,101.019 C630.284,101.524 630,102.209 630,102.923 L630,137.923 L627.308,137.923 C625.821,137.923 624.615,139.128 624.615,140.615 C624.615,142.102 625.821,143.308 627.308,143.308 L702.692,143.308 C704.179,143.308 705.385,142.102 705.385,140.615 C705.385,139.128 704.179,137.923 702.692,137.923 Z M635.385,105.615 L648.846,105.615 C649.56,105.615 650.245,105.332 650.75,104.827 C651.255,104.322 651.538,103.637 651.538,102.923 L651.538,84.077 L678.462,84.077 L678.462,92.154 C678.462,92.868 678.745,93.553 679.25,94.058 C679.755,94.563 680.44,94.846 681.154,94.846 L694.615,94.846 L694.615,137.923 L673.077,137.923 L673.077,124.462 C673.077,123.747 672.793,123.063 672.288,122.558 C671.783,122.053 671.099,121.769 670.385,121.769 L659.615,121.769 C658.901,121.769 658.217,122.053 657.712,122.558 C657.207,123.063 656.923,123.747 656.923,124.462 L656.923,137.923 L635.385,137.923 Z M667.692,137.923 L662.308,137.923 L662.308,127.154 L667.692,127.154 Z M659.615,92.154 C659.615,91.44 659.899,90.755 660.404,90.25 C660.909,89.745 661.594,89.462 662.308,89.462 L667.692,89.462 C669.179,89.462 670.385,90.667 670.385,92.154 C670.385,93.641 669.179,94.846 667.692,94.846 L662.308,94.846 C661.594,94.846 660.909,94.562 660.404,94.058 C659.899,93.553 659.615,92.868 659.615,92.154 Z M659.615,102.923 C659.615,102.209 659.899,101.524 660.404,101.019 C660.909,100.514 661.594,100.231 662.308,100.231 L667.692,100.231 C669.179,100.231 670.385,101.436 670.385,102.923 C670.385,104.41 669.179,105.615 667.692,105.615 L662.308,105.615 C661.594,105.615 660.909,105.332 660.404,104.827 C659.899,104.322 659.615,103.637 659.615,102.923 Z M678.462,102.923 C678.462,102.209 678.745,101.524 679.25,101.019 C679.755,100.514 680.44,100.231 681.154,100.231 L686.538,100.231 C688.025,100.231 689.231,101.436 689.231,102.923 C689.231,104.41 688.025,105.615 686.538,105.615 L681.154,105.615 C680.44,105.615 679.755,105.332 679.25,104.827 C678.745,104.322 678.462,103.637 678.462,102.923 Z M651.538,113.692 C651.538,114.406 651.255,115.091 650.75,115.596 C650.245,116.101 649.56,116.385 648.846,116.385 L643.462,116.385 C641.975,116.385 640.769,115.179 640.769,113.692 C640.769,112.205 641.975,111 643.462,111 L648.846,111 C649.56,111 650.245,111.284 650.75,111.789 C651.255,112.293 651.538,112.978 651.538,113.692 Z M651.538,124.462 C651.538,125.176 651.255,125.86 650.75,126.365 C650.245,126.87 649.56,127.154 648.846,127.154 L643.462,127.154 C641.975,127.154 640.769,125.948 640.769,124.462 C640.769,122.975 641.975,121.769 643.462,121.769 L648.846,121.769 C649.56,121.769 650.245,122.053 650.75,122.558 C651.255,123.063 651.538,123.747 651.538,124.462 Z M659.615,113.692 C659.615,112.978 659.899,112.293 660.404,111.789 C660.909,111.284 661.594,111 662.308,111 L667.692,111 C669.179,111 670.385,112.205 670.385,113.692 C670.385,115.179 669.179,116.385 667.692,116.385 L662.308,116.385 C661.594,116.385 660.909,116.101 660.404,115.596 C659.899,115.091 659.615,114.406 659.615,113.692 Z M678.462,113.692 C678.462,112.978 678.745,112.293 679.25,111.789 C679.755,111.284 680.44,111 681.154,111 L686.538,111 C688.025,111 689.231,112.205 689.231,113.692 C689.231,115.179 688.025,116.385 686.538,116.385 L681.154,116.385 C680.44,116.385 679.755,116.101 679.25,115.596 C678.745,115.091 678.462,114.406 678.462,113.692 Z M678.462,124.462 C678.462,123.747 678.745,123.063 679.25,122.558 C679.755,122.053 680.44,121.769 681.154,121.769 L686.538,121.769 C688.025,121.769 689.231,122.975 689.231,124.462 C689.231,125.948 688.025,127.154 686.538,127.154 L681.154,127.154 C680.44,127.154 679.755,126.87 679.25,126.365 C678.745,125.86 678.462,125.176 678.462,124.462 Z" />
        </g>
    </g>
</svg>