<?xml version="1.0" encoding="UTF-8"?>
<svg height="600" width="800" xmlns="http://www.w3.org/2000/svg" xmlns:xlink="http://www.w3.org/1999/xlink">
    <g id="Notes" font-family="'LucidaGrande', 'Lucida Grande', sans-serif" font-size="13">
        <rect fill="white" height="600.0" width="800.0" x="0.0" y="0.0" />
        <g font-size="13">
            <text x="18.0" y="176.0">Small</text>
            <text x="18.0" y="376.0">Medium</text>
            <text x="18.0" y="576.0">Large</text>
        </g>
        <g font-size="9">
            <text x="250.0" y="30.0">Ultralight</text>
            <text x="450.0" y="30.0">Regular</text>
            <text x="650.0" y="30.0">Black</text>
            <text id="template-version" fill="#505050" text-anchor="end" x="785.0" y="575.0">Template v.3.0</text>
            <a href="https://github.com/swhitty/SwiftDraw">
                <text fill="#505050" text-anchor="end" x="785.0" y="590.0">https://github.com/swhitty/SwiftDraw</text>
            </a>
        </g>
    </g>
    <g id="Guides" stroke="rgb(39, 170, 225)" stroke-width="0.5">
        <path id="Capline-S" d="M18,76 l800,0" />
        <path id="H-reference" d="M85,145.755 L87.685,145.755 L113.369,79.287 L114.052,79.287 L114.052,76 L112.148,76 L85,145.755 Z M95.693,121.536 L130.996,121.536 L130.263,119.313 L96.474,119.313 L95.693,121.536 Z M139.15,145.755 L141.787,145.755 L114.638,76 L113.466,76 L113.466,79.287 L139.15,145.755 Z" stroke="none" />
        <path id="Baseline-S" d="M18,146 l800,0" />
        <path id="left-margin-Ultralight-S" d="M220,56 l0,110" />
        <path id="right-margin-Ultralight-S" d="M310,56 l0,110" />
        <path id="left-margin-Regular-S" d="M420,56 l0,110" />
        <path id="right-margin-Regular-S" d="M510,56 l0,110" />
        <path id="left-margin-Black-S" d="M620,56 l0,110" />
        <path id="right-margin-Black-S" d="M710,56 l0,110" />
        <path id="Capline-M" d="M18,276 l800,0" />
        <path id="Baseline-M" d="M18,346 l800,0" />
        <path id="Capline-L" d="M18,476 l800,0" />
        <path id="Baseline-L" d="M18,546 l800,0" />
    </g>
    <g id="Symbols">
        <g id="Ultralight-S">
            <path d="M300.771,106.575 L299.068,108.045 C297.942,109.016 296.242,108.891 295.27,107.765 C294.299,106.638 294.424,104.938 295.551,103.967 L297.254,102.496 C297.294,102.462 297.331,102.432 297.297,102.328 C297.264,102.223 297.237,102.237 297.183,102.23 L294.4,102.005 C293.419,101.956 292.542,101.378 292.112,100.495 C291.682,99.612 291.767,98.565 292.333,97.763 C292.9,96.96 293.858,96.53 294.834,96.64 L297.617,96.862 C299.838,97.05 301.73,98.551 302.419,100.671 C303.107,102.792 302.458,105.118 300.77,106.575 Z M280.003,119.292 L281.376,125.088 C281.663,126.302 282.747,127.16 283.994,127.161 C284.204,127.161 284.413,127.136 284.617,127.087 C285.312,126.922 285.913,126.488 286.288,125.88 C286.663,125.272 286.781,124.541 286.616,123.846 L285.606,119.642 L288.299,117.334 C289.425,116.362 289.551,114.662 288.579,113.535 C287.608,112.409 285.908,112.284 284.781,113.255 L280.864,116.62 C280.099,117.279 279.766,118.311 280.003,119.292 Z M289.806,137.307 C289.464,135.861 288.013,134.966 286.566,135.308 C285.119,135.65 284.224,137.101 284.566,138.548 L285.01,140.426 C285.037,140.487 285.012,140.557 284.953,140.588 C284.893,140.635 284.876,140.625 284.825,140.588 L282.564,139.198 C281.297,138.419 279.639,138.814 278.86,140.081 C278.081,141.348 278.477,143.006 279.744,143.785 L282.005,145.175 C283.907,146.329 286.316,146.229 288.116,144.921 C289.916,143.612 290.753,141.35 290.24,139.185 Z M280.938,100.921 L275.675,100.493 C274.671,100.408 273.798,99.769 273.413,98.838 L267.692,85.013 L267.692,130.058 L270.193,131.596 C271.459,132.375 271.855,134.033 271.076,135.3 C270.297,136.566 268.639,136.962 267.373,136.183 L265,134.723 L247.995,145.182 C246.091,146.339 243.68,146.238 241.879,144.927 C240.079,143.616 239.243,141.352 239.76,139.185 L244.39,119.642 L229.246,106.575 C227.563,105.119 226.913,102.798 227.597,100.681 C228.281,98.563 230.166,97.06 232.383,96.865 L252.238,95.263 L259.898,76.727 C260.746,74.661 262.758,73.312 264.992,73.312 C267.225,73.312 269.237,74.661 270.085,76.727 L277.741,95.263 L281.362,95.556 C282.85,95.677 283.958,96.979 283.838,98.466 C283.717,99.953 282.415,101.061 280.928,100.941 Z M262.308,130.058 L262.308,85.013 L256.587,98.838 C256.2,99.772 255.323,100.412 254.315,100.493 L232.803,102.23 C232.753,102.23 232.723,102.23 232.692,102.327 C232.66,102.387 232.679,102.462 232.736,102.499 L249.125,116.634 C249.887,117.29 250.22,118.317 249.987,119.296 L244.979,140.43 C244.952,140.491 244.978,140.562 245.037,140.592 C245.097,140.639 245.114,140.629 245.164,140.592 Z" />
        </g>
        <g id="Regular-S">
            <path d="M500.771,106.575 L499.068,108.045 C497.942,109.016 496.242,108.891 495.27,107.765 C494.299,106.638 494.424,104.938 495.551,103.967 L497.254,102.496 C497.294,102.462 497.331,102.432 497.297,102.328 C497.264,102.223 497.237,102.237 497.183,102.23 L494.4,102.005 C493.419,101.956 492.542,101.378 492.112,100.495 C491.682,99.612 491.767,98.565 492.333,97.763 C492.9,96.96 493.858,96.53 494.834,96.64 L497.617,96.862 C499.838,97.05 501.73,98.551 502.419,100.671 C503.107,102.792 502.458,105.118 500.77,106.575 Z M480.003,119.292 L481.376,125.088 C481.663,126.302 482.747,127.16 483.994,127.161 C484.204,127.161 484.413,127.136 484.617,127.087 C485.312,126.922 485.913,126.488 486.288,125.88 C486.663,125.272 486.781,124.541 486.616,123.846 L485.606,119.642 L488.299,117.334 C489.425,116.362 489.551,114.662 488.579,113.535 C487.608,112.409 485.908,112.284 484.781,113.255 L480.864,116.62 C480.099,117.279 479.766,118.311 480.003,119.292 Z M489.806,137.307 C489.464,135.861 488.013,134.966 486.566,135.308 C485.119,135.65 484.224,137.101 484.566,138.548 L485.01,140.426 C485.037,140.487 485.012,140.557 484.953,140.588 C484.893,140.635 484.876,140.625 484.825,140.588 L482.564,139.198 C481.297,138.419 479.639,138.814 478.86,140.081 C478.081,141.348 478.477,143.006 479.744,143.785 L482.005,145.175 C483.907,146.329 486.316,146.229 488.116,144.921 C489.916,143.612 490.753,141.35 490.24,139.185 Z M480.938,100.921 L475.675,100.493 C474.671,100.408 473.798,99.769 473.413,98.838 L467.692,85.013 L467.692,130.058 L470.193,131.596 C471.459,132.375 471.855,134.033 471.076,135.3 C470.297,136.566 468.639,136.962 467.373,136.183 L465,134.723 L447.995,145.182 C446.091,146.339 443.68,146.238 441.879,144.927 C440.079,143.616 439.243,141.352 439.76,139.185 L444.39,119.642 L429.246,106.575 C427.563,105.119 426.913,102.798 427.597,100.681 C428.281,98.563 430.166,97.06 432.383,96.865 L452.238,95.263 L459.898,76.727 C460.746,74.661 462.758,73.312 464.992,73.312 C467.225,73.312 469.237,74.661 470.085,76.727 L477.741,95.263 L481.362,95.556 C482.85,95.677 483.958,96.979 483.838,98.466 C483.717,99.953 482.415,101.061 480.928,100.941 Z M462.308,130.058 L462.308,85.013 L456.587,98.838 C456.2,99.772 455.323,100.412 454.315,100.493 L432.803,102.23 C432.753,102.23 432.723,102.23 432.692,102.327 C432.66,102.387 432.679,102.462 432.736,102.499 L449.125,116.634 C449.887,117.29 450.22,118.317 449.987,119.296 L444.979,140.43 C444.952,140.491 444.978,140.562 445.037,140.592 C445.097,140.639 445.114,140.629 445.164,140.592 Z" />
        </g>
        <g id="Black-S">
            <path d="M700.771,106.575 L699.068,108.045 C697.942,109.016 696.242,108.891 695.27,107.765 C694.299,106.638 694.424,104.938 695.551,103.967 L697.254,102.496 C697.294,102.462 697.331,102.432 697.297,102.328 C697.264,102.223 697.237,102.237 697.183,102.23 L694.4,102.005 C693.419,101.956 692.542,101.378 692.112,100.495 C691.682,99.612 691.767,98.565 692.333,97.763 C692.9,96.96 693.858,96.53 694.834,96.64 L697.617,96.862 C699.838,97.05 701.73,98.551 702.419,100.671 C703.107,102.792 702.458,105.118 700.77,106.575 Z M680.003,119.292 L681.376,125.088 C681.663,126.302 682.747,127.16 683.994,127.161 C684.204,127.161 684.413,127.136 684.617,127.087 C685.312,126.922 685.913,126.488 686.288,125.88 C686.663,125.272 686.781,124.541 686.616,123.846 L685.606,119.642 L688.299,117.334 C689.425,116.362 689.551,114.662 688.579,113.535 C687.608,112.409 685.908,112.284 684.781,113.255 L680.864,116.62 C680.099,117.279 679.766,118.311 680.003,119.292 Z M689.806,137.307 C689.464,135.861 688.013,134.966 686.566,135.308 C685.119,135.65 684.224,137.101 684.566,138.548 L685.01,140.426 C685.037,140.487 685.012,140.557 684.953,140.588 C684.893,140.635 684.876,140.625 684.825,140.588 L682.564,139.198 C681.297,138.419 679.639,138.814 678.86,140.081 C678.081,141.348 678.477,143.006 679.744,143.785 L682.005,145.175 C683.907,146.329 686.317,146.229 688.116,144.921 C689.916,143.612 690.753,141.35 690.24,139.185 Z M680.938,100.921 L675.675,100.493 C674.671,100.408 673.798,99.769 673.413,98.838 L667.692,85.013 L667.692,130.058 L670.193,131.596 C671.459,132.375 671.855,134.033 671.076,135.3 C670.297,136.566 668.639,136.962 667.373,136.183 L665,134.723 L647.995,145.182 C646.091,146.339 643.68,146.238 641.879,144.927 C640.079,143.616 639.243,141.352 639.76,139.185 L644.39,119.642 L629.246,106.575 C627.563,105.119 626.913,102.798 627.597,100.681 C628.281,98.563 630.166,97.06 632.383,96.865 L652.238,95.263 L659.898,76.727 C660.746,74.661 662.758,73.312 664.992,73.312 C667.225,73.312 669.237,74.661 670.085,76.727 L677.741,95.263 L681.363,95.556 C682.85,95.677 683.958,96.979 683.838,98.466 C683.717,99.953 682.415,101.061 680.928,100.941 Z M662.308,130.058 L662.308,85.013 L656.587,98.838 C656.2,99.772 655.323,100.412 654.315,100.493 L632.803,102.23 C632.753,102.23 632.723,102.23 632.692,102.327 C632.66,102.387 632.679,102.462 632.736,102.499 L649.125,116.634 C649.887,117.29 650.22,118.317 649.987,119.296 L644.979,140.43 C644.952,140.491 644.978,140.562 645.037,140.592 C645.097,140.639 645.114,140.629 645.164,140.592 Z" />
        </g>
    </g>
</svg>