<?xml version="1.0" encoding="UTF-8"?>
<svg height="600" width="800" xmlns="http://www.w3.org/2000/svg" xmlns:xlink="http://www.w3.org/1999/xlink">
    <g id="Notes" font-family="'LucidaGrande', 'Lucida Grande', sans-serif" font-size="13">
        <rect fill="white" height="600.0" width="800.0" x="0.0" y="0.0" />
        <g font-size="13">
            <text x="18.0" y="176.0">Small</text>
            <text x="18.0" y="376.0">Medium</text>
            <text x="18.0" y="576.0">Large</text>
        </g>
        <g font-size="9">
            <text x="250.0" y="30.0">Ultralight</text>
            <text x="450.0" y="30.0">Regular</text>
            <text x="650.0" y="30.0">Black</text>
            <text id="template-version" fill="#505050" text-anchor="end" x="785.0" y="575.0">Template v.3.0</text>
            <a href="https://github.com/swhitty/SwiftDraw">
                <text fill="#505050" text-anchor="end" x="785.0" y="590.0">https://github.com/swhitty/SwiftDraw</text>
            </a>
        </g>
    </g>
    <g id="Guides" stroke="rgb(39, 170, 225)" stroke-width="0.5">
        <path id="Capline-S" d="M18,76 l800,0" />
        <path id="H-reference" d="M85,145.755 L87.685,145.755 L113.369,79.287 L114.052,79.287 L114.052,76 L112.148,76 L85,145.755 Z M95.693,121.536 L130.996,121.536 L130.263,119.313 L96.474,119.313 L95.693,121.536 Z M139.15,145.755 L141.787,145.755 L114.638,76 L113.466,76 L113.466,79.287 L139.15,145.755 Z" stroke="none" />
        <path id="Baseline-S" d="M18,146 l800,0" />
        <path id="left-margin-Ultralight-S" d="M220,56 l0,110" />
        <path id="right-margin-Ultralight-S" d="M310,56 l0,110" />
        <path id="left-margin-Regular-S" d="M420,56 l0,110" />
        <path id="right-margin-Regular-S" d="M510,56 l0,110" />
        <path id="left-margin-Black-S" d="M620,56 l0,110" />
        <path id="right-margin-Black-S" d="M710,56 l0,110" />
        <path id="Capline-M" d="M18,276 l800,0" />
        <path id="Baseline-M" d="M18,346 l800,0" />
        <path id="Capline-L" d="M18,476 l800,0" />
        <path id="Baseline-L" d="M18,546 l800,0" />
    </g>
    <g id="Symbols">
        <g id="Ultralight-S">
            <path d="M298.654,126.817 C298.033,127.171 297.296,127.264 296.607,127.075 C295.918,126.885 295.332,126.429 294.979,125.808 L288.585,114.635 C284.867,117.148 280.766,119.042 276.442,120.241 L278.418,132.094 C278.535,132.799 278.368,133.522 277.953,134.103 C277.538,134.684 276.908,135.077 276.203,135.194 C276.06,135.217 275.915,135.23 275.769,135.231 C274.454,135.229 273.333,134.277 273.117,132.979 L271.175,121.342 C267.08,121.912 262.926,121.912 258.831,121.342 L256.889,132.979 C256.674,134.279 255.549,135.232 254.231,135.231 C254.082,135.23 253.933,135.218 253.787,135.194 C253.082,135.077 252.452,134.684 252.037,134.103 C251.622,133.522 251.454,132.799 251.572,132.094 L253.558,120.241 C249.235,119.038 245.137,117.141 241.422,114.625 L235.048,125.808 C234.326,127.09 232.676,127.551 231.375,126.818 C230.074,126.085 229.613,124.435 230.346,123.134 L237.077,111.355 C234.713,109.313 232.539,107.06 230.582,104.624 C229.646,103.455 229.834,101.757 230.997,100.826 C232.161,99.895 233.859,100.083 234.79,101.246 C240.377,108.159 250.15,116.391 265.005,116.391 C279.86,116.391 289.633,108.149 295.219,101.246 C295.785,100.4 296.78,99.945 297.79,100.071 C298.801,100.197 299.653,100.883 299.994,101.842 C300.335,102.801 300.105,103.871 299.401,104.606 C297.444,107.041 295.27,109.294 292.906,111.337 L299.637,123.115 C300.001,123.736 300.103,124.476 299.918,125.172 C299.734,125.867 299.278,126.46 298.654,126.817 Z" />
        </g>
        <g id="Regular-S">
            <path d="M498.654,126.817 C498.033,127.171 497.296,127.264 496.607,127.075 C495.918,126.885 495.332,126.429 494.979,125.808 L488.585,114.635 C484.867,117.148 480.766,119.042 476.442,120.241 L478.418,132.094 C478.535,132.799 478.368,133.522 477.953,134.103 C477.538,134.684 476.908,135.077 476.203,135.194 C476.06,135.217 475.915,135.23 475.769,135.231 C474.454,135.229 473.333,134.277 473.117,132.979 L471.175,121.342 C467.08,121.912 462.926,121.912 458.831,121.342 L456.889,132.979 C456.674,134.279 455.549,135.232 454.231,135.231 C454.082,135.23 453.933,135.218 453.787,135.194 C453.082,135.077 452.452,134.684 452.037,134.103 C451.622,133.522 451.454,132.799 451.572,132.094 L453.558,120.241 C449.235,119.038 445.137,117.141 441.422,114.625 L435.048,125.808 C434.326,127.09 432.676,127.551 431.375,126.818 C430.074,126.085 429.613,124.435 430.346,123.134 L437.077,111.355 C434.713,109.313 432.539,107.06 430.582,104.624 C429.646,103.455 429.834,101.757 430.997,100.826 C432.161,99.895 433.859,100.083 434.79,101.246 C440.377,108.159 450.15,116.391 465.005,116.391 C479.86,116.391 489.633,108.149 495.219,101.246 C495.785,100.4 496.78,99.945 497.79,100.071 C498.8,100.197 499.653,100.883 499.994,101.842 C500.335,102.801 500.105,103.871 499.401,104.606 C497.444,107.041 495.27,109.294 492.906,111.337 L499.636,123.115 C500.001,123.736 500.103,124.476 499.918,125.172 C499.734,125.867 499.278,126.46 498.654,126.817 Z" />
        </g>
        <g id="Black-S">
            <path d="M698.654,126.817 C698.033,127.171 697.296,127.264 696.607,127.075 C695.918,126.885 695.332,126.429 694.979,125.808 L688.585,114.635 C684.867,117.148 680.766,119.042 676.442,120.241 L678.418,132.094 C678.536,132.799 678.368,133.522 677.953,134.103 C677.538,134.684 676.908,135.077 676.203,135.194 C676.06,135.217 675.915,135.23 675.769,135.231 C674.454,135.229 673.333,134.277 673.117,132.979 L671.175,121.342 C667.081,121.912 662.926,121.912 658.831,121.342 L656.889,132.979 C656.674,134.279 655.549,135.232 654.231,135.231 C654.082,135.23 653.933,135.218 653.787,135.194 C653.082,135.077 652.452,134.684 652.037,134.103 C651.622,133.522 651.454,132.799 651.572,132.094 L653.558,120.241 C649.235,119.038 645.137,117.141 641.422,114.625 L635.048,125.808 C634.326,127.09 632.676,127.551 631.375,126.818 C630.074,126.085 629.613,124.435 630.346,123.134 L637.077,111.355 C634.713,109.313 632.539,107.06 630.582,104.624 C629.646,103.455 629.834,101.757 630.997,100.826 C632.161,99.895 633.859,100.083 634.79,101.246 C640.377,108.159 650.15,116.391 665.005,116.391 C679.86,116.391 689.633,108.149 695.219,101.246 C695.785,100.4 696.78,99.945 697.79,100.071 C698.801,100.197 699.653,100.883 699.994,101.842 C700.335,102.801 700.105,103.871 699.401,104.606 C697.444,107.041 695.27,109.294 692.906,111.337 L699.637,123.115 C700.001,123.736 700.103,124.476 699.918,125.172 C699.734,125.867 699.278,126.46 698.654,126.817 Z" />
        </g>
    </g>
</svg>