<?xml version="1.0" encoding="UTF-8"?>
<svg height="600" width="800" xmlns="http://www.w3.org/2000/svg" xmlns:xlink="http://www.w3.org/1999/xlink">
    <g id="Notes" font-family="'LucidaGrande', 'Lucida Grande', sans-serif" font-size="13">
        <rect fill="white" height="600.0" width="800.0" x="0.0" y="0.0" />
        <g font-size="13">
            <text x="18.0" y="176.0">Small</text>
            <text x="18.0" y="376.0">Medium</text>
            <text x="18.0" y="576.0">Large</text>
        </g>
        <g font-size="9">
            <text x="250.0" y="30.0">Ultralight</text>
            <text x="450.0" y="30.0">Regular</text>
            <text x="650.0" y="30.0">Black</text>
            <text id="template-version" fill="#505050" text-anchor="end" x="785.0" y="575.0">Template v.3.0</text>
            <a href="https://github.com/swhitty/SwiftDraw">
                <text fill="#505050" text-anchor="end" x="785.0" y="590.0">https://github.com/swhitty/SwiftDraw</text>
            </a>
        </g>
    </g>
    <g id="Guides" stroke="rgb(39, 170, 225)" stroke-width="0.5">
        <path id="Capline-S" d="M18,76 l800,0" />
        <path id="H-reference" d="M85,145.755 L87.685,145.755 L113.369,79.287 L114.052,79.287 L114.052,76 L112.148,76 L85,145.755 Z M95.693,121.536 L130.996,121.536 L130.263,119.313 L96.474,119.313 L95.693,121.536 Z M139.15,145.755 L141.787,145.755 L114.638,76 L113.466,76 L113.466,79.287 L139.15,145.755 Z" stroke="none" />
        <path id="Baseline-S" d="M18,146 l800,0" />
        <path id="left-margin-Ultralight-S" d="M220,56 l0,110" />
        <path id="right-margin-Ultralight-S" d="M310,56 l0,110" />
        <path id="left-margin-Regular-S" d="M420,56 l0,110" />
        <path id="right-margin-Regular-S" d="M510,56 l0,110" />
        <path id="left-margin-Black-S" d="M620,56 l0,110" />
        <path id="right-margin-Black-S" d="M710,56 l0,110" />
        <path id="Capline-M" d="M18,276 l800,0" />
        <path id="Baseline-M" d="M18,346 l800,0" />
        <path id="Capline-L" d="M18,476 l800,0" />
        <path id="Baseline-L" d="M18,546 l800,0" />
    </g>
    <g id="Symbols">
        <g id="Ultralight-S">
            <path d="M291.923,78.692 L238.077,78.692 C236.649,78.692 235.279,79.26 234.269,80.269 C233.26,81.279 232.692,82.649 232.692,84.077 L232.692,137.923 C232.692,139.351 233.26,140.721 234.269,141.731 C235.279,142.74 236.649,143.308 238.077,143.308 L291.923,143.308 C293.351,143.308 294.721,142.74 295.731,141.731 C296.74,140.721 297.308,139.351 297.308,137.923 L297.308,84.077 C297.308,82.649 296.74,81.279 295.731,80.269 C294.721,79.26 293.351,78.692 291.923,78.692 Z M291.923,137.923 L238.077,137.923 L238.077,84.077 L291.923,84.077 L291.923,137.923 Z M272.34,109.449 C275.578,106.432 276.642,101.742 275.021,97.624 C273.4,93.506 269.425,90.799 265,90.799 C260.575,90.799 256.6,93.506 254.979,97.624 C253.358,101.742 254.422,106.432 257.66,109.449 C253.524,112.598 251.858,118.035 253.52,122.961 C255.182,127.886 259.801,131.203 265,131.203 C270.199,131.203 274.818,127.886 276.48,122.961 C278.142,118.035 276.476,112.598 272.34,109.449 Z M259.615,101.577 C259.615,98.603 262.026,96.192 265,96.192 C267.974,96.192 270.385,98.603 270.385,101.577 C270.385,104.551 267.974,106.962 265,106.962 C263.572,106.962 262.202,106.394 261.193,105.384 C260.183,104.375 259.615,103.005 259.615,101.577 Z M265,125.808 C261.283,125.808 258.269,122.794 258.269,119.077 C258.269,115.36 261.283,112.346 265,112.346 C268.717,112.346 271.731,115.36 271.731,119.077 C271.731,120.862 271.022,122.574 269.759,123.836 C268.497,125.099 266.785,125.808 265,125.808 Z" />
        </g>
        <g id="Regular-S">
            <path d="M491.923,78.692 L438.077,78.692 C436.649,78.692 435.279,79.26 434.269,80.269 C433.26,81.279 432.692,82.649 432.692,84.077 L432.692,137.923 C432.692,139.351 433.26,140.721 434.269,141.731 C435.279,142.74 436.649,143.308 438.077,143.308 L491.923,143.308 C493.351,143.308 494.721,142.74 495.731,141.731 C496.74,140.721 497.308,139.351 497.308,137.923 L497.308,84.077 C497.308,82.649 496.74,81.279 495.731,80.269 C494.721,79.26 493.351,78.692 491.923,78.692 Z M491.923,137.923 L438.077,137.923 L438.077,84.077 L491.923,84.077 L491.923,137.923 Z M472.34,109.449 C475.578,106.432 476.642,101.742 475.021,97.624 C473.4,93.506 469.425,90.799 465,90.799 C460.575,90.799 456.6,93.506 454.979,97.624 C453.358,101.742 454.422,106.432 457.66,109.449 C453.524,112.598 451.858,118.035 453.52,122.961 C455.182,127.886 459.801,131.203 465,131.203 C470.199,131.203 474.818,127.886 476.48,122.961 C478.142,118.035 476.476,112.598 472.34,109.449 Z M459.615,101.577 C459.615,98.603 462.026,96.192 465,96.192 C467.974,96.192 470.385,98.603 470.385,101.577 C470.385,104.551 467.974,106.962 465,106.962 C463.572,106.962 462.202,106.394 461.193,105.384 C460.183,104.375 459.615,103.005 459.615,101.577 Z M465,125.808 C461.283,125.808 458.269,122.794 458.269,119.077 C458.269,115.36 461.283,112.346 465,112.346 C468.717,112.346 471.731,115.36 471.731,119.077 C471.731,120.862 471.022,122.574 469.759,123.836 C468.497,125.099 466.785,125.808 465,125.808 Z" />
        </g>
        <g id="Black-S">
            <path d="M691.923,78.692 L638.077,78.692 C636.649,78.692 635.279,79.26 634.269,80.269 C633.26,81.279 632.692,82.649 632.692,84.077 L632.692,137.923 C632.692,139.351 633.26,140.721 634.269,141.731 C635.279,142.74 636.649,143.308 638.077,143.308 L691.923,143.308 C693.351,143.308 694.721,142.74 695.731,141.731 C696.74,140.721 697.308,139.351 697.308,137.923 L697.308,84.077 C697.308,82.649 696.74,81.279 695.731,80.269 C694.721,79.26 693.351,78.692 691.923,78.692 Z M691.923,137.923 L638.077,137.923 L638.077,84.077 L691.923,84.077 L691.923,137.923 Z M672.34,109.449 C675.578,106.432 676.642,101.742 675.021,97.624 C673.4,93.506 669.425,90.799 665,90.799 C660.575,90.799 656.6,93.506 654.979,97.624 C653.358,101.742 654.422,106.432 657.66,109.449 C653.524,112.598 651.859,118.035 653.52,122.961 C655.182,127.886 659.802,131.203 665,131.203 C670.199,131.203 674.818,127.886 676.48,122.961 C678.142,118.035 676.476,112.598 672.34,109.449 Z M659.615,101.577 C659.615,98.603 662.026,96.192 665,96.192 C667.974,96.192 670.385,98.603 670.385,101.577 C670.385,104.551 667.974,106.962 665,106.962 C663.572,106.962 662.202,106.394 661.193,105.384 C660.183,104.375 659.615,103.005 659.615,101.577 Z M665,125.808 C661.283,125.808 658.269,122.794 658.269,119.077 C658.269,115.36 661.283,112.346 665,112.346 C668.717,112.346 671.731,115.36 671.731,119.077 C671.731,120.862 671.022,122.574 669.759,123.836 C668.497,125.099 666.785,125.808 665,125.808 Z" />
        </g>
    </g>
</svg>