<?xml version="1.0" encoding="UTF-8"?>
<svg height="600" width="800" xmlns="http://www.w3.org/2000/svg" xmlns:xlink="http://www.w3.org/1999/xlink">
    <g id="Notes" font-family="'LucidaGrande', 'Lucida Grande', sans-serif" font-size="13">
        <rect fill="white" height="600.0" width="800.0" x="0.0" y="0.0" />
        <g font-size="13">
            <text x="18.0" y="176.0">Small</text>
            <text x="18.0" y="376.0">Medium</text>
            <text x="18.0" y="576.0">Large</text>
        </g>
        <g font-size="9">
            <text x="250.0" y="30.0">Ultralight</text>
            <text x="450.0" y="30.0">Regular</text>
            <text x="650.0" y="30.0">Black</text>
            <text id="template-version" fill="#505050" text-anchor="end" x="785.0" y="575.0">Template v.3.0</text>
            <a href="https://github.com/swhitty/SwiftDraw">
                <text fill="#505050" text-anchor="end" x="785.0" y="590.0">https://github.com/swhitty/SwiftDraw</text>
            </a>
        </g>
    </g>
    <g id="Guides" stroke="rgb(39, 170, 225)" stroke-width="0.5">
        <path id="Capline-S" d="M18,76 l800,0" />
        <path id="H-reference" d="M85,145.755 L87.685,145.755 L113.369,79.287 L114.052,79.287 L114.052,76 L112.148,76 L85,145.755 Z M95.693,121.536 L130.996,121.536 L130.263,119.313 L96.474,119.313 L95.693,121.536 Z M139.15,145.755 L141.787,145.755 L114.638,76 L113.466,76 L113.466,79.287 L139.15,145.755 Z" stroke="none" />
        <path id="Baseline-S" d="M18,146 l800,0" />
        <path id="left-margin-Ultralight-S" d="M220,56 l0,110" />
        <path id="right-margin-Ultralight-S" d="M310,56 l0,110" />
        <path id="left-margin-Regular-S" d="M420,56 l0,110" />
        <path id="right-margin-Regular-S" d="M510,56 l0,110" />
        <path id="left-margin-Black-S" d="M620,56 l0,110" />
        <path id="right-margin-Black-S" d="M710,56 l0,110" />
        <path id="Capline-M" d="M18,276 l800,0" />
        <path id="Baseline-M" d="M18,346 l800,0" />
        <path id="Capline-L" d="M18,476 l800,0" />
        <path id="Baseline-L" d="M18,546 l800,0" />
    </g>
    <g id="Symbols">
        <g id="Ultralight-S">
            <path d="M248.846,86.769 L248.846,76 C248.846,74.513 250.052,73.308 251.538,73.308 C253.025,73.308 254.231,74.513 254.231,76 L254.231,86.769 C254.231,88.256 253.025,89.462 251.538,89.462 C250.052,89.462 248.846,88.256 248.846,86.769 Z M262.308,89.462 C263.022,89.462 263.707,89.178 264.211,88.673 C264.716,88.168 265,87.483 265,86.769 L265,76 C265,74.513 263.795,73.308 262.308,73.308 C260.821,73.308 259.615,74.513 259.615,76 L259.615,86.769 C259.615,87.483 259.899,88.168 260.404,88.673 C260.909,89.178 261.594,89.462 262.308,89.462 Z M273.077,89.462 C273.791,89.462 274.476,89.178 274.981,88.673 C275.486,88.168 275.769,87.483 275.769,86.769 L275.769,76 C275.769,74.513 274.564,73.308 273.077,73.308 C271.59,73.308 270.385,74.513 270.385,76 L270.385,86.769 C270.385,87.483 270.668,88.168 271.173,88.673 C271.678,89.178 272.363,89.462 273.077,89.462 Z M305.385,108.308 L305.385,111 C305.385,118.103 299.859,123.986 292.765,124.431 C290.929,129.626 287.802,134.268 283.679,137.923 L291.923,137.923 C293.41,137.923 294.615,139.128 294.615,140.615 C294.615,142.102 293.41,143.307 291.923,143.307 L232.692,143.307 C231.205,143.307 230,142.102 230,140.615 C230,139.128 231.205,137.923 232.692,137.923 L240.951,137.923 C234.003,131.784 230.016,122.964 230,113.692 L230,97.538 C230,96.824 230.284,96.14 230.789,95.635 C231.293,95.13 231.978,94.846 232.692,94.846 L291.923,94.846 C295.493,94.846 298.917,96.264 301.442,98.789 C303.966,101.313 305.385,104.737 305.385,108.308 Z M289.231,100.231 L235.385,100.231 L235.385,113.692 C235.405,124.004 241.296,133.405 250.568,137.922 L274.044,137.922 C283.317,133.407 289.209,124.006 289.231,113.692 Z M300,108.308 C300,104.888 297.844,101.838 294.618,100.696 L294.618,113.692 C294.616,115.381 294.481,117.069 294.214,118.739 C297.643,117.724 299.997,114.576 300,111 Z" />
        </g>
        <g id="Regular-S">
            <path d="M448.846,86.769 L448.846,76 C448.846,74.513 450.052,73.308 451.538,73.308 C453.025,73.308 454.231,74.513 454.231,76 L454.231,86.769 C454.231,88.256 453.025,89.462 451.538,89.462 C450.052,89.462 448.846,88.256 448.846,86.769 Z M462.308,89.462 C463.022,89.462 463.707,89.178 464.211,88.673 C464.716,88.168 465,87.483 465,86.769 L465,76 C465,74.513 463.795,73.308 462.308,73.308 C460.821,73.308 459.615,74.513 459.615,76 L459.615,86.769 C459.615,87.483 459.899,88.168 460.404,88.673 C460.909,89.178 461.594,89.462 462.308,89.462 Z M473.077,89.462 C473.791,89.462 474.476,89.178 474.981,88.673 C475.486,88.168 475.769,87.483 475.769,86.769 L475.769,76 C475.769,74.513 474.564,73.308 473.077,73.308 C471.59,73.308 470.385,74.513 470.385,76 L470.385,86.769 C470.385,87.483 470.668,88.168 471.173,88.673 C471.678,89.178 472.363,89.462 473.077,89.462 Z M505.385,108.308 L505.385,111 C505.385,118.103 499.859,123.986 492.765,124.431 C490.929,129.626 487.802,134.268 483.679,137.923 L491.923,137.923 C493.41,137.923 494.615,139.128 494.615,140.615 C494.615,142.102 493.41,143.307 491.923,143.307 L432.692,143.307 C431.205,143.307 430,142.102 430,140.615 C430,139.128 431.205,137.923 432.692,137.923 L440.951,137.923 C434.003,131.784 430.016,122.964 430,113.692 L430,97.538 C430,96.824 430.284,96.14 430.789,95.635 C431.293,95.13 431.978,94.846 432.692,94.846 L491.923,94.846 C495.493,94.846 498.917,96.264 501.442,98.789 C503.966,101.313 505.385,104.737 505.385,108.308 Z M489.231,100.231 L435.385,100.231 L435.385,113.692 C435.405,124.004 441.296,133.405 450.568,137.922 L474.044,137.922 C483.317,133.407 489.209,124.006 489.231,113.692 Z M500,108.308 C500,104.888 497.844,101.838 494.618,100.696 L494.618,113.692 C494.616,115.381 494.481,117.069 494.214,118.739 C497.643,117.724 499.997,114.576 500,111 Z" />
        </g>
        <g id="Black-S">
            <path d="M648.846,86.769 L648.846,76 C648.846,74.513 650.052,73.308 651.538,73.308 C653.025,73.308 654.231,74.513 654.231,76 L654.231,86.769 C654.231,88.256 653.025,89.462 651.538,89.462 C650.052,89.462 648.846,88.256 648.846,86.769 Z M662.308,89.462 C663.022,89.462 663.707,89.178 664.211,88.673 C664.716,88.168 665,87.483 665,86.769 L665,76 C665,74.513 663.795,73.308 662.308,73.308 C660.821,73.308 659.615,74.513 659.615,76 L659.615,86.769 C659.615,87.483 659.899,88.168 660.404,88.673 C660.909,89.178 661.594,89.462 662.308,89.462 Z M673.077,89.462 C673.791,89.462 674.476,89.178 674.981,88.673 C675.486,88.168 675.769,87.483 675.769,86.769 L675.769,76 C675.769,74.513 674.564,73.308 673.077,73.308 C671.59,73.308 670.385,74.513 670.385,76 L670.385,86.769 C670.385,87.483 670.668,88.168 671.173,88.673 C671.678,89.178 672.363,89.462 673.077,89.462 Z M705.385,108.308 L705.385,111 C705.385,118.103 699.859,123.986 692.765,124.431 C690.929,129.626 687.802,134.268 683.679,137.923 L691.923,137.923 C693.41,137.923 694.615,139.128 694.615,140.615 C694.615,142.102 693.41,143.307 691.923,143.307 L632.692,143.307 C631.205,143.307 630,142.102 630,140.615 C630,139.128 631.205,137.923 632.692,137.923 L640.951,137.923 C634.003,131.784 630.016,122.964 630,113.692 L630,97.538 C630,96.824 630.284,96.14 630.789,95.635 C631.293,95.13 631.978,94.846 632.692,94.846 L691.923,94.846 C695.493,94.846 698.917,96.264 701.442,98.789 C703.966,101.313 705.385,104.737 705.385,108.308 Z M689.231,100.231 L635.385,100.231 L635.385,113.692 C635.405,124.004 641.296,133.405 650.568,137.922 L674.044,137.922 C683.317,133.407 689.209,124.006 689.231,113.692 Z M700,108.308 C700,104.888 697.844,101.838 694.618,100.696 L694.618,113.692 C694.616,115.381 694.481,117.069 694.214,118.739 C697.643,117.724 699.997,114.576 700,111 Z" />
        </g>
    </g>
</svg>