<?xml version="1.0" encoding="UTF-8"?>
<svg height="600" width="800" xmlns="http://www.w3.org/2000/svg" xmlns:xlink="http://www.w3.org/1999/xlink">
    <g id="Notes" font-family="'LucidaGrande', 'Lucida Grande', sans-serif" font-size="13">
        <rect fill="white" height="600.0" width="800.0" x="0.0" y="0.0" />
        <g font-size="13">
            <text x="18.0" y="176.0">Small</text>
            <text x="18.0" y="376.0">Medium</text>
            <text x="18.0" y="576.0">Large</text>
        </g>
        <g font-size="9">
            <text x="250.0" y="30.0">Ultralight</text>
            <text x="450.0" y="30.0">Regular</text>
            <text x="650.0" y="30.0">Black</text>
            <text id="template-version" fill="#505050" text-anchor="end" x="785.0" y="575.0">Template v.3.0</text>
            <a href="https://github.com/swhitty/SwiftDraw">
                <text fill="#505050" text-anchor="end" x="785.0" y="590.0">https://github.com/swhitty/SwiftDraw</text>
            </a>
        </g>
    </g>
    <g id="Guides" stroke="rgb(39, 170, 225)" stroke-width="0.5">
        <path id="Capline-S" d="M18,76 l800,0" />
        <path id="H-reference" d="M85,145.755 L87.685,145.755 L113.369,79.287 L114.052,79.287 L114.052,76 L112.148,76 L85,145.755 Z M95.693,121.536 L130.996,121.536 L130.263,119.313 L96.474,119.313 L95.693,121.536 Z M139.15,145.755 L141.787,145.755 L114.638,76 L113.466,76 L113.466,79.287 L139.15,145.755 Z" stroke="none" />
        <path id="Baseline-S" d="M18,146 l800,0" />
        <path id="left-margin-Ultralight-S" d="M220,56 l0,110" />
        <path id="right-margin-Ultralight-S" d="M310,56 l0,110" />
        <path id="left-margin-Regular-S" d="M420,56 l0,110" />
        <path id="right-margin-Regular-S" d="M510,56 l0,110" />
        <path id="left-margin-Black-S" d="M620,56 l0,110" />
        <path id="right-margin-Black-S" d="M710,56 l0,110" />
        <path id="Capline-M" d="M18,276 l800,0" />
        <path id="Baseline-M" d="M18,346 l800,0" />
        <path id="Capline-L" d="M18,476 l800,0" />
        <path id="Baseline-L" d="M18,546 l800,0" />
    </g>
    <g id="Symbols">
        <g id="Ultralight-S">
            <path d="M300,132.538 C300,133.253 299.716,133.937 299.211,134.442 C298.707,134.947 298.022,135.231 297.308,135.231 L276.086,135.231 C274.045,135.237 272.177,134.084 271.27,132.256 L253.914,97.538 L232.692,97.538 C231.205,97.538 230,96.333 230,94.846 C230,93.359 231.205,92.154 232.692,92.154 L253.914,92.154 C255.955,92.147 257.823,93.301 258.73,95.129 L276.086,129.846 L297.308,129.846 C298.022,129.846 298.707,130.13 299.211,130.635 C299.716,131.14 300,131.824 300,132.538 Z M273.077,97.538 L297.308,97.538 C298.795,97.538 300,96.333 300,94.846 C300,93.359 298.795,92.154 297.308,92.154 L273.077,92.154 C271.59,92.154 270.385,93.359 270.385,94.846 C270.385,96.333 271.59,97.538 273.077,97.538 Z" />
        </g>
        <g id="Regular-S">
            <path d="M500,132.538 C500,133.253 499.716,133.937 499.211,134.442 C498.707,134.947 498.022,135.231 497.308,135.231 L476.086,135.231 C474.045,135.237 472.177,134.084 471.27,132.256 L453.914,97.538 L432.692,97.538 C431.205,97.538 430,96.333 430,94.846 C430,93.359 431.205,92.154 432.692,92.154 L453.914,92.154 C455.955,92.147 457.823,93.301 458.73,95.129 L476.086,129.846 L497.308,129.846 C498.022,129.846 498.707,130.13 499.211,130.635 C499.716,131.14 500,131.824 500,132.538 Z M473.077,97.538 L497.308,97.538 C498.795,97.538 500,96.333 500,94.846 C500,93.359 498.795,92.154 497.308,92.154 L473.077,92.154 C471.59,92.154 470.385,93.359 470.385,94.846 C470.385,96.333 471.59,97.538 473.077,97.538 Z" />
        </g>
        <g id="Black-S">
            <path d="M700,132.538 C700,133.253 699.716,133.937 699.211,134.442 C698.707,134.947 698.022,135.231 697.308,135.231 L676.086,135.231 C674.045,135.237 672.177,134.084 671.27,132.256 L653.914,97.538 L632.692,97.538 C631.205,97.538 630,96.333 630,94.846 C630,93.359 631.205,92.154 632.692,92.154 L653.914,92.154 C655.955,92.147 657.823,93.301 658.73,95.129 L676.086,129.846 L697.308,129.846 C698.022,129.846 698.707,130.13 699.211,130.635 C699.716,131.14 700,131.824 700,132.538 Z M673.077,97.538 L697.308,97.538 C698.795,97.538 700,96.333 700,94.846 C700,93.359 698.795,92.154 697.308,92.154 L673.077,92.154 C671.59,92.154 670.385,93.359 670.385,94.846 C670.385,96.333 671.59,97.538 673.077,97.538 Z" />
        </g>
    </g>
</svg>