<?xml version="1.0" encoding="UTF-8"?>
<svg height="600" width="800" xmlns="http://www.w3.org/2000/svg" xmlns:xlink="http://www.w3.org/1999/xlink">
    <g id="Notes" font-family="'LucidaGrande', 'Lucida Grande', sans-serif" font-size="13">
        <rect fill="white" height="600.0" width="800.0" x="0.0" y="0.0" />
        <g font-size="13">
            <text x="18.0" y="176.0">Small</text>
            <text x="18.0" y="376.0">Medium</text>
            <text x="18.0" y="576.0">Large</text>
        </g>
        <g font-size="9">
            <text x="250.0" y="30.0">Ultralight</text>
            <text x="450.0" y="30.0">Regular</text>
            <text x="650.0" y="30.0">Black</text>
            <text id="template-version" fill="#505050" text-anchor="end" x="785.0" y="575.0">Template v.3.0</text>
            <a href="https://github.com/swhitty/SwiftDraw">
                <text fill="#505050" text-anchor="end" x="785.0" y="590.0">https://github.com/swhitty/SwiftDraw</text>
            </a>
        </g>
    </g>
    <g id="Guides" stroke="rgb(39, 170, 225)" stroke-width="0.5">
        <path id="Capline-S" d="M18,76 l800,0" />
        <path id="H-reference" d="M85,145.755 L87.685,145.755 L113.369,79.287 L114.052,79.287 L114.052,76 L112.148,76 L85,145.755 Z M95.693,121.536 L130.996,121.536 L130.263,119.313 L96.474,119.313 L95.693,121.536 Z M139.15,145.755 L141.787,145.755 L114.638,76 L113.466,76 L113.466,79.287 L139.15,145.755 Z" stroke="none" />
        <path id="Baseline-S" d="M18,146 l800,0" />
        <path id="left-margin-Ultralight-S" d="M220,56 l0,110" />
        <path id="right-margin-Ultralight-S" d="M310,56 l0,110" />
        <path id="left-margin-Regular-S" d="M420,56 l0,110" />
        <path id="right-margin-Regular-S" d="M510,56 l0,110" />
        <path id="left-margin-Black-S" d="M620,56 l0,110" />
        <path id="right-margin-Black-S" d="M710,56 l0,110" />
        <path id="Capline-M" d="M18,276 l800,0" />
        <path id="Baseline-M" d="M18,346 l800,0" />
        <path id="Capline-L" d="M18,476 l800,0" />
        <path id="Baseline-L" d="M18,546 l800,0" />
    </g>
    <g id="Symbols">
        <g id="Ultralight-S">
            <path d="M278.462,119.077 C278.462,125.013 272.424,129.846 265,129.846 C257.576,129.846 251.538,125.013 251.538,119.077 C251.538,117.59 252.744,116.385 254.231,116.385 C255.718,116.385 256.923,117.59 256.923,119.077 C256.923,121.995 260.625,124.462 265,124.462 C269.375,124.462 273.077,121.995 273.077,119.077 C273.077,115.887 270.179,114.702 264.031,112.932 C258.73,111.404 252.137,109.502 252.137,102.923 C252.137,96.785 257.667,92.154 265,92.154 C270.29,92.154 274.82,94.611 276.819,98.548 C277.289,99.41 277.252,100.459 276.724,101.286 C276.195,102.113 275.259,102.587 274.279,102.523 C273.3,102.459 272.433,101.867 272.017,100.978 C270.937,98.864 268.248,97.538 265,97.538 C260.736,97.538 257.522,99.854 257.522,102.923 C257.522,105.279 260.551,106.322 265.522,107.756 C270.984,109.317 278.462,111.488 278.462,119.077 Z M300,127.154 C299.989,137.557 291.558,145.989 281.154,146 C277.417,146.013 273.763,144.903 270.665,142.813 C260.269,144.652 249.63,141.301 242.164,133.836 C234.699,126.371 231.348,115.732 233.187,105.336 C231.097,102.238 229.987,98.583 230,94.846 C230.011,84.443 238.442,76.011 248.846,76 C252.583,75.987 256.237,77.097 259.335,79.187 C269.731,77.348 280.37,80.699 287.836,88.164 C295.301,95.629 298.652,106.268 296.813,116.664 C298.903,119.762 300.013,123.417 300,127.154 Z M294.615,127.154 C294.626,124.179 293.64,121.286 291.815,118.936 C291.33,118.308 291.147,117.497 291.314,116.721 C293.251,107.769 290.508,98.446 284.031,91.969 C277.554,85.493 268.231,82.749 259.279,84.686 C258.503,84.854 257.693,84.67 257.064,84.185 C254.714,82.36 251.821,81.374 248.846,81.385 C245.276,81.385 241.852,82.803 239.327,85.327 C236.803,87.852 235.385,91.276 235.385,94.846 C235.374,97.821 236.36,100.714 238.185,103.064 C238.67,103.692 238.854,104.503 238.686,105.279 C236.749,114.231 239.493,123.554 245.969,130.031 C252.446,136.507 261.769,139.251 270.721,137.314 C271.497,137.146 272.307,137.33 272.936,137.815 C275.286,139.64 278.179,140.626 281.154,140.615 C284.724,140.615 288.148,139.197 290.673,136.673 C293.197,134.148 294.615,130.724 294.615,127.154 Z" />
        </g>
        <g id="Regular-S">
            <path d="M478.462,119.077 C478.462,125.013 472.424,129.846 465,129.846 C457.576,129.846 451.538,125.013 451.538,119.077 C451.538,117.59 452.744,116.385 454.231,116.385 C455.718,116.385 456.923,117.59 456.923,119.077 C456.923,121.995 460.625,124.462 465,124.462 C469.375,124.462 473.077,121.995 473.077,119.077 C473.077,115.887 470.179,114.702 464.031,112.932 C458.73,111.404 452.137,109.502 452.137,102.923 C452.137,96.785 457.667,92.154 465,92.154 C470.29,92.154 474.82,94.611 476.819,98.548 C477.289,99.41 477.252,100.459 476.724,101.286 C476.195,102.113 475.259,102.587 474.279,102.523 C473.3,102.459 472.433,101.867 472.017,100.978 C470.937,98.864 468.248,97.538 465,97.538 C460.736,97.538 457.522,99.854 457.522,102.923 C457.522,105.279 460.551,106.322 465.522,107.756 C470.984,109.317 478.462,111.488 478.462,119.077 Z M500,127.154 C499.989,137.557 491.558,145.989 481.154,146 C477.417,146.013 473.763,144.903 470.665,142.813 C460.269,144.652 449.63,141.301 442.164,133.836 C434.699,126.371 431.348,115.732 433.187,105.336 C431.097,102.238 429.987,98.583 430,94.846 C430.011,84.443 438.442,76.011 448.845,76 C452.583,75.987 456.237,77.097 459.335,79.187 C469.731,77.348 480.37,80.699 487.836,88.164 C495.301,95.629 498.652,106.268 496.813,116.664 C498.903,119.762 500.013,123.417 500,127.154 Z M494.615,127.154 C494.626,124.179 493.64,121.286 491.815,118.936 C491.33,118.308 491.147,117.497 491.314,116.721 C493.251,107.769 490.508,98.446 484.031,91.969 C477.554,85.493 468.231,82.749 459.279,84.686 C458.503,84.854 457.693,84.67 457.064,84.185 C454.714,82.36 451.821,81.374 448.846,81.385 C445.276,81.385 441.852,82.803 439.327,85.327 C436.803,87.852 435.385,91.276 435.385,94.846 C435.374,97.821 436.36,100.714 438.185,103.064 C438.67,103.692 438.854,104.503 438.686,105.279 C436.749,114.231 439.493,123.554 445.969,130.031 C452.446,136.507 461.769,139.251 470.721,137.314 C471.497,137.146 472.307,137.33 472.936,137.815 C475.286,139.64 478.179,140.626 481.154,140.615 C484.724,140.615 488.148,139.197 490.673,136.673 C493.197,134.148 494.615,130.724 494.615,127.154 Z" />
        </g>
        <g id="Black-S">
            <path d="M678.462,119.077 C678.462,125.013 672.424,129.846 665,129.846 C657.576,129.846 651.538,125.013 651.538,119.077 C651.538,117.59 652.744,116.385 654.231,116.385 C655.718,116.385 656.923,117.59 656.923,119.077 C656.923,121.995 660.625,124.462 665,124.462 C669.375,124.462 673.077,121.995 673.077,119.077 C673.077,115.887 670.179,114.702 664.031,112.932 C658.73,111.404 652.138,109.502 652.138,102.923 C652.138,96.785 657.667,92.154 665,92.154 C670.29,92.154 674.82,94.611 676.819,98.548 C677.289,99.41 677.252,100.459 676.724,101.286 C676.195,102.113 675.259,102.587 674.279,102.523 C673.3,102.459 672.433,101.867 672.017,100.978 C670.937,98.864 668.248,97.538 665,97.538 C660.736,97.538 657.522,99.854 657.522,102.923 C657.522,105.279 660.551,106.322 665.522,107.756 C670.984,109.317 678.462,111.488 678.462,119.077 Z M700,127.154 C699.989,137.557 691.558,145.989 681.154,146 C677.417,146.013 673.763,144.903 670.665,142.813 C660.269,144.652 649.63,141.301 642.164,133.836 C634.699,126.371 631.348,115.732 633.187,105.336 C631.097,102.238 629.987,98.583 630,94.846 C630.011,84.443 638.442,76.011 648.846,76 C652.583,75.987 656.237,77.097 659.335,79.187 C669.731,77.348 680.37,80.699 687.836,88.164 C695.301,95.629 698.652,106.268 696.813,116.664 C698.903,119.762 700.013,123.417 700,127.154 Z M694.615,127.154 C694.626,124.179 693.64,121.286 691.815,118.936 C691.33,118.308 691.147,117.497 691.314,116.721 C693.251,107.769 690.508,98.446 684.031,91.969 C677.554,85.493 668.231,82.749 659.279,84.686 C658.503,84.854 657.693,84.67 657.064,84.185 C654.714,82.36 651.821,81.374 648.846,81.385 C645.276,81.385 641.852,82.803 639.327,85.327 C636.803,87.852 635.385,91.276 635.385,94.846 C635.374,97.821 636.36,100.714 638.185,103.064 C638.67,103.692 638.854,104.503 638.686,105.279 C636.749,114.231 639.493,123.554 645.969,130.031 C652.446,136.507 661.769,139.251 670.721,137.314 C671.497,137.146 672.307,137.33 672.936,137.815 C675.286,139.64 678.179,140.626 681.154,140.615 C684.724,140.615 688.148,139.197 690.673,136.673 C693.197,134.148 694.615,130.724 694.615,127.154 Z" />
        </g>
    </g>
</svg>