<?xml version="1.0" encoding="UTF-8"?>
<svg height="600" width="800" xmlns="http://www.w3.org/2000/svg" xmlns:xlink="http://www.w3.org/1999/xlink">
    <g id="Notes" font-family="'LucidaGrande', 'Lucida Grande', sans-serif" font-size="13">
        <rect fill="white" height="600.0" width="800.0" x="0.0" y="0.0" />
        <g font-size="13">
            <text x="18.0" y="176.0">Small</text>
            <text x="18.0" y="376.0">Medium</text>
            <text x="18.0" y="576.0">Large</text>
        </g>
        <g font-size="9">
            <text x="250.0" y="30.0">Ultralight</text>
            <text x="450.0" y="30.0">Regular</text>
            <text x="650.0" y="30.0">Black</text>
            <text id="template-version" fill="#505050" text-anchor="end" x="785.0" y="575.0">Template v.3.0</text>
            <a href="https://github.com/swhitty/SwiftDraw">
                <text fill="#505050" text-anchor="end" x="785.0" y="590.0">https://github.com/swhitty/SwiftDraw</text>
            </a>
        </g>
    </g>
    <g id="Guides" stroke="rgb(39, 170, 225)" stroke-width="0.5">
        <path id="Capline-S" d="M18,76 l800,0" />
        <path id="H-reference" d="M85,145.755 L87.685,145.755 L113.369,79.287 L114.052,79.287 L114.052,76 L112.148,76 L85,145.755 Z M95.693,121.536 L130.996,121.536 L130.263,119.313 L96.474,119.313 L95.693,121.536 Z M139.15,145.755 L141.787,145.755 L114.638,76 L113.466,76 L113.466,79.287 L139.15,145.755 Z" stroke="none" />
        <path id="Baseline-S" d="M18,146 l800,0" />
        <path id="left-margin-Ultralight-S" d="M220,56 l0,110" />
        <path id="right-margin-Ultralight-S" d="M310,56 l0,110" />
        <path id="left-margin-Regular-S" d="M420,56 l0,110" />
        <path id="right-margin-Regular-S" d="M510,56 l0,110" />
        <path id="left-margin-Black-S" d="M620,56 l0,110" />
        <path id="right-margin-Black-S" d="M710,56 l0,110" />
        <path id="Capline-M" d="M18,276 l800,0" />
        <path id="Baseline-M" d="M18,346 l800,0" />
        <path id="Capline-L" d="M18,476 l800,0" />
        <path id="Baseline-L" d="M18,546 l800,0" />
    </g>
    <g id="Symbols">
        <g id="Ultralight-S">
            <path d="M295.729,104.498 L268.806,77.575 C266.704,75.474 263.296,75.474 261.194,77.575 L234.271,104.498 C233.256,105.505 232.687,106.878 232.692,108.308 L232.692,140.615 C232.692,141.329 232.976,142.014 233.481,142.519 C233.986,143.024 234.671,143.308 235.385,143.308 L256.923,143.308 C257.637,143.308 258.322,143.024 258.827,142.519 C259.332,142.014 259.615,141.329 259.615,140.615 L259.615,121.769 L270.385,121.769 L270.385,140.615 C270.385,141.329 270.668,142.014 271.173,142.519 C271.678,143.024 272.363,143.308 273.077,143.308 L294.615,143.308 C295.329,143.308 296.014,143.024 296.519,142.519 C297.024,142.014 297.308,141.329 297.308,140.615 L297.308,108.308 C297.313,106.878 296.744,105.505 295.729,104.498 Z M291.923,137.923 L275.769,137.923 L275.769,119.077 C275.769,118.363 275.486,117.678 274.981,117.173 C274.476,116.668 273.791,116.385 273.077,116.385 L256.923,116.385 C256.209,116.385 255.524,116.668 255.019,117.173 C254.514,117.678 254.231,118.363 254.231,119.077 L254.231,137.923 L238.077,137.923 L238.077,108.308 L265,81.385 L291.923,108.308 Z" />
        </g>
        <g id="Regular-S">
            <path d="M495.729,104.498 L468.806,77.575 C466.704,75.474 463.296,75.474 461.194,77.575 L434.271,104.498 C433.256,105.505 432.687,106.878 432.692,108.308 L432.692,140.615 C432.692,141.329 432.976,142.014 433.481,142.519 C433.986,143.024 434.671,143.308 435.385,143.308 L456.923,143.308 C457.637,143.308 458.322,143.024 458.827,142.519 C459.332,142.014 459.615,141.329 459.615,140.615 L459.615,121.769 L470.385,121.769 L470.385,140.615 C470.385,141.329 470.668,142.014 471.173,142.519 C471.678,143.024 472.363,143.308 473.077,143.308 L494.615,143.308 C495.329,143.308 496.014,143.024 496.519,142.519 C497.024,142.014 497.308,141.329 497.308,140.615 L497.308,108.308 C497.313,106.878 496.744,105.505 495.729,104.498 Z M491.923,137.923 L475.769,137.923 L475.769,119.077 C475.769,118.363 475.486,117.678 474.981,117.173 C474.476,116.668 473.791,116.385 473.077,116.385 L456.923,116.385 C456.209,116.385 455.524,116.668 455.019,117.173 C454.514,117.678 454.231,118.363 454.231,119.077 L454.231,137.923 L438.077,137.923 L438.077,108.308 L465,81.385 L491.923,108.308 Z" />
        </g>
        <g id="Black-S">
            <path d="M695.729,104.498 L668.806,77.575 C666.704,75.474 663.296,75.474 661.194,77.575 L634.271,104.498 C633.256,105.505 632.687,106.878 632.692,108.308 L632.692,140.615 C632.692,141.329 632.976,142.014 633.481,142.519 C633.986,143.024 634.671,143.308 635.385,143.308 L656.923,143.308 C657.637,143.308 658.322,143.024 658.827,142.519 C659.332,142.014 659.615,141.329 659.615,140.615 L659.615,121.769 L670.385,121.769 L670.385,140.615 C670.385,141.329 670.668,142.014 671.173,142.519 C671.678,143.024 672.363,143.308 673.077,143.308 L694.615,143.308 C695.329,143.308 696.014,143.024 696.519,142.519 C697.024,142.014 697.308,141.329 697.308,140.615 L697.308,108.308 C697.313,106.878 696.744,105.505 695.729,104.498 Z M691.923,137.923 L675.769,137.923 L675.769,119.077 C675.769,118.363 675.486,117.678 674.981,117.173 C674.476,116.668 673.791,116.385 673.077,116.385 L656.923,116.385 C656.209,116.385 655.524,116.668 655.019,117.173 C654.514,117.678 654.231,118.363 654.231,119.077 L654.231,137.923 L638.077,137.923 L638.077,108.308 L665,81.385 L691.923,108.308 Z" />
        </g>
    </g>
</svg>