<?xml version="1.0" encoding="UTF-8"?>
<svg height="600" width="800" xmlns="http://www.w3.org/2000/svg" xmlns:xlink="http://www.w3.org/1999/xlink">
    <g id="Notes" font-family="'LucidaGrande', 'Lucida Grande', sans-serif" font-size="13">
        <rect fill="white" height="600.0" width="800.0" x="0.0" y="0.0" />
        <g font-size="13">
            <text x="18.0" y="176.0">Small</text>
            <text x="18.0" y="376.0">Medium</text>
            <text x="18.0" y="576.0">Large</text>
        </g>
        <g font-size="9">
            <text x="250.0" y="30.0">Ultralight</text>
            <text x="450.0" y="30.0">Regular</text>
            <text x="650.0" y="30.0">Black</text>
            <text id="template-version" fill="#505050" text-anchor="end" x="785.0" y="575.0">Template v.3.0</text>
            <a href="https://github.com/swhitty/SwiftDraw">
                <text fill="#505050" text-anchor="end" x="785.0" y="590.0">https://github.com/swhitty/SwiftDraw</text>
            </a>
        </g>
    </g>
    <g id="Guides" stroke="rgb(39, 170, 225)" stroke-width="0.5">
        <path id="Capline-S" d="M18,76 l800,0" />
        <path id="H-reference" d="M85,145.755 L87.685,145.755 L113.369,79.287 L114.052,79.287 L114.052,76 L112.148,76 L85,145.755 Z M95.693,121.536 L130.996,121.536 L130.263,119.313 L96.474,119.313 L95.693,121.536 Z M139.15,145.755 L141.787,145.755 L114.638,76 L113.466,76 L113.466,79.287 L139.15,145.755 Z" stroke="none" />
        <path id="Baseline-S" d="M18,146 l800,0" />
        <path id="left-margin-Ultralight-S" d="M220,56 l0,110" />
        <path id="right-margin-Ultralight-S" d="M310,56 l0,110" />
        <path id="left-margin-Regular-S" d="M420,56 l0,110" />
        <path id="right-margin-Regular-S" d="M510,56 l0,110" />
        <path id="left-margin-Black-S" d="M620,56 l0,110" />
        <path id="right-margin-Black-S" d="M710,56 l0,110" />
        <path id="Capline-M" d="M18,276 l800,0" />
        <path id="Baseline-M" d="M18,346 l800,0" />
        <path id="Capline-L" d="M18,476 l800,0" />
        <path id="Baseline-L" d="M18,546 l800,0" />
    </g>
    <g id="Symbols">
        <g id="Ultralight-S">
            <path d="M246.154,116.385 L232.692,116.385 C231.205,116.385 230,115.179 230,113.692 C230,112.205 231.205,111 232.692,111 L244.713,111 L249.297,104.121 C249.796,103.371 250.638,102.92 251.538,102.92 C252.439,102.92 253.281,103.371 253.78,104.121 L262.308,116.91 L265.451,112.198 C265.951,111.449 266.792,110.999 267.692,111 L275.769,111 C277.256,111 278.462,112.205 278.462,113.692 C278.462,115.179 277.256,116.385 275.769,116.385 L269.133,116.385 L264.549,123.263 C264.05,124.014 263.209,124.464 262.308,124.464 C261.407,124.464 260.565,124.014 260.066,123.263 L251.538,110.468 L248.395,115.18 C247.897,115.931 247.056,116.384 246.154,116.385 Z M281.827,81.385 C274.877,81.385 268.793,84.373 265,89.425 C261.207,84.373 255.123,81.385 248.173,81.385 C236.655,81.398 227.321,90.732 227.308,102.25 C227.308,102.502 227.308,102.755 227.308,103.007 C227.306,104.411 228.512,105.617 230,105.617 C231.488,105.617 232.694,104.411 232.694,102.923 C232.694,102.728 232.694,102.529 232.694,102.334 C232.677,98.216 234.299,94.26 237.203,91.34 C240.108,88.419 244.055,86.775 248.173,86.769 C254.719,86.769 260.214,90.256 262.51,95.856 C262.924,96.866 263.908,97.525 265,97.525 C266.092,97.525 267.076,96.866 267.49,95.856 C269.786,90.246 275.281,86.769 281.827,86.769 C290.372,86.78 297.297,93.705 297.308,102.25 C297.308,120.292 271.138,136.627 265,140.212 C261.355,138.088 250.653,131.462 242.56,122.641 C241.556,121.545 239.852,121.47 238.755,122.475 C237.657,123.48 237.582,125.184 238.587,126.281 C249.077,137.723 263.131,145.356 263.723,145.676 C264.52,146.104 265.478,146.104 266.274,145.676 C267.763,144.876 302.692,125.808 302.692,102.25 C302.68,90.732 293.346,81.398 281.828,81.385 Z" />
        </g>
        <g id="Regular-S">
            <path d="M446.154,116.385 L432.692,116.385 C431.205,116.385 430,115.179 430,113.692 C430,112.205 431.205,111 432.692,111 L444.713,111 L449.297,104.121 C449.796,103.371 450.637,102.92 451.538,102.92 C452.439,102.92 453.281,103.371 453.78,104.121 L462.308,116.91 L465.451,112.198 C465.951,111.449 466.792,110.999 467.692,111 L475.769,111 C477.256,111 478.462,112.205 478.462,113.692 C478.462,115.179 477.256,116.385 475.769,116.385 L469.133,116.385 L464.549,123.263 C464.05,124.014 463.209,124.464 462.308,124.464 C461.407,124.464 460.565,124.014 460.066,123.263 L451.538,110.468 L448.395,115.18 C447.897,115.931 447.056,116.384 446.154,116.385 Z M481.827,81.385 C474.877,81.385 468.793,84.373 465,89.425 C461.207,84.373 455.123,81.385 448.173,81.385 C436.655,81.398 427.321,90.732 427.308,102.25 C427.308,102.502 427.308,102.755 427.308,103.007 C427.306,104.411 428.512,105.617 430,105.617 C431.488,105.617 432.694,104.411 432.694,102.923 C432.694,102.728 432.694,102.529 432.694,102.334 C432.677,98.216 434.299,94.26 437.203,91.34 C440.108,88.419 444.055,86.775 448.173,86.769 C454.719,86.769 460.214,90.256 462.51,95.856 C462.924,96.866 463.908,97.525 465,97.525 C466.092,97.525 467.075,96.866 467.49,95.856 C469.786,90.246 475.281,86.769 481.827,86.769 C490.372,86.78 497.297,93.705 497.308,102.25 C497.308,120.292 471.138,136.627 465,140.212 C461.355,138.088 450.653,131.462 442.56,122.641 C441.556,121.545 439.852,121.47 438.755,122.475 C437.657,123.48 437.582,125.184 438.587,126.281 C449.077,137.723 463.131,145.356 463.723,145.676 C464.52,146.104 465.478,146.104 466.274,145.676 C467.763,144.876 502.692,125.808 502.692,102.25 C502.68,90.732 493.346,81.398 481.828,81.385 Z" />
        </g>
        <g id="Black-S">
            <path d="M646.154,116.385 L632.692,116.385 C631.205,116.385 630,115.179 630,113.692 C630,112.205 631.205,111 632.692,111 L644.714,111 L649.297,104.121 C649.796,103.371 650.638,102.92 651.538,102.92 C652.439,102.92 653.281,103.371 653.78,104.121 L662.308,116.91 L665.451,112.198 C665.951,111.449 666.792,110.999 667.692,111 L675.769,111 C677.256,111 678.462,112.205 678.462,113.692 C678.462,115.179 677.256,116.385 675.769,116.385 L669.133,116.385 L664.549,123.263 C664.05,124.014 663.209,124.464 662.308,124.464 C661.407,124.464 660.565,124.014 660.066,123.263 L651.538,110.468 L648.395,115.18 C647.897,115.931 647.056,116.384 646.154,116.385 Z M681.827,81.385 C674.877,81.385 668.793,84.373 665,89.425 C661.207,84.373 655.123,81.385 648.173,81.385 C636.655,81.398 627.321,90.732 627.308,102.25 C627.308,102.502 627.308,102.755 627.308,103.007 C627.306,104.411 628.512,105.617 630,105.617 C631.488,105.617 632.694,104.411 632.694,102.923 C632.694,102.728 632.694,102.529 632.694,102.334 C632.677,98.216 634.299,94.26 637.203,91.34 C640.108,88.419 644.055,86.775 648.173,86.769 C654.719,86.769 660.214,90.256 662.51,95.856 C662.924,96.866 663.908,97.525 665,97.525 C666.092,97.525 667.076,96.866 667.49,95.856 C669.786,90.246 675.281,86.769 681.827,86.769 C690.372,86.78 697.297,93.705 697.308,102.25 C697.308,120.292 671.138,136.627 665,140.212 C661.355,138.088 650.653,131.462 642.56,122.641 C641.556,121.545 639.852,121.47 638.755,122.475 C637.657,123.48 637.582,125.184 638.587,126.281 C649.077,137.723 663.131,145.356 663.723,145.676 C664.52,146.104 665.478,146.104 666.274,145.676 C667.763,144.876 702.692,125.808 702.692,102.25 C702.68,90.732 693.346,81.398 681.828,81.385 Z" />
        </g>
    </g>
</svg>