<?xml version="1.0" encoding="UTF-8"?>
<svg height="600" width="800" xmlns="http://www.w3.org/2000/svg" xmlns:xlink="http://www.w3.org/1999/xlink">
    <g id="Notes" font-family="'LucidaGrande', 'Lucida Grande', sans-serif" font-size="13">
        <rect fill="white" height="600.0" width="800.0" x="0.0" y="0.0" />
        <g font-size="13">
            <text x="18.0" y="176.0">Small</text>
            <text x="18.0" y="376.0">Medium</text>
            <text x="18.0" y="576.0">Large</text>
        </g>
        <g font-size="9">
            <text x="250.0" y="30.0">Ultralight</text>
            <text x="450.0" y="30.0">Regular</text>
            <text x="650.0" y="30.0">Black</text>
            <text id="template-version" fill="#505050" text-anchor="end" x="785.0" y="575.0">Template v.3.0</text>
            <a href="https://github.com/swhitty/SwiftDraw">
                <text fill="#505050" text-anchor="end" x="785.0" y="590.0">https://github.com/swhitty/SwiftDraw</text>
            </a>
        </g>
    </g>
    <g id="Guides" stroke="rgb(39, 170, 225)" stroke-width="0.5">
        <path id="Capline-S" d="M18,76 l800,0" />
        <path id="H-reference" d="M85,145.755 L87.685,145.755 L113.369,79.287 L114.052,79.287 L114.052,76 L112.148,76 L85,145.755 Z M95.693,121.536 L130.996,121.536 L130.263,119.313 L96.474,119.313 L95.693,121.536 Z M139.15,145.755 L141.787,145.755 L114.638,76 L113.466,76 L113.466,79.287 L139.15,145.755 Z" stroke="none" />
        <path id="Baseline-S" d="M18,146 l800,0" />
        <path id="left-margin-Ultralight-S" d="M220,56 l0,110" />
        <path id="right-margin-Ultralight-S" d="M310,56 l0,110" />
        <path id="left-margin-Regular-S" d="M420,56 l0,110" />
        <path id="right-margin-Regular-S" d="M510,56 l0,110" />
        <path id="left-margin-Black-S" d="M620,56 l0,110" />
        <path id="right-margin-Black-S" d="M710,56 l0,110" />
        <path id="Capline-M" d="M18,276 l800,0" />
        <path id="Baseline-M" d="M18,346 l800,0" />
        <path id="Capline-L" d="M18,476 l800,0" />
        <path id="Baseline-L" d="M18,546 l800,0" />
    </g>
    <g id="Symbols">
        <g id="Ultralight-S">
            <path d="M304.308,118.538 C303.118,119.431 301.431,119.19 300.538,118 C297.248,113.577 292.052,110.979 286.538,111 C285.456,111 284.479,110.352 284.058,109.354 C283.776,108.685 283.776,107.93 284.058,107.261 C284.479,106.264 285.456,105.615 286.538,105.615 C290.736,105.615 294.233,102.4 294.586,98.217 C294.939,94.035 292.03,90.279 287.892,89.576 C283.754,88.872 279.767,91.455 278.717,95.519 C278.35,96.955 276.882,97.825 275.441,97.456 C274,97.087 273.131,95.619 273.5,94.178 C274.936,88.613 279.746,84.574 285.475,84.122 C291.204,83.669 296.589,86.904 298.88,92.174 C301.171,97.445 299.864,103.589 295.625,107.47 C299.286,109.055 302.468,111.57 304.856,114.766 C305.285,115.339 305.468,116.058 305.365,116.766 C305.262,117.474 304.881,118.111 304.308,118.538 Z M286.175,139.269 C286.706,140.104 286.736,141.162 286.254,142.026 C285.772,142.889 284.855,143.419 283.866,143.406 C282.878,143.392 281.976,142.838 281.517,141.962 C278.067,136.119 271.786,132.534 265,132.534 C258.214,132.534 251.933,136.119 248.483,141.962 C248.024,142.838 247.122,143.392 246.134,143.406 C245.145,143.419 244.228,142.889 243.746,142.026 C243.264,141.162 243.294,140.104 243.825,139.269 C246.435,134.784 250.415,131.255 255.18,129.2 C249.682,124.991 247.479,117.747 249.701,111.189 C251.923,104.632 258.076,100.22 265,100.22 C271.924,100.22 278.077,104.632 280.299,111.189 C282.521,117.747 280.318,124.991 274.82,129.2 C279.585,131.255 283.565,134.784 286.175,139.269 Z M265,127.154 C270.948,127.154 275.769,122.332 275.769,116.385 C275.769,110.437 270.948,105.615 265,105.615 C259.052,105.615 254.231,110.437 254.231,116.385 C254.231,119.241 255.365,121.98 257.385,124 C259.405,126.019 262.144,127.154 265,127.154 Z M246.154,108.308 C246.154,107.594 245.87,106.909 245.365,106.404 C244.86,105.899 244.176,105.615 243.462,105.615 C239.264,105.615 235.767,102.4 235.414,98.217 C235.061,94.035 237.97,90.279 242.108,89.576 C246.246,88.872 250.233,91.455 251.283,95.519 C251.65,96.955 253.118,97.825 254.559,97.456 C256,97.087 256.869,95.619 256.5,94.178 C255.064,88.613 250.254,84.574 244.525,84.122 C238.796,83.669 233.412,86.904 231.12,92.174 C228.829,97.445 230.136,103.589 234.375,107.47 C230.718,109.056 227.539,111.572 225.154,114.766 C224.261,115.957 224.502,117.645 225.692,118.538 C226.882,119.43 228.57,119.189 229.462,117.999 C232.753,113.576 237.949,110.979 243.462,111 C244.176,111 244.86,110.716 245.365,110.211 C245.87,109.707 246.154,109.022 246.154,108.308 Z" />
        </g>
        <g id="Regular-S">
            <path d="M504.308,118.538 C503.118,119.431 501.431,119.19 500.538,118 C497.248,113.577 492.052,110.979 486.538,111 C485.456,111 484.479,110.352 484.058,109.354 C483.776,108.685 483.776,107.93 484.058,107.261 C484.479,106.264 485.456,105.615 486.538,105.615 C490.736,105.615 494.233,102.4 494.586,98.217 C494.939,94.035 492.03,90.279 487.892,89.576 C483.754,88.872 479.767,91.455 478.717,95.519 C478.35,96.955 476.882,97.825 475.441,97.456 C474,97.087 473.131,95.619 473.5,94.178 C474.936,88.613 479.746,84.574 485.475,84.122 C491.204,83.669 496.588,86.904 498.88,92.174 C501.171,97.445 499.864,103.589 495.625,107.47 C499.286,109.055 502.468,111.57 504.856,114.766 C505.285,115.339 505.468,116.058 505.365,116.766 C505.262,117.474 504.881,118.111 504.308,118.538 Z M486.175,139.269 C486.706,140.104 486.736,141.162 486.254,142.026 C485.772,142.889 484.855,143.419 483.866,143.406 C482.878,143.392 481.976,142.838 481.517,141.962 C478.067,136.119 471.786,132.534 465,132.534 C458.214,132.534 451.933,136.119 448.483,141.962 C448.024,142.838 447.122,143.392 446.134,143.406 C445.145,143.419 444.228,142.889 443.746,142.026 C443.264,141.162 443.294,140.104 443.825,139.269 C446.435,134.784 450.415,131.255 455.18,129.2 C449.682,124.991 447.479,117.747 449.701,111.189 C451.923,104.632 458.076,100.22 465,100.22 C471.924,100.22 478.077,104.632 480.299,111.189 C482.521,117.747 480.318,124.991 474.82,129.2 C479.585,131.255 483.565,134.784 486.175,139.269 Z M465,127.154 C470.948,127.154 475.769,122.332 475.769,116.385 C475.769,110.437 470.948,105.615 465,105.615 C459.052,105.615 454.231,110.437 454.231,116.385 C454.231,119.241 455.365,121.98 457.385,124 C459.405,126.019 462.144,127.154 465,127.154 Z M446.154,108.308 C446.154,107.594 445.87,106.909 445.365,106.404 C444.86,105.899 444.176,105.615 443.462,105.615 C439.264,105.615 435.767,102.4 435.414,98.217 C435.061,94.035 437.97,90.279 442.108,89.576 C446.246,88.872 450.233,91.455 451.283,95.519 C451.65,96.955 453.118,97.825 454.559,97.456 C456,97.087 456.869,95.619 456.5,94.178 C455.064,88.613 450.254,84.574 444.525,84.122 C438.796,83.669 433.411,86.904 431.12,92.174 C428.829,97.445 430.136,103.589 434.375,107.47 C430.718,109.056 427.539,111.572 425.154,114.766 C424.261,115.957 424.502,117.645 425.692,118.538 C426.882,119.43 428.57,119.189 429.462,117.999 C432.753,113.576 437.949,110.979 443.462,111 C444.176,111 444.86,110.716 445.365,110.211 C445.87,109.707 446.154,109.022 446.154,108.308 Z" />
        </g>
        <g id="Black-S">
            <path d="M704.308,118.538 C703.118,119.431 701.431,119.19 700.538,118 C697.248,113.577 692.052,110.979 686.538,111 C685.456,111 684.479,110.352 684.058,109.354 C683.776,108.685 683.776,107.93 684.058,107.261 C684.479,106.264 685.456,105.615 686.538,105.615 C690.736,105.615 694.233,102.4 694.586,98.217 C694.939,94.035 692.03,90.279 687.892,89.576 C683.754,88.872 679.767,91.455 678.717,95.519 C678.35,96.955 676.882,97.825 675.441,97.456 C674,97.087 673.131,95.619 673.5,94.178 C674.936,88.613 679.746,84.574 685.475,84.122 C691.204,83.669 696.589,86.904 698.88,92.174 C701.171,97.445 699.864,103.589 695.625,107.47 C699.286,109.055 702.468,111.57 704.856,114.766 C705.285,115.339 705.468,116.058 705.365,116.766 C705.262,117.474 704.881,118.111 704.308,118.538 Z M686.175,139.269 C686.706,140.104 686.736,141.162 686.254,142.026 C685.772,142.889 684.855,143.419 683.867,143.406 C682.878,143.392 681.976,142.838 681.517,141.962 C678.067,136.119 671.786,132.534 665,132.534 C658.214,132.534 651.933,136.119 648.483,141.962 C648.024,142.838 647.122,143.392 646.134,143.406 C645.145,143.419 644.228,142.889 643.746,142.026 C643.264,141.162 643.294,140.104 643.825,139.269 C646.435,134.784 650.415,131.255 655.18,129.2 C649.682,124.991 647.479,117.747 649.701,111.189 C651.923,104.632 658.076,100.22 665,100.22 C671.924,100.22 678.077,104.632 680.299,111.189 C682.521,117.747 680.318,124.991 674.82,129.2 C679.585,131.255 683.565,134.784 686.175,139.269 Z M665,127.154 C670.948,127.154 675.769,122.332 675.769,116.385 C675.769,110.437 670.948,105.615 665,105.615 C659.052,105.615 654.231,110.437 654.231,116.385 C654.231,119.241 655.365,121.98 657.385,124 C659.405,126.019 662.144,127.154 665,127.154 Z M646.154,108.308 C646.154,107.594 645.87,106.909 645.365,106.404 C644.86,105.899 644.176,105.615 643.462,105.615 C639.264,105.615 635.767,102.4 635.414,98.217 C635.061,94.035 637.97,90.279 642.108,89.576 C646.246,88.872 650.233,91.455 651.283,95.519 C651.65,96.955 653.118,97.825 654.559,97.456 C656,97.087 656.869,95.619 656.5,94.178 C655.064,88.613 650.254,84.574 644.525,84.122 C638.796,83.669 633.411,86.904 631.12,92.174 C628.829,97.445 630.136,103.589 634.375,107.47 C630.718,109.056 627.539,111.572 625.154,114.766 C624.261,115.957 624.502,117.645 625.692,118.538 C626.882,119.43 628.57,119.189 629.462,117.999 C632.753,113.576 637.949,110.979 643.462,111 C644.176,111 644.86,110.716 645.365,110.211 C645.87,109.707 646.154,109.022 646.154,108.308 Z" />
        </g>
    </g>
</svg>