<?xml version="1.0" encoding="UTF-8"?>
<svg height="600" width="800" xmlns="http://www.w3.org/2000/svg" xmlns:xlink="http://www.w3.org/1999/xlink">
    <g id="Notes" font-family="'LucidaGrande', 'Lucida Grande', sans-serif" font-size="13">
        <rect fill="white" height="600.0" width="800.0" x="0.0" y="0.0" />
        <g font-size="13">
            <text x="18.0" y="176.0">Small</text>
            <text x="18.0" y="376.0">Medium</text>
            <text x="18.0" y="576.0">Large</text>
        </g>
        <g font-size="9">
            <text x="250.0" y="30.0">Ultralight</text>
            <text x="450.0" y="30.0">Regular</text>
            <text x="650.0" y="30.0">Black</text>
            <text id="template-version" fill="#505050" text-anchor="end" x="785.0" y="575.0">Template v.3.0</text>
            <a href="https://github.com/swhitty/SwiftDraw">
                <text fill="#505050" text-anchor="end" x="785.0" y="590.0">https://github.com/swhitty/SwiftDraw</text>
            </a>
        </g>
    </g>
    <g id="Guides" stroke="rgb(39, 170, 225)" stroke-width="0.5">
        <path id="Capline-S" d="M18,76 l800,0" />
        <path id="H-reference" d="M85,145.755 L87.685,145.755 L113.369,79.287 L114.052,79.287 L114.052,76 L112.148,76 L85,145.755 Z M95.693,121.536 L130.996,121.536 L130.263,119.313 L96.474,119.313 L95.693,121.536 Z M139.15,145.755 L141.787,145.755 L114.638,76 L113.466,76 L113.466,79.287 L139.15,145.755 Z" stroke="none" />
        <path id="Baseline-S" d="M18,146 l800,0" />
        <path id="left-margin-Ultralight-S" d="M220,56 l0,110" />
        <path id="right-margin-Ultralight-S" d="M310,56 l0,110" />
        <path id="left-margin-Regular-S" d="M420,56 l0,110" />
        <path id="right-margin-Regular-S" d="M510,56 l0,110" />
        <path id="left-margin-Black-S" d="M620,56 l0,110" />
        <path id="right-margin-Black-S" d="M710,56 l0,110" />
        <path id="Capline-M" d="M18,276 l800,0" />
        <path id="Baseline-M" d="M18,346 l800,0" />
        <path id="Capline-L" d="M18,476 l800,0" />
        <path id="Baseline-L" d="M18,546 l800,0" />
    </g>
    <g id="Symbols">
        <g id="Ultralight-S">
            <path d="M267.692,108.308 L267.692,127.154 C267.692,128.641 266.487,129.846 265,129.846 C263.513,129.846 262.308,128.641 262.308,127.154 L262.308,108.308 C262.308,106.821 263.513,105.615 265,105.615 C266.487,105.615 267.692,106.821 267.692,108.308 Z M280.09,108.038 L278.206,126.885 C278.131,127.597 278.343,128.311 278.795,128.866 C279.247,129.422 279.902,129.775 280.615,129.846 C280.706,129.851 280.797,129.851 280.888,129.846 C282.269,129.844 283.425,128.798 283.563,127.423 L285.448,108.577 C285.597,107.097 284.518,105.777 283.038,105.629 C281.559,105.48 280.239,106.559 280.09,108.039 Z M249.91,108.038 C249.761,106.559 248.441,105.48 246.962,105.629 C245.482,105.777 244.403,107.097 244.552,108.577 L246.437,127.423 C246.575,128.804 247.741,129.853 249.129,129.846 C249.22,129.851 249.311,129.851 249.401,129.846 C250.112,129.774 250.765,129.424 251.217,128.871 C251.669,128.318 251.882,127.608 251.811,126.898 Z M302.669,97.895 L297.597,135.944 C297.231,138.614 294.955,140.607 292.26,140.615 L237.74,140.615 C235.045,140.607 232.769,138.614 232.403,135.944 L227.331,97.895 C227.228,97.126 227.463,96.349 227.974,95.765 C228.485,95.181 229.224,94.846 230,94.846 L244.932,94.846 L262.981,74.226 C263.492,73.647 264.227,73.315 265,73.315 C265.773,73.315 266.508,73.647 267.019,74.226 L285.068,94.846 L300,94.846 C300.776,94.846 301.515,95.181 302.026,95.765 C302.537,96.349 302.772,97.126 302.669,97.895 Z M252.087,94.846 L277.913,94.846 L265,80.089 Z M296.924,100.231 L233.076,100.231 L237.74,135.231 L292.26,135.231 Z" />
        </g>
        <g id="Regular-S">
            <path d="M467.692,108.308 L467.692,127.154 C467.692,128.641 466.487,129.846 465,129.846 C463.513,129.846 462.308,128.641 462.308,127.154 L462.308,108.308 C462.308,106.821 463.513,105.615 465,105.615 C466.487,105.615 467.692,106.821 467.692,108.308 Z M480.09,108.038 L478.206,126.885 C478.131,127.597 478.343,128.311 478.795,128.866 C479.247,129.422 479.902,129.775 480.615,129.846 C480.706,129.851 480.797,129.851 480.888,129.846 C482.269,129.844 483.425,128.798 483.563,127.423 L485.448,108.577 C485.597,107.097 484.518,105.777 483.038,105.629 C481.559,105.48 480.239,106.559 480.09,108.039 Z M449.91,108.038 C449.761,106.559 448.441,105.48 446.962,105.629 C445.482,105.777 444.403,107.097 444.552,108.577 L446.436,127.423 C446.575,128.804 447.741,129.853 449.129,129.846 C449.22,129.851 449.311,129.851 449.401,129.846 C450.112,129.774 450.765,129.424 451.217,128.871 C451.669,128.318 451.882,127.608 451.811,126.898 Z M502.669,97.895 L497.597,135.944 C497.231,138.614 494.955,140.607 492.26,140.615 L437.74,140.615 C435.045,140.607 432.769,138.614 432.403,135.944 L427.331,97.895 C427.228,97.126 427.463,96.349 427.974,95.765 C428.485,95.181 429.224,94.846 430,94.846 L444.932,94.846 L462.981,74.226 C463.492,73.647 464.227,73.315 465,73.315 C465.773,73.315 466.508,73.647 467.019,74.226 L485.068,94.846 L500,94.846 C500.776,94.846 501.515,95.181 502.026,95.765 C502.537,96.349 502.772,97.126 502.669,97.895 Z M452.087,94.846 L477.913,94.846 L465,80.089 Z M496.924,100.231 L433.076,100.231 L437.74,135.231 L492.26,135.231 Z" />
        </g>
        <g id="Black-S">
            <path d="M667.692,108.308 L667.692,127.154 C667.692,128.641 666.487,129.846 665,129.846 C663.513,129.846 662.308,128.641 662.308,127.154 L662.308,108.308 C662.308,106.821 663.513,105.615 665,105.615 C666.487,105.615 667.692,106.821 667.692,108.308 Z M680.09,108.038 L678.206,126.885 C678.131,127.597 678.343,128.311 678.795,128.866 C679.247,129.422 679.902,129.775 680.615,129.846 C680.706,129.851 680.797,129.851 680.888,129.846 C682.269,129.844 683.425,128.798 683.563,127.423 L685.448,108.577 C685.597,107.097 684.518,105.777 683.038,105.629 C681.559,105.48 680.239,106.559 680.09,108.039 Z M649.91,108.038 C649.761,106.559 648.441,105.48 646.962,105.629 C645.482,105.777 644.403,107.097 644.552,108.577 L646.437,127.423 C646.575,128.804 647.741,129.853 649.129,129.846 C649.22,129.851 649.311,129.851 649.401,129.846 C650.112,129.774 650.765,129.424 651.217,128.871 C651.669,128.318 651.882,127.608 651.811,126.898 Z M702.669,97.895 L697.597,135.944 C697.231,138.614 694.955,140.607 692.26,140.615 L637.74,140.615 C635.045,140.607 632.769,138.614 632.403,135.944 L627.331,97.895 C627.228,97.126 627.463,96.349 627.974,95.765 C628.485,95.181 629.224,94.846 630,94.846 L644.932,94.846 L662.981,74.226 C663.492,73.647 664.227,73.315 665,73.315 C665.773,73.315 666.508,73.647 667.019,74.226 L685.068,94.846 L700,94.846 C700.776,94.846 701.515,95.181 702.026,95.765 C702.537,96.349 702.772,97.126 702.669,97.895 Z M652.087,94.846 L677.913,94.846 L665,80.089 Z M696.924,100.231 L633.076,100.231 L637.74,135.231 L692.26,135.231 Z" />
        </g>
    </g>
</svg>