<?xml version="1.0" encoding="UTF-8"?>
<svg height="600" width="800" xmlns="http://www.w3.org/2000/svg" xmlns:xlink="http://www.w3.org/1999/xlink">
    <g id="Notes" font-family="'LucidaGrande', 'Lucida Grande', sans-serif" font-size="13">
        <rect fill="white" height="600.0" width="800.0" x="0.0" y="0.0" />
        <g font-size="13">
            <text x="18.0" y="176.0">Small</text>
            <text x="18.0" y="376.0">Medium</text>
            <text x="18.0" y="576.0">Large</text>
        </g>
        <g font-size="9">
            <text x="250.0" y="30.0">Ultralight</text>
            <text x="450.0" y="30.0">Regular</text>
            <text x="650.0" y="30.0">Black</text>
            <text id="template-version" fill="#505050" text-anchor="end" x="785.0" y="575.0">Template v.3.0</text>
            <a href="https://github.com/swhitty/SwiftDraw">
                <text fill="#505050" text-anchor="end" x="785.0" y="590.0">https://github.com/swhitty/SwiftDraw</text>
            </a>
        </g>
    </g>
    <g id="Guides" stroke="rgb(39, 170, 225)" stroke-width="0.5">
        <path id="Capline-S" d="M18,76 l800,0" />
        <path id="H-reference" d="M85,145.755 L87.685,145.755 L113.369,79.287 L114.052,79.287 L114.052,76 L112.148,76 L85,145.755 Z M95.693,121.536 L130.996,121.536 L130.263,119.313 L96.474,119.313 L95.693,121.536 Z M139.15,145.755 L141.787,145.755 L114.638,76 L113.466,76 L113.466,79.287 L139.15,145.755 Z" stroke="none" />
        <path id="Baseline-S" d="M18,146 l800,0" />
        <path id="left-margin-Ultralight-S" d="M220,56 l0,110" />
        <path id="right-margin-Ultralight-S" d="M310,56 l0,110" />
        <path id="left-margin-Regular-S" d="M420,56 l0,110" />
        <path id="right-margin-Regular-S" d="M510,56 l0,110" />
        <path id="left-margin-Black-S" d="M620,56 l0,110" />
        <path id="right-margin-Black-S" d="M710,56 l0,110" />
        <path id="Capline-M" d="M18,276 l800,0" />
        <path id="Baseline-M" d="M18,346 l800,0" />
        <path id="Capline-L" d="M18,476 l800,0" />
        <path id="Baseline-L" d="M18,546 l800,0" />
    </g>
    <g id="Symbols">
        <g id="Ultralight-S">
            <path d="M265,76 C245.67,76 230,91.67 230,111 C230,130.33 245.67,146 265,146 C284.33,146 300,130.33 300,111 C299.979,91.677 284.32,76.02 264.999,76 Z M265,140.615 C248.644,140.615 235.385,127.356 235.385,111 C235.385,94.644 248.644,81.385 265,81.385 C281.356,81.385 294.615,94.644 294.615,111 C294.598,127.347 281.35,140.596 265.001,140.615 Z M270.385,127.154 C270.385,127.868 270.101,128.553 269.596,129.058 C269.091,129.562 268.406,129.846 267.692,129.846 C266.264,129.846 264.895,129.279 263.885,128.269 C262.875,127.259 262.308,125.89 262.308,124.462 L262.308,111 C260.821,111 259.615,109.795 259.615,108.308 C259.615,106.821 260.821,105.615 262.308,105.615 C263.736,105.615 265.105,106.183 266.115,107.193 C267.125,108.202 267.692,109.572 267.692,111 L267.692,124.462 C268.406,124.462 269.091,124.745 269.596,125.25 C270.101,125.755 270.385,126.44 270.385,127.154 Z M259.615,96.192 C259.615,93.962 261.423,92.154 263.654,92.154 C265.884,92.154 267.692,93.962 267.692,96.192 C267.692,98.423 265.884,100.231 263.654,100.231 C262.583,100.231 261.556,99.805 260.798,99.048 C260.041,98.291 259.615,97.263 259.615,96.192 Z" />
        </g>
        <g id="Regular-S">
            <path d="M465,76 C445.67,76 430,91.67 430,111 C430,130.33 445.67,146 465,146 C484.33,146 500,130.33 500,111 C499.979,91.677 484.32,76.02 464.999,76 Z M465,140.615 C448.644,140.615 435.385,127.356 435.385,111 C435.385,94.644 448.644,81.385 465,81.385 C481.356,81.385 494.615,94.644 494.615,111 C494.598,127.347 481.35,140.596 465.001,140.615 Z M470.385,127.154 C470.385,127.868 470.101,128.553 469.596,129.058 C469.091,129.562 468.406,129.846 467.692,129.846 C466.264,129.846 464.895,129.279 463.885,128.269 C462.875,127.259 462.308,125.89 462.308,124.462 L462.308,111 C460.821,111 459.615,109.795 459.615,108.308 C459.615,106.821 460.821,105.615 462.308,105.615 C463.736,105.615 465.105,106.183 466.115,107.193 C467.125,108.202 467.692,109.572 467.692,111 L467.692,124.462 C468.406,124.462 469.091,124.745 469.596,125.25 C470.101,125.755 470.385,126.44 470.385,127.154 Z M459.615,96.192 C459.615,93.962 461.423,92.154 463.654,92.154 C465.884,92.154 467.692,93.962 467.692,96.192 C467.692,98.423 465.884,100.231 463.654,100.231 C462.583,100.231 461.556,99.805 460.798,99.048 C460.041,98.291 459.615,97.263 459.615,96.192 Z" />
        </g>
        <g id="Black-S">
            <path d="M665,76 C645.67,76 630,91.67 630,111 C630,130.33 645.67,146 665,146 C684.33,146 700,130.33 700,111 C699.979,91.677 684.32,76.02 664.999,76 Z M665,140.615 C648.644,140.615 635.385,127.356 635.385,111 C635.385,94.644 648.644,81.385 665,81.385 C681.356,81.385 694.615,94.644 694.615,111 C694.598,127.347 681.35,140.596 665.001,140.615 Z M670.385,127.154 C670.385,127.868 670.101,128.553 669.596,129.058 C669.091,129.562 668.406,129.846 667.692,129.846 C666.264,129.846 664.895,129.279 663.885,128.269 C662.875,127.259 662.308,125.89 662.308,124.462 L662.308,111 C660.821,111 659.615,109.795 659.615,108.308 C659.615,106.821 660.821,105.615 662.308,105.615 C663.736,105.615 665.105,106.183 666.115,107.193 C667.125,108.202 667.692,109.572 667.692,111 L667.692,124.462 C668.406,124.462 669.091,124.745 669.596,125.25 C670.101,125.755 670.385,126.44 670.385,127.154 Z M659.615,96.192 C659.615,93.962 661.423,92.154 663.654,92.154 C665.884,92.154 667.692,93.962 667.692,96.192 C667.692,98.423 665.884,100.231 663.654,100.231 C662.583,100.231 661.556,99.805 660.798,99.048 C660.041,98.291 659.615,97.263 659.615,96.192 Z" />
        </g>
    </g>
</svg>