<?xml version="1.0" encoding="UTF-8"?>
<svg height="600" width="800" xmlns="http://www.w3.org/2000/svg" xmlns:xlink="http://www.w3.org/1999/xlink">
    <g id="Notes" font-family="'LucidaGrande', 'Lucida Grande', sans-serif" font-size="13">
        <rect fill="white" height="600.0" width="800.0" x="0.0" y="0.0" />
        <g font-size="13">
            <text x="18.0" y="176.0">Small</text>
            <text x="18.0" y="376.0">Medium</text>
            <text x="18.0" y="576.0">Large</text>
        </g>
        <g font-size="9">
            <text x="250.0" y="30.0">Ultralight</text>
            <text x="450.0" y="30.0">Regular</text>
            <text x="650.0" y="30.0">Black</text>
            <text id="template-version" fill="#505050" text-anchor="end" x="785.0" y="575.0">Template v.3.0</text>
            <a href="https://github.com/swhitty/SwiftDraw">
                <text fill="#505050" text-anchor="end" x="785.0" y="590.0">https://github.com/swhitty/SwiftDraw</text>
            </a>
        </g>
    </g>
    <g id="Guides" stroke="rgb(39, 170, 225)" stroke-width="0.5">
        <path id="Capline-S" d="M18,76 l800,0" />
        <path id="H-reference" d="M85,145.755 L87.685,145.755 L113.369,79.287 L114.052,79.287 L114.052,76 L112.148,76 L85,145.755 Z M95.693,121.536 L130.996,121.536 L130.263,119.313 L96.474,119.313 L95.693,121.536 Z M139.15,145.755 L141.787,145.755 L114.638,76 L113.466,76 L113.466,79.287 L139.15,145.755 Z" stroke="none" />
        <path id="Baseline-S" d="M18,146 l800,0" />
        <path id="left-margin-Ultralight-S" d="M220,56 l0,110" />
        <path id="right-margin-Ultralight-S" d="M310,56 l0,110" />
        <path id="left-margin-Regular-S" d="M420,56 l0,110" />
        <path id="right-margin-Regular-S" d="M510,56 l0,110" />
        <path id="left-margin-Black-S" d="M620,56 l0,110" />
        <path id="right-margin-Black-S" d="M710,56 l0,110" />
        <path id="Capline-M" d="M18,276 l800,0" />
        <path id="Baseline-M" d="M18,346 l800,0" />
        <path id="Capline-L" d="M18,476 l800,0" />
        <path id="Baseline-L" d="M18,546 l800,0" />
    </g>
    <g id="Symbols">
        <g id="Ultralight-S">
            <path d="M302.181,112.575 L284.681,136.806 C284.175,137.511 283.361,137.929 282.493,137.929 C281.626,137.929 280.811,137.511 280.306,136.806 L247.5,91.366 L232.184,112.568 C231.319,113.774 229.635,114.051 228.425,113.183 C227.216,112.316 226.939,110.631 227.807,109.422 L245.307,85.191 C245.812,84.486 246.627,84.068 247.494,84.068 C248.362,84.068 249.176,84.486 249.682,85.191 L282.497,130.624 L297.813,109.422 C298.679,108.216 300.363,107.939 301.572,108.807 C302.782,109.675 303.059,111.359 302.191,112.568 Z" />
        </g>
        <g id="Regular-S">
            <path d="M502.181,112.575 L484.681,136.806 C484.175,137.511 483.361,137.929 482.493,137.929 C481.626,137.929 480.811,137.511 480.306,136.806 L447.5,91.366 L432.184,112.568 C431.319,113.774 429.635,114.051 428.425,113.183 C427.216,112.316 426.939,110.631 427.807,109.422 L445.307,85.191 C445.812,84.486 446.627,84.068 447.494,84.068 C448.361,84.068 449.176,84.486 449.682,85.191 L482.497,130.624 L497.813,109.422 C498.678,108.216 500.363,107.939 501.572,108.807 C502.782,109.675 503.059,111.359 502.191,112.568 Z" />
        </g>
        <g id="Black-S">
            <path d="M702.181,112.575 L684.681,136.806 C684.175,137.511 683.361,137.929 682.493,137.929 C681.626,137.929 680.811,137.511 680.306,136.806 L647.5,91.366 L632.184,112.568 C631.319,113.774 629.635,114.051 628.425,113.183 C627.216,112.316 626.939,110.631 627.807,109.422 L645.307,85.191 C645.812,84.486 646.627,84.068 647.494,84.068 C648.362,84.068 649.176,84.486 649.682,85.191 L682.497,130.624 L697.813,109.422 C698.679,108.216 700.363,107.939 701.572,108.807 C702.782,109.675 703.059,111.359 702.191,112.568 Z" />
        </g>
    </g>
</svg>