<?xml version="1.0" encoding="UTF-8"?>
<svg height="600" width="800" xmlns="http://www.w3.org/2000/svg" xmlns:xlink="http://www.w3.org/1999/xlink">
    <g id="Notes" font-family="'LucidaGrande', 'Lucida Grande', sans-serif" font-size="13">
        <rect fill="white" height="600.0" width="800.0" x="0.0" y="0.0" />
        <g font-size="13">
            <text x="18.0" y="176.0">Small</text>
            <text x="18.0" y="376.0">Medium</text>
            <text x="18.0" y="576.0">Large</text>
        </g>
        <g font-size="9">
            <text x="250.0" y="30.0">Ultralight</text>
            <text x="450.0" y="30.0">Regular</text>
            <text x="650.0" y="30.0">Black</text>
            <text id="template-version" fill="#505050" text-anchor="end" x="785.0" y="575.0">Template v.3.0</text>
            <a href="https://github.com/swhitty/SwiftDraw">
                <text fill="#505050" text-anchor="end" x="785.0" y="590.0">https://github.com/swhitty/SwiftDraw</text>
            </a>
        </g>
    </g>
    <g id="Guides" stroke="rgb(39, 170, 225)" stroke-width="0.5">
        <path id="Capline-S" d="M18,76 l800,0" />
        <path id="H-reference" d="M85,145.755 L87.685,145.755 L113.369,79.287 L114.052,79.287 L114.052,76 L112.148,76 L85,145.755 Z M95.693,121.536 L130.996,121.536 L130.263,119.313 L96.474,119.313 L95.693,121.536 Z M139.15,145.755 L141.787,145.755 L114.638,76 L113.466,76 L113.466,79.287 L139.15,145.755 Z" stroke="none" />
        <path id="Baseline-S" d="M18,146 l800,0" />
        <path id="left-margin-Ultralight-S" d="M220,56 l0,110" />
        <path id="right-margin-Ultralight-S" d="M310,56 l0,110" />
        <path id="left-margin-Regular-S" d="M420,56 l0,110" />
        <path id="right-margin-Regular-S" d="M510,56 l0,110" />
        <path id="left-margin-Black-S" d="M620,56 l0,110" />
        <path id="right-margin-Black-S" d="M710,56 l0,110" />
        <path id="Capline-M" d="M18,276 l800,0" />
        <path id="Baseline-M" d="M18,346 l800,0" />
        <path id="Capline-L" d="M18,476 l800,0" />
        <path id="Baseline-L" d="M18,546 l800,0" />
    </g>
    <g id="Symbols">
        <g id="Ultralight-S">
            <path d="M265,73.308 C248.652,73.326 235.403,86.575 235.385,102.923 C235.385,113.49 240.268,124.69 249.519,135.315 C253.676,140.116 258.355,144.439 263.469,148.204 C264.396,148.854 265.631,148.854 266.558,148.204 C271.663,144.437 276.332,140.114 280.481,135.315 C289.719,124.69 294.615,113.49 294.615,102.923 C294.598,86.576 281.35,73.327 265.001,73.308 Z M265,142.635 C259.437,138.26 240.769,122.19 240.769,102.923 C240.769,89.541 251.618,78.692 265,78.692 C278.382,78.692 289.231,89.541 289.231,102.923 C289.231,122.183 270.563,138.26 265,142.635 Z M278.462,102.923 C278.462,103.637 278.178,104.322 277.673,104.827 C277.168,105.332 276.483,105.615 275.769,105.615 L267.692,105.615 L267.692,113.692 C267.692,115.179 266.487,116.385 265,116.385 C263.513,116.385 262.308,115.179 262.308,113.692 L262.308,105.615 L254.231,105.615 C252.744,105.615 251.538,104.41 251.538,102.923 C251.538,101.436 252.744,100.231 254.231,100.231 L262.308,100.231 L262.308,92.154 C262.308,90.667 263.513,89.462 265,89.462 C266.487,89.462 267.692,90.667 267.692,92.154 L267.692,100.231 L275.769,100.231 C276.483,100.231 277.168,100.514 277.673,101.019 C278.178,101.524 278.462,102.209 278.462,102.923 Z" />
        </g>
        <g id="Regular-S">
            <path d="M465,73.308 C448.652,73.326 435.403,86.575 435.385,102.923 C435.385,113.49 440.268,124.69 449.519,135.315 C453.676,140.116 458.355,144.439 463.469,148.204 C464.396,148.854 465.631,148.854 466.558,148.204 C471.663,144.437 476.332,140.114 480.481,135.315 C489.719,124.69 494.615,113.49 494.615,102.923 C494.598,86.576 481.35,73.327 465.001,73.308 Z M465,142.635 C459.437,138.26 440.769,122.19 440.769,102.923 C440.769,89.541 451.618,78.692 465,78.692 C478.382,78.692 489.231,89.541 489.231,102.923 C489.231,122.183 470.563,138.26 465,142.635 Z M478.462,102.923 C478.462,103.637 478.178,104.322 477.673,104.827 C477.168,105.332 476.483,105.615 475.769,105.615 L467.692,105.615 L467.692,113.692 C467.692,115.179 466.487,116.385 465,116.385 C463.513,116.385 462.308,115.179 462.308,113.692 L462.308,105.615 L454.231,105.615 C452.744,105.615 451.538,104.41 451.538,102.923 C451.538,101.436 452.744,100.231 454.231,100.231 L462.308,100.231 L462.308,92.154 C462.308,90.667 463.513,89.462 465,89.462 C466.487,89.462 467.692,90.667 467.692,92.154 L467.692,100.231 L475.769,100.231 C476.483,100.231 477.168,100.514 477.673,101.019 C478.178,101.524 478.462,102.209 478.462,102.923 Z" />
        </g>
        <g id="Black-S">
            <path d="M665,73.308 C648.652,73.326 635.403,86.575 635.385,102.923 C635.385,113.49 640.268,124.69 649.519,135.315 C653.676,140.116 658.355,144.439 663.469,148.204 C664.396,148.854 665.631,148.854 666.558,148.204 C671.663,144.437 676.332,140.114 680.481,135.315 C689.719,124.69 694.615,113.49 694.615,102.923 C694.598,86.576 681.35,73.327 665.001,73.308 Z M665,142.635 C659.437,138.26 640.769,122.19 640.769,102.923 C640.769,89.541 651.618,78.692 665,78.692 C678.382,78.692 689.231,89.541 689.231,102.923 C689.231,122.183 670.563,138.26 665,142.635 Z M678.462,102.923 C678.462,103.637 678.178,104.322 677.673,104.827 C677.168,105.332 676.483,105.615 675.769,105.615 L667.692,105.615 L667.692,113.692 C667.692,115.179 666.487,116.385 665,116.385 C663.513,116.385 662.308,115.179 662.308,113.692 L662.308,105.615 L654.231,105.615 C652.744,105.615 651.538,104.41 651.538,102.923 C651.538,101.436 652.744,100.231 654.231,100.231 L662.308,100.231 L662.308,92.154 C662.308,90.667 663.513,89.462 665,89.462 C666.487,89.462 667.692,90.667 667.692,92.154 L667.692,100.231 L675.769,100.231 C676.483,100.231 677.168,100.514 677.673,101.019 C678.178,101.524 678.462,102.209 678.462,102.923 Z" />
        </g>
    </g>
</svg>