<?xml version="1.0" encoding="UTF-8"?>
<svg height="600" width="800" xmlns="http://www.w3.org/2000/svg" xmlns:xlink="http://www.w3.org/1999/xlink">
    <g id="Notes" font-family="'LucidaGrande', 'Lucida Grande', sans-serif" font-size="13">
        <rect fill="white" height="600.0" width="800.0" x="0.0" y="0.0" />
        <g font-size="13">
            <text x="18.0" y="176.0">Small</text>
            <text x="18.0" y="376.0">Medium</text>
            <text x="18.0" y="576.0">Large</text>
        </g>
        <g font-size="9">
            <text x="250.0" y="30.0">Ultralight</text>
            <text x="450.0" y="30.0">Regular</text>
            <text x="650.0" y="30.0">Black</text>
            <text id="template-version" fill="#505050" text-anchor="end" x="785.0" y="575.0">Template v.3.0</text>
            <a href="https://github.com/swhitty/SwiftDraw">
                <text fill="#505050" text-anchor="end" x="785.0" y="590.0">https://github.com/swhitty/SwiftDraw</text>
            </a>
        </g>
    </g>
    <g id="Guides" stroke="rgb(39, 170, 225)" stroke-width="0.5">
        <path id="Capline-S" d="M18,76 l800,0" />
        <path id="H-reference" d="M85,145.755 L87.685,145.755 L113.369,79.287 L114.052,79.287 L114.052,76 L112.148,76 L85,145.755 Z M95.693,121.536 L130.996,121.536 L130.263,119.313 L96.474,119.313 L95.693,121.536 Z M139.15,145.755 L141.787,145.755 L114.638,76 L113.466,76 L113.466,79.287 L139.15,145.755 Z" stroke="none" />
        <path id="Baseline-S" d="M18,146 l800,0" />
        <path id="left-margin-Ultralight-S" d="M220,56 l0,110" />
        <path id="right-margin-Ultralight-S" d="M310,56 l0,110" />
        <path id="left-margin-Regular-S" d="M420,56 l0,110" />
        <path id="right-margin-Regular-S" d="M510,56 l0,110" />
        <path id="left-margin-Black-S" d="M620,56 l0,110" />
        <path id="right-margin-Black-S" d="M710,56 l0,110" />
        <path id="Capline-M" d="M18,276 l800,0" />
        <path id="Baseline-M" d="M18,346 l800,0" />
        <path id="Capline-L" d="M18,476 l800,0" />
        <path id="Baseline-L" d="M18,546 l800,0" />
    </g>
    <g id="Symbols">
        <g id="Ultralight-S">
            <path d="M296.53,135.153 L275.769,100.54 L275.769,81.385 L278.462,81.385 C279.948,81.385 281.154,80.179 281.154,78.692 C281.154,77.205 279.948,76 278.462,76 L251.538,76 C250.052,76 248.846,77.205 248.846,78.692 C248.846,80.179 250.052,81.385 251.538,81.385 L254.231,81.385 L254.231,100.54 L233.47,135.153 C232.473,136.815 232.446,138.885 233.399,140.572 C234.353,142.259 236.139,143.304 238.077,143.308 L291.923,143.308 C293.863,143.308 295.653,142.264 296.608,140.576 C297.564,138.888 297.538,136.817 296.54,135.153 Z M259.232,102.671 C259.484,102.253 259.616,101.775 259.615,101.288 L259.615,81.385 L270.385,81.385 L270.385,101.288 C270.384,101.775 270.516,102.253 270.768,102.671 L283.631,124.125 C279.592,124.923 273.848,124.586 266.215,120.723 C260.861,118.013 255.765,116.576 250.997,116.412 Z M238.077,137.923 L247.682,121.911 C252.477,121.325 257.882,122.533 263.775,125.518 C270.169,128.752 275.554,129.853 279.929,129.853 C282.154,129.863 284.369,129.557 286.508,128.944 L291.923,137.923 Z" />
        </g>
        <g id="Regular-S">
            <path d="M496.53,135.153 L475.769,100.54 L475.769,81.385 L478.462,81.385 C479.948,81.385 481.154,80.179 481.154,78.692 C481.154,77.205 479.948,76 478.462,76 L451.538,76 C450.052,76 448.846,77.205 448.846,78.692 C448.846,80.179 450.052,81.385 451.538,81.385 L454.231,81.385 L454.231,100.54 L433.47,135.153 C432.473,136.815 432.446,138.885 433.399,140.572 C434.353,142.259 436.139,143.304 438.077,143.308 L491.923,143.308 C493.863,143.308 495.653,142.264 496.608,140.576 C497.564,138.888 497.538,136.817 496.54,135.153 Z M459.232,102.671 C459.484,102.253 459.616,101.775 459.615,101.288 L459.615,81.385 L470.385,81.385 L470.385,101.288 C470.384,101.775 470.516,102.253 470.768,102.671 L483.631,124.125 C479.592,124.923 473.848,124.586 466.215,120.723 C460.861,118.013 455.765,116.576 450.997,116.412 Z M438.077,137.923 L447.682,121.911 C452.477,121.325 457.882,122.533 463.775,125.518 C470.169,128.752 475.554,129.853 479.929,129.853 C482.154,129.863 484.369,129.557 486.508,128.944 L491.923,137.923 Z" />
        </g>
        <g id="Black-S">
            <path d="M696.53,135.153 L675.769,100.54 L675.769,81.385 L678.462,81.385 C679.948,81.385 681.154,80.179 681.154,78.692 C681.154,77.205 679.948,76 678.462,76 L651.538,76 C650.052,76 648.846,77.205 648.846,78.692 C648.846,80.179 650.052,81.385 651.538,81.385 L654.231,81.385 L654.231,100.54 L633.47,135.153 C632.473,136.815 632.446,138.885 633.399,140.572 C634.353,142.259 636.139,143.304 638.077,143.308 L691.923,143.308 C693.863,143.308 695.653,142.264 696.608,140.576 C697.564,138.888 697.538,136.817 696.54,135.153 Z M659.232,102.671 C659.484,102.253 659.616,101.775 659.615,101.288 L659.615,81.385 L670.385,81.385 L670.385,101.288 C670.384,101.775 670.516,102.253 670.768,102.671 L683.631,124.125 C679.592,124.923 673.848,124.586 666.215,120.723 C660.861,118.013 655.765,116.576 650.997,116.412 Z M638.077,137.923 L647.682,121.911 C652.477,121.325 657.882,122.533 663.775,125.518 C670.169,128.752 675.554,129.853 679.929,129.853 C682.154,129.863 684.369,129.557 686.508,128.944 L691.923,137.923 Z" />
        </g>
    </g>
</svg>