<?xml version="1.0" encoding="UTF-8"?>
<svg height="600" width="800" xmlns="http://www.w3.org/2000/svg" xmlns:xlink="http://www.w3.org/1999/xlink">
    <g id="Notes" font-family="'LucidaGrande', 'Lucida Grande', sans-serif" font-size="13">
        <rect fill="white" height="600.0" width="800.0" x="0.0" y="0.0" />
        <g font-size="13">
            <text x="18.0" y="176.0">Small</text>
            <text x="18.0" y="376.0">Medium</text>
            <text x="18.0" y="576.0">Large</text>
        </g>
        <g font-size="9">
            <text x="250.0" y="30.0">Ultralight</text>
            <text x="450.0" y="30.0">Regular</text>
            <text x="650.0" y="30.0">Black</text>
            <text id="template-version" fill="#505050" text-anchor="end" x="785.0" y="575.0">Template v.3.0</text>
            <a href="https://github.com/swhitty/SwiftDraw">
                <text fill="#505050" text-anchor="end" x="785.0" y="590.0">https://github.com/swhitty/SwiftDraw</text>
            </a>
        </g>
    </g>
    <g id="Guides" stroke="rgb(39, 170, 225)" stroke-width="0.5">
        <path id="Capline-S" d="M18,76 l800,0" />
        <path id="H-reference" d="M85,145.755 L87.685,145.755 L113.369,79.287 L114.052,79.287 L114.052,76 L112.148,76 L85,145.755 Z M95.693,121.536 L130.996,121.536 L130.263,119.313 L96.474,119.313 L95.693,121.536 Z M139.15,145.755 L141.787,145.755 L114.638,76 L113.466,76 L113.466,79.287 L139.15,145.755 Z" stroke="none" />
        <path id="Baseline-S" d="M18,146 l800,0" />
        <path id="left-margin-Ultralight-S" d="M220,56 l0,110" />
        <path id="right-margin-Ultralight-S" d="M310,56 l0,110" />
        <path id="left-margin-Regular-S" d="M420,56 l0,110" />
        <path id="right-margin-Regular-S" d="M510,56 l0,110" />
        <path id="left-margin-Black-S" d="M620,56 l0,110" />
        <path id="right-margin-Black-S" d="M710,56 l0,110" />
        <path id="Capline-M" d="M18,276 l800,0" />
        <path id="Baseline-M" d="M18,346 l800,0" />
        <path id="Capline-L" d="M18,476 l800,0" />
        <path id="Baseline-L" d="M18,546 l800,0" />
    </g>
    <g id="Symbols">
        <g id="Ultralight-S">
            <path d="M293.734,142.608 C292.633,143.608 290.931,143.526 289.931,142.426 L267.692,117.963 L267.692,132.538 L275.769,132.538 C277.256,132.538 278.462,133.744 278.462,135.231 C278.462,136.718 277.256,137.923 275.769,137.923 L254.231,137.923 C252.744,137.923 251.538,136.718 251.538,135.231 C251.538,133.744 252.744,132.538 254.231,132.538 L262.308,132.538 L262.308,112.04 L243.462,91.309 L243.462,97.538 C243.462,99.025 242.256,100.231 240.769,100.231 C239.282,100.231 238.077,99.025 238.077,97.538 L238.077,86.769 C238.077,86.385 238.16,86.005 238.319,85.655 L236.085,83.195 C235.425,82.485 235.197,81.476 235.489,80.551 C235.78,79.627 236.546,78.931 237.494,78.729 C238.442,78.526 239.426,78.849 240.069,79.574 L293.915,138.805 C294.915,139.905 294.834,141.608 293.734,142.608 Z M257.525,89.462 L262.308,89.462 L262.308,94.991 C262.308,96.478 263.513,97.683 265,97.683 C266.487,97.683 267.692,96.478 267.692,94.991 L267.692,89.462 L286.538,89.462 L286.538,97.538 C286.538,99.025 287.744,100.231 289.231,100.231 C290.718,100.231 291.923,99.025 291.923,97.538 L291.923,86.769 C291.923,86.055 291.639,85.37 291.135,84.865 C290.63,84.361 289.945,84.077 289.231,84.077 L257.525,84.077 C256.039,84.077 254.833,85.282 254.833,86.769 C254.833,88.256 256.039,89.462 257.525,89.462 Z" />
        </g>
        <g id="Regular-S">
            <path d="M493.734,142.608 C492.633,143.608 490.931,143.526 489.931,142.426 L467.692,117.963 L467.692,132.538 L475.769,132.538 C477.256,132.538 478.462,133.744 478.462,135.231 C478.462,136.718 477.256,137.923 475.769,137.923 L454.231,137.923 C452.744,137.923 451.538,136.718 451.538,135.231 C451.538,133.744 452.744,132.538 454.231,132.538 L462.308,132.538 L462.308,112.04 L443.462,91.309 L443.462,97.538 C443.462,99.025 442.256,100.231 440.769,100.231 C439.282,100.231 438.077,99.025 438.077,97.538 L438.077,86.769 C438.077,86.385 438.16,86.005 438.319,85.655 L436.085,83.195 C435.425,82.485 435.197,81.476 435.489,80.551 C435.78,79.627 436.546,78.931 437.494,78.729 C438.442,78.526 439.426,78.849 440.069,79.574 L493.915,138.805 C494.915,139.905 494.834,141.608 493.734,142.608 Z M457.525,89.462 L462.308,89.462 L462.308,94.991 C462.308,96.478 463.513,97.683 465,97.683 C466.487,97.683 467.692,96.478 467.692,94.991 L467.692,89.462 L486.538,89.462 L486.538,97.538 C486.538,99.025 487.744,100.231 489.231,100.231 C490.718,100.231 491.923,99.025 491.923,97.538 L491.923,86.769 C491.923,86.055 491.639,85.37 491.135,84.865 C490.63,84.361 489.945,84.077 489.231,84.077 L457.525,84.077 C456.039,84.077 454.833,85.282 454.833,86.769 C454.833,88.256 456.039,89.462 457.525,89.462 Z" />
        </g>
        <g id="Black-S">
            <path d="M693.734,142.608 C692.633,143.608 690.931,143.526 689.931,142.426 L667.692,117.963 L667.692,132.538 L675.769,132.538 C677.256,132.538 678.462,133.744 678.462,135.231 C678.462,136.718 677.256,137.923 675.769,137.923 L654.231,137.923 C652.744,137.923 651.538,136.718 651.538,135.231 C651.538,133.744 652.744,132.538 654.231,132.538 L662.308,132.538 L662.308,112.04 L643.462,91.309 L643.462,97.538 C643.462,99.025 642.256,100.231 640.769,100.231 C639.282,100.231 638.077,99.025 638.077,97.538 L638.077,86.769 C638.077,86.385 638.16,86.005 638.319,85.655 L636.085,83.195 C635.425,82.485 635.197,81.476 635.489,80.551 C635.78,79.627 636.546,78.931 637.494,78.729 C638.442,78.526 639.426,78.849 640.069,79.574 L693.915,138.805 C694.915,139.905 694.834,141.608 693.734,142.608 Z M657.526,89.462 L662.308,89.462 L662.308,94.991 C662.308,96.478 663.513,97.683 665,97.683 C666.487,97.683 667.692,96.478 667.692,94.991 L667.692,89.462 L686.538,89.462 L686.538,97.538 C686.538,99.025 687.744,100.231 689.231,100.231 C690.718,100.231 691.923,99.025 691.923,97.538 L691.923,86.769 C691.923,86.055 691.639,85.37 691.135,84.865 C690.63,84.361 689.945,84.077 689.231,84.077 L657.526,84.077 C656.039,84.077 654.833,85.282 654.833,86.769 C654.833,88.256 656.039,89.462 657.526,89.462 Z" />
        </g>
    </g>
</svg>