<?xml version="1.0" encoding="UTF-8"?>
<svg height="600" width="800" xmlns="http://www.w3.org/2000/svg" xmlns:xlink="http://www.w3.org/1999/xlink">
    <g id="Notes" font-family="'LucidaGrande', 'Lucida Grande', sans-serif" font-size="13">
        <rect fill="white" height="600.0" width="800.0" x="0.0" y="0.0" />
        <g font-size="13">
            <text x="18.0" y="176.0">Small</text>
            <text x="18.0" y="376.0">Medium</text>
            <text x="18.0" y="576.0">Large</text>
        </g>
        <g font-size="9">
            <text x="250.0" y="30.0">Ultralight</text>
            <text x="450.0" y="30.0">Regular</text>
            <text x="650.0" y="30.0">Black</text>
            <text id="template-version" fill="#505050" text-anchor="end" x="785.0" y="575.0">Template v.3.0</text>
            <a href="https://github.com/swhitty/SwiftDraw">
                <text fill="#505050" text-anchor="end" x="785.0" y="590.0">https://github.com/swhitty/SwiftDraw</text>
            </a>
        </g>
    </g>
    <g id="Guides" stroke="rgb(39, 170, 225)" stroke-width="0.5">
        <path id="Capline-S" d="M18,76 l800,0" />
        <path id="H-reference" d="M85,145.755 L87.685,145.755 L113.369,79.287 L114.052,79.287 L114.052,76 L112.148,76 L85,145.755 Z M95.693,121.536 L130.996,121.536 L130.263,119.313 L96.474,119.313 L95.693,121.536 Z M139.15,145.755 L141.787,145.755 L114.638,76 L113.466,76 L113.466,79.287 L139.15,145.755 Z" stroke="none" />
        <path id="Baseline-S" d="M18,146 l800,0" />
        <path id="left-margin-Ultralight-S" d="M220,56 l0,110" />
        <path id="right-margin-Ultralight-S" d="M310,56 l0,110" />
        <path id="left-margin-Regular-S" d="M420,56 l0,110" />
        <path id="right-margin-Regular-S" d="M510,56 l0,110" />
        <path id="left-margin-Black-S" d="M620,56 l0,110" />
        <path id="right-margin-Black-S" d="M710,56 l0,110" />
        <path id="Capline-M" d="M18,276 l800,0" />
        <path id="Baseline-M" d="M18,346 l800,0" />
        <path id="Capline-L" d="M18,476 l800,0" />
        <path id="Baseline-L" d="M18,546 l800,0" />
    </g>
    <g id="Symbols">
        <g id="Ultralight-S">
            <path d="M289.231,78.692 L277.028,78.692 C273.968,75.267 269.593,73.308 265,73.308 C260.407,73.308 256.032,75.267 252.972,78.692 L240.769,78.692 C239.341,78.692 237.972,79.26 236.962,80.269 C235.952,81.279 235.385,82.649 235.385,84.077 L235.385,140.615 C235.385,142.043 235.952,143.413 236.962,144.423 C237.972,145.433 239.341,146 240.769,146 L289.231,146 C290.659,146 292.028,145.433 293.038,144.423 C294.048,143.413 294.615,142.043 294.615,140.615 L294.615,84.077 C294.615,82.649 294.048,81.279 293.038,80.269 C292.028,79.26 290.659,78.692 289.231,78.692 Z M265,78.692 C267.856,78.692 270.595,79.827 272.615,81.847 C274.635,83.866 275.769,86.605 275.769,89.462 L254.231,89.462 C254.231,86.605 255.365,83.866 257.385,81.847 C259.405,79.827 262.144,78.692 265,78.692 Z M289.231,140.615 L240.769,140.615 L240.769,84.077 L249.772,84.077 C249.159,85.806 248.846,87.627 248.846,89.462 L248.846,92.154 C248.846,92.868 249.13,93.553 249.635,94.058 C250.14,94.562 250.824,94.846 251.538,94.846 L278.462,94.846 C279.176,94.846 279.86,94.562 280.365,94.058 C280.87,93.553 281.154,92.868 281.154,92.154 L281.154,89.462 C281.154,87.628 280.841,85.807 280.229,84.077 L289.231,84.077 Z" />
        </g>
        <g id="Regular-S">
            <path d="M489.231,78.692 L477.028,78.692 C473.968,75.267 469.593,73.308 465,73.308 C460.407,73.308 456.032,75.267 452.972,78.692 L440.769,78.692 C439.341,78.692 437.972,79.26 436.962,80.269 C435.952,81.279 435.385,82.649 435.385,84.077 L435.385,140.615 C435.385,142.043 435.952,143.413 436.962,144.423 C437.972,145.433 439.341,146 440.769,146 L489.231,146 C490.659,146 492.028,145.433 493.038,144.423 C494.048,143.413 494.615,142.043 494.615,140.615 L494.615,84.077 C494.615,82.649 494.048,81.279 493.038,80.269 C492.028,79.26 490.659,78.692 489.231,78.692 Z M465,78.692 C467.856,78.692 470.595,79.827 472.615,81.847 C474.635,83.866 475.769,86.605 475.769,89.462 L454.231,89.462 C454.231,86.605 455.365,83.866 457.385,81.847 C459.405,79.827 462.144,78.692 465,78.692 Z M489.231,140.615 L440.769,140.615 L440.769,84.077 L449.772,84.077 C449.159,85.806 448.846,87.627 448.846,89.462 L448.846,92.154 C448.846,92.868 449.13,93.553 449.635,94.058 C450.14,94.562 450.824,94.846 451.538,94.846 L478.462,94.846 C479.176,94.846 479.86,94.562 480.365,94.058 C480.87,93.553 481.154,92.868 481.154,92.154 L481.154,89.462 C481.154,87.628 480.841,85.807 480.229,84.077 L489.231,84.077 Z" />
        </g>
        <g id="Black-S">
            <path d="M689.231,78.692 L677.028,78.692 C673.968,75.267 669.593,73.308 665,73.308 C660.407,73.308 656.032,75.267 652.972,78.692 L640.769,78.692 C639.341,78.692 637.972,79.26 636.962,80.269 C635.952,81.279 635.385,82.649 635.385,84.077 L635.385,140.615 C635.385,142.043 635.952,143.413 636.962,144.423 C637.972,145.433 639.341,146 640.769,146 L689.231,146 C690.659,146 692.028,145.433 693.038,144.423 C694.048,143.413 694.615,142.043 694.615,140.615 L694.615,84.077 C694.615,82.649 694.048,81.279 693.038,80.269 C692.028,79.26 690.659,78.692 689.231,78.692 Z M665,78.692 C667.856,78.692 670.595,79.827 672.615,81.847 C674.635,83.866 675.769,86.605 675.769,89.462 L654.231,89.462 C654.231,86.605 655.365,83.866 657.385,81.847 C659.405,79.827 662.144,78.692 665,78.692 Z M689.231,140.615 L640.769,140.615 L640.769,84.077 L649.772,84.077 C649.159,85.806 648.846,87.627 648.846,89.462 L648.846,92.154 C648.846,92.868 649.13,93.553 649.635,94.058 C650.14,94.562 650.824,94.846 651.538,94.846 L678.462,94.846 C679.176,94.846 679.86,94.562 680.365,94.058 C680.87,93.553 681.154,92.868 681.154,92.154 L681.154,89.462 C681.154,87.628 680.841,85.807 680.229,84.077 L689.231,84.077 Z" />
        </g>
    </g>
</svg>