<?xml version="1.0" encoding="UTF-8"?>
<svg height="600" width="800" xmlns="http://www.w3.org/2000/svg" xmlns:xlink="http://www.w3.org/1999/xlink">
    <g id="Notes" font-family="'LucidaGrande', 'Lucida Grande', sans-serif" font-size="13">
        <rect fill="white" height="600.0" width="800.0" x="0.0" y="0.0" />
        <g font-size="13">
            <text x="18.0" y="176.0">Small</text>
            <text x="18.0" y="376.0">Medium</text>
            <text x="18.0" y="576.0">Large</text>
        </g>
        <g font-size="9">
            <text x="250.0" y="30.0">Ultralight</text>
            <text x="450.0" y="30.0">Regular</text>
            <text x="650.0" y="30.0">Black</text>
            <text id="template-version" fill="#505050" text-anchor="end" x="785.0" y="575.0">Template v.3.0</text>
            <a href="https://github.com/swhitty/SwiftDraw">
                <text fill="#505050" text-anchor="end" x="785.0" y="590.0">https://github.com/swhitty/SwiftDraw</text>
            </a>
        </g>
    </g>
    <g id="Guides" stroke="rgb(39, 170, 225)" stroke-width="0.5">
        <path id="Capline-S" d="M18,76 l800,0" />
        <path id="H-reference" d="M85,145.755 L87.685,145.755 L113.369,79.287 L114.052,79.287 L114.052,76 L112.148,76 L85,145.755 Z M95.693,121.536 L130.996,121.536 L130.263,119.313 L96.474,119.313 L95.693,121.536 Z M139.15,145.755 L141.787,145.755 L114.638,76 L113.466,76 L113.466,79.287 L139.15,145.755 Z" stroke="none" />
        <path id="Baseline-S" d="M18,146 l800,0" />
        <path id="left-margin-Ultralight-S" d="M220,56 l0,110" />
        <path id="right-margin-Ultralight-S" d="M310,56 l0,110" />
        <path id="left-margin-Regular-S" d="M420,56 l0,110" />
        <path id="right-margin-Regular-S" d="M510,56 l0,110" />
        <path id="left-margin-Black-S" d="M620,56 l0,110" />
        <path id="right-margin-Black-S" d="M710,56 l0,110" />
        <path id="Capline-M" d="M18,276 l800,0" />
        <path id="Baseline-M" d="M18,346 l800,0" />
        <path id="Capline-L" d="M18,476 l800,0" />
        <path id="Baseline-L" d="M18,546 l800,0" />
    </g>
    <g id="Symbols">
        <g id="Ultralight-S">
            <path d="M291.923,86.769 C288.256,86.769 284.62,87.454 281.204,88.788 C276.385,78.793 266.649,73.826 266.205,73.604 C265.446,73.224 264.554,73.224 263.795,73.604 C263.348,73.826 253.615,78.793 248.796,88.788 C245.38,87.454 241.744,86.769 238.077,86.769 C237.363,86.769 236.678,87.053 236.173,87.558 C235.668,88.063 235.385,88.747 235.385,89.462 L235.385,116.385 C235.385,132.741 248.644,146 265,146 C281.356,146 294.615,132.741 294.615,116.385 L294.615,89.462 C294.615,88.747 294.332,88.063 293.827,87.558 C293.322,87.053 292.637,86.769 291.923,86.769 Z M262.308,140.467 C250.05,139.082 240.784,128.72 240.769,116.385 L240.769,111.148 C253.026,112.534 262.293,122.895 262.308,135.231 Z M262.308,118.222 C257.31,111.099 249.434,106.535 240.769,105.74 L240.769,92.302 C253.027,93.688 262.293,104.049 262.308,116.385 Z M253.608,91.181 C256.711,84.716 262.496,80.638 265,79.1 C267.504,80.641 273.289,84.72 276.388,91.181 C271.411,94.261 267.451,98.738 265,104.054 C262.549,98.737 258.587,94.26 253.608,91.181 Z M289.231,116.385 C289.216,128.721 279.949,139.082 267.691,140.467 L267.691,135.231 C267.706,122.895 276.973,112.533 289.231,111.148 Z M289.231,105.74 C280.566,106.535 272.69,111.099 267.692,118.222 L267.692,116.385 C267.707,104.048 276.974,93.687 289.232,92.302 Z" />
        </g>
        <g id="Regular-S">
            <path d="M491.923,86.769 C488.256,86.769 484.62,87.454 481.204,88.788 C476.385,78.793 466.649,73.826 466.205,73.604 C465.446,73.224 464.554,73.224 463.795,73.604 C463.348,73.826 453.615,78.793 448.796,88.788 C445.38,87.454 441.744,86.769 438.077,86.769 C437.363,86.769 436.678,87.053 436.173,87.558 C435.668,88.063 435.385,88.747 435.385,89.462 L435.385,116.385 C435.385,132.741 448.644,146 465,146 C481.356,146 494.615,132.741 494.615,116.385 L494.615,89.462 C494.615,88.747 494.332,88.063 493.827,87.558 C493.322,87.053 492.637,86.769 491.923,86.769 Z M462.308,140.467 C450.05,139.082 440.784,128.72 440.769,116.385 L440.769,111.148 C453.026,112.534 462.293,122.895 462.308,135.231 Z M462.308,118.222 C457.31,111.099 449.434,106.535 440.769,105.74 L440.769,92.302 C453.026,93.688 462.293,104.049 462.308,116.385 Z M453.608,91.181 C456.711,84.716 462.496,80.638 465,79.1 C467.504,80.641 473.289,84.72 476.388,91.181 C471.411,94.261 467.451,98.738 465,104.054 C462.549,98.737 458.587,94.26 453.608,91.181 Z M489.231,116.385 C489.216,128.721 479.949,139.082 467.691,140.467 L467.691,135.231 C467.706,122.895 476.973,112.533 489.231,111.148 Z M489.231,105.74 C480.566,106.535 472.69,111.099 467.692,118.222 L467.692,116.385 C467.707,104.048 476.974,93.687 489.232,92.302 Z" />
        </g>
        <g id="Black-S">
            <path d="M691.923,86.769 C688.256,86.769 684.62,87.454 681.204,88.788 C676.385,78.793 666.649,73.826 666.205,73.604 C665.446,73.224 664.554,73.224 663.795,73.604 C663.348,73.826 653.615,78.793 648.796,88.788 C645.38,87.454 641.744,86.769 638.077,86.769 C637.363,86.769 636.678,87.053 636.173,87.558 C635.668,88.063 635.385,88.747 635.385,89.462 L635.385,116.385 C635.385,132.741 648.644,146 665,146 C681.356,146 694.615,132.741 694.615,116.385 L694.615,89.462 C694.615,88.747 694.332,88.063 693.827,87.558 C693.322,87.053 692.637,86.769 691.923,86.769 Z M662.308,140.467 C650.05,139.082 640.784,128.72 640.769,116.385 L640.769,111.148 C653.026,112.534 662.293,122.895 662.308,135.231 Z M662.308,118.222 C657.31,111.099 649.434,106.535 640.769,105.74 L640.769,92.302 C653.026,93.688 662.293,104.049 662.308,116.385 Z M653.608,91.181 C656.711,84.716 662.496,80.638 665,79.1 C667.504,80.641 673.289,84.72 676.388,91.181 C671.411,94.261 667.451,98.738 665,104.054 C662.549,98.737 658.587,94.26 653.608,91.181 Z M689.231,116.385 C689.216,128.721 679.949,139.082 667.691,140.467 L667.691,135.231 C667.706,122.895 676.973,112.533 689.231,111.148 Z M689.231,105.74 C680.566,106.535 672.69,111.099 667.692,118.222 L667.692,116.385 C667.707,104.048 676.974,93.687 689.232,92.302 Z" />
        </g>
    </g>
</svg>