<?xml version="1.0" encoding="UTF-8"?>
<svg height="600" width="800" xmlns="http://www.w3.org/2000/svg" xmlns:xlink="http://www.w3.org/1999/xlink">
    <g id="Notes" font-family="'LucidaGrande', 'Lucida Grande', sans-serif" font-size="13">
        <rect fill="white" height="600.0" width="800.0" x="0.0" y="0.0" />
        <g font-size="13">
            <text x="18.0" y="176.0">Small</text>
            <text x="18.0" y="376.0">Medium</text>
            <text x="18.0" y="576.0">Large</text>
        </g>
        <g font-size="9">
            <text x="250.0" y="30.0">Ultralight</text>
            <text x="450.0" y="30.0">Regular</text>
            <text x="650.0" y="30.0">Black</text>
            <text id="template-version" fill="#505050" text-anchor="end" x="785.0" y="575.0">Template v.3.0</text>
            <a href="https://github.com/swhitty/SwiftDraw">
                <text fill="#505050" text-anchor="end" x="785.0" y="590.0">https://github.com/swhitty/SwiftDraw</text>
            </a>
        </g>
    </g>
    <g id="Guides" stroke="rgb(39, 170, 225)" stroke-width="0.5">
        <path id="Capline-S" d="M18,76 l800,0" />
        <path id="H-reference" d="M85,145.755 L87.685,145.755 L113.369,79.287 L114.052,79.287 L114.052,76 L112.148,76 L85,145.755 Z M95.693,121.536 L130.996,121.536 L130.263,119.313 L96.474,119.313 L95.693,121.536 Z M139.15,145.755 L141.787,145.755 L114.638,76 L113.466,76 L113.466,79.287 L139.15,145.755 Z" stroke="none" />
        <path id="Baseline-S" d="M18,146 l800,0" />
        <path id="left-margin-Ultralight-S" d="M220,56 l0,110" />
        <path id="right-margin-Ultralight-S" d="M310,56 l0,110" />
        <path id="left-margin-Regular-S" d="M420,56 l0,110" />
        <path id="right-margin-Regular-S" d="M510,56 l0,110" />
        <path id="left-margin-Black-S" d="M620,56 l0,110" />
        <path id="right-margin-Black-S" d="M710,56 l0,110" />
        <path id="Capline-M" d="M18,276 l800,0" />
        <path id="Baseline-M" d="M18,346 l800,0" />
        <path id="Capline-L" d="M18,476 l800,0" />
        <path id="Baseline-L" d="M18,546 l800,0" />
    </g>
    <g id="Symbols">
        <g id="Ultralight-S">
            <path d="M262.308,140.615 C262.308,141.329 262.024,142.014 261.519,142.519 C261.014,143.024 260.329,143.308 259.615,143.308 L238.077,143.308 C237.363,143.308 236.678,143.024 236.173,142.519 C235.668,142.014 235.385,141.329 235.385,140.615 L235.385,81.385 C235.385,80.671 235.668,79.986 236.173,79.481 C236.678,78.976 237.363,78.692 238.077,78.692 L259.615,78.692 C261.102,78.692 262.308,79.898 262.308,81.385 C262.308,82.872 261.102,84.077 259.615,84.077 L240.769,84.077 L240.769,137.923 L259.615,137.923 C260.329,137.923 261.014,138.207 261.519,138.712 C262.024,139.217 262.308,139.901 262.308,140.615 Z M299.212,109.095 L285.751,95.634 C284.701,94.582 282.995,94.581 281.942,95.633 C280.89,96.684 280.889,98.39 281.94,99.442 L290.809,108.308 L259.615,108.308 C258.128,108.308 256.923,109.513 256.923,111 C256.923,112.487 258.128,113.692 259.615,113.692 L290.809,113.692 L281.941,122.557 C280.889,123.61 280.89,125.316 281.942,126.367 C282.995,127.419 284.701,127.418 285.752,126.365 L299.214,112.904 C299.719,112.399 300.002,111.714 300.002,110.999 C300.002,110.285 299.718,109.6 299.212,109.095 Z" />
        </g>
        <g id="Regular-S">
            <path d="M462.308,140.615 C462.308,141.329 462.024,142.014 461.519,142.519 C461.014,143.024 460.329,143.308 459.615,143.308 L438.077,143.308 C437.363,143.308 436.678,143.024 436.173,142.519 C435.668,142.014 435.385,141.329 435.385,140.615 L435.385,81.385 C435.385,80.671 435.668,79.986 436.173,79.481 C436.678,78.976 437.363,78.692 438.077,78.692 L459.615,78.692 C461.102,78.692 462.308,79.898 462.308,81.385 C462.308,82.872 461.102,84.077 459.615,84.077 L440.769,84.077 L440.769,137.923 L459.615,137.923 C460.329,137.923 461.014,138.207 461.519,138.712 C462.024,139.217 462.308,139.901 462.308,140.615 Z M499.212,109.095 L485.751,95.634 C484.701,94.582 482.995,94.581 481.942,95.633 C480.89,96.684 480.889,98.39 481.94,99.442 L490.809,108.308 L459.615,108.308 C458.128,108.308 456.923,109.513 456.923,111 C456.923,112.487 458.128,113.692 459.615,113.692 L490.809,113.692 L481.941,122.557 C480.889,123.61 480.89,125.316 481.942,126.367 C482.995,127.419 484.701,127.418 485.752,126.365 L499.214,112.904 C499.719,112.399 500.002,111.714 500.002,110.999 C500.002,110.285 499.718,109.6 499.212,109.095 Z" />
        </g>
        <g id="Black-S">
            <path d="M662.308,140.615 C662.308,141.329 662.024,142.014 661.519,142.519 C661.014,143.024 660.329,143.308 659.615,143.308 L638.077,143.308 C637.363,143.308 636.678,143.024 636.173,142.519 C635.668,142.014 635.385,141.329 635.385,140.615 L635.385,81.385 C635.385,80.671 635.668,79.986 636.173,79.481 C636.678,78.976 637.363,78.692 638.077,78.692 L659.615,78.692 C661.102,78.692 662.308,79.898 662.308,81.385 C662.308,82.872 661.102,84.077 659.615,84.077 L640.769,84.077 L640.769,137.923 L659.615,137.923 C660.329,137.923 661.014,138.207 661.519,138.712 C662.024,139.217 662.308,139.901 662.308,140.615 Z M699.213,109.095 L685.751,95.634 C684.701,94.582 682.995,94.581 681.942,95.633 C680.89,96.684 680.889,98.39 681.94,99.442 L690.809,108.308 L659.615,108.308 C658.128,108.308 656.923,109.513 656.923,111 C656.923,112.487 658.128,113.692 659.615,113.692 L690.809,113.692 L681.941,122.557 C680.889,123.61 680.89,125.316 681.942,126.367 C682.995,127.419 684.701,127.418 685.752,126.365 L699.214,112.904 C699.719,112.399 700.002,111.714 700.002,110.999 C700.002,110.285 699.718,109.6 699.213,109.095 Z" />
        </g>
    </g>
</svg>