<?xml version="1.0" encoding="UTF-8"?>
<svg height="600" width="800" xmlns="http://www.w3.org/2000/svg" xmlns:xlink="http://www.w3.org/1999/xlink">
    <g id="Notes" font-family="'LucidaGrande', 'Lucida Grande', sans-serif" font-size="13">
        <rect fill="white" height="600.0" width="800.0" x="0.0" y="0.0" />
        <g font-size="13">
            <text x="18.0" y="176.0">Small</text>
            <text x="18.0" y="376.0">Medium</text>
            <text x="18.0" y="576.0">Large</text>
        </g>
        <g font-size="9">
            <text x="250.0" y="30.0">Ultralight</text>
            <text x="450.0" y="30.0">Regular</text>
            <text x="650.0" y="30.0">Black</text>
            <text id="template-version" fill="#505050" text-anchor="end" x="785.0" y="575.0">Template v.3.0</text>
            <a href="https://github.com/swhitty/SwiftDraw">
                <text fill="#505050" text-anchor="end" x="785.0" y="590.0">https://github.com/swhitty/SwiftDraw</text>
            </a>
        </g>
    </g>
    <g id="Guides" stroke="rgb(39, 170, 225)" stroke-width="0.5">
        <path id="Capline-S" d="M18,76 l800,0" />
        <path id="H-reference" d="M85,145.755 L87.685,145.755 L113.369,79.287 L114.052,79.287 L114.052,76 L112.148,76 L85,145.755 Z M95.693,121.536 L130.996,121.536 L130.263,119.313 L96.474,119.313 L95.693,121.536 Z M139.15,145.755 L141.787,145.755 L114.638,76 L113.466,76 L113.466,79.287 L139.15,145.755 Z" stroke="none" />
        <path id="Baseline-S" d="M18,146 l800,0" />
        <path id="left-margin-Ultralight-S" d="M220,56 l0,110" />
        <path id="right-margin-Ultralight-S" d="M310,56 l0,110" />
        <path id="left-margin-Regular-S" d="M420,56 l0,110" />
        <path id="right-margin-Regular-S" d="M510,56 l0,110" />
        <path id="left-margin-Black-S" d="M620,56 l0,110" />
        <path id="right-margin-Black-S" d="M710,56 l0,110" />
        <path id="Capline-M" d="M18,276 l800,0" />
        <path id="Baseline-M" d="M18,346 l800,0" />
        <path id="Capline-L" d="M18,476 l800,0" />
        <path id="Baseline-L" d="M18,546 l800,0" />
    </g>
    <g id="Symbols">
        <g id="Ultralight-S">
            <path d="M297.2,90.185 L267.585,73.981 L267.585,73.981 C265.976,73.092 264.024,73.092 262.415,73.981 L232.8,90.192 C231.077,91.134 230.004,92.94 230,94.903 L230,127.09 C230.005,129.054 231.077,130.859 232.8,131.801 L262.415,148.013 C264.024,148.901 265.976,148.901 267.585,148.013 L297.2,131.801 C298.923,130.859 299.996,129.054 300,127.09 L300,94.907 C299.999,92.94 298.926,91.13 297.2,90.185 Z M265,78.692 L265,78.692 L292.038,93.5 L265,108.308 L237.963,93.5 Z M235.385,98.212 L262.308,112.945 L262.308,141.817 L235.385,127.093 Z M267.692,141.817 L267.692,112.959 L294.615,98.212 L294.615,127.08 Z" />
        </g>
        <g id="Regular-S">
            <path d="M497.2,90.185 L467.585,73.981 L467.585,73.981 C465.976,73.092 464.024,73.092 462.415,73.981 L432.8,90.192 C431.077,91.134 430.004,92.94 430,94.903 L430,127.09 C430.004,129.054 431.077,130.859 432.8,131.801 L462.415,148.013 C464.024,148.901 465.976,148.901 467.585,148.013 L497.2,131.801 C498.923,130.859 499.996,129.054 500,127.09 L500,94.907 C499.999,92.94 498.926,91.13 497.2,90.185 Z M465,78.692 L465,78.692 L492.037,93.5 L465,108.308 L437.962,93.5 Z M435.385,98.212 L462.308,112.945 L462.308,141.817 L435.385,127.093 Z M467.692,141.817 L467.692,112.959 L494.615,98.212 L494.615,127.08 Z" />
        </g>
        <g id="Black-S">
            <path d="M697.2,90.185 L667.585,73.981 L667.585,73.981 C665.976,73.092 664.024,73.092 662.415,73.981 L632.8,90.192 C631.077,91.134 630.004,92.94 630,94.903 L630,127.09 C630.005,129.054 631.078,130.859 632.8,131.801 L662.416,148.013 C664.024,148.901 665.976,148.901 667.585,148.013 L697.2,131.801 C698.923,130.859 699.996,129.054 700,127.09 L700,94.907 C699.999,92.94 698.926,91.13 697.2,90.185 Z M665,78.692 L665,78.692 L692.038,93.5 L665,108.308 L637.963,93.5 Z M635.385,98.212 L662.308,112.945 L662.308,141.817 L635.385,127.093 Z M667.692,141.817 L667.692,112.959 L694.615,98.212 L694.615,127.08 Z" />
        </g>
    </g>
</svg>