<?xml version="1.0" encoding="UTF-8"?>
<svg height="600" width="800" xmlns="http://www.w3.org/2000/svg" xmlns:xlink="http://www.w3.org/1999/xlink">
    <g id="Notes" font-family="'LucidaGrande', 'Lucida Grande', sans-serif" font-size="13">
        <rect fill="white" height="600.0" width="800.0" x="0.0" y="0.0" />
        <g font-size="13">
            <text x="18.0" y="176.0">Small</text>
            <text x="18.0" y="376.0">Medium</text>
            <text x="18.0" y="576.0">Large</text>
        </g>
        <g font-size="9">
            <text x="250.0" y="30.0">Ultralight</text>
            <text x="450.0" y="30.0">Regular</text>
            <text x="650.0" y="30.0">Black</text>
            <text id="template-version" fill="#505050" text-anchor="end" x="785.0" y="575.0">Template v.3.0</text>
            <a href="https://github.com/swhitty/SwiftDraw">
                <text fill="#505050" text-anchor="end" x="785.0" y="590.0">https://github.com/swhitty/SwiftDraw</text>
            </a>
        </g>
    </g>
    <g id="Guides" stroke="rgb(39, 170, 225)" stroke-width="0.5">
        <path id="Capline-S" d="M18,76 l800,0" />
        <path id="H-reference" d="M85,145.755 L87.685,145.755 L113.369,79.287 L114.052,79.287 L114.052,76 L112.148,76 L85,145.755 Z M95.693,121.536 L130.996,121.536 L130.263,119.313 L96.474,119.313 L95.693,121.536 Z M139.15,145.755 L141.787,145.755 L114.638,76 L113.466,76 L113.466,79.287 L139.15,145.755 Z" stroke="none" />
        <path id="Baseline-S" d="M18,146 l800,0" />
        <path id="left-margin-Ultralight-S" d="M220,56 l0,110" />
        <path id="right-margin-Ultralight-S" d="M310,56 l0,110" />
        <path id="left-margin-Regular-S" d="M420,56 l0,110" />
        <path id="right-margin-Regular-S" d="M510,56 l0,110" />
        <path id="left-margin-Black-S" d="M620,56 l0,110" />
        <path id="right-margin-Black-S" d="M710,56 l0,110" />
        <path id="Capline-M" d="M18,276 l800,0" />
        <path id="Baseline-M" d="M18,346 l800,0" />
        <path id="Capline-L" d="M18,476 l800,0" />
        <path id="Baseline-L" d="M18,546 l800,0" />
    </g>
    <g id="Symbols">
        <g id="Ultralight-S">
            <path d="M299.027,91.757 C298.019,90.318 296.372,89.461 294.615,89.462 L267.692,89.462 L267.692,78.692 L273.077,78.692 C274.564,78.692 275.769,77.487 275.769,76 C275.769,74.513 274.564,73.308 273.077,73.308 L256.923,73.308 C255.436,73.308 254.231,74.513 254.231,76 C254.231,77.487 255.436,78.692 256.923,78.692 L262.308,78.692 L262.308,89.462 L235.385,89.462 C233.63,89.465 231.988,90.324 230.983,91.762 C229.978,93.201 229.737,95.038 230.337,96.687 L239.15,120.918 C239.923,123.041 241.939,124.456 244.199,124.462 L254.231,124.462 L254.231,146 C254.231,147.487 255.436,148.692 256.923,148.692 C258.41,148.692 259.615,147.487 259.615,146 L259.615,124.462 L270.385,124.462 L270.385,146 C270.385,147.487 271.59,148.692 273.077,148.692 C274.564,148.692 275.769,147.487 275.769,146 L275.769,124.462 L285.805,124.462 C288.064,124.456 290.08,123.041 290.853,120.918 L299.667,96.687 C300.271,95.038 300.032,93.198 299.027,91.757 Z M259.171,119.077 L254.763,94.846 L275.237,94.846 L270.829,119.077 Z M235.385,94.846 L249.29,94.846 L253.696,119.077 L244.195,119.077 Z M285.805,119.077 L276.304,119.077 L280.71,94.846 L294.615,94.846 Z" />
        </g>
        <g id="Regular-S">
            <path d="M499.027,91.757 C498.019,90.318 496.372,89.461 494.615,89.462 L467.692,89.462 L467.692,78.692 L473.077,78.692 C474.564,78.692 475.769,77.487 475.769,76 C475.769,74.513 474.564,73.308 473.077,73.308 L456.923,73.308 C455.436,73.308 454.231,74.513 454.231,76 C454.231,77.487 455.436,78.692 456.923,78.692 L462.308,78.692 L462.308,89.462 L435.385,89.462 C433.63,89.465 431.987,90.324 430.983,91.762 C429.978,93.201 429.737,95.038 430.337,96.687 L439.15,120.918 C439.923,123.041 441.939,124.456 444.199,124.462 L454.231,124.462 L454.231,146 C454.231,147.487 455.436,148.692 456.923,148.692 C458.41,148.692 459.615,147.487 459.615,146 L459.615,124.462 L470.385,124.462 L470.385,146 C470.385,147.487 471.59,148.692 473.077,148.692 C474.564,148.692 475.769,147.487 475.769,146 L475.769,124.462 L485.805,124.462 C488.064,124.456 490.08,123.041 490.853,120.918 L499.667,96.687 C500.271,95.038 500.032,93.198 499.027,91.757 Z M459.171,119.077 L454.762,94.846 L475.237,94.846 L470.829,119.077 Z M435.385,94.846 L449.29,94.846 L453.696,119.077 L444.195,119.077 Z M485.805,119.077 L476.304,119.077 L480.71,94.846 L494.615,94.846 Z" />
        </g>
        <g id="Black-S">
            <path d="M699.027,91.757 C698.019,90.318 696.372,89.461 694.615,89.462 L667.692,89.462 L667.692,78.692 L673.077,78.692 C674.564,78.692 675.769,77.487 675.769,76 C675.769,74.513 674.564,73.308 673.077,73.308 L656.923,73.308 C655.436,73.308 654.231,74.513 654.231,76 C654.231,77.487 655.436,78.692 656.923,78.692 L662.308,78.692 L662.308,89.462 L635.385,89.462 C633.63,89.465 631.988,90.324 630.983,91.762 C629.978,93.201 629.737,95.038 630.337,96.687 L639.151,120.918 C639.923,123.041 641.939,124.456 644.199,124.462 L654.231,124.462 L654.231,146 C654.231,147.487 655.436,148.692 656.923,148.692 C658.41,148.692 659.615,147.487 659.615,146 L659.615,124.462 L670.385,124.462 L670.385,146 C670.385,147.487 671.59,148.692 673.077,148.692 C674.564,148.692 675.769,147.487 675.769,146 L675.769,124.462 L685.805,124.462 C688.064,124.456 690.08,123.041 690.853,120.918 L699.667,96.687 C700.271,95.038 700.032,93.198 699.027,91.757 Z M659.171,119.077 L654.763,94.846 L675.238,94.846 L670.829,119.077 Z M635.385,94.846 L649.29,94.846 L653.696,119.077 L644.195,119.077 Z M685.805,119.077 L676.304,119.077 L680.71,94.846 L694.615,94.846 Z" />
        </g>
    </g>
</svg>