<?xml version="1.0" encoding="UTF-8"?>
<svg height="600" width="800" xmlns="http://www.w3.org/2000/svg" xmlns:xlink="http://www.w3.org/1999/xlink">
    <g id="Notes" font-family="'LucidaGrande', 'Lucida Grande', sans-serif" font-size="13">
        <rect fill="white" height="600.0" width="800.0" x="0.0" y="0.0" />
        <g font-size="13">
            <text x="18.0" y="176.0">Small</text>
            <text x="18.0" y="376.0">Medium</text>
            <text x="18.0" y="576.0">Large</text>
        </g>
        <g font-size="9">
            <text x="250.0" y="30.0">Ultralight</text>
            <text x="450.0" y="30.0">Regular</text>
            <text x="650.0" y="30.0">Black</text>
            <text id="template-version" fill="#505050" text-anchor="end" x="785.0" y="575.0">Template v.3.0</text>
            <a href="https://github.com/swhitty/SwiftDraw">
                <text fill="#505050" text-anchor="end" x="785.0" y="590.0">https://github.com/swhitty/SwiftDraw</text>
            </a>
        </g>
    </g>
    <g id="Guides" stroke="rgb(39, 170, 225)" stroke-width="0.5">
        <path id="Capline-S" d="M18,76 l800,0" />
        <path id="H-reference" d="M85,145.755 L87.685,145.755 L113.369,79.287 L114.052,79.287 L114.052,76 L112.148,76 L85,145.755 Z M95.693,121.536 L130.996,121.536 L130.263,119.313 L96.474,119.313 L95.693,121.536 Z M139.15,145.755 L141.787,145.755 L114.638,76 L113.466,76 L113.466,79.287 L139.15,145.755 Z" stroke="none" />
        <path id="Baseline-S" d="M18,146 l800,0" />
        <path id="left-margin-Ultralight-S" d="M220,56 l0,110" />
        <path id="right-margin-Ultralight-S" d="M310,56 l0,110" />
        <path id="left-margin-Regular-S" d="M420,56 l0,110" />
        <path id="right-margin-Regular-S" d="M510,56 l0,110" />
        <path id="left-margin-Black-S" d="M620,56 l0,110" />
        <path id="right-margin-Black-S" d="M710,56 l0,110" />
        <path id="Capline-M" d="M18,276 l800,0" />
        <path id="Baseline-M" d="M18,346 l800,0" />
        <path id="Capline-L" d="M18,476 l800,0" />
        <path id="Baseline-L" d="M18,546 l800,0" />
    </g>
    <g id="Symbols">
        <g id="Ultralight-S">
            <path d="M300,135.231 C300,135.945 299.716,136.63 299.211,137.135 C298.707,137.639 298.022,137.923 297.308,137.923 L232.692,137.923 C231.205,137.923 230,136.718 230,135.231 C230,133.744 231.205,132.538 232.692,132.538 L297.308,132.538 C298.022,132.538 298.707,132.822 299.211,133.327 C299.716,133.832 300,134.517 300,135.231 Z M230.535,118.687 C229.625,116.803 229.887,114.563 231.208,112.942 L258.693,79.009 C260.234,77.105 262.551,76 265,76 C267.449,76 269.766,77.105 271.307,79.009 L298.785,112.942 C300.098,114.563 300.363,116.795 299.466,118.679 C298.57,120.563 296.672,121.765 294.585,121.769 L235.415,121.769 C233.328,121.774 231.427,120.573 230.535,118.687 Z M235.385,116.354 C235.385,116.354 235.385,116.385 235.412,116.391 L294.585,116.391 C294.585,116.391 294.612,116.361 294.612,116.348 L267.12,82.394 C266.603,81.754 265.823,81.382 265,81.382 C264.177,81.382 263.397,81.754 262.88,82.394 L235.385,116.331 C235.384,116.339 235.384,116.347 235.385,116.354 Z" />
        </g>
        <g id="Regular-S">
            <path d="M500,135.231 C500,135.945 499.716,136.63 499.211,137.135 C498.707,137.639 498.022,137.923 497.308,137.923 L432.692,137.923 C431.205,137.923 430,136.718 430,135.231 C430,133.744 431.205,132.538 432.692,132.538 L497.308,132.538 C498.022,132.538 498.707,132.822 499.211,133.327 C499.716,133.832 500,134.517 500,135.231 Z M430.535,118.687 C429.625,116.803 429.887,114.563 431.208,112.942 L458.693,79.009 C460.234,77.105 462.551,76 465,76 C467.449,76 469.766,77.105 471.307,79.009 L498.785,112.942 C500.098,114.563 500.363,116.795 499.466,118.679 C498.57,120.563 496.672,121.765 494.585,121.769 L435.415,121.769 C433.328,121.774 431.427,120.573 430.535,118.687 Z M435.385,116.354 C435.385,116.354 435.385,116.385 435.412,116.391 L494.585,116.391 C494.585,116.391 494.612,116.361 494.612,116.348 L467.12,82.394 C466.603,81.754 465.823,81.382 465,81.382 C464.177,81.382 463.397,81.754 462.88,82.394 L435.385,116.331 C435.384,116.339 435.384,116.347 435.385,116.354 Z" />
        </g>
        <g id="Black-S">
            <path d="M700,135.231 C700,135.945 699.716,136.63 699.211,137.135 C698.707,137.639 698.022,137.923 697.308,137.923 L632.692,137.923 C631.205,137.923 630,136.718 630,135.231 C630,133.744 631.205,132.538 632.692,132.538 L697.308,132.538 C698.022,132.538 698.707,132.822 699.211,133.327 C699.716,133.832 700,134.517 700,135.231 Z M630.535,118.687 C629.625,116.803 629.887,114.563 631.208,112.942 L658.693,79.009 C660.234,77.105 662.551,76 665,76 C667.449,76 669.766,77.105 671.307,79.009 L698.785,112.942 C700.098,114.563 700.363,116.795 699.466,118.679 C698.57,120.563 696.672,121.765 694.585,121.769 L635.415,121.769 C633.328,121.774 631.427,120.573 630.535,118.687 Z M635.385,116.354 C635.385,116.354 635.385,116.385 635.412,116.391 L694.585,116.391 C694.585,116.391 694.612,116.361 694.612,116.348 L667.12,82.394 C666.603,81.754 665.823,81.382 665,81.382 C664.177,81.382 663.397,81.754 662.88,82.394 L635.385,116.331 C635.384,116.339 635.384,116.347 635.385,116.354 Z" />
        </g>
    </g>
</svg>