<?xml version="1.0" encoding="UTF-8"?>
<svg height="600" width="800" xmlns="http://www.w3.org/2000/svg" xmlns:xlink="http://www.w3.org/1999/xlink">
    <g id="Notes" font-family="'LucidaGrande', 'Lucida Grande', sans-serif" font-size="13">
        <rect fill="white" height="600.0" width="800.0" x="0.0" y="0.0" />
        <g font-size="13">
            <text x="18.0" y="176.0">Small</text>
            <text x="18.0" y="376.0">Medium</text>
            <text x="18.0" y="576.0">Large</text>
        </g>
        <g font-size="9">
            <text x="250.0" y="30.0">Ultralight</text>
            <text x="450.0" y="30.0">Regular</text>
            <text x="650.0" y="30.0">Black</text>
            <text id="template-version" fill="#505050" text-anchor="end" x="785.0" y="575.0">Template v.3.0</text>
            <a href="https://github.com/swhitty/SwiftDraw">
                <text fill="#505050" text-anchor="end" x="785.0" y="590.0">https://github.com/swhitty/SwiftDraw</text>
            </a>
        </g>
    </g>
    <g id="Guides" stroke="rgb(39, 170, 225)" stroke-width="0.5">
        <path id="Capline-S" d="M18,76 l800,0" />
        <path id="H-reference" d="M85,145.755 L87.685,145.755 L113.369,79.287 L114.052,79.287 L114.052,76 L112.148,76 L85,145.755 Z M95.693,121.536 L130.996,121.536 L130.263,119.313 L96.474,119.313 L95.693,121.536 Z M139.15,145.755 L141.787,145.755 L114.638,76 L113.466,76 L113.466,79.287 L139.15,145.755 Z" stroke="none" />
        <path id="Baseline-S" d="M18,146 l800,0" />
        <path id="left-margin-Ultralight-S" d="M220,56 l0,110" />
        <path id="right-margin-Ultralight-S" d="M310,56 l0,110" />
        <path id="left-margin-Regular-S" d="M420,56 l0,110" />
        <path id="right-margin-Regular-S" d="M510,56 l0,110" />
        <path id="left-margin-Black-S" d="M620,56 l0,110" />
        <path id="right-margin-Black-S" d="M710,56 l0,110" />
        <path id="Capline-M" d="M18,276 l800,0" />
        <path id="Baseline-M" d="M18,346 l800,0" />
        <path id="Capline-L" d="M18,476 l800,0" />
        <path id="Baseline-L" d="M18,546 l800,0" />
    </g>
    <g id="Symbols">
        <g id="Ultralight-S">
            <path d="M280.481,83.993 C276.324,79.192 271.645,74.869 266.531,71.103 C265.604,70.454 264.369,70.454 263.442,71.103 C258.337,74.87 253.668,79.193 249.519,83.993 C240.268,94.617 235.385,105.817 235.385,116.385 C235.385,132.741 248.644,146 265,146 C281.356,146 294.615,132.741 294.615,116.385 C294.615,105.817 289.732,94.617 280.481,83.993 Z M289.231,116.385 C289.23,117.286 289.178,118.185 289.076,119.078 L267.692,119.078 L267.692,113.692 L289.11,113.692 C289.19,114.59 289.231,114.59 289.231,116.385 Z M283.641,97.538 L267.692,97.538 L267.692,92.154 L280.107,92.154 C281.382,93.883 282.562,95.681 283.641,97.538 Z M267.692,135.231 L280.208,135.231 C276.622,138.135 272.279,139.95 267.692,140.461 Z M267.692,129.846 L267.692,124.462 L287.841,124.462 C287.171,126.361 286.266,128.17 285.149,129.846 Z M267.692,108.308 L267.692,102.923 L286.333,102.923 C287.074,104.671 287.687,106.471 288.167,108.308 Z M275.732,86.769 L267.692,86.769 L267.692,78.894 C270.54,81.342 273.226,83.973 275.732,86.769 Z M240.769,116.385 C240.769,99.558 254.991,85.184 262.308,78.894 L262.308,140.461 C250.051,139.078 240.784,128.719 240.769,116.385 Z" />
        </g>
        <g id="Regular-S">
            <path d="M480.481,83.993 C476.324,79.192 471.645,74.869 466.531,71.103 C465.604,70.454 464.369,70.454 463.442,71.103 C458.337,74.87 453.668,79.193 449.519,83.993 C440.268,94.617 435.385,105.817 435.385,116.385 C435.385,132.741 448.644,146 465,146 C481.356,146 494.615,132.741 494.615,116.385 C494.615,105.817 489.732,94.617 480.481,83.993 Z M489.231,116.385 C489.23,117.286 489.178,118.185 489.076,119.078 L467.692,119.078 L467.692,113.692 L489.11,113.692 C489.19,114.59 489.231,114.59 489.231,116.385 Z M483.641,97.538 L467.692,97.538 L467.692,92.154 L480.107,92.154 C481.382,93.883 482.562,95.681 483.641,97.538 Z M467.692,135.231 L480.208,135.231 C476.622,138.135 472.279,139.95 467.692,140.461 Z M467.692,129.846 L467.692,124.462 L487.841,124.462 C487.171,126.361 486.266,128.17 485.149,129.846 Z M467.692,108.308 L467.692,102.923 L486.333,102.923 C487.074,104.671 487.687,106.471 488.167,108.308 Z M475.732,86.769 L467.692,86.769 L467.692,78.894 C470.54,81.342 473.226,83.973 475.732,86.769 Z M440.769,116.385 C440.769,99.558 454.991,85.184 462.308,78.894 L462.308,140.461 C450.051,139.078 440.784,128.719 440.769,116.385 Z" />
        </g>
        <g id="Black-S">
            <path d="M680.481,83.993 C676.324,79.192 671.645,74.869 666.531,71.103 C665.604,70.454 664.369,70.454 663.442,71.103 C658.337,74.87 653.668,79.193 649.519,83.993 C640.268,94.617 635.385,105.817 635.385,116.385 C635.385,132.741 648.644,146 665,146 C681.356,146 694.615,132.741 694.615,116.385 C694.615,105.817 689.732,94.617 680.481,83.993 Z M689.231,116.385 C689.23,117.286 689.178,118.185 689.076,119.078 L667.692,119.078 L667.692,113.692 L689.11,113.692 C689.19,114.59 689.231,114.59 689.231,116.385 Z M683.641,97.538 L667.692,97.538 L667.692,92.154 L680.107,92.154 C681.382,93.883 682.562,95.681 683.641,97.538 Z M667.692,135.231 L680.208,135.231 C676.622,138.135 672.279,139.95 667.692,140.461 Z M667.692,129.846 L667.692,124.462 L687.841,124.462 C687.171,126.361 686.266,128.17 685.149,129.846 Z M667.692,108.308 L667.692,102.923 L686.333,102.923 C687.074,104.671 687.687,106.471 688.167,108.308 Z M675.732,86.769 L667.692,86.769 L667.692,78.894 C670.54,81.342 673.226,83.973 675.732,86.769 Z M640.769,116.385 C640.769,99.558 654.991,85.184 662.308,78.894 L662.308,140.461 C650.052,139.078 640.784,128.719 640.769,116.385 Z" />
        </g>
    </g>
</svg>