<?xml version="1.0" encoding="UTF-8"?>
<svg height="600" width="800" xmlns="http://www.w3.org/2000/svg" xmlns:xlink="http://www.w3.org/1999/xlink">
    <g id="Notes" font-family="'LucidaGrande', 'Lucida Grande', sans-serif" font-size="13">
        <rect fill="white" height="600.0" width="800.0" x="0.0" y="0.0" />
        <g font-size="13">
            <text x="18.0" y="176.0">Small</text>
            <text x="18.0" y="376.0">Medium</text>
            <text x="18.0" y="576.0">Large</text>
        </g>
        <g font-size="9">
            <text x="250.0" y="30.0">Ultralight</text>
            <text x="450.0" y="30.0">Regular</text>
            <text x="650.0" y="30.0">Black</text>
            <text id="template-version" fill="#505050" text-anchor="end" x="785.0" y="575.0">Template v.3.0</text>
            <a href="https://github.com/swhitty/SwiftDraw">
                <text fill="#505050" text-anchor="end" x="785.0" y="590.0">https://github.com/swhitty/SwiftDraw</text>
            </a>
        </g>
    </g>
    <g id="Guides" stroke="rgb(39, 170, 225)" stroke-width="0.5">
        <path id="Capline-S" d="M18,76 l800,0" />
        <path id="H-reference" d="M85,145.755 L87.685,145.755 L113.369,79.287 L114.052,79.287 L114.052,76 L112.148,76 L85,145.755 Z M95.693,121.536 L130.996,121.536 L130.263,119.313 L96.474,119.313 L95.693,121.536 Z M139.15,145.755 L141.787,145.755 L114.638,76 L113.466,76 L113.466,79.287 L139.15,145.755 Z" stroke="none" />
        <path id="Baseline-S" d="M18,146 l800,0" />
        <path id="left-margin-Ultralight-S" d="M220,56 l0,110" />
        <path id="right-margin-Ultralight-S" d="M310,56 l0,110" />
        <path id="left-margin-Regular-S" d="M420,56 l0,110" />
        <path id="right-margin-Regular-S" d="M510,56 l0,110" />
        <path id="left-margin-Black-S" d="M620,56 l0,110" />
        <path id="right-margin-Black-S" d="M710,56 l0,110" />
        <path id="Capline-M" d="M18,276 l800,0" />
        <path id="Baseline-M" d="M18,346 l800,0" />
        <path id="Capline-L" d="M18,476 l800,0" />
        <path id="Baseline-L" d="M18,546 l800,0" />
    </g>
    <g id="Symbols">
        <g id="Ultralight-S">
            <path d="M293.269,100.231 C292.058,100.224 290.857,100.453 289.732,100.904 L279.471,88.095 C281.786,84.761 281.706,80.32 279.272,77.071 C276.839,73.823 272.599,72.498 268.749,73.782 C264.899,75.067 262.304,78.672 262.308,82.731 C262.308,83.061 262.324,83.391 262.358,83.72 L246.719,90.236 C244.133,87.063 239.794,85.923 235.982,87.415 C232.17,88.907 229.757,92.689 230.011,96.774 C230.265,100.86 233.127,104.314 237.094,105.323 L237.717,120.931 C233.797,122.27 231.211,126.011 231.343,130.15 C231.476,134.29 234.296,137.858 238.293,138.943 C242.291,140.028 246.528,138.375 248.735,134.871 L265,139.427 C265.063,143.593 267.853,147.223 271.863,148.354 C275.872,149.486 280.149,147.85 282.38,144.332 C284.611,140.814 284.267,136.248 281.534,133.104 L290.691,118.717 C294.231,119.724 298.033,118.579 300.427,115.785 C302.822,112.99 303.37,109.057 301.832,105.714 C300.293,102.371 296.949,100.23 293.269,100.231 Z M274.423,129.846 L274.124,129.846 L268.678,113.514 L284.378,112.767 C284.775,113.879 285.378,114.907 286.155,115.796 L276.998,130.183 C276.159,129.952 275.293,129.839 274.423,129.846 Z M243.098,120.716 L242.475,105.107 C243.745,104.67 244.906,103.967 245.881,103.044 L260.194,111.337 L246.241,122.18 C245.293,121.502 244.227,121.005 243.098,120.716 Z M272.259,92.154 C273.292,92.097 274.309,91.87 275.268,91.481 L285.529,104.289 C284.874,105.229 284.398,106.281 284.122,107.392 L268.45,108.139 Z M249.55,126.43 L263.654,115.463 L269.018,131.559 C267.997,132.279 267.128,133.194 266.461,134.251 L250.192,129.688 C250.173,128.573 249.955,127.47 249.55,126.43 Z M271.731,78.692 C273.961,78.692 275.769,80.5 275.769,82.731 C275.769,84.961 273.961,86.769 271.731,86.769 C269.5,86.769 267.692,84.961 267.692,82.731 C267.692,81.66 268.118,80.633 268.875,79.875 C269.633,79.118 270.66,78.692 271.731,78.692 Z M264.435,88.688 C265.158,89.569 266.033,90.315 267.019,90.888 L263.216,106.857 L248.587,98.387 C248.759,97.668 248.846,96.931 248.846,96.192 C248.846,95.864 248.83,95.533 248.796,95.205 Z M235.385,96.192 C235.385,93.962 237.193,92.154 239.423,92.154 C241.653,92.154 243.462,93.962 243.462,96.192 C243.462,98.423 241.653,100.231 239.423,100.231 C238.352,100.231 237.325,99.805 236.567,99.048 C235.81,98.291 235.385,97.263 235.385,96.192 Z M240.769,133.885 C238.539,133.885 236.731,132.077 236.731,129.846 C236.731,127.616 238.539,125.808 240.769,125.808 C243,125.808 244.808,127.616 244.808,129.846 C244.808,130.917 244.382,131.944 243.625,132.702 C242.867,133.459 241.84,133.885 240.769,133.885 Z M274.423,143.308 C272.193,143.308 270.385,141.5 270.385,139.269 C270.385,137.039 272.193,135.231 274.423,135.231 C276.653,135.231 278.462,137.039 278.462,139.269 C278.462,140.34 278.036,141.367 277.279,142.125 C276.521,142.882 275.494,143.308 274.423,143.308 Z M293.269,113.692 C291.039,113.692 289.231,111.884 289.231,109.654 C289.231,107.423 291.039,105.615 293.269,105.615 C295.5,105.615 297.308,107.423 297.308,109.654 C297.308,110.725 296.882,111.752 296.125,112.509 C295.367,113.267 294.34,113.692 293.269,113.692 Z" />
        </g>
        <g id="Regular-S">
            <path d="M493.269,100.231 C492.058,100.224 490.857,100.453 489.732,100.904 L479.471,88.095 C481.786,84.761 481.706,80.32 479.272,77.071 C476.839,73.823 472.599,72.498 468.749,73.782 C464.899,75.067 462.304,78.672 462.308,82.731 C462.308,83.061 462.324,83.391 462.358,83.72 L446.719,90.236 C444.133,87.063 439.794,85.923 435.982,87.415 C432.17,88.907 429.757,92.689 430.011,96.774 C430.265,100.86 433.127,104.314 437.094,105.323 L437.717,120.931 C433.797,122.27 431.211,126.011 431.343,130.15 C431.476,134.29 434.296,137.858 438.293,138.943 C442.291,140.028 446.528,138.375 448.735,134.871 L465,139.427 C465.063,143.593 467.853,147.223 471.863,148.354 C475.872,149.486 480.149,147.85 482.38,144.332 C484.611,140.814 484.267,136.248 481.534,133.104 L490.691,118.717 C494.231,119.724 498.033,118.579 500.427,115.785 C502.822,112.99 503.37,109.057 501.832,105.714 C500.293,102.371 496.949,100.23 493.269,100.231 Z M474.423,129.846 L474.124,129.846 L468.678,113.514 L484.378,112.767 C484.775,113.879 485.378,114.907 486.155,115.796 L476.998,130.183 C476.159,129.952 475.293,129.839 474.423,129.846 Z M443.098,120.716 L442.475,105.107 C443.745,104.67 444.906,103.967 445.881,103.044 L460.194,111.337 L446.241,122.18 C445.293,121.502 444.227,121.005 443.098,120.716 Z M472.259,92.154 C473.292,92.097 474.309,91.87 475.268,91.481 L485.529,104.289 C484.874,105.229 484.398,106.281 484.122,107.392 L468.45,108.139 Z M449.549,126.43 L463.654,115.463 L469.018,131.559 C467.997,132.279 467.128,133.194 466.461,134.251 L450.192,129.688 C450.173,128.573 449.955,127.47 449.549,126.43 Z M471.731,78.692 C473.961,78.692 475.769,80.5 475.769,82.731 C475.769,84.961 473.961,86.769 471.731,86.769 C469.5,86.769 467.692,84.961 467.692,82.731 C467.692,81.66 468.118,80.633 468.875,79.875 C469.633,79.118 470.66,78.692 471.731,78.692 Z M464.435,88.688 C465.158,89.569 466.033,90.315 467.019,90.888 L463.216,106.857 L448.587,98.387 C448.759,97.668 448.846,96.931 448.846,96.192 C448.846,95.864 448.83,95.533 448.796,95.205 Z M435.385,96.192 C435.385,93.962 437.193,92.154 439.423,92.154 C441.653,92.154 443.462,93.962 443.462,96.192 C443.462,98.423 441.653,100.231 439.423,100.231 C438.352,100.231 437.325,99.805 436.567,99.048 C435.81,98.291 435.385,97.263 435.385,96.192 Z M440.769,133.885 C438.539,133.885 436.731,132.077 436.731,129.846 C436.731,127.616 438.539,125.808 440.769,125.808 C443,125.808 444.808,127.616 444.808,129.846 C444.808,130.917 444.382,131.944 443.625,132.702 C442.867,133.459 441.84,133.885 440.769,133.885 Z M474.423,143.308 C472.193,143.308 470.385,141.5 470.385,139.269 C470.385,137.039 472.193,135.231 474.423,135.231 C476.653,135.231 478.462,137.039 478.462,139.269 C478.462,140.34 478.036,141.367 477.279,142.125 C476.521,142.882 475.494,143.308 474.423,143.308 Z M493.269,113.692 C491.039,113.692 489.231,111.884 489.231,109.654 C489.231,107.423 491.039,105.615 493.269,105.615 C495.5,105.615 497.308,107.423 497.308,109.654 C497.308,110.725 496.882,111.752 496.125,112.509 C495.367,113.267 494.34,113.692 493.269,113.692 Z" />
        </g>
        <g id="Black-S">
            <path d="M693.269,100.231 C692.058,100.224 690.857,100.453 689.732,100.904 L679.471,88.095 C681.786,84.761 681.706,80.32 679.272,77.071 C676.839,73.823 672.599,72.498 668.749,73.782 C664.899,75.067 662.304,78.672 662.308,82.731 C662.308,83.061 662.324,83.391 662.358,83.72 L646.719,90.236 C644.133,87.063 639.794,85.923 635.982,87.415 C632.17,88.907 629.757,92.689 630.011,96.774 C630.265,100.86 633.127,104.314 637.094,105.323 L637.717,120.931 C633.797,122.27 631.211,126.011 631.343,130.15 C631.476,134.29 634.296,137.858 638.293,138.943 C642.291,140.028 646.528,138.375 648.735,134.871 L665,139.427 C665.063,143.593 667.853,147.223 671.863,148.354 C675.872,149.486 680.149,147.85 682.38,144.332 C684.611,140.814 684.267,136.248 681.534,133.104 L690.691,118.717 C694.231,119.724 698.033,118.579 700.427,115.785 C702.822,112.99 703.37,109.057 701.832,105.714 C700.293,102.371 696.949,100.23 693.269,100.231 Z M674.423,129.846 L674.124,129.846 L668.678,113.514 L684.378,112.767 C684.775,113.879 685.378,114.907 686.155,115.796 L676.998,130.183 C676.159,129.952 675.293,129.839 674.423,129.846 Z M643.098,120.716 L642.476,105.107 C643.745,104.67 644.906,103.967 645.881,103.044 L660.194,111.337 L646.241,122.18 C645.293,121.502 644.227,121.005 643.098,120.716 Z M672.259,92.154 C673.292,92.097 674.309,91.87 675.268,91.481 L685.529,104.289 C684.874,105.229 684.398,106.281 684.122,107.392 L668.45,108.139 Z M649.55,126.43 L663.654,115.463 L669.018,131.559 C667.997,132.279 667.128,133.194 666.461,134.251 L650.192,129.688 C650.173,128.573 649.955,127.47 649.55,126.43 Z M671.731,78.692 C673.961,78.692 675.769,80.5 675.769,82.731 C675.769,84.961 673.961,86.769 671.731,86.769 C669.5,86.769 667.692,84.961 667.692,82.731 C667.692,81.66 668.118,80.633 668.875,79.875 C669.633,79.118 670.66,78.692 671.731,78.692 Z M664.435,88.688 C665.158,89.569 666.033,90.315 667.019,90.888 L663.216,106.857 L648.587,98.387 C648.759,97.668 648.846,96.931 648.846,96.192 C648.846,95.864 648.83,95.533 648.796,95.205 Z M635.385,96.192 C635.385,93.962 637.193,92.154 639.423,92.154 C641.654,92.154 643.462,93.962 643.462,96.192 C643.462,98.423 641.654,100.231 639.423,100.231 C638.352,100.231 637.325,99.805 636.568,99.048 C635.81,98.291 635.385,97.263 635.385,96.192 Z M640.769,133.885 C638.539,133.885 636.731,132.077 636.731,129.846 C636.731,127.616 638.539,125.808 640.769,125.808 C643,125.808 644.808,127.616 644.808,129.846 C644.808,130.917 644.382,131.944 643.625,132.702 C642.867,133.459 641.84,133.885 640.769,133.885 Z M674.423,143.308 C672.193,143.308 670.385,141.5 670.385,139.269 C670.385,137.039 672.193,135.231 674.423,135.231 C676.653,135.231 678.462,137.039 678.462,139.269 C678.462,140.34 678.036,141.367 677.279,142.125 C676.521,142.882 675.494,143.308 674.423,143.308 Z M693.269,113.692 C691.039,113.692 689.231,111.884 689.231,109.654 C689.231,107.423 691.039,105.615 693.269,105.615 C695.5,105.615 697.308,107.423 697.308,109.654 C697.308,110.725 696.882,111.752 696.125,112.509 C695.367,113.267 694.34,113.692 693.269,113.692 Z" />
        </g>
    </g>
</svg>