<?xml version="1.0" encoding="UTF-8"?>
<svg height="600" width="800" xmlns="http://www.w3.org/2000/svg" xmlns:xlink="http://www.w3.org/1999/xlink">
    <g id="Notes" font-family="'LucidaGrande', 'Lucida Grande', sans-serif" font-size="13">
        <rect fill="white" height="600.0" width="800.0" x="0.0" y="0.0" />
        <g font-size="13">
            <text x="18.0" y="176.0">Small</text>
            <text x="18.0" y="376.0">Medium</text>
            <text x="18.0" y="576.0">Large</text>
        </g>
        <g font-size="9">
            <text x="250.0" y="30.0">Ultralight</text>
            <text x="450.0" y="30.0">Regular</text>
            <text x="650.0" y="30.0">Black</text>
            <text id="template-version" fill="#505050" text-anchor="end" x="785.0" y="575.0">Template v.3.0</text>
            <a href="https://github.com/swhitty/SwiftDraw">
                <text fill="#505050" text-anchor="end" x="785.0" y="590.0">https://github.com/swhitty/SwiftDraw</text>
            </a>
        </g>
    </g>
    <g id="Guides" stroke="rgb(39, 170, 225)" stroke-width="0.5">
        <path id="Capline-S" d="M18,76 l800,0" />
        <path id="H-reference" d="M85,145.755 L87.685,145.755 L113.369,79.287 L114.052,79.287 L114.052,76 L112.148,76 L85,145.755 Z M95.693,121.536 L130.996,121.536 L130.263,119.313 L96.474,119.313 L95.693,121.536 Z M139.15,145.755 L141.787,145.755 L114.638,76 L113.466,76 L113.466,79.287 L139.15,145.755 Z" stroke="none" />
        <path id="Baseline-S" d="M18,146 l800,0" />
        <path id="left-margin-Ultralight-S" d="M220,56 l0,110" />
        <path id="right-margin-Ultralight-S" d="M310,56 l0,110" />
        <path id="left-margin-Regular-S" d="M420,56 l0,110" />
        <path id="right-margin-Regular-S" d="M510,56 l0,110" />
        <path id="left-margin-Black-S" d="M620,56 l0,110" />
        <path id="right-margin-Black-S" d="M710,56 l0,110" />
        <path id="Capline-M" d="M18,276 l800,0" />
        <path id="Baseline-M" d="M18,346 l800,0" />
        <path id="Capline-L" d="M18,476 l800,0" />
        <path id="Baseline-L" d="M18,546 l800,0" />
    </g>
    <g id="Symbols">
        <g id="Ultralight-S">
            <path d="M299.633,125.808 C300.374,127.092 299.936,128.734 298.654,129.479 L266.346,148.325 C265.508,148.814 264.472,148.814 263.634,148.325 L231.326,129.479 C230.063,128.721 229.645,127.088 230.387,125.815 C231.129,124.543 232.756,124.103 234.038,124.828 L265,142.884 L295.962,124.828 C297.246,124.088 298.888,124.526 299.633,125.808 Z M295.962,108.675 L265,126.73 L234.038,108.675 C232.766,108.041 231.22,108.506 230.508,109.736 C229.796,110.966 230.163,112.538 231.346,113.325 L263.654,132.172 C264.492,132.66 265.528,132.66 266.366,132.172 L298.674,113.325 C299.518,112.848 300.041,111.952 300.041,110.982 C300.041,110.012 299.518,109.117 298.674,108.639 C297.829,108.161 296.793,108.175 295.962,108.675 Z M230,94.846 C230.002,93.887 230.515,93.001 231.346,92.521 L263.654,73.675 C264.492,73.186 265.528,73.186 266.366,73.675 L298.674,92.521 C299.501,93.003 300.01,93.889 300.01,94.846 C300.01,95.804 299.501,96.689 298.674,97.172 L266.366,116.018 C265.528,116.507 264.492,116.507 263.654,116.018 L231.346,97.172 C230.515,96.692 230.002,95.806 230,94.846 Z M238.037,94.846 L265,110.576 L291.963,94.846 L265,79.116 Z" />
        </g>
        <g id="Regular-S">
            <path d="M499.633,125.808 C500.373,127.092 499.936,128.734 498.654,129.479 L466.346,148.325 C465.508,148.814 464.472,148.814 463.634,148.325 L431.326,129.479 C430.063,128.721 429.645,127.088 430.387,125.815 C431.129,124.543 432.756,124.103 434.038,124.828 L465,142.884 L495.962,124.828 C497.246,124.088 498.888,124.526 499.633,125.808 Z M495.962,108.675 L465,126.73 L434.038,108.675 C432.766,108.041 431.22,108.506 430.508,109.736 C429.796,110.966 430.163,112.538 431.346,113.325 L463.654,132.172 C464.492,132.66 465.528,132.66 466.366,132.172 L498.674,113.325 C499.518,112.848 500.041,111.952 500.041,110.982 C500.04,110.012 499.518,109.117 498.674,108.639 C497.829,108.161 496.793,108.175 495.962,108.675 Z M430,94.846 C430.002,93.887 430.515,93.001 431.346,92.521 L463.654,73.675 C464.492,73.186 465.528,73.186 466.366,73.675 L498.674,92.521 C499.501,93.003 500.01,93.889 500.01,94.846 C500.01,95.804 499.501,96.689 498.674,97.172 L466.366,116.018 C465.528,116.507 464.492,116.507 463.654,116.018 L431.346,97.172 C430.515,96.692 430.002,95.806 430,94.846 Z M438.037,94.846 L465,110.576 L491.963,94.846 L465,79.116 Z" />
        </g>
        <g id="Black-S">
            <path d="M699.633,125.808 C700.374,127.092 699.936,128.734 698.654,129.479 L666.346,148.325 C665.508,148.814 664.472,148.814 663.634,148.325 L631.326,129.479 C630.063,128.721 629.645,127.088 630.387,125.815 C631.129,124.543 632.756,124.103 634.038,124.828 L665,142.884 L695.962,124.828 C697.246,124.088 698.888,124.526 699.633,125.808 Z M695.962,108.675 L665,126.73 L634.038,108.675 C632.766,108.041 631.221,108.506 630.508,109.736 C629.796,110.966 630.163,112.538 631.346,113.325 L663.654,132.172 C664.492,132.66 665.528,132.66 666.366,132.172 L698.674,113.325 C699.519,112.848 700.041,111.952 700.041,110.982 C700.041,110.012 699.518,109.117 698.674,108.639 C697.829,108.161 696.793,108.175 695.962,108.675 Z M630,94.846 C630.002,93.887 630.515,93.001 631.346,92.521 L663.654,73.675 C664.492,73.186 665.528,73.186 666.366,73.675 L698.674,92.521 C699.501,93.003 700.01,93.889 700.01,94.846 C700.01,95.804 699.501,96.689 698.674,97.172 L666.366,116.018 C665.528,116.507 664.492,116.507 663.654,116.018 L631.346,97.172 C630.515,96.692 630.002,95.806 630,94.846 Z M638.037,94.846 L665,110.576 L691.964,94.846 L665,79.116 Z" />
        </g>
    </g>
</svg>