<?xml version="1.0" encoding="UTF-8"?>
<svg height="600" width="800" xmlns="http://www.w3.org/2000/svg" xmlns:xlink="http://www.w3.org/1999/xlink">
    <g id="Notes" font-family="'LucidaGrande', 'Lucida Grande', sans-serif" font-size="13">
        <rect fill="white" height="600.0" width="800.0" x="0.0" y="0.0" />
        <g font-size="13">
            <text x="18.0" y="176.0">Small</text>
            <text x="18.0" y="376.0">Medium</text>
            <text x="18.0" y="576.0">Large</text>
        </g>
        <g font-size="9">
            <text x="250.0" y="30.0">Ultralight</text>
            <text x="450.0" y="30.0">Regular</text>
            <text x="650.0" y="30.0">Black</text>
            <text id="template-version" fill="#505050" text-anchor="end" x="785.0" y="575.0">Template v.3.0</text>
            <a href="https://github.com/swhitty/SwiftDraw">
                <text fill="#505050" text-anchor="end" x="785.0" y="590.0">https://github.com/swhitty/SwiftDraw</text>
            </a>
        </g>
    </g>
    <g id="Guides" stroke="rgb(39, 170, 225)" stroke-width="0.5">
        <path id="Capline-S" d="M18,76 l800,0" />
        <path id="H-reference" d="M85,145.755 L87.685,145.755 L113.369,79.287 L114.052,79.287 L114.052,76 L112.148,76 L85,145.755 Z M95.693,121.536 L130.996,121.536 L130.263,119.313 L96.474,119.313 L95.693,121.536 Z M139.15,145.755 L141.787,145.755 L114.638,76 L113.466,76 L113.466,79.287 L139.15,145.755 Z" stroke="none" />
        <path id="Baseline-S" d="M18,146 l800,0" />
        <path id="left-margin-Ultralight-S" d="M220,56 l0,110" />
        <path id="right-margin-Ultralight-S" d="M310,56 l0,110" />
        <path id="left-margin-Regular-S" d="M420,56 l0,110" />
        <path id="right-margin-Regular-S" d="M510,56 l0,110" />
        <path id="left-margin-Black-S" d="M620,56 l0,110" />
        <path id="right-margin-Black-S" d="M710,56 l0,110" />
        <path id="Capline-M" d="M18,276 l800,0" />
        <path id="Baseline-M" d="M18,346 l800,0" />
        <path id="Capline-L" d="M18,476 l800,0" />
        <path id="Baseline-L" d="M18,546 l800,0" />
    </g>
    <g id="Symbols">
        <g id="Ultralight-S">
            <path d="M291.923,111 C291.923,102.434 287.838,94.375 280.923,89.307 L278.823,77.737 C278.361,75.172 276.128,73.306 273.521,73.308 L256.479,73.308 C253.875,73.308 251.645,75.171 251.182,77.733 L249.082,89.303 C242.164,94.368 238.076,102.427 238.076,111 C238.076,119.573 242.164,127.632 249.082,132.697 L251.182,144.267 C251.645,146.829 253.875,148.692 256.479,148.692 L273.521,148.692 C276.125,148.692 278.355,146.829 278.818,144.267 L280.918,132.697 C287.834,127.631 291.921,119.572 291.923,111 Z M256.479,78.692 L273.521,78.692 L274.837,85.945 C268.515,83.454 261.485,83.454 255.163,85.945 Z M243.462,111 C243.462,99.105 253.105,89.462 265,89.462 C276.895,89.462 286.538,99.105 286.538,111 C286.538,122.895 276.895,132.538 265,132.538 C253.11,132.525 243.475,122.89 243.462,111 Z M273.521,143.308 L256.479,143.308 L255.163,136.055 C261.485,138.546 268.515,138.546 274.837,136.055 Z M262.308,111 L262.308,97.538 C262.308,96.052 263.513,94.846 265,94.846 C266.487,94.846 267.692,96.052 267.692,97.538 L267.692,108.308 L278.462,108.308 C279.948,108.308 281.154,109.513 281.154,111 C281.154,112.487 279.948,113.692 278.462,113.692 L265,113.692 C264.286,113.692 263.601,113.409 263.096,112.904 C262.591,112.399 262.308,111.714 262.308,111 Z" />
        </g>
        <g id="Regular-S">
            <path d="M491.923,111 C491.923,102.434 487.838,94.375 480.923,89.307 L478.823,77.737 C478.361,75.172 476.128,73.306 473.521,73.308 L456.479,73.308 C453.875,73.308 451.645,75.171 451.182,77.733 L449.082,89.303 C442.164,94.368 438.076,102.427 438.076,111 C438.076,119.573 442.164,127.632 449.082,132.697 L451.182,144.267 C451.645,146.829 453.875,148.692 456.479,148.692 L473.521,148.692 C476.125,148.692 478.355,146.829 478.818,144.267 L480.918,132.697 C487.834,127.631 491.921,119.572 491.923,111 Z M456.479,78.692 L473.521,78.692 L474.837,85.945 C468.515,83.454 461.485,83.454 455.163,85.945 Z M443.462,111 C443.462,99.105 453.105,89.462 465,89.462 C476.895,89.462 486.538,99.105 486.538,111 C486.538,122.895 476.895,132.538 465,132.538 C453.11,132.525 443.475,122.89 443.462,111 Z M473.521,143.308 L456.479,143.308 L455.163,136.055 C461.485,138.546 468.515,138.546 474.837,136.055 Z M462.308,111 L462.308,97.538 C462.308,96.052 463.513,94.846 465,94.846 C466.487,94.846 467.692,96.052 467.692,97.538 L467.692,108.308 L478.462,108.308 C479.948,108.308 481.154,109.513 481.154,111 C481.154,112.487 479.948,113.692 478.462,113.692 L465,113.692 C464.286,113.692 463.601,113.409 463.096,112.904 C462.591,112.399 462.308,111.714 462.308,111 Z" />
        </g>
        <g id="Black-S">
            <path d="M691.923,111 C691.923,102.434 687.838,94.375 680.923,89.307 L678.823,77.737 C678.361,75.172 676.128,73.306 673.521,73.308 L656.479,73.308 C653.875,73.308 651.645,75.171 651.182,77.733 L649.082,89.303 C642.164,94.368 638.076,102.427 638.076,111 C638.076,119.573 642.164,127.632 649.082,132.697 L651.182,144.267 C651.646,146.829 653.875,148.692 656.479,148.692 L673.521,148.692 C676.125,148.692 678.355,146.829 678.818,144.267 L680.918,132.697 C687.834,127.631 691.921,119.572 691.923,111 Z M656.479,78.692 L673.521,78.692 L674.837,85.945 C668.515,83.454 661.485,83.454 655.163,85.945 Z M643.462,111 C643.462,99.105 653.105,89.462 665,89.462 C676.895,89.462 686.538,99.105 686.538,111 C686.539,122.895 676.895,132.538 665,132.538 C653.11,132.525 643.475,122.89 643.462,111 Z M673.521,143.308 L656.479,143.308 L655.163,136.055 C661.485,138.546 668.515,138.546 674.837,136.055 Z M662.308,111 L662.308,97.538 C662.308,96.052 663.513,94.846 665,94.846 C666.487,94.846 667.692,96.052 667.692,97.538 L667.692,108.308 L678.462,108.308 C679.948,108.308 681.154,109.513 681.154,111 C681.154,112.487 679.948,113.692 678.462,113.692 L665,113.692 C664.286,113.692 663.601,113.409 663.096,112.904 C662.591,112.399 662.308,111.714 662.308,111 Z" />
        </g>
    </g>
</svg>