<?xml version="1.0" encoding="UTF-8"?>
<svg height="600" width="800" xmlns="http://www.w3.org/2000/svg" xmlns:xlink="http://www.w3.org/1999/xlink">
    <g id="Notes" font-family="'LucidaGrande', 'Lucida Grande', sans-serif" font-size="13">
        <rect fill="white" height="600.0" width="800.0" x="0.0" y="0.0" />
        <g font-size="13">
            <text x="18.0" y="176.0">Small</text>
            <text x="18.0" y="376.0">Medium</text>
            <text x="18.0" y="576.0">Large</text>
        </g>
        <g font-size="9">
            <text x="250.0" y="30.0">Ultralight</text>
            <text x="450.0" y="30.0">Regular</text>
            <text x="650.0" y="30.0">Black</text>
            <text id="template-version" fill="#505050" text-anchor="end" x="785.0" y="575.0">Template v.3.0</text>
            <a href="https://github.com/swhitty/SwiftDraw">
                <text fill="#505050" text-anchor="end" x="785.0" y="590.0">https://github.com/swhitty/SwiftDraw</text>
            </a>
        </g>
    </g>
    <g id="Guides" stroke="rgb(39, 170, 225)" stroke-width="0.5">
        <path id="Capline-S" d="M18,76 l800,0" />
        <path id="H-reference" d="M85,145.755 L87.685,145.755 L113.369,79.287 L114.052,79.287 L114.052,76 L112.148,76 L85,145.755 Z M95.693,121.536 L130.996,121.536 L130.263,119.313 L96.474,119.313 L95.693,121.536 Z M139.15,145.755 L141.787,145.755 L114.638,76 L113.466,76 L113.466,79.287 L139.15,145.755 Z" stroke="none" />
        <path id="Baseline-S" d="M18,146 l800,0" />
        <path id="left-margin-Ultralight-S" d="M220,56 l0,110" />
        <path id="right-margin-Ultralight-S" d="M310,56 l0,110" />
        <path id="left-margin-Regular-S" d="M420,56 l0,110" />
        <path id="right-margin-Regular-S" d="M510,56 l0,110" />
        <path id="left-margin-Black-S" d="M620,56 l0,110" />
        <path id="right-margin-Black-S" d="M710,56 l0,110" />
        <path id="Capline-M" d="M18,276 l800,0" />
        <path id="Baseline-M" d="M18,346 l800,0" />
        <path id="Capline-L" d="M18,476 l800,0" />
        <path id="Baseline-L" d="M18,546 l800,0" />
    </g>
    <g id="Symbols">
        <g id="Ultralight-S">
            <path d="M300.518,115.789 C299.815,115.084 298.779,114.825 297.826,115.116 C287.366,118.278 276.015,115.429 268.288,107.702 C260.561,99.975 257.712,88.624 260.874,78.164 C261.168,77.211 260.91,76.173 260.205,75.468 C259.499,74.763 258.462,74.505 257.509,74.799 C250.411,76.973 244.18,81.33 239.702,87.25 C231.715,97.855 230.415,112.065 236.346,123.943 C242.276,135.82 254.416,143.32 267.692,143.308 C275.286,143.331 282.677,140.863 288.733,136.281 C294.653,131.803 299.01,125.572 301.185,118.475 C301.475,117.525 301.219,116.493 300.518,115.789 Z M285.495,131.98 C273.705,140.86 257.175,139.703 246.737,129.266 C236.299,118.829 235.141,102.299 244.02,90.508 C246.818,86.813 250.436,83.818 254.588,81.758 C254.351,83.418 254.232,85.093 254.231,86.769 C254.252,106.092 269.911,121.75 289.232,121.769 C290.912,121.769 292.59,121.65 294.253,121.413 C292.191,125.565 289.193,129.183 285.495,131.98 Z" />
        </g>
        <g id="Regular-S">
            <path d="M500.518,115.789 C499.814,115.084 498.779,114.825 497.826,115.116 C487.366,118.278 476.015,115.429 468.288,107.702 C460.561,99.975 457.712,88.624 460.874,78.164 C461.168,77.211 460.91,76.173 460.205,75.468 C459.499,74.763 458.462,74.505 457.509,74.799 C450.411,76.973 444.18,81.33 439.702,87.25 C431.715,97.855 430.415,112.065 436.346,123.943 C442.276,135.82 454.416,143.32 467.692,143.308 C475.286,143.331 482.677,140.863 488.733,136.281 C494.653,131.803 499.01,125.572 501.185,118.475 C501.475,117.525 501.219,116.493 500.518,115.789 Z M485.495,131.98 C473.705,140.86 457.175,139.703 446.737,129.266 C436.299,118.829 435.141,102.299 444.02,90.508 C446.818,86.813 450.435,83.818 454.587,81.758 C454.351,83.418 454.232,85.093 454.231,86.769 C454.252,106.092 469.911,121.75 489.232,121.769 C490.912,121.769 492.59,121.65 494.253,121.413 C492.191,125.565 489.193,129.183 485.495,131.98 Z" />
        </g>
        <g id="Black-S">
            <path d="M700.518,115.789 C699.815,115.084 698.779,114.825 697.826,115.116 C687.366,118.278 676.015,115.429 668.288,107.702 C660.561,99.975 657.712,88.624 660.874,78.164 C661.168,77.211 660.91,76.173 660.205,75.468 C659.499,74.763 658.462,74.505 657.509,74.799 C650.411,76.973 644.18,81.33 639.702,87.25 C631.715,97.855 630.415,112.065 636.346,123.943 C642.276,135.82 654.417,143.32 667.692,143.308 C675.286,143.331 682.677,140.863 688.733,136.281 C694.653,131.803 699.01,125.572 701.185,118.475 C701.475,117.525 701.219,116.493 700.518,115.789 Z M685.495,131.98 C673.705,140.86 657.175,139.703 646.737,129.266 C636.299,118.829 635.141,102.299 644.02,90.508 C646.818,86.813 650.436,83.818 654.588,81.758 C654.351,83.418 654.232,85.093 654.231,86.769 C654.252,106.092 669.911,121.75 689.232,121.769 C690.912,121.769 692.59,121.65 694.253,121.413 C692.191,125.565 689.193,129.183 685.495,131.98 Z" />
        </g>
    </g>
</svg>