<?xml version="1.0" encoding="UTF-8"?>
<svg height="600" width="800" xmlns="http://www.w3.org/2000/svg" xmlns:xlink="http://www.w3.org/1999/xlink">
    <g id="Notes" font-family="'LucidaGrande', 'Lucida Grande', sans-serif" font-size="13">
        <rect fill="white" height="600.0" width="800.0" x="0.0" y="0.0" />
        <g font-size="13">
            <text x="18.0" y="176.0">Small</text>
            <text x="18.0" y="376.0">Medium</text>
            <text x="18.0" y="576.0">Large</text>
        </g>
        <g font-size="9">
            <text x="250.0" y="30.0">Ultralight</text>
            <text x="450.0" y="30.0">Regular</text>
            <text x="650.0" y="30.0">Black</text>
            <text id="template-version" fill="#505050" text-anchor="end" x="785.0" y="575.0">Template v.3.0</text>
            <a href="https://github.com/swhitty/SwiftDraw">
                <text fill="#505050" text-anchor="end" x="785.0" y="590.0">https://github.com/swhitty/SwiftDraw</text>
            </a>
        </g>
    </g>
    <g id="Guides" stroke="rgb(39, 170, 225)" stroke-width="0.5">
        <path id="Capline-S" d="M18,76 l800,0" />
        <path id="H-reference" d="M85,145.755 L87.685,145.755 L113.369,79.287 L114.052,79.287 L114.052,76 L112.148,76 L85,145.755 Z M95.693,121.536 L130.996,121.536 L130.263,119.313 L96.474,119.313 L95.693,121.536 Z M139.15,145.755 L141.787,145.755 L114.638,76 L113.466,76 L113.466,79.287 L139.15,145.755 Z" stroke="none" />
        <path id="Baseline-S" d="M18,146 l800,0" />
        <path id="left-margin-Ultralight-S" d="M220,56 l0,110" />
        <path id="right-margin-Ultralight-S" d="M310,56 l0,110" />
        <path id="left-margin-Regular-S" d="M420,56 l0,110" />
        <path id="right-margin-Regular-S" d="M510,56 l0,110" />
        <path id="left-margin-Black-S" d="M620,56 l0,110" />
        <path id="right-margin-Black-S" d="M710,56 l0,110" />
        <path id="Capline-M" d="M18,276 l800,0" />
        <path id="Baseline-M" d="M18,346 l800,0" />
        <path id="Capline-L" d="M18,476 l800,0" />
        <path id="Baseline-L" d="M18,546 l800,0" />
    </g>
    <g id="Symbols">
        <g id="Ultralight-S">
            <path d="M275.769,94.846 C275.769,94.132 276.053,93.447 276.558,92.942 C277.063,92.438 277.747,92.154 278.462,92.154 L300,92.154 C301.487,92.154 302.692,93.359 302.692,94.846 C302.692,96.333 301.487,97.538 300,97.538 L278.462,97.538 C277.747,97.538 277.063,97.255 276.558,96.75 C276.053,96.245 275.769,95.56 275.769,94.846 Z M267.692,121.096 C267.692,124.845 266.203,128.44 263.552,131.091 C260.902,133.742 257.306,135.231 253.558,135.231 L232.692,135.231 C231.978,135.231 231.293,134.947 230.789,134.442 C230.284,133.937 230,133.253 230,132.538 L230,89.462 C230,88.747 230.284,88.063 230.789,87.558 C231.293,87.053 231.978,86.769 232.692,86.769 L252.212,86.769 C257.482,86.775 262.209,90.013 264.118,94.925 C266.027,99.837 264.727,105.418 260.844,108.981 C265.094,111.538 267.693,116.136 267.692,121.096 Z M235.385,106.962 L252.212,106.962 C256.301,106.962 259.615,103.647 259.615,99.558 C259.615,95.469 256.301,92.154 252.212,92.154 L235.385,92.154 Z M262.308,121.096 C262.308,118.776 261.386,116.55 259.745,114.909 C258.104,113.268 255.878,112.346 253.558,112.346 L235.385,112.346 L235.385,129.846 L253.558,129.846 C255.878,129.846 258.104,128.924 259.745,127.283 C261.386,125.642 262.308,123.417 262.308,121.096 Z M305.385,119.077 C305.385,119.791 305.101,120.476 304.596,120.981 C304.091,121.486 303.406,121.769 302.692,121.769 L278.798,121.769 C279.832,125.778 283.073,128.839 287.135,129.643 C291.197,130.447 295.359,128.851 297.843,125.538 C298.734,124.35 300.423,124.108 301.613,125.001 C302.803,125.893 303.044,127.582 302.151,128.772 C297.396,135.108 288.747,137.061 281.731,133.383 C274.714,129.705 271.4,121.48 273.907,113.965 C276.413,106.449 284,101.861 291.82,103.131 C299.64,104.401 305.385,111.154 305.385,119.077 Z M299.663,116.385 C298.443,111.619 294.15,108.287 289.231,108.287 C284.312,108.287 280.018,111.619 278.798,116.385 Z" />
        </g>
        <g id="Regular-S">
            <path d="M475.769,94.846 C475.769,94.132 476.053,93.447 476.558,92.942 C477.063,92.438 477.747,92.154 478.462,92.154 L500,92.154 C501.487,92.154 502.692,93.359 502.692,94.846 C502.692,96.333 501.487,97.538 500,97.538 L478.462,97.538 C477.747,97.538 477.063,97.255 476.558,96.75 C476.053,96.245 475.769,95.56 475.769,94.846 Z M467.692,121.096 C467.692,124.845 466.203,128.44 463.552,131.091 C460.902,133.742 457.306,135.231 453.558,135.231 L432.692,135.231 C431.978,135.231 431.293,134.947 430.789,134.442 C430.284,133.937 430,133.253 430,132.538 L430,89.462 C430,88.747 430.284,88.063 430.789,87.558 C431.293,87.053 431.978,86.769 432.692,86.769 L452.212,86.769 C457.482,86.775 462.209,90.013 464.118,94.925 C466.027,99.837 464.727,105.418 460.844,108.981 C465.094,111.538 467.693,116.136 467.692,121.096 Z M435.385,106.962 L452.212,106.962 C456.301,106.962 459.615,103.647 459.615,99.558 C459.615,95.469 456.301,92.154 452.212,92.154 L435.385,92.154 Z M462.308,121.096 C462.308,118.776 461.386,116.55 459.745,114.909 C458.104,113.268 455.878,112.346 453.558,112.346 L435.385,112.346 L435.385,129.846 L453.558,129.846 C455.878,129.846 458.104,128.924 459.745,127.283 C461.386,125.642 462.308,123.417 462.308,121.096 Z M505.385,119.077 C505.385,119.791 505.101,120.476 504.596,120.981 C504.091,121.486 503.406,121.769 502.692,121.769 L478.798,121.769 C479.832,125.778 483.073,128.839 487.135,129.643 C491.197,130.447 495.359,128.851 497.843,125.538 C498.734,124.35 500.423,124.108 501.613,125.001 C502.803,125.893 503.044,127.582 502.151,128.772 C497.396,135.108 488.747,137.061 481.731,133.383 C474.714,129.705 471.4,121.48 473.907,113.965 C476.413,106.449 484,101.861 491.82,103.131 C499.64,104.401 505.385,111.154 505.385,119.077 Z M499.663,116.385 C498.443,111.619 494.15,108.287 489.231,108.287 C484.312,108.287 480.018,111.619 478.798,116.385 Z" />
        </g>
        <g id="Black-S">
            <path d="M675.769,94.846 C675.769,94.132 676.053,93.447 676.558,92.942 C677.063,92.438 677.747,92.154 678.462,92.154 L700,92.154 C701.487,92.154 702.692,93.359 702.692,94.846 C702.692,96.333 701.487,97.538 700,97.538 L678.462,97.538 C677.747,97.538 677.063,97.255 676.558,96.75 C676.053,96.245 675.769,95.56 675.769,94.846 Z M667.692,121.096 C667.692,124.845 666.203,128.44 663.552,131.091 C660.902,133.742 657.306,135.231 653.558,135.231 L632.692,135.231 C631.978,135.231 631.293,134.947 630.789,134.442 C630.284,133.937 630,133.253 630,132.538 L630,89.462 C630,88.747 630.284,88.063 630.789,87.558 C631.293,87.053 631.978,86.769 632.692,86.769 L652.212,86.769 C657.482,86.775 662.209,90.013 664.118,94.925 C666.027,99.837 664.727,105.418 660.844,108.981 C665.094,111.538 667.693,116.136 667.692,121.096 Z M635.385,106.962 L652.212,106.962 C656.301,106.962 659.615,103.647 659.615,99.558 C659.615,95.469 656.301,92.154 652.212,92.154 L635.385,92.154 Z M662.308,121.096 C662.308,118.776 661.386,116.55 659.745,114.909 C658.104,113.268 655.878,112.346 653.558,112.346 L635.385,112.346 L635.385,129.846 L653.558,129.846 C655.878,129.846 658.104,128.924 659.745,127.283 C661.386,125.642 662.308,123.417 662.308,121.096 Z M705.385,119.077 C705.385,119.791 705.101,120.476 704.596,120.981 C704.091,121.486 703.406,121.769 702.692,121.769 L678.798,121.769 C679.832,125.778 683.073,128.839 687.135,129.643 C691.197,130.447 695.359,128.851 697.843,125.538 C698.734,124.35 700.423,124.108 701.613,125.001 C702.803,125.893 703.044,127.582 702.151,128.772 C697.396,135.108 688.747,137.061 681.731,133.383 C674.714,129.705 671.4,121.48 673.907,113.965 C676.413,106.449 684,101.861 691.82,103.131 C699.64,104.401 705.385,111.154 705.385,119.077 Z M699.663,116.385 C698.443,111.619 694.15,108.287 689.231,108.287 C684.312,108.287 680.018,111.619 678.798,116.385 Z" />
        </g>
    </g>
</svg>