<?xml version="1.0" encoding="UTF-8"?>
<svg height="600" width="800" xmlns="http://www.w3.org/2000/svg" xmlns:xlink="http://www.w3.org/1999/xlink">
    <g id="Notes" font-family="'LucidaGrande', 'Lucida Grande', sans-serif" font-size="13">
        <rect fill="white" height="600.0" width="800.0" x="0.0" y="0.0" />
        <g font-size="13">
            <text x="18.0" y="176.0">Small</text>
            <text x="18.0" y="376.0">Medium</text>
            <text x="18.0" y="576.0">Large</text>
        </g>
        <g font-size="9">
            <text x="250.0" y="30.0">Ultralight</text>
            <text x="450.0" y="30.0">Regular</text>
            <text x="650.0" y="30.0">Black</text>
            <text id="template-version" fill="#505050" text-anchor="end" x="785.0" y="575.0">Template v.3.0</text>
            <a href="https://github.com/swhitty/SwiftDraw">
                <text fill="#505050" text-anchor="end" x="785.0" y="590.0">https://github.com/swhitty/SwiftDraw</text>
            </a>
        </g>
    </g>
    <g id="Guides" stroke="rgb(39, 170, 225)" stroke-width="0.5">
        <path id="Capline-S" d="M18,76 l800,0" />
        <path id="H-reference" d="M85,145.755 L87.685,145.755 L113.369,79.287 L114.052,79.287 L114.052,76 L112.148,76 L85,145.755 Z M95.693,121.536 L130.996,121.536 L130.263,119.313 L96.474,119.313 L95.693,121.536 Z M139.15,145.755 L141.787,145.755 L114.638,76 L113.466,76 L113.466,79.287 L139.15,145.755 Z" stroke="none" />
        <path id="Baseline-S" d="M18,146 l800,0" />
        <path id="left-margin-Ultralight-S" d="M220,56 l0,110" />
        <path id="right-margin-Ultralight-S" d="M310,56 l0,110" />
        <path id="left-margin-Regular-S" d="M420,56 l0,110" />
        <path id="right-margin-Regular-S" d="M510,56 l0,110" />
        <path id="left-margin-Black-S" d="M620,56 l0,110" />
        <path id="right-margin-Black-S" d="M710,56 l0,110" />
        <path id="Capline-M" d="M18,276 l800,0" />
        <path id="Baseline-M" d="M18,346 l800,0" />
        <path id="Capline-L" d="M18,476 l800,0" />
        <path id="Baseline-L" d="M18,546 l800,0" />
    </g>
    <g id="Symbols">
        <g id="Ultralight-S">
            <path d="M281.154,73.308 L248.846,73.308 C246.704,73.308 244.65,74.159 243.135,75.673 C241.62,77.188 240.769,79.242 240.769,81.385 L240.769,140.615 C240.769,142.758 241.62,144.812 243.135,146.327 C244.65,147.841 246.704,148.692 248.846,148.692 L281.154,148.692 C283.296,148.692 285.35,147.841 286.865,146.327 C288.38,144.812 289.231,142.758 289.231,140.615 L289.231,81.385 C289.231,79.242 288.38,77.188 286.865,75.673 C285.35,74.159 283.296,73.308 281.154,73.308 Z M283.846,140.615 C283.846,141.329 283.562,142.014 283.058,142.519 C282.553,143.024 281.868,143.308 281.154,143.308 L248.846,143.308 C248.132,143.308 247.447,143.024 246.942,142.519 C246.438,142.014 246.154,141.329 246.154,140.615 L246.154,81.385 C246.154,80.671 246.438,79.986 246.942,79.481 C247.447,78.976 248.132,78.692 248.846,78.692 L281.154,78.692 C281.868,78.692 282.553,78.976 283.058,79.481 C283.562,79.986 283.846,80.671 283.846,81.385 Z M269.038,88.115 C269.038,90.346 267.23,92.154 265,92.154 C262.77,92.154 260.962,90.346 260.962,88.115 C260.962,85.885 262.77,84.077 265,84.077 C266.071,84.077 267.098,84.502 267.856,85.26 C268.613,86.017 269.038,87.044 269.038,88.115 Z" />
        </g>
        <g id="Regular-S">
            <path d="M481.154,73.308 L448.846,73.308 C446.704,73.308 444.65,74.159 443.135,75.673 C441.62,77.188 440.769,79.242 440.769,81.385 L440.769,140.615 C440.769,142.758 441.62,144.812 443.135,146.327 C444.65,147.841 446.704,148.692 448.846,148.692 L481.154,148.692 C483.296,148.692 485.35,147.841 486.865,146.327 C488.38,144.812 489.231,142.758 489.231,140.615 L489.231,81.385 C489.231,79.242 488.38,77.188 486.865,75.673 C485.35,74.159 483.296,73.308 481.154,73.308 Z M483.846,140.615 C483.846,141.329 483.562,142.014 483.058,142.519 C482.553,143.024 481.868,143.308 481.154,143.308 L448.846,143.308 C448.132,143.308 447.447,143.024 446.942,142.519 C446.438,142.014 446.154,141.329 446.154,140.615 L446.154,81.385 C446.154,80.671 446.438,79.986 446.942,79.481 C447.447,78.976 448.132,78.692 448.846,78.692 L481.154,78.692 C481.868,78.692 482.553,78.976 483.058,79.481 C483.562,79.986 483.846,80.671 483.846,81.385 Z M469.038,88.115 C469.038,90.346 467.23,92.154 465,92.154 C462.77,92.154 460.962,90.346 460.962,88.115 C460.962,85.885 462.77,84.077 465,84.077 C466.071,84.077 467.098,84.502 467.856,85.26 C468.613,86.017 469.038,87.044 469.038,88.115 Z" />
        </g>
        <g id="Black-S">
            <path d="M681.154,73.308 L648.846,73.308 C646.704,73.308 644.65,74.159 643.135,75.673 C641.62,77.188 640.769,79.242 640.769,81.385 L640.769,140.615 C640.769,142.758 641.62,144.812 643.135,146.327 C644.65,147.841 646.704,148.692 648.846,148.692 L681.154,148.692 C683.296,148.692 685.35,147.841 686.865,146.327 C688.38,144.812 689.231,142.758 689.231,140.615 L689.231,81.385 C689.231,79.242 688.38,77.188 686.865,75.673 C685.35,74.159 683.296,73.308 681.154,73.308 Z M683.846,140.615 C683.846,141.329 683.562,142.014 683.058,142.519 C682.553,143.024 681.868,143.308 681.154,143.308 L648.846,143.308 C648.132,143.308 647.447,143.024 646.942,142.519 C646.438,142.014 646.154,141.329 646.154,140.615 L646.154,81.385 C646.154,80.671 646.438,79.986 646.942,79.481 C647.447,78.976 648.132,78.692 648.846,78.692 L681.154,78.692 C681.868,78.692 682.553,78.976 683.058,79.481 C683.562,79.986 683.846,80.671 683.846,81.385 Z M669.038,88.115 C669.038,90.346 667.23,92.154 665,92.154 C662.77,92.154 660.962,90.346 660.962,88.115 C660.962,85.885 662.77,84.077 665,84.077 C666.071,84.077 667.098,84.502 667.856,85.26 C668.613,86.017 669.038,87.044 669.038,88.115 Z" />
        </g>
    </g>
</svg>