<?xml version="1.0" encoding="UTF-8"?>
<svg height="600" width="800" xmlns="http://www.w3.org/2000/svg" xmlns:xlink="http://www.w3.org/1999/xlink">
    <g id="Notes" font-family="'LucidaGrande', 'Lucida Grande', sans-serif" font-size="13">
        <rect fill="white" height="600.0" width="800.0" x="0.0" y="0.0" />
        <g font-size="13">
            <text x="18.0" y="176.0">Small</text>
            <text x="18.0" y="376.0">Medium</text>
            <text x="18.0" y="576.0">Large</text>
        </g>
        <g font-size="9">
            <text x="250.0" y="30.0">Ultralight</text>
            <text x="450.0" y="30.0">Regular</text>
            <text x="650.0" y="30.0">Black</text>
            <text id="template-version" fill="#505050" text-anchor="end" x="785.0" y="575.0">Template v.3.0</text>
            <a href="https://github.com/swhitty/SwiftDraw">
                <text fill="#505050" text-anchor="end" x="785.0" y="590.0">https://github.com/swhitty/SwiftDraw</text>
            </a>
        </g>
    </g>
    <g id="Guides" stroke="rgb(39, 170, 225)" stroke-width="0.5">
        <path id="Capline-S" d="M18,76 l800,0" />
        <path id="H-reference" d="M85,145.755 L87.685,145.755 L113.369,79.287 L114.052,79.287 L114.052,76 L112.148,76 L85,145.755 Z M95.693,121.536 L130.996,121.536 L130.263,119.313 L96.474,119.313 L95.693,121.536 Z M139.15,145.755 L141.787,145.755 L114.638,76 L113.466,76 L113.466,79.287 L139.15,145.755 Z" stroke="none" />
        <path id="Baseline-S" d="M18,146 l800,0" />
        <path id="left-margin-Ultralight-S" d="M220,56 l0,110" />
        <path id="right-margin-Ultralight-S" d="M310,56 l0,110" />
        <path id="left-margin-Regular-S" d="M420,56 l0,110" />
        <path id="right-margin-Regular-S" d="M510,56 l0,110" />
        <path id="left-margin-Black-S" d="M620,56 l0,110" />
        <path id="right-margin-Black-S" d="M710,56 l0,110" />
        <path id="Capline-M" d="M18,276 l800,0" />
        <path id="Baseline-M" d="M18,346 l800,0" />
        <path id="Capline-L" d="M18,476 l800,0" />
        <path id="Baseline-L" d="M18,546 l800,0" />
    </g>
    <g id="Symbols">
        <g id="Ultralight-S">
            <path d="M296.019,101.577 L290.193,91.481 C287.591,86.975 281.83,85.431 277.324,88.031 C276.117,88.729 275.082,89.688 274.295,90.838 L268.433,80.712 C266.749,77.799 263.639,76.005 260.275,76.005 C256.911,76.005 253.801,77.799 252.117,80.712 C248.568,77.917 243.534,78.034 240.119,80.992 C236.704,83.949 235.868,88.915 238.127,92.827 L238.663,93.756 C237.27,93.864 235.92,94.284 234.712,94.984 C230.205,97.587 228.662,103.35 231.265,107.857 L244.727,131.186 C248.639,138.001 255.113,142.969 262.708,144.984 C265.224,145.656 267.817,145.995 270.422,145.993 C280.993,145.975 290.753,140.323 296.031,131.164 C301.309,122.004 301.305,110.725 296.019,101.57 Z M293.777,122.658 C291.239,132.122 283.251,139.126 273.536,140.405 C263.821,141.683 254.292,136.985 249.391,128.5 L235.93,105.171 C234.864,103.245 235.537,100.82 237.444,99.719 C239.35,98.617 241.787,99.247 242.923,101.133 L249.395,112.346 C249.862,113.206 250.759,113.745 251.738,113.754 C252.716,113.762 253.623,113.239 254.104,112.387 C254.586,111.535 254.567,110.488 254.056,109.654 L242.788,90.135 C242.035,88.884 242.016,87.323 242.738,86.054 C243.461,84.785 244.812,84.004 246.272,84.013 C247.733,84.022 249.075,84.818 249.782,86.096 L260.288,104.269 C260.756,105.129 261.653,105.668 262.631,105.677 C263.61,105.685 264.516,105.162 264.998,104.31 C265.48,103.458 265.461,102.411 264.95,101.577 L256.778,87.442 L256.778,87.442 C256.025,86.191 256.006,84.631 256.728,83.362 C257.451,82.092 258.802,81.312 260.262,81.321 C261.723,81.33 263.065,82.126 263.772,83.404 L275.019,102.889 C269.617,108.375 268.837,116.91 273.154,123.284 C273.988,124.513 275.664,124.834 276.895,123.998 C278.126,123.163 278.447,121.488 277.611,120.257 C274.398,115.501 275.48,109.061 280.07,105.615 C281.16,104.798 281.468,103.295 280.787,102.115 L278.539,98.212 C277.76,96.96 277.726,95.383 278.449,94.099 C279.171,92.814 280.537,92.025 282.011,92.041 C283.485,92.056 284.833,92.873 285.529,94.173 L291.354,104.269 C294.583,109.828 295.455,116.446 293.777,122.651 Z M283.93,78.595 C284.307,77.159 285.775,76.3 287.212,76.673 C292.406,78.042 296.834,81.436 299.505,86.096 L299.616,86.288 C300.128,87.122 300.147,88.169 299.665,89.021 C299.183,89.873 298.277,90.396 297.298,90.388 C296.319,90.379 295.422,89.84 294.955,88.98 L294.844,88.788 C292.884,85.373 289.634,82.888 285.825,81.889 C284.394,81.501 283.547,80.027 283.93,78.595 Z M249.146,147.683 C248.225,148.849 246.534,149.05 245.366,148.13 C241.339,144.95 237.958,141.028 235.405,136.577 C234.661,135.288 235.103,133.641 236.392,132.898 C237.68,132.155 239.327,132.597 240.07,133.885 C242.283,137.738 245.212,141.133 248.699,143.887 C249.263,144.33 249.628,144.979 249.712,145.692 C249.796,146.404 249.592,147.121 249.146,147.683 Z" />
        </g>
        <g id="Regular-S">
            <path d="M496.019,101.577 L490.193,91.481 C487.591,86.975 481.83,85.431 477.324,88.031 C476.117,88.729 475.082,89.688 474.295,90.838 L468.433,80.712 C466.749,77.799 463.639,76.005 460.275,76.005 C456.911,76.005 453.801,77.799 452.117,80.712 C448.568,77.917 443.534,78.034 440.119,80.992 C436.704,83.949 435.868,88.915 438.127,92.827 L438.662,93.756 C437.27,93.864 435.92,94.284 434.712,94.984 C430.205,97.587 428.662,103.35 431.265,107.857 L444.727,131.186 C448.639,138.001 455.113,142.969 462.708,144.984 C465.224,145.656 467.817,145.995 470.422,145.993 C480.993,145.975 490.753,140.323 496.031,131.164 C501.309,122.004 501.305,110.725 496.019,101.57 Z M493.777,122.658 C491.239,132.122 483.251,139.126 473.536,140.405 C463.821,141.683 454.292,136.985 449.391,128.5 L435.93,105.171 C434.864,103.245 435.537,100.82 437.444,99.719 C439.35,98.617 441.787,99.247 442.923,101.133 L449.395,112.346 C449.862,113.206 450.759,113.745 451.738,113.754 C452.716,113.762 453.623,113.239 454.104,112.387 C454.586,111.535 454.567,110.488 454.056,109.654 L442.788,90.135 C442.035,88.884 442.016,87.323 442.738,86.054 C443.461,84.785 444.812,84.004 446.272,84.013 C447.733,84.022 449.075,84.818 449.782,86.096 L460.288,104.269 C460.756,105.129 461.653,105.668 462.631,105.677 C463.61,105.685 464.516,105.162 464.998,104.31 C465.48,103.458 465.461,102.411 464.95,101.577 L456.778,87.442 L456.778,87.442 C456.025,86.191 456.006,84.631 456.728,83.362 C457.451,82.092 458.802,81.312 460.262,81.321 C461.723,81.33 463.065,82.126 463.772,83.404 L475.019,102.889 C469.617,108.375 468.837,116.91 473.154,123.284 C473.988,124.513 475.664,124.834 476.895,123.998 C478.126,123.163 478.447,121.488 477.611,120.257 C474.398,115.501 475.48,109.061 480.07,105.615 C481.16,104.798 481.468,103.295 480.787,102.115 L478.539,98.212 C477.76,96.96 477.726,95.383 478.449,94.099 C479.171,92.814 480.537,92.025 482.011,92.041 C483.485,92.056 484.833,92.873 485.529,94.173 L491.354,104.269 C494.583,109.828 495.455,116.446 493.777,122.651 Z M483.93,78.595 C484.307,77.159 485.775,76.3 487.212,76.673 C492.406,78.042 496.834,81.436 499.505,86.096 L499.616,86.288 C500.128,87.122 500.147,88.169 499.665,89.021 C499.183,89.873 498.277,90.396 497.298,90.388 C496.319,90.379 495.422,89.84 494.955,88.98 L494.844,88.788 C492.884,85.373 489.634,82.888 485.825,81.889 C484.394,81.501 483.547,80.027 483.93,78.595 Z M449.146,147.683 C448.225,148.849 446.534,149.05 445.366,148.13 C441.339,144.95 437.958,141.028 435.405,136.577 C434.661,135.288 435.103,133.641 436.392,132.898 C437.68,132.155 439.327,132.597 440.07,133.885 C442.283,137.738 445.212,141.133 448.698,143.887 C449.263,144.33 449.628,144.979 449.712,145.692 C449.796,146.404 449.592,147.121 449.146,147.683 Z" />
        </g>
        <g id="Black-S">
            <path d="M696.019,101.577 L690.193,91.481 C687.591,86.975 681.831,85.431 677.324,88.031 C676.117,88.729 675.082,89.688 674.295,90.838 L668.433,80.712 C666.749,77.799 663.639,76.005 660.275,76.005 C656.911,76.005 653.801,77.799 652.117,80.712 C648.568,77.917 643.534,78.034 640.119,80.992 C636.704,83.949 635.868,88.915 638.127,92.827 L638.663,93.756 C637.27,93.864 635.92,94.284 634.712,94.984 C630.205,97.587 628.662,103.35 631.265,107.857 L644.727,131.186 C648.639,138.001 655.113,142.969 662.708,144.984 C665.224,145.656 667.817,145.995 670.422,145.993 C680.993,145.975 690.753,140.323 696.031,131.164 C701.309,122.004 701.305,110.725 696.019,101.57 Z M693.777,122.658 C691.239,132.122 683.251,139.126 673.536,140.405 C663.821,141.683 654.292,136.985 649.391,128.5 L635.93,105.171 C634.864,103.245 635.537,100.82 637.444,99.719 C639.35,98.617 641.787,99.247 642.923,101.133 L649.395,112.346 C649.862,113.206 650.759,113.745 651.738,113.754 C652.716,113.762 653.623,113.239 654.104,112.387 C654.586,111.535 654.568,110.488 654.056,109.654 L642.788,90.135 C642.035,88.884 642.016,87.323 642.738,86.054 C643.461,84.785 644.812,84.004 646.272,84.013 C647.733,84.022 649.075,84.818 649.782,86.096 L660.288,104.269 C660.756,105.129 661.653,105.668 662.631,105.677 C663.61,105.685 664.516,105.162 664.998,104.31 C665.48,103.458 665.461,102.411 664.95,101.577 L656.778,87.442 L656.778,87.442 C656.025,86.191 656.006,84.631 656.728,83.362 C657.451,82.092 658.802,81.312 660.262,81.321 C661.723,81.33 663.065,82.126 663.772,83.404 L675.019,102.889 C669.617,108.375 668.837,116.91 673.154,123.284 C673.988,124.513 675.664,124.834 676.895,123.998 C678.126,123.163 678.447,121.488 677.611,120.257 C674.399,115.501 675.48,109.061 680.07,105.615 C681.16,104.798 681.468,103.295 680.787,102.115 L678.539,98.212 C677.76,96.96 677.726,95.383 678.449,94.099 C679.171,92.814 680.537,92.025 682.011,92.041 C683.485,92.056 684.833,92.873 685.529,94.173 L691.354,104.269 C694.583,109.828 695.455,116.446 693.777,122.651 Z M683.93,78.595 C684.307,77.159 685.775,76.3 687.212,76.673 C692.406,78.042 696.834,81.436 699.505,86.096 L699.616,86.288 C700.128,87.122 700.147,88.169 699.665,89.021 C699.183,89.873 698.277,90.396 697.298,90.388 C696.319,90.379 695.422,89.84 694.955,88.98 L694.844,88.788 C692.884,85.373 689.634,82.888 685.825,81.889 C684.394,81.501 683.547,80.027 683.93,78.595 Z M649.146,147.683 C648.225,148.849 646.534,149.05 645.366,148.13 C641.34,144.95 637.958,141.028 635.405,136.577 C634.661,135.288 635.103,133.641 636.392,132.898 C637.68,132.155 639.327,132.597 640.07,133.885 C642.283,137.738 645.212,141.133 648.699,143.887 C649.263,144.33 649.628,144.979 649.712,145.692 C649.796,146.404 649.592,147.121 649.146,147.683 Z" />
        </g>
    </g>
</svg>