<?xml version="1.0" encoding="UTF-8"?>
<svg height="600" width="800" xmlns="http://www.w3.org/2000/svg" xmlns:xlink="http://www.w3.org/1999/xlink">
    <g id="Notes" font-family="'LucidaGrande', 'Lucida Grande', sans-serif" font-size="13">
        <rect fill="white" height="600.0" width="800.0" x="0.0" y="0.0" />
        <g font-size="13">
            <text x="18.0" y="176.0">Small</text>
            <text x="18.0" y="376.0">Medium</text>
            <text x="18.0" y="576.0">Large</text>
        </g>
        <g font-size="9">
            <text x="250.0" y="30.0">Ultralight</text>
            <text x="450.0" y="30.0">Regular</text>
            <text x="650.0" y="30.0">Black</text>
            <text id="template-version" fill="#505050" text-anchor="end" x="785.0" y="575.0">Template v.3.0</text>
            <a href="https://github.com/swhitty/SwiftDraw">
                <text fill="#505050" text-anchor="end" x="785.0" y="590.0">https://github.com/swhitty/SwiftDraw</text>
            </a>
        </g>
    </g>
    <g id="Guides" stroke="rgb(39, 170, 225)" stroke-width="0.5">
        <path id="Capline-S" d="M18,76 l800,0" />
        <path id="H-reference" d="M85,145.755 L87.685,145.755 L113.369,79.287 L114.052,79.287 L114.052,76 L112.148,76 L85,145.755 Z M95.693,121.536 L130.996,121.536 L130.263,119.313 L96.474,119.313 L95.693,121.536 Z M139.15,145.755 L141.787,145.755 L114.638,76 L113.466,76 L113.466,79.287 L139.15,145.755 Z" stroke="none" />
        <path id="Baseline-S" d="M18,146 l800,0" />
        <path id="left-margin-Ultralight-S" d="M220,56 l0,110" />
        <path id="right-margin-Ultralight-S" d="M310,56 l0,110" />
        <path id="left-margin-Regular-S" d="M420,56 l0,110" />
        <path id="right-margin-Regular-S" d="M510,56 l0,110" />
        <path id="left-margin-Black-S" d="M620,56 l0,110" />
        <path id="right-margin-Black-S" d="M710,56 l0,110" />
        <path id="Capline-M" d="M18,276 l800,0" />
        <path id="Baseline-M" d="M18,346 l800,0" />
        <path id="Capline-L" d="M18,476 l800,0" />
        <path id="Baseline-L" d="M18,546 l800,0" />
    </g>
    <g id="Symbols">
        <g id="Ultralight-S">
            <path d="M265,76 L265,76 C245.67,76 230,91.67 230,111 C230,130.33 245.67,146 265,146 C284.33,146 300,130.33 300,111 C299.978,91.679 284.321,76.022 265,76 Z M294.487,108.308 L281.083,108.308 C280.481,96.021 275.749,87.331 271.869,82.192 C284.222,85.159 293.317,95.658 294.491,108.308 Z M254.308,113.692 L275.692,113.692 C274.914,127.696 268.211,136.277 265,139.606 C261.786,136.274 255.086,127.692 254.308,113.692 Z M254.308,108.308 C255.086,94.304 261.789,85.723 265,82.394 C268.214,85.736 274.914,94.318 275.692,108.308 Z M258.131,82.192 C254.251,87.331 249.519,96.021 248.917,108.308 L235.509,108.308 C236.683,95.658 245.778,85.159 258.131,82.192 Z M235.509,113.692 L248.917,113.692 C249.529,125.979 254.251,134.669 258.131,139.808 C245.778,136.841 236.683,126.342 235.509,113.692 Z M271.855,139.808 C275.736,134.669 280.457,125.979 281.07,113.692 L294.477,113.692 C293.305,126.338 284.216,136.836 271.869,139.808 Z" />
        </g>
        <g id="Regular-S">
            <path d="M465,76 L465,76 C445.67,76 430,91.67 430,111 C430,130.33 445.67,146 465,146 C484.33,146 500,130.33 500,111 C499.978,91.679 484.321,76.022 465,76 Z M494.487,108.308 L481.083,108.308 C480.481,96.021 475.749,87.331 471.869,82.192 C484.222,85.159 493.317,95.658 494.491,108.308 Z M454.308,113.692 L475.692,113.692 C474.914,127.696 468.211,136.277 465,139.606 C461.786,136.274 455.086,127.692 454.308,113.692 Z M454.308,108.308 C455.086,94.304 461.789,85.723 465,82.394 C468.214,85.736 474.914,94.318 475.692,108.308 Z M458.131,82.192 C454.251,87.331 449.519,96.021 448.917,108.308 L435.509,108.308 C436.683,95.658 445.778,85.159 458.131,82.192 Z M435.509,113.692 L448.917,113.692 C449.529,125.979 454.251,134.669 458.131,139.808 C445.778,136.841 436.683,126.342 435.509,113.692 Z M471.855,139.808 C475.736,134.669 480.457,125.979 481.07,113.692 L494.477,113.692 C493.305,126.338 484.216,136.836 471.869,139.808 Z" />
        </g>
        <g id="Black-S">
            <path d="M665,76 L665,76 C645.67,76 630,91.67 630,111 C630,130.33 645.67,146 665,146 C684.33,146 700,130.33 700,111 C699.978,91.679 684.321,76.022 665,76 Z M694.488,108.308 L681.083,108.308 C680.481,96.021 675.749,87.331 671.869,82.192 C684.222,85.159 693.317,95.658 694.491,108.308 Z M654.308,113.692 L675.692,113.692 C674.914,127.696 668.211,136.277 665,139.606 C661.786,136.274 655.086,127.692 654.308,113.692 Z M654.308,108.308 C655.086,94.304 661.789,85.723 665,82.394 C668.214,85.736 674.914,94.318 675.692,108.308 Z M658.131,82.192 C654.251,87.331 649.519,96.021 648.917,108.308 L635.509,108.308 C636.683,95.658 645.779,85.159 658.131,82.192 Z M635.509,113.692 L648.917,113.692 C649.529,125.979 654.251,134.669 658.131,139.808 C645.779,136.841 636.683,126.342 635.509,113.692 Z M671.855,139.808 C675.736,134.669 680.457,125.979 681.07,113.692 L694.477,113.692 C693.305,126.338 684.216,136.836 671.869,139.808 Z" />
        </g>
    </g>
</svg>