<?xml version="1.0" encoding="UTF-8"?>
<svg height="600" width="800" xmlns="http://www.w3.org/2000/svg" xmlns:xlink="http://www.w3.org/1999/xlink">
    <g id="Notes" font-family="'LucidaGrande', 'Lucida Grande', sans-serif" font-size="13">
        <rect fill="white" height="600.0" width="800.0" x="0.0" y="0.0" />
        <g font-size="13">
            <text x="18.0" y="176.0">Small</text>
            <text x="18.0" y="376.0">Medium</text>
            <text x="18.0" y="576.0">Large</text>
        </g>
        <g font-size="9">
            <text x="250.0" y="30.0">Ultralight</text>
            <text x="450.0" y="30.0">Regular</text>
            <text x="650.0" y="30.0">Black</text>
            <text id="template-version" fill="#505050" text-anchor="end" x="785.0" y="575.0">Template v.3.0</text>
            <a href="https://github.com/swhitty/SwiftDraw">
                <text fill="#505050" text-anchor="end" x="785.0" y="590.0">https://github.com/swhitty/SwiftDraw</text>
            </a>
        </g>
    </g>
    <g id="Guides" stroke="rgb(39, 170, 225)" stroke-width="0.5">
        <path id="Capline-S" d="M18,76 l800,0" />
        <path id="H-reference" d="M85,145.755 L87.685,145.755 L113.369,79.287 L114.052,79.287 L114.052,76 L112.148,76 L85,145.755 Z M95.693,121.536 L130.996,121.536 L130.263,119.313 L96.474,119.313 L95.693,121.536 Z M139.15,145.755 L141.787,145.755 L114.638,76 L113.466,76 L113.466,79.287 L139.15,145.755 Z" stroke="none" />
        <path id="Baseline-S" d="M18,146 l800,0" />
        <path id="left-margin-Ultralight-S" d="M220,56 l0,110" />
        <path id="right-margin-Ultralight-S" d="M310,56 l0,110" />
        <path id="left-margin-Regular-S" d="M420,56 l0,110" />
        <path id="right-margin-Regular-S" d="M510,56 l0,110" />
        <path id="left-margin-Black-S" d="M620,56 l0,110" />
        <path id="right-margin-Black-S" d="M710,56 l0,110" />
        <path id="Capline-M" d="M18,276 l800,0" />
        <path id="Baseline-M" d="M18,346 l800,0" />
        <path id="Capline-L" d="M18,476 l800,0" />
        <path id="Baseline-L" d="M18,546 l800,0" />
    </g>
    <g id="Symbols">
        <g id="Ultralight-S">
            <path d="M278.462,102.923 C278.462,95.488 272.435,89.462 265,89.462 C257.565,89.462 251.538,95.488 251.538,102.923 C251.538,110.358 257.565,116.385 265,116.385 C268.57,116.385 271.994,114.966 274.519,112.442 C277.043,109.917 278.462,106.493 278.462,102.923 Z M256.923,102.923 C256.923,98.462 260.539,94.846 265,94.846 C269.461,94.846 273.077,98.462 273.077,102.923 C273.077,107.384 269.461,111 265,111 C262.858,111 260.803,110.149 259.289,108.634 C257.774,107.12 256.923,105.065 256.923,102.923 Z M297.308,135.231 L267.692,135.231 L267.692,129.712 C281.966,128.277 292.607,115.903 291.889,101.576 C291.171,87.248 279.345,76 265,76 C250.655,76 238.829,87.248 238.111,101.576 C237.393,115.903 248.034,128.277 262.308,129.712 L262.308,135.231 L232.692,135.231 C231.205,135.231 230,136.436 230,137.923 C230,139.41 231.205,140.615 232.692,140.615 L297.308,140.615 C298.795,140.615 300,139.41 300,137.923 C300,136.436 298.795,135.231 297.308,135.231 Z M243.462,102.923 C243.462,91.028 253.105,81.385 265,81.385 C276.895,81.385 286.538,91.028 286.538,102.923 C286.538,114.818 276.895,124.462 265,124.462 C253.11,124.449 243.475,114.813 243.462,102.923 Z" />
        </g>
        <g id="Regular-S">
            <path d="M478.462,102.923 C478.462,95.488 472.435,89.462 465,89.462 C457.565,89.462 451.538,95.488 451.538,102.923 C451.538,110.358 457.565,116.385 465,116.385 C468.57,116.385 471.994,114.966 474.519,112.442 C477.043,109.917 478.462,106.493 478.462,102.923 Z M456.923,102.923 C456.923,98.462 460.539,94.846 465,94.846 C469.461,94.846 473.077,98.462 473.077,102.923 C473.077,107.384 469.461,111 465,111 C462.858,111 460.803,110.149 459.289,108.634 C457.774,107.12 456.923,105.065 456.923,102.923 Z M497.308,135.231 L467.692,135.231 L467.692,129.712 C481.966,128.277 492.607,115.903 491.889,101.576 C491.171,87.248 479.345,76 465,76 C450.655,76 438.829,87.248 438.111,101.576 C437.392,115.903 448.034,128.277 462.308,129.712 L462.308,135.231 L432.692,135.231 C431.205,135.231 430,136.436 430,137.923 C430,139.41 431.205,140.615 432.692,140.615 L497.308,140.615 C498.795,140.615 500,139.41 500,137.923 C500,136.436 498.795,135.231 497.308,135.231 Z M443.462,102.923 C443.462,91.028 453.105,81.385 465,81.385 C476.895,81.385 486.538,91.028 486.538,102.923 C486.538,114.818 476.895,124.462 465,124.462 C453.11,124.449 443.475,114.813 443.462,102.923 Z" />
        </g>
        <g id="Black-S">
            <path d="M678.462,102.923 C678.462,95.488 672.435,89.462 665,89.462 C657.565,89.462 651.538,95.488 651.538,102.923 C651.538,110.358 657.565,116.385 665,116.385 C668.57,116.385 671.994,114.966 674.519,112.442 C677.043,109.917 678.462,106.493 678.462,102.923 Z M656.923,102.923 C656.923,98.462 660.539,94.846 665,94.846 C669.461,94.846 673.077,98.462 673.077,102.923 C673.077,107.384 669.461,111 665,111 C662.858,111 660.803,110.149 659.289,108.634 C657.774,107.12 656.923,105.065 656.923,102.923 Z M697.308,135.231 L667.692,135.231 L667.692,129.712 C681.966,128.277 692.607,115.903 691.889,101.576 C691.171,87.248 679.345,76 665,76 C650.655,76 638.829,87.248 638.111,101.576 C637.393,115.903 648.034,128.277 662.308,129.712 L662.308,135.231 L632.692,135.231 C631.205,135.231 630,136.436 630,137.923 C630,139.41 631.205,140.615 632.692,140.615 L697.308,140.615 C698.795,140.615 700,139.41 700,137.923 C700,136.436 698.795,135.231 697.308,135.231 Z M643.462,102.923 C643.462,91.028 653.105,81.385 665,81.385 C676.895,81.385 686.538,91.028 686.538,102.923 C686.539,114.818 676.895,124.462 665,124.462 C653.11,124.449 643.475,114.813 643.462,102.923 Z" />
        </g>
    </g>
</svg>