<?xml version="1.0" encoding="UTF-8"?>
<svg height="600" width="800" xmlns="http://www.w3.org/2000/svg" xmlns:xlink="http://www.w3.org/1999/xlink">
    <g id="Notes" font-family="'LucidaGrande', 'Lucida Grande', sans-serif" font-size="13">
        <rect fill="white" height="600.0" width="800.0" x="0.0" y="0.0" />
        <g font-size="13">
            <text x="18.0" y="176.0">Small</text>
            <text x="18.0" y="376.0">Medium</text>
            <text x="18.0" y="576.0">Large</text>
        </g>
        <g font-size="9">
            <text x="250.0" y="30.0">Ultralight</text>
            <text x="450.0" y="30.0">Regular</text>
            <text x="650.0" y="30.0">Black</text>
            <text id="template-version" fill="#505050" text-anchor="end" x="785.0" y="575.0">Template v.3.0</text>
            <a href="https://github.com/swhitty/SwiftDraw">
                <text fill="#505050" text-anchor="end" x="785.0" y="590.0">https://github.com/swhitty/SwiftDraw</text>
            </a>
        </g>
    </g>
    <g id="Guides" stroke="rgb(39, 170, 225)" stroke-width="0.5">
        <path id="Capline-S" d="M18,76 l800,0" />
        <path id="H-reference" d="M85,145.755 L87.685,145.755 L113.369,79.287 L114.052,79.287 L114.052,76 L112.148,76 L85,145.755 Z M95.693,121.536 L130.996,121.536 L130.263,119.313 L96.474,119.313 L95.693,121.536 Z M139.15,145.755 L141.787,145.755 L114.638,76 L113.466,76 L113.466,79.287 L139.15,145.755 Z" stroke="none" />
        <path id="Baseline-S" d="M18,146 l800,0" />
        <path id="left-margin-Ultralight-S" d="M220,56 l0,110" />
        <path id="right-margin-Ultralight-S" d="M310,56 l0,110" />
        <path id="left-margin-Regular-S" d="M420,56 l0,110" />
        <path id="right-margin-Regular-S" d="M510,56 l0,110" />
        <path id="left-margin-Black-S" d="M620,56 l0,110" />
        <path id="right-margin-Black-S" d="M710,56 l0,110" />
        <path id="Capline-M" d="M18,276 l800,0" />
        <path id="Baseline-M" d="M18,346 l800,0" />
        <path id="Capline-L" d="M18,476 l800,0" />
        <path id="Baseline-L" d="M18,546 l800,0" />
    </g>
    <g id="Symbols">
        <g id="Ultralight-S">
            <path d="M256.923,97.538 L256.923,129.846 C256.923,131.333 255.718,132.538 254.231,132.538 C252.744,132.538 251.538,131.333 251.538,129.846 L251.538,97.538 C251.538,96.052 252.744,94.846 254.231,94.846 C255.718,94.846 256.923,96.052 256.923,97.538 Z M265,94.846 C264.286,94.846 263.601,95.13 263.096,95.635 C262.591,96.14 262.308,96.824 262.308,97.538 L262.308,129.846 C262.308,131.333 263.513,132.538 265,132.538 C266.487,132.538 267.692,131.333 267.692,129.846 L267.692,97.538 C267.692,96.824 267.409,96.14 266.904,95.635 C266.399,95.13 265.714,94.846 265,94.846 Z M275.769,94.846 C275.055,94.846 274.37,95.13 273.865,95.635 C273.361,96.14 273.077,96.824 273.077,97.538 L273.077,129.846 C273.077,131.333 274.282,132.538 275.769,132.538 C277.256,132.538 278.462,131.333 278.462,129.846 L278.462,97.538 C278.462,96.824 278.178,96.14 277.673,95.635 C277.168,95.13 276.483,94.846 275.769,94.846 Z M291.923,89.462 L291.923,137.923 C291.923,139.351 291.356,140.721 290.346,141.731 C289.336,142.74 287.967,143.308 286.538,143.308 L281.154,143.308 L281.154,148.692 C281.154,150.179 279.948,151.385 278.462,151.385 C276.975,151.385 275.769,150.179 275.769,148.692 L275.769,143.308 L254.231,143.308 L254.231,148.692 C254.231,150.179 253.025,151.385 251.538,151.385 C250.052,151.385 248.846,150.179 248.846,148.692 L248.846,143.308 L243.462,143.308 C242.033,143.308 240.664,142.74 239.654,141.731 C238.644,140.721 238.077,139.351 238.077,137.923 L238.077,89.462 C238.077,88.033 238.644,86.664 239.654,85.654 C240.664,84.644 242.033,84.077 243.462,84.077 L251.538,84.077 L251.538,76 C251.538,73.858 252.389,71.803 253.904,70.289 C255.419,68.774 257.473,67.923 259.615,67.923 L270.385,67.923 C272.527,67.923 274.581,68.774 276.096,70.289 C277.611,71.803 278.462,73.858 278.462,76 L278.462,84.077 L286.538,84.077 C287.967,84.077 289.336,84.644 290.346,85.654 C291.356,86.664 291.923,88.033 291.923,89.462 Z M256.923,84.077 L273.077,84.077 L273.077,76 C273.077,75.286 272.793,74.601 272.288,74.096 C271.783,73.591 271.099,73.308 270.385,73.308 L259.615,73.308 C258.901,73.308 258.217,73.591 257.712,74.096 C257.207,74.601 256.923,75.286 256.923,76 Z M286.538,137.923 L286.538,89.462 L243.462,89.462 L243.462,137.923 L286.538,137.923 Z" />
        </g>
        <g id="Regular-S">
            <path d="M456.923,97.538 L456.923,129.846 C456.923,131.333 455.718,132.538 454.231,132.538 C452.744,132.538 451.538,131.333 451.538,129.846 L451.538,97.538 C451.538,96.052 452.744,94.846 454.231,94.846 C455.718,94.846 456.923,96.052 456.923,97.538 Z M465,94.846 C464.286,94.846 463.601,95.13 463.096,95.635 C462.591,96.14 462.308,96.824 462.308,97.538 L462.308,129.846 C462.308,131.333 463.513,132.538 465,132.538 C466.487,132.538 467.692,131.333 467.692,129.846 L467.692,97.538 C467.692,96.824 467.409,96.14 466.904,95.635 C466.399,95.13 465.714,94.846 465,94.846 Z M475.769,94.846 C475.055,94.846 474.37,95.13 473.865,95.635 C473.361,96.14 473.077,96.824 473.077,97.538 L473.077,129.846 C473.077,131.333 474.282,132.538 475.769,132.538 C477.256,132.538 478.462,131.333 478.462,129.846 L478.462,97.538 C478.462,96.824 478.178,96.14 477.673,95.635 C477.168,95.13 476.483,94.846 475.769,94.846 Z M491.923,89.462 L491.923,137.923 C491.923,139.351 491.356,140.721 490.346,141.731 C489.336,142.74 487.967,143.308 486.538,143.308 L481.154,143.308 L481.154,148.692 C481.154,150.179 479.948,151.385 478.462,151.385 C476.975,151.385 475.769,150.179 475.769,148.692 L475.769,143.308 L454.231,143.308 L454.231,148.692 C454.231,150.179 453.025,151.385 451.538,151.385 C450.052,151.385 448.846,150.179 448.846,148.692 L448.846,143.308 L443.462,143.308 C442.033,143.308 440.664,142.74 439.654,141.731 C438.644,140.721 438.077,139.351 438.077,137.923 L438.077,89.462 C438.077,88.033 438.644,86.664 439.654,85.654 C440.664,84.644 442.033,84.077 443.462,84.077 L451.538,84.077 L451.538,76 C451.538,73.858 452.389,71.803 453.904,70.289 C455.419,68.774 457.473,67.923 459.615,67.923 L470.385,67.923 C472.527,67.923 474.581,68.774 476.096,70.289 C477.611,71.803 478.462,73.858 478.462,76 L478.462,84.077 L486.538,84.077 C487.967,84.077 489.336,84.644 490.346,85.654 C491.356,86.664 491.923,88.033 491.923,89.462 Z M456.923,84.077 L473.077,84.077 L473.077,76 C473.077,75.286 472.793,74.601 472.288,74.096 C471.783,73.591 471.099,73.308 470.385,73.308 L459.615,73.308 C458.901,73.308 458.217,73.591 457.712,74.096 C457.207,74.601 456.923,75.286 456.923,76 Z M486.538,137.923 L486.538,89.462 L443.462,89.462 L443.462,137.923 L486.538,137.923 Z" />
        </g>
        <g id="Black-S">
            <path d="M656.923,97.538 L656.923,129.846 C656.923,131.333 655.718,132.538 654.231,132.538 C652.744,132.538 651.538,131.333 651.538,129.846 L651.538,97.538 C651.538,96.052 652.744,94.846 654.231,94.846 C655.718,94.846 656.923,96.052 656.923,97.538 Z M665,94.846 C664.286,94.846 663.601,95.13 663.096,95.635 C662.591,96.14 662.308,96.824 662.308,97.538 L662.308,129.846 C662.308,131.333 663.513,132.538 665,132.538 C666.487,132.538 667.692,131.333 667.692,129.846 L667.692,97.538 C667.692,96.824 667.409,96.14 666.904,95.635 C666.399,95.13 665.714,94.846 665,94.846 Z M675.769,94.846 C675.055,94.846 674.37,95.13 673.865,95.635 C673.361,96.14 673.077,96.824 673.077,97.538 L673.077,129.846 C673.077,131.333 674.282,132.538 675.769,132.538 C677.256,132.538 678.462,131.333 678.462,129.846 L678.462,97.538 C678.462,96.824 678.178,96.14 677.673,95.635 C677.168,95.13 676.483,94.846 675.769,94.846 Z M691.923,89.462 L691.923,137.923 C691.923,139.351 691.356,140.721 690.346,141.731 C689.336,142.74 687.967,143.308 686.538,143.308 L681.154,143.308 L681.154,148.692 C681.154,150.179 679.948,151.385 678.462,151.385 C676.975,151.385 675.769,150.179 675.769,148.692 L675.769,143.308 L654.231,143.308 L654.231,148.692 C654.231,150.179 653.025,151.385 651.538,151.385 C650.052,151.385 648.846,150.179 648.846,148.692 L648.846,143.308 L643.462,143.308 C642.033,143.308 640.664,142.74 639.654,141.731 C638.644,140.721 638.077,139.351 638.077,137.923 L638.077,89.462 C638.077,88.033 638.644,86.664 639.654,85.654 C640.664,84.644 642.033,84.077 643.462,84.077 L651.538,84.077 L651.538,76 C651.538,73.858 652.389,71.803 653.904,70.289 C655.419,68.774 657.473,67.923 659.615,67.923 L670.385,67.923 C672.527,67.923 674.581,68.774 676.096,70.289 C677.611,71.803 678.462,73.858 678.462,76 L678.462,84.077 L686.538,84.077 C687.967,84.077 689.336,84.644 690.346,85.654 C691.356,86.664 691.923,88.033 691.923,89.462 Z M656.923,84.077 L673.077,84.077 L673.077,76 C673.077,75.286 672.793,74.601 672.288,74.096 C671.783,73.591 671.099,73.308 670.385,73.308 L659.615,73.308 C658.901,73.308 658.217,73.591 657.712,74.096 C657.207,74.601 656.923,75.286 656.923,76 Z M686.538,137.923 L686.538,89.462 L643.462,89.462 L643.462,137.923 L686.538,137.923 Z" />
        </g>
    </g>
</svg>