<?xml version="1.0" encoding="UTF-8"?>
<svg height="600" width="800" xmlns="http://www.w3.org/2000/svg" xmlns:xlink="http://www.w3.org/1999/xlink">
    <g id="Notes" font-family="'LucidaGrande', 'Lucida Grande', sans-serif" font-size="13">
        <rect fill="white" height="600.0" width="800.0" x="0.0" y="0.0" />
        <g font-size="13">
            <text x="18.0" y="176.0">Small</text>
            <text x="18.0" y="376.0">Medium</text>
            <text x="18.0" y="576.0">Large</text>
        </g>
        <g font-size="9">
            <text x="250.0" y="30.0">Ultralight</text>
            <text x="450.0" y="30.0">Regular</text>
            <text x="650.0" y="30.0">Black</text>
            <text id="template-version" fill="#505050" text-anchor="end" x="785.0" y="575.0">Template v.3.0</text>
            <a href="https://github.com/swhitty/SwiftDraw">
                <text fill="#505050" text-anchor="end" x="785.0" y="590.0">https://github.com/swhitty/SwiftDraw</text>
            </a>
        </g>
    </g>
    <g id="Guides" stroke="rgb(39, 170, 225)" stroke-width="0.5">
        <path id="Capline-S" d="M18,76 l800,0" />
        <path id="H-reference" d="M85,145.755 L87.685,145.755 L113.369,79.287 L114.052,79.287 L114.052,76 L112.148,76 L85,145.755 Z M95.693,121.536 L130.996,121.536 L130.263,119.313 L96.474,119.313 L95.693,121.536 Z M139.15,145.755 L141.787,145.755 L114.638,76 L113.466,76 L113.466,79.287 L139.15,145.755 Z" stroke="none" />
        <path id="Baseline-S" d="M18,146 l800,0" />
        <path id="left-margin-Ultralight-S" d="M220,56 l0,110" />
        <path id="right-margin-Ultralight-S" d="M310,56 l0,110" />
        <path id="left-margin-Regular-S" d="M420,56 l0,110" />
        <path id="right-margin-Regular-S" d="M510,56 l0,110" />
        <path id="left-margin-Black-S" d="M620,56 l0,110" />
        <path id="right-margin-Black-S" d="M710,56 l0,110" />
        <path id="Capline-M" d="M18,276 l800,0" />
        <path id="Baseline-M" d="M18,346 l800,0" />
        <path id="Capline-L" d="M18,476 l800,0" />
        <path id="Baseline-L" d="M18,546 l800,0" />
    </g>
    <g id="Symbols">
        <g id="Ultralight-S">
            <path d="M289.231,78.692 L275.769,78.692 C274.341,78.692 272.972,79.26 271.962,80.269 C270.952,81.279 270.385,82.649 270.385,84.077 L270.385,137.923 C270.385,139.351 270.952,140.721 271.962,141.731 C272.972,142.74 274.341,143.308 275.769,143.308 L289.231,143.308 C290.659,143.308 292.028,142.74 293.038,141.731 C294.048,140.721 294.615,139.351 294.615,137.923 L294.615,84.077 C294.615,82.649 294.048,81.279 293.038,80.269 C292.028,79.26 290.659,78.692 289.231,78.692 Z M289.231,137.923 L275.769,137.923 L275.769,84.077 L289.231,84.077 Z M254.231,78.692 L240.769,78.692 C239.341,78.692 237.972,79.26 236.962,80.269 C235.952,81.279 235.385,82.649 235.385,84.077 L235.385,137.923 C235.385,139.351 235.952,140.721 236.962,141.731 C237.972,142.74 239.341,143.308 240.769,143.308 L254.231,143.308 C255.659,143.308 257.028,142.74 258.038,141.731 C259.048,140.721 259.615,139.351 259.615,137.923 L259.615,84.077 C259.615,82.649 259.048,81.279 258.038,80.269 C257.028,79.26 255.659,78.692 254.231,78.692 Z M254.231,137.923 L240.769,137.923 L240.769,84.077 L254.231,84.077 Z" />
        </g>
        <g id="Regular-S">
            <path d="M489.231,78.692 L475.769,78.692 C474.341,78.692 472.972,79.26 471.962,80.269 C470.952,81.279 470.385,82.649 470.385,84.077 L470.385,137.923 C470.385,139.351 470.952,140.721 471.962,141.731 C472.972,142.74 474.341,143.308 475.769,143.308 L489.231,143.308 C490.659,143.308 492.028,142.74 493.038,141.731 C494.048,140.721 494.615,139.351 494.615,137.923 L494.615,84.077 C494.615,82.649 494.048,81.279 493.038,80.269 C492.028,79.26 490.659,78.692 489.231,78.692 Z M489.231,137.923 L475.769,137.923 L475.769,84.077 L489.231,84.077 Z M454.231,78.692 L440.769,78.692 C439.341,78.692 437.972,79.26 436.962,80.269 C435.952,81.279 435.385,82.649 435.385,84.077 L435.385,137.923 C435.385,139.351 435.952,140.721 436.962,141.731 C437.972,142.74 439.341,143.308 440.769,143.308 L454.231,143.308 C455.659,143.308 457.028,142.74 458.038,141.731 C459.048,140.721 459.615,139.351 459.615,137.923 L459.615,84.077 C459.615,82.649 459.048,81.279 458.038,80.269 C457.028,79.26 455.659,78.692 454.231,78.692 Z M454.231,137.923 L440.769,137.923 L440.769,84.077 L454.231,84.077 Z" />
        </g>
        <g id="Black-S">
            <path d="M689.231,78.692 L675.769,78.692 C674.341,78.692 672.972,79.26 671.962,80.269 C670.952,81.279 670.385,82.649 670.385,84.077 L670.385,137.923 C670.385,139.351 670.952,140.721 671.962,141.731 C672.972,142.74 674.341,143.308 675.769,143.308 L689.231,143.308 C690.659,143.308 692.028,142.74 693.038,141.731 C694.048,140.721 694.615,139.351 694.615,137.923 L694.615,84.077 C694.615,82.649 694.048,81.279 693.038,80.269 C692.028,79.26 690.659,78.692 689.231,78.692 Z M689.231,137.923 L675.769,137.923 L675.769,84.077 L689.231,84.077 Z M654.231,78.692 L640.769,78.692 C639.341,78.692 637.972,79.26 636.962,80.269 C635.952,81.279 635.385,82.649 635.385,84.077 L635.385,137.923 C635.385,139.351 635.952,140.721 636.962,141.731 C637.972,142.74 639.341,143.308 640.769,143.308 L654.231,143.308 C655.659,143.308 657.028,142.74 658.038,141.731 C659.048,140.721 659.615,139.351 659.615,137.923 L659.615,84.077 C659.615,82.649 659.048,81.279 658.038,80.269 C657.028,79.26 655.659,78.692 654.231,78.692 Z M654.231,137.923 L640.769,137.923 L640.769,84.077 L654.231,84.077 Z" />
        </g>
    </g>
</svg>