<?xml version="1.0" encoding="UTF-8"?>
<svg height="600" width="800" xmlns="http://www.w3.org/2000/svg" xmlns:xlink="http://www.w3.org/1999/xlink">
    <g id="Notes" font-family="'LucidaGrande', 'Lucida Grande', sans-serif" font-size="13">
        <rect fill="white" height="600.0" width="800.0" x="0.0" y="0.0" />
        <g font-size="13">
            <text x="18.0" y="176.0">Small</text>
            <text x="18.0" y="376.0">Medium</text>
            <text x="18.0" y="576.0">Large</text>
        </g>
        <g font-size="9">
            <text x="250.0" y="30.0">Ultralight</text>
            <text x="450.0" y="30.0">Regular</text>
            <text x="650.0" y="30.0">Black</text>
            <text id="template-version" fill="#505050" text-anchor="end" x="785.0" y="575.0">Template v.3.0</text>
            <a href="https://github.com/swhitty/SwiftDraw">
                <text fill="#505050" text-anchor="end" x="785.0" y="590.0">https://github.com/swhitty/SwiftDraw</text>
            </a>
        </g>
    </g>
    <g id="Guides" stroke="rgb(39, 170, 225)" stroke-width="0.5">
        <path id="Capline-S" d="M18,76 l800,0" />
        <path id="H-reference" d="M85,145.755 L87.685,145.755 L113.369,79.287 L114.052,79.287 L114.052,76 L112.148,76 L85,145.755 Z M95.693,121.536 L130.996,121.536 L130.263,119.313 L96.474,119.313 L95.693,121.536 Z M139.15,145.755 L141.787,145.755 L114.638,76 L113.466,76 L113.466,79.287 L139.15,145.755 Z" stroke="none" />
        <path id="Baseline-S" d="M18,146 l800,0" />
        <path id="left-margin-Ultralight-S" d="M220,56 l0,110" />
        <path id="right-margin-Ultralight-S" d="M310,56 l0,110" />
        <path id="left-margin-Regular-S" d="M420,56 l0,110" />
        <path id="right-margin-Regular-S" d="M510,56 l0,110" />
        <path id="left-margin-Black-S" d="M620,56 l0,110" />
        <path id="right-margin-Black-S" d="M710,56 l0,110" />
        <path id="Capline-M" d="M18,276 l800,0" />
        <path id="Baseline-M" d="M18,346 l800,0" />
        <path id="Capline-L" d="M18,476 l800,0" />
        <path id="Baseline-L" d="M18,546 l800,0" />
    </g>
    <g id="Symbols">
        <g id="Ultralight-S">
            <path d="M238.1,102.923 L291.9,102.923 C293.532,102.931 295.08,102.199 296.109,100.931 C297.137,99.663 297.535,97.997 297.19,96.401 C294.689,84.582 281.154,76 265,76 C248.846,76 235.311,84.582 232.81,96.401 C232.465,97.997 232.863,99.663 233.891,100.931 C234.92,102.199 236.468,102.931 238.1,102.923 Z M265,81.385 C278.401,81.385 289.975,88.321 291.9,97.538 L238.1,97.538 L238.077,97.515 C240.025,88.321 251.599,81.385 265,81.385 Z M299.078,119.238 L285.236,124.287 L272.74,119.269 C272.099,119.012 271.383,119.012 270.741,119.269 L258.289,124.253 L245.817,119.269 C245.203,119.023 244.52,119.013 243.899,119.238 L229.091,124.623 C227.793,125.195 227.16,126.676 227.647,128.01 C228.133,129.343 229.57,130.07 230.932,129.671 L235.385,128.059 L235.385,129.846 C235.385,133.416 236.803,136.84 239.327,139.365 C241.852,141.889 245.276,143.308 248.846,143.308 L281.154,143.308 C284.724,143.308 288.148,141.889 290.673,139.365 C293.197,136.84 294.615,133.416 294.615,129.846 L294.615,126.592 L300.919,124.3 C301.882,124.018 302.608,123.224 302.804,122.239 C302.999,121.255 302.63,120.243 301.847,119.616 C301.064,118.988 299.996,118.848 299.078,119.252 Z M289.231,129.846 C289.231,131.988 288.38,134.043 286.865,135.557 C285.35,137.072 283.296,137.923 281.154,137.923 L248.846,137.923 C246.704,137.923 244.65,137.072 243.135,135.557 C241.62,134.043 240.769,131.988 240.769,129.846 L240.769,126.104 L244.764,124.65 L257.26,129.654 C257.901,129.911 258.617,129.911 259.259,129.654 L271.711,124.67 L284.163,129.654 C284.777,129.9 285.459,129.91 286.081,129.685 L289.201,128.55 Z M227.308,111 C227.308,110.286 227.591,109.601 228.096,109.096 C228.601,108.591 229.286,108.308 230,108.308 L300,108.308 C301.487,108.308 302.692,109.513 302.692,111 C302.692,112.487 301.487,113.692 300,113.692 L230,113.692 C229.286,113.692 228.601,113.409 228.096,112.904 C227.591,112.399 227.308,111.714 227.308,111 Z" />
        </g>
        <g id="Regular-S">
            <path d="M438.1,102.923 L491.9,102.923 C493.532,102.931 495.08,102.199 496.109,100.931 C497.137,99.663 497.535,97.997 497.19,96.401 C494.689,84.582 481.154,76 465,76 C448.846,76 435.311,84.582 432.81,96.401 C432.465,97.997 432.863,99.663 433.891,100.931 C434.92,102.199 436.468,102.931 438.1,102.923 Z M465,81.385 C478.401,81.385 489.974,88.321 491.9,97.538 L438.1,97.538 L438.077,97.515 C440.025,88.321 451.599,81.385 465,81.385 Z M499.078,119.238 L485.236,124.287 L472.74,119.269 C472.099,119.012 471.383,119.012 470.741,119.269 L458.289,124.253 L445.817,119.269 C445.203,119.023 444.52,119.013 443.899,119.238 L429.091,124.623 C427.793,125.195 427.16,126.676 427.647,128.01 C428.133,129.343 429.57,130.07 430.932,129.671 L435.385,128.059 L435.385,129.846 C435.385,133.416 436.803,136.84 439.327,139.365 C441.852,141.889 445.276,143.308 448.846,143.308 L481.154,143.308 C484.724,143.308 488.148,141.889 490.673,139.365 C493.197,136.84 494.615,133.416 494.615,129.846 L494.615,126.592 L500.919,124.3 C501.882,124.018 502.608,123.224 502.804,122.239 C502.999,121.255 502.63,120.243 501.847,119.616 C501.064,118.988 499.996,118.848 499.078,119.252 Z M489.231,129.846 C489.231,131.988 488.38,134.043 486.865,135.557 C485.35,137.072 483.296,137.923 481.154,137.923 L448.846,137.923 C446.704,137.923 444.65,137.072 443.135,135.557 C441.62,134.043 440.769,131.988 440.769,129.846 L440.769,126.104 L444.764,124.65 L457.26,129.654 C457.901,129.911 458.617,129.911 459.259,129.654 L471.711,124.67 L484.162,129.654 C484.776,129.9 485.459,129.91 486.081,129.685 L489.2,128.55 Z M427.308,111 C427.308,110.286 427.591,109.601 428.096,109.096 C428.601,108.591 429.286,108.308 430,108.308 L500,108.308 C501.487,108.308 502.692,109.513 502.692,111 C502.692,112.487 501.487,113.692 500,113.692 L430,113.692 C429.286,113.692 428.601,113.409 428.096,112.904 C427.591,112.399 427.308,111.714 427.308,111 Z" />
        </g>
        <g id="Black-S">
            <path d="M638.101,102.923 L691.9,102.923 C693.532,102.931 695.08,102.199 696.109,100.931 C697.137,99.663 697.535,97.997 697.19,96.401 C694.689,84.582 681.154,76 665,76 C648.846,76 635.311,84.582 632.81,96.401 C632.465,97.997 632.863,99.663 633.891,100.931 C634.92,102.199 636.468,102.931 638.101,102.923 Z M665,81.385 C678.401,81.385 689.975,88.321 691.9,97.538 L638.101,97.538 L638.077,97.515 C640.026,88.321 651.599,81.385 665,81.385 Z M699.078,119.238 L685.236,124.287 L672.74,119.269 C672.099,119.012 671.383,119.012 670.741,119.269 L658.289,124.253 L645.817,119.269 C645.203,119.023 644.521,119.013 643.899,119.238 L629.091,124.623 C627.793,125.195 627.16,126.676 627.647,128.01 C628.133,129.343 629.57,130.07 630.932,129.671 L635.385,128.059 L635.385,129.846 C635.385,133.416 636.803,136.84 639.327,139.365 C641.852,141.889 645.276,143.308 648.846,143.308 L681.154,143.308 C684.724,143.308 688.148,141.889 690.673,139.365 C693.197,136.84 694.615,133.416 694.615,129.846 L694.615,126.592 L700.919,124.3 C701.882,124.018 702.609,123.224 702.804,122.239 C702.999,121.255 702.63,120.243 701.847,119.616 C701.064,118.988 699.997,118.848 699.078,119.252 Z M689.231,129.846 C689.231,131.988 688.38,134.043 686.865,135.557 C685.35,137.072 683.296,137.923 681.154,137.923 L648.846,137.923 C646.704,137.923 644.65,137.072 643.135,135.557 C641.62,134.043 640.769,131.988 640.769,129.846 L640.769,126.104 L644.764,124.65 L657.26,129.654 C657.901,129.911 658.617,129.911 659.259,129.654 L671.711,124.67 L684.163,129.654 C684.777,129.9 685.459,129.91 686.081,129.685 L689.201,128.55 Z M627.308,111 C627.308,110.286 627.591,109.601 628.096,109.096 C628.601,108.591 629.286,108.308 630,108.308 L700,108.308 C701.487,108.308 702.692,109.513 702.692,111 C702.692,112.487 701.487,113.692 700,113.692 L630,113.692 C629.286,113.692 628.601,113.409 628.096,112.904 C627.591,112.399 627.308,111.714 627.308,111 Z" />
        </g>
    </g>
</svg>