<?xml version="1.0" encoding="UTF-8"?>
<svg height="600" width="800" xmlns="http://www.w3.org/2000/svg" xmlns:xlink="http://www.w3.org/1999/xlink">
    <g id="Notes" font-family="'LucidaGrande', 'Lucida Grande', sans-serif" font-size="13">
        <rect fill="white" height="600.0" width="800.0" x="0.0" y="0.0" />
        <g font-size="13">
            <text x="18.0" y="176.0">Small</text>
            <text x="18.0" y="376.0">Medium</text>
            <text x="18.0" y="576.0">Large</text>
        </g>
        <g font-size="9">
            <text x="250.0" y="30.0">Ultralight</text>
            <text x="450.0" y="30.0">Regular</text>
            <text x="650.0" y="30.0">Black</text>
            <text id="template-version" fill="#505050" text-anchor="end" x="785.0" y="575.0">Template v.3.0</text>
            <a href="https://github.com/swhitty/SwiftDraw">
                <text fill="#505050" text-anchor="end" x="785.0" y="590.0">https://github.com/swhitty/SwiftDraw</text>
            </a>
        </g>
    </g>
    <g id="Guides" stroke="rgb(39, 170, 225)" stroke-width="0.5">
        <path id="Capline-S" d="M18,76 l800,0" />
        <path id="H-reference" d="M85,145.755 L87.685,145.755 L113.369,79.287 L114.052,79.287 L114.052,76 L112.148,76 L85,145.755 Z M95.693,121.536 L130.996,121.536 L130.263,119.313 L96.474,119.313 L95.693,121.536 Z M139.15,145.755 L141.787,145.755 L114.638,76 L113.466,76 L113.466,79.287 L139.15,145.755 Z" stroke="none" />
        <path id="Baseline-S" d="M18,146 l800,0" />
        <path id="left-margin-Ultralight-S" d="M220,56 l0,110" />
        <path id="right-margin-Ultralight-S" d="M310,56 l0,110" />
        <path id="left-margin-Regular-S" d="M420,56 l0,110" />
        <path id="right-margin-Regular-S" d="M510,56 l0,110" />
        <path id="left-margin-Black-S" d="M620,56 l0,110" />
        <path id="right-margin-Black-S" d="M710,56 l0,110" />
        <path id="Capline-M" d="M18,276 l800,0" />
        <path id="Baseline-M" d="M18,346 l800,0" />
        <path id="Capline-L" d="M18,476 l800,0" />
        <path id="Baseline-L" d="M18,546 l800,0" />
    </g>
    <g id="Symbols">
        <g id="Ultralight-S">
            <path d="M300,108.308 L286.703,108.308 C290.43,100.797 290.009,91.894 285.59,84.769 C281.172,77.644 273.384,73.309 265,73.308 C264.286,73.308 263.601,73.591 263.096,74.096 C262.591,74.601 262.308,75.286 262.308,76 L262.308,89.297 C254.797,85.57 245.894,85.991 238.769,90.41 C231.644,94.828 227.309,102.616 227.308,111 C227.308,111.714 227.591,112.399 228.096,112.904 C228.601,113.409 229.286,113.692 230,113.692 L243.297,113.692 C239.57,121.203 239.991,130.106 244.41,137.231 C248.828,144.356 256.616,148.691 265,148.692 C265.714,148.692 266.399,148.409 266.904,147.904 C267.409,147.399 267.692,146.714 267.692,146 L267.692,132.703 C275.203,136.43 284.106,136.009 291.231,131.59 C298.356,127.172 302.691,119.384 302.692,111 C302.692,110.286 302.409,109.601 301.904,109.096 C301.399,108.591 300.714,108.308 300,108.308 Z M283.846,97.538 C283.866,101.39 282.69,105.153 280.481,108.308 L267.692,108.308 L267.692,78.884 C276.959,80.235 283.834,88.174 283.846,97.538 Z M251.538,92.154 C255.39,92.134 259.153,93.31 262.308,95.519 L262.308,108.308 L232.884,108.308 C234.235,99.041 242.174,92.166 251.538,92.154 Z M246.154,124.462 C246.134,120.61 247.31,116.847 249.519,113.692 L262.308,113.692 L262.308,143.116 C253.042,141.765 246.166,133.826 246.154,124.462 Z M278.462,129.846 C274.61,129.866 270.847,128.69 267.692,126.481 L267.692,113.692 L297.116,113.692 C295.765,122.959 287.826,129.834 278.462,129.846 Z" />
        </g>
        <g id="Regular-S">
            <path d="M500,108.308 L486.703,108.308 C490.43,100.797 490.009,91.894 485.59,84.769 C481.172,77.644 473.384,73.309 465,73.308 C464.286,73.308 463.601,73.591 463.096,74.096 C462.591,74.601 462.308,75.286 462.308,76 L462.308,89.297 C454.797,85.57 445.894,85.991 438.769,90.41 C431.644,94.828 427.309,102.616 427.308,111 C427.308,111.714 427.591,112.399 428.096,112.904 C428.601,113.409 429.286,113.692 430,113.692 L443.297,113.692 C439.57,121.203 439.991,130.106 444.41,137.231 C448.828,144.356 456.616,148.691 465,148.692 C465.714,148.692 466.399,148.409 466.904,147.904 C467.409,147.399 467.692,146.714 467.692,146 L467.692,132.703 C475.203,136.43 484.106,136.009 491.231,131.59 C498.356,127.172 502.691,119.384 502.692,111 C502.692,110.286 502.409,109.601 501.904,109.096 C501.399,108.591 500.714,108.308 500,108.308 Z M483.846,97.538 C483.866,101.39 482.69,105.153 480.481,108.308 L467.692,108.308 L467.692,78.884 C476.959,80.235 483.834,88.174 483.846,97.538 Z M451.538,92.154 C455.39,92.134 459.153,93.31 462.308,95.519 L462.308,108.308 L432.884,108.308 C434.235,99.041 442.174,92.166 451.538,92.154 Z M446.154,124.462 C446.134,120.61 447.31,116.847 449.519,113.692 L462.308,113.692 L462.308,143.116 C453.042,141.765 446.166,133.826 446.154,124.462 Z M478.462,129.846 C474.61,129.866 470.847,128.69 467.692,126.481 L467.692,113.692 L497.116,113.692 C495.765,122.959 487.826,129.834 478.462,129.846 Z" />
        </g>
        <g id="Black-S">
            <path d="M700,108.308 L686.703,108.308 C690.43,100.797 690.009,91.894 685.59,84.769 C681.172,77.644 673.384,73.309 665,73.308 C664.286,73.308 663.601,73.591 663.096,74.096 C662.591,74.601 662.308,75.286 662.308,76 L662.308,89.297 C654.797,85.57 645.894,85.991 638.769,90.41 C631.644,94.828 627.309,102.616 627.308,111 C627.308,111.714 627.591,112.399 628.096,112.904 C628.601,113.409 629.286,113.692 630,113.692 L643.297,113.692 C639.57,121.203 639.991,130.106 644.41,137.231 C648.828,144.356 656.616,148.691 665,148.692 C665.714,148.692 666.399,148.409 666.904,147.904 C667.409,147.399 667.692,146.714 667.692,146 L667.692,132.703 C675.203,136.43 684.106,136.009 691.231,131.59 C698.356,127.172 702.691,119.384 702.692,111 C702.692,110.286 702.409,109.601 701.904,109.096 C701.399,108.591 700.714,108.308 700,108.308 Z M683.846,97.538 C683.866,101.39 682.69,105.153 680.481,108.308 L667.692,108.308 L667.692,78.884 C676.959,80.235 683.834,88.174 683.846,97.538 Z M651.538,92.154 C655.39,92.134 659.153,93.31 662.308,95.519 L662.308,108.308 L632.884,108.308 C634.235,99.041 642.174,92.166 651.538,92.154 Z M646.154,124.462 C646.135,120.61 647.31,116.847 649.519,113.692 L662.308,113.692 L662.308,143.116 C653.042,141.765 646.166,133.826 646.154,124.462 Z M678.462,129.846 C674.61,129.866 670.847,128.69 667.692,126.481 L667.692,113.692 L697.116,113.692 C695.765,122.959 687.826,129.834 678.462,129.846 Z" />
        </g>
    </g>
</svg>