<?xml version="1.0" encoding="UTF-8"?>
<svg height="600" width="800" xmlns="http://www.w3.org/2000/svg" xmlns:xlink="http://www.w3.org/1999/xlink">
    <g id="Notes" font-family="'LucidaGrande', 'Lucida Grande', sans-serif" font-size="13">
        <rect fill="white" height="600.0" width="800.0" x="0.0" y="0.0" />
        <g font-size="13">
            <text x="18.0" y="176.0">Small</text>
            <text x="18.0" y="376.0">Medium</text>
            <text x="18.0" y="576.0">Large</text>
        </g>
        <g font-size="9">
            <text x="250.0" y="30.0">Ultralight</text>
            <text x="450.0" y="30.0">Regular</text>
            <text x="650.0" y="30.0">Black</text>
            <text id="template-version" fill="#505050" text-anchor="end" x="785.0" y="575.0">Template v.3.0</text>
            <a href="https://github.com/swhitty/SwiftDraw">
                <text fill="#505050" text-anchor="end" x="785.0" y="590.0">https://github.com/swhitty/SwiftDraw</text>
            </a>
        </g>
    </g>
    <g id="Guides" stroke="rgb(39, 170, 225)" stroke-width="0.5">
        <path id="Capline-S" d="M18,76 l800,0" />
        <path id="H-reference" d="M85,145.755 L87.685,145.755 L113.369,79.287 L114.052,79.287 L114.052,76 L112.148,76 L85,145.755 Z M95.693,121.536 L130.996,121.536 L130.263,119.313 L96.474,119.313 L95.693,121.536 Z M139.15,145.755 L141.787,145.755 L114.638,76 L113.466,76 L113.466,79.287 L139.15,145.755 Z" stroke="none" />
        <path id="Baseline-S" d="M18,146 l800,0" />
        <path id="left-margin-Ultralight-S" d="M220,56 l0,110" />
        <path id="right-margin-Ultralight-S" d="M310,56 l0,110" />
        <path id="left-margin-Regular-S" d="M420,56 l0,110" />
        <path id="right-margin-Regular-S" d="M510,56 l0,110" />
        <path id="left-margin-Black-S" d="M620,56 l0,110" />
        <path id="right-margin-Black-S" d="M710,56 l0,110" />
        <path id="Capline-M" d="M18,276 l800,0" />
        <path id="Baseline-M" d="M18,346 l800,0" />
        <path id="Capline-L" d="M18,476 l800,0" />
        <path id="Baseline-L" d="M18,546 l800,0" />
    </g>
    <g id="Symbols">
        <g id="Ultralight-S">
            <path d="M291.923,86.769 L291.923,97.538 C291.923,99.025 290.718,100.231 289.231,100.231 C287.744,100.231 286.538,99.025 286.538,97.538 L286.538,89.462 L267.692,89.462 L267.692,132.538 L275.769,132.538 C277.256,132.538 278.462,133.744 278.462,135.231 C278.462,136.718 277.256,137.923 275.769,137.923 L254.231,137.923 C252.744,137.923 251.538,136.718 251.538,135.231 C251.538,133.744 252.744,132.538 254.231,132.538 L262.308,132.538 L262.308,89.462 L243.462,89.462 L243.462,97.538 C243.462,99.025 242.256,100.231 240.769,100.231 C239.282,100.231 238.077,99.025 238.077,97.538 L238.077,86.769 C238.077,86.055 238.361,85.37 238.865,84.865 C239.37,84.361 240.055,84.077 240.769,84.077 L289.231,84.077 C289.945,84.077 290.63,84.361 291.135,84.865 C291.639,85.37 291.923,86.055 291.923,86.769 Z" />
        </g>
        <g id="Regular-S">
            <path d="M491.923,86.769 L491.923,97.538 C491.923,99.025 490.718,100.231 489.231,100.231 C487.744,100.231 486.538,99.025 486.538,97.538 L486.538,89.462 L467.692,89.462 L467.692,132.538 L475.769,132.538 C477.256,132.538 478.462,133.744 478.462,135.231 C478.462,136.718 477.256,137.923 475.769,137.923 L454.231,137.923 C452.744,137.923 451.538,136.718 451.538,135.231 C451.538,133.744 452.744,132.538 454.231,132.538 L462.308,132.538 L462.308,89.462 L443.462,89.462 L443.462,97.538 C443.462,99.025 442.256,100.231 440.769,100.231 C439.282,100.231 438.077,99.025 438.077,97.538 L438.077,86.769 C438.077,86.055 438.361,85.37 438.865,84.865 C439.37,84.361 440.055,84.077 440.769,84.077 L489.231,84.077 C489.945,84.077 490.63,84.361 491.135,84.865 C491.639,85.37 491.923,86.055 491.923,86.769 Z" />
        </g>
        <g id="Black-S">
            <path d="M691.923,86.769 L691.923,97.538 C691.923,99.025 690.718,100.231 689.231,100.231 C687.744,100.231 686.538,99.025 686.538,97.538 L686.538,89.462 L667.692,89.462 L667.692,132.538 L675.769,132.538 C677.256,132.538 678.462,133.744 678.462,135.231 C678.462,136.718 677.256,137.923 675.769,137.923 L654.231,137.923 C652.744,137.923 651.538,136.718 651.538,135.231 C651.538,133.744 652.744,132.538 654.231,132.538 L662.308,132.538 L662.308,89.462 L643.462,89.462 L643.462,97.538 C643.462,99.025 642.256,100.231 640.769,100.231 C639.282,100.231 638.077,99.025 638.077,97.538 L638.077,86.769 C638.077,86.055 638.361,85.37 638.865,84.865 C639.37,84.361 640.055,84.077 640.769,84.077 L689.231,84.077 C689.945,84.077 690.63,84.361 691.135,84.865 C691.639,85.37 691.923,86.055 691.923,86.769 Z" />
        </g>
    </g>
</svg>