<?xml version="1.0" encoding="UTF-8"?>
<svg height="600" width="800" xmlns="http://www.w3.org/2000/svg" xmlns:xlink="http://www.w3.org/1999/xlink">
    <g id="Notes" font-family="'LucidaGrande', 'Lucida Grande', sans-serif" font-size="13">
        <rect fill="white" height="600.0" width="800.0" x="0.0" y="0.0" />
        <g font-size="13">
            <text x="18.0" y="176.0">Small</text>
            <text x="18.0" y="376.0">Medium</text>
            <text x="18.0" y="576.0">Large</text>
        </g>
        <g font-size="9">
            <text x="250.0" y="30.0">Ultralight</text>
            <text x="450.0" y="30.0">Regular</text>
            <text x="650.0" y="30.0">Black</text>
            <text id="template-version" fill="#505050" text-anchor="end" x="785.0" y="575.0">Template v.3.0</text>
            <a href="https://github.com/swhitty/SwiftDraw">
                <text fill="#505050" text-anchor="end" x="785.0" y="590.0">https://github.com/swhitty/SwiftDraw</text>
            </a>
        </g>
    </g>
    <g id="Guides" stroke="rgb(39, 170, 225)" stroke-width="0.5">
        <path id="Capline-S" d="M18,76 l800,0" />
        <path id="H-reference" d="M85,145.755 L87.685,145.755 L113.369,79.287 L114.052,79.287 L114.052,76 L112.148,76 L85,145.755 Z M95.693,121.536 L130.996,121.536 L130.263,119.313 L96.474,119.313 L95.693,121.536 Z M139.15,145.755 L141.787,145.755 L114.638,76 L113.466,76 L113.466,79.287 L139.15,145.755 Z" stroke="none" />
        <path id="Baseline-S" d="M18,146 l800,0" />
        <path id="left-margin-Ultralight-S" d="M220,56 l0,110" />
        <path id="right-margin-Ultralight-S" d="M310,56 l0,110" />
        <path id="left-margin-Regular-S" d="M420,56 l0,110" />
        <path id="right-margin-Regular-S" d="M510,56 l0,110" />
        <path id="left-margin-Black-S" d="M620,56 l0,110" />
        <path id="right-margin-Black-S" d="M710,56 l0,110" />
        <path id="Capline-M" d="M18,276 l800,0" />
        <path id="Baseline-M" d="M18,346 l800,0" />
        <path id="Capline-L" d="M18,476 l800,0" />
        <path id="Baseline-L" d="M18,546 l800,0" />
    </g>
    <g id="Symbols">
        <g id="Ultralight-S">
            <path d="M297.308,105.615 L232.692,105.615 C231.978,105.615 231.293,105.899 230.789,106.404 C230.284,106.909 230,107.594 230,108.308 C230.024,121.358 237.282,133.317 248.847,139.364 L248.847,140.615 C248.847,142.043 249.414,143.413 250.424,144.423 C251.433,145.433 252.803,146 254.231,146 L275.77,146 C277.198,146 278.567,145.433 279.577,144.423 C280.587,143.413 281.154,142.043 281.154,140.615 L281.154,139.363 C292.718,133.317 299.976,121.357 300,108.308 C300,106.821 298.795,105.615 297.308,105.615 Z M277.337,135.231 C276.382,135.67 275.769,136.626 275.769,137.677 L275.769,140.615 L254.231,140.615 L254.231,137.684 C254.233,136.63 253.621,135.671 252.662,135.231 C243.026,130.797 236.485,121.562 235.499,111 L294.491,111 C293.507,121.559 286.97,130.794 277.337,135.231 Z M249.442,86.433 C251.242,84.191 251.687,82.677 251.501,82.011 C251.36,81.509 250.69,81.25 250.684,81.25 C249.425,80.836 248.654,79.568 248.867,78.26 C249.08,76.952 250.213,75.993 251.538,76 C251.81,76 252.08,76.041 252.339,76.121 C252.676,76.225 255.675,77.242 256.644,80.415 C257.472,83.131 256.459,86.288 253.635,89.801 C251.835,92.043 251.39,93.557 251.575,94.224 C251.717,94.725 252.373,94.977 252.38,94.981 C253.636,95.394 254.407,96.658 254.198,97.964 C253.988,99.271 252.861,100.231 251.538,100.231 C251.267,100.23 250.997,100.19 250.738,100.11 C250.401,100.005 247.402,98.989 246.433,95.815 C245.605,93.1 246.618,89.943 249.442,86.433 Z M262.903,86.433 C264.704,84.191 265.148,82.677 264.963,82.011 C264.822,81.509 264.152,81.25 264.145,81.25 C262.886,80.836 262.115,79.568 262.328,78.26 C262.541,76.952 263.675,75.993 265,76 C265.272,76 265.542,76.041 265.801,76.121 C266.138,76.225 269.136,77.242 270.105,80.415 C270.933,83.131 269.92,86.288 267.097,89.801 C265.296,92.043 264.852,93.557 265.037,94.224 C265.178,94.725 265.835,94.977 265.841,94.981 C267.098,95.394 267.868,96.658 267.659,97.964 C267.45,99.271 266.323,100.231 265,100.231 C264.728,100.23 264.458,100.19 264.199,100.11 C263.862,100.005 260.864,98.989 259.895,95.815 C259.067,93.1 260.08,89.943 262.903,86.433 Z M276.365,86.433 C278.165,84.191 278.61,82.677 278.425,82.011 C278.283,81.509 277.613,81.25 277.607,81.25 C276.348,80.836 275.577,79.568 275.79,78.26 C276.003,76.952 277.136,75.993 278.462,76 C278.733,76 279.003,76.041 279.263,76.121 C279.599,76.225 282.598,77.242 283.567,80.415 C284.395,83.131 283.382,86.288 280.558,89.801 C278.758,92.043 278.313,93.557 278.499,94.224 C278.64,94.725 279.296,94.977 279.303,94.981 C280.559,95.394 281.33,96.658 281.121,97.964 C280.911,99.271 279.784,100.231 278.462,100.231 C278.19,100.23 277.92,100.19 277.661,100.11 C277.324,100.005 274.325,98.989 273.356,95.815 C272.528,93.1 273.541,89.943 276.365,86.433 Z" />
        </g>
        <g id="Regular-S">
            <path d="M497.308,105.615 L432.692,105.615 C431.978,105.615 431.293,105.899 430.789,106.404 C430.284,106.909 430,107.594 430,108.308 C430.024,121.358 437.282,133.317 448.847,139.364 L448.847,140.615 C448.847,142.043 449.414,143.413 450.424,144.423 C451.433,145.433 452.803,146 454.231,146 L475.77,146 C477.198,146 478.567,145.433 479.577,144.423 C480.587,143.413 481.154,142.043 481.154,140.615 L481.154,139.363 C492.718,133.317 499.976,121.357 500,108.308 C500,106.821 498.795,105.615 497.308,105.615 Z M477.337,135.231 C476.382,135.67 475.769,136.626 475.769,137.677 L475.769,140.615 L454.231,140.615 L454.231,137.684 C454.233,136.63 453.621,135.671 452.662,135.231 C443.026,130.797 436.485,121.562 435.499,111 L494.491,111 C493.507,121.559 486.97,130.794 477.337,135.231 Z M449.442,86.433 C451.242,84.191 451.687,82.677 451.501,82.011 C451.36,81.509 450.69,81.25 450.684,81.25 C449.425,80.836 448.654,79.568 448.867,78.26 C449.08,76.952 450.213,75.993 451.538,76 C451.81,76 452.08,76.041 452.339,76.121 C452.676,76.225 455.674,77.242 456.644,80.415 C457.472,83.131 456.459,86.288 453.635,89.801 C451.835,92.043 451.39,93.557 451.575,94.224 C451.717,94.725 452.373,94.977 452.38,94.981 C453.636,95.394 454.407,96.658 454.198,97.964 C453.988,99.271 452.861,100.231 451.538,100.231 C451.267,100.23 450.997,100.19 450.737,100.11 C450.401,100.005 447.402,98.989 446.433,95.815 C445.605,93.1 446.618,89.943 449.442,86.433 Z M462.903,86.433 C464.704,84.191 465.148,82.677 464.963,82.011 C464.822,81.509 464.152,81.25 464.145,81.25 C462.886,80.836 462.115,79.568 462.328,78.26 C462.541,76.952 463.675,75.993 465,76 C465.272,76 465.541,76.041 465.801,76.121 C466.137,76.225 469.136,77.242 470.105,80.415 C470.933,83.131 469.92,86.288 467.097,89.801 C465.296,92.043 464.852,93.557 465.037,94.224 C465.178,94.725 465.835,94.977 465.841,94.981 C467.098,95.394 467.868,96.658 467.659,97.964 C467.45,99.271 466.323,100.231 465,100.231 C464.728,100.23 464.458,100.19 464.199,100.11 C463.862,100.005 460.864,98.989 459.895,95.815 C459.067,93.1 460.08,89.943 462.903,86.433 Z M476.365,86.433 C478.165,84.191 478.61,82.677 478.424,82.011 C478.283,81.509 477.613,81.25 477.607,81.25 C476.348,80.836 475.577,79.568 475.79,78.26 C476.003,76.952 477.136,75.993 478.462,76 C478.733,76 479.003,76.041 479.262,76.121 C479.599,76.225 482.598,77.242 483.567,80.415 C484.395,83.131 483.382,86.288 480.558,89.801 C478.758,92.043 478.313,93.557 478.499,94.224 C478.64,94.725 479.296,94.977 479.303,94.981 C480.559,95.394 481.33,96.658 481.121,97.964 C480.911,99.271 479.784,100.231 478.462,100.231 C478.19,100.23 477.92,100.19 477.661,100.11 C477.324,100.005 474.325,98.989 473.356,95.815 C472.528,93.1 473.541,89.943 476.365,86.433 Z" />
        </g>
        <g id="Black-S">
            <path d="M697.308,105.615 L632.692,105.615 C631.978,105.615 631.293,105.899 630.789,106.404 C630.284,106.909 630,107.594 630,108.308 C630.024,121.358 637.282,133.317 648.847,139.364 L648.847,140.615 C648.847,142.043 649.414,143.413 650.424,144.423 C651.433,145.433 652.803,146 654.231,146 L675.77,146 C677.198,146 678.567,145.433 679.577,144.423 C680.587,143.413 681.154,142.043 681.154,140.615 L681.154,139.363 C692.718,133.317 699.976,121.357 700,108.308 C700,106.821 698.795,105.615 697.308,105.615 Z M677.338,135.231 C676.382,135.67 675.769,136.626 675.769,137.677 L675.769,140.615 L654.231,140.615 L654.231,137.684 C654.233,136.63 653.621,135.671 652.662,135.231 C643.026,130.797 636.485,121.562 635.499,111 L694.491,111 C693.507,121.559 686.97,130.794 677.338,135.231 Z M649.442,86.433 C651.242,84.191 651.687,82.677 651.501,82.011 C651.36,81.509 650.69,81.25 650.684,81.25 C649.425,80.836 648.654,79.568 648.867,78.26 C649.08,76.952 650.213,75.993 651.538,76 C651.81,76 652.08,76.041 652.339,76.121 C652.676,76.225 655.675,77.242 656.644,80.415 C657.472,83.131 656.459,86.288 653.635,89.801 C651.835,92.043 651.39,93.557 651.576,94.224 C651.717,94.725 652.373,94.977 652.38,94.981 C653.636,95.394 654.407,96.658 654.198,97.964 C653.988,99.271 652.861,100.231 651.538,100.231 C651.267,100.23 650.997,100.19 650.738,100.11 C650.401,100.005 647.402,98.989 646.433,95.815 C645.605,93.1 646.618,89.943 649.442,86.433 Z M662.903,86.433 C664.704,84.191 665.148,82.677 664.963,82.011 C664.822,81.509 664.152,81.25 664.145,81.25 C662.886,80.836 662.115,79.568 662.328,78.26 C662.541,76.952 663.675,75.993 665,76 C665.272,76 665.542,76.041 665.801,76.121 C666.138,76.225 669.136,77.242 670.105,80.415 C670.933,83.131 669.92,86.288 667.097,89.801 C665.296,92.043 664.852,93.557 665.037,94.224 C665.178,94.725 665.835,94.977 665.841,94.981 C667.098,95.394 667.868,96.658 667.659,97.964 C667.45,99.271 666.323,100.231 665,100.231 C664.729,100.23 664.458,100.19 664.199,100.11 C663.863,100.005 660.864,98.989 659.895,95.815 C659.067,93.1 660.08,89.943 662.903,86.433 Z M676.365,86.433 C678.165,84.191 678.61,82.677 678.425,82.011 C678.283,81.509 677.613,81.25 677.607,81.25 C676.348,80.836 675.577,79.568 675.79,78.26 C676.003,76.952 677.136,75.993 678.462,76 C678.733,76 679.003,76.041 679.263,76.121 C679.599,76.225 682.598,77.242 683.567,80.415 C684.395,83.131 683.382,86.288 680.558,89.801 C678.758,92.043 678.313,93.557 678.499,94.224 C678.64,94.725 679.296,94.977 679.303,94.981 C680.56,95.394 681.33,96.658 681.121,97.964 C680.911,99.271 679.784,100.231 678.462,100.231 C678.19,100.23 677.92,100.19 677.661,100.11 C677.324,100.005 674.326,98.989 673.356,95.815 C672.528,93.1 673.541,89.943 676.365,86.433 Z" />
        </g>
    </g>
</svg>