<?xml version="1.0" encoding="UTF-8"?>
<svg height="600" width="800" xmlns="http://www.w3.org/2000/svg" xmlns:xlink="http://www.w3.org/1999/xlink">
    <g id="Notes" font-family="'LucidaGrande', 'Lucida Grande', sans-serif" font-size="13">
        <rect fill="white" height="600.0" width="800.0" x="0.0" y="0.0" />
        <g font-size="13">
            <text x="18.0" y="176.0">Small</text>
            <text x="18.0" y="376.0">Medium</text>
            <text x="18.0" y="576.0">Large</text>
        </g>
        <g font-size="9">
            <text x="250.0" y="30.0">Ultralight</text>
            <text x="450.0" y="30.0">Regular</text>
            <text x="650.0" y="30.0">Black</text>
            <text id="template-version" fill="#505050" text-anchor="end" x="785.0" y="575.0">Template v.3.0</text>
            <a href="https://github.com/swhitty/SwiftDraw">
                <text fill="#505050" text-anchor="end" x="785.0" y="590.0">https://github.com/swhitty/SwiftDraw</text>
            </a>
        </g>
    </g>
    <g id="Guides" stroke="rgb(39, 170, 225)" stroke-width="0.5">
        <path id="Capline-S" d="M18,76 l800,0" />
        <path id="H-reference" d="M85,145.755 L87.685,145.755 L113.369,79.287 L114.052,79.287 L114.052,76 L112.148,76 L85,145.755 Z M95.693,121.536 L130.996,121.536 L130.263,119.313 L96.474,119.313 L95.693,121.536 Z M139.15,145.755 L141.787,145.755 L114.638,76 L113.466,76 L113.466,79.287 L139.15,145.755 Z" stroke="none" />
        <path id="Baseline-S" d="M18,146 l800,0" />
        <path id="left-margin-Ultralight-S" d="M220,56 l0,110" />
        <path id="right-margin-Ultralight-S" d="M310,56 l0,110" />
        <path id="left-margin-Regular-S" d="M420,56 l0,110" />
        <path id="right-margin-Regular-S" d="M510,56 l0,110" />
        <path id="left-margin-Black-S" d="M620,56 l0,110" />
        <path id="right-margin-Black-S" d="M710,56 l0,110" />
        <path id="Capline-M" d="M18,276 l800,0" />
        <path id="Baseline-M" d="M18,346 l800,0" />
        <path id="Capline-L" d="M18,476 l800,0" />
        <path id="Baseline-L" d="M18,546 l800,0" />
    </g>
    <g id="Symbols">
        <g id="Ultralight-S">
            <path d="M291.923,78.692 L238.077,78.692 C236.649,78.692 235.279,79.26 234.269,80.269 C233.26,81.279 232.692,82.649 232.692,84.077 L232.692,137.923 C232.692,139.351 233.26,140.721 234.269,141.731 C235.279,142.74 236.649,143.308 238.077,143.308 L291.923,143.308 C293.351,143.308 294.721,142.74 295.731,141.731 C296.74,140.721 297.308,139.351 297.308,137.923 L297.308,84.077 C297.308,82.649 296.74,81.279 295.731,80.269 C294.721,79.26 293.351,78.692 291.923,78.692 Z M291.923,137.923 L238.077,137.923 L238.077,84.077 L291.923,84.077 L291.923,137.923 Z M275.769,116.385 L273.077,116.385 L273.077,94.846 C273.076,93.697 272.345,92.675 271.258,92.302 C270.171,91.929 268.967,92.287 268.261,93.194 L249.415,117.425 C248.784,118.236 248.67,119.336 249.122,120.259 C249.573,121.183 250.511,121.768 251.538,121.769 L267.692,121.769 L267.692,127.154 C267.692,128.641 268.898,129.846 270.385,129.846 C271.872,129.846 273.077,128.641 273.077,127.154 L273.077,121.769 L275.769,121.769 C277.256,121.769 278.462,120.564 278.462,119.077 C278.462,117.59 277.256,116.385 275.769,116.385 Z M267.692,116.385 L257.044,116.385 L267.692,102.694 Z" />
        </g>
        <g id="Regular-S">
            <path d="M491.923,78.692 L438.077,78.692 C436.649,78.692 435.279,79.26 434.269,80.269 C433.26,81.279 432.692,82.649 432.692,84.077 L432.692,137.923 C432.692,139.351 433.26,140.721 434.269,141.731 C435.279,142.74 436.649,143.308 438.077,143.308 L491.923,143.308 C493.351,143.308 494.721,142.74 495.731,141.731 C496.74,140.721 497.308,139.351 497.308,137.923 L497.308,84.077 C497.308,82.649 496.74,81.279 495.731,80.269 C494.721,79.26 493.351,78.692 491.923,78.692 Z M491.923,137.923 L438.077,137.923 L438.077,84.077 L491.923,84.077 L491.923,137.923 Z M475.769,116.385 L473.077,116.385 L473.077,94.846 C473.076,93.697 472.345,92.675 471.258,92.302 C470.171,91.929 468.967,92.287 468.261,93.194 L449.415,117.425 C448.784,118.236 448.67,119.336 449.122,120.259 C449.573,121.183 450.511,121.768 451.538,121.769 L467.692,121.769 L467.692,127.154 C467.692,128.641 468.898,129.846 470.385,129.846 C471.872,129.846 473.077,128.641 473.077,127.154 L473.077,121.769 L475.769,121.769 C477.256,121.769 478.462,120.564 478.462,119.077 C478.462,117.59 477.256,116.385 475.769,116.385 Z M467.692,116.385 L457.044,116.385 L467.692,102.694 Z" />
        </g>
        <g id="Black-S">
            <path d="M691.923,78.692 L638.077,78.692 C636.649,78.692 635.279,79.26 634.269,80.269 C633.26,81.279 632.692,82.649 632.692,84.077 L632.692,137.923 C632.692,139.351 633.26,140.721 634.269,141.731 C635.279,142.74 636.649,143.308 638.077,143.308 L691.923,143.308 C693.351,143.308 694.721,142.74 695.731,141.731 C696.74,140.721 697.308,139.351 697.308,137.923 L697.308,84.077 C697.308,82.649 696.74,81.279 695.731,80.269 C694.721,79.26 693.351,78.692 691.923,78.692 Z M691.923,137.923 L638.077,137.923 L638.077,84.077 L691.923,84.077 L691.923,137.923 Z M675.769,116.385 L673.077,116.385 L673.077,94.846 C673.076,93.697 672.345,92.675 671.258,92.302 C670.171,91.929 668.967,92.287 668.261,93.194 L649.415,117.425 C648.784,118.236 648.67,119.336 649.122,120.259 C649.573,121.183 650.511,121.768 651.538,121.769 L667.692,121.769 L667.692,127.154 C667.692,128.641 668.898,129.846 670.385,129.846 C671.872,129.846 673.077,128.641 673.077,127.154 L673.077,121.769 L675.769,121.769 C677.256,121.769 678.462,120.564 678.462,119.077 C678.462,117.59 677.256,116.385 675.769,116.385 Z M667.692,116.385 L657.044,116.385 L667.692,102.694 Z" />
        </g>
    </g>
</svg>