<?xml version="1.0" encoding="UTF-8"?>
<svg height="600" width="800" xmlns="http://www.w3.org/2000/svg" xmlns:xlink="http://www.w3.org/1999/xlink">
    <g id="Notes" font-family="'LucidaGrande', 'Lucida Grande', sans-serif" font-size="13">
        <rect fill="white" height="600.0" width="800.0" x="0.0" y="0.0" />
        <g font-size="13">
            <text x="18.0" y="176.0">Small</text>
            <text x="18.0" y="376.0">Medium</text>
            <text x="18.0" y="576.0">Large</text>
        </g>
        <g font-size="9">
            <text x="250.0" y="30.0">Ultralight</text>
            <text x="450.0" y="30.0">Regular</text>
            <text x="650.0" y="30.0">Black</text>
            <text id="template-version" fill="#505050" text-anchor="end" x="785.0" y="575.0">Template v.3.0</text>
            <a href="https://github.com/swhitty/SwiftDraw">
                <text fill="#505050" text-anchor="end" x="785.0" y="590.0">https://github.com/swhitty/SwiftDraw</text>
            </a>
        </g>
    </g>
    <g id="Guides" stroke="rgb(39, 170, 225)" stroke-width="0.5">
        <path id="Capline-S" d="M18,76 l800,0" />
        <path id="H-reference" d="M85,145.755 L87.685,145.755 L113.369,79.287 L114.052,79.287 L114.052,76 L112.148,76 L85,145.755 Z M95.693,121.536 L130.996,121.536 L130.263,119.313 L96.474,119.313 L95.693,121.536 Z M139.15,145.755 L141.787,145.755 L114.638,76 L113.466,76 L113.466,79.287 L139.15,145.755 Z" stroke="none" />
        <path id="Baseline-S" d="M18,146 l800,0" />
        <path id="left-margin-Ultralight-S" d="M220,56 l0,110" />
        <path id="right-margin-Ultralight-S" d="M310,56 l0,110" />
        <path id="left-margin-Regular-S" d="M420,56 l0,110" />
        <path id="right-margin-Regular-S" d="M510,56 l0,110" />
        <path id="left-margin-Black-S" d="M620,56 l0,110" />
        <path id="right-margin-Black-S" d="M710,56 l0,110" />
        <path id="Capline-M" d="M18,276 l800,0" />
        <path id="Baseline-M" d="M18,346 l800,0" />
        <path id="Capline-L" d="M18,476 l800,0" />
        <path id="Baseline-L" d="M18,546 l800,0" />
    </g>
    <g id="Symbols">
        <g id="Ultralight-S">
            <path d="M278.462,143.308 C278.462,144.022 278.178,144.707 277.673,145.211 C277.168,145.716 276.483,146 275.769,146 L254.231,146 C252.744,146 251.538,144.795 251.538,143.308 C251.538,141.821 252.744,140.615 254.231,140.615 L275.769,140.615 C276.483,140.615 277.168,140.899 277.673,141.404 C278.178,141.909 278.462,142.594 278.462,143.308 Z M298.449,88.223 C295.423,82.309 290.879,77.305 285.283,73.725 C284.47,73.205 283.44,73.161 282.585,73.609 C281.73,74.056 281.18,74.928 281.143,75.893 C281.107,76.857 281.59,77.768 282.409,78.278 C287.21,81.332 291.1,85.623 293.67,90.7 C294.376,91.976 295.97,92.458 297.264,91.787 C298.559,91.116 299.084,89.536 298.449,88.223 Z M233.941,92.154 C234.946,92.153 235.868,91.593 236.33,90.7 C238.9,85.623 242.79,81.332 247.591,78.278 C248.41,77.768 248.893,76.857 248.857,75.893 C248.82,74.928 248.27,74.057 247.415,73.609 C246.56,73.161 245.53,73.205 244.717,73.725 C239.121,77.305 234.577,82.309 231.551,88.223 C231.119,89.058 231.153,90.057 231.641,90.86 C232.13,91.663 233.001,92.153 233.941,92.154 Z M296.571,127.134 C297.542,128.798 297.549,130.855 296.589,132.527 C295.63,134.198 293.85,135.229 291.923,135.231 L238.077,135.231 C236.151,135.227 234.374,134.195 233.416,132.524 C232.458,130.853 232.466,128.797 233.436,127.134 C236.468,121.9 238.077,114.46 238.077,105.615 C238.077,90.746 250.131,78.692 265,78.692 C279.869,78.692 291.923,90.746 291.923,105.615 C291.923,114.456 293.532,121.897 296.571,127.134 Z M291.923,129.846 C288.342,123.698 286.538,115.547 286.538,105.615 C286.538,93.72 276.895,84.077 265,84.077 C253.105,84.077 243.462,93.72 243.462,105.615 C243.462,115.55 241.651,123.701 238.077,129.846 Z" />
        </g>
        <g id="Regular-S">
            <path d="M478.462,143.308 C478.462,144.022 478.178,144.707 477.673,145.211 C477.168,145.716 476.483,146 475.769,146 L454.231,146 C452.744,146 451.538,144.795 451.538,143.308 C451.538,141.821 452.744,140.615 454.231,140.615 L475.769,140.615 C476.483,140.615 477.168,140.899 477.673,141.404 C478.178,141.909 478.462,142.594 478.462,143.308 Z M498.449,88.223 C495.423,82.309 490.879,77.305 485.283,73.725 C484.47,73.205 483.44,73.161 482.585,73.609 C481.73,74.056 481.18,74.928 481.143,75.893 C481.107,76.857 481.59,77.768 482.409,78.278 C487.21,81.332 491.1,85.623 493.67,90.7 C494.376,91.976 495.97,92.458 497.264,91.787 C498.559,91.116 499.084,89.536 498.449,88.223 Z M433.941,92.154 C434.946,92.153 435.868,91.593 436.33,90.7 C438.9,85.623 442.79,81.332 447.591,78.278 C448.41,77.768 448.893,76.857 448.857,75.893 C448.82,74.928 448.27,74.057 447.415,73.609 C446.56,73.161 445.53,73.205 444.717,73.725 C439.121,77.305 434.577,82.309 431.551,88.223 C431.119,89.058 431.153,90.057 431.641,90.86 C432.13,91.663 433.001,92.153 433.941,92.154 Z M496.571,127.134 C497.542,128.798 497.549,130.855 496.589,132.527 C495.63,134.198 493.85,135.229 491.923,135.231 L438.077,135.231 C436.151,135.227 434.374,134.195 433.416,132.524 C432.458,130.853 432.466,128.797 433.436,127.134 C436.468,121.9 438.077,114.46 438.077,105.615 C438.077,90.746 450.131,78.692 465,78.692 C479.869,78.692 491.923,90.746 491.923,105.615 C491.923,114.456 493.532,121.897 496.571,127.134 Z M491.923,129.846 C488.342,123.698 486.538,115.547 486.538,105.615 C486.538,93.72 476.895,84.077 465,84.077 C453.105,84.077 443.462,93.72 443.462,105.615 C443.462,115.55 441.651,123.701 438.077,129.846 Z" />
        </g>
        <g id="Black-S">
            <path d="M678.462,143.308 C678.462,144.022 678.178,144.707 677.673,145.211 C677.168,145.716 676.483,146 675.769,146 L654.231,146 C652.744,146 651.538,144.795 651.538,143.308 C651.538,141.821 652.744,140.615 654.231,140.615 L675.769,140.615 C676.483,140.615 677.168,140.899 677.673,141.404 C678.178,141.909 678.462,142.594 678.462,143.308 Z M698.449,88.223 C695.423,82.309 690.879,77.305 685.283,73.725 C684.47,73.205 683.44,73.161 682.585,73.609 C681.73,74.056 681.18,74.928 681.143,75.893 C681.107,76.857 681.59,77.768 682.409,78.278 C687.21,81.332 691.1,85.623 693.67,90.7 C694.376,91.976 695.97,92.458 697.264,91.787 C698.559,91.116 699.084,89.536 698.449,88.223 Z M633.941,92.154 C634.946,92.153 635.868,91.593 636.33,90.7 C638.9,85.623 642.79,81.332 647.591,78.278 C648.41,77.768 648.893,76.857 648.857,75.893 C648.82,74.928 648.27,74.057 647.415,73.609 C646.56,73.161 645.53,73.205 644.717,73.725 C639.121,77.305 634.577,82.309 631.551,88.223 C631.119,89.058 631.153,90.057 631.641,90.86 C632.13,91.663 633.001,92.153 633.941,92.154 Z M696.571,127.134 C697.542,128.798 697.549,130.855 696.589,132.527 C695.63,134.198 693.85,135.229 691.923,135.231 L638.077,135.231 C636.151,135.227 634.374,134.195 633.416,132.524 C632.458,130.853 632.466,128.797 633.436,127.134 C636.468,121.9 638.077,114.46 638.077,105.615 C638.077,90.746 650.131,78.692 665,78.692 C679.869,78.692 691.923,90.746 691.923,105.615 C691.923,114.456 693.532,121.897 696.571,127.134 Z M691.923,129.846 C688.342,123.698 686.538,115.547 686.538,105.615 C686.538,93.72 676.895,84.077 665,84.077 C653.105,84.077 643.462,93.72 643.462,105.615 C643.462,115.55 641.651,123.701 638.077,129.846 Z" />
        </g>
    </g>
</svg>