<?xml version="1.0" encoding="UTF-8"?>
<svg height="600" width="800" xmlns="http://www.w3.org/2000/svg" xmlns:xlink="http://www.w3.org/1999/xlink">
    <g id="Notes" font-family="'LucidaGrande', 'Lucida Grande', sans-serif" font-size="13">
        <rect fill="white" height="600.0" width="800.0" x="0.0" y="0.0" />
        <g font-size="13">
            <text x="18.0" y="176.0">Small</text>
            <text x="18.0" y="376.0">Medium</text>
            <text x="18.0" y="576.0">Large</text>
        </g>
        <g font-size="9">
            <text x="250.0" y="30.0">Ultralight</text>
            <text x="450.0" y="30.0">Regular</text>
            <text x="650.0" y="30.0">Black</text>
            <text id="template-version" fill="#505050" text-anchor="end" x="785.0" y="575.0">Template v.3.0</text>
            <a href="https://github.com/swhitty/SwiftDraw">
                <text fill="#505050" text-anchor="end" x="785.0" y="590.0">https://github.com/swhitty/SwiftDraw</text>
            </a>
        </g>
    </g>
    <g id="Guides" stroke="rgb(39, 170, 225)" stroke-width="0.5">
        <path id="Capline-S" d="M18,76 l800,0" />
        <path id="H-reference" d="M85,145.755 L87.685,145.755 L113.369,79.287 L114.052,79.287 L114.052,76 L112.148,76 L85,145.755 Z M95.693,121.536 L130.996,121.536 L130.263,119.313 L96.474,119.313 L95.693,121.536 Z M139.15,145.755 L141.787,145.755 L114.638,76 L113.466,76 L113.466,79.287 L139.15,145.755 Z" stroke="none" />
        <path id="Baseline-S" d="M18,146 l800,0" />
        <path id="left-margin-Ultralight-S" d="M220,56 l0,110" />
        <path id="right-margin-Ultralight-S" d="M310,56 l0,110" />
        <path id="left-margin-Regular-S" d="M420,56 l0,110" />
        <path id="right-margin-Regular-S" d="M510,56 l0,110" />
        <path id="left-margin-Black-S" d="M620,56 l0,110" />
        <path id="right-margin-Black-S" d="M710,56 l0,110" />
        <path id="Capline-M" d="M18,276 l800,0" />
        <path id="Baseline-M" d="M18,346 l800,0" />
        <path id="Capline-L" d="M18,476 l800,0" />
        <path id="Baseline-L" d="M18,546 l800,0" />
    </g>
    <g id="Symbols">
        <g id="Ultralight-S">
            <path d="M302.103,144.99 C301.657,145.549 301.008,145.906 300.298,145.985 C299.587,146.064 298.875,145.858 298.317,145.411 C298.193,145.31 285.253,135.231 265,135.231 C244.747,135.231 231.804,145.327 231.683,145.414 C230.522,146.343 228.827,146.156 227.896,144.994 C226.966,143.832 227.154,142.136 228.316,141.206 C228.864,140.768 241.279,131.022 261.394,129.948 C260.348,125.779 259.975,121.469 260.288,117.182 C260.874,109.876 263.963,100.143 274.76,92.79 C272.918,92.333 271.024,92.119 269.126,92.154 C262.732,92.363 258.713,96.095 256.842,103.569 C256.545,104.77 255.468,105.614 254.231,105.615 C254.011,105.617 253.791,105.589 253.578,105.535 C252.136,105.174 251.259,103.712 251.619,102.27 C254.732,89.835 262.762,86.985 268.951,86.789 C271.409,86.736 273.863,87.013 276.247,87.614 C274.958,85.484 273.074,83.263 270.455,82.145 C267.09,80.718 262.994,81.341 258.236,84 C256.937,84.724 255.295,84.259 254.568,82.958 C253.842,81.658 254.308,80.015 255.608,79.289 C261.915,75.772 267.63,75.069 272.597,77.203 C276.8,79.006 279.573,82.513 281.303,85.616 C283.383,82.372 285.974,80.174 288.838,79.242 C292.83,77.94 297.131,79 301.627,82.395 C302.759,83.308 302.962,84.954 302.085,86.114 C301.209,87.275 299.57,87.529 298.382,86.69 C295.384,84.425 292.739,83.641 290.524,84.357 C288.071,85.148 286.193,87.723 285.015,89.947 C287.437,90.438 289.768,91.304 291.923,92.514 C296.84,95.324 302.692,101.281 302.692,113.696 C302.692,115.183 301.487,116.388 300,116.388 C298.513,116.388 297.308,115.183 297.308,113.696 C297.308,105.8 294.592,100.234 289.231,97.205 C288.606,96.851 287.96,96.536 287.296,96.263 C288.991,99.709 289.585,103.593 288.999,107.389 C288.575,110.197 287.559,112.883 286.017,115.267 C285.158,116.472 283.487,116.758 282.277,115.907 C281.066,115.056 280.769,113.388 281.612,112.171 C281.861,111.804 287.107,103.966 280.514,95.556 C271.428,100.675 266.417,108.092 265.653,117.63 C265.355,121.762 265.792,125.914 266.942,129.893 C288.026,130.502 301.107,140.774 301.673,141.221 C302.827,142.146 303.02,143.829 302.103,144.99 Z M230,115.038 C230,109.834 234.219,105.615 239.423,105.615 C244.627,105.615 248.846,109.834 248.846,115.038 C248.846,120.243 244.627,124.462 239.423,124.462 C236.924,124.462 234.527,123.469 232.76,121.702 C230.993,119.934 230,117.538 230,115.038 Z M235.385,115.038 C235.385,117.269 237.193,119.077 239.423,119.077 C241.653,119.077 243.462,117.269 243.462,115.038 C243.462,112.808 241.653,111 239.423,111 C238.352,111 237.325,111.425 236.567,112.183 C235.81,112.94 235.385,113.967 235.385,115.038 Z" />
        </g>
        <g id="Regular-S">
            <path d="M502.103,144.99 C501.657,145.549 501.008,145.906 500.298,145.985 C499.587,146.064 498.875,145.858 498.317,145.411 C498.193,145.31 485.253,135.231 465,135.231 C444.747,135.231 431.804,145.327 431.683,145.414 C430.522,146.343 428.826,146.156 427.896,144.994 C426.966,143.832 427.154,142.136 428.316,141.206 C428.864,140.768 441.279,131.022 461.394,129.948 C460.348,125.779 459.975,121.469 460.288,117.182 C460.874,109.876 463.963,100.143 474.76,92.79 C472.918,92.333 471.024,92.119 469.126,92.154 C462.732,92.363 458.713,96.095 456.842,103.569 C456.545,104.77 455.468,105.614 454.231,105.615 C454.011,105.617 453.791,105.589 453.578,105.535 C452.136,105.174 451.259,103.712 451.619,102.27 C454.732,89.835 462.762,86.985 468.951,86.789 C471.409,86.736 473.863,87.013 476.247,87.614 C474.958,85.484 473.074,83.263 470.455,82.145 C467.09,80.718 462.994,81.341 458.236,84 C456.937,84.724 455.295,84.259 454.568,82.958 C453.842,81.658 454.308,80.015 455.608,79.289 C461.915,75.772 467.63,75.069 472.597,77.203 C476.8,79.006 479.573,82.513 481.303,85.616 C483.383,82.372 485.974,80.174 488.838,79.242 C492.83,77.94 497.131,79 501.627,82.395 C502.759,83.308 502.962,84.954 502.085,86.114 C501.209,87.275 499.57,87.529 498.382,86.69 C495.384,84.425 492.739,83.641 490.524,84.357 C488.071,85.148 486.193,87.723 485.015,89.947 C487.437,90.438 489.768,91.304 491.923,92.514 C496.84,95.324 502.692,101.281 502.692,113.696 C502.692,115.183 501.487,116.388 500,116.388 C498.513,116.388 497.308,115.183 497.308,113.696 C497.308,105.8 494.592,100.234 489.231,97.205 C488.606,96.851 487.96,96.536 487.296,96.263 C488.991,99.709 489.585,103.593 488.999,107.389 C488.575,110.197 487.559,112.883 486.017,115.267 C485.158,116.472 483.487,116.758 482.277,115.907 C481.066,115.056 480.769,113.388 481.612,112.171 C481.861,111.804 487.107,103.966 480.514,95.556 C471.428,100.675 466.417,108.092 465.653,117.63 C465.355,121.762 465.792,125.914 466.942,129.893 C488.026,130.502 501.107,140.774 501.673,141.221 C502.827,142.146 503.02,143.829 502.103,144.99 Z M430,115.038 C430,109.834 434.219,105.615 439.423,105.615 C444.627,105.615 448.846,109.834 448.846,115.038 C448.846,120.243 444.627,124.462 439.423,124.462 C436.924,124.462 434.527,123.469 432.76,121.702 C430.993,119.934 430,117.538 430,115.038 Z M435.385,115.038 C435.385,117.269 437.193,119.077 439.423,119.077 C441.653,119.077 443.462,117.269 443.462,115.038 C443.462,112.808 441.653,111 439.423,111 C438.352,111 437.325,111.425 436.567,112.183 C435.81,112.94 435.385,113.967 435.385,115.038 Z" />
        </g>
        <g id="Black-S">
            <path d="M702.103,144.99 C701.657,145.549 701.008,145.906 700.298,145.985 C699.587,146.064 698.875,145.858 698.317,145.411 C698.193,145.31 685.253,135.231 665,135.231 C644.747,135.231 631.804,145.327 631.683,145.414 C630.523,146.343 628.827,146.156 627.896,144.994 C626.966,143.832 627.154,142.136 628.316,141.206 C628.864,140.768 641.279,131.022 661.394,129.948 C660.348,125.779 659.975,121.469 660.289,117.182 C660.874,109.876 663.964,100.143 674.76,92.79 C672.918,92.333 671.024,92.119 669.126,92.154 C662.732,92.363 658.714,96.095 656.842,103.569 C656.545,104.77 655.468,105.614 654.231,105.615 C654.011,105.617 653.791,105.589 653.578,105.535 C652.136,105.174 651.259,103.712 651.619,102.27 C654.732,89.835 662.762,86.985 668.951,86.789 C671.409,86.736 673.863,87.013 676.247,87.614 C674.958,85.484 673.074,83.263 670.455,82.145 C667.09,80.718 662.994,81.341 658.236,84 C656.937,84.724 655.295,84.259 654.568,82.958 C653.842,81.658 654.308,80.015 655.608,79.289 C661.915,75.772 667.63,75.069 672.597,77.203 C676.8,79.006 679.573,82.513 681.303,85.616 C683.383,82.372 685.974,80.174 688.838,79.242 C692.83,77.94 697.131,79 701.627,82.395 C702.759,83.308 702.962,84.954 702.085,86.114 C701.209,87.275 699.57,87.529 698.382,86.69 C695.384,84.425 692.739,83.641 690.524,84.357 C688.071,85.148 686.193,87.723 685.015,89.947 C687.438,90.438 689.768,91.304 691.923,92.514 C696.84,95.324 702.692,101.281 702.692,113.696 C702.692,115.183 701.487,116.388 700,116.388 C698.513,116.388 697.308,115.183 697.308,113.696 C697.308,105.8 694.592,100.234 689.231,97.205 C688.606,96.851 687.96,96.536 687.296,96.263 C688.991,99.709 689.585,103.593 688.999,107.389 C688.575,110.197 687.559,112.883 686.017,115.267 C685.158,116.472 683.487,116.758 682.277,115.907 C681.066,115.056 680.769,113.388 681.612,112.171 C681.861,111.804 687.107,103.966 680.514,95.556 C671.428,100.675 666.417,108.092 665.653,117.63 C665.355,121.762 665.792,125.914 666.942,129.893 C688.026,130.502 701.107,140.774 701.673,141.221 C702.827,142.146 703.02,143.829 702.103,144.99 Z M630,115.038 C630,109.834 634.219,105.615 639.423,105.615 C644.627,105.615 648.846,109.834 648.846,115.038 C648.846,120.243 644.627,124.462 639.423,124.462 C636.924,124.462 634.527,123.469 632.76,121.702 C630.993,119.934 630,117.538 630,115.038 Z M635.385,115.038 C635.385,117.269 637.193,119.077 639.423,119.077 C641.654,119.077 643.462,117.269 643.462,115.038 C643.462,112.808 641.654,111 639.423,111 C638.352,111 637.325,111.425 636.567,112.183 C635.81,112.94 635.385,113.967 635.385,115.038 Z" />
        </g>
    </g>
</svg>