<?xml version="1.0" encoding="UTF-8"?>
<svg height="600" width="800" xmlns="http://www.w3.org/2000/svg" xmlns:xlink="http://www.w3.org/1999/xlink">
    <g id="Notes" font-family="'LucidaGrande', 'Lucida Grande', sans-serif" font-size="13">
        <rect fill="white" height="600.0" width="800.0" x="0.0" y="0.0" />
        <g font-size="13">
            <text x="18.0" y="176.0">Small</text>
            <text x="18.0" y="376.0">Medium</text>
            <text x="18.0" y="576.0">Large</text>
        </g>
        <g font-size="9">
            <text x="250.0" y="30.0">Ultralight</text>
            <text x="450.0" y="30.0">Regular</text>
            <text x="650.0" y="30.0">Black</text>
            <text id="template-version" fill="#505050" text-anchor="end" x="785.0" y="575.0">Template v.3.0</text>
            <a href="https://github.com/swhitty/SwiftDraw">
                <text fill="#505050" text-anchor="end" x="785.0" y="590.0">https://github.com/swhitty/SwiftDraw</text>
            </a>
        </g>
    </g>
    <g id="Guides" stroke="rgb(39, 170, 225)" stroke-width="0.5">
        <path id="Capline-S" d="M18,76 l800,0" />
        <path id="H-reference" d="M85,145.755 L87.685,145.755 L113.369,79.287 L114.052,79.287 L114.052,76 L112.148,76 L85,145.755 Z M95.693,121.536 L130.996,121.536 L130.263,119.313 L96.474,119.313 L95.693,121.536 Z M139.15,145.755 L141.787,145.755 L114.638,76 L113.466,76 L113.466,79.287 L139.15,145.755 Z" stroke="none" />
        <path id="Baseline-S" d="M18,146 l800,0" />
        <path id="left-margin-Ultralight-S" d="M220,56 l0,110" />
        <path id="right-margin-Ultralight-S" d="M310,56 l0,110" />
        <path id="left-margin-Regular-S" d="M420,56 l0,110" />
        <path id="right-margin-Regular-S" d="M510,56 l0,110" />
        <path id="left-margin-Black-S" d="M620,56 l0,110" />
        <path id="right-margin-Black-S" d="M710,56 l0,110" />
        <path id="Capline-M" d="M18,276 l800,0" />
        <path id="Baseline-M" d="M18,346 l800,0" />
        <path id="Capline-L" d="M18,476 l800,0" />
        <path id="Baseline-L" d="M18,546 l800,0" />
    </g>
    <g id="Symbols">
        <g id="Ultralight-S">
            <path d="M293.269,86.769 C288.065,86.769 283.846,90.988 283.846,96.192 C283.846,101.397 288.065,105.615 293.269,105.615 C298.473,105.615 302.692,101.397 302.692,96.192 C302.692,93.693 301.7,91.296 299.932,89.529 C298.165,87.762 295.768,86.769 293.269,86.769 Z M293.269,100.231 C291.039,100.231 289.231,98.423 289.231,96.192 C289.231,93.962 291.039,92.154 293.269,92.154 C295.5,92.154 297.308,93.962 297.308,96.192 C297.308,97.263 296.882,98.291 296.125,99.048 C295.367,99.805 294.34,100.231 293.269,100.231 Z M265,119.413 L265,97.538 C265,96.052 263.795,94.846 262.308,94.846 C260.821,94.846 259.615,96.052 259.615,97.538 L259.615,119.413 C254.365,120.769 250.941,125.818 251.624,131.198 C252.308,136.577 256.885,140.61 262.308,140.61 C267.731,140.61 272.308,136.578 272.991,131.198 C273.674,125.818 270.251,120.769 265,119.413 Z M262.308,135.231 C259.334,135.231 256.923,132.82 256.923,129.846 C256.923,126.872 259.334,124.462 262.308,124.462 C265.282,124.462 267.692,126.872 267.692,129.846 C267.692,131.274 267.125,132.644 266.115,133.654 C265.105,134.663 263.736,135.231 262.308,135.231 Z M275.769,113.019 L275.769,84.077 C275.769,76.642 269.742,70.615 262.308,70.615 C254.873,70.615 248.846,76.642 248.846,84.077 L248.846,113.019 C241.707,118.735 238.956,128.337 241.985,136.966 C245.014,145.595 253.162,151.371 262.308,151.371 C271.453,151.371 279.602,145.595 282.631,136.966 C285.66,128.337 282.909,118.735 275.769,113.019 Z M262.308,146 C255.248,146.001 249.006,141.417 246.893,134.682 C244.78,127.946 247.285,120.619 253.08,116.587 C253.805,116.08 254.235,115.25 254.231,114.365 L254.231,84.077 C254.231,79.616 257.847,76 262.308,76 C266.768,76 270.385,79.616 270.385,84.077 L270.385,114.365 C270.384,115.244 270.814,116.069 271.535,116.573 C277.342,120.601 279.857,127.936 277.742,134.679 C275.628,141.423 269.375,146.009 262.308,146 Z" />
        </g>
        <g id="Regular-S">
            <path d="M493.269,86.769 C488.065,86.769 483.846,90.988 483.846,96.192 C483.846,101.397 488.065,105.615 493.269,105.615 C498.473,105.615 502.692,101.397 502.692,96.192 C502.692,93.693 501.7,91.296 499.932,89.529 C498.165,87.762 495.768,86.769 493.269,86.769 Z M493.269,100.231 C491.039,100.231 489.231,98.423 489.231,96.192 C489.231,93.962 491.039,92.154 493.269,92.154 C495.5,92.154 497.308,93.962 497.308,96.192 C497.308,97.263 496.882,98.291 496.125,99.048 C495.367,99.805 494.34,100.231 493.269,100.231 Z M465,119.413 L465,97.538 C465,96.052 463.795,94.846 462.308,94.846 C460.821,94.846 459.615,96.052 459.615,97.538 L459.615,119.413 C454.365,120.769 450.941,125.818 451.624,131.198 C452.308,136.577 456.885,140.61 462.308,140.61 C467.731,140.61 472.308,136.578 472.991,131.198 C473.674,125.818 470.251,120.769 465,119.413 Z M462.308,135.231 C459.334,135.231 456.923,132.82 456.923,129.846 C456.923,126.872 459.334,124.462 462.308,124.462 C465.282,124.462 467.692,126.872 467.692,129.846 C467.692,131.274 467.125,132.644 466.115,133.654 C465.105,134.663 463.736,135.231 462.308,135.231 Z M475.769,113.019 L475.769,84.077 C475.769,76.642 469.742,70.615 462.308,70.615 C454.873,70.615 448.846,76.642 448.846,84.077 L448.846,113.019 C441.707,118.735 438.956,128.337 441.985,136.966 C445.014,145.595 453.162,151.371 462.308,151.371 C471.453,151.371 479.602,145.595 482.631,136.966 C485.66,128.337 482.909,118.735 475.769,113.019 Z M462.308,146 C455.248,146.001 449.006,141.417 446.893,134.682 C444.78,127.946 447.285,120.619 453.08,116.587 C453.805,116.08 454.235,115.25 454.231,114.365 L454.231,84.077 C454.231,79.616 457.847,76 462.308,76 C466.768,76 470.385,79.616 470.385,84.077 L470.385,114.365 C470.384,115.244 470.814,116.069 471.535,116.573 C477.342,120.601 479.857,127.936 477.742,134.679 C475.628,141.423 469.375,146.009 462.308,146 Z" />
        </g>
        <g id="Black-S">
            <path d="M693.269,86.769 C688.065,86.769 683.846,90.988 683.846,96.192 C683.846,101.397 688.065,105.615 693.269,105.615 C698.473,105.615 702.692,101.397 702.692,96.192 C702.692,93.693 701.7,91.296 699.932,89.529 C698.165,87.762 695.768,86.769 693.269,86.769 Z M693.269,100.231 C691.039,100.231 689.231,98.423 689.231,96.192 C689.231,93.962 691.039,92.154 693.269,92.154 C695.5,92.154 697.308,93.962 697.308,96.192 C697.308,97.263 696.882,98.291 696.125,99.048 C695.367,99.805 694.34,100.231 693.269,100.231 Z M665,119.413 L665,97.538 C665,96.052 663.795,94.846 662.308,94.846 C660.821,94.846 659.615,96.052 659.615,97.538 L659.615,119.413 C654.365,120.769 650.941,125.818 651.624,131.198 C652.308,136.577 656.885,140.61 662.308,140.61 C667.731,140.61 672.308,136.578 672.991,131.198 C673.674,125.818 670.251,120.769 665,119.413 Z M662.308,135.231 C659.334,135.231 656.923,132.82 656.923,129.846 C656.923,126.872 659.334,124.462 662.308,124.462 C665.282,124.462 667.692,126.872 667.692,129.846 C667.692,131.274 667.125,132.644 666.115,133.654 C665.105,134.663 663.736,135.231 662.308,135.231 Z M675.769,113.019 L675.769,84.077 C675.769,76.642 669.742,70.615 662.308,70.615 C654.873,70.615 648.846,76.642 648.846,84.077 L648.846,113.019 C641.707,118.735 638.956,128.337 641.985,136.966 C645.014,145.595 653.162,151.371 662.308,151.371 C671.453,151.371 679.602,145.595 682.631,136.966 C685.66,128.337 682.909,118.735 675.769,113.019 Z M662.308,146 C655.248,146.001 649.006,141.417 646.893,134.682 C644.78,127.946 647.285,120.619 653.08,116.587 C653.805,116.08 654.235,115.25 654.231,114.365 L654.231,84.077 C654.231,79.616 657.847,76 662.308,76 C666.768,76 670.385,79.616 670.385,84.077 L670.385,114.365 C670.384,115.244 670.814,116.069 671.535,116.573 C677.342,120.601 679.857,127.936 677.742,134.679 C675.628,141.423 669.375,146.009 662.308,146 Z" />
        </g>
    </g>
</svg>