<?xml version="1.0" encoding="UTF-8"?>
<svg height="600" width="800" xmlns="http://www.w3.org/2000/svg" xmlns:xlink="http://www.w3.org/1999/xlink">
    <g id="Notes" font-family="'LucidaGrande', 'Lucida Grande', sans-serif" font-size="13">
        <rect fill="white" height="600.0" width="800.0" x="0.0" y="0.0" />
        <g font-size="13">
            <text x="18.0" y="176.0">Small</text>
            <text x="18.0" y="376.0">Medium</text>
            <text x="18.0" y="576.0">Large</text>
        </g>
        <g font-size="9">
            <text x="250.0" y="30.0">Ultralight</text>
            <text x="450.0" y="30.0">Regular</text>
            <text x="650.0" y="30.0">Black</text>
            <text id="template-version" fill="#505050" text-anchor="end" x="785.0" y="575.0">Template v.3.0</text>
            <a href="https://github.com/swhitty/SwiftDraw">
                <text fill="#505050" text-anchor="end" x="785.0" y="590.0">https://github.com/swhitty/SwiftDraw</text>
            </a>
        </g>
    </g>
    <g id="Guides" stroke="rgb(39, 170, 225)" stroke-width="0.5">
        <path id="Capline-S" d="M18,76 l800,0" />
        <path id="H-reference" d="M85,145.755 L87.685,145.755 L113.369,79.287 L114.052,79.287 L114.052,76 L112.148,76 L85,145.755 Z M95.693,121.536 L130.996,121.536 L130.263,119.313 L96.474,119.313 L95.693,121.536 Z M139.15,145.755 L141.787,145.755 L114.638,76 L113.466,76 L113.466,79.287 L139.15,145.755 Z" stroke="none" />
        <path id="Baseline-S" d="M18,146 l800,0" />
        <path id="left-margin-Ultralight-S" d="M220,56 l0,110" />
        <path id="right-margin-Ultralight-S" d="M310,56 l0,110" />
        <path id="left-margin-Regular-S" d="M420,56 l0,110" />
        <path id="right-margin-Regular-S" d="M510,56 l0,110" />
        <path id="left-margin-Black-S" d="M620,56 l0,110" />
        <path id="right-margin-Black-S" d="M710,56 l0,110" />
        <path id="Capline-M" d="M18,276 l800,0" />
        <path id="Baseline-M" d="M18,346 l800,0" />
        <path id="Capline-L" d="M18,476 l800,0" />
        <path id="Baseline-L" d="M18,546 l800,0" />
    </g>
    <g id="Symbols">
        <g id="Ultralight-S">
            <path d="M289.231,76 L246.154,76 C244.726,76 243.356,76.567 242.346,77.577 C241.337,78.587 240.769,79.957 240.769,81.385 L240.769,89.462 L235.385,89.462 C233.957,89.462 232.587,90.029 231.577,91.039 C230.567,92.048 230,93.418 230,94.846 L230,127.154 C230,128.582 230.567,129.952 231.577,130.961 C232.587,131.971 233.957,132.538 235.385,132.538 L240.769,132.538 L240.769,140.615 C240.769,142.043 241.337,143.413 242.346,144.423 C243.356,145.433 244.726,146 246.154,146 L289.231,146 C290.659,146 292.028,145.433 293.038,144.423 C294.048,143.413 294.615,142.043 294.615,140.615 L294.615,81.385 C294.615,79.957 294.048,78.587 293.038,77.577 C292.028,76.567 290.659,76 289.231,76 Z M275.769,102.923 L289.231,102.923 L289.231,119.077 L275.769,119.077 Z M289.231,97.538 L275.769,97.538 L275.769,94.846 C275.769,93.418 275.202,92.048 274.192,91.039 C273.182,90.029 271.813,89.462 270.385,89.462 L270.385,81.385 L289.231,81.385 Z M246.154,81.385 L265,81.385 L265,89.462 L246.154,89.462 Z M235.385,94.846 L270.385,94.846 L270.385,121.712 C270.385,121.732 270.385,121.749 270.385,121.769 C270.385,121.789 270.385,121.806 270.385,121.826 L270.385,127.154 L235.385,127.154 Z M246.154,132.538 L265,132.538 L265,140.615 L246.154,140.615 Z M270.385,140.615 L270.385,132.538 C271.813,132.538 273.182,131.971 274.192,130.961 C275.202,129.952 275.769,128.582 275.769,127.154 L275.769,124.462 L289.231,124.462 L289.231,140.615 Z M244.084,117.354 L249.381,111 L244.084,104.646 C243.132,103.502 243.288,101.804 244.431,100.853 C245.575,99.902 247.273,100.057 248.224,101.201 L252.885,106.793 L257.546,101.2 C258.496,100.057 260.194,99.902 261.338,100.853 C262.481,101.804 262.637,103.502 261.686,104.645 L256.388,111 L261.685,117.354 C262.637,118.498 262.481,120.196 261.338,121.147 C260.194,122.098 258.496,121.943 257.545,120.799 L252.885,115.207 L248.224,120.8 C247.273,121.943 245.575,122.098 244.431,121.147 C243.288,120.196 243.132,118.498 244.084,117.355 Z" />
        </g>
        <g id="Regular-S">
            <path d="M489.231,76 L446.154,76 C444.726,76 443.356,76.567 442.346,77.577 C441.337,78.587 440.769,79.957 440.769,81.385 L440.769,89.462 L435.385,89.462 C433.957,89.462 432.587,90.029 431.577,91.039 C430.567,92.048 430,93.418 430,94.846 L430,127.154 C430,128.582 430.567,129.952 431.577,130.961 C432.587,131.971 433.957,132.538 435.385,132.538 L440.769,132.538 L440.769,140.615 C440.769,142.043 441.337,143.413 442.346,144.423 C443.356,145.433 444.726,146 446.154,146 L489.231,146 C490.659,146 492.028,145.433 493.038,144.423 C494.048,143.413 494.615,142.043 494.615,140.615 L494.615,81.385 C494.615,79.957 494.048,78.587 493.038,77.577 C492.028,76.567 490.659,76 489.231,76 Z M475.769,102.923 L489.231,102.923 L489.231,119.077 L475.769,119.077 Z M489.231,97.538 L475.769,97.538 L475.769,94.846 C475.769,93.418 475.202,92.048 474.192,91.039 C473.182,90.029 471.813,89.462 470.385,89.462 L470.385,81.385 L489.231,81.385 Z M446.154,81.385 L465,81.385 L465,89.462 L446.154,89.462 Z M435.385,94.846 L470.385,94.846 L470.385,121.712 C470.385,121.732 470.385,121.749 470.385,121.769 C470.385,121.789 470.385,121.806 470.385,121.826 L470.385,127.154 L435.385,127.154 Z M446.154,132.538 L465,132.538 L465,140.615 L446.154,140.615 Z M470.385,140.615 L470.385,132.538 C471.813,132.538 473.182,131.971 474.192,130.961 C475.202,129.952 475.769,128.582 475.769,127.154 L475.769,124.462 L489.231,124.462 L489.231,140.615 Z M444.084,117.354 L449.381,111 L444.084,104.646 C443.132,103.502 443.288,101.804 444.431,100.853 C445.575,99.902 447.273,100.057 448.224,101.201 L452.885,106.793 L457.546,101.2 C458.496,100.057 460.194,99.902 461.338,100.853 C462.481,101.804 462.637,103.502 461.686,104.645 L456.388,111 L461.685,117.354 C462.637,118.498 462.481,120.196 461.338,121.147 C460.194,122.098 458.496,121.943 457.545,120.799 L452.885,115.207 L448.224,120.8 C447.273,121.943 445.575,122.098 444.431,121.147 C443.288,120.196 443.132,118.498 444.084,117.355 Z" />
        </g>
        <g id="Black-S">
            <path d="M689.231,76 L646.154,76 C644.726,76 643.356,76.567 642.346,77.577 C641.337,78.587 640.769,79.957 640.769,81.385 L640.769,89.462 L635.385,89.462 C633.957,89.462 632.587,90.029 631.577,91.039 C630.567,92.048 630,93.418 630,94.846 L630,127.154 C630,128.582 630.567,129.952 631.577,130.961 C632.587,131.971 633.957,132.538 635.385,132.538 L640.769,132.538 L640.769,140.615 C640.769,142.043 641.337,143.413 642.346,144.423 C643.356,145.433 644.726,146 646.154,146 L689.231,146 C690.659,146 692.028,145.433 693.038,144.423 C694.048,143.413 694.615,142.043 694.615,140.615 L694.615,81.385 C694.615,79.957 694.048,78.587 693.038,77.577 C692.028,76.567 690.659,76 689.231,76 Z M675.769,102.923 L689.231,102.923 L689.231,119.077 L675.769,119.077 Z M689.231,97.538 L675.769,97.538 L675.769,94.846 C675.769,93.418 675.202,92.048 674.192,91.039 C673.182,90.029 671.813,89.462 670.385,89.462 L670.385,81.385 L689.231,81.385 Z M646.154,81.385 L665,81.385 L665,89.462 L646.154,89.462 Z M635.385,94.846 L670.385,94.846 L670.385,121.712 C670.385,121.732 670.385,121.749 670.385,121.769 C670.385,121.789 670.385,121.806 670.385,121.826 L670.385,127.154 L635.385,127.154 Z M646.154,132.538 L665,132.538 L665,140.615 L646.154,140.615 Z M670.385,140.615 L670.385,132.538 C671.813,132.538 673.182,131.971 674.192,130.961 C675.202,129.952 675.769,128.582 675.769,127.154 L675.769,124.462 L689.231,124.462 L689.231,140.615 Z M644.084,117.354 L649.381,111 L644.084,104.646 C643.132,103.502 643.288,101.804 644.432,100.853 C645.575,99.902 647.273,100.057 648.224,101.201 L652.885,106.793 L657.546,101.2 C658.496,100.057 660.194,99.902 661.338,100.853 C662.481,101.804 662.637,103.502 661.686,104.645 L656.388,111 L661.685,117.354 C662.637,118.498 662.481,120.196 661.338,121.147 C660.194,122.098 658.496,121.943 657.545,120.799 L652.885,115.207 L648.224,120.8 C647.273,121.943 645.575,122.098 644.432,121.147 C643.288,120.196 643.132,118.498 644.084,117.355 Z" />
        </g>
    </g>
</svg>