<?xml version="1.0" encoding="UTF-8"?>
<svg height="600" width="800" xmlns="http://www.w3.org/2000/svg" xmlns:xlink="http://www.w3.org/1999/xlink">
    <g id="Notes" font-family="'LucidaGrande', 'Lucida Grande', sans-serif" font-size="13">
        <rect fill="white" height="600.0" width="800.0" x="0.0" y="0.0" />
        <g font-size="13">
            <text x="18.0" y="176.0">Small</text>
            <text x="18.0" y="376.0">Medium</text>
            <text x="18.0" y="576.0">Large</text>
        </g>
        <g font-size="9">
            <text x="250.0" y="30.0">Ultralight</text>
            <text x="450.0" y="30.0">Regular</text>
            <text x="650.0" y="30.0">Black</text>
            <text id="template-version" fill="#505050" text-anchor="end" x="785.0" y="575.0">Template v.3.0</text>
            <a href="https://github.com/swhitty/SwiftDraw">
                <text fill="#505050" text-anchor="end" x="785.0" y="590.0">https://github.com/swhitty/SwiftDraw</text>
            </a>
        </g>
    </g>
    <g id="Guides" stroke="rgb(39, 170, 225)" stroke-width="0.5">
        <path id="Capline-S" d="M18,76 l800,0" />
        <path id="H-reference" d="M85,145.755 L87.685,145.755 L113.369,79.287 L114.052,79.287 L114.052,76 L112.148,76 L85,145.755 Z M95.693,121.536 L130.996,121.536 L130.263,119.313 L96.474,119.313 L95.693,121.536 Z M139.15,145.755 L141.787,145.755 L114.638,76 L113.466,76 L113.466,79.287 L139.15,145.755 Z" stroke="none" />
        <path id="Baseline-S" d="M18,146 l800,0" />
        <path id="left-margin-Ultralight-S" d="M220,56 l0,110" />
        <path id="right-margin-Ultralight-S" d="M310,56 l0,110" />
        <path id="left-margin-Regular-S" d="M420,56 l0,110" />
        <path id="right-margin-Regular-S" d="M510,56 l0,110" />
        <path id="left-margin-Black-S" d="M620,56 l0,110" />
        <path id="right-margin-Black-S" d="M710,56 l0,110" />
        <path id="Capline-M" d="M18,276 l800,0" />
        <path id="Baseline-M" d="M18,346 l800,0" />
        <path id="Capline-L" d="M18,476 l800,0" />
        <path id="Baseline-L" d="M18,546 l800,0" />
    </g>
    <g id="Symbols">
        <g id="Ultralight-S">
            <path d="M299.212,104.828 L283.059,120.982 C282.008,122.033 280.303,122.034 279.25,120.983 C278.198,119.931 278.197,118.226 279.248,117.173 L290.809,105.615 L277.452,105.615 C263.944,105.612 252.146,114.748 248.769,127.827 C248.401,129.263 246.934,130.132 245.492,129.763 C244.051,129.394 243.182,127.927 243.551,126.486 C247.534,111.022 261.484,100.219 277.452,100.231 L290.816,100.231 L279.249,88.674 C278.197,87.62 278.198,85.915 279.25,84.863 C280.303,83.812 282.008,83.813 283.06,84.865 L299.214,101.019 C299.719,101.524 300.002,102.21 300.002,102.924 C300.002,103.638 299.718,104.323 299.212,104.828 Z M286.538,137.923 L235.385,137.923 L235.385,97.538 C235.385,96.052 234.179,94.846 232.692,94.846 C231.205,94.846 230,96.052 230,97.538 L230,140.615 C230,141.329 230.284,142.014 230.789,142.519 C231.293,143.024 231.978,143.308 232.692,143.308 L286.538,143.308 C288.025,143.308 289.231,142.102 289.231,140.615 C289.231,139.128 288.025,137.923 286.538,137.923 Z" />
        </g>
        <g id="Regular-S">
            <path d="M499.212,104.828 L483.059,120.982 C482.008,122.033 480.303,122.034 479.25,120.983 C478.198,119.931 478.197,118.226 479.248,117.173 L490.809,105.615 L477.452,105.615 C463.944,105.612 452.146,114.748 448.769,127.827 C448.401,129.263 446.934,130.132 445.492,129.763 C444.051,129.394 443.182,127.927 443.551,126.486 C447.534,111.022 461.484,100.219 477.452,100.231 L490.816,100.231 L479.249,88.674 C478.197,87.62 478.198,85.915 479.25,84.863 C480.303,83.812 482.008,83.813 483.06,84.865 L499.214,101.019 C499.719,101.524 500.002,102.21 500.002,102.924 C500.002,103.638 499.718,104.323 499.212,104.828 Z M486.538,137.923 L435.385,137.923 L435.385,97.538 C435.385,96.052 434.179,94.846 432.692,94.846 C431.205,94.846 430,96.052 430,97.538 L430,140.615 C430,141.329 430.284,142.014 430.789,142.519 C431.293,143.024 431.978,143.308 432.692,143.308 L486.538,143.308 C488.025,143.308 489.231,142.102 489.231,140.615 C489.231,139.128 488.025,137.923 486.538,137.923 Z" />
        </g>
        <g id="Black-S">
            <path d="M699.213,104.828 L683.059,120.982 C682.008,122.033 680.303,122.034 679.25,120.983 C678.198,119.931 678.197,118.226 679.248,117.173 L690.809,105.615 L677.452,105.615 C663.944,105.612 652.146,114.748 648.769,127.827 C648.401,129.263 646.934,130.132 645.492,129.763 C644.051,129.394 643.182,127.927 643.551,126.486 C647.534,111.022 661.484,100.219 677.452,100.231 L690.816,100.231 L679.249,88.674 C678.197,87.62 678.198,85.915 679.25,84.863 C680.303,83.812 682.008,83.813 683.06,84.865 L699.214,101.019 C699.719,101.524 700.002,102.21 700.002,102.924 C700.002,103.638 699.718,104.323 699.213,104.828 Z M686.538,137.923 L635.385,137.923 L635.385,97.538 C635.385,96.052 634.179,94.846 632.692,94.846 C631.205,94.846 630,96.052 630,97.538 L630,140.615 C630,141.329 630.284,142.014 630.789,142.519 C631.293,143.024 631.978,143.308 632.692,143.308 L686.538,143.308 C688.025,143.308 689.231,142.102 689.231,140.615 C689.231,139.128 688.025,137.923 686.538,137.923 Z" />
        </g>
    </g>
</svg>