<?xml version="1.0" encoding="UTF-8"?>
<svg height="600" width="800" xmlns="http://www.w3.org/2000/svg" xmlns:xlink="http://www.w3.org/1999/xlink">
    <g id="Notes" font-family="'LucidaGrande', 'Lucida Grande', sans-serif" font-size="13">
        <rect fill="white" height="600.0" width="800.0" x="0.0" y="0.0" />
        <g font-size="13">
            <text x="18.0" y="176.0">Small</text>
            <text x="18.0" y="376.0">Medium</text>
            <text x="18.0" y="576.0">Large</text>
        </g>
        <g font-size="9">
            <text x="250.0" y="30.0">Ultralight</text>
            <text x="450.0" y="30.0">Regular</text>
            <text x="650.0" y="30.0">Black</text>
            <text id="template-version" fill="#505050" text-anchor="end" x="785.0" y="575.0">Template v.3.0</text>
            <a href="https://github.com/swhitty/SwiftDraw">
                <text fill="#505050" text-anchor="end" x="785.0" y="590.0">https://github.com/swhitty/SwiftDraw</text>
            </a>
        </g>
    </g>
    <g id="Guides" stroke="rgb(39, 170, 225)" stroke-width="0.5">
        <path id="Capline-S" d="M18,76 l800,0" />
        <path id="H-reference" d="M85,145.755 L87.685,145.755 L113.369,79.287 L114.052,79.287 L114.052,76 L112.148,76 L85,145.755 Z M95.693,121.536 L130.996,121.536 L130.263,119.313 L96.474,119.313 L95.693,121.536 Z M139.15,145.755 L141.787,145.755 L114.638,76 L113.466,76 L113.466,79.287 L139.15,145.755 Z" stroke="none" />
        <path id="Baseline-S" d="M18,146 l800,0" />
        <path id="left-margin-Ultralight-S" d="M220,56 l0,110" />
        <path id="right-margin-Ultralight-S" d="M310,56 l0,110" />
        <path id="left-margin-Regular-S" d="M420,56 l0,110" />
        <path id="right-margin-Regular-S" d="M510,56 l0,110" />
        <path id="left-margin-Black-S" d="M620,56 l0,110" />
        <path id="right-margin-Black-S" d="M710,56 l0,110" />
        <path id="Capline-M" d="M18,276 l800,0" />
        <path id="Baseline-M" d="M18,346 l800,0" />
        <path id="Capline-L" d="M18,476 l800,0" />
        <path id="Baseline-L" d="M18,546 l800,0" />
    </g>
    <g id="Symbols">
        <g id="Ultralight-S">
            <path d="M232.692,89.462 C232.692,88.747 232.976,88.063 233.481,87.558 C233.986,87.053 234.671,86.769 235.385,86.769 L294.615,86.769 C296.102,86.769 297.308,87.975 297.308,89.462 C297.308,90.948 296.102,92.154 294.615,92.154 L235.385,92.154 C234.671,92.154 233.986,91.87 233.481,91.365 C232.976,90.86 232.692,90.176 232.692,89.462 Z M267.692,108.308 L235.385,108.308 C233.898,108.308 232.692,109.513 232.692,111 C232.692,112.487 233.898,113.692 235.385,113.692 L267.692,113.692 C269.179,113.692 270.385,112.487 270.385,111 C270.385,109.513 269.179,108.308 267.692,108.308 Z M267.692,129.846 L235.385,129.846 C233.898,129.846 232.692,131.052 232.692,132.538 C232.692,134.025 233.898,135.231 235.385,135.231 L267.692,135.231 C269.179,135.231 270.385,134.025 270.385,132.538 C270.385,131.052 269.179,129.846 267.692,129.846 Z M305.385,121.769 C305.384,122.697 304.906,123.559 304.119,124.051 L282.581,137.512 C281.751,138.031 280.705,138.059 279.849,137.585 C278.993,137.11 278.462,136.209 278.462,135.231 L278.462,108.308 C278.462,107.329 278.993,106.428 279.849,105.954 C280.705,105.48 281.751,105.507 282.581,106.026 L304.119,119.487 C304.906,119.979 305.384,120.841 305.385,121.769 Z M297.614,121.769 L283.846,113.164 L283.846,130.375 Z" />
        </g>
        <g id="Regular-S">
            <path d="M432.692,89.462 C432.692,88.747 432.976,88.063 433.481,87.558 C433.986,87.053 434.671,86.769 435.385,86.769 L494.615,86.769 C496.102,86.769 497.308,87.975 497.308,89.462 C497.308,90.948 496.102,92.154 494.615,92.154 L435.385,92.154 C434.671,92.154 433.986,91.87 433.481,91.365 C432.976,90.86 432.692,90.176 432.692,89.462 Z M467.692,108.308 L435.385,108.308 C433.898,108.308 432.692,109.513 432.692,111 C432.692,112.487 433.898,113.692 435.385,113.692 L467.692,113.692 C469.179,113.692 470.385,112.487 470.385,111 C470.385,109.513 469.179,108.308 467.692,108.308 Z M467.692,129.846 L435.385,129.846 C433.898,129.846 432.692,131.052 432.692,132.538 C432.692,134.025 433.898,135.231 435.385,135.231 L467.692,135.231 C469.179,135.231 470.385,134.025 470.385,132.538 C470.385,131.052 469.179,129.846 467.692,129.846 Z M505.385,121.769 C505.384,122.697 504.906,123.559 504.119,124.051 L482.581,137.512 C481.751,138.031 480.705,138.059 479.849,137.585 C478.993,137.11 478.462,136.209 478.462,135.231 L478.462,108.308 C478.462,107.329 478.993,106.428 479.849,105.954 C480.705,105.48 481.751,105.507 482.581,106.026 L504.119,119.487 C504.906,119.979 505.384,120.841 505.385,121.769 Z M497.614,121.769 L483.846,113.164 L483.846,130.375 Z" />
        </g>
        <g id="Black-S">
            <path d="M632.692,89.462 C632.692,88.747 632.976,88.063 633.481,87.558 C633.986,87.053 634.671,86.769 635.385,86.769 L694.615,86.769 C696.102,86.769 697.308,87.975 697.308,89.462 C697.308,90.948 696.102,92.154 694.615,92.154 L635.385,92.154 C634.671,92.154 633.986,91.87 633.481,91.365 C632.976,90.86 632.692,90.176 632.692,89.462 Z M667.692,108.308 L635.385,108.308 C633.898,108.308 632.692,109.513 632.692,111 C632.692,112.487 633.898,113.692 635.385,113.692 L667.692,113.692 C669.179,113.692 670.385,112.487 670.385,111 C670.385,109.513 669.179,108.308 667.692,108.308 Z M667.692,129.846 L635.385,129.846 C633.898,129.846 632.692,131.052 632.692,132.538 C632.692,134.025 633.898,135.231 635.385,135.231 L667.692,135.231 C669.179,135.231 670.385,134.025 670.385,132.538 C670.385,131.052 669.179,129.846 667.692,129.846 Z M705.385,121.769 C705.384,122.697 704.906,123.559 704.119,124.051 L682.581,137.512 C681.751,138.031 680.705,138.059 679.849,137.585 C678.993,137.11 678.462,136.209 678.462,135.231 L678.462,108.308 C678.462,107.329 678.993,106.428 679.849,105.954 C680.705,105.48 681.751,105.507 682.581,106.026 L704.119,119.487 C704.906,119.979 705.384,120.841 705.385,121.769 Z M697.614,121.769 L683.846,113.164 L683.846,130.375 Z" />
        </g>
    </g>
</svg>