<?xml version="1.0" encoding="UTF-8"?>
<svg height="600" width="800" xmlns="http://www.w3.org/2000/svg" xmlns:xlink="http://www.w3.org/1999/xlink">
    <g id="Notes" font-family="'LucidaGrande', 'Lucida Grande', sans-serif" font-size="13">
        <rect fill="white" height="600.0" width="800.0" x="0.0" y="0.0" />
        <g font-size="13">
            <text x="18.0" y="176.0">Small</text>
            <text x="18.0" y="376.0">Medium</text>
            <text x="18.0" y="576.0">Large</text>
        </g>
        <g font-size="9">
            <text x="250.0" y="30.0">Ultralight</text>
            <text x="450.0" y="30.0">Regular</text>
            <text x="650.0" y="30.0">Black</text>
            <text id="template-version" fill="#505050" text-anchor="end" x="785.0" y="575.0">Template v.3.0</text>
            <a href="https://github.com/swhitty/SwiftDraw">
                <text fill="#505050" text-anchor="end" x="785.0" y="590.0">https://github.com/swhitty/SwiftDraw</text>
            </a>
        </g>
    </g>
    <g id="Guides" stroke="rgb(39, 170, 225)" stroke-width="0.5">
        <path id="Capline-S" d="M18,76 l800,0" />
        <path id="H-reference" d="M85,145.755 L87.685,145.755 L113.369,79.287 L114.052,79.287 L114.052,76 L112.148,76 L85,145.755 Z M95.693,121.536 L130.996,121.536 L130.263,119.313 L96.474,119.313 L95.693,121.536 Z M139.15,145.755 L141.787,145.755 L114.638,76 L113.466,76 L113.466,79.287 L139.15,145.755 Z" stroke="none" />
        <path id="Baseline-S" d="M18,146 l800,0" />
        <path id="left-margin-Ultralight-S" d="M220,56 l0,110" />
        <path id="right-margin-Ultralight-S" d="M310,56 l0,110" />
        <path id="left-margin-Regular-S" d="M420,56 l0,110" />
        <path id="right-margin-Regular-S" d="M510,56 l0,110" />
        <path id="left-margin-Black-S" d="M620,56 l0,110" />
        <path id="right-margin-Black-S" d="M710,56 l0,110" />
        <path id="Capline-M" d="M18,276 l800,0" />
        <path id="Baseline-M" d="M18,346 l800,0" />
        <path id="Capline-L" d="M18,476 l800,0" />
        <path id="Baseline-L" d="M18,546 l800,0" />
    </g>
    <g id="Symbols">
        <g id="Ultralight-S">
            <path d="M291.923,81.385 L254.231,81.385 C242.335,81.385 232.692,91.028 232.692,102.923 C232.692,114.818 242.335,124.462 254.231,124.462 L267.692,124.462 L267.692,137.923 C267.692,139.41 268.898,140.615 270.385,140.615 C271.872,140.615 273.077,139.41 273.077,137.923 L273.077,86.769 L281.154,86.769 L281.154,137.923 C281.154,139.41 282.359,140.615 283.846,140.615 C285.333,140.615 286.538,139.41 286.538,137.923 L286.538,86.769 L291.923,86.769 C293.41,86.769 294.615,85.564 294.615,84.077 C294.615,82.59 293.41,81.385 291.923,81.385 Z M267.692,119.077 L254.231,119.077 C245.309,119.077 238.077,111.845 238.077,102.923 C238.077,94.002 245.309,86.769 254.231,86.769 L267.692,86.769 Z" />
        </g>
        <g id="Regular-S">
            <path d="M491.923,81.385 L454.231,81.385 C442.335,81.385 432.692,91.028 432.692,102.923 C432.692,114.818 442.335,124.462 454.231,124.462 L467.692,124.462 L467.692,137.923 C467.692,139.41 468.898,140.615 470.385,140.615 C471.872,140.615 473.077,139.41 473.077,137.923 L473.077,86.769 L481.154,86.769 L481.154,137.923 C481.154,139.41 482.359,140.615 483.846,140.615 C485.333,140.615 486.538,139.41 486.538,137.923 L486.538,86.769 L491.923,86.769 C493.41,86.769 494.615,85.564 494.615,84.077 C494.615,82.59 493.41,81.385 491.923,81.385 Z M467.692,119.077 L454.231,119.077 C445.309,119.077 438.077,111.845 438.077,102.923 C438.077,94.002 445.309,86.769 454.231,86.769 L467.692,86.769 Z" />
        </g>
        <g id="Black-S">
            <path d="M691.923,81.385 L654.231,81.385 C642.335,81.385 632.692,91.028 632.692,102.923 C632.692,114.818 642.335,124.462 654.231,124.462 L667.692,124.462 L667.692,137.923 C667.692,139.41 668.898,140.615 670.385,140.615 C671.872,140.615 673.077,139.41 673.077,137.923 L673.077,86.769 L681.154,86.769 L681.154,137.923 C681.154,139.41 682.359,140.615 683.846,140.615 C685.333,140.615 686.538,139.41 686.538,137.923 L686.538,86.769 L691.923,86.769 C693.41,86.769 694.615,85.564 694.615,84.077 C694.615,82.59 693.41,81.385 691.923,81.385 Z M667.692,119.077 L654.231,119.077 C645.309,119.077 638.077,111.845 638.077,102.923 C638.077,94.002 645.309,86.769 654.231,86.769 L667.692,86.769 Z" />
        </g>
    </g>
</svg>