<?xml version="1.0" encoding="UTF-8"?>
<svg height="600" width="800" xmlns="http://www.w3.org/2000/svg" xmlns:xlink="http://www.w3.org/1999/xlink">
    <g id="Notes" font-family="'LucidaGrande', 'Lucida Grande', sans-serif" font-size="13">
        <rect fill="white" height="600.0" width="800.0" x="0.0" y="0.0" />
        <g font-size="13">
            <text x="18.0" y="176.0">Small</text>
            <text x="18.0" y="376.0">Medium</text>
            <text x="18.0" y="576.0">Large</text>
        </g>
        <g font-size="9">
            <text x="250.0" y="30.0">Ultralight</text>
            <text x="450.0" y="30.0">Regular</text>
            <text x="650.0" y="30.0">Black</text>
            <text id="template-version" fill="#505050" text-anchor="end" x="785.0" y="575.0">Template v.3.0</text>
            <a href="https://github.com/swhitty/SwiftDraw">
                <text fill="#505050" text-anchor="end" x="785.0" y="590.0">https://github.com/swhitty/SwiftDraw</text>
            </a>
        </g>
    </g>
    <g id="Guides" stroke="rgb(39, 170, 225)" stroke-width="0.5">
        <path id="Capline-S" d="M18,76 l800,0" />
        <path id="H-reference" d="M85,145.755 L87.685,145.755 L113.369,79.287 L114.052,79.287 L114.052,76 L112.148,76 L85,145.755 Z M95.693,121.536 L130.996,121.536 L130.263,119.313 L96.474,119.313 L95.693,121.536 Z M139.15,145.755 L141.787,145.755 L114.638,76 L113.466,76 L113.466,79.287 L139.15,145.755 Z" stroke="none" />
        <path id="Baseline-S" d="M18,146 l800,0" />
        <path id="left-margin-Ultralight-S" d="M220,56 l0,110" />
        <path id="right-margin-Ultralight-S" d="M310,56 l0,110" />
        <path id="left-margin-Regular-S" d="M420,56 l0,110" />
        <path id="right-margin-Regular-S" d="M510,56 l0,110" />
        <path id="left-margin-Black-S" d="M620,56 l0,110" />
        <path id="right-margin-Black-S" d="M710,56 l0,110" />
        <path id="Capline-M" d="M18,276 l800,0" />
        <path id="Baseline-M" d="M18,346 l800,0" />
        <path id="Capline-L" d="M18,476 l800,0" />
        <path id="Baseline-L" d="M18,546 l800,0" />
    </g>
    <g id="Symbols">
        <g id="Ultralight-S">
            <path d="M294.615,81.385 L267.692,81.385 L267.692,76 C267.692,74.513 266.487,73.308 265,73.308 C263.513,73.308 262.308,74.513 262.308,76 L262.308,81.385 L235.385,81.385 C233.957,81.385 232.587,81.952 231.577,82.962 C230.567,83.972 230,85.341 230,86.769 L230,127.154 C230,128.582 230.567,129.952 231.577,130.961 C232.587,131.971 233.957,132.538 235.385,132.538 L248.631,132.538 L241.358,141.625 C240.429,142.789 240.618,144.483 241.78,145.412 C242.942,146.341 244.637,146.151 245.566,144.989 L255.524,132.537 L274.478,132.537 L284.436,144.989 C285.364,146.15 287.059,146.339 288.221,145.411 C289.383,144.482 289.573,142.787 288.644,141.625 L281.371,132.538 L294.615,132.538 C296.043,132.538 297.413,131.971 298.423,130.961 C299.433,129.952 300,128.582 300,127.154 L300,86.769 C300,85.341 299.433,83.972 298.423,82.962 C297.413,81.952 296.043,81.385 294.615,81.385 Z M294.615,127.154 L235.385,127.154 L235.385,86.769 L294.615,86.769 L294.615,127.154 Z" />
        </g>
        <g id="Regular-S">
            <path d="M494.615,81.385 L467.692,81.385 L467.692,76 C467.692,74.513 466.487,73.308 465,73.308 C463.513,73.308 462.308,74.513 462.308,76 L462.308,81.385 L435.385,81.385 C433.957,81.385 432.587,81.952 431.577,82.962 C430.567,83.972 430,85.341 430,86.769 L430,127.154 C430,128.582 430.567,129.952 431.577,130.961 C432.587,131.971 433.957,132.538 435.385,132.538 L448.631,132.538 L441.358,141.625 C440.429,142.789 440.618,144.483 441.78,145.412 C442.942,146.341 444.637,146.151 445.566,144.989 L455.524,132.537 L474.478,132.537 L484.436,144.989 C485.364,146.15 487.059,146.339 488.221,145.411 C489.383,144.482 489.572,142.787 488.644,141.625 L481.371,132.538 L494.615,132.538 C496.043,132.538 497.413,131.971 498.423,130.961 C499.433,129.952 500,128.582 500,127.154 L500,86.769 C500,85.341 499.433,83.972 498.423,82.962 C497.413,81.952 496.043,81.385 494.615,81.385 Z M494.615,127.154 L435.385,127.154 L435.385,86.769 L494.615,86.769 L494.615,127.154 Z" />
        </g>
        <g id="Black-S">
            <path d="M694.615,81.385 L667.692,81.385 L667.692,76 C667.692,74.513 666.487,73.308 665,73.308 C663.513,73.308 662.308,74.513 662.308,76 L662.308,81.385 L635.385,81.385 C633.957,81.385 632.587,81.952 631.577,82.962 C630.567,83.972 630,85.341 630,86.769 L630,127.154 C630,128.582 630.567,129.952 631.577,130.961 C632.587,131.971 633.957,132.538 635.385,132.538 L648.631,132.538 L641.358,141.625 C640.429,142.789 640.618,144.483 641.78,145.412 C642.942,146.341 644.637,146.151 645.566,144.989 L655.524,132.537 L674.478,132.537 L684.436,144.989 C685.364,146.15 687.059,146.339 688.221,145.411 C689.383,144.482 689.573,142.787 688.644,141.625 L681.371,132.538 L694.615,132.538 C696.044,132.538 697.413,131.971 698.423,130.961 C699.433,129.952 700,128.582 700,127.154 L700,86.769 C700,85.341 699.433,83.972 698.423,82.962 C697.413,81.952 696.044,81.385 694.615,81.385 Z M694.615,127.154 L635.385,127.154 L635.385,86.769 L694.615,86.769 L694.615,127.154 Z" />
        </g>
    </g>
</svg>