<?xml version="1.0" encoding="UTF-8"?>
<svg height="600" width="800" xmlns="http://www.w3.org/2000/svg" xmlns:xlink="http://www.w3.org/1999/xlink">
    <g id="Notes" font-family="'LucidaGrande', 'Lucida Grande', sans-serif" font-size="13">
        <rect fill="white" height="600.0" width="800.0" x="0.0" y="0.0" />
        <g font-size="13">
            <text x="18.0" y="176.0">Small</text>
            <text x="18.0" y="376.0">Medium</text>
            <text x="18.0" y="576.0">Large</text>
        </g>
        <g font-size="9">
            <text x="250.0" y="30.0">Ultralight</text>
            <text x="450.0" y="30.0">Regular</text>
            <text x="650.0" y="30.0">Black</text>
            <text id="template-version" fill="#505050" text-anchor="end" x="785.0" y="575.0">Template v.3.0</text>
            <a href="https://github.com/swhitty/SwiftDraw">
                <text fill="#505050" text-anchor="end" x="785.0" y="590.0">https://github.com/swhitty/SwiftDraw</text>
            </a>
        </g>
    </g>
    <g id="Guides" stroke="rgb(39, 170, 225)" stroke-width="0.5">
        <path id="Capline-S" d="M18,76 l800,0" />
        <path id="H-reference" d="M85,145.755 L87.685,145.755 L113.369,79.287 L114.052,79.287 L114.052,76 L112.148,76 L85,145.755 Z M95.693,121.536 L130.996,121.536 L130.263,119.313 L96.474,119.313 L95.693,121.536 Z M139.15,145.755 L141.787,145.755 L114.638,76 L113.466,76 L113.466,79.287 L139.15,145.755 Z" stroke="none" />
        <path id="Baseline-S" d="M18,146 l800,0" />
        <path id="left-margin-Ultralight-S" d="M220,56 l0,110" />
        <path id="right-margin-Ultralight-S" d="M310,56 l0,110" />
        <path id="left-margin-Regular-S" d="M420,56 l0,110" />
        <path id="right-margin-Regular-S" d="M510,56 l0,110" />
        <path id="left-margin-Black-S" d="M620,56 l0,110" />
        <path id="right-margin-Black-S" d="M710,56 l0,110" />
        <path id="Capline-M" d="M18,276 l800,0" />
        <path id="Baseline-M" d="M18,346 l800,0" />
        <path id="Capline-L" d="M18,476 l800,0" />
        <path id="Baseline-L" d="M18,546 l800,0" />
    </g>
    <g id="Symbols">
        <g id="Ultralight-S">
            <path d="M297.308,111 C297.308,111.714 297.024,112.399 296.519,112.904 C296.014,113.409 295.329,113.692 294.615,113.692 L235.385,113.692 C233.898,113.692 232.692,112.487 232.692,111 C232.692,109.513 233.898,108.308 235.385,108.308 L294.615,108.308 C295.329,108.308 296.014,108.591 296.519,109.096 C297.024,109.601 297.308,110.286 297.308,111 Z M263.095,102.136 C263.6,102.641 264.285,102.925 265,102.925 C265.715,102.925 266.4,102.641 266.905,102.136 L277.674,91.366 C278.727,90.313 278.726,88.607 277.673,87.556 C276.62,86.504 274.915,86.505 273.863,87.558 L267.692,93.732 L267.692,73.308 C267.692,71.821 266.487,70.615 265,70.615 C263.513,70.615 262.308,71.821 262.308,73.308 L262.308,93.732 L256.136,87.557 C255.085,86.505 253.38,86.504 252.327,87.556 C251.274,88.607 251.273,90.313 252.325,91.365 Z M266.905,119.864 C266.4,119.359 265.715,119.075 265,119.075 C264.285,119.075 263.6,119.359 263.095,119.864 L252.326,130.634 C251.273,131.687 251.274,133.393 252.327,134.444 C253.38,135.496 255.085,135.495 256.137,134.442 L262.308,128.268 L262.308,148.692 C262.308,150.179 263.513,151.385 265,151.385 C266.487,151.385 267.692,150.179 267.692,148.692 L267.692,128.268 L273.864,134.443 C274.915,135.495 276.62,135.496 277.673,134.444 C278.726,133.393 278.727,131.687 277.675,130.635 Z" />
        </g>
        <g id="Regular-S">
            <path d="M497.308,111 C497.308,111.714 497.024,112.399 496.519,112.904 C496.014,113.409 495.329,113.692 494.615,113.692 L435.385,113.692 C433.898,113.692 432.692,112.487 432.692,111 C432.692,109.513 433.898,108.308 435.385,108.308 L494.615,108.308 C495.329,108.308 496.014,108.591 496.519,109.096 C497.024,109.601 497.308,110.286 497.308,111 Z M463.095,102.136 C463.6,102.641 464.285,102.925 465,102.925 C465.715,102.925 466.4,102.641 466.905,102.136 L477.674,91.366 C478.727,90.313 478.726,88.607 477.673,87.556 C476.62,86.504 474.915,86.505 473.863,87.558 L467.692,93.732 L467.692,73.308 C467.692,71.821 466.487,70.615 465,70.615 C463.513,70.615 462.308,71.821 462.308,73.308 L462.308,93.732 L456.136,87.557 C455.085,86.505 453.38,86.504 452.327,87.556 C451.274,88.607 451.273,90.313 452.325,91.365 Z M466.905,119.864 C466.4,119.359 465.715,119.075 465,119.075 C464.285,119.075 463.6,119.359 463.095,119.864 L452.326,130.634 C451.273,131.687 451.274,133.393 452.327,134.444 C453.38,135.496 455.085,135.495 456.137,134.442 L462.308,128.268 L462.308,148.692 C462.308,150.179 463.513,151.385 465,151.385 C466.487,151.385 467.692,150.179 467.692,148.692 L467.692,128.268 L473.864,134.443 C474.915,135.495 476.62,135.496 477.673,134.444 C478.726,133.393 478.727,131.687 477.675,130.635 Z" />
        </g>
        <g id="Black-S">
            <path d="M697.308,111 C697.308,111.714 697.024,112.399 696.519,112.904 C696.014,113.409 695.329,113.692 694.615,113.692 L635.385,113.692 C633.898,113.692 632.692,112.487 632.692,111 C632.692,109.513 633.898,108.308 635.385,108.308 L694.615,108.308 C695.329,108.308 696.014,108.591 696.519,109.096 C697.024,109.601 697.308,110.286 697.308,111 Z M663.095,102.136 C663.6,102.641 664.285,102.925 665,102.925 C665.715,102.925 666.4,102.641 666.905,102.136 L677.674,91.366 C678.727,90.313 678.726,88.607 677.673,87.556 C676.62,86.504 674.915,86.505 673.863,87.558 L667.692,93.732 L667.692,73.308 C667.692,71.821 666.487,70.615 665,70.615 C663.513,70.615 662.308,71.821 662.308,73.308 L662.308,93.732 L656.136,87.557 C655.085,86.505 653.38,86.504 652.327,87.556 C651.274,88.607 651.273,90.313 652.325,91.365 Z M666.905,119.864 C666.4,119.359 665.715,119.075 665,119.075 C664.285,119.075 663.6,119.359 663.095,119.864 L652.326,130.634 C651.273,131.687 651.274,133.393 652.327,134.444 C653.38,135.496 655.085,135.495 656.137,134.442 L662.308,128.268 L662.308,148.692 C662.308,150.179 663.513,151.385 665,151.385 C666.487,151.385 667.692,150.179 667.692,148.692 L667.692,128.268 L673.864,134.443 C674.915,135.495 676.62,135.496 677.673,134.444 C678.726,133.393 678.727,131.687 677.675,130.635 Z" />
        </g>
    </g>
</svg>