<?xml version="1.0" encoding="UTF-8"?>
<svg height="600" width="800" xmlns="http://www.w3.org/2000/svg" xmlns:xlink="http://www.w3.org/1999/xlink">
    <g id="Notes" font-family="'LucidaGrande', 'Lucida Grande', sans-serif" font-size="13">
        <rect fill="white" height="600.0" width="800.0" x="0.0" y="0.0" />
        <g font-size="13">
            <text x="18.0" y="176.0">Small</text>
            <text x="18.0" y="376.0">Medium</text>
            <text x="18.0" y="576.0">Large</text>
        </g>
        <g font-size="9">
            <text x="250.0" y="30.0">Ultralight</text>
            <text x="450.0" y="30.0">Regular</text>
            <text x="650.0" y="30.0">Black</text>
            <text id="template-version" fill="#505050" text-anchor="end" x="785.0" y="575.0">Template v.3.0</text>
            <a href="https://github.com/swhitty/SwiftDraw">
                <text fill="#505050" text-anchor="end" x="785.0" y="590.0">https://github.com/swhitty/SwiftDraw</text>
            </a>
        </g>
    </g>
    <g id="Guides" stroke="rgb(39, 170, 225)" stroke-width="0.5">
        <path id="Capline-S" d="M18,76 l800,0" />
        <path id="H-reference" d="M85,145.755 L87.685,145.755 L113.369,79.287 L114.052,79.287 L114.052,76 L112.148,76 L85,145.755 Z M95.693,121.536 L130.996,121.536 L130.263,119.313 L96.474,119.313 L95.693,121.536 Z M139.15,145.755 L141.787,145.755 L114.638,76 L113.466,76 L113.466,79.287 L139.15,145.755 Z" stroke="none" />
        <path id="Baseline-S" d="M18,146 l800,0" />
        <path id="left-margin-Ultralight-S" d="M220,56 l0,110" />
        <path id="right-margin-Ultralight-S" d="M310,56 l0,110" />
        <path id="left-margin-Regular-S" d="M420,56 l0,110" />
        <path id="right-margin-Regular-S" d="M510,56 l0,110" />
        <path id="left-margin-Black-S" d="M620,56 l0,110" />
        <path id="right-margin-Black-S" d="M710,56 l0,110" />
        <path id="Capline-M" d="M18,276 l800,0" />
        <path id="Baseline-M" d="M18,346 l800,0" />
        <path id="Capline-L" d="M18,476 l800,0" />
        <path id="Baseline-L" d="M18,546 l800,0" />
    </g>
    <g id="Symbols">
        <g id="Ultralight-S">
            <path d="M305.385,124.462 L305.385,135.231 C305.385,136.718 304.179,137.923 302.692,137.923 C301.205,137.923 300,136.718 300,135.231 L300,130.96 L299.256,131.707 C298.213,132.841 285.677,146 265,146 C243.852,146 231.218,132.232 230.69,131.647 C229.694,130.528 229.793,128.822 230.906,127.83 C232.019,126.839 233.725,126.938 234.717,128.051 C234.802,128.163 246.322,140.615 265,140.615 C283.678,140.615 295.198,128.163 295.312,128.042 C295.341,128.007 295.371,127.973 295.403,127.941 L296.194,127.154 L291.923,127.154 C290.436,127.154 289.231,125.948 289.231,124.462 C289.231,122.975 290.436,121.769 291.923,121.769 L302.692,121.769 C303.406,121.769 304.091,122.053 304.596,122.558 C305.101,123.063 305.385,123.747 305.385,124.462 Z M275.769,99.736 L275.769,96.192 C275.773,90.589 271.934,85.714 266.485,84.404 C261.036,83.095 255.401,85.693 252.858,90.686 C252.182,92.01 250.56,92.536 249.236,91.859 C247.911,91.183 247.386,89.561 248.062,88.237 C251.737,81.026 259.876,77.276 267.744,79.168 C275.613,81.059 281.158,88.1 281.154,96.192 L281.154,127.154 C281.154,128.641 279.948,129.846 278.462,129.846 C276.975,129.846 275.769,128.641 275.769,127.154 L275.769,124.956 C268.868,131.597 257.91,131.456 251.182,124.641 C244.453,117.825 244.453,106.867 251.182,100.051 C257.91,93.236 268.868,93.095 275.769,99.736 Z M275.769,112.346 C275.769,105.655 270.345,100.231 263.654,100.231 C256.963,100.231 251.538,105.655 251.538,112.346 C251.538,119.037 256.963,124.462 263.654,124.462 C266.867,124.462 269.949,123.185 272.221,120.913 C274.493,118.641 275.769,115.559 275.769,112.346 Z" />
        </g>
        <g id="Regular-S">
            <path d="M505.385,124.462 L505.385,135.231 C505.385,136.718 504.179,137.923 502.692,137.923 C501.205,137.923 500,136.718 500,135.231 L500,130.96 L499.256,131.707 C498.213,132.841 485.677,146 465,146 C443.852,146 431.218,132.232 430.69,131.647 C429.694,130.528 429.793,128.822 430.906,127.83 C432.019,126.839 433.725,126.938 434.717,128.051 C434.802,128.163 446.322,140.615 465,140.615 C483.678,140.615 495.198,128.163 495.312,128.042 C495.341,128.007 495.371,127.973 495.403,127.941 L496.194,127.154 L491.923,127.154 C490.436,127.154 489.231,125.948 489.231,124.462 C489.231,122.975 490.436,121.769 491.923,121.769 L502.692,121.769 C503.406,121.769 504.091,122.053 504.596,122.558 C505.101,123.063 505.385,123.747 505.385,124.462 Z M475.769,99.736 L475.769,96.192 C475.773,90.589 471.934,85.714 466.485,84.404 C461.036,83.095 455.401,85.693 452.858,90.686 C452.182,92.01 450.56,92.536 449.236,91.859 C447.911,91.183 447.386,89.561 448.062,88.237 C451.737,81.026 459.876,77.276 467.744,79.168 C475.613,81.059 481.158,88.1 481.154,96.192 L481.154,127.154 C481.154,128.641 479.948,129.846 478.462,129.846 C476.975,129.846 475.769,128.641 475.769,127.154 L475.769,124.956 C468.868,131.597 457.91,131.456 451.182,124.641 C444.453,117.825 444.453,106.867 451.182,100.051 C457.91,93.236 468.868,93.095 475.769,99.736 Z M475.769,112.346 C475.769,105.655 470.345,100.231 463.654,100.231 C456.963,100.231 451.538,105.655 451.538,112.346 C451.538,119.037 456.963,124.462 463.654,124.462 C466.867,124.462 469.949,123.185 472.221,120.913 C474.493,118.641 475.769,115.559 475.769,112.346 Z" />
        </g>
        <g id="Black-S">
            <path d="M705.385,124.462 L705.385,135.231 C705.385,136.718 704.179,137.923 702.692,137.923 C701.205,137.923 700,136.718 700,135.231 L700,130.96 L699.256,131.707 C698.213,132.841 685.677,146 665,146 C643.852,146 631.218,132.232 630.69,131.647 C629.694,130.528 629.793,128.822 630.906,127.83 C632.019,126.839 633.725,126.938 634.717,128.051 C634.802,128.163 646.322,140.615 665,140.615 C683.678,140.615 695.198,128.163 695.312,128.042 C695.341,128.007 695.371,127.973 695.403,127.941 L696.194,127.154 L691.923,127.154 C690.436,127.154 689.231,125.948 689.231,124.462 C689.231,122.975 690.436,121.769 691.923,121.769 L702.692,121.769 C703.406,121.769 704.091,122.053 704.596,122.558 C705.101,123.063 705.385,123.747 705.385,124.462 Z M675.769,99.736 L675.769,96.192 C675.773,90.589 671.934,85.714 666.485,84.404 C661.036,83.095 655.401,85.693 652.858,90.686 C652.182,92.01 650.56,92.536 649.236,91.859 C647.911,91.183 647.386,89.561 648.062,88.237 C651.737,81.026 659.876,77.276 667.744,79.168 C675.613,81.059 681.158,88.1 681.154,96.192 L681.154,127.154 C681.154,128.641 679.948,129.846 678.462,129.846 C676.975,129.846 675.769,128.641 675.769,127.154 L675.769,124.956 C668.868,131.597 657.91,131.456 651.182,124.641 C644.453,117.825 644.453,106.867 651.182,100.051 C657.91,93.236 668.868,93.095 675.769,99.736 Z M675.769,112.346 C675.769,105.655 670.345,100.231 663.654,100.231 C656.963,100.231 651.538,105.655 651.538,112.346 C651.538,119.037 656.963,124.462 663.654,124.462 C666.867,124.462 669.949,123.185 672.221,120.913 C674.493,118.641 675.769,115.559 675.769,112.346 Z" />
        </g>
    </g>
</svg>