<?xml version="1.0" encoding="UTF-8"?>
<svg height="600" width="800" xmlns="http://www.w3.org/2000/svg" xmlns:xlink="http://www.w3.org/1999/xlink">
    <g id="Notes" font-family="'LucidaGrande', 'Lucida Grande', sans-serif" font-size="13">
        <rect fill="white" height="600.0" width="800.0" x="0.0" y="0.0" />
        <g font-size="13">
            <text x="18.0" y="176.0">Small</text>
            <text x="18.0" y="376.0">Medium</text>
            <text x="18.0" y="576.0">Large</text>
        </g>
        <g font-size="9">
            <text x="250.0" y="30.0">Ultralight</text>
            <text x="450.0" y="30.0">Regular</text>
            <text x="650.0" y="30.0">Black</text>
            <text id="template-version" fill="#505050" text-anchor="end" x="785.0" y="575.0">Template v.3.0</text>
            <a href="https://github.com/swhitty/SwiftDraw">
                <text fill="#505050" text-anchor="end" x="785.0" y="590.0">https://github.com/swhitty/SwiftDraw</text>
            </a>
        </g>
    </g>
    <g id="Guides" stroke="rgb(39, 170, 225)" stroke-width="0.5">
        <path id="Capline-S" d="M18,76 l800,0" />
        <path id="H-reference" d="M85,145.755 L87.685,145.755 L113.369,79.287 L114.052,79.287 L114.052,76 L112.148,76 L85,145.755 Z M95.693,121.536 L130.996,121.536 L130.263,119.313 L96.474,119.313 L95.693,121.536 Z M139.15,145.755 L141.787,145.755 L114.638,76 L113.466,76 L113.466,79.287 L139.15,145.755 Z" stroke="none" />
        <path id="Baseline-S" d="M18,146 l800,0" />
        <path id="left-margin-Ultralight-S" d="M220,56 l0,110" />
        <path id="right-margin-Ultralight-S" d="M310,56 l0,110" />
        <path id="left-margin-Regular-S" d="M420,56 l0,110" />
        <path id="right-margin-Regular-S" d="M510,56 l0,110" />
        <path id="left-margin-Black-S" d="M620,56 l0,110" />
        <path id="right-margin-Black-S" d="M710,56 l0,110" />
        <path id="Capline-M" d="M18,276 l800,0" />
        <path id="Baseline-M" d="M18,346 l800,0" />
        <path id="Capline-L" d="M18,476 l800,0" />
        <path id="Baseline-L" d="M18,546 l800,0" />
    </g>
    <g id="Symbols">
        <g id="Ultralight-S">
            <path d="M289.231,84.077 L267.692,84.077 L267.692,73.308 C267.692,71.821 266.487,70.615 265,70.615 C263.513,70.615 262.308,71.821 262.308,73.308 L262.308,84.077 L240.769,84.077 C237.913,84.077 235.174,85.212 233.154,87.231 C231.135,89.251 230,91.99 230,94.846 L230,132.538 C230,135.395 231.135,138.134 233.154,140.153 C235.174,142.173 237.913,143.308 240.769,143.308 L289.231,143.308 C292.087,143.308 294.826,142.173 296.846,140.153 C298.865,138.134 300,135.395 300,132.538 L300,94.846 C300,91.99 298.865,89.251 296.846,87.231 C294.826,85.212 292.087,84.077 289.231,84.077 Z M294.615,132.538 C294.615,133.967 294.048,135.336 293.038,136.346 C292.028,137.356 290.659,137.923 289.231,137.923 L240.769,137.923 C239.341,137.923 237.972,137.356 236.962,136.346 C235.952,135.336 235.385,133.967 235.385,132.538 L235.385,94.846 C235.385,93.418 235.952,92.048 236.962,91.039 C237.972,90.029 239.341,89.462 240.769,89.462 L289.231,89.462 C290.659,89.462 292.028,90.029 293.038,91.039 C294.048,92.048 294.615,93.418 294.615,94.846 Z M277.115,113.692 L252.885,113.692 C247.68,113.692 243.462,117.911 243.462,123.115 C243.462,128.32 247.68,132.538 252.885,132.538 L277.115,132.538 C282.32,132.538 286.538,128.32 286.538,123.115 C286.538,117.911 282.32,113.692 277.115,113.692 Z M269.038,119.077 L269.038,127.154 L260.962,127.154 L260.962,119.077 Z M248.846,123.115 C248.846,122.044 249.272,121.017 250.029,120.26 C250.786,119.502 251.814,119.077 252.885,119.077 L255.577,119.077 L255.577,127.154 L252.885,127.154 C251.814,127.154 250.786,126.728 250.029,125.971 C249.272,125.214 248.846,124.186 248.846,123.115 Z M277.115,127.154 L274.423,127.154 L274.423,119.077 L277.115,119.077 C279.346,119.077 281.154,120.885 281.154,123.115 C281.154,125.346 279.346,127.154 277.115,127.154 Z M246.154,104.269 C246.154,102.039 247.962,100.231 250.192,100.231 C252.423,100.231 254.231,102.039 254.231,104.269 C254.231,106.5 252.423,108.308 250.192,108.308 C249.121,108.308 248.094,107.882 247.337,107.125 C246.579,106.368 246.154,105.34 246.154,104.269 Z M275.769,104.269 C275.769,102.039 277.577,100.231 279.808,100.231 C282.038,100.231 283.846,102.039 283.846,104.269 C283.846,106.5 282.038,108.308 279.808,108.308 C278.737,108.308 277.709,107.882 276.952,107.125 C276.195,106.368 275.769,105.34 275.769,104.269 Z" />
        </g>
        <g id="Regular-S">
            <path d="M489.231,84.077 L467.692,84.077 L467.692,73.308 C467.692,71.821 466.487,70.615 465,70.615 C463.513,70.615 462.308,71.821 462.308,73.308 L462.308,84.077 L440.769,84.077 C437.913,84.077 435.174,85.212 433.154,87.231 C431.135,89.251 430,91.99 430,94.846 L430,132.538 C430,135.395 431.135,138.134 433.154,140.153 C435.174,142.173 437.913,143.308 440.769,143.308 L489.231,143.308 C492.087,143.308 494.826,142.173 496.846,140.153 C498.865,138.134 500,135.395 500,132.538 L500,94.846 C500,91.99 498.865,89.251 496.846,87.231 C494.826,85.212 492.087,84.077 489.231,84.077 Z M494.615,132.538 C494.615,133.967 494.048,135.336 493.038,136.346 C492.028,137.356 490.659,137.923 489.231,137.923 L440.769,137.923 C439.341,137.923 437.972,137.356 436.962,136.346 C435.952,135.336 435.385,133.967 435.385,132.538 L435.385,94.846 C435.385,93.418 435.952,92.048 436.962,91.039 C437.972,90.029 439.341,89.462 440.769,89.462 L489.231,89.462 C490.659,89.462 492.028,90.029 493.038,91.039 C494.048,92.048 494.615,93.418 494.615,94.846 Z M477.115,113.692 L452.885,113.692 C447.68,113.692 443.462,117.911 443.462,123.115 C443.462,128.32 447.68,132.538 452.885,132.538 L477.115,132.538 C482.32,132.538 486.538,128.32 486.538,123.115 C486.538,117.911 482.32,113.692 477.115,113.692 Z M469.038,119.077 L469.038,127.154 L460.962,127.154 L460.962,119.077 Z M448.846,123.115 C448.846,122.044 449.272,121.017 450.029,120.26 C450.786,119.502 451.814,119.077 452.885,119.077 L455.577,119.077 L455.577,127.154 L452.885,127.154 C451.814,127.154 450.786,126.728 450.029,125.971 C449.272,125.214 448.846,124.186 448.846,123.115 Z M477.115,127.154 L474.423,127.154 L474.423,119.077 L477.115,119.077 C479.346,119.077 481.154,120.885 481.154,123.115 C481.154,125.346 479.346,127.154 477.115,127.154 Z M446.154,104.269 C446.154,102.039 447.962,100.231 450.192,100.231 C452.423,100.231 454.231,102.039 454.231,104.269 C454.231,106.5 452.423,108.308 450.192,108.308 C449.121,108.308 448.094,107.882 447.337,107.125 C446.579,106.368 446.154,105.34 446.154,104.269 Z M475.769,104.269 C475.769,102.039 477.577,100.231 479.808,100.231 C482.038,100.231 483.846,102.039 483.846,104.269 C483.846,106.5 482.038,108.308 479.808,108.308 C478.737,108.308 477.709,107.882 476.952,107.125 C476.195,106.368 475.769,105.34 475.769,104.269 Z" />
        </g>
        <g id="Black-S">
            <path d="M689.231,84.077 L667.692,84.077 L667.692,73.308 C667.692,71.821 666.487,70.615 665,70.615 C663.513,70.615 662.308,71.821 662.308,73.308 L662.308,84.077 L640.769,84.077 C637.913,84.077 635.174,85.212 633.154,87.231 C631.135,89.251 630,91.99 630,94.846 L630,132.538 C630,135.395 631.135,138.134 633.154,140.153 C635.174,142.173 637.913,143.308 640.769,143.308 L689.231,143.308 C692.087,143.308 694.826,142.173 696.846,140.153 C698.865,138.134 700,135.395 700,132.538 L700,94.846 C700,91.99 698.865,89.251 696.846,87.231 C694.826,85.212 692.087,84.077 689.231,84.077 Z M694.615,132.538 C694.615,133.967 694.048,135.336 693.038,136.346 C692.028,137.356 690.659,137.923 689.231,137.923 L640.769,137.923 C639.341,137.923 637.972,137.356 636.962,136.346 C635.952,135.336 635.385,133.967 635.385,132.538 L635.385,94.846 C635.385,93.418 635.952,92.048 636.962,91.039 C637.972,90.029 639.341,89.462 640.769,89.462 L689.231,89.462 C690.659,89.462 692.028,90.029 693.038,91.039 C694.048,92.048 694.615,93.418 694.615,94.846 Z M677.115,113.692 L652.885,113.692 C647.68,113.692 643.462,117.911 643.462,123.115 C643.462,128.32 647.68,132.538 652.885,132.538 L677.115,132.538 C682.32,132.538 686.538,128.32 686.538,123.115 C686.538,117.911 682.32,113.692 677.115,113.692 Z M669.038,119.077 L669.038,127.154 L660.962,127.154 L660.962,119.077 Z M648.846,123.115 C648.846,122.044 649.272,121.017 650.029,120.26 C650.786,119.502 651.814,119.077 652.885,119.077 L655.577,119.077 L655.577,127.154 L652.885,127.154 C651.814,127.154 650.786,126.728 650.029,125.971 C649.272,125.214 648.846,124.186 648.846,123.115 Z M677.115,127.154 L674.423,127.154 L674.423,119.077 L677.115,119.077 C679.346,119.077 681.154,120.885 681.154,123.115 C681.154,125.346 679.346,127.154 677.115,127.154 Z M646.154,104.269 C646.154,102.039 647.962,100.231 650.192,100.231 C652.423,100.231 654.231,102.039 654.231,104.269 C654.231,106.5 652.423,108.308 650.192,108.308 C649.121,108.308 648.094,107.882 647.337,107.125 C646.579,106.368 646.154,105.34 646.154,104.269 Z M675.769,104.269 C675.769,102.039 677.577,100.231 679.808,100.231 C682.038,100.231 683.846,102.039 683.846,104.269 C683.846,106.5 682.038,108.308 679.808,108.308 C678.737,108.308 677.709,107.882 676.952,107.125 C676.195,106.368 675.769,105.34 675.769,104.269 Z" />
        </g>
    </g>
</svg>