<?xml version="1.0" encoding="UTF-8"?>
<svg height="600" width="800" xmlns="http://www.w3.org/2000/svg" xmlns:xlink="http://www.w3.org/1999/xlink">
    <g id="Notes" font-family="'LucidaGrande', 'Lucida Grande', sans-serif" font-size="13">
        <rect fill="white" height="600.0" width="800.0" x="0.0" y="0.0" />
        <g font-size="13">
            <text x="18.0" y="176.0">Small</text>
            <text x="18.0" y="376.0">Medium</text>
            <text x="18.0" y="576.0">Large</text>
        </g>
        <g font-size="9">
            <text x="250.0" y="30.0">Ultralight</text>
            <text x="450.0" y="30.0">Regular</text>
            <text x="650.0" y="30.0">Black</text>
            <text id="template-version" fill="#505050" text-anchor="end" x="785.0" y="575.0">Template v.3.0</text>
            <a href="https://github.com/swhitty/SwiftDraw">
                <text fill="#505050" text-anchor="end" x="785.0" y="590.0">https://github.com/swhitty/SwiftDraw</text>
            </a>
        </g>
    </g>
    <g id="Guides" stroke="rgb(39, 170, 225)" stroke-width="0.5">
        <path id="Capline-S" d="M18,76 l800,0" />
        <path id="H-reference" d="M85,145.755 L87.685,145.755 L113.369,79.287 L114.052,79.287 L114.052,76 L112.148,76 L85,145.755 Z M95.693,121.536 L130.996,121.536 L130.263,119.313 L96.474,119.313 L95.693,121.536 Z M139.15,145.755 L141.787,145.755 L114.638,76 L113.466,76 L113.466,79.287 L139.15,145.755 Z" stroke="none" />
        <path id="Baseline-S" d="M18,146 l800,0" />
        <path id="left-margin-Ultralight-S" d="M220,56 l0,110" />
        <path id="right-margin-Ultralight-S" d="M310,56 l0,110" />
        <path id="left-margin-Regular-S" d="M420,56 l0,110" />
        <path id="right-margin-Regular-S" d="M510,56 l0,110" />
        <path id="left-margin-Black-S" d="M620,56 l0,110" />
        <path id="right-margin-Black-S" d="M710,56 l0,110" />
        <path id="Capline-M" d="M18,276 l800,0" />
        <path id="Baseline-M" d="M18,346 l800,0" />
        <path id="Capline-L" d="M18,476 l800,0" />
        <path id="Baseline-L" d="M18,546 l800,0" />
    </g>
    <g id="Symbols">
        <g id="Ultralight-S">
            <path d="M308.077,113.692 C308.077,114.406 307.793,115.091 307.288,115.596 C306.783,116.101 306.099,116.385 305.385,116.385 L289.231,116.385 C287.744,116.385 286.538,115.179 286.538,113.692 C286.538,112.205 287.744,111 289.231,111 L305.385,111 C306.099,111 306.783,111.284 307.288,111.789 C307.793,112.293 308.077,112.978 308.077,113.692 Z M288.601,133.498 C289.559,134.64 289.41,136.339 288.27,137.295 C287.129,138.251 285.43,138.102 284.474,136.962 C277.704,128.9 268.396,124.462 258.269,124.462 C248.143,124.462 238.834,128.9 232.063,136.964 C231.107,138.102 229.408,138.249 228.269,137.293 C227.13,136.336 226.983,134.637 227.94,133.498 C232.968,127.515 239.221,123.264 246.17,120.989 C237.499,115.588 233.457,105.094 236.266,95.272 C239.075,85.45 248.053,78.68 258.269,78.68 C268.484,78.68 277.463,85.45 280.271,95.272 C283.08,105.094 279.038,115.588 270.367,120.989 C277.317,123.263 283.57,127.514 288.601,133.498 Z M258.269,119.077 C267.934,119.077 275.769,111.242 275.769,101.577 C275.769,91.912 267.934,84.077 258.269,84.077 C248.604,84.077 240.769,91.912 240.769,101.577 C240.78,111.237 248.609,119.066 258.269,119.077 Z" />
        </g>
        <g id="Regular-S">
            <path d="M508.077,113.692 C508.077,114.406 507.793,115.091 507.288,115.596 C506.783,116.101 506.099,116.385 505.385,116.385 L489.231,116.385 C487.744,116.385 486.538,115.179 486.538,113.692 C486.538,112.205 487.744,111 489.231,111 L505.385,111 C506.099,111 506.783,111.284 507.288,111.789 C507.793,112.293 508.077,112.978 508.077,113.692 Z M488.601,133.498 C489.559,134.64 489.41,136.339 488.27,137.295 C487.129,138.251 485.43,138.102 484.474,136.962 C477.704,128.9 468.396,124.462 458.269,124.462 C448.143,124.462 438.834,128.9 432.063,136.964 C431.107,138.102 429.408,138.249 428.269,137.293 C427.13,136.336 426.983,134.637 427.94,133.498 C432.968,127.515 439.221,123.264 446.17,120.989 C437.499,115.588 433.457,105.094 436.266,95.272 C439.075,85.45 448.053,78.68 458.269,78.68 C468.484,78.68 477.463,85.45 480.271,95.272 C483.08,105.094 479.038,115.588 470.367,120.989 C477.317,123.263 483.57,127.514 488.601,133.498 Z M458.269,119.077 C467.934,119.077 475.769,111.242 475.769,101.577 C475.769,91.912 467.934,84.077 458.269,84.077 C448.604,84.077 440.769,91.912 440.769,101.577 C440.78,111.237 448.609,119.066 458.269,119.077 Z" />
        </g>
        <g id="Black-S">
            <path d="M708.077,113.692 C708.077,114.406 707.793,115.091 707.288,115.596 C706.783,116.101 706.099,116.385 705.385,116.385 L689.231,116.385 C687.744,116.385 686.538,115.179 686.538,113.692 C686.538,112.205 687.744,111 689.231,111 L705.385,111 C706.099,111 706.783,111.284 707.288,111.789 C707.793,112.293 708.077,112.978 708.077,113.692 Z M688.601,133.498 C689.559,134.64 689.41,136.339 688.27,137.295 C687.13,138.251 685.43,138.102 684.474,136.962 C677.704,128.9 668.396,124.462 658.269,124.462 C648.143,124.462 638.834,128.9 632.063,136.964 C631.107,138.102 629.408,138.249 628.269,137.293 C627.13,136.336 626.983,134.637 627.94,133.498 C632.968,127.515 639.221,123.264 646.17,120.989 C637.499,115.588 633.457,105.094 636.266,95.272 C639.075,85.45 648.053,78.68 658.269,78.68 C668.484,78.68 677.463,85.45 680.271,95.272 C683.08,105.094 679.039,115.588 670.367,120.989 C677.317,123.263 683.57,127.514 688.601,133.498 Z M658.269,119.077 C667.934,119.077 675.769,111.242 675.769,101.577 C675.769,91.912 667.934,84.077 658.269,84.077 C648.604,84.077 640.769,91.912 640.769,101.577 C640.78,111.237 648.609,119.066 658.269,119.077 Z" />
        </g>
    </g>
</svg>