<?xml version="1.0" encoding="UTF-8"?>
<svg height="600" width="800" xmlns="http://www.w3.org/2000/svg" xmlns:xlink="http://www.w3.org/1999/xlink">
    <g id="Notes" font-family="'LucidaGrande', 'Lucida Grande', sans-serif" font-size="13">
        <rect fill="white" height="600.0" width="800.0" x="0.0" y="0.0" />
        <g font-size="13">
            <text x="18.0" y="176.0">Small</text>
            <text x="18.0" y="376.0">Medium</text>
            <text x="18.0" y="576.0">Large</text>
        </g>
        <g font-size="9">
            <text x="250.0" y="30.0">Ultralight</text>
            <text x="450.0" y="30.0">Regular</text>
            <text x="650.0" y="30.0">Black</text>
            <text id="template-version" fill="#505050" text-anchor="end" x="785.0" y="575.0">Template v.3.0</text>
            <a href="https://github.com/swhitty/SwiftDraw">
                <text fill="#505050" text-anchor="end" x="785.0" y="590.0">https://github.com/swhitty/SwiftDraw</text>
            </a>
        </g>
    </g>
    <g id="Guides" stroke="rgb(39, 170, 225)" stroke-width="0.5">
        <path id="Capline-S" d="M18,76 l800,0" />
        <path id="H-reference" d="M85,145.755 L87.685,145.755 L113.369,79.287 L114.052,79.287 L114.052,76 L112.148,76 L85,145.755 Z M95.693,121.536 L130.996,121.536 L130.263,119.313 L96.474,119.313 L95.693,121.536 Z M139.15,145.755 L141.787,145.755 L114.638,76 L113.466,76 L113.466,79.287 L139.15,145.755 Z" stroke="none" />
        <path id="Baseline-S" d="M18,146 l800,0" />
        <path id="left-margin-Ultralight-S" d="M220,56 l0,110" />
        <path id="right-margin-Ultralight-S" d="M310,56 l0,110" />
        <path id="left-margin-Regular-S" d="M420,56 l0,110" />
        <path id="right-margin-Regular-S" d="M510,56 l0,110" />
        <path id="left-margin-Black-S" d="M620,56 l0,110" />
        <path id="right-margin-Black-S" d="M710,56 l0,110" />
        <path id="Capline-M" d="M18,276 l800,0" />
        <path id="Baseline-M" d="M18,346 l800,0" />
        <path id="Capline-L" d="M18,476 l800,0" />
        <path id="Baseline-L" d="M18,546 l800,0" />
    </g>
    <g id="Symbols">
        <g id="Ultralight-S">
            <path d="M294.615,84.077 L235.385,84.077 C233.957,84.077 232.587,84.644 231.577,85.654 C230.567,86.664 230,88.033 230,89.462 L230,143.308 C229.987,145.405 231.206,147.315 233.113,148.188 C233.825,148.519 234.6,148.691 235.385,148.692 C236.649,148.689 237.871,148.239 238.834,147.42 L238.864,147.397 L249.856,137.923 L294.615,137.923 C296.043,137.923 297.413,137.356 298.423,136.346 C299.433,135.336 300,133.967 300,132.538 L300,89.462 C300,88.033 299.433,86.664 298.423,85.654 C297.413,84.644 296.043,84.077 294.615,84.077 Z M235.385,143.308 L235.385,143.308 Z M294.615,132.538 L248.846,132.538 C248.2,132.539 247.575,132.772 247.086,133.195 L235.385,143.308 L235.385,89.462 L294.615,89.462 Z" />
        </g>
        <g id="Regular-S">
            <path d="M494.615,84.077 L435.385,84.077 C433.957,84.077 432.587,84.644 431.577,85.654 C430.567,86.664 430,88.033 430,89.462 L430,143.308 C429.987,145.405 431.206,147.315 433.113,148.188 C433.824,148.519 434.6,148.691 435.385,148.692 C436.649,148.689 437.871,148.239 438.834,147.42 L438.864,147.397 L449.856,137.923 L494.615,137.923 C496.043,137.923 497.413,137.356 498.423,136.346 C499.433,135.336 500,133.967 500,132.538 L500,89.462 C500,88.033 499.433,86.664 498.423,85.654 C497.413,84.644 496.043,84.077 494.615,84.077 Z M435.385,143.308 L435.385,143.308 Z M494.615,132.538 L448.846,132.538 C448.2,132.539 447.575,132.772 447.086,133.195 L435.385,143.308 L435.385,89.462 L494.615,89.462 Z" />
        </g>
        <g id="Black-S">
            <path d="M694.615,84.077 L635.385,84.077 C633.957,84.077 632.587,84.644 631.577,85.654 C630.567,86.664 630,88.033 630,89.462 L630,143.308 C629.987,145.405 631.206,147.315 633.113,148.188 C633.825,148.519 634.6,148.691 635.385,148.692 C636.649,148.689 637.871,148.239 638.834,147.42 L638.864,147.397 L649.856,137.923 L694.615,137.923 C696.044,137.923 697.413,137.356 698.423,136.346 C699.433,135.336 700,133.967 700,132.538 L700,89.462 C700,88.033 699.433,86.664 698.423,85.654 C697.413,84.644 696.044,84.077 694.615,84.077 Z M635.385,143.308 L635.385,143.308 Z M694.615,132.538 L648.846,132.538 C648.2,132.539 647.575,132.772 647.086,133.195 L635.385,143.308 L635.385,89.462 L694.615,89.462 Z" />
        </g>
    </g>
</svg>