<?xml version="1.0" encoding="UTF-8"?>
<svg height="600" width="800" xmlns="http://www.w3.org/2000/svg" xmlns:xlink="http://www.w3.org/1999/xlink">
    <g id="Notes" font-family="'LucidaGrande', 'Lucida Grande', sans-serif" font-size="13">
        <rect fill="white" height="600.0" width="800.0" x="0.0" y="0.0" />
        <g font-size="13">
            <text x="18.0" y="176.0">Small</text>
            <text x="18.0" y="376.0">Medium</text>
            <text x="18.0" y="576.0">Large</text>
        </g>
        <g font-size="9">
            <text x="250.0" y="30.0">Ultralight</text>
            <text x="450.0" y="30.0">Regular</text>
            <text x="650.0" y="30.0">Black</text>
            <text id="template-version" fill="#505050" text-anchor="end" x="785.0" y="575.0">Template v.3.0</text>
            <a href="https://github.com/swhitty/SwiftDraw">
                <text fill="#505050" text-anchor="end" x="785.0" y="590.0">https://github.com/swhitty/SwiftDraw</text>
            </a>
        </g>
    </g>
    <g id="Guides" stroke="rgb(39, 170, 225)" stroke-width="0.5">
        <path id="Capline-S" d="M18,76 l800,0" />
        <path id="H-reference" d="M85,145.755 L87.685,145.755 L113.369,79.287 L114.052,79.287 L114.052,76 L112.148,76 L85,145.755 Z M95.693,121.536 L130.996,121.536 L130.263,119.313 L96.474,119.313 L95.693,121.536 Z M139.15,145.755 L141.787,145.755 L114.638,76 L113.466,76 L113.466,79.287 L139.15,145.755 Z" stroke="none" />
        <path id="Baseline-S" d="M18,146 l800,0" />
        <path id="left-margin-Ultralight-S" d="M220,56 l0,110" />
        <path id="right-margin-Ultralight-S" d="M310,56 l0,110" />
        <path id="left-margin-Regular-S" d="M420,56 l0,110" />
        <path id="right-margin-Regular-S" d="M510,56 l0,110" />
        <path id="left-margin-Black-S" d="M620,56 l0,110" />
        <path id="right-margin-Black-S" d="M710,56 l0,110" />
        <path id="Capline-M" d="M18,276 l800,0" />
        <path id="Baseline-M" d="M18,346 l800,0" />
        <path id="Capline-L" d="M18,476 l800,0" />
        <path id="Baseline-L" d="M18,546 l800,0" />
    </g>
    <g id="Symbols">
        <g id="Ultralight-S">
            <path d="M307.289,98.326 L293.828,84.864 C293.323,84.359 292.638,84.075 291.923,84.075 C291.209,84.075 290.523,84.359 290.018,84.864 L278.462,96.425 L266.905,84.864 C266.4,84.359 265.715,84.075 265,84.075 C264.285,84.075 263.6,84.359 263.095,84.864 L251.538,96.425 L239.982,84.864 C239.477,84.359 238.791,84.075 238.077,84.075 C237.362,84.075 236.677,84.359 236.172,84.864 L222.711,98.326 C222.205,98.831 221.921,99.516 221.921,100.231 C221.921,100.945 222.205,101.631 222.711,102.136 L236.172,115.597 C236.677,116.103 237.362,116.387 238.077,116.387 C238.791,116.387 239.477,116.103 239.982,115.597 L251.538,104.037 L261.194,113.692 L249.634,125.249 C249.128,125.754 248.844,126.439 248.844,127.154 C248.844,127.868 249.128,128.554 249.634,129.059 L263.095,142.52 C263.6,143.026 264.285,143.31 265,143.31 C265.715,143.31 266.4,143.026 266.905,142.52 L280.366,129.059 C280.872,128.554 281.156,127.868 281.156,127.154 C281.156,126.439 280.872,125.754 280.366,125.249 L268.806,113.692 L278.462,104.037 L290.018,115.597 C290.523,116.103 291.209,116.387 291.923,116.387 C292.638,116.387 293.323,116.103 293.828,115.597 L307.289,102.136 C307.795,101.631 308.079,100.945 308.079,100.231 C308.079,99.516 307.795,98.831 307.289,98.326 Z M238.077,109.886 L228.422,100.231 L238.077,90.575 L247.732,100.231 Z M265,136.809 L255.345,127.154 L265,117.499 L274.655,127.154 Z M265,109.886 L255.345,100.231 L265,90.575 L274.655,100.231 Z M291.923,109.886 L282.268,100.231 L291.923,90.575 L301.578,100.231 Z" />
        </g>
        <g id="Regular-S">
            <path d="M507.289,98.326 L493.828,84.864 C493.323,84.359 492.638,84.075 491.923,84.075 C491.208,84.075 490.523,84.359 490.018,84.864 L478.462,96.425 L466.905,84.864 C466.4,84.359 465.715,84.075 465,84.075 C464.285,84.075 463.6,84.359 463.095,84.864 L451.538,96.425 L439.982,84.864 C439.477,84.359 438.791,84.075 438.077,84.075 C437.362,84.075 436.677,84.359 436.172,84.864 L422.711,98.326 C422.205,98.831 421.921,99.516 421.921,100.231 C421.921,100.945 422.205,101.631 422.711,102.136 L436.172,115.597 C436.677,116.103 437.362,116.387 438.077,116.387 C438.791,116.387 439.477,116.103 439.982,115.597 L451.538,104.037 L461.194,113.692 L449.634,125.249 C449.128,125.754 448.844,126.439 448.844,127.154 C448.844,127.868 449.128,128.554 449.634,129.059 L463.095,142.52 C463.6,143.026 464.285,143.31 465,143.31 C465.715,143.31 466.4,143.026 466.905,142.52 L480.366,129.059 C480.872,128.554 481.156,127.868 481.156,127.154 C481.156,126.439 480.872,125.754 480.366,125.249 L468.806,113.692 L478.462,104.037 L490.018,115.597 C490.523,116.103 491.208,116.387 491.923,116.387 C492.638,116.387 493.323,116.103 493.828,115.597 L507.289,102.136 C507.795,101.631 508.079,100.945 508.079,100.231 C508.079,99.516 507.795,98.831 507.289,98.326 Z M438.077,109.886 L428.422,100.231 L438.077,90.575 L447.732,100.231 Z M465,136.809 L455.345,127.154 L465,117.499 L474.655,127.154 Z M465,109.886 L455.345,100.231 L465,90.575 L474.655,100.231 Z M491.923,109.886 L482.268,100.231 L491.923,90.575 L501.578,100.231 Z" />
        </g>
        <g id="Black-S">
            <path d="M707.289,98.326 L693.828,84.864 C693.323,84.359 692.638,84.075 691.923,84.075 C691.209,84.075 690.523,84.359 690.018,84.864 L678.462,96.425 L666.905,84.864 C666.4,84.359 665.715,84.075 665,84.075 C664.285,84.075 663.6,84.359 663.095,84.864 L651.538,96.425 L639.982,84.864 C639.477,84.359 638.792,84.075 638.077,84.075 C637.362,84.075 636.677,84.359 636.172,84.864 L622.711,98.326 C622.205,98.831 621.921,99.516 621.921,100.231 C621.921,100.945 622.205,101.631 622.711,102.136 L636.172,115.597 C636.677,116.103 637.362,116.387 638.077,116.387 C638.792,116.387 639.477,116.103 639.982,115.597 L651.538,104.037 L661.194,113.692 L649.634,125.249 C649.128,125.754 648.844,126.439 648.844,127.154 C648.844,127.868 649.128,128.554 649.634,129.059 L663.095,142.52 C663.6,143.026 664.285,143.31 665,143.31 C665.715,143.31 666.4,143.026 666.905,142.52 L680.366,129.059 C680.872,128.554 681.156,127.868 681.156,127.154 C681.156,126.439 680.872,125.754 680.366,125.249 L668.806,113.692 L678.462,104.037 L690.018,115.597 C690.523,116.103 691.209,116.387 691.923,116.387 C692.638,116.387 693.323,116.103 693.828,115.597 L707.289,102.136 C707.795,101.631 708.079,100.945 708.079,100.231 C708.079,99.516 707.795,98.831 707.289,98.326 Z M638.077,109.886 L628.422,100.231 L638.077,90.575 L647.732,100.231 Z M665,136.809 L655.345,127.154 L665,117.499 L674.655,127.154 Z M665,109.886 L655.345,100.231 L665,90.575 L674.655,100.231 Z M691.923,109.886 L682.268,100.231 L691.923,90.575 L701.578,100.231 Z" />
        </g>
    </g>
</svg>