<?xml version="1.0" encoding="UTF-8"?>
<svg height="600" width="800" xmlns="http://www.w3.org/2000/svg" xmlns:xlink="http://www.w3.org/1999/xlink">
    <g id="Notes" font-family="'LucidaGrande', 'Lucida Grande', sans-serif" font-size="13">
        <rect fill="white" height="600.0" width="800.0" x="0.0" y="0.0" />
        <g font-size="13">
            <text x="18.0" y="176.0">Small</text>
            <text x="18.0" y="376.0">Medium</text>
            <text x="18.0" y="576.0">Large</text>
        </g>
        <g font-size="9">
            <text x="250.0" y="30.0">Ultralight</text>
            <text x="450.0" y="30.0">Regular</text>
            <text x="650.0" y="30.0">Black</text>
            <text id="template-version" fill="#505050" text-anchor="end" x="785.0" y="575.0">Template v.3.0</text>
            <a href="https://github.com/swhitty/SwiftDraw">
                <text fill="#505050" text-anchor="end" x="785.0" y="590.0">https://github.com/swhitty/SwiftDraw</text>
            </a>
        </g>
    </g>
    <g id="Guides" stroke="rgb(39, 170, 225)" stroke-width="0.5">
        <path id="Capline-S" d="M18,76 l800,0" />
        <path id="H-reference" d="M85,145.755 L87.685,145.755 L113.369,79.287 L114.052,79.287 L114.052,76 L112.148,76 L85,145.755 Z M95.693,121.536 L130.996,121.536 L130.263,119.313 L96.474,119.313 L95.693,121.536 Z M139.15,145.755 L141.787,145.755 L114.638,76 L113.466,76 L113.466,79.287 L139.15,145.755 Z" stroke="none" />
        <path id="Baseline-S" d="M18,146 l800,0" />
        <path id="left-margin-Ultralight-S" d="M220,56 l0,110" />
        <path id="right-margin-Ultralight-S" d="M310,56 l0,110" />
        <path id="left-margin-Regular-S" d="M420,56 l0,110" />
        <path id="right-margin-Regular-S" d="M510,56 l0,110" />
        <path id="left-margin-Black-S" d="M620,56 l0,110" />
        <path id="right-margin-Black-S" d="M710,56 l0,110" />
        <path id="Capline-M" d="M18,276 l800,0" />
        <path id="Baseline-M" d="M18,346 l800,0" />
        <path id="Capline-L" d="M18,476 l800,0" />
        <path id="Baseline-L" d="M18,546 l800,0" />
    </g>
    <g id="Symbols">
        <g id="Ultralight-S">
            <path d="M269.038,111 C269.038,113.23 267.23,115.038 265,115.038 C262.77,115.038 260.962,113.23 260.962,111 C260.962,108.77 262.77,106.962 265,106.962 C266.071,106.962 267.098,107.387 267.856,108.144 C268.613,108.902 269.038,109.929 269.038,111 Z M287.885,106.962 C285.654,106.962 283.846,108.77 283.846,111 C283.846,113.23 285.654,115.038 287.885,115.038 C290.115,115.038 291.923,113.23 291.923,111 C291.923,109.929 291.498,108.902 290.74,108.144 C289.983,107.387 288.956,106.962 287.885,106.962 Z M242.115,106.962 C239.885,106.962 238.077,108.77 238.077,111 C238.077,113.23 239.885,115.038 242.115,115.038 C244.346,115.038 246.154,113.23 246.154,111 C246.154,109.929 245.728,108.902 244.971,108.144 C244.214,107.387 243.186,106.962 242.115,106.962 Z" />
        </g>
        <g id="Regular-S">
            <path d="M469.038,111 C469.038,113.23 467.23,115.038 465,115.038 C462.77,115.038 460.962,113.23 460.962,111 C460.962,108.77 462.77,106.962 465,106.962 C466.071,106.962 467.098,107.387 467.856,108.144 C468.613,108.902 469.038,109.929 469.038,111 Z M487.885,106.962 C485.654,106.962 483.846,108.77 483.846,111 C483.846,113.23 485.654,115.038 487.885,115.038 C490.115,115.038 491.923,113.23 491.923,111 C491.923,109.929 491.498,108.902 490.74,108.144 C489.983,107.387 488.956,106.962 487.885,106.962 Z M442.115,106.962 C439.885,106.962 438.077,108.77 438.077,111 C438.077,113.23 439.885,115.038 442.115,115.038 C444.346,115.038 446.154,113.23 446.154,111 C446.154,109.929 445.728,108.902 444.971,108.144 C444.214,107.387 443.186,106.962 442.115,106.962 Z" />
        </g>
        <g id="Black-S">
            <path d="M669.038,111 C669.038,113.23 667.23,115.038 665,115.038 C662.77,115.038 660.962,113.23 660.962,111 C660.962,108.77 662.77,106.962 665,106.962 C666.071,106.962 667.098,107.387 667.856,108.144 C668.613,108.902 669.038,109.929 669.038,111 Z M687.885,106.962 C685.654,106.962 683.846,108.77 683.846,111 C683.846,113.23 685.654,115.038 687.885,115.038 C690.115,115.038 691.923,113.23 691.923,111 C691.923,109.929 691.498,108.902 690.74,108.144 C689.983,107.387 688.956,106.962 687.885,106.962 Z M642.115,106.962 C639.885,106.962 638.077,108.77 638.077,111 C638.077,113.23 639.885,115.038 642.115,115.038 C644.346,115.038 646.154,113.23 646.154,111 C646.154,109.929 645.728,108.902 644.971,108.144 C644.214,107.387 643.186,106.962 642.115,106.962 Z" />
        </g>
    </g>
</svg>