<?xml version="1.0" encoding="UTF-8"?>
<svg height="600" width="800" xmlns="http://www.w3.org/2000/svg" xmlns:xlink="http://www.w3.org/1999/xlink">
    <g id="Notes" font-family="'LucidaGrande', 'Lucida Grande', sans-serif" font-size="13">
        <rect fill="white" height="600.0" width="800.0" x="0.0" y="0.0" />
        <g font-size="13">
            <text x="18.0" y="176.0">Small</text>
            <text x="18.0" y="376.0">Medium</text>
            <text x="18.0" y="576.0">Large</text>
        </g>
        <g font-size="9">
            <text x="250.0" y="30.0">Ultralight</text>
            <text x="450.0" y="30.0">Regular</text>
            <text x="650.0" y="30.0">Black</text>
            <text id="template-version" fill="#505050" text-anchor="end" x="785.0" y="575.0">Template v.3.0</text>
            <a href="https://github.com/swhitty/SwiftDraw">
                <text fill="#505050" text-anchor="end" x="785.0" y="590.0">https://github.com/swhitty/SwiftDraw</text>
            </a>
        </g>
    </g>
    <g id="Guides" stroke="rgb(39, 170, 225)" stroke-width="0.5">
        <path id="Capline-S" d="M18,76 l800,0" />
        <path id="H-reference" d="M85,145.755 L87.685,145.755 L113.369,79.287 L114.052,79.287 L114.052,76 L112.148,76 L85,145.755 Z M95.693,121.536 L130.996,121.536 L130.263,119.313 L96.474,119.313 L95.693,121.536 Z M139.15,145.755 L141.787,145.755 L114.638,76 L113.466,76 L113.466,79.287 L139.15,145.755 Z" stroke="none" />
        <path id="Baseline-S" d="M18,146 l800,0" />
        <path id="left-margin-Ultralight-S" d="M220,56 l0,110" />
        <path id="right-margin-Ultralight-S" d="M310,56 l0,110" />
        <path id="left-margin-Regular-S" d="M420,56 l0,110" />
        <path id="right-margin-Regular-S" d="M510,56 l0,110" />
        <path id="left-margin-Black-S" d="M620,56 l0,110" />
        <path id="right-margin-Black-S" d="M710,56 l0,110" />
        <path id="Capline-M" d="M18,276 l800,0" />
        <path id="Baseline-M" d="M18,346 l800,0" />
        <path id="Capline-L" d="M18,476 l800,0" />
        <path id="Baseline-L" d="M18,546 l800,0" />
    </g>
    <g id="Symbols">
        <g id="Ultralight-S">
            <path d="M297.308,92.154 C288.39,92.145 281.163,84.918 281.154,76 C281.154,75.286 280.87,74.601 280.365,74.096 C279.86,73.591 279.176,73.308 278.462,73.308 L265,73.308 C264.286,73.308 263.601,73.591 263.096,74.096 C262.591,74.601 262.308,75.286 262.308,76 L262.308,120.423 C262.306,123.758 259.863,126.589 256.565,127.078 C253.266,127.567 250.107,125.568 249.137,122.377 C248.167,119.187 249.68,115.767 252.693,114.338 C253.632,113.892 254.231,112.945 254.231,111.905 L254.231,97.538 C254.231,96.742 253.879,95.986 253.268,95.474 C252.658,94.962 251.852,94.747 251.067,94.887 C239.056,97.027 230,108.005 230,120.423 C230,134.549 241.451,146 255.577,146 C269.703,146 281.154,134.549 281.154,120.423 L281.154,107.059 C286.14,109.661 291.684,111.013 297.308,111 C298.022,111 298.707,110.716 299.211,110.211 C299.716,109.707 300,109.022 300,108.308 L300,94.846 C300,94.132 299.716,93.447 299.211,92.942 C298.707,92.438 298.022,92.154 297.308,92.154 Z M294.615,105.494 C289.354,105.028 284.316,103.15 280.033,100.059 C279.212,99.469 278.13,99.388 277.231,99.85 C276.332,100.312 275.767,101.239 275.769,102.25 L275.769,120.423 C275.769,131.575 266.729,140.615 255.577,140.615 C244.425,140.615 235.385,131.575 235.385,120.423 C235.385,111.707 240.985,103.889 248.846,101.038 L248.846,110.35 C244.04,113.562 242.172,119.721 244.384,125.061 C246.596,130.401 252.272,133.435 257.941,132.307 C263.61,131.179 267.693,126.203 267.692,120.423 L267.692,78.692 L275.938,78.692 C277.183,88.446 284.862,96.125 294.615,97.37 Z" />
        </g>
        <g id="Regular-S">
            <path d="M497.308,92.154 C488.39,92.145 481.163,84.918 481.154,76 C481.154,75.286 480.87,74.601 480.365,74.096 C479.86,73.591 479.176,73.308 478.462,73.308 L465,73.308 C464.286,73.308 463.601,73.591 463.096,74.096 C462.591,74.601 462.308,75.286 462.308,76 L462.308,120.423 C462.306,123.758 459.863,126.589 456.565,127.078 C453.266,127.567 450.107,125.568 449.137,122.377 C448.167,119.187 449.68,115.767 452.693,114.338 C453.632,113.892 454.231,112.945 454.231,111.905 L454.231,97.538 C454.231,96.742 453.879,95.986 453.268,95.474 C452.658,94.962 451.852,94.747 451.067,94.887 C439.056,97.027 430,108.005 430,120.423 C430,134.549 441.451,146 455.577,146 C469.703,146 481.154,134.549 481.154,120.423 L481.154,107.059 C486.14,109.661 491.684,111.013 497.308,111 C498.022,111 498.707,110.716 499.211,110.211 C499.716,109.707 500,109.022 500,108.308 L500,94.846 C500,94.132 499.716,93.447 499.211,92.942 C498.707,92.438 498.022,92.154 497.308,92.154 Z M494.615,105.494 C489.354,105.028 484.316,103.15 480.033,100.059 C479.212,99.469 478.13,99.388 477.231,99.85 C476.332,100.312 475.767,101.239 475.769,102.25 L475.769,120.423 C475.769,131.575 466.729,140.615 455.577,140.615 C444.425,140.615 435.385,131.575 435.385,120.423 C435.385,111.707 440.985,103.889 448.846,101.038 L448.846,110.35 C444.04,113.562 442.172,119.721 444.384,125.061 C446.596,130.401 452.272,133.435 457.941,132.307 C463.61,131.179 467.693,126.203 467.692,120.423 L467.692,78.692 L475.938,78.692 C477.183,88.446 484.862,96.125 494.615,97.37 Z" />
        </g>
        <g id="Black-S">
            <path d="M697.308,92.154 C688.39,92.145 681.163,84.918 681.154,76 C681.154,75.286 680.87,74.601 680.365,74.096 C679.86,73.591 679.176,73.308 678.462,73.308 L665,73.308 C664.286,73.308 663.601,73.591 663.096,74.096 C662.591,74.601 662.308,75.286 662.308,76 L662.308,120.423 C662.306,123.758 659.863,126.589 656.565,127.078 C653.266,127.567 650.107,125.568 649.137,122.377 C648.167,119.187 649.68,115.767 652.693,114.338 C653.633,113.892 654.231,112.945 654.231,111.905 L654.231,97.538 C654.231,96.742 653.879,95.986 653.268,95.474 C652.658,94.962 651.852,94.747 651.068,94.887 C639.056,97.027 630,108.005 630,120.423 C630,134.549 641.451,146 655.577,146 C669.703,146 681.154,134.549 681.154,120.423 L681.154,107.059 C686.14,109.661 691.684,111.013 697.308,111 C698.022,111 698.707,110.716 699.211,110.211 C699.716,109.707 700,109.022 700,108.308 L700,94.846 C700,94.132 699.716,93.447 699.211,92.942 C698.707,92.438 698.022,92.154 697.308,92.154 Z M694.615,105.494 C689.354,105.028 684.316,103.15 680.033,100.059 C679.212,99.469 678.13,99.388 677.231,99.85 C676.332,100.312 675.767,101.239 675.769,102.25 L675.769,120.423 C675.769,131.575 666.729,140.615 655.577,140.615 C644.425,140.615 635.385,131.575 635.385,120.423 C635.385,111.707 640.985,103.889 648.846,101.038 L648.846,110.35 C644.04,113.562 642.172,119.721 644.384,125.061 C646.596,130.401 652.272,133.435 657.941,132.307 C663.61,131.179 667.693,126.203 667.692,120.423 L667.692,78.692 L675.938,78.692 C677.183,88.446 684.862,96.125 694.615,97.37 Z" />
        </g>
    </g>
</svg>