<?xml version="1.0" encoding="UTF-8"?>
<svg height="600" width="800" xmlns="http://www.w3.org/2000/svg" xmlns:xlink="http://www.w3.org/1999/xlink">
    <g id="Notes" font-family="'LucidaGrande', 'Lucida Grande', sans-serif" font-size="13">
        <rect fill="white" height="600.0" width="800.0" x="0.0" y="0.0" />
        <g font-size="13">
            <text x="18.0" y="176.0">Small</text>
            <text x="18.0" y="376.0">Medium</text>
            <text x="18.0" y="576.0">Large</text>
        </g>
        <g font-size="9">
            <text x="250.0" y="30.0">Ultralight</text>
            <text x="450.0" y="30.0">Regular</text>
            <text x="650.0" y="30.0">Black</text>
            <text id="template-version" fill="#505050" text-anchor="end" x="785.0" y="575.0">Template v.3.0</text>
            <a href="https://github.com/swhitty/SwiftDraw">
                <text fill="#505050" text-anchor="end" x="785.0" y="590.0">https://github.com/swhitty/SwiftDraw</text>
            </a>
        </g>
    </g>
    <g id="Guides" stroke="rgb(39, 170, 225)" stroke-width="0.5">
        <path id="Capline-S" d="M18,76 l800,0" />
        <path id="H-reference" d="M85,145.755 L87.685,145.755 L113.369,79.287 L114.052,79.287 L114.052,76 L112.148,76 L85,145.755 Z M95.693,121.536 L130.996,121.536 L130.263,119.313 L96.474,119.313 L95.693,121.536 Z M139.15,145.755 L141.787,145.755 L114.638,76 L113.466,76 L113.466,79.287 L139.15,145.755 Z" stroke="none" />
        <path id="Baseline-S" d="M18,146 l800,0" />
        <path id="left-margin-Ultralight-S" d="M220,56 l0,110" />
        <path id="right-margin-Ultralight-S" d="M310,56 l0,110" />
        <path id="left-margin-Regular-S" d="M420,56 l0,110" />
        <path id="right-margin-Regular-S" d="M510,56 l0,110" />
        <path id="left-margin-Black-S" d="M620,56 l0,110" />
        <path id="right-margin-Black-S" d="M710,56 l0,110" />
        <path id="Capline-M" d="M18,276 l800,0" />
        <path id="Baseline-M" d="M18,346 l800,0" />
        <path id="Capline-L" d="M18,476 l800,0" />
        <path id="Baseline-L" d="M18,546 l800,0" />
    </g>
    <g id="Symbols">
        <g id="Ultralight-S">
            <path d="M304.52,83.845 C303.53,82.308 301.827,81.381 300,81.385 L251.811,81.385 C249.693,81.384 247.771,82.627 246.901,84.558 L225.093,133.02 C224.343,134.685 224.489,136.618 225.48,138.153 C226.471,139.687 228.173,140.614 230,140.615 L278.189,140.615 C280.307,140.616 282.229,139.373 283.099,137.442 L304.907,88.98 C305.658,87.314 305.512,85.38 304.52,83.845 Z M278.189,135.231 L230,135.231 L251.811,86.769 L300,86.769 Z" />
        </g>
        <g id="Regular-S">
            <path d="M504.52,83.845 C503.53,82.308 501.827,81.381 500,81.385 L451.811,81.385 C449.693,81.384 447.771,82.627 446.901,84.558 L425.093,133.02 C424.343,134.685 424.489,136.618 425.48,138.153 C426.471,139.687 428.173,140.614 430,140.615 L478.189,140.615 C480.307,140.616 482.229,139.373 483.099,137.442 L504.907,88.98 C505.658,87.314 505.512,85.38 504.52,83.845 Z M478.189,135.231 L430,135.231 L451.811,86.769 L500,86.769 Z" />
        </g>
        <g id="Black-S">
            <path d="M704.52,83.845 C703.53,82.308 701.827,81.381 700,81.385 L651.811,81.385 C649.693,81.384 647.771,82.627 646.901,84.558 L625.093,133.02 C624.343,134.685 624.489,136.618 625.48,138.153 C626.471,139.687 628.173,140.614 630,140.615 L678.189,140.615 C680.307,140.616 682.229,139.373 683.099,137.442 L704.907,88.98 C705.658,87.314 705.512,85.38 704.52,83.845 Z M678.189,135.231 L630,135.231 L651.811,86.769 L700,86.769 Z" />
        </g>
    </g>
</svg>