<?xml version="1.0" encoding="UTF-8"?>
<svg height="600" width="800" xmlns="http://www.w3.org/2000/svg" xmlns:xlink="http://www.w3.org/1999/xlink">
    <g id="Notes" font-family="'LucidaGrande', 'Lucida Grande', sans-serif" font-size="13">
        <rect fill="white" height="600.0" width="800.0" x="0.0" y="0.0" />
        <g font-size="13">
            <text x="18.0" y="176.0">Small</text>
            <text x="18.0" y="376.0">Medium</text>
            <text x="18.0" y="576.0">Large</text>
        </g>
        <g font-size="9">
            <text x="250.0" y="30.0">Ultralight</text>
            <text x="450.0" y="30.0">Regular</text>
            <text x="650.0" y="30.0">Black</text>
            <text id="template-version" fill="#505050" text-anchor="end" x="785.0" y="575.0">Template v.3.0</text>
            <a href="https://github.com/swhitty/SwiftDraw">
                <text fill="#505050" text-anchor="end" x="785.0" y="590.0">https://github.com/swhitty/SwiftDraw</text>
            </a>
        </g>
    </g>
    <g id="Guides" stroke="rgb(39, 170, 225)" stroke-width="0.5">
        <path id="Capline-S" d="M18,76 l800,0" />
        <path id="H-reference" d="M85,145.755 L87.685,145.755 L113.369,79.287 L114.052,79.287 L114.052,76 L112.148,76 L85,145.755 Z M95.693,121.536 L130.996,121.536 L130.263,119.313 L96.474,119.313 L95.693,121.536 Z M139.15,145.755 L141.787,145.755 L114.638,76 L113.466,76 L113.466,79.287 L139.15,145.755 Z" stroke="none" />
        <path id="Baseline-S" d="M18,146 l800,0" />
        <path id="left-margin-Ultralight-S" d="M220,56 l0,110" />
        <path id="right-margin-Ultralight-S" d="M310,56 l0,110" />
        <path id="left-margin-Regular-S" d="M420,56 l0,110" />
        <path id="right-margin-Regular-S" d="M510,56 l0,110" />
        <path id="left-margin-Black-S" d="M620,56 l0,110" />
        <path id="right-margin-Black-S" d="M710,56 l0,110" />
        <path id="Capline-M" d="M18,276 l800,0" />
        <path id="Baseline-M" d="M18,346 l800,0" />
        <path id="Capline-L" d="M18,476 l800,0" />
        <path id="Baseline-L" d="M18,546 l800,0" />
    </g>
    <g id="Symbols">
        <g id="Ultralight-S">
            <path d="M254.318,80.375 C253.954,78.94 254.817,77.48 256.25,77.107 C261.989,75.627 268.011,75.627 273.75,77.107 C275.065,77.444 275.924,78.708 275.753,80.055 C275.582,81.402 274.435,82.41 273.077,82.408 C272.85,82.407 272.624,82.377 272.404,82.32 C267.548,81.066 262.452,81.066 257.596,82.32 C256.904,82.498 256.169,82.392 255.554,82.028 C254.939,81.663 254.494,81.068 254.318,80.375 Z M233.147,104.942 C233.835,105.133 234.571,105.043 235.192,104.692 C235.814,104.34 236.271,103.756 236.462,103.068 C237.803,98.236 240.351,93.825 243.865,90.249 C244.821,89.177 244.767,87.543 243.743,86.537 C242.718,85.53 241.084,85.505 240.029,86.48 C235.877,90.705 232.866,95.916 231.279,101.624 C231.086,102.312 231.175,103.048 231.525,103.67 C231.876,104.292 232.459,104.75 233.147,104.942 Z M272.404,139.68 C267.548,140.934 262.452,140.934 257.596,139.68 C256.167,139.334 254.724,140.199 254.356,141.623 C253.988,143.048 254.832,144.503 256.25,144.893 C261.989,146.373 268.011,146.373 273.75,144.893 C275.168,144.503 276.012,143.048 275.644,141.623 C275.276,140.199 273.833,139.334 272.404,139.68 Z M293.538,103.075 C293.935,104.506 295.418,105.346 296.852,104.95 C298.285,104.553 299.125,103.069 298.728,101.636 C297.14,95.929 294.13,90.718 289.978,86.492 C289.31,85.778 288.308,85.483 287.36,85.72 C286.412,85.957 285.667,86.689 285.413,87.633 C285.159,88.577 285.437,89.584 286.138,90.264 C289.646,93.841 292.191,98.248 293.535,103.075 Z M298.735,120.369 C296.953,126.791 293.371,132.568 288.41,137.018 C287.788,137.579 286.94,137.819 286.116,137.667 C285.292,137.514 284.586,136.987 284.206,136.24 C280.535,129.007 273.111,124.45 265,124.45 C256.889,124.45 249.465,129.007 245.794,136.24 C245.414,136.986 244.709,137.513 243.886,137.666 C243.063,137.819 242.216,137.581 241.594,137.021 C236.633,132.569 233.05,126.789 231.269,120.366 C230.872,118.933 231.712,117.449 233.145,117.053 C234.578,116.656 236.061,117.496 236.458,118.929 C237.663,123.28 239.85,127.296 242.852,130.667 C245.856,126.31 250.084,122.941 255.002,120.985 C249.593,116.727 247.476,109.51 249.729,103.005 C251.982,96.501 258.11,92.139 264.993,92.139 C271.877,92.139 278.004,96.501 280.257,103.005 C282.51,109.51 280.394,116.727 274.985,120.985 C279.903,122.941 284.13,126.31 287.134,130.667 C290.136,127.296 292.324,123.28 293.528,118.929 C293.925,117.497 295.408,116.657 296.842,117.054 C298.275,117.451 299.115,118.934 298.718,120.368 Z M265,119.077 C270.948,119.077 275.769,114.255 275.769,108.308 C275.769,102.36 270.948,97.538 265,97.538 C259.052,97.538 254.231,102.36 254.231,108.308 C254.231,111.164 255.365,113.903 257.385,115.923 C259.405,117.942 262.144,119.077 265,119.077 Z" />
        </g>
        <g id="Regular-S">
            <path d="M454.318,80.375 C453.954,78.94 454.817,77.48 456.25,77.107 C461.989,75.627 468.011,75.627 473.75,77.107 C475.065,77.444 475.924,78.708 475.753,80.055 C475.582,81.402 474.435,82.41 473.077,82.408 C472.85,82.407 472.624,82.377 472.404,82.32 C467.548,81.066 462.452,81.066 457.596,82.32 C456.903,82.498 456.169,82.392 455.554,82.028 C454.939,81.663 454.494,81.068 454.318,80.375 Z M433.147,104.942 C433.835,105.133 434.571,105.043 435.192,104.692 C435.814,104.34 436.271,103.756 436.462,103.068 C437.803,98.236 440.351,93.825 443.865,90.249 C444.821,89.177 444.767,87.543 443.743,86.537 C442.718,85.53 441.084,85.505 440.029,86.48 C435.877,90.705 432.866,95.916 431.279,101.624 C431.086,102.312 431.175,103.048 431.525,103.67 C431.876,104.292 432.459,104.75 433.147,104.942 Z M472.404,139.68 C467.548,140.934 462.452,140.934 457.596,139.68 C456.167,139.334 454.724,140.199 454.356,141.623 C453.988,143.048 454.832,144.503 456.25,144.893 C461.989,146.373 468.011,146.373 473.75,144.893 C475.168,144.503 476.012,143.048 475.644,141.623 C475.276,140.199 473.833,139.334 472.404,139.68 Z M493.538,103.075 C493.935,104.506 495.418,105.346 496.852,104.95 C498.285,104.553 499.125,103.069 498.728,101.636 C497.14,95.929 494.13,90.718 489.978,86.492 C489.31,85.778 488.308,85.483 487.36,85.72 C486.412,85.957 485.667,86.689 485.413,87.633 C485.159,88.577 485.437,89.584 486.138,90.264 C489.646,93.841 492.191,98.248 493.535,103.075 Z M498.735,120.369 C496.953,126.791 493.371,132.568 488.41,137.018 C487.788,137.579 486.94,137.819 486.116,137.667 C485.292,137.514 484.586,136.987 484.206,136.24 C480.535,129.007 473.111,124.45 465,124.45 C456.888,124.45 449.465,129.007 445.794,136.24 C445.414,136.986 444.709,137.513 443.886,137.666 C443.063,137.819 442.216,137.581 441.594,137.021 C436.633,132.569 433.05,126.789 431.269,120.366 C430.872,118.933 431.712,117.449 433.145,117.053 C434.578,116.656 436.061,117.496 436.458,118.929 C437.663,123.28 439.85,127.296 442.852,130.667 C445.856,126.31 450.084,122.941 455.001,120.985 C449.593,116.727 447.476,109.51 449.729,103.005 C451.982,96.501 458.11,92.139 464.993,92.139 C471.877,92.139 478.004,96.501 480.257,103.005 C482.51,109.51 480.394,116.727 474.985,120.985 C479.903,122.941 484.13,126.31 487.134,130.667 C490.136,127.296 492.324,123.28 493.528,118.929 C493.925,117.497 495.408,116.657 496.842,117.054 C498.275,117.451 499.115,118.934 498.718,120.368 Z M465,119.077 C470.948,119.077 475.769,114.255 475.769,108.308 C475.769,102.36 470.948,97.538 465,97.538 C459.052,97.538 454.231,102.36 454.231,108.308 C454.231,111.164 455.365,113.903 457.385,115.923 C459.405,117.942 462.144,119.077 465,119.077 Z" />
        </g>
        <g id="Black-S">
            <path d="M654.318,80.375 C653.954,78.94 654.817,77.48 656.25,77.107 C661.989,75.627 668.011,75.627 673.75,77.107 C675.065,77.444 675.924,78.708 675.753,80.055 C675.582,81.402 674.435,82.41 673.077,82.408 C672.85,82.407 672.624,82.377 672.404,82.32 C667.548,81.066 662.452,81.066 657.596,82.32 C656.904,82.498 656.169,82.392 655.554,82.028 C654.939,81.663 654.494,81.068 654.318,80.375 Z M633.147,104.942 C633.835,105.133 634.571,105.043 635.192,104.692 C635.814,104.34 636.271,103.756 636.462,103.068 C637.803,98.236 640.351,93.825 643.865,90.249 C644.821,89.177 644.767,87.543 643.743,86.537 C642.718,85.53 641.084,85.505 640.029,86.48 C635.877,90.705 632.866,95.916 631.279,101.624 C631.086,102.312 631.175,103.048 631.525,103.67 C631.876,104.292 632.459,104.75 633.147,104.942 Z M672.404,139.68 C667.548,140.934 662.452,140.934 657.596,139.68 C656.167,139.334 654.724,140.199 654.356,141.623 C653.988,143.048 654.832,144.503 656.25,144.893 C661.989,146.373 668.011,146.373 673.75,144.893 C675.168,144.503 676.012,143.048 675.644,141.623 C675.276,140.199 673.833,139.334 672.404,139.68 Z M693.538,103.075 C693.935,104.506 695.418,105.346 696.852,104.95 C698.285,104.553 699.125,103.069 698.728,101.636 C697.14,95.929 694.13,90.718 689.978,86.492 C689.31,85.778 688.308,85.483 687.36,85.72 C686.412,85.957 685.667,86.689 685.413,87.633 C685.159,88.577 685.437,89.584 686.138,90.264 C689.646,93.841 692.191,98.248 693.535,103.075 Z M698.735,120.369 C696.953,126.791 693.371,132.568 688.41,137.018 C687.788,137.579 686.94,137.819 686.116,137.667 C685.292,137.514 684.586,136.987 684.206,136.24 C680.535,129.007 673.112,124.45 665,124.45 C656.889,124.45 649.465,129.007 645.794,136.24 C645.414,136.986 644.709,137.513 643.886,137.666 C643.063,137.819 642.216,137.581 641.594,137.021 C636.633,132.569 633.05,126.789 631.269,120.366 C630.872,118.933 631.712,117.449 633.145,117.053 C634.578,116.656 636.062,117.496 636.458,118.929 C637.663,123.28 639.85,127.296 642.852,130.667 C645.856,126.31 650.084,122.941 655.002,120.985 C649.593,116.727 647.476,109.51 649.729,103.005 C651.982,96.501 658.11,92.139 664.993,92.139 C671.877,92.139 678.004,96.501 680.257,103.005 C682.51,109.51 680.394,116.727 674.985,120.985 C679.903,122.941 684.13,126.31 687.134,130.667 C690.136,127.296 692.324,123.28 693.528,118.929 C693.925,117.497 695.408,116.657 696.842,117.054 C698.275,117.451 699.115,118.934 698.718,120.368 Z M665,119.077 C670.948,119.077 675.769,114.255 675.769,108.308 C675.769,102.36 670.948,97.538 665,97.538 C659.052,97.538 654.231,102.36 654.231,108.308 C654.231,111.164 655.365,113.903 657.385,115.923 C659.405,117.942 662.144,119.077 665,119.077 Z" />
        </g>
    </g>
</svg>