<?xml version="1.0" encoding="UTF-8"?>
<svg height="600" width="800" xmlns="http://www.w3.org/2000/svg" xmlns:xlink="http://www.w3.org/1999/xlink">
    <g id="Notes" font-family="'LucidaGrande', 'Lucida Grande', sans-serif" font-size="13">
        <rect fill="white" height="600.0" width="800.0" x="0.0" y="0.0" />
        <g font-size="13">
            <text x="18.0" y="176.0">Small</text>
            <text x="18.0" y="376.0">Medium</text>
            <text x="18.0" y="576.0">Large</text>
        </g>
        <g font-size="9">
            <text x="250.0" y="30.0">Ultralight</text>
            <text x="450.0" y="30.0">Regular</text>
            <text x="650.0" y="30.0">Black</text>
            <text id="template-version" fill="#505050" text-anchor="end" x="785.0" y="575.0">Template v.3.0</text>
            <a href="https://github.com/swhitty/SwiftDraw">
                <text fill="#505050" text-anchor="end" x="785.0" y="590.0">https://github.com/swhitty/SwiftDraw</text>
            </a>
        </g>
    </g>
    <g id="Guides" stroke="rgb(39, 170, 225)" stroke-width="0.5">
        <path id="Capline-S" d="M18,76 l800,0" />
        <path id="H-reference" d="M85,145.755 L87.685,145.755 L113.369,79.287 L114.052,79.287 L114.052,76 L112.148,76 L85,145.755 Z M95.693,121.536 L130.996,121.536 L130.263,119.313 L96.474,119.313 L95.693,121.536 Z M139.15,145.755 L141.787,145.755 L114.638,76 L113.466,76 L113.466,79.287 L139.15,145.755 Z" stroke="none" />
        <path id="Baseline-S" d="M18,146 l800,0" />
        <path id="left-margin-Ultralight-S" d="M220,56 l0,110" />
        <path id="right-margin-Ultralight-S" d="M310,56 l0,110" />
        <path id="left-margin-Regular-S" d="M420,56 l0,110" />
        <path id="right-margin-Regular-S" d="M510,56 l0,110" />
        <path id="left-margin-Black-S" d="M620,56 l0,110" />
        <path id="right-margin-Black-S" d="M710,56 l0,110" />
        <path id="Capline-M" d="M18,276 l800,0" />
        <path id="Baseline-M" d="M18,346 l800,0" />
        <path id="Capline-L" d="M18,476 l800,0" />
        <path id="Baseline-L" d="M18,546 l800,0" />
    </g>
    <g id="Symbols">
        <g id="Ultralight-S">
            <path d="M291.923,78.692 L283.846,78.692 L283.846,76 C283.846,74.513 282.641,73.308 281.154,73.308 C279.667,73.308 278.462,74.513 278.462,76 L278.462,78.692 L251.538,78.692 L251.538,76 C251.538,74.513 250.333,73.308 248.846,73.308 C247.359,73.308 246.154,74.513 246.154,76 L246.154,78.692 L238.077,78.692 C236.649,78.692 235.279,79.26 234.269,80.269 C233.26,81.279 232.692,82.649 232.692,84.077 L232.692,137.923 C232.692,139.351 233.26,140.721 234.269,141.731 C235.279,142.74 236.649,143.308 238.077,143.308 L291.923,143.308 C293.351,143.308 294.721,142.74 295.731,141.731 C296.74,140.721 297.308,139.351 297.308,137.923 L297.308,84.077 C297.308,82.649 296.74,81.279 295.731,80.269 C294.721,79.26 293.351,78.692 291.923,78.692 Z M291.923,137.923 L238.077,137.923 L238.077,84.077 L246.154,84.077 L246.154,86.769 C246.154,88.256 247.359,89.462 248.846,89.462 C250.333,89.462 251.538,88.256 251.538,86.769 L251.538,84.077 L278.462,84.077 L278.462,86.769 C278.462,88.256 279.667,89.462 281.154,89.462 C282.641,89.462 283.846,88.256 283.846,86.769 L283.846,84.077 L291.923,84.077 L291.923,137.923 Z M273.077,97.538 C269.984,97.537 267.04,98.869 265,101.193 C262.039,97.835 257.308,96.66 253.12,98.241 C248.931,99.822 246.157,103.83 246.154,108.308 C246.154,120.598 263.075,129.2 263.795,129.563 C264.554,129.943 265.446,129.943 266.205,129.563 C266.925,129.2 283.846,120.598 283.846,108.308 C283.846,105.452 282.712,102.712 280.692,100.693 C278.672,98.673 275.933,97.538 273.077,97.538 Z M265,124.101 C260.359,121.48 251.538,115.099 251.538,108.308 C251.538,105.334 253.949,102.923 256.923,102.923 C259.897,102.923 262.308,105.334 262.308,108.308 C262.308,109.795 263.513,111 265,111 C266.487,111 267.692,109.795 267.692,108.308 C267.692,105.334 270.103,102.923 273.077,102.923 C276.051,102.923 278.462,105.334 278.462,108.308 C278.462,115.102 269.641,121.483 265,124.101 Z" />
        </g>
        <g id="Regular-S">
            <path d="M491.923,78.692 L483.846,78.692 L483.846,76 C483.846,74.513 482.641,73.308 481.154,73.308 C479.667,73.308 478.462,74.513 478.462,76 L478.462,78.692 L451.538,78.692 L451.538,76 C451.538,74.513 450.333,73.308 448.846,73.308 C447.359,73.308 446.154,74.513 446.154,76 L446.154,78.692 L438.077,78.692 C436.649,78.692 435.279,79.26 434.269,80.269 C433.26,81.279 432.692,82.649 432.692,84.077 L432.692,137.923 C432.692,139.351 433.26,140.721 434.269,141.731 C435.279,142.74 436.649,143.308 438.077,143.308 L491.923,143.308 C493.351,143.308 494.721,142.74 495.731,141.731 C496.74,140.721 497.308,139.351 497.308,137.923 L497.308,84.077 C497.308,82.649 496.74,81.279 495.731,80.269 C494.721,79.26 493.351,78.692 491.923,78.692 Z M491.923,137.923 L438.077,137.923 L438.077,84.077 L446.154,84.077 L446.154,86.769 C446.154,88.256 447.359,89.462 448.846,89.462 C450.333,89.462 451.538,88.256 451.538,86.769 L451.538,84.077 L478.462,84.077 L478.462,86.769 C478.462,88.256 479.667,89.462 481.154,89.462 C482.641,89.462 483.846,88.256 483.846,86.769 L483.846,84.077 L491.923,84.077 L491.923,137.923 Z M473.077,97.538 C469.984,97.537 467.04,98.869 465,101.193 C462.039,97.835 457.308,96.66 453.12,98.241 C448.931,99.822 446.157,103.83 446.154,108.308 C446.154,120.598 463.075,129.2 463.795,129.563 C464.554,129.943 465.446,129.943 466.205,129.563 C466.925,129.2 483.846,120.598 483.846,108.308 C483.846,105.452 482.712,102.712 480.692,100.693 C478.672,98.673 475.933,97.538 473.077,97.538 Z M465,124.101 C460.359,121.48 451.538,115.099 451.538,108.308 C451.538,105.334 453.949,102.923 456.923,102.923 C459.897,102.923 462.308,105.334 462.308,108.308 C462.308,109.795 463.513,111 465,111 C466.487,111 467.692,109.795 467.692,108.308 C467.692,105.334 470.103,102.923 473.077,102.923 C476.051,102.923 478.462,105.334 478.462,108.308 C478.462,115.102 469.641,121.483 465,124.101 Z" />
        </g>
        <g id="Black-S">
            <path d="M691.923,78.692 L683.846,78.692 L683.846,76 C683.846,74.513 682.641,73.308 681.154,73.308 C679.667,73.308 678.462,74.513 678.462,76 L678.462,78.692 L651.538,78.692 L651.538,76 C651.538,74.513 650.333,73.308 648.846,73.308 C647.359,73.308 646.154,74.513 646.154,76 L646.154,78.692 L638.077,78.692 C636.649,78.692 635.279,79.26 634.269,80.269 C633.26,81.279 632.692,82.649 632.692,84.077 L632.692,137.923 C632.692,139.351 633.26,140.721 634.269,141.731 C635.279,142.74 636.649,143.308 638.077,143.308 L691.923,143.308 C693.351,143.308 694.721,142.74 695.731,141.731 C696.74,140.721 697.308,139.351 697.308,137.923 L697.308,84.077 C697.308,82.649 696.74,81.279 695.731,80.269 C694.721,79.26 693.351,78.692 691.923,78.692 Z M691.923,137.923 L638.077,137.923 L638.077,84.077 L646.154,84.077 L646.154,86.769 C646.154,88.256 647.359,89.462 648.846,89.462 C650.333,89.462 651.538,88.256 651.538,86.769 L651.538,84.077 L678.462,84.077 L678.462,86.769 C678.462,88.256 679.667,89.462 681.154,89.462 C682.641,89.462 683.846,88.256 683.846,86.769 L683.846,84.077 L691.923,84.077 L691.923,137.923 Z M673.077,97.538 C669.984,97.537 667.04,98.869 665,101.193 C662.039,97.835 657.308,96.66 653.12,98.241 C648.931,99.822 646.158,103.83 646.154,108.308 C646.154,120.598 663.075,129.2 663.795,129.563 C664.554,129.943 665.446,129.943 666.205,129.563 C666.925,129.2 683.846,120.598 683.846,108.308 C683.846,105.452 682.712,102.712 680.692,100.693 C678.672,98.673 675.933,97.538 673.077,97.538 Z M665,124.101 C660.359,121.48 651.538,115.099 651.538,108.308 C651.538,105.334 653.949,102.923 656.923,102.923 C659.897,102.923 662.308,105.334 662.308,108.308 C662.308,109.795 663.513,111 665,111 C666.487,111 667.692,109.795 667.692,108.308 C667.692,105.334 670.103,102.923 673.077,102.923 C676.051,102.923 678.462,105.334 678.462,108.308 C678.462,115.102 669.641,121.483 665,124.101 Z" />
        </g>
    </g>
</svg>