<?xml version="1.0" encoding="UTF-8"?>
<svg height="600" width="800" xmlns="http://www.w3.org/2000/svg" xmlns:xlink="http://www.w3.org/1999/xlink">
    <g id="Notes" font-family="'LucidaGrande', 'Lucida Grande', sans-serif" font-size="13">
        <rect fill="white" height="600.0" width="800.0" x="0.0" y="0.0" />
        <g font-size="13">
            <text x="18.0" y="176.0">Small</text>
            <text x="18.0" y="376.0">Medium</text>
            <text x="18.0" y="576.0">Large</text>
        </g>
        <g font-size="9">
            <text x="250.0" y="30.0">Ultralight</text>
            <text x="450.0" y="30.0">Regular</text>
            <text x="650.0" y="30.0">Black</text>
            <text id="template-version" fill="#505050" text-anchor="end" x="785.0" y="575.0">Template v.3.0</text>
            <a href="https://github.com/swhitty/SwiftDraw">
                <text fill="#505050" text-anchor="end" x="785.0" y="590.0">https://github.com/swhitty/SwiftDraw</text>
            </a>
        </g>
    </g>
    <g id="Guides" stroke="rgb(39, 170, 225)" stroke-width="0.5">
        <path id="Capline-S" d="M18,76 l800,0" />
        <path id="H-reference" d="M85,145.755 L87.685,145.755 L113.369,79.287 L114.052,79.287 L114.052,76 L112.148,76 L85,145.755 Z M95.693,121.536 L130.996,121.536 L130.263,119.313 L96.474,119.313 L95.693,121.536 Z M139.15,145.755 L141.787,145.755 L114.638,76 L113.466,76 L113.466,79.287 L139.15,145.755 Z" stroke="none" />
        <path id="Baseline-S" d="M18,146 l800,0" />
        <path id="left-margin-Ultralight-S" d="M220,56 l0,110" />
        <path id="right-margin-Ultralight-S" d="M310,56 l0,110" />
        <path id="left-margin-Regular-S" d="M420,56 l0,110" />
        <path id="right-margin-Regular-S" d="M510,56 l0,110" />
        <path id="left-margin-Black-S" d="M620,56 l0,110" />
        <path id="right-margin-Black-S" d="M710,56 l0,110" />
        <path id="Capline-M" d="M18,276 l800,0" />
        <path id="Baseline-M" d="M18,346 l800,0" />
        <path id="Capline-L" d="M18,476 l800,0" />
        <path id="Baseline-L" d="M18,546 l800,0" />
    </g>
    <g id="Symbols">
        <g id="Ultralight-S">
            <path d="M265,76 C245.67,76 230,91.67 230,111 C230,130.33 245.67,146 265,146 C284.33,146 300,130.33 300,111 C299.979,91.677 284.32,76.02 264.999,76 Z M265,140.615 C248.644,140.615 235.385,127.356 235.385,111 C235.385,94.644 248.644,81.385 265,81.385 C281.356,81.385 294.615,94.644 294.615,111 C294.598,127.347 281.35,140.596 265.001,140.615 Z M278.462,97.538 L278.462,124.462 C278.462,125.948 277.256,127.154 275.769,127.154 C274.282,127.154 273.077,125.948 273.077,124.462 L273.077,113.692 L256.923,113.692 L256.923,124.462 C256.923,125.948 255.718,127.154 254.231,127.154 C252.744,127.154 251.538,125.948 251.538,124.462 L251.538,97.538 C251.538,96.052 252.744,94.846 254.231,94.846 C255.718,94.846 256.923,96.052 256.923,97.538 L256.923,108.308 L273.077,108.308 L273.077,97.538 C273.077,96.052 274.282,94.846 275.769,94.846 C277.256,94.846 278.462,96.052 278.462,97.538 Z" />
        </g>
        <g id="Regular-S">
            <path d="M465,76 C445.67,76 430,91.67 430,111 C430,130.33 445.67,146 465,146 C484.33,146 500,130.33 500,111 C499.979,91.677 484.32,76.02 464.999,76 Z M465,140.615 C448.644,140.615 435.385,127.356 435.385,111 C435.385,94.644 448.644,81.385 465,81.385 C481.356,81.385 494.615,94.644 494.615,111 C494.598,127.347 481.35,140.596 465.001,140.615 Z M478.462,97.538 L478.462,124.462 C478.462,125.948 477.256,127.154 475.769,127.154 C474.282,127.154 473.077,125.948 473.077,124.462 L473.077,113.692 L456.923,113.692 L456.923,124.462 C456.923,125.948 455.718,127.154 454.231,127.154 C452.744,127.154 451.538,125.948 451.538,124.462 L451.538,97.538 C451.538,96.052 452.744,94.846 454.231,94.846 C455.718,94.846 456.923,96.052 456.923,97.538 L456.923,108.308 L473.077,108.308 L473.077,97.538 C473.077,96.052 474.282,94.846 475.769,94.846 C477.256,94.846 478.462,96.052 478.462,97.538 Z" />
        </g>
        <g id="Black-S">
            <path d="M665,76 C645.67,76 630,91.67 630,111 C630,130.33 645.67,146 665,146 C684.33,146 700,130.33 700,111 C699.979,91.677 684.32,76.02 664.999,76 Z M665,140.615 C648.644,140.615 635.385,127.356 635.385,111 C635.385,94.644 648.644,81.385 665,81.385 C681.356,81.385 694.615,94.644 694.615,111 C694.598,127.347 681.35,140.596 665.001,140.615 Z M678.462,97.538 L678.462,124.462 C678.462,125.948 677.256,127.154 675.769,127.154 C674.282,127.154 673.077,125.948 673.077,124.462 L673.077,113.692 L656.923,113.692 L656.923,124.462 C656.923,125.948 655.718,127.154 654.231,127.154 C652.744,127.154 651.538,125.948 651.538,124.462 L651.538,97.538 C651.538,96.052 652.744,94.846 654.231,94.846 C655.718,94.846 656.923,96.052 656.923,97.538 L656.923,108.308 L673.077,108.308 L673.077,97.538 C673.077,96.052 674.282,94.846 675.769,94.846 C677.256,94.846 678.462,96.052 678.462,97.538 Z" />
        </g>
    </g>
</svg>