<?xml version="1.0" encoding="UTF-8"?>
<svg height="600" width="800" xmlns="http://www.w3.org/2000/svg" xmlns:xlink="http://www.w3.org/1999/xlink">
    <g id="Notes" font-family="'LucidaGrande', 'Lucida Grande', sans-serif" font-size="13">
        <rect fill="white" height="600.0" width="800.0" x="0.0" y="0.0" />
        <g font-size="13">
            <text x="18.0" y="176.0">Small</text>
            <text x="18.0" y="376.0">Medium</text>
            <text x="18.0" y="576.0">Large</text>
        </g>
        <g font-size="9">
            <text x="250.0" y="30.0">Ultralight</text>
            <text x="450.0" y="30.0">Regular</text>
            <text x="650.0" y="30.0">Black</text>
            <text id="template-version" fill="#505050" text-anchor="end" x="785.0" y="575.0">Template v.3.0</text>
            <a href="https://github.com/swhitty/SwiftDraw">
                <text fill="#505050" text-anchor="end" x="785.0" y="590.0">https://github.com/swhitty/SwiftDraw</text>
            </a>
        </g>
    </g>
    <g id="Guides" stroke="rgb(39, 170, 225)" stroke-width="0.5">
        <path id="Capline-S" d="M18,76 l800,0" />
        <path id="H-reference" d="M85,145.755 L87.685,145.755 L113.369,79.287 L114.052,79.287 L114.052,76 L112.148,76 L85,145.755 Z M95.693,121.536 L130.996,121.536 L130.263,119.313 L96.474,119.313 L95.693,121.536 Z M139.15,145.755 L141.787,145.755 L114.638,76 L113.466,76 L113.466,79.287 L139.15,145.755 Z" stroke="none" />
        <path id="Baseline-S" d="M18,146 l800,0" />
        <path id="left-margin-Ultralight-S" d="M220,56 l0,110" />
        <path id="right-margin-Ultralight-S" d="M310,56 l0,110" />
        <path id="left-margin-Regular-S" d="M420,56 l0,110" />
        <path id="right-margin-Regular-S" d="M510,56 l0,110" />
        <path id="left-margin-Black-S" d="M620,56 l0,110" />
        <path id="right-margin-Black-S" d="M710,56 l0,110" />
        <path id="Capline-M" d="M18,276 l800,0" />
        <path id="Baseline-M" d="M18,346 l800,0" />
        <path id="Capline-L" d="M18,476 l800,0" />
        <path id="Baseline-L" d="M18,546 l800,0" />
    </g>
    <g id="Symbols">
        <g id="Ultralight-S">
            <path d="M265,111 C265,111.714 264.716,112.399 264.211,112.904 C263.707,113.409 263.022,113.692 262.308,113.692 L238.077,113.692 C236.59,113.692 235.385,112.487 235.385,111 C235.385,109.513 236.59,108.308 238.077,108.308 L262.308,108.308 C263.022,108.308 263.707,108.591 264.211,109.096 C264.716,109.601 265,110.286 265,111 Z M238.077,92.154 L283.846,92.154 C285.333,92.154 286.538,90.948 286.538,89.462 C286.538,87.975 285.333,86.769 283.846,86.769 L238.077,86.769 C236.59,86.769 235.385,87.975 235.385,89.462 C235.385,90.948 236.59,92.154 238.077,92.154 Z M256.923,129.846 L238.077,129.846 C236.59,129.846 235.385,131.052 235.385,132.538 C235.385,134.025 236.59,135.231 238.077,135.231 L256.923,135.231 C258.41,135.231 259.615,134.025 259.615,132.538 C259.615,131.052 258.41,129.846 256.923,129.846 Z M299.212,122.557 C298.708,122.051 298.022,121.767 297.308,121.767 C296.593,121.767 295.908,122.051 295.403,122.557 L286.538,131.425 L286.538,105.615 C286.538,104.128 285.333,102.923 283.846,102.923 C282.359,102.923 281.154,104.128 281.154,105.615 L281.154,131.425 L272.289,122.557 C271.239,121.505 269.533,121.504 268.481,122.556 C267.428,123.607 267.427,125.313 268.479,126.365 L281.94,139.827 C282.445,140.332 283.131,140.616 283.845,140.616 C284.56,140.616 285.245,140.332 285.75,139.827 L299.211,126.365 C299.717,125.86 300.001,125.176 300.001,124.461 C300.001,123.747 299.718,123.062 299.212,122.557 Z" />
        </g>
        <g id="Regular-S">
            <path d="M465,111 C465,111.714 464.716,112.399 464.211,112.904 C463.707,113.409 463.022,113.692 462.308,113.692 L438.077,113.692 C436.59,113.692 435.385,112.487 435.385,111 C435.385,109.513 436.59,108.308 438.077,108.308 L462.308,108.308 C463.022,108.308 463.707,108.591 464.211,109.096 C464.716,109.601 465,110.286 465,111 Z M438.077,92.154 L483.846,92.154 C485.333,92.154 486.538,90.948 486.538,89.462 C486.538,87.975 485.333,86.769 483.846,86.769 L438.077,86.769 C436.59,86.769 435.385,87.975 435.385,89.462 C435.385,90.948 436.59,92.154 438.077,92.154 Z M456.923,129.846 L438.077,129.846 C436.59,129.846 435.385,131.052 435.385,132.538 C435.385,134.025 436.59,135.231 438.077,135.231 L456.923,135.231 C458.41,135.231 459.615,134.025 459.615,132.538 C459.615,131.052 458.41,129.846 456.923,129.846 Z M499.212,122.557 C498.707,122.051 498.022,121.767 497.308,121.767 C496.593,121.767 495.908,122.051 495.403,122.557 L486.538,131.425 L486.538,105.615 C486.538,104.128 485.333,102.923 483.846,102.923 C482.359,102.923 481.154,104.128 481.154,105.615 L481.154,131.425 L472.289,122.557 C471.239,121.505 469.533,121.504 468.481,122.556 C467.428,123.607 467.427,125.313 468.479,126.365 L481.94,139.827 C482.445,140.332 483.131,140.616 483.845,140.616 C484.56,140.616 485.245,140.332 485.75,139.827 L499.211,126.365 C499.717,125.86 500.001,125.176 500.001,124.461 C500.001,123.747 499.718,123.062 499.212,122.557 Z" />
        </g>
        <g id="Black-S">
            <path d="M665,111 C665,111.714 664.716,112.399 664.211,112.904 C663.707,113.409 663.022,113.692 662.308,113.692 L638.077,113.692 C636.59,113.692 635.385,112.487 635.385,111 C635.385,109.513 636.59,108.308 638.077,108.308 L662.308,108.308 C663.022,108.308 663.707,108.591 664.211,109.096 C664.716,109.601 665,110.286 665,111 Z M638.077,92.154 L683.846,92.154 C685.333,92.154 686.538,90.948 686.538,89.462 C686.538,87.975 685.333,86.769 683.846,86.769 L638.077,86.769 C636.59,86.769 635.385,87.975 635.385,89.462 C635.385,90.948 636.59,92.154 638.077,92.154 Z M656.923,129.846 L638.077,129.846 C636.59,129.846 635.385,131.052 635.385,132.538 C635.385,134.025 636.59,135.231 638.077,135.231 L656.923,135.231 C658.41,135.231 659.615,134.025 659.615,132.538 C659.615,131.052 658.41,129.846 656.923,129.846 Z M699.213,122.557 C698.708,122.051 698.022,121.767 697.308,121.767 C696.593,121.767 695.908,122.051 695.403,122.557 L686.538,131.425 L686.538,105.615 C686.538,104.128 685.333,102.923 683.846,102.923 C682.359,102.923 681.154,104.128 681.154,105.615 L681.154,131.425 L672.289,122.557 C671.239,121.505 669.533,121.504 668.481,122.556 C667.428,123.607 667.427,125.313 668.479,126.365 L681.94,139.827 C682.445,140.332 683.131,140.616 683.845,140.616 C684.56,140.616 685.245,140.332 685.75,139.827 L699.211,126.365 C699.717,125.86 700.001,125.176 700.001,124.461 C700.001,123.747 699.718,123.062 699.213,122.557 Z" />
        </g>
    </g>
</svg>