<?xml version="1.0" encoding="UTF-8"?>
<svg height="600" width="800" xmlns="http://www.w3.org/2000/svg" xmlns:xlink="http://www.w3.org/1999/xlink">
    <g id="Notes" font-family="'LucidaGrande', 'Lucida Grande', sans-serif" font-size="13">
        <rect fill="white" height="600.0" width="800.0" x="0.0" y="0.0" />
        <g font-size="13">
            <text x="18.0" y="176.0">Small</text>
            <text x="18.0" y="376.0">Medium</text>
            <text x="18.0" y="576.0">Large</text>
        </g>
        <g font-size="9">
            <text x="250.0" y="30.0">Ultralight</text>
            <text x="450.0" y="30.0">Regular</text>
            <text x="650.0" y="30.0">Black</text>
            <text id="template-version" fill="#505050" text-anchor="end" x="785.0" y="575.0">Template v.3.0</text>
            <a href="https://github.com/swhitty/SwiftDraw">
                <text fill="#505050" text-anchor="end" x="785.0" y="590.0">https://github.com/swhitty/SwiftDraw</text>
            </a>
        </g>
    </g>
    <g id="Guides" stroke="rgb(39, 170, 225)" stroke-width="0.5">
        <path id="Capline-S" d="M18,76 l800,0" />
        <path id="H-reference" d="M85,145.755 L87.685,145.755 L113.369,79.287 L114.052,79.287 L114.052,76 L112.148,76 L85,145.755 Z M95.693,121.536 L130.996,121.536 L130.263,119.313 L96.474,119.313 L95.693,121.536 Z M139.15,145.755 L141.787,145.755 L114.638,76 L113.466,76 L113.466,79.287 L139.15,145.755 Z" stroke="none" />
        <path id="Baseline-S" d="M18,146 l800,0" />
        <path id="left-margin-Ultralight-S" d="M220,56 l0,110" />
        <path id="right-margin-Ultralight-S" d="M310,56 l0,110" />
        <path id="left-margin-Regular-S" d="M420,56 l0,110" />
        <path id="right-margin-Regular-S" d="M510,56 l0,110" />
        <path id="left-margin-Black-S" d="M620,56 l0,110" />
        <path id="right-margin-Black-S" d="M710,56 l0,110" />
        <path id="Capline-M" d="M18,276 l800,0" />
        <path id="Baseline-M" d="M18,346 l800,0" />
        <path id="Capline-L" d="M18,476 l800,0" />
        <path id="Baseline-L" d="M18,546 l800,0" />
    </g>
    <g id="Symbols">
        <g id="Ultralight-S">
            <path d="M291.923,78.692 L238.077,78.692 C236.649,78.692 235.279,79.26 234.269,80.269 C233.26,81.279 232.692,82.649 232.692,84.077 L232.692,137.923 C232.692,139.351 233.26,140.721 234.269,141.731 C235.279,142.74 236.649,143.308 238.077,143.308 L291.923,143.308 C293.351,143.308 294.721,142.74 295.731,141.731 C296.74,140.721 297.308,139.351 297.308,137.923 L297.308,84.077 C297.308,82.649 296.74,81.279 295.731,80.269 C294.721,79.26 293.351,78.692 291.923,78.692 Z M291.923,137.923 L238.077,137.923 L238.077,84.077 L291.923,84.077 Z M248.846,111 C248.846,110.286 249.13,109.601 249.635,109.096 C250.14,108.591 250.824,108.308 251.538,108.308 L271.963,108.308 L265.788,102.136 C264.735,101.082 264.736,99.376 265.789,98.325 C266.841,97.273 268.547,97.274 269.598,98.327 L280.367,109.096 C280.873,109.601 281.157,110.286 281.157,111.001 C281.157,111.716 280.873,112.401 280.367,112.906 L269.598,123.675 C268.548,124.727 266.842,124.728 265.79,123.676 C264.737,122.625 264.736,120.919 265.788,119.867 L271.963,113.692 L251.538,113.692 C250.824,113.692 250.14,113.409 249.635,112.904 C249.13,112.399 248.846,111.714 248.846,111 Z" />
        </g>
        <g id="Regular-S">
            <path d="M491.923,78.692 L438.077,78.692 C436.649,78.692 435.279,79.26 434.269,80.269 C433.26,81.279 432.692,82.649 432.692,84.077 L432.692,137.923 C432.692,139.351 433.26,140.721 434.269,141.731 C435.279,142.74 436.649,143.308 438.077,143.308 L491.923,143.308 C493.351,143.308 494.721,142.74 495.731,141.731 C496.74,140.721 497.308,139.351 497.308,137.923 L497.308,84.077 C497.308,82.649 496.74,81.279 495.731,80.269 C494.721,79.26 493.351,78.692 491.923,78.692 Z M491.923,137.923 L438.077,137.923 L438.077,84.077 L491.923,84.077 Z M448.846,111 C448.846,110.286 449.13,109.601 449.635,109.096 C450.14,108.591 450.824,108.308 451.538,108.308 L471.963,108.308 L465.787,102.136 C464.735,101.082 464.736,99.376 465.789,98.325 C466.841,97.273 468.547,97.274 469.598,98.327 L480.367,109.096 C480.873,109.601 481.157,110.286 481.157,111.001 C481.157,111.716 480.873,112.401 480.367,112.906 L469.598,123.675 C468.548,124.727 466.842,124.728 465.79,123.676 C464.737,122.625 464.736,120.919 465.787,119.867 L471.963,113.692 L451.538,113.692 C450.824,113.692 450.14,113.409 449.635,112.904 C449.13,112.399 448.846,111.714 448.846,111 Z" />
        </g>
        <g id="Black-S">
            <path d="M691.923,78.692 L638.077,78.692 C636.649,78.692 635.279,79.26 634.269,80.269 C633.26,81.279 632.692,82.649 632.692,84.077 L632.692,137.923 C632.692,139.351 633.26,140.721 634.269,141.731 C635.279,142.74 636.649,143.308 638.077,143.308 L691.923,143.308 C693.351,143.308 694.721,142.74 695.731,141.731 C696.74,140.721 697.308,139.351 697.308,137.923 L697.308,84.077 C697.308,82.649 696.74,81.279 695.731,80.269 C694.721,79.26 693.351,78.692 691.923,78.692 Z M691.923,137.923 L638.077,137.923 L638.077,84.077 L691.923,84.077 Z M648.846,111 C648.846,110.286 649.13,109.601 649.635,109.096 C650.14,108.591 650.824,108.308 651.538,108.308 L671.963,108.308 L665.788,102.136 C664.735,101.082 664.736,99.376 665.789,98.325 C666.841,97.273 668.547,97.274 669.598,98.327 L680.367,109.096 C680.873,109.601 681.157,110.286 681.157,111.001 C681.157,111.716 680.873,112.401 680.367,112.906 L669.598,123.675 C668.548,124.727 666.842,124.728 665.79,123.676 C664.737,122.625 664.736,120.919 665.788,119.867 L671.963,113.692 L651.538,113.692 C650.824,113.692 650.14,113.409 649.635,112.904 C649.13,112.399 648.846,111.714 648.846,111 Z" />
        </g>
    </g>
</svg>