<?xml version="1.0" encoding="UTF-8"?>
<svg height="600" width="800" xmlns="http://www.w3.org/2000/svg" xmlns:xlink="http://www.w3.org/1999/xlink">
    <g id="Notes" font-family="'LucidaGrande', 'Lucida Grande', sans-serif" font-size="13">
        <rect fill="white" height="600.0" width="800.0" x="0.0" y="0.0" />
        <g font-size="13">
            <text x="18.0" y="176.0">Small</text>
            <text x="18.0" y="376.0">Medium</text>
            <text x="18.0" y="576.0">Large</text>
        </g>
        <g font-size="9">
            <text x="250.0" y="30.0">Ultralight</text>
            <text x="450.0" y="30.0">Regular</text>
            <text x="650.0" y="30.0">Black</text>
            <text id="template-version" fill="#505050" text-anchor="end" x="785.0" y="575.0">Template v.3.0</text>
            <a href="https://github.com/swhitty/SwiftDraw">
                <text fill="#505050" text-anchor="end" x="785.0" y="590.0">https://github.com/swhitty/SwiftDraw</text>
            </a>
        </g>
    </g>
    <g id="Guides" stroke="rgb(39, 170, 225)" stroke-width="0.5">
        <path id="Capline-S" d="M18,76 l800,0" />
        <path id="H-reference" d="M85,145.755 L87.685,145.755 L113.369,79.287 L114.052,79.287 L114.052,76 L112.148,76 L85,145.755 Z M95.693,121.536 L130.996,121.536 L130.263,119.313 L96.474,119.313 L95.693,121.536 Z M139.15,145.755 L141.787,145.755 L114.638,76 L113.466,76 L113.466,79.287 L139.15,145.755 Z" stroke="none" />
        <path id="Baseline-S" d="M18,146 l800,0" />
        <path id="left-margin-Ultralight-S" d="M220,56 l0,110" />
        <path id="right-margin-Ultralight-S" d="M310,56 l0,110" />
        <path id="left-margin-Regular-S" d="M420,56 l0,110" />
        <path id="right-margin-Regular-S" d="M510,56 l0,110" />
        <path id="left-margin-Black-S" d="M620,56 l0,110" />
        <path id="right-margin-Black-S" d="M710,56 l0,110" />
        <path id="Capline-M" d="M18,276 l800,0" />
        <path id="Baseline-M" d="M18,346 l800,0" />
        <path id="Capline-L" d="M18,476 l800,0" />
        <path id="Baseline-L" d="M18,546 l800,0" />
    </g>
    <g id="Symbols">
        <g id="Ultralight-S">
            <path d="M289.231,94.846 C289.945,94.846 290.63,94.562 291.135,94.058 C291.639,93.553 291.923,92.868 291.923,92.154 C291.912,81.751 283.481,73.319 273.078,73.308 L248.846,73.308 C247.418,73.308 246.048,73.875 245.039,74.885 C244.029,75.895 243.462,77.264 243.462,78.692 L243.462,94.846 C243.462,96.988 242.611,99.043 241.096,100.557 C239.581,102.072 237.527,102.923 235.385,102.923 C233.898,102.923 232.692,104.128 232.692,105.615 C232.692,107.102 233.898,108.308 235.385,108.308 C238.955,108.308 242.379,106.889 244.903,104.365 C247.428,101.84 248.846,98.416 248.846,94.846 L259.615,94.846 L259.615,103.132 C259.622,105.586 258.507,107.91 256.586,109.439 L251.202,113.743 C248.002,116.291 246.143,120.162 246.154,124.253 L246.154,143.308 C246.154,144.736 246.721,146.105 247.731,147.115 C248.741,148.125 250.11,148.692 251.538,148.692 L286.538,148.692 C287.967,148.692 289.336,148.125 290.346,147.115 C291.356,146.105 291.923,144.736 291.923,143.308 L291.923,139.091 C291.923,123.584 287.981,108.359 280.468,94.823 Z M248.846,78.692 L273.077,78.692 C279.471,78.701 284.98,83.199 286.269,89.462 L248.846,89.462 Z M286.538,139.091 L286.538,143.308 L251.538,143.308 L251.538,124.253 C251.532,121.798 252.647,119.475 254.567,117.946 L259.952,113.642 C263.152,111.093 265.011,107.222 265,103.132 L265,94.846 L274.262,94.846 C282.299,108.205 286.543,123.501 286.538,139.091 Z" />
        </g>
        <g id="Regular-S">
            <path d="M489.231,94.846 C489.945,94.846 490.63,94.562 491.135,94.058 C491.639,93.553 491.923,92.868 491.923,92.154 C491.912,81.751 483.481,73.319 473.078,73.308 L448.846,73.308 C447.418,73.308 446.048,73.875 445.039,74.885 C444.029,75.895 443.462,77.264 443.462,78.692 L443.462,94.846 C443.462,96.988 442.611,99.043 441.096,100.557 C439.581,102.072 437.527,102.923 435.385,102.923 C433.898,102.923 432.692,104.128 432.692,105.615 C432.692,107.102 433.898,108.308 435.385,108.308 C438.955,108.308 442.379,106.889 444.903,104.365 C447.428,101.84 448.846,98.416 448.846,94.846 L459.615,94.846 L459.615,103.132 C459.622,105.586 458.507,107.91 456.586,109.439 L451.202,113.743 C448.002,116.291 446.143,120.162 446.154,124.253 L446.154,143.308 C446.154,144.736 446.721,146.105 447.731,147.115 C448.741,148.125 450.11,148.692 451.538,148.692 L486.538,148.692 C487.967,148.692 489.336,148.125 490.346,147.115 C491.356,146.105 491.923,144.736 491.923,143.308 L491.923,139.091 C491.923,123.584 487.981,108.359 480.468,94.823 Z M448.846,78.692 L473.077,78.692 C479.471,78.701 484.98,83.199 486.269,89.462 L448.846,89.462 Z M486.538,139.091 L486.538,143.308 L451.538,143.308 L451.538,124.253 C451.532,121.798 452.647,119.475 454.567,117.946 L459.952,113.642 C463.152,111.093 465.011,107.222 465,103.132 L465,94.846 L474.262,94.846 C482.299,108.205 486.543,123.501 486.538,139.091 Z" />
        </g>
        <g id="Black-S">
            <path d="M689.231,94.846 C689.945,94.846 690.63,94.562 691.135,94.058 C691.639,93.553 691.923,92.868 691.923,92.154 C691.912,81.751 683.481,73.319 673.078,73.308 L648.846,73.308 C647.418,73.308 646.048,73.875 645.039,74.885 C644.029,75.895 643.462,77.264 643.462,78.692 L643.462,94.846 C643.462,96.988 642.611,99.043 641.096,100.557 C639.581,102.072 637.527,102.923 635.385,102.923 C633.898,102.923 632.692,104.128 632.692,105.615 C632.692,107.102 633.898,108.308 635.385,108.308 C638.955,108.308 642.379,106.889 644.903,104.365 C647.428,101.84 648.846,98.416 648.846,94.846 L659.615,94.846 L659.615,103.132 C659.622,105.586 658.507,107.91 656.586,109.439 L651.202,113.743 C648.002,116.291 646.143,120.162 646.154,124.253 L646.154,143.308 C646.154,144.736 646.721,146.105 647.731,147.115 C648.741,148.125 650.11,148.692 651.538,148.692 L686.538,148.692 C687.967,148.692 689.336,148.125 690.346,147.115 C691.356,146.105 691.923,144.736 691.923,143.308 L691.923,139.091 C691.923,123.584 687.981,108.359 680.468,94.823 Z M648.846,78.692 L673.077,78.692 C679.471,78.701 684.98,83.199 686.269,89.462 L648.846,89.462 Z M686.538,139.091 L686.538,143.308 L651.538,143.308 L651.538,124.253 C651.532,121.798 652.647,119.475 654.567,117.946 L659.952,113.642 C663.152,111.093 665.011,107.222 665,103.132 L665,94.846 L674.262,94.846 C682.299,108.205 686.543,123.501 686.538,139.091 Z" />
        </g>
    </g>
</svg>