<?xml version="1.0" encoding="UTF-8"?>
<svg height="600" width="800" xmlns="http://www.w3.org/2000/svg" xmlns:xlink="http://www.w3.org/1999/xlink">
    <g id="Notes" font-family="'LucidaGrande', 'Lucida Grande', sans-serif" font-size="13">
        <rect fill="white" height="600.0" width="800.0" x="0.0" y="0.0" />
        <g font-size="13">
            <text x="18.0" y="176.0">Small</text>
            <text x="18.0" y="376.0">Medium</text>
            <text x="18.0" y="576.0">Large</text>
        </g>
        <g font-size="9">
            <text x="250.0" y="30.0">Ultralight</text>
            <text x="450.0" y="30.0">Regular</text>
            <text x="650.0" y="30.0">Black</text>
            <text id="template-version" fill="#505050" text-anchor="end" x="785.0" y="575.0">Template v.3.0</text>
            <a href="https://github.com/swhitty/SwiftDraw">
                <text fill="#505050" text-anchor="end" x="785.0" y="590.0">https://github.com/swhitty/SwiftDraw</text>
            </a>
        </g>
    </g>
    <g id="Guides" stroke="rgb(39, 170, 225)" stroke-width="0.5">
        <path id="Capline-S" d="M18,76 l800,0" />
        <path id="H-reference" d="M85,145.755 L87.685,145.755 L113.369,79.287 L114.052,79.287 L114.052,76 L112.148,76 L85,145.755 Z M95.693,121.536 L130.996,121.536 L130.263,119.313 L96.474,119.313 L95.693,121.536 Z M139.15,145.755 L141.787,145.755 L114.638,76 L113.466,76 L113.466,79.287 L139.15,145.755 Z" stroke="none" />
        <path id="Baseline-S" d="M18,146 l800,0" />
        <path id="left-margin-Ultralight-S" d="M220,56 l0,110" />
        <path id="right-margin-Ultralight-S" d="M310,56 l0,110" />
        <path id="left-margin-Regular-S" d="M420,56 l0,110" />
        <path id="right-margin-Regular-S" d="M510,56 l0,110" />
        <path id="left-margin-Black-S" d="M620,56 l0,110" />
        <path id="right-margin-Black-S" d="M710,56 l0,110" />
        <path id="Capline-M" d="M18,276 l800,0" />
        <path id="Baseline-M" d="M18,346 l800,0" />
        <path id="Capline-L" d="M18,476 l800,0" />
        <path id="Baseline-L" d="M18,546 l800,0" />
    </g>
    <g id="Symbols">
        <g id="Ultralight-S">
            <path d="M289.231,81.385 C287.744,81.385 286.538,82.59 286.538,84.077 C286.538,85.564 287.744,86.769 289.231,86.769 C290.659,86.769 292.028,87.337 293.038,88.346 C294.048,89.356 294.615,90.726 294.615,92.154 L294.615,111 L235.385,111 L235.385,92.154 C235.385,90.726 235.952,89.356 236.962,88.346 C237.972,87.337 239.341,86.769 240.769,86.769 C242.256,86.769 243.462,85.564 243.462,84.077 C243.462,82.59 242.256,81.385 240.769,81.385 C237.913,81.385 235.174,82.519 233.154,84.539 C231.135,86.558 230,89.298 230,92.154 L230,123.115 C230,131.293 236.63,137.923 244.808,137.923 C252.986,137.923 259.615,131.293 259.615,123.115 L259.615,116.385 L270.385,116.385 L270.385,123.115 C270.385,131.293 277.014,137.923 285.192,137.923 C293.37,137.923 300,131.293 300,123.115 L300,92.154 C300,89.298 298.865,86.558 296.846,84.539 C294.826,82.519 292.087,81.385 289.231,81.385 Z M293.481,127.595 L282.268,116.385 L294.615,116.385 L294.615,123.115 C294.618,124.68 294.228,126.22 293.481,127.595 Z M235.385,123.115 L235.385,117.499 L249.287,131.404 C246.367,132.982 242.833,132.907 239.982,131.208 C237.131,129.508 235.385,126.434 235.385,123.115 Z M254.231,123.115 C254.233,124.68 253.843,126.22 253.097,127.595 L241.883,116.385 L254.231,116.385 Z M275.769,123.115 L275.769,117.499 L289.672,131.404 C286.752,132.982 283.217,132.907 280.367,131.208 C277.516,129.508 275.77,126.434 275.769,123.115 Z" />
        </g>
        <g id="Regular-S">
            <path d="M489.231,81.385 C487.744,81.385 486.538,82.59 486.538,84.077 C486.538,85.564 487.744,86.769 489.231,86.769 C490.659,86.769 492.028,87.337 493.038,88.346 C494.048,89.356 494.615,90.726 494.615,92.154 L494.615,111 L435.385,111 L435.385,92.154 C435.385,90.726 435.952,89.356 436.962,88.346 C437.972,87.337 439.341,86.769 440.769,86.769 C442.256,86.769 443.462,85.564 443.462,84.077 C443.462,82.59 442.256,81.385 440.769,81.385 C437.913,81.385 435.174,82.519 433.154,84.539 C431.135,86.558 430,89.298 430,92.154 L430,123.115 C430,131.293 436.63,137.923 444.808,137.923 C452.986,137.923 459.615,131.293 459.615,123.115 L459.615,116.385 L470.385,116.385 L470.385,123.115 C470.385,131.293 477.014,137.923 485.192,137.923 C493.37,137.923 500,131.293 500,123.115 L500,92.154 C500,89.298 498.865,86.558 496.846,84.539 C494.826,82.519 492.087,81.385 489.231,81.385 Z M493.481,127.595 L482.268,116.385 L494.615,116.385 L494.615,123.115 C494.618,124.68 494.228,126.22 493.481,127.595 Z M435.385,123.115 L435.385,117.499 L449.287,131.404 C446.367,132.982 442.833,132.907 439.982,131.208 C437.131,129.508 435.385,126.434 435.385,123.115 Z M454.231,123.115 C454.233,124.68 453.843,126.22 453.097,127.595 L441.883,116.385 L454.231,116.385 Z M475.769,123.115 L475.769,117.499 L489.672,131.404 C486.752,132.982 483.217,132.907 480.367,131.208 C477.516,129.508 475.77,126.434 475.769,123.115 Z" />
        </g>
        <g id="Black-S">
            <path d="M689.231,81.385 C687.744,81.385 686.538,82.59 686.538,84.077 C686.538,85.564 687.744,86.769 689.231,86.769 C690.659,86.769 692.028,87.337 693.038,88.346 C694.048,89.356 694.615,90.726 694.615,92.154 L694.615,111 L635.385,111 L635.385,92.154 C635.385,90.726 635.952,89.356 636.962,88.346 C637.972,87.337 639.341,86.769 640.769,86.769 C642.256,86.769 643.462,85.564 643.462,84.077 C643.462,82.59 642.256,81.385 640.769,81.385 C637.913,81.385 635.174,82.519 633.154,84.539 C631.135,86.558 630,89.298 630,92.154 L630,123.115 C630,131.293 636.63,137.923 644.808,137.923 C652.986,137.923 659.615,131.293 659.615,123.115 L659.615,116.385 L670.385,116.385 L670.385,123.115 C670.385,131.293 677.014,137.923 685.192,137.923 C693.37,137.923 700,131.293 700,123.115 L700,92.154 C700,89.298 698.865,86.558 696.846,84.539 C694.826,82.519 692.087,81.385 689.231,81.385 Z M693.481,127.595 L682.268,116.385 L694.615,116.385 L694.615,123.115 C694.618,124.68 694.228,126.22 693.481,127.595 Z M635.385,123.115 L635.385,117.499 L649.287,131.404 C646.367,132.982 642.833,132.907 639.982,131.208 C637.131,129.508 635.385,126.434 635.385,123.115 Z M654.231,123.115 C654.233,124.68 653.843,126.22 653.097,127.595 L641.883,116.385 L654.231,116.385 Z M675.769,123.115 L675.769,117.499 L689.672,131.404 C686.752,132.982 683.217,132.907 680.367,131.208 C677.516,129.508 675.77,126.434 675.769,123.115 Z" />
        </g>
    </g>
</svg>