<?xml version="1.0" encoding="UTF-8"?>
<svg height="600" width="800" xmlns="http://www.w3.org/2000/svg" xmlns:xlink="http://www.w3.org/1999/xlink">
    <g id="Notes" font-family="'LucidaGrande', 'Lucida Grande', sans-serif" font-size="13">
        <rect fill="white" height="600.0" width="800.0" x="0.0" y="0.0" />
        <g font-size="13">
            <text x="18.0" y="176.0">Small</text>
            <text x="18.0" y="376.0">Medium</text>
            <text x="18.0" y="576.0">Large</text>
        </g>
        <g font-size="9">
            <text x="250.0" y="30.0">Ultralight</text>
            <text x="450.0" y="30.0">Regular</text>
            <text x="650.0" y="30.0">Black</text>
            <text id="template-version" fill="#505050" text-anchor="end" x="785.0" y="575.0">Template v.3.0</text>
            <a href="https://github.com/swhitty/SwiftDraw">
                <text fill="#505050" text-anchor="end" x="785.0" y="590.0">https://github.com/swhitty/SwiftDraw</text>
            </a>
        </g>
    </g>
    <g id="Guides" stroke="rgb(39, 170, 225)" stroke-width="0.5">
        <path id="Capline-S" d="M18,76 l800,0" />
        <path id="H-reference" d="M85,145.755 L87.685,145.755 L113.369,79.287 L114.052,79.287 L114.052,76 L112.148,76 L85,145.755 Z M95.693,121.536 L130.996,121.536 L130.263,119.313 L96.474,119.313 L95.693,121.536 Z M139.15,145.755 L141.787,145.755 L114.638,76 L113.466,76 L113.466,79.287 L139.15,145.755 Z" stroke="none" />
        <path id="Baseline-S" d="M18,146 l800,0" />
        <path id="left-margin-Ultralight-S" d="M220,56 l0,110" />
        <path id="right-margin-Ultralight-S" d="M310,56 l0,110" />
        <path id="left-margin-Regular-S" d="M420,56 l0,110" />
        <path id="right-margin-Regular-S" d="M510,56 l0,110" />
        <path id="left-margin-Black-S" d="M620,56 l0,110" />
        <path id="right-margin-Black-S" d="M710,56 l0,110" />
        <path id="Capline-M" d="M18,276 l800,0" />
        <path id="Baseline-M" d="M18,346 l800,0" />
        <path id="Capline-L" d="M18,476 l800,0" />
        <path id="Baseline-L" d="M18,546 l800,0" />
    </g>
    <g id="Symbols">
        <g id="Ultralight-S">
            <path d="M232.692,89.462 C232.692,88.747 232.976,88.063 233.481,87.558 C233.986,87.053 234.671,86.769 235.385,86.769 L294.615,86.769 C296.102,86.769 297.308,87.975 297.308,89.462 C297.308,90.948 296.102,92.154 294.615,92.154 L235.385,92.154 C234.671,92.154 233.986,91.87 233.481,91.365 C232.976,90.86 232.692,90.176 232.692,89.462 Z M235.385,113.692 L256.923,113.692 C258.41,113.692 259.615,112.487 259.615,111 C259.615,109.513 258.41,108.308 256.923,108.308 L235.385,108.308 C233.898,108.308 232.692,109.513 232.692,111 C232.692,112.487 233.898,113.692 235.385,113.692 Z M262.308,129.846 L235.385,129.846 C233.898,129.846 232.692,131.052 232.692,132.538 C232.692,134.025 233.898,135.231 235.385,135.231 L262.308,135.231 C263.795,135.231 265,134.025 265,132.538 C265,131.052 263.795,129.846 262.308,129.846 Z M305.385,116.385 C305.385,128.675 288.463,137.277 287.743,137.64 C286.985,138.02 286.092,138.02 285.334,137.64 C284.613,137.277 267.692,128.675 267.692,116.385 C267.696,111.907 270.47,107.899 274.658,106.318 C278.847,104.737 283.577,105.912 286.539,109.27 C289.5,105.913 294.23,104.737 298.419,106.319 C302.607,107.9 305.381,111.908 305.385,116.385 Z M300,116.385 C300,113.411 297.589,111 294.615,111 C291.642,111 289.231,113.411 289.231,116.385 C289.231,117.872 288.025,119.077 286.538,119.077 C285.052,119.077 283.846,117.872 283.846,116.385 C283.846,113.411 281.435,111 278.462,111 C275.488,111 273.077,113.411 273.077,116.385 C273.077,123.176 281.898,129.557 286.538,132.178 C291.179,129.56 300,123.179 300,116.385 Z" />
        </g>
        <g id="Regular-S">
            <path d="M432.692,89.462 C432.692,88.747 432.976,88.063 433.481,87.558 C433.986,87.053 434.671,86.769 435.385,86.769 L494.615,86.769 C496.102,86.769 497.308,87.975 497.308,89.462 C497.308,90.948 496.102,92.154 494.615,92.154 L435.385,92.154 C434.671,92.154 433.986,91.87 433.481,91.365 C432.976,90.86 432.692,90.176 432.692,89.462 Z M435.385,113.692 L456.923,113.692 C458.41,113.692 459.615,112.487 459.615,111 C459.615,109.513 458.41,108.308 456.923,108.308 L435.385,108.308 C433.898,108.308 432.692,109.513 432.692,111 C432.692,112.487 433.898,113.692 435.385,113.692 Z M462.308,129.846 L435.385,129.846 C433.898,129.846 432.692,131.052 432.692,132.538 C432.692,134.025 433.898,135.231 435.385,135.231 L462.308,135.231 C463.795,135.231 465,134.025 465,132.538 C465,131.052 463.795,129.846 462.308,129.846 Z M505.385,116.385 C505.385,128.675 488.463,137.277 487.743,137.64 C486.985,138.02 486.092,138.02 485.334,137.64 C484.613,137.277 467.692,128.675 467.692,116.385 C467.696,111.907 470.47,107.899 474.658,106.318 C478.847,104.737 483.577,105.912 486.539,109.27 C489.5,105.913 494.23,104.737 498.419,106.319 C502.607,107.9 505.381,111.908 505.385,116.385 Z M500,116.385 C500,113.411 497.589,111 494.615,111 C491.642,111 489.231,113.411 489.231,116.385 C489.231,117.872 488.025,119.077 486.538,119.077 C485.052,119.077 483.846,117.872 483.846,116.385 C483.846,113.411 481.435,111 478.462,111 C475.488,111 473.077,113.411 473.077,116.385 C473.077,123.176 481.898,129.557 486.538,132.178 C491.179,129.56 500,123.179 500,116.385 Z" />
        </g>
        <g id="Black-S">
            <path d="M632.692,89.462 C632.692,88.747 632.976,88.063 633.481,87.558 C633.986,87.053 634.671,86.769 635.385,86.769 L694.615,86.769 C696.102,86.769 697.308,87.975 697.308,89.462 C697.308,90.948 696.102,92.154 694.615,92.154 L635.385,92.154 C634.671,92.154 633.986,91.87 633.481,91.365 C632.976,90.86 632.692,90.176 632.692,89.462 Z M635.385,113.692 L656.923,113.692 C658.41,113.692 659.615,112.487 659.615,111 C659.615,109.513 658.41,108.308 656.923,108.308 L635.385,108.308 C633.898,108.308 632.692,109.513 632.692,111 C632.692,112.487 633.898,113.692 635.385,113.692 Z M662.308,129.846 L635.385,129.846 C633.898,129.846 632.692,131.052 632.692,132.538 C632.692,134.025 633.898,135.231 635.385,135.231 L662.308,135.231 C663.795,135.231 665,134.025 665,132.538 C665,131.052 663.795,129.846 662.308,129.846 Z M705.385,116.385 C705.385,128.675 688.464,137.277 687.743,137.64 C686.985,138.02 686.092,138.02 685.334,137.64 C684.613,137.277 667.692,128.675 667.692,116.385 C667.696,111.907 670.47,107.899 674.659,106.318 C678.847,104.737 683.577,105.912 686.539,109.27 C689.5,105.913 694.23,104.737 698.419,106.319 C702.607,107.9 705.381,111.908 705.385,116.385 Z M700,116.385 C700,113.411 697.589,111 694.615,111 C691.642,111 689.231,113.411 689.231,116.385 C689.231,117.872 688.025,119.077 686.538,119.077 C685.052,119.077 683.846,117.872 683.846,116.385 C683.846,113.411 681.435,111 678.462,111 C675.488,111 673.077,113.411 673.077,116.385 C673.077,123.176 681.898,129.557 686.538,132.178 C691.179,129.56 700,123.179 700,116.385 Z" />
        </g>
    </g>
</svg>