<?xml version="1.0" encoding="UTF-8"?>
<svg height="600" width="800" xmlns="http://www.w3.org/2000/svg" xmlns:xlink="http://www.w3.org/1999/xlink">
    <g id="Notes" font-family="'LucidaGrande', 'Lucida Grande', sans-serif" font-size="13">
        <rect fill="white" height="600.0" width="800.0" x="0.0" y="0.0" />
        <g font-size="13">
            <text x="18.0" y="176.0">Small</text>
            <text x="18.0" y="376.0">Medium</text>
            <text x="18.0" y="576.0">Large</text>
        </g>
        <g font-size="9">
            <text x="250.0" y="30.0">Ultralight</text>
            <text x="450.0" y="30.0">Regular</text>
            <text x="650.0" y="30.0">Black</text>
            <text id="template-version" fill="#505050" text-anchor="end" x="785.0" y="575.0">Template v.3.0</text>
            <a href="https://github.com/swhitty/SwiftDraw">
                <text fill="#505050" text-anchor="end" x="785.0" y="590.0">https://github.com/swhitty/SwiftDraw</text>
            </a>
        </g>
    </g>
    <g id="Guides" stroke="rgb(39, 170, 225)" stroke-width="0.5">
        <path id="Capline-S" d="M18,76 l800,0" />
        <path id="H-reference" d="M85,145.755 L87.685,145.755 L113.369,79.287 L114.052,79.287 L114.052,76 L112.148,76 L85,145.755 Z M95.693,121.536 L130.996,121.536 L130.263,119.313 L96.474,119.313 L95.693,121.536 Z M139.15,145.755 L141.787,145.755 L114.638,76 L113.466,76 L113.466,79.287 L139.15,145.755 Z" stroke="none" />
        <path id="Baseline-S" d="M18,146 l800,0" />
        <path id="left-margin-Ultralight-S" d="M220,56 l0,110" />
        <path id="right-margin-Ultralight-S" d="M310,56 l0,110" />
        <path id="left-margin-Regular-S" d="M420,56 l0,110" />
        <path id="right-margin-Regular-S" d="M510,56 l0,110" />
        <path id="left-margin-Black-S" d="M620,56 l0,110" />
        <path id="right-margin-Black-S" d="M710,56 l0,110" />
        <path id="Capline-M" d="M18,276 l800,0" />
        <path id="Baseline-M" d="M18,346 l800,0" />
        <path id="Capline-L" d="M18,476 l800,0" />
        <path id="Baseline-L" d="M18,546 l800,0" />
    </g>
    <g id="Symbols">
        <g id="Ultralight-S">
            <path d="M305.385,105.615 L295.988,105.615 L280.003,83.602 C279.021,82.255 277.47,81.438 275.803,81.39 C274.137,81.343 272.542,82.07 271.485,83.36 L267.161,88.375 L267.093,88.452 C266.586,89.09 265.815,89.461 265,89.461 C264.185,89.461 263.414,89.09 262.907,88.452 L262.839,88.375 L258.515,83.36 C257.458,82.07 255.863,81.343 254.197,81.39 C252.53,81.438 250.979,82.255 249.997,83.602 L234.012,105.615 L224.615,105.615 C223.128,105.615 221.923,106.821 221.923,108.308 C221.923,109.795 223.128,111 224.615,111 L305.385,111 C306.872,111 308.077,109.795 308.077,108.308 C308.077,106.821 306.872,105.615 305.385,105.615 Z M254.345,86.769 L254.409,86.847 L258.734,91.858 C260.267,93.744 262.569,94.839 265,94.839 C267.431,94.839 269.733,93.744 271.266,91.858 L275.591,86.847 C275.611,86.82 275.625,86.796 275.648,86.769 L289.332,105.615 L240.665,105.615 Z M282.5,116.385 C276.331,116.386 271.147,121.023 270.462,127.154 L259.538,127.154 C258.851,121.029 253.675,116.396 247.511,116.389 C241.348,116.382 236.162,121.004 235.461,127.128 C234.761,133.251 238.77,138.925 244.775,140.31 C250.781,141.695 256.87,138.35 258.922,132.538 L271.078,132.538 C273.132,138.347 279.218,141.69 285.222,140.306 C291.226,138.922 295.235,133.252 294.538,127.13 C293.841,121.008 288.661,116.384 282.5,116.385 Z M247.5,135.231 C243.783,135.231 240.769,132.217 240.769,128.5 C240.769,124.783 243.783,121.769 247.5,121.769 C251.217,121.769 254.231,124.783 254.231,128.5 C254.231,130.285 253.522,131.997 252.259,133.259 C250.997,134.522 249.285,135.231 247.5,135.231 Z M282.5,135.231 C278.783,135.231 275.769,132.217 275.769,128.5 C275.769,124.783 278.783,121.769 282.5,121.769 C286.217,121.769 289.231,124.783 289.231,128.5 C289.231,130.285 288.522,131.997 287.259,133.259 C285.997,134.522 284.285,135.231 282.5,135.231 Z" />
        </g>
        <g id="Regular-S">
            <path d="M505.385,105.615 L495.988,105.615 L480.003,83.602 C479.021,82.255 477.47,81.438 475.803,81.39 C474.137,81.343 472.542,82.07 471.485,83.36 L467.161,88.375 L467.093,88.452 C466.586,89.09 465.815,89.461 465,89.461 C464.185,89.461 463.414,89.09 462.907,88.452 L462.839,88.375 L458.515,83.36 C457.458,82.07 455.863,81.343 454.197,81.39 C452.53,81.438 450.979,82.255 449.997,83.602 L434.012,105.615 L424.615,105.615 C423.128,105.615 421.923,106.821 421.923,108.308 C421.923,109.795 423.128,111 424.615,111 L505.385,111 C506.872,111 508.077,109.795 508.077,108.308 C508.077,106.821 506.872,105.615 505.385,105.615 Z M454.345,86.769 L454.409,86.847 L458.734,91.858 C460.267,93.744 462.569,94.839 465,94.839 C467.431,94.839 469.733,93.744 471.266,91.858 L475.591,86.847 C475.611,86.82 475.625,86.796 475.648,86.769 L489.332,105.615 L440.665,105.615 Z M482.5,116.385 C476.331,116.386 471.147,121.023 470.462,127.154 L459.538,127.154 C458.851,121.029 453.675,116.396 447.511,116.389 C441.348,116.382 436.162,121.004 435.461,127.128 C434.761,133.251 438.77,138.925 444.775,140.31 C450.781,141.695 456.87,138.35 458.922,132.538 L471.078,132.538 C473.132,138.347 479.218,141.69 485.222,140.306 C491.226,138.922 495.235,133.252 494.538,127.13 C493.841,121.008 488.661,116.384 482.5,116.385 Z M447.5,135.231 C443.783,135.231 440.769,132.217 440.769,128.5 C440.769,124.783 443.783,121.769 447.5,121.769 C451.217,121.769 454.231,124.783 454.231,128.5 C454.231,130.285 453.522,131.997 452.259,133.259 C450.997,134.522 449.285,135.231 447.5,135.231 Z M482.5,135.231 C478.783,135.231 475.769,132.217 475.769,128.5 C475.769,124.783 478.783,121.769 482.5,121.769 C486.217,121.769 489.231,124.783 489.231,128.5 C489.231,130.285 488.522,131.997 487.259,133.259 C485.997,134.522 484.285,135.231 482.5,135.231 Z" />
        </g>
        <g id="Black-S">
            <path d="M705.385,105.615 L695.988,105.615 L680.003,83.602 C679.021,82.255 677.47,81.438 675.803,81.39 C674.137,81.343 672.542,82.07 671.485,83.36 L667.161,88.375 L667.093,88.452 C666.586,89.09 665.815,89.461 665,89.461 C664.185,89.461 663.414,89.09 662.907,88.452 L662.839,88.375 L658.515,83.36 C657.458,82.07 655.863,81.343 654.197,81.39 C652.53,81.438 650.979,82.255 649.997,83.602 L634.012,105.615 L624.615,105.615 C623.128,105.615 621.923,106.821 621.923,108.308 C621.923,109.795 623.128,111 624.615,111 L705.385,111 C706.872,111 708.077,109.795 708.077,108.308 C708.077,106.821 706.872,105.615 705.385,105.615 Z M654.345,86.769 L654.409,86.847 L658.734,91.858 C660.267,93.744 662.569,94.839 665,94.839 C667.431,94.839 669.733,93.744 671.266,91.858 L675.591,86.847 C675.611,86.82 675.625,86.796 675.648,86.769 L689.332,105.615 L640.665,105.615 Z M682.5,116.385 C676.331,116.386 671.148,121.023 670.462,127.154 L659.538,127.154 C658.851,121.029 653.675,116.396 647.511,116.389 C641.348,116.382 636.162,121.004 635.461,127.128 C634.761,133.251 638.77,138.925 644.775,140.31 C650.781,141.695 656.87,138.35 658.922,132.538 L671.078,132.538 C673.132,138.347 679.218,141.69 685.222,140.306 C691.226,138.922 695.235,133.252 694.538,127.13 C693.842,121.008 688.661,116.384 682.5,116.385 Z M647.5,135.231 C643.783,135.231 640.769,132.217 640.769,128.5 C640.769,124.783 643.783,121.769 647.5,121.769 C651.217,121.769 654.231,124.783 654.231,128.5 C654.231,130.285 653.522,131.997 652.259,133.259 C650.997,134.522 649.285,135.231 647.5,135.231 Z M682.5,135.231 C678.783,135.231 675.769,132.217 675.769,128.5 C675.769,124.783 678.783,121.769 682.5,121.769 C686.217,121.769 689.231,124.783 689.231,128.5 C689.231,130.285 688.522,131.997 687.259,133.259 C685.997,134.522 684.285,135.231 682.5,135.231 Z" />
        </g>
    </g>
</svg>