<?xml version="1.0" encoding="UTF-8"?>
<svg height="600" width="800" xmlns="http://www.w3.org/2000/svg" xmlns:xlink="http://www.w3.org/1999/xlink">
    <g id="Notes" font-family="'LucidaGrande', 'Lucida Grande', sans-serif" font-size="13">
        <rect fill="white" height="600.0" width="800.0" x="0.0" y="0.0" />
        <g font-size="13">
            <text x="18.0" y="176.0">Small</text>
            <text x="18.0" y="376.0">Medium</text>
            <text x="18.0" y="576.0">Large</text>
        </g>
        <g font-size="9">
            <text x="250.0" y="30.0">Ultralight</text>
            <text x="450.0" y="30.0">Regular</text>
            <text x="650.0" y="30.0">Black</text>
            <text id="template-version" fill="#505050" text-anchor="end" x="785.0" y="575.0">Template v.3.0</text>
            <a href="https://github.com/swhitty/SwiftDraw">
                <text fill="#505050" text-anchor="end" x="785.0" y="590.0">https://github.com/swhitty/SwiftDraw</text>
            </a>
        </g>
    </g>
    <g id="Guides" stroke="rgb(39, 170, 225)" stroke-width="0.5">
        <path id="Capline-S" d="M18,76 l800,0" />
        <path id="H-reference" d="M85,145.755 L87.685,145.755 L113.369,79.287 L114.052,79.287 L114.052,76 L112.148,76 L85,145.755 Z M95.693,121.536 L130.996,121.536 L130.263,119.313 L96.474,119.313 L95.693,121.536 Z M139.15,145.755 L141.787,145.755 L114.638,76 L113.466,76 L113.466,79.287 L139.15,145.755 Z" stroke="none" />
        <path id="Baseline-S" d="M18,146 l800,0" />
        <path id="left-margin-Ultralight-S" d="M220,56 l0,110" />
        <path id="right-margin-Ultralight-S" d="M310,56 l0,110" />
        <path id="left-margin-Regular-S" d="M420,56 l0,110" />
        <path id="right-margin-Regular-S" d="M510,56 l0,110" />
        <path id="left-margin-Black-S" d="M620,56 l0,110" />
        <path id="right-margin-Black-S" d="M710,56 l0,110" />
        <path id="Capline-M" d="M18,276 l800,0" />
        <path id="Baseline-M" d="M18,346 l800,0" />
        <path id="Capline-L" d="M18,476 l800,0" />
        <path id="Baseline-L" d="M18,546 l800,0" />
    </g>
    <g id="Symbols">
        <g id="Ultralight-S">
            <path d="M278.462,86.769 C278.462,86.055 278.745,85.37 279.25,84.865 C279.755,84.361 280.44,84.077 281.154,84.077 L286.538,84.077 L286.538,78.692 C286.538,77.205 287.744,76 289.231,76 C290.718,76 291.923,77.205 291.923,78.692 L291.923,84.077 L297.308,84.077 C298.795,84.077 300,85.282 300,86.769 C300,88.256 298.795,89.462 297.308,89.462 L291.923,89.462 L291.923,94.846 C291.923,96.333 290.718,97.538 289.231,97.538 C287.744,97.538 286.538,96.333 286.538,94.846 L286.538,89.462 L281.154,89.462 C280.44,89.462 279.755,89.178 279.25,88.673 C278.745,88.168 278.462,87.483 278.462,86.769 Z M299.515,105.171 C302.039,120.173 294.575,135.086 281.054,142.058 C267.532,149.029 251.054,146.46 240.297,135.703 C229.54,124.946 226.971,108.468 233.942,94.946 C240.914,81.425 255.827,73.961 270.829,76.485 C272.283,76.742 273.259,78.123 273.015,79.58 C272.772,81.037 271.4,82.025 269.94,81.795 C261.345,80.349 252.549,82.76 245.892,88.386 C239.235,94.013 235.392,102.284 235.385,111 C235.378,118.249 238.042,125.247 242.869,130.656 C245.872,126.305 250.094,122.939 255.005,120.982 C249.598,116.723 247.483,109.506 249.737,103.002 C251.99,96.499 258.117,92.138 265,92.138 C271.883,92.138 278.01,96.499 280.263,103.002 C282.517,109.506 280.402,116.723 274.995,120.982 C279.906,122.94 284.128,126.306 287.131,130.657 C291.957,125.248 294.622,118.25 294.615,111 C294.615,109.342 294.478,107.69 294.204,106.057 C294.036,105.104 294.392,104.134 295.137,103.516 C295.882,102.898 296.901,102.728 297.806,103.07 C298.712,103.411 299.364,104.213 299.515,105.169 Z M265,119.077 C270.948,119.077 275.769,114.255 275.769,108.308 C275.769,102.36 270.948,97.538 265,97.538 C259.052,97.538 254.231,102.36 254.231,108.308 C254.231,111.164 255.365,113.903 257.385,115.923 C259.405,117.942 262.144,119.077 265,119.077 Z M265,140.615 C271.574,140.622 277.961,138.431 283.146,134.389 C279.188,128.199 272.348,124.454 265,124.454 C257.653,124.454 250.812,128.199 246.854,134.389 C252.039,138.431 258.426,140.622 265,140.615 Z" />
        </g>
        <g id="Regular-S">
            <path d="M478.462,86.769 C478.462,86.055 478.745,85.37 479.25,84.865 C479.755,84.361 480.44,84.077 481.154,84.077 L486.538,84.077 L486.538,78.692 C486.538,77.205 487.744,76 489.231,76 C490.718,76 491.923,77.205 491.923,78.692 L491.923,84.077 L497.308,84.077 C498.795,84.077 500,85.282 500,86.769 C500,88.256 498.795,89.462 497.308,89.462 L491.923,89.462 L491.923,94.846 C491.923,96.333 490.718,97.538 489.231,97.538 C487.744,97.538 486.538,96.333 486.538,94.846 L486.538,89.462 L481.154,89.462 C480.44,89.462 479.755,89.178 479.25,88.673 C478.745,88.168 478.462,87.483 478.462,86.769 Z M499.515,105.171 C502.039,120.173 494.575,135.086 481.054,142.058 C467.532,149.029 451.054,146.46 440.297,135.703 C429.54,124.946 426.971,108.468 433.942,94.946 C440.914,81.425 455.827,73.961 470.829,76.485 C472.283,76.742 473.259,78.123 473.015,79.58 C472.772,81.037 471.4,82.025 469.94,81.795 C461.345,80.349 452.549,82.76 445.892,88.386 C439.235,94.013 435.392,102.284 435.385,111 C435.378,118.249 438.042,125.247 442.869,130.656 C445.872,126.305 450.094,122.939 455.005,120.982 C449.598,116.723 447.483,109.506 449.737,103.002 C451.99,96.499 458.117,92.138 465,92.138 C471.883,92.138 478.01,96.499 480.263,103.002 C482.517,109.506 480.402,116.723 474.995,120.982 C479.906,122.94 484.128,126.306 487.131,130.657 C491.957,125.248 494.622,118.25 494.615,111 C494.615,109.342 494.478,107.69 494.204,106.057 C494.036,105.104 494.392,104.134 495.137,103.516 C495.882,102.898 496.901,102.728 497.806,103.07 C498.712,103.411 499.364,104.213 499.515,105.169 Z M465,119.077 C470.948,119.077 475.769,114.255 475.769,108.308 C475.769,102.36 470.948,97.538 465,97.538 C459.052,97.538 454.231,102.36 454.231,108.308 C454.231,111.164 455.365,113.903 457.385,115.923 C459.405,117.942 462.144,119.077 465,119.077 Z M465,140.615 C471.574,140.622 477.961,138.431 483.146,134.389 C479.188,128.199 472.347,124.454 465,124.454 C457.652,124.454 450.812,128.199 446.854,134.389 C452.039,138.431 458.426,140.622 465,140.615 Z" />
        </g>
        <g id="Black-S">
            <path d="M678.462,86.769 C678.462,86.055 678.745,85.37 679.25,84.865 C679.755,84.361 680.44,84.077 681.154,84.077 L686.538,84.077 L686.538,78.692 C686.538,77.205 687.744,76 689.231,76 C690.718,76 691.923,77.205 691.923,78.692 L691.923,84.077 L697.308,84.077 C698.795,84.077 700,85.282 700,86.769 C700,88.256 698.795,89.462 697.308,89.462 L691.923,89.462 L691.923,94.846 C691.923,96.333 690.718,97.538 689.231,97.538 C687.744,97.538 686.538,96.333 686.538,94.846 L686.538,89.462 L681.154,89.462 C680.44,89.462 679.755,89.178 679.25,88.673 C678.745,88.168 678.462,87.483 678.462,86.769 Z M699.515,105.171 C702.039,120.173 694.575,135.086 681.054,142.058 C667.532,149.029 651.055,146.46 640.297,135.703 C629.54,124.946 626.971,108.468 633.942,94.946 C640.914,81.425 655.827,73.961 670.829,76.485 C672.283,76.742 673.259,78.123 673.015,79.58 C672.772,81.037 671.4,82.025 669.94,81.795 C661.345,80.349 652.549,82.76 645.892,88.386 C639.235,94.013 635.392,102.284 635.385,111 C635.378,118.249 638.042,125.247 642.869,130.656 C645.872,126.305 650.094,122.939 655.005,120.982 C649.598,116.723 647.483,109.506 649.737,103.002 C651.99,96.499 658.117,92.138 665,92.138 C671.883,92.138 678.01,96.499 680.263,103.002 C682.517,109.506 680.402,116.723 674.995,120.982 C679.906,122.94 684.128,126.306 687.131,130.657 C691.957,125.248 694.622,118.25 694.615,111 C694.615,109.342 694.478,107.69 694.204,106.057 C694.036,105.104 694.392,104.134 695.137,103.516 C695.882,102.898 696.901,102.728 697.806,103.07 C698.712,103.411 699.364,104.213 699.515,105.169 Z M665,119.077 C670.948,119.077 675.769,114.255 675.769,108.308 C675.769,102.36 670.948,97.538 665,97.538 C659.052,97.538 654.231,102.36 654.231,108.308 C654.231,111.164 655.365,113.903 657.385,115.923 C659.405,117.942 662.144,119.077 665,119.077 Z M665,140.615 C671.574,140.622 677.961,138.431 683.146,134.389 C679.188,128.199 672.348,124.454 665,124.454 C657.653,124.454 650.812,128.199 646.854,134.389 C652.039,138.431 658.426,140.622 665,140.615 Z" />
        </g>
    </g>
</svg>