<?xml version="1.0" encoding="UTF-8"?>
<svg height="600" width="800" xmlns="http://www.w3.org/2000/svg" xmlns:xlink="http://www.w3.org/1999/xlink">
    <g id="Notes" font-family="'LucidaGrande', 'Lucida Grande', sans-serif" font-size="13">
        <rect fill="white" height="600.0" width="800.0" x="0.0" y="0.0" />
        <g font-size="13">
            <text x="18.0" y="176.0">Small</text>
            <text x="18.0" y="376.0">Medium</text>
            <text x="18.0" y="576.0">Large</text>
        </g>
        <g font-size="9">
            <text x="250.0" y="30.0">Ultralight</text>
            <text x="450.0" y="30.0">Regular</text>
            <text x="650.0" y="30.0">Black</text>
            <text id="template-version" fill="#505050" text-anchor="end" x="785.0" y="575.0">Template v.3.0</text>
            <a href="https://github.com/swhitty/SwiftDraw">
                <text fill="#505050" text-anchor="end" x="785.0" y="590.0">https://github.com/swhitty/SwiftDraw</text>
            </a>
        </g>
    </g>
    <g id="Guides" stroke="rgb(39, 170, 225)" stroke-width="0.5">
        <path id="Capline-S" d="M18,76 l800,0" />
        <path id="H-reference" d="M85,145.755 L87.685,145.755 L113.369,79.287 L114.052,79.287 L114.052,76 L112.148,76 L85,145.755 Z M95.693,121.536 L130.996,121.536 L130.263,119.313 L96.474,119.313 L95.693,121.536 Z M139.15,145.755 L141.787,145.755 L114.638,76 L113.466,76 L113.466,79.287 L139.15,145.755 Z" stroke="none" />
        <path id="Baseline-S" d="M18,146 l800,0" />
        <path id="left-margin-Ultralight-S" d="M220,56 l0,110" />
        <path id="right-margin-Ultralight-S" d="M310,56 l0,110" />
        <path id="left-margin-Regular-S" d="M420,56 l0,110" />
        <path id="right-margin-Regular-S" d="M510,56 l0,110" />
        <path id="left-margin-Black-S" d="M620,56 l0,110" />
        <path id="right-margin-Black-S" d="M710,56 l0,110" />
        <path id="Capline-M" d="M18,276 l800,0" />
        <path id="Baseline-M" d="M18,346 l800,0" />
        <path id="Capline-L" d="M18,476 l800,0" />
        <path id="Baseline-L" d="M18,546 l800,0" />
    </g>
    <g id="Symbols">
        <g id="Ultralight-S">
            <path d="M297.308,111 C297.308,111.714 297.024,112.399 296.519,112.904 C296.014,113.409 295.329,113.692 294.615,113.692 L235.385,113.692 C233.898,113.692 232.692,112.487 232.692,111 C232.692,109.513 233.898,108.308 235.385,108.308 L294.615,108.308 C295.329,108.308 296.014,108.591 296.519,109.096 C297.024,109.601 297.308,110.286 297.308,111 Z M256.136,85.982 L262.308,79.806 L262.308,100.231 C262.308,101.718 263.513,102.923 265,102.923 C266.487,102.923 267.692,101.718 267.692,100.231 L267.692,79.806 L273.864,85.982 C274.915,87.033 276.62,87.034 277.673,85.983 C278.726,84.931 278.727,83.226 277.675,82.173 L266.906,71.404 C266.401,70.898 265.716,70.614 265.001,70.614 C264.286,70.614 263.601,70.898 263.096,71.404 L252.327,82.173 C251.275,83.227 251.275,84.932 252.328,85.984 C253.381,87.035 255.086,87.034 256.138,85.982 Z M273.864,136.018 L267.692,142.194 L267.692,121.769 C267.692,120.282 266.487,119.077 265,119.077 C263.513,119.077 262.308,120.282 262.308,121.769 L262.308,142.194 L256.136,136.018 C255.085,134.967 253.38,134.966 252.327,136.017 C251.274,137.069 251.273,138.774 252.325,139.827 L263.094,150.596 C263.599,151.102 264.284,151.386 264.999,151.386 C265.714,151.386 266.399,151.102 266.904,150.596 L277.673,139.827 C278.725,138.773 278.725,137.068 277.672,136.016 C276.619,134.965 274.914,134.966 273.862,136.018 Z" />
        </g>
        <g id="Regular-S">
            <path d="M497.308,111 C497.308,111.714 497.024,112.399 496.519,112.904 C496.014,113.409 495.329,113.692 494.615,113.692 L435.385,113.692 C433.898,113.692 432.692,112.487 432.692,111 C432.692,109.513 433.898,108.308 435.385,108.308 L494.615,108.308 C495.329,108.308 496.014,108.591 496.519,109.096 C497.024,109.601 497.308,110.286 497.308,111 Z M456.136,85.982 L462.308,79.806 L462.308,100.231 C462.308,101.718 463.513,102.923 465,102.923 C466.487,102.923 467.692,101.718 467.692,100.231 L467.692,79.806 L473.864,85.982 C474.915,87.033 476.62,87.034 477.673,85.983 C478.726,84.931 478.727,83.226 477.675,82.173 L466.906,71.404 C466.401,70.898 465.716,70.614 465.001,70.614 C464.286,70.614 463.601,70.898 463.096,71.404 L452.327,82.173 C451.275,83.227 451.275,84.932 452.328,85.984 C453.381,87.035 455.086,87.034 456.138,85.982 Z M473.864,136.018 L467.692,142.194 L467.692,121.769 C467.692,120.282 466.487,119.077 465,119.077 C463.513,119.077 462.308,120.282 462.308,121.769 L462.308,142.194 L456.136,136.018 C455.085,134.967 453.38,134.966 452.327,136.017 C451.274,137.069 451.273,138.774 452.325,139.827 L463.094,150.596 C463.599,151.102 464.284,151.386 464.999,151.386 C465.714,151.386 466.399,151.102 466.904,150.596 L477.673,139.827 C478.725,138.773 478.724,137.068 477.672,136.016 C476.619,134.965 474.914,134.966 473.862,136.018 Z" />
        </g>
        <g id="Black-S">
            <path d="M697.308,111 C697.308,111.714 697.024,112.399 696.519,112.904 C696.014,113.409 695.329,113.692 694.615,113.692 L635.385,113.692 C633.898,113.692 632.692,112.487 632.692,111 C632.692,109.513 633.898,108.308 635.385,108.308 L694.615,108.308 C695.329,108.308 696.014,108.591 696.519,109.096 C697.024,109.601 697.308,110.286 697.308,111 Z M656.136,85.982 L662.308,79.806 L662.308,100.231 C662.308,101.718 663.513,102.923 665,102.923 C666.487,102.923 667.692,101.718 667.692,100.231 L667.692,79.806 L673.864,85.982 C674.915,87.033 676.62,87.034 677.673,85.983 C678.726,84.931 678.727,83.226 677.675,82.173 L666.906,71.404 C666.401,70.898 665.716,70.614 665.001,70.614 C664.286,70.614 663.601,70.898 663.096,71.404 L652.327,82.173 C651.275,83.227 651.276,84.932 652.328,85.984 C653.381,87.035 655.086,87.034 656.138,85.982 Z M673.864,136.018 L667.692,142.194 L667.692,121.769 C667.692,120.282 666.487,119.077 665,119.077 C663.513,119.077 662.308,120.282 662.308,121.769 L662.308,142.194 L656.136,136.018 C655.085,134.967 653.38,134.966 652.327,136.017 C651.274,137.069 651.273,138.774 652.325,139.827 L663.094,150.596 C663.599,151.102 664.284,151.386 664.999,151.386 C665.714,151.386 666.399,151.102 666.904,150.596 L677.673,139.827 C678.725,138.773 678.725,137.068 677.672,136.016 C676.619,134.965 674.914,134.966 673.862,136.018 Z" />
        </g>
    </g>
</svg>