<?xml version="1.0" encoding="UTF-8"?>
<svg height="600" width="800" xmlns="http://www.w3.org/2000/svg" xmlns:xlink="http://www.w3.org/1999/xlink">
    <g id="Notes" font-family="'LucidaGrande', 'Lucida Grande', sans-serif" font-size="13">
        <rect fill="white" height="600.0" width="800.0" x="0.0" y="0.0" />
        <g font-size="13">
            <text x="18.0" y="176.0">Small</text>
            <text x="18.0" y="376.0">Medium</text>
            <text x="18.0" y="576.0">Large</text>
        </g>
        <g font-size="9">
            <text x="250.0" y="30.0">Ultralight</text>
            <text x="450.0" y="30.0">Regular</text>
            <text x="650.0" y="30.0">Black</text>
            <text id="template-version" fill="#505050" text-anchor="end" x="785.0" y="575.0">Template v.3.0</text>
            <a href="https://github.com/swhitty/SwiftDraw">
                <text fill="#505050" text-anchor="end" x="785.0" y="590.0">https://github.com/swhitty/SwiftDraw</text>
            </a>
        </g>
    </g>
    <g id="Guides" stroke="rgb(39, 170, 225)" stroke-width="0.5">
        <path id="Capline-S" d="M18,76 l800,0" />
        <path id="H-reference" d="M85,145.755 L87.685,145.755 L113.369,79.287 L114.052,79.287 L114.052,76 L112.148,76 L85,145.755 Z M95.693,121.536 L130.996,121.536 L130.263,119.313 L96.474,119.313 L95.693,121.536 Z M139.15,145.755 L141.787,145.755 L114.638,76 L113.466,76 L113.466,79.287 L139.15,145.755 Z" stroke="none" />
        <path id="Baseline-S" d="M18,146 l800,0" />
        <path id="left-margin-Ultralight-S" d="M220,56 l0,110" />
        <path id="right-margin-Ultralight-S" d="M310,56 l0,110" />
        <path id="left-margin-Regular-S" d="M420,56 l0,110" />
        <path id="right-margin-Regular-S" d="M510,56 l0,110" />
        <path id="left-margin-Black-S" d="M620,56 l0,110" />
        <path id="right-margin-Black-S" d="M710,56 l0,110" />
        <path id="Capline-M" d="M18,276 l800,0" />
        <path id="Baseline-M" d="M18,346 l800,0" />
        <path id="Capline-L" d="M18,476 l800,0" />
        <path id="Baseline-L" d="M18,546 l800,0" />
    </g>
    <g id="Symbols">
        <g id="Ultralight-S">
            <path d="M281.154,97.538 C283.716,97.516 286.23,98.228 288.4,99.591 C289.642,100.387 291.22,100.441 292.515,99.733 C293.809,99.026 294.615,97.668 294.615,96.192 L294.615,84.077 C294.615,82.649 294.048,81.279 293.038,80.269 C292.028,79.26 290.659,78.692 289.231,78.692 L240.769,78.692 C239.341,78.692 237.972,79.26 236.962,80.269 C235.952,81.279 235.385,82.649 235.385,84.077 L235.385,137.923 C235.385,139.351 235.952,140.721 236.962,141.731 C237.972,142.74 239.341,143.308 240.769,143.308 L289.231,143.308 C290.659,143.308 292.028,142.74 293.038,141.731 C294.048,140.721 294.615,139.351 294.615,137.923 L294.615,125.808 C294.614,124.335 293.81,122.98 292.519,122.272 C291.227,121.564 289.653,121.615 288.41,122.405 C285.97,123.97 283.897,124.562 281.262,124.461 L281.154,124.461 C273.719,124.461 267.692,118.435 267.692,111 C267.692,103.565 273.719,97.538 281.154,97.538 Z M262.308,111 C262.321,121.382 270.718,129.804 281.1,129.846 C283.913,129.986 286.715,129.393 289.231,128.126 L289.231,137.923 L240.769,137.923 L240.769,84.077 L289.231,84.077 L289.231,93.914 C283.38,91.198 276.549,91.646 271.102,95.103 C265.656,98.559 262.342,104.549 262.308,111 Z" />
        </g>
        <g id="Regular-S">
            <path d="M481.154,97.538 C483.716,97.516 486.23,98.228 488.4,99.591 C489.642,100.387 491.22,100.441 492.514,99.733 C493.809,99.026 494.615,97.668 494.615,96.192 L494.615,84.077 C494.615,82.649 494.048,81.279 493.038,80.269 C492.028,79.26 490.659,78.692 489.231,78.692 L440.769,78.692 C439.341,78.692 437.972,79.26 436.962,80.269 C435.952,81.279 435.385,82.649 435.385,84.077 L435.385,137.923 C435.385,139.351 435.952,140.721 436.962,141.731 C437.972,142.74 439.341,143.308 440.769,143.308 L489.231,143.308 C490.659,143.308 492.028,142.74 493.038,141.731 C494.048,140.721 494.615,139.351 494.615,137.923 L494.615,125.808 C494.614,124.335 493.81,122.98 492.519,122.272 C491.227,121.564 489.653,121.615 488.41,122.405 C485.97,123.97 483.897,124.562 481.262,124.461 L481.154,124.461 C473.719,124.461 467.692,118.435 467.692,111 C467.692,103.565 473.719,97.538 481.154,97.538 Z M462.308,111 C462.321,121.382 470.718,129.804 481.1,129.846 C483.913,129.986 486.715,129.393 489.231,128.126 L489.231,137.923 L440.769,137.923 L440.769,84.077 L489.231,84.077 L489.231,93.914 C483.379,91.198 476.549,91.646 471.102,95.103 C465.656,98.559 462.342,104.549 462.308,111 Z" />
        </g>
        <g id="Black-S">
            <path d="M681.154,97.538 C683.716,97.516 686.23,98.228 688.4,99.591 C689.642,100.387 691.22,100.441 692.515,99.733 C693.809,99.026 694.615,97.668 694.615,96.192 L694.615,84.077 C694.615,82.649 694.048,81.279 693.038,80.269 C692.028,79.26 690.659,78.692 689.231,78.692 L640.769,78.692 C639.341,78.692 637.972,79.26 636.962,80.269 C635.952,81.279 635.385,82.649 635.385,84.077 L635.385,137.923 C635.385,139.351 635.952,140.721 636.962,141.731 C637.972,142.74 639.341,143.308 640.769,143.308 L689.231,143.308 C690.659,143.308 692.028,142.74 693.038,141.731 C694.048,140.721 694.615,139.351 694.615,137.923 L694.615,125.808 C694.614,124.335 693.81,122.98 692.519,122.272 C691.227,121.564 689.653,121.615 688.41,122.405 C685.97,123.97 683.897,124.562 681.262,124.461 L681.154,124.461 C673.719,124.461 667.692,118.435 667.692,111 C667.692,103.565 673.719,97.538 681.154,97.538 Z M662.308,111 C662.321,121.382 670.718,129.804 681.1,129.846 C683.914,129.986 686.715,129.393 689.231,128.126 L689.231,137.923 L640.769,137.923 L640.769,84.077 L689.231,84.077 L689.231,93.914 C683.38,91.198 676.549,91.646 671.102,95.103 C665.656,98.559 662.342,104.549 662.308,111 Z" />
        </g>
    </g>
</svg>