<?xml version="1.0" encoding="UTF-8"?>
<svg height="600" width="800" xmlns="http://www.w3.org/2000/svg" xmlns:xlink="http://www.w3.org/1999/xlink">
    <g id="Notes" font-family="'LucidaGrande', 'Lucida Grande', sans-serif" font-size="13">
        <rect fill="white" height="600.0" width="800.0" x="0.0" y="0.0" />
        <g font-size="13">
            <text x="18.0" y="176.0">Small</text>
            <text x="18.0" y="376.0">Medium</text>
            <text x="18.0" y="576.0">Large</text>
        </g>
        <g font-size="9">
            <text x="250.0" y="30.0">Ultralight</text>
            <text x="450.0" y="30.0">Regular</text>
            <text x="650.0" y="30.0">Black</text>
            <text id="template-version" fill="#505050" text-anchor="end" x="785.0" y="575.0">Template v.3.0</text>
            <a href="https://github.com/swhitty/SwiftDraw">
                <text fill="#505050" text-anchor="end" x="785.0" y="590.0">https://github.com/swhitty/SwiftDraw</text>
            </a>
        </g>
    </g>
    <g id="Guides" stroke="rgb(39, 170, 225)" stroke-width="0.5">
        <path id="Capline-S" d="M18,76 l800,0" />
        <path id="H-reference" d="M85,145.755 L87.685,145.755 L113.369,79.287 L114.052,79.287 L114.052,76 L112.148,76 L85,145.755 Z M95.693,121.536 L130.996,121.536 L130.263,119.313 L96.474,119.313 L95.693,121.536 Z M139.15,145.755 L141.787,145.755 L114.638,76 L113.466,76 L113.466,79.287 L139.15,145.755 Z" stroke="none" />
        <path id="Baseline-S" d="M18,146 l800,0" />
        <path id="left-margin-Ultralight-S" d="M220,56 l0,110" />
        <path id="right-margin-Ultralight-S" d="M310,56 l0,110" />
        <path id="left-margin-Regular-S" d="M420,56 l0,110" />
        <path id="right-margin-Regular-S" d="M510,56 l0,110" />
        <path id="left-margin-Black-S" d="M620,56 l0,110" />
        <path id="right-margin-Black-S" d="M710,56 l0,110" />
        <path id="Capline-M" d="M18,276 l800,0" />
        <path id="Baseline-M" d="M18,346 l800,0" />
        <path id="Capline-L" d="M18,476 l800,0" />
        <path id="Baseline-L" d="M18,546 l800,0" />
    </g>
    <g id="Symbols">
        <g id="Ultralight-S">
            <path d="M262.308,116.385 L256.923,116.385 C256.209,116.385 255.524,116.668 255.019,117.173 C254.514,117.678 254.231,118.363 254.231,119.077 L254.231,137.923 C254.231,139.41 255.436,140.615 256.923,140.615 C258.41,140.615 259.615,139.41 259.615,137.923 L259.615,135.231 L262.308,135.231 C267.512,135.231 271.731,131.012 271.731,125.808 C271.731,120.603 267.512,116.385 262.308,116.385 Z M262.308,129.846 L259.615,129.846 L259.615,121.769 L262.308,121.769 C264.538,121.769 266.346,123.577 266.346,125.808 C266.346,128.038 264.538,129.846 262.308,129.846 Z M294.615,129.846 L294.615,135.524 C294.615,136.218 294.347,136.884 293.868,137.385 C291.973,139.424 289.322,140.593 286.538,140.615 C280.599,140.615 275.769,135.18 275.769,128.5 C275.769,121.82 280.599,116.385 286.538,116.385 C288.518,116.391 290.45,116.991 292.085,118.108 C293.318,118.947 293.638,120.624 292.8,121.856 C291.962,123.087 290.285,123.406 289.053,122.569 C288.315,122.054 287.438,121.775 286.538,121.769 C283.57,121.769 281.154,124.798 281.154,128.5 C281.154,132.202 283.57,135.231 286.538,135.231 C287.51,135.22 288.453,134.9 289.231,134.319 L289.231,132.538 C287.744,132.538 286.538,131.333 286.538,129.846 C286.538,128.359 287.744,127.154 289.231,127.154 L291.923,127.154 C292.637,127.154 293.322,127.438 293.827,127.942 C294.332,128.447 294.615,129.132 294.615,129.846 Z M248.846,119.077 L248.846,131.865 C248.846,136.698 244.929,140.615 240.096,140.615 C235.264,140.615 231.346,136.698 231.346,131.865 C231.346,130.378 232.552,129.173 234.038,129.173 C235.525,129.173 236.731,130.378 236.731,131.865 C236.731,133.724 238.238,135.231 240.096,135.231 C241.955,135.231 243.462,133.724 243.462,131.865 L243.462,119.077 C243.462,117.59 244.667,116.385 246.154,116.385 C247.641,116.385 248.846,117.59 248.846,119.077 Z M293.828,95.634 L274.982,76.788 C274.476,76.283 273.791,75.999 273.077,76 L240.769,76 C239.341,76 237.972,76.567 236.962,77.577 C235.952,78.587 235.385,79.957 235.385,81.385 L235.385,105.615 C235.385,107.102 236.59,108.308 238.077,108.308 C239.564,108.308 240.769,107.102 240.769,105.615 L240.769,81.385 L270.385,81.385 L270.385,97.538 C270.385,98.253 270.668,98.937 271.173,99.442 C271.678,99.947 272.363,100.231 273.077,100.231 L289.231,100.231 L289.231,105.615 C289.231,107.102 290.436,108.308 291.923,108.308 C293.41,108.308 294.615,107.102 294.615,105.615 L294.615,97.538 C294.616,96.824 294.333,96.139 293.828,95.634 Z M275.769,94.846 L275.769,85.191 L285.425,94.846 Z" />
        </g>
        <g id="Regular-S">
            <path d="M462.308,116.385 L456.923,116.385 C456.209,116.385 455.524,116.668 455.019,117.173 C454.514,117.678 454.231,118.363 454.231,119.077 L454.231,137.923 C454.231,139.41 455.436,140.615 456.923,140.615 C458.41,140.615 459.615,139.41 459.615,137.923 L459.615,135.231 L462.308,135.231 C467.512,135.231 471.731,131.012 471.731,125.808 C471.731,120.603 467.512,116.385 462.308,116.385 Z M462.308,129.846 L459.615,129.846 L459.615,121.769 L462.308,121.769 C464.538,121.769 466.346,123.577 466.346,125.808 C466.346,128.038 464.538,129.846 462.308,129.846 Z M494.615,129.846 L494.615,135.524 C494.615,136.218 494.347,136.884 493.868,137.385 C491.973,139.424 489.322,140.593 486.538,140.615 C480.599,140.615 475.769,135.18 475.769,128.5 C475.769,121.82 480.599,116.385 486.538,116.385 C488.518,116.391 490.45,116.991 492.085,118.108 C493.318,118.947 493.638,120.624 492.8,121.856 C491.962,123.087 490.285,123.406 489.053,122.569 C488.315,122.054 487.438,121.775 486.538,121.769 C483.57,121.769 481.154,124.798 481.154,128.5 C481.154,132.202 483.57,135.231 486.538,135.231 C487.51,135.22 488.453,134.9 489.231,134.319 L489.231,132.538 C487.744,132.538 486.538,131.333 486.538,129.846 C486.538,128.359 487.744,127.154 489.231,127.154 L491.923,127.154 C492.637,127.154 493.322,127.438 493.827,127.942 C494.332,128.447 494.615,129.132 494.615,129.846 Z M448.846,119.077 L448.846,131.865 C448.846,136.698 444.929,140.615 440.096,140.615 C435.264,140.615 431.346,136.698 431.346,131.865 C431.346,130.378 432.552,129.173 434.038,129.173 C435.525,129.173 436.731,130.378 436.731,131.865 C436.731,133.724 438.237,135.231 440.096,135.231 C441.955,135.231 443.462,133.724 443.462,131.865 L443.462,119.077 C443.462,117.59 444.667,116.385 446.154,116.385 C447.641,116.385 448.846,117.59 448.846,119.077 Z M493.828,95.634 L474.982,76.788 C474.476,76.283 473.791,75.999 473.077,76 L440.769,76 C439.341,76 437.972,76.567 436.962,77.577 C435.952,78.587 435.385,79.957 435.385,81.385 L435.385,105.615 C435.385,107.102 436.59,108.308 438.077,108.308 C439.564,108.308 440.769,107.102 440.769,105.615 L440.769,81.385 L470.385,81.385 L470.385,97.538 C470.385,98.253 470.668,98.937 471.173,99.442 C471.678,99.947 472.363,100.231 473.077,100.231 L489.231,100.231 L489.231,105.615 C489.231,107.102 490.436,108.308 491.923,108.308 C493.41,108.308 494.615,107.102 494.615,105.615 L494.615,97.538 C494.616,96.824 494.333,96.139 493.828,95.634 Z M475.769,94.846 L475.769,85.191 L485.424,94.846 Z" />
        </g>
        <g id="Black-S">
            <path d="M662.308,116.385 L656.923,116.385 C656.209,116.385 655.524,116.668 655.019,117.173 C654.514,117.678 654.231,118.363 654.231,119.077 L654.231,137.923 C654.231,139.41 655.436,140.615 656.923,140.615 C658.41,140.615 659.615,139.41 659.615,137.923 L659.615,135.231 L662.308,135.231 C667.512,135.231 671.731,131.012 671.731,125.808 C671.731,120.603 667.512,116.385 662.308,116.385 Z M662.308,129.846 L659.615,129.846 L659.615,121.769 L662.308,121.769 C664.538,121.769 666.346,123.577 666.346,125.808 C666.346,128.038 664.538,129.846 662.308,129.846 Z M694.615,129.846 L694.615,135.524 C694.615,136.218 694.347,136.884 693.868,137.385 C691.973,139.424 689.322,140.593 686.538,140.615 C680.599,140.615 675.769,135.18 675.769,128.5 C675.769,121.82 680.599,116.385 686.538,116.385 C688.518,116.391 690.45,116.991 692.085,118.108 C693.318,118.947 693.638,120.624 692.8,121.856 C691.962,123.087 690.285,123.406 689.053,122.569 C688.315,122.054 687.438,121.775 686.538,121.769 C683.57,121.769 681.154,124.798 681.154,128.5 C681.154,132.202 683.57,135.231 686.538,135.231 C687.51,135.22 688.453,134.9 689.231,134.319 L689.231,132.538 C687.744,132.538 686.538,131.333 686.538,129.846 C686.538,128.359 687.744,127.154 689.231,127.154 L691.923,127.154 C692.637,127.154 693.322,127.438 693.827,127.942 C694.332,128.447 694.615,129.132 694.615,129.846 Z M648.846,119.077 L648.846,131.865 C648.846,136.698 644.929,140.615 640.096,140.615 C635.264,140.615 631.346,136.698 631.346,131.865 C631.346,130.378 632.552,129.173 634.038,129.173 C635.525,129.173 636.731,130.378 636.731,131.865 C636.731,133.724 638.238,135.231 640.096,135.231 C641.955,135.231 643.462,133.724 643.462,131.865 L643.462,119.077 C643.462,117.59 644.667,116.385 646.154,116.385 C647.641,116.385 648.846,117.59 648.846,119.077 Z M693.828,95.634 L674.982,76.788 C674.476,76.283 673.791,75.999 673.077,76 L640.769,76 C639.341,76 637.972,76.567 636.962,77.577 C635.952,78.587 635.385,79.957 635.385,81.385 L635.385,105.615 C635.385,107.102 636.59,108.308 638.077,108.308 C639.564,108.308 640.769,107.102 640.769,105.615 L640.769,81.385 L670.385,81.385 L670.385,97.538 C670.385,98.253 670.668,98.937 671.173,99.442 C671.678,99.947 672.363,100.231 673.077,100.231 L689.231,100.231 L689.231,105.615 C689.231,107.102 690.436,108.308 691.923,108.308 C693.41,108.308 694.615,107.102 694.615,105.615 L694.615,97.538 C694.616,96.824 694.333,96.139 693.828,95.634 Z M675.769,94.846 L675.769,85.191 L685.425,94.846 Z" />
        </g>
    </g>
</svg>