<?xml version="1.0" encoding="UTF-8"?>
<svg height="600" width="800" xmlns="http://www.w3.org/2000/svg" xmlns:xlink="http://www.w3.org/1999/xlink">
    <g id="Notes" font-family="'LucidaGrande', 'Lucida Grande', sans-serif" font-size="13">
        <rect fill="white" height="600.0" width="800.0" x="0.0" y="0.0" />
        <g font-size="13">
            <text x="18.0" y="176.0">Small</text>
            <text x="18.0" y="376.0">Medium</text>
            <text x="18.0" y="576.0">Large</text>
        </g>
        <g font-size="9">
            <text x="250.0" y="30.0">Ultralight</text>
            <text x="450.0" y="30.0">Regular</text>
            <text x="650.0" y="30.0">Black</text>
            <text id="template-version" fill="#505050" text-anchor="end" x="785.0" y="575.0">Template v.3.0</text>
            <a href="https://github.com/swhitty/SwiftDraw">
                <text fill="#505050" text-anchor="end" x="785.0" y="590.0">https://github.com/swhitty/SwiftDraw</text>
            </a>
        </g>
    </g>
    <g id="Guides" stroke="rgb(39, 170, 225)" stroke-width="0.5">
        <path id="Capline-S" d="M18,76 l800,0" />
        <path id="H-reference" d="M85,145.755 L87.685,145.755 L113.369,79.287 L114.052,79.287 L114.052,76 L112.148,76 L85,145.755 Z M95.693,121.536 L130.996,121.536 L130.263,119.313 L96.474,119.313 L95.693,121.536 Z M139.15,145.755 L141.787,145.755 L114.638,76 L113.466,76 L113.466,79.287 L139.15,145.755 Z" stroke="none" />
        <path id="Baseline-S" d="M18,146 l800,0" />
        <path id="left-margin-Ultralight-S" d="M220,56 l0,110" />
        <path id="right-margin-Ultralight-S" d="M310,56 l0,110" />
        <path id="left-margin-Regular-S" d="M420,56 l0,110" />
        <path id="right-margin-Regular-S" d="M510,56 l0,110" />
        <path id="left-margin-Black-S" d="M620,56 l0,110" />
        <path id="right-margin-Black-S" d="M710,56 l0,110" />
        <path id="Capline-M" d="M18,276 l800,0" />
        <path id="Baseline-M" d="M18,346 l800,0" />
        <path id="Capline-L" d="M18,476 l800,0" />
        <path id="Baseline-L" d="M18,546 l800,0" />
    </g>
    <g id="Symbols">
        <g id="Ultralight-S">
            <path d="M289.638,111 L299.663,93.5 C300.147,92.663 300.144,91.632 299.657,90.797 C299.171,89.963 298.274,89.453 297.308,89.462 L277.334,89.462 L267.356,71.962 C266.877,71.121 265.984,70.603 265.017,70.603 C264.05,70.603 263.157,71.121 262.678,71.962 L252.659,89.462 L232.692,89.462 C231.729,89.459 230.838,89.971 230.355,90.805 C229.872,91.638 229.872,92.666 230.353,93.5 L240.355,111 L230.353,128.5 C229.87,129.337 229.872,130.368 230.359,131.203 C230.846,132.037 231.743,132.547 232.709,132.538 L252.659,132.538 L262.661,150.038 C263.14,150.879 264.033,151.397 265,151.397 C265.967,151.397 266.86,150.879 267.339,150.038 L277.334,132.538 L297.308,132.538 C298.274,132.547 299.171,132.037 299.657,131.203 C300.144,130.368 300.147,129.337 299.663,128.5 Z M292.667,94.846 L286.538,105.575 L280.41,94.846 Z M283.439,111 L274.211,127.154 L255.786,127.154 L246.558,111 L255.786,94.846 L274.211,94.846 Z M265,78.733 L271.132,89.462 L258.865,89.462 Z M237.33,94.846 L249.583,94.846 L243.462,105.575 Z M237.33,127.127 L243.462,116.425 L249.583,127.154 Z M265,143.267 L258.865,132.538 L271.132,132.538 Z M280.41,127.154 L286.538,116.425 L292.667,127.154 Z" />
        </g>
        <g id="Regular-S">
            <path d="M489.638,111 L499.663,93.5 C500.147,92.663 500.144,91.632 499.657,90.797 C499.171,89.963 498.274,89.453 497.308,89.462 L477.334,89.462 L467.356,71.962 C466.877,71.121 465.984,70.603 465.017,70.603 C464.05,70.603 463.157,71.121 462.678,71.962 L452.659,89.462 L432.692,89.462 C431.729,89.459 430.838,89.971 430.355,90.805 C429.872,91.638 429.872,92.666 430.353,93.5 L440.355,111 L430.353,128.5 C429.87,129.337 429.872,130.368 430.359,131.203 C430.846,132.037 431.743,132.547 432.709,132.538 L452.659,132.538 L462.661,150.038 C463.14,150.879 464.033,151.397 465,151.397 C465.967,151.397 466.86,150.879 467.339,150.038 L477.334,132.538 L497.308,132.538 C498.274,132.547 499.171,132.037 499.657,131.203 C500.144,130.368 500.147,129.337 499.663,128.5 Z M492.667,94.846 L486.538,105.575 L480.41,94.846 Z M483.439,111 L474.211,127.154 L455.786,127.154 L446.558,111 L455.786,94.846 L474.211,94.846 Z M465,78.733 L471.132,89.462 L458.865,89.462 Z M437.33,94.846 L449.583,94.846 L443.462,105.575 Z M437.33,127.127 L443.462,116.425 L449.583,127.154 Z M465,143.267 L458.865,132.538 L471.132,132.538 Z M480.41,127.154 L486.538,116.425 L492.667,127.154 Z" />
        </g>
        <g id="Black-S">
            <path d="M689.638,111 L699.663,93.5 C700.147,92.663 700.144,91.632 699.657,90.797 C699.171,89.963 698.274,89.453 697.308,89.462 L677.334,89.462 L667.356,71.962 C666.877,71.121 665.984,70.603 665.017,70.603 C664.05,70.603 663.157,71.121 662.678,71.962 L652.659,89.462 L632.692,89.462 C631.729,89.459 630.838,89.971 630.355,90.805 C629.872,91.638 629.872,92.666 630.353,93.5 L640.355,111 L630.353,128.5 C629.87,129.337 629.872,130.368 630.359,131.203 C630.846,132.037 631.743,132.547 632.709,132.538 L652.659,132.538 L662.661,150.038 C663.14,150.879 664.033,151.397 665,151.397 C665.967,151.397 666.86,150.879 667.339,150.038 L677.334,132.538 L697.308,132.538 C698.274,132.547 699.171,132.037 699.657,131.203 C700.144,130.368 700.147,129.337 699.663,128.5 Z M692.667,94.846 L686.538,105.575 L680.41,94.846 Z M683.439,111 L674.211,127.154 L655.786,127.154 L646.558,111 L655.786,94.846 L674.211,94.846 Z M665,78.733 L671.132,89.462 L658.865,89.462 Z M637.33,94.846 L649.583,94.846 L643.462,105.575 Z M637.33,127.127 L643.462,116.425 L649.583,127.154 Z M665,143.267 L658.865,132.538 L671.132,132.538 Z M680.41,127.154 L686.538,116.425 L692.667,127.154 Z" />
        </g>
    </g>
</svg>