<?xml version="1.0" encoding="UTF-8"?>
<svg height="600" width="800" xmlns="http://www.w3.org/2000/svg" xmlns:xlink="http://www.w3.org/1999/xlink">
    <g id="Notes" font-family="'LucidaGrande', 'Lucida Grande', sans-serif" font-size="13">
        <rect fill="white" height="600.0" width="800.0" x="0.0" y="0.0" />
        <g font-size="13">
            <text x="18.0" y="176.0">Small</text>
            <text x="18.0" y="376.0">Medium</text>
            <text x="18.0" y="576.0">Large</text>
        </g>
        <g font-size="9">
            <text x="250.0" y="30.0">Ultralight</text>
            <text x="450.0" y="30.0">Regular</text>
            <text x="650.0" y="30.0">Black</text>
            <text id="template-version" fill="#505050" text-anchor="end" x="785.0" y="575.0">Template v.3.0</text>
            <a href="https://github.com/swhitty/SwiftDraw">
                <text fill="#505050" text-anchor="end" x="785.0" y="590.0">https://github.com/swhitty/SwiftDraw</text>
            </a>
        </g>
    </g>
    <g id="Guides" stroke="rgb(39, 170, 225)" stroke-width="0.5">
        <path id="Capline-S" d="M18,76 l800,0" />
        <path id="H-reference" d="M85,145.755 L87.685,145.755 L113.369,79.287 L114.052,79.287 L114.052,76 L112.148,76 L85,145.755 Z M95.693,121.536 L130.996,121.536 L130.263,119.313 L96.474,119.313 L95.693,121.536 Z M139.15,145.755 L141.787,145.755 L114.638,76 L113.466,76 L113.466,79.287 L139.15,145.755 Z" stroke="none" />
        <path id="Baseline-S" d="M18,146 l800,0" />
        <path id="left-margin-Ultralight-S" d="M220,56 l0,110" />
        <path id="right-margin-Ultralight-S" d="M310,56 l0,110" />
        <path id="left-margin-Regular-S" d="M420,56 l0,110" />
        <path id="right-margin-Regular-S" d="M510,56 l0,110" />
        <path id="left-margin-Black-S" d="M620,56 l0,110" />
        <path id="right-margin-Black-S" d="M710,56 l0,110" />
        <path id="Capline-M" d="M18,276 l800,0" />
        <path id="Baseline-M" d="M18,346 l800,0" />
        <path id="Capline-L" d="M18,476 l800,0" />
        <path id="Baseline-L" d="M18,546 l800,0" />
    </g>
    <g id="Symbols">
        <g id="Ultralight-S">
            <path d="M305.385,94.846 L224.615,94.846 C223.901,94.846 223.217,95.13 222.712,95.635 C222.207,96.14 221.923,96.824 221.923,97.538 C221.923,121.329 241.209,140.615 265,140.615 C288.791,140.615 308.077,121.329 308.077,97.538 C308.077,96.824 307.793,96.14 307.288,95.635 C306.783,95.13 306.099,94.846 305.385,94.846 Z M247.971,118.374 L262.308,104.037 L262.308,124.327 C257.046,123.801 252.058,121.73 247.971,118.374 Z M244.165,114.567 C240.809,110.481 238.737,105.493 238.212,100.231 L258.501,100.231 Z M267.692,104.037 L282.029,118.374 C277.942,121.73 272.954,123.801 267.692,124.327 Z M285.835,114.567 L271.499,100.231 L291.788,100.231 C291.263,105.493 289.191,110.481 285.835,114.567 Z M265,135.231 C245.237,135.207 228.838,119.942 227.402,100.231 L232.807,100.231 C234.219,116.961 248.21,129.822 265,129.822 C281.79,129.822 295.781,116.961 297.193,100.231 L302.598,100.231 C301.162,119.942 284.763,135.207 265,135.231 Z" />
        </g>
        <g id="Regular-S">
            <path d="M505.385,94.846 L424.615,94.846 C423.901,94.846 423.217,95.13 422.712,95.635 C422.207,96.14 421.923,96.824 421.923,97.538 C421.923,121.329 441.209,140.615 465,140.615 C488.791,140.615 508.077,121.329 508.077,97.538 C508.077,96.824 507.793,96.14 507.288,95.635 C506.783,95.13 506.099,94.846 505.385,94.846 Z M447.971,118.374 L462.308,104.037 L462.308,124.327 C457.046,123.801 452.058,121.73 447.971,118.374 Z M444.165,114.567 C440.809,110.481 438.737,105.493 438.212,100.231 L458.501,100.231 Z M467.692,104.037 L482.029,118.374 C477.942,121.73 472.954,123.801 467.692,124.327 Z M485.835,114.567 L471.499,100.231 L491.788,100.231 C491.263,105.493 489.191,110.481 485.835,114.567 Z M465,135.231 C445.237,135.207 428.838,119.942 427.402,100.231 L432.807,100.231 C434.219,116.961 448.21,129.822 465,129.822 C481.79,129.822 495.781,116.961 497.193,100.231 L502.598,100.231 C501.162,119.942 484.763,135.207 465,135.231 Z" />
        </g>
        <g id="Black-S">
            <path d="M705.385,94.846 L624.615,94.846 C623.901,94.846 623.217,95.13 622.712,95.635 C622.207,96.14 621.923,96.824 621.923,97.538 C621.923,121.329 641.209,140.615 665,140.615 C688.791,140.615 708.077,121.329 708.077,97.538 C708.077,96.824 707.793,96.14 707.288,95.635 C706.783,95.13 706.099,94.846 705.385,94.846 Z M647.971,118.374 L662.308,104.037 L662.308,124.327 C657.046,123.801 652.058,121.73 647.971,118.374 Z M644.165,114.567 C640.809,110.481 638.737,105.493 638.212,100.231 L658.501,100.231 Z M667.692,104.037 L682.029,118.374 C677.942,121.73 672.954,123.801 667.692,124.327 Z M685.835,114.567 L671.499,100.231 L691.788,100.231 C691.263,105.493 689.191,110.481 685.835,114.567 Z M665,135.231 C645.237,135.207 628.838,119.942 627.402,100.231 L632.807,100.231 C634.219,116.961 648.21,129.822 665,129.822 C681.79,129.822 695.781,116.961 697.193,100.231 L702.598,100.231 C701.162,119.942 684.763,135.207 665,135.231 Z" />
        </g>
    </g>
</svg>