<?xml version="1.0" encoding="UTF-8"?>
<svg height="600" width="800" xmlns="http://www.w3.org/2000/svg" xmlns:xlink="http://www.w3.org/1999/xlink">
    <g id="Notes" font-family="'LucidaGrande', 'Lucida Grande', sans-serif" font-size="13">
        <rect fill="white" height="600.0" width="800.0" x="0.0" y="0.0" />
        <g font-size="13">
            <text x="18.0" y="176.0">Small</text>
            <text x="18.0" y="376.0">Medium</text>
            <text x="18.0" y="576.0">Large</text>
        </g>
        <g font-size="9">
            <text x="250.0" y="30.0">Ultralight</text>
            <text x="450.0" y="30.0">Regular</text>
            <text x="650.0" y="30.0">Black</text>
            <text id="template-version" fill="#505050" text-anchor="end" x="785.0" y="575.0">Template v.3.0</text>
            <a href="https://github.com/swhitty/SwiftDraw">
                <text fill="#505050" text-anchor="end" x="785.0" y="590.0">https://github.com/swhitty/SwiftDraw</text>
            </a>
        </g>
    </g>
    <g id="Guides" stroke="rgb(39, 170, 225)" stroke-width="0.5">
        <path id="Capline-S" d="M18,76 l800,0" />
        <path id="H-reference" d="M85,145.755 L87.685,145.755 L113.369,79.287 L114.052,79.287 L114.052,76 L112.148,76 L85,145.755 Z M95.693,121.536 L130.996,121.536 L130.263,119.313 L96.474,119.313 L95.693,121.536 Z M139.15,145.755 L141.787,145.755 L114.638,76 L113.466,76 L113.466,79.287 L139.15,145.755 Z" stroke="none" />
        <path id="Baseline-S" d="M18,146 l800,0" />
        <path id="left-margin-Ultralight-S" d="M220,56 l0,110" />
        <path id="right-margin-Ultralight-S" d="M310,56 l0,110" />
        <path id="left-margin-Regular-S" d="M420,56 l0,110" />
        <path id="right-margin-Regular-S" d="M510,56 l0,110" />
        <path id="left-margin-Black-S" d="M620,56 l0,110" />
        <path id="right-margin-Black-S" d="M710,56 l0,110" />
        <path id="Capline-M" d="M18,276 l800,0" />
        <path id="Baseline-M" d="M18,346 l800,0" />
        <path id="Capline-L" d="M18,476 l800,0" />
        <path id="Baseline-L" d="M18,546 l800,0" />
    </g>
    <g id="Symbols">
        <g id="Ultralight-S">
            <path d="M248.846,81.385 C241.412,81.385 235.385,87.412 235.385,94.846 C235.385,102.281 241.412,108.308 248.846,108.308 C256.281,108.308 262.308,102.281 262.308,94.846 C262.308,91.276 260.889,87.852 258.365,85.327 C255.84,82.803 252.416,81.385 248.846,81.385 Z M248.846,102.923 C244.385,102.923 240.769,99.307 240.769,94.846 C240.769,90.385 244.385,86.769 248.846,86.769 C253.307,86.769 256.923,90.385 256.923,94.846 C256.923,96.988 256.072,99.043 254.557,100.557 C253.043,102.072 250.988,102.923 248.846,102.923 Z M281.154,108.308 C288.588,108.308 294.615,102.281 294.615,94.846 C294.615,87.412 288.588,81.385 281.154,81.385 C273.719,81.385 267.692,87.412 267.692,94.846 C267.692,98.416 269.111,101.84 271.635,104.365 C274.16,106.889 277.584,108.308 281.154,108.308 Z M281.154,86.769 C285.615,86.769 289.231,90.385 289.231,94.846 C289.231,99.307 285.615,102.923 281.154,102.923 C276.693,102.923 273.077,99.307 273.077,94.846 C273.077,92.704 273.928,90.65 275.443,89.135 C276.957,87.62 279.012,86.769 281.154,86.769 Z M248.846,113.692 C241.412,113.692 235.385,119.719 235.385,127.154 C235.385,134.588 241.412,140.615 248.846,140.615 C256.281,140.615 262.308,134.588 262.308,127.154 C262.308,123.584 260.889,120.16 258.365,117.635 C255.84,115.111 252.416,113.692 248.846,113.692 Z M248.846,135.231 C244.385,135.231 240.769,131.615 240.769,127.154 C240.769,122.693 244.385,119.077 248.846,119.077 C253.307,119.077 256.923,122.693 256.923,127.154 C256.923,129.296 256.072,131.35 254.557,132.865 C253.043,134.38 250.988,135.231 248.846,135.231 Z M281.154,113.692 C273.719,113.692 267.692,119.719 267.692,127.154 C267.692,134.588 273.719,140.615 281.154,140.615 C288.588,140.615 294.615,134.588 294.615,127.154 C294.615,123.584 293.197,120.16 290.673,117.635 C288.148,115.111 284.724,113.692 281.154,113.692 Z M281.154,135.231 C276.693,135.231 273.077,131.615 273.077,127.154 C273.077,122.693 276.693,119.077 281.154,119.077 C285.615,119.077 289.231,122.693 289.231,127.154 C289.231,129.296 288.38,131.35 286.865,132.865 C285.35,134.38 283.296,135.231 281.154,135.231 Z" />
        </g>
        <g id="Regular-S">
            <path d="M448.846,81.385 C441.412,81.385 435.385,87.412 435.385,94.846 C435.385,102.281 441.412,108.308 448.846,108.308 C456.281,108.308 462.308,102.281 462.308,94.846 C462.308,91.276 460.889,87.852 458.365,85.327 C455.84,82.803 452.416,81.385 448.846,81.385 Z M448.846,102.923 C444.385,102.923 440.769,99.307 440.769,94.846 C440.769,90.385 444.385,86.769 448.846,86.769 C453.307,86.769 456.923,90.385 456.923,94.846 C456.923,96.988 456.072,99.043 454.557,100.557 C453.043,102.072 450.988,102.923 448.846,102.923 Z M481.154,108.308 C488.588,108.308 494.615,102.281 494.615,94.846 C494.615,87.412 488.588,81.385 481.154,81.385 C473.719,81.385 467.692,87.412 467.692,94.846 C467.692,98.416 469.111,101.84 471.635,104.365 C474.16,106.889 477.584,108.308 481.154,108.308 Z M481.154,86.769 C485.615,86.769 489.231,90.385 489.231,94.846 C489.231,99.307 485.615,102.923 481.154,102.923 C476.693,102.923 473.077,99.307 473.077,94.846 C473.077,92.704 473.928,90.65 475.443,89.135 C476.957,87.62 479.012,86.769 481.154,86.769 Z M448.846,113.692 C441.412,113.692 435.385,119.719 435.385,127.154 C435.385,134.588 441.412,140.615 448.846,140.615 C456.281,140.615 462.308,134.588 462.308,127.154 C462.308,123.584 460.889,120.16 458.365,117.635 C455.84,115.111 452.416,113.692 448.846,113.692 Z M448.846,135.231 C444.385,135.231 440.769,131.615 440.769,127.154 C440.769,122.693 444.385,119.077 448.846,119.077 C453.307,119.077 456.923,122.693 456.923,127.154 C456.923,129.296 456.072,131.35 454.557,132.865 C453.043,134.38 450.988,135.231 448.846,135.231 Z M481.154,113.692 C473.719,113.692 467.692,119.719 467.692,127.154 C467.692,134.588 473.719,140.615 481.154,140.615 C488.588,140.615 494.615,134.588 494.615,127.154 C494.615,123.584 493.197,120.16 490.673,117.635 C488.148,115.111 484.724,113.692 481.154,113.692 Z M481.154,135.231 C476.693,135.231 473.077,131.615 473.077,127.154 C473.077,122.693 476.693,119.077 481.154,119.077 C485.615,119.077 489.231,122.693 489.231,127.154 C489.231,129.296 488.38,131.35 486.865,132.865 C485.35,134.38 483.296,135.231 481.154,135.231 Z" />
        </g>
        <g id="Black-S">
            <path d="M648.846,81.385 C641.412,81.385 635.385,87.412 635.385,94.846 C635.385,102.281 641.412,108.308 648.846,108.308 C656.281,108.308 662.308,102.281 662.308,94.846 C662.308,91.276 660.889,87.852 658.365,85.327 C655.84,82.803 652.416,81.385 648.846,81.385 Z M648.846,102.923 C644.385,102.923 640.769,99.307 640.769,94.846 C640.769,90.385 644.385,86.769 648.846,86.769 C653.307,86.769 656.923,90.385 656.923,94.846 C656.923,96.988 656.072,99.043 654.557,100.557 C653.043,102.072 650.988,102.923 648.846,102.923 Z M681.154,108.308 C688.588,108.308 694.615,102.281 694.615,94.846 C694.615,87.412 688.589,81.385 681.154,81.385 C673.719,81.385 667.692,87.412 667.692,94.846 C667.692,98.416 669.111,101.84 671.635,104.365 C674.16,106.889 677.584,108.308 681.154,108.308 Z M681.154,86.769 C685.615,86.769 689.231,90.385 689.231,94.846 C689.231,99.307 685.615,102.923 681.154,102.923 C676.693,102.923 673.077,99.307 673.077,94.846 C673.077,92.704 673.928,90.65 675.443,89.135 C676.957,87.62 679.012,86.769 681.154,86.769 Z M648.846,113.692 C641.412,113.692 635.385,119.719 635.385,127.154 C635.385,134.588 641.412,140.615 648.846,140.615 C656.281,140.615 662.308,134.588 662.308,127.154 C662.308,123.584 660.889,120.16 658.365,117.635 C655.84,115.111 652.416,113.692 648.846,113.692 Z M648.846,135.231 C644.385,135.231 640.769,131.615 640.769,127.154 C640.769,122.693 644.385,119.077 648.846,119.077 C653.307,119.077 656.923,122.693 656.923,127.154 C656.923,129.296 656.072,131.35 654.557,132.865 C653.043,134.38 650.988,135.231 648.846,135.231 Z M681.154,113.692 C673.719,113.692 667.692,119.719 667.692,127.154 C667.692,134.588 673.719,140.615 681.154,140.615 C688.588,140.615 694.615,134.588 694.615,127.154 C694.615,123.584 693.197,120.16 690.673,117.635 C688.148,115.111 684.724,113.692 681.154,113.692 Z M681.154,135.231 C676.693,135.231 673.077,131.615 673.077,127.154 C673.077,122.693 676.693,119.077 681.154,119.077 C685.615,119.077 689.231,122.693 689.231,127.154 C689.231,129.296 688.38,131.35 686.865,132.865 C685.35,134.38 683.296,135.231 681.154,135.231 Z" />
        </g>
    </g>
</svg>