<?xml version="1.0" encoding="UTF-8"?>
<svg height="600" width="800" xmlns="http://www.w3.org/2000/svg" xmlns:xlink="http://www.w3.org/1999/xlink">
    <g id="Notes" font-family="'LucidaGrande', 'Lucida Grande', sans-serif" font-size="13">
        <rect fill="white" height="600.0" width="800.0" x="0.0" y="0.0" />
        <g font-size="13">
            <text x="18.0" y="176.0">Small</text>
            <text x="18.0" y="376.0">Medium</text>
            <text x="18.0" y="576.0">Large</text>
        </g>
        <g font-size="9">
            <text x="250.0" y="30.0">Ultralight</text>
            <text x="450.0" y="30.0">Regular</text>
            <text x="650.0" y="30.0">Black</text>
            <text id="template-version" fill="#505050" text-anchor="end" x="785.0" y="575.0">Template v.3.0</text>
            <a href="https://github.com/swhitty/SwiftDraw">
                <text fill="#505050" text-anchor="end" x="785.0" y="590.0">https://github.com/swhitty/SwiftDraw</text>
            </a>
        </g>
    </g>
    <g id="Guides" stroke="rgb(39, 170, 225)" stroke-width="0.5">
        <path id="Capline-S" d="M18,76 l800,0" />
        <path id="H-reference" d="M85,145.755 L87.685,145.755 L113.369,79.287 L114.052,79.287 L114.052,76 L112.148,76 L85,145.755 Z M95.693,121.536 L130.996,121.536 L130.263,119.313 L96.474,119.313 L95.693,121.536 Z M139.15,145.755 L141.787,145.755 L114.638,76 L113.466,76 L113.466,79.287 L139.15,145.755 Z" stroke="none" />
        <path id="Baseline-S" d="M18,146 l800,0" />
        <path id="left-margin-Ultralight-S" d="M220,56 l0,110" />
        <path id="right-margin-Ultralight-S" d="M310,56 l0,110" />
        <path id="left-margin-Regular-S" d="M420,56 l0,110" />
        <path id="right-margin-Regular-S" d="M510,56 l0,110" />
        <path id="left-margin-Black-S" d="M620,56 l0,110" />
        <path id="right-margin-Black-S" d="M710,56 l0,110" />
        <path id="Capline-M" d="M18,276 l800,0" />
        <path id="Baseline-M" d="M18,346 l800,0" />
        <path id="Capline-L" d="M18,476 l800,0" />
        <path id="Baseline-L" d="M18,546 l800,0" />
    </g>
    <g id="Symbols">
        <g id="Ultralight-S">
            <path d="M281.881,127.154 L259.387,127.154 C258.27,133.758 253.194,138.989 246.626,140.302 C240.059,141.616 233.361,138.74 229.791,133.073 C226.221,127.406 226.518,120.123 230.538,114.766 C231.43,113.577 233.118,113.336 234.308,114.228 C235.498,115.121 235.739,116.809 234.847,117.999 C233.442,119.86 232.685,122.13 232.692,124.462 C232.692,130.409 237.514,135.231 243.462,135.231 C249.409,135.231 254.231,130.409 254.231,124.462 C254.231,123.747 254.514,123.063 255.019,122.558 C255.524,122.053 256.209,121.769 256.923,121.769 L281.881,121.769 C283.099,119.659 285.584,118.63 287.938,119.26 C290.292,119.891 291.929,122.024 291.929,124.462 C291.929,126.899 290.292,129.032 287.938,129.663 C285.584,130.293 283.099,129.264 281.881,127.154 Z M243.462,129.846 C245.359,129.847 247.116,128.849 248.088,127.22 C249.06,125.59 249.102,123.569 248.2,121.9 L260.238,102.334 C261.016,101.068 260.621,99.411 259.356,98.632 C255.407,96.201 253.458,91.515 254.518,87 C255.578,82.485 259.409,79.156 264.027,78.736 C268.646,78.317 273.014,80.901 274.871,85.15 C275.464,86.512 277.05,87.137 278.414,86.543 C279.778,85.949 280.402,84.362 279.809,82.999 C277.154,76.93 271.064,73.097 264.444,73.329 C257.824,73.56 252.017,77.809 249.793,84.049 C247.569,90.288 249.379,97.253 254.359,101.619 L243.61,119.077 C243.559,119.077 243.512,119.077 243.462,119.077 C240.488,119.077 238.077,121.488 238.077,124.462 C238.077,127.435 240.488,129.846 243.462,129.846 Z M286.538,108.308 C284.463,108.308 282.406,108.707 280.481,109.482 L269.738,92.019 C270.889,89.887 270.475,87.249 268.725,85.573 C266.975,83.897 264.322,83.596 262.241,84.837 C260.161,86.079 259.165,88.557 259.809,90.892 C260.453,93.228 262.577,94.846 265,94.846 L265.148,94.846 L277.189,114.416 C277.97,115.68 279.626,116.073 280.891,115.294 C284.778,112.898 289.753,113.214 293.306,116.081 C296.859,118.949 298.218,123.745 296.696,128.05 C295.175,132.355 291.104,135.233 286.538,135.231 C285.052,135.231 283.846,136.436 283.846,137.923 C283.846,139.41 285.052,140.615 286.538,140.615 C295.46,140.615 302.692,133.383 302.692,124.462 C302.692,115.54 295.46,108.308 286.538,108.308 Z" />
        </g>
        <g id="Regular-S">
            <path d="M481.881,127.154 L459.387,127.154 C458.27,133.758 453.194,138.989 446.626,140.302 C440.058,141.616 433.361,138.74 429.791,133.073 C426.221,127.406 426.518,120.123 430.538,114.766 C431.43,113.577 433.118,113.336 434.308,114.228 C435.498,115.121 435.739,116.809 434.847,117.999 C433.442,119.86 432.685,122.13 432.692,124.462 C432.692,130.409 437.514,135.231 443.462,135.231 C449.409,135.231 454.231,130.409 454.231,124.462 C454.231,123.747 454.514,123.063 455.019,122.558 C455.524,122.053 456.209,121.769 456.923,121.769 L481.881,121.769 C483.099,119.659 485.584,118.63 487.938,119.26 C490.292,119.891 491.929,122.024 491.929,124.462 C491.929,126.899 490.292,129.032 487.938,129.663 C485.584,130.293 483.099,129.264 481.881,127.154 Z M443.462,129.846 C445.359,129.847 447.116,128.849 448.088,127.22 C449.06,125.59 449.102,123.569 448.2,121.9 L460.238,102.334 C461.016,101.068 460.621,99.411 459.356,98.632 C455.407,96.201 453.458,91.515 454.518,87 C455.578,82.485 459.409,79.156 464.027,78.736 C468.646,78.317 473.014,80.901 474.871,85.15 C475.464,86.512 477.05,87.137 478.414,86.543 C479.778,85.949 480.402,84.362 479.809,82.999 C477.154,76.93 471.064,73.097 464.444,73.329 C457.824,73.56 452.017,77.809 449.793,84.049 C447.569,90.288 449.379,97.253 454.359,101.619 L443.61,119.077 C443.559,119.077 443.512,119.077 443.462,119.077 C440.488,119.077 438.077,121.488 438.077,124.462 C438.077,127.435 440.488,129.846 443.462,129.846 Z M486.538,108.308 C484.463,108.308 482.406,108.707 480.481,109.482 L469.738,92.019 C470.889,89.887 470.474,87.249 468.725,85.573 C466.975,83.897 464.322,83.596 462.241,84.837 C460.161,86.079 459.165,88.557 459.809,90.892 C460.453,93.228 462.577,94.846 465,94.846 L465.148,94.846 L477.189,114.416 C477.97,115.68 479.626,116.073 480.891,115.294 C484.778,112.898 489.753,113.214 493.306,116.081 C496.859,118.949 498.218,123.745 496.696,128.05 C495.175,132.355 491.104,135.233 486.538,135.231 C485.052,135.231 483.846,136.436 483.846,137.923 C483.846,139.41 485.052,140.615 486.538,140.615 C495.46,140.615 502.692,133.383 502.692,124.462 C502.692,115.54 495.46,108.308 486.538,108.308 Z" />
        </g>
        <g id="Black-S">
            <path d="M681.881,127.154 L659.387,127.154 C658.271,133.758 653.194,138.989 646.626,140.302 C640.059,141.616 633.361,138.74 629.791,133.073 C626.221,127.406 626.518,120.123 630.538,114.766 C631.43,113.577 633.118,113.336 634.308,114.228 C635.498,115.121 635.739,116.809 634.847,117.999 C633.442,119.86 632.685,122.13 632.692,124.462 C632.692,130.409 637.514,135.231 643.462,135.231 C649.409,135.231 654.231,130.409 654.231,124.462 C654.231,123.747 654.514,123.063 655.019,122.558 C655.524,122.053 656.209,121.769 656.923,121.769 L681.881,121.769 C683.099,119.659 685.584,118.63 687.938,119.26 C690.292,119.891 691.929,122.024 691.929,124.462 C691.929,126.899 690.292,129.032 687.938,129.663 C685.584,130.293 683.099,129.264 681.881,127.154 Z M643.462,129.846 C645.359,129.847 647.116,128.849 648.088,127.22 C649.06,125.59 649.102,123.569 648.2,121.9 L660.238,102.334 C661.016,101.068 660.621,99.411 659.356,98.632 C655.407,96.201 653.458,91.515 654.518,87 C655.578,82.485 659.409,79.156 664.027,78.736 C668.646,78.317 673.014,80.901 674.871,85.15 C675.464,86.512 677.05,87.137 678.414,86.543 C679.778,85.949 680.402,84.362 679.809,82.999 C677.154,76.93 671.064,73.097 664.444,73.329 C657.824,73.56 652.017,77.809 649.793,84.049 C647.569,90.288 649.379,97.253 654.359,101.619 L643.61,119.077 C643.559,119.077 643.512,119.077 643.462,119.077 C640.488,119.077 638.077,121.488 638.077,124.462 C638.077,127.435 640.488,129.846 643.462,129.846 Z M686.538,108.308 C684.463,108.308 682.406,108.707 680.481,109.482 L669.738,92.019 C670.889,89.887 670.475,87.249 668.725,85.573 C666.975,83.897 664.322,83.596 662.241,84.837 C660.161,86.079 659.165,88.557 659.809,90.892 C660.453,93.228 662.577,94.846 665,94.846 L665.148,94.846 L677.189,114.416 C677.97,115.68 679.626,116.073 680.891,115.294 C684.778,112.898 689.753,113.214 693.306,116.081 C696.859,118.949 698.218,123.745 696.696,128.05 C695.175,132.355 691.104,135.233 686.538,135.231 C685.052,135.231 683.846,136.436 683.846,137.923 C683.846,139.41 685.052,140.615 686.538,140.615 C695.46,140.615 702.692,133.383 702.692,124.462 C702.692,115.54 695.46,108.308 686.538,108.308 Z" />
        </g>
    </g>
</svg>