<?xml version="1.0" encoding="UTF-8"?>
<svg height="600" width="800" xmlns="http://www.w3.org/2000/svg" xmlns:xlink="http://www.w3.org/1999/xlink">
    <g id="Notes" font-family="'LucidaGrande', 'Lucida Grande', sans-serif" font-size="13">
        <rect fill="white" height="600.0" width="800.0" x="0.0" y="0.0" />
        <g font-size="13">
            <text x="18.0" y="176.0">Small</text>
            <text x="18.0" y="376.0">Medium</text>
            <text x="18.0" y="576.0">Large</text>
        </g>
        <g font-size="9">
            <text x="250.0" y="30.0">Ultralight</text>
            <text x="450.0" y="30.0">Regular</text>
            <text x="650.0" y="30.0">Black</text>
            <text id="template-version" fill="#505050" text-anchor="end" x="785.0" y="575.0">Template v.3.0</text>
            <a href="https://github.com/swhitty/SwiftDraw">
                <text fill="#505050" text-anchor="end" x="785.0" y="590.0">https://github.com/swhitty/SwiftDraw</text>
            </a>
        </g>
    </g>
    <g id="Guides" stroke="rgb(39, 170, 225)" stroke-width="0.5">
        <path id="Capline-S" d="M18,76 l800,0" />
        <path id="H-reference" d="M85,145.755 L87.685,145.755 L113.369,79.287 L114.052,79.287 L114.052,76 L112.148,76 L85,145.755 Z M95.693,121.536 L130.996,121.536 L130.263,119.313 L96.474,119.313 L95.693,121.536 Z M139.15,145.755 L141.787,145.755 L114.638,76 L113.466,76 L113.466,79.287 L139.15,145.755 Z" stroke="none" />
        <path id="Baseline-S" d="M18,146 l800,0" />
        <path id="left-margin-Ultralight-S" d="M220,56 l0,110" />
        <path id="right-margin-Ultralight-S" d="M310,56 l0,110" />
        <path id="left-margin-Regular-S" d="M420,56 l0,110" />
        <path id="right-margin-Regular-S" d="M510,56 l0,110" />
        <path id="left-margin-Black-S" d="M620,56 l0,110" />
        <path id="right-margin-Black-S" d="M710,56 l0,110" />
        <path id="Capline-M" d="M18,276 l800,0" />
        <path id="Baseline-M" d="M18,346 l800,0" />
        <path id="Capline-L" d="M18,476 l800,0" />
        <path id="Baseline-L" d="M18,546 l800,0" />
    </g>
    <g id="Symbols">
        <g id="Ultralight-S">
            <path d="M238.077,128.5 C238.077,132.202 240.493,135.231 243.462,135.231 C244.774,135.201 246.018,134.634 246.901,133.663 C247.933,132.611 249.619,132.585 250.683,133.603 C251.748,134.622 251.796,136.307 250.791,137.385 C248.897,139.424 246.245,140.593 243.462,140.615 C237.522,140.615 232.692,135.18 232.692,128.5 C232.692,121.82 237.522,116.385 243.462,116.385 C246.245,116.407 248.897,117.576 250.791,119.615 C251.796,120.693 251.748,122.378 250.683,123.397 C249.619,124.415 247.933,124.389 246.901,123.338 C246.018,122.366 244.774,121.799 243.462,121.769 C240.493,121.769 238.077,124.798 238.077,128.5 Z M294.615,97.538 L294.615,140.615 C294.615,142.043 294.048,143.413 293.038,144.423 C292.028,145.433 290.659,146 289.231,146 L262.308,146 C260.821,146 259.615,144.795 259.615,143.308 C259.615,141.821 260.821,140.615 262.308,140.615 L289.231,140.615 L289.231,100.231 L273.077,100.231 C272.363,100.231 271.678,99.947 271.173,99.442 C270.668,98.937 270.385,98.253 270.385,97.538 L270.385,81.385 L240.769,81.385 L240.769,105.615 C240.769,107.102 239.564,108.308 238.077,108.308 C236.59,108.308 235.385,107.102 235.385,105.615 L235.385,81.385 C235.385,79.957 235.952,78.587 236.962,77.577 C237.972,76.567 239.341,76 240.769,76 L273.077,76 C273.791,75.999 274.476,76.283 274.982,76.788 L293.828,95.634 C294.333,96.139 294.616,96.824 294.615,97.538 Z M275.769,94.846 L285.425,94.846 L275.769,85.191 Z" />
        </g>
        <g id="Regular-S">
            <path d="M438.077,128.5 C438.077,132.202 440.493,135.231 443.462,135.231 C444.774,135.201 446.018,134.634 446.901,133.663 C447.933,132.611 449.619,132.585 450.683,133.603 C451.748,134.622 451.796,136.307 450.791,137.385 C448.897,139.424 446.245,140.593 443.462,140.615 C437.522,140.615 432.692,135.18 432.692,128.5 C432.692,121.82 437.522,116.385 443.462,116.385 C446.245,116.407 448.897,117.576 450.791,119.615 C451.796,120.693 451.748,122.378 450.683,123.397 C449.619,124.415 447.933,124.389 446.901,123.338 C446.018,122.366 444.774,121.799 443.462,121.769 C440.493,121.769 438.077,124.798 438.077,128.5 Z M494.615,97.538 L494.615,140.615 C494.615,142.043 494.048,143.413 493.038,144.423 C492.028,145.433 490.659,146 489.231,146 L462.308,146 C460.821,146 459.615,144.795 459.615,143.308 C459.615,141.821 460.821,140.615 462.308,140.615 L489.231,140.615 L489.231,100.231 L473.077,100.231 C472.363,100.231 471.678,99.947 471.173,99.442 C470.668,98.937 470.385,98.253 470.385,97.538 L470.385,81.385 L440.769,81.385 L440.769,105.615 C440.769,107.102 439.564,108.308 438.077,108.308 C436.59,108.308 435.385,107.102 435.385,105.615 L435.385,81.385 C435.385,79.957 435.952,78.587 436.962,77.577 C437.972,76.567 439.341,76 440.769,76 L473.077,76 C473.791,75.999 474.476,76.283 474.982,76.788 L493.828,95.634 C494.333,96.139 494.616,96.824 494.615,97.538 Z M475.769,94.846 L485.424,94.846 L475.769,85.191 Z" />
        </g>
        <g id="Black-S">
            <path d="M638.077,128.5 C638.077,132.202 640.493,135.231 643.462,135.231 C644.774,135.201 646.018,134.634 646.901,133.663 C647.933,132.611 649.619,132.585 650.683,133.603 C651.748,134.622 651.796,136.307 650.791,137.385 C648.897,139.424 646.245,140.593 643.462,140.615 C637.522,140.615 632.692,135.18 632.692,128.5 C632.692,121.82 637.522,116.385 643.462,116.385 C646.245,116.407 648.897,117.576 650.791,119.615 C651.796,120.693 651.748,122.378 650.683,123.397 C649.619,124.415 647.933,124.389 646.901,123.338 C646.018,122.366 644.774,121.799 643.462,121.769 C640.493,121.769 638.077,124.798 638.077,128.5 Z M694.615,97.538 L694.615,140.615 C694.615,142.043 694.048,143.413 693.038,144.423 C692.028,145.433 690.659,146 689.231,146 L662.308,146 C660.821,146 659.615,144.795 659.615,143.308 C659.615,141.821 660.821,140.615 662.308,140.615 L689.231,140.615 L689.231,100.231 L673.077,100.231 C672.363,100.231 671.678,99.947 671.173,99.442 C670.668,98.937 670.385,98.253 670.385,97.538 L670.385,81.385 L640.769,81.385 L640.769,105.615 C640.769,107.102 639.564,108.308 638.077,108.308 C636.59,108.308 635.385,107.102 635.385,105.615 L635.385,81.385 C635.385,79.957 635.952,78.587 636.962,77.577 C637.972,76.567 639.341,76 640.769,76 L673.077,76 C673.791,75.999 674.476,76.283 674.982,76.788 L693.828,95.634 C694.333,96.139 694.616,96.824 694.615,97.538 Z M675.769,94.846 L685.425,94.846 L675.769,85.191 Z" />
        </g>
    </g>
</svg>