<?xml version="1.0" encoding="UTF-8"?>
<svg height="600" width="800" xmlns="http://www.w3.org/2000/svg" xmlns:xlink="http://www.w3.org/1999/xlink">
    <g id="Notes" font-family="'LucidaGrande', 'Lucida Grande', sans-serif" font-size="13">
        <rect fill="white" height="600.0" width="800.0" x="0.0" y="0.0" />
        <g font-size="13">
            <text x="18.0" y="176.0">Small</text>
            <text x="18.0" y="376.0">Medium</text>
            <text x="18.0" y="576.0">Large</text>
        </g>
        <g font-size="9">
            <text x="250.0" y="30.0">Ultralight</text>
            <text x="450.0" y="30.0">Regular</text>
            <text x="650.0" y="30.0">Black</text>
            <text id="template-version" fill="#505050" text-anchor="end" x="785.0" y="575.0">Template v.3.0</text>
            <a href="https://github.com/swhitty/SwiftDraw">
                <text fill="#505050" text-anchor="end" x="785.0" y="590.0">https://github.com/swhitty/SwiftDraw</text>
            </a>
        </g>
    </g>
    <g id="Guides" stroke="rgb(39, 170, 225)" stroke-width="0.5">
        <path id="Capline-S" d="M18,76 l800,0" />
        <path id="H-reference" d="M85,145.755 L87.685,145.755 L113.369,79.287 L114.052,79.287 L114.052,76 L112.148,76 L85,145.755 Z M95.693,121.536 L130.996,121.536 L130.263,119.313 L96.474,119.313 L95.693,121.536 Z M139.15,145.755 L141.787,145.755 L114.638,76 L113.466,76 L113.466,79.287 L139.15,145.755 Z" stroke="none" />
        <path id="Baseline-S" d="M18,146 l800,0" />
        <path id="left-margin-Ultralight-S" d="M220,56 l0,110" />
        <path id="right-margin-Ultralight-S" d="M310,56 l0,110" />
        <path id="left-margin-Regular-S" d="M420,56 l0,110" />
        <path id="right-margin-Regular-S" d="M510,56 l0,110" />
        <path id="left-margin-Black-S" d="M620,56 l0,110" />
        <path id="right-margin-Black-S" d="M710,56 l0,110" />
        <path id="Capline-M" d="M18,276 l800,0" />
        <path id="Baseline-M" d="M18,346 l800,0" />
        <path id="Capline-L" d="M18,476 l800,0" />
        <path id="Baseline-L" d="M18,546 l800,0" />
    </g>
    <g id="Symbols">
        <g id="Ultralight-S">
            <path d="M291.923,78.692 L238.077,78.692 C236.649,78.692 235.279,79.26 234.269,80.269 C233.26,81.279 232.692,82.649 232.692,84.077 L232.692,137.923 C232.692,139.351 233.26,140.721 234.269,141.731 C235.279,142.74 236.649,143.308 238.077,143.308 L291.923,143.308 C293.351,143.308 294.721,142.74 295.731,141.731 C296.74,140.721 297.308,139.351 297.308,137.923 L297.308,84.077 C297.308,82.649 296.74,81.279 295.731,80.269 C294.721,79.26 293.351,78.692 291.923,78.692 Z M291.923,137.923 L238.077,137.923 L238.077,84.077 L291.923,84.077 Z M252.326,110.213 C251.82,109.708 251.536,109.022 251.536,108.308 C251.536,107.593 251.82,106.908 252.326,106.403 L263.095,95.634 C263.6,95.128 264.285,94.844 265,94.844 C265.715,94.844 266.4,95.128 266.905,95.634 L277.674,106.403 C278.727,107.457 278.726,109.162 277.673,110.214 C276.62,111.265 274.915,111.264 273.863,110.211 L267.692,104.037 L267.692,124.462 C267.692,125.948 266.487,127.154 265,127.154 C263.513,127.154 262.308,125.948 262.308,124.462 L262.308,104.037 L256.136,110.213 C255.631,110.718 254.945,111.002 254.231,111.002 C253.516,111.002 252.831,110.718 252.326,110.213 Z" />
        </g>
        <g id="Regular-S">
            <path d="M491.923,78.692 L438.077,78.692 C436.649,78.692 435.279,79.26 434.269,80.269 C433.26,81.279 432.692,82.649 432.692,84.077 L432.692,137.923 C432.692,139.351 433.26,140.721 434.269,141.731 C435.279,142.74 436.649,143.308 438.077,143.308 L491.923,143.308 C493.351,143.308 494.721,142.74 495.731,141.731 C496.74,140.721 497.308,139.351 497.308,137.923 L497.308,84.077 C497.308,82.649 496.74,81.279 495.731,80.269 C494.721,79.26 493.351,78.692 491.923,78.692 Z M491.923,137.923 L438.077,137.923 L438.077,84.077 L491.923,84.077 Z M452.326,110.213 C451.82,109.708 451.536,109.022 451.536,108.308 C451.536,107.593 451.82,106.908 452.326,106.403 L463.095,95.634 C463.6,95.128 464.285,94.844 465,94.844 C465.715,94.844 466.4,95.128 466.905,95.634 L477.674,106.403 C478.727,107.457 478.726,109.162 477.673,110.214 C476.62,111.265 474.915,111.264 473.863,110.211 L467.692,104.037 L467.692,124.462 C467.692,125.948 466.487,127.154 465,127.154 C463.513,127.154 462.308,125.948 462.308,124.462 L462.308,104.037 L456.136,110.213 C455.631,110.718 454.945,111.002 454.231,111.002 C453.516,111.002 452.831,110.718 452.326,110.213 Z" />
        </g>
        <g id="Black-S">
            <path d="M691.923,78.692 L638.077,78.692 C636.649,78.692 635.279,79.26 634.269,80.269 C633.26,81.279 632.692,82.649 632.692,84.077 L632.692,137.923 C632.692,139.351 633.26,140.721 634.269,141.731 C635.279,142.74 636.649,143.308 638.077,143.308 L691.923,143.308 C693.351,143.308 694.721,142.74 695.731,141.731 C696.74,140.721 697.308,139.351 697.308,137.923 L697.308,84.077 C697.308,82.649 696.74,81.279 695.731,80.269 C694.721,79.26 693.351,78.692 691.923,78.692 Z M691.923,137.923 L638.077,137.923 L638.077,84.077 L691.923,84.077 Z M652.326,110.213 C651.82,109.708 651.536,109.022 651.536,108.308 C651.536,107.593 651.82,106.908 652.326,106.403 L663.095,95.634 C663.6,95.128 664.285,94.844 665,94.844 C665.715,94.844 666.4,95.128 666.905,95.634 L677.674,106.403 C678.727,107.457 678.726,109.162 677.673,110.214 C676.62,111.265 674.915,111.264 673.863,110.211 L667.692,104.037 L667.692,124.462 C667.692,125.948 666.487,127.154 665,127.154 C663.513,127.154 662.308,125.948 662.308,124.462 L662.308,104.037 L656.136,110.213 C655.631,110.718 654.945,111.002 654.231,111.002 C653.516,111.002 652.831,110.718 652.326,110.213 Z" />
        </g>
    </g>
</svg>