<?xml version="1.0" encoding="UTF-8"?>
<svg height="600" width="800" xmlns="http://www.w3.org/2000/svg" xmlns:xlink="http://www.w3.org/1999/xlink">
    <g id="Notes" font-family="'LucidaGrande', 'Lucida Grande', sans-serif" font-size="13">
        <rect fill="white" height="600.0" width="800.0" x="0.0" y="0.0" />
        <g font-size="13">
            <text x="18.0" y="176.0">Small</text>
            <text x="18.0" y="376.0">Medium</text>
            <text x="18.0" y="576.0">Large</text>
        </g>
        <g font-size="9">
            <text x="250.0" y="30.0">Ultralight</text>
            <text x="450.0" y="30.0">Regular</text>
            <text x="650.0" y="30.0">Black</text>
            <text id="template-version" fill="#505050" text-anchor="end" x="785.0" y="575.0">Template v.3.0</text>
            <a href="https://github.com/swhitty/SwiftDraw">
                <text fill="#505050" text-anchor="end" x="785.0" y="590.0">https://github.com/swhitty/SwiftDraw</text>
            </a>
        </g>
    </g>
    <g id="Guides" stroke="rgb(39, 170, 225)" stroke-width="0.5">
        <path id="Capline-S" d="M18,76 l800,0" />
        <path id="H-reference" d="M85,145.755 L87.685,145.755 L113.369,79.287 L114.052,79.287 L114.052,76 L112.148,76 L85,145.755 Z M95.693,121.536 L130.996,121.536 L130.263,119.313 L96.474,119.313 L95.693,121.536 Z M139.15,145.755 L141.787,145.755 L114.638,76 L113.466,76 L113.466,79.287 L139.15,145.755 Z" stroke="none" />
        <path id="Baseline-S" d="M18,146 l800,0" />
        <path id="left-margin-Ultralight-S" d="M220,56 l0,110" />
        <path id="right-margin-Ultralight-S" d="M310,56 l0,110" />
        <path id="left-margin-Regular-S" d="M420,56 l0,110" />
        <path id="right-margin-Regular-S" d="M510,56 l0,110" />
        <path id="left-margin-Black-S" d="M620,56 l0,110" />
        <path id="right-margin-Black-S" d="M710,56 l0,110" />
        <path id="Capline-M" d="M18,276 l800,0" />
        <path id="Baseline-M" d="M18,346 l800,0" />
        <path id="Capline-L" d="M18,476 l800,0" />
        <path id="Baseline-L" d="M18,546 l800,0" />
    </g>
    <g id="Symbols">
        <g id="Ultralight-S">
            <path d="M291.923,116.385 L267.692,116.385 L267.692,99.958 C274.463,98.576 279.088,92.291 278.393,85.416 C277.699,78.54 271.911,73.307 265,73.307 C258.089,73.307 252.301,78.54 251.607,85.416 C250.912,92.291 255.537,98.576 262.308,99.958 L262.308,116.385 L238.077,116.385 C236.649,116.385 235.279,116.952 234.269,117.962 C233.26,118.972 232.692,120.341 232.692,121.769 L232.692,137.923 C232.692,139.351 233.26,140.721 234.269,141.731 C235.279,142.74 236.649,143.308 238.077,143.308 L291.923,143.308 C293.351,143.308 294.721,142.74 295.731,141.731 C296.74,140.721 297.308,139.351 297.308,137.923 L297.308,121.769 C297.308,120.341 296.74,118.972 295.731,117.962 C294.721,116.952 293.351,116.385 291.923,116.385 Z M256.923,86.769 C256.923,82.308 260.539,78.692 265,78.692 C269.461,78.692 273.077,82.308 273.077,86.769 C273.077,91.23 269.461,94.846 265,94.846 C262.858,94.846 260.803,93.995 259.289,92.48 C257.774,90.966 256.923,88.911 256.923,86.769 Z M291.923,137.923 L238.077,137.923 L238.077,121.769 L291.923,121.769 L291.923,137.923 Z M278.462,105.615 L289.231,105.615 C290.718,105.615 291.923,106.821 291.923,108.308 C291.923,109.795 290.718,111 289.231,111 L278.462,111 C276.975,111 275.769,109.795 275.769,108.308 C275.769,106.821 276.975,105.615 278.462,105.615 Z" />
        </g>
        <g id="Regular-S">
            <path d="M491.923,116.385 L467.692,116.385 L467.692,99.958 C474.463,98.576 479.088,92.291 478.393,85.416 C477.699,78.54 471.911,73.307 465,73.307 C458.089,73.307 452.301,78.54 451.607,85.416 C450.912,92.291 455.537,98.576 462.308,99.958 L462.308,116.385 L438.077,116.385 C436.649,116.385 435.279,116.952 434.269,117.962 C433.26,118.972 432.692,120.341 432.692,121.769 L432.692,137.923 C432.692,139.351 433.26,140.721 434.269,141.731 C435.279,142.74 436.649,143.308 438.077,143.308 L491.923,143.308 C493.351,143.308 494.721,142.74 495.731,141.731 C496.74,140.721 497.308,139.351 497.308,137.923 L497.308,121.769 C497.308,120.341 496.74,118.972 495.731,117.962 C494.721,116.952 493.351,116.385 491.923,116.385 Z M456.923,86.769 C456.923,82.308 460.539,78.692 465,78.692 C469.461,78.692 473.077,82.308 473.077,86.769 C473.077,91.23 469.461,94.846 465,94.846 C462.858,94.846 460.803,93.995 459.289,92.48 C457.774,90.966 456.923,88.911 456.923,86.769 Z M491.923,137.923 L438.077,137.923 L438.077,121.769 L491.923,121.769 L491.923,137.923 Z M478.462,105.615 L489.231,105.615 C490.718,105.615 491.923,106.821 491.923,108.308 C491.923,109.795 490.718,111 489.231,111 L478.462,111 C476.975,111 475.769,109.795 475.769,108.308 C475.769,106.821 476.975,105.615 478.462,105.615 Z" />
        </g>
        <g id="Black-S">
            <path d="M691.923,116.385 L667.692,116.385 L667.692,99.958 C674.463,98.576 679.088,92.291 678.393,85.416 C677.699,78.54 671.911,73.307 665,73.307 C658.089,73.307 652.301,78.54 651.607,85.416 C650.912,92.291 655.537,98.576 662.308,99.958 L662.308,116.385 L638.077,116.385 C636.649,116.385 635.279,116.952 634.269,117.962 C633.26,118.972 632.692,120.341 632.692,121.769 L632.692,137.923 C632.692,139.351 633.26,140.721 634.269,141.731 C635.279,142.74 636.649,143.308 638.077,143.308 L691.923,143.308 C693.351,143.308 694.721,142.74 695.731,141.731 C696.74,140.721 697.308,139.351 697.308,137.923 L697.308,121.769 C697.308,120.341 696.74,118.972 695.731,117.962 C694.721,116.952 693.351,116.385 691.923,116.385 Z M656.923,86.769 C656.923,82.308 660.539,78.692 665,78.692 C669.461,78.692 673.077,82.308 673.077,86.769 C673.077,91.23 669.461,94.846 665,94.846 C662.858,94.846 660.803,93.995 659.289,92.48 C657.774,90.966 656.923,88.911 656.923,86.769 Z M691.923,137.923 L638.077,137.923 L638.077,121.769 L691.923,121.769 L691.923,137.923 Z M678.462,105.615 L689.231,105.615 C690.718,105.615 691.923,106.821 691.923,108.308 C691.923,109.795 690.718,111 689.231,111 L678.462,111 C676.975,111 675.769,109.795 675.769,108.308 C675.769,106.821 676.975,105.615 678.462,105.615 Z" />
        </g>
    </g>
</svg>