<?xml version="1.0" encoding="UTF-8"?>
<svg height="600" width="800" xmlns="http://www.w3.org/2000/svg" xmlns:xlink="http://www.w3.org/1999/xlink">
    <g id="Notes" font-family="'LucidaGrande', 'Lucida Grande', sans-serif" font-size="13">
        <rect fill="white" height="600.0" width="800.0" x="0.0" y="0.0" />
        <g font-size="13">
            <text x="18.0" y="176.0">Small</text>
            <text x="18.0" y="376.0">Medium</text>
            <text x="18.0" y="576.0">Large</text>
        </g>
        <g font-size="9">
            <text x="250.0" y="30.0">Ultralight</text>
            <text x="450.0" y="30.0">Regular</text>
            <text x="650.0" y="30.0">Black</text>
            <text id="template-version" fill="#505050" text-anchor="end" x="785.0" y="575.0">Template v.3.0</text>
            <a href="https://github.com/swhitty/SwiftDraw">
                <text fill="#505050" text-anchor="end" x="785.0" y="590.0">https://github.com/swhitty/SwiftDraw</text>
            </a>
        </g>
    </g>
    <g id="Guides" stroke="rgb(39, 170, 225)" stroke-width="0.5">
        <path id="Capline-S" d="M18,76 l800,0" />
        <path id="H-reference" d="M85,145.755 L87.685,145.755 L113.369,79.287 L114.052,79.287 L114.052,76 L112.148,76 L85,145.755 Z M95.693,121.536 L130.996,121.536 L130.263,119.313 L96.474,119.313 L95.693,121.536 Z M139.15,145.755 L141.787,145.755 L114.638,76 L113.466,76 L113.466,79.287 L139.15,145.755 Z" stroke="none" />
        <path id="Baseline-S" d="M18,146 l800,0" />
        <path id="left-margin-Ultralight-S" d="M220,56 l0,110" />
        <path id="right-margin-Ultralight-S" d="M310,56 l0,110" />
        <path id="left-margin-Regular-S" d="M420,56 l0,110" />
        <path id="right-margin-Regular-S" d="M510,56 l0,110" />
        <path id="left-margin-Black-S" d="M620,56 l0,110" />
        <path id="right-margin-Black-S" d="M710,56 l0,110" />
        <path id="Capline-M" d="M18,276 l800,0" />
        <path id="Baseline-M" d="M18,346 l800,0" />
        <path id="Capline-L" d="M18,476 l800,0" />
        <path id="Baseline-L" d="M18,546 l800,0" />
    </g>
    <g id="Symbols">
        <g id="Ultralight-S">
            <path d="M297.934,102.526 C296.665,101.2 295.352,99.834 294.858,98.632 C294.4,97.532 294.373,95.708 294.346,93.941 C294.296,90.656 294.242,86.934 291.654,84.346 C289.066,81.758 285.344,81.704 282.059,81.654 C280.292,81.627 278.468,81.6 277.368,81.142 C276.166,80.648 274.8,79.335 273.474,78.066 C271.149,75.835 268.513,73.308 265,73.308 C261.487,73.308 258.851,75.835 256.526,78.066 C255.2,79.335 253.834,80.648 252.632,81.142 C251.538,81.6 249.708,81.627 247.941,81.654 C244.656,81.704 240.934,81.758 238.346,84.346 C235.758,86.934 235.721,90.656 235.654,93.941 C235.627,95.708 235.6,97.532 235.142,98.632 C234.648,99.834 233.335,101.2 232.066,102.526 C229.835,104.848 227.308,107.487 227.308,111 C227.308,114.513 229.835,117.149 232.066,119.474 C233.335,120.8 234.648,122.166 235.142,123.368 C235.6,124.468 235.627,126.292 235.654,128.059 C235.704,131.344 235.758,135.066 238.346,137.654 C240.934,140.242 244.656,140.296 247.941,140.346 C249.708,140.373 251.532,140.4 252.632,140.858 C253.83,141.352 255.2,142.665 256.526,143.934 C258.851,146.165 261.487,148.692 265,148.692 C268.513,148.692 271.149,146.165 273.474,143.934 C274.8,142.665 276.166,141.352 277.368,140.858 C278.468,140.4 280.292,140.373 282.059,140.346 C285.344,140.296 289.066,140.242 291.654,137.654 C294.242,135.066 294.296,131.344 294.346,128.059 C294.373,126.292 294.4,124.468 294.858,123.368 C295.352,122.17 296.665,120.8 297.934,119.474 C300.165,117.152 302.692,114.513 302.692,111 C302.692,107.487 300.165,104.851 297.934,102.526 Z M294.047,115.749 C292.435,117.431 290.765,119.171 289.88,121.308 C289.032,123.361 288.995,125.707 288.962,127.978 C288.928,130.334 288.891,132.801 287.844,133.844 C286.798,134.888 284.348,134.928 281.978,134.962 C279.707,134.995 277.361,135.032 275.308,135.88 C273.171,136.765 271.431,138.435 269.749,140.047 C268.066,141.659 266.346,143.308 265,143.308 C263.654,143.308 261.924,141.652 260.251,140.047 C258.579,138.441 256.829,136.765 254.692,135.88 C252.639,135.032 250.293,134.995 248.022,134.962 C245.666,134.928 243.199,134.891 242.156,133.844 C241.113,132.798 241.072,130.348 241.038,127.978 C241.005,125.707 240.968,123.361 240.12,121.308 C239.235,119.171 237.565,117.431 235.953,115.749 C234.341,114.066 232.692,112.346 232.692,111 C232.692,109.654 234.348,107.924 235.953,106.251 C237.559,104.579 239.235,102.829 240.12,100.692 C240.968,98.639 241.005,96.293 241.038,94.022 C241.072,91.666 241.109,89.199 242.156,88.156 C243.202,87.113 245.652,87.072 248.022,87.038 C250.293,87.005 252.639,86.968 254.692,86.12 C256.829,85.235 258.569,83.565 260.251,81.953 C261.934,80.341 263.654,78.692 265,78.692 C266.346,78.692 268.076,80.348 269.749,81.953 C271.421,83.559 273.171,85.235 275.308,86.12 C277.361,86.968 279.707,87.005 281.978,87.038 C284.334,87.072 286.801,87.109 287.844,88.156 C288.888,89.202 288.928,91.652 288.962,94.022 C288.995,96.293 289.032,98.639 289.88,100.692 C290.765,102.829 292.435,104.569 294.047,106.251 C295.659,107.934 297.308,109.654 297.308,111 C297.308,112.346 295.652,114.076 294.047,115.749 Z" />
        </g>
        <g id="Regular-S">
            <path d="M497.934,102.526 C496.665,101.2 495.352,99.834 494.858,98.632 C494.4,97.532 494.373,95.708 494.346,93.941 C494.296,90.656 494.242,86.934 491.654,84.346 C489.066,81.758 485.344,81.704 482.059,81.654 C480.292,81.627 478.468,81.6 477.368,81.142 C476.166,80.648 474.8,79.335 473.474,78.066 C471.149,75.835 468.513,73.308 465,73.308 C461.487,73.308 458.851,75.835 456.526,78.066 C455.2,79.335 453.834,80.648 452.632,81.142 C451.538,81.6 449.708,81.627 447.941,81.654 C444.656,81.704 440.934,81.758 438.346,84.346 C435.758,86.934 435.721,90.656 435.654,93.941 C435.627,95.708 435.6,97.532 435.142,98.632 C434.648,99.834 433.335,101.2 432.066,102.526 C429.835,104.848 427.308,107.487 427.308,111 C427.308,114.513 429.835,117.149 432.066,119.474 C433.335,120.8 434.648,122.166 435.142,123.368 C435.6,124.468 435.627,126.292 435.654,128.059 C435.704,131.344 435.758,135.066 438.346,137.654 C440.934,140.242 444.656,140.296 447.941,140.346 C449.708,140.373 451.532,140.4 452.632,140.858 C453.83,141.352 455.2,142.665 456.526,143.934 C458.851,146.165 461.487,148.692 465,148.692 C468.513,148.692 471.149,146.165 473.474,143.934 C474.8,142.665 476.166,141.352 477.368,140.858 C478.468,140.4 480.292,140.373 482.059,140.346 C485.344,140.296 489.066,140.242 491.654,137.654 C494.242,135.066 494.296,131.344 494.346,128.059 C494.373,126.292 494.4,124.468 494.858,123.368 C495.352,122.17 496.665,120.8 497.934,119.474 C500.165,117.152 502.692,114.513 502.692,111 C502.692,107.487 500.165,104.851 497.934,102.526 Z M494.047,115.749 C492.435,117.431 490.765,119.171 489.88,121.308 C489.032,123.361 488.995,125.707 488.962,127.978 C488.928,130.334 488.891,132.801 487.844,133.844 C486.798,134.888 484.348,134.928 481.978,134.962 C479.707,134.995 477.361,135.032 475.308,135.88 C473.171,136.765 471.431,138.435 469.749,140.047 C468.066,141.659 466.346,143.308 465,143.308 C463.654,143.308 461.924,141.652 460.251,140.047 C458.579,138.441 456.829,136.765 454.692,135.88 C452.639,135.032 450.293,134.995 448.022,134.962 C445.666,134.928 443.199,134.891 442.156,133.844 C441.112,132.798 441.072,130.348 441.038,127.978 C441.005,125.707 440.968,123.361 440.12,121.308 C439.235,119.171 437.565,117.431 435.953,115.749 C434.341,114.066 432.692,112.346 432.692,111 C432.692,109.654 434.348,107.924 435.953,106.251 C437.559,104.579 439.235,102.829 440.12,100.692 C440.968,98.639 441.005,96.293 441.038,94.022 C441.072,91.666 441.109,89.199 442.156,88.156 C443.202,87.113 445.652,87.072 448.022,87.038 C450.293,87.005 452.639,86.968 454.692,86.12 C456.829,85.235 458.569,83.565 460.251,81.953 C461.934,80.341 463.654,78.692 465,78.692 C466.346,78.692 468.076,80.348 469.749,81.953 C471.421,83.559 473.171,85.235 475.308,86.12 C477.361,86.968 479.707,87.005 481.978,87.038 C484.334,87.072 486.801,87.109 487.844,88.156 C488.887,89.202 488.928,91.652 488.962,94.022 C488.995,96.293 489.032,98.639 489.88,100.692 C490.765,102.829 492.435,104.569 494.047,106.251 C495.659,107.934 497.308,109.654 497.308,111 C497.308,112.346 495.652,114.076 494.047,115.749 Z" />
        </g>
        <g id="Black-S">
            <path d="M697.934,102.526 C696.665,101.2 695.352,99.834 694.858,98.632 C694.4,97.532 694.373,95.708 694.346,93.941 C694.296,90.656 694.242,86.934 691.654,84.346 C689.066,81.758 685.344,81.704 682.059,81.654 C680.292,81.627 678.468,81.6 677.368,81.142 C676.166,80.648 674.8,79.335 673.474,78.066 C671.149,75.835 668.513,73.308 665,73.308 C661.487,73.308 658.851,75.835 656.526,78.066 C655.2,79.335 653.834,80.648 652.632,81.142 C651.538,81.6 649.708,81.627 647.941,81.654 C644.656,81.704 640.934,81.758 638.346,84.346 C635.758,86.934 635.721,90.656 635.654,93.941 C635.627,95.708 635.6,97.532 635.142,98.632 C634.648,99.834 633.335,101.2 632.066,102.526 C629.835,104.848 627.308,107.487 627.308,111 C627.308,114.513 629.835,117.149 632.066,119.474 C633.335,120.8 634.648,122.166 635.142,123.368 C635.6,124.468 635.627,126.292 635.654,128.059 C635.704,131.344 635.758,135.066 638.346,137.654 C640.934,140.242 644.656,140.296 647.941,140.346 C649.708,140.373 651.532,140.4 652.632,140.858 C653.83,141.352 655.2,142.665 656.526,143.934 C658.851,146.165 661.487,148.692 665,148.692 C668.513,148.692 671.149,146.165 673.474,143.934 C674.8,142.665 676.166,141.352 677.368,140.858 C678.468,140.4 680.292,140.373 682.059,140.346 C685.344,140.296 689.066,140.242 691.654,137.654 C694.242,135.066 694.296,131.344 694.346,128.059 C694.373,126.292 694.4,124.468 694.858,123.368 C695.352,122.17 696.665,120.8 697.934,119.474 C700.165,117.152 702.692,114.513 702.692,111 C702.692,107.487 700.165,104.851 697.934,102.526 Z M694.047,115.749 C692.435,117.431 690.765,119.171 689.88,121.308 C689.032,123.361 688.995,125.707 688.962,127.978 C688.928,130.334 688.891,132.801 687.844,133.844 C686.798,134.888 684.348,134.928 681.978,134.962 C679.707,134.995 677.361,135.032 675.308,135.88 C673.171,136.765 671.431,138.435 669.749,140.047 C668.066,141.659 666.346,143.308 665,143.308 C663.654,143.308 661.924,141.652 660.251,140.047 C658.579,138.441 656.829,136.765 654.692,135.88 C652.639,135.032 650.293,134.995 648.022,134.962 C645.666,134.928 643.199,134.891 642.156,133.844 C641.113,132.798 641.072,130.348 641.038,127.978 C641.005,125.707 640.968,123.361 640.12,121.308 C639.235,119.171 637.565,117.431 635.953,115.749 C634.341,114.066 632.692,112.346 632.692,111 C632.692,109.654 634.348,107.924 635.953,106.251 C637.559,104.579 639.235,102.829 640.12,100.692 C640.968,98.639 641.005,96.293 641.038,94.022 C641.072,91.666 641.109,89.199 642.156,88.156 C643.202,87.113 645.652,87.072 648.022,87.038 C650.293,87.005 652.639,86.968 654.692,86.12 C656.829,85.235 658.569,83.565 660.251,81.953 C661.934,80.341 663.654,78.692 665,78.692 C666.346,78.692 668.076,80.348 669.749,81.953 C671.421,83.559 673.171,85.235 675.308,86.12 C677.361,86.968 679.707,87.005 681.978,87.038 C684.334,87.072 686.801,87.109 687.844,88.156 C688.888,89.202 688.928,91.652 688.962,94.022 C688.995,96.293 689.032,98.639 689.88,100.692 C690.765,102.829 692.435,104.569 694.047,106.251 C695.659,107.934 697.308,109.654 697.308,111 C697.308,112.346 695.652,114.076 694.047,115.749 Z" />
        </g>
    </g>
</svg>