<?xml version="1.0" encoding="UTF-8"?>
<svg height="600" width="800" xmlns="http://www.w3.org/2000/svg" xmlns:xlink="http://www.w3.org/1999/xlink">
    <g id="Notes" font-family="'LucidaGrande', 'Lucida Grande', sans-serif" font-size="13">
        <rect fill="white" height="600.0" width="800.0" x="0.0" y="0.0" />
        <g font-size="13">
            <text x="18.0" y="176.0">Small</text>
            <text x="18.0" y="376.0">Medium</text>
            <text x="18.0" y="576.0">Large</text>
        </g>
        <g font-size="9">
            <text x="250.0" y="30.0">Ultralight</text>
            <text x="450.0" y="30.0">Regular</text>
            <text x="650.0" y="30.0">Black</text>
            <text id="template-version" fill="#505050" text-anchor="end" x="785.0" y="575.0">Template v.3.0</text>
            <a href="https://github.com/swhitty/SwiftDraw">
                <text fill="#505050" text-anchor="end" x="785.0" y="590.0">https://github.com/swhitty/SwiftDraw</text>
            </a>
        </g>
    </g>
    <g id="Guides" stroke="rgb(39, 170, 225)" stroke-width="0.5">
        <path id="Capline-S" d="M18,76 l800,0" />
        <path id="H-reference" d="M85,145.755 L87.685,145.755 L113.369,79.287 L114.052,79.287 L114.052,76 L112.148,76 L85,145.755 Z M95.693,121.536 L130.996,121.536 L130.263,119.313 L96.474,119.313 L95.693,121.536 Z M139.15,145.755 L141.787,145.755 L114.638,76 L113.466,76 L113.466,79.287 L139.15,145.755 Z" stroke="none" />
        <path id="Baseline-S" d="M18,146 l800,0" />
        <path id="left-margin-Ultralight-S" d="M220,56 l0,110" />
        <path id="right-margin-Ultralight-S" d="M310,56 l0,110" />
        <path id="left-margin-Regular-S" d="M420,56 l0,110" />
        <path id="right-margin-Regular-S" d="M510,56 l0,110" />
        <path id="left-margin-Black-S" d="M620,56 l0,110" />
        <path id="right-margin-Black-S" d="M710,56 l0,110" />
        <path id="Capline-M" d="M18,276 l800,0" />
        <path id="Baseline-M" d="M18,346 l800,0" />
        <path id="Capline-L" d="M18,476 l800,0" />
        <path id="Baseline-L" d="M18,546 l800,0" />
    </g>
    <g id="Symbols">
        <g id="Ultralight-S">
            <path d="M293.828,133.326 C294.88,134.38 294.879,136.085 293.827,137.137 C292.774,138.188 291.069,138.187 290.017,137.135 L283.846,130.96 L277.674,137.136 C276.624,138.187 274.918,138.188 273.865,137.137 C272.813,136.085 272.812,134.38 273.863,133.327 L280.04,127.154 L273.864,120.982 C272.812,119.928 272.813,118.222 273.865,117.171 C274.918,116.12 276.624,116.121 277.675,117.173 L283.846,123.348 L290.018,117.172 C291.069,116.121 292.774,116.12 293.827,117.171 C294.879,118.222 294.88,119.928 293.829,120.981 L287.652,127.154 Z M275.769,108.308 C276.483,108.308 277.168,108.024 277.673,107.519 C278.178,107.014 278.462,106.329 278.462,105.615 L278.462,92.154 C278.462,90.667 277.256,89.462 275.769,89.462 C274.282,89.462 273.077,90.667 273.077,92.154 L273.077,105.615 C273.077,106.329 273.361,107.014 273.865,107.519 C274.37,108.024 275.055,108.308 275.769,108.308 Z M289.231,108.308 C289.945,108.308 290.63,108.024 291.135,107.519 C291.639,107.014 291.923,106.329 291.923,105.615 L291.923,78.692 C291.923,77.205 290.718,76 289.231,76 C287.744,76 286.538,77.205 286.538,78.692 L286.538,105.615 C286.538,106.329 286.822,107.014 287.327,107.519 C287.832,108.024 288.517,108.308 289.231,108.308 Z M262.308,102.923 C261.594,102.923 260.909,103.207 260.404,103.712 C259.899,104.217 259.615,104.901 259.615,105.615 L259.615,135.231 C259.615,136.718 260.821,137.923 262.308,137.923 C263.795,137.923 265,136.718 265,135.231 L265,105.615 C265,104.901 264.716,104.217 264.211,103.712 C263.707,103.207 263.022,102.923 262.308,102.923 Z M248.846,116.385 C248.132,116.385 247.447,116.668 246.942,117.173 C246.438,117.678 246.154,118.363 246.154,119.077 L246.154,135.231 C246.154,136.718 247.359,137.923 248.846,137.923 C250.333,137.923 251.538,136.718 251.538,135.231 L251.538,119.077 C251.538,118.363 251.255,117.678 250.75,117.173 C250.245,116.668 249.56,116.385 248.846,116.385 Z M235.385,129.846 C234.671,129.846 233.986,130.13 233.481,130.635 C232.976,131.14 232.692,131.824 232.692,132.538 L232.692,135.231 C232.692,136.718 233.898,137.923 235.385,137.923 C236.872,137.923 238.077,136.718 238.077,135.231 L238.077,132.538 C238.077,131.824 237.793,131.14 237.288,130.635 C236.783,130.13 236.099,129.846 235.385,129.846 Z" />
        </g>
        <g id="Regular-S">
            <path d="M493.828,133.326 C494.88,134.38 494.879,136.085 493.827,137.137 C492.774,138.188 491.069,138.187 490.017,137.135 L483.846,130.96 L477.674,137.136 C476.624,138.187 474.918,138.188 473.865,137.137 C472.813,136.085 472.812,134.38 473.863,133.327 L480.04,127.154 L473.864,120.982 C472.812,119.928 472.813,118.222 473.865,117.171 C474.918,116.12 476.624,116.121 477.675,117.173 L483.846,123.348 L490.018,117.172 C491.069,116.121 492.774,116.12 493.827,117.171 C494.879,118.222 494.88,119.928 493.829,120.981 L487.652,127.154 Z M475.769,108.308 C476.483,108.308 477.168,108.024 477.673,107.519 C478.178,107.014 478.462,106.329 478.462,105.615 L478.462,92.154 C478.462,90.667 477.256,89.462 475.769,89.462 C474.282,89.462 473.077,90.667 473.077,92.154 L473.077,105.615 C473.077,106.329 473.361,107.014 473.865,107.519 C474.37,108.024 475.055,108.308 475.769,108.308 Z M489.231,108.308 C489.945,108.308 490.63,108.024 491.135,107.519 C491.639,107.014 491.923,106.329 491.923,105.615 L491.923,78.692 C491.923,77.205 490.718,76 489.231,76 C487.744,76 486.538,77.205 486.538,78.692 L486.538,105.615 C486.538,106.329 486.822,107.014 487.327,107.519 C487.832,108.024 488.517,108.308 489.231,108.308 Z M462.308,102.923 C461.594,102.923 460.909,103.207 460.404,103.712 C459.899,104.217 459.615,104.901 459.615,105.615 L459.615,135.231 C459.615,136.718 460.821,137.923 462.308,137.923 C463.795,137.923 465,136.718 465,135.231 L465,105.615 C465,104.901 464.716,104.217 464.211,103.712 C463.707,103.207 463.022,102.923 462.308,102.923 Z M448.846,116.385 C448.132,116.385 447.447,116.668 446.942,117.173 C446.438,117.678 446.154,118.363 446.154,119.077 L446.154,135.231 C446.154,136.718 447.359,137.923 448.846,137.923 C450.333,137.923 451.538,136.718 451.538,135.231 L451.538,119.077 C451.538,118.363 451.255,117.678 450.75,117.173 C450.245,116.668 449.56,116.385 448.846,116.385 Z M435.385,129.846 C434.671,129.846 433.986,130.13 433.481,130.635 C432.976,131.14 432.692,131.824 432.692,132.538 L432.692,135.231 C432.692,136.718 433.898,137.923 435.385,137.923 C436.872,137.923 438.077,136.718 438.077,135.231 L438.077,132.538 C438.077,131.824 437.793,131.14 437.288,130.635 C436.783,130.13 436.099,129.846 435.385,129.846 Z" />
        </g>
        <g id="Black-S">
            <path d="M693.828,133.326 C694.88,134.38 694.879,136.085 693.827,137.137 C692.774,138.188 691.069,138.187 690.017,137.135 L683.846,130.96 L677.674,137.136 C676.624,138.187 674.918,138.188 673.865,137.137 C672.813,136.085 672.812,134.38 673.863,133.327 L680.04,127.154 L673.864,120.982 C672.812,119.928 672.813,118.222 673.865,117.171 C674.918,116.12 676.624,116.121 677.675,117.173 L683.846,123.348 L690.018,117.172 C691.069,116.121 692.774,116.12 693.827,117.171 C694.879,118.222 694.88,119.928 693.829,120.981 L687.652,127.154 Z M675.769,108.308 C676.483,108.308 677.168,108.024 677.673,107.519 C678.178,107.014 678.462,106.329 678.462,105.615 L678.462,92.154 C678.462,90.667 677.256,89.462 675.769,89.462 C674.282,89.462 673.077,90.667 673.077,92.154 L673.077,105.615 C673.077,106.329 673.361,107.014 673.865,107.519 C674.37,108.024 675.055,108.308 675.769,108.308 Z M689.231,108.308 C689.945,108.308 690.63,108.024 691.135,107.519 C691.639,107.014 691.923,106.329 691.923,105.615 L691.923,78.692 C691.923,77.205 690.718,76 689.231,76 C687.744,76 686.538,77.205 686.538,78.692 L686.538,105.615 C686.538,106.329 686.822,107.014 687.327,107.519 C687.832,108.024 688.517,108.308 689.231,108.308 Z M662.308,102.923 C661.594,102.923 660.909,103.207 660.404,103.712 C659.899,104.217 659.615,104.901 659.615,105.615 L659.615,135.231 C659.615,136.718 660.821,137.923 662.308,137.923 C663.795,137.923 665,136.718 665,135.231 L665,105.615 C665,104.901 664.716,104.217 664.211,103.712 C663.707,103.207 663.022,102.923 662.308,102.923 Z M648.846,116.385 C648.132,116.385 647.447,116.668 646.942,117.173 C646.438,117.678 646.154,118.363 646.154,119.077 L646.154,135.231 C646.154,136.718 647.359,137.923 648.846,137.923 C650.333,137.923 651.538,136.718 651.538,135.231 L651.538,119.077 C651.538,118.363 651.255,117.678 650.75,117.173 C650.245,116.668 649.56,116.385 648.846,116.385 Z M635.385,129.846 C634.671,129.846 633.986,130.13 633.481,130.635 C632.976,131.14 632.692,131.824 632.692,132.538 L632.692,135.231 C632.692,136.718 633.898,137.923 635.385,137.923 C636.872,137.923 638.077,136.718 638.077,135.231 L638.077,132.538 C638.077,131.824 637.793,131.14 637.288,130.635 C636.783,130.13 636.099,129.846 635.385,129.846 Z" />
        </g>
    </g>
</svg>