<?xml version="1.0" encoding="UTF-8"?>
<svg height="600" width="800" xmlns="http://www.w3.org/2000/svg" xmlns:xlink="http://www.w3.org/1999/xlink">
    <g id="Notes" font-family="'LucidaGrande', 'Lucida Grande', sans-serif" font-size="13">
        <rect fill="white" height="600.0" width="800.0" x="0.0" y="0.0" />
        <g font-size="13">
            <text x="18.0" y="176.0">Small</text>
            <text x="18.0" y="376.0">Medium</text>
            <text x="18.0" y="576.0">Large</text>
        </g>
        <g font-size="9">
            <text x="250.0" y="30.0">Ultralight</text>
            <text x="450.0" y="30.0">Regular</text>
            <text x="650.0" y="30.0">Black</text>
            <text id="template-version" fill="#505050" text-anchor="end" x="785.0" y="575.0">Template v.3.0</text>
            <a href="https://github.com/swhitty/SwiftDraw">
                <text fill="#505050" text-anchor="end" x="785.0" y="590.0">https://github.com/swhitty/SwiftDraw</text>
            </a>
        </g>
    </g>
    <g id="Guides" stroke="rgb(39, 170, 225)" stroke-width="0.5">
        <path id="Capline-S" d="M18,76 l800,0" />
        <path id="H-reference" d="M85,145.755 L87.685,145.755 L113.369,79.287 L114.052,79.287 L114.052,76 L112.148,76 L85,145.755 Z M95.693,121.536 L130.996,121.536 L130.263,119.313 L96.474,119.313 L95.693,121.536 Z M139.15,145.755 L141.787,145.755 L114.638,76 L113.466,76 L113.466,79.287 L139.15,145.755 Z" stroke="none" />
        <path id="Baseline-S" d="M18,146 l800,0" />
        <path id="left-margin-Ultralight-S" d="M220,56 l0,110" />
        <path id="right-margin-Ultralight-S" d="M310,56 l0,110" />
        <path id="left-margin-Regular-S" d="M420,56 l0,110" />
        <path id="right-margin-Regular-S" d="M510,56 l0,110" />
        <path id="left-margin-Black-S" d="M620,56 l0,110" />
        <path id="right-margin-Black-S" d="M710,56 l0,110" />
        <path id="Capline-M" d="M18,276 l800,0" />
        <path id="Baseline-M" d="M18,346 l800,0" />
        <path id="Capline-L" d="M18,476 l800,0" />
        <path id="Baseline-L" d="M18,546 l800,0" />
    </g>
    <g id="Symbols">
        <g id="Ultralight-S">
            <path d="M254.231,92.154 C254.231,91.44 254.514,90.755 255.019,90.25 C255.524,89.745 256.209,89.462 256.923,89.462 C276.245,89.482 291.903,105.14 291.923,124.462 C291.923,125.948 290.718,127.154 289.231,127.154 C287.744,127.154 286.538,125.948 286.538,124.462 C286.521,108.114 273.273,94.865 256.924,94.846 C256.21,94.846 255.525,94.563 255.02,94.058 C254.515,93.553 254.231,92.868 254.231,92.154 Z M302.692,132.538 L248.846,132.538 L248.846,78.692 C248.846,77.205 247.641,76 246.154,76 C244.667,76 243.462,77.205 243.462,78.692 L243.462,89.462 L232.692,89.462 C231.205,89.462 230,90.667 230,92.154 C230,93.641 231.205,94.846 232.692,94.846 L243.462,94.846 L243.462,135.231 C243.462,135.945 243.745,136.63 244.25,137.135 C244.755,137.639 245.44,137.923 246.154,137.923 L302.692,137.923 C304.179,137.923 305.385,136.718 305.385,135.231 C305.385,133.744 304.179,132.538 302.692,132.538 Z" />
        </g>
        <g id="Regular-S">
            <path d="M454.231,92.154 C454.231,91.44 454.514,90.755 455.019,90.25 C455.524,89.745 456.209,89.462 456.923,89.462 C476.245,89.482 491.903,105.14 491.923,124.462 C491.923,125.948 490.718,127.154 489.231,127.154 C487.744,127.154 486.538,125.948 486.538,124.462 C486.521,108.114 473.273,94.865 456.924,94.846 C456.21,94.846 455.525,94.563 455.02,94.058 C454.515,93.553 454.231,92.868 454.231,92.154 Z M502.692,132.538 L448.846,132.538 L448.846,78.692 C448.846,77.205 447.641,76 446.154,76 C444.667,76 443.462,77.205 443.462,78.692 L443.462,89.462 L432.692,89.462 C431.205,89.462 430,90.667 430,92.154 C430,93.641 431.205,94.846 432.692,94.846 L443.462,94.846 L443.462,135.231 C443.462,135.945 443.745,136.63 444.25,137.135 C444.755,137.639 445.44,137.923 446.154,137.923 L502.692,137.923 C504.179,137.923 505.385,136.718 505.385,135.231 C505.385,133.744 504.179,132.538 502.692,132.538 Z" />
        </g>
        <g id="Black-S">
            <path d="M654.231,92.154 C654.231,91.44 654.514,90.755 655.019,90.25 C655.524,89.745 656.209,89.462 656.923,89.462 C676.245,89.482 691.903,105.14 691.923,124.462 C691.923,125.948 690.718,127.154 689.231,127.154 C687.744,127.154 686.538,125.948 686.538,124.462 C686.521,108.114 673.273,94.865 656.924,94.846 C656.21,94.846 655.525,94.563 655.02,94.058 C654.515,93.553 654.231,92.868 654.231,92.154 Z M702.692,132.538 L648.846,132.538 L648.846,78.692 C648.846,77.205 647.641,76 646.154,76 C644.667,76 643.462,77.205 643.462,78.692 L643.462,89.462 L632.692,89.462 C631.205,89.462 630,90.667 630,92.154 C630,93.641 631.205,94.846 632.692,94.846 L643.462,94.846 L643.462,135.231 C643.462,135.945 643.745,136.63 644.25,137.135 C644.755,137.639 645.44,137.923 646.154,137.923 L702.692,137.923 C704.179,137.923 705.385,136.718 705.385,135.231 C705.385,133.744 704.179,132.538 702.692,132.538 Z" />
        </g>
    </g>
</svg>