<?xml version="1.0" encoding="UTF-8"?>
<svg height="600" width="800" xmlns="http://www.w3.org/2000/svg" xmlns:xlink="http://www.w3.org/1999/xlink">
    <g id="Notes" font-family="'LucidaGrande', 'Lucida Grande', sans-serif" font-size="13">
        <rect fill="white" height="600.0" width="800.0" x="0.0" y="0.0" />
        <g font-size="13">
            <text x="18.0" y="176.0">Small</text>
            <text x="18.0" y="376.0">Medium</text>
            <text x="18.0" y="576.0">Large</text>
        </g>
        <g font-size="9">
            <text x="250.0" y="30.0">Ultralight</text>
            <text x="450.0" y="30.0">Regular</text>
            <text x="650.0" y="30.0">Black</text>
            <text id="template-version" fill="#505050" text-anchor="end" x="785.0" y="575.0">Template v.3.0</text>
            <a href="https://github.com/swhitty/SwiftDraw">
                <text fill="#505050" text-anchor="end" x="785.0" y="590.0">https://github.com/swhitty/SwiftDraw</text>
            </a>
        </g>
    </g>
    <g id="Guides" stroke="rgb(39, 170, 225)" stroke-width="0.5">
        <path id="Capline-S" d="M18,76 l800,0" />
        <path id="H-reference" d="M85,145.755 L87.685,145.755 L113.369,79.287 L114.052,79.287 L114.052,76 L112.148,76 L85,145.755 Z M95.693,121.536 L130.996,121.536 L130.263,119.313 L96.474,119.313 L95.693,121.536 Z M139.15,145.755 L141.787,145.755 L114.638,76 L113.466,76 L113.466,79.287 L139.15,145.755 Z" stroke="none" />
        <path id="Baseline-S" d="M18,146 l800,0" />
        <path id="left-margin-Ultralight-S" d="M220,56 l0,110" />
        <path id="right-margin-Ultralight-S" d="M310,56 l0,110" />
        <path id="left-margin-Regular-S" d="M420,56 l0,110" />
        <path id="right-margin-Regular-S" d="M510,56 l0,110" />
        <path id="left-margin-Black-S" d="M620,56 l0,110" />
        <path id="right-margin-Black-S" d="M710,56 l0,110" />
        <path id="Capline-M" d="M18,276 l800,0" />
        <path id="Baseline-M" d="M18,346 l800,0" />
        <path id="Capline-L" d="M18,476 l800,0" />
        <path id="Baseline-L" d="M18,546 l800,0" />
    </g>
    <g id="Symbols">
        <g id="Ultralight-S">
            <path d="M281.154,94.846 C281.154,94.132 281.438,93.447 281.942,92.942 C282.447,92.438 283.132,92.154 283.846,92.154 L294.615,92.154 C296.102,92.154 297.308,93.359 297.308,94.846 C297.308,96.333 296.102,97.538 294.615,97.538 L283.846,97.538 C283.132,97.538 282.447,97.255 281.942,96.75 C281.438,96.245 281.154,95.56 281.154,94.846 Z M235.385,97.538 L270.385,97.538 L270.385,102.923 C270.385,104.41 271.59,105.615 273.077,105.615 C274.564,105.615 275.769,104.41 275.769,102.923 L275.769,86.769 C275.769,85.282 274.564,84.077 273.077,84.077 C271.59,84.077 270.385,85.282 270.385,86.769 L270.385,92.154 L235.385,92.154 C233.898,92.154 232.692,93.359 232.692,94.846 C232.692,96.333 233.898,97.538 235.385,97.538 Z M294.615,124.462 L262.308,124.462 C260.821,124.462 259.615,125.667 259.615,127.154 C259.615,128.641 260.821,129.846 262.308,129.846 L294.615,129.846 C296.102,129.846 297.308,128.641 297.308,127.154 C297.308,125.667 296.102,124.462 294.615,124.462 Z M251.538,116.385 C250.824,116.385 250.14,116.668 249.635,117.173 C249.13,117.678 248.846,118.363 248.846,119.077 L248.846,124.462 L235.385,124.462 C233.898,124.462 232.692,125.667 232.692,127.154 C232.692,128.641 233.898,129.846 235.385,129.846 L248.846,129.846 L248.846,135.231 C248.846,136.718 250.052,137.923 251.538,137.923 C253.025,137.923 254.231,136.718 254.231,135.231 L254.231,119.077 C254.231,118.363 253.947,117.678 253.442,117.173 C252.937,116.668 252.253,116.385 251.538,116.385 Z" />
        </g>
        <g id="Regular-S">
            <path d="M481.154,94.846 C481.154,94.132 481.438,93.447 481.942,92.942 C482.447,92.438 483.132,92.154 483.846,92.154 L494.615,92.154 C496.102,92.154 497.308,93.359 497.308,94.846 C497.308,96.333 496.102,97.538 494.615,97.538 L483.846,97.538 C483.132,97.538 482.447,97.255 481.942,96.75 C481.438,96.245 481.154,95.56 481.154,94.846 Z M435.385,97.538 L470.385,97.538 L470.385,102.923 C470.385,104.41 471.59,105.615 473.077,105.615 C474.564,105.615 475.769,104.41 475.769,102.923 L475.769,86.769 C475.769,85.282 474.564,84.077 473.077,84.077 C471.59,84.077 470.385,85.282 470.385,86.769 L470.385,92.154 L435.385,92.154 C433.898,92.154 432.692,93.359 432.692,94.846 C432.692,96.333 433.898,97.538 435.385,97.538 Z M494.615,124.462 L462.308,124.462 C460.821,124.462 459.615,125.667 459.615,127.154 C459.615,128.641 460.821,129.846 462.308,129.846 L494.615,129.846 C496.102,129.846 497.308,128.641 497.308,127.154 C497.308,125.667 496.102,124.462 494.615,124.462 Z M451.538,116.385 C450.824,116.385 450.14,116.668 449.635,117.173 C449.13,117.678 448.846,118.363 448.846,119.077 L448.846,124.462 L435.385,124.462 C433.898,124.462 432.692,125.667 432.692,127.154 C432.692,128.641 433.898,129.846 435.385,129.846 L448.846,129.846 L448.846,135.231 C448.846,136.718 450.052,137.923 451.538,137.923 C453.025,137.923 454.231,136.718 454.231,135.231 L454.231,119.077 C454.231,118.363 453.947,117.678 453.442,117.173 C452.937,116.668 452.253,116.385 451.538,116.385 Z" />
        </g>
        <g id="Black-S">
            <path d="M681.154,94.846 C681.154,94.132 681.438,93.447 681.942,92.942 C682.447,92.438 683.132,92.154 683.846,92.154 L694.615,92.154 C696.102,92.154 697.308,93.359 697.308,94.846 C697.308,96.333 696.102,97.538 694.615,97.538 L683.846,97.538 C683.132,97.538 682.447,97.255 681.942,96.75 C681.438,96.245 681.154,95.56 681.154,94.846 Z M635.385,97.538 L670.385,97.538 L670.385,102.923 C670.385,104.41 671.59,105.615 673.077,105.615 C674.564,105.615 675.769,104.41 675.769,102.923 L675.769,86.769 C675.769,85.282 674.564,84.077 673.077,84.077 C671.59,84.077 670.385,85.282 670.385,86.769 L670.385,92.154 L635.385,92.154 C633.898,92.154 632.692,93.359 632.692,94.846 C632.692,96.333 633.898,97.538 635.385,97.538 Z M694.615,124.462 L662.308,124.462 C660.821,124.462 659.615,125.667 659.615,127.154 C659.615,128.641 660.821,129.846 662.308,129.846 L694.615,129.846 C696.102,129.846 697.308,128.641 697.308,127.154 C697.308,125.667 696.102,124.462 694.615,124.462 Z M651.538,116.385 C650.824,116.385 650.14,116.668 649.635,117.173 C649.13,117.678 648.846,118.363 648.846,119.077 L648.846,124.462 L635.385,124.462 C633.898,124.462 632.692,125.667 632.692,127.154 C632.692,128.641 633.898,129.846 635.385,129.846 L648.846,129.846 L648.846,135.231 C648.846,136.718 650.052,137.923 651.538,137.923 C653.025,137.923 654.231,136.718 654.231,135.231 L654.231,119.077 C654.231,118.363 653.947,117.678 653.442,117.173 C652.937,116.668 652.253,116.385 651.538,116.385 Z" />
        </g>
    </g>
</svg>