<?xml version="1.0" encoding="UTF-8"?>
<svg height="600" width="800" xmlns="http://www.w3.org/2000/svg" xmlns:xlink="http://www.w3.org/1999/xlink">
    <g id="Notes" font-family="'LucidaGrande', 'Lucida Grande', sans-serif" font-size="13">
        <rect fill="white" height="600.0" width="800.0" x="0.0" y="0.0" />
        <g font-size="13">
            <text x="18.0" y="176.0">Small</text>
            <text x="18.0" y="376.0">Medium</text>
            <text x="18.0" y="576.0">Large</text>
        </g>
        <g font-size="9">
            <text x="250.0" y="30.0">Ultralight</text>
            <text x="450.0" y="30.0">Regular</text>
            <text x="650.0" y="30.0">Black</text>
            <text id="template-version" fill="#505050" text-anchor="end" x="785.0" y="575.0">Template v.3.0</text>
            <a href="https://github.com/swhitty/SwiftDraw">
                <text fill="#505050" text-anchor="end" x="785.0" y="590.0">https://github.com/swhitty/SwiftDraw</text>
            </a>
        </g>
    </g>
    <g id="Guides" stroke="rgb(39, 170, 225)" stroke-width="0.5">
        <path id="Capline-S" d="M18,76 l800,0" />
        <path id="H-reference" d="M85,145.755 L87.685,145.755 L113.369,79.287 L114.052,79.287 L114.052,76 L112.148,76 L85,145.755 Z M95.693,121.536 L130.996,121.536 L130.263,119.313 L96.474,119.313 L95.693,121.536 Z M139.15,145.755 L141.787,145.755 L114.638,76 L113.466,76 L113.466,79.287 L139.15,145.755 Z" stroke="none" />
        <path id="Baseline-S" d="M18,146 l800,0" />
        <path id="left-margin-Ultralight-S" d="M220,56 l0,110" />
        <path id="right-margin-Ultralight-S" d="M310,56 l0,110" />
        <path id="left-margin-Regular-S" d="M420,56 l0,110" />
        <path id="right-margin-Regular-S" d="M510,56 l0,110" />
        <path id="left-margin-Black-S" d="M620,56 l0,110" />
        <path id="right-margin-Black-S" d="M710,56 l0,110" />
        <path id="Capline-M" d="M18,276 l800,0" />
        <path id="Baseline-M" d="M18,346 l800,0" />
        <path id="Capline-L" d="M18,476 l800,0" />
        <path id="Baseline-L" d="M18,546 l800,0" />
    </g>
    <g id="Symbols">
        <g id="Ultralight-S">
            <path d="M277.115,92.154 C274.812,92.152 272.518,92.461 270.297,93.073 C269.42,91.642 268.355,90.336 267.13,89.189 L270.331,84.622 C271.184,83.403 270.887,81.723 269.669,80.871 C268.45,80.018 266.771,80.315 265.918,81.534 L262.718,86.096 C260.086,84.767 257.179,84.076 254.231,84.077 C254.036,84.077 253.84,84.077 253.645,84.077 L252.673,78.595 C252.534,77.622 251.876,76.802 250.956,76.456 C250.037,76.11 249.002,76.292 248.256,76.931 C247.51,77.57 247.171,78.565 247.372,79.527 L248.341,85.026 C245.355,86.014 242.664,87.731 240.51,90.024 L235.926,86.816 C235.139,86.251 234.108,86.152 233.227,86.559 C232.347,86.966 231.753,87.815 231.673,88.781 C231.593,89.748 232.039,90.682 232.84,91.228 L237.404,94.432 C236.07,97.064 235.378,99.973 235.385,102.923 C235.385,103.115 235.385,103.31 235.385,103.502 L229.902,104.471 C228.527,104.712 227.564,105.965 227.685,107.356 C227.806,108.747 228.97,109.815 230.367,109.815 C230.524,109.815 230.68,109.802 230.835,109.775 L236.327,108.806 C236.809,110.275 237.472,111.679 238.299,112.986 C233.029,117.881 231.291,125.502 233.917,132.198 C236.544,138.894 243,143.301 250.192,143.308 L277.115,143.308 C291.241,143.308 302.692,131.857 302.692,117.731 C302.692,103.605 291.241,92.154 277.115,92.154 Z M240.769,102.923 C240.772,97.075 244.552,91.896 250.123,90.111 C255.693,88.326 261.779,90.343 265.181,95.101 C259.689,97.991 255.43,102.774 253.194,108.563 C249.654,107.952 246.013,108.442 242.761,109.966 C241.459,107.847 240.77,105.41 240.769,102.923 Z M277.115,137.923 L250.192,137.923 C245.677,137.915 241.54,135.396 239.461,131.387 C237.381,127.379 237.703,122.547 240.296,118.85 C242.89,115.153 247.324,113.205 251.801,113.797 C251.676,114.594 251.589,115.409 251.542,116.23 C251.537,117.874 252.745,119.081 254.234,119.081 C255.724,119.081 256.931,117.874 256.931,116.385 C257.006,115.042 257.218,113.71 257.564,112.41 C257.564,112.356 257.594,112.302 257.604,112.249 C260.426,102.194 270.443,95.945 280.715,97.83 C290.986,99.716 298.13,109.117 297.196,119.518 C296.262,129.919 287.559,137.897 277.115,137.923 Z" />
        </g>
        <g id="Regular-S">
            <path d="M477.115,92.154 C474.812,92.152 472.518,92.461 470.297,93.073 C469.42,91.642 468.355,90.336 467.13,89.189 L470.331,84.622 C471.184,83.403 470.887,81.723 469.669,80.871 C468.45,80.018 466.771,80.315 465.918,81.534 L462.718,86.096 C460.086,84.767 457.179,84.076 454.231,84.077 C454.036,84.077 453.84,84.077 453.645,84.077 L452.673,78.595 C452.534,77.622 451.876,76.802 450.956,76.456 C450.037,76.11 449.002,76.292 448.256,76.931 C447.51,77.57 447.171,78.565 447.372,79.527 L448.341,85.026 C445.355,86.014 442.664,87.731 440.51,90.024 L435.926,86.816 C435.139,86.251 434.108,86.152 433.227,86.559 C432.347,86.966 431.753,87.815 431.673,88.781 C431.593,89.748 432.039,90.682 432.84,91.228 L437.404,94.432 C436.07,97.064 435.378,99.973 435.385,102.923 C435.385,103.115 435.385,103.31 435.385,103.502 L429.902,104.471 C428.527,104.712 427.564,105.965 427.685,107.356 C427.806,108.747 428.97,109.815 430.367,109.815 C430.524,109.815 430.68,109.802 430.835,109.775 L436.327,108.806 C436.809,110.275 437.472,111.679 438.299,112.986 C433.029,117.881 431.291,125.502 433.917,132.198 C436.544,138.894 443,143.301 450.192,143.308 L477.115,143.308 C491.241,143.308 502.692,131.857 502.692,117.731 C502.692,103.605 491.241,92.154 477.115,92.154 Z M440.769,102.923 C440.772,97.075 444.552,91.896 450.123,90.111 C455.693,88.326 461.779,90.343 465.181,95.101 C459.689,97.991 455.43,102.774 453.194,108.563 C449.654,107.952 446.013,108.442 442.761,109.966 C441.459,107.847 440.77,105.41 440.769,102.923 Z M477.115,137.923 L450.192,137.923 C445.677,137.915 441.54,135.396 439.46,131.387 C437.381,127.379 437.703,122.547 440.296,118.85 C442.89,115.153 447.324,113.205 451.801,113.797 C451.676,114.594 451.589,115.409 451.542,116.23 C451.537,117.874 452.745,119.081 454.234,119.081 C455.723,119.081 456.931,117.874 456.931,116.385 C457.006,115.042 457.218,113.71 457.564,112.41 C457.564,112.356 457.594,112.302 457.604,112.249 C460.426,102.194 470.443,95.945 480.715,97.83 C490.986,99.716 498.13,109.117 497.196,119.518 C496.262,129.919 487.559,137.897 477.115,137.923 Z" />
        </g>
        <g id="Black-S">
            <path d="M677.115,92.154 C674.812,92.152 672.518,92.461 670.297,93.073 C669.42,91.642 668.355,90.336 667.13,89.189 L670.331,84.622 C671.184,83.403 670.887,81.723 669.669,80.871 C668.45,80.018 666.771,80.315 665.918,81.534 L662.718,86.096 C660.086,84.767 657.179,84.076 654.231,84.077 C654.036,84.077 653.84,84.077 653.645,84.077 L652.673,78.595 C652.534,77.622 651.876,76.802 650.956,76.456 C650.037,76.11 649.002,76.292 648.256,76.931 C647.51,77.57 647.171,78.565 647.372,79.527 L648.341,85.026 C645.355,86.014 642.664,87.731 640.51,90.024 L635.926,86.816 C635.139,86.251 634.108,86.152 633.227,86.559 C632.347,86.966 631.753,87.815 631.673,88.781 C631.593,89.748 632.039,90.682 632.84,91.228 L637.404,94.432 C636.07,97.064 635.378,99.973 635.385,102.923 C635.385,103.115 635.385,103.31 635.385,103.502 L629.902,104.471 C628.527,104.712 627.564,105.965 627.685,107.356 C627.806,108.747 628.97,109.815 630.367,109.815 C630.524,109.815 630.68,109.802 630.835,109.775 L636.327,108.806 C636.81,110.275 637.472,111.679 638.299,112.986 C633.029,117.881 631.291,125.502 633.917,132.198 C636.544,138.894 643,143.301 650.192,143.308 L677.115,143.308 C691.241,143.308 702.692,131.857 702.692,117.731 C702.692,103.605 691.241,92.154 677.115,92.154 Z M640.769,102.923 C640.772,97.075 644.552,91.896 650.123,90.111 C655.693,88.326 661.779,90.343 665.181,95.101 C659.689,97.991 655.43,102.774 653.194,108.563 C649.654,107.952 646.013,108.442 642.761,109.966 C641.459,107.847 640.77,105.41 640.769,102.923 Z M677.115,137.923 L650.192,137.923 C645.677,137.915 641.54,135.396 639.461,131.387 C637.381,127.379 637.703,122.547 640.296,118.85 C642.89,115.153 647.324,113.205 651.801,113.797 C651.676,114.594 651.589,115.409 651.542,116.23 C651.537,117.874 652.745,119.081 654.234,119.081 C655.724,119.081 656.931,117.874 656.931,116.385 C657.006,115.042 657.218,113.71 657.564,112.41 C657.564,112.356 657.594,112.302 657.604,112.249 C660.426,102.194 670.443,95.945 680.715,97.83 C690.986,99.716 698.13,109.117 697.196,119.518 C696.262,129.919 687.559,137.897 677.115,137.923 Z" />
        </g>
    </g>
</svg>