<?xml version="1.0" encoding="UTF-8"?>
<svg height="600" width="800" xmlns="http://www.w3.org/2000/svg" xmlns:xlink="http://www.w3.org/1999/xlink">
    <g id="Notes" font-family="'LucidaGrande', 'Lucida Grande', sans-serif" font-size="13">
        <rect fill="white" height="600.0" width="800.0" x="0.0" y="0.0" />
        <g font-size="13">
            <text x="18.0" y="176.0">Small</text>
            <text x="18.0" y="376.0">Medium</text>
            <text x="18.0" y="576.0">Large</text>
        </g>
        <g font-size="9">
            <text x="250.0" y="30.0">Ultralight</text>
            <text x="450.0" y="30.0">Regular</text>
            <text x="650.0" y="30.0">Black</text>
            <text id="template-version" fill="#505050" text-anchor="end" x="785.0" y="575.0">Template v.3.0</text>
            <a href="https://github.com/swhitty/SwiftDraw">
                <text fill="#505050" text-anchor="end" x="785.0" y="590.0">https://github.com/swhitty/SwiftDraw</text>
            </a>
        </g>
    </g>
    <g id="Guides" stroke="rgb(39, 170, 225)" stroke-width="0.5">
        <path id="Capline-S" d="M18,76 l800,0" />
        <path id="H-reference" d="M85,145.755 L87.685,145.755 L113.369,79.287 L114.052,79.287 L114.052,76 L112.148,76 L85,145.755 Z M95.693,121.536 L130.996,121.536 L130.263,119.313 L96.474,119.313 L95.693,121.536 Z M139.15,145.755 L141.787,145.755 L114.638,76 L113.466,76 L113.466,79.287 L139.15,145.755 Z" stroke="none" />
        <path id="Baseline-S" d="M18,146 l800,0" />
        <path id="left-margin-Ultralight-S" d="M220,56 l0,110" />
        <path id="right-margin-Ultralight-S" d="M310,56 l0,110" />
        <path id="left-margin-Regular-S" d="M420,56 l0,110" />
        <path id="right-margin-Regular-S" d="M510,56 l0,110" />
        <path id="left-margin-Black-S" d="M620,56 l0,110" />
        <path id="right-margin-Black-S" d="M710,56 l0,110" />
        <path id="Capline-M" d="M18,276 l800,0" />
        <path id="Baseline-M" d="M18,346 l800,0" />
        <path id="Capline-L" d="M18,476 l800,0" />
        <path id="Baseline-L" d="M18,546 l800,0" />
    </g>
    <g id="Symbols">
        <g id="Ultralight-S">
            <path d="M298.99,140.026 C297.829,140.954 296.136,140.766 295.208,139.606 C294.747,139.024 283.846,125.088 283.846,97.538 C283.846,87.13 275.408,78.692 265,78.692 C254.592,78.692 246.154,87.13 246.154,97.538 C246.154,125.087 235.26,139.024 234.796,139.606 C233.87,140.767 232.174,140.958 231.011,140.03 C229.847,139.102 229.656,137.407 230.584,136.243 C230.634,136.176 233.172,132.911 235.675,126.571 C238,120.692 240.769,110.879 240.769,97.538 C240.769,84.156 251.618,73.308 265,73.308 C278.382,73.308 289.231,84.156 289.231,97.538 C289.231,110.879 292,120.692 294.323,126.575 C296.84,132.949 299.391,136.213 299.418,136.247 C300.342,137.409 300.151,139.1 298.99,140.026 Z M255.577,97.538 C253.347,97.538 251.538,99.347 251.538,101.577 C251.538,103.807 253.347,105.615 255.577,105.615 C257.807,105.615 259.615,103.807 259.615,101.577 C259.615,100.506 259.19,99.479 258.433,98.721 C257.675,97.964 256.648,97.538 255.577,97.538 Z M278.462,101.577 C278.462,99.347 276.653,97.538 274.423,97.538 C272.193,97.538 270.385,99.347 270.385,101.577 C270.385,103.807 272.193,105.615 274.423,105.615 C275.494,105.615 276.521,105.19 277.279,104.433 C278.036,103.675 278.462,102.648 278.462,101.577 Z M255.436,111.283 C254.111,110.654 252.527,111.2 251.872,112.511 C251.217,113.823 251.731,115.417 253.029,116.099 L263.799,121.483 C264.555,121.865 265.448,121.865 266.205,121.483 L276.974,116.099 C278.304,115.433 278.843,113.816 278.177,112.486 C277.512,111.156 275.894,110.617 274.564,111.283 L265,116.065 Z M265,127.154 C258.402,127.206 252.35,130.826 249.183,136.614 C248.46,137.921 248.931,139.561 250.234,140.281 C251.536,141.002 253.176,140.53 253.897,139.228 C256.076,135.116 260.349,132.545 265.002,132.545 C269.656,132.545 273.929,135.116 276.108,139.228 C276.826,140.526 278.466,140.997 279.769,140.277 C281.071,139.556 281.543,137.916 280.822,136.614 C277.654,130.825 271.599,127.205 265,127.154 Z" />
        </g>
        <g id="Regular-S">
            <path d="M498.99,140.026 C497.829,140.954 496.136,140.766 495.208,139.606 C494.747,139.024 483.846,125.088 483.846,97.538 C483.846,87.13 475.408,78.692 465,78.692 C454.592,78.692 446.154,87.13 446.154,97.538 C446.154,125.087 435.26,139.024 434.796,139.606 C433.87,140.767 432.174,140.958 431.01,140.03 C429.847,139.102 429.656,137.407 430.583,136.243 C430.634,136.176 433.171,132.911 435.675,126.571 C438,120.692 440.769,110.879 440.769,97.538 C440.769,84.156 451.618,73.308 465,73.308 C478.382,73.308 489.231,84.156 489.231,97.538 C489.231,110.879 492,120.692 494.323,126.575 C496.84,132.949 499.391,136.213 499.418,136.247 C500.342,137.409 500.151,139.1 498.99,140.026 Z M455.577,97.538 C453.347,97.538 451.538,99.347 451.538,101.577 C451.538,103.807 453.347,105.615 455.577,105.615 C457.807,105.615 459.615,103.807 459.615,101.577 C459.615,100.506 459.19,99.479 458.433,98.721 C457.675,97.964 456.648,97.538 455.577,97.538 Z M478.462,101.577 C478.462,99.347 476.653,97.538 474.423,97.538 C472.193,97.538 470.385,99.347 470.385,101.577 C470.385,103.807 472.193,105.615 474.423,105.615 C475.494,105.615 476.521,105.19 477.279,104.433 C478.036,103.675 478.462,102.648 478.462,101.577 Z M455.436,111.283 C454.111,110.654 452.527,111.2 451.872,112.511 C451.217,113.823 451.731,115.417 453.029,116.099 L463.799,121.483 C464.555,121.865 465.448,121.865 466.205,121.483 L476.974,116.099 C478.304,115.433 478.843,113.816 478.177,112.486 C477.512,111.156 475.894,110.617 474.564,111.283 L465,116.065 Z M465,127.154 C458.402,127.206 452.35,130.826 449.183,136.614 C448.46,137.921 448.931,139.561 450.234,140.281 C451.536,141.002 453.176,140.53 453.897,139.228 C456.076,135.116 460.349,132.545 465.002,132.545 C469.656,132.545 473.929,135.116 476.108,139.228 C476.826,140.526 478.466,140.997 479.769,140.277 C481.071,139.556 481.543,137.916 480.822,136.614 C477.654,130.825 471.599,127.205 465,127.154 Z" />
        </g>
        <g id="Black-S">
            <path d="M698.99,140.026 C697.83,140.954 696.136,140.766 695.208,139.606 C694.747,139.024 683.846,125.088 683.846,97.538 C683.846,87.13 675.408,78.692 665,78.692 C654.592,78.692 646.154,87.13 646.154,97.538 C646.154,125.087 635.26,139.024 634.796,139.606 C633.87,140.767 632.174,140.958 631.01,140.03 C629.847,139.102 629.656,137.407 630.584,136.243 C630.634,136.176 633.172,132.911 635.675,126.571 C638,120.692 640.769,110.879 640.769,97.538 C640.769,84.156 651.618,73.308 665,73.308 C678.382,73.308 689.231,84.156 689.231,97.538 C689.231,110.879 692,120.692 694.323,126.575 C696.84,132.949 699.391,136.213 699.418,136.247 C700.342,137.409 700.151,139.1 698.99,140.026 Z M655.577,97.538 C653.347,97.538 651.538,99.347 651.538,101.577 C651.538,103.807 653.347,105.615 655.577,105.615 C657.807,105.615 659.615,103.807 659.615,101.577 C659.615,100.506 659.19,99.479 658.433,98.721 C657.675,97.964 656.648,97.538 655.577,97.538 Z M678.462,101.577 C678.462,99.347 676.653,97.538 674.423,97.538 C672.193,97.538 670.385,99.347 670.385,101.577 C670.385,103.807 672.193,105.615 674.423,105.615 C675.494,105.615 676.521,105.19 677.279,104.433 C678.036,103.675 678.462,102.648 678.462,101.577 Z M655.436,111.283 C654.111,110.654 652.527,111.2 651.872,112.511 C651.217,113.823 651.731,115.417 653.029,116.099 L663.799,121.483 C664.555,121.865 665.448,121.865 666.205,121.483 L676.974,116.099 C678.304,115.433 678.843,113.816 678.177,112.486 C677.512,111.156 675.894,110.617 674.564,111.283 L665,116.065 Z M665,127.154 C658.402,127.206 652.35,130.826 649.183,136.614 C648.46,137.921 648.931,139.561 650.234,140.281 C651.536,141.002 653.176,140.53 653.897,139.228 C656.076,135.116 660.349,132.545 665.002,132.545 C669.656,132.545 673.929,135.116 676.108,139.228 C676.826,140.526 678.466,140.997 679.769,140.277 C681.071,139.556 681.543,137.916 680.822,136.614 C677.654,130.825 671.599,127.205 665,127.154 Z" />
        </g>
    </g>
</svg>