<?xml version="1.0" encoding="UTF-8"?>
<svg height="600" width="800" xmlns="http://www.w3.org/2000/svg" xmlns:xlink="http://www.w3.org/1999/xlink">
    <g id="Notes" font-family="'LucidaGrande', 'Lucida Grande', sans-serif" font-size="13">
        <rect fill="white" height="600.0" width="800.0" x="0.0" y="0.0" />
        <g font-size="13">
            <text x="18.0" y="176.0">Small</text>
            <text x="18.0" y="376.0">Medium</text>
            <text x="18.0" y="576.0">Large</text>
        </g>
        <g font-size="9">
            <text x="250.0" y="30.0">Ultralight</text>
            <text x="450.0" y="30.0">Regular</text>
            <text x="650.0" y="30.0">Black</text>
            <text id="template-version" fill="#505050" text-anchor="end" x="785.0" y="575.0">Template v.3.0</text>
            <a href="https://github.com/swhitty/SwiftDraw">
                <text fill="#505050" text-anchor="end" x="785.0" y="590.0">https://github.com/swhitty/SwiftDraw</text>
            </a>
        </g>
    </g>
    <g id="Guides" stroke="rgb(39, 170, 225)" stroke-width="0.5">
        <path id="Capline-S" d="M18,76 l800,0" />
        <path id="H-reference" d="M85,145.755 L87.685,145.755 L113.369,79.287 L114.052,79.287 L114.052,76 L112.148,76 L85,145.755 Z M95.693,121.536 L130.996,121.536 L130.263,119.313 L96.474,119.313 L95.693,121.536 Z M139.15,145.755 L141.787,145.755 L114.638,76 L113.466,76 L113.466,79.287 L139.15,145.755 Z" stroke="none" />
        <path id="Baseline-S" d="M18,146 l800,0" />
        <path id="left-margin-Ultralight-S" d="M220,56 l0,110" />
        <path id="right-margin-Ultralight-S" d="M310,56 l0,110" />
        <path id="left-margin-Regular-S" d="M420,56 l0,110" />
        <path id="right-margin-Regular-S" d="M510,56 l0,110" />
        <path id="left-margin-Black-S" d="M620,56 l0,110" />
        <path id="right-margin-Black-S" d="M710,56 l0,110" />
        <path id="Capline-M" d="M18,276 l800,0" />
        <path id="Baseline-M" d="M18,346 l800,0" />
        <path id="Capline-L" d="M18,476 l800,0" />
        <path id="Baseline-L" d="M18,546 l800,0" />
    </g>
    <g id="Symbols">
        <g id="Ultralight-S">
            <path d="M265,76 C245.67,76 230,91.67 230,111 C230,130.33 245.67,146 265,146 C272.239,146 279.841,143.819 285.337,140.168 C286.576,139.344 286.913,137.672 286.089,136.433 C285.265,135.195 283.593,134.858 282.355,135.682 C277.788,138.724 271.128,140.615 265,140.615 C248.644,140.615 235.385,127.356 235.385,111 C235.385,94.644 248.644,81.385 265,81.385 C281.356,81.385 294.615,94.644 294.615,111 C294.615,119.901 290.954,121.769 287.885,121.769 C284.815,121.769 281.154,119.901 281.154,111 L281.154,97.538 C281.154,96.052 279.948,94.846 278.462,94.846 C276.975,94.846 275.769,96.052 275.769,97.538 L275.769,98.972 C270.825,94.539 263.671,93.584 257.737,96.564 C251.802,99.544 248.296,105.852 248.898,112.465 C249.501,119.078 254.089,124.649 260.464,126.508 C266.84,128.366 273.703,126.134 277.765,120.881 C279.784,124.919 283.267,127.154 287.885,127.154 C295.47,127.154 300,121.116 300,111 C299.979,91.677 284.32,76.02 264.999,76 Z M265,121.769 C259.052,121.769 254.231,116.948 254.231,111 C254.231,105.052 259.052,100.231 265,100.231 C270.948,100.231 275.769,105.052 275.769,111 C275.769,113.856 274.635,116.595 272.615,118.615 C270.595,120.635 267.856,121.769 265,121.769 Z" />
        </g>
        <g id="Regular-S">
            <path d="M465,76 C445.67,76 430,91.67 430,111 C430,130.33 445.67,146 465,146 C472.239,146 479.841,143.819 485.337,140.168 C486.576,139.344 486.912,137.672 486.089,136.433 C485.265,135.195 483.593,134.858 482.355,135.682 C477.788,138.724 471.128,140.615 465,140.615 C448.644,140.615 435.385,127.356 435.385,111 C435.385,94.644 448.644,81.385 465,81.385 C481.356,81.385 494.615,94.644 494.615,111 C494.615,119.901 490.954,121.769 487.885,121.769 C484.815,121.769 481.154,119.901 481.154,111 L481.154,97.538 C481.154,96.052 479.948,94.846 478.462,94.846 C476.975,94.846 475.769,96.052 475.769,97.538 L475.769,98.972 C470.825,94.539 463.671,93.584 457.737,96.564 C451.802,99.544 448.296,105.852 448.898,112.465 C449.501,119.078 454.089,124.649 460.464,126.508 C466.84,128.366 473.703,126.134 477.765,120.881 C479.784,124.919 483.267,127.154 487.885,127.154 C495.47,127.154 500,121.116 500,111 C499.979,91.677 484.32,76.02 464.999,76 Z M465,121.769 C459.052,121.769 454.231,116.948 454.231,111 C454.231,105.052 459.052,100.231 465,100.231 C470.948,100.231 475.769,105.052 475.769,111 C475.769,113.856 474.635,116.595 472.615,118.615 C470.595,120.635 467.856,121.769 465,121.769 Z" />
        </g>
        <g id="Black-S">
            <path d="M665,76 C645.67,76 630,91.67 630,111 C630,130.33 645.67,146 665,146 C672.239,146 679.841,143.819 685.337,140.168 C686.576,139.344 686.913,137.672 686.089,136.433 C685.265,135.195 683.593,134.858 682.355,135.682 C677.788,138.724 671.128,140.615 665,140.615 C648.644,140.615 635.385,127.356 635.385,111 C635.385,94.644 648.644,81.385 665,81.385 C681.356,81.385 694.615,94.644 694.615,111 C694.615,119.901 690.954,121.769 687.885,121.769 C684.815,121.769 681.154,119.901 681.154,111 L681.154,97.538 C681.154,96.052 679.948,94.846 678.462,94.846 C676.975,94.846 675.769,96.052 675.769,97.538 L675.769,98.972 C670.825,94.539 663.671,93.584 657.737,96.564 C651.802,99.544 648.296,105.852 648.898,112.465 C649.501,119.078 654.089,124.649 660.464,126.508 C666.84,128.366 673.703,126.134 677.765,120.881 C679.784,124.919 683.267,127.154 687.885,127.154 C695.47,127.154 700,121.116 700,111 C699.979,91.677 684.32,76.02 664.999,76 Z M665,121.769 C659.052,121.769 654.231,116.948 654.231,111 C654.231,105.052 659.052,100.231 665,100.231 C670.948,100.231 675.769,105.052 675.769,111 C675.769,113.856 674.635,116.595 672.615,118.615 C670.595,120.635 667.856,121.769 665,121.769 Z" />
        </g>
    </g>
</svg>