<?xml version="1.0" encoding="UTF-8"?>
<svg height="600" width="800" xmlns="http://www.w3.org/2000/svg" xmlns:xlink="http://www.w3.org/1999/xlink">
    <g id="Notes" font-family="'LucidaGrande', 'Lucida Grande', sans-serif" font-size="13">
        <rect fill="white" height="600.0" width="800.0" x="0.0" y="0.0" />
        <g font-size="13">
            <text x="18.0" y="176.0">Small</text>
            <text x="18.0" y="376.0">Medium</text>
            <text x="18.0" y="576.0">Large</text>
        </g>
        <g font-size="9">
            <text x="250.0" y="30.0">Ultralight</text>
            <text x="450.0" y="30.0">Regular</text>
            <text x="650.0" y="30.0">Black</text>
            <text id="template-version" fill="#505050" text-anchor="end" x="785.0" y="575.0">Template v.3.0</text>
            <a href="https://github.com/swhitty/SwiftDraw">
                <text fill="#505050" text-anchor="end" x="785.0" y="590.0">https://github.com/swhitty/SwiftDraw</text>
            </a>
        </g>
    </g>
    <g id="Guides" stroke="rgb(39, 170, 225)" stroke-width="0.5">
        <path id="Capline-S" d="M18,76 l800,0" />
        <path id="H-reference" d="M85,145.755 L87.685,145.755 L113.369,79.287 L114.052,79.287 L114.052,76 L112.148,76 L85,145.755 Z M95.693,121.536 L130.996,121.536 L130.263,119.313 L96.474,119.313 L95.693,121.536 Z M139.15,145.755 L141.787,145.755 L114.638,76 L113.466,76 L113.466,79.287 L139.15,145.755 Z" stroke="none" />
        <path id="Baseline-S" d="M18,146 l800,0" />
        <path id="left-margin-Ultralight-S" d="M220,56 l0,110" />
        <path id="right-margin-Ultralight-S" d="M310,56 l0,110" />
        <path id="left-margin-Regular-S" d="M420,56 l0,110" />
        <path id="right-margin-Regular-S" d="M510,56 l0,110" />
        <path id="left-margin-Black-S" d="M620,56 l0,110" />
        <path id="right-margin-Black-S" d="M710,56 l0,110" />
        <path id="Capline-M" d="M18,276 l800,0" />
        <path id="Baseline-M" d="M18,346 l800,0" />
        <path id="Capline-L" d="M18,476 l800,0" />
        <path id="Baseline-L" d="M18,546 l800,0" />
    </g>
    <g id="Symbols">
        <g id="Ultralight-S">
            <path d="M265,76 C245.67,76 230,91.67 230,111 C230,130.33 245.67,146 265,146 C284.33,146 300,130.33 300,111 C299.979,91.677 284.32,76.02 264.999,76 Z M294.615,111 C294.615,113.019 288.894,116.462 278.202,118.125 C278.374,115.769 278.462,113.386 278.462,111 C278.462,100.15 276.661,89.219 273.164,82.529 C285.854,86.188 294.598,97.793 294.615,111 Z M265,81.385 C267.743,81.385 273.077,91.838 273.077,111 C273.077,113.773 272.962,116.358 272.764,118.764 C270.358,118.963 267.773,119.077 265,119.077 C245.838,119.077 235.385,113.743 235.385,111 C235.402,94.653 248.65,81.404 264.999,81.385 Z M236.529,119.164 C243.219,122.661 254.15,124.462 265,124.462 C267.386,124.462 269.775,124.374 272.125,124.202 C270.462,134.894 267.019,140.615 265,140.615 C251.793,140.598 240.188,131.854 236.529,119.164 Z M273.164,139.471 C275.281,135.433 276.775,129.823 277.627,123.627 C283.823,122.775 289.406,121.271 293.471,119.164 C290.634,128.969 282.969,136.634 273.164,139.471 Z" />
        </g>
        <g id="Regular-S">
            <path d="M465,76 C445.67,76 430,91.67 430,111 C430,130.33 445.67,146 465,146 C484.33,146 500,130.33 500,111 C499.979,91.677 484.32,76.02 464.999,76 Z M494.615,111 C494.615,113.019 488.894,116.462 478.202,118.125 C478.374,115.769 478.462,113.386 478.462,111 C478.462,100.15 476.661,89.219 473.164,82.529 C485.854,86.188 494.598,97.793 494.615,111 Z M465,81.385 C467.743,81.385 473.077,91.838 473.077,111 C473.077,113.773 472.962,116.358 472.764,118.764 C470.358,118.963 467.773,119.077 465,119.077 C445.837,119.077 435.385,113.743 435.385,111 C435.402,94.653 448.65,81.404 464.999,81.385 Z M436.529,119.164 C443.219,122.661 454.15,124.462 465,124.462 C467.386,124.462 469.775,124.374 472.125,124.202 C470.462,134.894 467.019,140.615 465,140.615 C451.793,140.598 440.188,131.854 436.529,119.164 Z M473.164,139.471 C475.281,135.433 476.775,129.823 477.627,123.627 C483.823,122.775 489.406,121.271 493.471,119.164 C490.634,128.969 482.969,136.634 473.164,139.471 Z" />
        </g>
        <g id="Black-S">
            <path d="M665,76 C645.67,76 630,91.67 630,111 C630,130.33 645.67,146 665,146 C684.33,146 700,130.33 700,111 C699.979,91.677 684.32,76.02 664.999,76 Z M694.615,111 C694.615,113.019 688.894,116.462 678.202,118.125 C678.374,115.769 678.462,113.386 678.462,111 C678.462,100.15 676.661,89.219 673.164,82.529 C685.854,86.188 694.598,97.793 694.615,111 Z M665,81.385 C667.743,81.385 673.077,91.838 673.077,111 C673.077,113.773 672.963,116.358 672.764,118.764 C670.358,118.963 667.773,119.077 665,119.077 C645.838,119.077 635.385,113.743 635.385,111 C635.402,94.653 648.65,81.404 664.999,81.385 Z M636.529,119.164 C643.219,122.661 654.15,124.462 665,124.462 C667.386,124.462 669.776,124.374 672.125,124.202 C670.462,134.894 667.019,140.615 665,140.615 C651.793,140.598 640.188,131.854 636.529,119.164 Z M673.164,139.471 C675.281,135.433 676.776,129.823 677.627,123.627 C683.823,122.775 689.406,121.271 693.471,119.164 C690.634,128.969 682.969,136.634 673.164,139.471 Z" />
        </g>
    </g>
</svg>