<?xml version="1.0" encoding="UTF-8"?>
<svg height="600" width="800" xmlns="http://www.w3.org/2000/svg" xmlns:xlink="http://www.w3.org/1999/xlink">
    <g id="Notes" font-family="'LucidaGrande', 'Lucida Grande', sans-serif" font-size="13">
        <rect fill="white" height="600.0" width="800.0" x="0.0" y="0.0" />
        <g font-size="13">
            <text x="18.0" y="176.0">Small</text>
            <text x="18.0" y="376.0">Medium</text>
            <text x="18.0" y="576.0">Large</text>
        </g>
        <g font-size="9">
            <text x="250.0" y="30.0">Ultralight</text>
            <text x="450.0" y="30.0">Regular</text>
            <text x="650.0" y="30.0">Black</text>
            <text id="template-version" fill="#505050" text-anchor="end" x="785.0" y="575.0">Template v.3.0</text>
            <a href="https://github.com/swhitty/SwiftDraw">
                <text fill="#505050" text-anchor="end" x="785.0" y="590.0">https://github.com/swhitty/SwiftDraw</text>
            </a>
        </g>
    </g>
    <g id="Guides" stroke="rgb(39, 170, 225)" stroke-width="0.5">
        <path id="Capline-S" d="M18,76 l800,0" />
        <path id="H-reference" d="M85,145.755 L87.685,145.755 L113.369,79.287 L114.052,79.287 L114.052,76 L112.148,76 L85,145.755 Z M95.693,121.536 L130.996,121.536 L130.263,119.313 L96.474,119.313 L95.693,121.536 Z M139.15,145.755 L141.787,145.755 L114.638,76 L113.466,76 L113.466,79.287 L139.15,145.755 Z" stroke="none" />
        <path id="Baseline-S" d="M18,146 l800,0" />
        <path id="left-margin-Ultralight-S" d="M220,56 l0,110" />
        <path id="right-margin-Ultralight-S" d="M310,56 l0,110" />
        <path id="left-margin-Regular-S" d="M420,56 l0,110" />
        <path id="right-margin-Regular-S" d="M510,56 l0,110" />
        <path id="left-margin-Black-S" d="M620,56 l0,110" />
        <path id="right-margin-Black-S" d="M710,56 l0,110" />
        <path id="Capline-M" d="M18,276 l800,0" />
        <path id="Baseline-M" d="M18,346 l800,0" />
        <path id="Capline-L" d="M18,476 l800,0" />
        <path id="Baseline-L" d="M18,546 l800,0" />
    </g>
    <g id="Symbols">
        <g id="Ultralight-S">
            <path d="M297.308,89.462 L232.692,89.462 C231.264,89.462 229.895,90.029 228.885,91.039 C227.875,92.048 227.308,93.418 227.308,94.846 L227.308,127.154 C227.308,128.582 227.875,129.952 228.885,130.961 C229.895,131.971 231.264,132.538 232.692,132.538 L297.308,132.538 C298.736,132.538 300.105,131.971 301.115,130.961 C302.125,129.952 302.692,128.582 302.692,127.154 L302.692,94.846 C302.692,93.418 302.125,92.048 301.115,91.039 C300.105,90.029 298.736,89.462 297.308,89.462 Z M297.308,127.154 L232.692,127.154 L232.692,94.846 L297.308,94.846 L297.308,127.154 Z M289.231,111 C289.231,113.23 287.423,115.038 285.192,115.038 C282.962,115.038 281.154,113.23 281.154,111 C281.154,108.77 282.962,106.962 285.192,106.962 C286.263,106.962 287.291,107.387 288.048,108.144 C288.805,108.902 289.231,109.929 289.231,111 Z" />
        </g>
        <g id="Regular-S">
            <path d="M497.308,89.462 L432.692,89.462 C431.264,89.462 429.895,90.029 428.885,91.039 C427.875,92.048 427.308,93.418 427.308,94.846 L427.308,127.154 C427.308,128.582 427.875,129.952 428.885,130.961 C429.895,131.971 431.264,132.538 432.692,132.538 L497.308,132.538 C498.736,132.538 500.105,131.971 501.115,130.961 C502.125,129.952 502.692,128.582 502.692,127.154 L502.692,94.846 C502.692,93.418 502.125,92.048 501.115,91.039 C500.105,90.029 498.736,89.462 497.308,89.462 Z M497.308,127.154 L432.692,127.154 L432.692,94.846 L497.308,94.846 L497.308,127.154 Z M489.231,111 C489.231,113.23 487.423,115.038 485.192,115.038 C482.962,115.038 481.154,113.23 481.154,111 C481.154,108.77 482.962,106.962 485.192,106.962 C486.263,106.962 487.291,107.387 488.048,108.144 C488.805,108.902 489.231,109.929 489.231,111 Z" />
        </g>
        <g id="Black-S">
            <path d="M697.308,89.462 L632.692,89.462 C631.264,89.462 629.895,90.029 628.885,91.039 C627.875,92.048 627.308,93.418 627.308,94.846 L627.308,127.154 C627.308,128.582 627.875,129.952 628.885,130.961 C629.895,131.971 631.264,132.538 632.692,132.538 L697.308,132.538 C698.736,132.538 700.105,131.971 701.115,130.961 C702.125,129.952 702.692,128.582 702.692,127.154 L702.692,94.846 C702.692,93.418 702.125,92.048 701.115,91.039 C700.105,90.029 698.736,89.462 697.308,89.462 Z M697.308,127.154 L632.692,127.154 L632.692,94.846 L697.308,94.846 L697.308,127.154 Z M689.231,111 C689.231,113.23 687.423,115.038 685.192,115.038 C682.962,115.038 681.154,113.23 681.154,111 C681.154,108.77 682.962,106.962 685.192,106.962 C686.263,106.962 687.291,107.387 688.048,108.144 C688.805,108.902 689.231,109.929 689.231,111 Z" />
        </g>
    </g>
</svg>