<?xml version="1.0" encoding="UTF-8"?>
<svg height="600" width="800" xmlns="http://www.w3.org/2000/svg" xmlns:xlink="http://www.w3.org/1999/xlink">
    <g id="Notes" font-family="'LucidaGrande', 'Lucida Grande', sans-serif" font-size="13">
        <rect fill="white" height="600.0" width="800.0" x="0.0" y="0.0" />
        <g font-size="13">
            <text x="18.0" y="176.0">Small</text>
            <text x="18.0" y="376.0">Medium</text>
            <text x="18.0" y="576.0">Large</text>
        </g>
        <g font-size="9">
            <text x="250.0" y="30.0">Ultralight</text>
            <text x="450.0" y="30.0">Regular</text>
            <text x="650.0" y="30.0">Black</text>
            <text id="template-version" fill="#505050" text-anchor="end" x="785.0" y="575.0">Template v.3.0</text>
            <a href="https://github.com/swhitty/SwiftDraw">
                <text fill="#505050" text-anchor="end" x="785.0" y="590.0">https://github.com/swhitty/SwiftDraw</text>
            </a>
        </g>
    </g>
    <g id="Guides" stroke="rgb(39, 170, 225)" stroke-width="0.5">
        <path id="Capline-S" d="M18,76 l800,0" />
        <path id="H-reference" d="M85,145.755 L87.685,145.755 L113.369,79.287 L114.052,79.287 L114.052,76 L112.148,76 L85,145.755 Z M95.693,121.536 L130.996,121.536 L130.263,119.313 L96.474,119.313 L95.693,121.536 Z M139.15,145.755 L141.787,145.755 L114.638,76 L113.466,76 L113.466,79.287 L139.15,145.755 Z" stroke="none" />
        <path id="Baseline-S" d="M18,146 l800,0" />
        <path id="left-margin-Ultralight-S" d="M220,56 l0,110" />
        <path id="right-margin-Ultralight-S" d="M310,56 l0,110" />
        <path id="left-margin-Regular-S" d="M420,56 l0,110" />
        <path id="right-margin-Regular-S" d="M510,56 l0,110" />
        <path id="left-margin-Black-S" d="M620,56 l0,110" />
        <path id="right-margin-Black-S" d="M710,56 l0,110" />
        <path id="Capline-M" d="M18,276 l800,0" />
        <path id="Baseline-M" d="M18,346 l800,0" />
        <path id="Capline-L" d="M18,476 l800,0" />
        <path id="Baseline-L" d="M18,546 l800,0" />
    </g>
    <g id="Symbols">
        <g id="Ultralight-S">
            <path d="M259.615,119.077 C258.901,119.077 258.217,119.361 257.712,119.865 C257.207,120.37 256.923,121.055 256.923,121.769 L256.923,131.425 L244.249,118.74 C243.747,118.238 243.464,117.556 243.462,116.846 L243.462,99.894 C248.712,98.538 252.136,93.49 251.453,88.11 C250.769,82.73 246.192,78.698 240.769,78.698 C235.346,78.698 230.769,82.73 230.086,88.11 C229.403,93.49 232.826,98.538 238.077,99.894 L238.077,116.849 C238.066,118.994 238.914,121.055 240.433,122.57 L253.117,135.231 L243.462,135.231 C241.975,135.231 240.769,136.436 240.769,137.923 C240.769,139.41 241.975,140.615 243.462,140.615 L259.615,140.615 C260.329,140.615 261.014,140.332 261.519,139.827 C262.024,139.322 262.308,138.637 262.308,137.923 L262.308,121.769 C262.308,121.055 262.024,120.37 261.519,119.865 C261.014,119.361 260.329,119.077 259.615,119.077 Z M235.385,89.462 C235.385,86.488 237.795,84.077 240.769,84.077 C243.743,84.077 246.154,86.488 246.154,89.462 C246.154,92.435 243.743,94.846 240.769,94.846 C239.341,94.846 237.972,94.279 236.962,93.269 C235.952,92.259 235.385,90.89 235.385,89.462 Z M291.923,122.106 L291.923,105.154 C291.934,103.009 291.086,100.949 289.567,99.433 L276.883,86.769 L286.538,86.769 C288.025,86.769 289.231,85.564 289.231,84.077 C289.231,82.59 288.025,81.385 286.538,81.385 L270.385,81.385 C269.671,81.385 268.986,81.668 268.481,82.173 C267.976,82.678 267.692,83.363 267.692,84.077 L267.692,100.231 C267.692,101.718 268.898,102.923 270.385,102.923 C271.872,102.923 273.077,101.718 273.077,100.231 L273.077,90.575 L285.751,103.26 C286.256,103.765 286.539,104.45 286.538,105.164 L286.538,122.106 C281.288,123.462 277.864,128.51 278.547,133.89 C279.231,139.27 283.808,143.302 289.231,143.302 C294.654,143.302 299.231,139.27 299.914,133.89 C300.598,128.51 297.174,123.462 291.923,122.106 Z M289.231,137.923 C286.257,137.923 283.846,135.512 283.846,132.538 C283.846,129.565 286.257,127.154 289.231,127.154 C292.205,127.154 294.615,129.565 294.615,132.538 C294.615,133.967 294.048,135.336 293.038,136.346 C292.028,137.356 290.659,137.923 289.231,137.923 Z" />
        </g>
        <g id="Regular-S">
            <path d="M459.615,119.077 C458.901,119.077 458.217,119.361 457.712,119.865 C457.207,120.37 456.923,121.055 456.923,121.769 L456.923,131.425 L444.249,118.74 C443.747,118.238 443.464,117.556 443.462,116.846 L443.462,99.894 C448.712,98.538 452.136,93.49 451.453,88.11 C450.769,82.73 446.192,78.698 440.769,78.698 C435.346,78.698 430.769,82.73 430.086,88.11 C429.402,93.49 432.826,98.538 438.077,99.894 L438.077,116.849 C438.066,118.994 438.914,121.055 440.433,122.57 L453.117,135.231 L443.462,135.231 C441.975,135.231 440.769,136.436 440.769,137.923 C440.769,139.41 441.975,140.615 443.462,140.615 L459.615,140.615 C460.329,140.615 461.014,140.332 461.519,139.827 C462.024,139.322 462.308,138.637 462.308,137.923 L462.308,121.769 C462.308,121.055 462.024,120.37 461.519,119.865 C461.014,119.361 460.329,119.077 459.615,119.077 Z M435.385,89.462 C435.385,86.488 437.795,84.077 440.769,84.077 C443.743,84.077 446.154,86.488 446.154,89.462 C446.154,92.435 443.743,94.846 440.769,94.846 C439.341,94.846 437.972,94.279 436.962,93.269 C435.952,92.259 435.385,90.89 435.385,89.462 Z M491.923,122.106 L491.923,105.154 C491.934,103.009 491.086,100.949 489.567,99.433 L476.883,86.769 L486.538,86.769 C488.025,86.769 489.231,85.564 489.231,84.077 C489.231,82.59 488.025,81.385 486.538,81.385 L470.385,81.385 C469.671,81.385 468.986,81.668 468.481,82.173 C467.976,82.678 467.692,83.363 467.692,84.077 L467.692,100.231 C467.692,101.718 468.898,102.923 470.385,102.923 C471.872,102.923 473.077,101.718 473.077,100.231 L473.077,90.575 L485.751,103.26 C486.256,103.765 486.539,104.45 486.538,105.164 L486.538,122.106 C481.288,123.462 477.864,128.51 478.547,133.89 C479.231,139.27 483.808,143.302 489.231,143.302 C494.654,143.302 499.231,139.27 499.914,133.89 C500.597,128.51 497.174,123.462 491.923,122.106 Z M489.231,137.923 C486.257,137.923 483.846,135.512 483.846,132.538 C483.846,129.565 486.257,127.154 489.231,127.154 C492.205,127.154 494.615,129.565 494.615,132.538 C494.615,133.967 494.048,135.336 493.038,136.346 C492.028,137.356 490.659,137.923 489.231,137.923 Z" />
        </g>
        <g id="Black-S">
            <path d="M659.615,119.077 C658.901,119.077 658.217,119.361 657.712,119.865 C657.207,120.37 656.923,121.055 656.923,121.769 L656.923,131.425 L644.249,118.74 C643.747,118.238 643.464,117.556 643.462,116.846 L643.462,99.894 C648.712,98.538 652.136,93.49 651.453,88.11 C650.769,82.73 646.192,78.698 640.769,78.698 C635.346,78.698 630.769,82.73 630.086,88.11 C629.403,93.49 632.826,98.538 638.077,99.894 L638.077,116.849 C638.066,118.994 638.914,121.055 640.433,122.57 L653.117,135.231 L643.462,135.231 C641.975,135.231 640.769,136.436 640.769,137.923 C640.769,139.41 641.975,140.615 643.462,140.615 L659.615,140.615 C660.329,140.615 661.014,140.332 661.519,139.827 C662.024,139.322 662.308,138.637 662.308,137.923 L662.308,121.769 C662.308,121.055 662.024,120.37 661.519,119.865 C661.014,119.361 660.329,119.077 659.615,119.077 Z M635.385,89.462 C635.385,86.488 637.795,84.077 640.769,84.077 C643.743,84.077 646.154,86.488 646.154,89.462 C646.154,92.435 643.743,94.846 640.769,94.846 C639.341,94.846 637.972,94.279 636.962,93.269 C635.952,92.259 635.385,90.89 635.385,89.462 Z M691.923,122.106 L691.923,105.154 C691.934,103.009 691.086,100.949 689.567,99.433 L676.883,86.769 L686.538,86.769 C688.025,86.769 689.231,85.564 689.231,84.077 C689.231,82.59 688.025,81.385 686.538,81.385 L670.385,81.385 C669.671,81.385 668.986,81.668 668.481,82.173 C667.976,82.678 667.692,83.363 667.692,84.077 L667.692,100.231 C667.692,101.718 668.898,102.923 670.385,102.923 C671.872,102.923 673.077,101.718 673.077,100.231 L673.077,90.575 L685.751,103.26 C686.256,103.765 686.539,104.45 686.538,105.164 L686.538,122.106 C681.288,123.462 677.864,128.51 678.547,133.89 C679.231,139.27 683.808,143.302 689.231,143.302 C694.654,143.302 699.231,139.27 699.914,133.89 C700.598,128.51 697.174,123.462 691.923,122.106 Z M689.231,137.923 C686.257,137.923 683.846,135.512 683.846,132.538 C683.846,129.565 686.257,127.154 689.231,127.154 C692.205,127.154 694.615,129.565 694.615,132.538 C694.615,133.967 694.048,135.336 693.038,136.346 C692.028,137.356 690.659,137.923 689.231,137.923 Z" />
        </g>
    </g>
</svg>