<?xml version="1.0" encoding="UTF-8"?>
<svg height="600" width="800" xmlns="http://www.w3.org/2000/svg" xmlns:xlink="http://www.w3.org/1999/xlink">
    <g id="Notes" font-family="'LucidaGrande', 'Lucida Grande', sans-serif" font-size="13">
        <rect fill="white" height="600.0" width="800.0" x="0.0" y="0.0" />
        <g font-size="13">
            <text x="18.0" y="176.0">Small</text>
            <text x="18.0" y="376.0">Medium</text>
            <text x="18.0" y="576.0">Large</text>
        </g>
        <g font-size="9">
            <text x="250.0" y="30.0">Ultralight</text>
            <text x="450.0" y="30.0">Regular</text>
            <text x="650.0" y="30.0">Black</text>
            <text id="template-version" fill="#505050" text-anchor="end" x="785.0" y="575.0">Template v.3.0</text>
            <a href="https://github.com/swhitty/SwiftDraw">
                <text fill="#505050" text-anchor="end" x="785.0" y="590.0">https://github.com/swhitty/SwiftDraw</text>
            </a>
        </g>
    </g>
    <g id="Guides" stroke="rgb(39, 170, 225)" stroke-width="0.5">
        <path id="Capline-S" d="M18,76 l800,0" />
        <path id="H-reference" d="M85,145.755 L87.685,145.755 L113.369,79.287 L114.052,79.287 L114.052,76 L112.148,76 L85,145.755 Z M95.693,121.536 L130.996,121.536 L130.263,119.313 L96.474,119.313 L95.693,121.536 Z M139.15,145.755 L141.787,145.755 L114.638,76 L113.466,76 L113.466,79.287 L139.15,145.755 Z" stroke="none" />
        <path id="Baseline-S" d="M18,146 l800,0" />
        <path id="left-margin-Ultralight-S" d="M220,56 l0,110" />
        <path id="right-margin-Ultralight-S" d="M310,56 l0,110" />
        <path id="left-margin-Regular-S" d="M420,56 l0,110" />
        <path id="right-margin-Regular-S" d="M510,56 l0,110" />
        <path id="left-margin-Black-S" d="M620,56 l0,110" />
        <path id="right-margin-Black-S" d="M710,56 l0,110" />
        <path id="Capline-M" d="M18,276 l800,0" />
        <path id="Baseline-M" d="M18,346 l800,0" />
        <path id="Capline-L" d="M18,476 l800,0" />
        <path id="Baseline-L" d="M18,546 l800,0" />
    </g>
    <g id="Symbols">
        <g id="Ultralight-S">
            <path d="M283.846,84.077 L267.692,84.077 L267.692,76 L278.462,76 C279.948,76 281.154,74.795 281.154,73.308 C281.154,71.821 279.948,70.615 278.462,70.615 L251.538,70.615 C250.052,70.615 248.846,71.821 248.846,73.308 C248.846,74.795 250.052,76 251.538,76 L262.308,76 L262.308,84.077 L246.154,84.077 C243.298,84.077 240.558,85.212 238.539,87.231 C236.519,89.251 235.385,91.99 235.385,94.846 L235.385,129.846 C235.385,132.702 236.519,135.442 238.539,137.461 C240.558,139.481 243.298,140.615 246.154,140.615 L248.846,140.615 L244,147.077 C243.108,148.266 243.349,149.954 244.538,150.846 C245.728,151.738 247.416,151.497 248.308,150.308 L255.577,140.615 L274.423,140.615 L281.692,150.308 C282.584,151.497 284.272,151.738 285.462,150.846 C286.651,149.954 286.892,148.266 286,147.077 L281.154,140.615 L283.846,140.615 C286.702,140.615 289.442,139.481 291.461,137.461 C293.481,135.442 294.615,132.702 294.615,129.846 L294.615,94.846 C294.615,91.99 293.481,89.251 291.461,87.231 C289.442,85.212 286.702,84.077 283.846,84.077 Z M246.154,89.462 L283.846,89.462 C285.274,89.462 286.644,90.029 287.654,91.039 C288.663,92.048 289.231,93.418 289.231,94.846 L289.231,108.308 L240.769,108.308 L240.769,94.846 C240.769,93.418 241.337,92.048 242.346,91.039 C243.356,90.029 244.726,89.462 246.154,89.462 Z M283.846,135.231 L246.154,135.231 C244.726,135.231 243.356,134.663 242.346,133.654 C241.337,132.644 240.769,131.274 240.769,129.846 L240.769,113.692 L289.231,113.692 L289.231,129.846 C289.231,131.274 288.663,132.644 287.654,133.654 C286.644,134.663 285.274,135.231 283.846,135.231 Z M254.231,125.808 C254.231,128.038 252.423,129.846 250.192,129.846 C247.962,129.846 246.154,128.038 246.154,125.808 C246.154,123.577 247.962,121.769 250.192,121.769 C251.263,121.769 252.291,122.195 253.048,122.952 C253.805,123.709 254.231,124.737 254.231,125.808 Z M283.846,125.808 C283.846,128.038 282.038,129.846 279.808,129.846 C277.577,129.846 275.769,128.038 275.769,125.808 C275.769,123.577 277.577,121.769 279.808,121.769 C280.879,121.769 281.906,122.195 282.663,122.952 C283.421,123.709 283.846,124.737 283.846,125.808 Z" />
        </g>
        <g id="Regular-S">
            <path d="M483.846,84.077 L467.692,84.077 L467.692,76 L478.462,76 C479.948,76 481.154,74.795 481.154,73.308 C481.154,71.821 479.948,70.615 478.462,70.615 L451.538,70.615 C450.052,70.615 448.846,71.821 448.846,73.308 C448.846,74.795 450.052,76 451.538,76 L462.308,76 L462.308,84.077 L446.154,84.077 C443.298,84.077 440.558,85.212 438.539,87.231 C436.519,89.251 435.385,91.99 435.385,94.846 L435.385,129.846 C435.385,132.702 436.519,135.442 438.539,137.461 C440.558,139.481 443.298,140.615 446.154,140.615 L448.846,140.615 L444,147.077 C443.108,148.266 443.349,149.954 444.538,150.846 C445.728,151.738 447.416,151.497 448.308,150.308 L455.577,140.615 L474.423,140.615 L481.692,150.308 C482.584,151.497 484.272,151.738 485.462,150.846 C486.651,149.954 486.892,148.266 486,147.077 L481.154,140.615 L483.846,140.615 C486.702,140.615 489.442,139.481 491.461,137.461 C493.481,135.442 494.615,132.702 494.615,129.846 L494.615,94.846 C494.615,91.99 493.481,89.251 491.461,87.231 C489.442,85.212 486.702,84.077 483.846,84.077 Z M446.154,89.462 L483.846,89.462 C485.274,89.462 486.644,90.029 487.654,91.039 C488.663,92.048 489.231,93.418 489.231,94.846 L489.231,108.308 L440.769,108.308 L440.769,94.846 C440.769,93.418 441.337,92.048 442.346,91.039 C443.356,90.029 444.726,89.462 446.154,89.462 Z M483.846,135.231 L446.154,135.231 C444.726,135.231 443.356,134.663 442.346,133.654 C441.337,132.644 440.769,131.274 440.769,129.846 L440.769,113.692 L489.231,113.692 L489.231,129.846 C489.231,131.274 488.663,132.644 487.654,133.654 C486.644,134.663 485.274,135.231 483.846,135.231 Z M454.231,125.808 C454.231,128.038 452.423,129.846 450.192,129.846 C447.962,129.846 446.154,128.038 446.154,125.808 C446.154,123.577 447.962,121.769 450.192,121.769 C451.263,121.769 452.291,122.195 453.048,122.952 C453.805,123.709 454.231,124.737 454.231,125.808 Z M483.846,125.808 C483.846,128.038 482.038,129.846 479.808,129.846 C477.577,129.846 475.769,128.038 475.769,125.808 C475.769,123.577 477.577,121.769 479.808,121.769 C480.879,121.769 481.906,122.195 482.663,122.952 C483.421,123.709 483.846,124.737 483.846,125.808 Z" />
        </g>
        <g id="Black-S">
            <path d="M683.846,84.077 L667.692,84.077 L667.692,76 L678.462,76 C679.948,76 681.154,74.795 681.154,73.308 C681.154,71.821 679.948,70.615 678.462,70.615 L651.538,70.615 C650.052,70.615 648.846,71.821 648.846,73.308 C648.846,74.795 650.052,76 651.538,76 L662.308,76 L662.308,84.077 L646.154,84.077 C643.298,84.077 640.558,85.212 638.539,87.231 C636.519,89.251 635.385,91.99 635.385,94.846 L635.385,129.846 C635.385,132.702 636.519,135.442 638.539,137.461 C640.558,139.481 643.298,140.615 646.154,140.615 L648.846,140.615 L644,147.077 C643.108,148.266 643.349,149.954 644.538,150.846 C645.728,151.738 647.416,151.497 648.308,150.308 L655.577,140.615 L674.423,140.615 L681.692,150.308 C682.584,151.497 684.272,151.738 685.462,150.846 C686.651,149.954 686.892,148.266 686,147.077 L681.154,140.615 L683.846,140.615 C686.702,140.615 689.442,139.481 691.461,137.461 C693.481,135.442 694.615,132.702 694.615,129.846 L694.615,94.846 C694.615,91.99 693.481,89.251 691.461,87.231 C689.442,85.212 686.702,84.077 683.846,84.077 Z M646.154,89.462 L683.846,89.462 C685.274,89.462 686.644,90.029 687.654,91.039 C688.663,92.048 689.231,93.418 689.231,94.846 L689.231,108.308 L640.769,108.308 L640.769,94.846 C640.769,93.418 641.337,92.048 642.346,91.039 C643.356,90.029 644.726,89.462 646.154,89.462 Z M683.846,135.231 L646.154,135.231 C644.726,135.231 643.356,134.663 642.346,133.654 C641.337,132.644 640.769,131.274 640.769,129.846 L640.769,113.692 L689.231,113.692 L689.231,129.846 C689.231,131.274 688.663,132.644 687.654,133.654 C686.644,134.663 685.274,135.231 683.846,135.231 Z M654.231,125.808 C654.231,128.038 652.423,129.846 650.192,129.846 C647.962,129.846 646.154,128.038 646.154,125.808 C646.154,123.577 647.962,121.769 650.192,121.769 C651.263,121.769 652.291,122.195 653.048,122.952 C653.805,123.709 654.231,124.737 654.231,125.808 Z M683.846,125.808 C683.846,128.038 682.038,129.846 679.808,129.846 C677.577,129.846 675.769,128.038 675.769,125.808 C675.769,123.577 677.577,121.769 679.808,121.769 C680.879,121.769 681.906,122.195 682.663,122.952 C683.421,123.709 683.846,124.737 683.846,125.808 Z" />
        </g>
    </g>
</svg>