<?xml version="1.0" encoding="UTF-8"?>
<svg height="600" width="800" xmlns="http://www.w3.org/2000/svg" xmlns:xlink="http://www.w3.org/1999/xlink">
    <g id="Notes" font-family="'LucidaGrande', 'Lucida Grande', sans-serif" font-size="13">
        <rect fill="white" height="600.0" width="800.0" x="0.0" y="0.0" />
        <g font-size="13">
            <text x="18.0" y="176.0">Small</text>
            <text x="18.0" y="376.0">Medium</text>
            <text x="18.0" y="576.0">Large</text>
        </g>
        <g font-size="9">
            <text x="250.0" y="30.0">Ultralight</text>
            <text x="450.0" y="30.0">Regular</text>
            <text x="650.0" y="30.0">Black</text>
            <text id="template-version" fill="#505050" text-anchor="end" x="785.0" y="575.0">Template v.3.0</text>
            <a href="https://github.com/swhitty/SwiftDraw">
                <text fill="#505050" text-anchor="end" x="785.0" y="590.0">https://github.com/swhitty/SwiftDraw</text>
            </a>
        </g>
    </g>
    <g id="Guides" stroke="rgb(39, 170, 225)" stroke-width="0.5">
        <path id="Capline-S" d="M18,76 l800,0" />
        <path id="H-reference" d="M85,145.755 L87.685,145.755 L113.369,79.287 L114.052,79.287 L114.052,76 L112.148,76 L85,145.755 Z M95.693,121.536 L130.996,121.536 L130.263,119.313 L96.474,119.313 L95.693,121.536 Z M139.15,145.755 L141.787,145.755 L114.638,76 L113.466,76 L113.466,79.287 L139.15,145.755 Z" stroke="none" />
        <path id="Baseline-S" d="M18,146 l800,0" />
        <path id="left-margin-Ultralight-S" d="M220,56 l0,110" />
        <path id="right-margin-Ultralight-S" d="M310,56 l0,110" />
        <path id="left-margin-Regular-S" d="M420,56 l0,110" />
        <path id="right-margin-Regular-S" d="M510,56 l0,110" />
        <path id="left-margin-Black-S" d="M620,56 l0,110" />
        <path id="right-margin-Black-S" d="M710,56 l0,110" />
        <path id="Capline-M" d="M18,276 l800,0" />
        <path id="Baseline-M" d="M18,346 l800,0" />
        <path id="Capline-L" d="M18,476 l800,0" />
        <path id="Baseline-L" d="M18,546 l800,0" />
    </g>
    <g id="Symbols">
        <g id="Ultralight-S">
            <path d="M300,94.846 C300.013,99.847 298.025,104.646 294.481,108.173 L284.361,118.29 C283.309,119.341 281.604,119.34 280.553,118.288 C279.502,117.236 279.503,115.531 280.554,114.48 L290.674,104.364 C294.138,100.976 295.514,95.988 294.277,91.303 C293.04,86.619 289.381,82.96 284.696,81.724 C280.011,80.488 275.023,81.865 271.636,85.329 L261.52,95.442 C260.47,96.493 258.764,96.494 257.712,95.443 C256.659,94.391 256.658,92.686 257.71,91.633 L267.827,81.519 C273.217,76.129 281.323,74.516 288.366,77.433 C295.409,80.351 300.001,87.223 300,94.846 Z M268.48,126.555 L258.363,136.671 C254.976,140.135 249.988,141.511 245.303,140.274 C240.618,139.037 236.96,135.378 235.724,130.693 C234.487,126.008 235.864,121.02 239.329,117.633 L249.442,107.52 C250.494,106.467 250.493,104.761 249.441,103.71 C248.388,102.658 246.683,102.659 245.631,103.712 L235.519,113.827 C228.159,121.188 228.159,133.122 235.52,140.481 C242.881,147.841 254.814,147.841 262.174,140.48 L272.29,130.36 C273.341,129.308 273.34,127.603 272.288,126.552 C271.236,125.501 269.531,125.502 268.48,126.554 Z" />
        </g>
        <g id="Regular-S">
            <path d="M500,94.846 C500.013,99.847 498.025,104.646 494.481,108.173 L484.361,118.29 C483.309,119.341 481.604,119.34 480.553,118.288 C479.502,117.236 479.503,115.531 480.554,114.48 L490.674,104.364 C494.138,100.976 495.514,95.988 494.277,91.303 C493.04,86.619 489.381,82.96 484.696,81.724 C480.011,80.488 475.023,81.865 471.636,85.329 L461.52,95.442 C460.47,96.493 458.764,96.494 457.712,95.443 C456.659,94.391 456.658,92.686 457.71,91.633 L467.827,81.519 C473.217,76.129 481.323,74.516 488.366,77.433 C495.409,80.351 500.001,87.223 500,94.846 Z M468.48,126.555 L458.363,136.671 C454.976,140.135 449.988,141.511 445.303,140.274 C440.618,139.037 436.96,135.378 435.724,130.693 C434.487,126.008 435.864,121.02 439.329,117.633 L449.442,107.52 C450.494,106.467 450.493,104.761 449.441,103.71 C448.388,102.658 446.683,102.659 445.631,103.712 L435.519,113.827 C428.159,121.188 428.159,133.122 435.52,140.481 C442.881,147.841 454.814,147.841 462.174,140.48 L472.29,130.36 C473.341,129.308 473.34,127.603 472.288,126.552 C471.236,125.501 469.531,125.502 468.48,126.554 Z" />
        </g>
        <g id="Black-S">
            <path d="M700,94.846 C700.013,99.847 698.025,104.646 694.481,108.173 L684.361,118.29 C683.309,119.341 681.604,119.34 680.553,118.288 C679.502,117.236 679.503,115.531 680.554,114.48 L690.674,104.364 C694.138,100.976 695.514,95.988 694.277,91.303 C693.04,86.619 689.381,82.96 684.696,81.724 C680.011,80.488 675.023,81.865 671.636,85.329 L661.52,95.442 C660.47,96.493 658.764,96.494 657.712,95.443 C656.659,94.391 656.658,92.686 657.71,91.633 L667.827,81.519 C673.217,76.129 681.323,74.516 688.366,77.433 C695.409,80.351 700.001,87.223 700,94.846 Z M668.48,126.555 L658.363,136.671 C654.976,140.135 649.988,141.511 645.303,140.274 C640.618,139.037 636.96,135.378 635.724,130.693 C634.487,126.008 635.864,121.02 639.329,117.633 L649.442,107.52 C650.494,106.467 650.493,104.761 649.441,103.71 C648.388,102.658 646.683,102.659 645.631,103.712 L635.519,113.827 C628.159,121.188 628.159,133.122 635.52,140.481 C642.881,147.841 654.814,147.841 662.174,140.48 L672.29,130.36 C673.341,129.308 673.34,127.603 672.288,126.552 C671.236,125.501 669.531,125.502 668.48,126.554 Z" />
        </g>
    </g>
</svg>