<?xml version="1.0" encoding="UTF-8"?>
<svg height="600" width="800" xmlns="http://www.w3.org/2000/svg" xmlns:xlink="http://www.w3.org/1999/xlink">
    <g id="Notes" font-family="'LucidaGrande', 'Lucida Grande', sans-serif" font-size="13">
        <rect fill="white" height="600.0" width="800.0" x="0.0" y="0.0" />
        <g font-size="13">
            <text x="18.0" y="176.0">Small</text>
            <text x="18.0" y="376.0">Medium</text>
            <text x="18.0" y="576.0">Large</text>
        </g>
        <g font-size="9">
            <text x="250.0" y="30.0">Ultralight</text>
            <text x="450.0" y="30.0">Regular</text>
            <text x="650.0" y="30.0">Black</text>
            <text id="template-version" fill="#505050" text-anchor="end" x="785.0" y="575.0">Template v.3.0</text>
            <a href="https://github.com/swhitty/SwiftDraw">
                <text fill="#505050" text-anchor="end" x="785.0" y="590.0">https://github.com/swhitty/SwiftDraw</text>
            </a>
        </g>
    </g>
    <g id="Guides" stroke="rgb(39, 170, 225)" stroke-width="0.5">
        <path id="Capline-S" d="M18,76 l800,0" />
        <path id="H-reference" d="M85,145.755 L87.685,145.755 L113.369,79.287 L114.052,79.287 L114.052,76 L112.148,76 L85,145.755 Z M95.693,121.536 L130.996,121.536 L130.263,119.313 L96.474,119.313 L95.693,121.536 Z M139.15,145.755 L141.787,145.755 L114.638,76 L113.466,76 L113.466,79.287 L139.15,145.755 Z" stroke="none" />
        <path id="Baseline-S" d="M18,146 l800,0" />
        <path id="left-margin-Ultralight-S" d="M220,56 l0,110" />
        <path id="right-margin-Ultralight-S" d="M310,56 l0,110" />
        <path id="left-margin-Regular-S" d="M420,56 l0,110" />
        <path id="right-margin-Regular-S" d="M510,56 l0,110" />
        <path id="left-margin-Black-S" d="M620,56 l0,110" />
        <path id="right-margin-Black-S" d="M710,56 l0,110" />
        <path id="Capline-M" d="M18,276 l800,0" />
        <path id="Baseline-M" d="M18,346 l800,0" />
        <path id="Capline-L" d="M18,476 l800,0" />
        <path id="Baseline-L" d="M18,546 l800,0" />
    </g>
    <g id="Symbols">
        <g id="Ultralight-S">
            <path d="M297.257,83.781 C297.092,81.064 294.926,78.898 292.209,78.733 C287.975,78.48 277.156,78.867 268.177,87.843 L266.578,89.462 L246.948,89.462 C245.514,89.453 244.137,90.021 243.125,91.037 L231.582,102.587 C230.138,104.029 229.634,106.165 230.281,108.101 C230.927,110.037 232.613,111.441 234.634,111.727 L247.581,113.534 L262.459,128.413 L264.266,141.366 C264.55,143.387 265.956,145.073 267.894,145.714 C268.448,145.899 269.027,145.993 269.611,145.993 C271.037,145.996 272.406,145.429 273.413,144.418 L284.963,132.875 C285.979,131.863 286.547,130.486 286.538,129.052 L286.538,109.422 L288.144,107.816 C297.123,98.838 297.51,88.018 297.257,83.781 Z M246.948,94.846 L261.194,94.846 L247.89,108.146 L235.385,106.403 Z M271.99,91.666 C277.224,86.4 284.473,83.644 291.883,84.104 C292.36,91.518 289.609,98.778 284.337,104.013 L265,123.344 L252.656,111 Z M281.154,129.052 L269.6,140.615 L267.854,128.106 L281.154,114.806 Z M256.196,132.249 C254.682,135.567 249.617,143.308 235.385,143.308 C234.671,143.308 233.986,143.024 233.481,142.519 C232.976,142.014 232.692,141.329 232.692,140.615 C232.692,126.383 240.433,121.318 243.751,119.8 C245.104,119.183 246.701,119.78 247.318,121.133 C247.935,122.486 247.339,124.083 245.986,124.7 C243.822,125.686 239.046,128.86 238.205,137.795 C247.14,136.954 250.32,132.178 251.3,130.014 C251.916,128.662 253.513,128.065 254.866,128.681 C256.219,129.298 256.817,130.895 256.2,132.248 Z" />
        </g>
        <g id="Regular-S">
            <path d="M497.257,83.781 C497.092,81.064 494.926,78.898 492.209,78.733 C487.975,78.48 477.156,78.867 468.177,87.843 L466.578,89.462 L446.948,89.462 C445.514,89.453 444.137,90.021 443.125,91.037 L431.582,102.587 C430.138,104.029 429.634,106.165 430.281,108.101 C430.927,110.037 432.613,111.441 434.634,111.727 L447.581,113.534 L462.459,128.413 L464.266,141.366 C464.55,143.387 465.956,145.073 467.894,145.714 C468.448,145.899 469.027,145.993 469.611,145.993 C471.037,145.996 472.406,145.429 473.413,144.418 L484.963,132.875 C485.979,131.863 486.547,130.486 486.538,129.052 L486.538,109.422 L488.144,107.816 C497.123,98.838 497.51,88.018 497.257,83.781 Z M446.948,94.846 L461.194,94.846 L447.89,108.146 L435.385,106.403 Z M471.99,91.666 C477.224,86.4 484.473,83.644 491.883,84.104 C492.36,91.518 489.609,98.778 484.337,104.013 L465,123.344 L452.656,111 Z M481.154,129.052 L469.6,140.615 L467.854,128.106 L481.154,114.806 Z M456.196,132.249 C454.682,135.567 449.617,143.308 435.385,143.308 C434.671,143.308 433.986,143.024 433.481,142.519 C432.976,142.014 432.692,141.329 432.692,140.615 C432.692,126.383 440.433,121.318 443.751,119.8 C445.104,119.183 446.701,119.78 447.318,121.133 C447.935,122.486 447.339,124.083 445.986,124.7 C443.822,125.686 439.046,128.86 438.205,137.795 C447.14,136.954 450.32,132.178 451.3,130.014 C451.916,128.662 453.513,128.065 454.866,128.681 C456.219,129.298 456.817,130.895 456.2,132.248 Z" />
        </g>
        <g id="Black-S">
            <path d="M697.257,83.781 C697.092,81.064 694.926,78.898 692.209,78.733 C687.976,78.48 677.156,78.867 668.177,87.843 L666.578,89.462 L646.948,89.462 C645.514,89.453 644.137,90.021 643.125,91.037 L631.582,102.587 C630.138,104.029 629.634,106.165 630.281,108.101 C630.927,110.037 632.613,111.441 634.634,111.727 L647.581,113.534 L662.459,128.413 L664.266,141.366 C664.55,143.387 665.956,145.073 667.894,145.714 C668.448,145.899 669.027,145.993 669.611,145.993 C671.037,145.996 672.406,145.429 673.413,144.418 L684.964,132.875 C685.979,131.863 686.547,130.486 686.538,129.052 L686.538,109.422 L688.144,107.816 C697.123,98.838 697.51,88.018 697.257,83.781 Z M646.948,94.846 L661.194,94.846 L647.89,108.146 L635.385,106.403 Z M671.99,91.666 C677.224,86.4 684.473,83.644 691.883,84.104 C692.36,91.518 689.609,98.778 684.338,104.013 L665,123.344 L652.656,111 Z M681.154,129.052 L669.601,140.615 L667.854,128.106 L681.154,114.806 Z M656.196,132.249 C654.682,135.567 649.617,143.308 635.385,143.308 C634.671,143.308 633.986,143.024 633.481,142.519 C632.976,142.014 632.692,141.329 632.692,140.615 C632.692,126.383 640.433,121.318 643.751,119.8 C645.104,119.183 646.701,119.78 647.318,121.133 C647.935,122.486 647.339,124.083 645.986,124.7 C643.822,125.686 639.046,128.86 638.205,137.795 C647.14,136.954 650.32,132.178 651.3,130.014 C651.916,128.662 653.513,128.065 654.866,128.681 C656.219,129.298 656.817,130.895 656.2,132.248 Z" />
        </g>
    </g>
</svg>