<?xml version="1.0" encoding="UTF-8"?>
<svg height="600" width="800" xmlns="http://www.w3.org/2000/svg" xmlns:xlink="http://www.w3.org/1999/xlink">
    <g id="Notes" font-family="'LucidaGrande', 'Lucida Grande', sans-serif" font-size="13">
        <rect fill="white" height="600.0" width="800.0" x="0.0" y="0.0" />
        <g font-size="13">
            <text x="18.0" y="176.0">Small</text>
            <text x="18.0" y="376.0">Medium</text>
            <text x="18.0" y="576.0">Large</text>
        </g>
        <g font-size="9">
            <text x="250.0" y="30.0">Ultralight</text>
            <text x="450.0" y="30.0">Regular</text>
            <text x="650.0" y="30.0">Black</text>
            <text id="template-version" fill="#505050" text-anchor="end" x="785.0" y="575.0">Template v.3.0</text>
            <a href="https://github.com/swhitty/SwiftDraw">
                <text fill="#505050" text-anchor="end" x="785.0" y="590.0">https://github.com/swhitty/SwiftDraw</text>
            </a>
        </g>
    </g>
    <g id="Guides" stroke="rgb(39, 170, 225)" stroke-width="0.5">
        <path id="Capline-S" d="M18,76 l800,0" />
        <path id="H-reference" d="M85,145.755 L87.685,145.755 L113.369,79.287 L114.052,79.287 L114.052,76 L112.148,76 L85,145.755 Z M95.693,121.536 L130.996,121.536 L130.263,119.313 L96.474,119.313 L95.693,121.536 Z M139.15,145.755 L141.787,145.755 L114.638,76 L113.466,76 L113.466,79.287 L139.15,145.755 Z" stroke="none" />
        <path id="Baseline-S" d="M18,146 l800,0" />
        <path id="left-margin-Ultralight-S" d="M220,56 l0,110" />
        <path id="right-margin-Ultralight-S" d="M310,56 l0,110" />
        <path id="left-margin-Regular-S" d="M420,56 l0,110" />
        <path id="right-margin-Regular-S" d="M510,56 l0,110" />
        <path id="left-margin-Black-S" d="M620,56 l0,110" />
        <path id="right-margin-Black-S" d="M710,56 l0,110" />
        <path id="Capline-M" d="M18,276 l800,0" />
        <path id="Baseline-M" d="M18,346 l800,0" />
        <path id="Capline-L" d="M18,476 l800,0" />
        <path id="Baseline-L" d="M18,546 l800,0" />
    </g>
    <g id="Symbols">
        <g id="Ultralight-S">
            <path d="M297.308,119.077 L297.308,113.692 C297.271,100.013 288.655,87.827 275.77,83.232 L275.77,81.385 C275.77,79.957 275.202,78.587 274.193,77.577 C273.183,76.567 271.813,76 270.385,76 L259.615,76 C258.187,76 256.818,76.567 255.808,77.577 C254.798,78.587 254.231,79.957 254.231,81.385 L254.231,83.232 C241.346,87.827 232.729,100.013 232.692,113.692 L232.692,119.077 C231.264,119.077 229.895,119.644 228.885,120.654 C227.875,121.664 227.308,123.033 227.308,124.462 L227.308,132.538 C227.308,133.967 227.875,135.336 228.885,136.346 C229.895,137.356 231.264,137.923 232.692,137.923 L297.308,137.923 C298.736,137.923 300.105,137.356 301.115,136.346 C302.125,135.336 302.692,133.967 302.692,132.538 L302.692,124.462 C302.692,123.033 302.125,121.664 301.115,120.654 C300.105,119.644 298.736,119.077 297.308,119.077 Z M291.923,113.692 L291.923,119.077 L275.769,119.077 L275.769,89.014 C285.561,93.321 291.893,102.995 291.923,113.692 Z M270.385,81.385 L270.385,119.077 L259.615,119.077 L259.615,81.385 Z M238.077,113.692 C238.107,102.995 244.44,93.321 254.231,89.014 L254.231,119.077 L238.077,119.077 Z M297.308,132.538 L232.692,132.538 L232.692,124.462 L297.308,124.462 L297.308,132.538 Z" />
        </g>
        <g id="Regular-S">
            <path d="M497.308,119.077 L497.308,113.692 C497.271,100.013 488.654,87.827 475.77,83.232 L475.77,81.385 C475.77,79.957 475.202,78.587 474.192,77.577 C473.183,76.567 471.813,76 470.385,76 L459.615,76 C458.187,76 456.818,76.567 455.808,77.577 C454.798,78.587 454.231,79.957 454.231,81.385 L454.231,83.232 C441.346,87.827 432.729,100.013 432.692,113.692 L432.692,119.077 C431.264,119.077 429.895,119.644 428.885,120.654 C427.875,121.664 427.308,123.033 427.308,124.462 L427.308,132.538 C427.308,133.967 427.875,135.336 428.885,136.346 C429.895,137.356 431.264,137.923 432.692,137.923 L497.308,137.923 C498.736,137.923 500.105,137.356 501.115,136.346 C502.125,135.336 502.692,133.967 502.692,132.538 L502.692,124.462 C502.692,123.033 502.125,121.664 501.115,120.654 C500.105,119.644 498.736,119.077 497.308,119.077 Z M491.923,113.692 L491.923,119.077 L475.769,119.077 L475.769,89.014 C485.561,93.321 491.893,102.995 491.923,113.692 Z M470.385,81.385 L470.385,119.077 L459.615,119.077 L459.615,81.385 Z M438.077,113.692 C438.107,102.995 444.44,93.321 454.231,89.014 L454.231,119.077 L438.077,119.077 Z M497.308,132.538 L432.692,132.538 L432.692,124.462 L497.308,124.462 L497.308,132.538 Z" />
        </g>
        <g id="Black-S">
            <path d="M697.308,119.077 L697.308,113.692 C697.271,100.013 688.655,87.827 675.77,83.232 L675.77,81.385 C675.77,79.957 675.202,78.587 674.193,77.577 C673.183,76.567 671.813,76 670.385,76 L659.615,76 C658.187,76 656.818,76.567 655.808,77.577 C654.798,78.587 654.231,79.957 654.231,81.385 L654.231,83.232 C641.346,87.827 632.729,100.013 632.692,113.692 L632.692,119.077 C631.264,119.077 629.895,119.644 628.885,120.654 C627.875,121.664 627.308,123.033 627.308,124.462 L627.308,132.538 C627.308,133.967 627.875,135.336 628.885,136.346 C629.895,137.356 631.264,137.923 632.692,137.923 L697.308,137.923 C698.736,137.923 700.105,137.356 701.115,136.346 C702.125,135.336 702.692,133.967 702.692,132.538 L702.692,124.462 C702.692,123.033 702.125,121.664 701.115,120.654 C700.105,119.644 698.736,119.077 697.308,119.077 Z M691.923,113.692 L691.923,119.077 L675.769,119.077 L675.769,89.014 C685.561,93.321 691.893,102.995 691.923,113.692 Z M670.385,81.385 L670.385,119.077 L659.615,119.077 L659.615,81.385 Z M638.077,113.692 C638.107,102.995 644.44,93.321 654.231,89.014 L654.231,119.077 L638.077,119.077 Z M697.308,132.538 L632.692,132.538 L632.692,124.462 L697.308,124.462 L697.308,132.538 Z" />
        </g>
    </g>
</svg>