<?xml version="1.0" encoding="UTF-8"?>
<svg height="600" width="800" xmlns="http://www.w3.org/2000/svg" xmlns:xlink="http://www.w3.org/1999/xlink">
    <g id="Notes" font-family="'LucidaGrande', 'Lucida Grande', sans-serif" font-size="13">
        <rect fill="white" height="600.0" width="800.0" x="0.0" y="0.0" />
        <g font-size="13">
            <text x="18.0" y="176.0">Small</text>
            <text x="18.0" y="376.0">Medium</text>
            <text x="18.0" y="576.0">Large</text>
        </g>
        <g font-size="9">
            <text x="250.0" y="30.0">Ultralight</text>
            <text x="450.0" y="30.0">Regular</text>
            <text x="650.0" y="30.0">Black</text>
            <text id="template-version" fill="#505050" text-anchor="end" x="785.0" y="575.0">Template v.3.0</text>
            <a href="https://github.com/swhitty/SwiftDraw">
                <text fill="#505050" text-anchor="end" x="785.0" y="590.0">https://github.com/swhitty/SwiftDraw</text>
            </a>
        </g>
    </g>
    <g id="Guides" stroke="rgb(39, 170, 225)" stroke-width="0.5">
        <path id="Capline-S" d="M18,76 l800,0" />
        <path id="H-reference" d="M85,145.755 L87.685,145.755 L113.369,79.287 L114.052,79.287 L114.052,76 L112.148,76 L85,145.755 Z M95.693,121.536 L130.996,121.536 L130.263,119.313 L96.474,119.313 L95.693,121.536 Z M139.15,145.755 L141.787,145.755 L114.638,76 L113.466,76 L113.466,79.287 L139.15,145.755 Z" stroke="none" />
        <path id="Baseline-S" d="M18,146 l800,0" />
        <path id="left-margin-Ultralight-S" d="M220,56 l0,110" />
        <path id="right-margin-Ultralight-S" d="M310,56 l0,110" />
        <path id="left-margin-Regular-S" d="M420,56 l0,110" />
        <path id="right-margin-Regular-S" d="M510,56 l0,110" />
        <path id="left-margin-Black-S" d="M620,56 l0,110" />
        <path id="right-margin-Black-S" d="M710,56 l0,110" />
        <path id="Capline-M" d="M18,276 l800,0" />
        <path id="Baseline-M" d="M18,346 l800,0" />
        <path id="Capline-L" d="M18,476 l800,0" />
        <path id="Baseline-L" d="M18,546 l800,0" />
    </g>
    <g id="Symbols">
        <g id="Ultralight-S">
            <path d="M282.5,86.769 C276.53,86.769 271.324,88.95 267.692,92.544 L267.692,81.385 L273.077,81.385 C274.564,81.385 275.769,80.179 275.769,78.692 C275.769,77.205 274.564,76 273.077,76 L267.692,76 L267.692,70.615 C267.692,69.128 266.487,67.923 265,67.923 C263.513,67.923 262.308,69.128 262.308,70.615 L262.308,76 L256.923,76 C255.436,76 254.231,77.205 254.231,78.692 C254.231,80.179 255.436,81.385 256.923,81.385 L262.308,81.385 L262.308,92.544 C258.676,88.95 253.47,86.769 247.5,86.769 C236.353,86.782 227.321,95.815 227.308,106.962 C227.308,117.011 232.201,123.401 236.303,126.992 C238.459,128.871 240.869,130.437 243.462,131.643 L243.462,137.923 C243.462,139.351 244.029,140.721 245.039,141.731 C246.048,142.74 247.418,143.308 248.846,143.308 L281.154,143.308 C282.582,143.308 283.952,142.74 284.961,141.731 C285.971,140.721 286.538,139.351 286.538,137.923 L286.538,131.643 C289.131,130.437 291.541,128.871 293.697,126.992 C297.799,123.401 302.692,117.011 302.692,106.962 C302.68,95.815 293.647,86.782 282.5,86.769 Z M282.995,127.292 C281.895,127.658 281.154,128.687 281.154,129.846 L281.154,137.923 L248.846,137.923 L248.846,129.846 C248.846,128.687 248.105,127.658 247.005,127.292 C246.861,127.245 232.692,122.341 232.692,106.962 C232.701,98.788 239.325,92.163 247.499,92.154 C256.081,92.154 262.307,97.814 262.307,105.615 L262.307,127.154 C262.307,128.641 263.512,129.846 264.999,129.846 C266.486,129.846 267.692,128.641 267.692,127.154 L267.692,105.615 C267.692,97.814 273.918,92.154 282.499,92.154 C290.674,92.163 297.298,98.787 297.307,106.962 C297.308,122.24 283.57,127.097 282.995,127.292 Z" />
        </g>
        <g id="Regular-S">
            <path d="M482.5,86.769 C476.53,86.769 471.324,88.95 467.692,92.544 L467.692,81.385 L473.077,81.385 C474.564,81.385 475.769,80.179 475.769,78.692 C475.769,77.205 474.564,76 473.077,76 L467.692,76 L467.692,70.615 C467.692,69.128 466.487,67.923 465,67.923 C463.513,67.923 462.308,69.128 462.308,70.615 L462.308,76 L456.923,76 C455.436,76 454.231,77.205 454.231,78.692 C454.231,80.179 455.436,81.385 456.923,81.385 L462.308,81.385 L462.308,92.544 C458.676,88.95 453.47,86.769 447.5,86.769 C436.353,86.782 427.321,95.815 427.308,106.962 C427.308,117.011 432.201,123.401 436.303,126.992 C438.459,128.871 440.869,130.437 443.462,131.643 L443.462,137.923 C443.462,139.351 444.029,140.721 445.039,141.731 C446.048,142.74 447.418,143.308 448.846,143.308 L481.154,143.308 C482.582,143.308 483.952,142.74 484.961,141.731 C485.971,140.721 486.538,139.351 486.538,137.923 L486.538,131.643 C489.131,130.437 491.541,128.871 493.697,126.992 C497.799,123.401 502.692,117.011 502.692,106.962 C502.68,95.815 493.647,86.782 482.5,86.769 Z M482.995,127.292 C481.895,127.658 481.154,128.687 481.154,129.846 L481.154,137.923 L448.846,137.923 L448.846,129.846 C448.846,128.687 448.105,127.658 447.005,127.292 C446.861,127.245 432.692,122.341 432.692,106.962 C432.701,98.788 439.325,92.163 447.499,92.154 C456.081,92.154 462.307,97.814 462.307,105.615 L462.307,127.154 C462.307,128.641 463.512,129.846 464.999,129.846 C466.486,129.846 467.692,128.641 467.692,127.154 L467.692,105.615 C467.692,97.814 473.918,92.154 482.499,92.154 C490.674,92.163 497.298,98.787 497.307,106.962 C497.308,122.24 483.57,127.097 482.995,127.292 Z" />
        </g>
        <g id="Black-S">
            <path d="M682.5,86.769 C676.53,86.769 671.324,88.95 667.692,92.544 L667.692,81.385 L673.077,81.385 C674.564,81.385 675.769,80.179 675.769,78.692 C675.769,77.205 674.564,76 673.077,76 L667.692,76 L667.692,70.615 C667.692,69.128 666.487,67.923 665,67.923 C663.513,67.923 662.308,69.128 662.308,70.615 L662.308,76 L656.923,76 C655.436,76 654.231,77.205 654.231,78.692 C654.231,80.179 655.436,81.385 656.923,81.385 L662.308,81.385 L662.308,92.544 C658.676,88.95 653.47,86.769 647.5,86.769 C636.354,86.782 627.321,95.815 627.308,106.962 C627.308,117.011 632.201,123.401 636.303,126.992 C638.459,128.871 640.869,130.437 643.462,131.643 L643.462,137.923 C643.462,139.351 644.029,140.721 645.039,141.731 C646.049,142.74 647.418,143.308 648.846,143.308 L681.154,143.308 C682.582,143.308 683.952,142.74 684.961,141.731 C685.971,140.721 686.539,139.351 686.539,137.923 L686.539,131.643 C689.131,130.437 691.541,128.871 693.697,126.992 C697.799,123.401 702.692,117.011 702.692,106.962 C702.68,95.815 693.647,86.782 682.5,86.769 Z M682.995,127.292 C681.895,127.658 681.154,128.687 681.154,129.846 L681.154,137.923 L648.846,137.923 L648.846,129.846 C648.846,128.687 648.105,127.658 647.005,127.292 C646.861,127.245 632.692,122.341 632.692,106.962 C632.701,98.788 639.325,92.163 647.499,92.154 C656.081,92.154 662.307,97.814 662.307,105.615 L662.307,127.154 C662.307,128.641 663.512,129.846 664.999,129.846 C666.486,129.846 667.692,128.641 667.692,127.154 L667.692,105.615 C667.692,97.814 673.918,92.154 682.499,92.154 C690.674,92.163 697.298,98.787 697.307,106.962 C697.308,122.24 683.57,127.097 682.995,127.292 Z" />
        </g>
    </g>
</svg>