<?xml version="1.0" encoding="UTF-8"?>
<svg height="600" width="800" xmlns="http://www.w3.org/2000/svg" xmlns:xlink="http://www.w3.org/1999/xlink">
    <g id="Notes" font-family="'LucidaGrande', 'Lucida Grande', sans-serif" font-size="13">
        <rect fill="white" height="600.0" width="800.0" x="0.0" y="0.0" />
        <g font-size="13">
            <text x="18.0" y="176.0">Small</text>
            <text x="18.0" y="376.0">Medium</text>
            <text x="18.0" y="576.0">Large</text>
        </g>
        <g font-size="9">
            <text x="250.0" y="30.0">Ultralight</text>
            <text x="450.0" y="30.0">Regular</text>
            <text x="650.0" y="30.0">Black</text>
            <text id="template-version" fill="#505050" text-anchor="end" x="785.0" y="575.0">Template v.3.0</text>
            <a href="https://github.com/swhitty/SwiftDraw">
                <text fill="#505050" text-anchor="end" x="785.0" y="590.0">https://github.com/swhitty/SwiftDraw</text>
            </a>
        </g>
    </g>
    <g id="Guides" stroke="rgb(39, 170, 225)" stroke-width="0.5">
        <path id="Capline-S" d="M18,76 l800,0" />
        <path id="H-reference" d="M85,145.755 L87.685,145.755 L113.369,79.287 L114.052,79.287 L114.052,76 L112.148,76 L85,145.755 Z M95.693,121.536 L130.996,121.536 L130.263,119.313 L96.474,119.313 L95.693,121.536 Z M139.15,145.755 L141.787,145.755 L114.638,76 L113.466,76 L113.466,79.287 L139.15,145.755 Z" stroke="none" />
        <path id="Baseline-S" d="M18,146 l800,0" />
        <path id="left-margin-Ultralight-S" d="M220,56 l0,110" />
        <path id="right-margin-Ultralight-S" d="M310,56 l0,110" />
        <path id="left-margin-Regular-S" d="M420,56 l0,110" />
        <path id="right-margin-Regular-S" d="M510,56 l0,110" />
        <path id="left-margin-Black-S" d="M620,56 l0,110" />
        <path id="right-margin-Black-S" d="M710,56 l0,110" />
        <path id="Capline-M" d="M18,276 l800,0" />
        <path id="Baseline-M" d="M18,346 l800,0" />
        <path id="Capline-L" d="M18,476 l800,0" />
        <path id="Baseline-L" d="M18,546 l800,0" />
    </g>
    <g id="Symbols">
        <g id="Ultralight-S">
            <path d="M297.308,111 C297.308,111.714 297.024,112.399 296.519,112.904 C296.014,113.409 295.329,113.692 294.615,113.692 L265,113.692 C263.513,113.692 262.308,112.487 262.308,111 C262.308,109.513 263.513,108.308 265,108.308 L294.615,108.308 C295.329,108.308 296.014,108.591 296.519,109.096 C297.024,109.601 297.308,110.286 297.308,111 Z M265,92.154 L294.615,92.154 C296.102,92.154 297.308,90.948 297.308,89.462 C297.308,87.975 296.102,86.769 294.615,86.769 L265,86.769 C263.513,86.769 262.308,87.975 262.308,89.462 C262.308,90.948 263.513,92.154 265,92.154 Z M294.615,129.846 L265,129.846 C263.513,129.846 262.308,131.052 262.308,132.538 C262.308,134.025 263.513,135.231 265,135.231 L294.615,135.231 C296.102,135.231 297.308,134.025 297.308,132.538 C297.308,131.052 296.102,129.846 294.615,129.846 Z M249.634,82.172 L240.769,91.04 L237.289,87.557 C236.239,86.505 234.533,86.504 233.481,87.556 C232.428,88.607 232.427,90.313 233.479,91.365 L238.863,96.75 C239.368,97.255 240.054,97.54 240.768,97.54 C241.483,97.54 242.168,97.255 242.673,96.75 L253.442,85.981 C254.494,84.928 254.494,83.223 253.442,82.172 C252.39,81.12 250.685,81.121 249.633,82.173 Z M249.634,103.711 L240.769,112.578 L237.289,109.095 C236.239,108.044 234.533,108.043 233.481,109.094 C232.428,110.146 232.427,111.851 233.479,112.904 L238.863,118.288 C239.368,118.794 240.054,119.078 240.768,119.078 C241.483,119.078 242.168,118.794 242.673,118.288 L253.442,107.519 C254.495,106.465 254.494,104.76 253.441,103.708 C252.389,102.657 250.683,102.658 249.632,103.711 Z M249.634,125.249 L240.769,134.117 L237.289,130.634 C236.239,129.582 234.533,129.581 233.481,130.633 C232.428,131.684 232.427,133.39 233.479,134.442 L238.863,139.827 C239.368,140.332 240.054,140.616 240.768,140.616 C241.483,140.616 242.168,140.332 242.673,139.827 L253.442,129.058 C254.495,128.004 254.494,126.298 253.441,125.247 C252.389,124.196 250.683,124.196 249.632,125.249 Z" />
        </g>
        <g id="Regular-S">
            <path d="M497.308,111 C497.308,111.714 497.024,112.399 496.519,112.904 C496.014,113.409 495.329,113.692 494.615,113.692 L465,113.692 C463.513,113.692 462.308,112.487 462.308,111 C462.308,109.513 463.513,108.308 465,108.308 L494.615,108.308 C495.329,108.308 496.014,108.591 496.519,109.096 C497.024,109.601 497.308,110.286 497.308,111 Z M465,92.154 L494.615,92.154 C496.102,92.154 497.308,90.948 497.308,89.462 C497.308,87.975 496.102,86.769 494.615,86.769 L465,86.769 C463.513,86.769 462.308,87.975 462.308,89.462 C462.308,90.948 463.513,92.154 465,92.154 Z M494.615,129.846 L465,129.846 C463.513,129.846 462.308,131.052 462.308,132.538 C462.308,134.025 463.513,135.231 465,135.231 L494.615,135.231 C496.102,135.231 497.308,134.025 497.308,132.538 C497.308,131.052 496.102,129.846 494.615,129.846 Z M449.634,82.172 L440.769,91.04 L437.289,87.557 C436.239,86.505 434.533,86.504 433.481,87.556 C432.428,88.607 432.427,90.313 433.479,91.365 L438.863,96.75 C439.368,97.255 440.054,97.54 440.768,97.54 C441.483,97.54 442.168,97.255 442.673,96.75 L453.442,85.981 C454.494,84.928 454.494,83.223 453.442,82.172 C452.39,81.12 450.685,81.121 449.633,82.173 Z M449.634,103.711 L440.769,112.578 L437.289,109.095 C436.239,108.044 434.533,108.043 433.481,109.094 C432.428,110.146 432.427,111.851 433.479,112.904 L438.863,118.288 C439.368,118.794 440.054,119.078 440.768,119.078 C441.483,119.078 442.168,118.794 442.673,118.288 L453.442,107.519 C454.495,106.465 454.494,104.76 453.441,103.708 C452.389,102.657 450.683,102.658 449.632,103.711 Z M449.634,125.249 L440.769,134.117 L437.289,130.634 C436.239,129.582 434.533,129.581 433.481,130.633 C432.428,131.684 432.427,133.39 433.479,134.442 L438.863,139.827 C439.368,140.332 440.054,140.616 440.768,140.616 C441.483,140.616 442.168,140.332 442.673,139.827 L453.442,129.058 C454.495,128.004 454.494,126.298 453.441,125.247 C452.389,124.196 450.683,124.196 449.632,125.249 Z" />
        </g>
        <g id="Black-S">
            <path d="M697.308,111 C697.308,111.714 697.024,112.399 696.519,112.904 C696.014,113.409 695.329,113.692 694.615,113.692 L665,113.692 C663.513,113.692 662.308,112.487 662.308,111 C662.308,109.513 663.513,108.308 665,108.308 L694.615,108.308 C695.329,108.308 696.014,108.591 696.519,109.096 C697.024,109.601 697.308,110.286 697.308,111 Z M665,92.154 L694.615,92.154 C696.102,92.154 697.308,90.948 697.308,89.462 C697.308,87.975 696.102,86.769 694.615,86.769 L665,86.769 C663.513,86.769 662.308,87.975 662.308,89.462 C662.308,90.948 663.513,92.154 665,92.154 Z M694.615,129.846 L665,129.846 C663.513,129.846 662.308,131.052 662.308,132.538 C662.308,134.025 663.513,135.231 665,135.231 L694.615,135.231 C696.102,135.231 697.308,134.025 697.308,132.538 C697.308,131.052 696.102,129.846 694.615,129.846 Z M649.634,82.172 L640.769,91.04 L637.289,87.557 C636.239,86.505 634.533,86.504 633.481,87.556 C632.428,88.607 632.427,90.313 633.479,91.365 L638.863,96.75 C639.368,97.255 640.054,97.54 640.768,97.54 C641.483,97.54 642.168,97.255 642.673,96.75 L653.442,85.981 C654.494,84.928 654.494,83.223 653.442,82.172 C652.39,81.12 650.685,81.121 649.633,82.173 Z M649.634,103.711 L640.769,112.578 L637.289,109.095 C636.239,108.044 634.533,108.043 633.481,109.094 C632.428,110.146 632.427,111.851 633.479,112.904 L638.863,118.288 C639.368,118.794 640.054,119.078 640.768,119.078 C641.483,119.078 642.168,118.794 642.673,118.288 L653.442,107.519 C654.495,106.465 654.494,104.76 653.441,103.708 C652.389,102.657 650.683,102.658 649.632,103.711 Z M649.634,125.249 L640.769,134.117 L637.289,130.634 C636.239,129.582 634.533,129.581 633.481,130.633 C632.428,131.684 632.427,133.39 633.479,134.442 L638.863,139.827 C639.368,140.332 640.054,140.616 640.768,140.616 C641.483,140.616 642.168,140.332 642.673,139.827 L653.442,129.058 C654.495,128.004 654.494,126.298 653.441,125.247 C652.389,124.196 650.683,124.196 649.632,125.249 Z" />
        </g>
    </g>
</svg>