<?xml version="1.0" encoding="UTF-8"?>
<svg height="600" width="800" xmlns="http://www.w3.org/2000/svg" xmlns:xlink="http://www.w3.org/1999/xlink">
    <g id="Notes" font-family="'LucidaGrande', 'Lucida Grande', sans-serif" font-size="13">
        <rect fill="white" height="600.0" width="800.0" x="0.0" y="0.0" />
        <g font-size="13">
            <text x="18.0" y="176.0">Small</text>
            <text x="18.0" y="376.0">Medium</text>
            <text x="18.0" y="576.0">Large</text>
        </g>
        <g font-size="9">
            <text x="250.0" y="30.0">Ultralight</text>
            <text x="450.0" y="30.0">Regular</text>
            <text x="650.0" y="30.0">Black</text>
            <text id="template-version" fill="#505050" text-anchor="end" x="785.0" y="575.0">Template v.3.0</text>
            <a href="https://github.com/swhitty/SwiftDraw">
                <text fill="#505050" text-anchor="end" x="785.0" y="590.0">https://github.com/swhitty/SwiftDraw</text>
            </a>
        </g>
    </g>
    <g id="Guides" stroke="rgb(39, 170, 225)" stroke-width="0.5">
        <path id="Capline-S" d="M18,76 l800,0" />
        <path id="H-reference" d="M85,145.755 L87.685,145.755 L113.369,79.287 L114.052,79.287 L114.052,76 L112.148,76 L85,145.755 Z M95.693,121.536 L130.996,121.536 L130.263,119.313 L96.474,119.313 L95.693,121.536 Z M139.15,145.755 L141.787,145.755 L114.638,76 L113.466,76 L113.466,79.287 L139.15,145.755 Z" stroke="none" />
        <path id="Baseline-S" d="M18,146 l800,0" />
        <path id="left-margin-Ultralight-S" d="M220,56 l0,110" />
        <path id="right-margin-Ultralight-S" d="M310,56 l0,110" />
        <path id="left-margin-Regular-S" d="M420,56 l0,110" />
        <path id="right-margin-Regular-S" d="M510,56 l0,110" />
        <path id="left-margin-Black-S" d="M620,56 l0,110" />
        <path id="right-margin-Black-S" d="M710,56 l0,110" />
        <path id="Capline-M" d="M18,276 l800,0" />
        <path id="Baseline-M" d="M18,346 l800,0" />
        <path id="Capline-L" d="M18,476 l800,0" />
        <path id="Baseline-L" d="M18,546 l800,0" />
    </g>
    <g id="Symbols">
        <g id="Ultralight-S">
            <path d="M283.846,84.35 L283.846,78.692 C283.846,77.264 283.279,75.895 282.269,74.885 C281.259,73.875 279.89,73.308 278.462,73.308 L251.538,73.308 C250.11,73.308 248.741,73.875 247.731,74.885 C246.721,75.895 246.154,77.264 246.154,78.692 L246.154,84.35 C239.89,85.635 235.391,91.144 235.385,97.538 L235.385,135.231 C235.385,138.801 236.803,142.225 239.327,144.75 C241.852,147.274 245.276,148.692 248.846,148.692 L281.154,148.692 C284.724,148.692 288.148,147.274 290.673,144.75 C293.197,142.225 294.615,138.801 294.615,135.231 L294.615,97.538 C294.608,91.143 290.109,85.634 283.845,84.349 Z M278.462,84.077 L273.077,84.077 L273.077,78.692 L278.462,78.692 Z M262.308,84.077 L262.308,78.692 L267.692,78.692 L267.692,84.077 Z M256.923,78.692 L256.923,84.077 L251.538,84.077 L251.538,78.692 Z M289.231,135.231 C289.231,137.373 288.38,139.427 286.865,140.942 C285.35,142.457 283.296,143.308 281.154,143.308 L248.846,143.308 C246.704,143.308 244.65,142.457 243.135,140.942 C241.62,139.427 240.769,137.373 240.769,135.231 L240.769,97.538 C240.769,95.396 241.62,93.342 243.135,91.827 C244.65,90.312 246.704,89.462 248.846,89.462 L281.154,89.462 C283.296,89.462 285.35,90.312 286.865,91.827 C288.38,93.342 289.231,95.396 289.231,97.538 Z M275.769,121.769 C275.769,123.911 274.918,125.966 273.404,127.48 C271.889,128.995 269.834,129.846 267.692,129.846 L267.692,132.538 C267.692,134.025 266.487,135.231 265,135.231 C263.513,135.231 262.308,134.025 262.308,132.538 L262.308,129.846 L259.615,129.846 C258.128,129.846 256.923,128.641 256.923,127.154 C256.923,125.667 258.128,124.462 259.615,124.462 L267.692,124.462 C269.179,124.462 270.385,123.256 270.385,121.769 C270.385,120.282 269.179,119.077 267.692,119.077 L262.308,119.077 C257.847,119.077 254.231,115.461 254.231,111 C254.231,106.539 257.847,102.923 262.308,102.923 L262.308,100.231 C262.308,98.744 263.513,97.538 265,97.538 C266.487,97.538 267.692,98.744 267.692,100.231 L267.692,102.923 L270.385,102.923 C271.872,102.923 273.077,104.128 273.077,105.615 C273.077,107.102 271.872,108.308 270.385,108.308 L262.308,108.308 C260.821,108.308 259.615,109.513 259.615,111 C259.615,112.487 260.821,113.692 262.308,113.692 L267.692,113.692 C269.834,113.692 271.889,114.543 273.404,116.058 C274.918,117.573 275.769,119.627 275.769,121.769 Z" />
        </g>
        <g id="Regular-S">
            <path d="M483.846,84.35 L483.846,78.692 C483.846,77.264 483.279,75.895 482.269,74.885 C481.259,73.875 479.89,73.308 478.462,73.308 L451.538,73.308 C450.11,73.308 448.741,73.875 447.731,74.885 C446.721,75.895 446.154,77.264 446.154,78.692 L446.154,84.35 C439.89,85.635 435.391,91.144 435.385,97.538 L435.385,135.231 C435.385,138.801 436.803,142.225 439.327,144.75 C441.852,147.274 445.276,148.692 448.846,148.692 L481.154,148.692 C484.724,148.692 488.148,147.274 490.673,144.75 C493.197,142.225 494.615,138.801 494.615,135.231 L494.615,97.538 C494.608,91.143 490.109,85.634 483.845,84.349 Z M478.462,84.077 L473.077,84.077 L473.077,78.692 L478.462,78.692 Z M462.308,84.077 L462.308,78.692 L467.692,78.692 L467.692,84.077 Z M456.923,78.692 L456.923,84.077 L451.538,84.077 L451.538,78.692 Z M489.231,135.231 C489.231,137.373 488.38,139.427 486.865,140.942 C485.35,142.457 483.296,143.308 481.154,143.308 L448.846,143.308 C446.704,143.308 444.65,142.457 443.135,140.942 C441.62,139.427 440.769,137.373 440.769,135.231 L440.769,97.538 C440.769,95.396 441.62,93.342 443.135,91.827 C444.65,90.312 446.704,89.462 448.846,89.462 L481.154,89.462 C483.296,89.462 485.35,90.312 486.865,91.827 C488.38,93.342 489.231,95.396 489.231,97.538 Z M475.769,121.769 C475.769,123.911 474.918,125.966 473.404,127.48 C471.889,128.995 469.834,129.846 467.692,129.846 L467.692,132.538 C467.692,134.025 466.487,135.231 465,135.231 C463.513,135.231 462.308,134.025 462.308,132.538 L462.308,129.846 L459.615,129.846 C458.128,129.846 456.923,128.641 456.923,127.154 C456.923,125.667 458.128,124.462 459.615,124.462 L467.692,124.462 C469.179,124.462 470.385,123.256 470.385,121.769 C470.385,120.282 469.179,119.077 467.692,119.077 L462.308,119.077 C457.847,119.077 454.231,115.461 454.231,111 C454.231,106.539 457.847,102.923 462.308,102.923 L462.308,100.231 C462.308,98.744 463.513,97.538 465,97.538 C466.487,97.538 467.692,98.744 467.692,100.231 L467.692,102.923 L470.385,102.923 C471.872,102.923 473.077,104.128 473.077,105.615 C473.077,107.102 471.872,108.308 470.385,108.308 L462.308,108.308 C460.821,108.308 459.615,109.513 459.615,111 C459.615,112.487 460.821,113.692 462.308,113.692 L467.692,113.692 C469.834,113.692 471.889,114.543 473.404,116.058 C474.918,117.573 475.769,119.627 475.769,121.769 Z" />
        </g>
        <g id="Black-S">
            <path d="M683.846,84.35 L683.846,78.692 C683.846,77.264 683.279,75.895 682.269,74.885 C681.259,73.875 679.89,73.308 678.462,73.308 L651.538,73.308 C650.11,73.308 648.741,73.875 647.731,74.885 C646.721,75.895 646.154,77.264 646.154,78.692 L646.154,84.35 C639.89,85.635 635.391,91.144 635.385,97.538 L635.385,135.231 C635.385,138.801 636.803,142.225 639.327,144.75 C641.852,147.274 645.276,148.692 648.846,148.692 L681.154,148.692 C684.724,148.692 688.148,147.274 690.673,144.75 C693.197,142.225 694.615,138.801 694.615,135.231 L694.615,97.538 C694.608,91.143 690.109,85.634 683.845,84.349 Z M678.462,84.077 L673.077,84.077 L673.077,78.692 L678.462,78.692 Z M662.308,84.077 L662.308,78.692 L667.692,78.692 L667.692,84.077 Z M656.923,78.692 L656.923,84.077 L651.538,84.077 L651.538,78.692 Z M689.231,135.231 C689.231,137.373 688.38,139.427 686.865,140.942 C685.35,142.457 683.296,143.308 681.154,143.308 L648.846,143.308 C646.704,143.308 644.65,142.457 643.135,140.942 C641.62,139.427 640.769,137.373 640.769,135.231 L640.769,97.538 C640.769,95.396 641.62,93.342 643.135,91.827 C644.65,90.312 646.704,89.462 648.846,89.462 L681.154,89.462 C683.296,89.462 685.35,90.312 686.865,91.827 C688.38,93.342 689.231,95.396 689.231,97.538 Z M675.769,121.769 C675.769,123.911 674.918,125.966 673.404,127.48 C671.889,128.995 669.834,129.846 667.692,129.846 L667.692,132.538 C667.692,134.025 666.487,135.231 665,135.231 C663.513,135.231 662.308,134.025 662.308,132.538 L662.308,129.846 L659.615,129.846 C658.128,129.846 656.923,128.641 656.923,127.154 C656.923,125.667 658.128,124.462 659.615,124.462 L667.692,124.462 C669.179,124.462 670.385,123.256 670.385,121.769 C670.385,120.282 669.179,119.077 667.692,119.077 L662.308,119.077 C657.847,119.077 654.231,115.461 654.231,111 C654.231,106.539 657.847,102.923 662.308,102.923 L662.308,100.231 C662.308,98.744 663.513,97.538 665,97.538 C666.487,97.538 667.692,98.744 667.692,100.231 L667.692,102.923 L670.385,102.923 C671.872,102.923 673.077,104.128 673.077,105.615 C673.077,107.102 671.872,108.308 670.385,108.308 L662.308,108.308 C660.821,108.308 659.615,109.513 659.615,111 C659.615,112.487 660.821,113.692 662.308,113.692 L667.692,113.692 C669.834,113.692 671.889,114.543 673.404,116.058 C674.918,117.573 675.769,119.627 675.769,121.769 Z" />
        </g>
    </g>
</svg>