<?xml version="1.0" encoding="UTF-8"?>
<svg height="600" width="800" xmlns="http://www.w3.org/2000/svg" xmlns:xlink="http://www.w3.org/1999/xlink">
    <g id="Notes" font-family="'LucidaGrande', 'Lucida Grande', sans-serif" font-size="13">
        <rect fill="white" height="600.0" width="800.0" x="0.0" y="0.0" />
        <g font-size="13">
            <text x="18.0" y="176.0">Small</text>
            <text x="18.0" y="376.0">Medium</text>
            <text x="18.0" y="576.0">Large</text>
        </g>
        <g font-size="9">
            <text x="250.0" y="30.0">Ultralight</text>
            <text x="450.0" y="30.0">Regular</text>
            <text x="650.0" y="30.0">Black</text>
            <text id="template-version" fill="#505050" text-anchor="end" x="785.0" y="575.0">Template v.3.0</text>
            <a href="https://github.com/swhitty/SwiftDraw">
                <text fill="#505050" text-anchor="end" x="785.0" y="590.0">https://github.com/swhitty/SwiftDraw</text>
            </a>
        </g>
    </g>
    <g id="Guides" stroke="rgb(39, 170, 225)" stroke-width="0.5">
        <path id="Capline-S" d="M18,76 l800,0" />
        <path id="H-reference" d="M85,145.755 L87.685,145.755 L113.369,79.287 L114.052,79.287 L114.052,76 L112.148,76 L85,145.755 Z M95.693,121.536 L130.996,121.536 L130.263,119.313 L96.474,119.313 L95.693,121.536 Z M139.15,145.755 L141.787,145.755 L114.638,76 L113.466,76 L113.466,79.287 L139.15,145.755 Z" stroke="none" />
        <path id="Baseline-S" d="M18,146 l800,0" />
        <path id="left-margin-Ultralight-S" d="M220,56 l0,110" />
        <path id="right-margin-Ultralight-S" d="M310,56 l0,110" />
        <path id="left-margin-Regular-S" d="M420,56 l0,110" />
        <path id="right-margin-Regular-S" d="M510,56 l0,110" />
        <path id="left-margin-Black-S" d="M620,56 l0,110" />
        <path id="right-margin-Black-S" d="M710,56 l0,110" />
        <path id="Capline-M" d="M18,276 l800,0" />
        <path id="Baseline-M" d="M18,346 l800,0" />
        <path id="Capline-L" d="M18,476 l800,0" />
        <path id="Baseline-L" d="M18,546 l800,0" />
    </g>
    <g id="Symbols">
        <g id="Ultralight-S">
            <path d="M235.385,102.923 C235.385,101.796 236.088,100.789 237.145,100.399 L288.298,81.553 C289.673,81.108 291.153,81.828 291.653,83.183 C292.153,84.539 291.494,86.047 290.16,86.601 L245.864,102.923 L290.16,119.242 C291.385,119.692 292.111,120.956 291.883,122.241 C291.654,123.526 290.536,124.462 289.231,124.462 C288.913,124.461 288.597,124.405 288.299,124.297 L237.145,105.45 C236.087,105.06 235.384,104.051 235.385,102.923 Z M289.231,132.538 L238.077,132.538 C236.59,132.538 235.385,133.744 235.385,135.231 C235.385,136.718 236.59,137.923 238.077,137.923 L289.231,137.923 C290.718,137.923 291.923,136.718 291.923,135.231 C291.923,133.744 290.718,132.538 289.231,132.538 Z" />
        </g>
        <g id="Regular-S">
            <path d="M435.385,102.923 C435.385,101.796 436.088,100.789 437.145,100.399 L488.298,81.553 C489.673,81.108 491.153,81.828 491.653,83.183 C492.153,84.539 491.494,86.047 490.159,86.601 L445.864,102.923 L490.16,119.242 C491.385,119.692 492.111,120.956 491.883,122.241 C491.654,123.526 490.536,124.462 489.231,124.462 C488.913,124.461 488.597,124.405 488.299,124.297 L437.145,105.45 C436.086,105.06 435.384,104.051 435.385,102.923 Z M489.231,132.538 L438.077,132.538 C436.59,132.538 435.385,133.744 435.385,135.231 C435.385,136.718 436.59,137.923 438.077,137.923 L489.231,137.923 C490.718,137.923 491.923,136.718 491.923,135.231 C491.923,133.744 490.718,132.538 489.231,132.538 Z" />
        </g>
        <g id="Black-S">
            <path d="M635.385,102.923 C635.385,101.796 636.088,100.789 637.145,100.399 L688.298,81.553 C689.673,81.108 691.153,81.828 691.653,83.183 C692.153,84.539 691.494,86.047 690.16,86.601 L645.864,102.923 L690.16,119.242 C691.385,119.692 692.111,120.956 691.883,122.241 C691.654,123.526 690.536,124.462 689.231,124.462 C688.913,124.461 688.597,124.405 688.299,124.297 L637.145,105.45 C636.086,105.06 635.384,104.051 635.385,102.923 Z M689.231,132.538 L638.077,132.538 C636.59,132.538 635.385,133.744 635.385,135.231 C635.385,136.718 636.59,137.923 638.077,137.923 L689.231,137.923 C690.718,137.923 691.923,136.718 691.923,135.231 C691.923,133.744 690.718,132.538 689.231,132.538 Z" />
        </g>
    </g>
</svg>