<?xml version="1.0" encoding="UTF-8"?>
<svg height="600" width="800" xmlns="http://www.w3.org/2000/svg" xmlns:xlink="http://www.w3.org/1999/xlink">
    <g id="Notes" font-family="'LucidaGrande', 'Lucida Grande', sans-serif" font-size="13">
        <rect fill="white" height="600.0" width="800.0" x="0.0" y="0.0" />
        <g font-size="13">
            <text x="18.0" y="176.0">Small</text>
            <text x="18.0" y="376.0">Medium</text>
            <text x="18.0" y="576.0">Large</text>
        </g>
        <g font-size="9">
            <text x="250.0" y="30.0">Ultralight</text>
            <text x="450.0" y="30.0">Regular</text>
            <text x="650.0" y="30.0">Black</text>
            <text id="template-version" fill="#505050" text-anchor="end" x="785.0" y="575.0">Template v.3.0</text>
            <a href="https://github.com/swhitty/SwiftDraw">
                <text fill="#505050" text-anchor="end" x="785.0" y="590.0">https://github.com/swhitty/SwiftDraw</text>
            </a>
        </g>
    </g>
    <g id="Guides" stroke="rgb(39, 170, 225)" stroke-width="0.5">
        <path id="Capline-S" d="M18,76 l800,0" />
        <path id="H-reference" d="M85,145.755 L87.685,145.755 L113.369,79.287 L114.052,79.287 L114.052,76 L112.148,76 L85,145.755 Z M95.693,121.536 L130.996,121.536 L130.263,119.313 L96.474,119.313 L95.693,121.536 Z M139.15,145.755 L141.787,145.755 L114.638,76 L113.466,76 L113.466,79.287 L139.15,145.755 Z" stroke="none" />
        <path id="Baseline-S" d="M18,146 l800,0" />
        <path id="left-margin-Ultralight-S" d="M220,56 l0,110" />
        <path id="right-margin-Ultralight-S" d="M310,56 l0,110" />
        <path id="left-margin-Regular-S" d="M420,56 l0,110" />
        <path id="right-margin-Regular-S" d="M510,56 l0,110" />
        <path id="left-margin-Black-S" d="M620,56 l0,110" />
        <path id="right-margin-Black-S" d="M710,56 l0,110" />
        <path id="Capline-M" d="M18,276 l800,0" />
        <path id="Baseline-M" d="M18,346 l800,0" />
        <path id="Capline-L" d="M18,476 l800,0" />
        <path id="Baseline-L" d="M18,546 l800,0" />
    </g>
    <g id="Symbols">
        <g id="Ultralight-S">
            <path d="M291.923,78.692 L283.846,78.692 L283.846,76 C283.846,74.513 282.641,73.308 281.154,73.308 C279.667,73.308 278.462,74.513 278.462,76 L278.462,78.692 L251.538,78.692 L251.538,76 C251.538,74.513 250.333,73.308 248.846,73.308 C247.359,73.308 246.154,74.513 246.154,76 L246.154,78.692 L238.077,78.692 C236.649,78.692 235.279,79.26 234.269,80.269 C233.26,81.279 232.692,82.649 232.692,84.077 L232.692,137.923 C232.692,139.351 233.26,140.721 234.269,141.731 C235.279,142.74 236.649,143.308 238.077,143.308 L291.923,143.308 C293.351,143.308 294.721,142.74 295.731,141.731 C296.74,140.721 297.308,139.351 297.308,137.923 L297.308,84.077 C297.308,82.649 296.74,81.279 295.731,80.269 C294.721,79.26 293.351,78.692 291.923,78.692 Z M246.154,84.077 L246.154,86.769 C246.154,88.256 247.359,89.462 248.846,89.462 C250.333,89.462 251.538,88.256 251.538,86.769 L251.538,84.077 L278.462,84.077 L278.462,86.769 C278.462,88.256 279.667,89.462 281.154,89.462 C282.641,89.462 283.846,88.256 283.846,86.769 L283.846,84.077 L291.923,84.077 L291.923,94.846 L238.077,94.846 L238.077,84.077 Z M291.923,137.923 L238.077,137.923 L238.077,100.231 L291.923,100.231 L291.923,137.923 Z M259.615,108.308 L259.615,129.846 C259.615,131.333 258.41,132.538 256.923,132.538 C255.436,132.538 254.231,131.333 254.231,129.846 L254.231,112.663 L252.743,113.41 C251.413,114.075 249.795,113.536 249.129,112.206 C248.463,110.875 249.002,109.257 250.333,108.591 L255.717,105.898 C256.552,105.48 257.544,105.525 258.339,106.016 C259.133,106.507 259.616,107.374 259.615,108.308 Z M279.525,118.555 L273.077,127.154 L278.462,127.154 C279.948,127.154 281.154,128.359 281.154,129.846 C281.154,131.333 279.948,132.538 278.462,132.538 L267.692,132.538 C266.673,132.538 265.74,131.962 265.284,131.05 C264.828,130.138 264.927,129.047 265.538,128.231 L275.224,115.318 C275.824,114.519 275.932,113.453 275.505,112.549 C275.078,111.646 274.185,111.054 273.186,111.011 C272.188,110.968 271.248,111.482 270.745,112.346 C270.278,113.206 269.381,113.745 268.402,113.754 C267.423,113.762 266.517,113.239 266.035,112.387 C265.553,111.535 265.572,110.488 266.084,109.654 C267.912,106.49 271.638,104.947 275.168,105.893 C278.698,106.839 281.153,110.038 281.154,113.692 C281.16,115.448 280.587,117.157 279.525,118.555 Z" />
        </g>
        <g id="Regular-S">
            <path d="M491.923,78.692 L483.846,78.692 L483.846,76 C483.846,74.513 482.641,73.308 481.154,73.308 C479.667,73.308 478.462,74.513 478.462,76 L478.462,78.692 L451.538,78.692 L451.538,76 C451.538,74.513 450.333,73.308 448.846,73.308 C447.359,73.308 446.154,74.513 446.154,76 L446.154,78.692 L438.077,78.692 C436.649,78.692 435.279,79.26 434.269,80.269 C433.26,81.279 432.692,82.649 432.692,84.077 L432.692,137.923 C432.692,139.351 433.26,140.721 434.269,141.731 C435.279,142.74 436.649,143.308 438.077,143.308 L491.923,143.308 C493.351,143.308 494.721,142.74 495.731,141.731 C496.74,140.721 497.308,139.351 497.308,137.923 L497.308,84.077 C497.308,82.649 496.74,81.279 495.731,80.269 C494.721,79.26 493.351,78.692 491.923,78.692 Z M446.154,84.077 L446.154,86.769 C446.154,88.256 447.359,89.462 448.846,89.462 C450.333,89.462 451.538,88.256 451.538,86.769 L451.538,84.077 L478.462,84.077 L478.462,86.769 C478.462,88.256 479.667,89.462 481.154,89.462 C482.641,89.462 483.846,88.256 483.846,86.769 L483.846,84.077 L491.923,84.077 L491.923,94.846 L438.077,94.846 L438.077,84.077 Z M491.923,137.923 L438.077,137.923 L438.077,100.231 L491.923,100.231 L491.923,137.923 Z M459.615,108.308 L459.615,129.846 C459.615,131.333 458.41,132.538 456.923,132.538 C455.436,132.538 454.231,131.333 454.231,129.846 L454.231,112.663 L452.743,113.41 C451.413,114.075 449.795,113.536 449.129,112.206 C448.463,110.875 449.002,109.257 450.333,108.591 L455.717,105.898 C456.552,105.48 457.544,105.525 458.339,106.016 C459.133,106.507 459.616,107.374 459.615,108.308 Z M479.525,118.555 L473.077,127.154 L478.462,127.154 C479.948,127.154 481.154,128.359 481.154,129.846 C481.154,131.333 479.948,132.538 478.462,132.538 L467.692,132.538 C466.673,132.538 465.74,131.962 465.284,131.05 C464.828,130.138 464.927,129.047 465.538,128.231 L475.224,115.318 C475.824,114.519 475.932,113.453 475.505,112.549 C475.078,111.646 474.185,111.054 473.186,111.011 C472.188,110.968 471.248,111.482 470.745,112.346 C470.278,113.206 469.381,113.745 468.402,113.754 C467.423,113.762 466.517,113.239 466.035,112.387 C465.553,111.535 465.572,110.488 466.084,109.654 C467.912,106.49 471.638,104.947 475.168,105.893 C478.698,106.839 481.153,110.038 481.154,113.692 C481.16,115.448 480.587,117.157 479.525,118.555 Z" />
        </g>
        <g id="Black-S">
            <path d="M691.923,78.692 L683.846,78.692 L683.846,76 C683.846,74.513 682.641,73.308 681.154,73.308 C679.667,73.308 678.462,74.513 678.462,76 L678.462,78.692 L651.538,78.692 L651.538,76 C651.538,74.513 650.333,73.308 648.846,73.308 C647.359,73.308 646.154,74.513 646.154,76 L646.154,78.692 L638.077,78.692 C636.649,78.692 635.279,79.26 634.269,80.269 C633.26,81.279 632.692,82.649 632.692,84.077 L632.692,137.923 C632.692,139.351 633.26,140.721 634.269,141.731 C635.279,142.74 636.649,143.308 638.077,143.308 L691.923,143.308 C693.351,143.308 694.721,142.74 695.731,141.731 C696.74,140.721 697.308,139.351 697.308,137.923 L697.308,84.077 C697.308,82.649 696.74,81.279 695.731,80.269 C694.721,79.26 693.351,78.692 691.923,78.692 Z M646.154,84.077 L646.154,86.769 C646.154,88.256 647.359,89.462 648.846,89.462 C650.333,89.462 651.538,88.256 651.538,86.769 L651.538,84.077 L678.462,84.077 L678.462,86.769 C678.462,88.256 679.667,89.462 681.154,89.462 C682.641,89.462 683.846,88.256 683.846,86.769 L683.846,84.077 L691.923,84.077 L691.923,94.846 L638.077,94.846 L638.077,84.077 Z M691.923,137.923 L638.077,137.923 L638.077,100.231 L691.923,100.231 L691.923,137.923 Z M659.615,108.308 L659.615,129.846 C659.615,131.333 658.41,132.538 656.923,132.538 C655.436,132.538 654.231,131.333 654.231,129.846 L654.231,112.663 L652.743,113.41 C651.413,114.075 649.795,113.536 649.129,112.206 C648.463,110.875 649.002,109.257 650.333,108.591 L655.718,105.898 C656.552,105.48 657.544,105.525 658.339,106.016 C659.133,106.507 659.616,107.374 659.615,108.308 Z M679.525,118.555 L673.077,127.154 L678.462,127.154 C679.948,127.154 681.154,128.359 681.154,129.846 C681.154,131.333 679.948,132.538 678.462,132.538 L667.692,132.538 C666.673,132.538 665.74,131.962 665.284,131.05 C664.828,130.138 664.927,129.047 665.538,128.231 L675.224,115.318 C675.824,114.519 675.932,113.453 675.505,112.549 C675.078,111.646 674.185,111.054 673.186,111.011 C672.188,110.968 671.248,111.482 670.745,112.346 C670.278,113.206 669.381,113.745 668.402,113.754 C667.423,113.762 666.517,113.239 666.035,112.387 C665.553,111.535 665.572,110.488 666.084,109.654 C667.912,106.49 671.638,104.947 675.168,105.893 C678.698,106.839 681.153,110.038 681.154,113.692 C681.16,115.448 680.587,117.157 679.525,118.555 Z" />
        </g>
    </g>
</svg>