<?xml version="1.0" encoding="UTF-8"?>
<svg height="600" width="800" xmlns="http://www.w3.org/2000/svg" xmlns:xlink="http://www.w3.org/1999/xlink">
    <g id="Notes" font-family="'LucidaGrande', 'Lucida Grande', sans-serif" font-size="13">
        <rect fill="white" height="600.0" width="800.0" x="0.0" y="0.0" />
        <g font-size="13">
            <text x="18.0" y="176.0">Small</text>
            <text x="18.0" y="376.0">Medium</text>
            <text x="18.0" y="576.0">Large</text>
        </g>
        <g font-size="9">
            <text x="250.0" y="30.0">Ultralight</text>
            <text x="450.0" y="30.0">Regular</text>
            <text x="650.0" y="30.0">Black</text>
            <text id="template-version" fill="#505050" text-anchor="end" x="785.0" y="575.0">Template v.3.0</text>
            <a href="https://github.com/swhitty/SwiftDraw">
                <text fill="#505050" text-anchor="end" x="785.0" y="590.0">https://github.com/swhitty/SwiftDraw</text>
            </a>
        </g>
    </g>
    <g id="Guides" stroke="rgb(39, 170, 225)" stroke-width="0.5">
        <path id="Capline-S" d="M18,76 l800,0" />
        <path id="H-reference" d="M85,145.755 L87.685,145.755 L113.369,79.287 L114.052,79.287 L114.052,76 L112.148,76 L85,145.755 Z M95.693,121.536 L130.996,121.536 L130.263,119.313 L96.474,119.313 L95.693,121.536 Z M139.15,145.755 L141.787,145.755 L114.638,76 L113.466,76 L113.466,79.287 L139.15,145.755 Z" stroke="none" />
        <path id="Baseline-S" d="M18,146 l800,0" />
        <path id="left-margin-Ultralight-S" d="M220,56 l0,110" />
        <path id="right-margin-Ultralight-S" d="M310,56 l0,110" />
        <path id="left-margin-Regular-S" d="M420,56 l0,110" />
        <path id="right-margin-Regular-S" d="M510,56 l0,110" />
        <path id="left-margin-Black-S" d="M620,56 l0,110" />
        <path id="right-margin-Black-S" d="M710,56 l0,110" />
        <path id="Capline-M" d="M18,276 l800,0" />
        <path id="Baseline-M" d="M18,346 l800,0" />
        <path id="Capline-L" d="M18,476 l800,0" />
        <path id="Baseline-L" d="M18,546 l800,0" />
    </g>
    <g id="Symbols">
        <g id="Ultralight-S">
            <path d="M302.692,132.538 C302.692,133.253 302.409,133.937 301.904,134.442 C301.399,134.947 300.714,135.231 300,135.231 L289.231,135.231 L289.231,146 C289.231,147.487 288.025,148.692 286.538,148.692 C285.052,148.692 283.846,147.487 283.846,146 L283.846,135.231 L243.462,135.231 C242.747,135.231 242.063,134.947 241.558,134.442 C241.053,133.937 240.769,133.253 240.769,132.538 L240.769,92.154 L230,92.154 C228.513,92.154 227.308,90.948 227.308,89.462 C227.308,87.975 228.513,86.769 230,86.769 L240.769,86.769 L240.769,76 C240.769,74.513 241.975,73.308 243.462,73.308 C244.948,73.308 246.154,74.513 246.154,76 L246.154,129.846 L300,129.846 C300.714,129.846 301.399,130.13 301.904,130.635 C302.409,131.14 302.692,131.824 302.692,132.538 Z M254.231,92.154 L283.846,92.154 L283.846,121.769 C283.846,123.256 285.052,124.462 286.538,124.462 C288.025,124.462 289.231,123.256 289.231,121.769 L289.231,89.462 C289.231,88.747 288.947,88.063 288.442,87.558 C287.937,87.053 287.253,86.769 286.538,86.769 L254.231,86.769 C252.744,86.769 251.538,87.975 251.538,89.462 C251.538,90.948 252.744,92.154 254.231,92.154 Z" />
        </g>
        <g id="Regular-S">
            <path d="M502.692,132.538 C502.692,133.253 502.409,133.937 501.904,134.442 C501.399,134.947 500.714,135.231 500,135.231 L489.231,135.231 L489.231,146 C489.231,147.487 488.025,148.692 486.538,148.692 C485.052,148.692 483.846,147.487 483.846,146 L483.846,135.231 L443.462,135.231 C442.747,135.231 442.063,134.947 441.558,134.442 C441.053,133.937 440.769,133.253 440.769,132.538 L440.769,92.154 L430,92.154 C428.513,92.154 427.308,90.948 427.308,89.462 C427.308,87.975 428.513,86.769 430,86.769 L440.769,86.769 L440.769,76 C440.769,74.513 441.975,73.308 443.462,73.308 C444.948,73.308 446.154,74.513 446.154,76 L446.154,129.846 L500,129.846 C500.714,129.846 501.399,130.13 501.904,130.635 C502.409,131.14 502.692,131.824 502.692,132.538 Z M454.231,92.154 L483.846,92.154 L483.846,121.769 C483.846,123.256 485.052,124.462 486.538,124.462 C488.025,124.462 489.231,123.256 489.231,121.769 L489.231,89.462 C489.231,88.747 488.947,88.063 488.442,87.558 C487.937,87.053 487.253,86.769 486.538,86.769 L454.231,86.769 C452.744,86.769 451.538,87.975 451.538,89.462 C451.538,90.948 452.744,92.154 454.231,92.154 Z" />
        </g>
        <g id="Black-S">
            <path d="M702.692,132.538 C702.692,133.253 702.409,133.937 701.904,134.442 C701.399,134.947 700.714,135.231 700,135.231 L689.231,135.231 L689.231,146 C689.231,147.487 688.025,148.692 686.538,148.692 C685.052,148.692 683.846,147.487 683.846,146 L683.846,135.231 L643.462,135.231 C642.747,135.231 642.063,134.947 641.558,134.442 C641.053,133.937 640.769,133.253 640.769,132.538 L640.769,92.154 L630,92.154 C628.513,92.154 627.308,90.948 627.308,89.462 C627.308,87.975 628.513,86.769 630,86.769 L640.769,86.769 L640.769,76 C640.769,74.513 641.975,73.308 643.462,73.308 C644.948,73.308 646.154,74.513 646.154,76 L646.154,129.846 L700,129.846 C700.714,129.846 701.399,130.13 701.904,130.635 C702.409,131.14 702.692,131.824 702.692,132.538 Z M654.231,92.154 L683.846,92.154 L683.846,121.769 C683.846,123.256 685.052,124.462 686.538,124.462 C688.025,124.462 689.231,123.256 689.231,121.769 L689.231,89.462 C689.231,88.747 688.947,88.063 688.442,87.558 C687.937,87.053 687.253,86.769 686.538,86.769 L654.231,86.769 C652.744,86.769 651.538,87.975 651.538,89.462 C651.538,90.948 652.744,92.154 654.231,92.154 Z" />
        </g>
    </g>
</svg>