<?xml version="1.0" encoding="UTF-8"?>
<svg height="600" width="800" xmlns="http://www.w3.org/2000/svg" xmlns:xlink="http://www.w3.org/1999/xlink">
    <g id="Notes" font-family="'LucidaGrande', 'Lucida Grande', sans-serif" font-size="13">
        <rect fill="white" height="600.0" width="800.0" x="0.0" y="0.0" />
        <g font-size="13">
            <text x="18.0" y="176.0">Small</text>
            <text x="18.0" y="376.0">Medium</text>
            <text x="18.0" y="576.0">Large</text>
        </g>
        <g font-size="9">
            <text x="250.0" y="30.0">Ultralight</text>
            <text x="450.0" y="30.0">Regular</text>
            <text x="650.0" y="30.0">Black</text>
            <text id="template-version" fill="#505050" text-anchor="end" x="785.0" y="575.0">Template v.3.0</text>
            <a href="https://github.com/swhitty/SwiftDraw">
                <text fill="#505050" text-anchor="end" x="785.0" y="590.0">https://github.com/swhitty/SwiftDraw</text>
            </a>
        </g>
    </g>
    <g id="Guides" stroke="rgb(39, 170, 225)" stroke-width="0.5">
        <path id="Capline-S" d="M18,76 l800,0" />
        <path id="H-reference" d="M85,145.755 L87.685,145.755 L113.369,79.287 L114.052,79.287 L114.052,76 L112.148,76 L85,145.755 Z M95.693,121.536 L130.996,121.536 L130.263,119.313 L96.474,119.313 L95.693,121.536 Z M139.15,145.755 L141.787,145.755 L114.638,76 L113.466,76 L113.466,79.287 L139.15,145.755 Z" stroke="none" />
        <path id="Baseline-S" d="M18,146 l800,0" />
        <path id="left-margin-Ultralight-S" d="M220,56 l0,110" />
        <path id="right-margin-Ultralight-S" d="M310,56 l0,110" />
        <path id="left-margin-Regular-S" d="M420,56 l0,110" />
        <path id="right-margin-Regular-S" d="M510,56 l0,110" />
        <path id="left-margin-Black-S" d="M620,56 l0,110" />
        <path id="right-margin-Black-S" d="M710,56 l0,110" />
        <path id="Capline-M" d="M18,276 l800,0" />
        <path id="Baseline-M" d="M18,346 l800,0" />
        <path id="Capline-L" d="M18,476 l800,0" />
        <path id="Baseline-L" d="M18,546 l800,0" />
    </g>
    <g id="Symbols">
        <g id="Ultralight-S">
            <path d="M248.846,84.077 C248.846,84.791 248.562,85.476 248.058,85.981 C247.553,86.486 246.868,86.769 246.154,86.769 L235.385,86.769 L235.385,92.154 C235.385,93.641 234.179,94.846 232.692,94.846 C231.205,94.846 230,93.641 230,92.154 L230,86.769 C230,85.341 230.567,83.972 231.577,82.962 C232.587,81.952 233.957,81.385 235.385,81.385 L246.154,81.385 C246.868,81.385 247.553,81.668 248.058,82.173 C248.562,82.678 248.846,83.363 248.846,84.077 Z M232.692,119.077 C233.406,119.077 234.091,118.793 234.596,118.288 C235.101,117.783 235.385,117.099 235.385,116.385 L235.385,105.615 C235.385,104.128 234.179,102.923 232.692,102.923 C231.205,102.923 230,104.128 230,105.615 L230,116.385 C230,117.099 230.284,117.783 230.789,118.288 C231.293,118.793 231.978,119.077 232.692,119.077 Z M246.154,135.231 L235.385,135.231 L235.385,129.846 C235.385,128.359 234.179,127.154 232.692,127.154 C231.205,127.154 230,128.359 230,129.846 L230,135.231 C230,136.659 230.567,138.028 231.577,139.038 C232.587,140.048 233.957,140.615 235.385,140.615 L246.154,140.615 C247.641,140.615 248.846,139.41 248.846,137.923 C248.846,136.436 247.641,135.231 246.154,135.231 Z M270.385,135.231 L259.615,135.231 C258.128,135.231 256.923,136.436 256.923,137.923 C256.923,139.41 258.128,140.615 259.615,140.615 L270.385,140.615 C271.872,140.615 273.077,139.41 273.077,137.923 C273.077,136.436 271.872,135.231 270.385,135.231 Z M297.308,127.154 C296.594,127.154 295.909,127.438 295.404,127.942 C294.899,128.447 294.615,129.132 294.615,129.846 L294.615,135.231 L283.846,135.231 C282.359,135.231 281.154,136.436 281.154,137.923 C281.154,139.41 282.359,140.615 283.846,140.615 L294.615,140.615 C296.043,140.615 297.413,140.048 298.423,139.038 C299.433,138.028 300,136.659 300,135.231 L300,129.846 C300,129.132 299.716,128.447 299.211,127.942 C298.707,127.438 298.022,127.154 297.308,127.154 Z M297.308,102.923 C296.594,102.923 295.909,103.207 295.404,103.712 C294.899,104.217 294.615,104.901 294.615,105.615 L294.615,116.385 C294.615,117.872 295.821,119.077 297.308,119.077 C298.795,119.077 300,117.872 300,116.385 L300,105.615 C300,104.901 299.716,104.217 299.211,103.712 C298.707,103.207 298.022,102.923 297.308,102.923 Z M294.615,81.385 L283.846,81.385 C282.359,81.385 281.154,82.59 281.154,84.077 C281.154,85.564 282.359,86.769 283.846,86.769 L294.615,86.769 L294.615,92.154 C294.615,93.641 295.821,94.846 297.308,94.846 C298.795,94.846 300,93.641 300,92.154 L300,86.769 C300,85.341 299.433,83.972 298.423,82.962 C297.413,81.952 296.043,81.385 294.615,81.385 Z M270.385,81.385 L259.615,81.385 C258.128,81.385 256.923,82.59 256.923,84.077 C256.923,85.564 258.128,86.769 259.615,86.769 L270.385,86.769 C271.872,86.769 273.077,85.564 273.077,84.077 C273.077,82.59 271.872,81.385 270.385,81.385 Z" />
        </g>
        <g id="Regular-S">
            <path d="M448.846,84.077 C448.846,84.791 448.562,85.476 448.058,85.981 C447.553,86.486 446.868,86.769 446.154,86.769 L435.385,86.769 L435.385,92.154 C435.385,93.641 434.179,94.846 432.692,94.846 C431.205,94.846 430,93.641 430,92.154 L430,86.769 C430,85.341 430.567,83.972 431.577,82.962 C432.587,81.952 433.957,81.385 435.385,81.385 L446.154,81.385 C446.868,81.385 447.553,81.668 448.058,82.173 C448.562,82.678 448.846,83.363 448.846,84.077 Z M432.692,119.077 C433.406,119.077 434.091,118.793 434.596,118.288 C435.101,117.783 435.385,117.099 435.385,116.385 L435.385,105.615 C435.385,104.128 434.179,102.923 432.692,102.923 C431.205,102.923 430,104.128 430,105.615 L430,116.385 C430,117.099 430.284,117.783 430.789,118.288 C431.293,118.793 431.978,119.077 432.692,119.077 Z M446.154,135.231 L435.385,135.231 L435.385,129.846 C435.385,128.359 434.179,127.154 432.692,127.154 C431.205,127.154 430,128.359 430,129.846 L430,135.231 C430,136.659 430.567,138.028 431.577,139.038 C432.587,140.048 433.957,140.615 435.385,140.615 L446.154,140.615 C447.641,140.615 448.846,139.41 448.846,137.923 C448.846,136.436 447.641,135.231 446.154,135.231 Z M470.385,135.231 L459.615,135.231 C458.128,135.231 456.923,136.436 456.923,137.923 C456.923,139.41 458.128,140.615 459.615,140.615 L470.385,140.615 C471.872,140.615 473.077,139.41 473.077,137.923 C473.077,136.436 471.872,135.231 470.385,135.231 Z M497.308,127.154 C496.594,127.154 495.909,127.438 495.404,127.942 C494.899,128.447 494.615,129.132 494.615,129.846 L494.615,135.231 L483.846,135.231 C482.359,135.231 481.154,136.436 481.154,137.923 C481.154,139.41 482.359,140.615 483.846,140.615 L494.615,140.615 C496.043,140.615 497.413,140.048 498.423,139.038 C499.433,138.028 500,136.659 500,135.231 L500,129.846 C500,129.132 499.716,128.447 499.211,127.942 C498.707,127.438 498.022,127.154 497.308,127.154 Z M497.308,102.923 C496.594,102.923 495.909,103.207 495.404,103.712 C494.899,104.217 494.615,104.901 494.615,105.615 L494.615,116.385 C494.615,117.872 495.821,119.077 497.308,119.077 C498.795,119.077 500,117.872 500,116.385 L500,105.615 C500,104.901 499.716,104.217 499.211,103.712 C498.707,103.207 498.022,102.923 497.308,102.923 Z M494.615,81.385 L483.846,81.385 C482.359,81.385 481.154,82.59 481.154,84.077 C481.154,85.564 482.359,86.769 483.846,86.769 L494.615,86.769 L494.615,92.154 C494.615,93.641 495.821,94.846 497.308,94.846 C498.795,94.846 500,93.641 500,92.154 L500,86.769 C500,85.341 499.433,83.972 498.423,82.962 C497.413,81.952 496.043,81.385 494.615,81.385 Z M470.385,81.385 L459.615,81.385 C458.128,81.385 456.923,82.59 456.923,84.077 C456.923,85.564 458.128,86.769 459.615,86.769 L470.385,86.769 C471.872,86.769 473.077,85.564 473.077,84.077 C473.077,82.59 471.872,81.385 470.385,81.385 Z" />
        </g>
        <g id="Black-S">
            <path d="M648.846,84.077 C648.846,84.791 648.562,85.476 648.058,85.981 C647.553,86.486 646.868,86.769 646.154,86.769 L635.385,86.769 L635.385,92.154 C635.385,93.641 634.179,94.846 632.692,94.846 C631.205,94.846 630,93.641 630,92.154 L630,86.769 C630,85.341 630.567,83.972 631.577,82.962 C632.587,81.952 633.957,81.385 635.385,81.385 L646.154,81.385 C646.868,81.385 647.553,81.668 648.058,82.173 C648.562,82.678 648.846,83.363 648.846,84.077 Z M632.692,119.077 C633.406,119.077 634.091,118.793 634.596,118.288 C635.101,117.783 635.385,117.099 635.385,116.385 L635.385,105.615 C635.385,104.128 634.179,102.923 632.692,102.923 C631.205,102.923 630,104.128 630,105.615 L630,116.385 C630,117.099 630.284,117.783 630.789,118.288 C631.293,118.793 631.978,119.077 632.692,119.077 Z M646.154,135.231 L635.385,135.231 L635.385,129.846 C635.385,128.359 634.179,127.154 632.692,127.154 C631.205,127.154 630,128.359 630,129.846 L630,135.231 C630,136.659 630.567,138.028 631.577,139.038 C632.587,140.048 633.957,140.615 635.385,140.615 L646.154,140.615 C647.641,140.615 648.846,139.41 648.846,137.923 C648.846,136.436 647.641,135.231 646.154,135.231 Z M670.385,135.231 L659.615,135.231 C658.128,135.231 656.923,136.436 656.923,137.923 C656.923,139.41 658.128,140.615 659.615,140.615 L670.385,140.615 C671.872,140.615 673.077,139.41 673.077,137.923 C673.077,136.436 671.872,135.231 670.385,135.231 Z M697.308,127.154 C696.594,127.154 695.909,127.438 695.404,127.942 C694.899,128.447 694.615,129.132 694.615,129.846 L694.615,135.231 L683.846,135.231 C682.359,135.231 681.154,136.436 681.154,137.923 C681.154,139.41 682.359,140.615 683.846,140.615 L694.615,140.615 C696.044,140.615 697.413,140.048 698.423,139.038 C699.433,138.028 700,136.659 700,135.231 L700,129.846 C700,129.132 699.716,128.447 699.211,127.942 C698.707,127.438 698.022,127.154 697.308,127.154 Z M697.308,102.923 C696.594,102.923 695.909,103.207 695.404,103.712 C694.899,104.217 694.615,104.901 694.615,105.615 L694.615,116.385 C694.615,117.872 695.821,119.077 697.308,119.077 C698.795,119.077 700,117.872 700,116.385 L700,105.615 C700,104.901 699.716,104.217 699.211,103.712 C698.707,103.207 698.022,102.923 697.308,102.923 Z M694.615,81.385 L683.846,81.385 C682.359,81.385 681.154,82.59 681.154,84.077 C681.154,85.564 682.359,86.769 683.846,86.769 L694.615,86.769 L694.615,92.154 C694.615,93.641 695.821,94.846 697.308,94.846 C698.795,94.846 700,93.641 700,92.154 L700,86.769 C700,85.341 699.433,83.972 698.423,82.962 C697.413,81.952 696.044,81.385 694.615,81.385 Z M670.385,81.385 L659.615,81.385 C658.128,81.385 656.923,82.59 656.923,84.077 C656.923,85.564 658.128,86.769 659.615,86.769 L670.385,86.769 C671.872,86.769 673.077,85.564 673.077,84.077 C673.077,82.59 671.872,81.385 670.385,81.385 Z" />
        </g>
    </g>
</svg>