<?xml version="1.0" encoding="UTF-8"?>
<svg height="600" width="800" xmlns="http://www.w3.org/2000/svg" xmlns:xlink="http://www.w3.org/1999/xlink">
    <g id="Notes" font-family="'LucidaGrande', 'Lucida Grande', sans-serif" font-size="13">
        <rect fill="white" height="600.0" width="800.0" x="0.0" y="0.0" />
        <g font-size="13">
            <text x="18.0" y="176.0">Small</text>
            <text x="18.0" y="376.0">Medium</text>
            <text x="18.0" y="576.0">Large</text>
        </g>
        <g font-size="9">
            <text x="250.0" y="30.0">Ultralight</text>
            <text x="450.0" y="30.0">Regular</text>
            <text x="650.0" y="30.0">Black</text>
            <text id="template-version" fill="#505050" text-anchor="end" x="785.0" y="575.0">Template v.3.0</text>
            <a href="https://github.com/swhitty/SwiftDraw">
                <text fill="#505050" text-anchor="end" x="785.0" y="590.0">https://github.com/swhitty/SwiftDraw</text>
            </a>
        </g>
    </g>
    <g id="Guides" stroke="rgb(39, 170, 225)" stroke-width="0.5">
        <path id="Capline-S" d="M18,76 l800,0" />
        <path id="H-reference" d="M85,145.755 L87.685,145.755 L113.369,79.287 L114.052,79.287 L114.052,76 L112.148,76 L85,145.755 Z M95.693,121.536 L130.996,121.536 L130.263,119.313 L96.474,119.313 L95.693,121.536 Z M139.15,145.755 L141.787,145.755 L114.638,76 L113.466,76 L113.466,79.287 L139.15,145.755 Z" stroke="none" />
        <path id="Baseline-S" d="M18,146 l800,0" />
        <path id="left-margin-Ultralight-S" d="M220,56 l0,110" />
        <path id="right-margin-Ultralight-S" d="M310,56 l0,110" />
        <path id="left-margin-Regular-S" d="M420,56 l0,110" />
        <path id="right-margin-Regular-S" d="M510,56 l0,110" />
        <path id="left-margin-Black-S" d="M620,56 l0,110" />
        <path id="right-margin-Black-S" d="M710,56 l0,110" />
        <path id="Capline-M" d="M18,276 l800,0" />
        <path id="Baseline-M" d="M18,346 l800,0" />
        <path id="Capline-L" d="M18,476 l800,0" />
        <path id="Baseline-L" d="M18,546 l800,0" />
    </g>
    <g id="Symbols">
        <g id="Ultralight-S">
            <path d="M279.808,105.615 C279.808,106.329 279.524,107.014 279.019,107.519 C278.514,108.024 277.829,108.308 277.115,108.308 L254.231,108.308 C252.744,108.308 251.538,107.102 251.538,105.615 C251.538,104.128 252.744,102.923 254.231,102.923 L277.115,102.923 C277.829,102.923 278.514,103.207 279.019,103.712 C279.524,104.217 279.808,104.901 279.808,105.615 Z M277.115,113.692 L254.231,113.692 C252.744,113.692 251.538,114.898 251.538,116.385 C251.538,117.872 252.744,119.077 254.231,119.077 L277.115,119.077 C278.602,119.077 279.808,117.872 279.808,116.385 C279.808,114.898 278.602,113.692 277.115,113.692 Z M300,109.654 C299.98,128.232 284.924,143.287 266.346,143.308 L238.077,143.308 C236.649,143.308 235.279,142.74 234.269,141.731 C233.26,140.721 232.692,139.351 232.692,137.923 L232.692,109.654 C232.692,91.067 247.76,76 266.346,76 C284.933,76 300,91.067 300,109.654 Z M294.615,109.654 C294.615,94.041 281.959,81.385 266.346,81.385 C250.733,81.385 238.077,94.041 238.077,109.654 L238.077,137.923 L266.346,137.923 C281.952,137.906 294.599,125.26 294.615,109.654 Z" />
        </g>
        <g id="Regular-S">
            <path d="M479.808,105.615 C479.808,106.329 479.524,107.014 479.019,107.519 C478.514,108.024 477.829,108.308 477.115,108.308 L454.231,108.308 C452.744,108.308 451.538,107.102 451.538,105.615 C451.538,104.128 452.744,102.923 454.231,102.923 L477.115,102.923 C477.829,102.923 478.514,103.207 479.019,103.712 C479.524,104.217 479.808,104.901 479.808,105.615 Z M477.115,113.692 L454.231,113.692 C452.744,113.692 451.538,114.898 451.538,116.385 C451.538,117.872 452.744,119.077 454.231,119.077 L477.115,119.077 C478.602,119.077 479.808,117.872 479.808,116.385 C479.808,114.898 478.602,113.692 477.115,113.692 Z M500,109.654 C499.98,128.232 484.924,143.287 466.346,143.308 L438.077,143.308 C436.649,143.308 435.279,142.74 434.269,141.731 C433.26,140.721 432.692,139.351 432.692,137.923 L432.692,109.654 C432.692,91.067 447.76,76 466.346,76 C484.933,76 500,91.067 500,109.654 Z M494.615,109.654 C494.615,94.041 481.959,81.385 466.346,81.385 C450.733,81.385 438.077,94.041 438.077,109.654 L438.077,137.923 L466.346,137.923 C481.952,137.906 494.599,125.26 494.615,109.654 Z" />
        </g>
        <g id="Black-S">
            <path d="M679.808,105.615 C679.808,106.329 679.524,107.014 679.019,107.519 C678.514,108.024 677.829,108.308 677.115,108.308 L654.231,108.308 C652.744,108.308 651.538,107.102 651.538,105.615 C651.538,104.128 652.744,102.923 654.231,102.923 L677.115,102.923 C677.829,102.923 678.514,103.207 679.019,103.712 C679.524,104.217 679.808,104.901 679.808,105.615 Z M677.115,113.692 L654.231,113.692 C652.744,113.692 651.538,114.898 651.538,116.385 C651.538,117.872 652.744,119.077 654.231,119.077 L677.115,119.077 C678.602,119.077 679.808,117.872 679.808,116.385 C679.808,114.898 678.602,113.692 677.115,113.692 Z M700,109.654 C699.98,128.232 684.924,143.287 666.346,143.308 L638.077,143.308 C636.649,143.308 635.279,142.74 634.269,141.731 C633.26,140.721 632.692,139.351 632.692,137.923 L632.692,109.654 C632.692,91.067 647.76,76 666.346,76 C684.933,76 700,91.067 700,109.654 Z M694.615,109.654 C694.615,94.041 681.959,81.385 666.346,81.385 C650.734,81.385 638.077,94.041 638.077,109.654 L638.077,137.923 L666.346,137.923 C681.952,137.906 694.599,125.26 694.615,109.654 Z" />
        </g>
    </g>
</svg>