<?xml version="1.0" encoding="UTF-8"?>
<svg height="600" width="800" xmlns="http://www.w3.org/2000/svg" xmlns:xlink="http://www.w3.org/1999/xlink">
    <g id="Notes" font-family="'LucidaGrande', 'Lucida Grande', sans-serif" font-size="13">
        <rect fill="white" height="600.0" width="800.0" x="0.0" y="0.0" />
        <g font-size="13">
            <text x="18.0" y="176.0">Small</text>
            <text x="18.0" y="376.0">Medium</text>
            <text x="18.0" y="576.0">Large</text>
        </g>
        <g font-size="9">
            <text x="250.0" y="30.0">Ultralight</text>
            <text x="450.0" y="30.0">Regular</text>
            <text x="650.0" y="30.0">Black</text>
            <text id="template-version" fill="#505050" text-anchor="end" x="785.0" y="575.0">Template v.3.0</text>
            <a href="https://github.com/swhitty/SwiftDraw">
                <text fill="#505050" text-anchor="end" x="785.0" y="590.0">https://github.com/swhitty/SwiftDraw</text>
            </a>
        </g>
    </g>
    <g id="Guides" stroke="rgb(39, 170, 225)" stroke-width="0.5">
        <path id="Capline-S" d="M18,76 l800,0" />
        <path id="H-reference" d="M85,145.755 L87.685,145.755 L113.369,79.287 L114.052,79.287 L114.052,76 L112.148,76 L85,145.755 Z M95.693,121.536 L130.996,121.536 L130.263,119.313 L96.474,119.313 L95.693,121.536 Z M139.15,145.755 L141.787,145.755 L114.638,76 L113.466,76 L113.466,79.287 L139.15,145.755 Z" stroke="none" />
        <path id="Baseline-S" d="M18,146 l800,0" />
        <path id="left-margin-Ultralight-S" d="M220,56 l0,110" />
        <path id="right-margin-Ultralight-S" d="M310,56 l0,110" />
        <path id="left-margin-Regular-S" d="M420,56 l0,110" />
        <path id="right-margin-Regular-S" d="M510,56 l0,110" />
        <path id="left-margin-Black-S" d="M620,56 l0,110" />
        <path id="right-margin-Black-S" d="M710,56 l0,110" />
        <path id="Capline-M" d="M18,276 l800,0" />
        <path id="Baseline-M" d="M18,346 l800,0" />
        <path id="Capline-L" d="M18,476 l800,0" />
        <path id="Baseline-L" d="M18,546 l800,0" />
    </g>
    <g id="Symbols">
        <g id="Ultralight-S">
            <path d="M249.038,107.298 C249.305,106.634 249.825,106.104 250.484,105.824 C251.142,105.544 251.885,105.538 252.548,105.807 L262.308,109.714 L262.308,100.231 C262.308,98.744 263.513,97.538 265,97.538 C266.487,97.538 267.692,98.744 267.692,100.231 L267.692,109.714 L277.452,105.807 C278.831,105.249 280.403,105.916 280.961,107.296 C281.52,108.677 280.853,110.249 279.473,110.808 L269.272,114.886 L275.231,122.846 C276.123,124.036 275.882,125.723 274.692,126.615 C273.503,127.508 271.815,127.266 270.923,126.077 L265,118.178 L259.077,126.077 C258.185,127.266 256.497,127.508 255.308,126.615 C254.118,125.723 253.877,124.036 254.769,122.846 L260.739,114.887 L250.529,110.808 C249.865,110.541 249.335,110.021 249.055,109.363 C248.775,108.704 248.769,107.961 249.038,107.298 Z M297.308,86.769 L297.308,105.615 C297.308,123.358 288.719,134.11 281.514,140.006 C273.753,146.353 266.033,148.511 265.697,148.598 C265.234,148.724 264.746,148.724 264.283,148.598 C263.947,148.511 256.237,146.353 248.466,140.006 C241.281,134.11 232.692,123.358 232.692,105.615 L232.692,86.769 C232.692,85.341 233.26,83.972 234.269,82.962 C235.279,81.952 236.649,81.385 238.077,81.385 L291.923,81.385 C293.351,81.385 294.721,81.952 295.731,82.962 C296.74,83.972 297.308,85.341 297.308,86.769 Z M291.923,86.769 L238.077,86.769 L238.077,105.615 C238.077,118.168 242.728,128.335 251.899,135.84 C255.803,139.033 260.238,141.518 265,143.18 C269.826,141.488 274.315,138.959 278.263,135.709 C287.326,128.217 291.923,118.091 291.923,105.615 Z" />
        </g>
        <g id="Regular-S">
            <path d="M449.038,107.298 C449.305,106.634 449.825,106.104 450.484,105.824 C451.142,105.544 451.885,105.538 452.548,105.807 L462.308,109.714 L462.308,100.231 C462.308,98.744 463.513,97.538 465,97.538 C466.487,97.538 467.692,98.744 467.692,100.231 L467.692,109.714 L477.452,105.807 C478.831,105.249 480.403,105.916 480.961,107.296 C481.52,108.677 480.853,110.249 479.473,110.808 L469.272,114.886 L475.231,122.846 C476.123,124.036 475.882,125.723 474.692,126.615 C473.503,127.508 471.815,127.266 470.923,126.077 L465,118.178 L459.077,126.077 C458.185,127.266 456.497,127.508 455.308,126.615 C454.118,125.723 453.877,124.036 454.769,122.846 L460.739,114.887 L450.529,110.808 C449.865,110.541 449.335,110.021 449.055,109.363 C448.775,108.704 448.769,107.961 449.038,107.298 Z M497.308,86.769 L497.308,105.615 C497.308,123.358 488.719,134.11 481.514,140.006 C473.753,146.353 466.033,148.511 465.697,148.598 C465.234,148.724 464.746,148.724 464.283,148.598 C463.947,148.511 456.237,146.353 448.466,140.006 C441.281,134.11 432.692,123.358 432.692,105.615 L432.692,86.769 C432.692,85.341 433.26,83.972 434.269,82.962 C435.279,81.952 436.649,81.385 438.077,81.385 L491.923,81.385 C493.351,81.385 494.721,81.952 495.731,82.962 C496.74,83.972 497.308,85.341 497.308,86.769 Z M491.923,86.769 L438.077,86.769 L438.077,105.615 C438.077,118.168 442.728,128.335 451.899,135.84 C455.803,139.033 460.237,141.518 465,143.18 C469.826,141.488 474.315,138.959 478.263,135.709 C487.326,128.217 491.923,118.091 491.923,105.615 Z" />
        </g>
        <g id="Black-S">
            <path d="M649.038,107.298 C649.305,106.634 649.825,106.104 650.484,105.824 C651.142,105.544 651.885,105.538 652.548,105.807 L662.308,109.714 L662.308,100.231 C662.308,98.744 663.513,97.538 665,97.538 C666.487,97.538 667.692,98.744 667.692,100.231 L667.692,109.714 L677.452,105.807 C678.831,105.249 680.403,105.916 680.961,107.296 C681.52,108.677 680.853,110.249 679.473,110.808 L669.272,114.886 L675.231,122.846 C676.123,124.036 675.882,125.723 674.692,126.615 C673.503,127.508 671.815,127.266 670.923,126.077 L665,118.178 L659.077,126.077 C658.185,127.266 656.497,127.508 655.308,126.615 C654.118,125.723 653.877,124.036 654.769,122.846 L660.739,114.887 L650.529,110.808 C649.865,110.541 649.335,110.021 649.055,109.363 C648.775,108.704 648.769,107.961 649.038,107.298 Z M697.308,86.769 L697.308,105.615 C697.308,123.358 688.719,134.11 681.514,140.006 C673.753,146.353 666.033,148.511 665.697,148.598 C665.234,148.724 664.746,148.724 664.283,148.598 C663.947,148.511 656.237,146.353 648.466,140.006 C641.281,134.11 632.692,123.358 632.692,105.615 L632.692,86.769 C632.692,85.341 633.26,83.972 634.269,82.962 C635.279,81.952 636.649,81.385 638.077,81.385 L691.923,81.385 C693.351,81.385 694.721,81.952 695.731,82.962 C696.74,83.972 697.308,85.341 697.308,86.769 Z M691.923,86.769 L638.077,86.769 L638.077,105.615 C638.077,118.168 642.728,128.335 651.899,135.84 C655.803,139.033 660.238,141.518 665,143.18 C669.826,141.488 674.315,138.959 678.263,135.709 C687.326,128.217 691.923,118.091 691.923,105.615 Z" />
        </g>
    </g>
</svg>