<?xml version="1.0" encoding="UTF-8"?>
<svg height="600" width="800" xmlns="http://www.w3.org/2000/svg" xmlns:xlink="http://www.w3.org/1999/xlink">
    <g id="Notes" font-family="'LucidaGrande', 'Lucida Grande', sans-serif" font-size="13">
        <rect fill="white" height="600.0" width="800.0" x="0.0" y="0.0" />
        <g font-size="13">
            <text x="18.0" y="176.0">Small</text>
            <text x="18.0" y="376.0">Medium</text>
            <text x="18.0" y="576.0">Large</text>
        </g>
        <g font-size="9">
            <text x="250.0" y="30.0">Ultralight</text>
            <text x="450.0" y="30.0">Regular</text>
            <text x="650.0" y="30.0">Black</text>
            <text id="template-version" fill="#505050" text-anchor="end" x="785.0" y="575.0">Template v.3.0</text>
            <a href="https://github.com/swhitty/SwiftDraw">
                <text fill="#505050" text-anchor="end" x="785.0" y="590.0">https://github.com/swhitty/SwiftDraw</text>
            </a>
        </g>
    </g>
    <g id="Guides" stroke="rgb(39, 170, 225)" stroke-width="0.5">
        <path id="Capline-S" d="M18,76 l800,0" />
        <path id="H-reference" d="M85,145.755 L87.685,145.755 L113.369,79.287 L114.052,79.287 L114.052,76 L112.148,76 L85,145.755 Z M95.693,121.536 L130.996,121.536 L130.263,119.313 L96.474,119.313 L95.693,121.536 Z M139.15,145.755 L141.787,145.755 L114.638,76 L113.466,76 L113.466,79.287 L139.15,145.755 Z" stroke="none" />
        <path id="Baseline-S" d="M18,146 l800,0" />
        <path id="left-margin-Ultralight-S" d="M220,56 l0,110" />
        <path id="right-margin-Ultralight-S" d="M310,56 l0,110" />
        <path id="left-margin-Regular-S" d="M420,56 l0,110" />
        <path id="right-margin-Regular-S" d="M510,56 l0,110" />
        <path id="left-margin-Black-S" d="M620,56 l0,110" />
        <path id="right-margin-Black-S" d="M710,56 l0,110" />
        <path id="Capline-M" d="M18,276 l800,0" />
        <path id="Baseline-M" d="M18,346 l800,0" />
        <path id="Capline-L" d="M18,476 l800,0" />
        <path id="Baseline-L" d="M18,546 l800,0" />
    </g>
    <g id="Symbols">
        <g id="Ultralight-S">
            <path d="M297.308,90.572 C297.271,87.298 295.903,84.18 293.518,81.937 C288.807,77.467 281.161,77.636 276.483,82.317 L269.981,88.856 C266.791,85.949 261.879,86.063 258.828,89.115 L255.799,92.144 C254.788,93.154 254.22,94.524 254.22,95.953 C254.22,97.382 254.788,98.753 255.799,99.763 L256.472,100.456 L239.309,117.62 C235.947,120.955 234.6,125.819 235.765,130.408 L233.073,136.604 C232.303,138.345 232.687,140.381 234.038,141.723 C235.599,143.298 237.969,143.748 239.999,142.853 L245.898,140.279 C250.4,141.296 255.108,139.93 258.367,136.661 L275.53,119.498 L276.224,120.191 C278.326,122.292 281.734,122.292 283.836,120.191 L286.865,117.162 C289.923,114.106 290.033,109.185 287.114,105.996 L293.761,99.309 C296.082,97 297.363,93.846 297.308,90.572 Z M254.567,132.875 C252.456,134.991 249.349,135.767 246.49,134.894 C245.875,134.705 245.213,134.742 244.623,134.999 L238.531,137.657 L241.106,131.667 C241.373,131.055 241.403,130.365 241.19,129.732 C240.609,128.018 240.621,126.158 241.224,124.451 L262.981,124.451 Z M268.365,119.077 L245.504,119.077 L260.312,104.269 L271.734,115.712 Z M289.964,95.519 L281.426,104.108 C280.376,105.159 280.376,106.863 281.426,107.914 L283.072,109.556 C283.578,110.061 283.862,110.746 283.862,111.461 C283.862,112.176 283.578,112.861 283.072,113.366 L280.043,116.395 L259.615,95.943 L262.644,92.914 C263.695,91.864 265.399,91.864 266.451,92.914 L268.096,94.56 C268.601,95.064 269.284,95.347 269.998,95.348 L269.998,95.348 C270.713,95.346 271.398,95.061 271.902,94.553 L280.296,86.11 C282.924,83.478 287.195,83.357 289.816,85.837 C291.139,87.087 291.9,88.819 291.925,90.639 C291.949,92.458 291.236,94.211 289.948,95.496 Z" />
        </g>
        <g id="Regular-S">
            <path d="M497.308,90.572 C497.271,87.298 495.903,84.18 493.518,81.937 C488.807,77.467 481.161,77.636 476.483,82.317 L469.981,88.856 C466.791,85.949 461.879,86.063 458.828,89.115 L455.799,92.144 C454.788,93.154 454.22,94.524 454.22,95.953 C454.22,97.382 454.788,98.753 455.799,99.763 L456.472,100.456 L439.309,117.62 C435.947,120.955 434.6,125.819 435.765,130.408 L433.073,136.604 C432.303,138.345 432.687,140.381 434.038,141.723 C435.599,143.298 437.969,143.748 439.999,142.853 L445.898,140.279 C450.4,141.296 455.108,139.93 458.367,136.661 L475.53,119.498 L476.224,120.191 C478.326,122.292 481.734,122.292 483.836,120.191 L486.865,117.162 C489.923,114.106 490.033,109.185 487.114,105.996 L493.761,99.309 C496.082,97 497.363,93.846 497.308,90.572 Z M454.567,132.875 C452.456,134.991 449.349,135.767 446.49,134.894 C445.875,134.705 445.213,134.742 444.623,134.999 L438.531,137.657 L441.106,131.667 C441.373,131.055 441.403,130.365 441.19,129.732 C440.609,128.018 440.621,126.158 441.224,124.451 L462.981,124.451 Z M468.365,119.077 L445.504,119.077 L460.312,104.269 L471.734,115.712 Z M489.964,95.519 L481.426,104.108 C480.376,105.159 480.376,106.863 481.426,107.914 L483.072,109.556 C483.578,110.061 483.862,110.746 483.862,111.461 C483.862,112.176 483.578,112.861 483.072,113.366 L480.043,116.395 L459.615,95.943 L462.644,92.914 C463.695,91.864 465.399,91.864 466.45,92.914 L468.096,94.56 C468.601,95.064 469.284,95.347 469.998,95.348 L469.998,95.348 C470.713,95.346 471.398,95.061 471.902,94.553 L480.296,86.11 C482.924,83.478 487.195,83.357 489.816,85.837 C491.139,87.087 491.9,88.819 491.925,90.639 C491.949,92.458 491.236,94.211 489.948,95.496 Z" />
        </g>
        <g id="Black-S">
            <path d="M697.308,90.572 C697.271,87.298 695.903,84.18 693.518,81.937 C688.807,77.467 681.161,77.636 676.483,82.317 L669.981,88.856 C666.791,85.949 661.879,86.063 658.828,89.115 L655.799,92.144 C654.788,93.154 654.22,94.524 654.22,95.953 C654.22,97.382 654.788,98.753 655.799,99.763 L656.472,100.456 L639.309,117.62 C635.947,120.955 634.6,125.819 635.765,130.408 L633.073,136.604 C632.303,138.345 632.687,140.381 634.038,141.723 C635.599,143.298 637.969,143.748 639.999,142.853 L645.898,140.279 C650.4,141.296 655.109,139.93 658.367,136.661 L675.53,119.498 L676.224,120.191 C678.326,122.292 681.734,122.292 683.836,120.191 L686.865,117.162 C689.923,114.106 690.033,109.185 687.114,105.996 L693.761,99.309 C696.082,97 697.363,93.846 697.308,90.572 Z M654.567,132.875 C652.456,134.991 649.349,135.767 646.49,134.894 C645.875,134.705 645.213,134.742 644.623,134.999 L638.531,137.657 L641.106,131.667 C641.373,131.055 641.403,130.365 641.19,129.732 C640.609,128.018 640.621,126.158 641.224,124.451 L662.981,124.451 Z M668.365,119.077 L645.504,119.077 L660.312,104.269 L671.734,115.712 Z M689.964,95.519 L681.426,104.108 C680.376,105.159 680.376,106.863 681.426,107.914 L683.072,109.556 C683.578,110.061 683.862,110.746 683.862,111.461 C683.862,112.176 683.578,112.861 683.072,113.366 L680.043,116.395 L659.615,95.943 L662.644,92.914 C663.695,91.864 665.399,91.864 666.451,92.914 L668.096,94.56 C668.601,95.064 669.285,95.347 669.998,95.348 L669.998,95.348 C670.713,95.346 671.398,95.061 671.902,94.553 L680.296,86.11 C682.924,83.478 687.195,83.357 689.816,85.837 C691.139,87.087 691.9,88.819 691.925,90.639 C691.949,92.458 691.236,94.211 689.948,95.496 Z" />
        </g>
    </g>
</svg>