<?xml version="1.0" encoding="UTF-8"?>
<svg height="600" width="800" xmlns="http://www.w3.org/2000/svg" xmlns:xlink="http://www.w3.org/1999/xlink">
    <g id="Notes" font-family="'LucidaGrande', 'Lucida Grande', sans-serif" font-size="13">
        <rect fill="white" height="600.0" width="800.0" x="0.0" y="0.0" />
        <g font-size="13">
            <text x="18.0" y="176.0">Small</text>
            <text x="18.0" y="376.0">Medium</text>
            <text x="18.0" y="576.0">Large</text>
        </g>
        <g font-size="9">
            <text x="250.0" y="30.0">Ultralight</text>
            <text x="450.0" y="30.0">Regular</text>
            <text x="650.0" y="30.0">Black</text>
            <text id="template-version" fill="#505050" text-anchor="end" x="785.0" y="575.0">Template v.3.0</text>
            <a href="https://github.com/swhitty/SwiftDraw">
                <text fill="#505050" text-anchor="end" x="785.0" y="590.0">https://github.com/swhitty/SwiftDraw</text>
            </a>
        </g>
    </g>
    <g id="Guides" stroke="rgb(39, 170, 225)" stroke-width="0.5">
        <path id="Capline-S" d="M18,76 l800,0" />
        <path id="H-reference" d="M85,145.755 L87.685,145.755 L113.369,79.287 L114.052,79.287 L114.052,76 L112.148,76 L85,145.755 Z M95.693,121.536 L130.996,121.536 L130.263,119.313 L96.474,119.313 L95.693,121.536 Z M139.15,145.755 L141.787,145.755 L114.638,76 L113.466,76 L113.466,79.287 L139.15,145.755 Z" stroke="none" />
        <path id="Baseline-S" d="M18,146 l800,0" />
        <path id="left-margin-Ultralight-S" d="M220,56 l0,110" />
        <path id="right-margin-Ultralight-S" d="M310,56 l0,110" />
        <path id="left-margin-Regular-S" d="M420,56 l0,110" />
        <path id="right-margin-Regular-S" d="M510,56 l0,110" />
        <path id="left-margin-Black-S" d="M620,56 l0,110" />
        <path id="right-margin-Black-S" d="M710,56 l0,110" />
        <path id="Capline-M" d="M18,276 l800,0" />
        <path id="Baseline-M" d="M18,346 l800,0" />
        <path id="Capline-L" d="M18,476 l800,0" />
        <path id="Baseline-L" d="M18,546 l800,0" />
    </g>
    <g id="Symbols">
        <g id="Ultralight-S">
            <path d="M291.923,94.846 L291.923,124.462 C291.923,136.357 282.28,146 270.385,146 C258.489,146 248.846,136.357 248.846,124.462 L248.846,85.191 L237.289,96.751 C236.239,97.802 234.533,97.803 233.481,96.752 C232.428,95.701 232.427,93.995 233.479,92.942 L249.633,76.789 C250.138,76.283 250.823,75.999 251.537,75.999 C252.252,75.999 252.937,76.283 253.442,76.789 L269.596,92.942 C270.649,93.996 270.648,95.702 269.595,96.753 C268.542,97.804 266.837,97.804 265.785,96.751 L254.231,85.191 L254.231,124.462 C254.231,133.383 261.463,140.615 270.385,140.615 C279.306,140.615 286.538,133.383 286.538,124.462 L286.538,94.846 C286.538,93.359 287.744,92.154 289.231,92.154 C290.718,92.154 291.923,93.359 291.923,94.846 Z" />
        </g>
        <g id="Regular-S">
            <path d="M491.923,94.846 L491.923,124.462 C491.923,136.357 482.28,146 470.385,146 C458.489,146 448.846,136.357 448.846,124.462 L448.846,85.191 L437.289,96.751 C436.239,97.802 434.533,97.803 433.481,96.752 C432.428,95.701 432.427,93.995 433.479,92.942 L449.633,76.789 C450.138,76.283 450.823,75.999 451.537,75.999 C452.252,75.999 452.937,76.283 453.442,76.789 L469.596,92.942 C470.649,93.996 470.648,95.702 469.595,96.753 C468.542,97.804 466.837,97.804 465.785,96.751 L454.231,85.191 L454.231,124.462 C454.231,133.383 461.463,140.615 470.385,140.615 C479.306,140.615 486.538,133.383 486.538,124.462 L486.538,94.846 C486.538,93.359 487.744,92.154 489.231,92.154 C490.718,92.154 491.923,93.359 491.923,94.846 Z" />
        </g>
        <g id="Black-S">
            <path d="M691.923,94.846 L691.923,124.462 C691.923,136.357 682.28,146 670.385,146 C658.489,146 648.846,136.357 648.846,124.462 L648.846,85.191 L637.289,96.751 C636.239,97.802 634.533,97.803 633.481,96.752 C632.428,95.701 632.427,93.995 633.479,92.942 L649.633,76.789 C650.138,76.283 650.823,75.999 651.537,75.999 C652.252,75.999 652.937,76.283 653.442,76.789 L669.596,92.942 C670.649,93.996 670.648,95.702 669.595,96.753 C668.542,97.804 666.837,97.804 665.785,96.751 L654.231,85.191 L654.231,124.462 C654.231,133.383 661.463,140.615 670.385,140.615 C679.306,140.615 686.538,133.383 686.538,124.462 L686.538,94.846 C686.538,93.359 687.744,92.154 689.231,92.154 C690.718,92.154 691.923,93.359 691.923,94.846 Z" />
        </g>
    </g>
</svg>