<?xml version="1.0" encoding="UTF-8"?>
<svg height="600" width="800" xmlns="http://www.w3.org/2000/svg" xmlns:xlink="http://www.w3.org/1999/xlink">
    <g id="Notes" font-family="'LucidaGrande', 'Lucida Grande', sans-serif" font-size="13">
        <rect fill="white" height="600.0" width="800.0" x="0.0" y="0.0" />
        <g font-size="13">
            <text x="18.0" y="176.0">Small</text>
            <text x="18.0" y="376.0">Medium</text>
            <text x="18.0" y="576.0">Large</text>
        </g>
        <g font-size="9">
            <text x="250.0" y="30.0">Ultralight</text>
            <text x="450.0" y="30.0">Regular</text>
            <text x="650.0" y="30.0">Black</text>
            <text id="template-version" fill="#505050" text-anchor="end" x="785.0" y="575.0">Template v.3.0</text>
            <a href="https://github.com/swhitty/SwiftDraw">
                <text fill="#505050" text-anchor="end" x="785.0" y="590.0">https://github.com/swhitty/SwiftDraw</text>
            </a>
        </g>
    </g>
    <g id="Guides" stroke="rgb(39, 170, 225)" stroke-width="0.5">
        <path id="Capline-S" d="M18,76 l800,0" />
        <path id="H-reference" d="M85,145.755 L87.685,145.755 L113.369,79.287 L114.052,79.287 L114.052,76 L112.148,76 L85,145.755 Z M95.693,121.536 L130.996,121.536 L130.263,119.313 L96.474,119.313 L95.693,121.536 Z M139.15,145.755 L141.787,145.755 L114.638,76 L113.466,76 L113.466,79.287 L139.15,145.755 Z" stroke="none" />
        <path id="Baseline-S" d="M18,146 l800,0" />
        <path id="left-margin-Ultralight-S" d="M220,56 l0,110" />
        <path id="right-margin-Ultralight-S" d="M310,56 l0,110" />
        <path id="left-margin-Regular-S" d="M420,56 l0,110" />
        <path id="right-margin-Regular-S" d="M510,56 l0,110" />
        <path id="left-margin-Black-S" d="M620,56 l0,110" />
        <path id="right-margin-Black-S" d="M710,56 l0,110" />
        <path id="Capline-M" d="M18,276 l800,0" />
        <path id="Baseline-M" d="M18,346 l800,0" />
        <path id="Capline-L" d="M18,476 l800,0" />
        <path id="Baseline-L" d="M18,546 l800,0" />
    </g>
    <g id="Symbols">
        <g id="Ultralight-S">
            <path d="M278.462,111 C278.462,111.714 278.178,112.399 277.673,112.904 C277.168,113.409 276.483,113.692 275.769,113.692 L254.231,113.692 C252.744,113.692 251.538,112.487 251.538,111 C251.538,109.513 252.744,108.308 254.231,108.308 L275.769,108.308 C276.483,108.308 277.168,108.591 277.673,109.096 C278.178,109.601 278.462,110.286 278.462,111 Z M275.769,119.077 L254.231,119.077 C252.744,119.077 251.538,120.282 251.538,121.769 C251.538,123.256 252.744,124.462 254.231,124.462 L275.769,124.462 C277.256,124.462 278.462,123.256 278.462,121.769 C278.462,120.282 277.256,119.077 275.769,119.077 Z M294.615,81.385 L294.615,135.231 C294.615,138.087 293.481,140.826 291.461,142.846 C289.442,144.865 286.702,146 283.846,146 L246.154,146 C243.298,146 240.558,144.865 238.539,142.846 C236.519,140.826 235.385,138.087 235.385,135.231 L235.385,81.385 C235.385,80.671 235.668,79.986 236.173,79.481 C236.678,78.976 237.363,78.692 238.077,78.692 L246.154,78.692 L246.154,76 C246.154,74.513 247.359,73.308 248.846,73.308 C250.333,73.308 251.538,74.513 251.538,76 L251.538,78.692 L262.308,78.692 L262.308,76 C262.308,74.513 263.513,73.308 265,73.308 C266.487,73.308 267.692,74.513 267.692,76 L267.692,78.692 L278.462,78.692 L278.462,76 C278.462,74.513 279.667,73.308 281.154,73.308 C282.641,73.308 283.846,74.513 283.846,76 L283.846,78.692 L291.923,78.692 C292.637,78.692 293.322,78.976 293.827,79.481 C294.332,79.986 294.615,80.671 294.615,81.385 Z M289.231,84.077 L283.846,84.077 L283.846,86.769 C283.846,88.256 282.641,89.462 281.154,89.462 C279.667,89.462 278.462,88.256 278.462,86.769 L278.462,84.077 L267.692,84.077 L267.692,86.769 C267.692,88.256 266.487,89.462 265,89.462 C263.513,89.462 262.308,88.256 262.308,86.769 L262.308,84.077 L251.538,84.077 L251.538,86.769 C251.538,88.256 250.333,89.462 248.846,89.462 C247.359,89.462 246.154,88.256 246.154,86.769 L246.154,84.077 L240.769,84.077 L240.769,135.231 C240.769,136.659 241.337,138.028 242.346,139.038 C243.356,140.048 244.726,140.615 246.154,140.615 L283.846,140.615 C285.274,140.615 286.644,140.048 287.654,139.038 C288.663,138.028 289.231,136.659 289.231,135.231 Z" />
        </g>
        <g id="Regular-S">
            <path d="M478.462,111 C478.462,111.714 478.178,112.399 477.673,112.904 C477.168,113.409 476.483,113.692 475.769,113.692 L454.231,113.692 C452.744,113.692 451.538,112.487 451.538,111 C451.538,109.513 452.744,108.308 454.231,108.308 L475.769,108.308 C476.483,108.308 477.168,108.591 477.673,109.096 C478.178,109.601 478.462,110.286 478.462,111 Z M475.769,119.077 L454.231,119.077 C452.744,119.077 451.538,120.282 451.538,121.769 C451.538,123.256 452.744,124.462 454.231,124.462 L475.769,124.462 C477.256,124.462 478.462,123.256 478.462,121.769 C478.462,120.282 477.256,119.077 475.769,119.077 Z M494.615,81.385 L494.615,135.231 C494.615,138.087 493.481,140.826 491.461,142.846 C489.442,144.865 486.702,146 483.846,146 L446.154,146 C443.298,146 440.558,144.865 438.539,142.846 C436.519,140.826 435.385,138.087 435.385,135.231 L435.385,81.385 C435.385,80.671 435.668,79.986 436.173,79.481 C436.678,78.976 437.363,78.692 438.077,78.692 L446.154,78.692 L446.154,76 C446.154,74.513 447.359,73.308 448.846,73.308 C450.333,73.308 451.538,74.513 451.538,76 L451.538,78.692 L462.308,78.692 L462.308,76 C462.308,74.513 463.513,73.308 465,73.308 C466.487,73.308 467.692,74.513 467.692,76 L467.692,78.692 L478.462,78.692 L478.462,76 C478.462,74.513 479.667,73.308 481.154,73.308 C482.641,73.308 483.846,74.513 483.846,76 L483.846,78.692 L491.923,78.692 C492.637,78.692 493.322,78.976 493.827,79.481 C494.332,79.986 494.615,80.671 494.615,81.385 Z M489.231,84.077 L483.846,84.077 L483.846,86.769 C483.846,88.256 482.641,89.462 481.154,89.462 C479.667,89.462 478.462,88.256 478.462,86.769 L478.462,84.077 L467.692,84.077 L467.692,86.769 C467.692,88.256 466.487,89.462 465,89.462 C463.513,89.462 462.308,88.256 462.308,86.769 L462.308,84.077 L451.538,84.077 L451.538,86.769 C451.538,88.256 450.333,89.462 448.846,89.462 C447.359,89.462 446.154,88.256 446.154,86.769 L446.154,84.077 L440.769,84.077 L440.769,135.231 C440.769,136.659 441.337,138.028 442.346,139.038 C443.356,140.048 444.726,140.615 446.154,140.615 L483.846,140.615 C485.274,140.615 486.644,140.048 487.654,139.038 C488.663,138.028 489.231,136.659 489.231,135.231 Z" />
        </g>
        <g id="Black-S">
            <path d="M678.462,111 C678.462,111.714 678.178,112.399 677.673,112.904 C677.168,113.409 676.483,113.692 675.769,113.692 L654.231,113.692 C652.744,113.692 651.538,112.487 651.538,111 C651.538,109.513 652.744,108.308 654.231,108.308 L675.769,108.308 C676.483,108.308 677.168,108.591 677.673,109.096 C678.178,109.601 678.462,110.286 678.462,111 Z M675.769,119.077 L654.231,119.077 C652.744,119.077 651.538,120.282 651.538,121.769 C651.538,123.256 652.744,124.462 654.231,124.462 L675.769,124.462 C677.256,124.462 678.462,123.256 678.462,121.769 C678.462,120.282 677.256,119.077 675.769,119.077 Z M694.615,81.385 L694.615,135.231 C694.615,138.087 693.481,140.826 691.461,142.846 C689.442,144.865 686.702,146 683.846,146 L646.154,146 C643.298,146 640.558,144.865 638.539,142.846 C636.519,140.826 635.385,138.087 635.385,135.231 L635.385,81.385 C635.385,80.671 635.668,79.986 636.173,79.481 C636.678,78.976 637.363,78.692 638.077,78.692 L646.154,78.692 L646.154,76 C646.154,74.513 647.359,73.308 648.846,73.308 C650.333,73.308 651.538,74.513 651.538,76 L651.538,78.692 L662.308,78.692 L662.308,76 C662.308,74.513 663.513,73.308 665,73.308 C666.487,73.308 667.692,74.513 667.692,76 L667.692,78.692 L678.462,78.692 L678.462,76 C678.462,74.513 679.667,73.308 681.154,73.308 C682.641,73.308 683.846,74.513 683.846,76 L683.846,78.692 L691.923,78.692 C692.637,78.692 693.322,78.976 693.827,79.481 C694.332,79.986 694.615,80.671 694.615,81.385 Z M689.231,84.077 L683.846,84.077 L683.846,86.769 C683.846,88.256 682.641,89.462 681.154,89.462 C679.667,89.462 678.462,88.256 678.462,86.769 L678.462,84.077 L667.692,84.077 L667.692,86.769 C667.692,88.256 666.487,89.462 665,89.462 C663.513,89.462 662.308,88.256 662.308,86.769 L662.308,84.077 L651.538,84.077 L651.538,86.769 C651.538,88.256 650.333,89.462 648.846,89.462 C647.359,89.462 646.154,88.256 646.154,86.769 L646.154,84.077 L640.769,84.077 L640.769,135.231 C640.769,136.659 641.337,138.028 642.346,139.038 C643.356,140.048 644.726,140.615 646.154,140.615 L683.846,140.615 C685.274,140.615 686.644,140.048 687.654,139.038 C688.663,138.028 689.231,136.659 689.231,135.231 Z" />
        </g>
    </g>
</svg>