<?xml version="1.0" encoding="UTF-8"?>
<svg height="600" width="800" xmlns="http://www.w3.org/2000/svg" xmlns:xlink="http://www.w3.org/1999/xlink">
    <g id="Notes" font-family="'LucidaGrande', 'Lucida Grande', sans-serif" font-size="13">
        <rect fill="white" height="600.0" width="800.0" x="0.0" y="0.0" />
        <g font-size="13">
            <text x="18.0" y="176.0">Small</text>
            <text x="18.0" y="376.0">Medium</text>
            <text x="18.0" y="576.0">Large</text>
        </g>
        <g font-size="9">
            <text x="250.0" y="30.0">Ultralight</text>
            <text x="450.0" y="30.0">Regular</text>
            <text x="650.0" y="30.0">Black</text>
            <text id="template-version" fill="#505050" text-anchor="end" x="785.0" y="575.0">Template v.3.0</text>
            <a href="https://github.com/swhitty/SwiftDraw">
                <text fill="#505050" text-anchor="end" x="785.0" y="590.0">https://github.com/swhitty/SwiftDraw</text>
            </a>
        </g>
    </g>
    <g id="Guides" stroke="rgb(39, 170, 225)" stroke-width="0.5">
        <path id="Capline-S" d="M18,76 l800,0" />
        <path id="H-reference" d="M85,145.755 L87.685,145.755 L113.369,79.287 L114.052,79.287 L114.052,76 L112.148,76 L85,145.755 Z M95.693,121.536 L130.996,121.536 L130.263,119.313 L96.474,119.313 L95.693,121.536 Z M139.15,145.755 L141.787,145.755 L114.638,76 L113.466,76 L113.466,79.287 L139.15,145.755 Z" stroke="none" />
        <path id="Baseline-S" d="M18,146 l800,0" />
        <path id="left-margin-Ultralight-S" d="M220,56 l0,110" />
        <path id="right-margin-Ultralight-S" d="M310,56 l0,110" />
        <path id="left-margin-Regular-S" d="M420,56 l0,110" />
        <path id="right-margin-Regular-S" d="M510,56 l0,110" />
        <path id="left-margin-Black-S" d="M620,56 l0,110" />
        <path id="right-margin-Black-S" d="M710,56 l0,110" />
        <path id="Capline-M" d="M18,276 l800,0" />
        <path id="Baseline-M" d="M18,346 l800,0" />
        <path id="Capline-L" d="M18,476 l800,0" />
        <path id="Baseline-L" d="M18,546 l800,0" />
    </g>
    <g id="Symbols">
        <g id="Ultralight-S">
            <path d="M291.923,94.846 C291.923,95.56 291.639,96.245 291.135,96.75 C290.63,97.255 289.945,97.538 289.231,97.538 L278.411,97.538 C278.441,97.983 278.462,98.43 278.462,98.885 C278.449,110.031 269.416,119.064 258.27,119.077 L253.117,119.077 L277.58,141.315 C278.305,141.959 278.628,142.943 278.426,143.891 C278.224,144.839 277.528,145.605 276.603,145.897 C275.678,146.189 274.668,145.961 273.959,145.3 L244.343,118.377 C243.52,117.629 243.242,116.452 243.643,115.414 C244.044,114.377 245.042,113.692 246.154,113.692 L258.269,113.692 C266.443,113.683 273.068,107.059 273.077,98.885 C273.077,98.43 273.053,97.983 273.013,97.538 L246.154,97.538 C244.667,97.538 243.462,96.333 243.462,94.846 C243.462,93.359 244.667,92.154 246.154,92.154 L271.451,92.154 C268.923,87.199 263.832,84.08 258.269,84.077 L246.154,84.077 C244.667,84.077 243.462,82.872 243.462,81.385 C243.462,79.898 244.667,78.692 246.154,78.692 L289.231,78.692 C290.718,78.692 291.923,79.898 291.923,81.385 C291.923,82.872 290.718,84.077 289.231,84.077 L271.98,84.077 C274.381,86.299 276.208,89.071 277.304,92.154 L289.231,92.154 C289.945,92.154 290.63,92.438 291.135,92.942 C291.639,93.447 291.923,94.132 291.923,94.846 Z" />
        </g>
        <g id="Regular-S">
            <path d="M491.923,94.846 C491.923,95.56 491.639,96.245 491.135,96.75 C490.63,97.255 489.945,97.538 489.231,97.538 L478.411,97.538 C478.441,97.983 478.462,98.43 478.462,98.885 C478.449,110.031 469.416,119.064 458.27,119.077 L453.117,119.077 L477.58,141.315 C478.305,141.959 478.628,142.943 478.426,143.891 C478.224,144.839 477.528,145.605 476.603,145.897 C475.678,146.189 474.668,145.961 473.959,145.3 L444.343,118.377 C443.52,117.629 443.242,116.452 443.643,115.414 C444.044,114.377 445.042,113.692 446.154,113.692 L458.269,113.692 C466.443,113.683 473.068,107.059 473.077,98.885 C473.077,98.43 473.053,97.983 473.013,97.538 L446.154,97.538 C444.667,97.538 443.462,96.333 443.462,94.846 C443.462,93.359 444.667,92.154 446.154,92.154 L471.451,92.154 C468.923,87.199 463.832,84.08 458.269,84.077 L446.154,84.077 C444.667,84.077 443.462,82.872 443.462,81.385 C443.462,79.898 444.667,78.692 446.154,78.692 L489.231,78.692 C490.718,78.692 491.923,79.898 491.923,81.385 C491.923,82.872 490.718,84.077 489.231,84.077 L471.98,84.077 C474.381,86.299 476.208,89.071 477.304,92.154 L489.231,92.154 C489.945,92.154 490.63,92.438 491.135,92.942 C491.639,93.447 491.923,94.132 491.923,94.846 Z" />
        </g>
        <g id="Black-S">
            <path d="M691.923,94.846 C691.923,95.56 691.639,96.245 691.135,96.75 C690.63,97.255 689.945,97.538 689.231,97.538 L678.411,97.538 C678.441,97.983 678.462,98.43 678.462,98.885 C678.449,110.031 669.416,119.064 658.27,119.077 L653.117,119.077 L677.58,141.315 C678.305,141.959 678.628,142.943 678.426,143.891 C678.224,144.839 677.528,145.605 676.603,145.897 C675.678,146.189 674.668,145.961 673.959,145.3 L644.343,118.377 C643.52,117.629 643.242,116.452 643.643,115.414 C644.044,114.377 645.042,113.692 646.154,113.692 L658.269,113.692 C666.443,113.683 673.068,107.059 673.077,98.885 C673.077,98.43 673.053,97.983 673.013,97.538 L646.154,97.538 C644.667,97.538 643.462,96.333 643.462,94.846 C643.462,93.359 644.667,92.154 646.154,92.154 L671.451,92.154 C668.923,87.199 663.832,84.08 658.269,84.077 L646.154,84.077 C644.667,84.077 643.462,82.872 643.462,81.385 C643.462,79.898 644.667,78.692 646.154,78.692 L689.231,78.692 C690.718,78.692 691.923,79.898 691.923,81.385 C691.923,82.872 690.718,84.077 689.231,84.077 L671.98,84.077 C674.381,86.299 676.208,89.071 677.304,92.154 L689.231,92.154 C689.945,92.154 690.63,92.438 691.135,92.942 C691.639,93.447 691.923,94.132 691.923,94.846 Z" />
        </g>
    </g>
</svg>