<?xml version="1.0" encoding="UTF-8"?>
<svg height="600" width="800" xmlns="http://www.w3.org/2000/svg" xmlns:xlink="http://www.w3.org/1999/xlink">
    <g id="Notes" font-family="'LucidaGrande', 'Lucida Grande', sans-serif" font-size="13">
        <rect fill="white" height="600.0" width="800.0" x="0.0" y="0.0" />
        <g font-size="13">
            <text x="18.0" y="176.0">Small</text>
            <text x="18.0" y="376.0">Medium</text>
            <text x="18.0" y="576.0">Large</text>
        </g>
        <g font-size="9">
            <text x="250.0" y="30.0">Ultralight</text>
            <text x="450.0" y="30.0">Regular</text>
            <text x="650.0" y="30.0">Black</text>
            <text id="template-version" fill="#505050" text-anchor="end" x="785.0" y="575.0">Template v.3.0</text>
            <a href="https://github.com/swhitty/SwiftDraw">
                <text fill="#505050" text-anchor="end" x="785.0" y="590.0">https://github.com/swhitty/SwiftDraw</text>
            </a>
        </g>
    </g>
    <g id="Guides" stroke="rgb(39, 170, 225)" stroke-width="0.5">
        <path id="Capline-S" d="M18,76 l800,0" />
        <path id="H-reference" d="M85,145.755 L87.685,145.755 L113.369,79.287 L114.052,79.287 L114.052,76 L112.148,76 L85,145.755 Z M95.693,121.536 L130.996,121.536 L130.263,119.313 L96.474,119.313 L95.693,121.536 Z M139.15,145.755 L141.787,145.755 L114.638,76 L113.466,76 L113.466,79.287 L139.15,145.755 Z" stroke="none" />
        <path id="Baseline-S" d="M18,146 l800,0" />
        <path id="left-margin-Ultralight-S" d="M220,56 l0,110" />
        <path id="right-margin-Ultralight-S" d="M310,56 l0,110" />
        <path id="left-margin-Regular-S" d="M420,56 l0,110" />
        <path id="right-margin-Regular-S" d="M510,56 l0,110" />
        <path id="left-margin-Black-S" d="M620,56 l0,110" />
        <path id="right-margin-Black-S" d="M710,56 l0,110" />
        <path id="Capline-M" d="M18,276 l800,0" />
        <path id="Baseline-M" d="M18,346 l800,0" />
        <path id="Capline-L" d="M18,476 l800,0" />
        <path id="Baseline-L" d="M18,546 l800,0" />
    </g>
    <g id="Symbols">
        <g id="Ultralight-S">
            <path d="M302.268,139.165 L268.197,85.928 L275.345,74.758 C276.146,73.505 275.78,71.84 274.527,71.039 C273.275,70.238 271.61,70.605 270.809,71.857 L265,80.934 L259.191,71.847 C258.39,70.594 256.725,70.228 255.473,71.029 C254.22,71.83 253.854,73.495 254.655,74.748 L261.803,85.928 L227.732,139.165 C227.202,139.994 227.166,141.046 227.638,141.908 C228.111,142.771 229.016,143.308 230,143.308 L300,143.308 C300.984,143.308 301.889,142.771 302.362,141.908 C302.834,141.046 302.798,139.994 302.268,139.165 Z M250.966,137.923 L265,115.994 L279.034,137.923 Z M285.428,137.923 L267.255,109.55 C266.76,108.776 265.905,108.308 264.987,108.308 C264.068,108.308 263.213,108.776 262.718,109.55 L244.572,137.923 L234.92,137.923 L265,90.922 L295.08,137.923 Z" />
        </g>
        <g id="Regular-S">
            <path d="M502.268,139.165 L468.197,85.928 L475.345,74.758 C476.146,73.505 475.78,71.84 474.527,71.039 C473.275,70.238 471.61,70.605 470.809,71.857 L465,80.934 L459.191,71.847 C458.39,70.594 456.725,70.228 455.473,71.029 C454.22,71.83 453.854,73.495 454.655,74.748 L461.803,85.928 L427.732,139.165 C427.202,139.994 427.166,141.046 427.638,141.908 C428.111,142.771 429.016,143.308 430,143.308 L500,143.308 C500.984,143.308 501.889,142.771 502.362,141.908 C502.834,141.046 502.798,139.994 502.268,139.165 Z M450.966,137.923 L465,115.994 L479.034,137.923 Z M485.428,137.923 L467.255,109.55 C466.76,108.776 465.905,108.308 464.987,108.308 C464.068,108.308 463.213,108.776 462.718,109.55 L444.572,137.923 L434.92,137.923 L465,90.922 L495.08,137.923 Z" />
        </g>
        <g id="Black-S">
            <path d="M702.268,139.165 L668.197,85.928 L675.345,74.758 C676.146,73.505 675.78,71.84 674.527,71.039 C673.275,70.238 671.61,70.605 670.809,71.857 L665,80.934 L659.191,71.847 C658.39,70.594 656.725,70.228 655.473,71.029 C654.22,71.83 653.854,73.495 654.655,74.748 L661.803,85.928 L627.732,139.165 C627.202,139.994 627.166,141.046 627.638,141.908 C628.111,142.771 629.016,143.308 630,143.308 L700,143.308 C700.984,143.308 701.889,142.771 702.362,141.908 C702.834,141.046 702.798,139.994 702.268,139.165 Z M650.966,137.923 L665,115.994 L679.034,137.923 Z M685.428,137.923 L667.255,109.55 C666.76,108.776 665.905,108.308 664.987,108.308 C664.068,108.308 663.213,108.776 662.718,109.55 L644.572,137.923 L634.92,137.923 L665,90.922 L695.08,137.923 Z" />
        </g>
    </g>
</svg>