<?xml version="1.0" encoding="UTF-8"?>
<svg height="600" width="800" xmlns="http://www.w3.org/2000/svg" xmlns:xlink="http://www.w3.org/1999/xlink">
    <g id="Notes" font-family="'LucidaGrande', 'Lucida Grande', sans-serif" font-size="13">
        <rect fill="white" height="600.0" width="800.0" x="0.0" y="0.0" />
        <g font-size="13">
            <text x="18.0" y="176.0">Small</text>
            <text x="18.0" y="376.0">Medium</text>
            <text x="18.0" y="576.0">Large</text>
        </g>
        <g font-size="9">
            <text x="250.0" y="30.0">Ultralight</text>
            <text x="450.0" y="30.0">Regular</text>
            <text x="650.0" y="30.0">Black</text>
            <text id="template-version" fill="#505050" text-anchor="end" x="785.0" y="575.0">Template v.3.0</text>
            <a href="https://github.com/swhitty/SwiftDraw">
                <text fill="#505050" text-anchor="end" x="785.0" y="590.0">https://github.com/swhitty/SwiftDraw</text>
            </a>
        </g>
    </g>
    <g id="Guides" stroke="rgb(39, 170, 225)" stroke-width="0.5">
        <path id="Capline-S" d="M18,76 l800,0" />
        <path id="H-reference" d="M85,145.755 L87.685,145.755 L113.369,79.287 L114.052,79.287 L114.052,76 L112.148,76 L85,145.755 Z M95.693,121.536 L130.996,121.536 L130.263,119.313 L96.474,119.313 L95.693,121.536 Z M139.15,145.755 L141.787,145.755 L114.638,76 L113.466,76 L113.466,79.287 L139.15,145.755 Z" stroke="none" />
        <path id="Baseline-S" d="M18,146 l800,0" />
        <path id="left-margin-Ultralight-S" d="M220,56 l0,110" />
        <path id="right-margin-Ultralight-S" d="M310,56 l0,110" />
        <path id="left-margin-Regular-S" d="M420,56 l0,110" />
        <path id="right-margin-Regular-S" d="M510,56 l0,110" />
        <path id="left-margin-Black-S" d="M620,56 l0,110" />
        <path id="right-margin-Black-S" d="M710,56 l0,110" />
        <path id="Capline-M" d="M18,276 l800,0" />
        <path id="Baseline-M" d="M18,346 l800,0" />
        <path id="Capline-L" d="M18,476 l800,0" />
        <path id="Baseline-L" d="M18,546 l800,0" />
    </g>
    <g id="Symbols">
        <g id="Ultralight-S">
            <path d="M281.827,81.385 C276.29,81.37 270.978,83.57 267.073,87.496 L265,89.569 L262.927,87.496 C256.959,81.529 247.985,79.744 240.188,82.973 C232.392,86.203 227.308,93.811 227.308,102.25 C227.308,125.808 262.237,144.879 263.725,145.663 C264.521,146.092 265.479,146.092 266.275,145.663 C267.763,144.879 302.692,125.808 302.692,102.25 C302.68,90.732 293.346,81.398 281.828,81.385 Z M265,140.212 C258.855,136.631 232.692,120.319 232.692,102.25 C232.692,95.986 236.465,90.341 242.25,87.945 C248.036,85.549 254.695,86.875 259.122,91.304 L261.195,93.377 L257.711,96.865 C256.66,97.917 256.66,99.62 257.711,100.672 L265.966,108.927 L260.403,114.487 C259.35,115.54 259.351,117.246 260.404,118.297 C261.457,119.349 263.162,119.348 264.214,118.295 L271.678,110.827 C272.729,109.776 272.729,108.072 271.678,107.021 L263.422,98.76 L270.879,91.302 C275.307,86.874 281.966,85.549 287.751,87.946 C293.537,90.342 297.309,95.988 297.308,102.25 C297.308,120.292 271.138,136.627 265,140.212 Z" />
        </g>
        <g id="Regular-S">
            <path d="M481.827,81.385 C476.29,81.37 470.978,83.57 467.073,87.496 L465,89.569 L462.927,87.496 C456.959,81.529 447.985,79.744 440.188,82.973 C432.392,86.203 427.308,93.811 427.308,102.25 C427.308,125.808 462.237,144.879 463.725,145.663 C464.521,146.092 465.479,146.092 466.275,145.663 C467.763,144.879 502.692,125.808 502.692,102.25 C502.68,90.732 493.346,81.398 481.828,81.385 Z M465,140.212 C458.855,136.631 432.692,120.319 432.692,102.25 C432.692,95.986 436.465,90.341 442.25,87.945 C448.036,85.549 454.695,86.875 459.122,91.304 L461.195,93.377 L457.711,96.865 C456.66,97.917 456.66,99.62 457.711,100.672 L465.966,108.927 L460.403,114.487 C459.35,115.54 459.351,117.246 460.404,118.297 C461.457,119.349 463.162,119.348 464.214,118.295 L471.678,110.827 C472.729,109.776 472.729,108.072 471.678,107.021 L463.422,98.76 L470.879,91.302 C475.307,86.874 481.966,85.549 487.751,87.946 C493.537,90.342 497.309,95.988 497.308,102.25 C497.308,120.292 471.138,136.627 465,140.212 Z" />
        </g>
        <g id="Black-S">
            <path d="M681.827,81.385 C676.29,81.37 670.978,83.57 667.073,87.496 L665,89.569 L662.927,87.496 C656.959,81.529 647.985,79.744 640.188,82.973 C632.392,86.203 627.308,93.811 627.308,102.25 C627.308,125.808 662.237,144.879 663.725,145.663 C664.521,146.092 665.479,146.092 666.276,145.663 C667.763,144.879 702.692,125.808 702.692,102.25 C702.68,90.732 693.346,81.398 681.828,81.385 Z M665,140.212 C658.855,136.631 632.692,120.319 632.692,102.25 C632.692,95.986 636.465,90.341 642.25,87.945 C648.036,85.549 654.695,86.875 659.122,91.304 L661.195,93.377 L657.711,96.865 C656.66,97.917 656.66,99.62 657.711,100.672 L665.966,108.927 L660.403,114.487 C659.35,115.54 659.351,117.246 660.404,118.297 C661.457,119.349 663.162,119.348 664.214,118.295 L671.678,110.827 C672.729,109.776 672.729,108.072 671.678,107.021 L663.422,98.76 L670.879,91.302 C675.307,86.874 681.966,85.549 687.751,87.946 C693.537,90.342 697.309,95.988 697.308,102.25 C697.308,120.292 671.138,136.627 665,140.212 Z" />
        </g>
    </g>
</svg>