<?xml version="1.0" encoding="UTF-8"?>
<svg height="600" width="800" xmlns="http://www.w3.org/2000/svg" xmlns:xlink="http://www.w3.org/1999/xlink">
    <g id="Notes" font-family="'LucidaGrande', 'Lucida Grande', sans-serif" font-size="13">
        <rect fill="white" height="600.0" width="800.0" x="0.0" y="0.0" />
        <g font-size="13">
            <text x="18.0" y="176.0">Small</text>
            <text x="18.0" y="376.0">Medium</text>
            <text x="18.0" y="576.0">Large</text>
        </g>
        <g font-size="9">
            <text x="250.0" y="30.0">Ultralight</text>
            <text x="450.0" y="30.0">Regular</text>
            <text x="650.0" y="30.0">Black</text>
            <text id="template-version" fill="#505050" text-anchor="end" x="785.0" y="575.0">Template v.3.0</text>
            <a href="https://github.com/swhitty/SwiftDraw">
                <text fill="#505050" text-anchor="end" x="785.0" y="590.0">https://github.com/swhitty/SwiftDraw</text>
            </a>
        </g>
    </g>
    <g id="Guides" stroke="rgb(39, 170, 225)" stroke-width="0.5">
        <path id="Capline-S" d="M18,76 l800,0" />
        <path id="H-reference" d="M85,145.755 L87.685,145.755 L113.369,79.287 L114.052,79.287 L114.052,76 L112.148,76 L85,145.755 Z M95.693,121.536 L130.996,121.536 L130.263,119.313 L96.474,119.313 L95.693,121.536 Z M139.15,145.755 L141.787,145.755 L114.638,76 L113.466,76 L113.466,79.287 L139.15,145.755 Z" stroke="none" />
        <path id="Baseline-S" d="M18,146 l800,0" />
        <path id="left-margin-Ultralight-S" d="M220,56 l0,110" />
        <path id="right-margin-Ultralight-S" d="M310,56 l0,110" />
        <path id="left-margin-Regular-S" d="M420,56 l0,110" />
        <path id="right-margin-Regular-S" d="M510,56 l0,110" />
        <path id="left-margin-Black-S" d="M620,56 l0,110" />
        <path id="right-margin-Black-S" d="M710,56 l0,110" />
        <path id="Capline-M" d="M18,276 l800,0" />
        <path id="Baseline-M" d="M18,346 l800,0" />
        <path id="Capline-L" d="M18,476 l800,0" />
        <path id="Baseline-L" d="M18,546 l800,0" />
    </g>
    <g id="Symbols">
        <g id="Ultralight-S">
            <path d="M301.178,140.888 C293.586,137.186 289.231,129.25 289.231,119.08 L289.231,113.265 C289.237,111.057 287.889,109.071 285.835,108.261 L277.452,104.942 C276.079,104.393 275.406,102.84 275.944,101.463 L283.119,83.626 C284.103,81.261 284.081,78.596 283.059,76.247 C282.037,73.898 280.102,72.066 277.701,71.174 C272.888,69.41 267.545,71.797 265.646,76.559 C265.645,76.572 265.645,76.586 265.646,76.599 L258.572,94.51 C258.024,95.889 256.463,96.565 255.082,96.021 L246.527,92.538 C244.51,91.72 242.198,92.207 240.682,93.769 C233.594,101.055 230,109.57 230,119.077 C229.982,128.807 233.744,138.162 240.494,145.169 C241.005,145.703 241.713,146.004 242.452,146 L300,146 C301.253,145.999 302.34,145.133 302.621,143.912 C302.902,142.691 302.304,141.437 301.178,140.888 Z M244.518,97.538 L253.07,101.005 C255.063,101.802 257.293,101.773 259.265,100.924 C261.237,100.075 262.79,98.475 263.58,96.478 L270.647,78.642 C271.509,76.586 273.834,75.522 275.84,76.286 C276.873,76.669 277.705,77.459 278.142,78.47 C278.579,79.482 278.584,80.628 278.155,81.644 L270.953,99.477 C269.312,103.619 271.334,108.308 275.473,109.957 L283.846,113.265 L283.846,119.077 C283.846,119.188 283.846,119.299 283.846,119.413 L240.692,102.152 C241.839,100.512 243.119,98.969 244.518,97.538 Z M260.672,140.615 C256.664,136.77 253.824,131.87 252.481,126.481 C252.091,125.062 250.636,124.219 249.211,124.587 C247.787,124.955 246.922,126.397 247.268,127.827 C248.442,132.463 250.544,136.814 253.447,140.615 L243.61,140.615 C238.3,134.699 235.369,127.026 235.385,119.077 C235.352,114.865 236.24,110.697 237.986,106.864 L284.361,125.414 C285.371,131.472 287.915,136.681 291.728,140.612 Z" />
        </g>
        <g id="Regular-S">
            <path d="M501.178,140.888 C493.586,137.186 489.231,129.25 489.231,119.08 L489.231,113.265 C489.237,111.057 487.889,109.071 485.835,108.261 L477.452,104.942 C476.079,104.393 475.406,102.84 475.944,101.463 L483.119,83.626 C484.103,81.261 484.081,78.596 483.059,76.247 C482.037,73.898 480.102,72.066 477.701,71.174 C472.888,69.41 467.545,71.797 465.646,76.559 C465.645,76.572 465.645,76.586 465.646,76.599 L458.572,94.51 C458.024,95.889 456.463,96.565 455.082,96.021 L446.527,92.538 C444.51,91.72 442.198,92.207 440.682,93.769 C433.594,101.055 430,109.57 430,119.077 C429.982,128.807 433.744,138.162 440.494,145.169 C441.005,145.703 441.713,146.004 442.452,146 L500,146 C501.253,145.999 502.34,145.133 502.621,143.912 C502.902,142.691 502.304,141.437 501.178,140.888 Z M444.518,97.538 L453.07,101.005 C455.063,101.802 457.292,101.773 459.265,100.924 C461.237,100.075 462.79,98.475 463.58,96.478 L470.647,78.642 C471.509,76.586 473.834,75.522 475.84,76.286 C476.873,76.669 477.705,77.459 478.142,78.47 C478.579,79.482 478.584,80.628 478.155,81.644 L470.953,99.477 C469.312,103.619 471.334,108.308 475.473,109.957 L483.846,113.265 L483.846,119.077 C483.846,119.188 483.846,119.299 483.846,119.413 L440.692,102.152 C441.839,100.512 443.119,98.969 444.518,97.538 Z M460.672,140.615 C456.664,136.77 453.824,131.87 452.481,126.481 C452.091,125.062 450.636,124.219 449.211,124.587 C447.787,124.955 446.922,126.397 447.268,127.827 C448.442,132.463 450.544,136.814 453.447,140.615 L443.61,140.615 C438.3,134.699 435.369,127.026 435.385,119.077 C435.352,114.865 436.24,110.697 437.986,106.864 L484.361,125.414 C485.371,131.472 487.915,136.681 491.728,140.612 Z" />
        </g>
        <g id="Black-S">
            <path d="M701.178,140.888 C693.586,137.186 689.231,129.25 689.231,119.08 L689.231,113.265 C689.237,111.057 687.889,109.071 685.835,108.261 L677.452,104.942 C676.079,104.393 675.406,102.84 675.944,101.463 L683.119,83.626 C684.103,81.261 684.082,78.596 683.059,76.247 C682.037,73.898 680.102,72.066 677.701,71.174 C672.888,69.41 667.545,71.797 665.646,76.559 C665.645,76.572 665.645,76.586 665.646,76.599 L658.572,94.51 C658.024,95.889 656.463,96.565 655.082,96.021 L646.527,92.538 C644.51,91.72 642.198,92.207 640.682,93.769 C633.594,101.055 630,109.57 630,119.077 C629.982,128.807 633.744,138.162 640.494,145.169 C641.005,145.703 641.713,146.004 642.452,146 L700,146 C701.253,145.999 702.34,145.133 702.621,143.912 C702.902,142.691 702.304,141.437 701.178,140.888 Z M644.518,97.538 L653.07,101.005 C655.063,101.802 657.293,101.773 659.265,100.924 C661.237,100.075 662.79,98.475 663.58,96.478 L670.647,78.642 C671.509,76.586 673.834,75.522 675.84,76.286 C676.873,76.669 677.705,77.459 678.142,78.47 C678.579,79.482 678.584,80.628 678.155,81.644 L670.953,99.477 C669.312,103.619 671.334,108.308 675.473,109.957 L683.846,113.265 L683.846,119.077 C683.846,119.188 683.846,119.299 683.846,119.413 L640.692,102.152 C641.839,100.512 643.119,98.969 644.518,97.538 Z M660.672,140.615 C656.664,136.77 653.824,131.87 652.481,126.481 C652.091,125.062 650.636,124.219 649.211,124.587 C647.787,124.955 646.922,126.397 647.268,127.827 C648.442,132.463 650.544,136.814 653.447,140.615 L643.61,140.615 C638.3,134.699 635.37,127.026 635.385,119.077 C635.352,114.865 636.24,110.697 637.986,106.864 L684.361,125.414 C685.371,131.472 687.915,136.681 691.728,140.612 Z" />
        </g>
    </g>
</svg>