<?xml version="1.0" encoding="UTF-8"?>
<svg height="600" width="800" xmlns="http://www.w3.org/2000/svg" xmlns:xlink="http://www.w3.org/1999/xlink">
    <g id="Notes" font-family="'LucidaGrande', 'Lucida Grande', sans-serif" font-size="13">
        <rect fill="white" height="600.0" width="800.0" x="0.0" y="0.0" />
        <g font-size="13">
            <text x="18.0" y="176.0">Small</text>
            <text x="18.0" y="376.0">Medium</text>
            <text x="18.0" y="576.0">Large</text>
        </g>
        <g font-size="9">
            <text x="250.0" y="30.0">Ultralight</text>
            <text x="450.0" y="30.0">Regular</text>
            <text x="650.0" y="30.0">Black</text>
            <text id="template-version" fill="#505050" text-anchor="end" x="785.0" y="575.0">Template v.3.0</text>
            <a href="https://github.com/swhitty/SwiftDraw">
                <text fill="#505050" text-anchor="end" x="785.0" y="590.0">https://github.com/swhitty/SwiftDraw</text>
            </a>
        </g>
    </g>
    <g id="Guides" stroke="rgb(39, 170, 225)" stroke-width="0.5">
        <path id="Capline-S" d="M18,76 l800,0" />
        <path id="H-reference" d="M85,145.755 L87.685,145.755 L113.369,79.287 L114.052,79.287 L114.052,76 L112.148,76 L85,145.755 Z M95.693,121.536 L130.996,121.536 L130.263,119.313 L96.474,119.313 L95.693,121.536 Z M139.15,145.755 L141.787,145.755 L114.638,76 L113.466,76 L113.466,79.287 L139.15,145.755 Z" stroke="none" />
        <path id="Baseline-S" d="M18,146 l800,0" />
        <path id="left-margin-Ultralight-S" d="M220,56 l0,110" />
        <path id="right-margin-Ultralight-S" d="M310,56 l0,110" />
        <path id="left-margin-Regular-S" d="M420,56 l0,110" />
        <path id="right-margin-Regular-S" d="M510,56 l0,110" />
        <path id="left-margin-Black-S" d="M620,56 l0,110" />
        <path id="right-margin-Black-S" d="M710,56 l0,110" />
        <path id="Capline-M" d="M18,276 l800,0" />
        <path id="Baseline-M" d="M18,346 l800,0" />
        <path id="Capline-L" d="M18,476 l800,0" />
        <path id="Baseline-L" d="M18,546 l800,0" />
    </g>
    <g id="Symbols">
        <g id="Ultralight-S">
            <path d="M294.615,81.385 L235.385,81.385 C233.957,81.385 232.587,81.952 231.577,82.962 C230.567,83.972 230,85.341 230,86.769 L230,140.615 C229.999,141.549 230.482,142.416 231.276,142.907 C232.071,143.398 233.062,143.443 233.897,143.025 L243.462,138.239 L253.026,143.025 C253.784,143.405 254.677,143.405 255.436,143.025 L265,138.239 L274.564,143.025 C275.323,143.405 276.216,143.405 276.974,143.025 L286.538,138.239 L296.103,143.025 C296.938,143.443 297.93,143.398 298.724,142.907 C299.518,142.416 300.001,141.549 300,140.615 L300,86.769 C300,85.341 299.433,83.972 298.423,82.962 C297.413,81.952 296.043,81.385 294.615,81.385 Z M294.615,136.261 L287.743,132.821 C286.985,132.442 286.092,132.442 285.334,132.821 L275.769,137.607 L266.205,132.821 C265.446,132.442 264.554,132.442 263.795,132.821 L254.231,137.607 L244.666,132.821 C243.908,132.442 243.015,132.442 242.257,132.821 L235.385,136.261 L235.385,86.769 L294.615,86.769 Z M242.257,124.179 C242.896,124.499 243.636,124.552 244.314,124.326 C244.992,124.1 245.552,123.613 245.871,122.974 L247.816,119.077 L260.645,119.077 L262.59,122.974 C263.253,124.303 264.87,124.844 266.202,124.18 C267.533,123.517 268.075,121.899 267.411,120.568 L256.642,99.029 C256.186,98.115 255.253,97.538 254.232,97.538 C253.211,97.538 252.278,98.115 251.823,99.029 L241.053,120.568 C240.389,121.897 240.928,123.514 242.257,124.179 Z M254.231,106.251 L257.953,113.692 L250.509,113.692 Z M267.692,111 C267.692,110.286 267.976,109.601 268.481,109.096 C268.986,108.591 269.671,108.308 270.385,108.308 L275.769,108.308 L275.769,102.923 C275.769,101.436 276.975,100.231 278.462,100.231 C279.948,100.231 281.154,101.436 281.154,102.923 L281.154,108.308 L286.538,108.308 C288.025,108.308 289.231,109.513 289.231,111 C289.231,112.487 288.025,113.692 286.538,113.692 L281.154,113.692 L281.154,119.077 C281.154,120.564 279.948,121.769 278.462,121.769 C276.975,121.769 275.769,120.564 275.769,119.077 L275.769,113.692 L270.385,113.692 C269.671,113.692 268.986,113.409 268.481,112.904 C267.976,112.399 267.692,111.714 267.692,111 Z" />
        </g>
        <g id="Regular-S">
            <path d="M494.615,81.385 L435.385,81.385 C433.957,81.385 432.587,81.952 431.577,82.962 C430.567,83.972 430,85.341 430,86.769 L430,140.615 C429.999,141.549 430.482,142.416 431.276,142.907 C432.071,143.398 433.062,143.443 433.897,143.025 L443.462,138.239 L453.026,143.025 C453.784,143.405 454.677,143.405 455.436,143.025 L465,138.239 L474.564,143.025 C475.323,143.405 476.216,143.405 476.974,143.025 L486.538,138.239 L496.103,143.025 C496.938,143.443 497.93,143.398 498.724,142.907 C499.518,142.416 500.001,141.549 500,140.615 L500,86.769 C500,85.341 499.433,83.972 498.423,82.962 C497.413,81.952 496.043,81.385 494.615,81.385 Z M494.615,136.261 L487.743,132.821 C486.985,132.442 486.092,132.442 485.334,132.821 L475.769,137.607 L466.205,132.821 C465.446,132.442 464.554,132.442 463.795,132.821 L454.231,137.607 L444.666,132.821 C443.908,132.442 443.015,132.442 442.257,132.821 L435.385,136.261 L435.385,86.769 L494.615,86.769 Z M442.257,124.179 C442.896,124.499 443.636,124.552 444.314,124.326 C444.992,124.1 445.552,123.613 445.871,122.974 L447.816,119.077 L460.645,119.077 L462.59,122.974 C463.253,124.303 464.87,124.844 466.202,124.18 C467.533,123.517 468.075,121.899 467.411,120.568 L456.642,99.029 C456.186,98.115 455.253,97.538 454.232,97.538 C453.211,97.538 452.278,98.115 451.823,99.029 L441.053,120.568 C440.389,121.897 440.928,123.514 442.257,124.179 Z M454.231,106.251 L457.953,113.692 L450.509,113.692 Z M467.692,111 C467.692,110.286 467.976,109.601 468.481,109.096 C468.986,108.591 469.671,108.308 470.385,108.308 L475.769,108.308 L475.769,102.923 C475.769,101.436 476.975,100.231 478.462,100.231 C479.948,100.231 481.154,101.436 481.154,102.923 L481.154,108.308 L486.538,108.308 C488.025,108.308 489.231,109.513 489.231,111 C489.231,112.487 488.025,113.692 486.538,113.692 L481.154,113.692 L481.154,119.077 C481.154,120.564 479.948,121.769 478.462,121.769 C476.975,121.769 475.769,120.564 475.769,119.077 L475.769,113.692 L470.385,113.692 C469.671,113.692 468.986,113.409 468.481,112.904 C467.976,112.399 467.692,111.714 467.692,111 Z" />
        </g>
        <g id="Black-S">
            <path d="M694.615,81.385 L635.385,81.385 C633.957,81.385 632.587,81.952 631.577,82.962 C630.567,83.972 630,85.341 630,86.769 L630,140.615 C629.999,141.549 630.482,142.416 631.276,142.907 C632.071,143.398 633.062,143.443 633.897,143.025 L643.462,138.239 L653.026,143.025 C653.784,143.405 654.677,143.405 655.436,143.025 L665,138.239 L674.564,143.025 C675.323,143.405 676.216,143.405 676.974,143.025 L686.538,138.239 L696.103,143.025 C696.938,143.443 697.93,143.398 698.724,142.907 C699.518,142.416 700.001,141.549 700,140.615 L700,86.769 C700,85.341 699.433,83.972 698.423,82.962 C697.413,81.952 696.044,81.385 694.615,81.385 Z M694.615,136.261 L687.743,132.821 C686.985,132.442 686.092,132.442 685.334,132.821 L675.769,137.607 L666.205,132.821 C665.446,132.442 664.554,132.442 663.795,132.821 L654.231,137.607 L644.666,132.821 C643.908,132.442 643.015,132.442 642.257,132.821 L635.385,136.261 L635.385,86.769 L694.615,86.769 Z M642.257,124.179 C642.896,124.499 643.636,124.552 644.314,124.326 C644.992,124.1 645.552,123.613 645.871,122.974 L647.816,119.077 L660.645,119.077 L662.59,122.974 C663.253,124.303 664.87,124.844 666.202,124.18 C667.533,123.517 668.075,121.899 667.411,120.568 L656.642,99.029 C656.187,98.115 655.253,97.538 654.232,97.538 C653.211,97.538 652.278,98.115 651.823,99.029 L641.053,120.568 C640.389,121.897 640.928,123.514 642.257,124.179 Z M654.231,106.251 L657.953,113.692 L650.509,113.692 Z M667.692,111 C667.692,110.286 667.976,109.601 668.481,109.096 C668.986,108.591 669.671,108.308 670.385,108.308 L675.769,108.308 L675.769,102.923 C675.769,101.436 676.975,100.231 678.462,100.231 C679.948,100.231 681.154,101.436 681.154,102.923 L681.154,108.308 L686.538,108.308 C688.025,108.308 689.231,109.513 689.231,111 C689.231,112.487 688.025,113.692 686.538,113.692 L681.154,113.692 L681.154,119.077 C681.154,120.564 679.948,121.769 678.462,121.769 C676.975,121.769 675.769,120.564 675.769,119.077 L675.769,113.692 L670.385,113.692 C669.671,113.692 668.986,113.409 668.481,112.904 C667.976,112.399 667.692,111.714 667.692,111 Z" />
        </g>
    </g>
</svg>