<?xml version="1.0" encoding="UTF-8"?>
<svg height="600" width="800" xmlns="http://www.w3.org/2000/svg" xmlns:xlink="http://www.w3.org/1999/xlink">
    <g id="Notes" font-family="'LucidaGrande', 'Lucida Grande', sans-serif" font-size="13">
        <rect fill="white" height="600.0" width="800.0" x="0.0" y="0.0" />
        <g font-size="13">
            <text x="18.0" y="176.0">Small</text>
            <text x="18.0" y="376.0">Medium</text>
            <text x="18.0" y="576.0">Large</text>
        </g>
        <g font-size="9">
            <text x="250.0" y="30.0">Ultralight</text>
            <text x="450.0" y="30.0">Regular</text>
            <text x="650.0" y="30.0">Black</text>
            <text id="template-version" fill="#505050" text-anchor="end" x="785.0" y="575.0">Template v.3.0</text>
            <a href="https://github.com/swhitty/SwiftDraw">
                <text fill="#505050" text-anchor="end" x="785.0" y="590.0">https://github.com/swhitty/SwiftDraw</text>
            </a>
        </g>
    </g>
    <g id="Guides" stroke="rgb(39, 170, 225)" stroke-width="0.5">
        <path id="Capline-S" d="M18,76 l800,0" />
        <path id="H-reference" d="M85,145.755 L87.685,145.755 L113.369,79.287 L114.052,79.287 L114.052,76 L112.148,76 L85,145.755 Z M95.693,121.536 L130.996,121.536 L130.263,119.313 L96.474,119.313 L95.693,121.536 Z M139.15,145.755 L141.787,145.755 L114.638,76 L113.466,76 L113.466,79.287 L139.15,145.755 Z" stroke="none" />
        <path id="Baseline-S" d="M18,146 l800,0" />
        <path id="left-margin-Ultralight-S" d="M220,56 l0,110" />
        <path id="right-margin-Ultralight-S" d="M310,56 l0,110" />
        <path id="left-margin-Regular-S" d="M420,56 l0,110" />
        <path id="right-margin-Regular-S" d="M510,56 l0,110" />
        <path id="left-margin-Black-S" d="M620,56 l0,110" />
        <path id="right-margin-Black-S" d="M710,56 l0,110" />
        <path id="Capline-M" d="M18,276 l800,0" />
        <path id="Baseline-M" d="M18,346 l800,0" />
        <path id="Capline-L" d="M18,476 l800,0" />
        <path id="Baseline-L" d="M18,546 l800,0" />
    </g>
    <g id="Symbols">
        <g id="Ultralight-S">
            <path d="M289.749,86.251 C276.081,72.583 253.92,72.582 240.251,86.251 C226.583,99.919 226.582,122.08 240.251,135.749 C253.919,149.417 276.08,149.418 289.748,135.749 C303.417,122.081 303.418,99.92 289.749,86.251 Z M285.943,131.943 C274.377,143.507 255.626,143.506 244.061,131.941 C232.497,120.375 232.497,101.625 244.061,90.059 C255.626,78.494 274.377,78.493 285.943,90.057 C297.49,101.632 297.49,120.368 285.943,131.943 Z M264.212,109.095 C264.718,109.6 265.002,110.285 265.002,111 C265.002,111.715 264.718,112.4 264.212,112.905 L253.443,123.674 C252.393,124.726 250.687,124.727 249.635,123.675 C248.582,122.624 248.581,120.918 249.633,119.865 L258.501,111 L249.634,102.136 C248.581,101.082 248.582,99.376 249.635,98.325 C250.687,97.273 252.393,97.274 253.444,98.327 Z M283.059,109.095 C283.564,109.6 283.848,110.285 283.848,111 C283.848,111.715 283.564,112.4 283.059,112.905 L272.289,123.674 C271.239,124.726 269.533,124.727 268.481,123.675 C267.428,122.624 267.427,120.918 268.479,119.865 L277.348,111 L268.48,102.136 C267.427,101.082 267.428,99.376 268.481,98.325 C269.533,97.273 271.239,97.274 272.29,98.327 Z" />
        </g>
        <g id="Regular-S">
            <path d="M489.749,86.251 C476.081,72.583 453.92,72.582 440.251,86.251 C426.583,99.919 426.582,122.08 440.251,135.749 C453.919,149.417 476.08,149.418 489.748,135.749 C503.417,122.081 503.418,99.92 489.749,86.251 Z M485.943,131.943 C474.377,143.507 455.626,143.506 444.061,131.941 C432.496,120.375 432.496,101.625 444.061,90.059 C455.626,78.494 474.377,78.493 485.943,90.057 C497.49,101.632 497.49,120.368 485.943,131.943 Z M464.212,109.095 C464.718,109.6 465.002,110.285 465.002,111 C465.002,111.715 464.718,112.4 464.212,112.905 L453.443,123.674 C452.393,124.726 450.687,124.727 449.635,123.675 C448.582,122.624 448.581,120.918 449.633,119.865 L458.501,111 L449.634,102.136 C448.581,101.082 448.582,99.376 449.635,98.325 C450.687,97.273 452.393,97.274 453.444,98.327 Z M483.059,109.095 C483.564,109.6 483.848,110.285 483.848,111 C483.848,111.715 483.564,112.4 483.059,112.905 L472.289,123.674 C471.239,124.726 469.533,124.727 468.481,123.675 C467.428,122.624 467.427,120.918 468.479,119.865 L477.348,111 L468.48,102.136 C467.427,101.082 467.428,99.376 468.481,98.325 C469.533,97.273 471.239,97.274 472.29,98.327 Z" />
        </g>
        <g id="Black-S">
            <path d="M689.749,86.251 C676.081,72.583 653.92,72.582 640.251,86.251 C626.583,99.919 626.582,122.08 640.251,135.749 C653.919,149.417 676.08,149.418 689.748,135.749 C703.417,122.081 703.418,99.92 689.749,86.251 Z M685.943,131.943 C674.377,143.507 655.626,143.506 644.061,131.941 C632.497,120.375 632.497,101.625 644.061,90.059 C655.626,78.494 674.377,78.493 685.943,90.057 C697.49,101.632 697.49,120.368 685.943,131.943 Z M664.213,109.095 C664.718,109.6 665.002,110.285 665.002,111 C665.002,111.715 664.718,112.4 664.213,112.905 L653.443,123.674 C652.393,124.726 650.687,124.727 649.635,123.675 C648.582,122.624 648.581,120.918 649.633,119.865 L658.501,111 L649.634,102.136 C648.581,101.082 648.582,99.376 649.635,98.325 C650.687,97.273 652.393,97.274 653.444,98.327 Z M683.059,109.095 C683.564,109.6 683.848,110.285 683.848,111 C683.848,111.715 683.564,112.4 683.059,112.905 L672.289,123.674 C671.239,124.726 669.533,124.727 668.481,123.675 C667.428,122.624 667.427,120.918 668.479,119.865 L677.348,111 L668.48,102.136 C667.427,101.082 667.428,99.376 668.481,98.325 C669.533,97.273 671.239,97.274 672.291,98.327 Z" />
        </g>
    </g>
</svg>