<?xml version="1.0" encoding="UTF-8"?>
<svg height="600" width="800" xmlns="http://www.w3.org/2000/svg" xmlns:xlink="http://www.w3.org/1999/xlink">
    <g id="Notes" font-family="'LucidaGrande', 'Lucida Grande', sans-serif" font-size="13">
        <rect fill="white" height="600.0" width="800.0" x="0.0" y="0.0" />
        <g font-size="13">
            <text x="18.0" y="176.0">Small</text>
            <text x="18.0" y="376.0">Medium</text>
            <text x="18.0" y="576.0">Large</text>
        </g>
        <g font-size="9">
            <text x="250.0" y="30.0">Ultralight</text>
            <text x="450.0" y="30.0">Regular</text>
            <text x="650.0" y="30.0">Black</text>
            <text id="template-version" fill="#505050" text-anchor="end" x="785.0" y="575.0">Template v.3.0</text>
            <a href="https://github.com/swhitty/SwiftDraw">
                <text fill="#505050" text-anchor="end" x="785.0" y="590.0">https://github.com/swhitty/SwiftDraw</text>
            </a>
        </g>
    </g>
    <g id="Guides" stroke="rgb(39, 170, 225)" stroke-width="0.5">
        <path id="Capline-S" d="M18,76 l800,0" />
        <path id="H-reference" d="M85,145.755 L87.685,145.755 L113.369,79.287 L114.052,79.287 L114.052,76 L112.148,76 L85,145.755 Z M95.693,121.536 L130.996,121.536 L130.263,119.313 L96.474,119.313 L95.693,121.536 Z M139.15,145.755 L141.787,145.755 L114.638,76 L113.466,76 L113.466,79.287 L139.15,145.755 Z" stroke="none" />
        <path id="Baseline-S" d="M18,146 l800,0" />
        <path id="left-margin-Ultralight-S" d="M220,56 l0,110" />
        <path id="right-margin-Ultralight-S" d="M310,56 l0,110" />
        <path id="left-margin-Regular-S" d="M420,56 l0,110" />
        <path id="right-margin-Regular-S" d="M510,56 l0,110" />
        <path id="left-margin-Black-S" d="M620,56 l0,110" />
        <path id="right-margin-Black-S" d="M710,56 l0,110" />
        <path id="Capline-M" d="M18,276 l800,0" />
        <path id="Baseline-M" d="M18,346 l800,0" />
        <path id="Capline-L" d="M18,476 l800,0" />
        <path id="Baseline-L" d="M18,546 l800,0" />
    </g>
    <g id="Symbols">
        <g id="Ultralight-S">
            <path d="M246.154,102.923 C246.154,102.209 246.438,101.524 246.942,101.019 C247.447,100.514 248.132,100.231 248.846,100.231 L281.154,100.231 C282.641,100.231 283.846,101.436 283.846,102.923 C283.846,104.41 282.641,105.615 281.154,105.615 L248.846,105.615 C248.132,105.615 247.447,105.332 246.942,104.827 C246.438,104.322 246.154,103.637 246.154,102.923 Z M248.846,116.385 L281.154,116.385 C282.641,116.385 283.846,115.179 283.846,113.692 C283.846,112.205 282.641,111 281.154,111 L248.846,111 C247.359,111 246.154,112.205 246.154,113.692 C246.154,115.179 247.359,116.385 248.846,116.385 Z M300,86.769 L300,137.923 C300,138.856 299.516,139.722 298.722,140.212 C297.928,140.703 296.937,140.747 296.103,140.329 L286.538,135.547 L276.974,140.329 C276.216,140.709 275.323,140.709 274.564,140.329 L265,135.547 L255.436,140.329 C254.677,140.709 253.784,140.709 253.026,140.329 L243.462,135.547 L233.897,140.329 C233.063,140.747 232.072,140.703 231.278,140.212 C230.484,139.722 230.001,138.856 230,137.923 L230,86.769 C230,85.341 230.567,83.972 231.577,82.962 C232.587,81.952 233.957,81.385 235.385,81.385 L294.615,81.385 C296.043,81.385 297.413,81.952 298.423,82.962 C299.433,83.972 300,85.341 300,86.769 Z M294.615,86.769 L235.385,86.769 L235.385,133.568 L242.257,130.129 C243.015,129.749 243.908,129.749 244.666,130.129 L254.231,134.914 L263.795,130.129 C264.554,129.749 265.446,129.749 266.205,130.129 L275.769,134.914 L285.334,130.129 C286.092,129.749 286.985,129.749 287.743,130.129 L294.615,133.568 Z" />
        </g>
        <g id="Regular-S">
            <path d="M446.154,102.923 C446.154,102.209 446.438,101.524 446.942,101.019 C447.447,100.514 448.132,100.231 448.846,100.231 L481.154,100.231 C482.641,100.231 483.846,101.436 483.846,102.923 C483.846,104.41 482.641,105.615 481.154,105.615 L448.846,105.615 C448.132,105.615 447.447,105.332 446.942,104.827 C446.438,104.322 446.154,103.637 446.154,102.923 Z M448.846,116.385 L481.154,116.385 C482.641,116.385 483.846,115.179 483.846,113.692 C483.846,112.205 482.641,111 481.154,111 L448.846,111 C447.359,111 446.154,112.205 446.154,113.692 C446.154,115.179 447.359,116.385 448.846,116.385 Z M500,86.769 L500,137.923 C500,138.856 499.516,139.722 498.722,140.212 C497.928,140.703 496.937,140.747 496.103,140.329 L486.538,135.547 L476.974,140.329 C476.216,140.709 475.323,140.709 474.564,140.329 L465,135.547 L455.436,140.329 C454.677,140.709 453.784,140.709 453.026,140.329 L443.462,135.547 L433.897,140.329 C433.063,140.747 432.072,140.703 431.278,140.212 C430.484,139.722 430,138.856 430,137.923 L430,86.769 C430,85.341 430.567,83.972 431.577,82.962 C432.587,81.952 433.957,81.385 435.385,81.385 L494.615,81.385 C496.043,81.385 497.413,81.952 498.423,82.962 C499.433,83.972 500,85.341 500,86.769 Z M494.615,86.769 L435.385,86.769 L435.385,133.568 L442.257,130.129 C443.015,129.749 443.908,129.749 444.666,130.129 L454.231,134.914 L463.795,130.129 C464.554,129.749 465.446,129.749 466.205,130.129 L475.769,134.914 L485.334,130.129 C486.092,129.749 486.985,129.749 487.743,130.129 L494.615,133.568 Z" />
        </g>
        <g id="Black-S">
            <path d="M646.154,102.923 C646.154,102.209 646.438,101.524 646.942,101.019 C647.447,100.514 648.132,100.231 648.846,100.231 L681.154,100.231 C682.641,100.231 683.846,101.436 683.846,102.923 C683.846,104.41 682.641,105.615 681.154,105.615 L648.846,105.615 C648.132,105.615 647.447,105.332 646.942,104.827 C646.438,104.322 646.154,103.637 646.154,102.923 Z M648.846,116.385 L681.154,116.385 C682.641,116.385 683.846,115.179 683.846,113.692 C683.846,112.205 682.641,111 681.154,111 L648.846,111 C647.359,111 646.154,112.205 646.154,113.692 C646.154,115.179 647.359,116.385 648.846,116.385 Z M700,86.769 L700,137.923 C700,138.856 699.516,139.722 698.722,140.212 C697.928,140.703 696.937,140.747 696.103,140.329 L686.538,135.547 L676.974,140.329 C676.216,140.709 675.323,140.709 674.564,140.329 L665,135.547 L655.436,140.329 C654.677,140.709 653.784,140.709 653.026,140.329 L643.462,135.547 L633.897,140.329 C633.063,140.747 632.072,140.703 631.278,140.212 C630.484,139.722 630,138.856 630,137.923 L630,86.769 C630,85.341 630.567,83.972 631.577,82.962 C632.587,81.952 633.957,81.385 635.385,81.385 L694.615,81.385 C696.044,81.385 697.413,81.952 698.423,82.962 C699.433,83.972 700,85.341 700,86.769 Z M694.615,86.769 L635.385,86.769 L635.385,133.568 L642.257,130.129 C643.015,129.749 643.908,129.749 644.666,130.129 L654.231,134.914 L663.795,130.129 C664.554,129.749 665.446,129.749 666.205,130.129 L675.769,134.914 L685.334,130.129 C686.092,129.749 686.985,129.749 687.743,130.129 L694.615,133.568 Z" />
        </g>
    </g>
</svg>