<?xml version="1.0" encoding="UTF-8"?>
<svg height="600" width="800" xmlns="http://www.w3.org/2000/svg" xmlns:xlink="http://www.w3.org/1999/xlink">
    <g id="Notes" font-family="'LucidaGrande', 'Lucida Grande', sans-serif" font-size="13">
        <rect fill="white" height="600.0" width="800.0" x="0.0" y="0.0" />
        <g font-size="13">
            <text x="18.0" y="176.0">Small</text>
            <text x="18.0" y="376.0">Medium</text>
            <text x="18.0" y="576.0">Large</text>
        </g>
        <g font-size="9">
            <text x="250.0" y="30.0">Ultralight</text>
            <text x="450.0" y="30.0">Regular</text>
            <text x="650.0" y="30.0">Black</text>
            <text id="template-version" fill="#505050" text-anchor="end" x="785.0" y="575.0">Template v.3.0</text>
            <a href="https://github.com/swhitty/SwiftDraw">
                <text fill="#505050" text-anchor="end" x="785.0" y="590.0">https://github.com/swhitty/SwiftDraw</text>
            </a>
        </g>
    </g>
    <g id="Guides" stroke="rgb(39, 170, 225)" stroke-width="0.5">
        <path id="Capline-S" d="M18,76 l800,0" />
        <path id="H-reference" d="M85,145.755 L87.685,145.755 L113.369,79.287 L114.052,79.287 L114.052,76 L112.148,76 L85,145.755 Z M95.693,121.536 L130.996,121.536 L130.263,119.313 L96.474,119.313 L95.693,121.536 Z M139.15,145.755 L141.787,145.755 L114.638,76 L113.466,76 L113.466,79.287 L139.15,145.755 Z" stroke="none" />
        <path id="Baseline-S" d="M18,146 l800,0" />
        <path id="left-margin-Ultralight-S" d="M220,56 l0,110" />
        <path id="right-margin-Ultralight-S" d="M310,56 l0,110" />
        <path id="left-margin-Regular-S" d="M420,56 l0,110" />
        <path id="right-margin-Regular-S" d="M510,56 l0,110" />
        <path id="left-margin-Black-S" d="M620,56 l0,110" />
        <path id="right-margin-Black-S" d="M710,56 l0,110" />
        <path id="Capline-M" d="M18,276 l800,0" />
        <path id="Baseline-M" d="M18,346 l800,0" />
        <path id="Capline-L" d="M18,476 l800,0" />
        <path id="Baseline-L" d="M18,546 l800,0" />
    </g>
    <g id="Symbols">
        <g id="Ultralight-S">
            <path d="M305.385,137.923 L300,137.923 L300,100.231 C301.487,100.231 302.692,99.025 302.692,97.538 C302.692,96.052 301.487,94.846 300,94.846 L283.846,94.846 L283.846,84.077 C285.333,84.077 286.538,82.872 286.538,81.385 C286.538,79.898 285.333,78.692 283.846,78.692 L235.385,78.692 C233.898,78.692 232.692,79.898 232.692,81.385 C232.692,82.872 233.898,84.077 235.385,84.077 L235.385,137.923 L230,137.923 C228.513,137.923 227.308,139.128 227.308,140.615 C227.308,142.102 228.513,143.308 230,143.308 L305.385,143.308 C306.872,143.308 308.077,142.102 308.077,140.615 C308.077,139.128 306.872,137.923 305.385,137.923 Z M294.615,100.231 L294.615,137.923 L283.846,137.923 L283.846,100.231 Z M240.769,84.077 L278.462,84.077 L278.462,137.923 L270.385,137.923 L270.385,121.769 C270.385,121.055 270.101,120.37 269.596,119.865 C269.091,119.361 268.406,119.077 267.692,119.077 L251.538,119.077 C250.824,119.077 250.14,119.361 249.635,119.865 C249.13,120.37 248.846,121.055 248.846,121.769 L248.846,137.923 L240.769,137.923 Z M265,137.923 L254.231,137.923 L254.231,124.462 L265,124.462 Z M246.154,94.846 C246.154,94.132 246.438,93.447 246.942,92.942 C247.447,92.438 248.132,92.154 248.846,92.154 L254.231,92.154 C255.718,92.154 256.923,93.359 256.923,94.846 C256.923,96.333 255.718,97.538 254.231,97.538 L248.846,97.538 C248.132,97.538 247.447,97.255 246.942,96.75 C246.438,96.245 246.154,95.56 246.154,94.846 Z M262.308,94.846 C262.308,94.132 262.591,93.447 263.096,92.942 C263.601,92.438 264.286,92.154 265,92.154 L270.385,92.154 C271.872,92.154 273.077,93.359 273.077,94.846 C273.077,96.333 271.872,97.538 270.385,97.538 L265,97.538 C264.286,97.538 263.601,97.255 263.096,96.75 C262.591,96.245 262.308,95.56 262.308,94.846 Z M246.154,108.308 C246.154,107.594 246.438,106.909 246.942,106.404 C247.447,105.899 248.132,105.615 248.846,105.615 L254.231,105.615 C255.718,105.615 256.923,106.821 256.923,108.308 C256.923,109.795 255.718,111 254.231,111 L248.846,111 C248.132,111 247.447,110.716 246.942,110.211 C246.438,109.707 246.154,109.022 246.154,108.308 Z M262.308,108.308 C262.308,107.594 262.591,106.909 263.096,106.404 C263.601,105.899 264.286,105.615 265,105.615 L270.385,105.615 C271.872,105.615 273.077,106.821 273.077,108.308 C273.077,109.795 271.872,111 270.385,111 L265,111 C264.286,111 263.601,110.716 263.096,110.211 C262.591,109.707 262.308,109.022 262.308,108.308 Z" />
        </g>
        <g id="Regular-S">
            <path d="M505.385,137.923 L500,137.923 L500,100.231 C501.487,100.231 502.692,99.025 502.692,97.538 C502.692,96.052 501.487,94.846 500,94.846 L483.846,94.846 L483.846,84.077 C485.333,84.077 486.538,82.872 486.538,81.385 C486.538,79.898 485.333,78.692 483.846,78.692 L435.385,78.692 C433.898,78.692 432.692,79.898 432.692,81.385 C432.692,82.872 433.898,84.077 435.385,84.077 L435.385,137.923 L430,137.923 C428.513,137.923 427.308,139.128 427.308,140.615 C427.308,142.102 428.513,143.308 430,143.308 L505.385,143.308 C506.872,143.308 508.077,142.102 508.077,140.615 C508.077,139.128 506.872,137.923 505.385,137.923 Z M494.615,100.231 L494.615,137.923 L483.846,137.923 L483.846,100.231 Z M440.769,84.077 L478.462,84.077 L478.462,137.923 L470.385,137.923 L470.385,121.769 C470.385,121.055 470.101,120.37 469.596,119.865 C469.091,119.361 468.406,119.077 467.692,119.077 L451.538,119.077 C450.824,119.077 450.14,119.361 449.635,119.865 C449.13,120.37 448.846,121.055 448.846,121.769 L448.846,137.923 L440.769,137.923 Z M465,137.923 L454.231,137.923 L454.231,124.462 L465,124.462 Z M446.154,94.846 C446.154,94.132 446.438,93.447 446.942,92.942 C447.447,92.438 448.132,92.154 448.846,92.154 L454.231,92.154 C455.718,92.154 456.923,93.359 456.923,94.846 C456.923,96.333 455.718,97.538 454.231,97.538 L448.846,97.538 C448.132,97.538 447.447,97.255 446.942,96.75 C446.438,96.245 446.154,95.56 446.154,94.846 Z M462.308,94.846 C462.308,94.132 462.591,93.447 463.096,92.942 C463.601,92.438 464.286,92.154 465,92.154 L470.385,92.154 C471.872,92.154 473.077,93.359 473.077,94.846 C473.077,96.333 471.872,97.538 470.385,97.538 L465,97.538 C464.286,97.538 463.601,97.255 463.096,96.75 C462.591,96.245 462.308,95.56 462.308,94.846 Z M446.154,108.308 C446.154,107.594 446.438,106.909 446.942,106.404 C447.447,105.899 448.132,105.615 448.846,105.615 L454.231,105.615 C455.718,105.615 456.923,106.821 456.923,108.308 C456.923,109.795 455.718,111 454.231,111 L448.846,111 C448.132,111 447.447,110.716 446.942,110.211 C446.438,109.707 446.154,109.022 446.154,108.308 Z M462.308,108.308 C462.308,107.594 462.591,106.909 463.096,106.404 C463.601,105.899 464.286,105.615 465,105.615 L470.385,105.615 C471.872,105.615 473.077,106.821 473.077,108.308 C473.077,109.795 471.872,111 470.385,111 L465,111 C464.286,111 463.601,110.716 463.096,110.211 C462.591,109.707 462.308,109.022 462.308,108.308 Z" />
        </g>
        <g id="Black-S">
            <path d="M705.385,137.923 L700,137.923 L700,100.231 C701.487,100.231 702.692,99.025 702.692,97.538 C702.692,96.052 701.487,94.846 700,94.846 L683.846,94.846 L683.846,84.077 C685.333,84.077 686.538,82.872 686.538,81.385 C686.538,79.898 685.333,78.692 683.846,78.692 L635.385,78.692 C633.898,78.692 632.692,79.898 632.692,81.385 C632.692,82.872 633.898,84.077 635.385,84.077 L635.385,137.923 L630,137.923 C628.513,137.923 627.308,139.128 627.308,140.615 C627.308,142.102 628.513,143.308 630,143.308 L705.385,143.308 C706.872,143.308 708.077,142.102 708.077,140.615 C708.077,139.128 706.872,137.923 705.385,137.923 Z M694.615,100.231 L694.615,137.923 L683.846,137.923 L683.846,100.231 Z M640.769,84.077 L678.462,84.077 L678.462,137.923 L670.385,137.923 L670.385,121.769 C670.385,121.055 670.101,120.37 669.596,119.865 C669.091,119.361 668.406,119.077 667.692,119.077 L651.538,119.077 C650.824,119.077 650.14,119.361 649.635,119.865 C649.13,120.37 648.846,121.055 648.846,121.769 L648.846,137.923 L640.769,137.923 Z M665,137.923 L654.231,137.923 L654.231,124.462 L665,124.462 Z M646.154,94.846 C646.154,94.132 646.438,93.447 646.942,92.942 C647.447,92.438 648.132,92.154 648.846,92.154 L654.231,92.154 C655.718,92.154 656.923,93.359 656.923,94.846 C656.923,96.333 655.718,97.538 654.231,97.538 L648.846,97.538 C648.132,97.538 647.447,97.255 646.942,96.75 C646.438,96.245 646.154,95.56 646.154,94.846 Z M662.308,94.846 C662.308,94.132 662.591,93.447 663.096,92.942 C663.601,92.438 664.286,92.154 665,92.154 L670.385,92.154 C671.872,92.154 673.077,93.359 673.077,94.846 C673.077,96.333 671.872,97.538 670.385,97.538 L665,97.538 C664.286,97.538 663.601,97.255 663.096,96.75 C662.591,96.245 662.308,95.56 662.308,94.846 Z M646.154,108.308 C646.154,107.594 646.438,106.909 646.942,106.404 C647.447,105.899 648.132,105.615 648.846,105.615 L654.231,105.615 C655.718,105.615 656.923,106.821 656.923,108.308 C656.923,109.795 655.718,111 654.231,111 L648.846,111 C648.132,111 647.447,110.716 646.942,110.211 C646.438,109.707 646.154,109.022 646.154,108.308 Z M662.308,108.308 C662.308,107.594 662.591,106.909 663.096,106.404 C663.601,105.899 664.286,105.615 665,105.615 L670.385,105.615 C671.872,105.615 673.077,106.821 673.077,108.308 C673.077,109.795 671.872,111 670.385,111 L665,111 C664.286,111 663.601,110.716 663.096,110.211 C662.591,109.707 662.308,109.022 662.308,108.308 Z" />
        </g>
    </g>
</svg>