<?xml version="1.0" encoding="UTF-8"?>
<svg height="600" width="800" xmlns="http://www.w3.org/2000/svg" xmlns:xlink="http://www.w3.org/1999/xlink">
    <g id="Notes" font-family="'LucidaGrande', 'Lucida Grande', sans-serif" font-size="13">
        <rect fill="white" height="600.0" width="800.0" x="0.0" y="0.0" />
        <g font-size="13">
            <text x="18.0" y="176.0">Small</text>
            <text x="18.0" y="376.0">Medium</text>
            <text x="18.0" y="576.0">Large</text>
        </g>
        <g font-size="9">
            <text x="250.0" y="30.0">Ultralight</text>
            <text x="450.0" y="30.0">Regular</text>
            <text x="650.0" y="30.0">Black</text>
            <text id="template-version" fill="#505050" text-anchor="end" x="785.0" y="575.0">Template v.3.0</text>
            <a href="https://github.com/swhitty/SwiftDraw">
                <text fill="#505050" text-anchor="end" x="785.0" y="590.0">https://github.com/swhitty/SwiftDraw</text>
            </a>
        </g>
    </g>
    <g id="Guides" stroke="rgb(39, 170, 225)" stroke-width="0.5">
        <path id="Capline-S" d="M18,76 l800,0" />
        <path id="H-reference" d="M85,145.755 L87.685,145.755 L113.369,79.287 L114.052,79.287 L114.052,76 L112.148,76 L85,145.755 Z M95.693,121.536 L130.996,121.536 L130.263,119.313 L96.474,119.313 L95.693,121.536 Z M139.15,145.755 L141.787,145.755 L114.638,76 L113.466,76 L113.466,79.287 L139.15,145.755 Z" stroke="none" />
        <path id="Baseline-S" d="M18,146 l800,0" />
        <path id="left-margin-Ultralight-S" d="M220,56 l0,110" />
        <path id="right-margin-Ultralight-S" d="M310,56 l0,110" />
        <path id="left-margin-Regular-S" d="M420,56 l0,110" />
        <path id="right-margin-Regular-S" d="M510,56 l0,110" />
        <path id="left-margin-Black-S" d="M620,56 l0,110" />
        <path id="right-margin-Black-S" d="M710,56 l0,110" />
        <path id="Capline-M" d="M18,276 l800,0" />
        <path id="Baseline-M" d="M18,346 l800,0" />
        <path id="Capline-L" d="M18,476 l800,0" />
        <path id="Baseline-L" d="M18,546 l800,0" />
    </g>
    <g id="Symbols">
        <g id="Ultralight-S">
            <path d="M299.882,133.397 L288.713,80.291 C288.421,78.888 287.582,77.66 286.382,76.877 C285.182,76.095 283.719,75.823 282.318,76.121 L266.565,79.507 C263.665,80.142 261.818,82.995 262.425,85.901 L273.595,139.007 C274.108,141.504 276.302,143.299 278.852,143.308 C279.234,143.307 279.616,143.267 279.989,143.187 L295.743,139.801 C298.647,139.164 300.494,136.306 299.882,133.397 Z M267.692,84.8 C267.692,84.78 267.692,84.77 267.692,84.77 L283.442,81.405 L284.563,86.746 L268.813,90.135 Z M269.92,95.391 L285.677,92.009 L286.801,97.36 L271.058,100.746 Z M272.155,106.016 L287.912,102.63 L292.388,123.913 L276.631,127.299 Z M294.615,134.538 L278.865,137.903 L277.745,132.562 L293.495,129.173 L294.615,134.507 C294.615,134.527 294.615,134.538 294.615,134.538 Z M256.923,78.692 L240.769,78.692 C239.341,78.692 237.972,79.26 236.962,80.269 C235.952,81.279 235.385,82.649 235.385,84.077 L235.385,137.923 C235.385,139.351 235.952,140.721 236.962,141.731 C237.972,142.74 239.341,143.308 240.769,143.308 L256.923,143.308 C258.351,143.308 259.721,142.74 260.731,141.731 C261.74,140.721 262.308,139.351 262.308,137.923 L262.308,84.077 C262.308,82.649 261.74,81.279 260.731,80.269 C259.721,79.26 258.351,78.692 256.923,78.692 Z M240.769,84.077 L256.923,84.077 L256.923,89.462 L240.769,89.462 Z M240.769,94.846 L256.923,94.846 L256.923,127.154 L240.769,127.154 Z M256.923,137.923 L240.769,137.923 L240.769,132.538 L256.923,132.538 L256.923,137.923 Z" />
        </g>
        <g id="Regular-S">
            <path d="M499.882,133.397 L488.712,80.291 C488.421,78.888 487.582,77.66 486.382,76.877 C485.182,76.095 483.719,75.823 482.318,76.121 L466.565,79.507 C463.665,80.142 461.818,82.995 462.425,85.901 L473.595,139.007 C474.108,141.504 476.302,143.299 478.852,143.308 C479.234,143.307 479.616,143.267 479.989,143.187 L495.743,139.801 C498.647,139.164 500.494,136.306 499.882,133.397 Z M467.692,84.8 C467.692,84.78 467.692,84.77 467.692,84.77 L483.442,81.405 L484.563,86.746 L468.813,90.135 Z M469.92,95.391 L485.677,92.009 L486.801,97.36 L471.058,100.746 Z M472.155,106.016 L487.912,102.63 L492.387,123.913 L476.631,127.299 Z M494.615,134.538 L478.865,137.903 L477.745,132.562 L493.495,129.173 L494.615,134.507 C494.615,134.527 494.615,134.538 494.615,134.538 Z M456.923,78.692 L440.769,78.692 C439.341,78.692 437.972,79.26 436.962,80.269 C435.952,81.279 435.385,82.649 435.385,84.077 L435.385,137.923 C435.385,139.351 435.952,140.721 436.962,141.731 C437.972,142.74 439.341,143.308 440.769,143.308 L456.923,143.308 C458.351,143.308 459.721,142.74 460.731,141.731 C461.74,140.721 462.308,139.351 462.308,137.923 L462.308,84.077 C462.308,82.649 461.74,81.279 460.731,80.269 C459.721,79.26 458.351,78.692 456.923,78.692 Z M440.769,84.077 L456.923,84.077 L456.923,89.462 L440.769,89.462 Z M440.769,94.846 L456.923,94.846 L456.923,127.154 L440.769,127.154 Z M456.923,137.923 L440.769,137.923 L440.769,132.538 L456.923,132.538 L456.923,137.923 Z" />
        </g>
        <g id="Black-S">
            <path d="M699.882,133.397 L688.713,80.291 C688.421,78.888 687.582,77.66 686.382,76.877 C685.182,76.095 683.719,75.823 682.318,76.121 L666.565,79.507 C663.665,80.142 661.818,82.995 662.425,85.901 L673.595,139.007 C674.108,141.504 676.302,143.299 678.852,143.308 C679.234,143.307 679.616,143.267 679.989,143.187 L695.743,139.801 C698.647,139.164 700.494,136.306 699.882,133.397 Z M667.692,84.8 C667.692,84.78 667.692,84.77 667.692,84.77 L683.442,81.405 L684.563,86.746 L668.813,90.135 Z M669.92,95.391 L685.677,92.009 L686.801,97.36 L671.058,100.746 Z M672.155,106.016 L687.912,102.63 L692.388,123.913 L676.631,127.299 Z M694.615,134.538 L678.865,137.903 L677.745,132.562 L693.495,129.173 L694.615,134.507 C694.615,134.527 694.615,134.538 694.615,134.538 Z M656.923,78.692 L640.769,78.692 C639.341,78.692 637.972,79.26 636.962,80.269 C635.952,81.279 635.385,82.649 635.385,84.077 L635.385,137.923 C635.385,139.351 635.952,140.721 636.962,141.731 C637.972,142.74 639.341,143.308 640.769,143.308 L656.923,143.308 C658.351,143.308 659.721,142.74 660.731,141.731 C661.74,140.721 662.308,139.351 662.308,137.923 L662.308,84.077 C662.308,82.649 661.74,81.279 660.731,80.269 C659.721,79.26 658.351,78.692 656.923,78.692 Z M640.769,84.077 L656.923,84.077 L656.923,89.462 L640.769,89.462 Z M640.769,94.846 L656.923,94.846 L656.923,127.154 L640.769,127.154 Z M656.923,137.923 L640.769,137.923 L640.769,132.538 L656.923,132.538 L656.923,137.923 Z" />
        </g>
    </g>
</svg>