<?xml version="1.0" encoding="UTF-8"?>
<svg height="600" width="800" xmlns="http://www.w3.org/2000/svg" xmlns:xlink="http://www.w3.org/1999/xlink">
    <g id="Notes" font-family="'LucidaGrande', 'Lucida Grande', sans-serif" font-size="13">
        <rect fill="white" height="600.0" width="800.0" x="0.0" y="0.0" />
        <g font-size="13">
            <text x="18.0" y="176.0">Small</text>
            <text x="18.0" y="376.0">Medium</text>
            <text x="18.0" y="576.0">Large</text>
        </g>
        <g font-size="9">
            <text x="250.0" y="30.0">Ultralight</text>
            <text x="450.0" y="30.0">Regular</text>
            <text x="650.0" y="30.0">Black</text>
            <text id="template-version" fill="#505050" text-anchor="end" x="785.0" y="575.0">Template v.3.0</text>
            <a href="https://github.com/swhitty/SwiftDraw">
                <text fill="#505050" text-anchor="end" x="785.0" y="590.0">https://github.com/swhitty/SwiftDraw</text>
            </a>
        </g>
    </g>
    <g id="Guides" stroke="rgb(39, 170, 225)" stroke-width="0.5">
        <path id="Capline-S" d="M18,76 l800,0" />
        <path id="H-reference" d="M85,145.755 L87.685,145.755 L113.369,79.287 L114.052,79.287 L114.052,76 L112.148,76 L85,145.755 Z M95.693,121.536 L130.996,121.536 L130.263,119.313 L96.474,119.313 L95.693,121.536 Z M139.15,145.755 L141.787,145.755 L114.638,76 L113.466,76 L113.466,79.287 L139.15,145.755 Z" stroke="none" />
        <path id="Baseline-S" d="M18,146 l800,0" />
        <path id="left-margin-Ultralight-S" d="M220,56 l0,110" />
        <path id="right-margin-Ultralight-S" d="M310,56 l0,110" />
        <path id="left-margin-Regular-S" d="M420,56 l0,110" />
        <path id="right-margin-Regular-S" d="M510,56 l0,110" />
        <path id="left-margin-Black-S" d="M620,56 l0,110" />
        <path id="right-margin-Black-S" d="M710,56 l0,110" />
        <path id="Capline-M" d="M18,276 l800,0" />
        <path id="Baseline-M" d="M18,346 l800,0" />
        <path id="Capline-L" d="M18,476 l800,0" />
        <path id="Baseline-L" d="M18,546 l800,0" />
    </g>
    <g id="Symbols">
        <g id="Ultralight-S">
            <path d="M302.692,132.538 L300,132.538 L300,111.865 L300.501,112.565 C301.041,113.395 301.994,113.863 302.981,113.781 C303.968,113.699 304.831,113.082 305.227,112.174 C305.623,111.266 305.488,110.214 304.876,109.435 L291.415,90.589 C291.23,90.334 291.003,90.113 290.742,89.936 L268.029,74.24 L267.995,74.216 C266.186,73.009 263.828,73.009 262.018,74.216 L261.985,74.24 L239.238,89.939 C238.977,90.116 238.749,90.337 238.565,90.592 L225.103,109.438 C224.492,110.218 224.357,111.27 224.753,112.178 C225.149,113.086 226.012,113.703 226.999,113.784 C227.986,113.866 228.939,113.399 229.478,112.568 L230,111.865 L230,132.538 L227.308,132.538 C225.821,132.538 224.615,133.744 224.615,135.231 C224.615,136.718 225.821,137.923 227.308,137.923 L302.692,137.923 C304.179,137.923 305.385,136.718 305.385,135.231 C305.385,133.744 304.179,132.538 302.692,132.538 Z M235.385,104.326 L242.688,94.102 L265,78.692 L287.312,94.099 L294.615,104.326 L294.615,132.538 L286.538,132.538 L286.538,108.308 C286.538,107.594 286.255,106.909 285.75,106.404 C285.245,105.899 284.56,105.615 283.846,105.615 L246.154,105.615 C245.44,105.615 244.755,105.899 244.25,106.404 C243.745,106.909 243.462,107.594 243.462,108.308 L243.462,132.538 L235.385,132.538 Z M265,118.461 L254.567,111 L275.433,111 Z M281.154,113.541 L281.154,130.001 L269.631,121.769 Z M260.369,121.769 L248.846,130.001 L248.846,113.541 Z M265,125.077 L275.433,132.538 L254.567,132.538 Z M256.923,97.538 C256.923,96.824 257.207,96.14 257.712,95.635 C258.217,95.13 258.901,94.846 259.615,94.846 L270.385,94.846 C271.872,94.846 273.077,96.052 273.077,97.538 C273.077,99.025 271.872,100.231 270.385,100.231 L259.615,100.231 C258.901,100.231 258.217,99.947 257.712,99.442 C257.207,98.937 256.923,98.253 256.923,97.538 Z" />
        </g>
        <g id="Regular-S">
            <path d="M502.692,132.538 L500,132.538 L500,111.865 L500.501,112.565 C501.041,113.395 501.994,113.863 502.981,113.781 C503.968,113.699 504.831,113.082 505.227,112.174 C505.623,111.266 505.488,110.214 504.876,109.435 L491.415,90.589 C491.23,90.334 491.003,90.113 490.742,89.936 L468.029,74.24 L467.995,74.216 C466.186,73.009 463.828,73.009 462.018,74.216 L461.985,74.24 L439.238,89.939 C438.977,90.116 438.749,90.337 438.565,90.592 L425.103,109.438 C424.492,110.218 424.357,111.27 424.753,112.178 C425.149,113.086 426.012,113.703 426.999,113.784 C427.986,113.866 428.939,113.399 429.478,112.568 L430,111.865 L430,132.538 L427.308,132.538 C425.821,132.538 424.615,133.744 424.615,135.231 C424.615,136.718 425.821,137.923 427.308,137.923 L502.692,137.923 C504.179,137.923 505.385,136.718 505.385,135.231 C505.385,133.744 504.179,132.538 502.692,132.538 Z M435.385,104.326 L442.688,94.102 L465,78.692 L487.312,94.099 L494.615,104.326 L494.615,132.538 L486.538,132.538 L486.538,108.308 C486.538,107.594 486.255,106.909 485.75,106.404 C485.245,105.899 484.56,105.615 483.846,105.615 L446.154,105.615 C445.44,105.615 444.755,105.899 444.25,106.404 C443.745,106.909 443.462,107.594 443.462,108.308 L443.462,132.538 L435.385,132.538 Z M465,118.461 L454.567,111 L475.433,111 Z M481.154,113.541 L481.154,130.001 L469.631,121.769 Z M460.369,121.769 L448.846,130.001 L448.846,113.541 Z M465,125.077 L475.433,132.538 L454.567,132.538 Z M456.923,97.538 C456.923,96.824 457.207,96.14 457.712,95.635 C458.217,95.13 458.901,94.846 459.615,94.846 L470.385,94.846 C471.872,94.846 473.077,96.052 473.077,97.538 C473.077,99.025 471.872,100.231 470.385,100.231 L459.615,100.231 C458.901,100.231 458.217,99.947 457.712,99.442 C457.207,98.937 456.923,98.253 456.923,97.538 Z" />
        </g>
        <g id="Black-S">
            <path d="M702.692,132.538 L700,132.538 L700,111.865 L700.501,112.565 C701.041,113.395 701.994,113.863 702.981,113.781 C703.968,113.699 704.831,113.082 705.227,112.174 C705.623,111.266 705.488,110.214 704.876,109.435 L691.415,90.589 C691.23,90.334 691.003,90.113 690.742,89.936 L668.029,74.24 L667.995,74.216 C666.186,73.009 663.828,73.009 662.018,74.216 L661.985,74.24 L639.238,89.939 C638.977,90.116 638.749,90.337 638.565,90.592 L625.103,109.438 C624.492,110.218 624.357,111.27 624.753,112.178 C625.149,113.086 626.012,113.703 626.999,113.784 C627.986,113.866 628.939,113.399 629.478,112.568 L630,111.865 L630,132.538 L627.308,132.538 C625.821,132.538 624.615,133.744 624.615,135.231 C624.615,136.718 625.821,137.923 627.308,137.923 L702.692,137.923 C704.179,137.923 705.385,136.718 705.385,135.231 C705.385,133.744 704.179,132.538 702.692,132.538 Z M635.385,104.326 L642.688,94.102 L665,78.692 L687.312,94.099 L694.615,104.326 L694.615,132.538 L686.538,132.538 L686.538,108.308 C686.538,107.594 686.255,106.909 685.75,106.404 C685.245,105.899 684.56,105.615 683.846,105.615 L646.154,105.615 C645.44,105.615 644.755,105.899 644.25,106.404 C643.745,106.909 643.462,107.594 643.462,108.308 L643.462,132.538 L635.385,132.538 Z M665,118.461 L654.567,111 L675.433,111 Z M681.154,113.541 L681.154,130.001 L669.631,121.769 Z M660.369,121.769 L648.846,130.001 L648.846,113.541 Z M665,125.077 L675.433,132.538 L654.567,132.538 Z M656.923,97.538 C656.923,96.824 657.207,96.14 657.712,95.635 C658.217,95.13 658.901,94.846 659.615,94.846 L670.385,94.846 C671.872,94.846 673.077,96.052 673.077,97.538 C673.077,99.025 671.872,100.231 670.385,100.231 L659.615,100.231 C658.901,100.231 658.217,99.947 657.712,99.442 C657.207,98.937 656.923,98.253 656.923,97.538 Z" />
        </g>
    </g>
</svg>