<?xml version="1.0" encoding="UTF-8"?>
<svg height="600" width="800" xmlns="http://www.w3.org/2000/svg" xmlns:xlink="http://www.w3.org/1999/xlink">
    <g id="Notes" font-family="'LucidaGrande', 'Lucida Grande', sans-serif" font-size="13">
        <rect fill="white" height="600.0" width="800.0" x="0.0" y="0.0" />
        <g font-size="13">
            <text x="18.0" y="176.0">Small</text>
            <text x="18.0" y="376.0">Medium</text>
            <text x="18.0" y="576.0">Large</text>
        </g>
        <g font-size="9">
            <text x="250.0" y="30.0">Ultralight</text>
            <text x="450.0" y="30.0">Regular</text>
            <text x="650.0" y="30.0">Black</text>
            <text id="template-version" fill="#505050" text-anchor="end" x="785.0" y="575.0">Template v.3.0</text>
            <a href="https://github.com/swhitty/SwiftDraw">
                <text fill="#505050" text-anchor="end" x="785.0" y="590.0">https://github.com/swhitty/SwiftDraw</text>
            </a>
        </g>
    </g>
    <g id="Guides" stroke="rgb(39, 170, 225)" stroke-width="0.5">
        <path id="Capline-S" d="M18,76 l800,0" />
        <path id="H-reference" d="M85,145.755 L87.685,145.755 L113.369,79.287 L114.052,79.287 L114.052,76 L112.148,76 L85,145.755 Z M95.693,121.536 L130.996,121.536 L130.263,119.313 L96.474,119.313 L95.693,121.536 Z M139.15,145.755 L141.787,145.755 L114.638,76 L113.466,76 L113.466,79.287 L139.15,145.755 Z" stroke="none" />
        <path id="Baseline-S" d="M18,146 l800,0" />
        <path id="left-margin-Ultralight-S" d="M220,56 l0,110" />
        <path id="right-margin-Ultralight-S" d="M310,56 l0,110" />
        <path id="left-margin-Regular-S" d="M420,56 l0,110" />
        <path id="right-margin-Regular-S" d="M510,56 l0,110" />
        <path id="left-margin-Black-S" d="M620,56 l0,110" />
        <path id="right-margin-Black-S" d="M710,56 l0,110" />
        <path id="Capline-M" d="M18,276 l800,0" />
        <path id="Baseline-M" d="M18,346 l800,0" />
        <path id="Capline-L" d="M18,476 l800,0" />
        <path id="Baseline-L" d="M18,546 l800,0" />
    </g>
    <g id="Symbols">
        <g id="Ultralight-S">
            <path d="M246.016,88.61 C245.65,87.51 244.621,86.769 243.462,86.769 C242.302,86.769 241.274,87.51 240.907,88.61 L227.446,128.995 C227.172,129.816 227.31,130.718 227.816,131.42 C228.322,132.123 229.135,132.539 230,132.538 L256.923,132.538 C257.789,132.539 258.601,132.123 259.107,131.42 C259.613,130.718 259.751,129.816 259.477,128.995 Z M233.736,127.154 L243.462,97.976 L253.188,127.154 Z M291.923,93.5 C291.923,83.835 284.088,76 274.423,76 C264.758,76 256.923,83.835 256.923,93.5 C256.923,103.165 264.758,111 274.423,111 C284.083,110.989 291.912,103.16 291.923,93.5 Z M262.308,93.5 C262.308,86.809 267.732,81.385 274.423,81.385 C281.114,81.385 286.538,86.809 286.538,93.5 C286.538,100.191 281.114,105.615 274.423,105.615 C271.21,105.615 268.128,104.339 265.856,102.067 C263.584,99.795 262.308,96.713 262.308,93.5 Z M297.308,116.385 L267.692,116.385 C266.978,116.385 266.293,116.668 265.789,117.173 C265.284,117.678 265,118.363 265,119.077 L265,137.923 C265,138.637 265.284,139.322 265.789,139.827 C266.293,140.332 266.978,140.615 267.692,140.615 L297.308,140.615 C298.022,140.615 298.707,140.332 299.211,139.827 C299.716,139.322 300,138.637 300,137.923 L300,119.077 C300,118.363 299.716,117.678 299.211,117.173 C298.707,116.668 298.022,116.385 297.308,116.385 Z M294.615,135.231 L270.385,135.231 L270.385,121.769 L294.615,121.769 Z" />
        </g>
        <g id="Regular-S">
            <path d="M446.016,88.61 C445.65,87.51 444.621,86.769 443.462,86.769 C442.302,86.769 441.273,87.51 440.907,88.61 L427.446,128.995 C427.172,129.816 427.31,130.718 427.816,131.42 C428.322,132.123 429.135,132.539 430,132.538 L456.923,132.538 C457.789,132.539 458.601,132.123 459.107,131.42 C459.613,130.718 459.751,129.816 459.477,128.995 Z M433.736,127.154 L443.462,97.976 L453.188,127.154 Z M491.923,93.5 C491.923,83.835 484.088,76 474.423,76 C464.758,76 456.923,83.835 456.923,93.5 C456.923,103.165 464.758,111 474.423,111 C484.083,110.989 491.912,103.16 491.923,93.5 Z M462.308,93.5 C462.308,86.809 467.732,81.385 474.423,81.385 C481.114,81.385 486.538,86.809 486.538,93.5 C486.538,100.191 481.114,105.615 474.423,105.615 C471.21,105.615 468.128,104.339 465.856,102.067 C463.584,99.795 462.308,96.713 462.308,93.5 Z M497.308,116.385 L467.692,116.385 C466.978,116.385 466.293,116.668 465.789,117.173 C465.284,117.678 465,118.363 465,119.077 L465,137.923 C465,138.637 465.284,139.322 465.789,139.827 C466.293,140.332 466.978,140.615 467.692,140.615 L497.308,140.615 C498.022,140.615 498.707,140.332 499.211,139.827 C499.716,139.322 500,138.637 500,137.923 L500,119.077 C500,118.363 499.716,117.678 499.211,117.173 C498.707,116.668 498.022,116.385 497.308,116.385 Z M494.615,135.231 L470.385,135.231 L470.385,121.769 L494.615,121.769 Z" />
        </g>
        <g id="Black-S">
            <path d="M646.016,88.61 C645.65,87.51 644.621,86.769 643.462,86.769 C642.302,86.769 641.273,87.51 640.907,88.61 L627.446,128.995 C627.172,129.816 627.31,130.718 627.816,131.42 C628.322,132.123 629.135,132.539 630,132.538 L656.923,132.538 C657.789,132.539 658.601,132.123 659.107,131.42 C659.613,130.718 659.751,129.816 659.477,128.995 Z M633.736,127.154 L643.462,97.976 L653.188,127.154 Z M691.923,93.5 C691.923,83.835 684.088,76 674.423,76 C664.758,76 656.923,83.835 656.923,93.5 C656.923,103.165 664.758,111 674.423,111 C684.083,110.989 691.912,103.16 691.923,93.5 Z M662.308,93.5 C662.308,86.809 667.732,81.385 674.423,81.385 C681.114,81.385 686.538,86.809 686.538,93.5 C686.538,100.191 681.114,105.615 674.423,105.615 C671.21,105.615 668.128,104.339 665.856,102.067 C663.584,99.795 662.308,96.713 662.308,93.5 Z M697.308,116.385 L667.692,116.385 C666.978,116.385 666.293,116.668 665.789,117.173 C665.284,117.678 665,118.363 665,119.077 L665,137.923 C665,138.637 665.284,139.322 665.789,139.827 C666.293,140.332 666.978,140.615 667.692,140.615 L697.308,140.615 C698.022,140.615 698.707,140.332 699.211,139.827 C699.716,139.322 700,138.637 700,137.923 L700,119.077 C700,118.363 699.716,117.678 699.211,117.173 C698.707,116.668 698.022,116.385 697.308,116.385 Z M694.615,135.231 L670.385,135.231 L670.385,121.769 L694.615,121.769 Z" />
        </g>
    </g>
</svg>