<?xml version="1.0" encoding="UTF-8"?>
<svg height="600" width="800" xmlns="http://www.w3.org/2000/svg" xmlns:xlink="http://www.w3.org/1999/xlink">
    <g id="Notes" font-family="'LucidaGrande', 'Lucida Grande', sans-serif" font-size="13">
        <rect fill="white" height="600.0" width="800.0" x="0.0" y="0.0" />
        <g font-size="13">
            <text x="18.0" y="176.0">Small</text>
            <text x="18.0" y="376.0">Medium</text>
            <text x="18.0" y="576.0">Large</text>
        </g>
        <g font-size="9">
            <text x="250.0" y="30.0">Ultralight</text>
            <text x="450.0" y="30.0">Regular</text>
            <text x="650.0" y="30.0">Black</text>
            <text id="template-version" fill="#505050" text-anchor="end" x="785.0" y="575.0">Template v.3.0</text>
            <a href="https://github.com/swhitty/SwiftDraw">
                <text fill="#505050" text-anchor="end" x="785.0" y="590.0">https://github.com/swhitty/SwiftDraw</text>
            </a>
        </g>
    </g>
    <g id="Guides" stroke="rgb(39, 170, 225)" stroke-width="0.5">
        <path id="Capline-S" d="M18,76 l800,0" />
        <path id="H-reference" d="M85,145.755 L87.685,145.755 L113.369,79.287 L114.052,79.287 L114.052,76 L112.148,76 L85,145.755 Z M95.693,121.536 L130.996,121.536 L130.263,119.313 L96.474,119.313 L95.693,121.536 Z M139.15,145.755 L141.787,145.755 L114.638,76 L113.466,76 L113.466,79.287 L139.15,145.755 Z" stroke="none" />
        <path id="Baseline-S" d="M18,146 l800,0" />
        <path id="left-margin-Ultralight-S" d="M220,56 l0,110" />
        <path id="right-margin-Ultralight-S" d="M310,56 l0,110" />
        <path id="left-margin-Regular-S" d="M420,56 l0,110" />
        <path id="right-margin-Regular-S" d="M510,56 l0,110" />
        <path id="left-margin-Black-S" d="M620,56 l0,110" />
        <path id="right-margin-Black-S" d="M710,56 l0,110" />
        <path id="Capline-M" d="M18,276 l800,0" />
        <path id="Baseline-M" d="M18,346 l800,0" />
        <path id="Capline-L" d="M18,476 l800,0" />
        <path id="Baseline-L" d="M18,546 l800,0" />
    </g>
    <g id="Symbols">
        <g id="Ultralight-S">
            <path d="M265,79.806 L265,111 C265,112.487 263.795,113.692 262.308,113.692 C260.821,113.692 259.615,112.487 259.615,111 L259.615,79.806 L253.443,85.982 C252.393,87.033 250.687,87.034 249.635,85.983 C248.582,84.931 248.581,83.226 249.633,82.173 L260.402,71.404 C260.907,70.898 261.592,70.614 262.307,70.614 C263.021,70.614 263.706,70.898 264.211,71.404 L274.981,82.173 C276.033,83.227 276.032,84.932 274.98,85.984 C273.927,87.035 272.221,87.034 271.17,85.982 Z M286.538,109.526 L286.538,100.231 C286.538,98.803 285.971,97.433 284.961,96.423 C283.952,95.413 282.582,94.846 281.154,94.846 L275.769,94.846 C274.282,94.846 273.077,96.052 273.077,97.538 C273.077,99.025 274.282,100.231 275.769,100.231 L281.154,100.231 L281.154,127.288 C277.832,123.895 272.504,123.504 268.722,126.375 C264.939,129.247 263.885,134.485 266.262,138.596 L266.343,138.724 L273.834,150.166 C274.648,151.411 276.317,151.76 277.561,150.946 C278.806,150.132 279.155,148.463 278.341,147.218 L270.893,135.847 C269.793,133.903 270.477,131.438 272.419,130.34 C274.361,129.242 276.826,129.925 277.924,131.867 C277.948,131.911 277.975,131.955 278.002,131.995 L281.596,137.484 C282.249,138.478 283.477,138.926 284.616,138.586 C285.756,138.246 286.538,137.198 286.538,136.008 L286.538,116.385 C291.668,121.133 294.594,127.8 294.615,134.79 L294.615,148.692 C294.615,150.179 295.821,151.385 297.308,151.385 C298.795,151.385 300,150.179 300,148.692 L300,134.776 C299.969,124.65 294.928,115.195 286.538,109.526 Z M248.846,94.846 L243.462,94.846 C242.033,94.846 240.664,95.413 239.654,96.423 C238.644,97.433 238.077,98.803 238.077,100.231 L238.077,135.231 C238.077,136.718 239.282,137.923 240.769,137.923 C242.256,137.923 243.462,136.718 243.462,135.231 L243.462,100.231 L248.846,100.231 C250.333,100.231 251.538,99.025 251.538,97.538 C251.538,96.052 250.333,94.846 248.846,94.846 Z" />
        </g>
        <g id="Regular-S">
            <path d="M465,79.806 L465,111 C465,112.487 463.795,113.692 462.308,113.692 C460.821,113.692 459.615,112.487 459.615,111 L459.615,79.806 L453.443,85.982 C452.393,87.033 450.687,87.034 449.635,85.983 C448.582,84.931 448.581,83.226 449.633,82.173 L460.402,71.404 C460.907,70.898 461.592,70.614 462.307,70.614 C463.021,70.614 463.706,70.898 464.211,71.404 L474.981,82.173 C476.033,83.227 476.032,84.932 474.98,85.984 C473.927,87.035 472.221,87.034 471.17,85.982 Z M486.538,109.526 L486.538,100.231 C486.538,98.803 485.971,97.433 484.961,96.423 C483.952,95.413 482.582,94.846 481.154,94.846 L475.769,94.846 C474.282,94.846 473.077,96.052 473.077,97.538 C473.077,99.025 474.282,100.231 475.769,100.231 L481.154,100.231 L481.154,127.288 C477.832,123.895 472.504,123.504 468.722,126.375 C464.939,129.247 463.885,134.485 466.262,138.596 L466.343,138.724 L473.834,150.166 C474.648,151.411 476.317,151.76 477.561,150.946 C478.806,150.132 479.154,148.463 478.341,147.218 L470.893,135.847 C469.793,133.903 470.477,131.438 472.419,130.34 C474.361,129.242 476.826,129.925 477.924,131.867 C477.948,131.911 477.975,131.955 478.001,131.995 L481.596,137.484 C482.249,138.478 483.477,138.926 484.616,138.586 C485.756,138.246 486.538,137.198 486.538,136.008 L486.538,116.385 C491.668,121.133 494.594,127.8 494.615,134.79 L494.615,148.692 C494.615,150.179 495.821,151.385 497.308,151.385 C498.795,151.385 500,150.179 500,148.692 L500,134.776 C499.969,124.65 494.928,115.195 486.538,109.526 Z M448.846,94.846 L443.462,94.846 C442.033,94.846 440.664,95.413 439.654,96.423 C438.644,97.433 438.077,98.803 438.077,100.231 L438.077,135.231 C438.077,136.718 439.282,137.923 440.769,137.923 C442.256,137.923 443.462,136.718 443.462,135.231 L443.462,100.231 L448.846,100.231 C450.333,100.231 451.538,99.025 451.538,97.538 C451.538,96.052 450.333,94.846 448.846,94.846 Z" />
        </g>
        <g id="Black-S">
            <path d="M665,79.806 L665,111 C665,112.487 663.795,113.692 662.308,113.692 C660.821,113.692 659.615,112.487 659.615,111 L659.615,79.806 L653.443,85.982 C652.393,87.033 650.687,87.034 649.635,85.983 C648.582,84.931 648.581,83.226 649.633,82.173 L660.402,71.404 C660.907,70.898 661.592,70.614 662.307,70.614 C663.021,70.614 663.706,70.898 664.211,71.404 L674.981,82.173 C676.033,83.227 676.032,84.932 674.98,85.984 C673.927,87.035 672.221,87.034 671.17,85.982 Z M686.538,109.526 L686.538,100.231 C686.538,98.803 685.971,97.433 684.961,96.423 C683.952,95.413 682.582,94.846 681.154,94.846 L675.769,94.846 C674.282,94.846 673.077,96.052 673.077,97.538 C673.077,99.025 674.282,100.231 675.769,100.231 L681.154,100.231 L681.154,127.288 C677.832,123.895 672.504,123.504 668.722,126.375 C664.939,129.247 663.885,134.485 666.262,138.596 L666.343,138.724 L673.834,150.166 C674.648,151.411 676.317,151.76 677.561,150.946 C678.806,150.132 679.155,148.463 678.341,147.218 L670.893,135.847 C669.793,133.903 670.477,131.438 672.419,130.34 C674.361,129.242 676.826,129.925 677.924,131.867 C677.948,131.911 677.975,131.955 678.002,131.995 L681.596,137.484 C682.249,138.478 683.477,138.926 684.616,138.586 C685.756,138.246 686.538,137.198 686.538,136.008 L686.538,116.385 C691.668,121.133 694.594,127.8 694.615,134.79 L694.615,148.692 C694.615,150.179 695.821,151.385 697.308,151.385 C698.795,151.385 700,150.179 700,148.692 L700,134.776 C699.969,124.65 694.928,115.195 686.538,109.526 Z M648.846,94.846 L643.462,94.846 C642.033,94.846 640.664,95.413 639.654,96.423 C638.644,97.433 638.077,98.803 638.077,100.231 L638.077,135.231 C638.077,136.718 639.282,137.923 640.769,137.923 C642.256,137.923 643.462,136.718 643.462,135.231 L643.462,100.231 L648.846,100.231 C650.333,100.231 651.538,99.025 651.538,97.538 C651.538,96.052 650.333,94.846 648.846,94.846 Z" />
        </g>
    </g>
</svg>