<?xml version="1.0" encoding="UTF-8"?>
<svg height="600" width="800" xmlns="http://www.w3.org/2000/svg" xmlns:xlink="http://www.w3.org/1999/xlink">
    <g id="Notes" font-family="'LucidaGrande', 'Lucida Grande', sans-serif" font-size="13">
        <rect fill="white" height="600.0" width="800.0" x="0.0" y="0.0" />
        <g font-size="13">
            <text x="18.0" y="176.0">Small</text>
            <text x="18.0" y="376.0">Medium</text>
            <text x="18.0" y="576.0">Large</text>
        </g>
        <g font-size="9">
            <text x="250.0" y="30.0">Ultralight</text>
            <text x="450.0" y="30.0">Regular</text>
            <text x="650.0" y="30.0">Black</text>
            <text id="template-version" fill="#505050" text-anchor="end" x="785.0" y="575.0">Template v.3.0</text>
            <a href="https://github.com/swhitty/SwiftDraw">
                <text fill="#505050" text-anchor="end" x="785.0" y="590.0">https://github.com/swhitty/SwiftDraw</text>
            </a>
        </g>
    </g>
    <g id="Guides" stroke="rgb(39, 170, 225)" stroke-width="0.5">
        <path id="Capline-S" d="M18,76 l800,0" />
        <path id="H-reference" d="M85,145.755 L87.685,145.755 L113.369,79.287 L114.052,79.287 L114.052,76 L112.148,76 L85,145.755 Z M95.693,121.536 L130.996,121.536 L130.263,119.313 L96.474,119.313 L95.693,121.536 Z M139.15,145.755 L141.787,145.755 L114.638,76 L113.466,76 L113.466,79.287 L139.15,145.755 Z" stroke="none" />
        <path id="Baseline-S" d="M18,146 l800,0" />
        <path id="left-margin-Ultralight-S" d="M220,56 l0,110" />
        <path id="right-margin-Ultralight-S" d="M310,56 l0,110" />
        <path id="left-margin-Regular-S" d="M420,56 l0,110" />
        <path id="right-margin-Regular-S" d="M510,56 l0,110" />
        <path id="left-margin-Black-S" d="M620,56 l0,110" />
        <path id="right-margin-Black-S" d="M710,56 l0,110" />
        <path id="Capline-M" d="M18,276 l800,0" />
        <path id="Baseline-M" d="M18,346 l800,0" />
        <path id="Capline-L" d="M18,476 l800,0" />
        <path id="Baseline-L" d="M18,546 l800,0" />
    </g>
    <g id="Symbols">
        <g id="Ultralight-S">
            <path d="M291.923,78.692 L238.077,78.692 C236.649,78.692 235.279,79.26 234.269,80.269 C233.26,81.279 232.692,82.649 232.692,84.077 L232.692,137.923 C232.692,139.351 233.26,140.721 234.269,141.731 C235.279,142.74 236.649,143.308 238.077,143.308 L291.923,143.308 C293.351,143.308 294.721,142.74 295.731,141.731 C296.74,140.721 297.308,139.351 297.308,137.923 L297.308,84.077 C297.308,82.649 296.74,81.279 295.731,80.269 C294.721,79.26 293.351,78.692 291.923,78.692 Z M291.923,137.923 L238.077,137.923 L238.077,84.077 L291.923,84.077 L291.923,137.923 Z M275.769,97.538 L254.231,97.538 C253.517,97.538 252.832,97.822 252.327,98.327 C251.822,98.832 251.538,99.517 251.538,100.231 L251.538,121.769 C251.538,122.483 251.822,123.168 252.327,123.673 C252.832,124.178 253.517,124.462 254.231,124.462 L275.769,124.462 C276.483,124.462 277.168,124.178 277.673,123.673 C278.178,123.168 278.462,122.483 278.462,121.769 L278.462,100.231 C278.462,99.517 278.178,98.832 277.673,98.327 C277.168,97.822 276.483,97.538 275.769,97.538 Z M273.077,119.077 L256.923,119.077 L256.923,102.923 L273.077,102.923 Z" />
        </g>
        <g id="Regular-S">
            <path d="M491.923,78.692 L438.077,78.692 C436.649,78.692 435.279,79.26 434.269,80.269 C433.26,81.279 432.692,82.649 432.692,84.077 L432.692,137.923 C432.692,139.351 433.26,140.721 434.269,141.731 C435.279,142.74 436.649,143.308 438.077,143.308 L491.923,143.308 C493.351,143.308 494.721,142.74 495.731,141.731 C496.74,140.721 497.308,139.351 497.308,137.923 L497.308,84.077 C497.308,82.649 496.74,81.279 495.731,80.269 C494.721,79.26 493.351,78.692 491.923,78.692 Z M491.923,137.923 L438.077,137.923 L438.077,84.077 L491.923,84.077 L491.923,137.923 Z M475.769,97.538 L454.231,97.538 C453.517,97.538 452.832,97.822 452.327,98.327 C451.822,98.832 451.538,99.517 451.538,100.231 L451.538,121.769 C451.538,122.483 451.822,123.168 452.327,123.673 C452.832,124.178 453.517,124.462 454.231,124.462 L475.769,124.462 C476.483,124.462 477.168,124.178 477.673,123.673 C478.178,123.168 478.462,122.483 478.462,121.769 L478.462,100.231 C478.462,99.517 478.178,98.832 477.673,98.327 C477.168,97.822 476.483,97.538 475.769,97.538 Z M473.077,119.077 L456.923,119.077 L456.923,102.923 L473.077,102.923 Z" />
        </g>
        <g id="Black-S">
            <path d="M691.923,78.692 L638.077,78.692 C636.649,78.692 635.279,79.26 634.269,80.269 C633.26,81.279 632.692,82.649 632.692,84.077 L632.692,137.923 C632.692,139.351 633.26,140.721 634.269,141.731 C635.279,142.74 636.649,143.308 638.077,143.308 L691.923,143.308 C693.351,143.308 694.721,142.74 695.731,141.731 C696.74,140.721 697.308,139.351 697.308,137.923 L697.308,84.077 C697.308,82.649 696.74,81.279 695.731,80.269 C694.721,79.26 693.351,78.692 691.923,78.692 Z M691.923,137.923 L638.077,137.923 L638.077,84.077 L691.923,84.077 L691.923,137.923 Z M675.769,97.538 L654.231,97.538 C653.517,97.538 652.832,97.822 652.327,98.327 C651.822,98.832 651.538,99.517 651.538,100.231 L651.538,121.769 C651.538,122.483 651.822,123.168 652.327,123.673 C652.832,124.178 653.517,124.462 654.231,124.462 L675.769,124.462 C676.483,124.462 677.168,124.178 677.673,123.673 C678.178,123.168 678.462,122.483 678.462,121.769 L678.462,100.231 C678.462,99.517 678.178,98.832 677.673,98.327 C677.168,97.822 676.483,97.538 675.769,97.538 Z M673.077,119.077 L656.923,119.077 L656.923,102.923 L673.077,102.923 Z" />
        </g>
    </g>
</svg>