<?xml version="1.0" encoding="UTF-8"?>
<svg height="600" width="800" xmlns="http://www.w3.org/2000/svg" xmlns:xlink="http://www.w3.org/1999/xlink">
    <g id="Notes" font-family="'LucidaGrande', 'Lucida Grande', sans-serif" font-size="13">
        <rect fill="white" height="600.0" width="800.0" x="0.0" y="0.0" />
        <g font-size="13">
            <text x="18.0" y="176.0">Small</text>
            <text x="18.0" y="376.0">Medium</text>
            <text x="18.0" y="576.0">Large</text>
        </g>
        <g font-size="9">
            <text x="250.0" y="30.0">Ultralight</text>
            <text x="450.0" y="30.0">Regular</text>
            <text x="650.0" y="30.0">Black</text>
            <text id="template-version" fill="#505050" text-anchor="end" x="785.0" y="575.0">Template v.3.0</text>
            <a href="https://github.com/swhitty/SwiftDraw">
                <text fill="#505050" text-anchor="end" x="785.0" y="590.0">https://github.com/swhitty/SwiftDraw</text>
            </a>
        </g>
    </g>
    <g id="Guides" stroke="rgb(39, 170, 225)" stroke-width="0.5">
        <path id="Capline-S" d="M18,76 l800,0" />
        <path id="H-reference" d="M85,145.755 L87.685,145.755 L113.369,79.287 L114.052,79.287 L114.052,76 L112.148,76 L85,145.755 Z M95.693,121.536 L130.996,121.536 L130.263,119.313 L96.474,119.313 L95.693,121.536 Z M139.15,145.755 L141.787,145.755 L114.638,76 L113.466,76 L113.466,79.287 L139.15,145.755 Z" stroke="none" />
        <path id="Baseline-S" d="M18,146 l800,0" />
        <path id="left-margin-Ultralight-S" d="M220,56 l0,110" />
        <path id="right-margin-Ultralight-S" d="M310,56 l0,110" />
        <path id="left-margin-Regular-S" d="M420,56 l0,110" />
        <path id="right-margin-Regular-S" d="M510,56 l0,110" />
        <path id="left-margin-Black-S" d="M620,56 l0,110" />
        <path id="right-margin-Black-S" d="M710,56 l0,110" />
        <path id="Capline-M" d="M18,276 l800,0" />
        <path id="Baseline-M" d="M18,346 l800,0" />
        <path id="Capline-L" d="M18,476 l800,0" />
        <path id="Baseline-L" d="M18,546 l800,0" />
    </g>
    <g id="Symbols">
        <g id="Ultralight-S">
            <path d="M256.923,89.462 C256.92,83.866 252.632,79.205 247.056,78.736 C241.48,78.267 236.474,82.146 235.537,87.663 C234.599,93.18 238.043,98.495 243.461,99.894 L243.461,122.106 C238.211,123.461 234.787,128.51 235.47,133.89 C236.154,139.27 240.731,143.302 246.154,143.302 C251.577,143.302 256.154,139.27 256.837,133.89 C257.52,128.51 254.097,123.461 248.846,122.106 L248.846,99.894 C253.599,98.66 256.918,94.372 256.923,89.462 Z M240.769,89.462 C240.769,86.488 243.18,84.077 246.154,84.077 C249.128,84.077 251.538,86.488 251.538,89.462 C251.538,92.435 249.128,94.846 246.154,94.846 C244.726,94.846 243.356,94.279 242.346,93.269 C241.337,92.259 240.769,90.89 240.769,89.462 Z M251.538,132.538 C251.538,135.512 249.128,137.923 246.154,137.923 C243.18,137.923 240.769,135.512 240.769,132.538 C240.769,129.565 243.18,127.154 246.154,127.154 C247.582,127.154 248.952,127.721 249.961,128.731 C250.971,129.741 251.538,131.11 251.538,132.538 Z M291.923,122.106 L291.923,105.154 C291.934,103.009 291.086,100.949 289.567,99.433 L276.883,86.769 L286.538,86.769 C288.025,86.769 289.231,85.564 289.231,84.077 C289.231,82.59 288.025,81.385 286.538,81.385 L270.385,81.385 C269.671,81.385 268.986,81.668 268.481,82.173 C267.976,82.678 267.692,83.363 267.692,84.077 L267.692,100.231 C267.692,101.718 268.898,102.923 270.385,102.923 C271.872,102.923 273.077,101.718 273.077,100.231 L273.077,90.575 L285.751,103.26 C286.256,103.765 286.539,104.45 286.538,105.164 L286.538,122.106 C281.288,123.462 277.864,128.51 278.547,133.89 C279.231,139.27 283.808,143.302 289.231,143.302 C294.654,143.302 299.231,139.27 299.914,133.89 C300.598,128.51 297.174,123.462 291.923,122.106 Z M289.231,137.923 C286.257,137.923 283.846,135.512 283.846,132.538 C283.846,129.565 286.257,127.154 289.231,127.154 C292.205,127.154 294.615,129.565 294.615,132.538 C294.615,133.967 294.048,135.336 293.038,136.346 C292.028,137.356 290.659,137.923 289.231,137.923 Z" />
        </g>
        <g id="Regular-S">
            <path d="M456.923,89.462 C456.92,83.866 452.632,79.205 447.056,78.736 C441.48,78.267 436.474,82.146 435.537,87.663 C434.599,93.18 438.043,98.495 443.461,99.894 L443.461,122.106 C438.211,123.461 434.787,128.51 435.47,133.89 C436.154,139.27 440.731,143.302 446.154,143.302 C451.577,143.302 456.154,139.27 456.837,133.89 C457.52,128.51 454.097,123.461 448.846,122.106 L448.846,99.894 C453.599,98.66 456.918,94.372 456.923,89.462 Z M440.769,89.462 C440.769,86.488 443.18,84.077 446.154,84.077 C449.128,84.077 451.538,86.488 451.538,89.462 C451.538,92.435 449.128,94.846 446.154,94.846 C444.726,94.846 443.356,94.279 442.346,93.269 C441.337,92.259 440.769,90.89 440.769,89.462 Z M451.538,132.538 C451.538,135.512 449.128,137.923 446.154,137.923 C443.18,137.923 440.769,135.512 440.769,132.538 C440.769,129.565 443.18,127.154 446.154,127.154 C447.582,127.154 448.952,127.721 449.961,128.731 C450.971,129.741 451.538,131.11 451.538,132.538 Z M491.923,122.106 L491.923,105.154 C491.934,103.009 491.086,100.949 489.567,99.433 L476.883,86.769 L486.538,86.769 C488.025,86.769 489.231,85.564 489.231,84.077 C489.231,82.59 488.025,81.385 486.538,81.385 L470.385,81.385 C469.671,81.385 468.986,81.668 468.481,82.173 C467.976,82.678 467.692,83.363 467.692,84.077 L467.692,100.231 C467.692,101.718 468.898,102.923 470.385,102.923 C471.872,102.923 473.077,101.718 473.077,100.231 L473.077,90.575 L485.751,103.26 C486.256,103.765 486.539,104.45 486.538,105.164 L486.538,122.106 C481.288,123.462 477.864,128.51 478.547,133.89 C479.231,139.27 483.808,143.302 489.231,143.302 C494.654,143.302 499.231,139.27 499.914,133.89 C500.597,128.51 497.174,123.462 491.923,122.106 Z M489.231,137.923 C486.257,137.923 483.846,135.512 483.846,132.538 C483.846,129.565 486.257,127.154 489.231,127.154 C492.205,127.154 494.615,129.565 494.615,132.538 C494.615,133.967 494.048,135.336 493.038,136.346 C492.028,137.356 490.659,137.923 489.231,137.923 Z" />
        </g>
        <g id="Black-S">
            <path d="M656.923,89.462 C656.92,83.866 652.633,79.205 647.056,78.736 C641.48,78.267 636.474,82.146 635.537,87.663 C634.599,93.18 638.043,98.495 643.461,99.894 L643.461,122.106 C638.211,123.461 634.787,128.51 635.47,133.89 C636.154,139.27 640.731,143.302 646.154,143.302 C651.577,143.302 656.154,139.27 656.837,133.89 C657.52,128.51 654.097,123.461 648.846,122.106 L648.846,99.894 C653.599,98.66 656.918,94.372 656.923,89.462 Z M640.769,89.462 C640.769,86.488 643.18,84.077 646.154,84.077 C649.128,84.077 651.538,86.488 651.538,89.462 C651.538,92.435 649.128,94.846 646.154,94.846 C644.726,94.846 643.356,94.279 642.346,93.269 C641.337,92.259 640.769,90.89 640.769,89.462 Z M651.538,132.538 C651.538,135.512 649.128,137.923 646.154,137.923 C643.18,137.923 640.769,135.512 640.769,132.538 C640.769,129.565 643.18,127.154 646.154,127.154 C647.582,127.154 648.952,127.721 649.961,128.731 C650.971,129.741 651.538,131.11 651.538,132.538 Z M691.923,122.106 L691.923,105.154 C691.934,103.009 691.086,100.949 689.567,99.433 L676.883,86.769 L686.538,86.769 C688.025,86.769 689.231,85.564 689.231,84.077 C689.231,82.59 688.025,81.385 686.538,81.385 L670.385,81.385 C669.671,81.385 668.986,81.668 668.481,82.173 C667.976,82.678 667.692,83.363 667.692,84.077 L667.692,100.231 C667.692,101.718 668.898,102.923 670.385,102.923 C671.872,102.923 673.077,101.718 673.077,100.231 L673.077,90.575 L685.751,103.26 C686.256,103.765 686.539,104.45 686.538,105.164 L686.538,122.106 C681.288,123.462 677.864,128.51 678.547,133.89 C679.231,139.27 683.808,143.302 689.231,143.302 C694.654,143.302 699.231,139.27 699.914,133.89 C700.598,128.51 697.174,123.462 691.923,122.106 Z M689.231,137.923 C686.257,137.923 683.846,135.512 683.846,132.538 C683.846,129.565 686.257,127.154 689.231,127.154 C692.205,127.154 694.615,129.565 694.615,132.538 C694.615,133.967 694.048,135.336 693.038,136.346 C692.028,137.356 690.659,137.923 689.231,137.923 Z" />
        </g>
    </g>
</svg>