<?xml version="1.0" encoding="UTF-8"?>
<svg height="600" width="800" xmlns="http://www.w3.org/2000/svg" xmlns:xlink="http://www.w3.org/1999/xlink">
    <g id="Notes" font-family="'LucidaGrande', 'Lucida Grande', sans-serif" font-size="13">
        <rect fill="white" height="600.0" width="800.0" x="0.0" y="0.0" />
        <g font-size="13">
            <text x="18.0" y="176.0">Small</text>
            <text x="18.0" y="376.0">Medium</text>
            <text x="18.0" y="576.0">Large</text>
        </g>
        <g font-size="9">
            <text x="250.0" y="30.0">Ultralight</text>
            <text x="450.0" y="30.0">Regular</text>
            <text x="650.0" y="30.0">Black</text>
            <text id="template-version" fill="#505050" text-anchor="end" x="785.0" y="575.0">Template v.3.0</text>
            <a href="https://github.com/swhitty/SwiftDraw">
                <text fill="#505050" text-anchor="end" x="785.0" y="590.0">https://github.com/swhitty/SwiftDraw</text>
            </a>
        </g>
    </g>
    <g id="Guides" stroke="rgb(39, 170, 225)" stroke-width="0.5">
        <path id="Capline-S" d="M18,76 l800,0" />
        <path id="H-reference" d="M85,145.755 L87.685,145.755 L113.369,79.287 L114.052,79.287 L114.052,76 L112.148,76 L85,145.755 Z M95.693,121.536 L130.996,121.536 L130.263,119.313 L96.474,119.313 L95.693,121.536 Z M139.15,145.755 L141.787,145.755 L114.638,76 L113.466,76 L113.466,79.287 L139.15,145.755 Z" stroke="none" />
        <path id="Baseline-S" d="M18,146 l800,0" />
        <path id="left-margin-Ultralight-S" d="M220,56 l0,110" />
        <path id="right-margin-Ultralight-S" d="M310,56 l0,110" />
        <path id="left-margin-Regular-S" d="M420,56 l0,110" />
        <path id="right-margin-Regular-S" d="M510,56 l0,110" />
        <path id="left-margin-Black-S" d="M620,56 l0,110" />
        <path id="right-margin-Black-S" d="M710,56 l0,110" />
        <path id="Capline-M" d="M18,276 l800,0" />
        <path id="Baseline-M" d="M18,346 l800,0" />
        <path id="Capline-L" d="M18,476 l800,0" />
        <path id="Baseline-L" d="M18,546 l800,0" />
    </g>
    <g id="Symbols">
        <g id="Ultralight-S">
            <path d="M283.846,92.154 C283.846,82.093 275.947,73.807 265.9,73.327 C255.852,72.847 247.199,80.342 246.24,90.355 C245.281,100.368 252.354,109.369 262.31,110.805 L262.31,146 C262.31,147.487 263.515,148.692 265.002,148.692 C266.489,148.692 267.694,147.487 267.694,146 L267.694,110.805 C276.958,109.454 283.832,101.516 283.846,92.154 Z M265,105.615 C257.565,105.615 251.538,99.588 251.538,92.154 C251.538,84.719 257.565,78.692 265,78.692 C272.435,78.692 278.462,84.719 278.462,92.154 C278.462,95.724 277.043,99.148 274.519,101.673 C271.994,104.197 268.57,105.615 265,105.615 Z" />
        </g>
        <g id="Regular-S">
            <path d="M483.846,92.154 C483.846,82.093 475.947,73.807 465.9,73.327 C455.852,72.847 447.199,80.342 446.24,90.355 C445.281,100.368 452.354,109.369 462.31,110.805 L462.31,146 C462.31,147.487 463.515,148.692 465.002,148.692 C466.489,148.692 467.694,147.487 467.694,146 L467.694,110.805 C476.958,109.454 483.832,101.516 483.846,92.154 Z M465,105.615 C457.565,105.615 451.538,99.588 451.538,92.154 C451.538,84.719 457.565,78.692 465,78.692 C472.435,78.692 478.462,84.719 478.462,92.154 C478.462,95.724 477.043,99.148 474.519,101.673 C471.994,104.197 468.57,105.615 465,105.615 Z" />
        </g>
        <g id="Black-S">
            <path d="M683.846,92.154 C683.846,82.093 675.947,73.807 665.9,73.327 C655.852,72.847 647.199,80.342 646.24,90.355 C645.281,100.368 652.354,109.369 662.31,110.805 L662.31,146 C662.31,147.487 663.515,148.692 665.002,148.692 C666.489,148.692 667.694,147.487 667.694,146 L667.694,110.805 C676.958,109.454 683.832,101.516 683.846,92.154 Z M665,105.615 C657.565,105.615 651.538,99.588 651.538,92.154 C651.538,84.719 657.565,78.692 665,78.692 C672.435,78.692 678.462,84.719 678.462,92.154 C678.462,95.724 677.043,99.148 674.519,101.673 C671.994,104.197 668.57,105.615 665,105.615 Z" />
        </g>
    </g>
</svg>