<?xml version="1.0" encoding="UTF-8"?>
<svg height="600" width="800" xmlns="http://www.w3.org/2000/svg" xmlns:xlink="http://www.w3.org/1999/xlink">
    <g id="Notes" font-family="'LucidaGrande', 'Lucida Grande', sans-serif" font-size="13">
        <rect fill="white" height="600.0" width="800.0" x="0.0" y="0.0" />
        <g font-size="13">
            <text x="18.0" y="176.0">Small</text>
            <text x="18.0" y="376.0">Medium</text>
            <text x="18.0" y="576.0">Large</text>
        </g>
        <g font-size="9">
            <text x="250.0" y="30.0">Ultralight</text>
            <text x="450.0" y="30.0">Regular</text>
            <text x="650.0" y="30.0">Black</text>
            <text id="template-version" fill="#505050" text-anchor="end" x="785.0" y="575.0">Template v.3.0</text>
            <a href="https://github.com/swhitty/SwiftDraw">
                <text fill="#505050" text-anchor="end" x="785.0" y="590.0">https://github.com/swhitty/SwiftDraw</text>
            </a>
        </g>
    </g>
    <g id="Guides" stroke="rgb(39, 170, 225)" stroke-width="0.5">
        <path id="Capline-S" d="M18,76 l800,0" />
        <path id="H-reference" d="M85,145.755 L87.685,145.755 L113.369,79.287 L114.052,79.287 L114.052,76 L112.148,76 L85,145.755 Z M95.693,121.536 L130.996,121.536 L130.263,119.313 L96.474,119.313 L95.693,121.536 Z M139.15,145.755 L141.787,145.755 L114.638,76 L113.466,76 L113.466,79.287 L139.15,145.755 Z" stroke="none" />
        <path id="Baseline-S" d="M18,146 l800,0" />
        <path id="left-margin-Ultralight-S" d="M220,56 l0,110" />
        <path id="right-margin-Ultralight-S" d="M310,56 l0,110" />
        <path id="left-margin-Regular-S" d="M420,56 l0,110" />
        <path id="right-margin-Regular-S" d="M510,56 l0,110" />
        <path id="left-margin-Black-S" d="M620,56 l0,110" />
        <path id="right-margin-Black-S" d="M710,56 l0,110" />
        <path id="Capline-M" d="M18,276 l800,0" />
        <path id="Baseline-M" d="M18,346 l800,0" />
        <path id="Capline-L" d="M18,476 l800,0" />
        <path id="Baseline-L" d="M18,546 l800,0" />
    </g>
    <g id="Symbols">
        <g id="Ultralight-S">
            <path d="M304.412,88.344 C301.838,83.905 295.043,82.906 284.725,85.43 C274.979,77.894 261.794,76.562 250.738,81.995 C239.681,87.429 232.681,98.681 232.692,111 C232.693,112.386 232.781,113.77 232.955,115.144 C223.636,124.798 223.771,130.519 225.591,133.656 C227.308,136.631 230.888,137.923 235.6,137.923 C238.871,137.855 242.123,137.404 245.289,136.577 C255.036,144.105 268.217,145.432 279.268,139.998 C290.32,134.564 297.318,123.316 297.308,111 C297.309,109.628 297.222,108.251 297.049,106.884 C301.256,102.509 304.056,98.353 305.009,94.796 C305.664,92.325 305.465,90.158 304.412,88.344 Z M265,84.077 C277.557,84.09 288.443,92.77 291.25,105.01 C285.509,110.414 277.738,115.957 270.361,120.198 C261.089,125.518 253.046,128.837 246.632,130.654 C238.547,123.113 235.898,111.395 239.954,101.11 C244.01,90.825 253.945,84.069 265,84.077 Z M230.249,130.953 C229.758,130.109 230.03,128.517 230.996,126.578 C231.951,124.762 233.113,123.063 234.459,121.513 C235.793,125.379 237.849,128.955 240.517,132.054 C234.712,133.03 231.09,132.407 230.249,130.953 Z M265,137.923 C260.461,137.928 255.995,136.776 252.023,134.578 C259.313,132 266.346,128.748 273.033,124.865 C280.296,120.696 286.724,116.176 291.903,111.713 C291.504,126.29 279.582,137.905 265,137.923 Z M299.805,93.396 C299.233,95.519 297.722,97.949 295.554,100.507 C294.224,96.637 292.168,93.056 289.497,89.956 C294.279,89.165 298.708,89.226 299.761,91.047 C300.064,91.575 300.081,92.366 299.805,93.396 Z" />
        </g>
        <g id="Regular-S">
            <path d="M504.412,88.344 C501.837,83.905 495.043,82.906 484.725,85.43 C474.979,77.894 461.794,76.562 450.737,81.995 C439.681,87.429 432.681,98.681 432.692,111 C432.693,112.386 432.78,113.77 432.955,115.144 C423.636,124.798 423.771,130.519 425.591,133.656 C427.308,136.631 430.888,137.923 435.6,137.923 C438.871,137.855 442.123,137.404 445.289,136.577 C455.036,144.105 468.217,145.432 479.268,139.998 C490.32,134.564 497.318,123.316 497.308,111 C497.309,109.628 497.222,108.251 497.049,106.884 C501.256,102.509 504.056,98.353 505.009,94.796 C505.664,92.325 505.465,90.158 504.412,88.344 Z M465,84.077 C477.557,84.09 488.443,92.77 491.25,105.01 C485.509,110.414 477.738,115.957 470.361,120.198 C461.089,125.518 453.046,128.837 446.632,130.654 C438.547,123.113 435.898,111.395 439.954,101.11 C444.01,90.825 453.945,84.069 465,84.077 Z M430.249,130.953 C429.758,130.109 430.03,128.517 430.996,126.578 C431.951,124.762 433.113,123.063 434.459,121.513 C435.793,125.379 437.849,128.955 440.517,132.054 C434.712,133.03 431.09,132.407 430.249,130.953 Z M465,137.923 C460.461,137.928 455.995,136.776 452.023,134.578 C459.313,132 466.346,128.748 473.033,124.865 C480.296,120.696 486.723,116.176 491.903,111.713 C491.504,126.29 479.582,137.905 465,137.923 Z M499.805,93.396 C499.233,95.519 497.722,97.949 495.554,100.507 C494.224,96.637 492.168,93.056 489.497,89.956 C494.279,89.165 498.708,89.226 499.761,91.047 C500.064,91.575 500.081,92.366 499.805,93.396 Z" />
        </g>
        <g id="Black-S">
            <path d="M704.412,88.344 C701.838,83.905 695.043,82.906 684.725,85.43 C674.979,77.894 661.794,76.562 650.738,81.995 C639.681,87.429 632.681,98.681 632.692,111 C632.693,112.386 632.781,113.77 632.955,115.144 C623.636,124.798 623.771,130.519 625.591,133.656 C627.308,136.631 630.888,137.923 635.6,137.923 C638.871,137.855 642.123,137.404 645.289,136.577 C655.036,144.105 668.217,145.432 679.268,139.998 C690.32,134.564 697.318,123.316 697.308,111 C697.309,109.628 697.222,108.251 697.049,106.884 C701.256,102.509 704.056,98.353 705.009,94.796 C705.664,92.325 705.465,90.158 704.412,88.344 Z M665,84.077 C677.557,84.09 688.443,92.77 691.25,105.01 C685.509,110.414 677.738,115.957 670.361,120.198 C661.089,125.518 653.046,128.837 646.632,130.654 C638.547,123.113 635.898,111.395 639.954,101.11 C644.01,90.825 653.945,84.069 665,84.077 Z M630.249,130.953 C629.758,130.109 630.03,128.517 630.996,126.578 C631.951,124.762 633.113,123.063 634.459,121.513 C635.793,125.379 637.849,128.955 640.517,132.054 C634.712,133.03 631.09,132.407 630.249,130.953 Z M665,137.923 C660.461,137.928 655.995,136.776 652.023,134.578 C659.313,132 666.347,128.748 673.033,124.865 C680.296,120.696 686.724,116.176 691.903,111.713 C691.504,126.29 679.582,137.905 665,137.923 Z M699.805,93.396 C699.233,95.519 697.722,97.949 695.554,100.507 C694.224,96.637 692.168,93.056 689.497,89.956 C694.279,89.165 698.708,89.226 699.761,91.047 C700.064,91.575 700.081,92.366 699.805,93.396 Z" />
        </g>
    </g>
</svg>