<?xml version="1.0" encoding="UTF-8"?>
<svg height="600" width="800" xmlns="http://www.w3.org/2000/svg" xmlns:xlink="http://www.w3.org/1999/xlink">
    <g id="Notes" font-family="'LucidaGrande', 'Lucida Grande', sans-serif" font-size="13">
        <rect fill="white" height="600.0" width="800.0" x="0.0" y="0.0" />
        <g font-size="13">
            <text x="18.0" y="176.0">Small</text>
            <text x="18.0" y="376.0">Medium</text>
            <text x="18.0" y="576.0">Large</text>
        </g>
        <g font-size="9">
            <text x="250.0" y="30.0">Ultralight</text>
            <text x="450.0" y="30.0">Regular</text>
            <text x="650.0" y="30.0">Black</text>
            <text id="template-version" fill="#505050" text-anchor="end" x="785.0" y="575.0">Template v.3.0</text>
            <a href="https://github.com/swhitty/SwiftDraw">
                <text fill="#505050" text-anchor="end" x="785.0" y="590.0">https://github.com/swhitty/SwiftDraw</text>
            </a>
        </g>
    </g>
    <g id="Guides" stroke="rgb(39, 170, 225)" stroke-width="0.5">
        <path id="Capline-S" d="M18,76 l800,0" />
        <path id="H-reference" d="M85,145.755 L87.685,145.755 L113.369,79.287 L114.052,79.287 L114.052,76 L112.148,76 L85,145.755 Z M95.693,121.536 L130.996,121.536 L130.263,119.313 L96.474,119.313 L95.693,121.536 Z M139.15,145.755 L141.787,145.755 L114.638,76 L113.466,76 L113.466,79.287 L139.15,145.755 Z" stroke="none" />
        <path id="Baseline-S" d="M18,146 l800,0" />
        <path id="left-margin-Ultralight-S" d="M220,56 l0,110" />
        <path id="right-margin-Ultralight-S" d="M310,56 l0,110" />
        <path id="left-margin-Regular-S" d="M420,56 l0,110" />
        <path id="right-margin-Regular-S" d="M510,56 l0,110" />
        <path id="left-margin-Black-S" d="M620,56 l0,110" />
        <path id="right-margin-Black-S" d="M710,56 l0,110" />
        <path id="Capline-M" d="M18,276 l800,0" />
        <path id="Baseline-M" d="M18,346 l800,0" />
        <path id="Capline-L" d="M18,476 l800,0" />
        <path id="Baseline-L" d="M18,546 l800,0" />
    </g>
    <g id="Symbols">
        <g id="Ultralight-S">
            <path d="M281.154,92.154 C280.281,92.155 279.41,92.203 278.542,92.299 C276.65,89.064 274.184,86.2 271.266,83.848 C258.532,73.574 241.123,75.923 240.389,76.027 C239.283,76.184 238.389,77.007 238.141,78.097 C237.894,79.186 238.345,80.315 239.275,80.934 C245.164,84.858 247.86,91.366 248.984,97.673 C238.192,98.799 229.464,106.962 227.62,117.655 C225.776,128.348 231.266,138.963 241.057,143.639 C250.849,148.314 262.555,145.911 269.712,137.755 C278.608,142.509 289.519,141.255 297.105,134.606 C304.69,127.957 307.363,117.305 303.815,107.862 C300.267,98.42 291.241,92.163 281.154,92.154 Z M247.5,81.173 C253.11,81.415 261.379,82.781 267.908,88.065 C269.854,89.645 271.555,91.505 272.956,93.584 C269.098,94.975 265.655,97.319 262.947,100.399 C260.309,98.981 257.43,98.068 254.456,97.707 C253.403,91.006 251.054,85.423 247.5,81.173 Z M251.538,140.615 C241.511,140.61 233.243,132.754 232.727,122.74 C232.211,112.726 239.626,104.061 249.6,103.024 C249.796,106.514 249.683,110.014 249.263,113.484 C246.712,113.002 245.444,111.851 245.376,111.801 C244.326,110.749 242.62,110.748 241.568,111.8 C240.515,112.851 240.514,114.557 241.566,115.61 C241.913,115.95 245.212,119.077 251.512,119.077 L251.596,119.077 C257.875,119.06 261.163,115.954 261.52,115.6 C262.573,114.547 262.572,112.841 261.519,111.79 C260.467,110.738 258.761,110.739 257.71,111.792 C256.833,112.51 255.806,113.021 254.704,113.286 C255.071,109.957 255.176,106.605 255.018,103.26 C264.551,105.085 271.138,113.853 270.238,123.517 C269.338,133.182 261.245,140.582 251.538,140.615 Z M270.721,106.999 C269.738,105.723 268.631,104.548 267.416,103.492 C269.648,101.117 272.456,99.359 275.567,98.39 C276.839,101.443 277.699,104.651 278.125,107.931 C276.076,107.392 275.042,106.46 274.985,106.403 C274.388,105.803 273.543,105.519 272.704,105.636 C271.866,105.753 271.131,106.258 270.721,106.999 Z M281.154,135.231 C278.273,135.234 275.43,134.575 272.845,133.302 C276.424,126.704 276.734,118.818 273.686,111.959 C275.964,113.117 278.487,113.711 281.043,113.692 L281.154,113.692 C287.471,113.692 290.779,110.569 291.136,110.213 C292.188,109.159 292.187,107.453 291.135,106.402 C290.082,105.35 288.376,105.351 287.325,106.404 C287.261,106.468 286.033,107.578 283.573,108.087 C283.168,104.481 282.322,100.938 281.053,97.538 L281.154,97.538 C291.562,97.538 300,105.976 300,116.385 C300,126.793 291.562,135.231 281.154,135.231 Z" />
        </g>
        <g id="Regular-S">
            <path d="M481.154,92.154 C480.281,92.155 479.41,92.203 478.542,92.299 C476.65,89.064 474.184,86.2 471.266,83.848 C458.532,73.574 441.123,75.923 440.389,76.027 C439.283,76.184 438.389,77.007 438.141,78.097 C437.894,79.186 438.345,80.315 439.275,80.934 C445.164,84.858 447.86,91.366 448.984,97.673 C438.192,98.799 429.464,106.962 427.62,117.655 C425.776,128.348 431.266,138.963 441.057,143.639 C450.849,148.314 462.555,145.911 469.712,137.755 C478.608,142.509 489.519,141.255 497.105,134.606 C504.69,127.957 507.363,117.305 503.815,107.862 C500.267,98.42 491.241,92.163 481.154,92.154 Z M447.5,81.173 C453.11,81.415 461.379,82.781 467.908,88.065 C469.854,89.645 471.555,91.505 472.956,93.584 C469.098,94.975 465.655,97.319 462.947,100.399 C460.309,98.981 457.429,98.068 454.456,97.707 C453.403,91.006 451.054,85.423 447.5,81.173 Z M451.538,140.615 C441.511,140.61 433.243,132.754 432.727,122.74 C432.211,112.726 439.626,104.061 449.6,103.024 C449.796,106.514 449.683,110.014 449.263,113.484 C446.712,113.002 445.444,111.851 445.376,111.801 C444.326,110.749 442.62,110.748 441.568,111.8 C440.515,112.851 440.514,114.557 441.566,115.61 C441.913,115.95 445.212,119.077 451.512,119.077 L451.596,119.077 C457.875,119.06 461.163,115.954 461.52,115.6 C462.573,114.547 462.572,112.841 461.519,111.79 C460.467,110.738 458.761,110.739 457.71,111.792 C456.833,112.51 455.806,113.021 454.704,113.286 C455.071,109.957 455.176,106.605 455.018,103.26 C464.551,105.085 471.138,113.853 470.238,123.517 C469.338,133.182 461.245,140.582 451.538,140.615 Z M470.721,106.999 C469.738,105.723 468.631,104.548 467.416,103.492 C469.648,101.117 472.456,99.359 475.567,98.39 C476.839,101.443 477.699,104.651 478.125,107.931 C476.075,107.392 475.042,106.46 474.985,106.403 C474.388,105.803 473.543,105.519 472.704,105.636 C471.866,105.753 471.131,106.258 470.721,106.999 Z M481.154,135.231 C478.273,135.234 475.43,134.575 472.845,133.302 C476.424,126.704 476.734,118.818 473.686,111.959 C475.964,113.117 478.487,113.711 481.043,113.692 L481.154,113.692 C487.471,113.692 490.779,110.569 491.136,110.213 C492.188,109.159 492.187,107.453 491.135,106.402 C490.082,105.35 488.376,105.351 487.325,106.404 C487.261,106.468 486.033,107.578 483.572,108.087 C483.168,104.481 482.322,100.938 481.053,97.538 L481.154,97.538 C491.562,97.538 500,105.976 500,116.385 C500,126.793 491.562,135.231 481.154,135.231 Z" />
        </g>
        <g id="Black-S">
            <path d="M681.154,92.154 C680.281,92.155 679.41,92.203 678.542,92.299 C676.65,89.064 674.184,86.2 671.266,83.848 C658.532,73.574 641.123,75.923 640.389,76.027 C639.283,76.184 638.389,77.007 638.141,78.097 C637.894,79.186 638.345,80.315 639.275,80.934 C645.164,84.858 647.86,91.366 648.984,97.673 C638.192,98.799 629.464,106.962 627.62,117.655 C625.776,128.348 631.266,138.963 641.057,143.639 C650.849,148.314 662.555,145.911 669.712,137.755 C678.608,142.509 689.519,141.255 697.105,134.606 C704.69,127.957 707.363,117.305 703.815,107.862 C700.267,98.42 691.241,92.163 681.154,92.154 Z M647.5,81.173 C653.11,81.415 661.379,82.781 667.908,88.065 C669.854,89.645 671.555,91.505 672.956,93.584 C669.098,94.975 665.655,97.319 662.947,100.399 C660.309,98.981 657.43,98.068 654.456,97.707 C653.403,91.006 651.054,85.423 647.5,81.173 Z M651.538,140.615 C641.511,140.61 633.243,132.754 632.727,122.74 C632.211,112.726 639.626,104.061 649.6,103.024 C649.796,106.514 649.683,110.014 649.263,113.484 C646.713,113.002 645.444,111.851 645.376,111.801 C644.326,110.749 642.62,110.748 641.568,111.8 C640.515,112.851 640.514,114.557 641.566,115.61 C641.913,115.95 645.212,119.077 651.512,119.077 L651.596,119.077 C657.875,119.06 661.163,115.954 661.52,115.6 C662.573,114.547 662.572,112.841 661.519,111.79 C660.467,110.738 658.761,110.739 657.71,111.792 C656.833,112.51 655.806,113.021 654.704,113.286 C655.071,109.957 655.176,106.605 655.018,103.26 C664.551,105.085 671.138,113.853 670.238,123.517 C669.338,133.182 661.245,140.582 651.538,140.615 Z M670.721,106.999 C669.738,105.723 668.631,104.548 667.416,103.492 C669.648,101.117 672.456,99.359 675.567,98.39 C676.839,101.443 677.699,104.651 678.125,107.931 C676.076,107.392 675.042,106.46 674.985,106.403 C674.388,105.803 673.543,105.519 672.704,105.636 C671.866,105.753 671.131,106.258 670.721,106.999 Z M681.154,135.231 C678.273,135.234 675.43,134.575 672.845,133.302 C676.424,126.704 676.734,118.818 673.686,111.959 C675.964,113.117 678.487,113.711 681.043,113.692 L681.154,113.692 C687.471,113.692 690.779,110.569 691.136,110.213 C692.188,109.159 692.187,107.453 691.135,106.402 C690.082,105.35 688.376,105.351 687.325,106.404 C687.261,106.468 686.033,107.578 683.573,108.087 C683.168,104.481 682.322,100.938 681.053,97.538 L681.154,97.538 C691.562,97.538 700,105.976 700,116.385 C700,126.793 691.562,135.231 681.154,135.231 Z" />
        </g>
    </g>
</svg>