<?xml version="1.0" encoding="UTF-8"?>
<svg height="600" width="800" xmlns="http://www.w3.org/2000/svg" xmlns:xlink="http://www.w3.org/1999/xlink">
    <g id="Notes" font-family="'LucidaGrande', 'Lucida Grande', sans-serif" font-size="13">
        <rect fill="white" height="600.0" width="800.0" x="0.0" y="0.0" />
        <g font-size="13">
            <text x="18.0" y="176.0">Small</text>
            <text x="18.0" y="376.0">Medium</text>
            <text x="18.0" y="576.0">Large</text>
        </g>
        <g font-size="9">
            <text x="250.0" y="30.0">Ultralight</text>
            <text x="450.0" y="30.0">Regular</text>
            <text x="650.0" y="30.0">Black</text>
            <text id="template-version" fill="#505050" text-anchor="end" x="785.0" y="575.0">Template v.3.0</text>
            <a href="https://github.com/swhitty/SwiftDraw">
                <text fill="#505050" text-anchor="end" x="785.0" y="590.0">https://github.com/swhitty/SwiftDraw</text>
            </a>
        </g>
    </g>
    <g id="Guides" stroke="rgb(39, 170, 225)" stroke-width="0.5">
        <path id="Capline-S" d="M18,76 l800,0" />
        <path id="H-reference" d="M85,145.755 L87.685,145.755 L113.369,79.287 L114.052,79.287 L114.052,76 L112.148,76 L85,145.755 Z M95.693,121.536 L130.996,121.536 L130.263,119.313 L96.474,119.313 L95.693,121.536 Z M139.15,145.755 L141.787,145.755 L114.638,76 L113.466,76 L113.466,79.287 L139.15,145.755 Z" stroke="none" />
        <path id="Baseline-S" d="M18,146 l800,0" />
        <path id="left-margin-Ultralight-S" d="M220,56 l0,110" />
        <path id="right-margin-Ultralight-S" d="M310,56 l0,110" />
        <path id="left-margin-Regular-S" d="M420,56 l0,110" />
        <path id="right-margin-Regular-S" d="M510,56 l0,110" />
        <path id="left-margin-Black-S" d="M620,56 l0,110" />
        <path id="right-margin-Black-S" d="M710,56 l0,110" />
        <path id="Capline-M" d="M18,276 l800,0" />
        <path id="Baseline-M" d="M18,346 l800,0" />
        <path id="Capline-L" d="M18,476 l800,0" />
        <path id="Baseline-L" d="M18,546 l800,0" />
    </g>
    <g id="Symbols">
        <g id="Ultralight-S">
            <path d="M291.923,78.692 L238.077,78.692 C236.649,78.692 235.279,79.26 234.269,80.269 C233.26,81.279 232.692,82.649 232.692,84.077 L232.692,137.923 C232.692,139.351 233.26,140.721 234.269,141.731 C235.279,142.74 236.649,143.308 238.077,143.308 L291.923,143.308 C293.351,143.308 294.721,142.74 295.731,141.731 C296.74,140.721 297.308,139.351 297.308,137.923 L297.308,84.077 C297.308,82.649 296.74,81.279 295.731,80.269 C294.721,79.26 293.351,78.692 291.923,78.692 Z M251.538,121.769 C253.025,121.769 254.231,122.975 254.231,124.462 C254.231,125.948 253.025,127.154 251.538,127.154 C250.052,127.154 248.846,125.948 248.846,124.462 C248.846,123.747 249.13,123.063 249.635,122.558 C250.14,122.053 250.824,121.769 251.538,121.769 Z M238.077,84.077 L248.846,84.077 L248.846,116.849 C245.137,118.16 242.913,121.953 243.578,125.83 C244.243,129.707 247.605,132.541 251.538,132.541 C255.472,132.541 258.834,129.707 259.499,125.83 C260.164,121.953 257.94,118.16 254.231,116.849 L254.231,106.729 L270.385,122.883 L270.385,137.923 L238.077,137.923 Z M291.923,137.923 L275.769,137.923 L275.769,121.769 C275.77,121.055 275.487,120.37 274.982,119.865 L254.231,99.117 L254.231,84.077 L265,84.077 L265,92.154 C264.999,92.868 265.283,93.553 265.787,94.059 L271.172,99.443 C270.651,100.529 270.381,101.719 270.385,102.923 C270.385,107.384 274.001,111 278.462,111 C282.922,111 286.538,107.384 286.538,102.923 C286.538,98.462 282.922,94.846 278.462,94.846 C277.257,94.844 276.067,95.114 274.982,95.637 L270.385,91.04 L270.385,84.077 L291.923,84.077 L291.923,137.923 Z M278.462,100.231 C279.948,100.231 281.154,101.436 281.154,102.923 C281.154,104.41 279.948,105.615 278.462,105.615 C276.975,105.615 275.769,104.41 275.769,102.923 C275.769,102.209 276.053,101.524 276.558,101.019 C277.063,100.514 277.747,100.231 278.462,100.231 Z" />
        </g>
        <g id="Regular-S">
            <path d="M491.923,78.692 L438.077,78.692 C436.649,78.692 435.279,79.26 434.269,80.269 C433.26,81.279 432.692,82.649 432.692,84.077 L432.692,137.923 C432.692,139.351 433.26,140.721 434.269,141.731 C435.279,142.74 436.649,143.308 438.077,143.308 L491.923,143.308 C493.351,143.308 494.721,142.74 495.731,141.731 C496.74,140.721 497.308,139.351 497.308,137.923 L497.308,84.077 C497.308,82.649 496.74,81.279 495.731,80.269 C494.721,79.26 493.351,78.692 491.923,78.692 Z M451.538,121.769 C453.025,121.769 454.231,122.975 454.231,124.462 C454.231,125.948 453.025,127.154 451.538,127.154 C450.052,127.154 448.846,125.948 448.846,124.462 C448.846,123.747 449.13,123.063 449.635,122.558 C450.14,122.053 450.824,121.769 451.538,121.769 Z M438.077,84.077 L448.846,84.077 L448.846,116.849 C445.137,118.16 442.913,121.953 443.578,125.83 C444.243,129.707 447.605,132.541 451.538,132.541 C455.472,132.541 458.834,129.707 459.499,125.83 C460.164,121.953 457.94,118.16 454.231,116.849 L454.231,106.729 L470.385,122.883 L470.385,137.923 L438.077,137.923 Z M491.923,137.923 L475.769,137.923 L475.769,121.769 C475.77,121.055 475.487,120.37 474.982,119.865 L454.231,99.117 L454.231,84.077 L465,84.077 L465,92.154 C464.999,92.868 465.283,93.553 465.787,94.059 L471.172,99.443 C470.651,100.529 470.381,101.719 470.385,102.923 C470.385,107.384 474.001,111 478.462,111 C482.922,111 486.538,107.384 486.538,102.923 C486.538,98.462 482.922,94.846 478.462,94.846 C477.257,94.844 476.067,95.114 474.982,95.637 L470.385,91.04 L470.385,84.077 L491.923,84.077 L491.923,137.923 Z M478.462,100.231 C479.948,100.231 481.154,101.436 481.154,102.923 C481.154,104.41 479.948,105.615 478.462,105.615 C476.975,105.615 475.769,104.41 475.769,102.923 C475.769,102.209 476.053,101.524 476.558,101.019 C477.063,100.514 477.747,100.231 478.462,100.231 Z" />
        </g>
        <g id="Black-S">
            <path d="M691.923,78.692 L638.077,78.692 C636.649,78.692 635.279,79.26 634.269,80.269 C633.26,81.279 632.692,82.649 632.692,84.077 L632.692,137.923 C632.692,139.351 633.26,140.721 634.269,141.731 C635.279,142.74 636.649,143.308 638.077,143.308 L691.923,143.308 C693.351,143.308 694.721,142.74 695.731,141.731 C696.74,140.721 697.308,139.351 697.308,137.923 L697.308,84.077 C697.308,82.649 696.74,81.279 695.731,80.269 C694.721,79.26 693.351,78.692 691.923,78.692 Z M651.538,121.769 C653.025,121.769 654.231,122.975 654.231,124.462 C654.231,125.948 653.025,127.154 651.538,127.154 C650.052,127.154 648.846,125.948 648.846,124.462 C648.846,123.747 649.13,123.063 649.635,122.558 C650.14,122.053 650.824,121.769 651.538,121.769 Z M638.077,84.077 L648.846,84.077 L648.846,116.849 C645.137,118.16 642.913,121.953 643.578,125.83 C644.243,129.707 647.605,132.541 651.538,132.541 C655.472,132.541 658.834,129.707 659.499,125.83 C660.164,121.953 657.94,118.16 654.231,116.849 L654.231,106.729 L670.385,122.883 L670.385,137.923 L638.077,137.923 Z M691.923,137.923 L675.769,137.923 L675.769,121.769 C675.77,121.055 675.487,120.37 674.982,119.865 L654.231,99.117 L654.231,84.077 L665,84.077 L665,92.154 C664.999,92.868 665.283,93.553 665.787,94.059 L671.172,99.443 C670.651,100.529 670.381,101.719 670.385,102.923 C670.385,107.384 674.001,111 678.462,111 C682.922,111 686.538,107.384 686.538,102.923 C686.538,98.462 682.922,94.846 678.462,94.846 C677.257,94.844 676.067,95.114 674.982,95.637 L670.385,91.04 L670.385,84.077 L691.923,84.077 L691.923,137.923 Z M678.462,100.231 C679.948,100.231 681.154,101.436 681.154,102.923 C681.154,104.41 679.948,105.615 678.462,105.615 C676.975,105.615 675.769,104.41 675.769,102.923 C675.769,102.209 676.053,101.524 676.558,101.019 C677.063,100.514 677.747,100.231 678.462,100.231 Z" />
        </g>
    </g>
</svg>