<?xml version="1.0" encoding="UTF-8"?>
<svg height="600" width="800" xmlns="http://www.w3.org/2000/svg" xmlns:xlink="http://www.w3.org/1999/xlink">
    <g id="Notes" font-family="'LucidaGrande', 'Lucida Grande', sans-serif" font-size="13">
        <rect fill="white" height="600.0" width="800.0" x="0.0" y="0.0" />
        <g font-size="13">
            <text x="18.0" y="176.0">Small</text>
            <text x="18.0" y="376.0">Medium</text>
            <text x="18.0" y="576.0">Large</text>
        </g>
        <g font-size="9">
            <text x="250.0" y="30.0">Ultralight</text>
            <text x="450.0" y="30.0">Regular</text>
            <text x="650.0" y="30.0">Black</text>
            <text id="template-version" fill="#505050" text-anchor="end" x="785.0" y="575.0">Template v.3.0</text>
            <a href="https://github.com/swhitty/SwiftDraw">
                <text fill="#505050" text-anchor="end" x="785.0" y="590.0">https://github.com/swhitty/SwiftDraw</text>
            </a>
        </g>
    </g>
    <g id="Guides" stroke="rgb(39, 170, 225)" stroke-width="0.5">
        <path id="Capline-S" d="M18,76 l800,0" />
        <path id="H-reference" d="M85,145.755 L87.685,145.755 L113.369,79.287 L114.052,79.287 L114.052,76 L112.148,76 L85,145.755 Z M95.693,121.536 L130.996,121.536 L130.263,119.313 L96.474,119.313 L95.693,121.536 Z M139.15,145.755 L141.787,145.755 L114.638,76 L113.466,76 L113.466,79.287 L139.15,145.755 Z" stroke="none" />
        <path id="Baseline-S" d="M18,146 l800,0" />
        <path id="left-margin-Ultralight-S" d="M220,56 l0,110" />
        <path id="right-margin-Ultralight-S" d="M310,56 l0,110" />
        <path id="left-margin-Regular-S" d="M420,56 l0,110" />
        <path id="right-margin-Regular-S" d="M510,56 l0,110" />
        <path id="left-margin-Black-S" d="M620,56 l0,110" />
        <path id="right-margin-Black-S" d="M710,56 l0,110" />
        <path id="Capline-M" d="M18,276 l800,0" />
        <path id="Baseline-M" d="M18,346 l800,0" />
        <path id="Capline-L" d="M18,476 l800,0" />
        <path id="Baseline-L" d="M18,546 l800,0" />
    </g>
    <g id="Symbols">
        <g id="Ultralight-S">
            <path d="M298.593,90.39 C300.026,88.814 300.394,86.542 299.534,84.594 C298.673,82.645 296.745,81.387 294.615,81.385 L235.385,81.385 C233.255,81.389 231.329,82.647 230.469,84.595 C229.609,86.543 229.978,88.815 231.41,90.39 L231.437,90.421 L254.231,114.759 L254.231,140.615 C254.231,142.602 255.324,144.427 257.074,145.364 C258.825,146.301 260.949,146.199 262.602,145.097 L273.371,137.916 C274.87,136.917 275.77,135.235 275.769,133.434 L275.769,114.759 L298.563,90.421 Z M235.385,86.769 L235.385,86.769 Z M271.122,111.872 C270.655,112.364 270.392,113.014 270.385,113.692 L270.385,133.434 L259.615,140.615 L259.615,113.692 C259.615,113.01 259.355,112.353 258.888,111.855 L235.385,86.769 L294.615,86.769 Z M304.604,138.731 C305.656,139.784 305.655,141.49 304.603,142.541 C303.55,143.593 301.845,143.592 300.793,142.539 L294.615,136.348 L288.443,142.524 C287.392,143.575 285.687,143.574 284.636,142.522 C283.584,141.47 283.585,139.765 284.637,138.714 L290.809,132.538 L284.637,126.363 C283.631,125.304 283.653,123.637 284.685,122.605 C285.718,121.572 287.385,121.551 288.443,122.557 L294.615,128.732 L300.788,122.56 C301.838,121.508 303.543,121.507 304.595,122.558 C305.647,123.609 305.648,125.314 304.597,126.366 L298.422,132.538 Z" />
        </g>
        <g id="Regular-S">
            <path d="M498.593,90.39 C500.026,88.814 500.394,86.542 499.534,84.594 C498.673,82.645 496.745,81.387 494.615,81.385 L435.385,81.385 C433.255,81.389 431.329,82.647 430.469,84.595 C429.609,86.543 429.978,88.815 431.41,90.39 L431.437,90.421 L454.231,114.759 L454.231,140.615 C454.231,142.602 455.324,144.427 457.074,145.364 C458.825,146.301 460.949,146.199 462.602,145.097 L473.371,137.916 C474.87,136.917 475.77,135.235 475.769,133.434 L475.769,114.759 L498.563,90.421 Z M435.385,86.769 L435.385,86.769 Z M471.122,111.872 C470.655,112.364 470.392,113.014 470.385,113.692 L470.385,133.434 L459.615,140.615 L459.615,113.692 C459.615,113.01 459.355,112.353 458.888,111.855 L435.385,86.769 L494.615,86.769 Z M504.604,138.731 C505.656,139.784 505.655,141.49 504.603,142.541 C503.55,143.593 501.845,143.592 500.793,142.539 L494.615,136.348 L488.443,142.524 C487.392,143.575 485.687,143.574 484.636,142.522 C483.584,141.47 483.585,139.765 484.637,138.714 L490.809,132.538 L484.637,126.363 C483.631,125.304 483.653,123.637 484.685,122.605 C485.718,121.572 487.385,121.551 488.443,122.557 L494.615,128.732 L500.787,122.56 C501.838,121.508 503.543,121.507 504.595,122.558 C505.647,123.609 505.648,125.314 504.597,126.366 L498.422,132.538 Z" />
        </g>
        <g id="Black-S">
            <path d="M698.593,90.39 C700.026,88.814 700.394,86.542 699.534,84.594 C698.673,82.645 696.745,81.387 694.615,81.385 L635.385,81.385 C633.255,81.389 631.329,82.647 630.469,84.595 C629.609,86.543 629.978,88.815 631.41,90.39 L631.437,90.421 L654.231,114.759 L654.231,140.615 C654.231,142.602 655.324,144.427 657.074,145.364 C658.825,146.301 660.949,146.199 662.602,145.097 L673.371,137.916 C674.87,136.917 675.77,135.235 675.769,133.434 L675.769,114.759 L698.563,90.421 Z M635.385,86.769 L635.385,86.769 Z M671.122,111.872 C670.655,112.364 670.392,113.014 670.385,113.692 L670.385,133.434 L659.615,140.615 L659.615,113.692 C659.615,113.01 659.355,112.353 658.888,111.855 L635.385,86.769 L694.615,86.769 Z M704.604,138.731 C705.656,139.784 705.655,141.49 704.603,142.541 C703.55,143.593 701.845,143.592 700.793,142.539 L694.615,136.348 L688.443,142.524 C687.392,143.575 685.687,143.574 684.636,142.522 C683.584,141.47 683.585,139.765 684.637,138.714 L690.809,132.538 L684.637,126.363 C683.631,125.304 683.653,123.637 684.685,122.605 C685.718,121.572 687.385,121.551 688.443,122.557 L694.615,128.732 L700.788,122.56 C701.838,121.508 703.543,121.507 704.595,122.558 C705.647,123.609 705.648,125.314 704.597,126.366 L698.422,132.538 Z" />
        </g>
    </g>
</svg>