<?xml version="1.0" encoding="UTF-8"?>
<svg height="600" width="800" xmlns="http://www.w3.org/2000/svg" xmlns:xlink="http://www.w3.org/1999/xlink">
    <g id="Notes" font-family="'LucidaGrande', 'Lucida Grande', sans-serif" font-size="13">
        <rect fill="white" height="600.0" width="800.0" x="0.0" y="0.0" />
        <g font-size="13">
            <text x="18.0" y="176.0">Small</text>
            <text x="18.0" y="376.0">Medium</text>
            <text x="18.0" y="576.0">Large</text>
        </g>
        <g font-size="9">
            <text x="250.0" y="30.0">Ultralight</text>
            <text x="450.0" y="30.0">Regular</text>
            <text x="650.0" y="30.0">Black</text>
            <text id="template-version" fill="#505050" text-anchor="end" x="785.0" y="575.0">Template v.3.0</text>
            <a href="https://github.com/swhitty/SwiftDraw">
                <text fill="#505050" text-anchor="end" x="785.0" y="590.0">https://github.com/swhitty/SwiftDraw</text>
            </a>
        </g>
    </g>
    <g id="Guides" stroke="rgb(39, 170, 225)" stroke-width="0.5">
        <path id="Capline-S" d="M18,76 l800,0" />
        <path id="H-reference" d="M85,145.755 L87.685,145.755 L113.369,79.287 L114.052,79.287 L114.052,76 L112.148,76 L85,145.755 Z M95.693,121.536 L130.996,121.536 L130.263,119.313 L96.474,119.313 L95.693,121.536 Z M139.15,145.755 L141.787,145.755 L114.638,76 L113.466,76 L113.466,79.287 L139.15,145.755 Z" stroke="none" />
        <path id="Baseline-S" d="M18,146 l800,0" />
        <path id="left-margin-Ultralight-S" d="M220,56 l0,110" />
        <path id="right-margin-Ultralight-S" d="M310,56 l0,110" />
        <path id="left-margin-Regular-S" d="M420,56 l0,110" />
        <path id="right-margin-Regular-S" d="M510,56 l0,110" />
        <path id="left-margin-Black-S" d="M620,56 l0,110" />
        <path id="right-margin-Black-S" d="M710,56 l0,110" />
        <path id="Capline-M" d="M18,276 l800,0" />
        <path id="Baseline-M" d="M18,346 l800,0" />
        <path id="Capline-L" d="M18,476 l800,0" />
        <path id="Baseline-L" d="M18,546 l800,0" />
    </g>
    <g id="Symbols">
        <g id="Ultralight-S">
            <path d="M297.833,97.39 L268.244,74.401 L268.184,74.354 C266.291,72.957 263.709,72.957 261.816,74.354 L261.756,74.401 L232.167,97.39 C230.331,98.759 229.562,101.139 230.249,103.324 L241.018,139.515 L241.038,139.572 C241.748,141.799 243.817,143.31 246.154,143.308 L283.846,143.308 C286.187,143.314 288.261,141.802 288.972,139.572 L288.992,139.515 L299.761,103.324 C300.446,101.137 299.672,98.756 297.833,97.39 Z M294.595,101.765 L283.846,137.923 L246.154,137.923 L235.385,101.765 L235.364,101.708 L235.364,101.708 L235.425,101.661 L265,78.692 L294.555,101.654 L294.615,101.701 Z" />
        </g>
        <g id="Regular-S">
            <path d="M497.833,97.39 L468.244,74.401 L468.184,74.354 C466.291,72.957 463.709,72.957 461.816,74.354 L461.756,74.401 L432.167,97.39 C430.331,98.759 429.562,101.139 430.249,103.324 L441.018,139.515 L441.038,139.572 C441.748,141.799 443.817,143.31 446.154,143.308 L483.846,143.308 C486.187,143.314 488.261,141.802 488.972,139.572 L488.992,139.515 L499.761,103.324 C500.446,101.137 499.672,98.756 497.833,97.39 Z M494.595,101.765 L483.846,137.923 L446.154,137.923 L435.385,101.765 L435.364,101.708 L435.364,101.708 L435.425,101.661 L465,78.692 L494.555,101.654 L494.615,101.701 Z" />
        </g>
        <g id="Black-S">
            <path d="M697.833,97.39 L668.244,74.401 L668.184,74.354 C666.291,72.957 663.709,72.957 661.816,74.354 L661.756,74.401 L632.167,97.39 C630.331,98.759 629.562,101.139 630.249,103.324 L641.018,139.515 L641.038,139.572 C641.748,141.799 643.817,143.31 646.154,143.308 L683.846,143.308 C686.187,143.314 688.261,141.802 688.972,139.572 L688.992,139.515 L699.761,103.324 C700.446,101.137 699.672,98.756 697.833,97.39 Z M694.595,101.765 L683.846,137.923 L646.154,137.923 L635.385,101.765 L635.364,101.708 L635.364,101.708 L635.425,101.661 L665,78.692 L694.555,101.654 L694.615,101.701 Z" />
        </g>
    </g>
</svg>