<?xml version="1.0" encoding="UTF-8"?>
<svg height="600" width="800" xmlns="http://www.w3.org/2000/svg" xmlns:xlink="http://www.w3.org/1999/xlink">
    <g id="Notes" font-family="'LucidaGrande', 'Lucida Grande', sans-serif" font-size="13">
        <rect fill="white" height="600.0" width="800.0" x="0.0" y="0.0" />
        <g font-size="13">
            <text x="18.0" y="176.0">Small</text>
            <text x="18.0" y="376.0">Medium</text>
            <text x="18.0" y="576.0">Large</text>
        </g>
        <g font-size="9">
            <text x="250.0" y="30.0">Ultralight</text>
            <text x="450.0" y="30.0">Regular</text>
            <text x="650.0" y="30.0">Black</text>
            <text id="template-version" fill="#505050" text-anchor="end" x="785.0" y="575.0">Template v.3.0</text>
            <a href="https://github.com/swhitty/SwiftDraw">
                <text fill="#505050" text-anchor="end" x="785.0" y="590.0">https://github.com/swhitty/SwiftDraw</text>
            </a>
        </g>
    </g>
    <g id="Guides" stroke="rgb(39, 170, 225)" stroke-width="0.5">
        <path id="Capline-S" d="M18,76 l800,0" />
        <path id="H-reference" d="M85,145.755 L87.685,145.755 L113.369,79.287 L114.052,79.287 L114.052,76 L112.148,76 L85,145.755 Z M95.693,121.536 L130.996,121.536 L130.263,119.313 L96.474,119.313 L95.693,121.536 Z M139.15,145.755 L141.787,145.755 L114.638,76 L113.466,76 L113.466,79.287 L139.15,145.755 Z" stroke="none" />
        <path id="Baseline-S" d="M18,146 l800,0" />
        <path id="left-margin-Ultralight-S" d="M220,56 l0,110" />
        <path id="right-margin-Ultralight-S" d="M310,56 l0,110" />
        <path id="left-margin-Regular-S" d="M420,56 l0,110" />
        <path id="right-margin-Regular-S" d="M510,56 l0,110" />
        <path id="left-margin-Black-S" d="M620,56 l0,110" />
        <path id="right-margin-Black-S" d="M710,56 l0,110" />
        <path id="Capline-M" d="M18,276 l800,0" />
        <path id="Baseline-M" d="M18,346 l800,0" />
        <path id="Capline-L" d="M18,476 l800,0" />
        <path id="Baseline-L" d="M18,546 l800,0" />
    </g>
    <g id="Symbols">
        <g id="Ultralight-S">
            <path d="M265,76 C245.67,76 230,91.67 230,111 C230,130.33 245.67,146 265,146 C284.33,146 300,130.33 300,111 C299.979,91.677 284.32,76.02 264.999,76 Z M265,140.615 C248.644,140.615 235.385,127.356 235.385,111 C235.385,94.644 248.644,81.385 265,81.385 C281.356,81.385 294.615,94.644 294.615,111 C294.598,127.347 281.35,140.596 265.001,140.615 Z M265,92.154 C260.211,92.154 256.25,94.321 253.558,98.417 C251.38,101.735 250.192,106.204 250.192,111 C250.192,115.796 251.39,120.265 253.558,123.583 C256.25,127.682 260.201,129.846 265,129.846 C269.799,129.846 273.75,127.682 276.442,123.583 C278.62,120.265 279.808,115.796 279.808,111 C279.808,106.204 278.61,101.735 276.442,98.417 C273.75,94.321 269.789,92.154 265,92.154 Z M265,124.462 C257.562,124.462 255.577,116.001 255.577,111 C255.577,105.999 257.562,97.538 265,97.538 C272.438,97.538 274.423,105.999 274.423,111 C274.423,116.001 272.438,124.462 265,124.462 Z" />
        </g>
        <g id="Regular-S">
            <path d="M465,76 C445.67,76 430,91.67 430,111 C430,130.33 445.67,146 465,146 C484.33,146 500,130.33 500,111 C499.979,91.677 484.32,76.02 464.999,76 Z M465,140.615 C448.644,140.615 435.385,127.356 435.385,111 C435.385,94.644 448.644,81.385 465,81.385 C481.356,81.385 494.615,94.644 494.615,111 C494.598,127.347 481.35,140.596 465.001,140.615 Z M465,92.154 C460.211,92.154 456.25,94.321 453.558,98.417 C451.38,101.735 450.192,106.204 450.192,111 C450.192,115.796 451.39,120.265 453.558,123.583 C456.25,127.682 460.201,129.846 465,129.846 C469.799,129.846 473.75,127.682 476.442,123.583 C478.62,120.265 479.808,115.796 479.808,111 C479.808,106.204 478.61,101.735 476.442,98.417 C473.75,94.321 469.789,92.154 465,92.154 Z M465,124.462 C457.562,124.462 455.577,116.001 455.577,111 C455.577,105.999 457.562,97.538 465,97.538 C472.438,97.538 474.423,105.999 474.423,111 C474.423,116.001 472.438,124.462 465,124.462 Z" />
        </g>
        <g id="Black-S">
            <path d="M665,76 C645.67,76 630,91.67 630,111 C630,130.33 645.67,146 665,146 C684.33,146 700,130.33 700,111 C699.979,91.677 684.32,76.02 664.999,76 Z M665,140.615 C648.644,140.615 635.385,127.356 635.385,111 C635.385,94.644 648.644,81.385 665,81.385 C681.356,81.385 694.615,94.644 694.615,111 C694.598,127.347 681.35,140.596 665.001,140.615 Z M665,92.154 C660.211,92.154 656.25,94.321 653.558,98.417 C651.38,101.735 650.192,106.204 650.192,111 C650.192,115.796 651.39,120.265 653.558,123.583 C656.25,127.682 660.201,129.846 665,129.846 C669.799,129.846 673.75,127.682 676.442,123.583 C678.62,120.265 679.808,115.796 679.808,111 C679.808,106.204 678.61,101.735 676.442,98.417 C673.75,94.321 669.789,92.154 665,92.154 Z M665,124.462 C657.562,124.462 655.577,116.001 655.577,111 C655.577,105.999 657.562,97.538 665,97.538 C672.438,97.538 674.423,105.999 674.423,111 C674.423,116.001 672.438,124.462 665,124.462 Z" />
        </g>
    </g>
</svg>