<?xml version="1.0" encoding="UTF-8"?>
<svg height="600" width="800" xmlns="http://www.w3.org/2000/svg" xmlns:xlink="http://www.w3.org/1999/xlink">
    <g id="Notes" font-family="'LucidaGrande', 'Lucida Grande', sans-serif" font-size="13">
        <rect fill="white" height="600.0" width="800.0" x="0.0" y="0.0" />
        <g font-size="13">
            <text x="18.0" y="176.0">Small</text>
            <text x="18.0" y="376.0">Medium</text>
            <text x="18.0" y="576.0">Large</text>
        </g>
        <g font-size="9">
            <text x="250.0" y="30.0">Ultralight</text>
            <text x="450.0" y="30.0">Regular</text>
            <text x="650.0" y="30.0">Black</text>
            <text id="template-version" fill="#505050" text-anchor="end" x="785.0" y="575.0">Template v.3.0</text>
            <a href="https://github.com/swhitty/SwiftDraw">
                <text fill="#505050" text-anchor="end" x="785.0" y="590.0">https://github.com/swhitty/SwiftDraw</text>
            </a>
        </g>
    </g>
    <g id="Guides" stroke="rgb(39, 170, 225)" stroke-width="0.5">
        <path id="Capline-S" d="M18,76 l800,0" />
        <path id="H-reference" d="M85,145.755 L87.685,145.755 L113.369,79.287 L114.052,79.287 L114.052,76 L112.148,76 L85,145.755 Z M95.693,121.536 L130.996,121.536 L130.263,119.313 L96.474,119.313 L95.693,121.536 Z M139.15,145.755 L141.787,145.755 L114.638,76 L113.466,76 L113.466,79.287 L139.15,145.755 Z" stroke="none" />
        <path id="Baseline-S" d="M18,146 l800,0" />
        <path id="left-margin-Ultralight-S" d="M220,56 l0,110" />
        <path id="right-margin-Ultralight-S" d="M310,56 l0,110" />
        <path id="left-margin-Regular-S" d="M420,56 l0,110" />
        <path id="right-margin-Regular-S" d="M510,56 l0,110" />
        <path id="left-margin-Black-S" d="M620,56 l0,110" />
        <path id="right-margin-Black-S" d="M710,56 l0,110" />
        <path id="Capline-M" d="M18,276 l800,0" />
        <path id="Baseline-M" d="M18,346 l800,0" />
        <path id="Capline-L" d="M18,476 l800,0" />
        <path id="Baseline-L" d="M18,546 l800,0" />
    </g>
    <g id="Symbols">
        <g id="Ultralight-S">
            <path d="M269.038,128.5 C269.038,130.73 267.23,132.538 265,132.538 C262.77,132.538 260.962,130.73 260.962,128.5 C260.962,126.27 262.77,124.462 265,124.462 C266.071,124.462 267.098,124.887 267.856,125.644 C268.613,126.402 269.038,127.429 269.038,128.5 Z M265,92.154 C257.576,92.154 251.538,97.589 251.538,104.269 L251.538,105.615 C251.538,107.102 252.744,108.308 254.231,108.308 C255.718,108.308 256.923,107.102 256.923,105.615 L256.923,104.269 C256.923,100.567 260.548,97.538 265,97.538 C269.452,97.538 273.077,100.567 273.077,104.269 C273.077,107.971 269.452,111 265,111 C264.286,111 263.601,111.284 263.096,111.789 C262.591,112.293 262.308,112.978 262.308,113.692 L262.308,116.385 C262.308,117.872 263.513,119.077 265,119.077 C266.487,119.077 267.692,117.872 267.692,116.385 L267.692,116.142 C273.831,115.015 278.462,110.118 278.462,104.269 C278.462,97.589 272.424,92.154 265,92.154 Z M300,111 C300,130.33 284.33,146 265,146 C245.67,146 230,130.33 230,111 C230,91.67 245.67,76 265,76 C284.322,76.02 299.98,91.678 300,111 Z M294.615,111 C294.615,94.644 281.356,81.385 265,81.385 C248.644,81.385 235.385,94.644 235.385,111 C235.385,127.356 248.644,140.615 265,140.615 C281.348,140.597 294.597,127.348 294.615,111 Z" />
        </g>
        <g id="Regular-S">
            <path d="M469.038,128.5 C469.038,130.73 467.23,132.538 465,132.538 C462.77,132.538 460.962,130.73 460.962,128.5 C460.962,126.27 462.77,124.462 465,124.462 C466.071,124.462 467.098,124.887 467.856,125.644 C468.613,126.402 469.038,127.429 469.038,128.5 Z M465,92.154 C457.576,92.154 451.538,97.589 451.538,104.269 L451.538,105.615 C451.538,107.102 452.744,108.308 454.231,108.308 C455.718,108.308 456.923,107.102 456.923,105.615 L456.923,104.269 C456.923,100.567 460.548,97.538 465,97.538 C469.452,97.538 473.077,100.567 473.077,104.269 C473.077,107.971 469.452,111 465,111 C464.286,111 463.601,111.284 463.096,111.789 C462.591,112.293 462.308,112.978 462.308,113.692 L462.308,116.385 C462.308,117.872 463.513,119.077 465,119.077 C466.487,119.077 467.692,117.872 467.692,116.385 L467.692,116.142 C473.831,115.015 478.462,110.118 478.462,104.269 C478.462,97.589 472.424,92.154 465,92.154 Z M500,111 C500,130.33 484.33,146 465,146 C445.67,146 430,130.33 430,111 C430,91.67 445.67,76 465,76 C484.321,76.02 499.98,91.678 500,111 Z M494.615,111 C494.615,94.644 481.356,81.385 465,81.385 C448.644,81.385 435.385,94.644 435.385,111 C435.385,127.356 448.644,140.615 465,140.615 C481.348,140.597 494.597,127.348 494.615,111 Z" />
        </g>
        <g id="Black-S">
            <path d="M669.038,128.5 C669.038,130.73 667.23,132.538 665,132.538 C662.77,132.538 660.962,130.73 660.962,128.5 C660.962,126.27 662.77,124.462 665,124.462 C666.071,124.462 667.098,124.887 667.856,125.644 C668.613,126.402 669.038,127.429 669.038,128.5 Z M665,92.154 C657.576,92.154 651.538,97.589 651.538,104.269 L651.538,105.615 C651.538,107.102 652.744,108.308 654.231,108.308 C655.718,108.308 656.923,107.102 656.923,105.615 L656.923,104.269 C656.923,100.567 660.548,97.538 665,97.538 C669.452,97.538 673.077,100.567 673.077,104.269 C673.077,107.971 669.452,111 665,111 C664.286,111 663.601,111.284 663.096,111.789 C662.591,112.293 662.308,112.978 662.308,113.692 L662.308,116.385 C662.308,117.872 663.513,119.077 665,119.077 C666.487,119.077 667.692,117.872 667.692,116.385 L667.692,116.142 C673.831,115.015 678.462,110.118 678.462,104.269 C678.462,97.589 672.424,92.154 665,92.154 Z M700,111 C700,130.33 684.33,146 665,146 C645.67,146 630,130.33 630,111 C630,91.67 645.67,76 665,76 C684.322,76.02 699.98,91.678 700,111 Z M694.615,111 C694.615,94.644 681.356,81.385 665,81.385 C648.644,81.385 635.385,94.644 635.385,111 C635.385,127.356 648.644,140.615 665,140.615 C681.348,140.597 694.597,127.348 694.615,111 Z" />
        </g>
    </g>
</svg>