<?xml version="1.0" encoding="UTF-8"?>
<svg height="600" width="800" xmlns="http://www.w3.org/2000/svg" xmlns:xlink="http://www.w3.org/1999/xlink">
    <g id="Notes" font-family="'LucidaGrande', 'Lucida Grande', sans-serif" font-size="13">
        <rect fill="white" height="600.0" width="800.0" x="0.0" y="0.0" />
        <g font-size="13">
            <text x="18.0" y="176.0">Small</text>
            <text x="18.0" y="376.0">Medium</text>
            <text x="18.0" y="576.0">Large</text>
        </g>
        <g font-size="9">
            <text x="250.0" y="30.0">Ultralight</text>
            <text x="450.0" y="30.0">Regular</text>
            <text x="650.0" y="30.0">Black</text>
            <text id="template-version" fill="#505050" text-anchor="end" x="785.0" y="575.0">Template v.3.0</text>
            <a href="https://github.com/swhitty/SwiftDraw">
                <text fill="#505050" text-anchor="end" x="785.0" y="590.0">https://github.com/swhitty/SwiftDraw</text>
            </a>
        </g>
    </g>
    <g id="Guides" stroke="rgb(39, 170, 225)" stroke-width="0.5">
        <path id="Capline-S" d="M18,76 l800,0" />
        <path id="H-reference" d="M85,145.755 L87.685,145.755 L113.369,79.287 L114.052,79.287 L114.052,76 L112.148,76 L85,145.755 Z M95.693,121.536 L130.996,121.536 L130.263,119.313 L96.474,119.313 L95.693,121.536 Z M139.15,145.755 L141.787,145.755 L114.638,76 L113.466,76 L113.466,79.287 L139.15,145.755 Z" stroke="none" />
        <path id="Baseline-S" d="M18,146 l800,0" />
        <path id="left-margin-Ultralight-S" d="M220,56 l0,110" />
        <path id="right-margin-Ultralight-S" d="M310,56 l0,110" />
        <path id="left-margin-Regular-S" d="M420,56 l0,110" />
        <path id="right-margin-Regular-S" d="M510,56 l0,110" />
        <path id="left-margin-Black-S" d="M620,56 l0,110" />
        <path id="right-margin-Black-S" d="M710,56 l0,110" />
        <path id="Capline-M" d="M18,276 l800,0" />
        <path id="Baseline-M" d="M18,346 l800,0" />
        <path id="Capline-L" d="M18,476 l800,0" />
        <path id="Baseline-L" d="M18,546 l800,0" />
    </g>
    <g id="Symbols">
        <g id="Ultralight-S">
            <path d="M297.308,84.077 L232.692,84.077 C231.264,84.077 229.895,84.644 228.885,85.654 C227.875,86.664 227.308,88.033 227.308,89.462 L227.308,132.538 C227.308,133.967 227.875,135.336 228.885,136.346 C229.895,137.356 231.264,137.923 232.692,137.923 L297.308,137.923 C298.736,137.923 300.105,137.356 301.115,136.346 C302.125,135.336 302.692,133.967 302.692,132.538 L302.692,89.462 C302.692,88.033 302.125,86.664 301.115,85.654 C300.105,84.644 298.736,84.077 297.308,84.077 Z M297.308,121.769 L294.615,121.769 C288.668,121.769 283.846,116.948 283.846,111 C283.846,105.052 288.668,100.231 294.615,100.231 L297.308,100.231 Z M232.692,100.231 L235.385,100.231 C241.332,100.231 246.154,105.052 246.154,111 C246.154,116.948 241.332,121.769 235.385,121.769 L232.692,121.769 Z M232.692,127.154 L235.385,127.154 C244.306,127.154 251.538,119.922 251.538,111 C251.538,102.078 244.306,94.846 235.385,94.846 L232.692,94.846 L232.692,89.462 L262.308,89.462 L262.308,132.538 L232.692,132.538 Z M297.308,132.538 L267.692,132.538 L267.692,89.462 L297.308,89.462 L297.308,94.846 L294.615,94.846 C285.694,94.846 278.462,102.078 278.462,111 C278.462,119.922 285.694,127.154 294.615,127.154 L297.308,127.154 L297.308,132.538 Z" />
        </g>
        <g id="Regular-S">
            <path d="M497.308,84.077 L432.692,84.077 C431.264,84.077 429.895,84.644 428.885,85.654 C427.875,86.664 427.308,88.033 427.308,89.462 L427.308,132.538 C427.308,133.967 427.875,135.336 428.885,136.346 C429.895,137.356 431.264,137.923 432.692,137.923 L497.308,137.923 C498.736,137.923 500.105,137.356 501.115,136.346 C502.125,135.336 502.692,133.967 502.692,132.538 L502.692,89.462 C502.692,88.033 502.125,86.664 501.115,85.654 C500.105,84.644 498.736,84.077 497.308,84.077 Z M497.308,121.769 L494.615,121.769 C488.668,121.769 483.846,116.948 483.846,111 C483.846,105.052 488.668,100.231 494.615,100.231 L497.308,100.231 Z M432.692,100.231 L435.385,100.231 C441.332,100.231 446.154,105.052 446.154,111 C446.154,116.948 441.332,121.769 435.385,121.769 L432.692,121.769 Z M432.692,127.154 L435.385,127.154 C444.306,127.154 451.538,119.922 451.538,111 C451.538,102.078 444.306,94.846 435.385,94.846 L432.692,94.846 L432.692,89.462 L462.308,89.462 L462.308,132.538 L432.692,132.538 Z M497.308,132.538 L467.692,132.538 L467.692,89.462 L497.308,89.462 L497.308,94.846 L494.615,94.846 C485.694,94.846 478.462,102.078 478.462,111 C478.462,119.922 485.694,127.154 494.615,127.154 L497.308,127.154 L497.308,132.538 Z" />
        </g>
        <g id="Black-S">
            <path d="M697.308,84.077 L632.692,84.077 C631.264,84.077 629.895,84.644 628.885,85.654 C627.875,86.664 627.308,88.033 627.308,89.462 L627.308,132.538 C627.308,133.967 627.875,135.336 628.885,136.346 C629.895,137.356 631.264,137.923 632.692,137.923 L697.308,137.923 C698.736,137.923 700.105,137.356 701.115,136.346 C702.125,135.336 702.692,133.967 702.692,132.538 L702.692,89.462 C702.692,88.033 702.125,86.664 701.115,85.654 C700.105,84.644 698.736,84.077 697.308,84.077 Z M697.308,121.769 L694.615,121.769 C688.668,121.769 683.846,116.948 683.846,111 C683.846,105.052 688.668,100.231 694.615,100.231 L697.308,100.231 Z M632.692,100.231 L635.385,100.231 C641.332,100.231 646.154,105.052 646.154,111 C646.154,116.948 641.332,121.769 635.385,121.769 L632.692,121.769 Z M632.692,127.154 L635.385,127.154 C644.306,127.154 651.538,119.922 651.538,111 C651.538,102.078 644.306,94.846 635.385,94.846 L632.692,94.846 L632.692,89.462 L662.308,89.462 L662.308,132.538 L632.692,132.538 Z M697.308,132.538 L667.692,132.538 L667.692,89.462 L697.308,89.462 L697.308,94.846 L694.615,94.846 C685.694,94.846 678.462,102.078 678.462,111 C678.462,119.922 685.694,127.154 694.615,127.154 L697.308,127.154 L697.308,132.538 Z" />
        </g>
    </g>
</svg>