<?xml version="1.0" encoding="UTF-8"?>
<svg height="600" width="800" xmlns="http://www.w3.org/2000/svg" xmlns:xlink="http://www.w3.org/1999/xlink">
    <g id="Notes" font-family="'LucidaGrande', 'Lucida Grande', sans-serif" font-size="13">
        <rect fill="white" height="600.0" width="800.0" x="0.0" y="0.0" />
        <g font-size="13">
            <text x="18.0" y="176.0">Small</text>
            <text x="18.0" y="376.0">Medium</text>
            <text x="18.0" y="576.0">Large</text>
        </g>
        <g font-size="9">
            <text x="250.0" y="30.0">Ultralight</text>
            <text x="450.0" y="30.0">Regular</text>
            <text x="650.0" y="30.0">Black</text>
            <text id="template-version" fill="#505050" text-anchor="end" x="785.0" y="575.0">Template v.3.0</text>
            <a href="https://github.com/swhitty/SwiftDraw">
                <text fill="#505050" text-anchor="end" x="785.0" y="590.0">https://github.com/swhitty/SwiftDraw</text>
            </a>
        </g>
    </g>
    <g id="Guides" stroke="rgb(39, 170, 225)" stroke-width="0.5">
        <path id="Capline-S" d="M18,76 l800,0" />
        <path id="H-reference" d="M85,145.755 L87.685,145.755 L113.369,79.287 L114.052,79.287 L114.052,76 L112.148,76 L85,145.755 Z M95.693,121.536 L130.996,121.536 L130.263,119.313 L96.474,119.313 L95.693,121.536 Z M139.15,145.755 L141.787,145.755 L114.638,76 L113.466,76 L113.466,79.287 L139.15,145.755 Z" stroke="none" />
        <path id="Baseline-S" d="M18,146 l800,0" />
        <path id="left-margin-Ultralight-S" d="M220,56 l0,110" />
        <path id="right-margin-Ultralight-S" d="M310,56 l0,110" />
        <path id="left-margin-Regular-S" d="M420,56 l0,110" />
        <path id="right-margin-Regular-S" d="M510,56 l0,110" />
        <path id="left-margin-Black-S" d="M620,56 l0,110" />
        <path id="right-margin-Black-S" d="M710,56 l0,110" />
        <path id="Capline-M" d="M18,276 l800,0" />
        <path id="Baseline-M" d="M18,346 l800,0" />
        <path id="Capline-L" d="M18,476 l800,0" />
        <path id="Baseline-L" d="M18,546 l800,0" />
    </g>
    <g id="Symbols">
        <g id="Ultralight-S">
            <path d="M265,76 C245.67,76 230,91.67 230,111 C230,130.33 245.67,146 265,146 C284.33,146 300,130.33 300,111 C299.979,91.677 284.32,76.02 264.999,76 Z M265,140.615 C248.644,140.615 235.385,127.356 235.385,111 C235.385,94.644 248.644,81.385 265,81.385 C281.356,81.385 294.615,94.644 294.615,111 C294.598,127.347 281.35,140.596 265.001,140.615 Z M271.058,93.776 C266.649,91.232 261.12,91.714 257.219,94.985 C253.318,98.255 251.877,103.614 253.612,108.4 C255.348,113.185 259.889,116.375 264.98,116.385 C265.191,116.385 265.403,116.385 265.616,116.364 L259.996,125.788 C259.626,126.402 259.517,127.137 259.692,127.832 C259.867,128.527 260.312,129.123 260.928,129.489 C261.542,129.859 262.278,129.968 262.973,129.793 C263.667,129.618 264.264,129.173 264.63,128.557 L275.493,110.327 C278.829,104.53 276.845,97.127 271.058,93.776 Z M270.832,107.635 L270.832,107.635 C268.974,110.854 264.858,111.958 261.639,110.101 C258.419,108.243 257.315,104.127 259.172,100.907 C261.03,97.688 265.145,96.583 268.365,98.44 C271.583,100.3 272.685,104.416 270.826,107.635 Z" />
        </g>
        <g id="Regular-S">
            <path d="M465,76 C445.67,76 430,91.67 430,111 C430,130.33 445.67,146 465,146 C484.33,146 500,130.33 500,111 C499.979,91.677 484.32,76.02 464.999,76 Z M465,140.615 C448.644,140.615 435.385,127.356 435.385,111 C435.385,94.644 448.644,81.385 465,81.385 C481.356,81.385 494.615,94.644 494.615,111 C494.598,127.347 481.35,140.596 465.001,140.615 Z M471.058,93.776 C466.649,91.232 461.12,91.714 457.219,94.985 C453.318,98.255 451.877,103.614 453.612,108.4 C455.348,113.185 459.889,116.375 464.98,116.385 C465.191,116.385 465.403,116.385 465.616,116.364 L459.996,125.788 C459.626,126.402 459.517,127.137 459.692,127.832 C459.867,128.527 460.312,129.123 460.928,129.489 C461.542,129.859 462.278,129.968 462.973,129.793 C463.667,129.618 464.264,129.173 464.63,128.557 L475.493,110.327 C478.829,104.53 476.845,97.127 471.058,93.776 Z M470.832,107.635 L470.832,107.635 C468.974,110.854 464.858,111.958 461.639,110.101 C458.419,108.243 457.315,104.127 459.172,100.907 C461.03,97.688 465.145,96.583 468.365,98.44 C471.583,100.3 472.685,104.416 470.825,107.635 Z" />
        </g>
        <g id="Black-S">
            <path d="M665,76 C645.67,76 630,91.67 630,111 C630,130.33 645.67,146 665,146 C684.33,146 700,130.33 700,111 C699.979,91.677 684.32,76.02 664.999,76 Z M665,140.615 C648.644,140.615 635.385,127.356 635.385,111 C635.385,94.644 648.644,81.385 665,81.385 C681.356,81.385 694.615,94.644 694.615,111 C694.598,127.347 681.35,140.596 665.001,140.615 Z M671.058,93.776 C666.649,91.232 661.12,91.714 657.219,94.985 C653.318,98.255 651.877,103.614 653.612,108.4 C655.348,113.185 659.889,116.375 664.98,116.385 C665.191,116.385 665.403,116.385 665.616,116.364 L659.996,125.788 C659.626,126.402 659.517,127.137 659.692,127.832 C659.867,128.527 660.312,129.123 660.928,129.489 C661.542,129.859 662.278,129.968 662.973,129.793 C663.667,129.618 664.264,129.173 664.63,128.557 L675.493,110.327 C678.829,104.53 676.845,97.127 671.058,93.776 Z M670.832,107.635 L670.832,107.635 C668.974,110.854 664.858,111.958 661.639,110.101 C658.419,108.243 657.315,104.127 659.172,100.907 C661.03,97.688 665.146,96.583 668.365,98.44 C671.583,100.3 672.685,104.416 670.826,107.635 Z" />
        </g>
    </g>
</svg>