<?xml version="1.0" encoding="UTF-8"?>
<svg height="600" width="800" xmlns="http://www.w3.org/2000/svg" xmlns:xlink="http://www.w3.org/1999/xlink">
    <g id="Notes" font-family="'LucidaGrande', 'Lucida Grande', sans-serif" font-size="13">
        <rect fill="white" height="600.0" width="800.0" x="0.0" y="0.0" />
        <g font-size="13">
            <text x="18.0" y="176.0">Small</text>
            <text x="18.0" y="376.0">Medium</text>
            <text x="18.0" y="576.0">Large</text>
        </g>
        <g font-size="9">
            <text x="250.0" y="30.0">Ultralight</text>
            <text x="450.0" y="30.0">Regular</text>
            <text x="650.0" y="30.0">Black</text>
            <text id="template-version" fill="#505050" text-anchor="end" x="785.0" y="575.0">Template v.3.0</text>
            <a href="https://github.com/swhitty/SwiftDraw">
                <text fill="#505050" text-anchor="end" x="785.0" y="590.0">https://github.com/swhitty/SwiftDraw</text>
            </a>
        </g>
    </g>
    <g id="Guides" stroke="rgb(39, 170, 225)" stroke-width="0.5">
        <path id="Capline-S" d="M18,76 l800,0" />
        <path id="H-reference" d="M85,145.755 L87.685,145.755 L113.369,79.287 L114.052,79.287 L114.052,76 L112.148,76 L85,145.755 Z M95.693,121.536 L130.996,121.536 L130.263,119.313 L96.474,119.313 L95.693,121.536 Z M139.15,145.755 L141.787,145.755 L114.638,76 L113.466,76 L113.466,79.287 L139.15,145.755 Z" stroke="none" />
        <path id="Baseline-S" d="M18,146 l800,0" />
        <path id="left-margin-Ultralight-S" d="M220,56 l0,110" />
        <path id="right-margin-Ultralight-S" d="M310,56 l0,110" />
        <path id="left-margin-Regular-S" d="M420,56 l0,110" />
        <path id="right-margin-Regular-S" d="M510,56 l0,110" />
        <path id="left-margin-Black-S" d="M620,56 l0,110" />
        <path id="right-margin-Black-S" d="M710,56 l0,110" />
        <path id="Capline-M" d="M18,276 l800,0" />
        <path id="Baseline-M" d="M18,346 l800,0" />
        <path id="Capline-L" d="M18,476 l800,0" />
        <path id="Baseline-L" d="M18,546 l800,0" />
    </g>
    <g id="Symbols">
        <g id="Ultralight-S">
            <path d="M291.136,142.52 L283.059,150.597 C282.008,151.649 280.303,151.65 279.25,150.598 C278.198,149.547 278.197,147.841 279.248,146.789 L282.732,143.308 L248.846,143.308 C246.704,143.308 244.65,142.457 243.135,140.942 C241.62,139.427 240.769,137.373 240.769,135.231 L240.769,102.923 C240.769,101.436 241.975,100.231 243.462,100.231 C244.948,100.231 246.154,101.436 246.154,102.923 L246.154,135.231 C246.154,135.945 246.438,136.63 246.942,137.135 C247.447,137.639 248.132,137.923 248.846,137.923 L282.732,137.923 L279.249,134.443 C278.197,133.39 278.198,131.684 279.25,130.633 C280.303,129.581 282.008,129.582 283.06,130.635 L291.137,138.712 C291.642,139.217 291.925,139.902 291.925,140.616 C291.925,141.33 291.641,142.015 291.136,142.52 Z M248.846,92.154 C249.936,92.155 250.918,91.499 251.336,90.492 C251.753,89.486 251.522,88.327 250.751,87.557 L247.268,84.077 L281.154,84.077 C281.868,84.077 282.553,84.361 283.058,84.865 C283.562,85.37 283.846,86.055 283.846,86.769 L283.846,119.077 C283.846,120.564 285.052,121.769 286.538,121.769 C288.025,121.769 289.231,120.564 289.231,119.077 L289.231,86.769 C289.231,84.627 288.38,82.573 286.865,81.058 C285.35,79.543 283.296,78.692 281.154,78.692 L247.268,78.692 L250.751,75.213 C251.803,74.159 251.802,72.453 250.75,71.402 C249.697,70.35 247.992,70.351 246.94,71.404 L238.863,79.481 C238.358,79.986 238.074,80.671 238.074,81.386 C238.074,82.1 238.358,82.785 238.863,83.29 L246.94,91.367 C247.446,91.872 248.132,92.155 248.846,92.154 Z" />
        </g>
        <g id="Regular-S">
            <path d="M491.136,142.52 L483.059,150.597 C482.008,151.649 480.303,151.65 479.25,150.598 C478.198,149.547 478.197,147.841 479.248,146.789 L482.732,143.308 L448.846,143.308 C446.704,143.308 444.65,142.457 443.135,140.942 C441.62,139.427 440.769,137.373 440.769,135.231 L440.769,102.923 C440.769,101.436 441.975,100.231 443.462,100.231 C444.948,100.231 446.154,101.436 446.154,102.923 L446.154,135.231 C446.154,135.945 446.438,136.63 446.942,137.135 C447.447,137.639 448.132,137.923 448.846,137.923 L482.732,137.923 L479.249,134.443 C478.197,133.39 478.198,131.684 479.25,130.633 C480.303,129.581 482.008,129.582 483.06,130.635 L491.137,138.712 C491.642,139.217 491.925,139.902 491.925,140.616 C491.925,141.33 491.641,142.015 491.136,142.52 Z M448.846,92.154 C449.936,92.155 450.918,91.499 451.336,90.492 C451.753,89.486 451.522,88.327 450.751,87.557 L447.268,84.077 L481.154,84.077 C481.868,84.077 482.553,84.361 483.058,84.865 C483.562,85.37 483.846,86.055 483.846,86.769 L483.846,119.077 C483.846,120.564 485.052,121.769 486.538,121.769 C488.025,121.769 489.231,120.564 489.231,119.077 L489.231,86.769 C489.231,84.627 488.38,82.573 486.865,81.058 C485.35,79.543 483.296,78.692 481.154,78.692 L447.268,78.692 L450.751,75.213 C451.803,74.159 451.802,72.453 450.75,71.402 C449.697,70.35 447.992,70.351 446.94,71.404 L438.863,79.481 C438.358,79.986 438.074,80.671 438.074,81.386 C438.074,82.1 438.358,82.785 438.863,83.29 L446.94,91.367 C447.446,91.872 448.132,92.155 448.846,92.154 Z" />
        </g>
        <g id="Black-S">
            <path d="M691.136,142.52 L683.059,150.597 C682.008,151.649 680.303,151.65 679.25,150.598 C678.198,149.547 678.197,147.841 679.248,146.789 L682.732,143.308 L648.846,143.308 C646.704,143.308 644.65,142.457 643.135,140.942 C641.62,139.427 640.769,137.373 640.769,135.231 L640.769,102.923 C640.769,101.436 641.975,100.231 643.462,100.231 C644.948,100.231 646.154,101.436 646.154,102.923 L646.154,135.231 C646.154,135.945 646.438,136.63 646.942,137.135 C647.447,137.639 648.132,137.923 648.846,137.923 L682.732,137.923 L679.249,134.443 C678.197,133.39 678.198,131.684 679.25,130.633 C680.303,129.581 682.008,129.582 683.06,130.635 L691.137,138.712 C691.642,139.217 691.925,139.902 691.925,140.616 C691.925,141.33 691.641,142.015 691.136,142.52 Z M648.846,92.154 C649.936,92.155 650.918,91.499 651.336,90.492 C651.753,89.486 651.522,88.327 650.751,87.557 L647.268,84.077 L681.154,84.077 C681.868,84.077 682.553,84.361 683.058,84.865 C683.562,85.37 683.846,86.055 683.846,86.769 L683.846,119.077 C683.846,120.564 685.052,121.769 686.538,121.769 C688.025,121.769 689.231,120.564 689.231,119.077 L689.231,86.769 C689.231,84.627 688.38,82.573 686.865,81.058 C685.35,79.543 683.296,78.692 681.154,78.692 L647.268,78.692 L650.751,75.213 C651.803,74.159 651.802,72.453 650.75,71.402 C649.697,70.35 647.992,70.351 646.94,71.404 L638.863,79.481 C638.358,79.986 638.074,80.671 638.074,81.386 C638.074,82.1 638.358,82.785 638.863,83.29 L646.94,91.367 C647.446,91.872 648.132,92.155 648.846,92.154 Z" />
        </g>
    </g>
</svg>