<?xml version="1.0" encoding="UTF-8"?>
<svg height="600" width="800" xmlns="http://www.w3.org/2000/svg" xmlns:xlink="http://www.w3.org/1999/xlink">
    <g id="Notes" font-family="'LucidaGrande', 'Lucida Grande', sans-serif" font-size="13">
        <rect fill="white" height="600.0" width="800.0" x="0.0" y="0.0" />
        <g font-size="13">
            <text x="18.0" y="176.0">Small</text>
            <text x="18.0" y="376.0">Medium</text>
            <text x="18.0" y="576.0">Large</text>
        </g>
        <g font-size="9">
            <text x="250.0" y="30.0">Ultralight</text>
            <text x="450.0" y="30.0">Regular</text>
            <text x="650.0" y="30.0">Black</text>
            <text id="template-version" fill="#505050" text-anchor="end" x="785.0" y="575.0">Template v.3.0</text>
            <a href="https://github.com/swhitty/SwiftDraw">
                <text fill="#505050" text-anchor="end" x="785.0" y="590.0">https://github.com/swhitty/SwiftDraw</text>
            </a>
        </g>
    </g>
    <g id="Guides" stroke="rgb(39, 170, 225)" stroke-width="0.5">
        <path id="Capline-S" d="M18,76 l800,0" />
        <path id="H-reference" d="M85,145.755 L87.685,145.755 L113.369,79.287 L114.052,79.287 L114.052,76 L112.148,76 L85,145.755 Z M95.693,121.536 L130.996,121.536 L130.263,119.313 L96.474,119.313 L95.693,121.536 Z M139.15,145.755 L141.787,145.755 L114.638,76 L113.466,76 L113.466,79.287 L139.15,145.755 Z" stroke="none" />
        <path id="Baseline-S" d="M18,146 l800,0" />
        <path id="left-margin-Ultralight-S" d="M220,56 l0,110" />
        <path id="right-margin-Ultralight-S" d="M310,56 l0,110" />
        <path id="left-margin-Regular-S" d="M420,56 l0,110" />
        <path id="right-margin-Regular-S" d="M510,56 l0,110" />
        <path id="left-margin-Black-S" d="M620,56 l0,110" />
        <path id="right-margin-Black-S" d="M710,56 l0,110" />
        <path id="Capline-M" d="M18,276 l800,0" />
        <path id="Baseline-M" d="M18,346 l800,0" />
        <path id="Capline-L" d="M18,476 l800,0" />
        <path id="Baseline-L" d="M18,546 l800,0" />
    </g>
    <g id="Symbols">
        <g id="Ultralight-S">
            <path d="M265,76 C245.67,76 230,91.67 230,111 C230,130.33 245.67,146 265,146 C284.33,146 300,130.33 300,111 C299.979,91.677 284.32,76.02 264.999,76 Z M265,140.615 C248.644,140.615 235.385,127.356 235.385,111 C235.385,94.644 248.644,81.385 265,81.385 C281.356,81.385 294.615,94.644 294.615,111 C294.598,127.347 281.35,140.596 265.001,140.615 Z M275.769,94.846 C275.055,94.846 274.37,95.13 273.865,95.635 C273.361,96.14 273.077,96.824 273.077,97.538 L273.077,106.144 L255.658,95.257 C254.828,94.738 253.782,94.711 252.926,95.185 C252.07,95.659 251.539,96.56 251.538,97.538 L251.538,124.462 C251.539,125.44 252.07,126.341 252.926,126.815 C253.782,127.289 254.828,127.262 255.658,126.743 L273.077,115.856 L273.077,124.462 C273.077,125.948 274.282,127.154 275.769,127.154 C277.256,127.154 278.462,125.948 278.462,124.462 L278.462,97.538 C278.462,96.824 278.178,96.14 277.673,95.635 C277.168,95.13 276.483,94.846 275.769,94.846 Z M256.923,119.605 L256.923,102.395 L270.691,111 Z" />
        </g>
        <g id="Regular-S">
            <path d="M465,76 C445.67,76 430,91.67 430,111 C430,130.33 445.67,146 465,146 C484.33,146 500,130.33 500,111 C499.979,91.677 484.32,76.02 464.999,76 Z M465,140.615 C448.644,140.615 435.385,127.356 435.385,111 C435.385,94.644 448.644,81.385 465,81.385 C481.356,81.385 494.615,94.644 494.615,111 C494.598,127.347 481.35,140.596 465.001,140.615 Z M475.769,94.846 C475.055,94.846 474.37,95.13 473.865,95.635 C473.361,96.14 473.077,96.824 473.077,97.538 L473.077,106.144 L455.658,95.257 C454.828,94.738 453.782,94.711 452.926,95.185 C452.07,95.659 451.539,96.56 451.538,97.538 L451.538,124.462 C451.539,125.44 452.07,126.341 452.926,126.815 C453.782,127.289 454.828,127.262 455.658,126.743 L473.077,115.856 L473.077,124.462 C473.077,125.948 474.282,127.154 475.769,127.154 C477.256,127.154 478.462,125.948 478.462,124.462 L478.462,97.538 C478.462,96.824 478.178,96.14 477.673,95.635 C477.168,95.13 476.483,94.846 475.769,94.846 Z M456.923,119.605 L456.923,102.395 L470.691,111 Z" />
        </g>
        <g id="Black-S">
            <path d="M665,76 C645.67,76 630,91.67 630,111 C630,130.33 645.67,146 665,146 C684.33,146 700,130.33 700,111 C699.979,91.677 684.32,76.02 664.999,76 Z M665,140.615 C648.644,140.615 635.385,127.356 635.385,111 C635.385,94.644 648.644,81.385 665,81.385 C681.356,81.385 694.615,94.644 694.615,111 C694.598,127.347 681.35,140.596 665.001,140.615 Z M675.769,94.846 C675.055,94.846 674.37,95.13 673.865,95.635 C673.361,96.14 673.077,96.824 673.077,97.538 L673.077,106.144 L655.658,95.257 C654.828,94.738 653.782,94.711 652.926,95.185 C652.07,95.659 651.539,96.56 651.538,97.538 L651.538,124.462 C651.539,125.44 652.07,126.341 652.926,126.815 C653.782,127.289 654.828,127.262 655.658,126.743 L673.077,115.856 L673.077,124.462 C673.077,125.948 674.282,127.154 675.769,127.154 C677.256,127.154 678.462,125.948 678.462,124.462 L678.462,97.538 C678.462,96.824 678.178,96.14 677.673,95.635 C677.168,95.13 676.483,94.846 675.769,94.846 Z M656.923,119.605 L656.923,102.395 L670.691,111 Z" />
        </g>
    </g>
</svg>