<?xml version="1.0" encoding="UTF-8"?>
<svg height="600" width="800" xmlns="http://www.w3.org/2000/svg" xmlns:xlink="http://www.w3.org/1999/xlink">
    <g id="Notes" font-family="'LucidaGrande', 'Lucida Grande', sans-serif" font-size="13">
        <rect fill="white" height="600.0" width="800.0" x="0.0" y="0.0" />
        <g font-size="13">
            <text x="18.0" y="176.0">Small</text>
            <text x="18.0" y="376.0">Medium</text>
            <text x="18.0" y="576.0">Large</text>
        </g>
        <g font-size="9">
            <text x="250.0" y="30.0">Ultralight</text>
            <text x="450.0" y="30.0">Regular</text>
            <text x="650.0" y="30.0">Black</text>
            <text id="template-version" fill="#505050" text-anchor="end" x="785.0" y="575.0">Template v.3.0</text>
            <a href="https://github.com/swhitty/SwiftDraw">
                <text fill="#505050" text-anchor="end" x="785.0" y="590.0">https://github.com/swhitty/SwiftDraw</text>
            </a>
        </g>
    </g>
    <g id="Guides" stroke="rgb(39, 170, 225)" stroke-width="0.5">
        <path id="Capline-S" d="M18,76 l800,0" />
        <path id="H-reference" d="M85,145.755 L87.685,145.755 L113.369,79.287 L114.052,79.287 L114.052,76 L112.148,76 L85,145.755 Z M95.693,121.536 L130.996,121.536 L130.263,119.313 L96.474,119.313 L95.693,121.536 Z M139.15,145.755 L141.787,145.755 L114.638,76 L113.466,76 L113.466,79.287 L139.15,145.755 Z" stroke="none" />
        <path id="Baseline-S" d="M18,146 l800,0" />
        <path id="left-margin-Ultralight-S" d="M220,56 l0,110" />
        <path id="right-margin-Ultralight-S" d="M310,56 l0,110" />
        <path id="left-margin-Regular-S" d="M420,56 l0,110" />
        <path id="right-margin-Regular-S" d="M510,56 l0,110" />
        <path id="left-margin-Black-S" d="M620,56 l0,110" />
        <path id="right-margin-Black-S" d="M710,56 l0,110" />
        <path id="Capline-M" d="M18,276 l800,0" />
        <path id="Baseline-M" d="M18,346 l800,0" />
        <path id="Capline-L" d="M18,476 l800,0" />
        <path id="Baseline-L" d="M18,546 l800,0" />
    </g>
    <g id="Symbols">
        <g id="Ultralight-S">
            <path d="M297.308,105.615 L289.231,105.615 C287.744,105.615 286.538,106.821 286.538,108.308 C286.538,109.795 287.744,111 289.231,111 L294.494,111 C293.175,125.219 281.912,136.481 267.692,137.799 L267.692,99.894 C272.943,98.538 276.367,93.49 275.683,88.11 C275,82.73 270.423,78.698 265,78.698 C259.577,78.698 255,82.73 254.317,88.11 C253.633,93.49 257.057,98.538 262.308,99.894 L262.308,137.799 C248.088,136.481 236.825,125.219 235.506,111 L240.769,111 C242.256,111 243.462,109.795 243.462,108.308 C243.462,106.821 242.256,105.615 240.769,105.615 L232.692,105.615 C231.978,105.615 231.293,105.899 230.789,106.404 C230.284,106.909 230,107.594 230,108.308 C230,127.638 245.67,143.308 265,143.308 C284.33,143.308 300,127.638 300,108.308 C300,106.821 298.795,105.615 297.308,105.615 Z M259.615,89.462 C259.615,86.488 262.026,84.077 265,84.077 C267.974,84.077 270.385,86.488 270.385,89.462 C270.385,92.435 267.974,94.846 265,94.846 C263.572,94.846 262.202,94.279 261.193,93.269 C260.183,92.259 259.615,90.89 259.615,89.462 Z" />
        </g>
        <g id="Regular-S">
            <path d="M497.308,105.615 L489.231,105.615 C487.744,105.615 486.538,106.821 486.538,108.308 C486.538,109.795 487.744,111 489.231,111 L494.494,111 C493.175,125.219 481.912,136.481 467.692,137.799 L467.692,99.894 C472.943,98.538 476.367,93.49 475.683,88.11 C475,82.73 470.423,78.698 465,78.698 C459.577,78.698 455,82.73 454.317,88.11 C453.633,93.49 457.057,98.538 462.308,99.894 L462.308,137.799 C448.088,136.481 436.825,125.219 435.506,111 L440.769,111 C442.256,111 443.462,109.795 443.462,108.308 C443.462,106.821 442.256,105.615 440.769,105.615 L432.692,105.615 C431.978,105.615 431.293,105.899 430.789,106.404 C430.284,106.909 430,107.594 430,108.308 C430,127.638 445.67,143.308 465,143.308 C484.33,143.308 500,127.638 500,108.308 C500,106.821 498.795,105.615 497.308,105.615 Z M459.615,89.462 C459.615,86.488 462.026,84.077 465,84.077 C467.974,84.077 470.385,86.488 470.385,89.462 C470.385,92.435 467.974,94.846 465,94.846 C463.572,94.846 462.202,94.279 461.193,93.269 C460.183,92.259 459.615,90.89 459.615,89.462 Z" />
        </g>
        <g id="Black-S">
            <path d="M697.308,105.615 L689.231,105.615 C687.744,105.615 686.538,106.821 686.538,108.308 C686.538,109.795 687.744,111 689.231,111 L694.494,111 C693.175,125.219 681.912,136.481 667.692,137.799 L667.692,99.894 C672.943,98.538 676.367,93.49 675.683,88.11 C675,82.73 670.423,78.698 665,78.698 C659.577,78.698 655,82.73 654.317,88.11 C653.633,93.49 657.057,98.538 662.308,99.894 L662.308,137.799 C648.088,136.481 636.825,125.219 635.506,111 L640.769,111 C642.256,111 643.462,109.795 643.462,108.308 C643.462,106.821 642.256,105.615 640.769,105.615 L632.692,105.615 C631.978,105.615 631.293,105.899 630.789,106.404 C630.284,106.909 630,107.594 630,108.308 C630,127.638 645.67,143.308 665,143.308 C684.33,143.308 700,127.638 700,108.308 C700,106.821 698.795,105.615 697.308,105.615 Z M659.615,89.462 C659.615,86.488 662.026,84.077 665,84.077 C667.974,84.077 670.385,86.488 670.385,89.462 C670.385,92.435 667.974,94.846 665,94.846 C663.572,94.846 662.202,94.279 661.193,93.269 C660.183,92.259 659.615,90.89 659.615,89.462 Z" />
        </g>
    </g>
</svg>