<?xml version="1.0" encoding="UTF-8"?>
<svg height="600" width="800" xmlns="http://www.w3.org/2000/svg" xmlns:xlink="http://www.w3.org/1999/xlink">
    <g id="Notes" font-family="'LucidaGrande', 'Lucida Grande', sans-serif" font-size="13">
        <rect fill="white" height="600.0" width="800.0" x="0.0" y="0.0" />
        <g font-size="13">
            <text x="18.0" y="176.0">Small</text>
            <text x="18.0" y="376.0">Medium</text>
            <text x="18.0" y="576.0">Large</text>
        </g>
        <g font-size="9">
            <text x="250.0" y="30.0">Ultralight</text>
            <text x="450.0" y="30.0">Regular</text>
            <text x="650.0" y="30.0">Black</text>
            <text id="template-version" fill="#505050" text-anchor="end" x="785.0" y="575.0">Template v.3.0</text>
            <a href="https://github.com/swhitty/SwiftDraw">
                <text fill="#505050" text-anchor="end" x="785.0" y="590.0">https://github.com/swhitty/SwiftDraw</text>
            </a>
        </g>
    </g>
    <g id="Guides" stroke="rgb(39, 170, 225)" stroke-width="0.5">
        <path id="Capline-S" d="M18,76 l800,0" />
        <path id="H-reference" d="M85,145.755 L87.685,145.755 L113.369,79.287 L114.052,79.287 L114.052,76 L112.148,76 L85,145.755 Z M95.693,121.536 L130.996,121.536 L130.263,119.313 L96.474,119.313 L95.693,121.536 Z M139.15,145.755 L141.787,145.755 L114.638,76 L113.466,76 L113.466,79.287 L139.15,145.755 Z" stroke="none" />
        <path id="Baseline-S" d="M18,146 l800,0" />
        <path id="left-margin-Ultralight-S" d="M220,56 l0,110" />
        <path id="right-margin-Ultralight-S" d="M310,56 l0,110" />
        <path id="left-margin-Regular-S" d="M420,56 l0,110" />
        <path id="right-margin-Regular-S" d="M510,56 l0,110" />
        <path id="left-margin-Black-S" d="M620,56 l0,110" />
        <path id="right-margin-Black-S" d="M710,56 l0,110" />
        <path id="Capline-M" d="M18,276 l800,0" />
        <path id="Baseline-M" d="M18,346 l800,0" />
        <path id="Capline-L" d="M18,476 l800,0" />
        <path id="Baseline-L" d="M18,546 l800,0" />
    </g>
    <g id="Symbols">
        <g id="Ultralight-S">
            <path d="M299.377,107.332 L292.68,81.721 C292.243,80.014 290.744,78.791 288.983,78.705 C287.223,78.619 285.612,79.691 285.011,81.348 L279.061,97.538 L250.939,97.538 L244.989,81.341 C244.387,79.684 242.775,78.614 241.014,78.701 C239.254,78.789 237.756,80.013 237.32,81.721 L230.623,107.332 C228.598,115.048 231.543,123.213 238.026,127.861 L262.685,145.28 C264.071,146.259 265.923,146.259 267.309,145.28 L291.967,127.861 C298.453,123.215 301.401,115.049 299.377,107.332 Z M288.864,123.452 L265,140.309 L241.136,123.452 C236.484,120.107 234.376,114.239 235.836,108.698 L241.442,87.274 L246.534,101.16 C246.924,102.219 247.933,102.923 249.062,102.923 L280.938,102.923 C282.067,102.923 283.076,102.219 283.466,101.16 L288.558,87.274 L294.154,108.695 C295.618,114.235 293.514,120.104 288.864,123.452 Z" />
        </g>
        <g id="Regular-S">
            <path d="M499.377,107.332 L492.68,81.721 C492.243,80.014 490.744,78.791 488.983,78.705 C487.223,78.619 485.612,79.691 485.011,81.348 L479.061,97.538 L450.939,97.538 L444.989,81.341 C444.387,79.684 442.775,78.614 441.014,78.701 C439.254,78.789 437.755,80.013 437.32,81.721 L430.623,107.332 C428.598,115.048 431.543,123.213 438.026,127.861 L462.685,145.28 C464.071,146.259 465.923,146.259 467.309,145.28 L491.967,127.861 C498.453,123.215 501.401,115.049 499.377,107.332 Z M488.864,123.452 L465,140.309 L441.136,123.452 C436.484,120.107 434.376,114.239 435.836,108.698 L441.442,87.274 L446.534,101.16 C446.924,102.219 447.933,102.923 449.062,102.923 L480.938,102.923 C482.067,102.923 483.076,102.219 483.466,101.16 L488.558,87.274 L494.154,108.695 C495.618,114.235 493.514,120.104 488.864,123.452 Z" />
        </g>
        <g id="Black-S">
            <path d="M699.377,107.332 L692.68,81.721 C692.243,80.014 690.744,78.791 688.983,78.705 C687.223,78.619 685.612,79.691 685.011,81.348 L679.061,97.538 L650.939,97.538 L644.989,81.341 C644.387,79.684 642.775,78.614 641.014,78.701 C639.254,78.789 637.755,80.013 637.32,81.721 L630.623,107.332 C628.598,115.048 631.543,123.213 638.026,127.861 L662.685,145.28 C664.071,146.259 665.923,146.259 667.309,145.28 L691.967,127.861 C698.453,123.215 701.401,115.049 699.377,107.332 Z M688.864,123.452 L665,140.309 L641.136,123.452 C636.484,120.107 634.376,114.239 635.836,108.698 L641.442,87.274 L646.534,101.16 C646.924,102.219 647.933,102.923 649.062,102.923 L680.938,102.923 C682.067,102.923 683.076,102.219 683.466,101.16 L688.558,87.274 L694.154,108.695 C695.618,114.235 693.514,120.104 688.864,123.452 Z" />
        </g>
    </g>
</svg>