<?xml version="1.0" encoding="UTF-8"?>
<svg height="600" width="800" xmlns="http://www.w3.org/2000/svg" xmlns:xlink="http://www.w3.org/1999/xlink">
    <g id="Notes" font-family="'LucidaGrande', 'Lucida Grande', sans-serif" font-size="13">
        <rect fill="white" height="600.0" width="800.0" x="0.0" y="0.0" />
        <g font-size="13">
            <text x="18.0" y="176.0">Small</text>
            <text x="18.0" y="376.0">Medium</text>
            <text x="18.0" y="576.0">Large</text>
        </g>
        <g font-size="9">
            <text x="250.0" y="30.0">Ultralight</text>
            <text x="450.0" y="30.0">Regular</text>
            <text x="650.0" y="30.0">Black</text>
            <text id="template-version" fill="#505050" text-anchor="end" x="785.0" y="575.0">Template v.3.0</text>
            <a href="https://github.com/swhitty/SwiftDraw">
                <text fill="#505050" text-anchor="end" x="785.0" y="590.0">https://github.com/swhitty/SwiftDraw</text>
            </a>
        </g>
    </g>
    <g id="Guides" stroke="rgb(39, 170, 225)" stroke-width="0.5">
        <path id="Capline-S" d="M18,76 l800,0" />
        <path id="H-reference" d="M85,145.755 L87.685,145.755 L113.369,79.287 L114.052,79.287 L114.052,76 L112.148,76 L85,145.755 Z M95.693,121.536 L130.996,121.536 L130.263,119.313 L96.474,119.313 L95.693,121.536 Z M139.15,145.755 L141.787,145.755 L114.638,76 L113.466,76 L113.466,79.287 L139.15,145.755 Z" stroke="none" />
        <path id="Baseline-S" d="M18,146 l800,0" />
        <path id="left-margin-Ultralight-S" d="M220,56 l0,110" />
        <path id="right-margin-Ultralight-S" d="M310,56 l0,110" />
        <path id="left-margin-Regular-S" d="M420,56 l0,110" />
        <path id="right-margin-Regular-S" d="M510,56 l0,110" />
        <path id="left-margin-Black-S" d="M620,56 l0,110" />
        <path id="right-margin-Black-S" d="M710,56 l0,110" />
        <path id="Capline-M" d="M18,276 l800,0" />
        <path id="Baseline-M" d="M18,346 l800,0" />
        <path id="Capline-L" d="M18,476 l800,0" />
        <path id="Baseline-L" d="M18,546 l800,0" />
    </g>
    <g id="Symbols">
        <g id="Ultralight-S">
            <path d="M267.692,108.308 L267.692,140.615 C267.692,142.102 266.487,143.308 265,143.308 C263.513,143.308 262.308,142.102 262.308,140.615 L262.308,108.308 C262.308,106.821 263.513,105.615 265,105.615 C266.487,105.615 267.692,106.821 267.692,108.308 Z M289.231,132.538 C288.517,132.538 287.832,132.822 287.327,133.327 C286.822,133.832 286.538,134.517 286.538,135.231 L286.538,140.615 C286.538,142.102 287.744,143.308 289.231,143.308 C290.718,143.308 291.923,142.102 291.923,140.615 L291.923,135.231 C291.923,134.517 291.639,133.832 291.135,133.327 C290.63,132.822 289.945,132.538 289.231,132.538 Z M297.308,121.769 L291.923,121.769 L291.923,81.385 C291.923,79.898 290.718,78.692 289.231,78.692 C287.744,78.692 286.538,79.898 286.538,81.385 L286.538,121.769 L281.154,121.769 C279.667,121.769 278.462,122.975 278.462,124.462 C278.462,125.948 279.667,127.154 281.154,127.154 L297.308,127.154 C298.795,127.154 300,125.948 300,124.462 C300,122.975 298.795,121.769 297.308,121.769 Z M240.769,121.769 C240.055,121.769 239.37,122.053 238.865,122.558 C238.361,123.063 238.077,123.747 238.077,124.462 L238.077,140.615 C238.077,142.102 239.282,143.308 240.769,143.308 C242.256,143.308 243.462,142.102 243.462,140.615 L243.462,124.462 C243.462,123.747 243.178,123.063 242.673,122.558 C242.168,122.053 241.483,121.769 240.769,121.769 Z M248.846,111 L243.462,111 L243.462,81.385 C243.462,79.898 242.256,78.692 240.769,78.692 C239.282,78.692 238.077,79.898 238.077,81.385 L238.077,111 L232.692,111 C231.205,111 230,112.205 230,113.692 C230,115.179 231.205,116.385 232.692,116.385 L248.846,116.385 C250.333,116.385 251.538,115.179 251.538,113.692 C251.538,112.205 250.333,111 248.846,111 Z M273.077,94.846 L267.692,94.846 L267.692,81.385 C267.692,79.898 266.487,78.692 265,78.692 C263.513,78.692 262.308,79.898 262.308,81.385 L262.308,94.846 L256.923,94.846 C255.436,94.846 254.231,96.052 254.231,97.538 C254.231,99.025 255.436,100.231 256.923,100.231 L273.077,100.231 C274.564,100.231 275.769,99.025 275.769,97.538 C275.769,96.052 274.564,94.846 273.077,94.846 Z" />
        </g>
        <g id="Regular-S">
            <path d="M467.692,108.308 L467.692,140.615 C467.692,142.102 466.487,143.308 465,143.308 C463.513,143.308 462.308,142.102 462.308,140.615 L462.308,108.308 C462.308,106.821 463.513,105.615 465,105.615 C466.487,105.615 467.692,106.821 467.692,108.308 Z M489.231,132.538 C488.517,132.538 487.832,132.822 487.327,133.327 C486.822,133.832 486.538,134.517 486.538,135.231 L486.538,140.615 C486.538,142.102 487.744,143.308 489.231,143.308 C490.718,143.308 491.923,142.102 491.923,140.615 L491.923,135.231 C491.923,134.517 491.639,133.832 491.135,133.327 C490.63,132.822 489.945,132.538 489.231,132.538 Z M497.308,121.769 L491.923,121.769 L491.923,81.385 C491.923,79.898 490.718,78.692 489.231,78.692 C487.744,78.692 486.538,79.898 486.538,81.385 L486.538,121.769 L481.154,121.769 C479.667,121.769 478.462,122.975 478.462,124.462 C478.462,125.948 479.667,127.154 481.154,127.154 L497.308,127.154 C498.795,127.154 500,125.948 500,124.462 C500,122.975 498.795,121.769 497.308,121.769 Z M440.769,121.769 C440.055,121.769 439.37,122.053 438.865,122.558 C438.361,123.063 438.077,123.747 438.077,124.462 L438.077,140.615 C438.077,142.102 439.282,143.308 440.769,143.308 C442.256,143.308 443.462,142.102 443.462,140.615 L443.462,124.462 C443.462,123.747 443.178,123.063 442.673,122.558 C442.168,122.053 441.483,121.769 440.769,121.769 Z M448.846,111 L443.462,111 L443.462,81.385 C443.462,79.898 442.256,78.692 440.769,78.692 C439.282,78.692 438.077,79.898 438.077,81.385 L438.077,111 L432.692,111 C431.205,111 430,112.205 430,113.692 C430,115.179 431.205,116.385 432.692,116.385 L448.846,116.385 C450.333,116.385 451.538,115.179 451.538,113.692 C451.538,112.205 450.333,111 448.846,111 Z M473.077,94.846 L467.692,94.846 L467.692,81.385 C467.692,79.898 466.487,78.692 465,78.692 C463.513,78.692 462.308,79.898 462.308,81.385 L462.308,94.846 L456.923,94.846 C455.436,94.846 454.231,96.052 454.231,97.538 C454.231,99.025 455.436,100.231 456.923,100.231 L473.077,100.231 C474.564,100.231 475.769,99.025 475.769,97.538 C475.769,96.052 474.564,94.846 473.077,94.846 Z" />
        </g>
        <g id="Black-S">
            <path d="M667.692,108.308 L667.692,140.615 C667.692,142.102 666.487,143.308 665,143.308 C663.513,143.308 662.308,142.102 662.308,140.615 L662.308,108.308 C662.308,106.821 663.513,105.615 665,105.615 C666.487,105.615 667.692,106.821 667.692,108.308 Z M689.231,132.538 C688.517,132.538 687.832,132.822 687.327,133.327 C686.822,133.832 686.538,134.517 686.538,135.231 L686.538,140.615 C686.538,142.102 687.744,143.308 689.231,143.308 C690.718,143.308 691.923,142.102 691.923,140.615 L691.923,135.231 C691.923,134.517 691.639,133.832 691.135,133.327 C690.63,132.822 689.945,132.538 689.231,132.538 Z M697.308,121.769 L691.923,121.769 L691.923,81.385 C691.923,79.898 690.718,78.692 689.231,78.692 C687.744,78.692 686.538,79.898 686.538,81.385 L686.538,121.769 L681.154,121.769 C679.667,121.769 678.462,122.975 678.462,124.462 C678.462,125.948 679.667,127.154 681.154,127.154 L697.308,127.154 C698.795,127.154 700,125.948 700,124.462 C700,122.975 698.795,121.769 697.308,121.769 Z M640.769,121.769 C640.055,121.769 639.37,122.053 638.865,122.558 C638.361,123.063 638.077,123.747 638.077,124.462 L638.077,140.615 C638.077,142.102 639.282,143.308 640.769,143.308 C642.256,143.308 643.462,142.102 643.462,140.615 L643.462,124.462 C643.462,123.747 643.178,123.063 642.673,122.558 C642.168,122.053 641.483,121.769 640.769,121.769 Z M648.846,111 L643.462,111 L643.462,81.385 C643.462,79.898 642.256,78.692 640.769,78.692 C639.282,78.692 638.077,79.898 638.077,81.385 L638.077,111 L632.692,111 C631.205,111 630,112.205 630,113.692 C630,115.179 631.205,116.385 632.692,116.385 L648.846,116.385 C650.333,116.385 651.538,115.179 651.538,113.692 C651.538,112.205 650.333,111 648.846,111 Z M673.077,94.846 L667.692,94.846 L667.692,81.385 C667.692,79.898 666.487,78.692 665,78.692 C663.513,78.692 662.308,79.898 662.308,81.385 L662.308,94.846 L656.923,94.846 C655.436,94.846 654.231,96.052 654.231,97.538 C654.231,99.025 655.436,100.231 656.923,100.231 L673.077,100.231 C674.564,100.231 675.769,99.025 675.769,97.538 C675.769,96.052 674.564,94.846 673.077,94.846 Z" />
        </g>
    </g>
</svg>