<?xml version="1.0" encoding="UTF-8"?>
<svg height="600" width="800" xmlns="http://www.w3.org/2000/svg" xmlns:xlink="http://www.w3.org/1999/xlink">
    <g id="Notes" font-family="'LucidaGrande', 'Lucida Grande', sans-serif" font-size="13">
        <rect fill="white" height="600.0" width="800.0" x="0.0" y="0.0" />
        <g font-size="13">
            <text x="18.0" y="176.0">Small</text>
            <text x="18.0" y="376.0">Medium</text>
            <text x="18.0" y="576.0">Large</text>
        </g>
        <g font-size="9">
            <text x="250.0" y="30.0">Ultralight</text>
            <text x="450.0" y="30.0">Regular</text>
            <text x="650.0" y="30.0">Black</text>
            <text id="template-version" fill="#505050" text-anchor="end" x="785.0" y="575.0">Template v.3.0</text>
            <a href="https://github.com/swhitty/SwiftDraw">
                <text fill="#505050" text-anchor="end" x="785.0" y="590.0">https://github.com/swhitty/SwiftDraw</text>
            </a>
        </g>
    </g>
    <g id="Guides" stroke="rgb(39, 170, 225)" stroke-width="0.5">
        <path id="Capline-S" d="M18,76 l800,0" />
        <path id="H-reference" d="M85,145.755 L87.685,145.755 L113.369,79.287 L114.052,79.287 L114.052,76 L112.148,76 L85,145.755 Z M95.693,121.536 L130.996,121.536 L130.263,119.313 L96.474,119.313 L95.693,121.536 Z M139.15,145.755 L141.787,145.755 L114.638,76 L113.466,76 L113.466,79.287 L139.15,145.755 Z" stroke="none" />
        <path id="Baseline-S" d="M18,146 l800,0" />
        <path id="left-margin-Ultralight-S" d="M220,56 l0,110" />
        <path id="right-margin-Ultralight-S" d="M310,56 l0,110" />
        <path id="left-margin-Regular-S" d="M420,56 l0,110" />
        <path id="right-margin-Regular-S" d="M510,56 l0,110" />
        <path id="left-margin-Black-S" d="M620,56 l0,110" />
        <path id="right-margin-Black-S" d="M710,56 l0,110" />
        <path id="Capline-M" d="M18,276 l800,0" />
        <path id="Baseline-M" d="M18,346 l800,0" />
        <path id="Capline-L" d="M18,476 l800,0" />
        <path id="Baseline-L" d="M18,546 l800,0" />
    </g>
    <g id="Symbols">
        <g id="Ultralight-S">
            <path d="M300,78.692 C300,77.978 299.716,77.293 299.211,76.789 C298.707,76.284 298.022,76 297.308,76 C282.473,76 267.251,92.729 258.798,103.808 C252.675,101.933 246.026,103.073 240.878,106.881 C235.729,110.688 232.692,116.712 232.692,123.115 C232.692,133.508 226.116,138.169 225.803,138.384 C224.823,139.046 224.39,140.271 224.735,141.402 C225.081,142.533 226.125,143.307 227.308,143.308 L252.885,143.308 C259.288,143.308 265.312,140.271 269.119,135.122 C272.927,129.974 274.067,123.325 272.192,117.202 C283.274,108.749 300,93.527 300,78.692 Z M252.885,137.923 L233.577,137.923 C235.849,134.696 238.077,129.819 238.077,123.115 C238.077,114.937 244.707,108.308 252.885,108.308 C261.063,108.308 267.692,114.937 267.692,123.115 C267.692,131.293 261.063,137.923 252.885,137.923 Z M263.795,106.137 C264.948,104.643 266.08,104.643 267.191,101.913 C269.909,103.75 272.25,106.091 274.087,108.809 C272.763,109.917 271.355,109.917 269.863,112.205 C268.294,109.774 266.226,107.706 263.795,106.137 Z M278.165,105.235 C276.133,102.367 273.63,99.864 270.762,97.831 C281.457,86.211 289.524,82.687 294.286,81.708 C293.326,86.473 289.786,94.54 278.165,105.235 Z" />
        </g>
        <g id="Regular-S">
            <path d="M500,78.692 C500,77.978 499.716,77.293 499.211,76.789 C498.707,76.284 498.022,76 497.308,76 C482.473,76 467.251,92.729 458.798,103.808 C452.675,101.933 446.026,103.073 440.878,106.881 C435.729,110.688 432.692,116.712 432.692,123.115 C432.692,133.508 426.116,138.169 425.803,138.384 C424.823,139.046 424.39,140.271 424.735,141.402 C425.081,142.533 426.125,143.307 427.308,143.308 L452.885,143.308 C459.288,143.308 465.312,140.271 469.119,135.122 C472.927,129.974 474.067,123.325 472.192,117.202 C483.274,108.749 500,93.527 500,78.692 Z M452.885,137.923 L433.577,137.923 C435.849,134.696 438.077,129.819 438.077,123.115 C438.077,114.937 444.707,108.308 452.885,108.308 C461.063,108.308 467.692,114.937 467.692,123.115 C467.692,131.293 461.063,137.923 452.885,137.923 Z M463.795,106.137 C464.948,104.643 466.08,104.643 467.191,101.913 C469.909,103.75 472.25,106.091 474.087,108.809 C472.763,109.917 471.355,109.917 469.863,112.205 C468.294,109.774 466.226,107.706 463.795,106.137 Z M478.165,105.235 C476.133,102.367 473.63,99.864 470.762,97.831 C481.457,86.211 489.524,82.687 494.286,81.708 C493.326,86.473 489.786,94.54 478.165,105.235 Z" />
        </g>
        <g id="Black-S">
            <path d="M700,78.692 C700,77.978 699.716,77.293 699.211,76.789 C698.707,76.284 698.022,76 697.308,76 C682.473,76 667.251,92.729 658.798,103.808 C652.675,101.933 646.026,103.073 640.878,106.881 C635.729,110.688 632.692,116.712 632.692,123.115 C632.692,133.508 626.116,138.169 625.803,138.384 C624.823,139.046 624.39,140.271 624.735,141.402 C625.081,142.533 626.125,143.307 627.308,143.308 L652.885,143.308 C659.288,143.308 665.312,140.271 669.119,135.122 C672.927,129.974 674.067,123.325 672.192,117.202 C683.274,108.749 700,93.527 700,78.692 Z M652.885,137.923 L633.577,137.923 C635.849,134.696 638.077,129.819 638.077,123.115 C638.077,114.937 644.707,108.308 652.885,108.308 C661.063,108.308 667.692,114.937 667.692,123.115 C667.692,131.293 661.063,137.923 652.885,137.923 Z M663.795,106.137 C664.948,104.643 666.08,104.643 667.191,101.913 C669.909,103.75 672.25,106.091 674.087,108.809 C672.763,109.917 671.355,109.917 669.863,112.205 C668.294,109.774 666.226,107.706 663.795,106.137 Z M678.165,105.235 C676.133,102.367 673.63,99.864 670.762,97.831 C681.457,86.211 689.524,82.687 694.286,81.708 C693.326,86.473 689.786,94.54 678.165,105.235 Z" />
        </g>
    </g>
</svg>