<?xml version="1.0" encoding="UTF-8"?>
<svg height="600" width="800" xmlns="http://www.w3.org/2000/svg" xmlns:xlink="http://www.w3.org/1999/xlink">
    <g id="Notes" font-family="'LucidaGrande', 'Lucida Grande', sans-serif" font-size="13">
        <rect fill="white" height="600.0" width="800.0" x="0.0" y="0.0" />
        <g font-size="13">
            <text x="18.0" y="176.0">Small</text>
            <text x="18.0" y="376.0">Medium</text>
            <text x="18.0" y="576.0">Large</text>
        </g>
        <g font-size="9">
            <text x="250.0" y="30.0">Ultralight</text>
            <text x="450.0" y="30.0">Regular</text>
            <text x="650.0" y="30.0">Black</text>
            <text id="template-version" fill="#505050" text-anchor="end" x="785.0" y="575.0">Template v.3.0</text>
            <a href="https://github.com/swhitty/SwiftDraw">
                <text fill="#505050" text-anchor="end" x="785.0" y="590.0">https://github.com/swhitty/SwiftDraw</text>
            </a>
        </g>
    </g>
    <g id="Guides" stroke="rgb(39, 170, 225)" stroke-width="0.5">
        <path id="Capline-S" d="M18,76 l800,0" />
        <path id="H-reference" d="M85,145.755 L87.685,145.755 L113.369,79.287 L114.052,79.287 L114.052,76 L112.148,76 L85,145.755 Z M95.693,121.536 L130.996,121.536 L130.263,119.313 L96.474,119.313 L95.693,121.536 Z M139.15,145.755 L141.787,145.755 L114.638,76 L113.466,76 L113.466,79.287 L139.15,145.755 Z" stroke="none" />
        <path id="Baseline-S" d="M18,146 l800,0" />
        <path id="left-margin-Ultralight-S" d="M220,56 l0,110" />
        <path id="right-margin-Ultralight-S" d="M310,56 l0,110" />
        <path id="left-margin-Regular-S" d="M420,56 l0,110" />
        <path id="right-margin-Regular-S" d="M510,56 l0,110" />
        <path id="left-margin-Black-S" d="M620,56 l0,110" />
        <path id="right-margin-Black-S" d="M710,56 l0,110" />
        <path id="Capline-M" d="M18,276 l800,0" />
        <path id="Baseline-M" d="M18,346 l800,0" />
        <path id="Capline-L" d="M18,476 l800,0" />
        <path id="Baseline-L" d="M18,546 l800,0" />
    </g>
    <g id="Symbols">
        <g id="Ultralight-S">
            <path d="M289.231,76 L240.769,76 C239.341,76 237.972,76.567 236.962,77.577 C235.952,78.587 235.385,79.957 235.385,81.385 L235.385,140.615 C235.385,142.043 235.952,143.413 236.962,144.423 C237.972,145.433 239.341,146 240.769,146 L289.231,146 C290.659,146 292.028,145.433 293.038,144.423 C294.048,143.413 294.615,142.043 294.615,140.615 L294.615,81.385 C294.615,79.957 294.048,78.587 293.038,77.577 C292.028,76.567 290.659,76 289.231,76 Z M289.231,140.615 L240.769,140.615 L240.769,81.385 L289.231,81.385 L289.231,140.615 Z M254.231,93.5 C254.231,95.73 252.423,97.538 250.192,97.538 C247.962,97.538 246.154,95.73 246.154,93.5 C246.154,91.27 247.962,89.462 250.192,89.462 C251.263,89.462 252.291,89.887 253.048,90.644 C253.805,91.402 254.231,92.429 254.231,93.5 Z M254.231,128.5 C254.231,130.73 252.423,132.538 250.192,132.538 C247.962,132.538 246.154,130.73 246.154,128.5 C246.154,126.27 247.962,124.462 250.192,124.462 C251.263,124.462 252.291,124.887 253.048,125.644 C253.805,126.402 254.231,127.429 254.231,128.5 Z M254.231,111 C254.231,113.23 252.423,115.038 250.192,115.038 C247.962,115.038 246.154,113.23 246.154,111 C246.154,108.77 247.962,106.962 250.192,106.962 C251.263,106.962 252.291,107.387 253.048,108.144 C253.805,108.902 254.231,109.929 254.231,111 Z" />
        </g>
        <g id="Regular-S">
            <path d="M489.231,76 L440.769,76 C439.341,76 437.972,76.567 436.962,77.577 C435.952,78.587 435.385,79.957 435.385,81.385 L435.385,140.615 C435.385,142.043 435.952,143.413 436.962,144.423 C437.972,145.433 439.341,146 440.769,146 L489.231,146 C490.659,146 492.028,145.433 493.038,144.423 C494.048,143.413 494.615,142.043 494.615,140.615 L494.615,81.385 C494.615,79.957 494.048,78.587 493.038,77.577 C492.028,76.567 490.659,76 489.231,76 Z M489.231,140.615 L440.769,140.615 L440.769,81.385 L489.231,81.385 L489.231,140.615 Z M454.231,93.5 C454.231,95.73 452.423,97.538 450.192,97.538 C447.962,97.538 446.154,95.73 446.154,93.5 C446.154,91.27 447.962,89.462 450.192,89.462 C451.263,89.462 452.291,89.887 453.048,90.644 C453.805,91.402 454.231,92.429 454.231,93.5 Z M454.231,128.5 C454.231,130.73 452.423,132.538 450.192,132.538 C447.962,132.538 446.154,130.73 446.154,128.5 C446.154,126.27 447.962,124.462 450.192,124.462 C451.263,124.462 452.291,124.887 453.048,125.644 C453.805,126.402 454.231,127.429 454.231,128.5 Z M454.231,111 C454.231,113.23 452.423,115.038 450.192,115.038 C447.962,115.038 446.154,113.23 446.154,111 C446.154,108.77 447.962,106.962 450.192,106.962 C451.263,106.962 452.291,107.387 453.048,108.144 C453.805,108.902 454.231,109.929 454.231,111 Z" />
        </g>
        <g id="Black-S">
            <path d="M689.231,76 L640.769,76 C639.341,76 637.972,76.567 636.962,77.577 C635.952,78.587 635.385,79.957 635.385,81.385 L635.385,140.615 C635.385,142.043 635.952,143.413 636.962,144.423 C637.972,145.433 639.341,146 640.769,146 L689.231,146 C690.659,146 692.028,145.433 693.038,144.423 C694.048,143.413 694.615,142.043 694.615,140.615 L694.615,81.385 C694.615,79.957 694.048,78.587 693.038,77.577 C692.028,76.567 690.659,76 689.231,76 Z M689.231,140.615 L640.769,140.615 L640.769,81.385 L689.231,81.385 L689.231,140.615 Z M654.231,93.5 C654.231,95.73 652.423,97.538 650.192,97.538 C647.962,97.538 646.154,95.73 646.154,93.5 C646.154,91.27 647.962,89.462 650.192,89.462 C651.263,89.462 652.291,89.887 653.048,90.644 C653.805,91.402 654.231,92.429 654.231,93.5 Z M654.231,128.5 C654.231,130.73 652.423,132.538 650.192,132.538 C647.962,132.538 646.154,130.73 646.154,128.5 C646.154,126.27 647.962,124.462 650.192,124.462 C651.263,124.462 652.291,124.887 653.048,125.644 C653.805,126.402 654.231,127.429 654.231,128.5 Z M654.231,111 C654.231,113.23 652.423,115.038 650.192,115.038 C647.962,115.038 646.154,113.23 646.154,111 C646.154,108.77 647.962,106.962 650.192,106.962 C651.263,106.962 652.291,107.387 653.048,108.144 C653.805,108.902 654.231,109.929 654.231,111 Z" />
        </g>
    </g>
</svg>