<?xml version="1.0" encoding="UTF-8"?>
<svg height="600" width="800" xmlns="http://www.w3.org/2000/svg" xmlns:xlink="http://www.w3.org/1999/xlink">
    <g id="Notes" font-family="'LucidaGrande', 'Lucida Grande', sans-serif" font-size="13">
        <rect fill="white" height="600.0" width="800.0" x="0.0" y="0.0" />
        <g font-size="13">
            <text x="18.0" y="176.0">Small</text>
            <text x="18.0" y="376.0">Medium</text>
            <text x="18.0" y="576.0">Large</text>
        </g>
        <g font-size="9">
            <text x="250.0" y="30.0">Ultralight</text>
            <text x="450.0" y="30.0">Regular</text>
            <text x="650.0" y="30.0">Black</text>
            <text id="template-version" fill="#505050" text-anchor="end" x="785.0" y="575.0">Template v.3.0</text>
            <a href="https://github.com/swhitty/SwiftDraw">
                <text fill="#505050" text-anchor="end" x="785.0" y="590.0">https://github.com/swhitty/SwiftDraw</text>
            </a>
        </g>
    </g>
    <g id="Guides" stroke="rgb(39, 170, 225)" stroke-width="0.5">
        <path id="Capline-S" d="M18,76 l800,0" />
        <path id="H-reference" d="M85,145.755 L87.685,145.755 L113.369,79.287 L114.052,79.287 L114.052,76 L112.148,76 L85,145.755 Z M95.693,121.536 L130.996,121.536 L130.263,119.313 L96.474,119.313 L95.693,121.536 Z M139.15,145.755 L141.787,145.755 L114.638,76 L113.466,76 L113.466,79.287 L139.15,145.755 Z" stroke="none" />
        <path id="Baseline-S" d="M18,146 l800,0" />
        <path id="left-margin-Ultralight-S" d="M220,56 l0,110" />
        <path id="right-margin-Ultralight-S" d="M310,56 l0,110" />
        <path id="left-margin-Regular-S" d="M420,56 l0,110" />
        <path id="right-margin-Regular-S" d="M510,56 l0,110" />
        <path id="left-margin-Black-S" d="M620,56 l0,110" />
        <path id="right-margin-Black-S" d="M710,56 l0,110" />
        <path id="Capline-M" d="M18,276 l800,0" />
        <path id="Baseline-M" d="M18,346 l800,0" />
        <path id="Capline-L" d="M18,476 l800,0" />
        <path id="Baseline-L" d="M18,546 l800,0" />
    </g>
    <g id="Symbols">
        <g id="Ultralight-S">
            <path d="M291.136,88.667 L242.674,137.129 C241.624,138.18 239.918,138.181 238.865,137.13 C237.813,136.078 237.812,134.373 238.863,133.32 L287.325,84.859 C288.376,83.807 290.081,83.806 291.133,84.857 C292.185,85.908 292.186,87.613 291.135,88.665 Z M238.932,102.062 C234.2,97.329 234.202,89.657 238.934,84.926 C243.666,80.195 251.338,80.196 256.069,84.929 L256.069,84.929 C260.8,89.662 260.799,97.333 256.067,102.064 C251.334,106.795 243.663,106.794 238.932,102.062 Z M240.769,93.5 C240.772,96.546 242.819,99.21 245.762,99.997 C248.704,100.784 251.808,99.496 253.33,96.858 C254.852,94.22 254.413,90.888 252.259,88.735 L252.259,88.735 C250.333,86.809 247.437,86.234 244.921,87.277 C242.406,88.321 240.767,90.777 240.769,93.5 Z M294.615,128.5 C294.615,134.277 290.533,139.252 284.864,140.38 C279.195,141.507 273.519,138.474 271.307,133.134 C269.095,127.794 270.963,121.635 275.769,118.424 C280.574,115.213 286.979,115.843 291.066,119.93 L291.066,119.93 C293.347,122.197 294.625,125.284 294.615,128.5 Z M289.231,128.5 C289.231,125.287 286.962,122.524 283.813,121.897 C280.664,121.271 277.51,122.956 276.281,125.923 C275.053,128.89 276.091,132.311 278.761,134.095 C281.431,135.879 284.989,135.528 287.26,133.258 C288.526,131.999 289.235,130.285 289.231,128.5 Z" />
        </g>
        <g id="Regular-S">
            <path d="M491.136,88.667 L442.674,137.129 C441.624,138.18 439.918,138.181 438.865,137.13 C437.813,136.078 437.812,134.373 438.863,133.32 L487.325,84.859 C488.376,83.807 490.081,83.806 491.133,84.857 C492.185,85.908 492.186,87.613 491.135,88.665 Z M438.932,102.062 C434.2,97.329 434.202,89.657 438.934,84.926 C443.666,80.195 451.338,80.196 456.069,84.929 L456.069,84.929 C460.8,89.662 460.799,97.333 456.067,102.064 C451.334,106.795 443.663,106.794 438.932,102.062 Z M440.769,93.5 C440.772,96.546 442.819,99.21 445.762,99.997 C448.704,100.784 451.808,99.496 453.33,96.858 C454.852,94.22 454.413,90.888 452.259,88.735 L452.259,88.735 C450.333,86.809 447.437,86.234 444.921,87.277 C442.406,88.321 440.767,90.777 440.769,93.5 Z M494.615,128.5 C494.615,134.277 490.533,139.252 484.864,140.38 C479.195,141.507 473.519,138.474 471.307,133.134 C469.095,127.794 470.963,121.635 475.769,118.424 C480.574,115.213 486.979,115.843 491.066,119.93 L491.066,119.93 C493.347,122.197 494.625,125.284 494.615,128.5 Z M489.231,128.5 C489.231,125.287 486.962,122.524 483.813,121.897 C480.664,121.271 477.51,122.956 476.281,125.923 C475.053,128.89 476.091,132.311 478.761,134.095 C481.431,135.879 484.989,135.528 487.26,133.258 C488.525,131.999 489.235,130.285 489.231,128.5 Z" />
        </g>
        <g id="Black-S">
            <path d="M691.136,88.667 L642.674,137.129 C641.624,138.18 639.918,138.181 638.865,137.13 C637.813,136.078 637.812,134.373 638.863,133.32 L687.325,84.859 C688.376,83.807 690.081,83.806 691.133,84.857 C692.185,85.908 692.186,87.613 691.135,88.665 Z M638.932,102.062 C634.2,97.329 634.202,89.657 638.934,84.926 C643.666,80.195 651.338,80.196 656.069,84.929 L656.069,84.929 C660.8,89.662 660.799,97.333 656.067,102.064 C651.334,106.795 643.663,106.794 638.932,102.062 Z M640.769,93.5 C640.772,96.546 642.819,99.21 645.762,99.997 C648.704,100.784 651.808,99.496 653.33,96.858 C654.852,94.22 654.413,90.888 652.259,88.735 L652.259,88.735 C650.333,86.809 647.437,86.234 644.921,87.277 C642.406,88.321 640.767,90.777 640.769,93.5 Z M694.615,128.5 C694.615,134.277 690.533,139.252 684.864,140.38 C679.195,141.507 673.519,138.474 671.307,133.134 C669.095,127.794 670.963,121.635 675.769,118.424 C680.574,115.213 686.979,115.843 691.066,119.93 L691.066,119.93 C693.347,122.197 694.625,125.284 694.615,128.5 Z M689.231,128.5 C689.231,125.287 686.962,122.524 683.813,121.897 C680.664,121.271 677.51,122.956 676.281,125.923 C675.053,128.89 676.091,132.311 678.761,134.095 C681.431,135.879 684.989,135.528 687.26,133.258 C688.526,131.999 689.235,130.285 689.231,128.5 Z" />
        </g>
    </g>
</svg>