<?xml version="1.0" encoding="UTF-8"?>
<svg height="600" width="800" xmlns="http://www.w3.org/2000/svg" xmlns:xlink="http://www.w3.org/1999/xlink">
    <g id="Notes" font-family="'LucidaGrande', 'Lucida Grande', sans-serif" font-size="13">
        <rect fill="white" height="600.0" width="800.0" x="0.0" y="0.0" />
        <g font-size="13">
            <text x="18.0" y="176.0">Small</text>
            <text x="18.0" y="376.0">Medium</text>
            <text x="18.0" y="576.0">Large</text>
        </g>
        <g font-size="9">
            <text x="250.0" y="30.0">Ultralight</text>
            <text x="450.0" y="30.0">Regular</text>
            <text x="650.0" y="30.0">Black</text>
            <text id="template-version" fill="#505050" text-anchor="end" x="785.0" y="575.0">Template v.3.0</text>
            <a href="https://github.com/swhitty/SwiftDraw">
                <text fill="#505050" text-anchor="end" x="785.0" y="590.0">https://github.com/swhitty/SwiftDraw</text>
            </a>
        </g>
    </g>
    <g id="Guides" stroke="rgb(39, 170, 225)" stroke-width="0.5">
        <path id="Capline-S" d="M18,76 l800,0" />
        <path id="H-reference" d="M85,145.755 L87.685,145.755 L113.369,79.287 L114.052,79.287 L114.052,76 L112.148,76 L85,145.755 Z M95.693,121.536 L130.996,121.536 L130.263,119.313 L96.474,119.313 L95.693,121.536 Z M139.15,145.755 L141.787,145.755 L114.638,76 L113.466,76 L113.466,79.287 L139.15,145.755 Z" stroke="none" />
        <path id="Baseline-S" d="M18,146 l800,0" />
        <path id="left-margin-Ultralight-S" d="M220,56 l0,110" />
        <path id="right-margin-Ultralight-S" d="M310,56 l0,110" />
        <path id="left-margin-Regular-S" d="M420,56 l0,110" />
        <path id="right-margin-Regular-S" d="M510,56 l0,110" />
        <path id="left-margin-Black-S" d="M620,56 l0,110" />
        <path id="right-margin-Black-S" d="M710,56 l0,110" />
        <path id="Capline-M" d="M18,276 l800,0" />
        <path id="Baseline-M" d="M18,346 l800,0" />
        <path id="Capline-L" d="M18,476 l800,0" />
        <path id="Baseline-L" d="M18,546 l800,0" />
    </g>
    <g id="Symbols">
        <g id="Ultralight-S">
            <path d="M251.283,85.622 C250.839,84.677 249.889,84.075 248.846,84.075 C247.803,84.075 246.853,84.677 246.41,85.622 L224.871,131.391 C224.238,132.737 224.816,134.341 226.162,134.974 C227.508,135.606 229.112,135.028 229.744,133.682 L235.351,121.769 L262.341,121.769 L267.948,133.683 C268.58,135.028 270.184,135.606 271.53,134.974 C272.876,134.341 273.454,132.737 272.821,131.391 Z M237.885,116.385 L248.846,93.093 L259.807,116.385 Z M289.231,100.231 C284.937,100.231 281.581,101.399 279.259,103.704 C278.248,104.758 278.262,106.426 279.29,107.463 C280.318,108.5 281.986,108.529 283.049,107.527 C284.327,106.258 286.414,105.615 289.231,105.615 C293.683,105.615 297.308,108.644 297.308,112.346 L297.308,113.43 C294.919,111.831 292.105,110.985 289.231,111 C281.807,111 275.769,116.435 275.769,123.115 C275.769,129.796 281.807,135.231 289.231,135.231 C292.106,135.243 294.92,134.393 297.308,132.791 C297.305,134.153 298.511,135.36 300,135.36 C301.489,135.36 302.695,134.153 302.695,132.665 L302.695,112.346 C302.692,105.666 296.655,100.231 289.231,100.231 Z M289.231,129.846 C284.778,129.846 281.154,126.817 281.154,123.115 C281.154,119.413 284.778,116.385 289.231,116.385 C293.683,116.385 297.308,119.413 297.308,123.115 C297.308,126.817 293.683,129.846 289.231,129.846 Z" />
        </g>
        <g id="Regular-S">
            <path d="M451.283,85.622 C450.839,84.677 449.889,84.075 448.846,84.075 C447.803,84.075 446.853,84.677 446.41,85.622 L424.871,131.391 C424.238,132.737 424.816,134.341 426.162,134.974 C427.508,135.606 429.112,135.028 429.744,133.682 L435.351,121.769 L462.341,121.769 L467.948,133.683 C468.58,135.028 470.184,135.606 471.53,134.974 C472.876,134.341 473.454,132.737 472.821,131.391 Z M437.885,116.385 L448.846,93.093 L459.807,116.385 Z M489.231,100.231 C484.937,100.231 481.581,101.399 479.259,103.704 C478.248,104.758 478.262,106.426 479.29,107.463 C480.318,108.5 481.986,108.529 483.049,107.527 C484.327,106.258 486.414,105.615 489.231,105.615 C493.683,105.615 497.308,108.644 497.308,112.346 L497.308,113.43 C494.918,111.831 492.105,110.985 489.231,111 C481.807,111 475.769,116.435 475.769,123.115 C475.769,129.796 481.807,135.231 489.231,135.231 C492.106,135.243 494.92,134.393 497.308,132.791 C497.305,134.153 498.511,135.36 500,135.36 C501.489,135.36 502.695,134.153 502.695,132.665 L502.695,112.346 C502.692,105.666 496.655,100.231 489.231,100.231 Z M489.231,129.846 C484.778,129.846 481.154,126.817 481.154,123.115 C481.154,119.413 484.778,116.385 489.231,116.385 C493.683,116.385 497.308,119.413 497.308,123.115 C497.308,126.817 493.683,129.846 489.231,129.846 Z" />
        </g>
        <g id="Black-S">
            <path d="M651.283,85.622 C650.839,84.677 649.889,84.075 648.846,84.075 C647.803,84.075 646.853,84.677 646.41,85.622 L624.871,131.391 C624.238,132.737 624.816,134.341 626.162,134.974 C627.508,135.606 629.112,135.028 629.744,133.682 L635.351,121.769 L662.341,121.769 L667.948,133.683 C668.581,135.028 670.184,135.606 671.53,134.974 C672.876,134.341 673.454,132.737 672.821,131.391 Z M637.885,116.385 L648.846,93.093 L659.807,116.385 Z M689.231,100.231 C684.937,100.231 681.581,101.399 679.259,103.704 C678.248,104.758 678.262,106.426 679.29,107.463 C680.318,108.5 681.986,108.529 683.049,107.527 C684.327,106.258 686.414,105.615 689.231,105.615 C693.683,105.615 697.308,108.644 697.308,112.346 L697.308,113.43 C694.919,111.831 692.105,110.985 689.231,111 C681.807,111 675.769,116.435 675.769,123.115 C675.769,129.796 681.807,135.231 689.231,135.231 C692.107,135.243 694.92,134.393 697.308,132.791 C697.305,134.153 698.511,135.36 700,135.36 C701.489,135.36 702.695,134.153 702.695,132.665 L702.695,112.346 C702.692,105.666 696.655,100.231 689.231,100.231 Z M689.231,129.846 C684.778,129.846 681.154,126.817 681.154,123.115 C681.154,119.413 684.778,116.385 689.231,116.385 C693.683,116.385 697.308,119.413 697.308,123.115 C697.308,126.817 693.683,129.846 689.231,129.846 Z" />
        </g>
    </g>
</svg>