<?xml version="1.0" encoding="UTF-8"?>
<svg height="600" width="800" xmlns="http://www.w3.org/2000/svg" xmlns:xlink="http://www.w3.org/1999/xlink">
    <g id="Notes" font-family="'LucidaGrande', 'Lucida Grande', sans-serif" font-size="13">
        <rect fill="white" height="600.0" width="800.0" x="0.0" y="0.0" />
        <g font-size="13">
            <text x="18.0" y="176.0">Small</text>
            <text x="18.0" y="376.0">Medium</text>
            <text x="18.0" y="576.0">Large</text>
        </g>
        <g font-size="9">
            <text x="250.0" y="30.0">Ultralight</text>
            <text x="450.0" y="30.0">Regular</text>
            <text x="650.0" y="30.0">Black</text>
            <text id="template-version" fill="#505050" text-anchor="end" x="785.0" y="575.0">Template v.3.0</text>
            <a href="https://github.com/swhitty/SwiftDraw">
                <text fill="#505050" text-anchor="end" x="785.0" y="590.0">https://github.com/swhitty/SwiftDraw</text>
            </a>
        </g>
    </g>
    <g id="Guides" stroke="rgb(39, 170, 225)" stroke-width="0.5">
        <path id="Capline-S" d="M18,76 l800,0" />
        <path id="H-reference" d="M85,145.755 L87.685,145.755 L113.369,79.287 L114.052,79.287 L114.052,76 L112.148,76 L85,145.755 Z M95.693,121.536 L130.996,121.536 L130.263,119.313 L96.474,119.313 L95.693,121.536 Z M139.15,145.755 L141.787,145.755 L114.638,76 L113.466,76 L113.466,79.287 L139.15,145.755 Z" stroke="none" />
        <path id="Baseline-S" d="M18,146 l800,0" />
        <path id="left-margin-Ultralight-S" d="M220,56 l0,110" />
        <path id="right-margin-Ultralight-S" d="M310,56 l0,110" />
        <path id="left-margin-Regular-S" d="M420,56 l0,110" />
        <path id="right-margin-Regular-S" d="M510,56 l0,110" />
        <path id="left-margin-Black-S" d="M620,56 l0,110" />
        <path id="right-margin-Black-S" d="M710,56 l0,110" />
        <path id="Capline-M" d="M18,276 l800,0" />
        <path id="Baseline-M" d="M18,346 l800,0" />
        <path id="Capline-L" d="M18,476 l800,0" />
        <path id="Baseline-L" d="M18,546 l800,0" />
    </g>
    <g id="Symbols">
        <g id="Ultralight-S">
            <path d="M262.308,89.462 C262.308,90.176 262.024,90.86 261.519,91.365 C261.014,91.87 260.329,92.154 259.615,92.154 L235.385,92.154 C233.898,92.154 232.692,90.948 232.692,89.462 C232.692,87.975 233.898,86.769 235.385,86.769 L259.615,86.769 C260.329,86.769 261.014,87.053 261.519,87.558 C262.024,88.063 262.308,88.747 262.308,89.462 Z M259.615,100.231 L235.385,100.231 C233.898,100.231 232.692,101.436 232.692,102.923 C232.692,104.41 233.898,105.615 235.385,105.615 L259.615,105.615 C261.102,105.615 262.308,104.41 262.308,102.923 C262.308,101.436 261.102,100.231 259.615,100.231 Z M259.615,113.692 L235.385,113.692 C233.898,113.692 232.692,114.898 232.692,116.385 C232.692,117.872 233.898,119.077 235.385,119.077 L259.615,119.077 C261.102,119.077 262.308,117.872 262.308,116.385 C262.308,114.898 261.102,113.692 259.615,113.692 Z M259.615,127.154 L235.385,127.154 C233.898,127.154 232.692,128.359 232.692,129.846 C232.692,131.333 233.898,132.538 235.385,132.538 L259.615,132.538 C261.102,132.538 262.308,131.333 262.308,129.846 C262.308,128.359 261.102,127.154 259.615,127.154 Z M270.385,92.154 L294.615,92.154 C296.102,92.154 297.308,90.948 297.308,89.462 C297.308,87.975 296.102,86.769 294.615,86.769 L270.385,86.769 C268.898,86.769 267.692,87.975 267.692,89.462 C267.692,90.948 268.898,92.154 270.385,92.154 Z M294.615,100.231 L270.385,100.231 C268.898,100.231 267.692,101.436 267.692,102.923 C267.692,104.41 268.898,105.615 270.385,105.615 L294.615,105.615 C296.102,105.615 297.308,104.41 297.308,102.923 C297.308,101.436 296.102,100.231 294.615,100.231 Z M294.615,113.692 L270.385,113.692 C268.898,113.692 267.692,114.898 267.692,116.385 C267.692,117.872 268.898,119.077 270.385,119.077 L294.615,119.077 C296.102,119.077 297.308,117.872 297.308,116.385 C297.308,114.898 296.102,113.692 294.615,113.692 Z M294.615,127.154 L270.385,127.154 C268.898,127.154 267.692,128.359 267.692,129.846 C267.692,131.333 268.898,132.538 270.385,132.538 L294.615,132.538 C296.102,132.538 297.308,131.333 297.308,129.846 C297.308,128.359 296.102,127.154 294.615,127.154 Z" />
        </g>
        <g id="Regular-S">
            <path d="M462.308,89.462 C462.308,90.176 462.024,90.86 461.519,91.365 C461.014,91.87 460.329,92.154 459.615,92.154 L435.385,92.154 C433.898,92.154 432.692,90.948 432.692,89.462 C432.692,87.975 433.898,86.769 435.385,86.769 L459.615,86.769 C460.329,86.769 461.014,87.053 461.519,87.558 C462.024,88.063 462.308,88.747 462.308,89.462 Z M459.615,100.231 L435.385,100.231 C433.898,100.231 432.692,101.436 432.692,102.923 C432.692,104.41 433.898,105.615 435.385,105.615 L459.615,105.615 C461.102,105.615 462.308,104.41 462.308,102.923 C462.308,101.436 461.102,100.231 459.615,100.231 Z M459.615,113.692 L435.385,113.692 C433.898,113.692 432.692,114.898 432.692,116.385 C432.692,117.872 433.898,119.077 435.385,119.077 L459.615,119.077 C461.102,119.077 462.308,117.872 462.308,116.385 C462.308,114.898 461.102,113.692 459.615,113.692 Z M459.615,127.154 L435.385,127.154 C433.898,127.154 432.692,128.359 432.692,129.846 C432.692,131.333 433.898,132.538 435.385,132.538 L459.615,132.538 C461.102,132.538 462.308,131.333 462.308,129.846 C462.308,128.359 461.102,127.154 459.615,127.154 Z M470.385,92.154 L494.615,92.154 C496.102,92.154 497.308,90.948 497.308,89.462 C497.308,87.975 496.102,86.769 494.615,86.769 L470.385,86.769 C468.898,86.769 467.692,87.975 467.692,89.462 C467.692,90.948 468.898,92.154 470.385,92.154 Z M494.615,100.231 L470.385,100.231 C468.898,100.231 467.692,101.436 467.692,102.923 C467.692,104.41 468.898,105.615 470.385,105.615 L494.615,105.615 C496.102,105.615 497.308,104.41 497.308,102.923 C497.308,101.436 496.102,100.231 494.615,100.231 Z M494.615,113.692 L470.385,113.692 C468.898,113.692 467.692,114.898 467.692,116.385 C467.692,117.872 468.898,119.077 470.385,119.077 L494.615,119.077 C496.102,119.077 497.308,117.872 497.308,116.385 C497.308,114.898 496.102,113.692 494.615,113.692 Z M494.615,127.154 L470.385,127.154 C468.898,127.154 467.692,128.359 467.692,129.846 C467.692,131.333 468.898,132.538 470.385,132.538 L494.615,132.538 C496.102,132.538 497.308,131.333 497.308,129.846 C497.308,128.359 496.102,127.154 494.615,127.154 Z" />
        </g>
        <g id="Black-S">
            <path d="M662.308,89.462 C662.308,90.176 662.024,90.86 661.519,91.365 C661.014,91.87 660.329,92.154 659.615,92.154 L635.385,92.154 C633.898,92.154 632.692,90.948 632.692,89.462 C632.692,87.975 633.898,86.769 635.385,86.769 L659.615,86.769 C660.329,86.769 661.014,87.053 661.519,87.558 C662.024,88.063 662.308,88.747 662.308,89.462 Z M659.615,100.231 L635.385,100.231 C633.898,100.231 632.692,101.436 632.692,102.923 C632.692,104.41 633.898,105.615 635.385,105.615 L659.615,105.615 C661.102,105.615 662.308,104.41 662.308,102.923 C662.308,101.436 661.102,100.231 659.615,100.231 Z M659.615,113.692 L635.385,113.692 C633.898,113.692 632.692,114.898 632.692,116.385 C632.692,117.872 633.898,119.077 635.385,119.077 L659.615,119.077 C661.102,119.077 662.308,117.872 662.308,116.385 C662.308,114.898 661.102,113.692 659.615,113.692 Z M659.615,127.154 L635.385,127.154 C633.898,127.154 632.692,128.359 632.692,129.846 C632.692,131.333 633.898,132.538 635.385,132.538 L659.615,132.538 C661.102,132.538 662.308,131.333 662.308,129.846 C662.308,128.359 661.102,127.154 659.615,127.154 Z M670.385,92.154 L694.615,92.154 C696.102,92.154 697.308,90.948 697.308,89.462 C697.308,87.975 696.102,86.769 694.615,86.769 L670.385,86.769 C668.898,86.769 667.692,87.975 667.692,89.462 C667.692,90.948 668.898,92.154 670.385,92.154 Z M694.615,100.231 L670.385,100.231 C668.898,100.231 667.692,101.436 667.692,102.923 C667.692,104.41 668.898,105.615 670.385,105.615 L694.615,105.615 C696.102,105.615 697.308,104.41 697.308,102.923 C697.308,101.436 696.102,100.231 694.615,100.231 Z M694.615,113.692 L670.385,113.692 C668.898,113.692 667.692,114.898 667.692,116.385 C667.692,117.872 668.898,119.077 670.385,119.077 L694.615,119.077 C696.102,119.077 697.308,117.872 697.308,116.385 C697.308,114.898 696.102,113.692 694.615,113.692 Z M694.615,127.154 L670.385,127.154 C668.898,127.154 667.692,128.359 667.692,129.846 C667.692,131.333 668.898,132.538 670.385,132.538 L694.615,132.538 C696.102,132.538 697.308,131.333 697.308,129.846 C697.308,128.359 696.102,127.154 694.615,127.154 Z" />
        </g>
    </g>
</svg>