<?xml version="1.0" encoding="UTF-8"?>
<!--Generator: Apple Native CoreSVG 341-->
<!DOCTYPE svg
PUBLIC "-//W3C//DTD SVG 1.1//EN"
       "http://www.w3.org/Graphics/SVG/1.1/DTD/svg11.dtd">
<svg version="1.1" xmlns="http://www.w3.org/2000/svg" xmlns:xlink="http://www.w3.org/1999/xlink" viewBox="0 0 3300 2200">
 <!--glyph: "", point size: 100.0, font version: "20.0d10e1", template writer version: "138.0.0"-->
 <style>.monochrome-0 {-sfsymbols-motion-group:1;-sfsymbols-layer-tags:-45c1ee8576fa9a2}
.monochrome-1 {-sfsymbols-motion-group:0;-sfsymbols-layer-tags:-45c1ee8576fa9a2}

.multicolor-0:tintColor {-sfsymbols-motion-group:1;-sfsymbols-layer-tags:-45c1ee8576fa9a2}
.multicolor-1:tintColor {-sfsymbols-motion-group:0;-sfsymbols-layer-tags:-45c1ee8576fa9a2}

.hierarchical-0:primary {-sfsymbols-motion-group:1;-sfsymbols-layer-tags:-45c1ee8576fa9a2}
.hierarchical-1:primary {-sfsymbols-motion-group:0;-sfsymbols-layer-tags:-45c1ee8576fa9a2}

.SFSymbolsPreviewWireframe {fill:none;opacity:1.0;stroke:black;stroke-width:0.5}
</style>
 <g id="Notes">
  <rect height="2200" id="artboard" style="fill:white;opacity:1" width="3300" x="0" y="0"/>
  <line style="fill:none;stroke:black;opacity:1;stroke-width:0.5;" x1="263" x2="3036" y1="292" y2="292"/>
  <text style="stroke:none;fill:black;font-family:sans-serif;font-size:13;font-weight:bold;" transform="matrix(1 0 0 1 263 322)">Weight/Scale Variations</text>
  <text style="stroke:none;fill:black;font-family:sans-serif;font-size:13;text-anchor:middle;" transform="matrix(1 0 0 1 559.711 322)">Ultralight</text>
  <text style="stroke:none;fill:black;font-family:sans-serif;font-size:13;text-anchor:middle;" transform="matrix(1 0 0 1 856.422 322)">Thin</text>
  <text style="stroke:none;fill:black;font-family:sans-serif;font-size:13;text-anchor:middle;" transform="matrix(1 0 0 1 1153.13 322)">Light</text>
  <text style="stroke:none;fill:black;font-family:sans-serif;font-size:13;text-anchor:middle;" transform="matrix(1 0 0 1 1449.84 322)">Regular</text>
  <text style="stroke:none;fill:black;font-family:sans-serif;font-size:13;text-anchor:middle;" transform="matrix(1 0 0 1 1746.56 322)">Medium</text>
  <text style="stroke:none;fill:black;font-family:sans-serif;font-size:13;text-anchor:middle;" transform="matrix(1 0 0 1 2043.27 322)">Semibold</text>
  <text style="stroke:none;fill:black;font-family:sans-serif;font-size:13;text-anchor:middle;" transform="matrix(1 0 0 1 2339.98 322)">Bold</text>
  <text style="stroke:none;fill:black;font-family:sans-serif;font-size:13;text-anchor:middle;" transform="matrix(1 0 0 1 2636.69 322)">Heavy</text>
  <text style="stroke:none;fill:black;font-family:sans-serif;font-size:13;text-anchor:middle;" transform="matrix(1 0 0 1 2933.4 322)">Black</text>
  <line style="fill:none;stroke:black;opacity:1;stroke-width:0.5;" x1="263" x2="3036" y1="1903" y2="1903"/>
  <g transform="matrix(0.2 0 0 0.2 263 1933)">
   <path d="m46.2402 4.15039c21.7773 0 39.4531-17.627 39.4531-39.4043s-17.6758-39.4043-39.4531-39.4043c-21.7285 0-39.4043 17.627-39.4043 39.4043s17.6758 39.4043 39.4043 39.4043Zm0-7.42188c-17.6758 0-31.9336-14.3066-31.9336-31.9824s14.2578-31.9824 31.9336-31.9824 31.9824 14.3066 31.9824 31.9824-14.3066 31.9824-31.9824 31.9824Zm-17.9688-31.9824c0 2.14844 1.51367 3.61328 3.75977 3.61328h10.498v10.5957c0 2.19727 1.46484 3.71094 3.61328 3.71094 2.24609 0 3.71094-1.51367 3.71094-3.71094v-10.5957h10.5957c2.19727 0 3.71094-1.46484 3.71094-3.61328 0-2.19727-1.51367-3.71094-3.71094-3.71094h-10.5957v-10.5469c0-2.24609-1.46484-3.75977-3.71094-3.75977-2.14844 0-3.61328 1.51367-3.61328 3.75977v10.5469h-10.498c-2.24609 0-3.75977 1.51367-3.75977 3.71094Z"/>
  </g>
  <g transform="matrix(0.2 0 0 0.2 281.506 1933)">
   <path d="m58.5449 14.5508c27.4902 0 49.8047-22.3145 49.8047-49.8047s-22.3145-49.8047-49.8047-49.8047-49.8047 22.3145-49.8047 49.8047 22.3145 49.8047 49.8047 49.8047Zm0-8.30078c-22.9492 0-41.5039-18.5547-41.5039-41.5039s18.5547-41.5039 41.5039-41.5039 41.5039 18.5547 41.5039 41.5039-18.5547 41.5039-41.5039 41.5039Zm-22.6562-41.5039c0 2.39258 1.66016 4.00391 4.15039 4.00391h14.3555v14.4043c0 2.44141 1.66016 4.15039 4.05273 4.15039 2.44141 0 4.15039-1.66016 4.15039-4.15039v-14.4043h14.4043c2.44141 0 4.15039-1.61133 4.15039-4.00391 0-2.44141-1.70898-4.15039-4.15039-4.15039h-14.4043v-14.3555c0-2.49023-1.70898-4.19922-4.15039-4.19922-2.39258 0-4.05273 1.70898-4.05273 4.19922v14.3555h-14.3555c-2.49023 0-4.15039 1.70898-4.15039 4.15039Z"/>
  </g>
  <g transform="matrix(0.2 0 0 0.2 304.924 1933)">
   <path d="m74.8535 28.3203c35.1074 0 63.623-28.4668 63.623-63.5742s-28.5156-63.623-63.623-63.623-63.5742 28.5156-63.5742 63.623 28.4668 63.5742 63.5742 63.5742Zm0-9.08203c-30.127 0-54.4922-24.3652-54.4922-54.4922s24.3652-54.4922 54.4922-54.4922 54.4922 24.3652 54.4922 54.4922-24.3652 54.4922-54.4922 54.4922Zm-28.8574-54.4922c0 2.58789 1.85547 4.39453 4.58984 4.39453h19.7266v19.7754c0 2.68555 1.85547 4.58984 4.44336 4.58984 2.68555 0 4.54102-1.85547 4.54102-4.58984v-19.7754h19.7754c2.68555 0 4.58984-1.80664 4.58984-4.39453 0-2.73438-1.85547-4.58984-4.58984-4.58984h-19.7754v-19.7266c0-2.73438-1.85547-4.63867-4.54102-4.63867-2.58789 0-4.44336 1.9043-4.44336 4.63867v19.7266h-19.7266c-2.73438 0-4.58984 1.85547-4.58984 4.58984Z"/>
  </g>
  <text style="stroke:none;fill:black;font-family:sans-serif;font-size:13;font-weight:bold;" transform="matrix(1 0 0 1 263 1953)">Design Variations</text>
  <text style="stroke:none;fill:black;font-family:sans-serif;font-size:13;" transform="matrix(1 0 0 1 263 1971)">Symbols are supported in up to nine weights and three scales.</text>
  <text style="stroke:none;fill:black;font-family:sans-serif;font-size:13;" transform="matrix(1 0 0 1 263 1989)">For optimal layout with text and other symbols, vertically align</text>
  <text style="stroke:none;fill:black;font-family:sans-serif;font-size:13;" transform="matrix(1 0 0 1 263 2007)">symbols with the adjacent text.</text>
  <line style="fill:none;stroke:#00AEEF;stroke-width:0.5;opacity:1.0;" x1="776" x2="776" y1="1919" y2="1933"/>
  <g transform="matrix(0.2 0 0 0.2 776 1933)">
   <path d="m16.5527 0.78125c2.58789 0 3.85742-0.976562 4.78516-3.71094l6.29883-17.2363h28.8086l6.29883 17.2363c0.927734 2.73438 2.19727 3.71094 4.73633 3.71094 2.58789 0 4.24805-1.5625 4.24805-4.00391 0-0.830078-0.146484-1.61133-0.537109-2.63672l-22.9004-60.9863c-1.12305-2.97852-3.125-4.49219-6.25-4.49219-3.02734 0-5.07812 1.46484-6.15234 4.44336l-22.9004 61.084c-0.390625 1.02539-0.537109 1.80664-0.537109 2.63672 0 2.44141 1.5625 3.95508 4.10156 3.95508Zm13.4766-28.3691 11.8652-32.8613h0.244141l11.8652 32.8613Z"/>
  </g>
  <line style="fill:none;stroke:#00AEEF;stroke-width:0.5;opacity:1.0;" x1="792.836" x2="792.836" y1="1919" y2="1933"/>
  <text style="stroke:none;fill:black;font-family:sans-serif;font-size:13;font-weight:bold;" transform="matrix(1 0 0 1 776 1953)">Margins</text>
  <text style="stroke:none;fill:black;font-family:sans-serif;font-size:13;" transform="matrix(1 0 0 1 776 1971)">Leading and trailing margins on the left and right side of each symbol</text>
  <text style="stroke:none;fill:black;font-family:sans-serif;font-size:13;" transform="matrix(1 0 0 1 776 1989)">can be adjusted by modifying the x-location of the margin guidelines.</text>
  <text style="stroke:none;fill:black;font-family:sans-serif;font-size:13;" transform="matrix(1 0 0 1 776 2007)">Modifications are automatically applied proportionally to all</text>
  <text style="stroke:none;fill:black;font-family:sans-serif;font-size:13;" transform="matrix(1 0 0 1 776 2025)">scales and weights.</text>
  <g transform="matrix(0.2 0 0 0.2 1289 1933)">
   <path d="m14.209 9.32617 8.49609 8.54492c4.29688 4.3457 9.22852 4.05273 13.8672-1.07422l53.4668-58.9355-4.83398-4.88281-53.0762 58.3984c-1.75781 2.00195-3.41797 2.49023-5.76172 0.146484l-5.85938-5.81055c-2.34375-2.29492-1.80664-4.00391 0.195312-5.81055l57.373-54.0039-4.88281-4.83398-57.959 54.4434c-4.93164 4.58984-5.32227 9.47266-1.02539 13.8184Zm32.0801-90.9668c-2.09961 2.05078-2.24609 4.93164-1.07422 6.88477 1.17188 1.80664 3.4668 2.97852 6.68945 2.14844 7.32422-1.70898 14.9414-2.00195 22.0703 2.68555l-2.92969 7.27539c-1.70898 4.15039-0.830078 7.08008 1.85547 9.81445l11.4746 11.5723c2.44141 2.44141 4.49219 2.53906 7.32422 2.05078l5.32227-0.976562 3.32031 3.36914-0.195312 2.7832c-0.195312 2.49023 0.439453 4.39453 2.88086 6.78711l3.80859 3.71094c2.39258 2.39258 5.46875 2.53906 7.8125 0.195312l14.5508-14.5996c2.34375-2.34375 2.24609-5.32227-0.146484-7.71484l-3.85742-3.80859c-2.39258-2.39258-4.24805-3.17383-6.64062-2.97852l-2.88086 0.244141-3.22266-3.17383 1.2207-5.61523c0.634766-2.83203-0.146484-5.0293-3.07617-7.95898l-10.9863-10.9375c-16.6992-16.6016-38.8672-16.2109-53.3203-1.75781Zm7.4707 1.85547c12.1582-8.88672 28.6133-7.37305 39.7461 3.75977l12.1582 12.0605c1.17188 1.17188 1.36719 2.09961 1.02539 3.80859l-1.61133 7.42188 7.51953 7.42188 4.93164-0.292969c1.26953-0.0488281 1.66016 0.0488281 2.63672 1.02539l2.88086 2.88086-12.207 12.207-2.88086-2.88086c-0.976562-0.976562-1.12305-1.36719-1.07422-2.68555l0.341797-4.88281-7.4707-7.42188-7.61719 1.26953c-1.61133 0.341797-2.34375 0.195312-3.56445-0.976562l-10.0098-10.0098c-1.26953-1.17188-1.41602-2.00195-0.634766-3.85742l4.39453-10.4492c-7.8125-7.27539-17.9688-10.4004-28.125-7.42188-0.78125 0.195312-1.07422-0.439453-0.439453-0.976562Z"/>
  </g>
  <text style="stroke:none;fill:black;font-family:sans-serif;font-size:13;font-weight:bold;" transform="matrix(1 0 0 1 1289 1953)">Exporting</text>
  <text style="stroke:none;fill:black;font-family:sans-serif;font-size:13;" transform="matrix(1 0 0 1 1289 1971)">Symbols should be outlined when exporting to ensure the</text>
  <text style="stroke:none;fill:black;font-family:sans-serif;font-size:13;" transform="matrix(1 0 0 1 1289 1989)">design is preserved when submitting to Xcode.</text>
  <text id="template-version" style="stroke:none;fill:black;font-family:sans-serif;font-size:13;text-anchor:end;" transform="matrix(1 0 0 1 3036 1933)">Template v.6.0</text>
  <text style="stroke:none;fill:black;font-family:sans-serif;font-size:13;text-anchor:end;" transform="matrix(1 0 0 1 3036 1951)">Requires Xcode 16 or greater</text>
  <text id="descriptive-name" style="stroke:none;fill:black;font-family:sans-serif;font-size:13;text-anchor:end;" transform="matrix(1 0 0 1 3036 1969)">Generated from scroll</text>
  <text style="stroke:none;fill:black;font-family:sans-serif;font-size:13;text-anchor:end;" transform="matrix(1 0 0 1 3036 1987)">Typeset at 100.0 points</text>
  <text style="stroke:none;fill:black;font-family:sans-serif;font-size:13;" transform="matrix(1 0 0 1 263 726)">Small</text>
  <text style="stroke:none;fill:black;font-family:sans-serif;font-size:13;" transform="matrix(1 0 0 1 263 1156)">Medium</text>
  <text style="stroke:none;fill:black;font-family:sans-serif;font-size:13;" transform="matrix(1 0 0 1 263 1586)">Large</text>
 </g>
 <g id="Guides">
  <g id="H-reference" style="fill:#27AAE1;stroke:none;" transform="matrix(1 0 0 1 339 696)">
   <path d="M0.993654 0L3.63775 0L29.3281-67.1323L30.0303-67.1323L30.0303-70.459L28.1226-70.459ZM11.6885-24.4799L46.9815-24.4799L46.2315-26.7285L12.4385-26.7285ZM55.1196 0L57.7637 0L30.6382-70.459L29.4326-70.459L29.4326-67.1323Z"/>
  </g>
  <line id="Baseline-S" style="fill:none;stroke:#27AAE1;opacity:1;stroke-width:0.5;" x1="263" x2="3036" y1="696" y2="696"/>
  <line id="Capline-S" style="fill:none;stroke:#27AAE1;opacity:1;stroke-width:0.5;" x1="263" x2="3036" y1="625.541" y2="625.541"/>
  <g id="H-reference" style="fill:#27AAE1;stroke:none;" transform="matrix(1 0 0 1 339 1126)">
   <path d="M0.993654 0L3.63775 0L29.3281-67.1323L30.0303-67.1323L30.0303-70.459L28.1226-70.459ZM11.6885-24.4799L46.9815-24.4799L46.2315-26.7285L12.4385-26.7285ZM55.1196 0L57.7637 0L30.6382-70.459L29.4326-70.459L29.4326-67.1323Z"/>
  </g>
  <line id="Baseline-M" style="fill:none;stroke:#27AAE1;opacity:1;stroke-width:0.5;" x1="263" x2="3036" y1="1126" y2="1126"/>
  <line id="Capline-M" style="fill:none;stroke:#27AAE1;opacity:1;stroke-width:0.5;" x1="263" x2="3036" y1="1055.54" y2="1055.54"/>
  <g id="H-reference" style="fill:#27AAE1;stroke:none;" transform="matrix(1 0 0 1 339 1556)">
   <path d="M0.993654 0L3.63775 0L29.3281-67.1323L30.0303-67.1323L30.0303-70.459L28.1226-70.459ZM11.6885-24.4799L46.9815-24.4799L46.2315-26.7285L12.4385-26.7285ZM55.1196 0L57.7637 0L30.6382-70.459L29.4326-70.459L29.4326-67.1323Z"/>
  </g>
  <line id="Baseline-L" style="fill:none;stroke:#27AAE1;opacity:1;stroke-width:0.5;" x1="263" x2="3036" y1="1556" y2="1556"/>
  <line id="Capline-L" style="fill:none;stroke:#27AAE1;opacity:1;stroke-width:0.5;" x1="263" x2="3036" y1="1485.54" y2="1485.54"/>
  <line id="right-margin-Black-S" style="fill:none;stroke:#00AEEF;stroke-width:0.5;opacity:1.0;" x1="2978.7" x2="2978.7" y1="600.785" y2="720.121"/>
  <line id="left-margin-Black-S" style="fill:none;stroke:#00AEEF;stroke-width:0.5;opacity:1.0;" x1="2888.1" x2="2888.1" y1="600.785" y2="720.121"/>
  <line id="right-margin-Regular-S" style="fill:none;stroke:#00AEEF;stroke-width:0.5;opacity:1.0;" x1="1495.14" x2="1495.14" y1="600.785" y2="720.121"/>
  <line id="left-margin-Regular-S" style="fill:none;stroke:#00AEEF;stroke-width:0.5;opacity:1.0;" x1="1404.55" x2="1404.55" y1="600.785" y2="720.121"/>
  <line id="right-margin-Ultralight-S" style="fill:none;stroke:#00AEEF;stroke-width:0.5;opacity:1.0;" x1="605.006" x2="605.006" y1="600.785" y2="720.121"/>
  <line id="left-margin-Ultralight-S" style="fill:none;stroke:#00AEEF;stroke-width:0.5;opacity:1.0;" x1="514.416" x2="514.416" y1="600.785" y2="720.121"/>
 </g>
 <g id="Symbols">
  <g id="Black-S" transform="matrix(1 0 0 1 2888.1 696)">
   <path class="monochrome-0 multicolor-0:tintColor hierarchical-0:primary SFSymbolsPreviewWireframe" d="M34.8565-44.0375C34.8565-44.816 35.1651-45.563 35.7158-46.1136C36.2664-46.6643 37.0134-46.9729 37.7919-46.9729L61.2787-46.9729C62.8991-46.9729 64.2142-45.6589 64.2142-44.0375C64.2142-42.416 62.8991-41.102 61.2787-41.102L37.7919-41.102C37.0134-41.102 36.2664-41.4106 35.7158-41.9613C35.1651-42.5119 34.8565-43.2589 34.8565-44.0375ZM37.7919-29.3581L61.2787-29.3581C62.8991-29.3581 64.2142-30.6731 64.2142-32.2946C64.2142-33.9161 62.8991-35.2301 61.2787-35.2301L37.7919-35.2301C36.1705-35.2301 34.8565-33.9161 34.8565-32.2946C34.8565-30.6731 36.1705-29.3581 37.7919-29.3581Z"/>
   <path class="monochrome-1 multicolor-1:tintColor hierarchical-1:primary SFSymbolsPreviewWireframe" d="M84.7644-11.7444C84.7644-8.62901 83.5268-5.64232 81.3252-3.44074C79.1225-1.23808 76.1358-0.00043756 73.0216-0.00043756L31.92-0.00043756C28.8057-0.00043756 25.819-1.23808 23.6164-3.44074C21.4148-5.64232 20.1771-8.62901 20.1771-11.7444L20.1771-58.7157C20.1771-61.9587 17.5481-64.5877 14.3063-64.5877C11.0633-64.5877 8.4343-61.9587 8.4343-58.7157C8.4343-56.6101 10.2062-55.186 10.2248-55.1707C11.2214-54.4042 11.6194-53.0891 11.2138-51.8984C10.8093-50.7087 9.69157-49.9083 8.4343-49.9094C7.79967-49.9083 7.1814-50.1155 6.67653-50.4993C6.25126-50.8112 2.56233-53.7216 2.56233-58.7157C2.56233-61.8311 3.79997-64.8178 6.00264-67.0194C8.20422-69.222 11.1909-70.4597 14.3063-70.4597L64.2142-70.4597C67.3284-70.4597 70.3151-69.222 72.5178-67.0194C74.7194-64.8178 75.957-61.8311 75.957-58.7157L75.957-20.5507L78.8924-20.5507C79.5282-20.5507 80.1464-20.3457 80.6546-19.964C81.0951-19.6489 84.7644-16.7385 84.7644-11.7444ZM34.9514-18.5399C35.3636-19.7547 36.5096-20.567 37.7919-20.5507L70.085-20.5507L70.085-58.7157C70.085-60.274 69.4668-61.7668 68.3654-62.8681C67.2652-63.9694 65.7713-64.5877 64.2142-64.5877L24.4669-64.5877C25.5061-62.8048 26.0513-60.7788 26.0491-58.7157L26.0491-11.7444C26.0491-8.50143 28.6781-5.8724 31.92-5.8724C35.1629-5.8724 37.7919-8.50143 37.7919-11.7444C37.7919-13.85 36.02-15.2741 36.0015-15.2883C34.9743-16.0232 34.5479-17.3437 34.9514-18.5399ZM78.8924-11.7444C78.8565-12.8315 78.4366-13.8718 77.7071-14.6798L43.2125-14.6798C43.5069-13.729 43.6574-12.7388 43.6563-11.7444C43.6596-9.68237 43.1154-7.65635 42.0817-5.8724L73.0216-5.8724C76.2645-5.8724 78.8924-8.50143 78.8924-11.7444Z"/>
  </g>
  <g id="Regular-S" transform="matrix(1 0 0 1 1404.55 696)">
   <path class="monochrome-0 multicolor-0:tintColor hierarchical-0:primary SFSymbolsPreviewWireframe" d="M35.4065-44.0375C35.4065-44.816 35.7151-45.563 36.2658-46.1136C36.8164-46.6643 37.5634-46.9729 38.3419-46.9729L61.8287-46.9729C63.4491-46.9729 64.7642-45.6589 64.7642-44.0375C64.7642-42.416 63.4491-41.102 61.8287-41.102L38.3419-41.102C37.5634-41.102 36.8164-41.4106 36.2658-41.9613C35.7151-42.5119 35.4065-43.2589 35.4065-44.0375ZM38.3419-29.3581L61.8287-29.3581C63.4491-29.3581 64.7642-30.6731 64.7642-32.2946C64.7642-33.9161 63.4491-35.2301 61.8287-35.2301L38.3419-35.2301C36.7205-35.2301 35.4065-33.9161 35.4065-32.2946C35.4065-30.6731 36.7205-29.3581 38.3419-29.3581Z"/>
   <path class="monochrome-1 multicolor-1:tintColor hierarchical-1:primary SFSymbolsPreviewWireframe" d="M85.3144-11.7444C85.3144-8.62901 84.0768-5.64232 81.8752-3.44074C79.6725-1.23808 76.6858-0.00043756 73.5716-0.00043756L32.47-0.00043756C29.3557-0.00043756 26.369-1.23808 24.1664-3.44074C21.9648-5.64232 20.7271-8.62901 20.7271-11.7444L20.7271-58.7157C20.7271-61.9587 18.0981-64.5877 14.8563-64.5877C11.6133-64.5877 8.9843-61.9587 8.9843-58.7157C8.9843-56.6101 10.7562-55.186 10.7748-55.1707C11.7714-54.4042 12.1694-53.0891 11.7638-51.8984C11.3593-50.7087 10.2416-49.9083 8.9843-49.9094C8.34967-49.9083 7.7314-50.1155 7.22653-50.4993C6.80126-50.8112 3.11233-53.7216 3.11233-58.7157C3.11233-61.8311 4.34997-64.8178 6.55264-67.0194C8.75422-69.222 11.7409-70.4597 14.8563-70.4597L64.7642-70.4597C67.8784-70.4597 70.8651-69.222 73.0678-67.0194C75.2694-64.8178 76.507-61.8311 76.507-58.7157L76.507-20.5507L79.4424-20.5507C80.0782-20.5507 80.6964-20.3457 81.2046-19.964C81.6451-19.6489 85.3144-16.7385 85.3144-11.7444ZM35.5014-18.5399C35.9136-19.7547 37.0596-20.567 38.3419-20.5507L70.635-20.5507L70.635-58.7157C70.635-60.274 70.0168-61.7668 68.9154-62.8681C67.8152-63.9694 66.3213-64.5877 64.7642-64.5877L25.0169-64.5877C26.0561-62.8048 26.6013-60.7788 26.5991-58.7157L26.5991-11.7444C26.5991-8.50143 29.2281-5.8724 32.47-5.8724C35.7129-5.8724 38.3419-8.50143 38.3419-11.7444C38.3419-13.85 36.57-15.2741 36.5515-15.2883C35.5243-16.0232 35.0979-17.3437 35.5014-18.5399ZM79.4424-11.7444C79.4065-12.8315 78.9866-13.8718 78.2571-14.6798L43.7625-14.6798C44.0569-13.729 44.2074-12.7388 44.2063-11.7444C44.2096-9.68237 43.6654-7.65635 42.6317-5.8724L73.5716-5.8724C76.8145-5.8724 79.4424-8.50143 79.4424-11.7444Z"/>
  </g>
  <g id="Ultralight-S" transform="matrix(1 0 0 1 514.416 696)">
   <path class="monochrome-0 multicolor-0:tintColor hierarchical-0:primary SFSymbolsPreviewWireframe" d="M34.7785-44.0375C34.7785-44.816 35.0871-45.563 35.6378-46.1136C36.1884-46.6643 36.9354-46.9729 37.7139-46.9729L61.2007-46.9729C62.8211-46.9729 64.1362-45.6589 64.1362-44.0375C64.1362-42.416 62.8211-41.102 61.2007-41.102L37.7139-41.102C36.9354-41.102 36.1884-41.4106 35.6378-41.9613C35.0871-42.5119 34.7785-43.2589 34.7785-44.0375ZM37.7139-29.3581L61.2007-29.3581C62.8211-29.3581 64.1362-30.6731 64.1362-32.2946C64.1362-33.9161 62.8211-35.2301 61.2007-35.2301L37.7139-35.2301C36.0925-35.2301 34.7785-33.9161 34.7785-32.2946C34.7785-30.6731 36.0925-29.3581 37.7139-29.3581Z"/>
   <path class="monochrome-1 multicolor-1:tintColor hierarchical-1:primary SFSymbolsPreviewWireframe" d="M84.6864-11.7444C84.6864-8.62901 83.4488-5.64232 81.2472-3.44074C79.0445-1.23808 76.0578-0.00043756 72.9436-0.00043756L31.842-0.00043756C28.7277-0.00043756 25.741-1.23808 23.5384-3.44074C21.3368-5.64232 20.0991-8.62901 20.0991-11.7444L20.0991-58.7157C20.0991-61.9587 17.4701-64.5877 14.2283-64.5877C10.9853-64.5877 8.3563-61.9587 8.3563-58.7157C8.3563-56.6101 10.1282-55.186 10.1468-55.1707C11.1434-54.4042 11.5414-53.0891 11.1358-51.8984C10.7313-50.7087 9.61357-49.9083 8.3563-49.9094C7.72167-49.9083 7.1034-50.1155 6.59853-50.4993C6.17326-50.8112 2.48433-53.7216 2.48433-58.7157C2.48433-61.8311 3.72197-64.8178 5.92464-67.0194C8.12622-69.222 11.1129-70.4597 14.2283-70.4597L64.1362-70.4597C67.2504-70.4597 70.2371-69.222 72.4398-67.0194C74.6414-64.8178 75.879-61.8311 75.879-58.7157L75.879-20.5507L78.8144-20.5507C79.4502-20.5507 80.0684-20.3457 80.5766-19.964C81.0171-19.6489 84.6864-16.7385 84.6864-11.7444ZM34.8734-18.5399C35.2856-19.7547 36.4316-20.567 37.7139-20.5507L70.007-20.5507L70.007-58.7157C70.007-60.274 69.3888-61.7668 68.2874-62.8681C67.1872-63.9694 65.6933-64.5877 64.1362-64.5877L24.3889-64.5877C25.4281-62.8048 25.9733-60.7788 25.9711-58.7157L25.9711-11.7444C25.9711-8.50143 28.6001-5.8724 31.842-5.8724C35.0849-5.8724 37.7139-8.50143 37.7139-11.7444C37.7139-13.85 35.942-15.2741 35.9235-15.2883C34.8963-16.0232 34.4699-17.3437 34.8734-18.5399ZM78.8144-11.7444C78.7785-12.8315 78.3586-13.8718 77.6291-14.6798L43.1345-14.6798C43.4289-13.729 43.5794-12.7388 43.5783-11.7444C43.5816-9.68237 43.0374-7.65635 42.0037-5.8724L72.9436-5.8724C76.1865-5.8724 78.8144-8.50143 78.8144-11.7444Z"/>
  </g>
 </g>
</svg>
