<?xml version="1.0" encoding="UTF-8"?>
<svg height="600" width="800" xmlns="http://www.w3.org/2000/svg" xmlns:xlink="http://www.w3.org/1999/xlink">
    <g id="Notes" font-family="'LucidaGrande', 'Lucida Grande', sans-serif" font-size="13">
        <rect fill="white" height="600.0" width="800.0" x="0.0" y="0.0" />
        <g font-size="13">
            <text x="18.0" y="176.0">Small</text>
            <text x="18.0" y="376.0">Medium</text>
            <text x="18.0" y="576.0">Large</text>
        </g>
        <g font-size="9">
            <text x="250.0" y="30.0">Ultralight</text>
            <text x="450.0" y="30.0">Regular</text>
            <text x="650.0" y="30.0">Black</text>
            <text id="template-version" fill="#505050" text-anchor="end" x="785.0" y="575.0">Template v.3.0</text>
            <a href="https://github.com/swhitty/SwiftDraw">
                <text fill="#505050" text-anchor="end" x="785.0" y="590.0">https://github.com/swhitty/SwiftDraw</text>
            </a>
        </g>
    </g>
    <g id="Guides" stroke="rgb(39, 170, 225)" stroke-width="0.5">
        <path id="Capline-S" d="M18,76 l800,0" />
        <path id="H-reference" d="M85,145.755 L87.685,145.755 L113.369,79.287 L114.052,79.287 L114.052,76 L112.148,76 L85,145.755 Z M95.693,121.536 L130.996,121.536 L130.263,119.313 L96.474,119.313 L95.693,121.536 Z M139.15,145.755 L141.787,145.755 L114.638,76 L113.466,76 L113.466,79.287 L139.15,145.755 Z" stroke="none" />
        <path id="Baseline-S" d="M18,146 l800,0" />
        <path id="left-margin-Ultralight-S" d="M220,56 l0,110" />
        <path id="right-margin-Ultralight-S" d="M310,56 l0,110" />
        <path id="left-margin-Regular-S" d="M420,56 l0,110" />
        <path id="right-margin-Regular-S" d="M510,56 l0,110" />
        <path id="left-margin-Black-S" d="M620,56 l0,110" />
        <path id="right-margin-Black-S" d="M710,56 l0,110" />
        <path id="Capline-M" d="M18,276 l800,0" />
        <path id="Baseline-M" d="M18,346 l800,0" />
        <path id="Capline-L" d="M18,476 l800,0" />
        <path id="Baseline-L" d="M18,546 l800,0" />
    </g>
    <g id="Symbols">
        <g id="Ultralight-S">
            <path d="M302.474,91.508 C301.913,89.757 300.346,88.522 298.513,88.385 L286.081,87.402 L281.299,76.074 C280.585,74.397 278.938,73.309 277.115,73.309 C275.293,73.309 273.646,74.397 272.932,76.074 L268.15,87.402 L255.718,88.385 C253.892,88.519 252.329,89.745 251.764,91.486 C251.198,93.228 251.742,95.138 253.14,96.32 L262.584,104.289 L259.703,116.2 C259.274,117.964 259.952,119.812 261.419,120.881 C262.9,121.972 264.893,122.064 266.467,121.113 L277.115,114.702 L287.767,121.116 C289.342,122.065 291.333,121.973 292.815,120.884 C294.279,119.813 294.955,117.966 294.528,116.203 L291.647,104.293 L301.09,96.324 C302.489,95.15 303.036,93.245 302.474,91.508 Z M286.902,101.24 C286.123,101.899 285.783,102.941 286.024,103.933 L288.81,115.446 L278.505,109.25 C277.651,108.736 276.583,108.736 275.729,109.25 L265.424,115.452 L268.211,103.933 C268.451,102.941 268.109,101.898 267.329,101.24 L258.269,93.588 L270.223,92.642 C271.226,92.562 272.101,91.93 272.491,91.003 L277.115,80.008 L281.756,91.003 C282.147,91.93 283.022,92.562 284.025,92.642 L295.982,93.588 Z M251.565,109.378 L231.905,129.059 C230.854,130.11 229.149,130.111 228.096,129.06 C227.044,128.008 227.043,126.303 228.094,125.25 L247.765,105.579 C248.815,104.528 250.521,104.527 251.573,105.578 C252.626,106.63 252.627,108.335 251.575,109.388 Z M255.203,126.161 C256.254,127.212 256.254,128.916 255.203,129.967 L237.289,147.905 C236.239,148.956 234.533,148.957 233.481,147.906 C232.428,146.854 232.427,145.149 233.479,144.096 L251.406,126.172 C252.457,125.121 254.162,125.12 255.213,126.171 Z M279.771,125.825 C280.276,126.33 280.56,127.015 280.56,127.729 C280.56,128.444 280.276,129.129 279.771,129.634 L261.503,147.901 C260.453,148.953 258.747,148.954 257.695,147.902 C256.642,146.851 256.641,145.145 257.693,144.093 L275.963,125.826 C276.469,125.316 277.158,125.029 277.876,125.03 C278.594,125.03 279.282,125.318 279.788,125.828 Z" />
        </g>
        <g id="Regular-S">
            <path d="M502.474,91.508 C501.913,89.757 500.346,88.522 498.512,88.385 L486.081,87.402 L481.299,76.074 C480.584,74.397 478.938,73.309 477.115,73.309 C475.293,73.309 473.646,74.397 472.932,76.074 L468.15,87.402 L455.718,88.385 C453.892,88.519 452.329,89.745 451.764,91.486 C451.198,93.228 451.742,95.138 453.14,96.32 L462.584,104.289 L459.703,116.2 C459.274,117.964 459.952,119.812 461.419,120.881 C462.9,121.972 464.893,122.064 466.467,121.113 L477.115,114.702 L487.767,121.116 C489.342,122.065 491.333,121.973 492.815,120.884 C494.279,119.813 494.955,117.966 494.528,116.203 L491.647,104.293 L501.09,96.324 C502.489,95.15 503.036,93.245 502.474,91.508 Z M486.902,101.24 C486.123,101.899 485.783,102.941 486.024,103.933 L488.81,115.446 L478.505,109.25 C477.651,108.736 476.583,108.736 475.729,109.25 L465.424,115.452 L468.211,103.933 C468.451,102.941 468.109,101.898 467.329,101.24 L458.269,93.588 L470.223,92.642 C471.226,92.562 472.101,91.93 472.491,91.003 L477.115,80.008 L481.756,91.003 C482.147,91.93 483.022,92.562 484.025,92.642 L495.982,93.588 Z M451.565,109.378 L431.905,129.059 C430.854,130.11 429.149,130.111 428.096,129.06 C427.044,128.008 427.043,126.303 428.094,125.25 L447.765,105.579 C448.815,104.528 450.521,104.527 451.573,105.578 C452.626,106.63 452.627,108.335 451.575,109.388 Z M455.203,126.161 C456.254,127.212 456.254,128.916 455.203,129.967 L437.289,147.905 C436.239,148.956 434.533,148.957 433.481,147.906 C432.428,146.854 432.427,145.149 433.479,144.096 L451.406,126.172 C452.457,125.121 454.162,125.12 455.213,126.171 Z M479.771,125.825 C480.276,126.33 480.56,127.015 480.56,127.729 C480.56,128.444 480.276,129.129 479.771,129.634 L461.503,147.901 C460.453,148.953 458.747,148.954 457.695,147.902 C456.642,146.851 456.641,145.145 457.693,144.093 L475.963,125.826 C476.469,125.316 477.158,125.029 477.876,125.03 C478.594,125.03 479.282,125.318 479.787,125.828 Z" />
        </g>
        <g id="Black-S">
            <path d="M702.474,91.508 C701.913,89.757 700.346,88.522 698.513,88.385 L686.081,87.402 L681.299,76.074 C680.585,74.397 678.938,73.309 677.115,73.309 C675.293,73.309 673.646,74.397 672.932,76.074 L668.15,87.402 L655.718,88.385 C653.892,88.519 652.329,89.745 651.764,91.486 C651.198,93.228 651.742,95.138 653.14,96.32 L662.584,104.289 L659.703,116.2 C659.274,117.964 659.952,119.812 661.419,120.881 C662.9,121.972 664.893,122.064 666.467,121.113 L677.115,114.702 L687.767,121.116 C689.342,122.065 691.333,121.973 692.815,120.884 C694.279,119.813 694.955,117.966 694.528,116.203 L691.647,104.293 L701.09,96.324 C702.489,95.15 703.036,93.245 702.474,91.508 Z M686.902,101.24 C686.123,101.899 685.783,102.941 686.024,103.933 L688.81,115.446 L678.505,109.25 C677.651,108.736 676.583,108.736 675.729,109.25 L665.424,115.452 L668.211,103.933 C668.451,102.941 668.109,101.898 667.329,101.24 L658.269,93.588 L670.223,92.642 C671.226,92.562 672.101,91.93 672.491,91.003 L677.115,80.008 L681.756,91.003 C682.147,91.93 683.022,92.562 684.025,92.642 L695.982,93.588 Z M651.565,109.378 L631.905,129.059 C630.854,130.11 629.149,130.111 628.096,129.06 C627.044,128.008 627.043,126.303 628.094,125.25 L647.765,105.579 C648.815,104.528 650.521,104.527 651.573,105.578 C652.626,106.63 652.627,108.335 651.576,109.388 Z M655.203,126.161 C656.254,127.212 656.254,128.916 655.203,129.967 L637.289,147.905 C636.239,148.956 634.533,148.957 633.481,147.906 C632.428,146.854 632.427,145.149 633.479,144.096 L651.406,126.172 C652.457,125.121 654.162,125.12 655.214,126.171 Z M679.771,125.825 C680.276,126.33 680.56,127.015 680.56,127.729 C680.56,128.444 680.276,129.129 679.771,129.634 L661.503,147.901 C660.453,148.953 658.747,148.954 657.695,147.902 C656.642,146.851 656.641,145.145 657.693,144.093 L675.963,125.826 C676.469,125.316 677.158,125.029 677.876,125.03 C678.594,125.03 679.282,125.318 679.788,125.828 Z" />
        </g>
    </g>
</svg>