<?xml version="1.0" encoding="UTF-8"?>
<svg height="600" width="800" xmlns="http://www.w3.org/2000/svg" xmlns:xlink="http://www.w3.org/1999/xlink">
    <g id="Notes" font-family="'LucidaGrande', 'Lucida Grande', sans-serif" font-size="13">
        <rect fill="white" height="600.0" width="800.0" x="0.0" y="0.0" />
        <g font-size="13">
            <text x="18.0" y="176.0">Small</text>
            <text x="18.0" y="376.0">Medium</text>
            <text x="18.0" y="576.0">Large</text>
        </g>
        <g font-size="9">
            <text x="250.0" y="30.0">Ultralight</text>
            <text x="450.0" y="30.0">Regular</text>
            <text x="650.0" y="30.0">Black</text>
            <text id="template-version" fill="#505050" text-anchor="end" x="785.0" y="575.0">Template v.3.0</text>
            <a href="https://github.com/swhitty/SwiftDraw">
                <text fill="#505050" text-anchor="end" x="785.0" y="590.0">https://github.com/swhitty/SwiftDraw</text>
            </a>
        </g>
    </g>
    <g id="Guides" stroke="rgb(39, 170, 225)" stroke-width="0.5">
        <path id="Capline-S" d="M18,76 l800,0" />
        <path id="H-reference" d="M85,145.755 L87.685,145.755 L113.369,79.287 L114.052,79.287 L114.052,76 L112.148,76 L85,145.755 Z M95.693,121.536 L130.996,121.536 L130.263,119.313 L96.474,119.313 L95.693,121.536 Z M139.15,145.755 L141.787,145.755 L114.638,76 L113.466,76 L113.466,79.287 L139.15,145.755 Z" stroke="none" />
        <path id="Baseline-S" d="M18,146 l800,0" />
        <path id="left-margin-Ultralight-S" d="M220,56 l0,110" />
        <path id="right-margin-Ultralight-S" d="M310,56 l0,110" />
        <path id="left-margin-Regular-S" d="M420,56 l0,110" />
        <path id="right-margin-Regular-S" d="M510,56 l0,110" />
        <path id="left-margin-Black-S" d="M620,56 l0,110" />
        <path id="right-margin-Black-S" d="M710,56 l0,110" />
        <path id="Capline-M" d="M18,276 l800,0" />
        <path id="Baseline-M" d="M18,346 l800,0" />
        <path id="Capline-L" d="M18,476 l800,0" />
        <path id="Baseline-L" d="M18,546 l800,0" />
    </g>
    <g id="Symbols">
        <g id="Ultralight-S">
            <path d="M302.416,100.655 C301.728,98.539 299.835,97.044 297.617,96.865 L277.762,95.263 L270.095,76.724 C269.247,74.657 267.235,73.308 265.002,73.308 C262.768,73.308 260.756,74.657 259.908,76.724 L252.249,95.26 L232.383,96.865 C230.161,97.053 228.269,98.554 227.581,100.675 C226.892,102.795 227.542,105.121 229.229,106.578 L244.374,119.646 L239.76,139.185 C239.232,141.356 240.067,143.631 241.874,144.945 C243.68,146.259 246.102,146.353 248.005,145.182 L265,134.723 L282.005,145.182 C283.909,146.339 286.32,146.238 288.121,144.927 C289.921,143.616 290.757,141.352 290.24,139.185 L285.61,119.642 L300.754,106.575 C302.455,105.12 303.112,102.783 302.416,100.655 Z M297.254,102.496 L280.864,116.63 C280.103,117.287 279.77,118.314 280.003,119.292 L285.011,140.427 C285.037,140.487 285.012,140.558 284.953,140.588 C284.893,140.636 284.876,140.625 284.826,140.588 L266.41,129.264 C265.545,128.732 264.455,128.732 263.59,129.264 L245.175,140.595 C245.124,140.625 245.111,140.636 245.047,140.595 C244.988,140.565 244.963,140.494 244.989,140.434 L249.997,119.299 C250.23,118.32 249.897,117.294 249.136,116.637 L232.746,102.502 C232.706,102.469 232.669,102.438 232.702,102.334 C232.736,102.23 232.763,102.243 232.813,102.237 L254.325,100.5 C255.331,100.414 256.204,99.772 256.587,98.838 L264.872,78.776 C264.899,78.719 264.909,78.692 264.99,78.692 C265.071,78.692 265.081,78.719 265.108,78.776 L273.413,98.838 C273.8,99.772 274.677,100.412 275.685,100.493 L297.197,102.23 C297.247,102.23 297.277,102.23 297.308,102.327 C297.338,102.425 297.308,102.462 297.254,102.496 Z" />
        </g>
        <g id="Regular-S">
            <path d="M502.416,100.655 C501.728,98.539 499.835,97.044 497.617,96.865 L477.762,95.263 L470.095,76.724 C469.247,74.657 467.235,73.308 465.002,73.308 C462.768,73.308 460.756,74.657 459.908,76.724 L452.249,95.26 L432.383,96.865 C430.161,97.053 428.269,98.554 427.581,100.675 C426.892,102.795 427.542,105.121 429.229,106.578 L444.374,119.646 L439.76,139.185 C439.232,141.356 440.067,143.631 441.874,144.945 C443.68,146.259 446.102,146.353 448.005,145.182 L465,134.723 L482.005,145.182 C483.909,146.339 486.32,146.238 488.121,144.927 C489.921,143.616 490.757,141.352 490.24,139.185 L485.61,119.642 L500.754,106.575 C502.455,105.12 503.112,102.783 502.416,100.655 Z M497.254,102.496 L480.864,116.63 C480.103,117.287 479.77,118.314 480.003,119.292 L485.011,140.427 C485.037,140.487 485.012,140.558 484.953,140.588 C484.893,140.636 484.876,140.625 484.825,140.588 L466.41,129.264 C465.545,128.732 464.455,128.732 463.59,129.264 L445.174,140.595 C445.124,140.625 445.111,140.636 445.047,140.595 C444.988,140.565 444.962,140.494 444.989,140.434 L449.997,119.299 C450.23,118.32 449.897,117.294 449.136,116.637 L432.746,102.502 C432.706,102.469 432.669,102.438 432.702,102.334 C432.736,102.23 432.763,102.243 432.813,102.237 L454.325,100.5 C455.331,100.414 456.204,99.772 456.587,98.838 L464.872,78.776 C464.899,78.719 464.909,78.692 464.99,78.692 C465.071,78.692 465.081,78.719 465.108,78.776 L473.413,98.838 C473.8,99.772 474.677,100.412 475.685,100.493 L497.197,102.23 C497.247,102.23 497.277,102.23 497.308,102.327 C497.338,102.425 497.308,102.462 497.254,102.496 Z" />
        </g>
        <g id="Black-S">
            <path d="M702.416,100.655 C701.728,98.539 699.835,97.044 697.617,96.865 L677.762,95.263 L670.095,76.724 C669.247,74.657 667.235,73.308 665.002,73.308 C662.768,73.308 660.756,74.657 659.908,76.724 L652.249,95.26 L632.383,96.865 C630.161,97.053 628.269,98.554 627.581,100.675 C626.892,102.795 627.542,105.121 629.229,106.578 L644.374,119.646 L639.76,139.185 C639.232,141.356 640.067,143.631 641.874,144.945 C643.68,146.259 646.102,146.353 648.005,145.182 L665,134.723 L682.005,145.182 C683.909,146.339 686.32,146.238 688.121,144.927 C689.921,143.616 690.757,141.352 690.24,139.185 L685.61,119.642 L700.754,106.575 C702.455,105.12 703.112,102.783 702.416,100.655 Z M697.254,102.496 L680.864,116.63 C680.103,117.287 679.77,118.314 680.003,119.292 L685.011,140.427 C685.037,140.487 685.012,140.558 684.953,140.588 C684.893,140.636 684.876,140.625 684.826,140.588 L666.41,129.264 C665.545,128.732 664.455,128.732 663.59,129.264 L645.175,140.595 C645.124,140.625 645.111,140.636 645.047,140.595 C644.988,140.565 644.963,140.494 644.989,140.434 L649.997,119.299 C650.23,118.32 649.898,117.294 649.136,116.637 L632.746,102.502 C632.706,102.469 632.669,102.438 632.702,102.334 C632.736,102.23 632.763,102.243 632.813,102.237 L654.325,100.5 C655.331,100.414 656.204,99.772 656.587,98.838 L664.872,78.776 C664.899,78.719 664.909,78.692 664.99,78.692 C665.071,78.692 665.081,78.719 665.108,78.776 L673.413,98.838 C673.8,99.772 674.677,100.412 675.685,100.493 L697.197,102.23 C697.247,102.23 697.277,102.23 697.308,102.327 C697.338,102.425 697.308,102.462 697.254,102.496 Z" />
        </g>
    </g>
</svg>