<?xml version="1.0" encoding="UTF-8"?>
<svg height="600" width="800" xmlns="http://www.w3.org/2000/svg" xmlns:xlink="http://www.w3.org/1999/xlink">
    <g id="Notes" font-family="'LucidaGrande', 'Lucida Grande', sans-serif" font-size="13">
        <rect fill="white" height="600.0" width="800.0" x="0.0" y="0.0" />
        <g font-size="13">
            <text x="18.0" y="176.0">Small</text>
            <text x="18.0" y="376.0">Medium</text>
            <text x="18.0" y="576.0">Large</text>
        </g>
        <g font-size="9">
            <text x="250.0" y="30.0">Ultralight</text>
            <text x="450.0" y="30.0">Regular</text>
            <text x="650.0" y="30.0">Black</text>
            <text id="template-version" fill="#505050" text-anchor="end" x="785.0" y="575.0">Template v.3.0</text>
            <a href="https://github.com/swhitty/SwiftDraw">
                <text fill="#505050" text-anchor="end" x="785.0" y="590.0">https://github.com/swhitty/SwiftDraw</text>
            </a>
        </g>
    </g>
    <g id="Guides" stroke="rgb(39, 170, 225)" stroke-width="0.5">
        <path id="Capline-S" d="M18,76 l800,0" />
        <path id="H-reference" d="M85,145.755 L87.685,145.755 L113.369,79.287 L114.052,79.287 L114.052,76 L112.148,76 L85,145.755 Z M95.693,121.536 L130.996,121.536 L130.263,119.313 L96.474,119.313 L95.693,121.536 Z M139.15,145.755 L141.787,145.755 L114.638,76 L113.466,76 L113.466,79.287 L139.15,145.755 Z" stroke="none" />
        <path id="Baseline-S" d="M18,146 l800,0" />
        <path id="left-margin-Ultralight-S" d="M220,56 l0,110" />
        <path id="right-margin-Ultralight-S" d="M310,56 l0,110" />
        <path id="left-margin-Regular-S" d="M420,56 l0,110" />
        <path id="right-margin-Regular-S" d="M510,56 l0,110" />
        <path id="left-margin-Black-S" d="M620,56 l0,110" />
        <path id="right-margin-Black-S" d="M710,56 l0,110" />
        <path id="Capline-M" d="M18,276 l800,0" />
        <path id="Baseline-M" d="M18,346 l800,0" />
        <path id="Capline-L" d="M18,476 l800,0" />
        <path id="Baseline-L" d="M18,546 l800,0" />
    </g>
    <g id="Symbols">
        <g id="Ultralight-S">
            <path d="M294.615,92.154 L232.692,92.154 L232.692,84.077 C232.692,82.59 231.487,81.385 230,81.385 C228.513,81.385 227.308,82.59 227.308,84.077 L227.308,137.923 C227.308,139.41 228.513,140.615 230,140.615 C231.487,140.615 232.692,139.41 232.692,137.923 L232.692,127.154 L302.692,127.154 L302.692,137.923 C302.692,139.41 303.898,140.615 305.385,140.615 C306.872,140.615 308.077,139.41 308.077,137.923 L308.077,105.615 C308.077,102.045 306.659,98.621 304.134,96.097 C301.61,93.572 298.186,92.154 294.615,92.154 Z M232.692,97.538 L256.923,97.538 L256.923,121.769 L232.692,121.769 Z M262.308,121.769 L262.308,97.538 L294.615,97.538 C296.758,97.538 298.812,98.389 300.327,99.904 C301.841,101.419 302.692,103.473 302.692,105.615 L302.692,121.769 Z" />
        </g>
        <g id="Regular-S">
            <path d="M494.615,92.154 L432.692,92.154 L432.692,84.077 C432.692,82.59 431.487,81.385 430,81.385 C428.513,81.385 427.308,82.59 427.308,84.077 L427.308,137.923 C427.308,139.41 428.513,140.615 430,140.615 C431.487,140.615 432.692,139.41 432.692,137.923 L432.692,127.154 L502.692,127.154 L502.692,137.923 C502.692,139.41 503.898,140.615 505.385,140.615 C506.872,140.615 508.077,139.41 508.077,137.923 L508.077,105.615 C508.077,102.045 506.659,98.621 504.134,96.097 C501.61,93.572 498.186,92.154 494.615,92.154 Z M432.692,97.538 L456.923,97.538 L456.923,121.769 L432.692,121.769 Z M462.308,121.769 L462.308,97.538 L494.615,97.538 C496.758,97.538 498.812,98.389 500.327,99.904 C501.841,101.419 502.692,103.473 502.692,105.615 L502.692,121.769 Z" />
        </g>
        <g id="Black-S">
            <path d="M694.615,92.154 L632.692,92.154 L632.692,84.077 C632.692,82.59 631.487,81.385 630,81.385 C628.513,81.385 627.308,82.59 627.308,84.077 L627.308,137.923 C627.308,139.41 628.513,140.615 630,140.615 C631.487,140.615 632.692,139.41 632.692,137.923 L632.692,127.154 L702.692,127.154 L702.692,137.923 C702.692,139.41 703.898,140.615 705.385,140.615 C706.872,140.615 708.077,139.41 708.077,137.923 L708.077,105.615 C708.077,102.045 706.659,98.621 704.134,96.097 C701.61,93.572 698.186,92.154 694.615,92.154 Z M632.692,97.538 L656.923,97.538 L656.923,121.769 L632.692,121.769 Z M662.308,121.769 L662.308,97.538 L694.615,97.538 C696.758,97.538 698.812,98.389 700.327,99.904 C701.841,101.419 702.692,103.473 702.692,105.615 L702.692,121.769 Z" />
        </g>
    </g>
</svg>