<?xml version="1.0" encoding="UTF-8"?>
<svg height="600" width="800" xmlns="http://www.w3.org/2000/svg" xmlns:xlink="http://www.w3.org/1999/xlink">
    <g id="Notes" font-family="'LucidaGrande', 'Lucida Grande', sans-serif" font-size="13">
        <rect fill="white" height="600.0" width="800.0" x="0.0" y="0.0" />
        <g font-size="13">
            <text x="18.0" y="176.0">Small</text>
            <text x="18.0" y="376.0">Medium</text>
            <text x="18.0" y="576.0">Large</text>
        </g>
        <g font-size="9">
            <text x="250.0" y="30.0">Ultralight</text>
            <text x="450.0" y="30.0">Regular</text>
            <text x="650.0" y="30.0">Black</text>
            <text id="template-version" fill="#505050" text-anchor="end" x="785.0" y="575.0">Template v.3.0</text>
            <a href="https://github.com/swhitty/SwiftDraw">
                <text fill="#505050" text-anchor="end" x="785.0" y="590.0">https://github.com/swhitty/SwiftDraw</text>
            </a>
        </g>
    </g>
    <g id="Guides" stroke="rgb(39, 170, 225)" stroke-width="0.5">
        <path id="Capline-S" d="M18,76 l800,0" />
        <path id="H-reference" d="M85,145.755 L87.685,145.755 L113.369,79.287 L114.052,79.287 L114.052,76 L112.148,76 L85,145.755 Z M95.693,121.536 L130.996,121.536 L130.263,119.313 L96.474,119.313 L95.693,121.536 Z M139.15,145.755 L141.787,145.755 L114.638,76 L113.466,76 L113.466,79.287 L139.15,145.755 Z" stroke="none" />
        <path id="Baseline-S" d="M18,146 l800,0" />
        <path id="left-margin-Ultralight-S" d="M220,56 l0,110" />
        <path id="right-margin-Ultralight-S" d="M310,56 l0,110" />
        <path id="left-margin-Regular-S" d="M420,56 l0,110" />
        <path id="right-margin-Regular-S" d="M510,56 l0,110" />
        <path id="left-margin-Black-S" d="M620,56 l0,110" />
        <path id="right-margin-Black-S" d="M710,56 l0,110" />
        <path id="Capline-M" d="M18,276 l800,0" />
        <path id="Baseline-M" d="M18,346 l800,0" />
        <path id="Capline-L" d="M18,476 l800,0" />
        <path id="Baseline-L" d="M18,546 l800,0" />
    </g>
    <g id="Symbols">
        <g id="Ultralight-S">
            <path d="M293.734,79.392 C292.633,78.392 290.931,78.474 289.931,79.574 L288.285,81.385 L265,81.385 C253.262,81.393 242.637,88.332 237.911,99.077 C233.185,109.822 235.252,122.344 243.179,131 L236.085,138.805 C235.424,139.514 235.196,140.525 235.488,141.449 C235.779,142.374 236.546,143.07 237.494,143.272 C238.442,143.475 239.426,143.151 240.069,142.426 L247.163,134.625 C252.294,138.519 258.559,140.623 265,140.615 L289.231,140.615 C290.718,140.615 291.923,139.41 291.923,137.923 C291.923,136.436 290.718,135.231 289.231,135.231 L265,135.231 C259.9,135.234 254.93,133.62 250.805,130.62 L293.915,83.195 C294.915,82.095 294.834,80.392 293.734,79.392 Z M240.769,111 C240.785,97.623 251.625,86.784 265.001,86.769 L283.389,86.769 L246.827,126.996 C242.922,122.582 240.767,116.893 240.769,111 Z" />
        </g>
        <g id="Regular-S">
            <path d="M493.734,79.392 C492.633,78.392 490.931,78.474 489.931,79.574 L488.285,81.385 L465,81.385 C453.262,81.393 442.637,88.332 437.911,99.077 C433.185,109.822 435.252,122.344 443.179,131 L436.085,138.805 C435.424,139.514 435.196,140.525 435.488,141.449 C435.779,142.374 436.546,143.07 437.494,143.272 C438.442,143.475 439.426,143.151 440.069,142.426 L447.163,134.625 C452.294,138.519 458.559,140.623 465,140.615 L489.231,140.615 C490.718,140.615 491.923,139.41 491.923,137.923 C491.923,136.436 490.718,135.231 489.231,135.231 L465,135.231 C459.9,135.234 454.93,133.62 450.805,130.62 L493.915,83.195 C494.915,82.095 494.834,80.392 493.734,79.392 Z M440.769,111 C440.785,97.623 451.625,86.784 465.001,86.769 L483.389,86.769 L446.827,126.996 C442.922,122.582 440.767,116.893 440.769,111 Z" />
        </g>
        <g id="Black-S">
            <path d="M693.734,79.392 C692.633,78.392 690.931,78.474 689.931,79.574 L688.285,81.385 L665,81.385 C653.262,81.393 642.637,88.332 637.911,99.077 C633.185,109.822 635.252,122.344 643.179,131 L636.085,138.805 C635.424,139.514 635.196,140.525 635.488,141.449 C635.779,142.374 636.546,143.07 637.494,143.272 C638.442,143.475 639.426,143.151 640.069,142.426 L647.163,134.625 C652.294,138.519 658.559,140.623 665,140.615 L689.231,140.615 C690.718,140.615 691.923,139.41 691.923,137.923 C691.923,136.436 690.718,135.231 689.231,135.231 L665,135.231 C659.9,135.234 654.93,133.62 650.805,130.62 L693.915,83.195 C694.915,82.095 694.834,80.392 693.734,79.392 Z M640.769,111 C640.785,97.623 651.625,86.784 665.001,86.769 L683.389,86.769 L646.827,126.996 C642.922,122.582 640.767,116.893 640.769,111 Z" />
        </g>
    </g>
</svg>