<?xml version="1.0" encoding="UTF-8"?>
<svg height="600" width="800" xmlns="http://www.w3.org/2000/svg" xmlns:xlink="http://www.w3.org/1999/xlink">
    <g id="Notes" font-family="'LucidaGrande', 'Lucida Grande', sans-serif" font-size="13">
        <rect fill="white" height="600.0" width="800.0" x="0.0" y="0.0" />
        <g font-size="13">
            <text x="18.0" y="176.0">Small</text>
            <text x="18.0" y="376.0">Medium</text>
            <text x="18.0" y="576.0">Large</text>
        </g>
        <g font-size="9">
            <text x="250.0" y="30.0">Ultralight</text>
            <text x="450.0" y="30.0">Regular</text>
            <text x="650.0" y="30.0">Black</text>
            <text id="template-version" fill="#505050" text-anchor="end" x="785.0" y="575.0">Template v.3.0</text>
            <a href="https://github.com/swhitty/SwiftDraw">
                <text fill="#505050" text-anchor="end" x="785.0" y="590.0">https://github.com/swhitty/SwiftDraw</text>
            </a>
        </g>
    </g>
    <g id="Guides" stroke="rgb(39, 170, 225)" stroke-width="0.5">
        <path id="Capline-S" d="M18,76 l800,0" />
        <path id="H-reference" d="M85,145.755 L87.685,145.755 L113.369,79.287 L114.052,79.287 L114.052,76 L112.148,76 L85,145.755 Z M95.693,121.536 L130.996,121.536 L130.263,119.313 L96.474,119.313 L95.693,121.536 Z M139.15,145.755 L141.787,145.755 L114.638,76 L113.466,76 L113.466,79.287 L139.15,145.755 Z" stroke="none" />
        <path id="Baseline-S" d="M18,146 l800,0" />
        <path id="left-margin-Ultralight-S" d="M220,56 l0,110" />
        <path id="right-margin-Ultralight-S" d="M310,56 l0,110" />
        <path id="left-margin-Regular-S" d="M420,56 l0,110" />
        <path id="right-margin-Regular-S" d="M510,56 l0,110" />
        <path id="left-margin-Black-S" d="M620,56 l0,110" />
        <path id="right-margin-Black-S" d="M710,56 l0,110" />
        <path id="Capline-M" d="M18,276 l800,0" />
        <path id="Baseline-M" d="M18,346 l800,0" />
        <path id="Capline-L" d="M18,476 l800,0" />
        <path id="Baseline-L" d="M18,546 l800,0" />
    </g>
    <g id="Symbols">
        <g id="Ultralight-S">
            <path d="M278.462,119.077 C278.462,125.017 272.424,129.846 265,129.846 C257.576,129.846 251.538,125.017 251.538,119.077 C251.538,117.59 252.744,116.385 254.231,116.385 C255.718,116.385 256.923,117.59 256.923,119.077 C256.923,121.995 260.625,124.462 265,124.462 C269.375,124.462 273.077,121.995 273.077,119.077 C273.077,115.887 270.179,114.702 264.031,112.932 C258.73,111.404 252.137,109.502 252.137,102.923 C252.137,96.785 257.667,92.154 265,92.154 C270.29,92.154 274.82,94.611 276.819,98.548 C277.289,99.41 277.252,100.459 276.724,101.286 C276.195,102.113 275.259,102.587 274.279,102.523 C273.3,102.459 272.433,101.867 272.017,100.978 C270.937,98.864 268.248,97.538 265,97.538 C260.736,97.538 257.522,99.854 257.522,102.923 C257.522,105.279 260.551,106.322 265.522,107.756 C270.984,109.317 278.462,111.488 278.462,119.077 Z M297.308,84.077 L297.308,137.923 C297.308,139.351 296.74,140.721 295.731,141.731 C294.721,142.74 293.351,143.308 291.923,143.308 L238.077,143.308 C236.649,143.308 235.279,142.74 234.269,141.731 C233.26,140.721 232.692,139.351 232.692,137.923 L232.692,84.077 C232.692,82.649 233.26,81.279 234.269,80.269 C235.279,79.26 236.649,78.692 238.077,78.692 L291.923,78.692 C293.351,78.692 294.721,79.26 295.731,80.269 C296.74,81.279 297.308,82.649 297.308,84.077 Z M291.923,137.923 L291.923,84.077 L238.077,84.077 L238.077,137.923 L291.923,137.923 Z" />
        </g>
        <g id="Regular-S">
            <path d="M478.462,119.077 C478.462,125.017 472.424,129.846 465,129.846 C457.576,129.846 451.538,125.017 451.538,119.077 C451.538,117.59 452.744,116.385 454.231,116.385 C455.718,116.385 456.923,117.59 456.923,119.077 C456.923,121.995 460.625,124.462 465,124.462 C469.375,124.462 473.077,121.995 473.077,119.077 C473.077,115.887 470.179,114.702 464.031,112.932 C458.73,111.404 452.137,109.502 452.137,102.923 C452.137,96.785 457.667,92.154 465,92.154 C470.29,92.154 474.82,94.611 476.819,98.548 C477.289,99.41 477.252,100.459 476.724,101.286 C476.195,102.113 475.259,102.587 474.279,102.523 C473.3,102.459 472.433,101.867 472.017,100.978 C470.937,98.864 468.248,97.538 465,97.538 C460.736,97.538 457.522,99.854 457.522,102.923 C457.522,105.279 460.551,106.322 465.522,107.756 C470.984,109.317 478.462,111.488 478.462,119.077 Z M497.308,84.077 L497.308,137.923 C497.308,139.351 496.74,140.721 495.731,141.731 C494.721,142.74 493.351,143.308 491.923,143.308 L438.077,143.308 C436.649,143.308 435.279,142.74 434.269,141.731 C433.26,140.721 432.692,139.351 432.692,137.923 L432.692,84.077 C432.692,82.649 433.26,81.279 434.269,80.269 C435.279,79.26 436.649,78.692 438.077,78.692 L491.923,78.692 C493.351,78.692 494.721,79.26 495.731,80.269 C496.74,81.279 497.308,82.649 497.308,84.077 Z M491.923,137.923 L491.923,84.077 L438.077,84.077 L438.077,137.923 L491.923,137.923 Z" />
        </g>
        <g id="Black-S">
            <path d="M678.462,119.077 C678.462,125.017 672.424,129.846 665,129.846 C657.576,129.846 651.538,125.017 651.538,119.077 C651.538,117.59 652.744,116.385 654.231,116.385 C655.718,116.385 656.923,117.59 656.923,119.077 C656.923,121.995 660.625,124.462 665,124.462 C669.375,124.462 673.077,121.995 673.077,119.077 C673.077,115.887 670.179,114.702 664.031,112.932 C658.73,111.404 652.138,109.502 652.138,102.923 C652.138,96.785 657.667,92.154 665,92.154 C670.29,92.154 674.82,94.611 676.819,98.548 C677.289,99.41 677.252,100.459 676.724,101.286 C676.195,102.113 675.259,102.587 674.279,102.523 C673.3,102.459 672.433,101.867 672.017,100.978 C670.937,98.864 668.248,97.538 665,97.538 C660.736,97.538 657.522,99.854 657.522,102.923 C657.522,105.279 660.551,106.322 665.522,107.756 C670.984,109.317 678.462,111.488 678.462,119.077 Z M697.308,84.077 L697.308,137.923 C697.308,139.351 696.74,140.721 695.731,141.731 C694.721,142.74 693.351,143.308 691.923,143.308 L638.077,143.308 C636.649,143.308 635.279,142.74 634.269,141.731 C633.26,140.721 632.692,139.351 632.692,137.923 L632.692,84.077 C632.692,82.649 633.26,81.279 634.269,80.269 C635.279,79.26 636.649,78.692 638.077,78.692 L691.923,78.692 C693.351,78.692 694.721,79.26 695.731,80.269 C696.74,81.279 697.308,82.649 697.308,84.077 Z M691.923,137.923 L691.923,84.077 L638.077,84.077 L638.077,137.923 L691.923,137.923 Z" />
        </g>
    </g>
</svg>