<?xml version="1.0" encoding="UTF-8"?>
<svg height="600" width="800" xmlns="http://www.w3.org/2000/svg" xmlns:xlink="http://www.w3.org/1999/xlink">
    <g id="Notes" font-family="'LucidaGrande', 'Lucida Grande', sans-serif" font-size="13">
        <rect fill="white" height="600.0" width="800.0" x="0.0" y="0.0" />
        <g font-size="13">
            <text x="18.0" y="176.0">Small</text>
            <text x="18.0" y="376.0">Medium</text>
            <text x="18.0" y="576.0">Large</text>
        </g>
        <g font-size="9">
            <text x="250.0" y="30.0">Ultralight</text>
            <text x="450.0" y="30.0">Regular</text>
            <text x="650.0" y="30.0">Black</text>
            <text id="template-version" fill="#505050" text-anchor="end" x="785.0" y="575.0">Template v.3.0</text>
            <a href="https://github.com/swhitty/SwiftDraw">
                <text fill="#505050" text-anchor="end" x="785.0" y="590.0">https://github.com/swhitty/SwiftDraw</text>
            </a>
        </g>
    </g>
    <g id="Guides" stroke="rgb(39, 170, 225)" stroke-width="0.5">
        <path id="Capline-S" d="M18,76 l800,0" />
        <path id="H-reference" d="M85,145.755 L87.685,145.755 L113.369,79.287 L114.052,79.287 L114.052,76 L112.148,76 L85,145.755 Z M95.693,121.536 L130.996,121.536 L130.263,119.313 L96.474,119.313 L95.693,121.536 Z M139.15,145.755 L141.787,145.755 L114.638,76 L113.466,76 L113.466,79.287 L139.15,145.755 Z" stroke="none" />
        <path id="Baseline-S" d="M18,146 l800,0" />
        <path id="left-margin-Ultralight-S" d="M220,56 l0,110" />
        <path id="right-margin-Ultralight-S" d="M310,56 l0,110" />
        <path id="left-margin-Regular-S" d="M420,56 l0,110" />
        <path id="right-margin-Regular-S" d="M510,56 l0,110" />
        <path id="left-margin-Black-S" d="M620,56 l0,110" />
        <path id="right-margin-Black-S" d="M710,56 l0,110" />
        <path id="Capline-M" d="M18,276 l800,0" />
        <path id="Baseline-M" d="M18,346 l800,0" />
        <path id="Capline-L" d="M18,476 l800,0" />
        <path id="Baseline-L" d="M18,546 l800,0" />
    </g>
    <g id="Symbols">
        <g id="Ultralight-S">
            <path d="M297.025,90.949 L291.64,80.18 C291.184,79.268 290.251,78.692 289.231,78.692 L240.769,78.692 C239.749,78.692 238.816,79.268 238.36,80.18 L232.975,90.949 C232.789,91.324 232.693,91.736 232.692,92.154 L232.692,137.923 C232.692,139.351 233.26,140.721 234.269,141.731 C235.279,142.74 236.649,143.308 238.077,143.308 L291.923,143.308 C293.351,143.308 294.721,142.74 295.731,141.731 C296.74,140.721 297.308,139.351 297.308,137.923 L297.308,92.154 C297.307,91.736 297.211,91.323 297.025,90.949 Z M242.432,84.077 L287.568,84.077 L290.261,89.462 L239.739,89.462 Z M291.923,137.923 L238.077,137.923 L238.077,94.846 L291.923,94.846 L291.923,137.923 Z M277.674,111.788 C278.727,112.841 278.726,114.547 277.673,115.598 C276.62,116.65 274.915,116.649 273.863,115.596 L267.692,109.422 L267.692,129.846 C267.692,131.333 266.487,132.538 265,132.538 C263.513,132.538 262.308,131.333 262.308,129.846 L262.308,109.422 L256.136,115.597 C255.085,116.649 253.38,116.65 252.327,115.598 C251.274,114.547 251.273,112.841 252.325,111.789 L263.094,101.019 C263.599,100.514 264.284,100.23 264.999,100.23 C265.714,100.23 266.399,100.514 266.904,101.019 Z" />
        </g>
        <g id="Regular-S">
            <path d="M497.025,90.949 L491.64,80.18 C491.184,79.268 490.251,78.692 489.231,78.692 L440.769,78.692 C439.749,78.692 438.816,79.268 438.36,80.18 L432.975,90.949 C432.789,91.324 432.693,91.736 432.692,92.154 L432.692,137.923 C432.692,139.351 433.26,140.721 434.269,141.731 C435.279,142.74 436.649,143.308 438.077,143.308 L491.923,143.308 C493.351,143.308 494.721,142.74 495.731,141.731 C496.74,140.721 497.308,139.351 497.308,137.923 L497.308,92.154 C497.307,91.736 497.211,91.323 497.025,90.949 Z M442.432,84.077 L487.568,84.077 L490.261,89.462 L439.739,89.462 Z M491.923,137.923 L438.077,137.923 L438.077,94.846 L491.923,94.846 L491.923,137.923 Z M477.674,111.788 C478.727,112.841 478.726,114.547 477.673,115.598 C476.62,116.65 474.915,116.649 473.863,115.596 L467.692,109.422 L467.692,129.846 C467.692,131.333 466.487,132.538 465,132.538 C463.513,132.538 462.308,131.333 462.308,129.846 L462.308,109.422 L456.136,115.597 C455.085,116.649 453.38,116.65 452.327,115.598 C451.274,114.547 451.273,112.841 452.325,111.789 L463.094,101.019 C463.599,100.514 464.284,100.23 464.999,100.23 C465.714,100.23 466.399,100.514 466.904,101.019 Z" />
        </g>
        <g id="Black-S">
            <path d="M697.025,90.949 L691.64,80.18 C691.184,79.268 690.251,78.692 689.231,78.692 L640.769,78.692 C639.749,78.692 638.816,79.268 638.36,80.18 L632.975,90.949 C632.789,91.324 632.693,91.736 632.692,92.154 L632.692,137.923 C632.692,139.351 633.26,140.721 634.269,141.731 C635.279,142.74 636.649,143.308 638.077,143.308 L691.923,143.308 C693.351,143.308 694.721,142.74 695.731,141.731 C696.74,140.721 697.308,139.351 697.308,137.923 L697.308,92.154 C697.307,91.736 697.211,91.323 697.025,90.949 Z M642.432,84.077 L687.568,84.077 L690.261,89.462 L639.739,89.462 Z M691.923,137.923 L638.077,137.923 L638.077,94.846 L691.923,94.846 L691.923,137.923 Z M677.674,111.788 C678.727,112.841 678.726,114.547 677.673,115.598 C676.62,116.65 674.915,116.649 673.863,115.596 L667.692,109.422 L667.692,129.846 C667.692,131.333 666.487,132.538 665,132.538 C663.513,132.538 662.308,131.333 662.308,129.846 L662.308,109.422 L656.136,115.597 C655.085,116.649 653.38,116.65 652.327,115.598 C651.274,114.547 651.273,112.841 652.325,111.789 L663.094,101.019 C663.599,100.514 664.284,100.23 664.999,100.23 C665.714,100.23 666.399,100.514 666.904,101.019 Z" />
        </g>
    </g>
</svg>