<?xml version="1.0" encoding="UTF-8"?>
<svg height="600" width="800" xmlns="http://www.w3.org/2000/svg" xmlns:xlink="http://www.w3.org/1999/xlink">
    <g id="Notes" font-family="'LucidaGrande', 'Lucida Grande', sans-serif" font-size="13">
        <rect fill="white" height="600.0" width="800.0" x="0.0" y="0.0" />
        <g font-size="13">
            <text x="18.0" y="176.0">Small</text>
            <text x="18.0" y="376.0">Medium</text>
            <text x="18.0" y="576.0">Large</text>
        </g>
        <g font-size="9">
            <text x="250.0" y="30.0">Ultralight</text>
            <text x="450.0" y="30.0">Regular</text>
            <text x="650.0" y="30.0">Black</text>
            <text id="template-version" fill="#505050" text-anchor="end" x="785.0" y="575.0">Template v.3.0</text>
            <a href="https://github.com/swhitty/SwiftDraw">
                <text fill="#505050" text-anchor="end" x="785.0" y="590.0">https://github.com/swhitty/SwiftDraw</text>
            </a>
        </g>
    </g>
    <g id="Guides" stroke="rgb(39, 170, 225)" stroke-width="0.5">
        <path id="Capline-S" d="M18,76 l800,0" />
        <path id="H-reference" d="M85,145.755 L87.685,145.755 L113.369,79.287 L114.052,79.287 L114.052,76 L112.148,76 L85,145.755 Z M95.693,121.536 L130.996,121.536 L130.263,119.313 L96.474,119.313 L95.693,121.536 Z M139.15,145.755 L141.787,145.755 L114.638,76 L113.466,76 L113.466,79.287 L139.15,145.755 Z" stroke="none" />
        <path id="Baseline-S" d="M18,146 l800,0" />
        <path id="left-margin-Ultralight-S" d="M220,56 l0,110" />
        <path id="right-margin-Ultralight-S" d="M310,56 l0,110" />
        <path id="left-margin-Regular-S" d="M420,56 l0,110" />
        <path id="right-margin-Regular-S" d="M510,56 l0,110" />
        <path id="left-margin-Black-S" d="M620,56 l0,110" />
        <path id="right-margin-Black-S" d="M710,56 l0,110" />
        <path id="Capline-M" d="M18,276 l800,0" />
        <path id="Baseline-M" d="M18,346 l800,0" />
        <path id="Capline-L" d="M18,476 l800,0" />
        <path id="Baseline-L" d="M18,546 l800,0" />
    </g>
    <g id="Symbols">
        <g id="Ultralight-S">
            <path d="M294.615,137.923 L278.462,137.923 L278.462,129.846 L279.808,129.846 C292.441,129.833 302.679,119.595 302.692,106.962 C302.692,101.757 298.473,97.538 293.269,97.538 C288.065,97.538 283.846,101.757 283.846,106.962 C283.846,108.033 283.421,109.06 282.663,109.817 C281.906,110.575 280.879,111 279.808,111 L278.462,111 L278.462,86.769 C278.462,79.335 272.435,73.308 265,73.308 C257.565,73.308 251.538,79.335 251.538,86.769 L251.538,97.538 L250.192,97.538 C249.121,97.538 248.094,97.113 247.337,96.356 C246.579,95.598 246.154,94.571 246.154,93.5 C246.154,88.296 241.935,84.077 236.731,84.077 C231.527,84.077 227.308,88.296 227.308,93.5 C227.321,106.134 237.559,116.372 250.192,116.385 L251.539,116.385 L251.539,137.923 L235.385,137.923 C233.898,137.923 232.692,139.128 232.692,140.615 C232.692,142.102 233.898,143.308 235.385,143.308 L294.615,143.308 C296.102,143.308 297.308,142.102 297.308,140.615 C297.308,139.128 296.102,137.923 294.615,137.923 Z M254.231,111 L250.192,111 C240.532,110.989 232.703,103.16 232.692,93.5 C232.692,91.27 234.5,89.462 236.731,89.462 C238.961,89.462 240.769,91.27 240.769,93.5 C240.769,95.999 241.762,98.396 243.529,100.163 C245.296,101.93 247.693,102.923 250.192,102.923 L254.231,102.923 C254.945,102.923 255.63,102.639 256.135,102.135 C256.639,101.63 256.923,100.945 256.923,100.231 L256.923,86.769 C256.923,82.308 260.539,78.692 265,78.692 C269.461,78.692 273.077,82.308 273.077,86.769 L273.077,113.692 C273.077,114.406 273.361,115.091 273.865,115.596 C274.37,116.101 275.055,116.385 275.769,116.385 L279.808,116.385 C282.307,116.385 284.704,115.392 286.471,113.625 C288.238,111.857 289.231,109.461 289.231,106.962 C289.231,104.731 291.039,102.923 293.269,102.923 C295.5,102.923 297.308,104.731 297.308,106.962 C297.297,116.622 289.468,124.45 279.808,124.462 L275.769,124.462 C275.055,124.462 274.37,124.745 273.865,125.25 C273.361,125.755 273.077,126.44 273.077,127.154 L273.077,137.923 L256.923,137.923 L256.923,113.692 C256.923,112.978 256.639,112.293 256.135,111.789 C255.63,111.284 254.945,111 254.231,111 Z" />
        </g>
        <g id="Regular-S">
            <path d="M494.615,137.923 L478.462,137.923 L478.462,129.846 L479.808,129.846 C492.441,129.833 502.679,119.595 502.692,106.962 C502.692,101.757 498.473,97.538 493.269,97.538 C488.065,97.538 483.846,101.757 483.846,106.962 C483.846,108.033 483.421,109.06 482.663,109.817 C481.906,110.575 480.879,111 479.808,111 L478.462,111 L478.462,86.769 C478.462,79.335 472.435,73.308 465,73.308 C457.565,73.308 451.538,79.335 451.538,86.769 L451.538,97.538 L450.192,97.538 C449.121,97.538 448.094,97.113 447.337,96.356 C446.579,95.598 446.154,94.571 446.154,93.5 C446.154,88.296 441.935,84.077 436.731,84.077 C431.527,84.077 427.308,88.296 427.308,93.5 C427.321,106.134 437.559,116.372 450.192,116.385 L451.539,116.385 L451.539,137.923 L435.385,137.923 C433.898,137.923 432.692,139.128 432.692,140.615 C432.692,142.102 433.898,143.308 435.385,143.308 L494.615,143.308 C496.102,143.308 497.308,142.102 497.308,140.615 C497.308,139.128 496.102,137.923 494.615,137.923 Z M454.231,111 L450.192,111 C440.532,110.989 432.703,103.16 432.692,93.5 C432.692,91.27 434.5,89.462 436.731,89.462 C438.961,89.462 440.769,91.27 440.769,93.5 C440.769,95.999 441.762,98.396 443.529,100.163 C445.296,101.93 447.693,102.923 450.192,102.923 L454.231,102.923 C454.945,102.923 455.63,102.639 456.135,102.135 C456.639,101.63 456.923,100.945 456.923,100.231 L456.923,86.769 C456.923,82.308 460.539,78.692 465,78.692 C469.461,78.692 473.077,82.308 473.077,86.769 L473.077,113.692 C473.077,114.406 473.361,115.091 473.865,115.596 C474.37,116.101 475.055,116.385 475.769,116.385 L479.808,116.385 C482.307,116.385 484.704,115.392 486.471,113.625 C488.238,111.857 489.231,109.461 489.231,106.962 C489.231,104.731 491.039,102.923 493.269,102.923 C495.5,102.923 497.308,104.731 497.308,106.962 C497.297,116.622 489.468,124.45 479.808,124.462 L475.769,124.462 C475.055,124.462 474.37,124.745 473.865,125.25 C473.361,125.755 473.077,126.44 473.077,127.154 L473.077,137.923 L456.923,137.923 L456.923,113.692 C456.923,112.978 456.639,112.293 456.135,111.789 C455.63,111.284 454.945,111 454.231,111 Z" />
        </g>
        <g id="Black-S">
            <path d="M694.615,137.923 L678.462,137.923 L678.462,129.846 L679.808,129.846 C692.441,129.833 702.679,119.595 702.692,106.962 C702.692,101.757 698.473,97.538 693.269,97.538 C688.065,97.538 683.846,101.757 683.846,106.962 C683.846,108.033 683.421,109.06 682.663,109.817 C681.906,110.575 680.879,111 679.808,111 L678.462,111 L678.462,86.769 C678.462,79.335 672.435,73.308 665,73.308 C657.565,73.308 651.538,79.335 651.538,86.769 L651.538,97.538 L650.192,97.538 C649.121,97.538 648.094,97.113 647.337,96.356 C646.579,95.598 646.154,94.571 646.154,93.5 C646.154,88.296 641.935,84.077 636.731,84.077 C631.527,84.077 627.308,88.296 627.308,93.5 C627.321,106.134 637.559,116.372 650.193,116.385 L651.539,116.385 L651.539,137.923 L635.385,137.923 C633.898,137.923 632.692,139.128 632.692,140.615 C632.692,142.102 633.898,143.308 635.385,143.308 L694.615,143.308 C696.102,143.308 697.308,142.102 697.308,140.615 C697.308,139.128 696.102,137.923 694.615,137.923 Z M654.231,111 L650.192,111 C640.532,110.989 632.703,103.16 632.692,93.5 C632.692,91.27 634.5,89.462 636.731,89.462 C638.961,89.462 640.769,91.27 640.769,93.5 C640.769,95.999 641.762,98.396 643.529,100.163 C645.296,101.93 647.693,102.923 650.192,102.923 L654.231,102.923 C654.945,102.923 655.63,102.639 656.135,102.135 C656.639,101.63 656.923,100.945 656.923,100.231 L656.923,86.769 C656.923,82.308 660.539,78.692 665,78.692 C669.461,78.692 673.077,82.308 673.077,86.769 L673.077,113.692 C673.077,114.406 673.361,115.091 673.865,115.596 C674.37,116.101 675.055,116.385 675.769,116.385 L679.808,116.385 C682.307,116.385 684.704,115.392 686.471,113.625 C688.238,111.857 689.231,109.461 689.231,106.962 C689.231,104.731 691.039,102.923 693.269,102.923 C695.5,102.923 697.308,104.731 697.308,106.962 C697.297,116.622 689.468,124.45 679.808,124.462 L675.769,124.462 C675.055,124.462 674.37,124.745 673.865,125.25 C673.361,125.755 673.077,126.44 673.077,127.154 L673.077,137.923 L656.923,137.923 L656.923,113.692 C656.923,112.978 656.639,112.293 656.135,111.789 C655.63,111.284 654.945,111 654.231,111 Z" />
        </g>
    </g>
</svg>