<?xml version="1.0" encoding="UTF-8"?>
<svg height="600" width="800" xmlns="http://www.w3.org/2000/svg" xmlns:xlink="http://www.w3.org/1999/xlink">
    <g id="Notes" font-family="'LucidaGrande', 'Lucida Grande', sans-serif" font-size="13">
        <rect fill="white" height="600.0" width="800.0" x="0.0" y="0.0" />
        <g font-size="13">
            <text x="18.0" y="176.0">Small</text>
            <text x="18.0" y="376.0">Medium</text>
            <text x="18.0" y="576.0">Large</text>
        </g>
        <g font-size="9">
            <text x="250.0" y="30.0">Ultralight</text>
            <text x="450.0" y="30.0">Regular</text>
            <text x="650.0" y="30.0">Black</text>
            <text id="template-version" fill="#505050" text-anchor="end" x="785.0" y="575.0">Template v.3.0</text>
            <a href="https://github.com/swhitty/SwiftDraw">
                <text fill="#505050" text-anchor="end" x="785.0" y="590.0">https://github.com/swhitty/SwiftDraw</text>
            </a>
        </g>
    </g>
    <g id="Guides" stroke="rgb(39, 170, 225)" stroke-width="0.5">
        <path id="Capline-S" d="M18,76 l800,0" />
        <path id="H-reference" d="M85,145.755 L87.685,145.755 L113.369,79.287 L114.052,79.287 L114.052,76 L112.148,76 L85,145.755 Z M95.693,121.536 L130.996,121.536 L130.263,119.313 L96.474,119.313 L95.693,121.536 Z M139.15,145.755 L141.787,145.755 L114.638,76 L113.466,76 L113.466,79.287 L139.15,145.755 Z" stroke="none" />
        <path id="Baseline-S" d="M18,146 l800,0" />
        <path id="left-margin-Ultralight-S" d="M220,56 l0,110" />
        <path id="right-margin-Ultralight-S" d="M310,56 l0,110" />
        <path id="left-margin-Regular-S" d="M420,56 l0,110" />
        <path id="right-margin-Regular-S" d="M510,56 l0,110" />
        <path id="left-margin-Black-S" d="M620,56 l0,110" />
        <path id="right-margin-Black-S" d="M710,56 l0,110" />
        <path id="Capline-M" d="M18,276 l800,0" />
        <path id="Baseline-M" d="M18,346 l800,0" />
        <path id="Capline-L" d="M18,476 l800,0" />
        <path id="Baseline-L" d="M18,546 l800,0" />
    </g>
    <g id="Symbols">
        <g id="Ultralight-S">
            <path d="M300,140.615 L291.923,140.615 L291.923,81.385 C291.923,79.957 291.356,78.587 290.346,77.577 C289.336,76.567 287.967,76 286.538,76 L243.462,76 C242.033,76 240.664,76.567 239.654,77.577 C238.644,78.587 238.077,79.957 238.077,81.385 L238.077,140.615 L230,140.615 C228.513,140.615 227.308,141.821 227.308,143.308 C227.308,144.795 228.513,146 230,146 L300,146 C301.487,146 302.692,144.795 302.692,143.308 C302.692,141.821 301.487,140.615 300,140.615 Z M286.538,140.615 L281.154,140.615 L281.154,81.385 L286.538,81.385 Z M243.462,81.385 L275.769,81.385 L275.769,140.615 L243.462,140.615 Z M270.385,112.346 C270.385,114.577 268.577,116.385 266.346,116.385 C264.116,116.385 262.308,114.577 262.308,112.346 C262.308,110.116 264.116,108.308 266.346,108.308 C267.417,108.308 268.444,108.733 269.202,109.491 C269.959,110.248 270.385,111.275 270.385,112.346 Z" />
        </g>
        <g id="Regular-S">
            <path d="M500,140.615 L491.923,140.615 L491.923,81.385 C491.923,79.957 491.356,78.587 490.346,77.577 C489.336,76.567 487.967,76 486.538,76 L443.462,76 C442.033,76 440.664,76.567 439.654,77.577 C438.644,78.587 438.077,79.957 438.077,81.385 L438.077,140.615 L430,140.615 C428.513,140.615 427.308,141.821 427.308,143.308 C427.308,144.795 428.513,146 430,146 L500,146 C501.487,146 502.692,144.795 502.692,143.308 C502.692,141.821 501.487,140.615 500,140.615 Z M486.538,140.615 L481.154,140.615 L481.154,81.385 L486.538,81.385 Z M443.462,81.385 L475.769,81.385 L475.769,140.615 L443.462,140.615 Z M470.385,112.346 C470.385,114.577 468.577,116.385 466.346,116.385 C464.116,116.385 462.308,114.577 462.308,112.346 C462.308,110.116 464.116,108.308 466.346,108.308 C467.417,108.308 468.444,108.733 469.202,109.491 C469.959,110.248 470.385,111.275 470.385,112.346 Z" />
        </g>
        <g id="Black-S">
            <path d="M700,140.615 L691.923,140.615 L691.923,81.385 C691.923,79.957 691.356,78.587 690.346,77.577 C689.336,76.567 687.967,76 686.538,76 L643.462,76 C642.033,76 640.664,76.567 639.654,77.577 C638.644,78.587 638.077,79.957 638.077,81.385 L638.077,140.615 L630,140.615 C628.513,140.615 627.308,141.821 627.308,143.308 C627.308,144.795 628.513,146 630,146 L700,146 C701.487,146 702.692,144.795 702.692,143.308 C702.692,141.821 701.487,140.615 700,140.615 Z M686.538,140.615 L681.154,140.615 L681.154,81.385 L686.538,81.385 Z M643.462,81.385 L675.769,81.385 L675.769,140.615 L643.462,140.615 Z M670.385,112.346 C670.385,114.577 668.577,116.385 666.346,116.385 C664.116,116.385 662.308,114.577 662.308,112.346 C662.308,110.116 664.116,108.308 666.346,108.308 C667.417,108.308 668.444,108.733 669.202,109.491 C669.959,110.248 670.385,111.275 670.385,112.346 Z" />
        </g>
    </g>
</svg>