<?xml version="1.0" encoding="UTF-8"?>
<svg height="600" width="800" xmlns="http://www.w3.org/2000/svg" xmlns:xlink="http://www.w3.org/1999/xlink">
    <g id="Notes" font-family="'LucidaGrande', 'Lucida Grande', sans-serif" font-size="13">
        <rect fill="white" height="600.0" width="800.0" x="0.0" y="0.0" />
        <g font-size="13">
            <text x="18.0" y="176.0">Small</text>
            <text x="18.0" y="376.0">Medium</text>
            <text x="18.0" y="576.0">Large</text>
        </g>
        <g font-size="9">
            <text x="250.0" y="30.0">Ultralight</text>
            <text x="450.0" y="30.0">Regular</text>
            <text x="650.0" y="30.0">Black</text>
            <text id="template-version" fill="#505050" text-anchor="end" x="785.0" y="575.0">Template v.3.0</text>
            <a href="https://github.com/swhitty/SwiftDraw">
                <text fill="#505050" text-anchor="end" x="785.0" y="590.0">https://github.com/swhitty/SwiftDraw</text>
            </a>
        </g>
    </g>
    <g id="Guides" stroke="rgb(39, 170, 225)" stroke-width="0.5">
        <path id="Capline-S" d="M18,76 l800,0" />
        <path id="H-reference" d="M85,145.755 L87.685,145.755 L113.369,79.287 L114.052,79.287 L114.052,76 L112.148,76 L85,145.755 Z M95.693,121.536 L130.996,121.536 L130.263,119.313 L96.474,119.313 L95.693,121.536 Z M139.15,145.755 L141.787,145.755 L114.638,76 L113.466,76 L113.466,79.287 L139.15,145.755 Z" stroke="none" />
        <path id="Baseline-S" d="M18,146 l800,0" />
        <path id="left-margin-Ultralight-S" d="M220,56 l0,110" />
        <path id="right-margin-Ultralight-S" d="M310,56 l0,110" />
        <path id="left-margin-Regular-S" d="M420,56 l0,110" />
        <path id="right-margin-Regular-S" d="M510,56 l0,110" />
        <path id="left-margin-Black-S" d="M620,56 l0,110" />
        <path id="right-margin-Black-S" d="M710,56 l0,110" />
        <path id="Capline-M" d="M18,276 l800,0" />
        <path id="Baseline-M" d="M18,346 l800,0" />
        <path id="Capline-L" d="M18,476 l800,0" />
        <path id="Baseline-L" d="M18,546 l800,0" />
    </g>
    <g id="Symbols">
        <g id="Ultralight-S">
            <path d="M289.231,81.385 L275.769,81.385 C274.341,81.385 272.972,81.952 271.962,82.962 C270.952,83.972 270.385,85.341 270.385,86.769 L270.385,116.385 C270.385,119.358 267.974,121.769 265,121.769 C262.026,121.769 259.615,119.358 259.615,116.385 L259.615,86.769 C259.615,85.341 259.048,83.972 258.038,82.962 C257.028,81.952 255.659,81.385 254.231,81.385 L240.769,81.385 C239.341,81.385 237.972,81.952 236.962,82.962 C235.952,83.972 235.385,85.341 235.385,86.769 L235.385,116.385 C235.385,124.239 238.505,131.772 244.059,137.326 C249.613,142.88 257.146,146 265,146 L265.225,146 C281.43,145.879 294.615,132.441 294.615,116.048 L294.615,86.769 C294.615,85.341 294.048,83.972 293.038,82.962 C292.028,81.952 290.659,81.385 289.231,81.385 Z M289.231,86.769 L289.231,97.538 L275.769,97.538 L275.769,86.769 Z M254.231,86.769 L254.231,97.538 L240.769,97.538 L240.769,86.769 Z M265.185,140.615 C258.727,140.665 252.516,138.134 247.932,133.584 C243.347,129.035 240.769,122.843 240.769,116.385 L240.769,102.923 L254.231,102.923 L254.231,116.385 C254.231,122.332 259.052,127.154 265,127.154 C270.948,127.154 275.769,122.332 275.769,116.385 L275.769,102.923 L289.231,102.923 L289.231,116.048 C289.231,129.51 278.462,140.518 265.185,140.615 Z" />
        </g>
        <g id="Regular-S">
            <path d="M489.231,81.385 L475.769,81.385 C474.341,81.385 472.972,81.952 471.962,82.962 C470.952,83.972 470.385,85.341 470.385,86.769 L470.385,116.385 C470.385,119.358 467.974,121.769 465,121.769 C462.026,121.769 459.615,119.358 459.615,116.385 L459.615,86.769 C459.615,85.341 459.048,83.972 458.038,82.962 C457.028,81.952 455.659,81.385 454.231,81.385 L440.769,81.385 C439.341,81.385 437.972,81.952 436.962,82.962 C435.952,83.972 435.385,85.341 435.385,86.769 L435.385,116.385 C435.385,124.239 438.505,131.772 444.059,137.326 C449.613,142.88 457.146,146 465,146 L465.225,146 C481.43,145.879 494.615,132.441 494.615,116.048 L494.615,86.769 C494.615,85.341 494.048,83.972 493.038,82.962 C492.028,81.952 490.659,81.385 489.231,81.385 Z M489.231,86.769 L489.231,97.538 L475.769,97.538 L475.769,86.769 Z M454.231,86.769 L454.231,97.538 L440.769,97.538 L440.769,86.769 Z M465.185,140.615 C458.727,140.665 452.516,138.134 447.932,133.584 C443.347,129.035 440.769,122.843 440.769,116.385 L440.769,102.923 L454.231,102.923 L454.231,116.385 C454.231,122.332 459.052,127.154 465,127.154 C470.948,127.154 475.769,122.332 475.769,116.385 L475.769,102.923 L489.231,102.923 L489.231,116.048 C489.231,129.51 478.462,140.518 465.185,140.615 Z" />
        </g>
        <g id="Black-S">
            <path d="M689.231,81.385 L675.769,81.385 C674.341,81.385 672.972,81.952 671.962,82.962 C670.952,83.972 670.385,85.341 670.385,86.769 L670.385,116.385 C670.385,119.358 667.974,121.769 665,121.769 C662.026,121.769 659.615,119.358 659.615,116.385 L659.615,86.769 C659.615,85.341 659.048,83.972 658.038,82.962 C657.028,81.952 655.659,81.385 654.231,81.385 L640.769,81.385 C639.341,81.385 637.972,81.952 636.962,82.962 C635.952,83.972 635.385,85.341 635.385,86.769 L635.385,116.385 C635.385,124.239 638.505,131.772 644.059,137.326 C649.613,142.88 657.146,146 665,146 L665.226,146 C681.43,145.879 694.615,132.441 694.615,116.048 L694.615,86.769 C694.615,85.341 694.048,83.972 693.038,82.962 C692.029,81.952 690.659,81.385 689.231,81.385 Z M689.231,86.769 L689.231,97.538 L675.769,97.538 L675.769,86.769 Z M654.231,86.769 L654.231,97.538 L640.769,97.538 L640.769,86.769 Z M665.185,140.615 C658.727,140.665 652.516,138.134 647.932,133.584 C643.347,129.035 640.769,122.843 640.769,116.385 L640.769,102.923 L654.231,102.923 L654.231,116.385 C654.231,122.332 659.052,127.154 665,127.154 C670.948,127.154 675.769,122.332 675.769,116.385 L675.769,102.923 L689.231,102.923 L689.231,116.048 C689.231,129.51 678.462,140.518 665.185,140.615 Z" />
        </g>
    </g>
</svg>