<?xml version="1.0" encoding="UTF-8"?>
<svg height="600" width="800" xmlns="http://www.w3.org/2000/svg" xmlns:xlink="http://www.w3.org/1999/xlink">
    <g id="Notes" font-family="'LucidaGrande', 'Lucida Grande', sans-serif" font-size="13">
        <rect fill="white" height="600.0" width="800.0" x="0.0" y="0.0" />
        <g font-size="13">
            <text x="18.0" y="176.0">Small</text>
            <text x="18.0" y="376.0">Medium</text>
            <text x="18.0" y="576.0">Large</text>
        </g>
        <g font-size="9">
            <text x="250.0" y="30.0">Ultralight</text>
            <text x="450.0" y="30.0">Regular</text>
            <text x="650.0" y="30.0">Black</text>
            <text id="template-version" fill="#505050" text-anchor="end" x="785.0" y="575.0">Template v.3.0</text>
            <a href="https://github.com/swhitty/SwiftDraw">
                <text fill="#505050" text-anchor="end" x="785.0" y="590.0">https://github.com/swhitty/SwiftDraw</text>
            </a>
        </g>
    </g>
    <g id="Guides" stroke="rgb(39, 170, 225)" stroke-width="0.5">
        <path id="Capline-S" d="M18,76 l800,0" />
        <path id="H-reference" d="M85,145.755 L87.685,145.755 L113.369,79.287 L114.052,79.287 L114.052,76 L112.148,76 L85,145.755 Z M95.693,121.536 L130.996,121.536 L130.263,119.313 L96.474,119.313 L95.693,121.536 Z M139.15,145.755 L141.787,145.755 L114.638,76 L113.466,76 L113.466,79.287 L139.15,145.755 Z" stroke="none" />
        <path id="Baseline-S" d="M18,146 l800,0" />
        <path id="left-margin-Ultralight-S" d="M220,56 l0,110" />
        <path id="right-margin-Ultralight-S" d="M310,56 l0,110" />
        <path id="left-margin-Regular-S" d="M420,56 l0,110" />
        <path id="right-margin-Regular-S" d="M510,56 l0,110" />
        <path id="left-margin-Black-S" d="M620,56 l0,110" />
        <path id="right-margin-Black-S" d="M710,56 l0,110" />
        <path id="Capline-M" d="M18,276 l800,0" />
        <path id="Baseline-M" d="M18,346 l800,0" />
        <path id="Capline-L" d="M18,476 l800,0" />
        <path id="Baseline-L" d="M18,546 l800,0" />
    </g>
    <g id="Symbols">
        <g id="Ultralight-S">
            <path d="M267.692,92.154 L267.692,106.642 L279.949,100.513 C281.279,99.848 282.896,100.387 283.562,101.716 C284.227,103.046 283.689,104.664 282.359,105.329 L266.205,113.406 C265.371,113.824 264.379,113.78 263.586,113.289 C262.792,112.799 262.308,111.933 262.308,111 L262.308,92.154 C262.308,90.667 263.513,89.462 265,89.462 C266.487,89.462 267.692,90.667 267.692,92.154 Z M265,140.615 C248.644,140.615 235.385,127.356 235.385,111 C235.385,94.644 248.644,81.385 265,81.385 C281.356,81.385 294.615,94.644 294.615,111 C294.615,112.487 295.821,113.692 297.308,113.692 C298.795,113.692 300,112.487 300,111 C300,91.67 284.33,76 265,76 C245.67,76 230,91.67 230,111 C230,130.33 245.67,146 265,146 C266.487,146 267.692,144.795 267.692,143.308 C267.692,141.821 266.487,140.615 265,140.615 Z M299.909,142.614 C300.178,143.551 299.919,144.56 299.233,145.252 C298.548,145.944 297.541,146.211 296.602,145.951 C295.663,145.691 294.938,144.944 294.706,143.998 C293.754,140.42 290.395,137.923 286.538,137.923 C282.682,137.923 279.323,140.42 278.371,143.998 C278.058,145.178 276.99,146 275.769,146 C275.535,145.999 275.302,145.969 275.076,145.909 C273.639,145.526 272.785,144.051 273.168,142.614 C274.041,139.372 276.095,136.573 278.926,134.766 C275.844,131.687 274.92,127.054 276.586,123.029 C278.252,119.003 282.18,116.378 286.537,116.378 C290.894,116.378 294.821,119.003 296.487,123.029 C298.154,127.054 297.23,131.687 294.148,134.766 C296.98,136.572 299.035,139.371 299.909,142.614 Z M281.154,127.154 C281.154,130.128 283.565,132.538 286.538,132.538 C289.512,132.538 291.923,130.128 291.923,127.154 C291.923,124.18 289.512,121.769 286.538,121.769 C285.11,121.769 283.741,122.337 282.731,123.346 C281.721,124.356 281.154,125.726 281.154,127.154 Z" />
        </g>
        <g id="Regular-S">
            <path d="M467.692,92.154 L467.692,106.642 L479.949,100.513 C481.279,99.848 482.896,100.387 483.562,101.716 C484.227,103.046 483.689,104.664 482.359,105.329 L466.205,113.406 C465.371,113.824 464.379,113.78 463.586,113.289 C462.792,112.799 462.308,111.933 462.308,111 L462.308,92.154 C462.308,90.667 463.513,89.462 465,89.462 C466.487,89.462 467.692,90.667 467.692,92.154 Z M465,140.615 C448.644,140.615 435.385,127.356 435.385,111 C435.385,94.644 448.644,81.385 465,81.385 C481.356,81.385 494.615,94.644 494.615,111 C494.615,112.487 495.821,113.692 497.308,113.692 C498.795,113.692 500,112.487 500,111 C500,91.67 484.33,76 465,76 C445.67,76 430,91.67 430,111 C430,130.33 445.67,146 465,146 C466.487,146 467.692,144.795 467.692,143.308 C467.692,141.821 466.487,140.615 465,140.615 Z M499.909,142.614 C500.178,143.551 499.919,144.56 499.233,145.252 C498.548,145.944 497.541,146.211 496.602,145.951 C495.663,145.691 494.938,144.944 494.706,143.998 C493.754,140.42 490.395,137.923 486.538,137.923 C482.682,137.923 479.323,140.42 478.371,143.998 C478.058,145.178 476.99,146 475.769,146 C475.535,145.999 475.302,145.969 475.076,145.909 C473.639,145.526 472.785,144.051 473.168,142.614 C474.041,139.372 476.095,136.573 478.926,134.766 C475.844,131.687 474.92,127.054 476.586,123.029 C478.252,119.003 482.18,116.378 486.537,116.378 C490.894,116.378 494.821,119.003 496.487,123.029 C498.154,127.054 497.23,131.687 494.148,134.766 C496.98,136.572 499.035,139.371 499.909,142.614 Z M481.154,127.154 C481.154,130.128 483.565,132.538 486.538,132.538 C489.512,132.538 491.923,130.128 491.923,127.154 C491.923,124.18 489.512,121.769 486.538,121.769 C485.11,121.769 483.741,122.337 482.731,123.346 C481.721,124.356 481.154,125.726 481.154,127.154 Z" />
        </g>
        <g id="Black-S">
            <path d="M667.692,92.154 L667.692,106.642 L679.949,100.513 C681.279,99.848 682.896,100.387 683.562,101.716 C684.227,103.046 683.689,104.664 682.359,105.329 L666.205,113.406 C665.371,113.824 664.38,113.78 663.586,113.289 C662.792,112.799 662.308,111.933 662.308,111 L662.308,92.154 C662.308,90.667 663.513,89.462 665,89.462 C666.487,89.462 667.692,90.667 667.692,92.154 Z M665,140.615 C648.644,140.615 635.385,127.356 635.385,111 C635.385,94.644 648.644,81.385 665,81.385 C681.356,81.385 694.615,94.644 694.615,111 C694.615,112.487 695.821,113.692 697.308,113.692 C698.795,113.692 700,112.487 700,111 C700,91.67 684.33,76 665,76 C645.67,76 630,91.67 630,111 C630,130.33 645.67,146 665,146 C666.487,146 667.692,144.795 667.692,143.308 C667.692,141.821 666.487,140.615 665,140.615 Z M699.909,142.614 C700.178,143.551 699.919,144.56 699.233,145.252 C698.548,145.944 697.541,146.211 696.602,145.951 C695.663,145.691 694.938,144.944 694.706,143.998 C693.754,140.42 690.395,137.923 686.538,137.923 C682.682,137.923 679.323,140.42 678.371,143.998 C678.058,145.178 676.99,146 675.769,146 C675.535,145.999 675.302,145.969 675.076,145.909 C673.639,145.526 672.785,144.051 673.168,142.614 C674.041,139.372 676.095,136.573 678.926,134.766 C675.844,131.687 674.92,127.054 676.586,123.029 C678.252,119.003 682.18,116.378 686.537,116.378 C690.894,116.378 694.821,119.003 696.487,123.029 C698.154,127.054 697.23,131.687 694.148,134.766 C696.98,136.572 699.035,139.371 699.909,142.614 Z M681.154,127.154 C681.154,130.128 683.565,132.538 686.538,132.538 C689.512,132.538 691.923,130.128 691.923,127.154 C691.923,124.18 689.512,121.769 686.538,121.769 C685.11,121.769 683.741,122.337 682.731,123.346 C681.721,124.356 681.154,125.726 681.154,127.154 Z" />
        </g>
    </g>
</svg>