<?xml version="1.0" encoding="UTF-8"?>
<svg height="600" width="800" xmlns="http://www.w3.org/2000/svg" xmlns:xlink="http://www.w3.org/1999/xlink">
    <g id="Notes" font-family="'LucidaGrande', 'Lucida Grande', sans-serif" font-size="13">
        <rect fill="white" height="600.0" width="800.0" x="0.0" y="0.0" />
        <g font-size="13">
            <text x="18.0" y="176.0">Small</text>
            <text x="18.0" y="376.0">Medium</text>
            <text x="18.0" y="576.0">Large</text>
        </g>
        <g font-size="9">
            <text x="250.0" y="30.0">Ultralight</text>
            <text x="450.0" y="30.0">Regular</text>
            <text x="650.0" y="30.0">Black</text>
            <text id="template-version" fill="#505050" text-anchor="end" x="785.0" y="575.0">Template v.3.0</text>
            <a href="https://github.com/swhitty/SwiftDraw">
                <text fill="#505050" text-anchor="end" x="785.0" y="590.0">https://github.com/swhitty/SwiftDraw</text>
            </a>
        </g>
    </g>
    <g id="Guides" stroke="rgb(39, 170, 225)" stroke-width="0.5">
        <path id="Capline-S" d="M18,76 l800,0" />
        <path id="H-reference" d="M85,145.755 L87.685,145.755 L113.369,79.287 L114.052,79.287 L114.052,76 L112.148,76 L85,145.755 Z M95.693,121.536 L130.996,121.536 L130.263,119.313 L96.474,119.313 L95.693,121.536 Z M139.15,145.755 L141.787,145.755 L114.638,76 L113.466,76 L113.466,79.287 L139.15,145.755 Z" stroke="none" />
        <path id="Baseline-S" d="M18,146 l800,0" />
        <path id="left-margin-Ultralight-S" d="M220,56 l0,110" />
        <path id="right-margin-Ultralight-S" d="M310,56 l0,110" />
        <path id="left-margin-Regular-S" d="M420,56 l0,110" />
        <path id="right-margin-Regular-S" d="M510,56 l0,110" />
        <path id="left-margin-Black-S" d="M620,56 l0,110" />
        <path id="right-margin-Black-S" d="M710,56 l0,110" />
        <path id="Capline-M" d="M18,276 l800,0" />
        <path id="Baseline-M" d="M18,346 l800,0" />
        <path id="Capline-L" d="M18,476 l800,0" />
        <path id="Baseline-L" d="M18,546 l800,0" />
    </g>
    <g id="Symbols">
        <g id="Ultralight-S">
            <path d="M281.154,105.615 L273.077,105.615 C271.59,105.615 270.385,104.41 270.385,102.923 C270.385,101.436 271.59,100.231 273.077,100.231 L281.154,100.231 C282.641,100.231 283.846,101.436 283.846,102.923 C283.846,104.41 282.641,105.615 281.154,105.615 Z M256.923,100.231 L254.231,100.231 L254.231,97.538 C254.231,96.052 253.025,94.846 251.538,94.846 C250.052,94.846 248.846,96.052 248.846,97.538 L248.846,100.231 L246.154,100.231 C244.667,100.231 243.462,101.436 243.462,102.923 C243.462,104.41 244.667,105.615 246.154,105.615 L248.846,105.615 L248.846,108.308 C248.846,109.795 250.052,111 251.538,111 C253.025,111 254.231,109.795 254.231,108.308 L254.231,105.615 L256.923,105.615 C258.41,105.615 259.615,104.41 259.615,102.923 C259.615,101.436 258.41,100.231 256.923,100.231 Z M303.19,135.45 C301.136,138.383 297.89,140.257 294.323,140.569 C290.756,140.881 287.233,139.6 284.701,137.068 C284.661,137.028 284.62,136.987 284.583,136.944 L271.219,121.769 L258.767,121.769 L245.417,136.944 L245.299,137.068 C243.025,139.338 239.944,140.613 236.731,140.615 C233.15,140.614 229.754,139.029 227.453,136.286 C225.152,133.543 224.182,129.923 224.804,126.397 C224.802,126.381 224.802,126.365 224.804,126.35 L230.313,98.05 C232.005,88.415 240.373,81.387 250.155,81.385 L279.808,81.385 C289.557,81.4 297.906,88.37 299.663,97.959 C299.663,97.979 299.663,98 299.663,98.02 L305.173,126.346 C305.174,126.362 305.174,126.378 305.173,126.393 C305.749,129.556 305.035,132.817 303.19,135.45 Z M279.808,116.385 C287.986,116.385 294.615,109.755 294.615,101.577 C294.615,93.399 287.986,86.769 279.808,86.769 L250.155,86.769 C242.979,86.776 236.844,91.939 235.613,99.009 L235.613,99.053 L230.101,127.352 C229.601,130.231 231.015,133.103 233.601,134.462 C236.188,135.821 239.355,135.357 241.442,133.312 L255.55,117.297 C256.061,116.717 256.796,116.385 257.569,116.385 Z M299.899,127.352 L296.958,112.208 C293.28,118.147 286.793,121.763 279.808,121.769 L278.394,121.769 L288.558,133.316 C290.112,134.828 292.297,135.502 294.434,135.13 C298.086,134.485 300.529,131.007 299.896,127.352 Z" />
        </g>
        <g id="Regular-S">
            <path d="M481.154,105.615 L473.077,105.615 C471.59,105.615 470.385,104.41 470.385,102.923 C470.385,101.436 471.59,100.231 473.077,100.231 L481.154,100.231 C482.641,100.231 483.846,101.436 483.846,102.923 C483.846,104.41 482.641,105.615 481.154,105.615 Z M456.923,100.231 L454.231,100.231 L454.231,97.538 C454.231,96.052 453.025,94.846 451.538,94.846 C450.052,94.846 448.846,96.052 448.846,97.538 L448.846,100.231 L446.154,100.231 C444.667,100.231 443.462,101.436 443.462,102.923 C443.462,104.41 444.667,105.615 446.154,105.615 L448.846,105.615 L448.846,108.308 C448.846,109.795 450.052,111 451.538,111 C453.025,111 454.231,109.795 454.231,108.308 L454.231,105.615 L456.923,105.615 C458.41,105.615 459.615,104.41 459.615,102.923 C459.615,101.436 458.41,100.231 456.923,100.231 Z M503.19,135.45 C501.136,138.383 497.89,140.257 494.323,140.569 C490.756,140.881 487.233,139.6 484.701,137.068 C484.661,137.028 484.62,136.987 484.583,136.944 L471.219,121.769 L458.767,121.769 L445.417,136.944 L445.299,137.068 C443.025,139.338 439.944,140.613 436.731,140.615 C433.15,140.614 429.754,139.029 427.453,136.286 C425.152,133.543 424.182,129.923 424.804,126.397 C424.802,126.381 424.802,126.365 424.804,126.35 L430.313,98.05 C432.005,88.415 440.373,81.387 450.155,81.385 L479.808,81.385 C489.557,81.4 497.906,88.37 499.663,97.959 C499.663,97.979 499.663,98 499.663,98.02 L505.173,126.346 C505.174,126.362 505.174,126.378 505.173,126.393 C505.748,129.556 505.035,132.817 503.19,135.45 Z M479.808,116.385 C487.986,116.385 494.615,109.755 494.615,101.577 C494.615,93.399 487.986,86.769 479.808,86.769 L450.155,86.769 C442.979,86.776 436.844,91.939 435.613,99.009 L435.613,99.053 L430.101,127.352 C429.601,130.231 431.015,133.103 433.601,134.462 C436.188,135.821 439.355,135.357 441.442,133.312 L455.55,117.297 C456.061,116.717 456.796,116.385 457.569,116.385 Z M499.899,127.352 L496.958,112.208 C493.28,118.147 486.793,121.763 479.808,121.769 L478.394,121.769 L488.558,133.316 C490.112,134.828 492.297,135.502 494.434,135.13 C498.086,134.485 500.529,131.007 499.896,127.352 Z" />
        </g>
        <g id="Black-S">
            <path d="M681.154,105.615 L673.077,105.615 C671.59,105.615 670.385,104.41 670.385,102.923 C670.385,101.436 671.59,100.231 673.077,100.231 L681.154,100.231 C682.641,100.231 683.846,101.436 683.846,102.923 C683.846,104.41 682.641,105.615 681.154,105.615 Z M656.923,100.231 L654.231,100.231 L654.231,97.538 C654.231,96.052 653.025,94.846 651.538,94.846 C650.052,94.846 648.846,96.052 648.846,97.538 L648.846,100.231 L646.154,100.231 C644.667,100.231 643.462,101.436 643.462,102.923 C643.462,104.41 644.667,105.615 646.154,105.615 L648.846,105.615 L648.846,108.308 C648.846,109.795 650.052,111 651.538,111 C653.025,111 654.231,109.795 654.231,108.308 L654.231,105.615 L656.923,105.615 C658.41,105.615 659.615,104.41 659.615,102.923 C659.615,101.436 658.41,100.231 656.923,100.231 Z M703.19,135.45 C701.136,138.383 697.89,140.257 694.323,140.569 C690.756,140.881 687.233,139.6 684.701,137.068 C684.661,137.028 684.62,136.987 684.583,136.944 L671.219,121.769 L658.767,121.769 L645.417,136.944 L645.299,137.068 C643.025,139.338 639.944,140.613 636.731,140.615 C633.15,140.614 629.754,139.029 627.453,136.286 C625.152,133.543 624.182,129.923 624.804,126.397 C624.802,126.381 624.802,126.365 624.804,126.35 L630.313,98.05 C632.005,88.415 640.373,81.387 650.155,81.385 L679.808,81.385 C689.557,81.4 697.906,88.37 699.663,97.959 C699.663,97.979 699.663,98 699.663,98.02 L705.173,126.346 C705.174,126.362 705.174,126.378 705.173,126.393 C705.749,129.556 705.035,132.817 703.19,135.45 Z M679.808,116.385 C687.986,116.385 694.615,109.755 694.615,101.577 C694.615,93.399 687.986,86.769 679.808,86.769 L650.155,86.769 C642.979,86.776 636.844,91.939 635.613,99.009 L635.613,99.053 L630.101,127.352 C629.601,130.231 631.015,133.103 633.601,134.462 C636.188,135.821 639.355,135.357 641.442,133.312 L655.55,117.297 C656.061,116.717 656.796,116.385 657.569,116.385 Z M699.899,127.352 L696.958,112.208 C693.28,118.147 686.793,121.763 679.808,121.769 L678.394,121.769 L688.558,133.316 C690.112,134.828 692.297,135.502 694.434,135.13 C698.086,134.485 700.529,131.007 699.896,127.352 Z" />
        </g>
    </g>
</svg>