<?xml version="1.0" encoding="UTF-8"?>
<svg height="600" width="800" xmlns="http://www.w3.org/2000/svg" xmlns:xlink="http://www.w3.org/1999/xlink">
    <g id="Notes" font-family="'LucidaGrande', 'Lucida Grande', sans-serif" font-size="13">
        <rect fill="white" height="600.0" width="800.0" x="0.0" y="0.0" />
        <g font-size="13">
            <text x="18.0" y="176.0">Small</text>
            <text x="18.0" y="376.0">Medium</text>
            <text x="18.0" y="576.0">Large</text>
        </g>
        <g font-size="9">
            <text x="250.0" y="30.0">Ultralight</text>
            <text x="450.0" y="30.0">Regular</text>
            <text x="650.0" y="30.0">Black</text>
            <text id="template-version" fill="#505050" text-anchor="end" x="785.0" y="575.0">Template v.3.0</text>
            <a href="https://github.com/swhitty/SwiftDraw">
                <text fill="#505050" text-anchor="end" x="785.0" y="590.0">https://github.com/swhitty/SwiftDraw</text>
            </a>
        </g>
    </g>
    <g id="Guides" stroke="rgb(39, 170, 225)" stroke-width="0.5">
        <path id="Capline-S" d="M18,76 l800,0" />
        <path id="H-reference" d="M85,145.755 L87.685,145.755 L113.369,79.287 L114.052,79.287 L114.052,76 L112.148,76 L85,145.755 Z M95.693,121.536 L130.996,121.536 L130.263,119.313 L96.474,119.313 L95.693,121.536 Z M139.15,145.755 L141.787,145.755 L114.638,76 L113.466,76 L113.466,79.287 L139.15,145.755 Z" stroke="none" />
        <path id="Baseline-S" d="M18,146 l800,0" />
        <path id="left-margin-Ultralight-S" d="M220,56 l0,110" />
        <path id="right-margin-Ultralight-S" d="M310,56 l0,110" />
        <path id="left-margin-Regular-S" d="M420,56 l0,110" />
        <path id="right-margin-Regular-S" d="M510,56 l0,110" />
        <path id="left-margin-Black-S" d="M620,56 l0,110" />
        <path id="right-margin-Black-S" d="M710,56 l0,110" />
        <path id="Capline-M" d="M18,276 l800,0" />
        <path id="Baseline-M" d="M18,346 l800,0" />
        <path id="Capline-L" d="M18,476 l800,0" />
        <path id="Baseline-L" d="M18,546 l800,0" />
    </g>
    <g id="Symbols">
        <g id="Ultralight-S">
            <path d="M281.154,111 C281.154,111.714 280.87,112.399 280.365,112.904 C279.86,113.409 279.176,113.692 278.462,113.692 L251.538,113.692 C250.052,113.692 248.846,112.487 248.846,111 C248.846,109.513 250.052,108.308 251.538,108.308 L278.462,108.308 C279.176,108.308 279.86,108.591 280.365,109.096 C280.87,109.601 281.154,110.286 281.154,111 Z M300,111 C300,130.33 284.33,146 265,146 C245.67,146 230,130.33 230,111 C230,91.67 245.67,76 265,76 C284.322,76.02 299.98,91.678 300,111 Z M294.615,111 C294.615,94.644 281.356,81.385 265,81.385 C248.644,81.385 235.385,94.644 235.385,111 C235.385,127.356 248.644,140.615 265,140.615 C281.348,140.597 294.597,127.348 294.615,111 Z" />
        </g>
        <g id="Regular-S">
            <path d="M481.154,111 C481.154,111.714 480.87,112.399 480.365,112.904 C479.86,113.409 479.176,113.692 478.462,113.692 L451.538,113.692 C450.052,113.692 448.846,112.487 448.846,111 C448.846,109.513 450.052,108.308 451.538,108.308 L478.462,108.308 C479.176,108.308 479.86,108.591 480.365,109.096 C480.87,109.601 481.154,110.286 481.154,111 Z M500,111 C500,130.33 484.33,146 465,146 C445.67,146 430,130.33 430,111 C430,91.67 445.67,76 465,76 C484.321,76.02 499.98,91.678 500,111 Z M494.615,111 C494.615,94.644 481.356,81.385 465,81.385 C448.644,81.385 435.385,94.644 435.385,111 C435.385,127.356 448.644,140.615 465,140.615 C481.348,140.597 494.597,127.348 494.615,111 Z" />
        </g>
        <g id="Black-S">
            <path d="M681.154,111 C681.154,111.714 680.87,112.399 680.365,112.904 C679.86,113.409 679.176,113.692 678.462,113.692 L651.538,113.692 C650.052,113.692 648.846,112.487 648.846,111 C648.846,109.513 650.052,108.308 651.538,108.308 L678.462,108.308 C679.176,108.308 679.86,108.591 680.365,109.096 C680.87,109.601 681.154,110.286 681.154,111 Z M700,111 C700,130.33 684.33,146 665,146 C645.67,146 630,130.33 630,111 C630,91.67 645.67,76 665,76 C684.322,76.02 699.98,91.678 700,111 Z M694.615,111 C694.615,94.644 681.356,81.385 665,81.385 C648.644,81.385 635.385,94.644 635.385,111 C635.385,127.356 648.644,140.615 665,140.615 C681.348,140.597 694.597,127.348 694.615,111 Z" />
        </g>
    </g>
</svg>