<?xml version="1.0" encoding="UTF-8"?>
<svg height="600" width="800" xmlns="http://www.w3.org/2000/svg" xmlns:xlink="http://www.w3.org/1999/xlink">
    <g id="Notes" font-family="'LucidaGrande', 'Lucida Grande', sans-serif" font-size="13">
        <rect fill="white" height="600.0" width="800.0" x="0.0" y="0.0" />
        <g font-size="13">
            <text x="18.0" y="176.0">Small</text>
            <text x="18.0" y="376.0">Medium</text>
            <text x="18.0" y="576.0">Large</text>
        </g>
        <g font-size="9">
            <text x="250.0" y="30.0">Ultralight</text>
            <text x="450.0" y="30.0">Regular</text>
            <text x="650.0" y="30.0">Black</text>
            <text id="template-version" fill="#505050" text-anchor="end" x="785.0" y="575.0">Template v.3.0</text>
            <a href="https://github.com/swhitty/SwiftDraw">
                <text fill="#505050" text-anchor="end" x="785.0" y="590.0">https://github.com/swhitty/SwiftDraw</text>
            </a>
        </g>
    </g>
    <g id="Guides" stroke="rgb(39, 170, 225)" stroke-width="0.5">
        <path id="Capline-S" d="M18,76 l800,0" />
        <path id="H-reference" d="M85,145.755 L87.685,145.755 L113.369,79.287 L114.052,79.287 L114.052,76 L112.148,76 L85,145.755 Z M95.693,121.536 L130.996,121.536 L130.263,119.313 L96.474,119.313 L95.693,121.536 Z M139.15,145.755 L141.787,145.755 L114.638,76 L113.466,76 L113.466,79.287 L139.15,145.755 Z" stroke="none" />
        <path id="Baseline-S" d="M18,146 l800,0" />
        <path id="left-margin-Ultralight-S" d="M220,56 l0,110" />
        <path id="right-margin-Ultralight-S" d="M310,56 l0,110" />
        <path id="left-margin-Regular-S" d="M420,56 l0,110" />
        <path id="right-margin-Regular-S" d="M510,56 l0,110" />
        <path id="left-margin-Black-S" d="M620,56 l0,110" />
        <path id="right-margin-Black-S" d="M710,56 l0,110" />
        <path id="Capline-M" d="M18,276 l800,0" />
        <path id="Baseline-M" d="M18,346 l800,0" />
        <path id="Capline-L" d="M18,476 l800,0" />
        <path id="Baseline-L" d="M18,546 l800,0" />
    </g>
    <g id="Symbols">
        <g id="Ultralight-S">
            <path d="M304.654,108.856 C303.961,107.637 302.806,106.749 301.451,106.389 C299.016,105.763 296.5,105.511 293.989,105.642 C295.336,98.962 294.326,93.678 293.296,90.545 C292.446,87.878 289.709,86.294 286.973,86.884 C283.548,87.646 280.292,89.029 277.364,90.963 C275.22,86.583 272.099,82.754 268.241,79.773 C266.32,78.332 263.68,78.332 261.759,79.773 C257.9,82.754 254.778,86.582 252.636,90.963 C249.708,89.029 246.452,87.646 243.027,86.884 C240.291,86.294 237.554,87.878 236.704,90.545 C235.694,93.678 234.685,98.959 236.011,105.642 C233.5,105.511 230.984,105.763 228.55,106.389 C227.194,106.749 226.039,107.637 225.346,108.856 C224.62,110.105 224.426,111.593 224.807,112.986 C225.948,117.216 229.451,125.262 240.062,131.603 C250.674,137.943 259.996,137.923 265.017,137.923 C270.038,137.923 279.377,137.923 289.921,131.603 C300.532,125.263 304.035,117.216 305.176,112.986 C305.563,111.595 305.375,110.107 304.654,108.856 Z M241.826,92.201 C241.834,92.166 241.868,92.144 241.903,92.15 C245.035,92.858 247.99,94.194 250.589,96.078 C249.406,99.95 248.818,103.98 248.846,108.028 C248.846,114.335 250.115,119.471 251.912,123.603 C249.357,121.046 247.147,118.167 245.336,115.038 C239.272,104.478 240.534,96.192 241.826,92.201 Z M242.836,126.982 C233.86,121.625 230.949,115.055 230,111.572 C232.476,110.962 235.046,110.829 237.572,111.178 C238.415,113.437 239.445,115.622 240.651,117.711 C243.612,122.816 247.492,127.329 252.094,131.024 C248.84,130.088 245.722,128.73 242.822,126.982 Z M265,132 C261.86,129.664 254.231,122.5 254.231,108.028 C254.231,93.736 261.763,86.513 265,84.077 C268.237,86.52 275.769,93.742 275.769,108.035 C275.769,122.5 268.14,129.664 265,132 Z M279.411,96.078 C282.01,94.195 284.965,92.86 288.097,92.154 C288.132,92.148 288.166,92.17 288.174,92.204 C289.466,96.192 290.728,104.478 284.664,115.038 C282.855,118.171 280.644,121.054 278.088,123.613 C279.885,119.488 281.154,114.345 281.154,108.038 C281.183,103.985 280.595,99.952 279.41,96.077 Z M300,111.579 C299.068,115.028 296.163,121.611 287.181,126.982 C284.281,128.728 281.164,130.086 277.91,131.021 C282.512,127.326 286.391,122.812 289.352,117.707 C290.558,115.619 291.588,113.434 292.431,111.175 C294.957,110.827 297.525,110.963 300,111.575 Z" />
        </g>
        <g id="Regular-S">
            <path d="M504.654,108.856 C503.961,107.637 502.806,106.749 501.45,106.389 C499.016,105.763 496.5,105.511 493.989,105.642 C495.336,98.962 494.326,93.678 493.296,90.545 C492.446,87.878 489.709,86.294 486.973,86.884 C483.548,87.646 480.292,89.029 477.364,90.963 C475.22,86.583 472.099,82.754 468.241,79.773 C466.32,78.332 463.68,78.332 461.759,79.773 C457.9,82.754 454.778,86.582 452.636,90.963 C449.708,89.029 446.452,87.646 443.027,86.884 C440.291,86.294 437.554,87.878 436.704,90.545 C435.694,93.678 434.685,98.959 436.011,105.642 C433.5,105.511 430.984,105.763 428.549,106.389 C427.194,106.749 426.039,107.637 425.346,108.856 C424.62,110.105 424.426,111.593 424.807,112.986 C425.948,117.216 429.451,125.262 440.062,131.603 C450.674,137.943 459.996,137.923 465.017,137.923 C470.038,137.923 479.377,137.923 489.921,131.603 C500.532,125.263 504.035,117.216 505.176,112.986 C505.563,111.595 505.375,110.107 504.654,108.856 Z M441.826,92.201 C441.834,92.166 441.868,92.144 441.903,92.15 C445.035,92.858 447.99,94.194 450.589,96.078 C449.406,99.95 448.818,103.98 448.846,108.028 C448.846,114.335 450.115,119.471 451.912,123.603 C449.357,121.046 447.147,118.167 445.336,115.038 C439.272,104.478 440.534,96.192 441.826,92.201 Z M442.836,126.982 C433.86,121.625 430.949,115.055 430,111.572 C432.476,110.962 435.046,110.829 437.572,111.178 C438.415,113.437 439.445,115.622 440.651,117.711 C443.612,122.816 447.492,127.329 452.094,131.024 C448.84,130.088 445.722,128.73 442.822,126.982 Z M465,132 C461.86,129.664 454.231,122.5 454.231,108.028 C454.231,93.736 461.762,86.513 465,84.077 C468.237,86.52 475.769,93.742 475.769,108.035 C475.769,122.5 468.14,129.664 465,132 Z M479.411,96.078 C482.01,94.195 484.965,92.86 488.097,92.154 C488.132,92.148 488.166,92.17 488.174,92.204 C489.466,96.192 490.728,104.478 484.664,115.038 C482.855,118.171 480.644,121.054 478.088,123.613 C479.885,119.488 481.154,114.345 481.154,108.038 C481.183,103.985 480.595,99.952 479.41,96.077 Z M500,111.579 C499.068,115.028 496.163,121.611 487.181,126.982 C484.281,128.728 481.164,130.086 477.91,131.021 C482.512,127.326 486.391,122.812 489.352,117.707 C490.558,115.619 491.588,113.434 492.431,111.175 C494.957,110.827 497.525,110.963 500,111.575 Z" />
        </g>
        <g id="Black-S">
            <path d="M704.654,108.856 C703.961,107.637 702.806,106.749 701.451,106.389 C699.016,105.763 696.5,105.511 693.989,105.642 C695.336,98.962 694.326,93.678 693.296,90.545 C692.446,87.878 689.709,86.294 686.973,86.884 C683.548,87.646 680.292,89.029 677.364,90.963 C675.221,86.583 672.099,82.754 668.241,79.773 C666.32,78.332 663.68,78.332 661.759,79.773 C657.9,82.754 654.779,86.582 652.636,90.963 C649.708,89.029 646.452,87.646 643.027,86.884 C640.291,86.294 637.554,87.878 636.704,90.545 C635.694,93.678 634.685,98.959 636.011,105.642 C633.5,105.511 630.984,105.763 628.549,106.389 C627.194,106.749 626.039,107.637 625.346,108.856 C624.62,110.105 624.426,111.593 624.807,112.986 C625.948,117.216 629.451,125.262 640.062,131.603 C650.674,137.943 659.996,137.923 665.017,137.923 C670.038,137.923 679.377,137.923 689.921,131.603 C700.532,125.263 704.035,117.216 705.176,112.986 C705.563,111.595 705.375,110.107 704.654,108.856 Z M641.826,92.201 C641.834,92.166 641.868,92.144 641.903,92.15 C645.035,92.858 647.99,94.194 650.589,96.078 C649.406,99.95 648.818,103.98 648.846,108.028 C648.846,114.335 650.115,119.471 651.912,123.603 C649.357,121.046 647.147,118.167 645.336,115.038 C639.272,104.478 640.534,96.192 641.826,92.201 Z M642.836,126.982 C633.86,121.625 630.949,115.055 630,111.572 C632.476,110.962 635.046,110.829 637.572,111.178 C638.415,113.437 639.445,115.622 640.651,117.711 C643.612,122.816 647.492,127.329 652.094,131.024 C648.84,130.088 645.722,128.73 642.822,126.982 Z M665,132 C661.86,129.664 654.231,122.5 654.231,108.028 C654.231,93.736 661.763,86.513 665,84.077 C668.238,86.52 675.769,93.742 675.769,108.035 C675.769,122.5 668.14,129.664 665,132 Z M679.411,96.078 C682.01,94.195 684.965,92.86 688.097,92.154 C688.132,92.148 688.166,92.17 688.174,92.204 C689.466,96.192 690.728,104.478 684.664,115.038 C682.855,118.171 680.644,121.054 678.088,123.613 C679.885,119.488 681.154,114.345 681.154,108.038 C681.183,103.985 680.595,99.952 679.41,96.077 Z M700,111.579 C699.068,115.028 696.163,121.611 687.181,126.982 C684.281,128.728 681.164,130.086 677.91,131.021 C682.512,127.326 686.391,122.812 689.352,117.707 C690.558,115.619 691.588,113.434 692.431,111.175 C694.957,110.827 697.525,110.963 700,111.575 Z" />
        </g>
    </g>
</svg>