<?xml version="1.0" encoding="UTF-8"?>
<svg height="600" width="800" xmlns="http://www.w3.org/2000/svg" xmlns:xlink="http://www.w3.org/1999/xlink">
    <g id="Notes" font-family="'LucidaGrande', 'Lucida Grande', sans-serif" font-size="13">
        <rect fill="white" height="600.0" width="800.0" x="0.0" y="0.0" />
        <g font-size="13">
            <text x="18.0" y="176.0">Small</text>
            <text x="18.0" y="376.0">Medium</text>
            <text x="18.0" y="576.0">Large</text>
        </g>
        <g font-size="9">
            <text x="250.0" y="30.0">Ultralight</text>
            <text x="450.0" y="30.0">Regular</text>
            <text x="650.0" y="30.0">Black</text>
            <text id="template-version" fill="#505050" text-anchor="end" x="785.0" y="575.0">Template v.3.0</text>
            <a href="https://github.com/swhitty/SwiftDraw">
                <text fill="#505050" text-anchor="end" x="785.0" y="590.0">https://github.com/swhitty/SwiftDraw</text>
            </a>
        </g>
    </g>
    <g id="Guides" stroke="rgb(39, 170, 225)" stroke-width="0.5">
        <path id="Capline-S" d="M18,76 l800,0" />
        <path id="H-reference" d="M85,145.755 L87.685,145.755 L113.369,79.287 L114.052,79.287 L114.052,76 L112.148,76 L85,145.755 Z M95.693,121.536 L130.996,121.536 L130.263,119.313 L96.474,119.313 L95.693,121.536 Z M139.15,145.755 L141.787,145.755 L114.638,76 L113.466,76 L113.466,79.287 L139.15,145.755 Z" stroke="none" />
        <path id="Baseline-S" d="M18,146 l800,0" />
        <path id="left-margin-Ultralight-S" d="M220,56 l0,110" />
        <path id="right-margin-Ultralight-S" d="M310,56 l0,110" />
        <path id="left-margin-Regular-S" d="M420,56 l0,110" />
        <path id="right-margin-Regular-S" d="M510,56 l0,110" />
        <path id="left-margin-Black-S" d="M620,56 l0,110" />
        <path id="right-margin-Black-S" d="M710,56 l0,110" />
        <path id="Capline-M" d="M18,276 l800,0" />
        <path id="Baseline-M" d="M18,346 l800,0" />
        <path id="Capline-L" d="M18,476 l800,0" />
        <path id="Baseline-L" d="M18,546 l800,0" />
    </g>
    <g id="Symbols">
        <g id="Ultralight-S">
            <path d="M294.615,94.846 L283.846,94.846 L283.846,84.077 C283.846,82.649 283.279,81.279 282.269,80.269 C281.259,79.26 279.89,78.692 278.462,78.692 L235.385,78.692 C233.957,78.692 232.587,79.26 231.577,80.269 C230.567,81.279 230,82.649 230,84.077 L230,127.154 C230.003,128.187 230.598,129.128 231.53,129.574 C232.463,130.02 233.568,129.893 234.375,129.247 L246.154,119.75 L246.154,129.846 C246.154,131.274 246.721,132.644 247.731,133.654 C248.741,134.663 250.11,135.231 251.538,135.231 L283.035,135.231 L295.625,145.401 C296.101,145.786 296.695,145.998 297.308,146 C298.022,146 298.707,145.716 299.211,145.211 C299.716,144.707 300,144.022 300,143.308 L300,100.231 C300,98.803 299.433,97.433 298.423,96.423 C297.413,95.413 296.043,94.846 294.615,94.846 Z M244.32,114.291 L235.385,121.517 L235.385,84.077 L278.462,84.077 L278.462,113.692 L246.013,113.692 C245.396,113.692 244.799,113.904 244.32,114.291 Z M294.615,137.671 L285.68,130.445 C285.204,130.06 284.61,129.849 283.998,129.846 L251.538,129.846 L251.538,119.077 L278.462,119.077 C279.89,119.077 281.259,118.51 282.269,117.5 C283.279,116.49 283.846,115.12 283.846,113.692 L283.846,100.231 L294.615,100.231 Z" />
        </g>
        <g id="Regular-S">
            <path d="M494.615,94.846 L483.846,94.846 L483.846,84.077 C483.846,82.649 483.279,81.279 482.269,80.269 C481.259,79.26 479.89,78.692 478.462,78.692 L435.385,78.692 C433.957,78.692 432.587,79.26 431.577,80.269 C430.567,81.279 430,82.649 430,84.077 L430,127.154 C430.003,128.187 430.598,129.128 431.53,129.574 C432.463,130.02 433.568,129.893 434.375,129.247 L446.154,119.75 L446.154,129.846 C446.154,131.274 446.721,132.644 447.731,133.654 C448.741,134.663 450.11,135.231 451.538,135.231 L483.035,135.231 L495.625,145.401 C496.101,145.786 496.695,145.998 497.308,146 C498.022,146 498.707,145.716 499.211,145.211 C499.716,144.707 500,144.022 500,143.308 L500,100.231 C500,98.803 499.433,97.433 498.423,96.423 C497.413,95.413 496.043,94.846 494.615,94.846 Z M444.32,114.291 L435.385,121.517 L435.385,84.077 L478.462,84.077 L478.462,113.692 L446.012,113.692 C445.396,113.692 444.799,113.904 444.32,114.291 Z M494.615,137.671 L485.68,130.445 C485.204,130.06 484.61,129.849 483.998,129.846 L451.538,129.846 L451.538,119.077 L478.462,119.077 C479.89,119.077 481.259,118.51 482.269,117.5 C483.279,116.49 483.846,115.12 483.846,113.692 L483.846,100.231 L494.615,100.231 Z" />
        </g>
        <g id="Black-S">
            <path d="M694.615,94.846 L683.846,94.846 L683.846,84.077 C683.846,82.649 683.279,81.279 682.269,80.269 C681.259,79.26 679.89,78.692 678.462,78.692 L635.385,78.692 C633.957,78.692 632.587,79.26 631.577,80.269 C630.567,81.279 630,82.649 630,84.077 L630,127.154 C630.003,128.187 630.598,129.128 631.53,129.574 C632.463,130.02 633.568,129.893 634.375,129.247 L646.154,119.75 L646.154,129.846 C646.154,131.274 646.721,132.644 647.731,133.654 C648.741,134.663 650.11,135.231 651.538,135.231 L683.035,135.231 L695.625,145.401 C696.101,145.786 696.695,145.998 697.308,146 C698.022,146 698.707,145.716 699.211,145.211 C699.716,144.707 700,144.022 700,143.308 L700,100.231 C700,98.803 699.433,97.433 698.423,96.423 C697.413,95.413 696.044,94.846 694.615,94.846 Z M644.32,114.291 L635.385,121.517 L635.385,84.077 L678.462,84.077 L678.462,113.692 L646.013,113.692 C645.396,113.692 644.799,113.904 644.32,114.291 Z M694.615,137.671 L685.68,130.445 C685.204,130.06 684.61,129.849 683.998,129.846 L651.538,129.846 L651.538,119.077 L678.462,119.077 C679.89,119.077 681.259,118.51 682.269,117.5 C683.279,116.49 683.846,115.12 683.846,113.692 L683.846,100.231 L694.615,100.231 Z" />
        </g>
    </g>
</svg>