<?xml version="1.0" encoding="UTF-8"?>
<svg height="600" width="800" xmlns="http://www.w3.org/2000/svg" xmlns:xlink="http://www.w3.org/1999/xlink">
    <g id="Notes" font-family="'LucidaGrande', 'Lucida Grande', sans-serif" font-size="13">
        <rect fill="white" height="600.0" width="800.0" x="0.0" y="0.0" />
        <g font-size="13">
            <text x="18.0" y="176.0">Small</text>
            <text x="18.0" y="376.0">Medium</text>
            <text x="18.0" y="576.0">Large</text>
        </g>
        <g font-size="9">
            <text x="250.0" y="30.0">Ultralight</text>
            <text x="450.0" y="30.0">Regular</text>
            <text x="650.0" y="30.0">Black</text>
            <text id="template-version" fill="#505050" text-anchor="end" x="785.0" y="575.0">Template v.3.0</text>
            <a href="https://github.com/swhitty/SwiftDraw">
                <text fill="#505050" text-anchor="end" x="785.0" y="590.0">https://github.com/swhitty/SwiftDraw</text>
            </a>
        </g>
    </g>
    <g id="Guides" stroke="rgb(39, 170, 225)" stroke-width="0.5">
        <path id="Capline-S" d="M18,76 l800,0" />
        <path id="H-reference" d="M85,145.755 L87.685,145.755 L113.369,79.287 L114.052,79.287 L114.052,76 L112.148,76 L85,145.755 Z M95.693,121.536 L130.996,121.536 L130.263,119.313 L96.474,119.313 L95.693,121.536 Z M139.15,145.755 L141.787,145.755 L114.638,76 L113.466,76 L113.466,79.287 L139.15,145.755 Z" stroke="none" />
        <path id="Baseline-S" d="M18,146 l800,0" />
        <path id="left-margin-Ultralight-S" d="M220,56 l0,110" />
        <path id="right-margin-Ultralight-S" d="M310,56 l0,110" />
        <path id="left-margin-Regular-S" d="M420,56 l0,110" />
        <path id="right-margin-Regular-S" d="M510,56 l0,110" />
        <path id="left-margin-Black-S" d="M620,56 l0,110" />
        <path id="right-margin-Black-S" d="M710,56 l0,110" />
        <path id="Capline-M" d="M18,276 l800,0" />
        <path id="Baseline-M" d="M18,346 l800,0" />
        <path id="Capline-L" d="M18,476 l800,0" />
        <path id="Baseline-L" d="M18,546 l800,0" />
    </g>
    <g id="Symbols">
        <g id="Ultralight-S">
            <path d="M245.185,99.608 L231.514,111 L245.185,122.392 C245.945,123.001 246.318,123.973 246.158,124.935 C245.998,125.896 245.332,126.696 244.415,127.026 C243.498,127.357 242.475,127.166 241.738,126.528 L225.585,113.066 C224.971,112.555 224.616,111.797 224.616,110.998 C224.616,110.199 224.971,109.442 225.585,108.93 L241.738,95.469 C242.881,94.517 244.579,94.672 245.531,95.815 C246.483,96.958 246.328,98.656 245.185,99.608 Z M304.415,108.93 L288.262,95.469 C287.119,94.517 285.421,94.672 284.469,95.815 C283.517,96.958 283.672,98.656 284.815,99.608 L298.486,111 L284.815,122.392 C284.055,123.001 283.682,123.973 283.842,124.935 C284.002,125.896 284.668,126.696 285.585,127.026 C286.502,127.357 287.525,127.166 288.262,126.528 L304.415,113.066 C305.029,112.555 305.384,111.797 305.384,110.998 C305.384,110.199 305.029,109.442 304.415,108.93 Z M276.688,78.854 C276.017,78.61 275.276,78.643 274.629,78.945 C273.982,79.248 273.482,79.795 273.238,80.466 L251.7,139.697 C251.455,140.368 251.488,141.11 251.79,141.757 C252.092,142.405 252.64,142.906 253.312,143.15 C253.607,143.254 253.918,143.308 254.231,143.308 C255.363,143.308 256.375,142.599 256.762,141.534 L278.3,82.303 C278.544,81.632 278.511,80.892 278.208,80.245 C277.906,79.598 277.359,79.098 276.688,78.854 Z" />
        </g>
        <g id="Regular-S">
            <path d="M445.185,99.608 L431.514,111 L445.185,122.392 C445.945,123.001 446.318,123.973 446.158,124.935 C445.998,125.896 445.332,126.696 444.415,127.026 C443.498,127.357 442.475,127.166 441.738,126.528 L425.585,113.066 C424.971,112.555 424.616,111.797 424.616,110.998 C424.616,110.199 424.971,109.442 425.585,108.93 L441.738,95.469 C442.881,94.517 444.579,94.672 445.531,95.815 C446.483,96.958 446.328,98.656 445.185,99.608 Z M504.415,108.93 L488.262,95.469 C487.119,94.517 485.421,94.672 484.469,95.815 C483.517,96.958 483.672,98.656 484.815,99.608 L498.486,111 L484.815,122.392 C484.055,123.001 483.682,123.973 483.842,124.935 C484.002,125.896 484.668,126.696 485.585,127.026 C486.502,127.357 487.525,127.166 488.262,126.528 L504.415,113.066 C505.029,112.555 505.384,111.797 505.384,110.998 C505.384,110.199 505.029,109.442 504.415,108.93 Z M476.688,78.854 C476.017,78.61 475.276,78.643 474.629,78.945 C473.982,79.248 473.482,79.795 473.238,80.466 L451.7,139.697 C451.455,140.368 451.488,141.11 451.79,141.757 C452.092,142.405 452.64,142.906 453.312,143.15 C453.607,143.254 453.918,143.308 454.231,143.308 C455.363,143.308 456.375,142.599 456.762,141.534 L478.3,82.303 C478.544,81.632 478.511,80.892 478.208,80.245 C477.906,79.598 477.359,79.098 476.688,78.854 Z" />
        </g>
        <g id="Black-S">
            <path d="M645.185,99.608 L631.514,111 L645.185,122.392 C645.945,123.001 646.318,123.973 646.158,124.935 C645.998,125.896 645.332,126.696 644.415,127.026 C643.498,127.357 642.475,127.166 641.738,126.528 L625.585,113.066 C624.971,112.555 624.616,111.797 624.616,110.998 C624.616,110.199 624.971,109.442 625.585,108.93 L641.738,95.469 C642.881,94.517 644.579,94.672 645.531,95.815 C646.483,96.958 646.328,98.656 645.185,99.608 Z M704.415,108.93 L688.262,95.469 C687.119,94.517 685.421,94.672 684.469,95.815 C683.517,96.958 683.672,98.656 684.815,99.608 L698.486,111 L684.815,122.392 C684.055,123.001 683.682,123.973 683.842,124.935 C684.002,125.896 684.668,126.696 685.585,127.026 C686.502,127.357 687.525,127.166 688.262,126.528 L704.415,113.066 C705.029,112.555 705.384,111.797 705.384,110.998 C705.384,110.199 705.029,109.442 704.415,108.93 Z M676.688,78.854 C676.017,78.61 675.276,78.643 674.629,78.945 C673.982,79.248 673.482,79.795 673.238,80.466 L651.7,139.697 C651.455,140.368 651.488,141.11 651.79,141.757 C652.092,142.405 652.64,142.906 653.312,143.15 C653.607,143.254 653.918,143.308 654.231,143.308 C655.363,143.308 656.375,142.599 656.762,141.534 L678.3,82.303 C678.544,81.632 678.511,80.892 678.208,80.245 C677.906,79.598 677.359,79.098 676.688,78.854 Z" />
        </g>
    </g>
</svg>