<?xml version="1.0" encoding="UTF-8"?>
<svg height="600" width="800" xmlns="http://www.w3.org/2000/svg" xmlns:xlink="http://www.w3.org/1999/xlink">
    <g id="Notes" font-family="'LucidaGrande', 'Lucida Grande', sans-serif" font-size="13">
        <rect fill="white" height="600.0" width="800.0" x="0.0" y="0.0" />
        <g font-size="13">
            <text x="18.0" y="176.0">Small</text>
            <text x="18.0" y="376.0">Medium</text>
            <text x="18.0" y="576.0">Large</text>
        </g>
        <g font-size="9">
            <text x="250.0" y="30.0">Ultralight</text>
            <text x="450.0" y="30.0">Regular</text>
            <text x="650.0" y="30.0">Black</text>
            <text id="template-version" fill="#505050" text-anchor="end" x="785.0" y="575.0">Template v.3.0</text>
            <a href="https://github.com/swhitty/SwiftDraw">
                <text fill="#505050" text-anchor="end" x="785.0" y="590.0">https://github.com/swhitty/SwiftDraw</text>
            </a>
        </g>
    </g>
    <g id="Guides" stroke="rgb(39, 170, 225)" stroke-width="0.5">
        <path id="Capline-S" d="M18,76 l800,0" />
        <path id="H-reference" d="M85,145.755 L87.685,145.755 L113.369,79.287 L114.052,79.287 L114.052,76 L112.148,76 L85,145.755 Z M95.693,121.536 L130.996,121.536 L130.263,119.313 L96.474,119.313 L95.693,121.536 Z M139.15,145.755 L141.787,145.755 L114.638,76 L113.466,76 L113.466,79.287 L139.15,145.755 Z" stroke="none" />
        <path id="Baseline-S" d="M18,146 l800,0" />
        <path id="left-margin-Ultralight-S" d="M220,56 l0,110" />
        <path id="right-margin-Ultralight-S" d="M310,56 l0,110" />
        <path id="left-margin-Regular-S" d="M420,56 l0,110" />
        <path id="right-margin-Regular-S" d="M510,56 l0,110" />
        <path id="left-margin-Black-S" d="M620,56 l0,110" />
        <path id="right-margin-Black-S" d="M710,56 l0,110" />
        <path id="Capline-M" d="M18,276 l800,0" />
        <path id="Baseline-M" d="M18,346 l800,0" />
        <path id="Capline-L" d="M18,476 l800,0" />
        <path id="Baseline-L" d="M18,546 l800,0" />
    </g>
    <g id="Symbols">
        <g id="Ultralight-S">
            <path d="M297.308,111 C297.308,111.714 297.024,112.399 296.519,112.904 C296.014,113.409 295.329,113.692 294.615,113.692 L259.615,113.692 C258.128,113.692 256.923,112.487 256.923,111 C256.923,109.513 258.128,108.308 259.615,108.308 L294.615,108.308 C295.329,108.308 296.014,108.591 296.519,109.096 C297.024,109.601 297.308,110.286 297.308,111 Z M259.615,92.154 L294.615,92.154 C296.102,92.154 297.308,90.948 297.308,89.462 C297.308,87.975 296.102,86.769 294.615,86.769 L259.615,86.769 C258.128,86.769 256.923,87.975 256.923,89.462 C256.923,90.948 258.128,92.154 259.615,92.154 Z M294.615,129.846 L235.385,129.846 C233.898,129.846 232.692,131.052 232.692,132.538 C232.692,134.025 233.898,135.231 235.385,135.231 L294.615,135.231 C296.102,135.231 297.308,134.025 297.308,132.538 C297.308,131.052 296.102,129.846 294.615,129.846 Z M233.48,115.597 C233.985,116.103 234.67,116.387 235.385,116.387 C236.099,116.387 236.784,116.103 237.289,115.597 L250.751,102.136 C251.257,101.631 251.541,100.945 251.541,100.231 C251.541,99.516 251.257,98.831 250.751,98.326 L237.289,84.864 C236.239,83.813 234.533,83.812 233.481,84.863 C232.428,85.915 232.427,87.62 233.479,88.673 L245.04,100.231 L233.48,111.788 C232.974,112.292 232.69,112.978 232.69,113.692 C232.69,114.407 232.974,115.092 233.48,115.597 Z" />
        </g>
        <g id="Regular-S">
            <path d="M497.308,111 C497.308,111.714 497.024,112.399 496.519,112.904 C496.014,113.409 495.329,113.692 494.615,113.692 L459.615,113.692 C458.128,113.692 456.923,112.487 456.923,111 C456.923,109.513 458.128,108.308 459.615,108.308 L494.615,108.308 C495.329,108.308 496.014,108.591 496.519,109.096 C497.024,109.601 497.308,110.286 497.308,111 Z M459.615,92.154 L494.615,92.154 C496.102,92.154 497.308,90.948 497.308,89.462 C497.308,87.975 496.102,86.769 494.615,86.769 L459.615,86.769 C458.128,86.769 456.923,87.975 456.923,89.462 C456.923,90.948 458.128,92.154 459.615,92.154 Z M494.615,129.846 L435.385,129.846 C433.898,129.846 432.692,131.052 432.692,132.538 C432.692,134.025 433.898,135.231 435.385,135.231 L494.615,135.231 C496.102,135.231 497.308,134.025 497.308,132.538 C497.308,131.052 496.102,129.846 494.615,129.846 Z M433.48,115.597 C433.985,116.103 434.67,116.387 435.385,116.387 C436.099,116.387 436.784,116.103 437.289,115.597 L450.751,102.136 C451.257,101.631 451.541,100.945 451.541,100.231 C451.541,99.516 451.257,98.831 450.751,98.326 L437.289,84.864 C436.239,83.813 434.533,83.812 433.481,84.863 C432.428,85.915 432.427,87.62 433.479,88.673 L445.04,100.231 L433.48,111.788 C432.974,112.292 432.69,112.978 432.69,113.692 C432.69,114.407 432.974,115.092 433.48,115.597 Z" />
        </g>
        <g id="Black-S">
            <path d="M697.308,111 C697.308,111.714 697.024,112.399 696.519,112.904 C696.014,113.409 695.329,113.692 694.615,113.692 L659.615,113.692 C658.128,113.692 656.923,112.487 656.923,111 C656.923,109.513 658.128,108.308 659.615,108.308 L694.615,108.308 C695.329,108.308 696.014,108.591 696.519,109.096 C697.024,109.601 697.308,110.286 697.308,111 Z M659.615,92.154 L694.615,92.154 C696.102,92.154 697.308,90.948 697.308,89.462 C697.308,87.975 696.102,86.769 694.615,86.769 L659.615,86.769 C658.128,86.769 656.923,87.975 656.923,89.462 C656.923,90.948 658.128,92.154 659.615,92.154 Z M694.615,129.846 L635.385,129.846 C633.898,129.846 632.692,131.052 632.692,132.538 C632.692,134.025 633.898,135.231 635.385,135.231 L694.615,135.231 C696.102,135.231 697.308,134.025 697.308,132.538 C697.308,131.052 696.102,129.846 694.615,129.846 Z M633.48,115.597 C633.985,116.103 634.67,116.387 635.385,116.387 C636.099,116.387 636.784,116.103 637.289,115.597 L650.751,102.136 C651.257,101.631 651.541,100.945 651.541,100.231 C651.541,99.516 651.257,98.831 650.751,98.326 L637.289,84.864 C636.239,83.813 634.533,83.812 633.481,84.863 C632.428,85.915 632.427,87.62 633.479,88.673 L645.04,100.231 L633.48,111.788 C632.974,112.292 632.69,112.978 632.69,113.692 C632.69,114.407 632.974,115.092 633.48,115.597 Z" />
        </g>
    </g>
</svg>