<?xml version="1.0" encoding="UTF-8"?>
<svg height="600" width="800" xmlns="http://www.w3.org/2000/svg" xmlns:xlink="http://www.w3.org/1999/xlink">
    <g id="Notes" font-family="'LucidaGrande', 'Lucida Grande', sans-serif" font-size="13">
        <rect fill="white" height="600.0" width="800.0" x="0.0" y="0.0" />
        <g font-size="13">
            <text x="18.0" y="176.0">Small</text>
            <text x="18.0" y="376.0">Medium</text>
            <text x="18.0" y="576.0">Large</text>
        </g>
        <g font-size="9">
            <text x="250.0" y="30.0">Ultralight</text>
            <text x="450.0" y="30.0">Regular</text>
            <text x="650.0" y="30.0">Black</text>
            <text id="template-version" fill="#505050" text-anchor="end" x="785.0" y="575.0">Template v.3.0</text>
            <a href="https://github.com/swhitty/SwiftDraw">
                <text fill="#505050" text-anchor="end" x="785.0" y="590.0">https://github.com/swhitty/SwiftDraw</text>
            </a>
        </g>
    </g>
    <g id="Guides" stroke="rgb(39, 170, 225)" stroke-width="0.5">
        <path id="Capline-S" d="M18,76 l800,0" />
        <path id="H-reference" d="M85,145.755 L87.685,145.755 L113.369,79.287 L114.052,79.287 L114.052,76 L112.148,76 L85,145.755 Z M95.693,121.536 L130.996,121.536 L130.263,119.313 L96.474,119.313 L95.693,121.536 Z M139.15,145.755 L141.787,145.755 L114.638,76 L113.466,76 L113.466,79.287 L139.15,145.755 Z" stroke="none" />
        <path id="Baseline-S" d="M18,146 l800,0" />
        <path id="left-margin-Ultralight-S" d="M220,56 l0,110" />
        <path id="right-margin-Ultralight-S" d="M310,56 l0,110" />
        <path id="left-margin-Regular-S" d="M420,56 l0,110" />
        <path id="right-margin-Regular-S" d="M510,56 l0,110" />
        <path id="left-margin-Black-S" d="M620,56 l0,110" />
        <path id="right-margin-Black-S" d="M710,56 l0,110" />
        <path id="Capline-M" d="M18,276 l800,0" />
        <path id="Baseline-M" d="M18,346 l800,0" />
        <path id="Capline-L" d="M18,476 l800,0" />
        <path id="Baseline-L" d="M18,546 l800,0" />
    </g>
    <g id="Symbols">
        <g id="Ultralight-S">
            <path d="M275.318,134.033 L264.549,150.187 C263.726,151.423 262.054,151.759 260.815,150.935 C259.577,150.111 259.241,148.438 260.065,147.2 L270.834,131.046 C271.657,129.809 273.33,129.473 274.568,130.298 C275.807,131.122 276.143,132.794 275.318,134.033 Z M300,98.885 C299.985,113.005 288.542,124.447 274.422,124.462 L266.44,124.462 L256.472,139.417 C255.649,140.654 253.977,140.99 252.738,140.166 C251.5,139.341 251.164,137.669 251.988,136.431 L259.969,124.462 L247.5,124.462 C237.835,124.462 230,116.627 230,106.962 C230,97.297 237.835,89.462 247.5,89.462 C248.506,89.462 249.51,89.548 250.502,89.717 C254.932,78.21 266.935,71.495 279.059,73.741 C291.183,75.986 299.985,86.554 300,98.885 Z M294.615,98.885 C294.571,87.986 285.893,79.085 274.999,78.764 C264.105,78.443 254.918,86.816 254.231,97.693 C254.235,99.028 253.028,100.235 251.538,100.235 C250.049,100.235 248.842,99.028 248.842,97.539 C248.889,96.717 248.975,96.717 249.101,95.105 C248.573,94.985 248.039,94.899 247.5,94.846 C240.809,94.846 235.385,100.27 235.385,106.962 C235.385,113.653 240.809,119.077 247.5,119.077 L274.423,119.077 C285.57,119.064 294.602,110.031 294.615,98.885 Z" />
        </g>
        <g id="Regular-S">
            <path d="M475.318,134.033 L464.549,150.187 C463.726,151.423 462.054,151.759 460.815,150.935 C459.577,150.111 459.241,148.438 460.065,147.2 L470.834,131.046 C471.657,129.809 473.33,129.473 474.568,130.298 C475.807,131.122 476.142,132.794 475.318,134.033 Z M500,98.885 C499.985,113.005 488.542,124.447 474.422,124.462 L466.44,124.462 L456.472,139.417 C455.649,140.654 453.977,140.99 452.738,140.166 C451.5,139.341 451.164,137.669 451.988,136.431 L459.969,124.462 L447.5,124.462 C437.835,124.462 430,116.627 430,106.962 C430,97.297 437.835,89.462 447.5,89.462 C448.506,89.462 449.51,89.548 450.502,89.717 C454.932,78.21 466.935,71.495 479.059,73.741 C491.183,75.986 499.985,86.554 500,98.885 Z M494.615,98.885 C494.571,87.986 485.893,79.085 474.999,78.764 C464.105,78.443 454.918,86.816 454.231,97.693 C454.235,99.028 453.028,100.235 451.538,100.235 C450.049,100.235 448.842,99.028 448.842,97.539 C448.889,96.717 448.975,96.717 449.101,95.105 C448.573,94.985 448.039,94.899 447.5,94.846 C440.809,94.846 435.385,100.27 435.385,106.962 C435.385,113.653 440.809,119.077 447.5,119.077 L474.423,119.077 C485.57,119.064 494.602,110.031 494.615,98.885 Z" />
        </g>
        <g id="Black-S">
            <path d="M675.318,134.033 L664.549,150.187 C663.726,151.423 662.054,151.759 660.815,150.935 C659.577,150.111 659.241,148.438 660.065,147.2 L670.834,131.046 C671.657,129.809 673.33,129.473 674.568,130.298 C675.807,131.122 676.143,132.794 675.318,134.033 Z M700,98.885 C699.985,113.005 688.542,124.447 674.422,124.462 L666.44,124.462 L656.472,139.417 C655.649,140.654 653.977,140.99 652.738,140.166 C651.5,139.341 651.164,137.669 651.988,136.431 L659.969,124.462 L647.5,124.462 C637.835,124.462 630,116.627 630,106.962 C630,97.297 637.835,89.462 647.5,89.462 C648.506,89.462 649.51,89.548 650.502,89.717 C654.932,78.21 666.935,71.495 679.059,73.741 C691.183,75.986 699.985,86.554 700,98.885 Z M694.615,98.885 C694.571,87.986 685.893,79.085 674.999,78.764 C664.105,78.443 654.918,86.816 654.231,97.693 C654.235,99.028 653.028,100.235 651.538,100.235 C650.049,100.235 648.842,99.028 648.842,97.539 C648.889,96.717 648.975,96.717 649.101,95.105 C648.573,94.985 648.039,94.899 647.5,94.846 C640.809,94.846 635.385,100.27 635.385,106.962 C635.385,113.653 640.809,119.077 647.5,119.077 L674.423,119.077 C685.57,119.064 694.602,110.031 694.615,98.885 Z" />
        </g>
    </g>
</svg>