<?xml version="1.0" encoding="UTF-8"?>
<svg height="600" width="800" xmlns="http://www.w3.org/2000/svg" xmlns:xlink="http://www.w3.org/1999/xlink">
    <g id="Notes" font-family="'LucidaGrande', 'Lucida Grande', sans-serif" font-size="13">
        <rect fill="white" height="600.0" width="800.0" x="0.0" y="0.0" />
        <g font-size="13">
            <text x="18.0" y="176.0">Small</text>
            <text x="18.0" y="376.0">Medium</text>
            <text x="18.0" y="576.0">Large</text>
        </g>
        <g font-size="9">
            <text x="250.0" y="30.0">Ultralight</text>
            <text x="450.0" y="30.0">Regular</text>
            <text x="650.0" y="30.0">Black</text>
            <text id="template-version" fill="#505050" text-anchor="end" x="785.0" y="575.0">Template v.3.0</text>
            <a href="https://github.com/swhitty/SwiftDraw">
                <text fill="#505050" text-anchor="end" x="785.0" y="590.0">https://github.com/swhitty/SwiftDraw</text>
            </a>
        </g>
    </g>
    <g id="Guides" stroke="rgb(39, 170, 225)" stroke-width="0.5">
        <path id="Capline-S" d="M18,76 l800,0" />
        <path id="H-reference" d="M85,145.755 L87.685,145.755 L113.369,79.287 L114.052,79.287 L114.052,76 L112.148,76 L85,145.755 Z M95.693,121.536 L130.996,121.536 L130.263,119.313 L96.474,119.313 L95.693,121.536 Z M139.15,145.755 L141.787,145.755 L114.638,76 L113.466,76 L113.466,79.287 L139.15,145.755 Z" stroke="none" />
        <path id="Baseline-S" d="M18,146 l800,0" />
        <path id="left-margin-Ultralight-S" d="M220,56 l0,110" />
        <path id="right-margin-Ultralight-S" d="M310,56 l0,110" />
        <path id="left-margin-Regular-S" d="M420,56 l0,110" />
        <path id="right-margin-Regular-S" d="M510,56 l0,110" />
        <path id="left-margin-Black-S" d="M620,56 l0,110" />
        <path id="right-margin-Black-S" d="M710,56 l0,110" />
        <path id="Capline-M" d="M18,276 l800,0" />
        <path id="Baseline-M" d="M18,346 l800,0" />
        <path id="Capline-L" d="M18,476 l800,0" />
        <path id="Baseline-L" d="M18,546 l800,0" />
    </g>
    <g id="Symbols">
        <g id="Ultralight-S">
            <path d="M302.437,112.144 C295.033,127.894 288.504,135.231 281.84,135.231 C273.393,135.231 268.133,124.017 262.563,112.144 C258.168,102.775 253.188,92.154 248.173,92.154 C242.654,92.154 235.953,104.676 232.45,112.144 C231.802,113.46 230.219,114.015 228.89,113.391 C227.562,112.768 226.978,111.195 227.577,109.856 C234.95,94.106 241.496,86.769 248.173,86.769 C256.62,86.769 261.88,97.983 267.45,109.856 C271.832,119.225 276.812,129.846 281.827,129.846 C287.346,129.846 294.047,117.324 297.55,109.856 C298.198,108.54 299.781,107.985 301.11,108.609 C302.438,109.232 303.022,110.805 302.423,112.144 Z" />
        </g>
        <g id="Regular-S">
            <path d="M502.437,112.144 C495.033,127.894 488.504,135.231 481.84,135.231 C473.393,135.231 468.133,124.017 462.563,112.144 C458.168,102.775 453.188,92.154 448.173,92.154 C442.654,92.154 435.953,104.676 432.45,112.144 C431.802,113.46 430.219,114.015 428.89,113.391 C427.562,112.768 426.978,111.195 427.577,109.856 C434.95,94.106 441.496,86.769 448.173,86.769 C456.62,86.769 461.88,97.983 467.45,109.856 C471.832,119.225 476.812,129.846 481.827,129.846 C487.346,129.846 494.047,117.324 497.55,109.856 C498.198,108.54 499.781,107.985 501.11,108.609 C502.438,109.232 503.022,110.805 502.423,112.144 Z" />
        </g>
        <g id="Black-S">
            <path d="M702.437,112.144 C695.033,127.894 688.504,135.231 681.84,135.231 C673.393,135.231 668.133,124.017 662.563,112.144 C658.168,102.775 653.188,92.154 648.173,92.154 C642.654,92.154 635.953,104.676 632.45,112.144 C631.802,113.46 630.219,114.015 628.89,113.391 C627.562,112.768 626.978,111.195 627.577,109.856 C634.951,94.106 641.496,86.769 648.173,86.769 C656.62,86.769 661.88,97.983 667.45,109.856 C671.832,119.225 676.812,129.846 681.827,129.846 C687.346,129.846 694.047,117.324 697.55,109.856 C698.198,108.54 699.781,107.985 701.11,108.609 C702.438,109.232 703.022,110.805 702.423,112.144 Z" />
        </g>
    </g>
</svg>