<?xml version="1.0" encoding="UTF-8"?>
<svg height="600" width="800" xmlns="http://www.w3.org/2000/svg" xmlns:xlink="http://www.w3.org/1999/xlink">
    <g id="Notes" font-family="'LucidaGrande', 'Lucida Grande', sans-serif" font-size="13">
        <rect fill="white" height="600.0" width="800.0" x="0.0" y="0.0" />
        <g font-size="13">
            <text x="18.0" y="176.0">Small</text>
            <text x="18.0" y="376.0">Medium</text>
            <text x="18.0" y="576.0">Large</text>
        </g>
        <g font-size="9">
            <text x="250.0" y="30.0">Ultralight</text>
            <text x="450.0" y="30.0">Regular</text>
            <text x="650.0" y="30.0">Black</text>
            <text id="template-version" fill="#505050" text-anchor="end" x="785.0" y="575.0">Template v.3.0</text>
            <a href="https://github.com/swhitty/SwiftDraw">
                <text fill="#505050" text-anchor="end" x="785.0" y="590.0">https://github.com/swhitty/SwiftDraw</text>
            </a>
        </g>
    </g>
    <g id="Guides" stroke="rgb(39, 170, 225)" stroke-width="0.5">
        <path id="Capline-S" d="M18,76 l800,0" />
        <path id="H-reference" d="M85,145.755 L87.685,145.755 L113.369,79.287 L114.052,79.287 L114.052,76 L112.148,76 L85,145.755 Z M95.693,121.536 L130.996,121.536 L130.263,119.313 L96.474,119.313 L95.693,121.536 Z M139.15,145.755 L141.787,145.755 L114.638,76 L113.466,76 L113.466,79.287 L139.15,145.755 Z" stroke="none" />
        <path id="Baseline-S" d="M18,146 l800,0" />
        <path id="left-margin-Ultralight-S" d="M220,56 l0,110" />
        <path id="right-margin-Ultralight-S" d="M310,56 l0,110" />
        <path id="left-margin-Regular-S" d="M420,56 l0,110" />
        <path id="right-margin-Regular-S" d="M510,56 l0,110" />
        <path id="left-margin-Black-S" d="M620,56 l0,110" />
        <path id="right-margin-Black-S" d="M710,56 l0,110" />
        <path id="Capline-M" d="M18,276 l800,0" />
        <path id="Baseline-M" d="M18,346 l800,0" />
        <path id="Capline-L" d="M18,476 l800,0" />
        <path id="Baseline-L" d="M18,546 l800,0" />
    </g>
    <g id="Symbols">
        <g id="Ultralight-S">
            <path d="M294.615,81.385 L235.385,81.385 C233.957,81.385 232.587,81.952 231.577,82.962 C230.567,83.972 230,85.341 230,86.769 L230,140.615 C230,141.548 230.484,142.415 231.278,142.905 C232.072,143.395 233.063,143.439 233.897,143.022 L243.462,138.239 L253.026,143.022 C253.784,143.401 254.677,143.401 255.436,143.022 L265,138.239 L274.564,143.022 C275.323,143.401 276.216,143.401 276.974,143.022 L286.538,138.239 L296.103,143.022 C296.937,143.439 297.928,143.395 298.722,142.905 C299.516,142.415 300,141.548 300,140.615 L300,86.769 C300,85.341 299.433,83.972 298.423,82.962 C297.413,81.952 296.043,81.385 294.615,81.385 Z M294.615,136.261 L287.743,132.821 C286.985,132.442 286.092,132.442 285.334,132.821 L275.769,137.607 L266.205,132.821 C265.446,132.442 264.554,132.442 263.795,132.821 L254.231,137.607 L244.666,132.821 C243.908,132.442 243.015,132.442 242.257,132.821 L235.385,136.261 L235.385,86.769 L294.615,86.769 Z M267.692,105.615 C267.692,104.901 267.976,104.217 268.481,103.712 C268.986,103.207 269.671,102.923 270.385,102.923 L286.538,102.923 C288.025,102.923 289.231,104.128 289.231,105.615 C289.231,107.102 288.025,108.308 286.538,108.308 L270.385,108.308 C269.671,108.308 268.986,108.024 268.481,107.519 C267.976,107.014 267.692,106.329 267.692,105.615 Z M267.692,116.385 C267.692,115.671 267.976,114.986 268.481,114.481 C268.986,113.976 269.671,113.692 270.385,113.692 L286.538,113.692 C288.025,113.692 289.231,114.898 289.231,116.385 C289.231,117.872 288.025,119.077 286.538,119.077 L270.385,119.077 C269.671,119.077 268.986,118.793 268.481,118.288 C267.976,117.783 267.692,117.099 267.692,116.385 Z M243.462,124.462 L259.615,124.462 C260.329,124.462 261.014,124.178 261.519,123.673 C262.024,123.168 262.308,122.483 262.308,121.769 L262.308,100.231 C262.308,99.517 262.024,98.832 261.519,98.327 C261.014,97.822 260.329,97.538 259.615,97.538 L243.462,97.538 C242.747,97.538 242.063,97.822 241.558,98.327 C241.053,98.832 240.769,99.517 240.769,100.231 L240.769,121.769 C240.769,122.483 241.053,123.168 241.558,123.673 C242.063,124.178 242.747,124.462 243.462,124.462 Z M246.154,102.923 L256.923,102.923 L256.923,119.077 L246.154,119.077 Z" />
        </g>
        <g id="Regular-S">
            <path d="M494.615,81.385 L435.385,81.385 C433.957,81.385 432.587,81.952 431.577,82.962 C430.567,83.972 430,85.341 430,86.769 L430,140.615 C430,141.548 430.484,142.415 431.278,142.905 C432.072,143.395 433.063,143.439 433.897,143.022 L443.462,138.239 L453.026,143.022 C453.784,143.401 454.677,143.401 455.436,143.022 L465,138.239 L474.564,143.022 C475.323,143.401 476.216,143.401 476.974,143.022 L486.538,138.239 L496.103,143.022 C496.937,143.439 497.928,143.395 498.722,142.905 C499.516,142.415 499.999,141.548 500,140.615 L500,86.769 C500,85.341 499.433,83.972 498.423,82.962 C497.413,81.952 496.043,81.385 494.615,81.385 Z M494.615,136.261 L487.743,132.821 C486.985,132.442 486.092,132.442 485.334,132.821 L475.769,137.607 L466.205,132.821 C465.446,132.442 464.554,132.442 463.795,132.821 L454.231,137.607 L444.666,132.821 C443.908,132.442 443.015,132.442 442.257,132.821 L435.385,136.261 L435.385,86.769 L494.615,86.769 Z M467.692,105.615 C467.692,104.901 467.976,104.217 468.481,103.712 C468.986,103.207 469.671,102.923 470.385,102.923 L486.538,102.923 C488.025,102.923 489.231,104.128 489.231,105.615 C489.231,107.102 488.025,108.308 486.538,108.308 L470.385,108.308 C469.671,108.308 468.986,108.024 468.481,107.519 C467.976,107.014 467.692,106.329 467.692,105.615 Z M467.692,116.385 C467.692,115.671 467.976,114.986 468.481,114.481 C468.986,113.976 469.671,113.692 470.385,113.692 L486.538,113.692 C488.025,113.692 489.231,114.898 489.231,116.385 C489.231,117.872 488.025,119.077 486.538,119.077 L470.385,119.077 C469.671,119.077 468.986,118.793 468.481,118.288 C467.976,117.783 467.692,117.099 467.692,116.385 Z M443.462,124.462 L459.615,124.462 C460.329,124.462 461.014,124.178 461.519,123.673 C462.024,123.168 462.308,122.483 462.308,121.769 L462.308,100.231 C462.308,99.517 462.024,98.832 461.519,98.327 C461.014,97.822 460.329,97.538 459.615,97.538 L443.462,97.538 C442.747,97.538 442.063,97.822 441.558,98.327 C441.053,98.832 440.769,99.517 440.769,100.231 L440.769,121.769 C440.769,122.483 441.053,123.168 441.558,123.673 C442.063,124.178 442.747,124.462 443.462,124.462 Z M446.154,102.923 L456.923,102.923 L456.923,119.077 L446.154,119.077 Z" />
        </g>
        <g id="Black-S">
            <path d="M694.615,81.385 L635.385,81.385 C633.957,81.385 632.587,81.952 631.577,82.962 C630.567,83.972 630,85.341 630,86.769 L630,140.615 C630,141.548 630.484,142.415 631.278,142.905 C632.072,143.395 633.063,143.439 633.897,143.022 L643.462,138.239 L653.026,143.022 C653.784,143.401 654.677,143.401 655.436,143.022 L665,138.239 L674.564,143.022 C675.323,143.401 676.216,143.401 676.974,143.022 L686.538,138.239 L696.103,143.022 C696.937,143.439 697.928,143.395 698.722,142.905 C699.516,142.415 700,141.548 700,140.615 L700,86.769 C700,85.341 699.433,83.972 698.423,82.962 C697.413,81.952 696.044,81.385 694.615,81.385 Z M694.615,136.261 L687.743,132.821 C686.985,132.442 686.092,132.442 685.334,132.821 L675.769,137.607 L666.205,132.821 C665.446,132.442 664.554,132.442 663.795,132.821 L654.231,137.607 L644.666,132.821 C643.908,132.442 643.015,132.442 642.257,132.821 L635.385,136.261 L635.385,86.769 L694.615,86.769 Z M667.692,105.615 C667.692,104.901 667.976,104.217 668.481,103.712 C668.986,103.207 669.671,102.923 670.385,102.923 L686.538,102.923 C688.025,102.923 689.231,104.128 689.231,105.615 C689.231,107.102 688.025,108.308 686.538,108.308 L670.385,108.308 C669.671,108.308 668.986,108.024 668.481,107.519 C667.976,107.014 667.692,106.329 667.692,105.615 Z M667.692,116.385 C667.692,115.671 667.976,114.986 668.481,114.481 C668.986,113.976 669.671,113.692 670.385,113.692 L686.538,113.692 C688.025,113.692 689.231,114.898 689.231,116.385 C689.231,117.872 688.025,119.077 686.538,119.077 L670.385,119.077 C669.671,119.077 668.986,118.793 668.481,118.288 C667.976,117.783 667.692,117.099 667.692,116.385 Z M643.462,124.462 L659.615,124.462 C660.329,124.462 661.014,124.178 661.519,123.673 C662.024,123.168 662.308,122.483 662.308,121.769 L662.308,100.231 C662.308,99.517 662.024,98.832 661.519,98.327 C661.014,97.822 660.329,97.538 659.615,97.538 L643.462,97.538 C642.747,97.538 642.063,97.822 641.558,98.327 C641.053,98.832 640.769,99.517 640.769,100.231 L640.769,121.769 C640.769,122.483 641.053,123.168 641.558,123.673 C642.063,124.178 642.747,124.462 643.462,124.462 Z M646.154,102.923 L656.923,102.923 L656.923,119.077 L646.154,119.077 Z" />
        </g>
    </g>
</svg>