<?xml version="1.0" encoding="UTF-8"?>
<svg height="600" width="800" xmlns="http://www.w3.org/2000/svg" xmlns:xlink="http://www.w3.org/1999/xlink">
    <g id="Notes" font-family="'LucidaGrande', 'Lucida Grande', sans-serif" font-size="13">
        <rect fill="white" height="600.0" width="800.0" x="0.0" y="0.0" />
        <g font-size="13">
            <text x="18.0" y="176.0">Small</text>
            <text x="18.0" y="376.0">Medium</text>
            <text x="18.0" y="576.0">Large</text>
        </g>
        <g font-size="9">
            <text x="250.0" y="30.0">Ultralight</text>
            <text x="450.0" y="30.0">Regular</text>
            <text x="650.0" y="30.0">Black</text>
            <text id="template-version" fill="#505050" text-anchor="end" x="785.0" y="575.0">Template v.3.0</text>
            <a href="https://github.com/swhitty/SwiftDraw">
                <text fill="#505050" text-anchor="end" x="785.0" y="590.0">https://github.com/swhitty/SwiftDraw</text>
            </a>
        </g>
    </g>
    <g id="Guides" stroke="rgb(39, 170, 225)" stroke-width="0.5">
        <path id="Capline-S" d="M18,76 l800,0" />
        <path id="H-reference" d="M85,145.755 L87.685,145.755 L113.369,79.287 L114.052,79.287 L114.052,76 L112.148,76 L85,145.755 Z M95.693,121.536 L130.996,121.536 L130.263,119.313 L96.474,119.313 L95.693,121.536 Z M139.15,145.755 L141.787,145.755 L114.638,76 L113.466,76 L113.466,79.287 L139.15,145.755 Z" stroke="none" />
        <path id="Baseline-S" d="M18,146 l800,0" />
        <path id="left-margin-Ultralight-S" d="M220,56 l0,110" />
        <path id="right-margin-Ultralight-S" d="M310,56 l0,110" />
        <path id="left-margin-Regular-S" d="M420,56 l0,110" />
        <path id="right-margin-Regular-S" d="M510,56 l0,110" />
        <path id="left-margin-Black-S" d="M620,56 l0,110" />
        <path id="right-margin-Black-S" d="M710,56 l0,110" />
        <path id="Capline-M" d="M18,276 l800,0" />
        <path id="Baseline-M" d="M18,346 l800,0" />
        <path id="Capline-L" d="M18,476 l800,0" />
        <path id="Baseline-L" d="M18,546 l800,0" />
    </g>
    <g id="Symbols">
        <g id="Ultralight-S">
            <path d="M302.692,94.846 L302.692,119.077 C302.692,120.564 301.487,121.769 300,121.769 C298.513,121.769 297.308,120.564 297.308,119.077 L297.308,101.345 L264.212,134.443 C263.708,134.949 263.022,135.233 262.308,135.233 C261.593,135.233 260.908,134.949 260.403,134.443 L228.095,102.136 C227.043,101.082 227.044,99.376 228.096,98.325 C229.149,97.273 230.854,97.274 231.906,98.327 L262.308,128.732 L293.501,97.538 L275.769,97.538 C274.282,97.538 273.077,96.333 273.077,94.846 C273.077,93.359 274.282,92.154 275.769,92.154 L300,92.154 C300.714,92.154 301.399,92.438 301.904,92.942 C302.409,93.447 302.692,94.132 302.692,94.846 Z" />
        </g>
        <g id="Regular-S">
            <path d="M502.692,94.846 L502.692,119.077 C502.692,120.564 501.487,121.769 500,121.769 C498.513,121.769 497.308,120.564 497.308,119.077 L497.308,101.345 L464.212,134.443 C463.707,134.949 463.022,135.233 462.308,135.233 C461.593,135.233 460.908,134.949 460.403,134.443 L428.095,102.136 C427.043,101.082 427.044,99.376 428.096,98.325 C429.149,97.273 430.854,97.274 431.906,98.327 L462.308,128.732 L493.501,97.538 L475.769,97.538 C474.282,97.538 473.077,96.333 473.077,94.846 C473.077,93.359 474.282,92.154 475.769,92.154 L500,92.154 C500.714,92.154 501.399,92.438 501.904,92.942 C502.409,93.447 502.692,94.132 502.692,94.846 Z" />
        </g>
        <g id="Black-S">
            <path d="M702.692,94.846 L702.692,119.077 C702.692,120.564 701.487,121.769 700,121.769 C698.513,121.769 697.308,120.564 697.308,119.077 L697.308,101.345 L664.213,134.443 C663.708,134.949 663.022,135.233 662.308,135.233 C661.593,135.233 660.908,134.949 660.403,134.443 L628.095,102.136 C627.043,101.082 627.044,99.376 628.096,98.325 C629.149,97.273 630.854,97.274 631.906,98.327 L662.308,128.732 L693.501,97.538 L675.769,97.538 C674.282,97.538 673.077,96.333 673.077,94.846 C673.077,93.359 674.282,92.154 675.769,92.154 L700,92.154 C700.714,92.154 701.399,92.438 701.904,92.942 C702.409,93.447 702.692,94.132 702.692,94.846 Z" />
        </g>
    </g>
</svg>