<?xml version="1.0" encoding="UTF-8"?>
<svg height="600" width="800" xmlns="http://www.w3.org/2000/svg" xmlns:xlink="http://www.w3.org/1999/xlink">
    <g id="Notes" font-family="'LucidaGrande', 'Lucida Grande', sans-serif" font-size="13">
        <rect fill="white" height="600.0" width="800.0" x="0.0" y="0.0" />
        <g font-size="13">
            <text x="18.0" y="176.0">Small</text>
            <text x="18.0" y="376.0">Medium</text>
            <text x="18.0" y="576.0">Large</text>
        </g>
        <g font-size="9">
            <text x="250.0" y="30.0">Ultralight</text>
            <text x="450.0" y="30.0">Regular</text>
            <text x="650.0" y="30.0">Black</text>
            <text id="template-version" fill="#505050" text-anchor="end" x="785.0" y="575.0">Template v.3.0</text>
            <a href="https://github.com/swhitty/SwiftDraw">
                <text fill="#505050" text-anchor="end" x="785.0" y="590.0">https://github.com/swhitty/SwiftDraw</text>
            </a>
        </g>
    </g>
    <g id="Guides" stroke="rgb(39, 170, 225)" stroke-width="0.5">
        <path id="Capline-S" d="M18,76 l800,0" />
        <path id="H-reference" d="M85,145.755 L87.685,145.755 L113.369,79.287 L114.052,79.287 L114.052,76 L112.148,76 L85,145.755 Z M95.693,121.536 L130.996,121.536 L130.263,119.313 L96.474,119.313 L95.693,121.536 Z M139.15,145.755 L141.787,145.755 L114.638,76 L113.466,76 L113.466,79.287 L139.15,145.755 Z" stroke="none" />
        <path id="Baseline-S" d="M18,146 l800,0" />
        <path id="left-margin-Ultralight-S" d="M220,56 l0,110" />
        <path id="right-margin-Ultralight-S" d="M310,56 l0,110" />
        <path id="left-margin-Regular-S" d="M420,56 l0,110" />
        <path id="right-margin-Regular-S" d="M510,56 l0,110" />
        <path id="left-margin-Black-S" d="M620,56 l0,110" />
        <path id="right-margin-Black-S" d="M710,56 l0,110" />
        <path id="Capline-M" d="M18,276 l800,0" />
        <path id="Baseline-M" d="M18,346 l800,0" />
        <path id="Capline-L" d="M18,476 l800,0" />
        <path id="Baseline-L" d="M18,546 l800,0" />
    </g>
    <g id="Symbols">
        <g id="Ultralight-S">
            <path d="M291.923,100.231 C293.351,100.231 294.721,99.663 295.731,98.654 C296.74,97.644 297.308,96.274 297.308,94.846 L297.308,84.077 C297.308,82.649 296.74,81.279 295.731,80.269 C294.721,79.26 293.351,78.692 291.923,78.692 L281.154,78.692 C279.726,78.692 278.356,79.26 277.346,80.269 C276.337,81.279 275.769,82.649 275.769,84.077 L275.769,86.769 L254.231,86.769 L254.231,84.077 C254.231,82.649 253.663,81.279 252.654,80.269 C251.644,79.26 250.274,78.692 248.846,78.692 L238.077,78.692 C236.649,78.692 235.279,79.26 234.269,80.269 C233.26,81.279 232.692,82.649 232.692,84.077 L232.692,94.846 C232.692,96.274 233.26,97.644 234.269,98.654 C235.279,99.663 236.649,100.231 238.077,100.231 L240.769,100.231 L240.769,121.769 L238.077,121.769 C236.649,121.769 235.279,122.337 234.269,123.346 C233.26,124.356 232.692,125.726 232.692,127.154 L232.692,137.923 C232.692,139.351 233.26,140.721 234.269,141.731 C235.279,142.74 236.649,143.308 238.077,143.308 L248.846,143.308 C250.274,143.308 251.644,142.74 252.654,141.731 C253.663,140.721 254.231,139.351 254.231,137.923 L254.231,135.231 L275.769,135.231 L275.769,137.923 C275.769,139.351 276.337,140.721 277.346,141.731 C278.356,142.74 279.726,143.308 281.154,143.308 L291.923,143.308 C293.351,143.308 294.721,142.74 295.731,141.731 C296.74,140.721 297.308,139.351 297.308,137.923 L297.308,127.154 C297.308,125.726 296.74,124.356 295.731,123.346 C294.721,122.337 293.351,121.769 291.923,121.769 L289.231,121.769 L289.231,100.231 Z M281.154,84.077 L291.923,84.077 L291.923,94.846 L281.154,94.846 Z M238.077,84.077 L248.846,84.077 L248.846,89.428 C248.842,89.45 248.842,89.473 248.846,89.495 L248.846,94.846 L238.077,94.846 Z M248.846,137.923 L238.077,137.923 L238.077,127.154 L248.846,127.154 L248.846,132.505 C248.842,132.527 248.842,132.55 248.846,132.572 L248.846,137.923 Z M291.923,137.923 L281.154,137.923 L281.154,127.154 L291.923,127.154 Z M283.846,121.769 L281.154,121.769 C279.726,121.769 278.356,122.337 277.346,123.346 C276.337,124.356 275.769,125.726 275.769,127.154 L275.769,129.846 L254.231,129.846 L254.231,127.154 C254.231,125.726 253.663,124.356 252.654,123.346 C251.644,122.337 250.274,121.769 248.846,121.769 L246.154,121.769 L246.154,100.231 L248.846,100.231 C250.274,100.231 251.644,99.663 252.654,98.654 C253.663,97.644 254.231,96.274 254.231,94.846 L254.231,92.154 L275.769,92.154 L275.769,94.846 C275.769,96.274 276.337,97.644 277.346,98.654 C278.356,99.663 279.726,100.231 281.154,100.231 L283.846,100.231 Z" />
        </g>
        <g id="Regular-S">
            <path d="M491.923,100.231 C493.351,100.231 494.721,99.663 495.731,98.654 C496.74,97.644 497.308,96.274 497.308,94.846 L497.308,84.077 C497.308,82.649 496.74,81.279 495.731,80.269 C494.721,79.26 493.351,78.692 491.923,78.692 L481.154,78.692 C479.726,78.692 478.356,79.26 477.346,80.269 C476.337,81.279 475.769,82.649 475.769,84.077 L475.769,86.769 L454.231,86.769 L454.231,84.077 C454.231,82.649 453.663,81.279 452.654,80.269 C451.644,79.26 450.274,78.692 448.846,78.692 L438.077,78.692 C436.649,78.692 435.279,79.26 434.269,80.269 C433.26,81.279 432.692,82.649 432.692,84.077 L432.692,94.846 C432.692,96.274 433.26,97.644 434.269,98.654 C435.279,99.663 436.649,100.231 438.077,100.231 L440.769,100.231 L440.769,121.769 L438.077,121.769 C436.649,121.769 435.279,122.337 434.269,123.346 C433.26,124.356 432.692,125.726 432.692,127.154 L432.692,137.923 C432.692,139.351 433.26,140.721 434.269,141.731 C435.279,142.74 436.649,143.308 438.077,143.308 L448.846,143.308 C450.274,143.308 451.644,142.74 452.654,141.731 C453.663,140.721 454.231,139.351 454.231,137.923 L454.231,135.231 L475.769,135.231 L475.769,137.923 C475.769,139.351 476.337,140.721 477.346,141.731 C478.356,142.74 479.726,143.308 481.154,143.308 L491.923,143.308 C493.351,143.308 494.721,142.74 495.731,141.731 C496.74,140.721 497.308,139.351 497.308,137.923 L497.308,127.154 C497.308,125.726 496.74,124.356 495.731,123.346 C494.721,122.337 493.351,121.769 491.923,121.769 L489.231,121.769 L489.231,100.231 Z M481.154,84.077 L491.923,84.077 L491.923,94.846 L481.154,94.846 Z M438.077,84.077 L448.846,84.077 L448.846,89.428 C448.842,89.45 448.842,89.473 448.846,89.495 L448.846,94.846 L438.077,94.846 Z M448.846,137.923 L438.077,137.923 L438.077,127.154 L448.846,127.154 L448.846,132.505 C448.842,132.527 448.842,132.55 448.846,132.572 L448.846,137.923 Z M491.923,137.923 L481.154,137.923 L481.154,127.154 L491.923,127.154 Z M483.846,121.769 L481.154,121.769 C479.726,121.769 478.356,122.337 477.346,123.346 C476.337,124.356 475.769,125.726 475.769,127.154 L475.769,129.846 L454.231,129.846 L454.231,127.154 C454.231,125.726 453.663,124.356 452.654,123.346 C451.644,122.337 450.274,121.769 448.846,121.769 L446.154,121.769 L446.154,100.231 L448.846,100.231 C450.274,100.231 451.644,99.663 452.654,98.654 C453.663,97.644 454.231,96.274 454.231,94.846 L454.231,92.154 L475.769,92.154 L475.769,94.846 C475.769,96.274 476.337,97.644 477.346,98.654 C478.356,99.663 479.726,100.231 481.154,100.231 L483.846,100.231 Z" />
        </g>
        <g id="Black-S">
            <path d="M691.923,100.231 C693.351,100.231 694.721,99.663 695.731,98.654 C696.74,97.644 697.308,96.274 697.308,94.846 L697.308,84.077 C697.308,82.649 696.74,81.279 695.731,80.269 C694.721,79.26 693.351,78.692 691.923,78.692 L681.154,78.692 C679.726,78.692 678.356,79.26 677.346,80.269 C676.337,81.279 675.769,82.649 675.769,84.077 L675.769,86.769 L654.231,86.769 L654.231,84.077 C654.231,82.649 653.663,81.279 652.654,80.269 C651.644,79.26 650.274,78.692 648.846,78.692 L638.077,78.692 C636.649,78.692 635.279,79.26 634.269,80.269 C633.26,81.279 632.692,82.649 632.692,84.077 L632.692,94.846 C632.692,96.274 633.26,97.644 634.269,98.654 C635.279,99.663 636.649,100.231 638.077,100.231 L640.769,100.231 L640.769,121.769 L638.077,121.769 C636.649,121.769 635.279,122.337 634.269,123.346 C633.26,124.356 632.692,125.726 632.692,127.154 L632.692,137.923 C632.692,139.351 633.26,140.721 634.269,141.731 C635.279,142.74 636.649,143.308 638.077,143.308 L648.846,143.308 C650.274,143.308 651.644,142.74 652.654,141.731 C653.663,140.721 654.231,139.351 654.231,137.923 L654.231,135.231 L675.769,135.231 L675.769,137.923 C675.769,139.351 676.337,140.721 677.346,141.731 C678.356,142.74 679.726,143.308 681.154,143.308 L691.923,143.308 C693.351,143.308 694.721,142.74 695.731,141.731 C696.74,140.721 697.308,139.351 697.308,137.923 L697.308,127.154 C697.308,125.726 696.74,124.356 695.731,123.346 C694.721,122.337 693.351,121.769 691.923,121.769 L689.231,121.769 L689.231,100.231 Z M681.154,84.077 L691.923,84.077 L691.923,94.846 L681.154,94.846 Z M638.077,84.077 L648.846,84.077 L648.846,89.428 C648.842,89.45 648.842,89.473 648.846,89.495 L648.846,94.846 L638.077,94.846 Z M648.846,137.923 L638.077,137.923 L638.077,127.154 L648.846,127.154 L648.846,132.505 C648.842,132.527 648.842,132.55 648.846,132.572 L648.846,137.923 Z M691.923,137.923 L681.154,137.923 L681.154,127.154 L691.923,127.154 Z M683.846,121.769 L681.154,121.769 C679.726,121.769 678.356,122.337 677.346,123.346 C676.337,124.356 675.769,125.726 675.769,127.154 L675.769,129.846 L654.231,129.846 L654.231,127.154 C654.231,125.726 653.663,124.356 652.654,123.346 C651.644,122.337 650.274,121.769 648.846,121.769 L646.154,121.769 L646.154,100.231 L648.846,100.231 C650.274,100.231 651.644,99.663 652.654,98.654 C653.663,97.644 654.231,96.274 654.231,94.846 L654.231,92.154 L675.769,92.154 L675.769,94.846 C675.769,96.274 676.337,97.644 677.346,98.654 C678.356,99.663 679.726,100.231 681.154,100.231 L683.846,100.231 Z" />
        </g>
    </g>
</svg>