<?xml version="1.0" encoding="UTF-8"?>
<svg height="600" width="800" xmlns="http://www.w3.org/2000/svg" xmlns:xlink="http://www.w3.org/1999/xlink">
    <g id="Notes" font-family="'LucidaGrande', 'Lucida Grande', sans-serif" font-size="13">
        <rect fill="white" height="600.0" width="800.0" x="0.0" y="0.0" />
        <g font-size="13">
            <text x="18.0" y="176.0">Small</text>
            <text x="18.0" y="376.0">Medium</text>
            <text x="18.0" y="576.0">Large</text>
        </g>
        <g font-size="9">
            <text x="250.0" y="30.0">Ultralight</text>
            <text x="450.0" y="30.0">Regular</text>
            <text x="650.0" y="30.0">Black</text>
            <text id="template-version" fill="#505050" text-anchor="end" x="785.0" y="575.0">Template v.3.0</text>
            <a href="https://github.com/swhitty/SwiftDraw">
                <text fill="#505050" text-anchor="end" x="785.0" y="590.0">https://github.com/swhitty/SwiftDraw</text>
            </a>
        </g>
    </g>
    <g id="Guides" stroke="rgb(39, 170, 225)" stroke-width="0.5">
        <path id="Capline-S" d="M18,76 l800,0" />
        <path id="H-reference" d="M85,145.755 L87.685,145.755 L113.369,79.287 L114.052,79.287 L114.052,76 L112.148,76 L85,145.755 Z M95.693,121.536 L130.996,121.536 L130.263,119.313 L96.474,119.313 L95.693,121.536 Z M139.15,145.755 L141.787,145.755 L114.638,76 L113.466,76 L113.466,79.287 L139.15,145.755 Z" stroke="none" />
        <path id="Baseline-S" d="M18,146 l800,0" />
        <path id="left-margin-Ultralight-S" d="M220,56 l0,110" />
        <path id="right-margin-Ultralight-S" d="M310,56 l0,110" />
        <path id="left-margin-Regular-S" d="M420,56 l0,110" />
        <path id="right-margin-Regular-S" d="M510,56 l0,110" />
        <path id="left-margin-Black-S" d="M620,56 l0,110" />
        <path id="right-margin-Black-S" d="M710,56 l0,110" />
        <path id="Capline-M" d="M18,276 l800,0" />
        <path id="Baseline-M" d="M18,346 l800,0" />
        <path id="Capline-L" d="M18,476 l800,0" />
        <path id="Baseline-L" d="M18,546 l800,0" />
    </g>
    <g id="Symbols">
        <g id="Ultralight-S">
            <path d="M289.749,86.251 C276.081,72.583 253.92,72.582 240.251,86.251 C226.583,99.919 226.582,122.08 240.251,135.749 C253.919,149.417 276.08,149.418 289.748,135.749 C303.417,122.081 303.418,99.92 289.749,86.251 Z M285.943,131.943 C274.377,143.507 255.626,143.506 244.061,131.941 C232.497,120.375 232.497,101.625 244.061,90.059 C255.626,78.494 274.377,78.493 285.943,90.057 C297.49,101.632 297.49,120.368 285.943,131.943 Z M277.674,122.557 C278.727,123.61 278.726,125.316 277.673,126.367 C276.62,127.419 274.915,127.418 273.863,126.365 L265,117.499 L256.136,126.366 C255.085,127.418 253.38,127.419 252.327,126.367 C251.274,125.316 251.273,123.61 252.325,122.558 L263.094,111.789 C263.599,111.283 264.284,110.999 264.999,110.999 C265.714,110.999 266.399,111.283 266.904,111.789 Z M277.674,103.711 C278.727,104.764 278.726,106.47 277.673,107.521 C276.62,108.573 274.915,108.572 273.863,107.519 L265,98.652 L256.136,107.52 C255.085,108.572 253.38,108.573 252.327,107.521 C251.274,106.47 251.273,104.764 252.325,103.712 L263.094,92.942 C263.599,92.437 264.284,92.153 264.999,92.153 C265.714,92.153 266.399,92.437 266.904,92.942 Z" />
        </g>
        <g id="Regular-S">
            <path d="M489.749,86.251 C476.081,72.583 453.92,72.582 440.251,86.251 C426.583,99.919 426.582,122.08 440.251,135.749 C453.919,149.417 476.08,149.418 489.748,135.749 C503.417,122.081 503.418,99.92 489.749,86.251 Z M485.943,131.943 C474.377,143.507 455.626,143.506 444.061,131.941 C432.496,120.375 432.496,101.625 444.061,90.059 C455.626,78.494 474.377,78.493 485.943,90.057 C497.49,101.632 497.49,120.368 485.943,131.943 Z M477.674,122.557 C478.727,123.61 478.726,125.316 477.673,126.367 C476.62,127.419 474.915,127.418 473.863,126.365 L465,117.499 L456.136,126.366 C455.085,127.418 453.38,127.419 452.327,126.367 C451.274,125.316 451.273,123.61 452.325,122.558 L463.094,111.789 C463.599,111.283 464.284,110.999 464.999,110.999 C465.714,110.999 466.399,111.283 466.904,111.789 Z M477.674,103.711 C478.727,104.764 478.726,106.47 477.673,107.521 C476.62,108.573 474.915,108.572 473.863,107.519 L465,98.652 L456.136,107.52 C455.085,108.572 453.38,108.573 452.327,107.521 C451.274,106.47 451.273,104.764 452.325,103.712 L463.094,92.942 C463.599,92.437 464.284,92.153 464.999,92.153 C465.714,92.153 466.399,92.437 466.904,92.942 Z" />
        </g>
        <g id="Black-S">
            <path d="M689.749,86.251 C676.081,72.583 653.92,72.582 640.251,86.251 C626.583,99.919 626.582,122.08 640.251,135.749 C653.919,149.417 676.08,149.418 689.748,135.749 C703.417,122.081 703.418,99.92 689.749,86.251 Z M685.943,131.943 C674.377,143.507 655.626,143.506 644.061,131.941 C632.497,120.375 632.497,101.625 644.061,90.059 C655.626,78.494 674.377,78.493 685.943,90.057 C697.49,101.632 697.49,120.368 685.943,131.943 Z M677.674,122.557 C678.727,123.61 678.726,125.316 677.673,126.367 C676.62,127.419 674.915,127.418 673.863,126.365 L665,117.499 L656.136,126.366 C655.085,127.418 653.38,127.419 652.327,126.367 C651.274,125.316 651.273,123.61 652.325,122.558 L663.094,111.789 C663.599,111.283 664.284,110.999 664.999,110.999 C665.714,110.999 666.399,111.283 666.904,111.789 Z M677.674,103.711 C678.727,104.764 678.726,106.47 677.673,107.521 C676.62,108.573 674.915,108.572 673.863,107.519 L665,98.652 L656.136,107.52 C655.085,108.572 653.38,108.573 652.327,107.521 C651.274,106.47 651.273,104.764 652.325,103.712 L663.094,92.942 C663.599,92.437 664.284,92.153 664.999,92.153 C665.714,92.153 666.399,92.437 666.904,92.942 Z" />
        </g>
    </g>
</svg>