<?xml version="1.0" encoding="UTF-8"?>
<svg height="600" width="800" xmlns="http://www.w3.org/2000/svg" xmlns:xlink="http://www.w3.org/1999/xlink">
    <g id="Notes" font-family="'LucidaGrande', 'Lucida Grande', sans-serif" font-size="13">
        <rect fill="white" height="600.0" width="800.0" x="0.0" y="0.0" />
        <g font-size="13">
            <text x="18.0" y="176.0">Small</text>
            <text x="18.0" y="376.0">Medium</text>
            <text x="18.0" y="576.0">Large</text>
        </g>
        <g font-size="9">
            <text x="250.0" y="30.0">Ultralight</text>
            <text x="450.0" y="30.0">Regular</text>
            <text x="650.0" y="30.0">Black</text>
            <text id="template-version" fill="#505050" text-anchor="end" x="785.0" y="575.0">Template v.3.0</text>
            <a href="https://github.com/swhitty/SwiftDraw">
                <text fill="#505050" text-anchor="end" x="785.0" y="590.0">https://github.com/swhitty/SwiftDraw</text>
            </a>
        </g>
    </g>
    <g id="Guides" stroke="rgb(39, 170, 225)" stroke-width="0.5">
        <path id="Capline-S" d="M18,76 l800,0" />
        <path id="H-reference" d="M85,145.755 L87.685,145.755 L113.369,79.287 L114.052,79.287 L114.052,76 L112.148,76 L85,145.755 Z M95.693,121.536 L130.996,121.536 L130.263,119.313 L96.474,119.313 L95.693,121.536 Z M139.15,145.755 L141.787,145.755 L114.638,76 L113.466,76 L113.466,79.287 L139.15,145.755 Z" stroke="none" />
        <path id="Baseline-S" d="M18,146 l800,0" />
        <path id="left-margin-Ultralight-S" d="M220,56 l0,110" />
        <path id="right-margin-Ultralight-S" d="M310,56 l0,110" />
        <path id="left-margin-Regular-S" d="M420,56 l0,110" />
        <path id="right-margin-Regular-S" d="M510,56 l0,110" />
        <path id="left-margin-Black-S" d="M620,56 l0,110" />
        <path id="right-margin-Black-S" d="M710,56 l0,110" />
        <path id="Capline-M" d="M18,276 l800,0" />
        <path id="Baseline-M" d="M18,346 l800,0" />
        <path id="Capline-L" d="M18,476 l800,0" />
        <path id="Baseline-L" d="M18,546 l800,0" />
    </g>
    <g id="Symbols">
        <g id="Ultralight-S">
            <path d="M281.154,146 C281.154,146.714 280.87,147.399 280.365,147.904 C279.86,148.409 279.176,148.692 278.462,148.692 L251.538,148.692 C250.052,148.692 248.846,147.487 248.846,146 C248.846,144.513 250.052,143.308 251.538,143.308 L278.462,143.308 C279.176,143.308 279.86,143.591 280.365,144.096 C280.87,144.601 281.154,145.286 281.154,146 Z M294.615,102.923 C294.639,112.018 290.461,120.615 283.294,126.215 C281.954,127.242 281.164,128.831 281.154,130.519 L281.154,132.538 C281.154,133.967 280.587,135.336 279.577,136.346 C278.567,137.356 277.197,137.923 275.769,137.923 L254.231,137.923 C252.803,137.923 251.433,137.356 250.423,136.346 C249.413,135.336 248.846,133.967 248.846,132.538 L248.846,130.519 C248.845,128.851 248.071,127.278 246.75,126.259 C239.603,120.693 235.412,112.15 235.385,103.091 C235.297,87.049 248.261,73.695 264.287,73.308 C272.264,73.115 279.981,76.151 285.691,81.726 C291.4,87.3 294.618,94.943 294.615,102.923 Z M289.231,102.923 C289.231,96.387 286.596,90.134 281.923,85.574 C277.25,81.014 270.935,78.533 264.407,78.692 C251.282,79.002 240.691,89.93 240.762,103.055 C240.786,110.463 244.216,117.45 250.063,122.001 L250.063,122.001 C252.695,124.043 254.234,127.188 254.231,130.519 L254.231,132.538 L262.308,132.538 L262.308,117.499 L252.326,107.52 C251.273,106.467 251.274,104.761 252.327,103.71 C253.38,102.658 255.085,102.659 256.137,103.712 L265,112.578 L273.864,103.711 C274.915,102.659 276.62,102.658 277.673,103.71 C278.726,104.761 278.727,106.467 277.675,107.519 L267.692,117.499 L267.692,132.538 L275.769,132.538 L275.769,130.519 C275.775,127.18 277.324,124.031 279.965,121.988 C285.831,117.404 289.251,110.368 289.231,102.923 Z" />
        </g>
        <g id="Regular-S">
            <path d="M481.154,146 C481.154,146.714 480.87,147.399 480.365,147.904 C479.86,148.409 479.176,148.692 478.462,148.692 L451.538,148.692 C450.052,148.692 448.846,147.487 448.846,146 C448.846,144.513 450.052,143.308 451.538,143.308 L478.462,143.308 C479.176,143.308 479.86,143.591 480.365,144.096 C480.87,144.601 481.154,145.286 481.154,146 Z M494.615,102.923 C494.639,112.018 490.461,120.615 483.294,126.215 C481.954,127.242 481.164,128.831 481.154,130.519 L481.154,132.538 C481.154,133.967 480.587,135.336 479.577,136.346 C478.567,137.356 477.197,137.923 475.769,137.923 L454.231,137.923 C452.803,137.923 451.433,137.356 450.423,136.346 C449.413,135.336 448.846,133.967 448.846,132.538 L448.846,130.519 C448.845,128.851 448.071,127.278 446.75,126.259 C439.603,120.693 435.412,112.15 435.385,103.091 C435.297,87.049 448.261,73.695 464.287,73.308 C472.264,73.115 479.981,76.151 485.691,81.726 C491.4,87.3 494.618,94.943 494.615,102.923 Z M489.231,102.923 C489.231,96.387 486.596,90.134 481.923,85.574 C477.25,81.014 470.935,78.533 464.407,78.692 C451.282,79.002 440.691,89.93 440.762,103.055 C440.786,110.463 444.216,117.45 450.063,122.001 L450.063,122.001 C452.695,124.043 454.234,127.188 454.231,130.519 L454.231,132.538 L462.308,132.538 L462.308,117.499 L452.326,107.52 C451.273,106.467 451.274,104.761 452.327,103.71 C453.38,102.658 455.085,102.659 456.137,103.712 L465,112.578 L473.864,103.711 C474.915,102.659 476.62,102.658 477.673,103.71 C478.726,104.761 478.727,106.467 477.675,107.519 L467.692,117.499 L467.692,132.538 L475.769,132.538 L475.769,130.519 C475.775,127.18 477.324,124.031 479.965,121.988 C485.831,117.404 489.251,110.368 489.231,102.923 Z" />
        </g>
        <g id="Black-S">
            <path d="M681.154,146 C681.154,146.714 680.87,147.399 680.365,147.904 C679.86,148.409 679.176,148.692 678.462,148.692 L651.538,148.692 C650.052,148.692 648.846,147.487 648.846,146 C648.846,144.513 650.052,143.308 651.538,143.308 L678.462,143.308 C679.176,143.308 679.86,143.591 680.365,144.096 C680.87,144.601 681.154,145.286 681.154,146 Z M694.615,102.923 C694.639,112.018 690.461,120.615 683.294,126.215 C681.954,127.242 681.164,128.831 681.154,130.519 L681.154,132.538 C681.154,133.967 680.587,135.336 679.577,136.346 C678.567,137.356 677.197,137.923 675.769,137.923 L654.231,137.923 C652.803,137.923 651.433,137.356 650.423,136.346 C649.413,135.336 648.846,133.967 648.846,132.538 L648.846,130.519 C648.845,128.851 648.071,127.278 646.75,126.259 C639.603,120.693 635.412,112.15 635.385,103.091 C635.297,87.049 648.261,73.695 664.287,73.308 C672.264,73.115 679.981,76.151 685.691,81.726 C691.4,87.3 694.618,94.943 694.615,102.923 Z M689.231,102.923 C689.231,96.387 686.596,90.134 681.923,85.574 C677.25,81.014 670.935,78.533 664.407,78.692 C651.282,79.002 640.692,89.93 640.762,103.055 C640.786,110.463 644.216,117.45 650.063,122.001 L650.063,122.001 C652.695,124.043 654.234,127.188 654.231,130.519 L654.231,132.538 L662.308,132.538 L662.308,117.499 L652.326,107.52 C651.273,106.467 651.274,104.761 652.327,103.71 C653.38,102.658 655.085,102.659 656.137,103.712 L665,112.578 L673.864,103.711 C674.915,102.659 676.62,102.658 677.673,103.71 C678.726,104.761 678.727,106.467 677.675,107.519 L667.692,117.499 L667.692,132.538 L675.769,132.538 L675.769,130.519 C675.775,127.18 677.324,124.031 679.965,121.988 C685.831,117.404 689.251,110.368 689.231,102.923 Z" />
        </g>
    </g>
</svg>