<?xml version="1.0" encoding="UTF-8"?>
<svg height="600" width="800" xmlns="http://www.w3.org/2000/svg" xmlns:xlink="http://www.w3.org/1999/xlink">
    <g id="Notes" font-family="'LucidaGrande', 'Lucida Grande', sans-serif" font-size="13">
        <rect fill="white" height="600.0" width="800.0" x="0.0" y="0.0" />
        <g font-size="13">
            <text x="18.0" y="176.0">Small</text>
            <text x="18.0" y="376.0">Medium</text>
            <text x="18.0" y="576.0">Large</text>
        </g>
        <g font-size="9">
            <text x="250.0" y="30.0">Ultralight</text>
            <text x="450.0" y="30.0">Regular</text>
            <text x="650.0" y="30.0">Black</text>
            <text id="template-version" fill="#505050" text-anchor="end" x="785.0" y="575.0">Template v.3.0</text>
            <a href="https://github.com/swhitty/SwiftDraw">
                <text fill="#505050" text-anchor="end" x="785.0" y="590.0">https://github.com/swhitty/SwiftDraw</text>
            </a>
        </g>
    </g>
    <g id="Guides" stroke="rgb(39, 170, 225)" stroke-width="0.5">
        <path id="Capline-S" d="M18,76 l800,0" />
        <path id="H-reference" d="M85,145.755 L87.685,145.755 L113.369,79.287 L114.052,79.287 L114.052,76 L112.148,76 L85,145.755 Z M95.693,121.536 L130.996,121.536 L130.263,119.313 L96.474,119.313 L95.693,121.536 Z M139.15,145.755 L141.787,145.755 L114.638,76 L113.466,76 L113.466,79.287 L139.15,145.755 Z" stroke="none" />
        <path id="Baseline-S" d="M18,146 l800,0" />
        <path id="left-margin-Ultralight-S" d="M220,56 l0,110" />
        <path id="right-margin-Ultralight-S" d="M310,56 l0,110" />
        <path id="left-margin-Regular-S" d="M420,56 l0,110" />
        <path id="right-margin-Regular-S" d="M510,56 l0,110" />
        <path id="left-margin-Black-S" d="M620,56 l0,110" />
        <path id="right-margin-Black-S" d="M710,56 l0,110" />
        <path id="Capline-M" d="M18,276 l800,0" />
        <path id="Baseline-M" d="M18,346 l800,0" />
        <path id="Capline-L" d="M18,476 l800,0" />
        <path id="Baseline-L" d="M18,546 l800,0" />
    </g>
    <g id="Symbols">
        <g id="Ultralight-S">
            <path d="M267.046,120.016 C266.535,119.419 265.788,119.075 265.002,119.075 C264.216,119.075 263.469,119.419 262.957,120.016 L246.803,138.862 C246.118,139.66 245.961,140.784 246.4,141.74 C246.839,142.695 247.794,143.308 248.846,143.308 L281.154,143.308 C282.206,143.308 283.161,142.695 283.6,141.74 C284.039,140.784 283.882,139.66 283.197,138.862 Z M254.699,137.923 L265,125.905 L275.301,137.923 Z M300,89.462 L300,127.154 C300,129.296 299.149,131.35 297.634,132.865 C296.12,134.38 294.065,135.231 291.923,135.231 L289.231,135.231 C287.744,135.231 286.538,134.025 286.538,132.538 C286.538,131.052 287.744,129.846 289.231,129.846 L291.923,129.846 C292.637,129.846 293.322,129.562 293.827,129.058 C294.332,128.553 294.615,127.868 294.615,127.154 L294.615,89.462 C294.615,88.747 294.332,88.063 293.827,87.558 C293.322,87.053 292.637,86.769 291.923,86.769 L238.077,86.769 C237.363,86.769 236.678,87.053 236.173,87.558 C235.668,88.063 235.385,88.747 235.385,89.462 L235.385,127.154 C235.385,127.868 235.668,128.553 236.173,129.058 C236.678,129.562 237.363,129.846 238.077,129.846 L240.769,129.846 C242.256,129.846 243.462,131.052 243.462,132.538 C243.462,134.025 242.256,135.231 240.769,135.231 L238.077,135.231 C235.935,135.231 233.88,134.38 232.366,132.865 C230.851,131.35 230,129.296 230,127.154 L230,89.462 C230,87.319 230.851,85.265 232.366,83.75 C233.88,82.236 235.935,81.385 238.077,81.385 L291.923,81.385 C294.065,81.385 296.12,82.236 297.634,83.75 C299.149,85.265 300,87.319 300,89.462 Z" />
        </g>
        <g id="Regular-S">
            <path d="M467.046,120.016 C466.535,119.419 465.788,119.075 465.002,119.075 C464.216,119.075 463.469,119.419 462.957,120.016 L446.803,138.862 C446.118,139.66 445.961,140.784 446.4,141.74 C446.839,142.695 447.794,143.308 448.846,143.308 L481.154,143.308 C482.206,143.308 483.161,142.695 483.6,141.74 C484.039,140.784 483.882,139.66 483.197,138.862 Z M454.699,137.923 L465,125.905 L475.301,137.923 Z M500,89.462 L500,127.154 C500,129.296 499.149,131.35 497.634,132.865 C496.12,134.38 494.065,135.231 491.923,135.231 L489.231,135.231 C487.744,135.231 486.538,134.025 486.538,132.538 C486.538,131.052 487.744,129.846 489.231,129.846 L491.923,129.846 C492.637,129.846 493.322,129.562 493.827,129.058 C494.332,128.553 494.615,127.868 494.615,127.154 L494.615,89.462 C494.615,88.747 494.332,88.063 493.827,87.558 C493.322,87.053 492.637,86.769 491.923,86.769 L438.077,86.769 C437.363,86.769 436.678,87.053 436.173,87.558 C435.668,88.063 435.385,88.747 435.385,89.462 L435.385,127.154 C435.385,127.868 435.668,128.553 436.173,129.058 C436.678,129.562 437.363,129.846 438.077,129.846 L440.769,129.846 C442.256,129.846 443.462,131.052 443.462,132.538 C443.462,134.025 442.256,135.231 440.769,135.231 L438.077,135.231 C435.935,135.231 433.88,134.38 432.366,132.865 C430.851,131.35 430,129.296 430,127.154 L430,89.462 C430,87.319 430.851,85.265 432.366,83.75 C433.88,82.236 435.935,81.385 438.077,81.385 L491.923,81.385 C494.065,81.385 496.12,82.236 497.634,83.75 C499.149,85.265 500,87.319 500,89.462 Z" />
        </g>
        <g id="Black-S">
            <path d="M667.046,120.016 C666.535,119.419 665.788,119.075 665.002,119.075 C664.216,119.075 663.469,119.419 662.957,120.016 L646.803,138.862 C646.118,139.66 645.961,140.784 646.4,141.74 C646.839,142.695 647.794,143.308 648.846,143.308 L681.154,143.308 C682.206,143.308 683.161,142.695 683.6,141.74 C684.039,140.784 683.882,139.66 683.197,138.862 Z M654.699,137.923 L665,125.905 L675.301,137.923 Z M700,89.462 L700,127.154 C700,129.296 699.149,131.35 697.634,132.865 C696.12,134.38 694.065,135.231 691.923,135.231 L689.231,135.231 C687.744,135.231 686.538,134.025 686.538,132.538 C686.538,131.052 687.744,129.846 689.231,129.846 L691.923,129.846 C692.637,129.846 693.322,129.562 693.827,129.058 C694.332,128.553 694.615,127.868 694.615,127.154 L694.615,89.462 C694.615,88.747 694.332,88.063 693.827,87.558 C693.322,87.053 692.637,86.769 691.923,86.769 L638.077,86.769 C637.363,86.769 636.678,87.053 636.173,87.558 C635.668,88.063 635.385,88.747 635.385,89.462 L635.385,127.154 C635.385,127.868 635.668,128.553 636.173,129.058 C636.678,129.562 637.363,129.846 638.077,129.846 L640.769,129.846 C642.256,129.846 643.462,131.052 643.462,132.538 C643.462,134.025 642.256,135.231 640.769,135.231 L638.077,135.231 C635.935,135.231 633.88,134.38 632.366,132.865 C630.851,131.35 630,129.296 630,127.154 L630,89.462 C630,87.319 630.851,85.265 632.366,83.75 C633.88,82.236 635.935,81.385 638.077,81.385 L691.923,81.385 C694.065,81.385 696.12,82.236 697.634,83.75 C699.149,85.265 700,87.319 700,89.462 Z" />
        </g>
    </g>
</svg>