<?xml version="1.0" encoding="UTF-8"?>
<svg height="600" width="800" xmlns="http://www.w3.org/2000/svg" xmlns:xlink="http://www.w3.org/1999/xlink">
    <g id="Notes" font-family="'LucidaGrande', 'Lucida Grande', sans-serif" font-size="13">
        <rect fill="white" height="600.0" width="800.0" x="0.0" y="0.0" />
        <g font-size="13">
            <text x="18.0" y="176.0">Small</text>
            <text x="18.0" y="376.0">Medium</text>
            <text x="18.0" y="576.0">Large</text>
        </g>
        <g font-size="9">
            <text x="250.0" y="30.0">Ultralight</text>
            <text x="450.0" y="30.0">Regular</text>
            <text x="650.0" y="30.0">Black</text>
            <text id="template-version" fill="#505050" text-anchor="end" x="785.0" y="575.0">Template v.3.0</text>
            <a href="https://github.com/swhitty/SwiftDraw">
                <text fill="#505050" text-anchor="end" x="785.0" y="590.0">https://github.com/swhitty/SwiftDraw</text>
            </a>
        </g>
    </g>
    <g id="Guides" stroke="rgb(39, 170, 225)" stroke-width="0.5">
        <path id="Capline-S" d="M18,76 l800,0" />
        <path id="H-reference" d="M85,145.755 L87.685,145.755 L113.369,79.287 L114.052,79.287 L114.052,76 L112.148,76 L85,145.755 Z M95.693,121.536 L130.996,121.536 L130.263,119.313 L96.474,119.313 L95.693,121.536 Z M139.15,145.755 L141.787,145.755 L114.638,76 L113.466,76 L113.466,79.287 L139.15,145.755 Z" stroke="none" />
        <path id="Baseline-S" d="M18,146 l800,0" />
        <path id="left-margin-Ultralight-S" d="M220,56 l0,110" />
        <path id="right-margin-Ultralight-S" d="M310,56 l0,110" />
        <path id="left-margin-Regular-S" d="M420,56 l0,110" />
        <path id="right-margin-Regular-S" d="M510,56 l0,110" />
        <path id="left-margin-Black-S" d="M620,56 l0,110" />
        <path id="right-margin-Black-S" d="M710,56 l0,110" />
        <path id="Capline-M" d="M18,276 l800,0" />
        <path id="Baseline-M" d="M18,346 l800,0" />
        <path id="Capline-L" d="M18,476 l800,0" />
        <path id="Baseline-L" d="M18,546 l800,0" />
    </g>
    <g id="Symbols">
        <g id="Ultralight-S">
            <path d="M297.308,121.769 C295.88,121.769 294.51,121.202 293.5,120.192 C292.49,119.182 291.923,117.813 291.923,116.385 L291.923,89.462 C291.923,79.053 283.485,70.615 273.077,70.615 C262.668,70.615 254.231,79.053 254.231,89.462 L254.231,92.154 L247.678,92.154 C245.788,92.16 244.038,93.151 243.061,94.769 L236.152,106.288 C235.651,107.125 235.386,108.08 235.385,109.055 L235.385,140.615 C235.385,142.043 235.952,143.413 236.962,144.423 C237.972,145.433 239.341,146 240.769,146 L273.077,146 C274.505,146 275.875,145.433 276.884,144.423 C277.894,143.413 278.462,142.043 278.462,140.615 L278.462,109.055 C278.461,108.078 278.196,107.12 277.694,106.282 L270.785,94.769 C269.808,93.151 268.058,92.16 266.168,92.154 L259.615,92.154 L259.615,89.462 C259.615,82.027 265.642,76 273.077,76 C280.512,76 286.538,82.027 286.538,89.462 L286.538,116.385 C286.538,119.241 287.673,121.98 289.693,124 C291.712,126.019 294.452,127.154 297.308,127.154 C298.795,127.154 300,125.948 300,124.462 C300,122.975 298.795,121.769 297.308,121.769 Z M266.168,97.538 L273.077,109.055 L273.077,140.615 L240.769,140.615 L240.769,109.055 L247.678,97.538 L254.231,97.538 L254.231,113.692 C254.231,115.179 255.436,116.385 256.923,116.385 C258.41,116.385 259.615,115.179 259.615,113.692 L259.615,97.538 Z" />
        </g>
        <g id="Regular-S">
            <path d="M497.308,121.769 C495.88,121.769 494.51,121.202 493.5,120.192 C492.49,119.182 491.923,117.813 491.923,116.385 L491.923,89.462 C491.923,79.053 483.485,70.615 473.077,70.615 C462.668,70.615 454.231,79.053 454.231,89.462 L454.231,92.154 L447.678,92.154 C445.788,92.16 444.038,93.151 443.061,94.769 L436.152,106.288 C435.651,107.125 435.386,108.08 435.385,109.055 L435.385,140.615 C435.385,142.043 435.952,143.413 436.962,144.423 C437.972,145.433 439.341,146 440.769,146 L473.077,146 C474.505,146 475.875,145.433 476.884,144.423 C477.894,143.413 478.462,142.043 478.462,140.615 L478.462,109.055 C478.461,108.078 478.196,107.12 477.694,106.282 L470.785,94.769 C469.808,93.151 468.058,92.16 466.168,92.154 L459.615,92.154 L459.615,89.462 C459.615,82.027 465.642,76 473.077,76 C480.512,76 486.538,82.027 486.538,89.462 L486.538,116.385 C486.538,119.241 487.673,121.98 489.693,124 C491.712,126.019 494.452,127.154 497.308,127.154 C498.795,127.154 500,125.948 500,124.462 C500,122.975 498.795,121.769 497.308,121.769 Z M466.168,97.538 L473.077,109.055 L473.077,140.615 L440.769,140.615 L440.769,109.055 L447.678,97.538 L454.231,97.538 L454.231,113.692 C454.231,115.179 455.436,116.385 456.923,116.385 C458.41,116.385 459.615,115.179 459.615,113.692 L459.615,97.538 Z" />
        </g>
        <g id="Black-S">
            <path d="M697.308,121.769 C695.88,121.769 694.51,121.202 693.5,120.192 C692.49,119.182 691.923,117.813 691.923,116.385 L691.923,89.462 C691.923,79.053 683.485,70.615 673.077,70.615 C662.669,70.615 654.231,79.053 654.231,89.462 L654.231,92.154 L647.678,92.154 C645.788,92.16 644.038,93.151 643.061,94.769 L636.152,106.288 C635.651,107.125 635.386,108.08 635.385,109.055 L635.385,140.615 C635.385,142.043 635.952,143.413 636.962,144.423 C637.972,145.433 639.341,146 640.769,146 L673.077,146 C674.505,146 675.875,145.433 676.884,144.423 C677.894,143.413 678.462,142.043 678.462,140.615 L678.462,109.055 C678.461,108.078 678.196,107.12 677.694,106.282 L670.785,94.769 C669.808,93.151 668.058,92.16 666.168,92.154 L659.615,92.154 L659.615,89.462 C659.615,82.027 665.642,76 673.077,76 C680.512,76 686.538,82.027 686.538,89.462 L686.538,116.385 C686.538,119.241 687.673,121.98 689.693,124 C691.712,126.019 694.452,127.154 697.308,127.154 C698.795,127.154 700,125.948 700,124.462 C700,122.975 698.795,121.769 697.308,121.769 Z M666.168,97.538 L673.077,109.055 L673.077,140.615 L640.769,140.615 L640.769,109.055 L647.678,97.538 L654.231,97.538 L654.231,113.692 C654.231,115.179 655.436,116.385 656.923,116.385 C658.41,116.385 659.615,115.179 659.615,113.692 L659.615,97.538 Z" />
        </g>
    </g>
</svg>