<?xml version="1.0" encoding="UTF-8"?>
<svg height="600" width="800" xmlns="http://www.w3.org/2000/svg" xmlns:xlink="http://www.w3.org/1999/xlink">
    <g id="Notes" font-family="'LucidaGrande', 'Lucida Grande', sans-serif" font-size="13">
        <rect fill="white" height="600.0" width="800.0" x="0.0" y="0.0" />
        <g font-size="13">
            <text x="18.0" y="176.0">Small</text>
            <text x="18.0" y="376.0">Medium</text>
            <text x="18.0" y="576.0">Large</text>
        </g>
        <g font-size="9">
            <text x="250.0" y="30.0">Ultralight</text>
            <text x="450.0" y="30.0">Regular</text>
            <text x="650.0" y="30.0">Black</text>
            <text id="template-version" fill="#505050" text-anchor="end" x="785.0" y="575.0">Template v.3.0</text>
            <a href="https://github.com/swhitty/SwiftDraw">
                <text fill="#505050" text-anchor="end" x="785.0" y="590.0">https://github.com/swhitty/SwiftDraw</text>
            </a>
        </g>
    </g>
    <g id="Guides" stroke="rgb(39, 170, 225)" stroke-width="0.5">
        <path id="Capline-S" d="M18,76 l800,0" />
        <path id="H-reference" d="M85,145.755 L87.685,145.755 L113.369,79.287 L114.052,79.287 L114.052,76 L112.148,76 L85,145.755 Z M95.693,121.536 L130.996,121.536 L130.263,119.313 L96.474,119.313 L95.693,121.536 Z M139.15,145.755 L141.787,145.755 L114.638,76 L113.466,76 L113.466,79.287 L139.15,145.755 Z" stroke="none" />
        <path id="Baseline-S" d="M18,146 l800,0" />
        <path id="left-margin-Ultralight-S" d="M220,56 l0,110" />
        <path id="right-margin-Ultralight-S" d="M310,56 l0,110" />
        <path id="left-margin-Regular-S" d="M420,56 l0,110" />
        <path id="right-margin-Regular-S" d="M510,56 l0,110" />
        <path id="left-margin-Black-S" d="M620,56 l0,110" />
        <path id="right-margin-Black-S" d="M710,56 l0,110" />
        <path id="Capline-M" d="M18,276 l800,0" />
        <path id="Baseline-M" d="M18,346 l800,0" />
        <path id="Capline-L" d="M18,476 l800,0" />
        <path id="Baseline-L" d="M18,546 l800,0" />
    </g>
    <g id="Symbols">
        <g id="Ultralight-S">
            <path d="M298.873,111.374 L278.435,104.562 C276.286,103.844 274.537,102.257 273.615,100.187 L265.804,81.923 C265.804,81.923 265.804,81.9 265.804,81.889 C264.65,79.301 261.686,78.05 259.026,79.029 L233.544,88.28 C231.419,89.059 230.004,91.079 230,93.342 L230,132.538 C230,133.967 230.567,135.336 231.577,136.346 C232.587,137.356 233.957,137.923 235.385,137.923 L302.692,137.923 C304.12,137.923 305.49,137.356 306.5,136.346 C307.51,135.336 308.077,133.967 308.077,132.538 L308.077,124.145 C308.077,118.35 304.369,113.205 298.872,111.373 Z M260.867,84.077 L263.26,89.674 L256.004,92.315 C254.776,92.761 254.045,94.025 254.271,95.313 C254.498,96.6 255.616,97.539 256.923,97.538 C257.237,97.538 257.548,97.482 257.842,97.374 L265.38,94.634 L266.975,98.36 L261.389,100.379 C260.139,100.811 259.388,102.086 259.617,103.389 C259.845,104.691 260.986,105.635 262.308,105.615 C262.621,105.615 262.932,105.559 263.226,105.45 L269.15,103.297 C269.829,104.547 270.701,105.683 271.734,106.662 L266.774,108.466 C265.54,108.908 264.804,110.175 265.031,111.466 C265.258,112.757 266.382,113.697 267.692,113.692 C268.006,113.691 268.316,113.637 268.611,113.531 L278.034,110.105 L297.173,116.482 C299.645,117.309 301.566,119.278 302.332,121.769 L235.385,121.769 L235.385,93.342 Z M235.385,132.538 L235.385,132.538 L235.385,127.154 L302.692,127.154 L302.692,132.538 Z" />
        </g>
        <g id="Regular-S">
            <path d="M498.873,111.374 L478.435,104.562 C476.286,103.844 474.537,102.257 473.615,100.187 L465.804,81.923 C465.804,81.923 465.804,81.9 465.804,81.889 C464.65,79.301 461.686,78.05 459.026,79.029 L433.544,88.28 C431.419,89.059 430.004,91.079 430,93.342 L430,132.538 C430,133.967 430.567,135.336 431.577,136.346 C432.587,137.356 433.957,137.923 435.385,137.923 L502.692,137.923 C504.12,137.923 505.49,137.356 506.5,136.346 C507.51,135.336 508.077,133.967 508.077,132.538 L508.077,124.145 C508.077,118.35 504.369,113.205 498.872,111.373 Z M460.867,84.077 L463.26,89.674 L456.004,92.315 C454.776,92.761 454.045,94.025 454.271,95.313 C454.498,96.6 455.616,97.539 456.923,97.538 C457.237,97.538 457.548,97.482 457.842,97.374 L465.38,94.634 L466.975,98.36 L461.389,100.379 C460.139,100.811 459.388,102.086 459.617,103.389 C459.845,104.691 460.986,105.635 462.308,105.615 C462.621,105.615 462.932,105.559 463.226,105.45 L469.15,103.297 C469.829,104.547 470.701,105.683 471.734,106.662 L466.774,108.466 C465.54,108.908 464.804,110.175 465.031,111.466 C465.258,112.757 466.382,113.697 467.692,113.692 C468.006,113.691 468.316,113.637 468.611,113.531 L478.034,110.105 L497.173,116.482 C499.645,117.309 501.566,119.278 502.332,121.769 L435.385,121.769 L435.385,93.342 Z M435.385,132.538 L435.385,132.538 L435.385,127.154 L502.692,127.154 L502.692,132.538 Z" />
        </g>
        <g id="Black-S">
            <path d="M698.873,111.374 L678.435,104.562 C676.286,103.844 674.537,102.257 673.615,100.187 L665.804,81.923 C665.804,81.923 665.804,81.9 665.804,81.889 C664.65,79.301 661.687,78.05 659.026,79.029 L633.544,88.28 C631.419,89.059 630.004,91.079 630,93.342 L630,132.538 C630,133.967 630.567,135.336 631.577,136.346 C632.587,137.356 633.957,137.923 635.385,137.923 L702.692,137.923 C704.12,137.923 705.49,137.356 706.5,136.346 C707.51,135.336 708.077,133.967 708.077,132.538 L708.077,124.145 C708.077,118.35 704.369,113.205 698.872,111.373 Z M660.867,84.077 L663.26,89.674 L656.004,92.315 C654.776,92.761 654.045,94.025 654.271,95.313 C654.498,96.6 655.616,97.539 656.923,97.538 C657.237,97.538 657.548,97.482 657.842,97.374 L665.38,94.634 L666.976,98.36 L661.389,100.379 C660.139,100.811 659.388,102.086 659.617,103.389 C659.845,104.691 660.986,105.635 662.308,105.615 C662.621,105.615 662.932,105.559 663.226,105.45 L669.15,103.297 C669.829,104.547 670.701,105.683 671.734,106.662 L666.774,108.466 C665.54,108.908 664.804,110.175 665.031,111.466 C665.258,112.757 666.382,113.697 667.692,113.692 C668.006,113.691 668.316,113.637 668.611,113.531 L678.034,110.105 L697.173,116.482 C699.645,117.309 701.566,119.278 702.332,121.769 L635.385,121.769 L635.385,93.342 Z M635.385,132.538 L635.385,132.538 L635.385,127.154 L702.692,127.154 L702.692,132.538 Z" />
        </g>
    </g>
</svg>