<?xml version="1.0" encoding="UTF-8"?>
<svg height="600" width="800" xmlns="http://www.w3.org/2000/svg" xmlns:xlink="http://www.w3.org/1999/xlink">
    <g id="Notes" font-family="'LucidaGrande', 'Lucida Grande', sans-serif" font-size="13">
        <rect fill="white" height="600.0" width="800.0" x="0.0" y="0.0" />
        <g font-size="13">
            <text x="18.0" y="176.0">Small</text>
            <text x="18.0" y="376.0">Medium</text>
            <text x="18.0" y="576.0">Large</text>
        </g>
        <g font-size="9">
            <text x="250.0" y="30.0">Ultralight</text>
            <text x="450.0" y="30.0">Regular</text>
            <text x="650.0" y="30.0">Black</text>
            <text id="template-version" fill="#505050" text-anchor="end" x="785.0" y="575.0">Template v.3.0</text>
            <a href="https://github.com/swhitty/SwiftDraw">
                <text fill="#505050" text-anchor="end" x="785.0" y="590.0">https://github.com/swhitty/SwiftDraw</text>
            </a>
        </g>
    </g>
    <g id="Guides" stroke="rgb(39, 170, 225)" stroke-width="0.5">
        <path id="Capline-S" d="M18,76 l800,0" />
        <path id="H-reference" d="M85,145.755 L87.685,145.755 L113.369,79.287 L114.052,79.287 L114.052,76 L112.148,76 L85,145.755 Z M95.693,121.536 L130.996,121.536 L130.263,119.313 L96.474,119.313 L95.693,121.536 Z M139.15,145.755 L141.787,145.755 L114.638,76 L113.466,76 L113.466,79.287 L139.15,145.755 Z" stroke="none" />
        <path id="Baseline-S" d="M18,146 l800,0" />
        <path id="left-margin-Ultralight-S" d="M220,56 l0,110" />
        <path id="right-margin-Ultralight-S" d="M310,56 l0,110" />
        <path id="left-margin-Regular-S" d="M420,56 l0,110" />
        <path id="right-margin-Regular-S" d="M510,56 l0,110" />
        <path id="left-margin-Black-S" d="M620,56 l0,110" />
        <path id="right-margin-Black-S" d="M710,56 l0,110" />
        <path id="Capline-M" d="M18,276 l800,0" />
        <path id="Baseline-M" d="M18,346 l800,0" />
        <path id="Capline-L" d="M18,476 l800,0" />
        <path id="Baseline-L" d="M18,546 l800,0" />
    </g>
    <g id="Symbols">
        <g id="Ultralight-S">
            <path d="M265,76 C245.67,76 230,91.67 230,111 C230,130.33 245.67,146 265,146 C284.33,146 300,130.33 300,111 C299.979,91.677 284.32,76.02 264.999,76 Z M278.159,120.352 C282.152,114.757 282.152,107.243 278.159,101.648 L287.75,92.06 C296.904,103.027 296.904,118.973 287.75,129.94 Z M254.231,111 C254.231,105.052 259.052,100.231 265,100.231 C270.948,100.231 275.769,105.052 275.769,111 C275.769,116.948 270.948,121.769 265,121.769 C262.144,121.769 259.405,120.635 257.385,118.615 C255.365,116.595 254.231,113.856 254.231,111 Z M283.94,88.25 L274.352,97.841 C268.757,93.848 261.243,93.848 255.648,97.841 L246.06,88.25 C257.027,79.096 272.973,79.096 283.94,88.25 Z M242.25,92.06 L251.841,101.648 C247.848,107.243 247.848,114.757 251.841,120.352 L242.25,129.94 C233.096,118.973 233.096,103.027 242.25,92.06 Z M246.06,133.75 L255.648,124.159 C261.243,128.152 268.757,128.152 274.352,124.159 L283.94,133.75 C272.973,142.904 257.027,142.904 246.06,133.75 Z" />
        </g>
        <g id="Regular-S">
            <path d="M465,76 C445.67,76 430,91.67 430,111 C430,130.33 445.67,146 465,146 C484.33,146 500,130.33 500,111 C499.979,91.677 484.32,76.02 464.999,76 Z M478.159,120.352 C482.152,114.757 482.152,107.243 478.159,101.648 L487.75,92.06 C496.904,103.027 496.904,118.973 487.75,129.94 Z M454.231,111 C454.231,105.052 459.052,100.231 465,100.231 C470.948,100.231 475.769,105.052 475.769,111 C475.769,116.948 470.948,121.769 465,121.769 C462.144,121.769 459.405,120.635 457.385,118.615 C455.365,116.595 454.231,113.856 454.231,111 Z M483.94,88.25 L474.352,97.841 C468.757,93.848 461.243,93.848 455.648,97.841 L446.06,88.25 C457.027,79.096 472.973,79.096 483.94,88.25 Z M442.25,92.06 L451.841,101.648 C447.848,107.243 447.848,114.757 451.841,120.352 L442.25,129.94 C433.096,118.973 433.096,103.027 442.25,92.06 Z M446.06,133.75 L455.648,124.159 C461.243,128.152 468.757,128.152 474.352,124.159 L483.94,133.75 C472.973,142.904 457.027,142.904 446.06,133.75 Z" />
        </g>
        <g id="Black-S">
            <path d="M665,76 C645.67,76 630,91.67 630,111 C630,130.33 645.67,146 665,146 C684.33,146 700,130.33 700,111 C699.979,91.677 684.32,76.02 664.999,76 Z M678.159,120.352 C682.152,114.757 682.152,107.243 678.159,101.648 L687.75,92.06 C696.904,103.027 696.904,118.973 687.75,129.94 Z M654.231,111 C654.231,105.052 659.052,100.231 665,100.231 C670.948,100.231 675.769,105.052 675.769,111 C675.769,116.948 670.948,121.769 665,121.769 C662.144,121.769 659.405,120.635 657.385,118.615 C655.365,116.595 654.231,113.856 654.231,111 Z M683.94,88.25 L674.352,97.841 C668.757,93.848 661.243,93.848 655.648,97.841 L646.06,88.25 C657.027,79.096 672.973,79.096 683.94,88.25 Z M642.25,92.06 L651.841,101.648 C647.848,107.243 647.848,114.757 651.841,120.352 L642.25,129.94 C633.096,118.973 633.096,103.027 642.25,92.06 Z M646.06,133.75 L655.648,124.159 C661.243,128.152 668.757,128.152 674.352,124.159 L683.94,133.75 C672.973,142.904 657.027,142.904 646.06,133.75 Z" />
        </g>
    </g>
</svg>