<?xml version="1.0" encoding="UTF-8"?>
<svg height="600" width="800" xmlns="http://www.w3.org/2000/svg" xmlns:xlink="http://www.w3.org/1999/xlink">
    <g id="Notes" font-family="'LucidaGrande', 'Lucida Grande', sans-serif" font-size="13">
        <rect fill="white" height="600.0" width="800.0" x="0.0" y="0.0" />
        <g font-size="13">
            <text x="18.0" y="176.0">Small</text>
            <text x="18.0" y="376.0">Medium</text>
            <text x="18.0" y="576.0">Large</text>
        </g>
        <g font-size="9">
            <text x="250.0" y="30.0">Ultralight</text>
            <text x="450.0" y="30.0">Regular</text>
            <text x="650.0" y="30.0">Black</text>
            <text id="template-version" fill="#505050" text-anchor="end" x="785.0" y="575.0">Template v.3.0</text>
            <a href="https://github.com/swhitty/SwiftDraw">
                <text fill="#505050" text-anchor="end" x="785.0" y="590.0">https://github.com/swhitty/SwiftDraw</text>
            </a>
        </g>
    </g>
    <g id="Guides" stroke="rgb(39, 170, 225)" stroke-width="0.5">
        <path id="Capline-S" d="M18,76 l800,0" />
        <path id="H-reference" d="M85,145.755 L87.685,145.755 L113.369,79.287 L114.052,79.287 L114.052,76 L112.148,76 L85,145.755 Z M95.693,121.536 L130.996,121.536 L130.263,119.313 L96.474,119.313 L95.693,121.536 Z M139.15,145.755 L141.787,145.755 L114.638,76 L113.466,76 L113.466,79.287 L139.15,145.755 Z" stroke="none" />
        <path id="Baseline-S" d="M18,146 l800,0" />
        <path id="left-margin-Ultralight-S" d="M220,56 l0,110" />
        <path id="right-margin-Ultralight-S" d="M310,56 l0,110" />
        <path id="left-margin-Regular-S" d="M420,56 l0,110" />
        <path id="right-margin-Regular-S" d="M510,56 l0,110" />
        <path id="left-margin-Black-S" d="M620,56 l0,110" />
        <path id="right-margin-Black-S" d="M710,56 l0,110" />
        <path id="Capline-M" d="M18,276 l800,0" />
        <path id="Baseline-M" d="M18,346 l800,0" />
        <path id="Capline-L" d="M18,476 l800,0" />
        <path id="Baseline-L" d="M18,546 l800,0" />
    </g>
    <g id="Symbols">
        <g id="Ultralight-S">
            <path d="M301.121,107.204 L268.796,74.876 C266.696,72.788 263.304,72.788 261.204,74.876 L228.896,107.204 C226.808,109.304 226.808,112.696 228.896,114.796 L261.221,147.124 L261.221,147.124 C263.321,149.212 266.713,149.212 268.813,147.124 L301.138,114.796 C303.225,112.696 303.225,109.304 301.138,107.204 Z M265,143.308 L265,143.308 L232.692,111 L265,78.692 L297.308,111 Z" />
        </g>
        <g id="Regular-S">
            <path d="M501.121,107.204 L468.796,74.876 C466.696,72.788 463.304,72.788 461.204,74.876 L428.896,107.204 C426.808,109.304 426.808,112.696 428.896,114.796 L461.221,147.124 L461.221,147.124 C463.321,149.212 466.713,149.212 468.813,147.124 L501.137,114.796 C503.225,112.696 503.225,109.304 501.137,107.204 Z M465,143.308 L465,143.308 L432.692,111 L465,78.692 L497.308,111 Z" />
        </g>
        <g id="Black-S">
            <path d="M701.121,107.204 L668.796,74.876 C666.696,72.788 663.304,72.788 661.204,74.876 L628.896,107.204 C626.808,109.304 626.808,112.696 628.896,114.796 L661.221,147.124 L661.221,147.124 C663.321,149.212 666.713,149.212 668.813,147.124 L701.138,114.796 C703.225,112.696 703.225,109.304 701.138,107.204 Z M665,143.308 L665,143.308 L632.692,111 L665,78.692 L697.308,111 Z" />
        </g>
    </g>
</svg>