<?xml version="1.0" encoding="UTF-8"?>
<svg height="600" width="800" xmlns="http://www.w3.org/2000/svg" xmlns:xlink="http://www.w3.org/1999/xlink">
    <g id="Notes" font-family="'LucidaGrande', 'Lucida Grande', sans-serif" font-size="13">
        <rect fill="white" height="600.0" width="800.0" x="0.0" y="0.0" />
        <g font-size="13">
            <text x="18.0" y="176.0">Small</text>
            <text x="18.0" y="376.0">Medium</text>
            <text x="18.0" y="576.0">Large</text>
        </g>
        <g font-size="9">
            <text x="250.0" y="30.0">Ultralight</text>
            <text x="450.0" y="30.0">Regular</text>
            <text x="650.0" y="30.0">Black</text>
            <text id="template-version" fill="#505050" text-anchor="end" x="785.0" y="575.0">Template v.3.0</text>
            <a href="https://github.com/swhitty/SwiftDraw">
                <text fill="#505050" text-anchor="end" x="785.0" y="590.0">https://github.com/swhitty/SwiftDraw</text>
            </a>
        </g>
    </g>
    <g id="Guides" stroke="rgb(39, 170, 225)" stroke-width="0.5">
        <path id="Capline-S" d="M18,76 l800,0" />
        <path id="H-reference" d="M85,145.755 L87.685,145.755 L113.369,79.287 L114.052,79.287 L114.052,76 L112.148,76 L85,145.755 Z M95.693,121.536 L130.996,121.536 L130.263,119.313 L96.474,119.313 L95.693,121.536 Z M139.15,145.755 L141.787,145.755 L114.638,76 L113.466,76 L113.466,79.287 L139.15,145.755 Z" stroke="none" />
        <path id="Baseline-S" d="M18,146 l800,0" />
        <path id="left-margin-Ultralight-S" d="M220,56 l0,110" />
        <path id="right-margin-Ultralight-S" d="M310,56 l0,110" />
        <path id="left-margin-Regular-S" d="M420,56 l0,110" />
        <path id="right-margin-Regular-S" d="M510,56 l0,110" />
        <path id="left-margin-Black-S" d="M620,56 l0,110" />
        <path id="right-margin-Black-S" d="M710,56 l0,110" />
        <path id="Capline-M" d="M18,276 l800,0" />
        <path id="Baseline-M" d="M18,346 l800,0" />
        <path id="Capline-L" d="M18,476 l800,0" />
        <path id="Baseline-L" d="M18,546 l800,0" />
    </g>
    <g id="Symbols">
        <g id="Ultralight-S">
            <path d="M302.692,100.231 C302.692,100.945 302.409,101.63 301.904,102.135 C301.399,102.639 300.714,102.923 300,102.923 L294.615,102.923 L294.615,108.308 C294.615,109.795 293.41,111 291.923,111 C290.436,111 289.231,109.795 289.231,108.308 L289.231,102.923 L283.846,102.923 C282.359,102.923 281.154,101.718 281.154,100.231 C281.154,98.744 282.359,97.538 283.846,97.538 L289.231,97.538 L289.231,92.154 C289.231,90.667 290.436,89.462 291.923,89.462 C293.41,89.462 294.615,90.667 294.615,92.154 L294.615,97.538 L300,97.538 C300.714,97.538 301.399,97.822 301.904,98.327 C302.409,98.832 302.692,99.517 302.692,100.231 Z M270.385,86.769 L273.077,86.769 L273.077,89.462 C273.077,90.948 274.282,92.154 275.769,92.154 C277.256,92.154 278.462,90.948 278.462,89.462 L278.462,86.769 L281.154,86.769 C282.641,86.769 283.846,85.564 283.846,84.077 C283.846,82.59 282.641,81.385 281.154,81.385 L278.462,81.385 L278.462,78.692 C278.462,77.205 277.256,76 275.769,76 C274.282,76 273.077,77.205 273.077,78.692 L273.077,81.385 L270.385,81.385 C268.898,81.385 267.692,82.59 267.692,84.077 C267.692,85.564 268.898,86.769 270.385,86.769 Z M294.875,119.413 C295.513,120.157 295.697,121.188 295.356,122.106 C290.207,136.147 276.094,144.82 261.241,143.069 C246.388,141.318 234.678,129.602 232.935,114.747 C231.193,99.893 239.873,85.785 253.918,80.644 C254.831,80.31 255.854,80.494 256.593,81.126 C257.332,81.758 257.673,82.739 257.485,83.693 C255.569,93.391 258.614,103.406 265.604,110.396 C272.594,117.386 282.609,120.431 292.307,118.515 C293.262,118.328 294.244,118.672 294.875,119.413 Z M288.349,124.421 C287.747,124.451 287.141,124.468 286.538,124.468 C267.214,124.448 251.555,108.786 251.538,89.462 C251.538,88.859 251.538,88.253 251.586,87.651 C241.767,93.301 236.536,104.492 238.497,115.649 C240.459,126.805 249.195,135.541 260.351,137.503 C271.508,139.464 282.699,134.233 288.349,124.414 Z" />
        </g>
        <g id="Regular-S">
            <path d="M502.692,100.231 C502.692,100.945 502.409,101.63 501.904,102.135 C501.399,102.639 500.714,102.923 500,102.923 L494.615,102.923 L494.615,108.308 C494.615,109.795 493.41,111 491.923,111 C490.436,111 489.231,109.795 489.231,108.308 L489.231,102.923 L483.846,102.923 C482.359,102.923 481.154,101.718 481.154,100.231 C481.154,98.744 482.359,97.538 483.846,97.538 L489.231,97.538 L489.231,92.154 C489.231,90.667 490.436,89.462 491.923,89.462 C493.41,89.462 494.615,90.667 494.615,92.154 L494.615,97.538 L500,97.538 C500.714,97.538 501.399,97.822 501.904,98.327 C502.409,98.832 502.692,99.517 502.692,100.231 Z M470.385,86.769 L473.077,86.769 L473.077,89.462 C473.077,90.948 474.282,92.154 475.769,92.154 C477.256,92.154 478.462,90.948 478.462,89.462 L478.462,86.769 L481.154,86.769 C482.641,86.769 483.846,85.564 483.846,84.077 C483.846,82.59 482.641,81.385 481.154,81.385 L478.462,81.385 L478.462,78.692 C478.462,77.205 477.256,76 475.769,76 C474.282,76 473.077,77.205 473.077,78.692 L473.077,81.385 L470.385,81.385 C468.898,81.385 467.692,82.59 467.692,84.077 C467.692,85.564 468.898,86.769 470.385,86.769 Z M494.875,119.413 C495.513,120.157 495.697,121.188 495.356,122.106 C490.207,136.147 476.094,144.82 461.241,143.069 C446.388,141.318 434.678,129.602 432.935,114.747 C431.193,99.893 439.873,85.785 453.918,80.644 C454.831,80.31 455.854,80.494 456.593,81.126 C457.332,81.758 457.673,82.739 457.485,83.693 C455.569,93.391 458.614,103.406 465.604,110.396 C472.594,117.386 482.609,120.431 492.307,118.515 C493.262,118.328 494.244,118.672 494.875,119.413 Z M488.349,124.421 C487.747,124.451 487.141,124.468 486.538,124.468 C467.214,124.448 451.555,108.786 451.538,89.462 C451.538,88.859 451.538,88.253 451.586,87.651 C441.767,93.301 436.536,104.492 438.497,115.649 C440.459,126.805 449.195,135.541 460.351,137.503 C471.508,139.464 482.699,134.233 488.349,124.414 Z" />
        </g>
        <g id="Black-S">
            <path d="M702.692,100.231 C702.692,100.945 702.409,101.63 701.904,102.135 C701.399,102.639 700.714,102.923 700,102.923 L694.615,102.923 L694.615,108.308 C694.615,109.795 693.41,111 691.923,111 C690.436,111 689.231,109.795 689.231,108.308 L689.231,102.923 L683.846,102.923 C682.359,102.923 681.154,101.718 681.154,100.231 C681.154,98.744 682.359,97.538 683.846,97.538 L689.231,97.538 L689.231,92.154 C689.231,90.667 690.436,89.462 691.923,89.462 C693.41,89.462 694.615,90.667 694.615,92.154 L694.615,97.538 L700,97.538 C700.714,97.538 701.399,97.822 701.904,98.327 C702.409,98.832 702.692,99.517 702.692,100.231 Z M670.385,86.769 L673.077,86.769 L673.077,89.462 C673.077,90.948 674.282,92.154 675.769,92.154 C677.256,92.154 678.462,90.948 678.462,89.462 L678.462,86.769 L681.154,86.769 C682.641,86.769 683.846,85.564 683.846,84.077 C683.846,82.59 682.641,81.385 681.154,81.385 L678.462,81.385 L678.462,78.692 C678.462,77.205 677.256,76 675.769,76 C674.282,76 673.077,77.205 673.077,78.692 L673.077,81.385 L670.385,81.385 C668.898,81.385 667.692,82.59 667.692,84.077 C667.692,85.564 668.898,86.769 670.385,86.769 Z M694.875,119.413 C695.513,120.157 695.697,121.188 695.356,122.106 C690.207,136.147 676.094,144.82 661.241,143.069 C646.388,141.318 634.678,129.602 632.935,114.747 C631.193,99.893 639.873,85.785 653.918,80.644 C654.831,80.31 655.854,80.494 656.593,81.126 C657.332,81.758 657.673,82.739 657.485,83.693 C655.569,93.391 658.614,103.406 665.604,110.396 C672.594,117.386 682.609,120.431 692.307,118.515 C693.262,118.328 694.244,118.672 694.875,119.413 Z M688.349,124.421 C687.747,124.451 687.141,124.468 686.538,124.468 C667.214,124.448 651.555,108.786 651.538,89.462 C651.538,88.859 651.538,88.253 651.586,87.651 C641.767,93.301 636.536,104.492 638.497,115.649 C640.459,126.805 649.195,135.541 660.351,137.503 C671.508,139.464 682.699,134.233 688.349,124.414 Z" />
        </g>
    </g>
</svg>