<?xml version="1.0" encoding="UTF-8"?>
<svg height="600" width="800" xmlns="http://www.w3.org/2000/svg" xmlns:xlink="http://www.w3.org/1999/xlink">
    <g id="Notes" font-family="'LucidaGrande', 'Lucida Grande', sans-serif" font-size="13">
        <rect fill="white" height="600.0" width="800.0" x="0.0" y="0.0" />
        <g font-size="13">
            <text x="18.0" y="176.0">Small</text>
            <text x="18.0" y="376.0">Medium</text>
            <text x="18.0" y="576.0">Large</text>
        </g>
        <g font-size="9">
            <text x="250.0" y="30.0">Ultralight</text>
            <text x="450.0" y="30.0">Regular</text>
            <text x="650.0" y="30.0">Black</text>
            <text id="template-version" fill="#505050" text-anchor="end" x="785.0" y="575.0">Template v.3.0</text>
            <a href="https://github.com/swhitty/SwiftDraw">
                <text fill="#505050" text-anchor="end" x="785.0" y="590.0">https://github.com/swhitty/SwiftDraw</text>
            </a>
        </g>
    </g>
    <g id="Guides" stroke="rgb(39, 170, 225)" stroke-width="0.5">
        <path id="Capline-S" d="M18,76 l800,0" />
        <path id="H-reference" d="M85,145.755 L87.685,145.755 L113.369,79.287 L114.052,79.287 L114.052,76 L112.148,76 L85,145.755 Z M95.693,121.536 L130.996,121.536 L130.263,119.313 L96.474,119.313 L95.693,121.536 Z M139.15,145.755 L141.787,145.755 L114.638,76 L113.466,76 L113.466,79.287 L139.15,145.755 Z" stroke="none" />
        <path id="Baseline-S" d="M18,146 l800,0" />
        <path id="left-margin-Ultralight-S" d="M220,56 l0,110" />
        <path id="right-margin-Ultralight-S" d="M310,56 l0,110" />
        <path id="left-margin-Regular-S" d="M420,56 l0,110" />
        <path id="right-margin-Regular-S" d="M510,56 l0,110" />
        <path id="left-margin-Black-S" d="M620,56 l0,110" />
        <path id="right-margin-Black-S" d="M710,56 l0,110" />
        <path id="Capline-M" d="M18,276 l800,0" />
        <path id="Baseline-M" d="M18,346 l800,0" />
        <path id="Capline-L" d="M18,476 l800,0" />
        <path id="Baseline-L" d="M18,546 l800,0" />
    </g>
    <g id="Symbols">
        <g id="Ultralight-S">
            <path d="M289.231,97.538 L289.231,132.538 C289.231,133.253 288.947,133.937 288.442,134.442 C287.937,134.947 287.253,135.231 286.538,135.231 L251.538,135.231 C250.052,135.231 248.846,134.025 248.846,132.538 C248.846,131.052 250.052,129.846 251.538,129.846 L280.04,129.846 L241.557,91.366 C240.504,90.313 240.505,88.607 241.558,87.556 C242.61,86.504 244.316,86.505 245.367,87.558 L283.846,126.04 L283.846,97.538 C283.846,96.052 285.052,94.846 286.538,94.846 C288.025,94.846 289.231,96.052 289.231,97.538 Z" />
        </g>
        <g id="Regular-S">
            <path d="M489.231,97.538 L489.231,132.538 C489.231,133.253 488.947,133.937 488.442,134.442 C487.937,134.947 487.253,135.231 486.538,135.231 L451.538,135.231 C450.052,135.231 448.846,134.025 448.846,132.538 C448.846,131.052 450.052,129.846 451.538,129.846 L480.04,129.846 L441.557,91.366 C440.504,90.313 440.505,88.607 441.558,87.556 C442.61,86.504 444.316,86.505 445.367,87.558 L483.846,126.04 L483.846,97.538 C483.846,96.052 485.052,94.846 486.538,94.846 C488.025,94.846 489.231,96.052 489.231,97.538 Z" />
        </g>
        <g id="Black-S">
            <path d="M689.231,97.538 L689.231,132.538 C689.231,133.253 688.947,133.937 688.442,134.442 C687.937,134.947 687.253,135.231 686.538,135.231 L651.538,135.231 C650.052,135.231 648.846,134.025 648.846,132.538 C648.846,131.052 650.052,129.846 651.538,129.846 L680.04,129.846 L641.557,91.366 C640.504,90.313 640.505,88.607 641.558,87.556 C642.61,86.504 644.316,86.505 645.367,87.558 L683.846,126.04 L683.846,97.538 C683.846,96.052 685.052,94.846 686.538,94.846 C688.025,94.846 689.231,96.052 689.231,97.538 Z" />
        </g>
    </g>
</svg>