<?xml version="1.0" encoding="UTF-8"?>
<svg height="600" width="800" xmlns="http://www.w3.org/2000/svg" xmlns:xlink="http://www.w3.org/1999/xlink">
    <g id="Notes" font-family="'LucidaGrande', 'Lucida Grande', sans-serif" font-size="13">
        <rect fill="white" height="600.0" width="800.0" x="0.0" y="0.0" />
        <g font-size="13">
            <text x="18.0" y="176.0">Small</text>
            <text x="18.0" y="376.0">Medium</text>
            <text x="18.0" y="576.0">Large</text>
        </g>
        <g font-size="9">
            <text x="250.0" y="30.0">Ultralight</text>
            <text x="450.0" y="30.0">Regular</text>
            <text x="650.0" y="30.0">Black</text>
            <text id="template-version" fill="#505050" text-anchor="end" x="785.0" y="575.0">Template v.3.0</text>
            <a href="https://github.com/swhitty/SwiftDraw">
                <text fill="#505050" text-anchor="end" x="785.0" y="590.0">https://github.com/swhitty/SwiftDraw</text>
            </a>
        </g>
    </g>
    <g id="Guides" stroke="rgb(39, 170, 225)" stroke-width="0.5">
        <path id="Capline-S" d="M18,76 l800,0" />
        <path id="H-reference" d="M85,145.755 L87.685,145.755 L113.369,79.287 L114.052,79.287 L114.052,76 L112.148,76 L85,145.755 Z M95.693,121.536 L130.996,121.536 L130.263,119.313 L96.474,119.313 L95.693,121.536 Z M139.15,145.755 L141.787,145.755 L114.638,76 L113.466,76 L113.466,79.287 L139.15,145.755 Z" stroke="none" />
        <path id="Baseline-S" d="M18,146 l800,0" />
        <path id="left-margin-Ultralight-S" d="M220,56 l0,110" />
        <path id="right-margin-Ultralight-S" d="M310,56 l0,110" />
        <path id="left-margin-Regular-S" d="M420,56 l0,110" />
        <path id="right-margin-Regular-S" d="M510,56 l0,110" />
        <path id="left-margin-Black-S" d="M620,56 l0,110" />
        <path id="right-margin-Black-S" d="M710,56 l0,110" />
        <path id="Capline-M" d="M18,276 l800,0" />
        <path id="Baseline-M" d="M18,346 l800,0" />
        <path id="Capline-L" d="M18,476 l800,0" />
        <path id="Baseline-L" d="M18,546 l800,0" />
    </g>
    <g id="Symbols">
        <g id="Ultralight-S">
            <path d="M280.481,83.993 C276.324,79.192 271.645,74.869 266.531,71.103 C265.604,70.454 264.369,70.454 263.442,71.103 C258.337,74.87 253.668,79.193 249.519,83.993 C240.268,94.617 235.385,105.817 235.385,116.385 C235.385,132.741 248.644,146 265,146 C281.356,146 294.615,132.741 294.615,116.385 C294.615,105.817 289.732,94.617 280.481,83.993 Z M265,140.615 C251.624,140.601 240.784,129.761 240.769,116.385 C240.769,97.125 259.437,81.048 265,76.673 C270.563,81.048 289.231,97.118 289.231,116.385 C289.215,129.762 278.375,140.601 264.999,140.615 Z" />
        </g>
        <g id="Regular-S">
            <path d="M480.481,83.993 C476.324,79.192 471.645,74.869 466.531,71.103 C465.604,70.454 464.369,70.454 463.442,71.103 C458.337,74.87 453.668,79.193 449.519,83.993 C440.268,94.617 435.385,105.817 435.385,116.385 C435.385,132.741 448.644,146 465,146 C481.356,146 494.615,132.741 494.615,116.385 C494.615,105.817 489.732,94.617 480.481,83.993 Z M465,140.615 C451.624,140.601 440.784,129.761 440.769,116.385 C440.769,97.125 459.437,81.048 465,76.673 C470.563,81.048 489.231,97.118 489.231,116.385 C489.215,129.762 478.375,140.601 464.999,140.615 Z" />
        </g>
        <g id="Black-S">
            <path d="M680.481,83.993 C676.324,79.192 671.645,74.869 666.531,71.103 C665.604,70.454 664.369,70.454 663.442,71.103 C658.337,74.87 653.668,79.193 649.519,83.993 C640.268,94.617 635.385,105.817 635.385,116.385 C635.385,132.741 648.644,146 665,146 C681.356,146 694.615,132.741 694.615,116.385 C694.615,105.817 689.732,94.617 680.481,83.993 Z M665,140.615 C651.624,140.601 640.784,129.761 640.769,116.385 C640.769,97.125 659.437,81.048 665,76.673 C670.563,81.048 689.231,97.118 689.231,116.385 C689.215,129.762 678.375,140.601 664.999,140.615 Z" />
        </g>
    </g>
</svg>