<?xml version="1.0" encoding="UTF-8"?>
<svg height="600" width="800" xmlns="http://www.w3.org/2000/svg" xmlns:xlink="http://www.w3.org/1999/xlink">
    <g id="Notes" font-family="'LucidaGrande', 'Lucida Grande', sans-serif" font-size="13">
        <rect fill="white" height="600.0" width="800.0" x="0.0" y="0.0" />
        <g font-size="13">
            <text x="18.0" y="176.0">Small</text>
            <text x="18.0" y="376.0">Medium</text>
            <text x="18.0" y="576.0">Large</text>
        </g>
        <g font-size="9">
            <text x="250.0" y="30.0">Ultralight</text>
            <text x="450.0" y="30.0">Regular</text>
            <text x="650.0" y="30.0">Black</text>
            <text id="template-version" fill="#505050" text-anchor="end" x="785.0" y="575.0">Template v.3.0</text>
            <a href="https://github.com/swhitty/SwiftDraw">
                <text fill="#505050" text-anchor="end" x="785.0" y="590.0">https://github.com/swhitty/SwiftDraw</text>
            </a>
        </g>
    </g>
    <g id="Guides" stroke="rgb(39, 170, 225)" stroke-width="0.5">
        <path id="Capline-S" d="M18,76 l800,0" />
        <path id="H-reference" d="M85,145.755 L87.685,145.755 L113.369,79.287 L114.052,79.287 L114.052,76 L112.148,76 L85,145.755 Z M95.693,121.536 L130.996,121.536 L130.263,119.313 L96.474,119.313 L95.693,121.536 Z M139.15,145.755 L141.787,145.755 L114.638,76 L113.466,76 L113.466,79.287 L139.15,145.755 Z" stroke="none" />
        <path id="Baseline-S" d="M18,146 l800,0" />
        <path id="left-margin-Ultralight-S" d="M220,56 l0,110" />
        <path id="right-margin-Ultralight-S" d="M310,56 l0,110" />
        <path id="left-margin-Regular-S" d="M420,56 l0,110" />
        <path id="right-margin-Regular-S" d="M510,56 l0,110" />
        <path id="left-margin-Black-S" d="M620,56 l0,110" />
        <path id="right-margin-Black-S" d="M710,56 l0,110" />
        <path id="Capline-M" d="M18,276 l800,0" />
        <path id="Baseline-M" d="M18,346 l800,0" />
        <path id="Capline-L" d="M18,476 l800,0" />
        <path id="Baseline-L" d="M18,546 l800,0" />
    </g>
    <g id="Symbols">
        <g id="Ultralight-S">
            <path d="M254.231,108.308 C246.796,108.308 240.769,114.335 240.769,121.769 C240.769,129.204 246.796,135.231 254.231,135.231 C261.665,135.231 267.692,129.204 267.692,121.769 C267.692,118.199 266.274,114.775 263.75,112.25 C261.225,109.726 257.801,108.308 254.231,108.308 Z M254.231,129.846 C249.77,129.846 246.154,126.23 246.154,121.769 C246.154,117.308 249.77,113.692 254.231,113.692 C258.692,113.692 262.308,117.308 262.308,121.769 C262.308,123.911 261.457,125.966 259.942,127.48 C258.427,128.995 256.373,129.846 254.231,129.846 Z M296.52,109.095 C297.026,109.6 297.31,110.285 297.31,111 C297.31,111.715 297.026,112.4 296.52,112.905 L280.366,129.059 C279.316,130.11 277.61,130.111 276.558,129.06 C275.505,128.008 275.504,126.303 276.556,125.25 L292.71,109.096 C293.214,108.59 293.9,108.306 294.615,108.306 C295.329,108.305 296.015,108.589 296.52,109.095 Z M275.769,113.692 C274.68,113.693 273.697,113.037 273.28,112.031 C272.863,111.024 273.094,109.865 273.864,109.095 L281.941,101.018 C282.992,99.967 284.697,99.966 285.75,101.017 C286.802,102.069 286.803,103.774 285.752,104.827 L277.675,112.904 C277.17,113.409 276.484,113.693 275.769,113.692 Z M299.212,91.366 L293.828,96.751 C292.778,97.802 291.072,97.803 290.019,96.752 C288.967,95.701 288.966,93.995 290.017,92.942 L295.402,87.558 C296.452,86.506 298.158,86.505 299.21,87.557 C300.263,88.608 300.264,90.314 299.212,91.366 Z M263.095,98.326 L287.326,74.095 C288.376,73.044 290.082,73.043 291.135,74.094 C292.187,75.146 292.188,76.851 291.137,77.904 L266.906,102.135 C265.856,103.186 264.15,103.187 263.097,102.136 C262.045,101.084 262.044,99.379 263.095,98.326 Z M271.364,135.096 C272.415,136.147 272.415,137.851 271.364,138.902 C265.26,145.107 256.297,147.561 247.883,145.331 C239.47,143.101 232.899,136.53 230.669,128.117 C228.439,119.703 230.893,110.74 237.098,104.636 L264.943,76.788 C265.993,75.736 267.699,75.735 268.751,76.786 C269.804,77.838 269.805,79.544 268.753,80.596 L240.904,108.442 C233.543,115.804 233.544,127.737 240.905,135.097 C248.265,142.457 260.198,142.456 267.558,135.095 C268.61,134.046 270.313,134.046 271.364,135.096 Z" />
        </g>
        <g id="Regular-S">
            <path d="M454.231,108.308 C446.796,108.308 440.769,114.335 440.769,121.769 C440.769,129.204 446.796,135.231 454.231,135.231 C461.665,135.231 467.692,129.204 467.692,121.769 C467.692,118.199 466.274,114.775 463.75,112.25 C461.225,109.726 457.801,108.308 454.231,108.308 Z M454.231,129.846 C449.77,129.846 446.154,126.23 446.154,121.769 C446.154,117.308 449.77,113.692 454.231,113.692 C458.692,113.692 462.308,117.308 462.308,121.769 C462.308,123.911 461.457,125.966 459.942,127.48 C458.427,128.995 456.373,129.846 454.231,129.846 Z M496.52,109.095 C497.026,109.6 497.31,110.285 497.31,111 C497.31,111.715 497.026,112.4 496.52,112.905 L480.366,129.059 C479.316,130.11 477.61,130.111 476.558,129.06 C475.505,128.008 475.504,126.303 476.556,125.25 L492.71,109.096 C493.214,108.59 493.9,108.306 494.615,108.306 C495.329,108.305 496.015,108.589 496.52,109.095 Z M475.769,113.692 C474.68,113.693 473.697,113.037 473.28,112.031 C472.863,111.024 473.094,109.865 473.864,109.095 L481.941,101.018 C482.992,99.967 484.697,99.966 485.75,101.017 C486.802,102.069 486.803,103.774 485.752,104.827 L477.675,112.904 C477.17,113.409 476.484,113.693 475.769,113.692 Z M499.212,91.366 L493.828,96.751 C492.778,97.802 491.072,97.803 490.019,96.752 C488.967,95.701 488.966,93.995 490.017,92.942 L495.402,87.558 C496.452,86.506 498.158,86.505 499.21,87.557 C500.263,88.608 500.264,90.314 499.212,91.366 Z M463.095,98.326 L487.326,74.095 C488.376,73.044 490.082,73.043 491.135,74.094 C492.187,75.146 492.188,76.851 491.137,77.904 L466.906,102.135 C465.855,103.186 464.15,103.187 463.097,102.136 C462.045,101.084 462.044,99.379 463.095,98.326 Z M471.364,135.096 C472.415,136.147 472.415,137.851 471.364,138.902 C465.26,145.107 456.297,147.561 447.883,145.331 C439.47,143.101 432.899,136.53 430.669,128.117 C428.439,119.703 430.893,110.74 437.098,104.636 L464.943,76.788 C465.993,75.736 467.699,75.735 468.751,76.786 C469.804,77.838 469.805,79.544 468.753,80.596 L440.904,108.442 C433.543,115.804 433.544,127.737 440.905,135.097 C448.265,142.457 460.198,142.456 467.558,135.095 C468.61,134.046 470.313,134.046 471.364,135.096 Z" />
        </g>
        <g id="Black-S">
            <path d="M654.231,108.308 C646.796,108.308 640.769,114.335 640.769,121.769 C640.769,129.204 646.796,135.231 654.231,135.231 C661.665,135.231 667.692,129.204 667.692,121.769 C667.692,118.199 666.274,114.775 663.75,112.25 C661.225,109.726 657.801,108.308 654.231,108.308 Z M654.231,129.846 C649.77,129.846 646.154,126.23 646.154,121.769 C646.154,117.308 649.77,113.692 654.231,113.692 C658.692,113.692 662.308,117.308 662.308,121.769 C662.308,123.911 661.457,125.966 659.942,127.48 C658.427,128.995 656.373,129.846 654.231,129.846 Z M696.52,109.095 C697.026,109.6 697.31,110.285 697.31,111 C697.31,111.715 697.026,112.4 696.52,112.905 L680.366,129.059 C679.316,130.11 677.61,130.111 676.558,129.06 C675.505,128.008 675.504,126.303 676.556,125.25 L692.71,109.096 C693.214,108.59 693.9,108.306 694.615,108.306 C695.329,108.305 696.015,108.589 696.52,109.095 Z M675.769,113.692 C674.68,113.693 673.697,113.037 673.28,112.031 C672.863,111.024 673.094,109.865 673.864,109.095 L681.941,101.018 C682.992,99.967 684.697,99.966 685.75,101.017 C686.802,102.069 686.803,103.774 685.752,104.827 L677.675,112.904 C677.17,113.409 676.484,113.693 675.769,113.692 Z M699.213,91.366 L693.828,96.751 C692.778,97.802 691.072,97.803 690.019,96.752 C688.967,95.701 688.966,93.995 690.017,92.942 L695.402,87.558 C696.452,86.506 698.158,86.505 699.21,87.557 C700.263,88.608 700.264,90.314 699.213,91.366 Z M663.095,98.326 L687.326,74.095 C688.376,73.044 690.082,73.043 691.135,74.094 C692.187,75.146 692.188,76.851 691.137,77.904 L666.906,102.135 C665.856,103.186 664.15,103.187 663.097,102.136 C662.045,101.084 662.044,99.379 663.095,98.326 Z M671.364,135.096 C672.415,136.147 672.415,137.851 671.364,138.902 C665.26,145.107 656.297,147.561 647.883,145.331 C639.47,143.101 632.899,136.53 630.669,128.117 C628.439,119.703 630.893,110.74 637.098,104.636 L664.943,76.788 C665.993,75.736 667.699,75.735 668.751,76.786 C669.804,77.838 669.805,79.544 668.753,80.596 L640.904,108.442 C633.543,115.804 633.544,127.737 640.905,135.097 C648.265,142.457 660.198,142.456 667.558,135.095 C668.61,134.046 670.313,134.046 671.364,135.096 Z" />
        </g>
    </g>
</svg>