<?xml version="1.0" encoding="UTF-8"?>
<svg height="600" width="800" xmlns="http://www.w3.org/2000/svg" xmlns:xlink="http://www.w3.org/1999/xlink">
    <g id="Notes" font-family="'LucidaGrande', 'Lucida Grande', sans-serif" font-size="13">
        <rect fill="white" height="600.0" width="800.0" x="0.0" y="0.0" />
        <g font-size="13">
            <text x="18.0" y="176.0">Small</text>
            <text x="18.0" y="376.0">Medium</text>
            <text x="18.0" y="576.0">Large</text>
        </g>
        <g font-size="9">
            <text x="250.0" y="30.0">Ultralight</text>
            <text x="450.0" y="30.0">Regular</text>
            <text x="650.0" y="30.0">Black</text>
            <text id="template-version" fill="#505050" text-anchor="end" x="785.0" y="575.0">Template v.3.0</text>
            <a href="https://github.com/swhitty/SwiftDraw">
                <text fill="#505050" text-anchor="end" x="785.0" y="590.0">https://github.com/swhitty/SwiftDraw</text>
            </a>
        </g>
    </g>
    <g id="Guides" stroke="rgb(39, 170, 225)" stroke-width="0.5">
        <path id="Capline-S" d="M18,76 l800,0" />
        <path id="H-reference" d="M85,145.755 L87.685,145.755 L113.369,79.287 L114.052,79.287 L114.052,76 L112.148,76 L85,145.755 Z M95.693,121.536 L130.996,121.536 L130.263,119.313 L96.474,119.313 L95.693,121.536 Z M139.15,145.755 L141.787,145.755 L114.638,76 L113.466,76 L113.466,79.287 L139.15,145.755 Z" stroke="none" />
        <path id="Baseline-S" d="M18,146 l800,0" />
        <path id="left-margin-Ultralight-S" d="M220,56 l0,110" />
        <path id="right-margin-Ultralight-S" d="M310,56 l0,110" />
        <path id="left-margin-Regular-S" d="M420,56 l0,110" />
        <path id="right-margin-Regular-S" d="M510,56 l0,110" />
        <path id="left-margin-Black-S" d="M620,56 l0,110" />
        <path id="right-margin-Black-S" d="M710,56 l0,110" />
        <path id="Capline-M" d="M18,276 l800,0" />
        <path id="Baseline-M" d="M18,346 l800,0" />
        <path id="Capline-L" d="M18,476 l800,0" />
        <path id="Baseline-L" d="M18,546 l800,0" />
    </g>
    <g id="Symbols">
        <g id="Ultralight-S">
            <path d="M299.011,86.059 C298.223,81.415 294.585,77.777 289.941,76.989 C279.047,75.142 258.512,74.297 243.408,89.408 C228.304,104.518 229.142,125.047 230.989,135.941 C231.779,140.59 235.426,144.229 240.076,145.011 C243.893,145.662 247.757,145.992 251.629,146 C262.429,146 275.877,143.308 286.592,132.592 C301.7,117.488 300.858,96.953 299.011,86.059 Z M278.276,81.348 C281.886,81.36 285.489,81.676 289.046,82.29 C291.433,82.698 293.302,84.57 293.707,86.958 C294.401,90.982 294.705,95.064 294.615,99.147 L276.85,81.385 C277.321,81.358 277.788,81.351 278.276,81.351 Z M240.958,139.707 C238.57,139.301 236.699,137.43 236.293,135.042 C235.599,131.018 235.295,126.936 235.385,122.853 L253.147,140.615 C249.064,140.707 244.982,140.403 240.958,139.707 Z M282.789,128.789 C278.882,132.693 271.593,138.122 260.117,139.986 L236.014,115.883 C237.878,104.407 243.307,97.118 247.211,93.211 C251.114,89.303 258.404,83.875 269.88,82.011 L293.986,106.117 C292.122,117.593 286.693,124.882 282.789,128.789 Z M277.667,98.333 C278.718,99.384 278.718,101.088 277.667,102.139 L272.841,106.962 L274.975,109.095 C275.7,109.766 275.999,110.779 275.756,111.735 C275.512,112.692 274.765,113.439 273.808,113.681 C272.851,113.924 271.839,113.623 271.169,112.898 L269.038,110.768 L264.768,115.038 L266.901,117.172 C267.627,117.842 267.927,118.855 267.684,119.811 C267.442,120.768 266.695,121.516 265.739,121.759 C264.782,122.002 263.769,121.703 263.099,120.978 L260.962,118.841 L256.136,123.667 C255.462,124.377 254.456,124.664 253.509,124.419 C252.562,124.174 251.822,123.435 251.577,122.488 C251.332,121.54 251.62,120.535 252.329,119.861 L257.159,115.038 L255.025,112.905 C254.044,111.843 254.077,110.195 255.1,109.173 C256.123,108.152 257.77,108.12 258.831,109.102 L260.965,111.236 L265.232,106.962 L263.099,104.828 C262.117,103.767 262.148,102.119 263.17,101.096 C264.192,100.074 265.839,100.041 266.901,101.022 L269.038,103.159 L273.864,98.333 C274.915,97.284 276.616,97.284 277.667,98.333 Z" />
        </g>
        <g id="Regular-S">
            <path d="M499.011,86.059 C498.223,81.415 494.585,77.777 489.941,76.989 C479.047,75.142 458.512,74.297 443.408,89.408 C428.304,104.518 429.142,125.047 430.989,135.941 C431.779,140.59 435.426,144.229 440.076,145.011 C443.893,145.662 447.757,145.992 451.629,146 C462.429,146 475.877,143.308 486.592,132.592 C501.7,117.488 500.858,96.953 499.011,86.059 Z M478.276,81.348 C481.886,81.36 485.489,81.676 489.046,82.29 C491.433,82.698 493.302,84.57 493.707,86.958 C494.401,90.982 494.705,95.064 494.615,99.147 L476.85,81.385 C477.321,81.358 477.788,81.351 478.276,81.351 Z M440.958,139.707 C438.57,139.301 436.699,137.43 436.293,135.042 C435.599,131.018 435.295,126.936 435.385,122.853 L453.147,140.615 C449.064,140.707 444.982,140.403 440.958,139.707 Z M482.789,128.789 C478.882,132.693 471.593,138.122 460.117,139.986 L436.014,115.883 C437.878,104.407 443.307,97.118 447.211,93.211 C451.114,89.303 458.404,83.875 469.88,82.011 L493.986,106.117 C492.122,117.593 486.693,124.882 482.789,128.789 Z M477.667,98.333 C478.718,99.384 478.718,101.088 477.667,102.139 L472.841,106.962 L474.975,109.095 C475.699,109.766 475.999,110.779 475.756,111.735 C475.512,112.692 474.765,113.439 473.808,113.681 C472.851,113.924 471.838,113.623 471.169,112.898 L469.038,110.768 L464.768,115.038 L466.901,117.172 C467.627,117.842 467.927,118.855 467.684,119.811 C467.442,120.768 466.695,121.516 465.739,121.759 C464.782,122.002 463.769,121.703 463.099,120.978 L460.962,118.841 L456.136,123.667 C455.462,124.377 454.456,124.664 453.509,124.419 C452.562,124.174 451.822,123.435 451.577,122.488 C451.332,121.54 451.62,120.535 452.329,119.861 L457.159,115.038 L455.025,112.905 C454.044,111.843 454.077,110.195 455.1,109.173 C456.123,108.152 457.77,108.12 458.831,109.102 L460.965,111.236 L465.232,106.962 L463.099,104.828 C462.117,103.767 462.148,102.119 463.17,101.096 C464.192,100.074 465.839,100.041 466.901,101.022 L469.038,103.159 L473.864,98.333 C474.915,97.284 476.616,97.284 477.667,98.333 Z" />
        </g>
        <g id="Black-S">
            <path d="M699.011,86.059 C698.223,81.415 694.585,77.777 689.941,76.989 C679.047,75.142 658.512,74.297 643.408,89.408 C628.304,104.518 629.142,125.047 630.989,135.941 C631.779,140.59 635.426,144.229 640.076,145.011 C643.893,145.662 647.757,145.992 651.629,146 C662.429,146 675.877,143.308 686.592,132.592 C701.7,117.488 700.858,96.953 699.011,86.059 Z M678.276,81.348 C681.886,81.36 685.489,81.676 689.046,82.29 C691.433,82.698 693.302,84.57 693.707,86.958 C694.401,90.982 694.705,95.064 694.615,99.147 L676.85,81.385 C677.321,81.358 677.788,81.351 678.276,81.351 Z M640.958,139.707 C638.57,139.301 636.699,137.43 636.293,135.042 C635.599,131.018 635.295,126.936 635.385,122.853 L653.147,140.615 C649.064,140.707 644.982,140.403 640.958,139.707 Z M682.789,128.789 C678.882,132.693 671.593,138.122 660.117,139.986 L636.014,115.883 C637.878,104.407 643.307,97.118 647.211,93.211 C651.114,89.303 658.404,83.875 669.88,82.011 L693.986,106.117 C692.122,117.593 686.693,124.882 682.789,128.789 Z M677.667,98.333 C678.718,99.384 678.718,101.088 677.667,102.139 L672.841,106.962 L674.975,109.095 C675.7,109.766 675.999,110.779 675.756,111.735 C675.512,112.692 674.765,113.439 673.808,113.681 C672.851,113.924 671.839,113.623 671.169,112.898 L669.038,110.768 L664.768,115.038 L666.901,117.172 C667.627,117.842 667.927,118.855 667.684,119.811 C667.442,120.768 666.695,121.516 665.739,121.759 C664.782,122.002 663.769,121.703 663.099,120.978 L660.962,118.841 L656.136,123.667 C655.462,124.377 654.456,124.664 653.509,124.419 C652.562,124.174 651.822,123.435 651.577,122.488 C651.332,121.54 651.62,120.535 652.329,119.861 L657.159,115.038 L655.025,112.905 C654.044,111.843 654.077,110.195 655.1,109.173 C656.123,108.152 657.77,108.12 658.831,109.102 L660.965,111.236 L665.232,106.962 L663.099,104.828 C662.117,103.767 662.148,102.119 663.17,101.096 C664.192,100.074 665.839,100.041 666.901,101.022 L669.038,103.159 L673.864,98.333 C674.915,97.284 676.616,97.284 677.667,98.333 Z" />
        </g>
    </g>
</svg>