<?xml version="1.0" encoding="UTF-8"?>
<svg height="600" width="800" xmlns="http://www.w3.org/2000/svg" xmlns:xlink="http://www.w3.org/1999/xlink">
    <g id="Notes" font-family="'LucidaGrande', 'Lucida Grande', sans-serif" font-size="13">
        <rect fill="white" height="600.0" width="800.0" x="0.0" y="0.0" />
        <g font-size="13">
            <text x="18.0" y="176.0">Small</text>
            <text x="18.0" y="376.0">Medium</text>
            <text x="18.0" y="576.0">Large</text>
        </g>
        <g font-size="9">
            <text x="250.0" y="30.0">Ultralight</text>
            <text x="450.0" y="30.0">Regular</text>
            <text x="650.0" y="30.0">Black</text>
            <text id="template-version" fill="#505050" text-anchor="end" x="785.0" y="575.0">Template v.3.0</text>
            <a href="https://github.com/swhitty/SwiftDraw">
                <text fill="#505050" text-anchor="end" x="785.0" y="590.0">https://github.com/swhitty/SwiftDraw</text>
            </a>
        </g>
    </g>
    <g id="Guides" stroke="rgb(39, 170, 225)" stroke-width="0.5">
        <path id="Capline-S" d="M18,76 l800,0" />
        <path id="H-reference" d="M85,145.755 L87.685,145.755 L113.369,79.287 L114.052,79.287 L114.052,76 L112.148,76 L85,145.755 Z M95.693,121.536 L130.996,121.536 L130.263,119.313 L96.474,119.313 L95.693,121.536 Z M139.15,145.755 L141.787,145.755 L114.638,76 L113.466,76 L113.466,79.287 L139.15,145.755 Z" stroke="none" />
        <path id="Baseline-S" d="M18,146 l800,0" />
        <path id="left-margin-Ultralight-S" d="M220,56 l0,110" />
        <path id="right-margin-Ultralight-S" d="M310,56 l0,110" />
        <path id="left-margin-Regular-S" d="M420,56 l0,110" />
        <path id="right-margin-Regular-S" d="M510,56 l0,110" />
        <path id="left-margin-Black-S" d="M620,56 l0,110" />
        <path id="right-margin-Black-S" d="M710,56 l0,110" />
        <path id="Capline-M" d="M18,276 l800,0" />
        <path id="Baseline-M" d="M18,346 l800,0" />
        <path id="Capline-L" d="M18,476 l800,0" />
        <path id="Baseline-L" d="M18,546 l800,0" />
    </g>
    <g id="Symbols">
        <g id="Ultralight-S">
            <path d="M270.385,92.154 C269.671,92.154 268.986,92.438 268.481,92.942 C267.976,93.447 267.692,94.132 267.692,94.846 L267.692,127.154 C267.692,127.868 267.976,128.553 268.481,129.058 C268.986,129.562 269.671,129.846 270.385,129.846 L278.462,129.846 C288.87,129.846 297.308,121.408 297.308,111 C297.308,100.592 288.87,92.154 278.462,92.154 Z M291.923,111 C291.923,114.57 290.505,117.994 287.98,120.519 C285.456,123.043 282.032,124.462 278.462,124.462 L273.077,124.462 L273.077,97.538 L278.462,97.538 C282.032,97.538 285.456,98.957 287.98,101.481 C290.505,104.006 291.923,107.43 291.923,111 Z M230,84.077 C230,83.363 230.284,82.678 230.789,82.173 C231.293,81.668 231.978,81.385 232.692,81.385 L297.308,81.385 C298.795,81.385 300,82.59 300,84.077 C300,85.564 298.795,86.769 297.308,86.769 L232.692,86.769 C231.978,86.769 231.293,86.486 230.789,85.981 C230.284,85.476 230,84.791 230,84.077 Z M300,137.923 C300,138.637 299.716,139.322 299.211,139.827 C298.707,140.332 298.022,140.615 297.308,140.615 L232.692,140.615 C231.205,140.615 230,139.41 230,137.923 C230,136.436 231.205,135.231 232.692,135.231 L297.308,135.231 C298.022,135.231 298.707,135.514 299.211,136.019 C299.716,136.524 300,137.209 300,137.923 Z M256.923,119.077 C256.923,115.887 254.025,114.702 247.877,112.932 C242.576,111.404 235.984,109.502 235.984,102.923 C235.984,96.785 241.513,92.154 248.846,92.154 C254.137,92.154 258.666,94.611 260.665,98.548 C261.135,99.41 261.098,100.459 260.57,101.286 C260.041,102.113 259.105,102.587 258.125,102.523 C257.146,102.459 256.279,101.867 255.863,100.978 C254.783,98.861 252.094,97.538 248.846,97.538 C244.582,97.538 241.368,99.854 241.368,102.923 C241.368,105.279 244.397,106.322 249.368,107.756 C254.83,109.317 262.308,111.488 262.308,119.077 C262.308,125.013 256.27,129.846 248.846,129.846 C241.422,129.846 235.385,125.013 235.385,119.077 C235.385,117.59 236.59,116.385 238.077,116.385 C239.564,116.385 240.769,117.59 240.769,119.077 C240.769,121.995 244.471,124.462 248.846,124.462 C253.221,124.462 256.923,121.995 256.923,119.077 Z" />
        </g>
        <g id="Regular-S">
            <path d="M470.385,92.154 C469.671,92.154 468.986,92.438 468.481,92.942 C467.976,93.447 467.692,94.132 467.692,94.846 L467.692,127.154 C467.692,127.868 467.976,128.553 468.481,129.058 C468.986,129.562 469.671,129.846 470.385,129.846 L478.462,129.846 C488.87,129.846 497.308,121.408 497.308,111 C497.308,100.592 488.87,92.154 478.462,92.154 Z M491.923,111 C491.923,114.57 490.505,117.994 487.98,120.519 C485.456,123.043 482.032,124.462 478.462,124.462 L473.077,124.462 L473.077,97.538 L478.462,97.538 C482.032,97.538 485.456,98.957 487.98,101.481 C490.505,104.006 491.923,107.43 491.923,111 Z M430,84.077 C430,83.363 430.284,82.678 430.789,82.173 C431.293,81.668 431.978,81.385 432.692,81.385 L497.308,81.385 C498.795,81.385 500,82.59 500,84.077 C500,85.564 498.795,86.769 497.308,86.769 L432.692,86.769 C431.978,86.769 431.293,86.486 430.789,85.981 C430.284,85.476 430,84.791 430,84.077 Z M500,137.923 C500,138.637 499.716,139.322 499.211,139.827 C498.707,140.332 498.022,140.615 497.308,140.615 L432.692,140.615 C431.205,140.615 430,139.41 430,137.923 C430,136.436 431.205,135.231 432.692,135.231 L497.308,135.231 C498.022,135.231 498.707,135.514 499.211,136.019 C499.716,136.524 500,137.209 500,137.923 Z M456.923,119.077 C456.923,115.887 454.025,114.702 447.877,112.932 C442.576,111.404 435.984,109.502 435.984,102.923 C435.984,96.785 441.513,92.154 448.846,92.154 C454.137,92.154 458.666,94.611 460.665,98.548 C461.135,99.41 461.098,100.459 460.57,101.286 C460.041,102.113 459.105,102.587 458.125,102.523 C457.146,102.459 456.279,101.867 455.863,100.978 C454.783,98.861 452.094,97.538 448.846,97.538 C444.582,97.538 441.368,99.854 441.368,102.923 C441.368,105.279 444.397,106.322 449.368,107.756 C454.83,109.317 462.308,111.488 462.308,119.077 C462.308,125.013 456.27,129.846 448.846,129.846 C441.422,129.846 435.385,125.013 435.385,119.077 C435.385,117.59 436.59,116.385 438.077,116.385 C439.564,116.385 440.769,117.59 440.769,119.077 C440.769,121.995 444.471,124.462 448.846,124.462 C453.221,124.462 456.923,121.995 456.923,119.077 Z" />
        </g>
        <g id="Black-S">
            <path d="M670.385,92.154 C669.671,92.154 668.986,92.438 668.481,92.942 C667.976,93.447 667.692,94.132 667.692,94.846 L667.692,127.154 C667.692,127.868 667.976,128.553 668.481,129.058 C668.986,129.562 669.671,129.846 670.385,129.846 L678.462,129.846 C688.87,129.846 697.308,121.408 697.308,111 C697.308,100.592 688.87,92.154 678.462,92.154 Z M691.923,111 C691.923,114.57 690.505,117.994 687.98,120.519 C685.456,123.043 682.032,124.462 678.462,124.462 L673.077,124.462 L673.077,97.538 L678.462,97.538 C682.032,97.538 685.456,98.957 687.98,101.481 C690.505,104.006 691.923,107.43 691.923,111 Z M630,84.077 C630,83.363 630.284,82.678 630.789,82.173 C631.293,81.668 631.978,81.385 632.692,81.385 L697.308,81.385 C698.795,81.385 700,82.59 700,84.077 C700,85.564 698.795,86.769 697.308,86.769 L632.692,86.769 C631.978,86.769 631.293,86.486 630.789,85.981 C630.284,85.476 630,84.791 630,84.077 Z M700,137.923 C700,138.637 699.716,139.322 699.211,139.827 C698.707,140.332 698.022,140.615 697.308,140.615 L632.692,140.615 C631.205,140.615 630,139.41 630,137.923 C630,136.436 631.205,135.231 632.692,135.231 L697.308,135.231 C698.022,135.231 698.707,135.514 699.211,136.019 C699.716,136.524 700,137.209 700,137.923 Z M656.923,119.077 C656.923,115.887 654.026,114.702 647.877,112.932 C642.576,111.404 635.984,109.502 635.984,102.923 C635.984,96.785 641.513,92.154 648.846,92.154 C654.137,92.154 658.666,94.611 660.665,98.548 C661.135,99.41 661.098,100.459 660.57,101.286 C660.041,102.113 659.105,102.587 658.125,102.523 C657.146,102.459 656.279,101.867 655.863,100.978 C654.783,98.861 652.094,97.538 648.846,97.538 C644.582,97.538 641.368,99.854 641.368,102.923 C641.368,105.279 644.397,106.322 649.368,107.756 C654.83,109.317 662.308,111.488 662.308,119.077 C662.308,125.013 656.27,129.846 648.846,129.846 C641.422,129.846 635.385,125.013 635.385,119.077 C635.385,117.59 636.59,116.385 638.077,116.385 C639.564,116.385 640.769,117.59 640.769,119.077 C640.769,121.995 644.471,124.462 648.846,124.462 C653.221,124.462 656.923,121.995 656.923,119.077 Z" />
        </g>
    </g>
</svg>