<?xml version="1.0" encoding="UTF-8"?>
<svg height="600" width="800" xmlns="http://www.w3.org/2000/svg" xmlns:xlink="http://www.w3.org/1999/xlink">
    <g id="Notes" font-family="'LucidaGrande', 'Lucida Grande', sans-serif" font-size="13">
        <rect fill="white" height="600.0" width="800.0" x="0.0" y="0.0" />
        <g font-size="13">
            <text x="18.0" y="176.0">Small</text>
            <text x="18.0" y="376.0">Medium</text>
            <text x="18.0" y="576.0">Large</text>
        </g>
        <g font-size="9">
            <text x="250.0" y="30.0">Ultralight</text>
            <text x="450.0" y="30.0">Regular</text>
            <text x="650.0" y="30.0">Black</text>
            <text id="template-version" fill="#505050" text-anchor="end" x="785.0" y="575.0">Template v.3.0</text>
            <a href="https://github.com/swhitty/SwiftDraw">
                <text fill="#505050" text-anchor="end" x="785.0" y="590.0">https://github.com/swhitty/SwiftDraw</text>
            </a>
        </g>
    </g>
    <g id="Guides" stroke="rgb(39, 170, 225)" stroke-width="0.5">
        <path id="Capline-S" d="M18,76 l800,0" />
        <path id="H-reference" d="M85,145.755 L87.685,145.755 L113.369,79.287 L114.052,79.287 L114.052,76 L112.148,76 L85,145.755 Z M95.693,121.536 L130.996,121.536 L130.263,119.313 L96.474,119.313 L95.693,121.536 Z M139.15,145.755 L141.787,145.755 L114.638,76 L113.466,76 L113.466,79.287 L139.15,145.755 Z" stroke="none" />
        <path id="Baseline-S" d="M18,146 l800,0" />
        <path id="left-margin-Ultralight-S" d="M220,56 l0,110" />
        <path id="right-margin-Ultralight-S" d="M310,56 l0,110" />
        <path id="left-margin-Regular-S" d="M420,56 l0,110" />
        <path id="right-margin-Regular-S" d="M510,56 l0,110" />
        <path id="left-margin-Black-S" d="M620,56 l0,110" />
        <path id="right-margin-Black-S" d="M710,56 l0,110" />
        <path id="Capline-M" d="M18,276 l800,0" />
        <path id="Baseline-M" d="M18,346 l800,0" />
        <path id="Capline-L" d="M18,476 l800,0" />
        <path id="Baseline-L" d="M18,546 l800,0" />
    </g>
    <g id="Symbols">
        <g id="Ultralight-S">
            <path d="M299.663,120.487 L282.5,116.62 L245.366,79.48 C244.847,78.96 244.137,78.676 243.402,78.692 C242.668,78.709 241.972,79.025 241.476,79.567 C234.075,87.658 230,97.875 230,108.308 L230,132.538 C230,133.967 230.567,135.336 231.577,136.346 C232.587,137.356 233.957,137.923 235.385,137.923 L246.154,137.923 C247.582,137.923 248.952,137.356 249.961,136.346 C250.971,135.336 251.538,133.967 251.538,132.538 L251.538,116.068 C252.376,116.556 253.201,117.078 254.009,117.63 C260.12,121.824 264.865,127.721 267.655,134.588 C268.48,136.616 270.457,137.937 272.646,137.923 L302.692,137.923 C304.12,137.923 305.49,137.356 306.5,136.346 C307.51,135.336 308.077,133.967 308.077,132.538 L308.077,130.947 C308.09,125.912 304.583,121.553 299.663,120.487 Z M246.154,132.538 L235.385,132.538 L235.385,111.098 C239.073,111.358 242.703,112.166 246.154,113.494 Z M302.692,132.538 L272.633,132.538 C269.446,124.708 264.032,117.984 257.061,113.201 C250.682,108.791 243.222,106.201 235.482,105.71 C236.089,98.26 238.923,91.166 243.616,85.349 L279.249,120.982 C279.61,121.341 280.065,121.591 280.562,121.702 L298.479,125.74 C300.941,126.264 302.7,128.442 302.692,130.96 Z" />
        </g>
        <g id="Regular-S">
            <path d="M499.663,120.487 L482.5,116.62 L445.366,79.48 C444.847,78.96 444.137,78.676 443.402,78.692 C442.668,78.709 441.972,79.025 441.476,79.567 C434.075,87.658 430,97.875 430,108.308 L430,132.538 C430,133.967 430.567,135.336 431.577,136.346 C432.587,137.356 433.957,137.923 435.385,137.923 L446.154,137.923 C447.582,137.923 448.952,137.356 449.961,136.346 C450.971,135.336 451.538,133.967 451.538,132.538 L451.538,116.068 C452.376,116.556 453.201,117.078 454.009,117.63 C460.12,121.824 464.865,127.721 467.655,134.588 C468.48,136.616 470.457,137.937 472.646,137.923 L502.692,137.923 C504.12,137.923 505.49,137.356 506.5,136.346 C507.51,135.336 508.077,133.967 508.077,132.538 L508.077,130.947 C508.09,125.912 504.583,121.553 499.663,120.487 Z M446.154,132.538 L435.385,132.538 L435.385,111.098 C439.073,111.358 442.703,112.166 446.154,113.494 Z M502.692,132.538 L472.633,132.538 C469.446,124.708 464.032,117.984 457.061,113.201 C450.682,108.791 443.222,106.201 435.482,105.71 C436.089,98.26 438.923,91.166 443.616,85.349 L479.249,120.982 C479.61,121.341 480.065,121.591 480.562,121.702 L498.479,125.74 C500.941,126.264 502.7,128.442 502.692,130.96 Z" />
        </g>
        <g id="Black-S">
            <path d="M699.663,120.487 L682.5,116.62 L645.366,79.48 C644.847,78.96 644.137,78.676 643.402,78.692 C642.668,78.709 641.972,79.025 641.476,79.567 C634.076,87.658 630,97.875 630,108.308 L630,132.538 C630,133.967 630.567,135.336 631.577,136.346 C632.587,137.356 633.957,137.923 635.385,137.923 L646.154,137.923 C647.582,137.923 648.952,137.356 649.961,136.346 C650.971,135.336 651.538,133.967 651.538,132.538 L651.538,116.068 C652.376,116.556 653.201,117.078 654.009,117.63 C660.12,121.824 664.865,127.721 667.655,134.588 C668.48,136.616 670.457,137.937 672.646,137.923 L702.692,137.923 C704.12,137.923 705.49,137.356 706.5,136.346 C707.51,135.336 708.077,133.967 708.077,132.538 L708.077,130.947 C708.09,125.912 704.583,121.553 699.663,120.487 Z M646.154,132.538 L635.385,132.538 L635.385,111.098 C639.073,111.358 642.703,112.166 646.154,113.494 Z M702.692,132.538 L672.633,132.538 C669.446,124.708 664.032,117.984 657.061,113.201 C650.682,108.791 643.222,106.201 635.482,105.71 C636.089,98.26 638.923,91.166 643.616,85.349 L679.249,120.982 C679.61,121.341 680.065,121.591 680.562,121.702 L698.479,125.74 C700.941,126.264 702.7,128.442 702.692,130.96 Z" />
        </g>
    </g>
</svg>