<?xml version="1.0" encoding="UTF-8"?>
<svg height="600" width="800" xmlns="http://www.w3.org/2000/svg" xmlns:xlink="http://www.w3.org/1999/xlink">
    <g id="Notes" font-family="'LucidaGrande', 'Lucida Grande', sans-serif" font-size="13">
        <rect fill="white" height="600.0" width="800.0" x="0.0" y="0.0" />
        <g font-size="13">
            <text x="18.0" y="176.0">Small</text>
            <text x="18.0" y="376.0">Medium</text>
            <text x="18.0" y="576.0">Large</text>
        </g>
        <g font-size="9">
            <text x="250.0" y="30.0">Ultralight</text>
            <text x="450.0" y="30.0">Regular</text>
            <text x="650.0" y="30.0">Black</text>
            <text id="template-version" fill="#505050" text-anchor="end" x="785.0" y="575.0">Template v.3.0</text>
            <a href="https://github.com/swhitty/SwiftDraw">
                <text fill="#505050" text-anchor="end" x="785.0" y="590.0">https://github.com/swhitty/SwiftDraw</text>
            </a>
        </g>
    </g>
    <g id="Guides" stroke="rgb(39, 170, 225)" stroke-width="0.5">
        <path id="Capline-S" d="M18,76 l800,0" />
        <path id="H-reference" d="M85,145.755 L87.685,145.755 L113.369,79.287 L114.052,79.287 L114.052,76 L112.148,76 L85,145.755 Z M95.693,121.536 L130.996,121.536 L130.263,119.313 L96.474,119.313 L95.693,121.536 Z M139.15,145.755 L141.787,145.755 L114.638,76 L113.466,76 L113.466,79.287 L139.15,145.755 Z" stroke="none" />
        <path id="Baseline-S" d="M18,146 l800,0" />
        <path id="left-margin-Ultralight-S" d="M220,56 l0,110" />
        <path id="right-margin-Ultralight-S" d="M310,56 l0,110" />
        <path id="left-margin-Regular-S" d="M420,56 l0,110" />
        <path id="right-margin-Regular-S" d="M510,56 l0,110" />
        <path id="left-margin-Black-S" d="M620,56 l0,110" />
        <path id="right-margin-Black-S" d="M710,56 l0,110" />
        <path id="Capline-M" d="M18,276 l800,0" />
        <path id="Baseline-M" d="M18,346 l800,0" />
        <path id="Capline-L" d="M18,476 l800,0" />
        <path id="Baseline-L" d="M18,546 l800,0" />
    </g>
    <g id="Symbols">
        <g id="Ultralight-S">
            <path d="M303.029,91.366 L296.52,84.864 C295.47,83.813 293.764,83.812 292.712,84.863 C291.659,85.915 291.658,87.62 292.71,88.673 L299.212,95.183 C299.715,95.686 299.998,96.367 300,97.077 L300,124.462 C300,125.948 298.795,127.154 297.308,127.154 C295.821,127.154 294.615,125.948 294.615,124.462 L294.615,111 C294.615,108.858 293.764,106.803 292.25,105.289 C290.735,103.774 288.681,102.923 286.538,102.923 L281.154,102.923 L281.154,86.769 C281.154,84.627 280.303,82.573 278.788,81.058 C277.273,79.543 275.219,78.692 273.077,78.692 L246.154,78.692 C244.012,78.692 241.957,79.543 240.443,81.058 C238.928,82.573 238.077,84.627 238.077,86.769 L238.077,137.923 L232.692,137.923 C231.205,137.923 230,139.128 230,140.615 C230,142.102 231.205,143.308 232.692,143.308 L286.538,143.308 C288.025,143.308 289.231,142.102 289.231,140.615 C289.231,139.128 288.025,137.923 286.538,137.923 L281.154,137.923 L281.154,108.308 L286.538,108.308 C287.253,108.308 287.937,108.591 288.442,109.096 C288.947,109.601 289.231,110.286 289.231,111 L289.231,124.462 C289.231,128.922 292.847,132.538 297.308,132.538 C301.768,132.538 305.385,128.922 305.385,124.462 L305.385,97.077 C305.393,94.936 304.545,92.879 303.029,91.366 Z M243.462,137.923 L243.462,86.769 C243.462,86.055 243.745,85.37 244.25,84.865 C244.755,84.361 245.44,84.077 246.154,84.077 L273.077,84.077 C273.791,84.077 274.476,84.361 274.981,84.865 C275.486,85.37 275.769,86.055 275.769,86.769 L275.769,137.923 Z M270.385,105.615 C270.385,106.329 270.101,107.014 269.596,107.519 C269.091,108.024 268.406,108.308 267.692,108.308 L251.538,108.308 C250.052,108.308 248.846,107.102 248.846,105.615 C248.846,104.128 250.052,102.923 251.538,102.923 L267.692,102.923 C268.406,102.923 269.091,103.207 269.596,103.712 C270.101,104.217 270.385,104.901 270.385,105.615 Z" />
        </g>
        <g id="Regular-S">
            <path d="M503.029,91.366 L496.52,84.864 C495.47,83.813 493.764,83.812 492.712,84.863 C491.659,85.915 491.658,87.62 492.71,88.673 L499.212,95.183 C499.715,95.686 499.998,96.367 500,97.077 L500,124.462 C500,125.948 498.795,127.154 497.308,127.154 C495.821,127.154 494.615,125.948 494.615,124.462 L494.615,111 C494.615,108.858 493.764,106.803 492.25,105.289 C490.735,103.774 488.681,102.923 486.538,102.923 L481.154,102.923 L481.154,86.769 C481.154,84.627 480.303,82.573 478.788,81.058 C477.273,79.543 475.219,78.692 473.077,78.692 L446.154,78.692 C444.012,78.692 441.957,79.543 440.443,81.058 C438.928,82.573 438.077,84.627 438.077,86.769 L438.077,137.923 L432.692,137.923 C431.205,137.923 430,139.128 430,140.615 C430,142.102 431.205,143.308 432.692,143.308 L486.538,143.308 C488.025,143.308 489.231,142.102 489.231,140.615 C489.231,139.128 488.025,137.923 486.538,137.923 L481.154,137.923 L481.154,108.308 L486.538,108.308 C487.253,108.308 487.937,108.591 488.442,109.096 C488.947,109.601 489.231,110.286 489.231,111 L489.231,124.462 C489.231,128.922 492.847,132.538 497.308,132.538 C501.768,132.538 505.385,128.922 505.385,124.462 L505.385,97.077 C505.393,94.936 504.545,92.879 503.029,91.366 Z M443.462,137.923 L443.462,86.769 C443.462,86.055 443.745,85.37 444.25,84.865 C444.755,84.361 445.44,84.077 446.154,84.077 L473.077,84.077 C473.791,84.077 474.476,84.361 474.981,84.865 C475.486,85.37 475.769,86.055 475.769,86.769 L475.769,137.923 Z M470.385,105.615 C470.385,106.329 470.101,107.014 469.596,107.519 C469.091,108.024 468.406,108.308 467.692,108.308 L451.538,108.308 C450.052,108.308 448.846,107.102 448.846,105.615 C448.846,104.128 450.052,102.923 451.538,102.923 L467.692,102.923 C468.406,102.923 469.091,103.207 469.596,103.712 C470.101,104.217 470.385,104.901 470.385,105.615 Z" />
        </g>
        <g id="Black-S">
            <path d="M703.029,91.366 L696.52,84.864 C695.47,83.813 693.764,83.812 692.712,84.863 C691.659,85.915 691.658,87.62 692.71,88.673 L699.213,95.183 C699.715,95.686 699.998,96.367 700,97.077 L700,124.462 C700,125.948 698.795,127.154 697.308,127.154 C695.821,127.154 694.615,125.948 694.615,124.462 L694.615,111 C694.615,108.858 693.764,106.803 692.25,105.289 C690.735,103.774 688.681,102.923 686.538,102.923 L681.154,102.923 L681.154,86.769 C681.154,84.627 680.303,82.573 678.788,81.058 C677.273,79.543 675.219,78.692 673.077,78.692 L646.154,78.692 C644.012,78.692 641.957,79.543 640.443,81.058 C638.928,82.573 638.077,84.627 638.077,86.769 L638.077,137.923 L632.692,137.923 C631.205,137.923 630,139.128 630,140.615 C630,142.102 631.205,143.308 632.692,143.308 L686.538,143.308 C688.025,143.308 689.231,142.102 689.231,140.615 C689.231,139.128 688.025,137.923 686.538,137.923 L681.154,137.923 L681.154,108.308 L686.538,108.308 C687.253,108.308 687.937,108.591 688.442,109.096 C688.947,109.601 689.231,110.286 689.231,111 L689.231,124.462 C689.231,128.922 692.847,132.538 697.308,132.538 C701.768,132.538 705.385,128.922 705.385,124.462 L705.385,97.077 C705.393,94.936 704.545,92.879 703.029,91.366 Z M643.462,137.923 L643.462,86.769 C643.462,86.055 643.745,85.37 644.25,84.865 C644.755,84.361 645.44,84.077 646.154,84.077 L673.077,84.077 C673.791,84.077 674.476,84.361 674.981,84.865 C675.486,85.37 675.769,86.055 675.769,86.769 L675.769,137.923 Z M670.385,105.615 C670.385,106.329 670.101,107.014 669.596,107.519 C669.091,108.024 668.406,108.308 667.692,108.308 L651.538,108.308 C650.052,108.308 648.846,107.102 648.846,105.615 C648.846,104.128 650.052,102.923 651.538,102.923 L667.692,102.923 C668.406,102.923 669.091,103.207 669.596,103.712 C670.101,104.217 670.385,104.901 670.385,105.615 Z" />
        </g>
    </g>
</svg>