<?xml version="1.0" encoding="UTF-8"?>
<svg height="600" width="800" xmlns="http://www.w3.org/2000/svg" xmlns:xlink="http://www.w3.org/1999/xlink">
    <g id="Notes" font-family="'LucidaGrande', 'Lucida Grande', sans-serif" font-size="13">
        <rect fill="white" height="600.0" width="800.0" x="0.0" y="0.0" />
        <g font-size="13">
            <text x="18.0" y="176.0">Small</text>
            <text x="18.0" y="376.0">Medium</text>
            <text x="18.0" y="576.0">Large</text>
        </g>
        <g font-size="9">
            <text x="250.0" y="30.0">Ultralight</text>
            <text x="450.0" y="30.0">Regular</text>
            <text x="650.0" y="30.0">Black</text>
            <text id="template-version" fill="#505050" text-anchor="end" x="785.0" y="575.0">Template v.3.0</text>
            <a href="https://github.com/swhitty/SwiftDraw">
                <text fill="#505050" text-anchor="end" x="785.0" y="590.0">https://github.com/swhitty/SwiftDraw</text>
            </a>
        </g>
    </g>
    <g id="Guides" stroke="rgb(39, 170, 225)" stroke-width="0.5">
        <path id="Capline-S" d="M18,76 l800,0" />
        <path id="H-reference" d="M85,145.755 L87.685,145.755 L113.369,79.287 L114.052,79.287 L114.052,76 L112.148,76 L85,145.755 Z M95.693,121.536 L130.996,121.536 L130.263,119.313 L96.474,119.313 L95.693,121.536 Z M139.15,145.755 L141.787,145.755 L114.638,76 L113.466,76 L113.466,79.287 L139.15,145.755 Z" stroke="none" />
        <path id="Baseline-S" d="M18,146 l800,0" />
        <path id="left-margin-Ultralight-S" d="M220,56 l0,110" />
        <path id="right-margin-Ultralight-S" d="M310,56 l0,110" />
        <path id="left-margin-Regular-S" d="M420,56 l0,110" />
        <path id="right-margin-Regular-S" d="M510,56 l0,110" />
        <path id="left-margin-Black-S" d="M620,56 l0,110" />
        <path id="right-margin-Black-S" d="M710,56 l0,110" />
        <path id="Capline-M" d="M18,276 l800,0" />
        <path id="Baseline-M" d="M18,346 l800,0" />
        <path id="Capline-L" d="M18,476 l800,0" />
        <path id="Baseline-L" d="M18,546 l800,0" />
    </g>
    <g id="Symbols">
        <g id="Ultralight-S">
            <path d="M302.692,86.769 L302.692,108.308 C302.692,109.795 301.487,111 300,111 C298.513,111 297.308,109.795 297.308,108.308 L297.308,93.268 L269.597,120.982 C269.092,121.487 268.407,121.771 267.692,121.771 C266.978,121.771 266.292,121.487 265.788,120.982 L254.231,109.422 L231.905,131.751 C230.854,132.802 229.149,132.803 228.096,131.752 C227.044,130.701 227.043,128.995 228.094,127.942 L252.325,103.712 C252.83,103.206 253.515,102.922 254.23,102.922 C254.944,102.922 255.63,103.206 256.135,103.712 L267.692,115.271 L293.501,89.462 L278.462,89.462 C276.975,89.462 275.769,88.256 275.769,86.769 C275.769,85.282 276.975,84.077 278.462,84.077 L300,84.077 C300.714,84.077 301.399,84.361 301.904,84.865 C302.409,85.37 302.692,86.055 302.692,86.769 Z" />
        </g>
        <g id="Regular-S">
            <path d="M502.692,86.769 L502.692,108.308 C502.692,109.795 501.487,111 500,111 C498.513,111 497.308,109.795 497.308,108.308 L497.308,93.268 L469.597,120.982 C469.092,121.487 468.407,121.771 467.692,121.771 C466.978,121.771 466.292,121.487 465.787,120.982 L454.231,109.422 L431.905,131.751 C430.854,132.802 429.149,132.803 428.096,131.752 C427.044,130.701 427.043,128.995 428.094,127.942 L452.325,103.712 C452.83,103.206 453.515,102.922 454.23,102.922 C454.944,102.922 455.63,103.206 456.135,103.712 L467.692,115.271 L493.501,89.462 L478.462,89.462 C476.975,89.462 475.769,88.256 475.769,86.769 C475.769,85.282 476.975,84.077 478.462,84.077 L500,84.077 C500.714,84.077 501.399,84.361 501.904,84.865 C502.409,85.37 502.692,86.055 502.692,86.769 Z" />
        </g>
        <g id="Black-S">
            <path d="M702.692,86.769 L702.692,108.308 C702.692,109.795 701.487,111 700,111 C698.513,111 697.308,109.795 697.308,108.308 L697.308,93.268 L669.597,120.982 C669.092,121.487 668.407,121.771 667.692,121.771 C666.978,121.771 666.292,121.487 665.788,120.982 L654.231,109.422 L631.905,131.751 C630.854,132.802 629.149,132.803 628.096,131.752 C627.044,130.701 627.043,128.995 628.094,127.942 L652.325,103.712 C652.83,103.206 653.515,102.922 654.23,102.922 C654.944,102.922 655.63,103.206 656.135,103.712 L667.692,115.271 L693.501,89.462 L678.462,89.462 C676.975,89.462 675.769,88.256 675.769,86.769 C675.769,85.282 676.975,84.077 678.462,84.077 L700,84.077 C700.714,84.077 701.399,84.361 701.904,84.865 C702.409,85.37 702.692,86.055 702.692,86.769 Z" />
        </g>
    </g>
</svg>