<?xml version="1.0" encoding="UTF-8"?>
<svg height="600" width="800" xmlns="http://www.w3.org/2000/svg" xmlns:xlink="http://www.w3.org/1999/xlink">
    <g id="Notes" font-family="'LucidaGrande', 'Lucida Grande', sans-serif" font-size="13">
        <rect fill="white" height="600.0" width="800.0" x="0.0" y="0.0" />
        <g font-size="13">
            <text x="18.0" y="176.0">Small</text>
            <text x="18.0" y="376.0">Medium</text>
            <text x="18.0" y="576.0">Large</text>
        </g>
        <g font-size="9">
            <text x="250.0" y="30.0">Ultralight</text>
            <text x="450.0" y="30.0">Regular</text>
            <text x="650.0" y="30.0">Black</text>
            <text id="template-version" fill="#505050" text-anchor="end" x="785.0" y="575.0">Template v.3.0</text>
            <a href="https://github.com/swhitty/SwiftDraw">
                <text fill="#505050" text-anchor="end" x="785.0" y="590.0">https://github.com/swhitty/SwiftDraw</text>
            </a>
        </g>
    </g>
    <g id="Guides" stroke="rgb(39, 170, 225)" stroke-width="0.5">
        <path id="Capline-S" d="M18,76 l800,0" />
        <path id="H-reference" d="M85,145.755 L87.685,145.755 L113.369,79.287 L114.052,79.287 L114.052,76 L112.148,76 L85,145.755 Z M95.693,121.536 L130.996,121.536 L130.263,119.313 L96.474,119.313 L95.693,121.536 Z M139.15,145.755 L141.787,145.755 L114.638,76 L113.466,76 L113.466,79.287 L139.15,145.755 Z" stroke="none" />
        <path id="Baseline-S" d="M18,146 l800,0" />
        <path id="left-margin-Ultralight-S" d="M220,56 l0,110" />
        <path id="right-margin-Ultralight-S" d="M310,56 l0,110" />
        <path id="left-margin-Regular-S" d="M420,56 l0,110" />
        <path id="right-margin-Regular-S" d="M510,56 l0,110" />
        <path id="left-margin-Black-S" d="M620,56 l0,110" />
        <path id="right-margin-Black-S" d="M710,56 l0,110" />
        <path id="Capline-M" d="M18,276 l800,0" />
        <path id="Baseline-M" d="M18,346 l800,0" />
        <path id="Capline-L" d="M18,476 l800,0" />
        <path id="Baseline-L" d="M18,546 l800,0" />
    </g>
    <g id="Symbols">
        <g id="Ultralight-S">
            <path d="M299.956,106.288 L243.418,74.018 C241.465,72.919 239.036,73.144 237.318,74.583 C235.6,76.022 234.954,78.374 235.694,80.489 L246.002,111 L235.694,141.514 C235.112,143.162 235.366,144.989 236.375,146.416 C237.383,147.843 239.022,148.692 240.769,148.692 C241.705,148.69 242.624,148.447 243.438,147.986 L299.95,115.661 C301.647,114.71 302.699,112.918 302.703,110.973 C302.706,109.028 301.66,107.232 299.966,106.275 Z M240.769,143.308 C240.771,143.294 240.771,143.281 240.769,143.267 L250.778,113.692 L270.385,113.692 C271.872,113.692 273.077,112.487 273.077,111 C273.077,109.513 271.872,108.308 270.385,108.308 L250.778,108.308 L240.789,78.746 C240.786,78.727 240.779,78.709 240.769,78.692 L297.308,110.943 Z" />
        </g>
        <g id="Regular-S">
            <path d="M499.956,106.288 L443.418,74.018 C441.465,72.919 439.036,73.144 437.318,74.583 C435.6,76.022 434.954,78.374 435.694,80.489 L446.002,111 L435.694,141.514 C435.112,143.162 435.366,144.989 436.375,146.416 C437.383,147.843 439.022,148.692 440.769,148.692 C441.705,148.69 442.624,148.447 443.438,147.986 L499.95,115.661 C501.647,114.71 502.699,112.918 502.703,110.973 C502.706,109.028 501.66,107.232 499.966,106.275 Z M440.769,143.308 C440.771,143.294 440.771,143.281 440.769,143.267 L450.778,113.692 L470.385,113.692 C471.872,113.692 473.077,112.487 473.077,111 C473.077,109.513 471.872,108.308 470.385,108.308 L450.778,108.308 L440.789,78.746 C440.786,78.727 440.779,78.709 440.769,78.692 L497.308,110.943 Z" />
        </g>
        <g id="Black-S">
            <path d="M699.956,106.288 L643.418,74.018 C641.465,72.919 639.036,73.144 637.318,74.583 C635.6,76.022 634.954,78.374 635.694,80.489 L646.002,111 L635.694,141.514 C635.112,143.162 635.366,144.989 636.375,146.416 C637.383,147.843 639.022,148.692 640.769,148.692 C641.705,148.69 642.624,148.447 643.438,147.986 L699.95,115.661 C701.647,114.71 702.699,112.918 702.703,110.973 C702.706,109.028 701.66,107.232 699.966,106.275 Z M640.769,143.308 C640.771,143.294 640.771,143.281 640.769,143.267 L650.778,113.692 L670.385,113.692 C671.872,113.692 673.077,112.487 673.077,111 C673.077,109.513 671.872,108.308 670.385,108.308 L650.778,108.308 L640.789,78.746 C640.786,78.727 640.779,78.709 640.769,78.692 L697.308,110.943 Z" />
        </g>
    </g>
</svg>