<?xml version="1.0" encoding="UTF-8"?>
<svg height="600" width="800" xmlns="http://www.w3.org/2000/svg" xmlns:xlink="http://www.w3.org/1999/xlink">
    <g id="Notes" font-family="'LucidaGrande', 'Lucida Grande', sans-serif" font-size="13">
        <rect fill="white" height="600.0" width="800.0" x="0.0" y="0.0" />
        <g font-size="13">
            <text x="18.0" y="176.0">Small</text>
            <text x="18.0" y="376.0">Medium</text>
            <text x="18.0" y="576.0">Large</text>
        </g>
        <g font-size="9">
            <text x="250.0" y="30.0">Ultralight</text>
            <text x="450.0" y="30.0">Regular</text>
            <text x="650.0" y="30.0">Black</text>
            <text id="template-version" fill="#505050" text-anchor="end" x="785.0" y="575.0">Template v.3.0</text>
            <a href="https://github.com/swhitty/SwiftDraw">
                <text fill="#505050" text-anchor="end" x="785.0" y="590.0">https://github.com/swhitty/SwiftDraw</text>
            </a>
        </g>
    </g>
    <g id="Guides" stroke="rgb(39, 170, 225)" stroke-width="0.5">
        <path id="Capline-S" d="M18,76 l800,0" />
        <path id="H-reference" d="M85,145.755 L87.685,145.755 L113.369,79.287 L114.052,79.287 L114.052,76 L112.148,76 L85,145.755 Z M95.693,121.536 L130.996,121.536 L130.263,119.313 L96.474,119.313 L95.693,121.536 Z M139.15,145.755 L141.787,145.755 L114.638,76 L113.466,76 L113.466,79.287 L139.15,145.755 Z" stroke="none" />
        <path id="Baseline-S" d="M18,146 l800,0" />
        <path id="left-margin-Ultralight-S" d="M220,56 l0,110" />
        <path id="right-margin-Ultralight-S" d="M310,56 l0,110" />
        <path id="left-margin-Regular-S" d="M420,56 l0,110" />
        <path id="right-margin-Regular-S" d="M510,56 l0,110" />
        <path id="left-margin-Black-S" d="M620,56 l0,110" />
        <path id="right-margin-Black-S" d="M710,56 l0,110" />
        <path id="Capline-M" d="M18,276 l800,0" />
        <path id="Baseline-M" d="M18,346 l800,0" />
        <path id="Capline-L" d="M18,476 l800,0" />
        <path id="Baseline-L" d="M18,546 l800,0" />
    </g>
    <g id="Symbols">
        <g id="Ultralight-S">
            <path d="M265,113.692 C265,114.406 264.716,115.091 264.211,115.596 C263.707,116.101 263.022,116.385 262.308,116.385 L246.154,116.385 C244.667,116.385 243.462,115.179 243.462,113.692 C243.462,112.205 244.667,111 246.154,111 L262.308,111 C263.022,111 263.707,111.284 264.211,111.789 C264.716,112.293 265,112.978 265,113.692 Z M262.308,100.231 L246.154,100.231 C244.667,100.231 243.462,101.436 243.462,102.923 C243.462,104.41 244.667,105.615 246.154,105.615 L262.308,105.615 C263.795,105.615 265,104.41 265,102.923 C265,101.436 263.795,100.231 262.308,100.231 Z M300,122.264 L300,143.308 C300.009,144.274 299.499,145.171 298.664,145.657 C297.83,146.144 296.798,146.147 295.962,145.663 L287.885,141.039 L279.808,145.663 C278.971,146.147 277.939,146.144 277.105,145.657 C276.27,145.171 275.761,144.274 275.769,143.308 L275.769,135.231 L235.385,135.231 C233.957,135.231 232.587,134.663 231.577,133.654 C230.567,132.644 230,131.274 230,129.846 L230,86.769 C230,85.341 230.567,83.972 231.577,82.962 C232.587,81.952 233.957,81.385 235.385,81.385 L294.615,81.385 C296.043,81.385 297.413,81.952 298.423,82.962 C299.433,83.972 300,85.341 300,86.769 L300,97.044 C303.439,100.337 305.384,104.892 305.384,109.654 C305.384,114.416 303.439,118.971 300,122.264 Z M275.769,129.846 L275.769,122.264 C269.717,116.427 268.671,107.11 273.28,100.077 C277.888,93.043 286.847,90.282 294.615,93.5 L294.615,86.769 L235.385,86.769 L235.385,129.846 Z M294.615,125.808 C290.309,127.607 285.461,127.607 281.154,125.808 L281.154,138.67 L286.538,135.587 C287.366,135.114 288.383,135.114 289.211,135.587 L294.595,138.67 Z M300,109.654 C300,102.963 294.576,97.538 287.885,97.538 C281.193,97.538 275.769,102.963 275.769,109.654 C275.769,116.345 281.193,121.769 287.885,121.769 C291.098,121.769 294.179,120.493 296.451,118.221 C298.724,115.949 300,112.867 300,109.654 Z" />
        </g>
        <g id="Regular-S">
            <path d="M465,113.692 C465,114.406 464.716,115.091 464.211,115.596 C463.707,116.101 463.022,116.385 462.308,116.385 L446.154,116.385 C444.667,116.385 443.462,115.179 443.462,113.692 C443.462,112.205 444.667,111 446.154,111 L462.308,111 C463.022,111 463.707,111.284 464.211,111.789 C464.716,112.293 465,112.978 465,113.692 Z M462.308,100.231 L446.154,100.231 C444.667,100.231 443.462,101.436 443.462,102.923 C443.462,104.41 444.667,105.615 446.154,105.615 L462.308,105.615 C463.795,105.615 465,104.41 465,102.923 C465,101.436 463.795,100.231 462.308,100.231 Z M500,122.264 L500,143.308 C500.009,144.274 499.499,145.171 498.664,145.657 C497.83,146.144 496.798,146.147 495.962,145.663 L487.885,141.039 L479.808,145.663 C478.971,146.147 477.939,146.144 477.105,145.657 C476.27,145.171 475.761,144.274 475.769,143.308 L475.769,135.231 L435.385,135.231 C433.957,135.231 432.587,134.663 431.577,133.654 C430.567,132.644 430,131.274 430,129.846 L430,86.769 C430,85.341 430.567,83.972 431.577,82.962 C432.587,81.952 433.957,81.385 435.385,81.385 L494.615,81.385 C496.043,81.385 497.413,81.952 498.423,82.962 C499.433,83.972 500,85.341 500,86.769 L500,97.044 C503.439,100.337 505.384,104.892 505.384,109.654 C505.384,114.416 503.439,118.971 500,122.264 Z M475.769,129.846 L475.769,122.264 C469.717,116.427 468.671,107.11 473.28,100.077 C477.888,93.043 486.847,90.282 494.615,93.5 L494.615,86.769 L435.385,86.769 L435.385,129.846 Z M494.615,125.808 C490.309,127.607 485.461,127.607 481.154,125.808 L481.154,138.67 L486.538,135.587 C487.366,135.114 488.383,135.114 489.211,135.587 L494.595,138.67 Z M500,109.654 C500,102.963 494.576,97.538 487.885,97.538 C481.193,97.538 475.769,102.963 475.769,109.654 C475.769,116.345 481.193,121.769 487.885,121.769 C491.098,121.769 494.179,120.493 496.451,118.221 C498.724,115.949 500,112.867 500,109.654 Z" />
        </g>
        <g id="Black-S">
            <path d="M665,113.692 C665,114.406 664.716,115.091 664.211,115.596 C663.707,116.101 663.022,116.385 662.308,116.385 L646.154,116.385 C644.667,116.385 643.462,115.179 643.462,113.692 C643.462,112.205 644.667,111 646.154,111 L662.308,111 C663.022,111 663.707,111.284 664.211,111.789 C664.716,112.293 665,112.978 665,113.692 Z M662.308,100.231 L646.154,100.231 C644.667,100.231 643.462,101.436 643.462,102.923 C643.462,104.41 644.667,105.615 646.154,105.615 L662.308,105.615 C663.795,105.615 665,104.41 665,102.923 C665,101.436 663.795,100.231 662.308,100.231 Z M700,122.264 L700,143.308 C700.009,144.274 699.499,145.171 698.664,145.657 C697.83,146.144 696.798,146.147 695.962,145.663 L687.885,141.039 L679.808,145.663 C678.971,146.147 677.939,146.144 677.105,145.657 C676.27,145.171 675.761,144.274 675.769,143.308 L675.769,135.231 L635.385,135.231 C633.957,135.231 632.587,134.663 631.577,133.654 C630.567,132.644 630,131.274 630,129.846 L630,86.769 C630,85.341 630.567,83.972 631.577,82.962 C632.587,81.952 633.957,81.385 635.385,81.385 L694.615,81.385 C696.044,81.385 697.413,81.952 698.423,82.962 C699.433,83.972 700,85.341 700,86.769 L700,97.044 C703.439,100.337 705.384,104.892 705.384,109.654 C705.384,114.416 703.439,118.971 700,122.264 Z M675.769,129.846 L675.769,122.264 C669.717,116.427 668.671,107.11 673.28,100.077 C677.888,93.043 686.847,90.282 694.615,93.5 L694.615,86.769 L635.385,86.769 L635.385,129.846 Z M694.615,125.808 C690.309,127.607 685.461,127.607 681.154,125.808 L681.154,138.67 L686.538,135.587 C687.366,135.114 688.383,135.114 689.211,135.587 L694.595,138.67 Z M700,109.654 C700,102.963 694.576,97.538 687.885,97.538 C681.193,97.538 675.769,102.963 675.769,109.654 C675.769,116.345 681.193,121.769 687.885,121.769 C691.098,121.769 694.179,120.493 696.452,118.221 C698.724,115.949 700,112.867 700,109.654 Z" />
        </g>
    </g>
</svg>