<?xml version="1.0" encoding="UTF-8"?>
<svg height="600" width="800" xmlns="http://www.w3.org/2000/svg" xmlns:xlink="http://www.w3.org/1999/xlink">
    <g id="Notes" font-family="'LucidaGrande', 'Lucida Grande', sans-serif" font-size="13">
        <rect fill="white" height="600.0" width="800.0" x="0.0" y="0.0" />
        <g font-size="13">
            <text x="18.0" y="176.0">Small</text>
            <text x="18.0" y="376.0">Medium</text>
            <text x="18.0" y="576.0">Large</text>
        </g>
        <g font-size="9">
            <text x="250.0" y="30.0">Ultralight</text>
            <text x="450.0" y="30.0">Regular</text>
            <text x="650.0" y="30.0">Black</text>
            <text id="template-version" fill="#505050" text-anchor="end" x="785.0" y="575.0">Template v.3.0</text>
            <a href="https://github.com/swhitty/SwiftDraw">
                <text fill="#505050" text-anchor="end" x="785.0" y="590.0">https://github.com/swhitty/SwiftDraw</text>
            </a>
        </g>
    </g>
    <g id="Guides" stroke="rgb(39, 170, 225)" stroke-width="0.5">
        <path id="Capline-S" d="M18,76 l800,0" />
        <path id="H-reference" d="M85,145.755 L87.685,145.755 L113.369,79.287 L114.052,79.287 L114.052,76 L112.148,76 L85,145.755 Z M95.693,121.536 L130.996,121.536 L130.263,119.313 L96.474,119.313 L95.693,121.536 Z M139.15,145.755 L141.787,145.755 L114.638,76 L113.466,76 L113.466,79.287 L139.15,145.755 Z" stroke="none" />
        <path id="Baseline-S" d="M18,146 l800,0" />
        <path id="left-margin-Ultralight-S" d="M220,56 l0,110" />
        <path id="right-margin-Ultralight-S" d="M310,56 l0,110" />
        <path id="left-margin-Regular-S" d="M420,56 l0,110" />
        <path id="right-margin-Regular-S" d="M510,56 l0,110" />
        <path id="left-margin-Black-S" d="M620,56 l0,110" />
        <path id="right-margin-Black-S" d="M710,56 l0,110" />
        <path id="Capline-M" d="M18,276 l800,0" />
        <path id="Baseline-M" d="M18,346 l800,0" />
        <path id="Capline-L" d="M18,476 l800,0" />
        <path id="Baseline-L" d="M18,546 l800,0" />
    </g>
    <g id="Symbols">
        <g id="Ultralight-S">
            <path d="M300,113.914 C298.408,132.42 282.653,146.469 264.086,145.938 C245.52,145.406 230.594,130.48 230.062,111.914 C229.531,93.347 243.58,77.592 262.086,76 C263.572,75.877 264.877,76.983 265,78.469 C265.123,79.956 264.017,81.261 262.531,81.385 C246.868,82.73 234.976,96.064 235.425,111.778 C235.874,127.492 248.507,140.126 264.221,140.575 C279.935,141.024 293.27,129.133 294.615,113.47 C294.606,112.2 295.816,110.991 297.308,110.991 C298.8,110.991 300.009,112.2 300.009,113.692 Z M262.308,92.154 L262.308,111 C262.308,111.714 262.591,112.399 263.096,112.904 C263.601,113.409 264.286,113.692 265,113.692 L283.846,113.692 C285.333,113.692 286.538,112.487 286.538,111 C286.538,109.513 285.333,108.308 283.846,108.308 L267.692,108.308 L267.692,92.154 C267.692,90.667 266.487,89.462 265,89.462 C263.513,89.462 262.308,90.667 262.308,92.154 Z M275.769,84.077 C278,84.077 279.808,82.269 279.808,80.038 C279.808,77.808 278,76 275.769,76 C273.539,76 271.731,77.808 271.731,80.038 C271.731,81.11 272.156,82.137 272.914,82.894 C273.671,83.651 274.698,84.077 275.769,84.077 Z M287.885,92.154 C290.115,92.154 291.923,90.346 291.923,88.115 C291.923,85.885 290.115,84.077 287.885,84.077 C285.654,84.077 283.846,85.885 283.846,88.115 C283.846,89.186 284.272,90.214 285.029,90.971 C285.786,91.728 286.814,92.154 287.885,92.154 Z M295.962,104.269 C298.192,104.269 300,102.461 300,100.231 C300,98 298.192,96.192 295.962,96.192 C293.731,96.192 291.923,98 291.923,100.231 C291.923,101.302 292.349,102.329 293.106,103.086 C293.863,103.844 294.89,104.269 295.962,104.269 Z" />
        </g>
        <g id="Regular-S">
            <path d="M500,113.914 C498.408,132.42 482.653,146.469 464.086,145.938 C445.52,145.406 430.594,130.48 430.062,111.914 C429.531,93.347 443.58,77.592 462.086,76 C463.572,75.877 464.877,76.983 465,78.469 C465.123,79.956 464.017,81.261 462.531,81.385 C446.868,82.73 434.976,96.064 435.425,111.778 C435.874,127.492 448.507,140.126 464.221,140.575 C479.935,141.024 493.27,129.133 494.615,113.47 C494.606,112.2 495.816,110.991 497.308,110.991 C498.8,110.991 500.009,112.2 500.009,113.692 Z M462.308,92.154 L462.308,111 C462.308,111.714 462.591,112.399 463.096,112.904 C463.601,113.409 464.286,113.692 465,113.692 L483.846,113.692 C485.333,113.692 486.538,112.487 486.538,111 C486.538,109.513 485.333,108.308 483.846,108.308 L467.692,108.308 L467.692,92.154 C467.692,90.667 466.487,89.462 465,89.462 C463.513,89.462 462.308,90.667 462.308,92.154 Z M475.769,84.077 C478,84.077 479.808,82.269 479.808,80.038 C479.808,77.808 478,76 475.769,76 C473.539,76 471.731,77.808 471.731,80.038 C471.731,81.11 472.156,82.137 472.914,82.894 C473.671,83.651 474.698,84.077 475.769,84.077 Z M487.885,92.154 C490.115,92.154 491.923,90.346 491.923,88.115 C491.923,85.885 490.115,84.077 487.885,84.077 C485.654,84.077 483.846,85.885 483.846,88.115 C483.846,89.186 484.272,90.214 485.029,90.971 C485.786,91.728 486.814,92.154 487.885,92.154 Z M495.962,104.269 C498.192,104.269 500,102.461 500,100.231 C500,98 498.192,96.192 495.962,96.192 C493.731,96.192 491.923,98 491.923,100.231 C491.923,101.302 492.349,102.329 493.106,103.086 C493.863,103.844 494.89,104.269 495.962,104.269 Z" />
        </g>
        <g id="Black-S">
            <path d="M700,113.914 C698.408,132.42 682.653,146.469 664.086,145.938 C645.52,145.406 630.594,130.48 630.062,111.914 C629.531,93.347 643.58,77.592 662.086,76 C663.572,75.877 664.877,76.983 665,78.469 C665.123,79.956 664.017,81.261 662.531,81.385 C646.868,82.73 634.976,96.064 635.425,111.778 C635.874,127.492 648.507,140.126 664.221,140.575 C679.935,141.024 693.27,129.133 694.615,113.47 C694.606,112.2 695.816,110.991 697.308,110.991 C698.8,110.991 700.009,112.2 700.009,113.692 Z M662.308,92.154 L662.308,111 C662.308,111.714 662.591,112.399 663.096,112.904 C663.601,113.409 664.286,113.692 665,113.692 L683.846,113.692 C685.333,113.692 686.538,112.487 686.538,111 C686.538,109.513 685.333,108.308 683.846,108.308 L667.692,108.308 L667.692,92.154 C667.692,90.667 666.487,89.462 665,89.462 C663.513,89.462 662.308,90.667 662.308,92.154 Z M675.769,84.077 C678,84.077 679.808,82.269 679.808,80.038 C679.808,77.808 678,76 675.769,76 C673.539,76 671.731,77.808 671.731,80.038 C671.731,81.11 672.156,82.137 672.914,82.894 C673.671,83.651 674.698,84.077 675.769,84.077 Z M687.885,92.154 C690.115,92.154 691.923,90.346 691.923,88.115 C691.923,85.885 690.115,84.077 687.885,84.077 C685.654,84.077 683.846,85.885 683.846,88.115 C683.846,89.186 684.272,90.214 685.029,90.971 C685.786,91.728 686.814,92.154 687.885,92.154 Z M695.962,104.269 C698.192,104.269 700,102.461 700,100.231 C700,98 698.192,96.192 695.962,96.192 C693.731,96.192 691.923,98 691.923,100.231 C691.923,101.302 692.349,102.329 693.106,103.086 C693.863,103.844 694.891,104.269 695.962,104.269 Z" />
        </g>
    </g>
</svg>