<?xml version="1.0" encoding="UTF-8"?>
<svg height="600" width="800" xmlns="http://www.w3.org/2000/svg" xmlns:xlink="http://www.w3.org/1999/xlink">
    <g id="Notes" font-family="'LucidaGrande', 'Lucida Grande', sans-serif" font-size="13">
        <rect fill="white" height="600.0" width="800.0" x="0.0" y="0.0" />
        <g font-size="13">
            <text x="18.0" y="176.0">Small</text>
            <text x="18.0" y="376.0">Medium</text>
            <text x="18.0" y="576.0">Large</text>
        </g>
        <g font-size="9">
            <text x="250.0" y="30.0">Ultralight</text>
            <text x="450.0" y="30.0">Regular</text>
            <text x="650.0" y="30.0">Black</text>
            <text id="template-version" fill="#505050" text-anchor="end" x="785.0" y="575.0">Template v.3.0</text>
            <a href="https://github.com/swhitty/SwiftDraw">
                <text fill="#505050" text-anchor="end" x="785.0" y="590.0">https://github.com/swhitty/SwiftDraw</text>
            </a>
        </g>
    </g>
    <g id="Guides" stroke="rgb(39, 170, 225)" stroke-width="0.5">
        <path id="Capline-S" d="M18,76 l800,0" />
        <path id="H-reference" d="M85,145.755 L87.685,145.755 L113.369,79.287 L114.052,79.287 L114.052,76 L112.148,76 L85,145.755 Z M95.693,121.536 L130.996,121.536 L130.263,119.313 L96.474,119.313 L95.693,121.536 Z M139.15,145.755 L141.787,145.755 L114.638,76 L113.466,76 L113.466,79.287 L139.15,145.755 Z" stroke="none" />
        <path id="Baseline-S" d="M18,146 l800,0" />
        <path id="left-margin-Ultralight-S" d="M220,56 l0,110" />
        <path id="right-margin-Ultralight-S" d="M310,56 l0,110" />
        <path id="left-margin-Regular-S" d="M420,56 l0,110" />
        <path id="right-margin-Regular-S" d="M510,56 l0,110" />
        <path id="left-margin-Black-S" d="M620,56 l0,110" />
        <path id="right-margin-Black-S" d="M710,56 l0,110" />
        <path id="Capline-M" d="M18,276 l800,0" />
        <path id="Baseline-M" d="M18,346 l800,0" />
        <path id="Capline-L" d="M18,476 l800,0" />
        <path id="Baseline-L" d="M18,546 l800,0" />
    </g>
    <g id="Symbols">
        <g id="Ultralight-S">
            <path d="M294.615,140.615 L289.231,140.615 L289.231,106.729 L293.037,102.923 C294.051,101.917 294.62,100.546 294.615,99.117 L294.615,84.077 C294.615,82.649 294.048,81.279 293.038,80.269 C292.028,79.26 290.659,78.692 289.231,78.692 L281.154,78.692 C280.44,78.692 279.755,78.976 279.25,79.481 C278.745,79.986 278.462,80.671 278.462,81.385 L278.462,89.462 L273.077,89.462 L273.077,81.385 C273.077,80.671 272.793,79.986 272.288,79.481 C271.783,78.976 271.099,78.692 270.385,78.692 L259.615,78.692 C258.901,78.692 258.217,78.976 257.712,79.481 C257.207,79.986 256.923,80.671 256.923,81.385 L256.923,89.462 L251.538,89.462 L251.538,81.385 C251.538,80.671 251.255,79.986 250.75,79.481 C250.245,78.976 249.56,78.692 248.846,78.692 L240.769,78.692 C239.341,78.692 237.972,79.26 236.962,80.269 C235.952,81.279 235.385,82.649 235.385,84.077 L235.385,99.117 C235.38,100.546 235.949,101.917 236.963,102.923 L240.769,106.729 L240.769,140.615 L235.385,140.615 C233.898,140.615 232.692,141.821 232.692,143.308 C232.692,144.795 233.898,146 235.385,146 L294.615,146 C296.102,146 297.308,144.795 297.308,143.308 C297.308,141.821 296.102,140.615 294.615,140.615 Z M245.366,103.711 L240.769,99.117 L240.769,84.077 L246.154,84.077 L246.154,92.154 C246.154,92.868 246.438,93.553 246.942,94.058 C247.447,94.563 248.132,94.846 248.846,94.846 L259.615,94.846 C260.329,94.846 261.014,94.562 261.519,94.058 C262.024,93.553 262.308,92.868 262.308,92.154 L262.308,84.077 L267.692,84.077 L267.692,92.154 C267.692,92.868 267.976,93.553 268.481,94.058 C268.986,94.563 269.671,94.846 270.385,94.846 L281.154,94.846 C281.868,94.846 282.553,94.562 283.058,94.058 C283.562,93.553 283.846,92.868 283.846,92.154 L283.846,84.077 L289.231,84.077 L289.231,99.117 L284.634,103.711 C284.129,104.216 283.846,104.901 283.846,105.615 L283.846,140.615 L275.769,140.615 L275.769,124.462 C275.769,118.514 270.948,113.692 265,113.692 C259.052,113.692 254.231,118.514 254.231,124.462 L254.231,140.615 L246.154,140.615 L246.154,105.615 C246.154,104.901 245.871,104.216 245.366,103.711 Z M270.385,140.615 L259.615,140.615 L259.615,124.462 C259.615,121.488 262.026,119.077 265,119.077 C267.974,119.077 270.385,121.488 270.385,124.462 Z" />
        </g>
        <g id="Regular-S">
            <path d="M494.615,140.615 L489.231,140.615 L489.231,106.729 L493.037,102.923 C494.051,101.917 494.62,100.546 494.615,99.117 L494.615,84.077 C494.615,82.649 494.048,81.279 493.038,80.269 C492.028,79.26 490.659,78.692 489.231,78.692 L481.154,78.692 C480.44,78.692 479.755,78.976 479.25,79.481 C478.745,79.986 478.462,80.671 478.462,81.385 L478.462,89.462 L473.077,89.462 L473.077,81.385 C473.077,80.671 472.793,79.986 472.288,79.481 C471.783,78.976 471.099,78.692 470.385,78.692 L459.615,78.692 C458.901,78.692 458.217,78.976 457.712,79.481 C457.207,79.986 456.923,80.671 456.923,81.385 L456.923,89.462 L451.538,89.462 L451.538,81.385 C451.538,80.671 451.255,79.986 450.75,79.481 C450.245,78.976 449.56,78.692 448.846,78.692 L440.769,78.692 C439.341,78.692 437.972,79.26 436.962,80.269 C435.952,81.279 435.385,82.649 435.385,84.077 L435.385,99.117 C435.38,100.546 435.949,101.917 436.963,102.923 L440.769,106.729 L440.769,140.615 L435.385,140.615 C433.898,140.615 432.692,141.821 432.692,143.308 C432.692,144.795 433.898,146 435.385,146 L494.615,146 C496.102,146 497.308,144.795 497.308,143.308 C497.308,141.821 496.102,140.615 494.615,140.615 Z M445.366,103.711 L440.769,99.117 L440.769,84.077 L446.154,84.077 L446.154,92.154 C446.154,92.868 446.438,93.553 446.942,94.058 C447.447,94.563 448.132,94.846 448.846,94.846 L459.615,94.846 C460.329,94.846 461.014,94.562 461.519,94.058 C462.024,93.553 462.308,92.868 462.308,92.154 L462.308,84.077 L467.692,84.077 L467.692,92.154 C467.692,92.868 467.976,93.553 468.481,94.058 C468.986,94.563 469.671,94.846 470.385,94.846 L481.154,94.846 C481.868,94.846 482.553,94.562 483.058,94.058 C483.562,93.553 483.846,92.868 483.846,92.154 L483.846,84.077 L489.231,84.077 L489.231,99.117 L484.634,103.711 C484.129,104.216 483.846,104.901 483.846,105.615 L483.846,140.615 L475.769,140.615 L475.769,124.462 C475.769,118.514 470.948,113.692 465,113.692 C459.052,113.692 454.231,118.514 454.231,124.462 L454.231,140.615 L446.154,140.615 L446.154,105.615 C446.154,104.901 445.871,104.216 445.366,103.711 Z M470.385,140.615 L459.615,140.615 L459.615,124.462 C459.615,121.488 462.026,119.077 465,119.077 C467.974,119.077 470.385,121.488 470.385,124.462 Z" />
        </g>
        <g id="Black-S">
            <path d="M694.615,140.615 L689.231,140.615 L689.231,106.729 L693.037,102.923 C694.051,101.917 694.62,100.546 694.615,99.117 L694.615,84.077 C694.615,82.649 694.048,81.279 693.038,80.269 C692.028,79.26 690.659,78.692 689.231,78.692 L681.154,78.692 C680.44,78.692 679.755,78.976 679.25,79.481 C678.745,79.986 678.462,80.671 678.462,81.385 L678.462,89.462 L673.077,89.462 L673.077,81.385 C673.077,80.671 672.793,79.986 672.288,79.481 C671.783,78.976 671.099,78.692 670.385,78.692 L659.615,78.692 C658.901,78.692 658.217,78.976 657.712,79.481 C657.207,79.986 656.923,80.671 656.923,81.385 L656.923,89.462 L651.538,89.462 L651.538,81.385 C651.538,80.671 651.255,79.986 650.75,79.481 C650.245,78.976 649.56,78.692 648.846,78.692 L640.769,78.692 C639.341,78.692 637.972,79.26 636.962,80.269 C635.952,81.279 635.385,82.649 635.385,84.077 L635.385,99.117 C635.38,100.546 635.949,101.917 636.963,102.923 L640.769,106.729 L640.769,140.615 L635.385,140.615 C633.898,140.615 632.692,141.821 632.692,143.308 C632.692,144.795 633.898,146 635.385,146 L694.615,146 C696.102,146 697.308,144.795 697.308,143.308 C697.308,141.821 696.102,140.615 694.615,140.615 Z M645.366,103.711 L640.769,99.117 L640.769,84.077 L646.154,84.077 L646.154,92.154 C646.154,92.868 646.438,93.553 646.942,94.058 C647.447,94.563 648.132,94.846 648.846,94.846 L659.615,94.846 C660.329,94.846 661.014,94.562 661.519,94.058 C662.024,93.553 662.308,92.868 662.308,92.154 L662.308,84.077 L667.692,84.077 L667.692,92.154 C667.692,92.868 667.976,93.553 668.481,94.058 C668.986,94.563 669.671,94.846 670.385,94.846 L681.154,94.846 C681.868,94.846 682.553,94.562 683.058,94.058 C683.562,93.553 683.846,92.868 683.846,92.154 L683.846,84.077 L689.231,84.077 L689.231,99.117 L684.634,103.711 C684.129,104.216 683.846,104.901 683.846,105.615 L683.846,140.615 L675.769,140.615 L675.769,124.462 C675.769,118.514 670.948,113.692 665,113.692 C659.052,113.692 654.231,118.514 654.231,124.462 L654.231,140.615 L646.154,140.615 L646.154,105.615 C646.154,104.901 645.871,104.216 645.366,103.711 Z M670.385,140.615 L659.615,140.615 L659.615,124.462 C659.615,121.488 662.026,119.077 665,119.077 C667.974,119.077 670.385,121.488 670.385,124.462 Z" />
        </g>
    </g>
</svg>