<?xml version="1.0" encoding="UTF-8"?>
<svg height="600" width="800" xmlns="http://www.w3.org/2000/svg" xmlns:xlink="http://www.w3.org/1999/xlink">
    <g id="Notes" font-family="'LucidaGrande', 'Lucida Grande', sans-serif" font-size="13">
        <rect fill="white" height="600.0" width="800.0" x="0.0" y="0.0" />
        <g font-size="13">
            <text x="18.0" y="176.0">Small</text>
            <text x="18.0" y="376.0">Medium</text>
            <text x="18.0" y="576.0">Large</text>
        </g>
        <g font-size="9">
            <text x="250.0" y="30.0">Ultralight</text>
            <text x="450.0" y="30.0">Regular</text>
            <text x="650.0" y="30.0">Black</text>
            <text id="template-version" fill="#505050" text-anchor="end" x="785.0" y="575.0">Template v.3.0</text>
            <a href="https://github.com/swhitty/SwiftDraw">
                <text fill="#505050" text-anchor="end" x="785.0" y="590.0">https://github.com/swhitty/SwiftDraw</text>
            </a>
        </g>
    </g>
    <g id="Guides" stroke="rgb(39, 170, 225)" stroke-width="0.5">
        <path id="Capline-S" d="M18,76 l800,0" />
        <path id="H-reference" d="M85,145.755 L87.685,145.755 L113.369,79.287 L114.052,79.287 L114.052,76 L112.148,76 L85,145.755 Z M95.693,121.536 L130.996,121.536 L130.263,119.313 L96.474,119.313 L95.693,121.536 Z M139.15,145.755 L141.787,145.755 L114.638,76 L113.466,76 L113.466,79.287 L139.15,145.755 Z" stroke="none" />
        <path id="Baseline-S" d="M18,146 l800,0" />
        <path id="left-margin-Ultralight-S" d="M220,56 l0,110" />
        <path id="right-margin-Ultralight-S" d="M310,56 l0,110" />
        <path id="left-margin-Regular-S" d="M420,56 l0,110" />
        <path id="right-margin-Regular-S" d="M510,56 l0,110" />
        <path id="left-margin-Black-S" d="M620,56 l0,110" />
        <path id="right-margin-Black-S" d="M710,56 l0,110" />
        <path id="Capline-M" d="M18,276 l800,0" />
        <path id="Baseline-M" d="M18,346 l800,0" />
        <path id="Capline-L" d="M18,476 l800,0" />
        <path id="Baseline-L" d="M18,546 l800,0" />
    </g>
    <g id="Symbols">
        <g id="Ultralight-S">
            <path d="M262.308,73.308 L262.308,70.615 C262.308,69.128 263.513,67.923 265,67.923 C266.487,67.923 267.692,69.128 267.692,70.615 L267.692,73.308 C267.692,74.795 266.487,76 265,76 C263.513,76 262.308,74.795 262.308,73.308 Z M289.231,84.077 C289.945,84.077 290.63,83.794 291.136,83.289 L293.828,80.597 C294.88,79.543 294.879,77.838 293.827,76.786 C292.774,75.735 291.069,75.736 290.017,76.789 L287.325,79.481 C286.555,80.251 286.324,81.41 286.742,82.416 C287.159,83.422 288.141,84.078 289.231,84.077 Z M238.864,83.289 C239.915,84.341 241.62,84.342 242.673,83.29 C243.726,82.239 243.727,80.533 242.675,79.481 L239.983,76.789 C238.933,75.737 237.227,75.735 236.174,76.786 C235.121,77.838 235.12,79.543 236.171,80.596 Z M268.143,92.191 C267.19,92.022 266.22,92.378 265.602,93.123 C264.984,93.868 264.814,94.887 265.156,95.793 C265.497,96.698 266.299,97.351 267.255,97.501 C273.639,98.575 278.462,104.377 278.462,111 C278.462,112.487 279.667,113.692 281.154,113.692 C282.641,113.692 283.846,112.487 283.846,111 C283.846,101.779 277.092,93.692 268.137,92.191 Z M300,127.154 L300,135.231 C300,136.659 299.433,138.028 298.423,139.038 C297.413,140.048 296.043,140.615 294.615,140.615 L235.385,140.615 C233.957,140.615 232.587,140.048 231.577,139.038 C230.567,138.028 230,136.659 230,135.231 L230,127.154 C230,125.726 230.567,124.356 231.577,123.346 C232.587,122.337 233.957,121.769 235.385,121.769 L235.385,111 C235.385,103.105 238.536,95.538 244.139,89.978 C249.742,84.418 257.333,81.324 265.226,81.385 C281.431,81.506 294.616,94.944 294.616,111.337 L294.616,121.769 C297.59,121.77 300,124.18 300,127.154 Z M240.769,121.769 L289.231,121.769 L289.231,111.337 C289.231,97.875 278.445,86.867 265.185,86.769 L265,86.769 C258.574,86.769 252.41,89.322 247.866,93.866 C243.322,98.41 240.769,104.574 240.769,111 Z M294.615,135.231 L294.615,127.154 L235.385,127.154 L235.385,135.231 L294.615,135.231 Z" />
        </g>
        <g id="Regular-S">
            <path d="M462.308,73.308 L462.308,70.615 C462.308,69.128 463.513,67.923 465,67.923 C466.487,67.923 467.692,69.128 467.692,70.615 L467.692,73.308 C467.692,74.795 466.487,76 465,76 C463.513,76 462.308,74.795 462.308,73.308 Z M489.231,84.077 C489.945,84.077 490.63,83.794 491.136,83.289 L493.828,80.597 C494.88,79.543 494.879,77.838 493.827,76.786 C492.774,75.735 491.069,75.736 490.017,76.789 L487.325,79.481 C486.555,80.251 486.324,81.41 486.742,82.416 C487.159,83.422 488.141,84.078 489.231,84.077 Z M438.864,83.289 C439.915,84.341 441.62,84.342 442.673,83.29 C443.726,82.239 443.727,80.533 442.675,79.481 L439.983,76.789 C438.933,75.737 437.227,75.735 436.174,76.786 C435.121,77.838 435.12,79.543 436.171,80.596 Z M468.143,92.191 C467.19,92.022 466.22,92.378 465.602,93.123 C464.984,93.868 464.814,94.887 465.156,95.793 C465.497,96.698 466.299,97.351 467.255,97.501 C473.639,98.575 478.462,104.377 478.462,111 C478.462,112.487 479.667,113.692 481.154,113.692 C482.641,113.692 483.846,112.487 483.846,111 C483.846,101.779 477.092,93.692 468.137,92.191 Z M500,127.154 L500,135.231 C500,136.659 499.433,138.028 498.423,139.038 C497.413,140.048 496.043,140.615 494.615,140.615 L435.385,140.615 C433.957,140.615 432.587,140.048 431.577,139.038 C430.567,138.028 430,136.659 430,135.231 L430,127.154 C430,125.726 430.567,124.356 431.577,123.346 C432.587,122.337 433.957,121.769 435.385,121.769 L435.385,111 C435.385,103.105 438.536,95.538 444.139,89.978 C449.742,84.418 457.333,81.324 465.226,81.385 C481.431,81.506 494.616,94.944 494.616,111.337 L494.616,121.769 C497.59,121.77 500,124.18 500,127.154 Z M440.769,121.769 L489.231,121.769 L489.231,111.337 C489.231,97.875 478.445,86.867 465.185,86.769 L465,86.769 C458.574,86.769 452.41,89.322 447.866,93.866 C443.322,98.41 440.769,104.574 440.769,111 Z M494.615,135.231 L494.615,127.154 L435.385,127.154 L435.385,135.231 L494.615,135.231 Z" />
        </g>
        <g id="Black-S">
            <path d="M662.308,73.308 L662.308,70.615 C662.308,69.128 663.513,67.923 665,67.923 C666.487,67.923 667.692,69.128 667.692,70.615 L667.692,73.308 C667.692,74.795 666.487,76 665,76 C663.513,76 662.308,74.795 662.308,73.308 Z M689.231,84.077 C689.945,84.077 690.63,83.794 691.136,83.289 L693.828,80.597 C694.88,79.543 694.879,77.838 693.827,76.786 C692.774,75.735 691.069,75.736 690.017,76.789 L687.325,79.481 C686.555,80.251 686.324,81.41 686.742,82.416 C687.159,83.422 688.141,84.078 689.231,84.077 Z M638.864,83.289 C639.915,84.341 641.62,84.342 642.673,83.29 C643.726,82.239 643.727,80.533 642.675,79.481 L639.983,76.789 C638.933,75.737 637.227,75.735 636.174,76.786 C635.121,77.838 635.12,79.543 636.171,80.596 Z M668.143,92.191 C667.19,92.022 666.22,92.378 665.602,93.123 C664.984,93.868 664.814,94.887 665.156,95.793 C665.497,96.698 666.299,97.351 667.255,97.501 C673.639,98.575 678.462,104.377 678.462,111 C678.462,112.487 679.667,113.692 681.154,113.692 C682.641,113.692 683.846,112.487 683.846,111 C683.846,101.779 677.092,93.692 668.137,92.191 Z M700,127.154 L700,135.231 C700,136.659 699.433,138.028 698.423,139.038 C697.413,140.048 696.044,140.615 694.615,140.615 L635.385,140.615 C633.957,140.615 632.587,140.048 631.577,139.038 C630.567,138.028 630,136.659 630,135.231 L630,127.154 C630,125.726 630.567,124.356 631.577,123.346 C632.587,122.337 633.957,121.769 635.385,121.769 L635.385,111 C635.385,103.105 638.536,95.538 644.139,89.978 C649.742,84.418 657.333,81.324 665.226,81.385 C681.431,81.506 694.616,94.944 694.616,111.337 L694.616,121.769 C697.59,121.77 700,124.18 700,127.154 Z M640.769,121.769 L689.231,121.769 L689.231,111.337 C689.231,97.875 678.445,86.867 665.185,86.769 L665,86.769 C658.574,86.769 652.41,89.322 647.866,93.866 C643.322,98.41 640.769,104.574 640.769,111 Z M694.615,135.231 L694.615,127.154 L635.385,127.154 L635.385,135.231 L694.615,135.231 Z" />
        </g>
    </g>
</svg>