<?xml version="1.0" encoding="UTF-8"?>
<svg height="600" width="800" xmlns="http://www.w3.org/2000/svg" xmlns:xlink="http://www.w3.org/1999/xlink">
    <g id="Notes" font-family="'LucidaGrande', 'Lucida Grande', sans-serif" font-size="13">
        <rect fill="white" height="600.0" width="800.0" x="0.0" y="0.0" />
        <g font-size="13">
            <text x="18.0" y="176.0">Small</text>
            <text x="18.0" y="376.0">Medium</text>
            <text x="18.0" y="576.0">Large</text>
        </g>
        <g font-size="9">
            <text x="250.0" y="30.0">Ultralight</text>
            <text x="450.0" y="30.0">Regular</text>
            <text x="650.0" y="30.0">Black</text>
            <text id="template-version" fill="#505050" text-anchor="end" x="785.0" y="575.0">Template v.3.0</text>
            <a href="https://github.com/swhitty/SwiftDraw">
                <text fill="#505050" text-anchor="end" x="785.0" y="590.0">https://github.com/swhitty/SwiftDraw</text>
            </a>
        </g>
    </g>
    <g id="Guides" stroke="rgb(39, 170, 225)" stroke-width="0.5">
        <path id="Capline-S" d="M18,76 l800,0" />
        <path id="H-reference" d="M85,145.755 L87.685,145.755 L113.369,79.287 L114.052,79.287 L114.052,76 L112.148,76 L85,145.755 Z M95.693,121.536 L130.996,121.536 L130.263,119.313 L96.474,119.313 L95.693,121.536 Z M139.15,145.755 L141.787,145.755 L114.638,76 L113.466,76 L113.466,79.287 L139.15,145.755 Z" stroke="none" />
        <path id="Baseline-S" d="M18,146 l800,0" />
        <path id="left-margin-Ultralight-S" d="M220,56 l0,110" />
        <path id="right-margin-Ultralight-S" d="M310,56 l0,110" />
        <path id="left-margin-Regular-S" d="M420,56 l0,110" />
        <path id="right-margin-Regular-S" d="M510,56 l0,110" />
        <path id="left-margin-Black-S" d="M620,56 l0,110" />
        <path id="right-margin-Black-S" d="M710,56 l0,110" />
        <path id="Capline-M" d="M18,276 l800,0" />
        <path id="Baseline-M" d="M18,346 l800,0" />
        <path id="Capline-L" d="M18,476 l800,0" />
        <path id="Baseline-L" d="M18,546 l800,0" />
    </g>
    <g id="Symbols">
        <g id="Ultralight-S">
            <path d="M291.923,76 L278.462,76 C276.975,76 275.769,77.205 275.769,78.692 C275.769,80.179 276.975,81.385 278.462,81.385 L285.425,81.385 L276.961,89.849 C270.138,83.491 259.999,82.245 251.841,86.764 C243.683,91.282 239.359,100.537 241.129,109.694 C242.899,118.85 250.361,125.827 259.615,126.979 L259.615,132.538 L251.538,132.538 C250.052,132.538 248.846,133.744 248.846,135.231 C248.846,136.718 250.052,137.923 251.538,137.923 L259.615,137.923 L259.615,146 C259.615,147.487 260.821,148.692 262.308,148.692 C263.795,148.692 265,147.487 265,146 L265,137.923 L273.077,137.923 C274.564,137.923 275.769,136.718 275.769,135.231 C275.769,133.744 274.564,132.538 273.077,132.538 L265,132.538 L265,126.979 C272.336,126.063 278.687,121.444 281.819,114.748 C284.951,108.051 284.425,100.216 280.427,93.998 L289.231,85.191 L289.231,92.154 C289.231,93.641 290.436,94.846 291.923,94.846 C293.41,94.846 294.615,93.641 294.615,92.154 L294.615,78.692 C294.615,77.978 294.332,77.293 293.827,76.789 C293.322,76.284 292.637,76 291.923,76 Z M262.308,121.769 C253.386,121.769 246.154,114.537 246.154,105.615 C246.154,96.694 253.386,89.462 262.308,89.462 C271.229,89.462 278.462,96.694 278.462,105.615 C278.452,114.533 271.225,121.76 262.308,121.769 Z" />
        </g>
        <g id="Regular-S">
            <path d="M491.923,76 L478.462,76 C476.975,76 475.769,77.205 475.769,78.692 C475.769,80.179 476.975,81.385 478.462,81.385 L485.424,81.385 L476.961,89.849 C470.138,83.491 459.999,82.245 451.841,86.764 C443.683,91.282 439.359,100.537 441.129,109.694 C442.899,118.85 450.361,125.827 459.615,126.979 L459.615,132.538 L451.538,132.538 C450.052,132.538 448.846,133.744 448.846,135.231 C448.846,136.718 450.052,137.923 451.538,137.923 L459.615,137.923 L459.615,146 C459.615,147.487 460.821,148.692 462.308,148.692 C463.795,148.692 465,147.487 465,146 L465,137.923 L473.077,137.923 C474.564,137.923 475.769,136.718 475.769,135.231 C475.769,133.744 474.564,132.538 473.077,132.538 L465,132.538 L465,126.979 C472.336,126.063 478.687,121.444 481.819,114.748 C484.951,108.051 484.425,100.216 480.427,93.998 L489.231,85.191 L489.231,92.154 C489.231,93.641 490.436,94.846 491.923,94.846 C493.41,94.846 494.615,93.641 494.615,92.154 L494.615,78.692 C494.615,77.978 494.332,77.293 493.827,76.789 C493.322,76.284 492.637,76 491.923,76 Z M462.308,121.769 C453.386,121.769 446.154,114.537 446.154,105.615 C446.154,96.694 453.386,89.462 462.308,89.462 C471.229,89.462 478.462,96.694 478.462,105.615 C478.452,114.533 471.225,121.76 462.308,121.769 Z" />
        </g>
        <g id="Black-S">
            <path d="M691.923,76 L678.462,76 C676.975,76 675.769,77.205 675.769,78.692 C675.769,80.179 676.975,81.385 678.462,81.385 L685.425,81.385 L676.961,89.849 C670.138,83.491 659.999,82.245 651.841,86.764 C643.683,91.282 639.359,100.537 641.129,109.694 C642.899,118.85 650.361,125.827 659.615,126.979 L659.615,132.538 L651.538,132.538 C650.052,132.538 648.846,133.744 648.846,135.231 C648.846,136.718 650.052,137.923 651.538,137.923 L659.615,137.923 L659.615,146 C659.615,147.487 660.821,148.692 662.308,148.692 C663.795,148.692 665,147.487 665,146 L665,137.923 L673.077,137.923 C674.564,137.923 675.769,136.718 675.769,135.231 C675.769,133.744 674.564,132.538 673.077,132.538 L665,132.538 L665,126.979 C672.336,126.063 678.687,121.444 681.819,114.748 C684.951,108.051 684.425,100.216 680.427,93.998 L689.231,85.191 L689.231,92.154 C689.231,93.641 690.436,94.846 691.923,94.846 C693.41,94.846 694.615,93.641 694.615,92.154 L694.615,78.692 C694.615,77.978 694.332,77.293 693.827,76.789 C693.322,76.284 692.637,76 691.923,76 Z M662.308,121.769 C653.386,121.769 646.154,114.537 646.154,105.615 C646.154,96.694 653.386,89.462 662.308,89.462 C671.229,89.462 678.462,96.694 678.462,105.615 C678.452,114.533 671.225,121.76 662.308,121.769 Z" />
        </g>
    </g>
</svg>