<?xml version="1.0" encoding="UTF-8"?>
<svg height="600" width="800" xmlns="http://www.w3.org/2000/svg" xmlns:xlink="http://www.w3.org/1999/xlink">
    <g id="Notes" font-family="'LucidaGrande', 'Lucida Grande', sans-serif" font-size="13">
        <rect fill="white" height="600.0" width="800.0" x="0.0" y="0.0" />
        <g font-size="13">
            <text x="18.0" y="176.0">Small</text>
            <text x="18.0" y="376.0">Medium</text>
            <text x="18.0" y="576.0">Large</text>
        </g>
        <g font-size="9">
            <text x="250.0" y="30.0">Ultralight</text>
            <text x="450.0" y="30.0">Regular</text>
            <text x="650.0" y="30.0">Black</text>
            <text id="template-version" fill="#505050" text-anchor="end" x="785.0" y="575.0">Template v.3.0</text>
            <a href="https://github.com/swhitty/SwiftDraw">
                <text fill="#505050" text-anchor="end" x="785.0" y="590.0">https://github.com/swhitty/SwiftDraw</text>
            </a>
        </g>
    </g>
    <g id="Guides" stroke="rgb(39, 170, 225)" stroke-width="0.5">
        <path id="Capline-S" d="M18,76 l800,0" />
        <path id="H-reference" d="M85,145.755 L87.685,145.755 L113.369,79.287 L114.052,79.287 L114.052,76 L112.148,76 L85,145.755 Z M95.693,121.536 L130.996,121.536 L130.263,119.313 L96.474,119.313 L95.693,121.536 Z M139.15,145.755 L141.787,145.755 L114.638,76 L113.466,76 L113.466,79.287 L139.15,145.755 Z" stroke="none" />
        <path id="Baseline-S" d="M18,146 l800,0" />
        <path id="left-margin-Ultralight-S" d="M220,56 l0,110" />
        <path id="right-margin-Ultralight-S" d="M310,56 l0,110" />
        <path id="left-margin-Regular-S" d="M420,56 l0,110" />
        <path id="right-margin-Regular-S" d="M510,56 l0,110" />
        <path id="left-margin-Black-S" d="M620,56 l0,110" />
        <path id="right-margin-Black-S" d="M710,56 l0,110" />
        <path id="Capline-M" d="M18,276 l800,0" />
        <path id="Baseline-M" d="M18,346 l800,0" />
        <path id="Capline-L" d="M18,476 l800,0" />
        <path id="Baseline-L" d="M18,546 l800,0" />
    </g>
    <g id="Symbols">
        <g id="Ultralight-S">
            <path d="M272.273,96.768 L242.119,126.383 C241.071,127.414 239.391,127.414 238.343,126.383 L225.42,113.692 C224.359,112.649 224.345,110.944 225.388,109.884 C226.431,108.824 228.136,108.81 229.196,109.853 L240.231,120.689 L268.5,92.925 C269.56,91.882 271.265,91.896 272.309,92.957 C273.352,94.018 273.338,95.723 272.277,96.767 Z M304.614,92.958 C304.113,92.448 303.431,92.158 302.716,92.152 C302.002,92.145 301.314,92.423 300.804,92.925 L272.535,120.689 L266.198,114.463 C265.137,113.421 263.432,113.437 262.39,114.498 C261.349,115.559 261.364,117.264 262.425,118.306 L270.647,126.383 C271.695,127.413 273.375,127.413 274.423,126.383 L304.577,96.768 C305.087,96.267 305.378,95.585 305.385,94.871 C305.392,94.156 305.115,93.468 304.614,92.958 Z" />
        </g>
        <g id="Regular-S">
            <path d="M472.273,96.768 L442.119,126.383 C441.071,127.414 439.39,127.414 438.343,126.383 L425.42,113.692 C424.359,112.649 424.345,110.944 425.388,109.884 C426.431,108.824 428.136,108.81 429.196,109.853 L440.231,120.689 L468.5,92.925 C469.56,91.882 471.265,91.896 472.309,92.957 C473.352,94.018 473.338,95.723 472.277,96.767 Z M504.614,92.958 C504.113,92.448 503.431,92.158 502.716,92.152 C502.002,92.145 501.314,92.423 500.804,92.925 L472.535,120.689 L466.198,114.463 C465.137,113.421 463.432,113.437 462.39,114.498 C461.348,115.559 461.364,117.264 462.425,118.306 L470.647,126.383 C471.695,127.413 473.375,127.413 474.423,126.383 L504.577,96.768 C505.087,96.267 505.378,95.585 505.385,94.871 C505.392,94.156 505.115,93.468 504.614,92.958 Z" />
        </g>
        <g id="Black-S">
            <path d="M672.273,96.768 L642.119,126.383 C641.071,127.414 639.391,127.414 638.343,126.383 L625.42,113.692 C624.359,112.649 624.345,110.944 625.388,109.884 C626.431,108.824 628.136,108.81 629.196,109.853 L640.231,120.689 L668.5,92.925 C669.56,91.882 671.265,91.896 672.309,92.957 C673.352,94.018 673.338,95.723 672.277,96.767 Z M704.614,92.958 C704.113,92.448 703.431,92.158 702.716,92.152 C702.002,92.145 701.314,92.423 700.804,92.925 L672.535,120.689 L666.198,114.463 C665.137,113.421 663.432,113.437 662.39,114.498 C661.349,115.559 661.364,117.264 662.425,118.306 L670.647,126.383 C671.695,127.413 673.375,127.413 674.423,126.383 L704.577,96.768 C705.087,96.267 705.378,95.585 705.385,94.871 C705.392,94.156 705.115,93.468 704.614,92.958 Z" />
        </g>
    </g>
</svg>