<?xml version="1.0" encoding="UTF-8"?>
<svg height="600" width="800" xmlns="http://www.w3.org/2000/svg" xmlns:xlink="http://www.w3.org/1999/xlink">
    <g id="Notes" font-family="'LucidaGrande', 'Lucida Grande', sans-serif" font-size="13">
        <rect fill="white" height="600.0" width="800.0" x="0.0" y="0.0" />
        <g font-size="13">
            <text x="18.0" y="176.0">Small</text>
            <text x="18.0" y="376.0">Medium</text>
            <text x="18.0" y="576.0">Large</text>
        </g>
        <g font-size="9">
            <text x="250.0" y="30.0">Ultralight</text>
            <text x="450.0" y="30.0">Regular</text>
            <text x="650.0" y="30.0">Black</text>
            <text id="template-version" fill="#505050" text-anchor="end" x="785.0" y="575.0">Template v.3.0</text>
            <a href="https://github.com/swhitty/SwiftDraw">
                <text fill="#505050" text-anchor="end" x="785.0" y="590.0">https://github.com/swhitty/SwiftDraw</text>
            </a>
        </g>
    </g>
    <g id="Guides" stroke="rgb(39, 170, 225)" stroke-width="0.5">
        <path id="Capline-S" d="M18,76 l800,0" />
        <path id="H-reference" d="M85,145.755 L87.685,145.755 L113.369,79.287 L114.052,79.287 L114.052,76 L112.148,76 L85,145.755 Z M95.693,121.536 L130.996,121.536 L130.263,119.313 L96.474,119.313 L95.693,121.536 Z M139.15,145.755 L141.787,145.755 L114.638,76 L113.466,76 L113.466,79.287 L139.15,145.755 Z" stroke="none" />
        <path id="Baseline-S" d="M18,146 l800,0" />
        <path id="left-margin-Ultralight-S" d="M220,56 l0,110" />
        <path id="right-margin-Ultralight-S" d="M310,56 l0,110" />
        <path id="left-margin-Regular-S" d="M420,56 l0,110" />
        <path id="right-margin-Regular-S" d="M510,56 l0,110" />
        <path id="left-margin-Black-S" d="M620,56 l0,110" />
        <path id="right-margin-Black-S" d="M710,56 l0,110" />
        <path id="Capline-M" d="M18,276 l800,0" />
        <path id="Baseline-M" d="M18,346 l800,0" />
        <path id="Capline-L" d="M18,476 l800,0" />
        <path id="Baseline-L" d="M18,546 l800,0" />
    </g>
    <g id="Symbols">
        <g id="Ultralight-S">
            <path d="M231.346,111 C229.859,111 228.654,109.795 228.654,108.308 C228.654,106.821 229.859,105.615 231.346,105.615 L240.769,105.615 C242.256,105.615 243.462,104.41 243.462,102.923 C243.462,101.436 242.256,100.231 240.769,100.231 L235.385,100.231 C230.924,100.231 227.308,96.615 227.308,92.154 C227.308,87.693 230.924,84.077 235.385,84.077 C235.385,82.59 236.59,81.385 238.077,81.385 C239.564,81.385 240.769,82.59 240.769,84.077 L243.462,84.077 C244.948,84.077 246.154,85.282 246.154,86.769 C246.154,88.256 244.948,89.462 243.462,89.462 L235.385,89.462 C233.898,89.462 232.692,90.667 232.692,92.154 C232.692,93.641 233.898,94.846 235.385,94.846 L240.769,94.846 C245.23,94.846 248.846,98.462 248.846,102.923 C248.846,107.384 245.23,111 240.769,111 C240.769,112.487 239.564,113.692 238.077,113.692 C236.59,113.692 235.385,112.487 235.385,111 Z M300,86.769 L300,132.538 C300,133.967 299.433,135.336 298.423,136.346 C297.413,137.356 296.043,137.923 294.615,137.923 L235.385,137.923 C233.957,137.923 232.587,137.356 231.577,136.346 C230.567,135.336 230,133.967 230,132.538 L230,119.077 C230,117.59 231.205,116.385 232.692,116.385 C234.179,116.385 235.385,117.59 235.385,119.077 L235.385,132.538 L275.769,132.538 L275.769,121.769 L248.846,121.769 C247.359,121.769 246.154,120.564 246.154,119.077 C246.154,117.59 247.359,116.385 248.846,116.385 L275.769,116.385 L275.769,105.615 L256.923,105.615 C255.436,105.615 254.231,104.41 254.231,102.923 C254.231,101.436 255.436,100.231 256.923,100.231 L294.615,100.231 L294.615,89.462 L254.231,89.462 C252.744,89.462 251.538,88.256 251.538,86.769 C251.538,85.282 252.744,84.077 254.231,84.077 L297.308,84.077 C298.022,84.077 298.707,84.361 299.211,84.865 C299.716,85.37 300,86.055 300,86.769 Z M281.154,116.385 L294.615,116.385 L294.615,105.615 L281.154,105.615 Z M294.615,132.538 L294.615,121.769 L281.154,121.769 L281.154,132.538 Z" />
        </g>
        <g id="Regular-S">
            <path d="M431.346,111 C429.859,111 428.654,109.795 428.654,108.308 C428.654,106.821 429.859,105.615 431.346,105.615 L440.769,105.615 C442.256,105.615 443.462,104.41 443.462,102.923 C443.462,101.436 442.256,100.231 440.769,100.231 L435.385,100.231 C430.924,100.231 427.308,96.615 427.308,92.154 C427.308,87.693 430.924,84.077 435.385,84.077 C435.385,82.59 436.59,81.385 438.077,81.385 C439.564,81.385 440.769,82.59 440.769,84.077 L443.462,84.077 C444.948,84.077 446.154,85.282 446.154,86.769 C446.154,88.256 444.948,89.462 443.462,89.462 L435.385,89.462 C433.898,89.462 432.692,90.667 432.692,92.154 C432.692,93.641 433.898,94.846 435.385,94.846 L440.769,94.846 C445.23,94.846 448.846,98.462 448.846,102.923 C448.846,107.384 445.23,111 440.769,111 C440.769,112.487 439.564,113.692 438.077,113.692 C436.59,113.692 435.385,112.487 435.385,111 Z M500,86.769 L500,132.538 C500,133.967 499.433,135.336 498.423,136.346 C497.413,137.356 496.043,137.923 494.615,137.923 L435.385,137.923 C433.957,137.923 432.587,137.356 431.577,136.346 C430.567,135.336 430,133.967 430,132.538 L430,119.077 C430,117.59 431.205,116.385 432.692,116.385 C434.179,116.385 435.385,117.59 435.385,119.077 L435.385,132.538 L475.769,132.538 L475.769,121.769 L448.846,121.769 C447.359,121.769 446.154,120.564 446.154,119.077 C446.154,117.59 447.359,116.385 448.846,116.385 L475.769,116.385 L475.769,105.615 L456.923,105.615 C455.436,105.615 454.231,104.41 454.231,102.923 C454.231,101.436 455.436,100.231 456.923,100.231 L494.615,100.231 L494.615,89.462 L454.231,89.462 C452.744,89.462 451.538,88.256 451.538,86.769 C451.538,85.282 452.744,84.077 454.231,84.077 L497.308,84.077 C498.022,84.077 498.707,84.361 499.211,84.865 C499.716,85.37 500,86.055 500,86.769 Z M481.154,116.385 L494.615,116.385 L494.615,105.615 L481.154,105.615 Z M494.615,132.538 L494.615,121.769 L481.154,121.769 L481.154,132.538 Z" />
        </g>
        <g id="Black-S">
            <path d="M631.346,111 C629.859,111 628.654,109.795 628.654,108.308 C628.654,106.821 629.859,105.615 631.346,105.615 L640.769,105.615 C642.256,105.615 643.462,104.41 643.462,102.923 C643.462,101.436 642.256,100.231 640.769,100.231 L635.385,100.231 C630.924,100.231 627.308,96.615 627.308,92.154 C627.308,87.693 630.924,84.077 635.385,84.077 C635.385,82.59 636.59,81.385 638.077,81.385 C639.564,81.385 640.769,82.59 640.769,84.077 L643.462,84.077 C644.948,84.077 646.154,85.282 646.154,86.769 C646.154,88.256 644.948,89.462 643.462,89.462 L635.385,89.462 C633.898,89.462 632.692,90.667 632.692,92.154 C632.692,93.641 633.898,94.846 635.385,94.846 L640.769,94.846 C645.23,94.846 648.846,98.462 648.846,102.923 C648.846,107.384 645.23,111 640.769,111 C640.769,112.487 639.564,113.692 638.077,113.692 C636.59,113.692 635.385,112.487 635.385,111 Z M700,86.769 L700,132.538 C700,133.967 699.433,135.336 698.423,136.346 C697.413,137.356 696.044,137.923 694.615,137.923 L635.385,137.923 C633.957,137.923 632.587,137.356 631.577,136.346 C630.567,135.336 630,133.967 630,132.538 L630,119.077 C630,117.59 631.205,116.385 632.692,116.385 C634.179,116.385 635.385,117.59 635.385,119.077 L635.385,132.538 L675.769,132.538 L675.769,121.769 L648.846,121.769 C647.359,121.769 646.154,120.564 646.154,119.077 C646.154,117.59 647.359,116.385 648.846,116.385 L675.769,116.385 L675.769,105.615 L656.923,105.615 C655.436,105.615 654.231,104.41 654.231,102.923 C654.231,101.436 655.436,100.231 656.923,100.231 L694.615,100.231 L694.615,89.462 L654.231,89.462 C652.744,89.462 651.538,88.256 651.538,86.769 C651.538,85.282 652.744,84.077 654.231,84.077 L697.308,84.077 C698.022,84.077 698.707,84.361 699.211,84.865 C699.716,85.37 700,86.055 700,86.769 Z M681.154,116.385 L694.615,116.385 L694.615,105.615 L681.154,105.615 Z M694.615,132.538 L694.615,121.769 L681.154,121.769 L681.154,132.538 Z" />
        </g>
    </g>
</svg>