<?xml version="1.0" encoding="UTF-8"?>
<svg height="600" width="800" xmlns="http://www.w3.org/2000/svg" xmlns:xlink="http://www.w3.org/1999/xlink">
    <g id="Notes" font-family="'LucidaGrande', 'Lucida Grande', sans-serif" font-size="13">
        <rect fill="white" height="600.0" width="800.0" x="0.0" y="0.0" />
        <g font-size="13">
            <text x="18.0" y="176.0">Small</text>
            <text x="18.0" y="376.0">Medium</text>
            <text x="18.0" y="576.0">Large</text>
        </g>
        <g font-size="9">
            <text x="250.0" y="30.0">Ultralight</text>
            <text x="450.0" y="30.0">Regular</text>
            <text x="650.0" y="30.0">Black</text>
            <text id="template-version" fill="#505050" text-anchor="end" x="785.0" y="575.0">Template v.3.0</text>
            <a href="https://github.com/swhitty/SwiftDraw">
                <text fill="#505050" text-anchor="end" x="785.0" y="590.0">https://github.com/swhitty/SwiftDraw</text>
            </a>
        </g>
    </g>
    <g id="Guides" stroke="rgb(39, 170, 225)" stroke-width="0.5">
        <path id="Capline-S" d="M18,76 l800,0" />
        <path id="H-reference" d="M85,145.755 L87.685,145.755 L113.369,79.287 L114.052,79.287 L114.052,76 L112.148,76 L85,145.755 Z M95.693,121.536 L130.996,121.536 L130.263,119.313 L96.474,119.313 L95.693,121.536 Z M139.15,145.755 L141.787,145.755 L114.638,76 L113.466,76 L113.466,79.287 L139.15,145.755 Z" stroke="none" />
        <path id="Baseline-S" d="M18,146 l800,0" />
        <path id="left-margin-Ultralight-S" d="M220,56 l0,110" />
        <path id="right-margin-Ultralight-S" d="M310,56 l0,110" />
        <path id="left-margin-Regular-S" d="M420,56 l0,110" />
        <path id="right-margin-Regular-S" d="M510,56 l0,110" />
        <path id="left-margin-Black-S" d="M620,56 l0,110" />
        <path id="right-margin-Black-S" d="M710,56 l0,110" />
        <path id="Capline-M" d="M18,276 l800,0" />
        <path id="Baseline-M" d="M18,346 l800,0" />
        <path id="Capline-L" d="M18,476 l800,0" />
        <path id="Baseline-L" d="M18,546 l800,0" />
    </g>
    <g id="Symbols">
        <g id="Ultralight-S">
            <path d="M294.952,79.635 C293.487,78.629 291.62,78.413 289.964,79.059 C285.243,80.897 275.709,83.979 265,83.979 C254.291,83.979 244.754,80.897 240.025,79.059 C238.369,78.416 236.502,78.632 235.036,79.635 C233.57,80.638 232.693,82.3 232.692,84.077 L232.692,102.846 C232.692,114.907 235.94,126.286 241.839,134.877 C247.951,143.782 256.176,148.675 265,148.675 C273.824,148.675 282.049,143.772 288.161,134.877 C294.06,126.292 297.308,114.914 297.308,102.852 L297.308,84.077 C297.305,82.298 296.423,80.635 294.952,79.635 Z M291.923,102.856 C291.923,113.84 289.009,124.135 283.722,131.842 C278.643,139.236 271.997,143.308 265,143.308 C258.003,143.308 251.357,139.236 246.278,131.838 C240.991,124.125 238.077,113.837 238.077,102.852 L238.077,84.077 C243.162,86.052 253.416,89.364 265,89.364 C276.584,89.364 286.841,86.052 291.923,84.077 L291.923,102.859 Z M285.865,109.206 C286.858,110.332 286.751,112.039 285.633,113.026 C284.514,114.012 282.807,113.905 281.82,112.786 C280.919,111.777 278.842,110.993 277.109,110.993 C275.376,110.993 273.286,111.78 272.397,112.786 C271.414,113.898 269.709,114.002 268.594,113.014 C267.478,112.027 267.374,110.322 268.362,109.207 C270.283,107.06 273.793,105.62 277.112,105.62 C280.43,105.62 283.93,107.056 285.865,109.203 Z M252.885,111 C251.138,111 249.062,111.788 248.173,112.794 C247.193,113.905 245.486,114.012 244.367,113.025 C243.247,112.038 243.14,110.33 244.127,109.211 C246.07,107.056 249.58,105.615 252.885,105.615 C256.189,105.615 259.7,107.056 261.635,109.203 C262.629,110.33 262.522,112.038 261.403,113.025 C260.283,114.012 258.576,113.905 257.589,112.786 C256.708,111.788 254.631,111 252.885,111 Z M278.613,126.208 C275.23,130.222 270.249,132.538 265,132.538 C259.751,132.538 254.77,130.222 251.387,126.208 C250.421,125.077 250.556,123.377 251.687,122.412 C252.818,121.446 254.518,121.581 255.483,122.712 C257.842,125.528 261.327,127.155 265,127.155 C268.674,127.155 272.159,125.528 274.518,122.712 C275.483,121.581 277.182,121.447 278.313,122.412 C279.445,123.377 279.579,125.077 278.613,126.208 Z" />
        </g>
        <g id="Regular-S">
            <path d="M494.952,79.635 C493.487,78.629 491.62,78.413 489.964,79.059 C485.243,80.897 475.709,83.979 465,83.979 C454.291,83.979 444.754,80.897 440.025,79.059 C438.369,78.416 436.502,78.632 435.036,79.635 C433.57,80.638 432.693,82.3 432.692,84.077 L432.692,102.846 C432.692,114.907 435.94,126.286 441.839,134.877 C447.951,143.782 456.176,148.675 465,148.675 C473.824,148.675 482.049,143.772 488.161,134.877 C494.06,126.292 497.308,114.914 497.308,102.852 L497.308,84.077 C497.305,82.298 496.423,80.635 494.952,79.635 Z M491.923,102.856 C491.923,113.84 489.009,124.135 483.722,131.842 C478.643,139.236 471.997,143.308 465,143.308 C458.003,143.308 451.357,139.236 446.278,131.838 C440.991,124.125 438.077,113.837 438.077,102.852 L438.077,84.077 C443.162,86.052 453.416,89.364 465,89.364 C476.584,89.364 486.841,86.052 491.923,84.077 L491.923,102.859 Z M485.865,109.206 C486.858,110.332 486.751,112.039 485.633,113.026 C484.514,114.012 482.807,113.905 481.82,112.786 C480.919,111.777 478.842,110.993 477.109,110.993 C475.376,110.993 473.286,111.78 472.397,112.786 C471.414,113.898 469.709,114.002 468.594,113.014 C467.478,112.027 467.374,110.322 468.362,109.207 C470.283,107.06 473.793,105.62 477.112,105.62 C480.43,105.62 483.93,107.056 485.865,109.203 Z M452.885,111 C451.138,111 449.062,111.788 448.173,112.794 C447.193,113.905 445.486,114.012 444.367,113.025 C443.247,112.038 443.14,110.33 444.127,109.211 C446.07,107.056 449.58,105.615 452.885,105.615 C456.189,105.615 459.7,107.056 461.635,109.203 C462.629,110.33 462.522,112.038 461.403,113.025 C460.283,114.012 458.576,113.905 457.589,112.786 C456.708,111.788 454.631,111 452.885,111 Z M478.613,126.208 C475.23,130.222 470.249,132.538 465,132.538 C459.751,132.538 454.77,130.222 451.387,126.208 C450.421,125.077 450.556,123.377 451.687,122.412 C452.818,121.446 454.518,121.581 455.483,122.712 C457.842,125.528 461.327,127.155 465,127.155 C468.674,127.155 472.159,125.528 474.518,122.712 C475.483,121.581 477.182,121.447 478.313,122.412 C479.445,123.377 479.579,125.077 478.613,126.208 Z" />
        </g>
        <g id="Black-S">
            <path d="M694.952,79.635 C693.487,78.629 691.62,78.413 689.964,79.059 C685.243,80.897 675.709,83.979 665,83.979 C654.291,83.979 644.754,80.897 640.026,79.059 C638.369,78.416 636.502,78.632 635.036,79.635 C633.57,80.638 632.693,82.3 632.692,84.077 L632.692,102.846 C632.692,114.907 635.94,126.286 641.839,134.877 C647.951,143.782 656.176,148.675 665,148.675 C673.824,148.675 682.049,143.772 688.161,134.877 C694.06,126.292 697.308,114.914 697.308,102.852 L697.308,84.077 C697.305,82.298 696.423,80.635 694.952,79.635 Z M691.923,102.856 C691.923,113.84 689.009,124.135 683.722,131.842 C678.643,139.236 671.997,143.308 665,143.308 C658.003,143.308 651.357,139.236 646.278,131.838 C640.991,124.125 638.077,113.837 638.077,102.852 L638.077,84.077 C643.162,86.052 653.416,89.364 665,89.364 C676.584,89.364 686.841,86.052 691.923,84.077 L691.923,102.859 Z M685.865,109.206 C686.858,110.332 686.751,112.039 685.633,113.026 C684.514,114.012 682.807,113.905 681.82,112.786 C680.919,111.777 678.842,110.993 677.109,110.993 C675.376,110.993 673.286,111.78 672.397,112.786 C671.414,113.898 669.709,114.002 668.594,113.014 C667.478,112.027 667.374,110.322 668.362,109.207 C670.283,107.06 673.793,105.62 677.112,105.62 C680.43,105.62 683.93,107.056 685.865,109.203 Z M652.885,111 C651.138,111 649.062,111.788 648.173,112.794 C647.193,113.905 645.486,114.012 644.367,113.025 C643.247,112.038 643.14,110.33 644.127,109.211 C646.07,107.056 649.58,105.615 652.885,105.615 C656.189,105.615 659.7,107.056 661.635,109.203 C662.629,110.33 662.522,112.038 661.403,113.025 C660.283,114.012 658.576,113.905 657.589,112.786 C656.708,111.788 654.631,111 652.885,111 Z M678.613,126.208 C675.23,130.222 670.249,132.538 665,132.538 C659.751,132.538 654.77,130.222 651.387,126.208 C650.421,125.077 650.556,123.377 651.687,122.412 C652.818,121.446 654.518,121.581 655.483,122.712 C657.842,125.528 661.327,127.155 665,127.155 C668.674,127.155 672.159,125.528 674.518,122.712 C675.483,121.581 677.182,121.447 678.313,122.412 C679.445,123.377 679.579,125.077 678.613,126.208 Z" />
        </g>
    </g>
</svg>