<?xml version="1.0" encoding="UTF-8"?>
<svg height="600" width="800" xmlns="http://www.w3.org/2000/svg" xmlns:xlink="http://www.w3.org/1999/xlink">
    <g id="Notes" font-family="'LucidaGrande', 'Lucida Grande', sans-serif" font-size="13">
        <rect fill="white" height="600.0" width="800.0" x="0.0" y="0.0" />
        <g font-size="13">
            <text x="18.0" y="176.0">Small</text>
            <text x="18.0" y="376.0">Medium</text>
            <text x="18.0" y="576.0">Large</text>
        </g>
        <g font-size="9">
            <text x="250.0" y="30.0">Ultralight</text>
            <text x="450.0" y="30.0">Regular</text>
            <text x="650.0" y="30.0">Black</text>
            <text id="template-version" fill="#505050" text-anchor="end" x="785.0" y="575.0">Template v.3.0</text>
            <a href="https://github.com/swhitty/SwiftDraw">
                <text fill="#505050" text-anchor="end" x="785.0" y="590.0">https://github.com/swhitty/SwiftDraw</text>
            </a>
        </g>
    </g>
    <g id="Guides" stroke="rgb(39, 170, 225)" stroke-width="0.5">
        <path id="Capline-S" d="M18,76 l800,0" />
        <path id="H-reference" d="M85,145.755 L87.685,145.755 L113.369,79.287 L114.052,79.287 L114.052,76 L112.148,76 L85,145.755 Z M95.693,121.536 L130.996,121.536 L130.263,119.313 L96.474,119.313 L95.693,121.536 Z M139.15,145.755 L141.787,145.755 L114.638,76 L113.466,76 L113.466,79.287 L139.15,145.755 Z" stroke="none" />
        <path id="Baseline-S" d="M18,146 l800,0" />
        <path id="left-margin-Ultralight-S" d="M220,56 l0,110" />
        <path id="right-margin-Ultralight-S" d="M310,56 l0,110" />
        <path id="left-margin-Regular-S" d="M420,56 l0,110" />
        <path id="right-margin-Regular-S" d="M510,56 l0,110" />
        <path id="left-margin-Black-S" d="M620,56 l0,110" />
        <path id="right-margin-Black-S" d="M710,56 l0,110" />
        <path id="Capline-M" d="M18,276 l800,0" />
        <path id="Baseline-M" d="M18,346 l800,0" />
        <path id="Capline-L" d="M18,476 l800,0" />
        <path id="Baseline-L" d="M18,546 l800,0" />
    </g>
    <g id="Symbols">
        <g id="Ultralight-S">
            <path d="M294.158,81.842 C290.324,77.998 284.228,77.608 279.937,80.933 C275.645,84.258 274.499,90.258 277.263,94.93 L248.93,123.263 C244.698,120.775 239.318,121.458 235.842,124.926 L235.842,124.926 C231.886,128.884 231.621,135.212 235.232,139.488 C238.843,143.763 245.126,144.56 249.691,141.322 C254.255,138.084 255.578,131.89 252.737,127.07 L281.07,98.737 C285.742,101.501 291.742,100.355 295.067,96.063 C298.392,91.772 298.002,85.676 294.158,81.842 Z M247.268,136.362 C245.167,138.465 241.756,138.466 239.651,136.364 C237.546,134.261 237.544,130.85 239.646,128.744 L239.646,128.744 C240.656,127.734 242.026,127.167 243.454,127.167 C244.883,127.167 246.252,127.734 247.262,128.744 L247.262,128.744 C249.361,130.845 249.364,134.248 247.268,136.351 Z M290.345,93.285 C288.242,95.387 284.833,95.387 282.73,93.284 C280.627,91.181 280.627,87.772 282.73,85.669 C284.833,83.567 288.242,83.566 290.345,85.669 C292.437,87.767 292.44,91.162 290.351,93.264 Z" />
        </g>
        <g id="Regular-S">
            <path d="M494.158,81.842 C490.324,77.998 484.228,77.608 479.937,80.933 C475.645,84.258 474.499,90.258 477.263,94.93 L448.93,123.263 C444.698,120.775 439.318,121.458 435.842,124.926 L435.842,124.926 C431.886,128.884 431.621,135.212 435.232,139.488 C438.843,143.763 445.126,144.56 449.691,141.322 C454.255,138.084 455.578,131.89 452.737,127.07 L481.07,98.737 C485.742,101.501 491.742,100.355 495.067,96.063 C498.392,91.772 498.002,85.676 494.158,81.842 Z M447.268,136.362 C445.167,138.465 441.756,138.466 439.651,136.364 C437.546,134.261 437.544,130.85 439.646,128.744 L439.646,128.744 C440.656,127.734 442.026,127.167 443.454,127.167 C444.883,127.167 446.252,127.734 447.262,128.744 L447.262,128.744 C449.361,130.845 449.364,134.248 447.268,136.351 Z M490.345,93.285 C488.242,95.387 484.833,95.387 482.73,93.284 C480.627,91.181 480.627,87.772 482.73,85.669 C484.833,83.567 488.242,83.566 490.345,85.669 C492.437,87.767 492.44,91.162 490.351,93.264 Z" />
        </g>
        <g id="Black-S">
            <path d="M694.158,81.842 C690.324,77.998 684.229,77.608 679.937,80.933 C675.645,84.258 674.499,90.258 677.263,94.93 L648.93,123.263 C644.698,120.775 639.318,121.458 635.842,124.926 L635.842,124.926 C631.886,128.884 631.621,135.212 635.232,139.488 C638.843,143.763 645.126,144.56 649.691,141.322 C654.255,138.084 655.578,131.89 652.737,127.07 L681.07,98.737 C685.742,101.501 691.742,100.355 695.067,96.063 C698.392,91.772 698.002,85.676 694.158,81.842 Z M647.268,136.362 C645.167,138.465 641.756,138.466 639.651,136.364 C637.546,134.261 637.544,130.85 639.646,128.744 L639.646,128.744 C640.656,127.734 642.026,127.167 643.454,127.167 C644.883,127.167 646.253,127.734 647.262,128.744 L647.262,128.744 C649.361,130.845 649.364,134.248 647.268,136.351 Z M690.345,93.285 C688.242,95.387 684.833,95.387 682.73,93.284 C680.627,91.181 680.627,87.772 682.73,85.669 C684.833,83.567 688.242,83.566 690.345,85.669 C692.437,87.767 692.44,91.162 690.351,93.264 Z" />
        </g>
    </g>
</svg>