<?xml version="1.0" encoding="UTF-8"?>
<svg height="600" width="800" xmlns="http://www.w3.org/2000/svg" xmlns:xlink="http://www.w3.org/1999/xlink">
    <g id="Notes" font-family="'LucidaGrande', 'Lucida Grande', sans-serif" font-size="13">
        <rect fill="white" height="600.0" width="800.0" x="0.0" y="0.0" />
        <g font-size="13">
            <text x="18.0" y="176.0">Small</text>
            <text x="18.0" y="376.0">Medium</text>
            <text x="18.0" y="576.0">Large</text>
        </g>
        <g font-size="9">
            <text x="250.0" y="30.0">Ultralight</text>
            <text x="450.0" y="30.0">Regular</text>
            <text x="650.0" y="30.0">Black</text>
            <text id="template-version" fill="#505050" text-anchor="end" x="785.0" y="575.0">Template v.3.0</text>
            <a href="https://github.com/swhitty/SwiftDraw">
                <text fill="#505050" text-anchor="end" x="785.0" y="590.0">https://github.com/swhitty/SwiftDraw</text>
            </a>
        </g>
    </g>
    <g id="Guides" stroke="rgb(39, 170, 225)" stroke-width="0.5">
        <path id="Capline-S" d="M18,76 l800,0" />
        <path id="H-reference" d="M85,145.755 L87.685,145.755 L113.369,79.287 L114.052,79.287 L114.052,76 L112.148,76 L85,145.755 Z M95.693,121.536 L130.996,121.536 L130.263,119.313 L96.474,119.313 L95.693,121.536 Z M139.15,145.755 L141.787,145.755 L114.638,76 L113.466,76 L113.466,79.287 L139.15,145.755 Z" stroke="none" />
        <path id="Baseline-S" d="M18,146 l800,0" />
        <path id="left-margin-Ultralight-S" d="M220,56 l0,110" />
        <path id="right-margin-Ultralight-S" d="M310,56 l0,110" />
        <path id="left-margin-Regular-S" d="M420,56 l0,110" />
        <path id="right-margin-Regular-S" d="M510,56 l0,110" />
        <path id="left-margin-Black-S" d="M620,56 l0,110" />
        <path id="right-margin-Black-S" d="M710,56 l0,110" />
        <path id="Capline-M" d="M18,276 l800,0" />
        <path id="Baseline-M" d="M18,346 l800,0" />
        <path id="Capline-L" d="M18,476 l800,0" />
        <path id="Baseline-L" d="M18,546 l800,0" />
    </g>
    <g id="Symbols">
        <g id="Ultralight-S">
            <path d="M297.308,84.077 L297.308,119.077 C297.308,120.505 296.74,121.875 295.731,122.884 C294.721,123.894 293.351,124.462 291.923,124.462 L255.345,124.462 L258.828,127.941 C259.88,128.995 259.879,130.701 258.827,131.752 C257.774,132.803 256.069,132.802 255.017,131.75 L246.94,123.673 C246.435,123.168 246.151,122.483 246.151,121.768 C246.151,121.054 246.435,120.368 246.94,119.863 L255.017,111.786 C256.068,110.735 257.773,110.734 258.826,111.785 C259.878,112.837 259.879,114.542 258.828,115.595 L255.345,119.077 L291.923,119.077 L291.923,84.077 L254.231,84.077 L254.231,86.769 C254.231,88.256 253.025,89.462 251.538,89.462 C250.052,89.462 248.846,88.256 248.846,86.769 L248.846,84.077 C248.846,82.649 249.413,81.279 250.423,80.269 C251.433,79.26 252.803,78.692 254.231,78.692 L291.923,78.692 C293.351,78.692 294.721,79.26 295.731,80.269 C296.74,81.279 297.308,82.649 297.308,84.077 Z M278.462,132.538 C277.747,132.538 277.063,132.822 276.558,133.327 C276.053,133.832 275.769,134.517 275.769,135.231 L275.769,137.923 L238.077,137.923 L238.077,102.923 L274.655,102.923 L271.172,106.403 C270.12,107.457 270.121,109.162 271.173,110.214 C272.226,111.265 273.931,111.264 274.983,110.211 L283.06,102.135 C283.565,101.63 283.849,100.944 283.849,100.23 C283.849,99.515 283.565,98.83 283.06,98.325 L274.983,90.248 C273.932,89.196 272.227,89.196 271.174,90.247 C270.122,91.298 270.121,93.004 271.172,94.057 L274.655,97.538 L238.077,97.538 C236.649,97.538 235.279,98.106 234.269,99.116 C233.26,100.125 232.692,101.495 232.692,102.923 L232.692,137.923 C232.692,139.351 233.26,140.721 234.269,141.731 C235.279,142.74 236.649,143.308 238.077,143.308 L275.769,143.308 C277.197,143.308 278.567,142.74 279.577,141.731 C280.587,140.721 281.154,139.351 281.154,137.923 L281.154,135.231 C281.154,134.517 280.87,133.832 280.365,133.327 C279.86,132.822 279.176,132.538 278.462,132.538 Z" />
        </g>
        <g id="Regular-S">
            <path d="M497.308,84.077 L497.308,119.077 C497.308,120.505 496.74,121.875 495.731,122.884 C494.721,123.894 493.351,124.462 491.923,124.462 L455.345,124.462 L458.828,127.941 C459.88,128.995 459.879,130.701 458.827,131.752 C457.774,132.803 456.069,132.802 455.017,131.75 L446.94,123.673 C446.435,123.168 446.151,122.483 446.151,121.768 C446.151,121.054 446.435,120.368 446.94,119.863 L455.017,111.786 C456.068,110.735 457.773,110.734 458.826,111.785 C459.878,112.837 459.879,114.542 458.828,115.595 L455.345,119.077 L491.923,119.077 L491.923,84.077 L454.231,84.077 L454.231,86.769 C454.231,88.256 453.025,89.462 451.538,89.462 C450.052,89.462 448.846,88.256 448.846,86.769 L448.846,84.077 C448.846,82.649 449.413,81.279 450.423,80.269 C451.433,79.26 452.803,78.692 454.231,78.692 L491.923,78.692 C493.351,78.692 494.721,79.26 495.731,80.269 C496.74,81.279 497.308,82.649 497.308,84.077 Z M478.462,132.538 C477.747,132.538 477.063,132.822 476.558,133.327 C476.053,133.832 475.769,134.517 475.769,135.231 L475.769,137.923 L438.077,137.923 L438.077,102.923 L474.655,102.923 L471.172,106.403 C470.12,107.457 470.121,109.162 471.173,110.214 C472.226,111.265 473.931,111.264 474.983,110.211 L483.06,102.135 C483.565,101.63 483.849,100.944 483.849,100.23 C483.849,99.515 483.565,98.83 483.06,98.325 L474.983,90.248 C473.932,89.196 472.227,89.196 471.174,90.247 C470.122,91.298 470.121,93.004 471.172,94.057 L474.655,97.538 L438.077,97.538 C436.649,97.538 435.279,98.106 434.269,99.116 C433.26,100.125 432.692,101.495 432.692,102.923 L432.692,137.923 C432.692,139.351 433.26,140.721 434.269,141.731 C435.279,142.74 436.649,143.308 438.077,143.308 L475.769,143.308 C477.197,143.308 478.567,142.74 479.577,141.731 C480.587,140.721 481.154,139.351 481.154,137.923 L481.154,135.231 C481.154,134.517 480.87,133.832 480.365,133.327 C479.86,132.822 479.176,132.538 478.462,132.538 Z" />
        </g>
        <g id="Black-S">
            <path d="M697.308,84.077 L697.308,119.077 C697.308,120.505 696.74,121.875 695.731,122.884 C694.721,123.894 693.351,124.462 691.923,124.462 L655.345,124.462 L658.828,127.941 C659.88,128.995 659.879,130.701 658.827,131.752 C657.774,132.803 656.069,132.802 655.017,131.75 L646.94,123.673 C646.435,123.168 646.151,122.483 646.151,121.768 C646.151,121.054 646.435,120.368 646.94,119.863 L655.017,111.786 C656.068,110.735 657.773,110.734 658.826,111.785 C659.878,112.837 659.879,114.542 658.828,115.595 L655.345,119.077 L691.923,119.077 L691.923,84.077 L654.231,84.077 L654.231,86.769 C654.231,88.256 653.025,89.462 651.538,89.462 C650.052,89.462 648.846,88.256 648.846,86.769 L648.846,84.077 C648.846,82.649 649.413,81.279 650.423,80.269 C651.433,79.26 652.803,78.692 654.231,78.692 L691.923,78.692 C693.351,78.692 694.721,79.26 695.731,80.269 C696.74,81.279 697.308,82.649 697.308,84.077 Z M678.462,132.538 C677.747,132.538 677.063,132.822 676.558,133.327 C676.053,133.832 675.769,134.517 675.769,135.231 L675.769,137.923 L638.077,137.923 L638.077,102.923 L674.655,102.923 L671.172,106.403 C670.12,107.457 670.121,109.162 671.173,110.214 C672.226,111.265 673.931,111.264 674.983,110.211 L683.06,102.135 C683.565,101.63 683.849,100.944 683.849,100.23 C683.849,99.515 683.565,98.83 683.06,98.325 L674.983,90.248 C673.932,89.196 672.227,89.196 671.174,90.247 C670.122,91.298 670.121,93.004 671.172,94.057 L674.655,97.538 L638.077,97.538 C636.649,97.538 635.279,98.106 634.269,99.116 C633.26,100.125 632.692,101.495 632.692,102.923 L632.692,137.923 C632.692,139.351 633.26,140.721 634.269,141.731 C635.279,142.74 636.649,143.308 638.077,143.308 L675.769,143.308 C677.197,143.308 678.567,142.74 679.577,141.731 C680.587,140.721 681.154,139.351 681.154,137.923 L681.154,135.231 C681.154,134.517 680.87,133.832 680.365,133.327 C679.86,132.822 679.176,132.538 678.462,132.538 Z" />
        </g>
    </g>
</svg>