<?xml version="1.0" encoding="UTF-8"?>
<svg height="600" width="800" xmlns="http://www.w3.org/2000/svg" xmlns:xlink="http://www.w3.org/1999/xlink">
    <g id="Notes" font-family="'LucidaGrande', 'Lucida Grande', sans-serif" font-size="13">
        <rect fill="white" height="600.0" width="800.0" x="0.0" y="0.0" />
        <g font-size="13">
            <text x="18.0" y="176.0">Small</text>
            <text x="18.0" y="376.0">Medium</text>
            <text x="18.0" y="576.0">Large</text>
        </g>
        <g font-size="9">
            <text x="250.0" y="30.0">Ultralight</text>
            <text x="450.0" y="30.0">Regular</text>
            <text x="650.0" y="30.0">Black</text>
            <text id="template-version" fill="#505050" text-anchor="end" x="785.0" y="575.0">Template v.3.0</text>
            <a href="https://github.com/swhitty/SwiftDraw">
                <text fill="#505050" text-anchor="end" x="785.0" y="590.0">https://github.com/swhitty/SwiftDraw</text>
            </a>
        </g>
    </g>
    <g id="Guides" stroke="rgb(39, 170, 225)" stroke-width="0.5">
        <path id="Capline-S" d="M18,76 l800,0" />
        <path id="H-reference" d="M85,145.755 L87.685,145.755 L113.369,79.287 L114.052,79.287 L114.052,76 L112.148,76 L85,145.755 Z M95.693,121.536 L130.996,121.536 L130.263,119.313 L96.474,119.313 L95.693,121.536 Z M139.15,145.755 L141.787,145.755 L114.638,76 L113.466,76 L113.466,79.287 L139.15,145.755 Z" stroke="none" />
        <path id="Baseline-S" d="M18,146 l800,0" />
        <path id="left-margin-Ultralight-S" d="M220,56 l0,110" />
        <path id="right-margin-Ultralight-S" d="M310,56 l0,110" />
        <path id="left-margin-Regular-S" d="M420,56 l0,110" />
        <path id="right-margin-Regular-S" d="M510,56 l0,110" />
        <path id="left-margin-Black-S" d="M620,56 l0,110" />
        <path id="right-margin-Black-S" d="M710,56 l0,110" />
        <path id="Capline-M" d="M18,276 l800,0" />
        <path id="Baseline-M" d="M18,346 l800,0" />
        <path id="Capline-L" d="M18,476 l800,0" />
        <path id="Baseline-L" d="M18,546 l800,0" />
    </g>
    <g id="Symbols">
        <g id="Ultralight-S">
            <path d="M294.615,119.107 L294.615,140.615 C294.615,141.329 294.332,142.014 293.827,142.519 C293.322,143.024 292.637,143.308 291.923,143.308 L238.077,143.308 C237.363,143.308 236.678,143.024 236.173,142.519 C235.668,142.014 235.385,141.329 235.385,140.615 L235.385,119.107 C235.385,117.62 236.59,116.415 238.077,116.415 C239.564,116.415 240.769,117.62 240.769,119.107 L240.769,137.923 L289.231,137.923 L289.231,119.107 C289.231,117.62 290.436,116.415 291.923,116.415 C293.41,116.415 294.615,117.62 294.615,119.107 Z M251.538,129.876 L278.462,129.876 C279.948,129.876 281.154,128.671 281.154,127.184 C281.154,125.697 279.948,124.492 278.462,124.492 L251.538,124.492 C250.052,124.492 248.846,125.697 248.846,127.184 C248.846,128.671 250.052,129.876 251.538,129.876 Z M253.181,112.04 L279.185,119 C279.413,119.062 279.649,119.094 279.885,119.094 C281.228,119.083 282.358,118.085 282.533,116.753 C282.708,115.422 281.876,114.165 280.582,113.807 L254.567,106.83 C253.609,106.476 252.534,106.695 251.79,107.395 C251.046,108.095 250.762,109.155 251.057,110.133 C251.351,111.111 252.174,111.838 253.181,112.01 Z M259.39,95.237 L282.705,108.698 C283.324,109.055 284.059,109.152 284.749,108.967 C285.439,108.782 286.027,108.331 286.384,107.712 C287.123,106.426 286.682,104.783 285.398,104.04 L262.082,90.562 C261.248,90.031 260.189,90.001 259.326,90.483 C258.462,90.965 257.932,91.882 257.946,92.871 C257.959,93.859 258.514,94.761 259.39,95.22 Z M288.78,99.612 C289.828,100.664 291.535,100.668 292.59,99.618 C293.645,98.567 293.649,96.86 292.599,95.805 L273.561,76.79 C272.503,75.784 270.836,75.803 269.803,76.835 C268.769,77.867 268.747,79.534 269.751,80.593 Z" />
        </g>
        <g id="Regular-S">
            <path d="M494.615,119.107 L494.615,140.615 C494.615,141.329 494.332,142.014 493.827,142.519 C493.322,143.024 492.637,143.308 491.923,143.308 L438.077,143.308 C437.363,143.308 436.678,143.024 436.173,142.519 C435.668,142.014 435.385,141.329 435.385,140.615 L435.385,119.107 C435.385,117.62 436.59,116.415 438.077,116.415 C439.564,116.415 440.769,117.62 440.769,119.107 L440.769,137.923 L489.231,137.923 L489.231,119.107 C489.231,117.62 490.436,116.415 491.923,116.415 C493.41,116.415 494.615,117.62 494.615,119.107 Z M451.538,129.876 L478.462,129.876 C479.948,129.876 481.154,128.671 481.154,127.184 C481.154,125.697 479.948,124.492 478.462,124.492 L451.538,124.492 C450.052,124.492 448.846,125.697 448.846,127.184 C448.846,128.671 450.052,129.876 451.538,129.876 Z M453.181,112.04 L479.185,119 C479.413,119.062 479.649,119.094 479.885,119.094 C481.228,119.083 482.358,118.085 482.533,116.753 C482.708,115.422 481.876,114.165 480.582,113.807 L454.567,106.83 C453.609,106.476 452.534,106.695 451.79,107.395 C451.046,108.095 450.762,109.155 451.057,110.133 C451.351,111.111 452.174,111.838 453.181,112.01 Z M459.39,95.237 L482.705,108.698 C483.324,109.055 484.059,109.152 484.749,108.967 C485.439,108.782 486.027,108.331 486.384,107.712 C487.123,106.426 486.682,104.783 485.398,104.04 L462.082,90.562 C461.248,90.031 460.189,90.001 459.326,90.483 C458.462,90.965 457.932,91.882 457.946,92.871 C457.959,93.859 458.514,94.761 459.39,95.22 Z M488.78,99.612 C489.828,100.664 491.535,100.668 492.59,99.618 C493.645,98.567 493.649,96.86 492.599,95.805 L473.561,76.79 C472.503,75.784 470.836,75.803 469.803,76.835 C468.769,77.867 468.747,79.534 469.751,80.593 Z" />
        </g>
        <g id="Black-S">
            <path d="M694.615,119.107 L694.615,140.615 C694.615,141.329 694.332,142.014 693.827,142.519 C693.322,143.024 692.637,143.308 691.923,143.308 L638.077,143.308 C637.363,143.308 636.678,143.024 636.173,142.519 C635.668,142.014 635.385,141.329 635.385,140.615 L635.385,119.107 C635.385,117.62 636.59,116.415 638.077,116.415 C639.564,116.415 640.769,117.62 640.769,119.107 L640.769,137.923 L689.231,137.923 L689.231,119.107 C689.231,117.62 690.436,116.415 691.923,116.415 C693.41,116.415 694.615,117.62 694.615,119.107 Z M651.538,129.876 L678.462,129.876 C679.948,129.876 681.154,128.671 681.154,127.184 C681.154,125.697 679.948,124.492 678.462,124.492 L651.538,124.492 C650.052,124.492 648.846,125.697 648.846,127.184 C648.846,128.671 650.052,129.876 651.538,129.876 Z M653.181,112.04 L679.185,119 C679.413,119.062 679.649,119.094 679.885,119.094 C681.228,119.083 682.358,118.085 682.533,116.753 C682.708,115.422 681.876,114.165 680.582,113.807 L654.567,106.83 C653.609,106.476 652.534,106.695 651.79,107.395 C651.046,108.095 650.762,109.155 651.057,110.133 C651.351,111.111 652.174,111.838 653.181,112.01 Z M659.39,95.237 L682.705,108.698 C683.324,109.055 684.059,109.152 684.749,108.967 C685.439,108.782 686.027,108.331 686.384,107.712 C687.123,106.426 686.682,104.783 685.398,104.04 L662.082,90.562 C661.248,90.031 660.189,90.001 659.326,90.483 C658.462,90.965 657.932,91.882 657.946,92.871 C657.959,93.859 658.514,94.761 659.39,95.22 Z M688.78,99.612 C689.828,100.664 691.535,100.668 692.59,99.618 C693.645,98.567 693.649,96.86 692.599,95.805 L673.561,76.79 C672.503,75.784 670.836,75.803 669.803,76.835 C668.769,77.867 668.747,79.534 669.751,80.593 Z" />
        </g>
    </g>
</svg>