<?xml version="1.0" encoding="UTF-8"?>
<svg height="600" width="800" xmlns="http://www.w3.org/2000/svg" xmlns:xlink="http://www.w3.org/1999/xlink">
    <g id="Notes" font-family="'LucidaGrande', 'Lucida Grande', sans-serif" font-size="13">
        <rect fill="white" height="600.0" width="800.0" x="0.0" y="0.0" />
        <g font-size="13">
            <text x="18.0" y="176.0">Small</text>
            <text x="18.0" y="376.0">Medium</text>
            <text x="18.0" y="576.0">Large</text>
        </g>
        <g font-size="9">
            <text x="250.0" y="30.0">Ultralight</text>
            <text x="450.0" y="30.0">Regular</text>
            <text x="650.0" y="30.0">Black</text>
            <text id="template-version" fill="#505050" text-anchor="end" x="785.0" y="575.0">Template v.3.0</text>
            <a href="https://github.com/swhitty/SwiftDraw">
                <text fill="#505050" text-anchor="end" x="785.0" y="590.0">https://github.com/swhitty/SwiftDraw</text>
            </a>
        </g>
    </g>
    <g id="Guides" stroke="rgb(39, 170, 225)" stroke-width="0.5">
        <path id="Capline-S" d="M18,76 l800,0" />
        <path id="H-reference" d="M85,145.755 L87.685,145.755 L113.369,79.287 L114.052,79.287 L114.052,76 L112.148,76 L85,145.755 Z M95.693,121.536 L130.996,121.536 L130.263,119.313 L96.474,119.313 L95.693,121.536 Z M139.15,145.755 L141.787,145.755 L114.638,76 L113.466,76 L113.466,79.287 L139.15,145.755 Z" stroke="none" />
        <path id="Baseline-S" d="M18,146 l800,0" />
        <path id="left-margin-Ultralight-S" d="M220,56 l0,110" />
        <path id="right-margin-Ultralight-S" d="M310,56 l0,110" />
        <path id="left-margin-Regular-S" d="M420,56 l0,110" />
        <path id="right-margin-Regular-S" d="M510,56 l0,110" />
        <path id="left-margin-Black-S" d="M620,56 l0,110" />
        <path id="right-margin-Black-S" d="M710,56 l0,110" />
        <path id="Capline-M" d="M18,276 l800,0" />
        <path id="Baseline-M" d="M18,346 l800,0" />
        <path id="Capline-L" d="M18,476 l800,0" />
        <path id="Baseline-L" d="M18,546 l800,0" />
    </g>
    <g id="Symbols">
        <g id="Ultralight-S">
            <path d="M265,111 C265.001,111.818 264.629,112.592 263.991,113.103 L250.529,123.872 C249.369,124.802 247.673,124.614 246.744,123.453 C245.814,122.291 246.001,120.596 247.163,119.666 L257.997,111 L247.163,102.334 C246.001,101.404 245.814,99.709 246.743,98.547 C247.673,97.386 249.368,97.198 250.53,98.128 L263.991,108.897 C264.629,109.409 265.001,110.182 265,111 Z M281.154,119.077 L267.692,119.077 C266.205,119.077 265,120.282 265,121.769 C265,123.256 266.205,124.462 267.692,124.462 L281.154,124.462 C282.641,124.462 283.846,123.256 283.846,121.769 C283.846,120.282 282.641,119.077 281.154,119.077 Z M300,86.769 L300,135.231 C300,136.659 299.433,138.028 298.423,139.038 C297.413,140.048 296.043,140.615 294.615,140.615 L235.385,140.615 C233.957,140.615 232.587,140.048 231.577,139.038 C230.567,138.028 230,136.659 230,135.231 L230,86.769 C230,85.341 230.567,83.972 231.577,82.962 C232.587,81.952 233.957,81.385 235.385,81.385 L294.615,81.385 C296.043,81.385 297.413,81.952 298.423,82.962 C299.433,83.972 300,85.341 300,86.769 Z M294.615,135.231 L294.615,86.769 L235.385,86.769 L235.385,135.231 L294.615,135.231 Z" />
        </g>
        <g id="Regular-S">
            <path d="M465,111 C465.001,111.818 464.629,112.592 463.991,113.103 L450.529,123.872 C449.368,124.802 447.673,124.614 446.744,123.453 C445.814,122.291 446.001,120.596 447.163,119.666 L457.997,111 L447.163,102.334 C446.001,101.404 445.814,99.709 446.743,98.547 C447.673,97.386 449.368,97.198 450.53,98.128 L463.991,108.897 C464.629,109.409 465,110.182 465,111 Z M481.154,119.077 L467.692,119.077 C466.205,119.077 465,120.282 465,121.769 C465,123.256 466.205,124.462 467.692,124.462 L481.154,124.462 C482.641,124.462 483.846,123.256 483.846,121.769 C483.846,120.282 482.641,119.077 481.154,119.077 Z M500,86.769 L500,135.231 C500,136.659 499.433,138.028 498.423,139.038 C497.413,140.048 496.043,140.615 494.615,140.615 L435.385,140.615 C433.957,140.615 432.587,140.048 431.577,139.038 C430.567,138.028 430,136.659 430,135.231 L430,86.769 C430,85.341 430.567,83.972 431.577,82.962 C432.587,81.952 433.957,81.385 435.385,81.385 L494.615,81.385 C496.043,81.385 497.413,81.952 498.423,82.962 C499.433,83.972 500,85.341 500,86.769 Z M494.615,135.231 L494.615,86.769 L435.385,86.769 L435.385,135.231 L494.615,135.231 Z" />
        </g>
        <g id="Black-S">
            <path d="M665,111 C665.001,111.818 664.629,112.592 663.991,113.103 L650.529,123.872 C649.369,124.802 647.673,124.614 646.744,123.453 C645.814,122.291 646.002,120.596 647.163,119.666 L657.997,111 L647.163,102.334 C646.001,101.404 645.814,99.709 646.743,98.547 C647.673,97.386 649.368,97.198 650.53,98.128 L663.991,108.897 C664.629,109.409 665.001,110.182 665,111 Z M681.154,119.077 L667.692,119.077 C666.205,119.077 665,120.282 665,121.769 C665,123.256 666.205,124.462 667.692,124.462 L681.154,124.462 C682.641,124.462 683.846,123.256 683.846,121.769 C683.846,120.282 682.641,119.077 681.154,119.077 Z M700,86.769 L700,135.231 C700,136.659 699.433,138.028 698.423,139.038 C697.413,140.048 696.044,140.615 694.615,140.615 L635.385,140.615 C633.957,140.615 632.587,140.048 631.577,139.038 C630.567,138.028 630,136.659 630,135.231 L630,86.769 C630,85.341 630.567,83.972 631.577,82.962 C632.587,81.952 633.957,81.385 635.385,81.385 L694.615,81.385 C696.044,81.385 697.413,81.952 698.423,82.962 C699.433,83.972 700,85.341 700,86.769 Z M694.615,135.231 L694.615,86.769 L635.385,86.769 L635.385,135.231 L694.615,135.231 Z" />
        </g>
    </g>
</svg>