<?xml version="1.0" encoding="UTF-8"?>
<svg height="600" width="800" xmlns="http://www.w3.org/2000/svg" xmlns:xlink="http://www.w3.org/1999/xlink">
    <g id="Notes" font-family="'LucidaGrande', 'Lucida Grande', sans-serif" font-size="13">
        <rect fill="white" height="600.0" width="800.0" x="0.0" y="0.0" />
        <g font-size="13">
            <text x="18.0" y="176.0">Small</text>
            <text x="18.0" y="376.0">Medium</text>
            <text x="18.0" y="576.0">Large</text>
        </g>
        <g font-size="9">
            <text x="250.0" y="30.0">Ultralight</text>
            <text x="450.0" y="30.0">Regular</text>
            <text x="650.0" y="30.0">Black</text>
            <text id="template-version" fill="#505050" text-anchor="end" x="785.0" y="575.0">Template v.3.0</text>
            <a href="https://github.com/swhitty/SwiftDraw">
                <text fill="#505050" text-anchor="end" x="785.0" y="590.0">https://github.com/swhitty/SwiftDraw</text>
            </a>
        </g>
    </g>
    <g id="Guides" stroke="rgb(39, 170, 225)" stroke-width="0.5">
        <path id="Capline-S" d="M18,76 l800,0" />
        <path id="H-reference" d="M85,145.755 L87.685,145.755 L113.369,79.287 L114.052,79.287 L114.052,76 L112.148,76 L85,145.755 Z M95.693,121.536 L130.996,121.536 L130.263,119.313 L96.474,119.313 L95.693,121.536 Z M139.15,145.755 L141.787,145.755 L114.638,76 L113.466,76 L113.466,79.287 L139.15,145.755 Z" stroke="none" />
        <path id="Baseline-S" d="M18,146 l800,0" />
        <path id="left-margin-Ultralight-S" d="M220,56 l0,110" />
        <path id="right-margin-Ultralight-S" d="M310,56 l0,110" />
        <path id="left-margin-Regular-S" d="M420,56 l0,110" />
        <path id="right-margin-Regular-S" d="M510,56 l0,110" />
        <path id="left-margin-Black-S" d="M620,56 l0,110" />
        <path id="right-margin-Black-S" d="M710,56 l0,110" />
        <path id="Capline-M" d="M18,276 l800,0" />
        <path id="Baseline-M" d="M18,346 l800,0" />
        <path id="Capline-L" d="M18,476 l800,0" />
        <path id="Baseline-L" d="M18,546 l800,0" />
    </g>
    <g id="Symbols">
        <g id="Ultralight-S">
            <path d="M283.059,112.905 L256.136,139.828 C255.085,140.879 253.38,140.88 252.327,139.829 C251.274,138.778 251.273,137.072 252.325,136.019 L277.348,111 L252.326,85.982 C251.273,84.928 251.274,83.222 252.327,82.171 C253.38,81.12 255.085,81.121 256.137,82.173 L283.06,109.096 C283.565,109.601 283.848,110.286 283.848,111.001 C283.848,111.715 283.564,112.4 283.059,112.905 Z" />
        </g>
        <g id="Regular-S">
            <path d="M483.059,112.905 L456.136,139.828 C455.085,140.879 453.38,140.88 452.327,139.829 C451.274,138.778 451.273,137.072 452.325,136.019 L477.348,111 L452.326,85.982 C451.273,84.928 451.274,83.222 452.327,82.171 C453.38,81.12 455.085,81.121 456.137,82.173 L483.06,109.096 C483.565,109.601 483.848,110.286 483.848,111.001 C483.848,111.715 483.564,112.4 483.059,112.905 Z" />
        </g>
        <g id="Black-S">
            <path d="M683.059,112.905 L656.136,139.828 C655.085,140.879 653.38,140.88 652.327,139.829 C651.274,138.778 651.273,137.072 652.325,136.019 L677.348,111 L652.326,85.982 C651.273,84.928 651.274,83.222 652.327,82.171 C653.38,81.12 655.085,81.121 656.137,82.173 L683.06,109.096 C683.565,109.601 683.849,110.286 683.848,111.001 C683.848,111.715 683.564,112.4 683.059,112.905 Z" />
        </g>
    </g>
</svg>