<?xml version="1.0" encoding="UTF-8"?>
<svg height="600" width="800" xmlns="http://www.w3.org/2000/svg" xmlns:xlink="http://www.w3.org/1999/xlink">
    <g id="Notes" font-family="'LucidaGrande', 'Lucida Grande', sans-serif" font-size="13">
        <rect fill="white" height="600.0" width="800.0" x="0.0" y="0.0" />
        <g font-size="13">
            <text x="18.0" y="176.0">Small</text>
            <text x="18.0" y="376.0">Medium</text>
            <text x="18.0" y="576.0">Large</text>
        </g>
        <g font-size="9">
            <text x="250.0" y="30.0">Ultralight</text>
            <text x="450.0" y="30.0">Regular</text>
            <text x="650.0" y="30.0">Black</text>
            <text id="template-version" fill="#505050" text-anchor="end" x="785.0" y="575.0">Template v.3.0</text>
            <a href="https://github.com/swhitty/SwiftDraw">
                <text fill="#505050" text-anchor="end" x="785.0" y="590.0">https://github.com/swhitty/SwiftDraw</text>
            </a>
        </g>
    </g>
    <g id="Guides" stroke="rgb(39, 170, 225)" stroke-width="0.5">
        <path id="Capline-S" d="M18,76 l800,0" />
        <path id="H-reference" d="M85,145.755 L87.685,145.755 L113.369,79.287 L114.052,79.287 L114.052,76 L112.148,76 L85,145.755 Z M95.693,121.536 L130.996,121.536 L130.263,119.313 L96.474,119.313 L95.693,121.536 Z M139.15,145.755 L141.787,145.755 L114.638,76 L113.466,76 L113.466,79.287 L139.15,145.755 Z" stroke="none" />
        <path id="Baseline-S" d="M18,146 l800,0" />
        <path id="left-margin-Ultralight-S" d="M220,56 l0,110" />
        <path id="right-margin-Ultralight-S" d="M310,56 l0,110" />
        <path id="left-margin-Regular-S" d="M420,56 l0,110" />
        <path id="right-margin-Regular-S" d="M510,56 l0,110" />
        <path id="left-margin-Black-S" d="M620,56 l0,110" />
        <path id="right-margin-Black-S" d="M710,56 l0,110" />
        <path id="Capline-M" d="M18,276 l800,0" />
        <path id="Baseline-M" d="M18,346 l800,0" />
        <path id="Capline-L" d="M18,476 l800,0" />
        <path id="Baseline-L" d="M18,546 l800,0" />
    </g>
    <g id="Symbols">
        <g id="Ultralight-S">
            <path d="M251.538,100.231 C251.538,99.517 251.822,98.832 252.327,98.327 C252.832,97.822 253.517,97.538 254.231,97.538 L275.769,97.538 C277.256,97.538 278.462,98.744 278.462,100.231 C278.462,101.718 277.256,102.923 275.769,102.923 L254.231,102.923 C253.517,102.923 252.832,102.639 252.327,102.135 C251.822,101.63 251.538,100.945 251.538,100.231 Z M254.231,113.692 L275.769,113.692 C277.256,113.692 278.462,112.487 278.462,111 C278.462,109.513 277.256,108.308 275.769,108.308 L254.231,108.308 C252.744,108.308 251.538,109.513 251.538,111 C251.538,112.487 252.744,113.692 254.231,113.692 Z M265,119.077 L254.231,119.077 C252.744,119.077 251.538,120.282 251.538,121.769 C251.538,123.256 252.744,124.462 254.231,124.462 L265,124.462 C266.487,124.462 267.692,123.256 267.692,121.769 C267.692,120.282 266.487,119.077 265,119.077 Z M297.308,84.077 L297.308,120.655 C297.312,122.084 296.744,123.455 295.729,124.462 L278.462,141.729 C277.455,142.744 276.084,143.312 274.655,143.308 L238.077,143.308 C236.649,143.308 235.279,142.74 234.269,141.731 C233.26,140.721 232.692,139.351 232.692,137.923 L232.692,84.077 C232.692,82.649 233.26,81.279 234.269,80.269 C235.279,79.26 236.649,78.692 238.077,78.692 L291.923,78.692 C293.351,78.692 294.721,79.26 295.731,80.269 C296.74,81.279 297.308,82.649 297.308,84.077 Z M238.077,137.923 L273.077,137.923 L273.077,121.769 C273.077,121.055 273.361,120.37 273.865,119.865 C274.37,119.361 275.055,119.077 275.769,119.077 L291.923,119.077 L291.923,84.077 L238.077,84.077 Z M278.462,124.462 L278.462,134.12 L288.117,124.462 Z" />
        </g>
        <g id="Regular-S">
            <path d="M451.538,100.231 C451.538,99.517 451.822,98.832 452.327,98.327 C452.832,97.822 453.517,97.538 454.231,97.538 L475.769,97.538 C477.256,97.538 478.462,98.744 478.462,100.231 C478.462,101.718 477.256,102.923 475.769,102.923 L454.231,102.923 C453.517,102.923 452.832,102.639 452.327,102.135 C451.822,101.63 451.538,100.945 451.538,100.231 Z M454.231,113.692 L475.769,113.692 C477.256,113.692 478.462,112.487 478.462,111 C478.462,109.513 477.256,108.308 475.769,108.308 L454.231,108.308 C452.744,108.308 451.538,109.513 451.538,111 C451.538,112.487 452.744,113.692 454.231,113.692 Z M465,119.077 L454.231,119.077 C452.744,119.077 451.538,120.282 451.538,121.769 C451.538,123.256 452.744,124.462 454.231,124.462 L465,124.462 C466.487,124.462 467.692,123.256 467.692,121.769 C467.692,120.282 466.487,119.077 465,119.077 Z M497.308,84.077 L497.308,120.655 C497.312,122.084 496.744,123.455 495.729,124.462 L478.462,141.729 C477.455,142.744 476.084,143.312 474.655,143.308 L438.077,143.308 C436.649,143.308 435.279,142.74 434.269,141.731 C433.26,140.721 432.692,139.351 432.692,137.923 L432.692,84.077 C432.692,82.649 433.26,81.279 434.269,80.269 C435.279,79.26 436.649,78.692 438.077,78.692 L491.923,78.692 C493.351,78.692 494.721,79.26 495.731,80.269 C496.74,81.279 497.308,82.649 497.308,84.077 Z M438.077,137.923 L473.077,137.923 L473.077,121.769 C473.077,121.055 473.361,120.37 473.865,119.865 C474.37,119.361 475.055,119.077 475.769,119.077 L491.923,119.077 L491.923,84.077 L438.077,84.077 Z M478.462,124.462 L478.462,134.12 L488.117,124.462 Z" />
        </g>
        <g id="Black-S">
            <path d="M651.538,100.231 C651.538,99.517 651.822,98.832 652.327,98.327 C652.832,97.822 653.517,97.538 654.231,97.538 L675.769,97.538 C677.256,97.538 678.462,98.744 678.462,100.231 C678.462,101.718 677.256,102.923 675.769,102.923 L654.231,102.923 C653.517,102.923 652.832,102.639 652.327,102.135 C651.822,101.63 651.538,100.945 651.538,100.231 Z M654.231,113.692 L675.769,113.692 C677.256,113.692 678.462,112.487 678.462,111 C678.462,109.513 677.256,108.308 675.769,108.308 L654.231,108.308 C652.744,108.308 651.538,109.513 651.538,111 C651.538,112.487 652.744,113.692 654.231,113.692 Z M665,119.077 L654.231,119.077 C652.744,119.077 651.538,120.282 651.538,121.769 C651.538,123.256 652.744,124.462 654.231,124.462 L665,124.462 C666.487,124.462 667.692,123.256 667.692,121.769 C667.692,120.282 666.487,119.077 665,119.077 Z M697.308,84.077 L697.308,120.655 C697.312,122.084 696.744,123.455 695.729,124.462 L678.462,141.729 C677.455,142.744 676.084,143.312 674.655,143.308 L638.077,143.308 C636.649,143.308 635.279,142.74 634.269,141.731 C633.26,140.721 632.692,139.351 632.692,137.923 L632.692,84.077 C632.692,82.649 633.26,81.279 634.269,80.269 C635.279,79.26 636.649,78.692 638.077,78.692 L691.923,78.692 C693.351,78.692 694.721,79.26 695.731,80.269 C696.74,81.279 697.308,82.649 697.308,84.077 Z M638.077,137.923 L673.077,137.923 L673.077,121.769 C673.077,121.055 673.361,120.37 673.865,119.865 C674.37,119.361 675.055,119.077 675.769,119.077 L691.923,119.077 L691.923,84.077 L638.077,84.077 Z M678.462,124.462 L678.462,134.12 L688.117,124.462 Z" />
        </g>
    </g>
</svg>