<?xml version="1.0" encoding="UTF-8"?>
<svg height="600" width="800" xmlns="http://www.w3.org/2000/svg" xmlns:xlink="http://www.w3.org/1999/xlink">
    <g id="Notes" font-family="'LucidaGrande', 'Lucida Grande', sans-serif" font-size="13">
        <rect fill="white" height="600.0" width="800.0" x="0.0" y="0.0" />
        <g font-size="13">
            <text x="18.0" y="176.0">Small</text>
            <text x="18.0" y="376.0">Medium</text>
            <text x="18.0" y="576.0">Large</text>
        </g>
        <g font-size="9">
            <text x="250.0" y="30.0">Ultralight</text>
            <text x="450.0" y="30.0">Regular</text>
            <text x="650.0" y="30.0">Black</text>
            <text id="template-version" fill="#505050" text-anchor="end" x="785.0" y="575.0">Template v.3.0</text>
            <a href="https://github.com/swhitty/SwiftDraw">
                <text fill="#505050" text-anchor="end" x="785.0" y="590.0">https://github.com/swhitty/SwiftDraw</text>
            </a>
        </g>
    </g>
    <g id="Guides" stroke="rgb(39, 170, 225)" stroke-width="0.5">
        <path id="Capline-S" d="M18,76 l800,0" />
        <path id="H-reference" d="M85,145.755 L87.685,145.755 L113.369,79.287 L114.052,79.287 L114.052,76 L112.148,76 L85,145.755 Z M95.693,121.536 L130.996,121.536 L130.263,119.313 L96.474,119.313 L95.693,121.536 Z M139.15,145.755 L141.787,145.755 L114.638,76 L113.466,76 L113.466,79.287 L139.15,145.755 Z" stroke="none" />
        <path id="Baseline-S" d="M18,146 l800,0" />
        <path id="left-margin-Ultralight-S" d="M220,56 l0,110" />
        <path id="right-margin-Ultralight-S" d="M310,56 l0,110" />
        <path id="left-margin-Regular-S" d="M420,56 l0,110" />
        <path id="right-margin-Regular-S" d="M510,56 l0,110" />
        <path id="left-margin-Black-S" d="M620,56 l0,110" />
        <path id="right-margin-Black-S" d="M710,56 l0,110" />
        <path id="Capline-M" d="M18,276 l800,0" />
        <path id="Baseline-M" d="M18,346 l800,0" />
        <path id="Capline-L" d="M18,476 l800,0" />
        <path id="Baseline-L" d="M18,546 l800,0" />
    </g>
    <g id="Symbols">
        <g id="Ultralight-S">
            <path d="M296.567,127.134 C294.7,123.916 291.923,114.813 291.923,102.923 C291.923,88.054 279.869,76 265,76 C250.131,76 238.077,88.054 238.077,102.923 C238.077,114.816 235.297,123.916 233.429,127.134 C232.458,128.798 232.451,130.855 233.411,132.527 C234.37,134.198 236.15,135.229 238.077,135.231 L251.811,135.231 C253.092,141.497 258.604,145.997 265,145.997 C271.396,145.997 276.908,141.497 278.189,135.231 L291.923,135.231 C293.85,135.228 295.628,134.196 296.587,132.525 C297.545,130.854 297.538,128.798 296.567,127.134 Z M265,140.615 C261.578,140.614 258.528,138.457 257.388,135.231 L272.612,135.231 C271.472,138.457 268.422,140.614 265,140.615 Z M238.077,129.846 C240.668,125.39 243.462,115.065 243.462,102.923 C243.462,91.028 253.105,81.385 265,81.385 C276.895,81.385 286.538,91.028 286.538,102.923 C286.538,115.055 289.325,125.38 291.923,129.846 Z" />
        </g>
        <g id="Regular-S">
            <path d="M496.567,127.134 C494.7,123.916 491.923,114.813 491.923,102.923 C491.923,88.054 479.869,76 465,76 C450.131,76 438.077,88.054 438.077,102.923 C438.077,114.816 435.297,123.916 433.429,127.134 C432.458,128.798 432.451,130.855 433.411,132.527 C434.37,134.198 436.15,135.229 438.077,135.231 L451.811,135.231 C453.092,141.497 458.604,145.997 465,145.997 C471.396,145.997 476.908,141.497 478.189,135.231 L491.923,135.231 C493.85,135.228 495.628,134.196 496.587,132.525 C497.545,130.854 497.538,128.798 496.567,127.134 Z M465,140.615 C461.578,140.614 458.528,138.457 457.387,135.231 L472.612,135.231 C471.472,138.457 468.422,140.614 465,140.615 Z M438.077,129.846 C440.668,125.39 443.462,115.065 443.462,102.923 C443.462,91.028 453.105,81.385 465,81.385 C476.895,81.385 486.538,91.028 486.538,102.923 C486.538,115.055 489.325,125.38 491.923,129.846 Z" />
        </g>
        <g id="Black-S">
            <path d="M696.567,127.134 C694.7,123.916 691.923,114.813 691.923,102.923 C691.923,88.054 679.869,76 665,76 C650.131,76 638.077,88.054 638.077,102.923 C638.077,114.816 635.297,123.916 633.429,127.134 C632.458,128.798 632.451,130.855 633.411,132.527 C634.37,134.198 636.15,135.229 638.077,135.231 L651.811,135.231 C653.092,141.497 658.604,145.997 665,145.997 C671.396,145.997 676.908,141.497 678.189,135.231 L691.923,135.231 C693.85,135.228 695.628,134.196 696.587,132.525 C697.545,130.854 697.538,128.798 696.567,127.134 Z M665,140.615 C661.578,140.614 658.528,138.457 657.388,135.231 L672.613,135.231 C671.472,138.457 668.422,140.614 665,140.615 Z M638.077,129.846 C640.668,125.39 643.462,115.065 643.462,102.923 C643.462,91.028 653.105,81.385 665,81.385 C676.895,81.385 686.538,91.028 686.538,102.923 C686.538,115.055 689.325,125.38 691.923,129.846 Z" />
        </g>
    </g>
</svg>