<?xml version="1.0" encoding="UTF-8"?>
<svg height="600" width="800" xmlns="http://www.w3.org/2000/svg" xmlns:xlink="http://www.w3.org/1999/xlink">
    <g id="Notes" font-family="'LucidaGrande', 'Lucida Grande', sans-serif" font-size="13">
        <rect fill="white" height="600.0" width="800.0" x="0.0" y="0.0" />
        <g font-size="13">
            <text x="18.0" y="176.0">Small</text>
            <text x="18.0" y="376.0">Medium</text>
            <text x="18.0" y="576.0">Large</text>
        </g>
        <g font-size="9">
            <text x="250.0" y="30.0">Ultralight</text>
            <text x="450.0" y="30.0">Regular</text>
            <text x="650.0" y="30.0">Black</text>
            <text id="template-version" fill="#505050" text-anchor="end" x="785.0" y="575.0">Template v.3.0</text>
            <a href="https://github.com/swhitty/SwiftDraw">
                <text fill="#505050" text-anchor="end" x="785.0" y="590.0">https://github.com/swhitty/SwiftDraw</text>
            </a>
        </g>
    </g>
    <g id="Guides" stroke="rgb(39, 170, 225)" stroke-width="0.5">
        <path id="Capline-S" d="M18,76 l800,0" />
        <path id="H-reference" d="M85,145.755 L87.685,145.755 L113.369,79.287 L114.052,79.287 L114.052,76 L112.148,76 L85,145.755 Z M95.693,121.536 L130.996,121.536 L130.263,119.313 L96.474,119.313 L95.693,121.536 Z M139.15,145.755 L141.787,145.755 L114.638,76 L113.466,76 L113.466,79.287 L139.15,145.755 Z" stroke="none" />
        <path id="Baseline-S" d="M18,146 l800,0" />
        <path id="left-margin-Ultralight-S" d="M220,56 l0,110" />
        <path id="right-margin-Ultralight-S" d="M310,56 l0,110" />
        <path id="left-margin-Regular-S" d="M420,56 l0,110" />
        <path id="right-margin-Regular-S" d="M510,56 l0,110" />
        <path id="left-margin-Black-S" d="M620,56 l0,110" />
        <path id="right-margin-Black-S" d="M710,56 l0,110" />
        <path id="Capline-M" d="M18,276 l800,0" />
        <path id="Baseline-M" d="M18,346 l800,0" />
        <path id="Capline-L" d="M18,476 l800,0" />
        <path id="Baseline-L" d="M18,546 l800,0" />
    </g>
    <g id="Symbols">
        <g id="Ultralight-S">
            <path d="M240.069,79.574 C239.321,78.751 238.144,78.473 237.106,78.874 C236.069,79.275 235.385,80.272 235.385,81.385 L235.385,81.385 C233.957,81.385 232.587,81.952 231.577,82.962 C230.567,83.972 230,85.341 230,86.769 L230,129.846 C230,131.274 230.567,132.644 231.577,133.654 C232.587,134.663 233.957,135.231 235.385,135.231 L255.722,135.231 L260.326,143.288 C261.284,144.965 263.068,145.999 265,145.999 C266.932,145.999 268.716,144.965 269.675,143.288 L274.278,135.231 L283.388,135.231 L289.931,142.426 C290.574,143.151 291.558,143.475 292.506,143.272 C293.454,143.07 294.221,142.374 294.512,141.449 C294.804,140.525 294.576,139.514 293.915,138.805 Z M272.713,129.846 C271.743,129.837 270.843,130.352 270.358,131.192 L264.973,140.615 L259.588,131.192 C259.103,130.352 258.203,129.837 257.233,129.846 L235.385,129.846 L235.385,86.769 L239.332,86.769 L278.495,129.846 Z M300,86.769 L300,130.519 C300,132.006 298.795,133.212 297.308,133.212 C295.821,133.212 294.615,132.006 294.615,130.519 L294.615,86.769 L255.079,86.769 C253.592,86.769 252.387,85.564 252.387,84.077 C252.387,82.59 253.592,81.385 255.079,81.385 L294.615,81.385 C296.043,81.385 297.413,81.952 298.423,82.962 C299.433,83.972 300,85.341 300,86.769 Z" />
        </g>
        <g id="Regular-S">
            <path d="M440.069,79.574 C439.321,78.751 438.144,78.473 437.106,78.874 C436.069,79.275 435.385,80.272 435.385,81.385 L435.385,81.385 C433.957,81.385 432.587,81.952 431.577,82.962 C430.567,83.972 430,85.341 430,86.769 L430,129.846 C430,131.274 430.567,132.644 431.577,133.654 C432.587,134.663 433.957,135.231 435.385,135.231 L455.722,135.231 L460.325,143.288 C461.284,144.965 463.068,145.999 465,145.999 C466.932,145.999 468.716,144.965 469.674,143.288 L474.278,135.231 L483.388,135.231 L489.931,142.426 C490.574,143.151 491.558,143.475 492.506,143.272 C493.454,143.07 494.221,142.374 494.512,141.449 C494.804,140.525 494.576,139.514 493.915,138.805 Z M472.713,129.846 C471.743,129.837 470.843,130.352 470.358,131.192 L464.973,140.615 L459.588,131.192 C459.103,130.352 458.203,129.837 457.233,129.846 L435.385,129.846 L435.385,86.769 L439.332,86.769 L478.495,129.846 Z M500,86.769 L500,130.519 C500,132.006 498.795,133.212 497.308,133.212 C495.821,133.212 494.615,132.006 494.615,130.519 L494.615,86.769 L455.079,86.769 C453.592,86.769 452.387,85.564 452.387,84.077 C452.387,82.59 453.592,81.385 455.079,81.385 L494.615,81.385 C496.043,81.385 497.413,81.952 498.423,82.962 C499.433,83.972 500,85.341 500,86.769 Z" />
        </g>
        <g id="Black-S">
            <path d="M640.069,79.574 C639.321,78.751 638.144,78.473 637.106,78.874 C636.069,79.275 635.385,80.272 635.385,81.385 L635.385,81.385 C633.957,81.385 632.587,81.952 631.577,82.962 C630.567,83.972 630,85.341 630,86.769 L630,129.846 C630,131.274 630.567,132.644 631.577,133.654 C632.587,134.663 633.957,135.231 635.385,135.231 L655.722,135.231 L660.326,143.288 C661.284,144.965 663.068,145.999 665,145.999 C666.932,145.999 668.716,144.965 669.675,143.288 L674.278,135.231 L683.388,135.231 L689.931,142.426 C690.574,143.151 691.558,143.475 692.506,143.272 C693.454,143.07 694.221,142.374 694.512,141.449 C694.804,140.525 694.576,139.514 693.915,138.805 Z M672.714,129.846 C671.743,129.837 670.843,130.352 670.358,131.192 L664.973,140.615 L659.589,131.192 C659.103,130.352 658.203,129.837 657.233,129.846 L635.385,129.846 L635.385,86.769 L639.332,86.769 L678.495,129.846 Z M700,86.769 L700,130.519 C700,132.006 698.795,133.212 697.308,133.212 C695.821,133.212 694.615,132.006 694.615,130.519 L694.615,86.769 L655.079,86.769 C653.592,86.769 652.387,85.564 652.387,84.077 C652.387,82.59 653.592,81.385 655.079,81.385 L694.615,81.385 C696.044,81.385 697.413,81.952 698.423,82.962 C699.433,83.972 700,85.341 700,86.769 Z" />
        </g>
    </g>
</svg>