<?xml version="1.0" encoding="UTF-8"?>
<svg height="600" width="800" xmlns="http://www.w3.org/2000/svg" xmlns:xlink="http://www.w3.org/1999/xlink">
    <g id="Notes" font-family="'LucidaGrande', 'Lucida Grande', sans-serif" font-size="13">
        <rect fill="white" height="600.0" width="800.0" x="0.0" y="0.0" />
        <g font-size="13">
            <text x="18.0" y="176.0">Small</text>
            <text x="18.0" y="376.0">Medium</text>
            <text x="18.0" y="576.0">Large</text>
        </g>
        <g font-size="9">
            <text x="250.0" y="30.0">Ultralight</text>
            <text x="450.0" y="30.0">Regular</text>
            <text x="650.0" y="30.0">Black</text>
            <text id="template-version" fill="#505050" text-anchor="end" x="785.0" y="575.0">Template v.3.0</text>
            <a href="https://github.com/swhitty/SwiftDraw">
                <text fill="#505050" text-anchor="end" x="785.0" y="590.0">https://github.com/swhitty/SwiftDraw</text>
            </a>
        </g>
    </g>
    <g id="Guides" stroke="rgb(39, 170, 225)" stroke-width="0.5">
        <path id="Capline-S" d="M18,76 l800,0" />
        <path id="H-reference" d="M85,145.755 L87.685,145.755 L113.369,79.287 L114.052,79.287 L114.052,76 L112.148,76 L85,145.755 Z M95.693,121.536 L130.996,121.536 L130.263,119.313 L96.474,119.313 L95.693,121.536 Z M139.15,145.755 L141.787,145.755 L114.638,76 L113.466,76 L113.466,79.287 L139.15,145.755 Z" stroke="none" />
        <path id="Baseline-S" d="M18,146 l800,0" />
        <path id="left-margin-Ultralight-S" d="M220,56 l0,110" />
        <path id="right-margin-Ultralight-S" d="M310,56 l0,110" />
        <path id="left-margin-Regular-S" d="M420,56 l0,110" />
        <path id="right-margin-Regular-S" d="M510,56 l0,110" />
        <path id="left-margin-Black-S" d="M620,56 l0,110" />
        <path id="right-margin-Black-S" d="M710,56 l0,110" />
        <path id="Capline-M" d="M18,276 l800,0" />
        <path id="Baseline-M" d="M18,346 l800,0" />
        <path id="Capline-L" d="M18,476 l800,0" />
        <path id="Baseline-L" d="M18,546 l800,0" />
    </g>
    <g id="Symbols">
        <g id="Ultralight-S">
            <path d="M297.308,84.077 L232.692,84.077 C231.264,84.077 229.895,84.644 228.885,85.654 C227.875,86.664 227.308,88.033 227.308,89.462 L227.308,97.538 C227.308,98.967 227.875,100.336 228.885,101.346 C229.895,102.356 231.264,102.923 232.692,102.923 L232.692,132.538 C232.692,133.967 233.26,135.336 234.269,136.346 C235.279,137.356 236.649,137.923 238.077,137.923 L291.923,137.923 C293.351,137.923 294.721,137.356 295.731,136.346 C296.74,135.336 297.308,133.967 297.308,132.538 L297.308,102.923 C298.736,102.923 300.105,102.356 301.115,101.346 C302.125,100.336 302.692,98.967 302.692,97.538 L302.692,89.462 C302.692,88.033 302.125,86.664 301.115,85.654 C300.105,84.644 298.736,84.077 297.308,84.077 Z M291.923,132.538 L238.077,132.538 L238.077,102.923 L291.923,102.923 Z M297.308,97.538 L232.692,97.538 L232.692,89.462 L297.308,89.462 L297.308,97.538 Z M254.231,113.692 C254.231,112.978 254.514,112.293 255.019,111.789 C255.524,111.284 256.209,111 256.923,111 L273.077,111 C274.564,111 275.769,112.205 275.769,113.692 C275.769,115.179 274.564,116.385 273.077,116.385 L256.923,116.385 C256.209,116.385 255.524,116.101 255.019,115.596 C254.514,115.091 254.231,114.406 254.231,113.692 Z" />
        </g>
        <g id="Regular-S">
            <path d="M497.308,84.077 L432.692,84.077 C431.264,84.077 429.895,84.644 428.885,85.654 C427.875,86.664 427.308,88.033 427.308,89.462 L427.308,97.538 C427.308,98.967 427.875,100.336 428.885,101.346 C429.895,102.356 431.264,102.923 432.692,102.923 L432.692,132.538 C432.692,133.967 433.26,135.336 434.269,136.346 C435.279,137.356 436.649,137.923 438.077,137.923 L491.923,137.923 C493.351,137.923 494.721,137.356 495.731,136.346 C496.74,135.336 497.308,133.967 497.308,132.538 L497.308,102.923 C498.736,102.923 500.105,102.356 501.115,101.346 C502.125,100.336 502.692,98.967 502.692,97.538 L502.692,89.462 C502.692,88.033 502.125,86.664 501.115,85.654 C500.105,84.644 498.736,84.077 497.308,84.077 Z M491.923,132.538 L438.077,132.538 L438.077,102.923 L491.923,102.923 Z M497.308,97.538 L432.692,97.538 L432.692,89.462 L497.308,89.462 L497.308,97.538 Z M454.231,113.692 C454.231,112.978 454.514,112.293 455.019,111.789 C455.524,111.284 456.209,111 456.923,111 L473.077,111 C474.564,111 475.769,112.205 475.769,113.692 C475.769,115.179 474.564,116.385 473.077,116.385 L456.923,116.385 C456.209,116.385 455.524,116.101 455.019,115.596 C454.514,115.091 454.231,114.406 454.231,113.692 Z" />
        </g>
        <g id="Black-S">
            <path d="M697.308,84.077 L632.692,84.077 C631.264,84.077 629.895,84.644 628.885,85.654 C627.875,86.664 627.308,88.033 627.308,89.462 L627.308,97.538 C627.308,98.967 627.875,100.336 628.885,101.346 C629.895,102.356 631.264,102.923 632.692,102.923 L632.692,132.538 C632.692,133.967 633.26,135.336 634.269,136.346 C635.279,137.356 636.649,137.923 638.077,137.923 L691.923,137.923 C693.351,137.923 694.721,137.356 695.731,136.346 C696.74,135.336 697.308,133.967 697.308,132.538 L697.308,102.923 C698.736,102.923 700.105,102.356 701.115,101.346 C702.125,100.336 702.692,98.967 702.692,97.538 L702.692,89.462 C702.692,88.033 702.125,86.664 701.115,85.654 C700.105,84.644 698.736,84.077 697.308,84.077 Z M691.923,132.538 L638.077,132.538 L638.077,102.923 L691.923,102.923 Z M697.308,97.538 L632.692,97.538 L632.692,89.462 L697.308,89.462 L697.308,97.538 Z M654.231,113.692 C654.231,112.978 654.514,112.293 655.019,111.789 C655.524,111.284 656.209,111 656.923,111 L673.077,111 C674.564,111 675.769,112.205 675.769,113.692 C675.769,115.179 674.564,116.385 673.077,116.385 L656.923,116.385 C656.209,116.385 655.524,116.101 655.019,115.596 C654.514,115.091 654.231,114.406 654.231,113.692 Z" />
        </g>
    </g>
</svg>