<?xml version="1.0" encoding="UTF-8"?>
<svg height="600" width="800" xmlns="http://www.w3.org/2000/svg" xmlns:xlink="http://www.w3.org/1999/xlink">
    <g id="Notes" font-family="'LucidaGrande', 'Lucida Grande', sans-serif" font-size="13">
        <rect fill="white" height="600.0" width="800.0" x="0.0" y="0.0" />
        <g font-size="13">
            <text x="18.0" y="176.0">Small</text>
            <text x="18.0" y="376.0">Medium</text>
            <text x="18.0" y="576.0">Large</text>
        </g>
        <g font-size="9">
            <text x="250.0" y="30.0">Ultralight</text>
            <text x="450.0" y="30.0">Regular</text>
            <text x="650.0" y="30.0">Black</text>
            <text id="template-version" fill="#505050" text-anchor="end" x="785.0" y="575.0">Template v.3.0</text>
            <a href="https://github.com/swhitty/SwiftDraw">
                <text fill="#505050" text-anchor="end" x="785.0" y="590.0">https://github.com/swhitty/SwiftDraw</text>
            </a>
        </g>
    </g>
    <g id="Guides" stroke="rgb(39, 170, 225)" stroke-width="0.5">
        <path id="Capline-S" d="M18,76 l800,0" />
        <path id="H-reference" d="M85,145.755 L87.685,145.755 L113.369,79.287 L114.052,79.287 L114.052,76 L112.148,76 L85,145.755 Z M95.693,121.536 L130.996,121.536 L130.263,119.313 L96.474,119.313 L95.693,121.536 Z M139.15,145.755 L141.787,145.755 L114.638,76 L113.466,76 L113.466,79.287 L139.15,145.755 Z" stroke="none" />
        <path id="Baseline-S" d="M18,146 l800,0" />
        <path id="left-margin-Ultralight-S" d="M220,56 l0,110" />
        <path id="right-margin-Ultralight-S" d="M310,56 l0,110" />
        <path id="left-margin-Regular-S" d="M420,56 l0,110" />
        <path id="right-margin-Regular-S" d="M510,56 l0,110" />
        <path id="left-margin-Black-S" d="M620,56 l0,110" />
        <path id="right-margin-Black-S" d="M710,56 l0,110" />
        <path id="Capline-M" d="M18,276 l800,0" />
        <path id="Baseline-M" d="M18,346 l800,0" />
        <path id="Capline-L" d="M18,476 l800,0" />
        <path id="Baseline-L" d="M18,546 l800,0" />
    </g>
    <g id="Symbols">
        <g id="Ultralight-S">
            <path d="M301.117,128.5 L288.921,116.3 L276.651,75.818 C275.943,73.477 274.113,71.644 271.773,70.933 C269.433,70.221 266.892,70.724 265,72.275 C263.108,70.724 260.567,70.221 258.227,70.933 C255.887,71.644 254.057,73.477 253.349,75.818 L241.079,116.304 L228.883,128.5 C226.782,130.603 226.782,134.01 228.883,136.113 L239.884,147.114 C240.894,148.124 242.264,148.691 243.692,148.691 C245.12,148.691 246.49,148.124 247.5,147.114 L263.748,130.856 C264.199,130.404 264.617,129.922 265,129.412 C265.383,129.922 265.802,130.404 266.252,130.856 L282.5,147.117 C283.51,148.127 284.88,148.695 286.308,148.695 C287.736,148.695 289.106,148.127 290.116,147.117 L301.117,136.116 C302.127,135.106 302.695,133.736 302.695,132.308 C302.695,130.88 302.127,129.51 301.117,128.5 Z M243.69,143.308 L232.692,132.31 L236.963,128.039 L247.964,139.04 Z M262.308,121.349 C262.319,123.494 261.47,125.554 259.952,127.07 L251.767,135.231 L240.769,124.233 L245.363,119.636 C245.676,119.322 245.908,118.936 246.036,118.512 L258.488,77.38 C258.749,76.433 259.676,75.829 260.648,75.973 C261.62,76.117 262.332,76.963 262.308,77.945 Z M270.048,127.07 C268.53,125.554 267.681,123.494 267.692,121.349 L267.692,77.935 C267.693,76.971 268.399,76.153 269.352,76.012 C270.305,75.87 271.218,76.448 271.499,77.37 L283.951,118.502 C284.079,118.926 284.31,119.312 284.624,119.626 L289.5,124.502 L278.26,135.271 Z M286.31,143.308 L282.083,139.077 L293.32,128.308 L297.308,132.31 Z" />
        </g>
        <g id="Regular-S">
            <path d="M501.117,128.5 L488.921,116.3 L476.651,75.818 C475.943,73.477 474.113,71.644 471.773,70.933 C469.433,70.221 466.892,70.724 465,72.275 C463.108,70.724 460.567,70.221 458.227,70.933 C455.887,71.644 454.057,73.477 453.349,75.818 L441.079,116.304 L428.883,128.5 C426.782,130.603 426.782,134.01 428.883,136.113 L439.884,147.114 C440.894,148.124 442.264,148.691 443.692,148.691 C445.12,148.691 446.49,148.124 447.5,147.114 L463.748,130.856 C464.198,130.404 464.617,129.922 465,129.412 C465.383,129.922 465.801,130.404 466.252,130.856 L482.5,147.117 C483.51,148.127 484.88,148.695 486.308,148.695 C487.736,148.695 489.106,148.127 490.116,147.117 L501.117,136.116 C502.127,135.106 502.695,133.736 502.695,132.308 C502.695,130.88 502.127,129.51 501.117,128.5 Z M443.69,143.308 L432.692,132.31 L436.963,128.039 L447.964,139.04 Z M462.308,121.349 C462.319,123.494 461.47,125.554 459.952,127.07 L451.767,135.231 L440.769,124.233 L445.363,119.636 C445.676,119.322 445.908,118.936 446.036,118.512 L458.488,77.38 C458.749,76.433 459.676,75.829 460.648,75.973 C461.62,76.117 462.332,76.963 462.308,77.945 Z M470.048,127.07 C468.53,125.554 467.681,123.494 467.692,121.349 L467.692,77.935 C467.693,76.971 468.399,76.153 469.352,76.012 C470.305,75.87 471.218,76.448 471.499,77.37 L483.951,118.502 C484.079,118.926 484.31,119.312 484.624,119.626 L489.5,124.502 L478.26,135.271 Z M486.31,143.308 L482.083,139.077 L493.32,128.308 L497.308,132.31 Z" />
        </g>
        <g id="Black-S">
            <path d="M701.117,128.5 L688.921,116.3 L676.651,75.818 C675.943,73.477 674.113,71.644 671.773,70.933 C669.433,70.221 666.892,70.724 665,72.275 C663.108,70.724 660.567,70.221 658.227,70.933 C655.887,71.644 654.057,73.477 653.349,75.818 L641.079,116.304 L628.883,128.5 C626.782,130.603 626.782,134.01 628.883,136.113 L639.884,147.114 C640.894,148.124 642.264,148.691 643.692,148.691 C645.12,148.691 646.49,148.124 647.5,147.114 L663.748,130.856 C664.199,130.404 664.617,129.922 665,129.412 C665.383,129.922 665.802,130.404 666.252,130.856 L682.5,147.117 C683.51,148.127 684.88,148.695 686.308,148.695 C687.736,148.695 689.106,148.127 690.116,147.117 L701.117,136.116 C702.127,135.106 702.695,133.736 702.695,132.308 C702.695,130.88 702.127,129.51 701.117,128.5 Z M643.69,143.308 L632.692,132.31 L636.963,128.039 L647.964,139.04 Z M662.308,121.349 C662.319,123.494 661.47,125.554 659.952,127.07 L651.767,135.231 L640.769,124.233 L645.363,119.636 C645.677,119.322 645.908,118.936 646.036,118.512 L658.488,77.38 C658.749,76.433 659.676,75.829 660.648,75.973 C661.62,76.117 662.332,76.963 662.308,77.945 Z M670.048,127.07 C668.53,125.554 667.681,123.494 667.692,121.349 L667.692,77.935 C667.693,76.971 668.399,76.153 669.352,76.012 C670.305,75.87 671.218,76.448 671.499,77.37 L683.951,118.502 C684.079,118.926 684.31,119.312 684.624,119.626 L689.5,124.502 L678.26,135.271 Z M686.31,143.308 L682.083,139.077 L693.32,128.308 L697.308,132.31 Z" />
        </g>
    </g>
</svg>