<?xml version="1.0" encoding="UTF-8"?>
<svg height="600" width="800" xmlns="http://www.w3.org/2000/svg" xmlns:xlink="http://www.w3.org/1999/xlink">
    <g id="Notes" font-family="'LucidaGrande', 'Lucida Grande', sans-serif" font-size="13">
        <rect fill="white" height="600.0" width="800.0" x="0.0" y="0.0" />
        <g font-size="13">
            <text x="18.0" y="176.0">Small</text>
            <text x="18.0" y="376.0">Medium</text>
            <text x="18.0" y="576.0">Large</text>
        </g>
        <g font-size="9">
            <text x="250.0" y="30.0">Ultralight</text>
            <text x="450.0" y="30.0">Regular</text>
            <text x="650.0" y="30.0">Black</text>
            <text id="template-version" fill="#505050" text-anchor="end" x="785.0" y="575.0">Template v.3.0</text>
            <a href="https://github.com/swhitty/SwiftDraw">
                <text fill="#505050" text-anchor="end" x="785.0" y="590.0">https://github.com/swhitty/SwiftDraw</text>
            </a>
        </g>
    </g>
    <g id="Guides" stroke="rgb(39, 170, 225)" stroke-width="0.5">
        <path id="Capline-S" d="M18,76 l800,0" />
        <path id="H-reference" d="M85,145.755 L87.685,145.755 L113.369,79.287 L114.052,79.287 L114.052,76 L112.148,76 L85,145.755 Z M95.693,121.536 L130.996,121.536 L130.263,119.313 L96.474,119.313 L95.693,121.536 Z M139.15,145.755 L141.787,145.755 L114.638,76 L113.466,76 L113.466,79.287 L139.15,145.755 Z" stroke="none" />
        <path id="Baseline-S" d="M18,146 l800,0" />
        <path id="left-margin-Ultralight-S" d="M220,56 l0,110" />
        <path id="right-margin-Ultralight-S" d="M310,56 l0,110" />
        <path id="left-margin-Regular-S" d="M420,56 l0,110" />
        <path id="right-margin-Regular-S" d="M510,56 l0,110" />
        <path id="left-margin-Black-S" d="M620,56 l0,110" />
        <path id="right-margin-Black-S" d="M710,56 l0,110" />
        <path id="Capline-M" d="M18,276 l800,0" />
        <path id="Baseline-M" d="M18,346 l800,0" />
        <path id="Capline-L" d="M18,476 l800,0" />
        <path id="Baseline-L" d="M18,546 l800,0" />
    </g>
    <g id="Symbols">
        <g id="Ultralight-S">
            <path d="M297.123,81.408 C297.043,80.045 295.955,78.957 294.592,78.877 C268.971,77.373 248.449,85.087 239.699,99.558 C236.666,104.508 235.171,110.247 235.405,116.048 C235.597,121.406 237.158,126.817 240.046,132.151 L233.48,138.714 C232.427,139.768 232.428,141.473 233.481,142.525 C234.533,143.576 236.239,143.575 237.29,142.522 L243.853,135.957 C249.183,138.842 254.598,140.403 259.952,140.595 C260.327,140.609 260.7,140.609 261.073,140.615 C266.497,140.63 271.818,139.136 276.442,136.301 C290.913,127.551 298.63,107.032 297.123,81.408 Z M273.666,131.697 C266.01,136.335 256.947,136.409 247.85,131.956 L277.677,102.132 C278.73,101.079 278.729,99.373 277.676,98.322 C276.624,97.27 274.918,97.271 273.867,98.324 L244.044,128.163 C239.605,119.077 239.669,109.99 244.303,102.348 C251.737,90.074 269.409,83.353 291.859,84.154 C292.663,106.588 285.939,124.263 273.666,131.697 Z" />
        </g>
        <g id="Regular-S">
            <path d="M497.123,81.408 C497.043,80.045 495.955,78.957 494.592,78.877 C468.971,77.373 448.449,85.087 439.699,99.558 C436.666,104.508 435.171,110.247 435.405,116.048 C435.597,121.406 437.158,126.817 440.046,132.151 L433.48,138.714 C432.427,139.768 432.428,141.473 433.481,142.525 C434.533,143.576 436.239,143.575 437.29,142.522 L443.853,135.957 C449.183,138.842 454.598,140.403 459.952,140.595 C460.327,140.609 460.7,140.609 461.073,140.615 C466.497,140.63 471.818,139.136 476.442,136.301 C490.913,127.551 498.63,107.032 497.123,81.408 Z M473.666,131.697 C466.01,136.335 456.947,136.409 447.85,131.956 L477.677,102.132 C478.73,101.079 478.729,99.373 477.676,98.322 C476.624,97.27 474.918,97.271 473.867,98.324 L444.044,128.163 C439.605,119.077 439.669,109.99 444.303,102.348 C451.737,90.074 469.409,83.353 491.859,84.154 C492.663,106.588 485.939,124.263 473.666,131.697 Z" />
        </g>
        <g id="Black-S">
            <path d="M697.123,81.408 C697.043,80.045 695.955,78.957 694.592,78.877 C668.971,77.373 648.449,85.087 639.699,99.558 C636.666,104.508 635.171,110.247 635.405,116.048 C635.597,121.406 637.158,126.817 640.046,132.151 L633.48,138.714 C632.427,139.768 632.428,141.473 633.481,142.525 C634.533,143.576 636.239,143.575 637.291,142.522 L643.853,135.957 C649.183,138.842 654.598,140.403 659.952,140.595 C660.327,140.609 660.7,140.609 661.073,140.615 C666.497,140.63 671.818,139.136 676.442,136.301 C690.913,127.551 698.63,107.032 697.123,81.408 Z M673.666,131.697 C666.01,136.335 656.947,136.409 647.85,131.956 L677.677,102.132 C678.73,101.079 678.729,99.373 677.676,98.322 C676.624,97.27 674.918,97.271 673.867,98.324 L644.044,128.163 C639.605,119.077 639.669,109.99 644.303,102.348 C651.737,90.074 669.409,83.353 691.859,84.154 C692.663,106.588 685.939,124.263 673.666,131.697 Z" />
        </g>
    </g>
</svg>