<?xml version="1.0" encoding="UTF-8"?>
<svg height="600" width="800" xmlns="http://www.w3.org/2000/svg" xmlns:xlink="http://www.w3.org/1999/xlink">
    <g id="Notes" font-family="'LucidaGrande', 'Lucida Grande', sans-serif" font-size="13">
        <rect fill="white" height="600.0" width="800.0" x="0.0" y="0.0" />
        <g font-size="13">
            <text x="18.0" y="176.0">Small</text>
            <text x="18.0" y="376.0">Medium</text>
            <text x="18.0" y="576.0">Large</text>
        </g>
        <g font-size="9">
            <text x="250.0" y="30.0">Ultralight</text>
            <text x="450.0" y="30.0">Regular</text>
            <text x="650.0" y="30.0">Black</text>
            <text id="template-version" fill="#505050" text-anchor="end" x="785.0" y="575.0">Template v.3.0</text>
            <a href="https://github.com/swhitty/SwiftDraw">
                <text fill="#505050" text-anchor="end" x="785.0" y="590.0">https://github.com/swhitty/SwiftDraw</text>
            </a>
        </g>
    </g>
    <g id="Guides" stroke="rgb(39, 170, 225)" stroke-width="0.5">
        <path id="Capline-S" d="M18,76 l800,0" />
        <path id="H-reference" d="M85,145.755 L87.685,145.755 L113.369,79.287 L114.052,79.287 L114.052,76 L112.148,76 L85,145.755 Z M95.693,121.536 L130.996,121.536 L130.263,119.313 L96.474,119.313 L95.693,121.536 Z M139.15,145.755 L141.787,145.755 L114.638,76 L113.466,76 L113.466,79.287 L139.15,145.755 Z" stroke="none" />
        <path id="Baseline-S" d="M18,146 l800,0" />
        <path id="left-margin-Ultralight-S" d="M220,56 l0,110" />
        <path id="right-margin-Ultralight-S" d="M310,56 l0,110" />
        <path id="left-margin-Regular-S" d="M420,56 l0,110" />
        <path id="right-margin-Regular-S" d="M510,56 l0,110" />
        <path id="left-margin-Black-S" d="M620,56 l0,110" />
        <path id="right-margin-Black-S" d="M710,56 l0,110" />
        <path id="Capline-M" d="M18,276 l800,0" />
        <path id="Baseline-M" d="M18,346 l800,0" />
        <path id="Capline-L" d="M18,476 l800,0" />
        <path id="Baseline-L" d="M18,546 l800,0" />
    </g>
    <g id="Symbols">
        <g id="Ultralight-S">
            <path d="M236.313,84.75 C235.728,85.258 235.389,85.994 235.385,86.769 L235.385,143.308 C235.385,144.795 236.59,146 238.077,146 C239.564,146 240.769,144.795 240.769,143.308 L240.769,128.423 C249.785,121.301 257.552,125.141 266.498,129.57 C272.017,132.3 277.96,135.241 284.334,135.241 C289.022,135.241 293.939,133.642 299.081,129.183 C299.667,128.675 300.006,127.939 300.01,127.164 L300.01,86.769 C300.008,85.714 299.389,84.757 298.427,84.322 C297.465,83.888 296.338,84.055 295.544,84.75 C286.121,92.904 278.138,88.953 268.887,84.373 C259.302,79.621 248.436,74.247 236.313,84.75 Z M294.615,125.892 C285.6,133.013 277.832,129.17 268.887,124.744 C260.474,120.588 251.114,115.95 240.769,121.917 L240.769,88.045 C249.785,80.924 257.552,84.763 266.498,89.189 C274.911,93.345 284.274,97.983 294.615,92.016 Z" />
        </g>
        <g id="Regular-S">
            <path d="M436.313,84.75 C435.727,85.258 435.389,85.994 435.385,86.769 L435.385,143.308 C435.385,144.795 436.59,146 438.077,146 C439.564,146 440.769,144.795 440.769,143.308 L440.769,128.423 C449.785,121.301 457.552,125.141 466.498,129.57 C472.017,132.3 477.96,135.241 484.334,135.241 C489.022,135.241 493.939,133.642 499.081,129.183 C499.667,128.675 500.006,127.939 500.01,127.164 L500.01,86.769 C500.008,85.714 499.389,84.757 498.427,84.322 C497.465,83.888 496.338,84.055 495.544,84.75 C486.121,92.904 478.138,88.953 468.887,84.373 C459.302,79.621 448.436,74.247 436.313,84.75 Z M494.615,125.892 C485.6,133.013 477.832,129.17 468.887,124.744 C460.474,120.588 451.114,115.95 440.769,121.917 L440.769,88.045 C449.785,80.924 457.552,84.763 466.498,89.189 C474.911,93.345 484.274,97.983 494.615,92.016 Z" />
        </g>
        <g id="Black-S">
            <path d="M636.313,84.75 C635.728,85.258 635.389,85.994 635.385,86.769 L635.385,143.308 C635.385,144.795 636.59,146 638.077,146 C639.564,146 640.769,144.795 640.769,143.308 L640.769,128.423 C649.785,121.301 657.552,125.141 666.498,129.57 C672.017,132.3 677.96,135.241 684.334,135.241 C689.022,135.241 693.939,133.642 699.081,129.183 C699.667,128.675 700.006,127.939 700.01,127.164 L700.01,86.769 C700.008,85.714 699.389,84.757 698.427,84.322 C697.465,83.888 696.338,84.055 695.544,84.75 C686.121,92.904 678.138,88.953 668.887,84.373 C659.302,79.621 648.436,74.247 636.313,84.75 Z M694.615,125.892 C685.6,133.013 677.832,129.17 668.887,124.744 C660.474,120.588 651.114,115.95 640.769,121.917 L640.769,88.045 C649.785,80.924 657.552,84.763 666.498,89.189 C674.911,93.345 684.274,97.983 694.615,92.016 Z" />
        </g>
    </g>
</svg>