<?xml version="1.0" encoding="UTF-8"?>
<svg height="600" width="800" xmlns="http://www.w3.org/2000/svg" xmlns:xlink="http://www.w3.org/1999/xlink">
    <g id="Notes" font-family="'LucidaGrande', 'Lucida Grande', sans-serif" font-size="13">
        <rect fill="white" height="600.0" width="800.0" x="0.0" y="0.0" />
        <g font-size="13">
            <text x="18.0" y="176.0">Small</text>
            <text x="18.0" y="376.0">Medium</text>
            <text x="18.0" y="576.0">Large</text>
        </g>
        <g font-size="9">
            <text x="250.0" y="30.0">Ultralight</text>
            <text x="450.0" y="30.0">Regular</text>
            <text x="650.0" y="30.0">Black</text>
            <text id="template-version" fill="#505050" text-anchor="end" x="785.0" y="575.0">Template v.3.0</text>
            <a href="https://github.com/swhitty/SwiftDraw">
                <text fill="#505050" text-anchor="end" x="785.0" y="590.0">https://github.com/swhitty/SwiftDraw</text>
            </a>
        </g>
    </g>
    <g id="Guides" stroke="rgb(39, 170, 225)" stroke-width="0.5">
        <path id="Capline-S" d="M18,76 l800,0" />
        <path id="H-reference" d="M85,145.755 L87.685,145.755 L113.369,79.287 L114.052,79.287 L114.052,76 L112.148,76 L85,145.755 Z M95.693,121.536 L130.996,121.536 L130.263,119.313 L96.474,119.313 L95.693,121.536 Z M139.15,145.755 L141.787,145.755 L114.638,76 L113.466,76 L113.466,79.287 L139.15,145.755 Z" stroke="none" />
        <path id="Baseline-S" d="M18,146 l800,0" />
        <path id="left-margin-Ultralight-S" d="M220,56 l0,110" />
        <path id="right-margin-Ultralight-S" d="M310,56 l0,110" />
        <path id="left-margin-Regular-S" d="M420,56 l0,110" />
        <path id="right-margin-Regular-S" d="M510,56 l0,110" />
        <path id="left-margin-Black-S" d="M620,56 l0,110" />
        <path id="right-margin-Black-S" d="M710,56 l0,110" />
        <path id="Capline-M" d="M18,276 l800,0" />
        <path id="Baseline-M" d="M18,346 l800,0" />
        <path id="Capline-L" d="M18,476 l800,0" />
        <path id="Baseline-L" d="M18,546 l800,0" />
    </g>
    <g id="Symbols">
        <g id="Ultralight-S">
            <path d="M297.308,111 C296.39,111 295.48,111.157 294.615,111.464 L294.615,111 C294.615,96.939 284.159,89.98 276.523,84.898 C271.785,81.741 267.692,79.029 267.692,76 C267.692,74.513 266.487,73.308 265,73.308 C263.513,73.308 262.308,74.513 262.308,76 C262.308,79.029 258.215,81.741 253.477,84.898 C245.841,89.98 235.385,96.939 235.385,111 L235.385,111.464 C232.913,110.591 230.171,110.971 228.03,112.484 C225.889,113.997 224.616,116.455 224.615,119.077 L224.615,137.923 C224.615,138.637 224.899,139.322 225.404,139.827 C225.909,140.332 226.594,140.615 227.308,140.615 L248.846,140.615 C249.56,140.615 250.245,140.332 250.75,139.827 C251.255,139.322 251.538,138.637 251.538,137.923 L251.538,127.154 C251.538,125.667 252.744,124.462 254.231,124.462 C255.718,124.462 256.923,125.667 256.923,127.154 L256.923,137.923 C256.923,138.637 257.207,139.322 257.712,139.827 C258.217,140.332 258.901,140.615 259.615,140.615 L270.385,140.615 C271.099,140.615 271.783,140.332 272.288,139.827 C272.793,139.322 273.077,138.637 273.077,137.923 L273.077,127.154 C273.077,125.667 274.282,124.462 275.769,124.462 C277.256,124.462 278.462,125.667 278.462,127.154 L278.462,137.923 C278.462,138.637 278.745,139.322 279.25,139.827 C279.755,140.332 280.44,140.615 281.154,140.615 L302.692,140.615 C303.406,140.615 304.091,140.332 304.596,139.827 C305.101,139.322 305.385,138.637 305.385,137.923 L305.385,119.077 C305.385,116.935 304.534,114.88 303.019,113.366 C301.504,111.851 299.45,111 297.308,111 Z M256.462,89.381 C259.716,87.213 262.856,85.113 265,82.65 C267.134,85.124 270.284,87.224 273.538,89.381 C280.269,93.863 287.834,98.901 289.056,108.308 L240.931,108.308 C242.166,98.901 249.721,93.863 256.462,89.381 Z M230,119.077 C230,117.59 231.205,116.385 232.692,116.385 C234.179,116.385 235.385,117.59 235.385,119.077 L235.385,135.231 L230,135.231 Z M275.769,119.077 C273.627,119.077 271.573,119.928 270.058,121.443 C268.543,122.957 267.692,125.012 267.692,127.154 L267.692,135.231 L262.308,135.231 L262.308,127.154 C262.308,122.693 258.692,119.077 254.231,119.077 C249.77,119.077 246.154,122.693 246.154,127.154 L246.154,135.231 L240.769,135.231 L240.769,113.692 L289.231,113.692 L289.231,135.231 L283.846,135.231 L283.846,127.154 C283.846,125.012 282.995,122.957 281.48,121.443 C279.966,119.928 277.911,119.077 275.769,119.077 Z M300,135.231 L294.615,135.231 L294.615,119.077 C294.615,117.59 295.821,116.385 297.308,116.385 C298.795,116.385 300,117.59 300,119.077 Z" />
        </g>
        <g id="Regular-S">
            <path d="M497.308,111 C496.39,111 495.48,111.157 494.615,111.464 L494.615,111 C494.615,96.939 484.159,89.98 476.523,84.898 C471.785,81.741 467.692,79.029 467.692,76 C467.692,74.513 466.487,73.308 465,73.308 C463.513,73.308 462.308,74.513 462.308,76 C462.308,79.029 458.215,81.741 453.477,84.898 C445.841,89.98 435.385,96.939 435.385,111 L435.385,111.464 C432.913,110.591 430.171,110.971 428.03,112.484 C425.889,113.997 424.616,116.455 424.615,119.077 L424.615,137.923 C424.615,138.637 424.899,139.322 425.404,139.827 C425.909,140.332 426.594,140.615 427.308,140.615 L448.846,140.615 C449.56,140.615 450.245,140.332 450.75,139.827 C451.255,139.322 451.538,138.637 451.538,137.923 L451.538,127.154 C451.538,125.667 452.744,124.462 454.231,124.462 C455.718,124.462 456.923,125.667 456.923,127.154 L456.923,137.923 C456.923,138.637 457.207,139.322 457.712,139.827 C458.217,140.332 458.901,140.615 459.615,140.615 L470.385,140.615 C471.099,140.615 471.783,140.332 472.288,139.827 C472.793,139.322 473.077,138.637 473.077,137.923 L473.077,127.154 C473.077,125.667 474.282,124.462 475.769,124.462 C477.256,124.462 478.462,125.667 478.462,127.154 L478.462,137.923 C478.462,138.637 478.745,139.322 479.25,139.827 C479.755,140.332 480.44,140.615 481.154,140.615 L502.692,140.615 C503.406,140.615 504.091,140.332 504.596,139.827 C505.101,139.322 505.385,138.637 505.385,137.923 L505.385,119.077 C505.385,116.935 504.534,114.88 503.019,113.366 C501.504,111.851 499.45,111 497.308,111 Z M456.462,89.381 C459.716,87.213 462.856,85.113 465,82.65 C467.134,85.124 470.284,87.224 473.538,89.381 C480.269,93.863 487.834,98.901 489.056,108.308 L440.931,108.308 C442.166,98.901 449.721,93.863 456.462,89.381 Z M430,119.077 C430,117.59 431.205,116.385 432.692,116.385 C434.179,116.385 435.385,117.59 435.385,119.077 L435.385,135.231 L430,135.231 Z M475.769,119.077 C473.627,119.077 471.573,119.928 470.058,121.443 C468.543,122.957 467.692,125.012 467.692,127.154 L467.692,135.231 L462.308,135.231 L462.308,127.154 C462.308,122.693 458.692,119.077 454.231,119.077 C449.77,119.077 446.154,122.693 446.154,127.154 L446.154,135.231 L440.769,135.231 L440.769,113.692 L489.231,113.692 L489.231,135.231 L483.846,135.231 L483.846,127.154 C483.846,125.012 482.995,122.957 481.48,121.443 C479.966,119.928 477.911,119.077 475.769,119.077 Z M500,135.231 L494.615,135.231 L494.615,119.077 C494.615,117.59 495.821,116.385 497.308,116.385 C498.795,116.385 500,117.59 500,119.077 Z" />
        </g>
        <g id="Black-S">
            <path d="M697.308,111 C696.39,111 695.48,111.157 694.615,111.464 L694.615,111 C694.615,96.939 684.159,89.98 676.523,84.898 C671.785,81.741 667.692,79.029 667.692,76 C667.692,74.513 666.487,73.308 665,73.308 C663.513,73.308 662.308,74.513 662.308,76 C662.308,79.029 658.215,81.741 653.477,84.898 C645.841,89.98 635.385,96.939 635.385,111 L635.385,111.464 C632.913,110.591 630.171,110.971 628.03,112.484 C625.889,113.997 624.616,116.455 624.615,119.077 L624.615,137.923 C624.615,138.637 624.899,139.322 625.404,139.827 C625.909,140.332 626.594,140.615 627.308,140.615 L648.846,140.615 C649.56,140.615 650.245,140.332 650.75,139.827 C651.255,139.322 651.538,138.637 651.538,137.923 L651.538,127.154 C651.538,125.667 652.744,124.462 654.231,124.462 C655.718,124.462 656.923,125.667 656.923,127.154 L656.923,137.923 C656.923,138.637 657.207,139.322 657.712,139.827 C658.217,140.332 658.901,140.615 659.615,140.615 L670.385,140.615 C671.099,140.615 671.783,140.332 672.288,139.827 C672.793,139.322 673.077,138.637 673.077,137.923 L673.077,127.154 C673.077,125.667 674.282,124.462 675.769,124.462 C677.256,124.462 678.462,125.667 678.462,127.154 L678.462,137.923 C678.462,138.637 678.745,139.322 679.25,139.827 C679.755,140.332 680.44,140.615 681.154,140.615 L702.692,140.615 C703.406,140.615 704.091,140.332 704.596,139.827 C705.101,139.322 705.385,138.637 705.385,137.923 L705.385,119.077 C705.385,116.935 704.534,114.88 703.019,113.366 C701.504,111.851 699.45,111 697.308,111 Z M656.462,89.381 C659.716,87.213 662.856,85.113 665,82.65 C667.134,85.124 670.284,87.224 673.538,89.381 C680.269,93.863 687.834,98.901 689.056,108.308 L640.931,108.308 C642.166,98.901 649.721,93.863 656.462,89.381 Z M630,119.077 C630,117.59 631.205,116.385 632.692,116.385 C634.179,116.385 635.385,117.59 635.385,119.077 L635.385,135.231 L630,135.231 Z M675.769,119.077 C673.627,119.077 671.573,119.928 670.058,121.443 C668.543,122.957 667.692,125.012 667.692,127.154 L667.692,135.231 L662.308,135.231 L662.308,127.154 C662.308,122.693 658.692,119.077 654.231,119.077 C649.77,119.077 646.154,122.693 646.154,127.154 L646.154,135.231 L640.769,135.231 L640.769,113.692 L689.231,113.692 L689.231,135.231 L683.846,135.231 L683.846,127.154 C683.846,125.012 682.995,122.957 681.48,121.443 C679.966,119.928 677.911,119.077 675.769,119.077 Z M700,135.231 L694.615,135.231 L694.615,119.077 C694.615,117.59 695.821,116.385 697.308,116.385 C698.795,116.385 700,117.59 700,119.077 Z" />
        </g>
    </g>
</svg>