<?xml version="1.0" encoding="UTF-8"?>
<svg height="600" width="800" xmlns="http://www.w3.org/2000/svg" xmlns:xlink="http://www.w3.org/1999/xlink">
    <g id="Notes" font-family="'LucidaGrande', 'Lucida Grande', sans-serif" font-size="13">
        <rect fill="white" height="600.0" width="800.0" x="0.0" y="0.0" />
        <g font-size="13">
            <text x="18.0" y="176.0">Small</text>
            <text x="18.0" y="376.0">Medium</text>
            <text x="18.0" y="576.0">Large</text>
        </g>
        <g font-size="9">
            <text x="250.0" y="30.0">Ultralight</text>
            <text x="450.0" y="30.0">Regular</text>
            <text x="650.0" y="30.0">Black</text>
            <text id="template-version" fill="#505050" text-anchor="end" x="785.0" y="575.0">Template v.3.0</text>
            <a href="https://github.com/swhitty/SwiftDraw">
                <text fill="#505050" text-anchor="end" x="785.0" y="590.0">https://github.com/swhitty/SwiftDraw</text>
            </a>
        </g>
    </g>
    <g id="Guides" stroke="rgb(39, 170, 225)" stroke-width="0.5">
        <path id="Capline-S" d="M18,76 l800,0" />
        <path id="H-reference" d="M85,145.755 L87.685,145.755 L113.369,79.287 L114.052,79.287 L114.052,76 L112.148,76 L85,145.755 Z M95.693,121.536 L130.996,121.536 L130.263,119.313 L96.474,119.313 L95.693,121.536 Z M139.15,145.755 L141.787,145.755 L114.638,76 L113.466,76 L113.466,79.287 L139.15,145.755 Z" stroke="none" />
        <path id="Baseline-S" d="M18,146 l800,0" />
        <path id="left-margin-Ultralight-S" d="M220,56 l0,110" />
        <path id="right-margin-Ultralight-S" d="M310,56 l0,110" />
        <path id="left-margin-Regular-S" d="M420,56 l0,110" />
        <path id="right-margin-Regular-S" d="M510,56 l0,110" />
        <path id="left-margin-Black-S" d="M620,56 l0,110" />
        <path id="right-margin-Black-S" d="M710,56 l0,110" />
        <path id="Capline-M" d="M18,276 l800,0" />
        <path id="Baseline-M" d="M18,346 l800,0" />
        <path id="Capline-L" d="M18,476 l800,0" />
        <path id="Baseline-L" d="M18,546 l800,0" />
    </g>
    <g id="Symbols">
        <g id="Ultralight-S">
            <path d="M281.154,78.692 L248.846,78.692 C246.704,78.692 244.65,79.543 243.135,81.058 C241.62,82.573 240.769,84.627 240.769,86.769 L240.769,143.308 C240.769,145.45 241.62,147.504 243.135,149.019 C244.65,150.534 246.704,151.385 248.846,151.385 L281.154,151.385 C283.296,151.385 285.35,150.534 286.865,149.019 C288.38,147.504 289.231,145.45 289.231,143.308 L289.231,86.769 C289.231,84.627 288.38,82.573 286.865,81.058 C285.35,79.543 283.296,78.692 281.154,78.692 Z M283.846,143.308 C283.846,144.022 283.562,144.707 283.058,145.211 C282.553,145.716 281.868,146 281.154,146 L248.846,146 C248.132,146 247.447,145.716 246.942,145.211 C246.438,144.707 246.154,144.022 246.154,143.308 L246.154,86.769 C246.154,86.055 246.438,85.37 246.942,84.865 C247.447,84.361 248.132,84.077 248.846,84.077 L281.154,84.077 C281.868,84.077 282.553,84.361 283.058,84.865 C283.562,85.37 283.846,86.055 283.846,86.769 Z M278.462,135.231 C278.462,135.945 278.178,136.63 277.673,137.135 C277.168,137.639 276.483,137.923 275.769,137.923 L254.231,137.923 C252.744,137.923 251.538,136.718 251.538,135.231 C251.538,133.744 252.744,132.538 254.231,132.538 L275.769,132.538 C276.483,132.538 277.168,132.822 277.673,133.327 C278.178,133.832 278.462,134.517 278.462,135.231 Z M251.538,70.615 C251.538,69.901 251.822,69.217 252.327,68.712 C252.832,68.207 253.517,67.923 254.231,67.923 L275.769,67.923 C277.256,67.923 278.462,69.128 278.462,70.615 C278.462,72.102 277.256,73.308 275.769,73.308 L254.231,73.308 C253.517,73.308 252.832,73.024 252.327,72.519 C251.822,72.014 251.538,71.329 251.538,70.615 Z M278.462,121.769 C278.462,122.483 278.178,123.168 277.673,123.673 C277.168,124.178 276.483,124.462 275.769,124.462 L254.231,124.462 C252.744,124.462 251.538,123.256 251.538,121.769 C251.538,120.282 252.744,119.077 254.231,119.077 L275.769,119.077 C276.483,119.077 277.168,119.361 277.673,119.865 C278.178,120.37 278.462,121.055 278.462,121.769 Z" />
        </g>
        <g id="Regular-S">
            <path d="M481.154,78.692 L448.846,78.692 C446.704,78.692 444.65,79.543 443.135,81.058 C441.62,82.573 440.769,84.627 440.769,86.769 L440.769,143.308 C440.769,145.45 441.62,147.504 443.135,149.019 C444.65,150.534 446.704,151.385 448.846,151.385 L481.154,151.385 C483.296,151.385 485.35,150.534 486.865,149.019 C488.38,147.504 489.231,145.45 489.231,143.308 L489.231,86.769 C489.231,84.627 488.38,82.573 486.865,81.058 C485.35,79.543 483.296,78.692 481.154,78.692 Z M483.846,143.308 C483.846,144.022 483.562,144.707 483.058,145.211 C482.553,145.716 481.868,146 481.154,146 L448.846,146 C448.132,146 447.447,145.716 446.942,145.211 C446.438,144.707 446.154,144.022 446.154,143.308 L446.154,86.769 C446.154,86.055 446.438,85.37 446.942,84.865 C447.447,84.361 448.132,84.077 448.846,84.077 L481.154,84.077 C481.868,84.077 482.553,84.361 483.058,84.865 C483.562,85.37 483.846,86.055 483.846,86.769 Z M478.462,135.231 C478.462,135.945 478.178,136.63 477.673,137.135 C477.168,137.639 476.483,137.923 475.769,137.923 L454.231,137.923 C452.744,137.923 451.538,136.718 451.538,135.231 C451.538,133.744 452.744,132.538 454.231,132.538 L475.769,132.538 C476.483,132.538 477.168,132.822 477.673,133.327 C478.178,133.832 478.462,134.517 478.462,135.231 Z M451.538,70.615 C451.538,69.901 451.822,69.217 452.327,68.712 C452.832,68.207 453.517,67.923 454.231,67.923 L475.769,67.923 C477.256,67.923 478.462,69.128 478.462,70.615 C478.462,72.102 477.256,73.308 475.769,73.308 L454.231,73.308 C453.517,73.308 452.832,73.024 452.327,72.519 C451.822,72.014 451.538,71.329 451.538,70.615 Z M478.462,121.769 C478.462,122.483 478.178,123.168 477.673,123.673 C477.168,124.178 476.483,124.462 475.769,124.462 L454.231,124.462 C452.744,124.462 451.538,123.256 451.538,121.769 C451.538,120.282 452.744,119.077 454.231,119.077 L475.769,119.077 C476.483,119.077 477.168,119.361 477.673,119.865 C478.178,120.37 478.462,121.055 478.462,121.769 Z" />
        </g>
        <g id="Black-S">
            <path d="M681.154,78.692 L648.846,78.692 C646.704,78.692 644.65,79.543 643.135,81.058 C641.62,82.573 640.769,84.627 640.769,86.769 L640.769,143.308 C640.769,145.45 641.62,147.504 643.135,149.019 C644.65,150.534 646.704,151.385 648.846,151.385 L681.154,151.385 C683.296,151.385 685.35,150.534 686.865,149.019 C688.38,147.504 689.231,145.45 689.231,143.308 L689.231,86.769 C689.231,84.627 688.38,82.573 686.865,81.058 C685.35,79.543 683.296,78.692 681.154,78.692 Z M683.846,143.308 C683.846,144.022 683.562,144.707 683.058,145.211 C682.553,145.716 681.868,146 681.154,146 L648.846,146 C648.132,146 647.447,145.716 646.942,145.211 C646.438,144.707 646.154,144.022 646.154,143.308 L646.154,86.769 C646.154,86.055 646.438,85.37 646.942,84.865 C647.447,84.361 648.132,84.077 648.846,84.077 L681.154,84.077 C681.868,84.077 682.553,84.361 683.058,84.865 C683.562,85.37 683.846,86.055 683.846,86.769 Z M678.462,135.231 C678.462,135.945 678.178,136.63 677.673,137.135 C677.168,137.639 676.483,137.923 675.769,137.923 L654.231,137.923 C652.744,137.923 651.538,136.718 651.538,135.231 C651.538,133.744 652.744,132.538 654.231,132.538 L675.769,132.538 C676.483,132.538 677.168,132.822 677.673,133.327 C678.178,133.832 678.462,134.517 678.462,135.231 Z M651.538,70.615 C651.538,69.901 651.822,69.217 652.327,68.712 C652.832,68.207 653.517,67.923 654.231,67.923 L675.769,67.923 C677.256,67.923 678.462,69.128 678.462,70.615 C678.462,72.102 677.256,73.308 675.769,73.308 L654.231,73.308 C653.517,73.308 652.832,73.024 652.327,72.519 C651.822,72.014 651.538,71.329 651.538,70.615 Z M678.462,121.769 C678.462,122.483 678.178,123.168 677.673,123.673 C677.168,124.178 676.483,124.462 675.769,124.462 L654.231,124.462 C652.744,124.462 651.538,123.256 651.538,121.769 C651.538,120.282 652.744,119.077 654.231,119.077 L675.769,119.077 C676.483,119.077 677.168,119.361 677.673,119.865 C678.178,120.37 678.462,121.055 678.462,121.769 Z" />
        </g>
    </g>
</svg>