<?xml version="1.0" encoding="UTF-8"?>
<svg height="600" width="800" xmlns="http://www.w3.org/2000/svg" xmlns:xlink="http://www.w3.org/1999/xlink">
    <g id="Notes" font-family="'LucidaGrande', 'Lucida Grande', sans-serif" font-size="13">
        <rect fill="white" height="600.0" width="800.0" x="0.0" y="0.0" />
        <g font-size="13">
            <text x="18.0" y="176.0">Small</text>
            <text x="18.0" y="376.0">Medium</text>
            <text x="18.0" y="576.0">Large</text>
        </g>
        <g font-size="9">
            <text x="250.0" y="30.0">Ultralight</text>
            <text x="450.0" y="30.0">Regular</text>
            <text x="650.0" y="30.0">Black</text>
            <text id="template-version" fill="#505050" text-anchor="end" x="785.0" y="575.0">Template v.3.0</text>
            <a href="https://github.com/swhitty/SwiftDraw">
                <text fill="#505050" text-anchor="end" x="785.0" y="590.0">https://github.com/swhitty/SwiftDraw</text>
            </a>
        </g>
    </g>
    <g id="Guides" stroke="rgb(39, 170, 225)" stroke-width="0.5">
        <path id="Capline-S" d="M18,76 l800,0" />
        <path id="H-reference" d="M85,145.755 L87.685,145.755 L113.369,79.287 L114.052,79.287 L114.052,76 L112.148,76 L85,145.755 Z M95.693,121.536 L130.996,121.536 L130.263,119.313 L96.474,119.313 L95.693,121.536 Z M139.15,145.755 L141.787,145.755 L114.638,76 L113.466,76 L113.466,79.287 L139.15,145.755 Z" stroke="none" />
        <path id="Baseline-S" d="M18,146 l800,0" />
        <path id="left-margin-Ultralight-S" d="M220,56 l0,110" />
        <path id="right-margin-Ultralight-S" d="M310,56 l0,110" />
        <path id="left-margin-Regular-S" d="M420,56 l0,110" />
        <path id="right-margin-Regular-S" d="M510,56 l0,110" />
        <path id="left-margin-Black-S" d="M620,56 l0,110" />
        <path id="right-margin-Black-S" d="M710,56 l0,110" />
        <path id="Capline-M" d="M18,276 l800,0" />
        <path id="Baseline-M" d="M18,346 l800,0" />
        <path id="Capline-L" d="M18,476 l800,0" />
        <path id="Baseline-L" d="M18,546 l800,0" />
    </g>
    <g id="Symbols">
        <g id="Ultralight-S">
            <path d="M294.545,107.692 C294.338,106.815 293.706,106.101 292.862,105.787 L273.474,98.514 L278.408,73.836 C278.637,72.658 278.059,71.47 276.991,70.924 C275.922,70.378 274.621,70.605 273.8,71.48 L236.108,111.865 C235.486,112.52 235.235,113.443 235.438,114.324 C235.641,115.204 236.272,115.923 237.118,116.24 L256.513,123.512 L251.592,148.164 C251.363,149.342 251.941,150.53 253.009,151.076 C254.078,151.622 255.379,151.395 256.2,150.52 L293.892,110.135 C294.502,109.48 294.747,108.564 294.545,107.692 Z M258.73,139.942 L262.254,122.314 C262.514,121.023 261.802,119.733 260.571,119.265 L242.788,112.585 L271.266,82.075 L267.746,99.702 C267.486,100.994 268.198,102.284 269.429,102.751 L287.198,109.415 Z" />
        </g>
        <g id="Regular-S">
            <path d="M494.545,107.692 C494.338,106.815 493.706,106.101 492.862,105.787 L473.474,98.514 L478.408,73.836 C478.637,72.658 478.059,71.47 476.991,70.924 C475.922,70.378 474.621,70.605 473.8,71.48 L436.108,111.865 C435.486,112.52 435.235,113.443 435.438,114.324 C435.641,115.204 436.272,115.923 437.118,116.24 L456.512,123.512 L451.592,148.164 C451.363,149.342 451.941,150.53 453.009,151.076 C454.078,151.622 455.379,151.395 456.2,150.52 L493.892,110.135 C494.502,109.48 494.747,108.564 494.545,107.692 Z M458.73,139.942 L462.254,122.314 C462.514,121.023 461.802,119.733 460.571,119.265 L442.788,112.585 L471.266,82.075 L467.746,99.702 C467.486,100.994 468.198,102.284 469.429,102.751 L487.198,109.415 Z" />
        </g>
        <g id="Black-S">
            <path d="M694.545,107.692 C694.338,106.815 693.706,106.101 692.862,105.787 L673.474,98.514 L678.408,73.836 C678.637,72.658 678.059,71.47 676.991,70.924 C675.922,70.378 674.621,70.605 673.8,71.48 L636.108,111.865 C635.486,112.52 635.235,113.443 635.438,114.324 C635.641,115.204 636.272,115.923 637.118,116.24 L656.513,123.512 L651.592,148.164 C651.363,149.342 651.941,150.53 653.009,151.076 C654.078,151.622 655.379,151.395 656.2,150.52 L693.892,110.135 C694.502,109.48 694.747,108.564 694.545,107.692 Z M658.73,139.942 L662.254,122.314 C662.514,121.023 661.802,119.733 660.571,119.265 L642.788,112.585 L671.266,82.075 L667.746,99.702 C667.486,100.994 668.198,102.284 669.429,102.751 L687.198,109.415 Z" />
        </g>
    </g>
</svg>