<?xml version="1.0" encoding="UTF-8"?>
<svg height="600" width="800" xmlns="http://www.w3.org/2000/svg" xmlns:xlink="http://www.w3.org/1999/xlink">
    <g id="Notes" font-family="'LucidaGrande', 'Lucida Grande', sans-serif" font-size="13">
        <rect fill="white" height="600.0" width="800.0" x="0.0" y="0.0" />
        <g font-size="13">
            <text x="18.0" y="176.0">Small</text>
            <text x="18.0" y="376.0">Medium</text>
            <text x="18.0" y="576.0">Large</text>
        </g>
        <g font-size="9">
            <text x="250.0" y="30.0">Ultralight</text>
            <text x="450.0" y="30.0">Regular</text>
            <text x="650.0" y="30.0">Black</text>
            <text id="template-version" fill="#505050" text-anchor="end" x="785.0" y="575.0">Template v.3.0</text>
            <a href="https://github.com/swhitty/SwiftDraw">
                <text fill="#505050" text-anchor="end" x="785.0" y="590.0">https://github.com/swhitty/SwiftDraw</text>
            </a>
        </g>
    </g>
    <g id="Guides" stroke="rgb(39, 170, 225)" stroke-width="0.5">
        <path id="Capline-S" d="M18,76 l800,0" />
        <path id="H-reference" d="M85,145.755 L87.685,145.755 L113.369,79.287 L114.052,79.287 L114.052,76 L112.148,76 L85,145.755 Z M95.693,121.536 L130.996,121.536 L130.263,119.313 L96.474,119.313 L95.693,121.536 Z M139.15,145.755 L141.787,145.755 L114.638,76 L113.466,76 L113.466,79.287 L139.15,145.755 Z" stroke="none" />
        <path id="Baseline-S" d="M18,146 l800,0" />
        <path id="left-margin-Ultralight-S" d="M220,56 l0,110" />
        <path id="right-margin-Ultralight-S" d="M310,56 l0,110" />
        <path id="left-margin-Regular-S" d="M420,56 l0,110" />
        <path id="right-margin-Regular-S" d="M510,56 l0,110" />
        <path id="left-margin-Black-S" d="M620,56 l0,110" />
        <path id="right-margin-Black-S" d="M710,56 l0,110" />
        <path id="Capline-M" d="M18,276 l800,0" />
        <path id="Baseline-M" d="M18,346 l800,0" />
        <path id="Capline-L" d="M18,476 l800,0" />
        <path id="Baseline-L" d="M18,546 l800,0" />
    </g>
    <g id="Symbols">
        <g id="Ultralight-S">
            <path d="M299.542,84.535 C297.523,82.514 294.783,81.38 291.926,81.38 C289.07,81.38 286.33,82.514 284.311,84.535 L284.311,84.535 C283.633,85.212 283.049,85.977 282.574,86.81 L273.077,84.218 C273.137,79.836 270.535,75.854 266.497,74.149 C262.459,72.445 257.79,73.358 254.692,76.458 L254.692,76.458 C251.373,79.784 250.589,84.877 252.753,89.048 L241.331,99.329 C237.059,96.505 231.39,97.075 227.765,100.692 L227.765,100.692 C223.681,104.745 223.505,111.293 227.365,115.561 C231.226,119.828 237.759,120.306 242.2,116.647 L265.757,133.932 C263.661,139.181 265.98,145.158 271.069,147.62 C276.157,150.082 282.283,148.19 285.098,143.288 C287.912,138.386 286.458,132.142 281.766,128.988 L290.984,102.876 C291.294,102.903 291.603,102.903 291.913,102.916 C296.268,102.916 300.194,100.292 301.86,96.269 C303.527,92.246 302.607,87.615 299.529,84.535 Z M258.485,80.264 L258.485,80.264 C260.588,78.163 263.996,78.164 266.098,80.267 C268.2,82.369 268.2,85.778 266.098,87.88 C263.996,89.983 260.588,89.984 258.485,87.883 C257.475,86.871 256.91,85.5 256.912,84.071 C256.915,82.642 257.485,81.272 258.498,80.264 Z M231.562,112.117 C230.55,111.107 229.982,109.737 229.982,108.308 C229.982,106.879 230.55,105.508 231.562,104.498 L231.562,104.498 C233.665,102.397 237.073,102.398 239.175,104.501 C241.277,106.604 241.277,110.012 239.175,112.114 C237.073,114.217 233.665,114.218 231.562,112.117 Z M279.569,141.733 C277.466,143.836 274.057,143.836 271.953,141.733 C269.85,139.63 269.85,136.221 271.952,134.117 L271.952,134.117 C274.055,132.014 277.465,132.014 279.568,134.117 C281.671,136.22 281.672,139.629 279.569,141.733 Z M276.691,127.201 C273.899,126.958 271.123,127.813 268.951,129.584 L245.393,112.299 C246.548,109.385 246.384,106.114 244.942,103.33 L256.368,93.049 C258.852,94.696 261.908,95.239 264.808,94.55 C267.708,93.86 270.193,92 271.67,89.411 L281.154,92.006 C281.102,95.643 282.889,99.06 285.906,101.092 Z M295.726,95.957 C294.385,97.406 292.359,98.005 290.446,97.518 C288.533,97.031 287.039,95.537 286.554,93.623 C286.069,91.709 286.67,89.684 288.12,88.344 L288.12,88.344 C290.223,86.241 293.632,86.241 295.736,88.344 C297.839,90.447 297.839,93.856 295.737,95.96 Z" />
        </g>
        <g id="Regular-S">
            <path d="M499.542,84.535 C497.523,82.514 494.783,81.38 491.926,81.38 C489.07,81.38 486.33,82.514 484.311,84.535 L484.311,84.535 C483.633,85.212 483.049,85.977 482.574,86.81 L473.077,84.218 C473.137,79.836 470.535,75.854 466.497,74.149 C462.459,72.445 457.79,73.358 454.692,76.458 L454.692,76.458 C451.373,79.784 450.589,84.877 452.753,89.048 L441.331,99.329 C437.059,96.505 431.39,97.075 427.765,100.692 L427.765,100.692 C423.681,104.745 423.505,111.293 427.365,115.561 C431.226,119.828 437.759,120.306 442.199,116.647 L465.757,133.932 C463.661,139.181 465.98,145.158 471.069,147.62 C476.157,150.082 482.283,148.19 485.098,143.288 C487.912,138.386 486.458,132.142 481.766,128.988 L490.984,102.876 C491.294,102.903 491.603,102.903 491.913,102.916 C496.268,102.916 500.194,100.292 501.86,96.269 C503.527,92.246 502.607,87.615 499.529,84.535 Z M458.485,80.264 L458.485,80.264 C460.588,78.163 463.996,78.164 466.098,80.267 C468.2,82.369 468.2,85.778 466.098,87.88 C463.996,89.983 460.588,89.984 458.485,87.883 C457.475,86.871 456.91,85.5 456.912,84.071 C456.915,82.642 457.485,81.272 458.498,80.264 Z M431.562,112.117 C430.55,111.107 429.982,109.737 429.982,108.308 C429.982,106.879 430.55,105.508 431.562,104.498 L431.562,104.498 C433.665,102.397 437.073,102.398 439.175,104.501 C441.277,106.604 441.277,110.012 439.175,112.114 C437.073,114.217 433.665,114.218 431.562,112.117 Z M479.569,141.733 C477.466,143.836 474.057,143.836 471.953,141.733 C469.85,139.63 469.85,136.221 471.952,134.117 L471.952,134.117 C474.055,132.014 477.465,132.014 479.568,134.117 C481.671,136.22 481.672,139.629 479.569,141.733 Z M476.691,127.201 C473.899,126.958 471.123,127.813 468.951,129.584 L445.393,112.299 C446.548,109.385 446.384,106.114 444.942,103.33 L456.368,93.049 C458.852,94.696 461.908,95.239 464.808,94.55 C467.708,93.86 470.193,92 471.67,89.411 L481.154,92.006 C481.102,95.643 482.889,99.06 485.906,101.092 Z M495.726,95.957 C494.385,97.406 492.359,98.005 490.446,97.518 C488.533,97.031 487.039,95.537 486.554,93.623 C486.069,91.709 486.67,89.684 488.12,88.344 L488.12,88.344 C490.223,86.241 493.632,86.241 495.736,88.344 C497.839,90.447 497.839,93.856 495.736,95.96 Z" />
        </g>
        <g id="Black-S">
            <path d="M699.542,84.535 C697.523,82.514 694.783,81.38 691.926,81.38 C689.07,81.38 686.33,82.514 684.311,84.535 L684.311,84.535 C683.633,85.212 683.049,85.977 682.574,86.81 L673.077,84.218 C673.137,79.836 670.535,75.854 666.497,74.149 C662.459,72.445 657.79,73.358 654.692,76.458 L654.692,76.458 C651.373,79.784 650.589,84.877 652.753,89.048 L641.331,99.329 C637.059,96.505 631.39,97.075 627.765,100.692 L627.765,100.692 C623.681,104.745 623.505,111.293 627.365,115.561 C631.226,119.828 637.759,120.306 642.2,116.647 L665.757,133.932 C663.661,139.181 665.98,145.158 671.069,147.62 C676.157,150.082 682.283,148.19 685.098,143.288 C687.912,138.386 686.458,132.142 681.766,128.988 L690.984,102.876 C691.294,102.903 691.603,102.903 691.913,102.916 C696.268,102.916 700.194,100.292 701.86,96.269 C703.527,92.246 702.607,87.615 699.529,84.535 Z M658.485,80.264 L658.485,80.264 C660.588,78.163 663.996,78.164 666.098,80.267 C668.2,82.369 668.2,85.778 666.098,87.88 C663.996,89.983 660.588,89.984 658.485,87.883 C657.475,86.871 656.91,85.5 656.912,84.071 C656.915,82.642 657.485,81.272 658.498,80.264 Z M631.562,112.117 C630.55,111.107 629.982,109.737 629.982,108.308 C629.982,106.879 630.55,105.508 631.562,104.498 L631.562,104.498 C633.665,102.397 637.073,102.398 639.175,104.501 C641.277,106.604 641.277,110.012 639.175,112.114 C637.073,114.217 633.665,114.218 631.562,112.117 Z M679.569,141.733 C677.466,143.836 674.057,143.836 671.953,141.733 C669.85,139.63 669.85,136.221 671.952,134.117 L671.952,134.117 C674.055,132.014 677.465,132.014 679.568,134.117 C681.671,136.22 681.672,139.629 679.569,141.733 Z M676.691,127.201 C673.899,126.958 671.123,127.813 668.951,129.584 L645.393,112.299 C646.548,109.385 646.384,106.114 644.942,103.33 L656.368,93.049 C658.852,94.696 661.908,95.239 664.808,94.55 C667.708,93.86 670.193,92 671.67,89.411 L681.154,92.006 C681.102,95.643 682.889,99.06 685.906,101.092 Z M695.726,95.957 C694.385,97.406 692.359,98.005 690.446,97.518 C688.533,97.031 687.039,95.537 686.554,93.623 C686.069,91.709 686.67,89.684 688.12,88.344 L688.12,88.344 C690.223,86.241 693.632,86.241 695.736,88.344 C697.839,90.447 697.839,93.856 695.737,95.96 Z" />
        </g>
    </g>
</svg>