<?xml version="1.0" encoding="UTF-8"?>
<svg height="600" width="800" xmlns="http://www.w3.org/2000/svg" xmlns:xlink="http://www.w3.org/1999/xlink">
    <g id="Notes" font-family="'LucidaGrande', 'Lucida Grande', sans-serif" font-size="13">
        <rect fill="white" height="600.0" width="800.0" x="0.0" y="0.0" />
        <g font-size="13">
            <text x="18.0" y="176.0">Small</text>
            <text x="18.0" y="376.0">Medium</text>
            <text x="18.0" y="576.0">Large</text>
        </g>
        <g font-size="9">
            <text x="250.0" y="30.0">Ultralight</text>
            <text x="450.0" y="30.0">Regular</text>
            <text x="650.0" y="30.0">Black</text>
            <text id="template-version" fill="#505050" text-anchor="end" x="785.0" y="575.0">Template v.3.0</text>
            <a href="https://github.com/swhitty/SwiftDraw">
                <text fill="#505050" text-anchor="end" x="785.0" y="590.0">https://github.com/swhitty/SwiftDraw</text>
            </a>
        </g>
    </g>
    <g id="Guides" stroke="rgb(39, 170, 225)" stroke-width="0.5">
        <path id="Capline-S" d="M18,76 l800,0" />
        <path id="H-reference" d="M85,145.755 L87.685,145.755 L113.369,79.287 L114.052,79.287 L114.052,76 L112.148,76 L85,145.755 Z M95.693,121.536 L130.996,121.536 L130.263,119.313 L96.474,119.313 L95.693,121.536 Z M139.15,145.755 L141.787,145.755 L114.638,76 L113.466,76 L113.466,79.287 L139.15,145.755 Z" stroke="none" />
        <path id="Baseline-S" d="M18,146 l800,0" />
        <path id="left-margin-Ultralight-S" d="M220,56 l0,110" />
        <path id="right-margin-Ultralight-S" d="M310,56 l0,110" />
        <path id="left-margin-Regular-S" d="M420,56 l0,110" />
        <path id="right-margin-Regular-S" d="M510,56 l0,110" />
        <path id="left-margin-Black-S" d="M620,56 l0,110" />
        <path id="right-margin-Black-S" d="M710,56 l0,110" />
        <path id="Capline-M" d="M18,276 l800,0" />
        <path id="Baseline-M" d="M18,346 l800,0" />
        <path id="Capline-L" d="M18,476 l800,0" />
        <path id="Baseline-L" d="M18,546 l800,0" />
    </g>
    <g id="Symbols">
        <g id="Ultralight-S">
            <path d="M305.385,113.692 C304.671,113.692 303.986,113.976 303.481,114.481 C302.976,114.986 302.692,115.671 302.692,116.385 L302.692,121.769 L287.652,121.769 L281.49,115.597 L298.432,98.652 C300.533,96.55 300.533,93.142 298.432,91.04 L279.586,72.194 C278.576,71.184 277.206,70.616 275.778,70.616 C274.349,70.616 272.98,71.184 271.97,72.194 L222.906,121.413 C221.946,122.376 221.66,123.822 222.181,125.078 C222.702,126.335 223.928,127.154 225.288,127.154 L238.538,127.154 L250.425,139.037 C252.527,141.138 255.934,141.138 258.037,139.037 L277.674,119.413 L283.846,125.575 C284.852,126.59 286.224,127.158 287.652,127.154 L302.692,127.154 L302.692,132.538 C302.692,134.025 303.898,135.231 305.385,135.231 C306.872,135.231 308.077,134.025 308.077,132.538 L308.077,116.385 C308.077,115.671 307.793,114.986 307.288,114.481 C306.783,113.976 306.099,113.692 305.385,113.692 Z M275.769,76 L280.04,80.271 L238.538,121.769 L230.155,121.769 Z M254.231,135.231 L243.462,124.462 L283.846,84.077 L294.615,94.846 Z" />
        </g>
        <g id="Regular-S">
            <path d="M505.385,113.692 C504.671,113.692 503.986,113.976 503.481,114.481 C502.976,114.986 502.692,115.671 502.692,116.385 L502.692,121.769 L487.652,121.769 L481.49,115.597 L498.432,98.652 C500.533,96.55 500.533,93.142 498.432,91.04 L479.586,72.194 C478.576,71.184 477.206,70.616 475.778,70.616 C474.349,70.616 472.98,71.184 471.97,72.194 L422.906,121.413 C421.946,122.376 421.659,123.822 422.181,125.078 C422.702,126.335 423.928,127.154 425.288,127.154 L438.538,127.154 L450.424,139.037 C452.527,141.138 455.934,141.138 458.037,139.037 L477.674,119.413 L483.846,125.575 C484.852,126.59 486.224,127.158 487.652,127.154 L502.692,127.154 L502.692,132.538 C502.692,134.025 503.898,135.231 505.385,135.231 C506.872,135.231 508.077,134.025 508.077,132.538 L508.077,116.385 C508.077,115.671 507.793,114.986 507.288,114.481 C506.783,113.976 506.099,113.692 505.385,113.692 Z M475.769,76 L480.04,80.271 L438.538,121.769 L430.155,121.769 Z M454.231,135.231 L443.462,124.462 L483.846,84.077 L494.615,94.846 Z" />
        </g>
        <g id="Black-S">
            <path d="M705.385,113.692 C704.671,113.692 703.986,113.976 703.481,114.481 C702.976,114.986 702.692,115.671 702.692,116.385 L702.692,121.769 L687.652,121.769 L681.49,115.597 L698.432,98.652 C700.533,96.55 700.533,93.142 698.432,91.04 L679.586,72.194 C678.576,71.184 677.206,70.616 675.778,70.616 C674.349,70.616 672.98,71.184 671.97,72.194 L622.906,121.413 C621.946,122.376 621.66,123.822 622.181,125.078 C622.702,126.335 623.928,127.154 625.288,127.154 L638.538,127.154 L650.425,139.037 C652.527,141.138 655.935,141.138 658.037,139.037 L677.674,119.413 L683.846,125.575 C684.853,126.59 686.224,127.158 687.652,127.154 L702.692,127.154 L702.692,132.538 C702.692,134.025 703.898,135.231 705.385,135.231 C706.872,135.231 708.077,134.025 708.077,132.538 L708.077,116.385 C708.077,115.671 707.793,114.986 707.288,114.481 C706.783,113.976 706.099,113.692 705.385,113.692 Z M675.769,76 L680.04,80.271 L638.538,121.769 L630.155,121.769 Z M654.231,135.231 L643.462,124.462 L683.846,84.077 L694.615,94.846 Z" />
        </g>
    </g>
</svg>