<?xml version="1.0" encoding="UTF-8"?>
<svg height="600" width="800" xmlns="http://www.w3.org/2000/svg" xmlns:xlink="http://www.w3.org/1999/xlink">
    <g id="Notes" font-family="'LucidaGrande', 'Lucida Grande', sans-serif" font-size="13">
        <rect fill="white" height="600.0" width="800.0" x="0.0" y="0.0" />
        <g font-size="13">
            <text x="18.0" y="176.0">Small</text>
            <text x="18.0" y="376.0">Medium</text>
            <text x="18.0" y="576.0">Large</text>
        </g>
        <g font-size="9">
            <text x="250.0" y="30.0">Ultralight</text>
            <text x="450.0" y="30.0">Regular</text>
            <text x="650.0" y="30.0">Black</text>
            <text id="template-version" fill="#505050" text-anchor="end" x="785.0" y="575.0">Template v.3.0</text>
            <a href="https://github.com/swhitty/SwiftDraw">
                <text fill="#505050" text-anchor="end" x="785.0" y="590.0">https://github.com/swhitty/SwiftDraw</text>
            </a>
        </g>
    </g>
    <g id="Guides" stroke="rgb(39, 170, 225)" stroke-width="0.5">
        <path id="Capline-S" d="M18,76 l800,0" />
        <path id="H-reference" d="M85,145.755 L87.685,145.755 L113.369,79.287 L114.052,79.287 L114.052,76 L112.148,76 L85,145.755 Z M95.693,121.536 L130.996,121.536 L130.263,119.313 L96.474,119.313 L95.693,121.536 Z M139.15,145.755 L141.787,145.755 L114.638,76 L113.466,76 L113.466,79.287 L139.15,145.755 Z" stroke="none" />
        <path id="Baseline-S" d="M18,146 l800,0" />
        <path id="left-margin-Ultralight-S" d="M220,56 l0,110" />
        <path id="right-margin-Ultralight-S" d="M310,56 l0,110" />
        <path id="left-margin-Regular-S" d="M420,56 l0,110" />
        <path id="right-margin-Regular-S" d="M510,56 l0,110" />
        <path id="left-margin-Black-S" d="M620,56 l0,110" />
        <path id="right-margin-Black-S" d="M710,56 l0,110" />
        <path id="Capline-M" d="M18,276 l800,0" />
        <path id="Baseline-M" d="M18,346 l800,0" />
        <path id="Capline-L" d="M18,476 l800,0" />
        <path id="Baseline-L" d="M18,546 l800,0" />
    </g>
    <g id="Symbols">
        <g id="Ultralight-S">
            <path d="M302.692,94.846 C302.692,91.276 301.274,87.852 298.75,85.327 C296.225,82.803 292.801,81.385 289.231,81.385 L238.077,81.385 C231.706,81.388 226.209,85.859 224.908,92.095 C223.606,98.332 226.855,104.628 232.692,107.18 L232.692,135.231 C232.692,136.659 233.26,138.028 234.269,139.038 C235.279,140.048 236.649,140.615 238.077,140.615 L289.231,140.615 C290.659,140.615 292.028,140.048 293.038,139.038 C294.048,138.028 294.615,136.659 294.615,135.231 L294.615,107.18 C299.516,105.036 302.686,100.196 302.692,94.846 Z M238.077,108.308 C239.564,108.308 240.769,107.102 240.769,105.615 C240.769,104.128 239.564,102.923 238.077,102.923 C233.616,102.923 230,99.307 230,94.846 C230,90.385 233.616,86.769 238.077,86.769 L270.385,86.769 C274.845,86.769 278.462,90.385 278.462,94.846 C278.462,99.307 274.845,102.923 270.385,102.923 C268.898,102.923 267.692,104.128 267.692,105.615 C267.692,107.102 268.898,108.308 270.385,108.308 L270.385,135.231 L238.077,135.231 Z M289.231,102.923 C287.744,102.923 286.538,104.128 286.538,105.615 C286.538,107.102 287.744,108.308 289.231,108.308 L289.231,135.231 L275.769,135.231 L275.769,107.18 C279.539,105.534 282.35,102.255 283.399,98.277 C284.448,94.3 283.621,90.061 281.154,86.769 L289.231,86.769 C293.692,86.769 297.308,90.385 297.308,94.846 C297.308,99.307 293.692,102.923 289.231,102.923 Z" />
        </g>
        <g id="Regular-S">
            <path d="M502.692,94.846 C502.692,91.276 501.274,87.852 498.75,85.327 C496.225,82.803 492.801,81.385 489.231,81.385 L438.077,81.385 C431.706,81.388 426.209,85.859 424.908,92.095 C423.606,98.332 426.855,104.628 432.692,107.18 L432.692,135.231 C432.692,136.659 433.26,138.028 434.269,139.038 C435.279,140.048 436.649,140.615 438.077,140.615 L489.231,140.615 C490.659,140.615 492.028,140.048 493.038,139.038 C494.048,138.028 494.615,136.659 494.615,135.231 L494.615,107.18 C499.516,105.036 502.686,100.196 502.692,94.846 Z M438.077,108.308 C439.564,108.308 440.769,107.102 440.769,105.615 C440.769,104.128 439.564,102.923 438.077,102.923 C433.616,102.923 430,99.307 430,94.846 C430,90.385 433.616,86.769 438.077,86.769 L470.385,86.769 C474.845,86.769 478.462,90.385 478.462,94.846 C478.462,99.307 474.845,102.923 470.385,102.923 C468.898,102.923 467.692,104.128 467.692,105.615 C467.692,107.102 468.898,108.308 470.385,108.308 L470.385,135.231 L438.077,135.231 Z M489.231,102.923 C487.744,102.923 486.538,104.128 486.538,105.615 C486.538,107.102 487.744,108.308 489.231,108.308 L489.231,135.231 L475.769,135.231 L475.769,107.18 C479.539,105.534 482.349,102.255 483.399,98.277 C484.448,94.3 483.621,90.061 481.154,86.769 L489.231,86.769 C493.692,86.769 497.308,90.385 497.308,94.846 C497.308,99.307 493.692,102.923 489.231,102.923 Z" />
        </g>
        <g id="Black-S">
            <path d="M702.692,94.846 C702.692,91.276 701.274,87.852 698.75,85.327 C696.225,82.803 692.801,81.385 689.231,81.385 L638.077,81.385 C631.706,81.388 626.209,85.859 624.908,92.095 C623.606,98.332 626.855,104.628 632.692,107.18 L632.692,135.231 C632.692,136.659 633.26,138.028 634.269,139.038 C635.279,140.048 636.649,140.615 638.077,140.615 L689.231,140.615 C690.659,140.615 692.028,140.048 693.038,139.038 C694.048,138.028 694.615,136.659 694.615,135.231 L694.615,107.18 C699.516,105.036 702.686,100.196 702.692,94.846 Z M638.077,108.308 C639.564,108.308 640.769,107.102 640.769,105.615 C640.769,104.128 639.564,102.923 638.077,102.923 C633.616,102.923 630,99.307 630,94.846 C630,90.385 633.616,86.769 638.077,86.769 L670.385,86.769 C674.845,86.769 678.462,90.385 678.462,94.846 C678.462,99.307 674.845,102.923 670.385,102.923 C668.898,102.923 667.692,104.128 667.692,105.615 C667.692,107.102 668.898,108.308 670.385,108.308 L670.385,135.231 L638.077,135.231 Z M689.231,102.923 C687.744,102.923 686.538,104.128 686.538,105.615 C686.538,107.102 687.744,108.308 689.231,108.308 L689.231,135.231 L675.769,135.231 L675.769,107.18 C679.539,105.534 682.35,102.255 683.399,98.277 C684.448,94.3 683.621,90.061 681.154,86.769 L689.231,86.769 C693.692,86.769 697.308,90.385 697.308,94.846 C697.308,99.307 693.692,102.923 689.231,102.923 Z" />
        </g>
    </g>
</svg>