<?xml version="1.0" encoding="UTF-8"?>
<svg height="600" width="800" xmlns="http://www.w3.org/2000/svg" xmlns:xlink="http://www.w3.org/1999/xlink">
    <g id="Notes" font-family="'LucidaGrande', 'Lucida Grande', sans-serif" font-size="13">
        <rect fill="white" height="600.0" width="800.0" x="0.0" y="0.0" />
        <g font-size="13">
            <text x="18.0" y="176.0">Small</text>
            <text x="18.0" y="376.0">Medium</text>
            <text x="18.0" y="576.0">Large</text>
        </g>
        <g font-size="9">
            <text x="250.0" y="30.0">Ultralight</text>
            <text x="450.0" y="30.0">Regular</text>
            <text x="650.0" y="30.0">Black</text>
            <text id="template-version" fill="#505050" text-anchor="end" x="785.0" y="575.0">Template v.3.0</text>
            <a href="https://github.com/swhitty/SwiftDraw">
                <text fill="#505050" text-anchor="end" x="785.0" y="590.0">https://github.com/swhitty/SwiftDraw</text>
            </a>
        </g>
    </g>
    <g id="Guides" stroke="rgb(39, 170, 225)" stroke-width="0.5">
        <path id="Capline-S" d="M18,76 l800,0" />
        <path id="H-reference" d="M85,145.755 L87.685,145.755 L113.369,79.287 L114.052,79.287 L114.052,76 L112.148,76 L85,145.755 Z M95.693,121.536 L130.996,121.536 L130.263,119.313 L96.474,119.313 L95.693,121.536 Z M139.15,145.755 L141.787,145.755 L114.638,76 L113.466,76 L113.466,79.287 L139.15,145.755 Z" stroke="none" />
        <path id="Baseline-S" d="M18,146 l800,0" />
        <path id="left-margin-Ultralight-S" d="M220,56 l0,110" />
        <path id="right-margin-Ultralight-S" d="M310,56 l0,110" />
        <path id="left-margin-Regular-S" d="M420,56 l0,110" />
        <path id="right-margin-Regular-S" d="M510,56 l0,110" />
        <path id="left-margin-Black-S" d="M620,56 l0,110" />
        <path id="right-margin-Black-S" d="M710,56 l0,110" />
        <path id="Capline-M" d="M18,276 l800,0" />
        <path id="Baseline-M" d="M18,346 l800,0" />
        <path id="Capline-L" d="M18,476 l800,0" />
        <path id="Baseline-L" d="M18,546 l800,0" />
    </g>
    <g id="Symbols">
        <g id="Ultralight-S">
            <path d="M291.923,102.923 L291.923,81.385 C291.923,80.671 291.639,79.986 291.135,79.481 C290.63,78.976 289.945,78.692 289.231,78.692 L240.769,78.692 C239.648,78.69 238.643,79.382 238.246,80.43 C237.848,81.478 238.142,82.662 238.982,83.404 L257.933,100.231 L240.769,100.231 C240.055,100.231 239.37,100.514 238.865,101.019 C238.361,101.524 238.077,102.209 238.077,102.923 L238.077,124.462 C238.076,125.176 238.36,125.861 238.864,126.366 L263.095,150.597 C263.865,151.368 265.024,151.599 266.031,151.182 C267.037,150.765 267.693,149.782 267.692,148.692 L267.692,127.154 L289.231,127.154 C290.352,127.156 291.357,126.464 291.754,125.416 C292.152,124.368 291.858,123.184 291.018,122.442 L272.067,105.615 L289.231,105.615 C289.945,105.615 290.63,105.332 291.135,104.827 C291.639,104.322 291.923,103.637 291.923,102.923 Z M282.163,121.769 L265,121.769 C264.286,121.769 263.601,122.053 263.096,122.558 C262.591,123.063 262.308,123.747 262.308,124.462 L262.308,142.194 L243.462,123.348 L243.462,105.615 L263.99,105.615 Z M286.538,100.231 L266.01,100.231 L247.837,84.077 L286.538,84.077 Z" />
        </g>
        <g id="Regular-S">
            <path d="M491.923,102.923 L491.923,81.385 C491.923,80.671 491.639,79.986 491.135,79.481 C490.63,78.976 489.945,78.692 489.231,78.692 L440.769,78.692 C439.648,78.69 438.643,79.382 438.246,80.43 C437.848,81.478 438.142,82.662 438.982,83.404 L457.933,100.231 L440.769,100.231 C440.055,100.231 439.37,100.514 438.865,101.019 C438.361,101.524 438.077,102.209 438.077,102.923 L438.077,124.462 C438.076,125.176 438.36,125.861 438.864,126.366 L463.095,150.597 C463.865,151.368 465.024,151.599 466.031,151.182 C467.037,150.765 467.693,149.782 467.692,148.692 L467.692,127.154 L489.231,127.154 C490.352,127.156 491.357,126.464 491.754,125.416 C492.152,124.368 491.858,123.184 491.018,122.442 L472.067,105.615 L489.231,105.615 C489.945,105.615 490.63,105.332 491.135,104.827 C491.639,104.322 491.923,103.637 491.923,102.923 Z M482.163,121.769 L465,121.769 C464.286,121.769 463.601,122.053 463.096,122.558 C462.591,123.063 462.308,123.747 462.308,124.462 L462.308,142.194 L443.462,123.348 L443.462,105.615 L463.99,105.615 Z M486.538,100.231 L466.01,100.231 L447.837,84.077 L486.538,84.077 Z" />
        </g>
        <g id="Black-S">
            <path d="M691.923,102.923 L691.923,81.385 C691.923,80.671 691.639,79.986 691.135,79.481 C690.63,78.976 689.945,78.692 689.231,78.692 L640.769,78.692 C639.648,78.69 638.643,79.382 638.246,80.43 C637.848,81.478 638.142,82.662 638.982,83.404 L657.933,100.231 L640.769,100.231 C640.055,100.231 639.37,100.514 638.865,101.019 C638.361,101.524 638.077,102.209 638.077,102.923 L638.077,124.462 C638.076,125.176 638.36,125.861 638.864,126.366 L663.095,150.597 C663.865,151.368 665.024,151.599 666.031,151.182 C667.037,150.765 667.693,149.782 667.692,148.692 L667.692,127.154 L689.231,127.154 C690.352,127.156 691.357,126.464 691.754,125.416 C692.152,124.368 691.858,123.184 691.018,122.442 L672.067,105.615 L689.231,105.615 C689.945,105.615 690.63,105.332 691.135,104.827 C691.639,104.322 691.923,103.637 691.923,102.923 Z M682.163,121.769 L665,121.769 C664.286,121.769 663.601,122.053 663.096,122.558 C662.591,123.063 662.308,123.747 662.308,124.462 L662.308,142.194 L643.462,123.348 L643.462,105.615 L663.99,105.615 Z M686.538,100.231 L666.01,100.231 L647.837,84.077 L686.538,84.077 Z" />
        </g>
    </g>
</svg>