<?xml version="1.0" encoding="UTF-8"?>
<svg height="600" width="800" xmlns="http://www.w3.org/2000/svg" xmlns:xlink="http://www.w3.org/1999/xlink">
    <g id="Notes" font-family="'LucidaGrande', 'Lucida Grande', sans-serif" font-size="13">
        <rect fill="white" height="600.0" width="800.0" x="0.0" y="0.0" />
        <g font-size="13">
            <text x="18.0" y="176.0">Small</text>
            <text x="18.0" y="376.0">Medium</text>
            <text x="18.0" y="576.0">Large</text>
        </g>
        <g font-size="9">
            <text x="250.0" y="30.0">Ultralight</text>
            <text x="450.0" y="30.0">Regular</text>
            <text x="650.0" y="30.0">Black</text>
            <text id="template-version" fill="#505050" text-anchor="end" x="785.0" y="575.0">Template v.3.0</text>
            <a href="https://github.com/swhitty/SwiftDraw">
                <text fill="#505050" text-anchor="end" x="785.0" y="590.0">https://github.com/swhitty/SwiftDraw</text>
            </a>
        </g>
    </g>
    <g id="Guides" stroke="rgb(39, 170, 225)" stroke-width="0.5">
        <path id="Capline-S" d="M18,76 l800,0" />
        <path id="H-reference" d="M85,145.755 L87.685,145.755 L113.369,79.287 L114.052,79.287 L114.052,76 L112.148,76 L85,145.755 Z M95.693,121.536 L130.996,121.536 L130.263,119.313 L96.474,119.313 L95.693,121.536 Z M139.15,145.755 L141.787,145.755 L114.638,76 L113.466,76 L113.466,79.287 L139.15,145.755 Z" stroke="none" />
        <path id="Baseline-S" d="M18,146 l800,0" />
        <path id="left-margin-Ultralight-S" d="M220,56 l0,110" />
        <path id="right-margin-Ultralight-S" d="M310,56 l0,110" />
        <path id="left-margin-Regular-S" d="M420,56 l0,110" />
        <path id="right-margin-Regular-S" d="M510,56 l0,110" />
        <path id="left-margin-Black-S" d="M620,56 l0,110" />
        <path id="right-margin-Black-S" d="M710,56 l0,110" />
        <path id="Capline-M" d="M18,276 l800,0" />
        <path id="Baseline-M" d="M18,346 l800,0" />
        <path id="Capline-L" d="M18,476 l800,0" />
        <path id="Baseline-L" d="M18,546 l800,0" />
    </g>
    <g id="Symbols">
        <g id="Ultralight-S">
            <path d="M308.077,140.615 C308.077,141.329 307.793,142.014 307.288,142.519 C306.783,143.024 306.099,143.308 305.385,143.308 L256.923,143.308 C255.436,143.308 254.231,142.102 254.231,140.615 C254.231,139.128 255.436,137.923 256.923,137.923 L305.385,137.923 C306.099,137.923 306.783,138.207 307.288,138.712 C307.793,139.217 308.077,139.901 308.077,140.615 Z M299.273,132.438 L239.83,115.792 C234.026,114.152 230.013,108.861 230,102.829 L230,84.077 C230,82.346 230.832,80.72 232.236,79.708 C233.641,78.696 235.446,78.421 237.088,78.968 L238.929,79.581 C239.711,79.841 240.331,80.445 240.611,81.22 L244.178,91.104 L254.231,93.968 L254.231,84.077 C254.231,82.346 255.063,80.72 256.467,79.708 C257.871,78.696 259.677,78.421 261.319,78.968 L263.16,79.581 C263.897,79.827 264.492,80.379 264.792,81.095 L272.364,99.144 L292.839,104.865 C298.655,106.499 302.679,111.797 302.692,117.838 L302.692,129.846 C302.692,130.688 302.298,131.482 301.626,131.991 C300.955,132.5 300.084,132.665 299.273,132.438 Z M297.308,117.838 C297.298,114.213 294.882,111.034 291.391,110.054 L269.661,103.997 C268.868,103.776 268.22,103.204 267.901,102.445 L260.288,84.302 L259.615,84.077 L259.615,97.538 C259.616,98.383 259.22,99.179 258.546,99.688 C257.872,100.198 256.998,100.361 256.186,100.13 L241.378,95.91 C240.544,95.671 239.876,95.044 239.585,94.227 L235.987,84.275 L235.385,84.077 L235.385,102.829 C235.393,106.448 237.801,109.624 241.284,110.61 L297.308,126.296 Z" />
        </g>
        <g id="Regular-S">
            <path d="M508.077,140.615 C508.077,141.329 507.793,142.014 507.288,142.519 C506.783,143.024 506.099,143.308 505.385,143.308 L456.923,143.308 C455.436,143.308 454.231,142.102 454.231,140.615 C454.231,139.128 455.436,137.923 456.923,137.923 L505.385,137.923 C506.099,137.923 506.783,138.207 507.288,138.712 C507.793,139.217 508.077,139.901 508.077,140.615 Z M499.273,132.438 L439.83,115.792 C434.026,114.152 430.013,108.861 430,102.829 L430,84.077 C430,82.346 430.832,80.72 432.236,79.708 C433.641,78.696 435.446,78.421 437.088,78.968 L438.929,79.581 C439.711,79.841 440.331,80.445 440.611,81.22 L444.178,91.104 L454.231,93.968 L454.231,84.077 C454.231,82.346 455.063,80.72 456.467,79.708 C457.871,78.696 459.677,78.421 461.319,78.968 L463.159,79.581 C463.897,79.827 464.492,80.379 464.792,81.095 L472.364,99.144 L492.839,104.865 C498.655,106.499 502.679,111.797 502.692,117.838 L502.692,129.846 C502.692,130.688 502.298,131.482 501.626,131.991 C500.955,132.5 500.084,132.665 499.273,132.438 Z M497.308,117.838 C497.298,114.213 494.882,111.034 491.391,110.054 L469.661,103.997 C468.868,103.776 468.22,103.204 467.901,102.445 L460.288,84.302 L459.615,84.077 L459.615,97.538 C459.616,98.383 459.22,99.179 458.546,99.688 C457.872,100.198 456.998,100.361 456.186,100.13 L441.378,95.91 C440.544,95.671 439.876,95.044 439.585,94.227 L435.987,84.275 L435.385,84.077 L435.385,102.829 C435.393,106.448 437.801,109.624 441.284,110.61 L497.308,126.296 Z" />
        </g>
        <g id="Black-S">
            <path d="M708.077,140.615 C708.077,141.329 707.793,142.014 707.288,142.519 C706.783,143.024 706.099,143.308 705.385,143.308 L656.923,143.308 C655.436,143.308 654.231,142.102 654.231,140.615 C654.231,139.128 655.436,137.923 656.923,137.923 L705.385,137.923 C706.099,137.923 706.783,138.207 707.288,138.712 C707.793,139.217 708.077,139.901 708.077,140.615 Z M699.273,132.438 L639.83,115.792 C634.026,114.152 630.013,108.861 630,102.829 L630,84.077 C630,82.346 630.832,80.72 632.236,79.708 C633.641,78.696 635.446,78.421 637.088,78.968 L638.929,79.581 C639.711,79.841 640.331,80.445 640.611,81.22 L644.178,91.104 L654.231,93.968 L654.231,84.077 C654.231,82.346 655.063,80.72 656.467,79.708 C657.871,78.696 659.677,78.421 661.319,78.968 L663.16,79.581 C663.897,79.827 664.492,80.379 664.792,81.095 L672.364,99.144 L692.839,104.865 C698.655,106.499 702.679,111.797 702.692,117.838 L702.692,129.846 C702.692,130.688 702.298,131.482 701.626,131.991 C700.955,132.5 700.084,132.665 699.273,132.438 Z M697.308,117.838 C697.298,114.213 694.882,111.034 691.391,110.054 L669.661,103.997 C668.868,103.776 668.22,103.204 667.901,102.445 L660.288,84.302 L659.615,84.077 L659.615,97.538 C659.616,98.383 659.22,99.179 658.546,99.688 C657.872,100.198 656.998,100.361 656.186,100.13 L641.378,95.91 C640.544,95.671 639.876,95.044 639.585,94.227 L635.987,84.275 L635.385,84.077 L635.385,102.829 C635.393,106.448 637.801,109.624 641.284,110.61 L697.308,126.296 Z" />
        </g>
    </g>
</svg>