<?xml version="1.0" encoding="UTF-8"?>
<svg height="600" width="800" xmlns="http://www.w3.org/2000/svg" xmlns:xlink="http://www.w3.org/1999/xlink">
    <g id="Notes" font-family="'LucidaGrande', 'Lucida Grande', sans-serif" font-size="13">
        <rect fill="white" height="600.0" width="800.0" x="0.0" y="0.0" />
        <g font-size="13">
            <text x="18.0" y="176.0">Small</text>
            <text x="18.0" y="376.0">Medium</text>
            <text x="18.0" y="576.0">Large</text>
        </g>
        <g font-size="9">
            <text x="250.0" y="30.0">Ultralight</text>
            <text x="450.0" y="30.0">Regular</text>
            <text x="650.0" y="30.0">Black</text>
            <text id="template-version" fill="#505050" text-anchor="end" x="785.0" y="575.0">Template v.3.0</text>
            <a href="https://github.com/swhitty/SwiftDraw">
                <text fill="#505050" text-anchor="end" x="785.0" y="590.0">https://github.com/swhitty/SwiftDraw</text>
            </a>
        </g>
    </g>
    <g id="Guides" stroke="rgb(39, 170, 225)" stroke-width="0.5">
        <path id="Capline-S" d="M18,76 l800,0" />
        <path id="H-reference" d="M85,145.755 L87.685,145.755 L113.369,79.287 L114.052,79.287 L114.052,76 L112.148,76 L85,145.755 Z M95.693,121.536 L130.996,121.536 L130.263,119.313 L96.474,119.313 L95.693,121.536 Z M139.15,145.755 L141.787,145.755 L114.638,76 L113.466,76 L113.466,79.287 L139.15,145.755 Z" stroke="none" />
        <path id="Baseline-S" d="M18,146 l800,0" />
        <path id="left-margin-Ultralight-S" d="M220,56 l0,110" />
        <path id="right-margin-Ultralight-S" d="M310,56 l0,110" />
        <path id="left-margin-Regular-S" d="M420,56 l0,110" />
        <path id="right-margin-Regular-S" d="M510,56 l0,110" />
        <path id="left-margin-Black-S" d="M620,56 l0,110" />
        <path id="right-margin-Black-S" d="M710,56 l0,110" />
        <path id="Capline-M" d="M18,276 l800,0" />
        <path id="Baseline-M" d="M18,346 l800,0" />
        <path id="Capline-L" d="M18,476 l800,0" />
        <path id="Baseline-L" d="M18,546 l800,0" />
    </g>
    <g id="Symbols">
        <g id="Ultralight-S">
            <path d="M273.077,94.846 C279.025,94.846 283.846,90.025 283.846,84.077 C283.846,78.129 279.025,73.308 273.077,73.308 C267.129,73.308 262.308,78.129 262.308,84.077 C262.308,86.933 263.442,89.672 265.462,91.692 C267.482,93.712 270.221,94.846 273.077,94.846 Z M273.077,78.692 C276.051,78.692 278.462,81.103 278.462,84.077 C278.462,87.051 276.051,89.462 273.077,89.462 C270.103,89.462 267.692,87.051 267.692,84.077 C267.692,82.649 268.26,81.279 269.269,80.269 C270.279,79.26 271.649,78.692 273.077,78.692 Z M294.615,116.385 C294.615,117.099 294.332,117.783 293.827,118.288 C293.322,118.793 292.637,119.077 291.923,119.077 C280.04,119.077 274.103,113.083 269.335,108.267 C268.413,107.335 267.531,106.45 266.642,105.629 L262.123,116.021 L274.642,124.963 C275.349,125.468 275.769,126.284 275.769,127.154 L275.769,146 C275.769,147.487 274.564,148.692 273.077,148.692 C271.59,148.692 270.385,147.487 270.385,146 L270.385,128.54 L259.928,121.069 L248.624,147.074 C248.196,148.057 247.226,148.693 246.154,148.692 C245.784,148.693 245.418,148.616 245.08,148.467 C243.717,147.874 243.092,146.29 243.684,144.926 L261.884,103.071 C258.75,102.516 254.843,103.475 250.206,105.959 C246.507,107.999 243.055,110.457 239.918,113.285 C238.829,114.261 237.16,114.189 236.159,113.123 C235.158,112.057 235.191,110.387 236.233,109.361 C237.074,108.57 256.994,90.101 269.456,100.921 C270.745,102.038 271.973,103.276 273.158,104.478 C277.852,109.216 282.285,113.692 291.923,113.692 C292.637,113.692 293.322,113.976 293.827,114.481 C294.332,114.986 294.615,115.671 294.615,116.385 Z" />
        </g>
        <g id="Regular-S">
            <path d="M473.077,94.846 C479.025,94.846 483.846,90.025 483.846,84.077 C483.846,78.129 479.025,73.308 473.077,73.308 C467.129,73.308 462.308,78.129 462.308,84.077 C462.308,86.933 463.442,89.672 465.462,91.692 C467.482,93.712 470.221,94.846 473.077,94.846 Z M473.077,78.692 C476.051,78.692 478.462,81.103 478.462,84.077 C478.462,87.051 476.051,89.462 473.077,89.462 C470.103,89.462 467.692,87.051 467.692,84.077 C467.692,82.649 468.26,81.279 469.269,80.269 C470.279,79.26 471.649,78.692 473.077,78.692 Z M494.615,116.385 C494.615,117.099 494.332,117.783 493.827,118.288 C493.322,118.793 492.637,119.077 491.923,119.077 C480.04,119.077 474.103,113.083 469.335,108.267 C468.412,107.335 467.531,106.45 466.642,105.629 L462.123,116.021 L474.642,124.963 C475.349,125.468 475.769,126.284 475.769,127.154 L475.769,146 C475.769,147.487 474.564,148.692 473.077,148.692 C471.59,148.692 470.385,147.487 470.385,146 L470.385,128.54 L459.928,121.069 L448.624,147.074 C448.196,148.057 447.226,148.693 446.154,148.692 C445.784,148.693 445.418,148.616 445.08,148.467 C443.717,147.874 443.092,146.29 443.684,144.926 L461.884,103.071 C458.75,102.516 454.843,103.475 450.206,105.959 C446.507,107.999 443.055,110.457 439.918,113.285 C438.829,114.261 437.16,114.189 436.159,113.123 C435.158,112.057 435.191,110.387 436.233,109.361 C437.074,108.57 456.994,90.101 469.456,100.921 C470.745,102.038 471.973,103.276 473.158,104.478 C477.852,109.216 482.285,113.692 491.923,113.692 C492.637,113.692 493.322,113.976 493.827,114.481 C494.332,114.986 494.615,115.671 494.615,116.385 Z" />
        </g>
        <g id="Black-S">
            <path d="M673.077,94.846 C679.025,94.846 683.846,90.025 683.846,84.077 C683.846,78.129 679.025,73.308 673.077,73.308 C667.129,73.308 662.308,78.129 662.308,84.077 C662.308,86.933 663.442,89.672 665.462,91.692 C667.482,93.712 670.221,94.846 673.077,94.846 Z M673.077,78.692 C676.051,78.692 678.462,81.103 678.462,84.077 C678.462,87.051 676.051,89.462 673.077,89.462 C670.103,89.462 667.692,87.051 667.692,84.077 C667.692,82.649 668.26,81.279 669.269,80.269 C670.279,79.26 671.649,78.692 673.077,78.692 Z M694.615,116.385 C694.615,117.099 694.332,117.783 693.827,118.288 C693.322,118.793 692.637,119.077 691.923,119.077 C680.04,119.077 674.103,113.083 669.335,108.267 C668.413,107.335 667.531,106.45 666.642,105.629 L662.123,116.021 L674.642,124.963 C675.349,125.468 675.769,126.284 675.769,127.154 L675.769,146 C675.769,147.487 674.564,148.692 673.077,148.692 C671.59,148.692 670.385,147.487 670.385,146 L670.385,128.54 L659.928,121.069 L648.624,147.074 C648.196,148.057 647.226,148.693 646.154,148.692 C645.784,148.693 645.418,148.616 645.08,148.467 C643.717,147.874 643.092,146.29 643.684,144.926 L661.884,103.071 C658.75,102.516 654.843,103.475 650.206,105.959 C646.507,107.999 643.055,110.457 639.918,113.285 C638.829,114.261 637.16,114.189 636.159,113.123 C635.158,112.057 635.191,110.387 636.233,109.361 C637.074,108.57 656.994,90.101 669.456,100.921 C670.745,102.038 671.973,103.276 673.158,104.478 C677.852,109.216 682.285,113.692 691.923,113.692 C692.637,113.692 693.322,113.976 693.827,114.481 C694.332,114.986 694.615,115.671 694.615,116.385 Z" />
        </g>
    </g>
</svg>