<?xml version="1.0" encoding="UTF-8"?>
<svg height="600" width="800" xmlns="http://www.w3.org/2000/svg" xmlns:xlink="http://www.w3.org/1999/xlink">
    <g id="Notes" font-family="'LucidaGrande', 'Lucida Grande', sans-serif" font-size="13">
        <rect fill="white" height="600.0" width="800.0" x="0.0" y="0.0" />
        <g font-size="13">
            <text x="18.0" y="176.0">Small</text>
            <text x="18.0" y="376.0">Medium</text>
            <text x="18.0" y="576.0">Large</text>
        </g>
        <g font-size="9">
            <text x="250.0" y="30.0">Ultralight</text>
            <text x="450.0" y="30.0">Regular</text>
            <text x="650.0" y="30.0">Black</text>
            <text id="template-version" fill="#505050" text-anchor="end" x="785.0" y="575.0">Template v.3.0</text>
            <a href="https://github.com/swhitty/SwiftDraw">
                <text fill="#505050" text-anchor="end" x="785.0" y="590.0">https://github.com/swhitty/SwiftDraw</text>
            </a>
        </g>
    </g>
    <g id="Guides" stroke="rgb(39, 170, 225)" stroke-width="0.5">
        <path id="Capline-S" d="M18,76 l800,0" />
        <path id="H-reference" d="M85,145.755 L87.685,145.755 L113.369,79.287 L114.052,79.287 L114.052,76 L112.148,76 L85,145.755 Z M95.693,121.536 L130.996,121.536 L130.263,119.313 L96.474,119.313 L95.693,121.536 Z M139.15,145.755 L141.787,145.755 L114.638,76 L113.466,76 L113.466,79.287 L139.15,145.755 Z" stroke="none" />
        <path id="Baseline-S" d="M18,146 l800,0" />
        <path id="left-margin-Ultralight-S" d="M220,56 l0,110" />
        <path id="right-margin-Ultralight-S" d="M310,56 l0,110" />
        <path id="left-margin-Regular-S" d="M420,56 l0,110" />
        <path id="right-margin-Regular-S" d="M510,56 l0,110" />
        <path id="left-margin-Black-S" d="M620,56 l0,110" />
        <path id="right-margin-Black-S" d="M710,56 l0,110" />
        <path id="Capline-M" d="M18,276 l800,0" />
        <path id="Baseline-M" d="M18,346 l800,0" />
        <path id="Capline-L" d="M18,476 l800,0" />
        <path id="Baseline-L" d="M18,546 l800,0" />
    </g>
    <g id="Symbols">
        <g id="Ultralight-S">
            <path d="M287.885,97.538 C286.315,97.537 284.77,97.929 283.392,98.679 C282.558,96.097 280.651,94 278.161,92.925 C275.67,91.849 272.836,91.899 270.385,93.062 L270.385,82.731 C270.385,77.527 266.166,73.308 260.962,73.308 C255.757,73.308 251.538,77.527 251.538,82.731 L251.538,109.654 L250.253,107.591 C247.646,103.092 241.877,101.557 237.373,104.168 C232.868,106.779 231.333,112.547 233.944,117.052 L235.516,119.821 C247.1,140.242 251.892,148.692 267.692,148.692 C284.041,148.674 297.289,135.425 297.308,119.077 L297.308,106.962 C297.308,104.462 296.315,102.066 294.548,100.298 C292.781,98.531 290.384,97.538 287.885,97.538 Z M291.923,119.077 C291.908,132.454 281.068,143.293 267.691,143.308 C255.027,143.308 251.591,137.25 240.203,117.165 L238.625,114.382 L238.625,114.365 C237.509,112.436 238.167,109.967 240.096,108.85 C240.71,108.494 241.406,108.308 242.115,108.311 C243.56,108.309 244.896,109.079 245.619,110.33 C245.632,110.357 245.648,110.383 245.666,110.408 L251.949,120.504 C252.586,121.521 253.82,121.994 254.973,121.663 C256.127,121.332 256.922,120.277 256.923,119.077 L256.923,82.731 C256.923,80.5 258.731,78.692 260.962,78.692 C263.192,78.692 265,80.5 265,82.731 L265,105.615 C265,107.102 266.205,108.308 267.692,108.308 C269.179,108.308 270.385,107.102 270.385,105.615 L270.385,101.577 C270.385,99.347 272.193,97.538 274.423,97.538 C276.653,97.538 278.462,99.347 278.462,101.577 L278.462,108.308 C278.462,109.795 279.667,111 281.154,111 C282.641,111 283.846,109.795 283.846,108.308 L283.846,106.962 C283.846,104.731 285.654,102.923 287.885,102.923 C290.115,102.923 291.923,104.731 291.923,106.962 Z" />
        </g>
        <g id="Regular-S">
            <path d="M487.885,97.538 C486.315,97.537 484.77,97.929 483.392,98.679 C482.558,96.097 480.651,94 478.161,92.925 C475.67,91.849 472.836,91.899 470.385,93.062 L470.385,82.731 C470.385,77.527 466.166,73.308 460.962,73.308 C455.757,73.308 451.538,77.527 451.538,82.731 L451.538,109.654 L450.253,107.591 C447.646,103.092 441.877,101.557 437.373,104.168 C432.868,106.779 431.333,112.547 433.944,117.052 L435.516,119.821 C447.1,140.242 451.892,148.692 467.692,148.692 C484.041,148.674 497.289,135.425 497.308,119.077 L497.308,106.962 C497.308,104.462 496.315,102.066 494.548,100.298 C492.781,98.531 490.384,97.538 487.885,97.538 Z M491.923,119.077 C491.908,132.454 481.068,143.293 467.691,143.308 C455.027,143.308 451.591,137.25 440.203,117.165 L438.625,114.382 L438.625,114.365 C437.509,112.436 438.167,109.967 440.096,108.85 C440.71,108.494 441.406,108.308 442.115,108.311 C443.56,108.309 444.896,109.079 445.619,110.33 C445.632,110.357 445.648,110.383 445.666,110.408 L451.949,120.504 C452.586,121.521 453.819,121.994 454.973,121.663 C456.127,121.332 456.922,120.277 456.923,119.077 L456.923,82.731 C456.923,80.5 458.731,78.692 460.962,78.692 C463.192,78.692 465,80.5 465,82.731 L465,105.615 C465,107.102 466.205,108.308 467.692,108.308 C469.179,108.308 470.385,107.102 470.385,105.615 L470.385,101.577 C470.385,99.347 472.193,97.538 474.423,97.538 C476.653,97.538 478.462,99.347 478.462,101.577 L478.462,108.308 C478.462,109.795 479.667,111 481.154,111 C482.641,111 483.846,109.795 483.846,108.308 L483.846,106.962 C483.846,104.731 485.654,102.923 487.885,102.923 C490.115,102.923 491.923,104.731 491.923,106.962 Z" />
        </g>
        <g id="Black-S">
            <path d="M687.885,97.538 C686.315,97.537 684.77,97.929 683.392,98.679 C682.558,96.097 680.651,94 678.161,92.925 C675.67,91.849 672.836,91.899 670.385,93.062 L670.385,82.731 C670.385,77.527 666.166,73.308 660.962,73.308 C655.757,73.308 651.538,77.527 651.538,82.731 L651.538,109.654 L650.253,107.591 C647.646,103.092 641.877,101.557 637.373,104.168 C632.868,106.779 631.333,112.547 633.944,117.052 L635.516,119.821 C647.1,140.242 651.892,148.692 667.692,148.692 C684.041,148.674 697.289,135.425 697.308,119.077 L697.308,106.962 C697.308,104.462 696.315,102.066 694.548,100.298 C692.781,98.531 690.384,97.538 687.885,97.538 Z M691.923,119.077 C691.908,132.454 681.068,143.293 667.691,143.308 C655.028,143.308 651.591,137.25 640.203,117.165 L638.625,114.382 L638.625,114.365 C637.509,112.436 638.167,109.967 640.096,108.85 C640.71,108.494 641.406,108.308 642.115,108.311 C643.56,108.309 644.896,109.079 645.619,110.33 C645.632,110.357 645.648,110.383 645.666,110.408 L651.949,120.504 C652.586,121.521 653.82,121.994 654.973,121.663 C656.127,121.332 656.922,120.277 656.923,119.077 L656.923,82.731 C656.923,80.5 658.731,78.692 660.962,78.692 C663.192,78.692 665,80.5 665,82.731 L665,105.615 C665,107.102 666.205,108.308 667.692,108.308 C669.179,108.308 670.385,107.102 670.385,105.615 L670.385,101.577 C670.385,99.347 672.193,97.538 674.423,97.538 C676.653,97.538 678.462,99.347 678.462,101.577 L678.462,108.308 C678.462,109.795 679.667,111 681.154,111 C682.641,111 683.846,109.795 683.846,108.308 L683.846,106.962 C683.846,104.731 685.654,102.923 687.885,102.923 C690.115,102.923 691.923,104.731 691.923,106.962 Z" />
        </g>
    </g>
</svg>