<?xml version="1.0" encoding="UTF-8"?>
<svg height="600" width="800" xmlns="http://www.w3.org/2000/svg" xmlns:xlink="http://www.w3.org/1999/xlink">
    <g id="Notes" font-family="'LucidaGrande', 'Lucida Grande', sans-serif" font-size="13">
        <rect fill="white" height="600.0" width="800.0" x="0.0" y="0.0" />
        <g font-size="13">
            <text x="18.0" y="176.0">Small</text>
            <text x="18.0" y="376.0">Medium</text>
            <text x="18.0" y="576.0">Large</text>
        </g>
        <g font-size="9">
            <text x="250.0" y="30.0">Ultralight</text>
            <text x="450.0" y="30.0">Regular</text>
            <text x="650.0" y="30.0">Black</text>
            <text id="template-version" fill="#505050" text-anchor="end" x="785.0" y="575.0">Template v.3.0</text>
            <a href="https://github.com/swhitty/SwiftDraw">
                <text fill="#505050" text-anchor="end" x="785.0" y="590.0">https://github.com/swhitty/SwiftDraw</text>
            </a>
        </g>
    </g>
    <g id="Guides" stroke="rgb(39, 170, 225)" stroke-width="0.5">
        <path id="Capline-S" d="M18,76 l800,0" />
        <path id="H-reference" d="M85,145.755 L87.685,145.755 L113.369,79.287 L114.052,79.287 L114.052,76 L112.148,76 L85,145.755 Z M95.693,121.536 L130.996,121.536 L130.263,119.313 L96.474,119.313 L95.693,121.536 Z M139.15,145.755 L141.787,145.755 L114.638,76 L113.466,76 L113.466,79.287 L139.15,145.755 Z" stroke="none" />
        <path id="Baseline-S" d="M18,146 l800,0" />
        <path id="left-margin-Ultralight-S" d="M220,56 l0,110" />
        <path id="right-margin-Ultralight-S" d="M310,56 l0,110" />
        <path id="left-margin-Regular-S" d="M420,56 l0,110" />
        <path id="right-margin-Regular-S" d="M510,56 l0,110" />
        <path id="left-margin-Black-S" d="M620,56 l0,110" />
        <path id="right-margin-Black-S" d="M710,56 l0,110" />
        <path id="Capline-M" d="M18,276 l800,0" />
        <path id="Baseline-M" d="M18,346 l800,0" />
        <path id="Capline-L" d="M18,476 l800,0" />
        <path id="Baseline-L" d="M18,546 l800,0" />
    </g>
    <g id="Symbols">
        <g id="Ultralight-S">
            <path d="M303.806,113.692 L270.385,80.271 C269.378,79.256 268.007,78.688 266.578,78.692 L235.385,78.692 C234.671,78.692 233.986,78.976 233.481,79.481 C232.976,79.986 232.692,80.671 232.692,81.385 L232.692,112.578 C232.688,114.007 233.256,115.378 234.271,116.385 L267.692,149.806 C268.702,150.816 270.072,151.384 271.5,151.384 C272.929,151.384 274.298,150.816 275.308,149.806 L303.806,121.308 C304.816,120.298 305.384,118.929 305.384,117.5 C305.384,116.072 304.816,114.702 303.806,113.692 Z M271.499,146 L238.077,112.578 L238.077,84.077 L266.578,84.077 L300,117.499 Z M254.231,96.192 C254.231,98.423 252.423,100.231 250.192,100.231 C247.962,100.231 246.154,98.423 246.154,96.192 C246.154,93.962 247.962,92.154 250.192,92.154 C251.263,92.154 252.291,92.579 253.048,93.337 C253.805,94.094 254.231,95.121 254.231,96.192 Z" />
        </g>
        <g id="Regular-S">
            <path d="M503.806,113.692 L470.385,80.271 C469.378,79.256 468.007,78.688 466.578,78.692 L435.385,78.692 C434.671,78.692 433.986,78.976 433.481,79.481 C432.976,79.986 432.692,80.671 432.692,81.385 L432.692,112.578 C432.688,114.007 433.256,115.378 434.271,116.385 L467.692,149.806 C468.702,150.816 470.072,151.384 471.5,151.384 C472.929,151.384 474.298,150.816 475.308,149.806 L503.806,121.308 C504.816,120.298 505.384,118.929 505.384,117.5 C505.384,116.072 504.816,114.702 503.806,113.692 Z M471.499,146 L438.077,112.578 L438.077,84.077 L466.578,84.077 L500,117.499 Z M454.231,96.192 C454.231,98.423 452.423,100.231 450.192,100.231 C447.962,100.231 446.154,98.423 446.154,96.192 C446.154,93.962 447.962,92.154 450.192,92.154 C451.263,92.154 452.291,92.579 453.048,93.337 C453.805,94.094 454.231,95.121 454.231,96.192 Z" />
        </g>
        <g id="Black-S">
            <path d="M703.806,113.692 L670.385,80.271 C669.378,79.256 668.007,78.688 666.578,78.692 L635.385,78.692 C634.671,78.692 633.986,78.976 633.481,79.481 C632.976,79.986 632.692,80.671 632.692,81.385 L632.692,112.578 C632.688,114.007 633.256,115.378 634.271,116.385 L667.692,149.806 C668.702,150.816 670.072,151.384 671.5,151.384 C672.929,151.384 674.298,150.816 675.308,149.806 L703.806,121.308 C704.816,120.298 705.384,118.929 705.384,117.5 C705.384,116.072 704.816,114.702 703.806,113.692 Z M671.499,146 L638.077,112.578 L638.077,84.077 L666.578,84.077 L700,117.499 Z M654.231,96.192 C654.231,98.423 652.423,100.231 650.192,100.231 C647.962,100.231 646.154,98.423 646.154,96.192 C646.154,93.962 647.962,92.154 650.192,92.154 C651.263,92.154 652.291,92.579 653.048,93.337 C653.805,94.094 654.231,95.121 654.231,96.192 Z" />
        </g>
    </g>
</svg>