<?xml version="1.0" encoding="UTF-8"?>
<svg height="600" width="800" xmlns="http://www.w3.org/2000/svg" xmlns:xlink="http://www.w3.org/1999/xlink">
    <g id="Notes" font-family="'LucidaGrande', 'Lucida Grande', sans-serif" font-size="13">
        <rect fill="white" height="600.0" width="800.0" x="0.0" y="0.0" />
        <g font-size="13">
            <text x="18.0" y="176.0">Small</text>
            <text x="18.0" y="376.0">Medium</text>
            <text x="18.0" y="576.0">Large</text>
        </g>
        <g font-size="9">
            <text x="250.0" y="30.0">Ultralight</text>
            <text x="450.0" y="30.0">Regular</text>
            <text x="650.0" y="30.0">Black</text>
            <text id="template-version" fill="#505050" text-anchor="end" x="785.0" y="575.0">Template v.3.0</text>
            <a href="https://github.com/swhitty/SwiftDraw">
                <text fill="#505050" text-anchor="end" x="785.0" y="590.0">https://github.com/swhitty/SwiftDraw</text>
            </a>
        </g>
    </g>
    <g id="Guides" stroke="rgb(39, 170, 225)" stroke-width="0.5">
        <path id="Capline-S" d="M18,76 l800,0" />
        <path id="H-reference" d="M85,145.755 L87.685,145.755 L113.369,79.287 L114.052,79.287 L114.052,76 L112.148,76 L85,145.755 Z M95.693,121.536 L130.996,121.536 L130.263,119.313 L96.474,119.313 L95.693,121.536 Z M139.15,145.755 L141.787,145.755 L114.638,76 L113.466,76 L113.466,79.287 L139.15,145.755 Z" stroke="none" />
        <path id="Baseline-S" d="M18,146 l800,0" />
        <path id="left-margin-Ultralight-S" d="M220,56 l0,110" />
        <path id="right-margin-Ultralight-S" d="M310,56 l0,110" />
        <path id="left-margin-Regular-S" d="M420,56 l0,110" />
        <path id="right-margin-Regular-S" d="M510,56 l0,110" />
        <path id="left-margin-Black-S" d="M620,56 l0,110" />
        <path id="right-margin-Black-S" d="M710,56 l0,110" />
        <path id="Capline-M" d="M18,276 l800,0" />
        <path id="Baseline-M" d="M18,346 l800,0" />
        <path id="Capline-L" d="M18,476 l800,0" />
        <path id="Baseline-L" d="M18,546 l800,0" />
    </g>
    <g id="Symbols">
        <g id="Ultralight-S">
            <path d="M297.308,140.615 C297.308,141.329 297.024,142.014 296.519,142.519 C296.014,143.024 295.329,143.308 294.615,143.308 L246.154,143.308 C244.667,143.308 243.462,142.102 243.462,140.615 C243.462,139.128 244.667,137.923 246.154,137.923 L294.615,137.923 C295.329,137.923 296.014,138.207 296.519,138.712 C297.024,139.217 297.308,139.901 297.308,140.615 Z M305.385,113.692 L305.385,121.769 C305.385,122.483 305.101,123.168 304.596,123.673 C304.091,124.178 303.406,124.462 302.692,124.462 L242.475,124.462 C236.522,124.489 231.266,120.578 229.583,114.867 L224.848,99.087 C224.358,97.457 224.668,95.692 225.683,94.327 C226.698,92.961 228.299,92.155 230,92.154 L232.692,92.154 C233.405,92.154 234.089,92.437 234.594,92.941 L241.887,100.231 L249.455,100.231 L246.426,91.164 C245.879,89.522 246.155,87.716 247.168,86.312 C248.18,84.907 249.807,84.076 251.538,84.077 L254.231,84.077 C254.945,84.076 255.63,84.36 256.136,84.864 L271.502,100.231 L291.923,100.231 C295.493,100.231 298.917,101.649 301.442,104.174 C303.966,106.698 305.385,110.122 305.385,113.692 Z M300,113.692 C300,111.55 299.149,109.496 297.634,107.981 C296.12,106.466 294.065,105.615 291.923,105.615 L270.385,105.615 C269.672,105.615 268.988,105.332 268.483,104.828 L253.117,89.462 L251.538,89.462 L255.742,102.072 C256.015,102.892 255.878,103.794 255.373,104.496 C254.867,105.198 254.056,105.614 253.191,105.615 L240.769,105.615 C240.055,105.616 239.37,105.333 238.864,104.828 L231.578,97.538 L230,97.538 L234.735,113.322 C235.746,116.75 238.902,119.096 242.475,119.077 L300,119.077 Z" />
        </g>
        <g id="Regular-S">
            <path d="M497.308,140.615 C497.308,141.329 497.024,142.014 496.519,142.519 C496.014,143.024 495.329,143.308 494.615,143.308 L446.154,143.308 C444.667,143.308 443.462,142.102 443.462,140.615 C443.462,139.128 444.667,137.923 446.154,137.923 L494.615,137.923 C495.329,137.923 496.014,138.207 496.519,138.712 C497.024,139.217 497.308,139.901 497.308,140.615 Z M505.385,113.692 L505.385,121.769 C505.385,122.483 505.101,123.168 504.596,123.673 C504.091,124.178 503.406,124.462 502.692,124.462 L442.475,124.462 C436.522,124.489 431.266,120.578 429.583,114.867 L424.848,99.087 C424.358,97.457 424.668,95.692 425.683,94.327 C426.698,92.961 428.299,92.155 430,92.154 L432.692,92.154 C433.405,92.154 434.089,92.437 434.594,92.941 L441.887,100.231 L449.455,100.231 L446.426,91.164 C445.879,89.522 446.155,87.716 447.168,86.312 C448.18,84.907 449.807,84.076 451.538,84.077 L454.231,84.077 C454.945,84.076 455.63,84.36 456.136,84.864 L471.502,100.231 L491.923,100.231 C495.493,100.231 498.917,101.649 501.442,104.174 C503.966,106.698 505.385,110.122 505.385,113.692 Z M500,113.692 C500,111.55 499.149,109.496 497.634,107.981 C496.12,106.466 494.065,105.615 491.923,105.615 L470.385,105.615 C469.672,105.615 468.988,105.332 468.483,104.828 L453.117,89.462 L451.538,89.462 L455.742,102.072 C456.015,102.892 455.878,103.794 455.373,104.496 C454.867,105.198 454.056,105.614 453.191,105.615 L440.769,105.615 C440.055,105.616 439.37,105.333 438.864,104.828 L431.578,97.538 L430,97.538 L434.735,113.322 C435.746,116.75 438.902,119.096 442.475,119.077 L500,119.077 Z" />
        </g>
        <g id="Black-S">
            <path d="M697.308,140.615 C697.308,141.329 697.024,142.014 696.519,142.519 C696.014,143.024 695.329,143.308 694.615,143.308 L646.154,143.308 C644.667,143.308 643.462,142.102 643.462,140.615 C643.462,139.128 644.667,137.923 646.154,137.923 L694.615,137.923 C695.329,137.923 696.014,138.207 696.519,138.712 C697.024,139.217 697.308,139.901 697.308,140.615 Z M705.385,113.692 L705.385,121.769 C705.385,122.483 705.101,123.168 704.596,123.673 C704.091,124.178 703.406,124.462 702.692,124.462 L642.476,124.462 C636.522,124.489 631.266,120.578 629.583,114.867 L624.848,99.087 C624.358,97.457 624.668,95.692 625.683,94.327 C626.698,92.961 628.299,92.155 630,92.154 L632.692,92.154 C633.405,92.154 634.089,92.437 634.594,92.941 L641.887,100.231 L649.455,100.231 L646.426,91.164 C645.879,89.522 646.155,87.716 647.168,86.312 C648.18,84.907 649.807,84.076 651.538,84.077 L654.231,84.077 C654.945,84.076 655.63,84.36 656.136,84.864 L671.502,100.231 L691.923,100.231 C695.493,100.231 698.917,101.649 701.442,104.174 C703.966,106.698 705.385,110.122 705.385,113.692 Z M700,113.692 C700,111.55 699.149,109.496 697.634,107.981 C696.12,106.466 694.065,105.615 691.923,105.615 L670.385,105.615 C669.672,105.615 668.988,105.332 668.483,104.828 L653.117,89.462 L651.538,89.462 L655.742,102.072 C656.015,102.892 655.878,103.794 655.373,104.496 C654.867,105.198 654.056,105.614 653.191,105.615 L640.769,105.615 C640.055,105.616 639.37,105.333 638.864,104.828 L631.578,97.538 L630,97.538 L634.735,113.322 C635.746,116.75 638.902,119.096 642.476,119.077 L700,119.077 Z" />
        </g>
    </g>
</svg>