<?xml version="1.0" encoding="UTF-8"?>
<svg height="600" width="800" xmlns="http://www.w3.org/2000/svg" xmlns:xlink="http://www.w3.org/1999/xlink">
    <g id="Notes" font-family="'LucidaGrande', 'Lucida Grande', sans-serif" font-size="13">
        <rect fill="white" height="600.0" width="800.0" x="0.0" y="0.0" />
        <g font-size="13">
            <text x="18.0" y="176.0">Small</text>
            <text x="18.0" y="376.0">Medium</text>
            <text x="18.0" y="576.0">Large</text>
        </g>
        <g font-size="9">
            <text x="250.0" y="30.0">Ultralight</text>
            <text x="450.0" y="30.0">Regular</text>
            <text x="650.0" y="30.0">Black</text>
            <text id="template-version" fill="#505050" text-anchor="end" x="785.0" y="575.0">Template v.3.0</text>
            <a href="https://github.com/swhitty/SwiftDraw">
                <text fill="#505050" text-anchor="end" x="785.0" y="590.0">https://github.com/swhitty/SwiftDraw</text>
            </a>
        </g>
    </g>
    <g id="Guides" stroke="rgb(39, 170, 225)" stroke-width="0.5">
        <path id="Capline-S" d="M18,76 l800,0" />
        <path id="H-reference" d="M85,145.755 L87.685,145.755 L113.369,79.287 L114.052,79.287 L114.052,76 L112.148,76 L85,145.755 Z M95.693,121.536 L130.996,121.536 L130.263,119.313 L96.474,119.313 L95.693,121.536 Z M139.15,145.755 L141.787,145.755 L114.638,76 L113.466,76 L113.466,79.287 L139.15,145.755 Z" stroke="none" />
        <path id="Baseline-S" d="M18,146 l800,0" />
        <path id="left-margin-Ultralight-S" d="M220,56 l0,110" />
        <path id="right-margin-Ultralight-S" d="M310,56 l0,110" />
        <path id="left-margin-Regular-S" d="M420,56 l0,110" />
        <path id="right-margin-Regular-S" d="M510,56 l0,110" />
        <path id="left-margin-Black-S" d="M620,56 l0,110" />
        <path id="right-margin-Black-S" d="M710,56 l0,110" />
        <path id="Capline-M" d="M18,276 l800,0" />
        <path id="Baseline-M" d="M18,346 l800,0" />
        <path id="Capline-L" d="M18,476 l800,0" />
        <path id="Baseline-L" d="M18,546 l800,0" />
    </g>
    <g id="Symbols">
        <g id="Ultralight-S">
            <path d="M305.385,94.846 C305.388,90.796 302.803,87.197 298.965,85.906 C295.126,84.616 290.892,85.922 288.448,89.151 C286.004,92.38 285.896,96.81 288.181,100.154 L279.165,111.259 L271.058,92.625 C274.087,90.076 275.199,85.905 273.842,82.186 C272.486,78.467 268.949,75.992 264.99,75.992 C261.031,75.992 257.494,78.467 256.138,82.186 C254.781,85.905 255.893,90.076 258.922,92.625 L250.835,111.249 L241.819,100.143 C244.199,96.656 243.969,92.011 241.256,88.776 C238.543,85.541 234.01,84.506 230.161,86.242 C226.313,87.978 224.089,92.062 224.718,96.237 C225.348,100.412 228.678,103.658 232.867,104.182 L237.74,133.424 C238.173,136.02 240.419,137.923 243.051,137.923 L286.949,137.923 C289.581,137.923 291.827,136.02 292.26,133.424 L297.129,104.195 C301.845,103.606 305.384,99.598 305.385,94.846 Z M265,81.385 C267.23,81.385 269.038,83.193 269.038,85.423 C269.038,87.653 267.23,89.462 265,89.462 C262.77,89.462 260.962,87.653 260.962,85.423 C260.962,84.352 261.387,83.325 262.144,82.567 C262.902,81.81 263.929,81.385 265,81.385 Z M230,94.846 C230,92.616 231.808,90.808 234.038,90.808 C236.269,90.808 238.077,92.616 238.077,94.846 C238.077,97.077 236.269,98.885 234.038,98.885 C232.967,98.885 231.94,98.459 231.183,97.702 C230.425,96.944 230,95.917 230,94.846 Z M286.949,132.538 L243.051,132.538 L238.366,104.444 L249.449,118.067 C249.957,118.702 250.725,119.073 251.538,119.077 C251.66,119.077 251.781,119.07 251.902,119.053 C252.835,118.927 253.634,118.322 254.009,117.458 L263.869,94.775 C264.62,94.87 265.38,94.87 266.131,94.775 L275.991,117.458 C276.366,118.322 277.165,118.927 278.098,119.053 C278.219,119.07 278.34,119.077 278.462,119.077 C279.275,119.073 280.043,118.702 280.551,118.067 L291.634,104.431 Z M295.962,98.885 C293.731,98.885 291.923,97.077 291.923,94.846 C291.923,92.616 293.731,90.808 295.962,90.808 C298.192,90.808 300,92.616 300,94.846 C300,95.917 299.575,96.944 298.817,97.702 C298.06,98.459 297.033,98.885 295.962,98.885 Z" />
        </g>
        <g id="Regular-S">
            <path d="M505.385,94.846 C505.388,90.796 502.803,87.197 498.965,85.906 C495.126,84.616 490.892,85.922 488.448,89.151 C486.004,92.38 485.896,96.81 488.181,100.154 L479.165,111.259 L471.058,92.625 C474.087,90.076 475.199,85.905 473.842,82.186 C472.486,78.467 468.949,75.992 464.99,75.992 C461.031,75.992 457.494,78.467 456.138,82.186 C454.781,85.905 455.893,90.076 458.922,92.625 L450.835,111.249 L441.819,100.143 C444.199,96.656 443.969,92.011 441.256,88.776 C438.543,85.541 434.01,84.506 430.161,86.242 C426.313,87.978 424.089,92.062 424.718,96.237 C425.348,100.412 428.678,103.658 432.867,104.182 L437.74,133.424 C438.173,136.02 440.419,137.923 443.051,137.923 L486.949,137.923 C489.581,137.923 491.827,136.02 492.26,133.424 L497.129,104.195 C501.845,103.606 505.384,99.598 505.385,94.846 Z M465,81.385 C467.23,81.385 469.038,83.193 469.038,85.423 C469.038,87.653 467.23,89.462 465,89.462 C462.77,89.462 460.962,87.653 460.962,85.423 C460.962,84.352 461.387,83.325 462.144,82.567 C462.902,81.81 463.929,81.385 465,81.385 Z M430,94.846 C430,92.616 431.808,90.808 434.038,90.808 C436.269,90.808 438.077,92.616 438.077,94.846 C438.077,97.077 436.269,98.885 434.038,98.885 C432.967,98.885 431.94,98.459 431.183,97.702 C430.425,96.944 430,95.917 430,94.846 Z M486.949,132.538 L443.051,132.538 L438.366,104.444 L449.449,118.067 C449.957,118.702 450.725,119.073 451.538,119.077 C451.66,119.077 451.781,119.07 451.902,119.053 C452.835,118.927 453.634,118.322 454.009,117.458 L463.869,94.775 C464.62,94.87 465.38,94.87 466.131,94.775 L475.991,117.458 C476.366,118.322 477.165,118.927 478.098,119.053 C478.219,119.07 478.34,119.077 478.462,119.077 C479.275,119.073 480.043,118.702 480.551,118.067 L491.634,104.431 Z M495.962,98.885 C493.731,98.885 491.923,97.077 491.923,94.846 C491.923,92.616 493.731,90.808 495.962,90.808 C498.192,90.808 500,92.616 500,94.846 C500,95.917 499.575,96.944 498.817,97.702 C498.06,98.459 497.033,98.885 495.962,98.885 Z" />
        </g>
        <g id="Black-S">
            <path d="M705.385,94.846 C705.388,90.796 702.803,87.197 698.965,85.906 C695.126,84.616 690.892,85.922 688.448,89.151 C686.004,92.38 685.896,96.81 688.181,100.154 L679.165,111.259 L671.058,92.625 C674.087,90.076 675.199,85.905 673.842,82.186 C672.486,78.467 668.949,75.992 664.99,75.992 C661.031,75.992 657.494,78.467 656.138,82.186 C654.781,85.905 655.893,90.076 658.922,92.625 L650.835,111.249 L641.819,100.143 C644.199,96.656 643.969,92.011 641.256,88.776 C638.543,85.541 634.01,84.506 630.161,86.242 C626.313,87.978 624.089,92.062 624.718,96.237 C625.348,100.412 628.678,103.658 632.867,104.182 L637.74,133.424 C638.173,136.02 640.419,137.923 643.051,137.923 L686.949,137.923 C689.581,137.923 691.827,136.02 692.26,133.424 L697.129,104.195 C701.845,103.606 705.384,99.598 705.385,94.846 Z M665,81.385 C667.23,81.385 669.038,83.193 669.038,85.423 C669.038,87.653 667.23,89.462 665,89.462 C662.77,89.462 660.962,87.653 660.962,85.423 C660.962,84.352 661.387,83.325 662.144,82.567 C662.902,81.81 663.929,81.385 665,81.385 Z M630,94.846 C630,92.616 631.808,90.808 634.038,90.808 C636.269,90.808 638.077,92.616 638.077,94.846 C638.077,97.077 636.269,98.885 634.039,98.885 C632.967,98.885 631.94,98.459 631.183,97.702 C630.425,96.944 630,95.917 630,94.846 Z M686.949,132.538 L643.051,132.538 L638.366,104.444 L649.449,118.067 C649.957,118.702 650.725,119.073 651.538,119.077 C651.66,119.077 651.781,119.07 651.902,119.053 C652.835,118.927 653.634,118.322 654.009,117.458 L663.869,94.775 C664.62,94.87 665.38,94.87 666.131,94.775 L675.991,117.458 C676.366,118.322 677.165,118.927 678.098,119.053 C678.219,119.07 678.34,119.077 678.462,119.077 C679.275,119.073 680.043,118.702 680.551,118.067 L691.634,104.431 Z M695.962,98.885 C693.731,98.885 691.923,97.077 691.923,94.846 C691.923,92.616 693.731,90.808 695.962,90.808 C698.192,90.808 700,92.616 700,94.846 C700,95.917 699.575,96.944 698.817,97.702 C698.06,98.459 697.033,98.885 695.962,98.885 Z" />
        </g>
    </g>
</svg>