<?xml version="1.0" encoding="UTF-8"?>
<svg height="600" width="800" xmlns="http://www.w3.org/2000/svg" xmlns:xlink="http://www.w3.org/1999/xlink">
    <g id="Notes" font-family="'LucidaGrande', 'Lucida Grande', sans-serif" font-size="13">
        <rect fill="white" height="600.0" width="800.0" x="0.0" y="0.0" />
        <g font-size="13">
            <text x="18.0" y="176.0">Small</text>
            <text x="18.0" y="376.0">Medium</text>
            <text x="18.0" y="576.0">Large</text>
        </g>
        <g font-size="9">
            <text x="250.0" y="30.0">Ultralight</text>
            <text x="450.0" y="30.0">Regular</text>
            <text x="650.0" y="30.0">Black</text>
            <text id="template-version" fill="#505050" text-anchor="end" x="785.0" y="575.0">Template v.3.0</text>
            <a href="https://github.com/swhitty/SwiftDraw">
                <text fill="#505050" text-anchor="end" x="785.0" y="590.0">https://github.com/swhitty/SwiftDraw</text>
            </a>
        </g>
    </g>
    <g id="Guides" stroke="rgb(39, 170, 225)" stroke-width="0.5">
        <path id="Capline-S" d="M18,76 l800,0" />
        <path id="H-reference" d="M85,145.755 L87.685,145.755 L113.369,79.287 L114.052,79.287 L114.052,76 L112.148,76 L85,145.755 Z M95.693,121.536 L130.996,121.536 L130.263,119.313 L96.474,119.313 L95.693,121.536 Z M139.15,145.755 L141.787,145.755 L114.638,76 L113.466,76 L113.466,79.287 L139.15,145.755 Z" stroke="none" />
        <path id="Baseline-S" d="M18,146 l800,0" />
        <path id="left-margin-Ultralight-S" d="M220,56 l0,110" />
        <path id="right-margin-Ultralight-S" d="M310,56 l0,110" />
        <path id="left-margin-Regular-S" d="M420,56 l0,110" />
        <path id="right-margin-Regular-S" d="M510,56 l0,110" />
        <path id="left-margin-Black-S" d="M620,56 l0,110" />
        <path id="right-margin-Black-S" d="M710,56 l0,110" />
        <path id="Capline-M" d="M18,276 l800,0" />
        <path id="Baseline-M" d="M18,346 l800,0" />
        <path id="Capline-L" d="M18,476 l800,0" />
        <path id="Baseline-L" d="M18,546 l800,0" />
    </g>
    <g id="Symbols">
        <g id="Ultralight-S">
            <path d="M291.923,78.692 L238.077,78.692 C236.649,78.692 235.279,79.26 234.269,80.269 C233.26,81.279 232.692,82.649 232.692,84.077 L232.692,137.923 C232.692,139.351 233.26,140.721 234.269,141.731 C235.279,142.74 236.649,143.308 238.077,143.308 L291.923,143.308 C293.351,143.308 294.721,142.74 295.731,141.731 C296.74,140.721 297.308,139.351 297.308,137.923 L297.308,84.077 C297.308,82.649 296.74,81.279 295.731,80.269 C294.721,79.26 293.351,78.692 291.923,78.692 Z M281.154,105.615 L281.154,137.923 L267.692,137.923 L267.692,105.615 Z M262.308,137.923 L248.846,137.923 L248.846,105.615 L262.308,105.615 Z M291.923,137.923 L286.538,137.923 L286.538,102.923 C286.538,102.209 286.255,101.524 285.75,101.019 C285.245,100.514 284.56,100.231 283.846,100.231 L246.154,100.231 C245.44,100.231 244.755,100.514 244.25,101.019 C243.745,101.524 243.462,102.209 243.462,102.923 L243.462,137.923 L238.077,137.923 L238.077,84.077 L291.923,84.077 L291.923,137.923 Z M273.077,92.154 C273.077,92.868 272.793,93.553 272.288,94.058 C271.783,94.562 271.099,94.846 270.385,94.846 L259.615,94.846 C258.128,94.846 256.923,93.641 256.923,92.154 C256.923,90.667 258.128,89.462 259.615,89.462 L270.385,89.462 C271.099,89.462 271.783,89.745 272.288,90.25 C272.793,90.755 273.077,91.44 273.077,92.154 Z" />
        </g>
        <g id="Regular-S">
            <path d="M491.923,78.692 L438.077,78.692 C436.649,78.692 435.279,79.26 434.269,80.269 C433.26,81.279 432.692,82.649 432.692,84.077 L432.692,137.923 C432.692,139.351 433.26,140.721 434.269,141.731 C435.279,142.74 436.649,143.308 438.077,143.308 L491.923,143.308 C493.351,143.308 494.721,142.74 495.731,141.731 C496.74,140.721 497.308,139.351 497.308,137.923 L497.308,84.077 C497.308,82.649 496.74,81.279 495.731,80.269 C494.721,79.26 493.351,78.692 491.923,78.692 Z M481.154,105.615 L481.154,137.923 L467.692,137.923 L467.692,105.615 Z M462.308,137.923 L448.846,137.923 L448.846,105.615 L462.308,105.615 Z M491.923,137.923 L486.538,137.923 L486.538,102.923 C486.538,102.209 486.255,101.524 485.75,101.019 C485.245,100.514 484.56,100.231 483.846,100.231 L446.154,100.231 C445.44,100.231 444.755,100.514 444.25,101.019 C443.745,101.524 443.462,102.209 443.462,102.923 L443.462,137.923 L438.077,137.923 L438.077,84.077 L491.923,84.077 L491.923,137.923 Z M473.077,92.154 C473.077,92.868 472.793,93.553 472.288,94.058 C471.783,94.562 471.099,94.846 470.385,94.846 L459.615,94.846 C458.128,94.846 456.923,93.641 456.923,92.154 C456.923,90.667 458.128,89.462 459.615,89.462 L470.385,89.462 C471.099,89.462 471.783,89.745 472.288,90.25 C472.793,90.755 473.077,91.44 473.077,92.154 Z" />
        </g>
        <g id="Black-S">
            <path d="M691.923,78.692 L638.077,78.692 C636.649,78.692 635.279,79.26 634.269,80.269 C633.26,81.279 632.692,82.649 632.692,84.077 L632.692,137.923 C632.692,139.351 633.26,140.721 634.269,141.731 C635.279,142.74 636.649,143.308 638.077,143.308 L691.923,143.308 C693.351,143.308 694.721,142.74 695.731,141.731 C696.74,140.721 697.308,139.351 697.308,137.923 L697.308,84.077 C697.308,82.649 696.74,81.279 695.731,80.269 C694.721,79.26 693.351,78.692 691.923,78.692 Z M681.154,105.615 L681.154,137.923 L667.692,137.923 L667.692,105.615 Z M662.308,137.923 L648.846,137.923 L648.846,105.615 L662.308,105.615 Z M691.923,137.923 L686.538,137.923 L686.538,102.923 C686.538,102.209 686.255,101.524 685.75,101.019 C685.245,100.514 684.56,100.231 683.846,100.231 L646.154,100.231 C645.44,100.231 644.755,100.514 644.25,101.019 C643.745,101.524 643.462,102.209 643.462,102.923 L643.462,137.923 L638.077,137.923 L638.077,84.077 L691.923,84.077 L691.923,137.923 Z M673.077,92.154 C673.077,92.868 672.793,93.553 672.288,94.058 C671.783,94.562 671.099,94.846 670.385,94.846 L659.615,94.846 C658.128,94.846 656.923,93.641 656.923,92.154 C656.923,90.667 658.128,89.462 659.615,89.462 L670.385,89.462 C671.099,89.462 671.783,89.745 672.288,90.25 C672.793,90.755 673.077,91.44 673.077,92.154 Z" />
        </g>
    </g>
</svg>