<?xml version="1.0" encoding="UTF-8"?>
<svg height="600" width="800" xmlns="http://www.w3.org/2000/svg" xmlns:xlink="http://www.w3.org/1999/xlink">
    <g id="Notes" font-family="'LucidaGrande', 'Lucida Grande', sans-serif" font-size="13">
        <rect fill="white" height="600.0" width="800.0" x="0.0" y="0.0" />
        <g font-size="13">
            <text x="18.0" y="176.0">Small</text>
            <text x="18.0" y="376.0">Medium</text>
            <text x="18.0" y="576.0">Large</text>
        </g>
        <g font-size="9">
            <text x="250.0" y="30.0">Ultralight</text>
            <text x="450.0" y="30.0">Regular</text>
            <text x="650.0" y="30.0">Black</text>
            <text id="template-version" fill="#505050" text-anchor="end" x="785.0" y="575.0">Template v.3.0</text>
            <a href="https://github.com/swhitty/SwiftDraw">
                <text fill="#505050" text-anchor="end" x="785.0" y="590.0">https://github.com/swhitty/SwiftDraw</text>
            </a>
        </g>
    </g>
    <g id="Guides" stroke="rgb(39, 170, 225)" stroke-width="0.5">
        <path id="Capline-S" d="M18,76 l800,0" />
        <path id="H-reference" d="M85,145.755 L87.685,145.755 L113.369,79.287 L114.052,79.287 L114.052,76 L112.148,76 L85,145.755 Z M95.693,121.536 L130.996,121.536 L130.263,119.313 L96.474,119.313 L95.693,121.536 Z M139.15,145.755 L141.787,145.755 L114.638,76 L113.466,76 L113.466,79.287 L139.15,145.755 Z" stroke="none" />
        <path id="Baseline-S" d="M18,146 l800,0" />
        <path id="left-margin-Ultralight-S" d="M220,56 l0,110" />
        <path id="right-margin-Ultralight-S" d="M310,56 l0,110" />
        <path id="left-margin-Regular-S" d="M420,56 l0,110" />
        <path id="right-margin-Regular-S" d="M510,56 l0,110" />
        <path id="left-margin-Black-S" d="M620,56 l0,110" />
        <path id="right-margin-Black-S" d="M710,56 l0,110" />
        <path id="Capline-M" d="M18,276 l800,0" />
        <path id="Baseline-M" d="M18,346 l800,0" />
        <path id="Capline-L" d="M18,476 l800,0" />
        <path id="Baseline-L" d="M18,546 l800,0" />
    </g>
    <g id="Symbols">
        <g id="Ultralight-S">
            <path d="M231.077,110.462 C231.648,110.89 232.366,111.074 233.073,110.973 C233.78,110.872 234.418,110.494 234.846,109.923 C238.151,105.516 243.338,102.923 248.846,102.923 C254.354,102.923 259.541,105.516 262.846,109.923 C263.739,111.112 265.427,111.351 266.615,110.458 C266.819,110.307 266.999,110.127 267.15,109.923 L267.15,109.923 C270.455,105.516 275.642,102.923 281.15,102.923 C286.659,102.923 291.846,105.516 295.15,109.923 C296.042,111.112 297.73,111.353 298.92,110.461 C300.11,109.568 300.351,107.88 299.459,106.69 C297.076,103.495 293.898,100.979 290.24,99.393 C294.344,95.647 295.724,89.764 293.715,84.584 C291.706,79.404 286.72,75.99 281.164,75.99 C275.608,75.99 270.622,79.404 268.613,84.584 C266.604,89.764 267.984,95.646 272.087,99.393 C269.447,100.535 267.049,102.169 265.02,104.209 C262.992,102.169 260.593,100.535 257.953,99.393 C262.056,95.647 263.436,89.764 261.427,84.584 C259.418,79.404 254.433,75.99 248.876,75.99 C243.32,75.99 238.335,79.404 236.326,84.584 C234.317,89.764 235.697,95.646 239.8,99.393 C236.127,100.973 232.934,103.491 230.538,106.692 C229.646,107.882 229.887,109.569 231.077,110.462 Z M281.154,81.385 C285.615,81.385 289.231,85.001 289.231,89.462 C289.231,93.922 285.615,97.538 281.154,97.538 C276.693,97.538 273.077,93.922 273.077,89.462 C273.077,87.319 273.928,85.265 275.443,83.75 C276.957,82.236 279.012,81.385 281.154,81.385 Z M248.846,81.385 C253.307,81.385 256.923,85.001 256.923,89.462 C256.923,93.922 253.307,97.538 248.846,97.538 C244.385,97.538 240.769,93.922 240.769,89.462 C240.769,87.319 241.62,85.265 243.135,83.75 C244.65,82.236 246.704,81.385 248.846,81.385 Z M290.24,134.393 C294.344,130.646 295.724,124.764 293.715,119.584 C291.706,114.404 286.72,110.99 281.164,110.99 C275.608,110.99 270.622,114.404 268.613,119.584 C266.604,124.764 267.984,130.646 272.087,134.393 C269.447,135.535 267.049,137.169 265.02,139.209 C262.992,137.169 260.593,135.535 257.953,134.393 C262.056,130.646 263.436,124.764 261.427,119.584 C259.418,114.404 254.433,110.99 248.876,110.99 C243.32,110.99 238.335,114.404 236.326,119.584 C234.317,124.764 235.697,130.646 239.8,134.393 C236.127,135.973 232.934,138.491 230.538,141.692 C229.646,142.882 229.887,144.569 231.077,145.462 C232.266,146.354 233.954,146.113 234.846,144.923 C238.151,140.516 243.338,137.923 248.846,137.923 C254.354,137.923 259.541,140.516 262.846,144.923 C263.739,146.112 265.427,146.351 266.615,145.458 C266.819,145.307 266.999,145.127 267.15,144.923 L267.15,144.923 C270.455,140.516 275.642,137.923 281.15,137.923 C286.659,137.923 291.846,140.516 295.15,144.923 C296.042,146.112 297.73,146.353 298.92,145.461 C300.11,144.568 300.351,142.88 299.459,141.69 C297.076,138.495 293.898,135.979 290.24,134.393 Z M248.846,116.385 C253.307,116.385 256.923,120.001 256.923,124.462 C256.923,128.922 253.307,132.538 248.846,132.538 C244.385,132.538 240.769,128.922 240.769,124.462 C240.769,122.319 241.62,120.265 243.135,118.75 C244.65,117.236 246.704,116.385 248.846,116.385 Z M281.154,116.385 C285.615,116.385 289.231,120.001 289.231,124.462 C289.231,128.922 285.615,132.538 281.154,132.538 C276.693,132.538 273.077,128.922 273.077,124.462 C273.077,122.319 273.928,120.265 275.443,118.75 C276.957,117.236 279.012,116.385 281.154,116.385 Z" />
        </g>
        <g id="Regular-S">
            <path d="M431.077,110.462 C431.648,110.89 432.366,111.074 433.073,110.973 C433.78,110.872 434.418,110.494 434.846,109.923 C438.151,105.516 443.338,102.923 448.846,102.923 C454.354,102.923 459.541,105.516 462.846,109.923 C463.739,111.112 465.427,111.351 466.615,110.458 C466.819,110.307 466.999,110.127 467.15,109.923 L467.15,109.923 C470.455,105.516 475.642,102.923 481.15,102.923 C486.659,102.923 491.846,105.516 495.15,109.923 C496.042,111.112 497.73,111.353 498.92,110.461 C500.11,109.568 500.351,107.88 499.459,106.69 C497.076,103.495 493.898,100.979 490.24,99.393 C494.344,95.647 495.724,89.764 493.715,84.584 C491.706,79.404 486.72,75.99 481.164,75.99 C475.608,75.99 470.622,79.404 468.613,84.584 C466.604,89.764 467.984,95.646 472.087,99.393 C469.447,100.535 467.049,102.169 465.02,104.209 C462.992,102.169 460.593,100.535 457.953,99.393 C462.056,95.647 463.436,89.764 461.427,84.584 C459.418,79.404 454.433,75.99 448.876,75.99 C443.32,75.99 438.335,79.404 436.326,84.584 C434.317,89.764 435.697,95.646 439.8,99.393 C436.127,100.973 432.934,103.491 430.538,106.692 C429.646,107.882 429.887,109.569 431.077,110.462 Z M481.154,81.385 C485.615,81.385 489.231,85.001 489.231,89.462 C489.231,93.922 485.615,97.538 481.154,97.538 C476.693,97.538 473.077,93.922 473.077,89.462 C473.077,87.319 473.928,85.265 475.443,83.75 C476.957,82.236 479.012,81.385 481.154,81.385 Z M448.846,81.385 C453.307,81.385 456.923,85.001 456.923,89.462 C456.923,93.922 453.307,97.538 448.846,97.538 C444.385,97.538 440.769,93.922 440.769,89.462 C440.769,87.319 441.62,85.265 443.135,83.75 C444.65,82.236 446.704,81.385 448.846,81.385 Z M490.24,134.393 C494.344,130.646 495.724,124.764 493.715,119.584 C491.706,114.404 486.72,110.99 481.164,110.99 C475.608,110.99 470.622,114.404 468.613,119.584 C466.604,124.764 467.984,130.646 472.087,134.393 C469.447,135.535 467.049,137.169 465.02,139.209 C462.992,137.169 460.593,135.535 457.953,134.393 C462.056,130.646 463.436,124.764 461.427,119.584 C459.418,114.404 454.433,110.99 448.876,110.99 C443.32,110.99 438.335,114.404 436.326,119.584 C434.317,124.764 435.697,130.646 439.8,134.393 C436.127,135.973 432.934,138.491 430.538,141.692 C429.646,142.882 429.887,144.569 431.077,145.462 C432.266,146.354 433.954,146.113 434.846,144.923 C438.151,140.516 443.338,137.923 448.846,137.923 C454.354,137.923 459.541,140.516 462.846,144.923 C463.739,146.112 465.427,146.351 466.615,145.458 C466.819,145.307 466.999,145.127 467.15,144.923 L467.15,144.923 C470.455,140.516 475.642,137.923 481.15,137.923 C486.659,137.923 491.846,140.516 495.15,144.923 C496.042,146.112 497.73,146.353 498.92,145.461 C500.11,144.568 500.351,142.88 499.459,141.69 C497.076,138.495 493.898,135.979 490.24,134.393 Z M448.846,116.385 C453.307,116.385 456.923,120.001 456.923,124.462 C456.923,128.922 453.307,132.538 448.846,132.538 C444.385,132.538 440.769,128.922 440.769,124.462 C440.769,122.319 441.62,120.265 443.135,118.75 C444.65,117.236 446.704,116.385 448.846,116.385 Z M481.154,116.385 C485.615,116.385 489.231,120.001 489.231,124.462 C489.231,128.922 485.615,132.538 481.154,132.538 C476.693,132.538 473.077,128.922 473.077,124.462 C473.077,122.319 473.928,120.265 475.443,118.75 C476.957,117.236 479.012,116.385 481.154,116.385 Z" />
        </g>
        <g id="Black-S">
            <path d="M631.077,110.462 C631.648,110.89 632.366,111.074 633.073,110.973 C633.78,110.872 634.418,110.494 634.846,109.923 C638.151,105.516 643.338,102.923 648.846,102.923 C654.354,102.923 659.541,105.516 662.846,109.923 C663.739,111.112 665.427,111.351 666.615,110.458 C666.819,110.307 666.999,110.127 667.151,109.923 L667.151,109.923 C670.455,105.516 675.642,102.923 681.151,102.923 C686.659,102.923 691.846,105.516 695.151,109.923 C696.042,111.112 697.73,111.353 698.92,110.461 C700.11,109.568 700.352,107.88 699.459,106.69 C697.076,103.495 693.898,100.979 690.24,99.393 C694.344,95.647 695.724,89.764 693.715,84.584 C691.706,79.404 686.72,75.99 681.164,75.99 C675.608,75.99 670.622,79.404 668.613,84.584 C666.604,89.764 667.984,95.646 672.088,99.393 C669.447,100.535 667.049,102.169 665.02,104.209 C662.992,102.169 660.593,100.535 657.953,99.393 C662.056,95.647 663.436,89.764 661.427,84.584 C659.418,79.404 654.433,75.99 648.876,75.99 C643.32,75.99 638.335,79.404 636.326,84.584 C634.317,89.764 635.697,95.646 639.8,99.393 C636.127,100.973 632.934,103.491 630.538,106.692 C629.646,107.882 629.887,109.569 631.077,110.462 Z M681.154,81.385 C685.615,81.385 689.231,85.001 689.231,89.462 C689.231,93.922 685.615,97.538 681.154,97.538 C676.693,97.538 673.077,93.922 673.077,89.462 C673.077,87.319 673.928,85.265 675.443,83.75 C676.957,82.236 679.012,81.385 681.154,81.385 Z M648.846,81.385 C653.307,81.385 656.923,85.001 656.923,89.462 C656.923,93.922 653.307,97.538 648.846,97.538 C644.385,97.538 640.769,93.922 640.769,89.462 C640.769,87.319 641.62,85.265 643.135,83.75 C644.65,82.236 646.704,81.385 648.846,81.385 Z M690.24,134.393 C694.344,130.646 695.724,124.764 693.715,119.584 C691.706,114.404 686.72,110.99 681.164,110.99 C675.608,110.99 670.622,114.404 668.613,119.584 C666.604,124.764 667.984,130.646 672.088,134.393 C669.447,135.535 667.049,137.169 665.02,139.209 C662.992,137.169 660.593,135.535 657.953,134.393 C662.056,130.646 663.436,124.764 661.427,119.584 C659.418,114.404 654.433,110.99 648.876,110.99 C643.32,110.99 638.335,114.404 636.326,119.584 C634.317,124.764 635.697,130.646 639.8,134.393 C636.127,135.973 632.934,138.491 630.538,141.692 C629.646,142.882 629.887,144.569 631.077,145.462 C632.266,146.354 633.954,146.113 634.846,144.923 C638.151,140.516 643.338,137.923 648.846,137.923 C654.354,137.923 659.541,140.516 662.846,144.923 C663.739,146.112 665.427,146.351 666.615,145.458 C666.819,145.307 666.999,145.127 667.151,144.923 L667.151,144.923 C670.455,140.516 675.642,137.923 681.151,137.923 C686.659,137.923 691.846,140.516 695.151,144.923 C696.042,146.112 697.73,146.353 698.92,145.461 C700.11,144.568 700.352,142.88 699.459,141.69 C697.076,138.495 693.898,135.979 690.24,134.393 Z M648.846,116.385 C653.307,116.385 656.923,120.001 656.923,124.462 C656.923,128.922 653.307,132.538 648.846,132.538 C644.385,132.538 640.769,128.922 640.769,124.462 C640.769,122.319 641.62,120.265 643.135,118.75 C644.65,117.236 646.704,116.385 648.846,116.385 Z M681.154,116.385 C685.615,116.385 689.231,120.001 689.231,124.462 C689.231,128.922 685.615,132.538 681.154,132.538 C676.693,132.538 673.077,128.922 673.077,124.462 C673.077,122.319 673.928,120.265 675.443,118.75 C676.957,117.236 679.012,116.385 681.154,116.385 Z" />
        </g>
    </g>
</svg>