<?xml version="1.0" encoding="UTF-8"?>
<svg height="600" width="800" xmlns="http://www.w3.org/2000/svg" xmlns:xlink="http://www.w3.org/1999/xlink">
    <g id="Notes" font-family="'LucidaGrande', 'Lucida Grande', sans-serif" font-size="13">
        <rect fill="white" height="600.0" width="800.0" x="0.0" y="0.0" />
        <g font-size="13">
            <text x="18.0" y="176.0">Small</text>
            <text x="18.0" y="376.0">Medium</text>
            <text x="18.0" y="576.0">Large</text>
        </g>
        <g font-size="9">
            <text x="250.0" y="30.0">Ultralight</text>
            <text x="450.0" y="30.0">Regular</text>
            <text x="650.0" y="30.0">Black</text>
            <text id="template-version" fill="#505050" text-anchor="end" x="785.0" y="575.0">Template v.3.0</text>
            <a href="https://github.com/swhitty/SwiftDraw">
                <text fill="#505050" text-anchor="end" x="785.0" y="590.0">https://github.com/swhitty/SwiftDraw</text>
            </a>
        </g>
    </g>
    <g id="Guides" stroke="rgb(39, 170, 225)" stroke-width="0.5">
        <path id="Capline-S" d="M18,76 l800,0" />
        <path id="H-reference" d="M85,145.755 L87.685,145.755 L113.369,79.287 L114.052,79.287 L114.052,76 L112.148,76 L85,145.755 Z M95.693,121.536 L130.996,121.536 L130.263,119.313 L96.474,119.313 L95.693,121.536 Z M139.15,145.755 L141.787,145.755 L114.638,76 L113.466,76 L113.466,79.287 L139.15,145.755 Z" stroke="none" />
        <path id="Baseline-S" d="M18,146 l800,0" />
        <path id="left-margin-Ultralight-S" d="M220,56 l0,110" />
        <path id="right-margin-Ultralight-S" d="M310,56 l0,110" />
        <path id="left-margin-Regular-S" d="M420,56 l0,110" />
        <path id="right-margin-Regular-S" d="M510,56 l0,110" />
        <path id="left-margin-Black-S" d="M620,56 l0,110" />
        <path id="right-margin-Black-S" d="M710,56 l0,110" />
        <path id="Capline-M" d="M18,276 l800,0" />
        <path id="Baseline-M" d="M18,346 l800,0" />
        <path id="Capline-L" d="M18,476 l800,0" />
        <path id="Baseline-L" d="M18,546 l800,0" />
    </g>
    <g id="Symbols">
        <g id="Ultralight-S">
            <path d="M296.52,98.326 L296.52,98.326 L277.674,79.48 C277.169,78.975 276.483,78.692 275.769,78.692 L235.385,78.692 C234.671,78.692 233.986,78.976 233.481,79.481 C232.976,79.986 232.692,80.671 232.692,81.385 L232.692,121.769 C232.693,122.476 232.971,123.154 233.466,123.657 L252.312,142.503 L252.312,142.503 C252.818,143.018 253.509,143.307 254.231,143.308 L294.615,143.308 C295.329,143.308 296.014,143.024 296.519,142.519 C297.024,142.014 297.308,141.329 297.308,140.615 L297.308,100.231 C297.308,99.517 297.025,98.831 296.52,98.326 Z M278.462,87.883 L288.117,97.538 L278.462,97.538 Z M251.538,134.117 L241.883,124.462 L251.538,124.462 Z M251.538,119.077 L238.077,119.077 L238.077,87.883 L251.538,101.345 Z M241.883,84.077 L273.077,84.077 L273.077,97.538 L255.345,97.538 Z M273.077,102.923 L273.077,119.077 L256.923,119.077 L256.923,102.923 Z M256.923,137.923 L256.923,124.462 L274.655,124.462 L288.117,137.923 Z M291.923,134.117 L278.462,120.655 L278.462,102.923 L291.923,102.923 Z" />
        </g>
        <g id="Regular-S">
            <path d="M496.52,98.326 L496.52,98.326 L477.674,79.48 C477.169,78.975 476.483,78.692 475.769,78.692 L435.385,78.692 C434.671,78.692 433.986,78.976 433.481,79.481 C432.976,79.986 432.692,80.671 432.692,81.385 L432.692,121.769 C432.693,122.476 432.97,123.154 433.466,123.657 L452.312,142.503 L452.312,142.503 C452.818,143.018 453.509,143.307 454.231,143.308 L494.615,143.308 C495.329,143.308 496.014,143.024 496.519,142.519 C497.024,142.014 497.308,141.329 497.308,140.615 L497.308,100.231 C497.308,99.517 497.025,98.831 496.52,98.326 Z M478.462,87.883 L488.117,97.538 L478.462,97.538 Z M451.538,134.117 L441.883,124.462 L451.538,124.462 Z M451.538,119.077 L438.077,119.077 L438.077,87.883 L451.538,101.345 Z M441.883,84.077 L473.077,84.077 L473.077,97.538 L455.345,97.538 Z M473.077,102.923 L473.077,119.077 L456.923,119.077 L456.923,102.923 Z M456.923,137.923 L456.923,124.462 L474.655,124.462 L488.117,137.923 Z M491.923,134.117 L478.462,120.655 L478.462,102.923 L491.923,102.923 Z" />
        </g>
        <g id="Black-S">
            <path d="M696.52,98.326 L696.52,98.326 L677.674,79.48 C677.169,78.975 676.484,78.692 675.769,78.692 L635.385,78.692 C634.671,78.692 633.986,78.976 633.481,79.481 C632.976,79.986 632.692,80.671 632.692,81.385 L632.692,121.769 C632.693,122.476 632.971,123.154 633.466,123.657 L652.312,142.503 L652.312,142.503 C652.818,143.018 653.509,143.307 654.231,143.308 L694.615,143.308 C695.329,143.308 696.014,143.024 696.519,142.519 C697.024,142.014 697.308,141.329 697.308,140.615 L697.308,100.231 C697.308,99.517 697.025,98.831 696.52,98.326 Z M678.462,87.883 L688.117,97.538 L678.462,97.538 Z M651.538,134.117 L641.883,124.462 L651.538,124.462 Z M651.538,119.077 L638.077,119.077 L638.077,87.883 L651.538,101.345 Z M641.883,84.077 L673.077,84.077 L673.077,97.538 L655.345,97.538 Z M673.077,102.923 L673.077,119.077 L656.923,119.077 L656.923,102.923 Z M656.923,137.923 L656.923,124.462 L674.655,124.462 L688.117,137.923 Z M691.923,134.117 L678.462,120.655 L678.462,102.923 L691.923,102.923 Z" />
        </g>
    </g>
</svg>