<?xml version="1.0" encoding="UTF-8"?>
<svg height="600" width="800" xmlns="http://www.w3.org/2000/svg" xmlns:xlink="http://www.w3.org/1999/xlink">
    <g id="Notes" font-family="'LucidaGrande', 'Lucida Grande', sans-serif" font-size="13">
        <rect fill="white" height="600.0" width="800.0" x="0.0" y="0.0" />
        <g font-size="13">
            <text x="18.0" y="176.0">Small</text>
            <text x="18.0" y="376.0">Medium</text>
            <text x="18.0" y="576.0">Large</text>
        </g>
        <g font-size="9">
            <text x="250.0" y="30.0">Ultralight</text>
            <text x="450.0" y="30.0">Regular</text>
            <text x="650.0" y="30.0">Black</text>
            <text id="template-version" fill="#505050" text-anchor="end" x="785.0" y="575.0">Template v.3.0</text>
            <a href="https://github.com/swhitty/SwiftDraw">
                <text fill="#505050" text-anchor="end" x="785.0" y="590.0">https://github.com/swhitty/SwiftDraw</text>
            </a>
        </g>
    </g>
    <g id="Guides" stroke="rgb(39, 170, 225)" stroke-width="0.5">
        <path id="Capline-S" d="M18,76 l800,0" />
        <path id="H-reference" d="M85,145.755 L87.685,145.755 L113.369,79.287 L114.052,79.287 L114.052,76 L112.148,76 L85,145.755 Z M95.693,121.536 L130.996,121.536 L130.263,119.313 L96.474,119.313 L95.693,121.536 Z M139.15,145.755 L141.787,145.755 L114.638,76 L113.466,76 L113.466,79.287 L139.15,145.755 Z" stroke="none" />
        <path id="Baseline-S" d="M18,146 l800,0" />
        <path id="left-margin-Ultralight-S" d="M220,56 l0,110" />
        <path id="right-margin-Ultralight-S" d="M310,56 l0,110" />
        <path id="left-margin-Regular-S" d="M420,56 l0,110" />
        <path id="right-margin-Regular-S" d="M510,56 l0,110" />
        <path id="left-margin-Black-S" d="M620,56 l0,110" />
        <path id="right-margin-Black-S" d="M710,56 l0,110" />
        <path id="Capline-M" d="M18,276 l800,0" />
        <path id="Baseline-M" d="M18,346 l800,0" />
        <path id="Capline-L" d="M18,476 l800,0" />
        <path id="Baseline-L" d="M18,546 l800,0" />
    </g>
    <g id="Symbols">
        <g id="Ultralight-S">
            <path d="M291.923,100.231 L271.502,100.231 L256.136,84.864 C255.63,84.36 254.945,84.076 254.231,84.077 L251.538,84.077 C249.808,84.078 248.184,84.91 247.172,86.314 C246.161,87.718 245.886,89.523 246.433,91.164 L249.462,100.231 L241.887,100.231 L234.597,92.941 C234.092,92.437 233.407,92.153 232.692,92.154 L230,92.154 C228.299,92.155 226.698,92.961 225.683,94.327 C224.668,95.692 224.358,97.457 224.848,99.087 L229.583,114.867 C231.266,120.578 236.522,124.489 242.475,124.462 L302.692,124.462 C303.406,124.462 304.091,124.178 304.596,123.673 C305.101,123.168 305.385,122.483 305.385,121.769 L305.385,113.692 C305.385,110.122 303.966,106.698 301.442,104.174 C298.917,101.649 295.493,100.231 291.923,100.231 Z M300,119.077 L242.475,119.077 C238.902,119.096 235.746,116.75 234.735,113.322 L230,97.538 L231.575,97.538 L238.864,104.828 C239.37,105.333 240.055,105.616 240.769,105.615 L253.188,105.615 C254.053,105.615 254.866,105.199 255.372,104.497 C255.878,103.795 256.016,102.893 255.742,102.072 L251.538,89.462 L253.113,89.462 L268.48,104.828 C268.985,105.333 269.67,105.616 270.385,105.615 L291.923,105.615 C294.065,105.615 296.12,106.466 297.634,107.981 C299.149,109.496 300,111.55 300,113.692 Z M297.308,135.231 C297.308,138.205 294.897,140.615 291.923,140.615 C288.949,140.615 286.538,138.205 286.538,135.231 C286.538,132.257 288.949,129.846 291.923,129.846 C293.351,129.846 294.721,130.413 295.731,131.423 C296.74,132.433 297.308,133.803 297.308,135.231 Z M265,135.231 C265,138.205 262.589,140.615 259.615,140.615 C256.642,140.615 254.231,138.205 254.231,135.231 C254.231,132.257 256.642,129.846 259.615,129.846 C261.043,129.846 262.413,130.413 263.423,131.423 C264.433,132.433 265,133.803 265,135.231 Z" />
        </g>
        <g id="Regular-S">
            <path d="M491.923,100.231 L471.502,100.231 L456.136,84.864 C455.63,84.36 454.945,84.076 454.231,84.077 L451.538,84.077 C449.808,84.078 448.184,84.91 447.172,86.314 C446.161,87.718 445.886,89.523 446.433,91.164 L449.462,100.231 L441.887,100.231 L434.597,92.941 C434.092,92.437 433.407,92.153 432.692,92.154 L430,92.154 C428.299,92.155 426.698,92.961 425.683,94.327 C424.668,95.692 424.358,97.457 424.848,99.087 L429.583,114.867 C431.266,120.578 436.522,124.489 442.475,124.462 L502.692,124.462 C503.406,124.462 504.091,124.178 504.596,123.673 C505.101,123.168 505.385,122.483 505.385,121.769 L505.385,113.692 C505.385,110.122 503.966,106.698 501.442,104.174 C498.917,101.649 495.493,100.231 491.923,100.231 Z M500,119.077 L442.475,119.077 C438.902,119.096 435.746,116.75 434.735,113.322 L430,97.538 L431.575,97.538 L438.864,104.828 C439.37,105.333 440.055,105.616 440.769,105.615 L453.188,105.615 C454.053,105.615 454.866,105.199 455.372,104.497 C455.878,103.795 456.016,102.893 455.742,102.072 L451.538,89.462 L453.113,89.462 L468.48,104.828 C468.985,105.333 469.67,105.616 470.385,105.615 L491.923,105.615 C494.065,105.615 496.12,106.466 497.634,107.981 C499.149,109.496 500,111.55 500,113.692 Z M497.308,135.231 C497.308,138.205 494.897,140.615 491.923,140.615 C488.949,140.615 486.538,138.205 486.538,135.231 C486.538,132.257 488.949,129.846 491.923,129.846 C493.351,129.846 494.721,130.413 495.731,131.423 C496.74,132.433 497.308,133.803 497.308,135.231 Z M465,135.231 C465,138.205 462.589,140.615 459.615,140.615 C456.642,140.615 454.231,138.205 454.231,135.231 C454.231,132.257 456.642,129.846 459.615,129.846 C461.043,129.846 462.413,130.413 463.423,131.423 C464.433,132.433 465,133.803 465,135.231 Z" />
        </g>
        <g id="Black-S">
            <path d="M691.923,100.231 L671.502,100.231 L656.136,84.864 C655.63,84.36 654.945,84.076 654.231,84.077 L651.538,84.077 C649.808,84.078 648.184,84.91 647.172,86.314 C646.161,87.718 645.886,89.523 646.433,91.164 L649.462,100.231 L641.887,100.231 L634.597,92.941 C634.092,92.437 633.407,92.153 632.692,92.154 L630,92.154 C628.299,92.155 626.698,92.961 625.683,94.327 C624.668,95.692 624.358,97.457 624.848,99.087 L629.583,114.867 C631.266,120.578 636.522,124.489 642.476,124.462 L702.692,124.462 C703.406,124.462 704.091,124.178 704.596,123.673 C705.101,123.168 705.385,122.483 705.385,121.769 L705.385,113.692 C705.385,110.122 703.966,106.698 701.442,104.174 C698.917,101.649 695.493,100.231 691.923,100.231 Z M700,119.077 L642.476,119.077 C638.902,119.096 635.746,116.75 634.735,113.322 L630,97.538 L631.575,97.538 L638.864,104.828 C639.37,105.333 640.055,105.616 640.769,105.615 L653.188,105.615 C654.053,105.615 654.866,105.199 655.372,104.497 C655.878,103.795 656.016,102.893 655.742,102.072 L651.538,89.462 L653.113,89.462 L668.48,104.828 C668.985,105.333 669.67,105.616 670.385,105.615 L691.923,105.615 C694.065,105.615 696.12,106.466 697.634,107.981 C699.149,109.496 700,111.55 700,113.692 Z M697.308,135.231 C697.308,138.205 694.897,140.615 691.923,140.615 C688.949,140.615 686.538,138.205 686.538,135.231 C686.538,132.257 688.949,129.846 691.923,129.846 C693.351,129.846 694.721,130.413 695.731,131.423 C696.74,132.433 697.308,133.803 697.308,135.231 Z M665,135.231 C665,138.205 662.589,140.615 659.615,140.615 C656.642,140.615 654.231,138.205 654.231,135.231 C654.231,132.257 656.642,129.846 659.615,129.846 C661.043,129.846 662.413,130.413 663.423,131.423 C664.433,132.433 665,133.803 665,135.231 Z" />
        </g>
    </g>
</svg>