<?xml version="1.0" encoding="UTF-8"?>
<svg height="600" width="800" xmlns="http://www.w3.org/2000/svg" xmlns:xlink="http://www.w3.org/1999/xlink">
    <g id="Notes" font-family="'LucidaGrande', 'Lucida Grande', sans-serif" font-size="13">
        <rect fill="white" height="600.0" width="800.0" x="0.0" y="0.0" />
        <g font-size="13">
            <text x="18.0" y="176.0">Small</text>
            <text x="18.0" y="376.0">Medium</text>
            <text x="18.0" y="576.0">Large</text>
        </g>
        <g font-size="9">
            <text x="250.0" y="30.0">Ultralight</text>
            <text x="450.0" y="30.0">Regular</text>
            <text x="650.0" y="30.0">Black</text>
            <text id="template-version" fill="#505050" text-anchor="end" x="785.0" y="575.0">Template v.3.0</text>
            <a href="https://github.com/swhitty/SwiftDraw">
                <text fill="#505050" text-anchor="end" x="785.0" y="590.0">https://github.com/swhitty/SwiftDraw</text>
            </a>
        </g>
    </g>
    <g id="Guides" stroke="rgb(39, 170, 225)" stroke-width="0.5">
        <path id="Capline-S" d="M18,76 l800,0" />
        <path id="H-reference" d="M85,145.755 L87.685,145.755 L113.369,79.287 L114.052,79.287 L114.052,76 L112.148,76 L85,145.755 Z M95.693,121.536 L130.996,121.536 L130.263,119.313 L96.474,119.313 L95.693,121.536 Z M139.15,145.755 L141.787,145.755 L114.638,76 L113.466,76 L113.466,79.287 L139.15,145.755 Z" stroke="none" />
        <path id="Baseline-S" d="M18,146 l800,0" />
        <path id="left-margin-Ultralight-S" d="M220,56 l0,110" />
        <path id="right-margin-Ultralight-S" d="M310,56 l0,110" />
        <path id="left-margin-Regular-S" d="M420,56 l0,110" />
        <path id="right-margin-Regular-S" d="M510,56 l0,110" />
        <path id="left-margin-Black-S" d="M620,56 l0,110" />
        <path id="right-margin-Black-S" d="M710,56 l0,110" />
        <path id="Capline-M" d="M18,276 l800,0" />
        <path id="Baseline-M" d="M18,346 l800,0" />
        <path id="Capline-L" d="M18,476 l800,0" />
        <path id="Baseline-L" d="M18,546 l800,0" />
    </g>
    <g id="Symbols">
        <g id="Ultralight-S">
            <path d="M278.462,119.077 C278.462,119.791 278.178,120.476 277.673,120.981 C277.168,121.486 276.483,121.769 275.769,121.769 L254.231,121.769 C252.744,121.769 251.538,120.564 251.538,119.077 C251.538,117.59 252.744,116.385 254.231,116.385 L275.769,116.385 C276.483,116.385 277.168,116.668 277.673,117.173 C278.178,117.678 278.462,118.363 278.462,119.077 Z M275.769,105.615 L254.231,105.615 C252.744,105.615 251.538,106.821 251.538,108.308 C251.538,109.795 252.744,111 254.231,111 L275.769,111 C277.256,111 278.462,109.795 278.462,108.308 C278.462,106.821 277.256,105.615 275.769,105.615 Z M294.615,84.077 L294.615,140.615 C294.615,142.043 294.048,143.413 293.038,144.423 C292.028,145.433 290.659,146 289.231,146 L240.769,146 C239.341,146 237.972,145.433 236.962,144.423 C235.952,143.413 235.385,142.043 235.385,140.615 L235.385,84.077 C235.385,82.649 235.952,81.279 236.962,80.269 C237.972,79.26 239.341,78.692 240.769,78.692 L252.972,78.692 C256.032,75.267 260.407,73.308 265,73.308 C269.593,73.308 273.968,75.267 277.028,78.692 L289.231,78.692 C290.659,78.692 292.028,79.26 293.038,80.269 C294.048,81.279 294.615,82.649 294.615,84.077 Z M254.231,89.462 L275.769,89.462 C275.769,83.514 270.948,78.692 265,78.692 C259.052,78.692 254.231,83.514 254.231,89.462 Z M289.231,84.077 L280.228,84.077 C280.841,85.806 281.154,87.627 281.154,89.462 L281.154,92.154 C281.154,92.868 280.87,93.553 280.365,94.058 C279.86,94.562 279.176,94.846 278.462,94.846 L251.538,94.846 C250.824,94.846 250.14,94.562 249.635,94.058 C249.13,93.553 248.846,92.868 248.846,92.154 L248.846,89.462 C248.846,87.628 249.159,85.807 249.771,84.077 L240.769,84.077 L240.769,140.615 L289.231,140.615 Z" />
        </g>
        <g id="Regular-S">
            <path d="M478.462,119.077 C478.462,119.791 478.178,120.476 477.673,120.981 C477.168,121.486 476.483,121.769 475.769,121.769 L454.231,121.769 C452.744,121.769 451.538,120.564 451.538,119.077 C451.538,117.59 452.744,116.385 454.231,116.385 L475.769,116.385 C476.483,116.385 477.168,116.668 477.673,117.173 C478.178,117.678 478.462,118.363 478.462,119.077 Z M475.769,105.615 L454.231,105.615 C452.744,105.615 451.538,106.821 451.538,108.308 C451.538,109.795 452.744,111 454.231,111 L475.769,111 C477.256,111 478.462,109.795 478.462,108.308 C478.462,106.821 477.256,105.615 475.769,105.615 Z M494.615,84.077 L494.615,140.615 C494.615,142.043 494.048,143.413 493.038,144.423 C492.028,145.433 490.659,146 489.231,146 L440.769,146 C439.341,146 437.972,145.433 436.962,144.423 C435.952,143.413 435.385,142.043 435.385,140.615 L435.385,84.077 C435.385,82.649 435.952,81.279 436.962,80.269 C437.972,79.26 439.341,78.692 440.769,78.692 L452.972,78.692 C456.032,75.267 460.407,73.308 465,73.308 C469.593,73.308 473.968,75.267 477.028,78.692 L489.231,78.692 C490.659,78.692 492.028,79.26 493.038,80.269 C494.048,81.279 494.615,82.649 494.615,84.077 Z M454.231,89.462 L475.769,89.462 C475.769,83.514 470.948,78.692 465,78.692 C459.052,78.692 454.231,83.514 454.231,89.462 Z M489.231,84.077 L480.228,84.077 C480.841,85.806 481.154,87.627 481.154,89.462 L481.154,92.154 C481.154,92.868 480.87,93.553 480.365,94.058 C479.86,94.562 479.176,94.846 478.462,94.846 L451.538,94.846 C450.824,94.846 450.14,94.562 449.635,94.058 C449.13,93.553 448.846,92.868 448.846,92.154 L448.846,89.462 C448.846,87.628 449.159,85.807 449.771,84.077 L440.769,84.077 L440.769,140.615 L489.231,140.615 Z" />
        </g>
        <g id="Black-S">
            <path d="M678.462,119.077 C678.462,119.791 678.178,120.476 677.673,120.981 C677.168,121.486 676.483,121.769 675.769,121.769 L654.231,121.769 C652.744,121.769 651.538,120.564 651.538,119.077 C651.538,117.59 652.744,116.385 654.231,116.385 L675.769,116.385 C676.483,116.385 677.168,116.668 677.673,117.173 C678.178,117.678 678.462,118.363 678.462,119.077 Z M675.769,105.615 L654.231,105.615 C652.744,105.615 651.538,106.821 651.538,108.308 C651.538,109.795 652.744,111 654.231,111 L675.769,111 C677.256,111 678.462,109.795 678.462,108.308 C678.462,106.821 677.256,105.615 675.769,105.615 Z M694.615,84.077 L694.615,140.615 C694.615,142.043 694.048,143.413 693.038,144.423 C692.028,145.433 690.659,146 689.231,146 L640.769,146 C639.341,146 637.972,145.433 636.962,144.423 C635.952,143.413 635.385,142.043 635.385,140.615 L635.385,84.077 C635.385,82.649 635.952,81.279 636.962,80.269 C637.972,79.26 639.341,78.692 640.769,78.692 L652.972,78.692 C656.032,75.267 660.407,73.308 665,73.308 C669.593,73.308 673.968,75.267 677.028,78.692 L689.231,78.692 C690.659,78.692 692.028,79.26 693.038,80.269 C694.048,81.279 694.615,82.649 694.615,84.077 Z M654.231,89.462 L675.769,89.462 C675.769,83.514 670.948,78.692 665,78.692 C659.052,78.692 654.231,83.514 654.231,89.462 Z M689.231,84.077 L680.228,84.077 C680.841,85.806 681.154,87.627 681.154,89.462 L681.154,92.154 C681.154,92.868 680.87,93.553 680.365,94.058 C679.86,94.562 679.176,94.846 678.462,94.846 L651.538,94.846 C650.824,94.846 650.14,94.562 649.635,94.058 C649.13,93.553 648.846,92.868 648.846,92.154 L648.846,89.462 C648.846,87.628 649.159,85.807 649.771,84.077 L640.769,84.077 L640.769,140.615 L689.231,140.615 Z" />
        </g>
    </g>
</svg>