<?xml version="1.0" encoding="UTF-8"?>
<svg height="600" width="800" xmlns="http://www.w3.org/2000/svg" xmlns:xlink="http://www.w3.org/1999/xlink">
    <g id="Notes" font-family="'LucidaGrande', 'Lucida Grande', sans-serif" font-size="13">
        <rect fill="white" height="600.0" width="800.0" x="0.0" y="0.0" />
        <g font-size="13">
            <text x="18.0" y="176.0">Small</text>
            <text x="18.0" y="376.0">Medium</text>
            <text x="18.0" y="576.0">Large</text>
        </g>
        <g font-size="9">
            <text x="250.0" y="30.0">Ultralight</text>
            <text x="450.0" y="30.0">Regular</text>
            <text x="650.0" y="30.0">Black</text>
            <text id="template-version" fill="#505050" text-anchor="end" x="785.0" y="575.0">Template v.3.0</text>
            <a href="https://github.com/swhitty/SwiftDraw">
                <text fill="#505050" text-anchor="end" x="785.0" y="590.0">https://github.com/swhitty/SwiftDraw</text>
            </a>
        </g>
    </g>
    <g id="Guides" stroke="rgb(39, 170, 225)" stroke-width="0.5">
        <path id="Capline-S" d="M18,76 l800,0" />
        <path id="H-reference" d="M85,145.755 L87.685,145.755 L113.369,79.287 L114.052,79.287 L114.052,76 L112.148,76 L85,145.755 Z M95.693,121.536 L130.996,121.536 L130.263,119.313 L96.474,119.313 L95.693,121.536 Z M139.15,145.755 L141.787,145.755 L114.638,76 L113.466,76 L113.466,79.287 L139.15,145.755 Z" stroke="none" />
        <path id="Baseline-S" d="M18,146 l800,0" />
        <path id="left-margin-Ultralight-S" d="M220,56 l0,110" />
        <path id="right-margin-Ultralight-S" d="M310,56 l0,110" />
        <path id="left-margin-Regular-S" d="M420,56 l0,110" />
        <path id="right-margin-Regular-S" d="M510,56 l0,110" />
        <path id="left-margin-Black-S" d="M620,56 l0,110" />
        <path id="right-margin-Black-S" d="M710,56 l0,110" />
        <path id="Capline-M" d="M18,276 l800,0" />
        <path id="Baseline-M" d="M18,346 l800,0" />
        <path id="Capline-L" d="M18,476 l800,0" />
        <path id="Baseline-L" d="M18,546 l800,0" />
    </g>
    <g id="Symbols">
        <g id="Ultralight-S">
            <path d="M265,113.692 L265,135.231 C265,136.718 263.795,137.923 262.308,137.923 C260.821,137.923 259.615,136.718 259.615,135.231 L259.615,120.194 L237.289,142.52 C236.239,143.572 234.533,143.573 233.481,142.521 C232.428,141.47 232.427,139.764 233.479,138.712 L255.806,116.385 L240.769,116.385 C239.282,116.385 238.077,115.179 238.077,113.692 C238.077,112.205 239.282,111 240.769,111 L262.308,111 C263.022,111 263.707,111.284 264.211,111.789 C264.716,112.293 265,112.978 265,113.692 Z M291.923,78.692 L248.846,78.692 C247.418,78.692 246.048,79.26 245.039,80.269 C244.029,81.279 243.462,82.649 243.462,84.077 L243.462,100.231 C243.462,101.718 244.667,102.923 246.154,102.923 C247.641,102.923 248.846,101.718 248.846,100.231 L248.846,84.077 L291.923,84.077 L291.923,127.154 L275.769,127.154 C274.282,127.154 273.077,128.359 273.077,129.846 C273.077,131.333 274.282,132.538 275.769,132.538 L291.923,132.538 C293.351,132.538 294.721,131.971 295.731,130.961 C296.74,129.952 297.308,128.582 297.308,127.154 L297.308,84.077 C297.308,82.649 296.74,81.279 295.731,80.269 C294.721,79.26 293.351,78.692 291.923,78.692 Z" />
        </g>
        <g id="Regular-S">
            <path d="M465,113.692 L465,135.231 C465,136.718 463.795,137.923 462.308,137.923 C460.821,137.923 459.615,136.718 459.615,135.231 L459.615,120.194 L437.289,142.52 C436.239,143.572 434.533,143.573 433.481,142.521 C432.428,141.47 432.427,139.764 433.479,138.712 L455.806,116.385 L440.769,116.385 C439.282,116.385 438.077,115.179 438.077,113.692 C438.077,112.205 439.282,111 440.769,111 L462.308,111 C463.022,111 463.707,111.284 464.211,111.789 C464.716,112.293 465,112.978 465,113.692 Z M491.923,78.692 L448.846,78.692 C447.418,78.692 446.048,79.26 445.039,80.269 C444.029,81.279 443.462,82.649 443.462,84.077 L443.462,100.231 C443.462,101.718 444.667,102.923 446.154,102.923 C447.641,102.923 448.846,101.718 448.846,100.231 L448.846,84.077 L491.923,84.077 L491.923,127.154 L475.769,127.154 C474.282,127.154 473.077,128.359 473.077,129.846 C473.077,131.333 474.282,132.538 475.769,132.538 L491.923,132.538 C493.351,132.538 494.721,131.971 495.731,130.961 C496.74,129.952 497.308,128.582 497.308,127.154 L497.308,84.077 C497.308,82.649 496.74,81.279 495.731,80.269 C494.721,79.26 493.351,78.692 491.923,78.692 Z" />
        </g>
        <g id="Black-S">
            <path d="M665,113.692 L665,135.231 C665,136.718 663.795,137.923 662.308,137.923 C660.821,137.923 659.615,136.718 659.615,135.231 L659.615,120.194 L637.289,142.52 C636.239,143.572 634.533,143.573 633.481,142.521 C632.428,141.47 632.427,139.764 633.479,138.712 L655.806,116.385 L640.769,116.385 C639.282,116.385 638.077,115.179 638.077,113.692 C638.077,112.205 639.282,111 640.769,111 L662.308,111 C663.022,111 663.707,111.284 664.211,111.789 C664.716,112.293 665,112.978 665,113.692 Z M691.923,78.692 L648.846,78.692 C647.418,78.692 646.048,79.26 645.039,80.269 C644.029,81.279 643.462,82.649 643.462,84.077 L643.462,100.231 C643.462,101.718 644.667,102.923 646.154,102.923 C647.641,102.923 648.846,101.718 648.846,100.231 L648.846,84.077 L691.923,84.077 L691.923,127.154 L675.769,127.154 C674.282,127.154 673.077,128.359 673.077,129.846 C673.077,131.333 674.282,132.538 675.769,132.538 L691.923,132.538 C693.351,132.538 694.721,131.971 695.731,130.961 C696.74,129.952 697.308,128.582 697.308,127.154 L697.308,84.077 C697.308,82.649 696.74,81.279 695.731,80.269 C694.721,79.26 693.351,78.692 691.923,78.692 Z" />
        </g>
    </g>
</svg>