<?xml version="1.0" encoding="UTF-8"?>
<svg height="600" width="800" xmlns="http://www.w3.org/2000/svg" xmlns:xlink="http://www.w3.org/1999/xlink">
    <g id="Notes" font-family="'LucidaGrande', 'Lucida Grande', sans-serif" font-size="13">
        <rect fill="white" height="600.0" width="800.0" x="0.0" y="0.0" />
        <g font-size="13">
            <text x="18.0" y="176.0">Small</text>
            <text x="18.0" y="376.0">Medium</text>
            <text x="18.0" y="576.0">Large</text>
        </g>
        <g font-size="9">
            <text x="250.0" y="30.0">Ultralight</text>
            <text x="450.0" y="30.0">Regular</text>
            <text x="650.0" y="30.0">Black</text>
            <text id="template-version" fill="#505050" text-anchor="end" x="785.0" y="575.0">Template v.3.0</text>
            <a href="https://github.com/swhitty/SwiftDraw">
                <text fill="#505050" text-anchor="end" x="785.0" y="590.0">https://github.com/swhitty/SwiftDraw</text>
            </a>
        </g>
    </g>
    <g id="Guides" stroke="rgb(39, 170, 225)" stroke-width="0.5">
        <path id="Capline-S" d="M18,76 l800,0" />
        <path id="H-reference" d="M85,145.755 L87.685,145.755 L113.369,79.287 L114.052,79.287 L114.052,76 L112.148,76 L85,145.755 Z M95.693,121.536 L130.996,121.536 L130.263,119.313 L96.474,119.313 L95.693,121.536 Z M139.15,145.755 L141.787,145.755 L114.638,76 L113.466,76 L113.466,79.287 L139.15,145.755 Z" stroke="none" />
        <path id="Baseline-S" d="M18,146 l800,0" />
        <path id="left-margin-Ultralight-S" d="M220,56 l0,110" />
        <path id="right-margin-Ultralight-S" d="M310,56 l0,110" />
        <path id="left-margin-Regular-S" d="M420,56 l0,110" />
        <path id="right-margin-Regular-S" d="M510,56 l0,110" />
        <path id="left-margin-Black-S" d="M620,56 l0,110" />
        <path id="right-margin-Black-S" d="M710,56 l0,110" />
        <path id="Capline-M" d="M18,276 l800,0" />
        <path id="Baseline-M" d="M18,346 l800,0" />
        <path id="Capline-L" d="M18,476 l800,0" />
        <path id="Baseline-L" d="M18,546 l800,0" />
    </g>
    <g id="Symbols">
        <g id="Ultralight-S">
            <path d="M240.069,79.574 C239.426,78.849 238.442,78.525 237.494,78.728 C236.546,78.93 235.779,79.626 235.488,80.551 C235.196,81.475 235.424,82.486 236.085,83.195 L241.718,89.394 C239.326,93.501 238.069,98.17 238.077,102.923 C238.077,114.816 235.297,123.916 233.429,127.134 C232.458,128.798 232.451,130.855 233.411,132.527 C234.37,134.198 236.15,135.229 238.077,135.231 L251.808,135.231 C253.082,141.505 258.598,146.014 265,146.014 C271.402,146.014 276.918,141.505 278.192,135.231 L283.388,135.231 L289.931,142.426 C290.574,143.151 291.558,143.475 292.506,143.272 C293.454,143.07 294.221,142.374 294.512,141.449 C294.804,140.525 294.576,139.514 293.915,138.805 Z M265,140.615 C261.578,140.614 258.528,138.457 257.388,135.231 L272.612,135.231 C271.472,138.457 268.422,140.614 265,140.615 Z M238.077,129.846 C240.668,125.39 243.462,115.065 243.462,102.923 C243.457,99.705 244.177,96.528 245.569,93.627 L278.492,129.846 Z M293.942,128.254 C293.628,128.376 293.294,128.439 292.956,128.439 C291.85,128.438 290.856,127.76 290.452,126.73 C288.002,120.487 286.538,111.589 286.538,102.923 C286.541,95.258 282.469,88.168 275.845,84.308 C269.222,80.448 261.045,80.399 254.377,84.181 C253.088,84.879 251.477,84.418 250.753,83.143 C250.029,81.868 250.458,80.249 251.718,79.499 C260.053,74.772 270.273,74.831 278.553,79.655 C286.833,84.479 291.925,93.34 291.923,102.923 C291.923,114.82 294.632,122.641 295.463,124.758 C296.007,126.141 295.326,127.704 293.942,128.248 Z" />
        </g>
        <g id="Regular-S">
            <path d="M440.069,79.574 C439.426,78.849 438.442,78.525 437.494,78.728 C436.546,78.93 435.779,79.626 435.488,80.551 C435.196,81.475 435.424,82.486 436.085,83.195 L441.718,89.394 C439.326,93.501 438.069,98.17 438.077,102.923 C438.077,114.816 435.297,123.916 433.429,127.134 C432.458,128.798 432.451,130.855 433.411,132.527 C434.37,134.198 436.15,135.229 438.077,135.231 L451.808,135.231 C453.082,141.505 458.598,146.014 465,146.014 C471.402,146.014 476.918,141.505 478.192,135.231 L483.388,135.231 L489.931,142.426 C490.574,143.151 491.558,143.475 492.506,143.272 C493.454,143.07 494.221,142.374 494.512,141.449 C494.804,140.525 494.576,139.514 493.915,138.805 Z M465,140.615 C461.578,140.614 458.528,138.457 457.387,135.231 L472.612,135.231 C471.472,138.457 468.422,140.614 465,140.615 Z M438.077,129.846 C440.668,125.39 443.462,115.065 443.462,102.923 C443.457,99.705 444.177,96.528 445.569,93.627 L478.492,129.846 Z M493.942,128.254 C493.628,128.376 493.294,128.439 492.956,128.439 C491.85,128.438 490.856,127.76 490.452,126.73 C488.002,120.487 486.538,111.589 486.538,102.923 C486.541,95.258 482.469,88.168 475.845,84.308 C469.222,80.448 461.045,80.399 454.377,84.181 C453.088,84.879 451.477,84.418 450.753,83.143 C450.029,81.868 450.458,80.249 451.718,79.499 C460.053,74.772 470.273,74.831 478.553,79.655 C486.833,84.479 491.925,93.34 491.923,102.923 C491.923,114.82 494.632,122.641 495.463,124.758 C496.007,126.141 495.326,127.704 493.942,128.248 Z" />
        </g>
        <g id="Black-S">
            <path d="M640.069,79.574 C639.426,78.849 638.442,78.525 637.494,78.728 C636.546,78.93 635.779,79.626 635.488,80.551 C635.196,81.475 635.424,82.486 636.085,83.195 L641.718,89.394 C639.326,93.501 638.069,98.17 638.077,102.923 C638.077,114.816 635.297,123.916 633.429,127.134 C632.458,128.798 632.451,130.855 633.411,132.527 C634.37,134.198 636.15,135.229 638.077,135.231 L651.808,135.231 C653.082,141.505 658.598,146.014 665,146.014 C671.402,146.014 676.918,141.505 678.192,135.231 L683.388,135.231 L689.931,142.426 C690.574,143.151 691.558,143.475 692.506,143.272 C693.454,143.07 694.221,142.374 694.512,141.449 C694.804,140.525 694.576,139.514 693.915,138.805 Z M665,140.615 C661.578,140.614 658.528,138.457 657.388,135.231 L672.613,135.231 C671.472,138.457 668.422,140.614 665,140.615 Z M638.077,129.846 C640.668,125.39 643.462,115.065 643.462,102.923 C643.457,99.705 644.177,96.528 645.569,93.627 L678.492,129.846 Z M693.942,128.254 C693.628,128.376 693.294,128.439 692.956,128.439 C691.85,128.438 690.856,127.76 690.452,126.73 C688.002,120.487 686.538,111.589 686.538,102.923 C686.541,95.258 682.469,88.168 675.845,84.308 C669.222,80.448 661.045,80.399 654.377,84.181 C653.088,84.879 651.477,84.418 650.753,83.143 C650.029,81.868 650.458,80.249 651.718,79.499 C660.053,74.772 670.273,74.831 678.553,79.655 C686.833,84.479 691.925,93.34 691.923,102.923 C691.923,114.82 694.632,122.641 695.464,124.758 C696.007,126.141 695.326,127.704 693.942,128.248 Z" />
        </g>
    </g>
</svg>