<?xml version="1.0" encoding="UTF-8"?>
<svg height="600" width="800" xmlns="http://www.w3.org/2000/svg" xmlns:xlink="http://www.w3.org/1999/xlink">
    <g id="Notes" font-family="'LucidaGrande', 'Lucida Grande', sans-serif" font-size="13">
        <rect fill="white" height="600.0" width="800.0" x="0.0" y="0.0" />
        <g font-size="13">
            <text x="18.0" y="176.0">Small</text>
            <text x="18.0" y="376.0">Medium</text>
            <text x="18.0" y="576.0">Large</text>
        </g>
        <g font-size="9">
            <text x="250.0" y="30.0">Ultralight</text>
            <text x="450.0" y="30.0">Regular</text>
            <text x="650.0" y="30.0">Black</text>
            <text id="template-version" fill="#505050" text-anchor="end" x="785.0" y="575.0">Template v.3.0</text>
            <a href="https://github.com/swhitty/SwiftDraw">
                <text fill="#505050" text-anchor="end" x="785.0" y="590.0">https://github.com/swhitty/SwiftDraw</text>
            </a>
        </g>
    </g>
    <g id="Guides" stroke="rgb(39, 170, 225)" stroke-width="0.5">
        <path id="Capline-S" d="M18,76 l800,0" />
        <path id="H-reference" d="M85,145.755 L87.685,145.755 L113.369,79.287 L114.052,79.287 L114.052,76 L112.148,76 L85,145.755 Z M95.693,121.536 L130.996,121.536 L130.263,119.313 L96.474,119.313 L95.693,121.536 Z M139.15,145.755 L141.787,145.755 L114.638,76 L113.466,76 L113.466,79.287 L139.15,145.755 Z" stroke="none" />
        <path id="Baseline-S" d="M18,146 l800,0" />
        <path id="left-margin-Ultralight-S" d="M220,56 l0,110" />
        <path id="right-margin-Ultralight-S" d="M310,56 l0,110" />
        <path id="left-margin-Regular-S" d="M420,56 l0,110" />
        <path id="right-margin-Regular-S" d="M510,56 l0,110" />
        <path id="left-margin-Black-S" d="M620,56 l0,110" />
        <path id="right-margin-Black-S" d="M710,56 l0,110" />
        <path id="Capline-M" d="M18,276 l800,0" />
        <path id="Baseline-M" d="M18,346 l800,0" />
        <path id="Capline-L" d="M18,476 l800,0" />
        <path id="Baseline-L" d="M18,546 l800,0" />
    </g>
    <g id="Symbols">
        <g id="Ultralight-S">
            <path d="M265,94.846 C270.948,94.846 275.769,90.025 275.769,84.077 C275.769,78.129 270.948,73.308 265,73.308 C259.052,73.308 254.231,78.129 254.231,84.077 C254.231,86.933 255.365,89.672 257.385,91.692 C259.405,93.712 262.144,94.846 265,94.846 Z M265,78.692 C267.974,78.692 270.385,81.103 270.385,84.077 C270.385,87.051 267.974,89.462 265,89.462 C262.026,89.462 259.615,87.051 259.615,84.077 C259.615,82.649 260.183,81.279 261.193,80.269 C262.202,79.26 263.572,78.692 265,78.692 Z M297.308,102.923 C297.308,103.637 297.024,104.322 296.519,104.827 C296.014,105.332 295.329,105.615 294.615,105.615 L267.692,105.615 L267.692,114.608 L284.906,121.988 C285.896,122.412 286.538,123.385 286.538,124.462 L286.538,140.615 C286.538,142.102 285.333,143.308 283.846,143.308 C282.359,143.308 281.154,142.102 281.154,140.615 L281.154,126.238 L265.522,119.538 L239.877,142.635 C238.772,143.629 237.069,143.539 236.075,142.433 C235.08,141.327 235.17,139.625 236.276,138.63 L262.308,115.187 L262.308,105.615 L235.385,105.615 C233.898,105.615 232.692,104.41 232.692,102.923 C232.692,101.436 233.898,100.231 235.385,100.231 L294.615,100.231 C295.329,100.231 296.014,100.514 296.519,101.019 C297.024,101.524 297.308,102.209 297.308,102.923 Z" />
        </g>
        <g id="Regular-S">
            <path d="M465,94.846 C470.948,94.846 475.769,90.025 475.769,84.077 C475.769,78.129 470.948,73.308 465,73.308 C459.052,73.308 454.231,78.129 454.231,84.077 C454.231,86.933 455.365,89.672 457.385,91.692 C459.405,93.712 462.144,94.846 465,94.846 Z M465,78.692 C467.974,78.692 470.385,81.103 470.385,84.077 C470.385,87.051 467.974,89.462 465,89.462 C462.026,89.462 459.615,87.051 459.615,84.077 C459.615,82.649 460.183,81.279 461.193,80.269 C462.202,79.26 463.572,78.692 465,78.692 Z M497.308,102.923 C497.308,103.637 497.024,104.322 496.519,104.827 C496.014,105.332 495.329,105.615 494.615,105.615 L467.692,105.615 L467.692,114.608 L484.906,121.988 C485.896,122.412 486.538,123.385 486.538,124.462 L486.538,140.615 C486.538,142.102 485.333,143.308 483.846,143.308 C482.359,143.308 481.154,142.102 481.154,140.615 L481.154,126.238 L465.522,119.538 L439.877,142.635 C438.772,143.629 437.069,143.539 436.075,142.433 C435.08,141.327 435.17,139.625 436.276,138.63 L462.308,115.187 L462.308,105.615 L435.385,105.615 C433.898,105.615 432.692,104.41 432.692,102.923 C432.692,101.436 433.898,100.231 435.385,100.231 L494.615,100.231 C495.329,100.231 496.014,100.514 496.519,101.019 C497.024,101.524 497.308,102.209 497.308,102.923 Z" />
        </g>
        <g id="Black-S">
            <path d="M665,94.846 C670.948,94.846 675.769,90.025 675.769,84.077 C675.769,78.129 670.948,73.308 665,73.308 C659.052,73.308 654.231,78.129 654.231,84.077 C654.231,86.933 655.365,89.672 657.385,91.692 C659.405,93.712 662.144,94.846 665,94.846 Z M665,78.692 C667.974,78.692 670.385,81.103 670.385,84.077 C670.385,87.051 667.974,89.462 665,89.462 C662.026,89.462 659.615,87.051 659.615,84.077 C659.615,82.649 660.183,81.279 661.193,80.269 C662.202,79.26 663.572,78.692 665,78.692 Z M697.308,102.923 C697.308,103.637 697.024,104.322 696.519,104.827 C696.014,105.332 695.329,105.615 694.615,105.615 L667.692,105.615 L667.692,114.608 L684.906,121.988 C685.896,122.412 686.538,123.385 686.538,124.462 L686.538,140.615 C686.538,142.102 685.333,143.308 683.846,143.308 C682.359,143.308 681.154,142.102 681.154,140.615 L681.154,126.238 L665.522,119.538 L639.877,142.635 C638.772,143.629 637.069,143.539 636.075,142.433 C635.08,141.327 635.17,139.625 636.276,138.63 L662.308,115.187 L662.308,105.615 L635.385,105.615 C633.898,105.615 632.692,104.41 632.692,102.923 C632.692,101.436 633.898,100.231 635.385,100.231 L694.615,100.231 C695.329,100.231 696.014,100.514 696.519,101.019 C697.024,101.524 697.308,102.209 697.308,102.923 Z" />
        </g>
    </g>
</svg>