<?xml version="1.0" encoding="UTF-8"?>
<svg height="600" width="800" xmlns="http://www.w3.org/2000/svg" xmlns:xlink="http://www.w3.org/1999/xlink">
    <g id="Notes" font-family="'LucidaGrande', 'Lucida Grande', sans-serif" font-size="13">
        <rect fill="white" height="600.0" width="800.0" x="0.0" y="0.0" />
        <g font-size="13">
            <text x="18.0" y="176.0">Small</text>
            <text x="18.0" y="376.0">Medium</text>
            <text x="18.0" y="576.0">Large</text>
        </g>
        <g font-size="9">
            <text x="250.0" y="30.0">Ultralight</text>
            <text x="450.0" y="30.0">Regular</text>
            <text x="650.0" y="30.0">Black</text>
            <text id="template-version" fill="#505050" text-anchor="end" x="785.0" y="575.0">Template v.3.0</text>
            <a href="https://github.com/swhitty/SwiftDraw">
                <text fill="#505050" text-anchor="end" x="785.0" y="590.0">https://github.com/swhitty/SwiftDraw</text>
            </a>
        </g>
    </g>
    <g id="Guides" stroke="rgb(39, 170, 225)" stroke-width="0.5">
        <path id="Capline-S" d="M18,76 l800,0" />
        <path id="H-reference" d="M85,145.755 L87.685,145.755 L113.369,79.287 L114.052,79.287 L114.052,76 L112.148,76 L85,145.755 Z M95.693,121.536 L130.996,121.536 L130.263,119.313 L96.474,119.313 L95.693,121.536 Z M139.15,145.755 L141.787,145.755 L114.638,76 L113.466,76 L113.466,79.287 L139.15,145.755 Z" stroke="none" />
        <path id="Baseline-S" d="M18,146 l800,0" />
        <path id="left-margin-Ultralight-S" d="M220,56 l0,110" />
        <path id="right-margin-Ultralight-S" d="M310,56 l0,110" />
        <path id="left-margin-Regular-S" d="M420,56 l0,110" />
        <path id="right-margin-Regular-S" d="M510,56 l0,110" />
        <path id="left-margin-Black-S" d="M620,56 l0,110" />
        <path id="right-margin-Black-S" d="M710,56 l0,110" />
        <path id="Capline-M" d="M18,276 l800,0" />
        <path id="Baseline-M" d="M18,346 l800,0" />
        <path id="Capline-L" d="M18,476 l800,0" />
        <path id="Baseline-L" d="M18,546 l800,0" />
    </g>
    <g id="Symbols">
        <g id="Ultralight-S">
            <path d="M291.923,86.769 L282.594,86.769 L278.007,79.89 C277.508,79.142 276.668,78.693 275.769,78.692 L254.231,78.692 C253.332,78.693 252.492,79.142 251.993,79.89 L247.402,86.769 L238.077,86.769 C235.935,86.769 233.88,87.62 232.366,89.135 C230.851,90.65 230,92.704 230,94.846 L230,132.538 C230,134.681 230.851,136.735 232.366,138.25 C233.88,139.764 235.935,140.615 238.077,140.615 L291.923,140.615 C294.065,140.615 296.12,139.764 297.634,138.25 C299.149,136.735 300,134.681 300,132.538 L300,94.846 C300,92.704 299.149,90.65 297.634,89.135 C296.12,87.62 294.065,86.769 291.923,86.769 Z M294.615,132.538 C294.615,133.253 294.332,133.937 293.827,134.442 C293.322,134.947 292.637,135.231 291.923,135.231 L238.077,135.231 C237.363,135.231 236.678,134.947 236.173,134.442 C235.668,133.937 235.385,133.253 235.385,132.538 L235.385,94.846 C235.385,94.132 235.668,93.447 236.173,92.942 C236.678,92.438 237.363,92.154 238.077,92.154 L248.846,92.154 C249.747,92.154 250.588,91.705 251.088,90.956 L255.671,84.077 L274.325,84.077 L278.913,90.956 C279.412,91.705 280.253,92.154 281.154,92.154 L291.923,92.154 C292.637,92.154 293.322,92.438 293.827,92.942 C294.332,93.447 294.615,94.132 294.615,94.846 Z M265,97.538 C256.822,97.538 250.192,104.168 250.192,112.346 C250.192,120.524 256.822,127.154 265,127.154 C273.178,127.154 279.808,120.524 279.808,112.346 C279.799,104.173 273.175,97.548 265.001,97.538 Z M265,121.769 C259.796,121.769 255.577,117.55 255.577,112.346 C255.577,107.142 259.796,102.923 265,102.923 C270.204,102.923 274.423,107.142 274.423,112.346 C274.423,114.845 273.43,117.242 271.663,119.009 C269.896,120.776 267.499,121.769 265,121.769 Z" />
        </g>
        <g id="Regular-S">
            <path d="M491.923,86.769 L482.594,86.769 L478.007,79.89 C477.508,79.142 476.668,78.693 475.769,78.692 L454.231,78.692 C453.331,78.693 452.492,79.142 451.993,79.89 L447.402,86.769 L438.077,86.769 C435.935,86.769 433.88,87.62 432.366,89.135 C430.851,90.65 430,92.704 430,94.846 L430,132.538 C430,134.681 430.851,136.735 432.366,138.25 C433.88,139.764 435.935,140.615 438.077,140.615 L491.923,140.615 C494.065,140.615 496.12,139.764 497.634,138.25 C499.149,136.735 500,134.681 500,132.538 L500,94.846 C500,92.704 499.149,90.65 497.634,89.135 C496.12,87.62 494.065,86.769 491.923,86.769 Z M494.615,132.538 C494.615,133.253 494.332,133.937 493.827,134.442 C493.322,134.947 492.637,135.231 491.923,135.231 L438.077,135.231 C437.363,135.231 436.678,134.947 436.173,134.442 C435.668,133.937 435.385,133.253 435.385,132.538 L435.385,94.846 C435.385,94.132 435.668,93.447 436.173,92.942 C436.678,92.438 437.363,92.154 438.077,92.154 L448.846,92.154 C449.747,92.154 450.588,91.705 451.087,90.956 L455.671,84.077 L474.325,84.077 L478.912,90.956 C479.412,91.705 480.253,92.154 481.154,92.154 L491.923,92.154 C492.637,92.154 493.322,92.438 493.827,92.942 C494.332,93.447 494.615,94.132 494.615,94.846 Z M465,97.538 C456.822,97.538 450.192,104.168 450.192,112.346 C450.192,120.524 456.822,127.154 465,127.154 C473.178,127.154 479.808,120.524 479.808,112.346 C479.799,104.173 473.175,97.548 465.001,97.538 Z M465,121.769 C459.796,121.769 455.577,117.55 455.577,112.346 C455.577,107.142 459.796,102.923 465,102.923 C470.204,102.923 474.423,107.142 474.423,112.346 C474.423,114.845 473.43,117.242 471.663,119.009 C469.896,120.776 467.499,121.769 465,121.769 Z" />
        </g>
        <g id="Black-S">
            <path d="M691.923,86.769 L682.594,86.769 L678.007,79.89 C677.508,79.142 676.669,78.693 675.769,78.692 L654.231,78.692 C653.332,78.693 652.492,79.142 651.993,79.89 L647.402,86.769 L638.077,86.769 C635.935,86.769 633.88,87.62 632.366,89.135 C630.851,90.65 630,92.704 630,94.846 L630,132.538 C630,134.681 630.851,136.735 632.366,138.25 C633.88,139.764 635.935,140.615 638.077,140.615 L691.923,140.615 C694.065,140.615 696.12,139.764 697.634,138.25 C699.149,136.735 700,134.681 700,132.538 L700,94.846 C700,92.704 699.149,90.65 697.634,89.135 C696.12,87.62 694.065,86.769 691.923,86.769 Z M694.615,132.538 C694.615,133.253 694.332,133.937 693.827,134.442 C693.322,134.947 692.637,135.231 691.923,135.231 L638.077,135.231 C637.363,135.231 636.678,134.947 636.173,134.442 C635.668,133.937 635.385,133.253 635.385,132.538 L635.385,94.846 C635.385,94.132 635.668,93.447 636.173,92.942 C636.678,92.438 637.363,92.154 638.077,92.154 L648.846,92.154 C649.747,92.154 650.588,91.705 651.088,90.956 L655.671,84.077 L674.326,84.077 L678.913,90.956 C679.412,91.705 680.253,92.154 681.154,92.154 L691.923,92.154 C692.637,92.154 693.322,92.438 693.827,92.942 C694.332,93.447 694.615,94.132 694.615,94.846 Z M665,97.538 C656.822,97.538 650.192,104.168 650.192,112.346 C650.192,120.524 656.822,127.154 665,127.154 C673.178,127.154 679.808,120.524 679.808,112.346 C679.799,104.173 673.175,97.548 665.001,97.538 Z M665,121.769 C659.796,121.769 655.577,117.55 655.577,112.346 C655.577,107.142 659.796,102.923 665,102.923 C670.204,102.923 674.423,107.142 674.423,112.346 C674.423,114.845 673.43,117.242 671.663,119.009 C669.896,120.776 667.499,121.769 665,121.769 Z" />
        </g>
    </g>
</svg>