<?xml version="1.0" encoding="UTF-8"?>
<svg height="600" width="800" xmlns="http://www.w3.org/2000/svg" xmlns:xlink="http://www.w3.org/1999/xlink">
    <g id="Notes" font-family="'LucidaGrande', 'Lucida Grande', sans-serif" font-size="13">
        <rect fill="white" height="600.0" width="800.0" x="0.0" y="0.0" />
        <g font-size="13">
            <text x="18.0" y="176.0">Small</text>
            <text x="18.0" y="376.0">Medium</text>
            <text x="18.0" y="576.0">Large</text>
        </g>
        <g font-size="9">
            <text x="250.0" y="30.0">Ultralight</text>
            <text x="450.0" y="30.0">Regular</text>
            <text x="650.0" y="30.0">Black</text>
            <text id="template-version" fill="#505050" text-anchor="end" x="785.0" y="575.0">Template v.3.0</text>
            <a href="https://github.com/swhitty/SwiftDraw">
                <text fill="#505050" text-anchor="end" x="785.0" y="590.0">https://github.com/swhitty/SwiftDraw</text>
            </a>
        </g>
    </g>
    <g id="Guides" stroke="rgb(39, 170, 225)" stroke-width="0.5">
        <path id="Capline-S" d="M18,76 l800,0" />
        <path id="H-reference" d="M85,145.755 L87.685,145.755 L113.369,79.287 L114.052,79.287 L114.052,76 L112.148,76 L85,145.755 Z M95.693,121.536 L130.996,121.536 L130.263,119.313 L96.474,119.313 L95.693,121.536 Z M139.15,145.755 L141.787,145.755 L114.638,76 L113.466,76 L113.466,79.287 L139.15,145.755 Z" stroke="none" />
        <path id="Baseline-S" d="M18,146 l800,0" />
        <path id="left-margin-Ultralight-S" d="M220,56 l0,110" />
        <path id="right-margin-Ultralight-S" d="M310,56 l0,110" />
        <path id="left-margin-Regular-S" d="M420,56 l0,110" />
        <path id="right-margin-Regular-S" d="M510,56 l0,110" />
        <path id="left-margin-Black-S" d="M620,56 l0,110" />
        <path id="right-margin-Black-S" d="M710,56 l0,110" />
        <path id="Capline-M" d="M18,276 l800,0" />
        <path id="Baseline-M" d="M18,346 l800,0" />
        <path id="Capline-L" d="M18,476 l800,0" />
        <path id="Baseline-L" d="M18,546 l800,0" />
    </g>
    <g id="Symbols">
        <g id="Ultralight-S">
            <path d="M294.615,113.692 L289.231,113.692 L289.231,108.308 L294.615,108.308 C296.102,108.308 297.308,107.102 297.308,105.615 C297.308,104.128 296.102,102.923 294.615,102.923 L289.231,102.923 L289.231,83.404 C289.231,81.917 288.025,80.712 286.538,80.712 C285.052,80.712 283.846,81.917 283.846,83.404 L283.846,102.923 L262.112,102.923 L245.585,81.748 C244.878,80.841 243.674,80.483 242.586,80.857 C241.499,81.231 240.769,82.254 240.769,83.404 L240.769,102.923 L235.385,102.923 C233.898,102.923 232.692,104.128 232.692,105.615 C232.692,107.102 233.898,108.308 235.385,108.308 L240.769,108.308 L240.769,113.692 L235.385,113.692 C233.898,113.692 232.692,114.898 232.692,116.385 C232.692,117.872 233.898,119.077 235.385,119.077 L240.769,119.077 L240.769,138.596 C240.769,140.083 241.975,141.288 243.462,141.288 C244.948,141.288 246.154,140.083 246.154,138.596 L246.154,119.077 L267.888,119.077 L284.415,140.252 C284.925,140.906 285.709,141.289 286.538,141.288 C286.836,141.289 287.132,141.239 287.413,141.14 C288.5,140.767 289.23,139.745 289.231,138.596 L289.231,119.077 L294.615,119.077 C296.102,119.077 297.308,117.872 297.308,116.385 C297.308,114.898 296.102,113.692 294.615,113.692 Z M283.846,108.308 L283.846,113.692 L270.516,113.692 L266.312,108.308 Z M246.154,91.228 L255.281,102.923 L246.154,102.923 Z M246.154,113.692 L246.154,108.308 L259.484,108.308 L263.688,113.692 Z M283.846,130.772 L274.719,119.077 L283.846,119.077 Z" />
        </g>
        <g id="Regular-S">
            <path d="M494.615,113.692 L489.231,113.692 L489.231,108.308 L494.615,108.308 C496.102,108.308 497.308,107.102 497.308,105.615 C497.308,104.128 496.102,102.923 494.615,102.923 L489.231,102.923 L489.231,83.404 C489.231,81.917 488.025,80.712 486.538,80.712 C485.052,80.712 483.846,81.917 483.846,83.404 L483.846,102.923 L462.112,102.923 L445.585,81.748 C444.878,80.841 443.674,80.483 442.586,80.857 C441.499,81.231 440.769,82.254 440.769,83.404 L440.769,102.923 L435.385,102.923 C433.898,102.923 432.692,104.128 432.692,105.615 C432.692,107.102 433.898,108.308 435.385,108.308 L440.769,108.308 L440.769,113.692 L435.385,113.692 C433.898,113.692 432.692,114.898 432.692,116.385 C432.692,117.872 433.898,119.077 435.385,119.077 L440.769,119.077 L440.769,138.596 C440.769,140.083 441.975,141.288 443.462,141.288 C444.948,141.288 446.154,140.083 446.154,138.596 L446.154,119.077 L467.887,119.077 L484.415,140.252 C484.925,140.906 485.709,141.289 486.538,141.288 C486.836,141.289 487.132,141.239 487.413,141.14 C488.5,140.767 489.23,139.745 489.231,138.596 L489.231,119.077 L494.615,119.077 C496.102,119.077 497.308,117.872 497.308,116.385 C497.308,114.898 496.102,113.692 494.615,113.692 Z M483.846,108.308 L483.846,113.692 L470.516,113.692 L466.312,108.308 Z M446.154,91.228 L455.281,102.923 L446.154,102.923 Z M446.154,113.692 L446.154,108.308 L459.484,108.308 L463.688,113.692 Z M483.846,130.772 L474.719,119.077 L483.846,119.077 Z" />
        </g>
        <g id="Black-S">
            <path d="M694.615,113.692 L689.231,113.692 L689.231,108.308 L694.615,108.308 C696.102,108.308 697.308,107.102 697.308,105.615 C697.308,104.128 696.102,102.923 694.615,102.923 L689.231,102.923 L689.231,83.404 C689.231,81.917 688.025,80.712 686.538,80.712 C685.052,80.712 683.846,81.917 683.846,83.404 L683.846,102.923 L662.113,102.923 L645.585,81.748 C644.878,80.841 643.674,80.483 642.586,80.857 C641.499,81.231 640.769,82.254 640.769,83.404 L640.769,102.923 L635.385,102.923 C633.898,102.923 632.692,104.128 632.692,105.615 C632.692,107.102 633.898,108.308 635.385,108.308 L640.769,108.308 L640.769,113.692 L635.385,113.692 C633.898,113.692 632.692,114.898 632.692,116.385 C632.692,117.872 633.898,119.077 635.385,119.077 L640.769,119.077 L640.769,138.596 C640.769,140.083 641.975,141.288 643.462,141.288 C644.948,141.288 646.154,140.083 646.154,138.596 L646.154,119.077 L667.888,119.077 L684.415,140.252 C684.925,140.906 685.709,141.289 686.538,141.288 C686.836,141.289 687.132,141.239 687.413,141.14 C688.5,140.767 689.23,139.745 689.231,138.596 L689.231,119.077 L694.615,119.077 C696.102,119.077 697.308,117.872 697.308,116.385 C697.308,114.898 696.102,113.692 694.615,113.692 Z M683.846,108.308 L683.846,113.692 L670.516,113.692 L666.312,108.308 Z M646.154,91.228 L655.281,102.923 L646.154,102.923 Z M646.154,113.692 L646.154,108.308 L659.484,108.308 L663.688,113.692 Z M683.846,130.772 L674.719,119.077 L683.846,119.077 Z" />
        </g>
    </g>
</svg>