<?xml version="1.0" encoding="UTF-8"?>
<svg height="600" width="800" xmlns="http://www.w3.org/2000/svg" xmlns:xlink="http://www.w3.org/1999/xlink">
    <g id="Notes" font-family="'LucidaGrande', 'Lucida Grande', sans-serif" font-size="13">
        <rect fill="white" height="600.0" width="800.0" x="0.0" y="0.0" />
        <g font-size="13">
            <text x="18.0" y="176.0">Small</text>
            <text x="18.0" y="376.0">Medium</text>
            <text x="18.0" y="576.0">Large</text>
        </g>
        <g font-size="9">
            <text x="250.0" y="30.0">Ultralight</text>
            <text x="450.0" y="30.0">Regular</text>
            <text x="650.0" y="30.0">Black</text>
            <text id="template-version" fill="#505050" text-anchor="end" x="785.0" y="575.0">Template v.3.0</text>
            <a href="https://github.com/swhitty/SwiftDraw">
                <text fill="#505050" text-anchor="end" x="785.0" y="590.0">https://github.com/swhitty/SwiftDraw</text>
            </a>
        </g>
    </g>
    <g id="Guides" stroke="rgb(39, 170, 225)" stroke-width="0.5">
        <path id="Capline-S" d="M18,76 l800,0" />
        <path id="H-reference" d="M85,145.755 L87.685,145.755 L113.369,79.287 L114.052,79.287 L114.052,76 L112.148,76 L85,145.755 Z M95.693,121.536 L130.996,121.536 L130.263,119.313 L96.474,119.313 L95.693,121.536 Z M139.15,145.755 L141.787,145.755 L114.638,76 L113.466,76 L113.466,79.287 L139.15,145.755 Z" stroke="none" />
        <path id="Baseline-S" d="M18,146 l800,0" />
        <path id="left-margin-Ultralight-S" d="M220,56 l0,110" />
        <path id="right-margin-Ultralight-S" d="M310,56 l0,110" />
        <path id="left-margin-Regular-S" d="M420,56 l0,110" />
        <path id="right-margin-Regular-S" d="M510,56 l0,110" />
        <path id="left-margin-Black-S" d="M620,56 l0,110" />
        <path id="right-margin-Black-S" d="M710,56 l0,110" />
        <path id="Capline-M" d="M18,276 l800,0" />
        <path id="Baseline-M" d="M18,346 l800,0" />
        <path id="Capline-L" d="M18,476 l800,0" />
        <path id="Baseline-L" d="M18,546 l800,0" />
    </g>
    <g id="Symbols">
        <g id="Ultralight-S">
            <path d="M301.481,91.7 L265.74,81.489 C265.376,81.385 264.995,81.358 264.62,81.412 L229.239,86.466 C226.592,86.856 224.627,89.121 224.615,91.797 L224.615,130.203 C224.627,132.879 226.592,135.144 229.239,135.534 L264.62,140.582 C264.746,140.601 264.873,140.613 265,140.615 C265.25,140.616 265.5,140.581 265.74,140.511 L301.481,130.3 C303.783,129.634 305.372,127.531 305.385,125.135 L305.385,96.865 C305.372,94.469 303.783,92.366 301.481,91.7 Z M254.231,108.308 L248.846,108.308 L248.846,89.105 L262.308,87.18 L262.308,134.82 L248.846,132.895 L248.846,113.692 L254.231,113.692 C255.718,113.692 256.923,112.487 256.923,111 C256.923,109.513 255.718,108.308 254.231,108.308 Z M230,91.797 L243.462,89.872 L243.462,108.308 L238.077,108.308 C236.59,108.308 235.385,109.513 235.385,111 C235.385,112.487 236.59,113.692 238.077,113.692 L243.462,113.692 L243.462,132.128 L230,130.203 Z M267.692,134.352 L267.692,87.648 L300,96.865 L300,125.135 Z" />
        </g>
        <g id="Regular-S">
            <path d="M501.481,91.7 L465.74,81.489 C465.376,81.385 464.995,81.358 464.62,81.412 L429.239,86.466 C426.592,86.856 424.627,89.121 424.615,91.797 L424.615,130.203 C424.627,132.879 426.592,135.144 429.239,135.534 L464.62,140.582 C464.746,140.601 464.873,140.613 465,140.615 C465.25,140.616 465.5,140.581 465.74,140.511 L501.481,130.3 C503.783,129.634 505.372,127.531 505.385,125.135 L505.385,96.865 C505.372,94.469 503.783,92.366 501.481,91.7 Z M454.231,108.308 L448.846,108.308 L448.846,89.105 L462.308,87.18 L462.308,134.82 L448.846,132.895 L448.846,113.692 L454.231,113.692 C455.718,113.692 456.923,112.487 456.923,111 C456.923,109.513 455.718,108.308 454.231,108.308 Z M430,91.797 L443.462,89.872 L443.462,108.308 L438.077,108.308 C436.59,108.308 435.385,109.513 435.385,111 C435.385,112.487 436.59,113.692 438.077,113.692 L443.462,113.692 L443.462,132.128 L430,130.203 Z M467.692,134.352 L467.692,87.648 L500,96.865 L500,125.135 Z" />
        </g>
        <g id="Black-S">
            <path d="M701.481,91.7 L665.74,81.489 C665.376,81.385 664.995,81.358 664.62,81.412 L629.239,86.466 C626.592,86.856 624.627,89.121 624.615,91.797 L624.615,130.203 C624.627,132.879 626.592,135.144 629.239,135.534 L664.62,140.582 C664.746,140.601 664.873,140.613 665,140.615 C665.25,140.616 665.5,140.581 665.74,140.511 L701.481,130.3 C703.783,129.634 705.372,127.531 705.385,125.135 L705.385,96.865 C705.372,94.469 703.783,92.366 701.481,91.7 Z M654.231,108.308 L648.846,108.308 L648.846,89.105 L662.308,87.18 L662.308,134.82 L648.846,132.895 L648.846,113.692 L654.231,113.692 C655.718,113.692 656.923,112.487 656.923,111 C656.923,109.513 655.718,108.308 654.231,108.308 Z M630,91.797 L643.462,89.872 L643.462,108.308 L638.077,108.308 C636.59,108.308 635.385,109.513 635.385,111 C635.385,112.487 636.59,113.692 638.077,113.692 L643.462,113.692 L643.462,132.128 L630,130.203 Z M667.692,134.352 L667.692,87.648 L700,96.865 L700,125.135 Z" />
        </g>
    </g>
</svg>