<?xml version="1.0" encoding="UTF-8"?>
<svg height="600" width="800" xmlns="http://www.w3.org/2000/svg" xmlns:xlink="http://www.w3.org/1999/xlink">
    <g id="Notes" font-family="'LucidaGrande', 'Lucida Grande', sans-serif" font-size="13">
        <rect fill="white" height="600.0" width="800.0" x="0.0" y="0.0" />
        <g font-size="13">
            <text x="18.0" y="176.0">Small</text>
            <text x="18.0" y="376.0">Medium</text>
            <text x="18.0" y="576.0">Large</text>
        </g>
        <g font-size="9">
            <text x="250.0" y="30.0">Ultralight</text>
            <text x="450.0" y="30.0">Regular</text>
            <text x="650.0" y="30.0">Black</text>
            <text id="template-version" fill="#505050" text-anchor="end" x="785.0" y="575.0">Template v.3.0</text>
            <a href="https://github.com/swhitty/SwiftDraw">
                <text fill="#505050" text-anchor="end" x="785.0" y="590.0">https://github.com/swhitty/SwiftDraw</text>
            </a>
        </g>
    </g>
    <g id="Guides" stroke="rgb(39, 170, 225)" stroke-width="0.5">
        <path id="Capline-S" d="M18,76 l800,0" />
        <path id="H-reference" d="M85,145.755 L87.685,145.755 L113.369,79.287 L114.052,79.287 L114.052,76 L112.148,76 L85,145.755 Z M95.693,121.536 L130.996,121.536 L130.263,119.313 L96.474,119.313 L95.693,121.536 Z M139.15,145.755 L141.787,145.755 L114.638,76 L113.466,76 L113.466,79.287 L139.15,145.755 Z" stroke="none" />
        <path id="Baseline-S" d="M18,146 l800,0" />
        <path id="left-margin-Ultralight-S" d="M220,56 l0,110" />
        <path id="right-margin-Ultralight-S" d="M310,56 l0,110" />
        <path id="left-margin-Regular-S" d="M420,56 l0,110" />
        <path id="right-margin-Regular-S" d="M510,56 l0,110" />
        <path id="left-margin-Black-S" d="M620,56 l0,110" />
        <path id="right-margin-Black-S" d="M710,56 l0,110" />
        <path id="Capline-M" d="M18,276 l800,0" />
        <path id="Baseline-M" d="M18,346 l800,0" />
        <path id="Capline-L" d="M18,476 l800,0" />
        <path id="Baseline-L" d="M18,546 l800,0" />
    </g>
    <g id="Symbols">
        <g id="Ultralight-S">
            <path d="M291.923,78.692 L275.769,78.692 C274.341,78.692 272.972,79.26 271.962,80.269 C270.952,81.279 270.385,82.649 270.385,84.077 L270.385,137.923 C270.385,139.351 270.952,140.721 271.962,141.731 C272.972,142.74 274.341,143.308 275.769,143.308 L291.923,143.308 C293.351,143.308 294.721,142.74 295.731,141.731 C296.74,140.721 297.308,139.351 297.308,137.923 L297.308,84.077 C297.308,82.649 296.74,81.279 295.731,80.269 C294.721,79.26 293.351,78.692 291.923,78.692 Z M291.923,137.923 L275.769,137.923 L275.769,127.154 L283.846,127.154 C285.333,127.154 286.538,125.948 286.538,124.462 C286.538,122.975 285.333,121.769 283.846,121.769 L275.769,121.769 L275.769,113.692 L283.846,113.692 C285.333,113.692 286.538,112.487 286.538,111 C286.538,109.513 285.333,108.308 283.846,108.308 L275.769,108.308 L275.769,100.231 L283.846,100.231 C285.333,100.231 286.538,99.025 286.538,97.538 C286.538,96.052 285.333,94.846 283.846,94.846 L275.769,94.846 L275.769,84.077 L291.923,84.077 L291.923,137.923 Z M248.059,76.788 C247.554,76.282 246.868,75.998 246.154,75.998 C245.439,75.998 244.754,76.282 244.249,76.788 L233.48,87.557 C232.975,88.062 232.692,88.747 232.692,89.462 L232.692,137.923 C232.692,139.351 233.26,140.721 234.269,141.731 C235.279,142.74 236.649,143.308 238.077,143.308 L254.231,143.308 C255.659,143.308 257.028,142.74 258.038,141.731 C259.048,140.721 259.615,139.351 259.615,137.923 L259.615,89.462 C259.616,88.747 259.333,88.062 258.828,87.557 Z M238.077,127.154 L238.077,94.846 L243.462,94.846 L243.462,127.154 Z M248.846,94.846 L254.231,94.846 L254.231,127.154 L248.846,127.154 Z M246.154,82.499 L253.117,89.462 L239.191,89.462 Z M238.077,137.923 L238.077,132.538 L254.231,132.538 L254.231,137.923 Z" />
        </g>
        <g id="Regular-S">
            <path d="M491.923,78.692 L475.769,78.692 C474.341,78.692 472.972,79.26 471.962,80.269 C470.952,81.279 470.385,82.649 470.385,84.077 L470.385,137.923 C470.385,139.351 470.952,140.721 471.962,141.731 C472.972,142.74 474.341,143.308 475.769,143.308 L491.923,143.308 C493.351,143.308 494.721,142.74 495.731,141.731 C496.74,140.721 497.308,139.351 497.308,137.923 L497.308,84.077 C497.308,82.649 496.74,81.279 495.731,80.269 C494.721,79.26 493.351,78.692 491.923,78.692 Z M491.923,137.923 L475.769,137.923 L475.769,127.154 L483.846,127.154 C485.333,127.154 486.538,125.948 486.538,124.462 C486.538,122.975 485.333,121.769 483.846,121.769 L475.769,121.769 L475.769,113.692 L483.846,113.692 C485.333,113.692 486.538,112.487 486.538,111 C486.538,109.513 485.333,108.308 483.846,108.308 L475.769,108.308 L475.769,100.231 L483.846,100.231 C485.333,100.231 486.538,99.025 486.538,97.538 C486.538,96.052 485.333,94.846 483.846,94.846 L475.769,94.846 L475.769,84.077 L491.923,84.077 L491.923,137.923 Z M448.059,76.788 C447.554,76.282 446.868,75.998 446.154,75.998 C445.439,75.998 444.754,76.282 444.249,76.788 L433.48,87.557 C432.975,88.062 432.692,88.747 432.692,89.462 L432.692,137.923 C432.692,139.351 433.26,140.721 434.269,141.731 C435.279,142.74 436.649,143.308 438.077,143.308 L454.231,143.308 C455.659,143.308 457.028,142.74 458.038,141.731 C459.048,140.721 459.615,139.351 459.615,137.923 L459.615,89.462 C459.616,88.747 459.333,88.062 458.828,87.557 Z M438.077,127.154 L438.077,94.846 L443.462,94.846 L443.462,127.154 Z M448.846,94.846 L454.231,94.846 L454.231,127.154 L448.846,127.154 Z M446.154,82.499 L453.117,89.462 L439.191,89.462 Z M438.077,137.923 L438.077,132.538 L454.231,132.538 L454.231,137.923 Z" />
        </g>
        <g id="Black-S">
            <path d="M691.923,78.692 L675.769,78.692 C674.341,78.692 672.972,79.26 671.962,80.269 C670.952,81.279 670.385,82.649 670.385,84.077 L670.385,137.923 C670.385,139.351 670.952,140.721 671.962,141.731 C672.972,142.74 674.341,143.308 675.769,143.308 L691.923,143.308 C693.351,143.308 694.721,142.74 695.731,141.731 C696.74,140.721 697.308,139.351 697.308,137.923 L697.308,84.077 C697.308,82.649 696.74,81.279 695.731,80.269 C694.721,79.26 693.351,78.692 691.923,78.692 Z M691.923,137.923 L675.769,137.923 L675.769,127.154 L683.846,127.154 C685.333,127.154 686.538,125.948 686.538,124.462 C686.538,122.975 685.333,121.769 683.846,121.769 L675.769,121.769 L675.769,113.692 L683.846,113.692 C685.333,113.692 686.538,112.487 686.538,111 C686.538,109.513 685.333,108.308 683.846,108.308 L675.769,108.308 L675.769,100.231 L683.846,100.231 C685.333,100.231 686.538,99.025 686.538,97.538 C686.538,96.052 685.333,94.846 683.846,94.846 L675.769,94.846 L675.769,84.077 L691.923,84.077 L691.923,137.923 Z M648.059,76.788 C647.554,76.282 646.868,75.998 646.154,75.998 C645.439,75.998 644.754,76.282 644.249,76.788 L633.48,87.557 C632.975,88.062 632.692,88.747 632.692,89.462 L632.692,137.923 C632.692,139.351 633.26,140.721 634.269,141.731 C635.279,142.74 636.649,143.308 638.077,143.308 L654.231,143.308 C655.659,143.308 657.028,142.74 658.038,141.731 C659.048,140.721 659.615,139.351 659.615,137.923 L659.615,89.462 C659.616,88.747 659.333,88.062 658.828,87.557 Z M638.077,127.154 L638.077,94.846 L643.462,94.846 L643.462,127.154 Z M648.846,94.846 L654.231,94.846 L654.231,127.154 L648.846,127.154 Z M646.154,82.499 L653.117,89.462 L639.191,89.462 Z M638.077,137.923 L638.077,132.538 L654.231,132.538 L654.231,137.923 Z" />
        </g>
    </g>
</svg>