<?xml version="1.0" encoding="UTF-8"?>
<svg height="600" width="800" xmlns="http://www.w3.org/2000/svg" xmlns:xlink="http://www.w3.org/1999/xlink">
    <g id="Notes" font-family="'LucidaGrande', 'Lucida Grande', sans-serif" font-size="13">
        <rect fill="white" height="600.0" width="800.0" x="0.0" y="0.0" />
        <g font-size="13">
            <text x="18.0" y="176.0">Small</text>
            <text x="18.0" y="376.0">Medium</text>
            <text x="18.0" y="576.0">Large</text>
        </g>
        <g font-size="9">
            <text x="250.0" y="30.0">Ultralight</text>
            <text x="450.0" y="30.0">Regular</text>
            <text x="650.0" y="30.0">Black</text>
            <text id="template-version" fill="#505050" text-anchor="end" x="785.0" y="575.0">Template v.3.0</text>
            <a href="https://github.com/swhitty/SwiftDraw">
                <text fill="#505050" text-anchor="end" x="785.0" y="590.0">https://github.com/swhitty/SwiftDraw</text>
            </a>
        </g>
    </g>
    <g id="Guides" stroke="rgb(39, 170, 225)" stroke-width="0.5">
        <path id="Capline-S" d="M18,76 l800,0" />
        <path id="H-reference" d="M85,145.755 L87.685,145.755 L113.369,79.287 L114.052,79.287 L114.052,76 L112.148,76 L85,145.755 Z M95.693,121.536 L130.996,121.536 L130.263,119.313 L96.474,119.313 L95.693,121.536 Z M139.15,145.755 L141.787,145.755 L114.638,76 L113.466,76 L113.466,79.287 L139.15,145.755 Z" stroke="none" />
        <path id="Baseline-S" d="M18,146 l800,0" />
        <path id="left-margin-Ultralight-S" d="M220,56 l0,110" />
        <path id="right-margin-Ultralight-S" d="M310,56 l0,110" />
        <path id="left-margin-Regular-S" d="M420,56 l0,110" />
        <path id="right-margin-Regular-S" d="M510,56 l0,110" />
        <path id="left-margin-Black-S" d="M620,56 l0,110" />
        <path id="right-margin-Black-S" d="M710,56 l0,110" />
        <path id="Capline-M" d="M18,276 l800,0" />
        <path id="Baseline-M" d="M18,346 l800,0" />
        <path id="Capline-L" d="M18,476 l800,0" />
        <path id="Baseline-L" d="M18,546 l800,0" />
    </g>
    <g id="Symbols">
        <g id="Ultralight-S">
            <path d="M299.159,105.952 L277.809,98.191 L270.048,76.841 C269.265,74.731 267.251,73.33 265,73.33 C262.749,73.33 260.735,74.731 259.952,76.841 L252.191,98.191 L230.841,105.952 C228.731,106.735 227.331,108.749 227.331,111 C227.331,113.251 228.731,115.265 230.841,116.048 L252.191,123.812 L259.952,145.159 C260.735,147.269 262.749,148.67 265,148.67 C267.251,148.67 269.265,147.269 270.048,145.159 L277.812,123.809 L299.159,116.048 C301.269,115.265 302.669,113.251 302.669,111 C302.669,108.749 301.269,106.735 299.159,105.952 Z M274.787,119.178 C274.039,119.45 273.45,120.039 273.178,120.787 L265,143.274 L256.822,120.787 C256.55,120.039 255.961,119.45 255.213,119.178 L232.726,111 L255.213,102.822 C255.961,102.55 256.55,101.961 256.822,101.213 L265,78.726 L273.178,101.213 C273.45,101.961 274.039,102.55 274.787,102.822 L297.274,111 Z" />
        </g>
        <g id="Regular-S">
            <path d="M499.159,105.952 L477.809,98.191 L470.048,76.841 C469.265,74.731 467.251,73.33 465,73.33 C462.749,73.33 460.735,74.731 459.952,76.841 L452.191,98.191 L430.841,105.952 C428.731,106.735 427.33,108.749 427.33,111 C427.33,113.251 428.731,115.265 430.841,116.048 L452.191,123.812 L459.952,145.159 C460.735,147.269 462.749,148.67 465,148.67 C467.251,148.67 469.265,147.269 470.048,145.159 L477.812,123.809 L499.159,116.048 C501.269,115.265 502.669,113.251 502.669,111 C502.669,108.749 501.269,106.735 499.159,105.952 Z M474.787,119.178 C474.039,119.45 473.45,120.039 473.178,120.787 L465,143.274 L456.822,120.787 C456.55,120.039 455.961,119.45 455.213,119.178 L432.726,111 L455.213,102.822 C455.961,102.55 456.55,101.961 456.822,101.213 L465,78.726 L473.178,101.213 C473.45,101.961 474.039,102.55 474.787,102.822 L497.274,111 Z" />
        </g>
        <g id="Black-S">
            <path d="M699.159,105.952 L677.809,98.191 L670.048,76.841 C669.265,74.731 667.251,73.33 665,73.33 C662.749,73.33 660.735,74.731 659.952,76.841 L652.191,98.191 L630.841,105.952 C628.731,106.735 627.331,108.749 627.331,111 C627.331,113.251 628.731,115.265 630.841,116.048 L652.191,123.812 L659.952,145.159 C660.735,147.269 662.749,148.67 665,148.67 C667.251,148.67 669.265,147.269 670.048,145.159 L677.812,123.809 L699.159,116.048 C701.269,115.265 702.67,113.251 702.67,111 C702.67,108.749 701.269,106.735 699.159,105.952 Z M674.787,119.178 C674.039,119.45 673.45,120.039 673.178,120.787 L665,143.274 L656.822,120.787 C656.55,120.039 655.961,119.45 655.214,119.178 L632.726,111 L655.214,102.822 C655.961,102.55 656.55,101.961 656.822,101.213 L665,78.726 L673.178,101.213 C673.45,101.961 674.039,102.55 674.787,102.822 L697.274,111 Z" />
        </g>
    </g>
</svg>