<?xml version="1.0" encoding="UTF-8"?>
<svg height="600" width="800" xmlns="http://www.w3.org/2000/svg" xmlns:xlink="http://www.w3.org/1999/xlink">
    <g id="Notes" font-family="'LucidaGrande', 'Lucida Grande', sans-serif" font-size="13">
        <rect fill="white" height="600.0" width="800.0" x="0.0" y="0.0" />
        <g font-size="13">
            <text x="18.0" y="176.0">Small</text>
            <text x="18.0" y="376.0">Medium</text>
            <text x="18.0" y="576.0">Large</text>
        </g>
        <g font-size="9">
            <text x="250.0" y="30.0">Ultralight</text>
            <text x="450.0" y="30.0">Regular</text>
            <text x="650.0" y="30.0">Black</text>
            <text id="template-version" fill="#505050" text-anchor="end" x="785.0" y="575.0">Template v.3.0</text>
            <a href="https://github.com/swhitty/SwiftDraw">
                <text fill="#505050" text-anchor="end" x="785.0" y="590.0">https://github.com/swhitty/SwiftDraw</text>
            </a>
        </g>
    </g>
    <g id="Guides" stroke="rgb(39, 170, 225)" stroke-width="0.5">
        <path id="Capline-S" d="M18,76 l800,0" />
        <path id="H-reference" d="M85,145.755 L87.685,145.755 L113.369,79.287 L114.052,79.287 L114.052,76 L112.148,76 L85,145.755 Z M95.693,121.536 L130.996,121.536 L130.263,119.313 L96.474,119.313 L95.693,121.536 Z M139.15,145.755 L141.787,145.755 L114.638,76 L113.466,76 L113.466,79.287 L139.15,145.755 Z" stroke="none" />
        <path id="Baseline-S" d="M18,146 l800,0" />
        <path id="left-margin-Ultralight-S" d="M220,56 l0,110" />
        <path id="right-margin-Ultralight-S" d="M310,56 l0,110" />
        <path id="left-margin-Regular-S" d="M420,56 l0,110" />
        <path id="right-margin-Regular-S" d="M510,56 l0,110" />
        <path id="left-margin-Black-S" d="M620,56 l0,110" />
        <path id="right-margin-Black-S" d="M710,56 l0,110" />
        <path id="Capline-M" d="M18,276 l800,0" />
        <path id="Baseline-M" d="M18,346 l800,0" />
        <path id="Capline-L" d="M18,476 l800,0" />
        <path id="Baseline-L" d="M18,546 l800,0" />
    </g>
    <g id="Symbols">
        <g id="Ultralight-S">
            <path d="M254.231,115.038 C254.231,117.269 252.423,119.077 250.192,119.077 C247.962,119.077 246.154,117.269 246.154,115.038 C246.154,112.808 247.962,111 250.192,111 C251.263,111 252.291,111.425 253.048,112.183 C253.805,112.94 254.231,113.967 254.231,115.038 Z M279.808,111 C277.577,111 275.769,112.808 275.769,115.038 C275.769,117.269 277.577,119.077 279.808,119.077 C282.038,119.077 283.846,117.269 283.846,115.038 C283.846,113.967 283.421,112.94 282.663,112.183 C281.906,111.425 280.879,111 279.808,111 Z M300,84.077 L300,113.692 C300,131.505 284.3,146 265,146 C245.7,146 230,131.505 230,113.692 L230,84.077 C230.001,81.9 231.313,79.937 233.324,79.104 C235.336,78.272 237.651,78.732 239.191,80.271 C239.238,80.318 239.278,80.362 239.319,80.409 L245.144,87.106 C257.298,79.491 272.735,79.491 284.889,87.106 L290.681,80.409 C290.722,80.362 290.762,80.318 290.809,80.271 C292.349,78.732 294.664,78.272 296.676,79.105 C298.687,79.938 299.999,81.9 300,84.077 Z M294.615,84.077 L287.36,92.423 C286.439,93.488 284.853,93.664 283.722,92.827 C282.079,91.612 280.317,90.569 278.462,89.714 L278.462,97.538 C278.462,99.025 277.256,100.231 275.769,100.231 C274.282,100.231 273.077,99.025 273.077,97.538 L273.077,87.796 C271.311,87.341 269.51,87.035 267.692,86.88 L267.692,97.538 C267.692,99.025 266.487,100.231 265,100.231 C263.513,100.231 262.308,99.025 262.308,97.538 L262.308,86.88 C260.49,87.035 258.689,87.341 256.923,87.796 L256.923,97.538 C256.923,99.025 255.718,100.231 254.231,100.231 C252.744,100.231 251.538,99.025 251.538,97.538 L251.538,89.714 C249.683,90.569 247.921,91.612 246.278,92.827 C245.149,93.667 243.564,93.495 242.64,92.433 L235.385,84.077 L235.385,113.692 C235.385,127.713 247.234,139.269 262.308,140.504 L262.308,133.652 L257.711,129.055 C256.659,128.003 256.66,126.298 257.712,125.247 C258.765,124.196 260.469,124.197 261.52,125.249 L265,128.729 L268.48,125.249 C269.531,124.197 271.235,124.196 272.288,125.247 C273.34,126.298 273.341,128.003 272.29,129.055 L267.692,133.652 L267.692,140.504 C282.766,139.263 294.615,127.716 294.615,113.692 Z" />
        </g>
        <g id="Regular-S">
            <path d="M454.231,115.038 C454.231,117.269 452.423,119.077 450.192,119.077 C447.962,119.077 446.154,117.269 446.154,115.038 C446.154,112.808 447.962,111 450.192,111 C451.263,111 452.291,111.425 453.048,112.183 C453.805,112.94 454.231,113.967 454.231,115.038 Z M479.808,111 C477.577,111 475.769,112.808 475.769,115.038 C475.769,117.269 477.577,119.077 479.808,119.077 C482.038,119.077 483.846,117.269 483.846,115.038 C483.846,113.967 483.421,112.94 482.663,112.183 C481.906,111.425 480.879,111 479.808,111 Z M500,84.077 L500,113.692 C500,131.505 484.3,146 465,146 C445.699,146 430,131.505 430,113.692 L430,84.077 C430.001,81.9 431.313,79.937 433.324,79.104 C435.336,78.272 437.651,78.732 439.191,80.271 C439.238,80.318 439.278,80.362 439.319,80.409 L445.144,87.106 C457.298,79.491 472.735,79.491 484.889,87.106 L490.681,80.409 C490.722,80.362 490.762,80.318 490.809,80.271 C492.349,78.732 494.664,78.272 496.676,79.105 C498.687,79.938 499.999,81.9 500,84.077 Z M494.615,84.077 L487.36,92.423 C486.439,93.488 484.853,93.664 483.722,92.827 C482.079,91.612 480.317,90.569 478.462,89.714 L478.462,97.538 C478.462,99.025 477.256,100.231 475.769,100.231 C474.282,100.231 473.077,99.025 473.077,97.538 L473.077,87.796 C471.311,87.341 469.509,87.035 467.692,86.88 L467.692,97.538 C467.692,99.025 466.487,100.231 465,100.231 C463.513,100.231 462.308,99.025 462.308,97.538 L462.308,86.88 C460.49,87.035 458.689,87.341 456.923,87.796 L456.923,97.538 C456.923,99.025 455.718,100.231 454.231,100.231 C452.744,100.231 451.538,99.025 451.538,97.538 L451.538,89.714 C449.683,90.569 447.921,91.612 446.278,92.827 C445.149,93.667 443.564,93.495 442.64,92.433 L435.385,84.077 L435.385,113.692 C435.385,127.713 447.234,139.269 462.308,140.504 L462.308,133.652 L457.711,129.055 C456.659,128.003 456.66,126.298 457.712,125.247 C458.765,124.196 460.469,124.197 461.52,125.249 L465,128.729 L468.48,125.249 C469.531,124.197 471.235,124.196 472.288,125.247 C473.34,126.298 473.341,128.003 472.29,129.055 L467.692,133.652 L467.692,140.504 C482.766,139.263 494.615,127.716 494.615,113.692 Z" />
        </g>
        <g id="Black-S">
            <path d="M654.231,115.038 C654.231,117.269 652.423,119.077 650.192,119.077 C647.962,119.077 646.154,117.269 646.154,115.038 C646.154,112.808 647.962,111 650.192,111 C651.263,111 652.291,111.425 653.048,112.183 C653.805,112.94 654.231,113.967 654.231,115.038 Z M679.808,111 C677.577,111 675.769,112.808 675.769,115.038 C675.769,117.269 677.577,119.077 679.808,119.077 C682.038,119.077 683.846,117.269 683.846,115.038 C683.846,113.967 683.421,112.94 682.663,112.183 C681.906,111.425 680.879,111 679.808,111 Z M700,84.077 L700,113.692 C700,131.505 684.3,146 665,146 C645.7,146 630,131.505 630,113.692 L630,84.077 C630.001,81.9 631.313,79.937 633.324,79.104 C635.336,78.272 637.651,78.732 639.191,80.271 C639.238,80.318 639.279,80.362 639.319,80.409 L645.144,87.106 C657.298,79.491 672.735,79.491 684.889,87.106 L690.681,80.409 C690.722,80.362 690.762,80.318 690.809,80.271 C692.349,78.732 694.664,78.272 696.676,79.105 C698.687,79.938 699.999,81.9 700,84.077 Z M694.615,84.077 L687.36,92.423 C686.439,93.488 684.853,93.664 683.722,92.827 C682.079,91.612 680.317,90.569 678.462,89.714 L678.462,97.538 C678.462,99.025 677.256,100.231 675.769,100.231 C674.282,100.231 673.077,99.025 673.077,97.538 L673.077,87.796 C671.311,87.341 669.51,87.035 667.692,86.88 L667.692,97.538 C667.692,99.025 666.487,100.231 665,100.231 C663.513,100.231 662.308,99.025 662.308,97.538 L662.308,86.88 C660.49,87.035 658.689,87.341 656.923,87.796 L656.923,97.538 C656.923,99.025 655.718,100.231 654.231,100.231 C652.744,100.231 651.538,99.025 651.538,97.538 L651.538,89.714 C649.683,90.569 647.921,91.612 646.278,92.827 C645.149,93.667 643.564,93.495 642.64,92.433 L635.385,84.077 L635.385,113.692 C635.385,127.713 647.234,139.269 662.308,140.504 L662.308,133.652 L657.711,129.055 C656.659,128.003 656.66,126.298 657.713,125.247 C658.765,124.196 660.469,124.197 661.52,125.249 L665,128.729 L668.48,125.249 C669.531,124.197 671.235,124.196 672.288,125.247 C673.34,126.298 673.341,128.003 672.29,129.055 L667.692,133.652 L667.692,140.504 C682.766,139.263 694.615,127.716 694.615,113.692 Z" />
        </g>
    </g>
</svg>