<?xml version="1.0" encoding="UTF-8"?>
<svg height="600" width="800" xmlns="http://www.w3.org/2000/svg" xmlns:xlink="http://www.w3.org/1999/xlink">
    <g id="Notes" font-family="'LucidaGrande', 'Lucida Grande', sans-serif" font-size="13">
        <rect fill="white" height="600.0" width="800.0" x="0.0" y="0.0" />
        <g font-size="13">
            <text x="18.0" y="176.0">Small</text>
            <text x="18.0" y="376.0">Medium</text>
            <text x="18.0" y="576.0">Large</text>
        </g>
        <g font-size="9">
            <text x="250.0" y="30.0">Ultralight</text>
            <text x="450.0" y="30.0">Regular</text>
            <text x="650.0" y="30.0">Black</text>
            <text id="template-version" fill="#505050" text-anchor="end" x="785.0" y="575.0">Template v.3.0</text>
            <a href="https://github.com/swhitty/SwiftDraw">
                <text fill="#505050" text-anchor="end" x="785.0" y="590.0">https://github.com/swhitty/SwiftDraw</text>
            </a>
        </g>
    </g>
    <g id="Guides" stroke="rgb(39, 170, 225)" stroke-width="0.5">
        <path id="Capline-S" d="M18,76 l800,0" />
        <path id="H-reference" d="M85,145.755 L87.685,145.755 L113.369,79.287 L114.052,79.287 L114.052,76 L112.148,76 L85,145.755 Z M95.693,121.536 L130.996,121.536 L130.263,119.313 L96.474,119.313 L95.693,121.536 Z M139.15,145.755 L141.787,145.755 L114.638,76 L113.466,76 L113.466,79.287 L139.15,145.755 Z" stroke="none" />
        <path id="Baseline-S" d="M18,146 l800,0" />
        <path id="left-margin-Ultralight-S" d="M220,56 l0,110" />
        <path id="right-margin-Ultralight-S" d="M310,56 l0,110" />
        <path id="left-margin-Regular-S" d="M420,56 l0,110" />
        <path id="right-margin-Regular-S" d="M510,56 l0,110" />
        <path id="left-margin-Black-S" d="M620,56 l0,110" />
        <path id="right-margin-Black-S" d="M710,56 l0,110" />
        <path id="Capline-M" d="M18,276 l800,0" />
        <path id="Baseline-M" d="M18,346 l800,0" />
        <path id="Capline-L" d="M18,476 l800,0" />
        <path id="Baseline-L" d="M18,546 l800,0" />
    </g>
    <g id="Symbols">
        <g id="Ultralight-S">
            <path d="M289.231,73.308 C288.517,73.308 287.832,73.591 287.327,74.096 C286.822,74.601 286.538,75.286 286.538,76 L286.538,81.385 L275.769,81.385 L275.769,76 C275.769,74.513 274.564,73.308 273.077,73.308 C271.59,73.308 270.385,74.513 270.385,76 L270.385,81.385 L259.615,81.385 L259.615,76 C259.615,74.513 258.41,73.308 256.923,73.308 C255.436,73.308 254.231,74.513 254.231,76 L254.231,81.385 L243.462,81.385 L243.462,76 C243.462,74.513 242.256,73.308 240.769,73.308 C239.282,73.308 238.077,74.513 238.077,76 L238.077,146 C238.077,147.487 239.282,148.692 240.769,148.692 C242.256,148.692 243.462,147.487 243.462,146 L243.462,140.615 L254.231,140.615 L254.231,146 C254.231,147.487 255.436,148.692 256.923,148.692 C258.41,148.692 259.615,147.487 259.615,146 L259.615,140.615 L270.385,140.615 L270.385,146 C270.385,147.487 271.59,148.692 273.077,148.692 C274.564,148.692 275.769,147.487 275.769,146 L275.769,140.615 L286.538,140.615 L286.538,146 C286.538,147.487 287.744,148.692 289.231,148.692 C290.718,148.692 291.923,147.487 291.923,146 L291.923,76 C291.923,75.286 291.639,74.601 291.135,74.096 C290.63,73.591 289.945,73.308 289.231,73.308 Z M243.462,86.769 L286.538,86.769 L286.538,135.231 L243.462,135.231 Z M265,127.154 C265.945,127.154 266.822,126.659 267.309,125.848 L275.386,112.387 C275.898,111.533 275.898,110.467 275.386,109.613 L267.309,96.152 C266.822,95.341 265.946,94.845 265,94.845 C264.054,94.845 263.178,95.341 262.691,96.152 L254.614,109.613 C254.102,110.467 254.102,111.533 254.614,112.387 L262.691,125.848 C263.178,126.659 264.055,127.154 265,127.154 Z M265,102.772 L269.937,111 L265,119.228 L260.063,111 Z" />
        </g>
        <g id="Regular-S">
            <path d="M489.231,73.308 C488.517,73.308 487.832,73.591 487.327,74.096 C486.822,74.601 486.538,75.286 486.538,76 L486.538,81.385 L475.769,81.385 L475.769,76 C475.769,74.513 474.564,73.308 473.077,73.308 C471.59,73.308 470.385,74.513 470.385,76 L470.385,81.385 L459.615,81.385 L459.615,76 C459.615,74.513 458.41,73.308 456.923,73.308 C455.436,73.308 454.231,74.513 454.231,76 L454.231,81.385 L443.462,81.385 L443.462,76 C443.462,74.513 442.256,73.308 440.769,73.308 C439.282,73.308 438.077,74.513 438.077,76 L438.077,146 C438.077,147.487 439.282,148.692 440.769,148.692 C442.256,148.692 443.462,147.487 443.462,146 L443.462,140.615 L454.231,140.615 L454.231,146 C454.231,147.487 455.436,148.692 456.923,148.692 C458.41,148.692 459.615,147.487 459.615,146 L459.615,140.615 L470.385,140.615 L470.385,146 C470.385,147.487 471.59,148.692 473.077,148.692 C474.564,148.692 475.769,147.487 475.769,146 L475.769,140.615 L486.538,140.615 L486.538,146 C486.538,147.487 487.744,148.692 489.231,148.692 C490.718,148.692 491.923,147.487 491.923,146 L491.923,76 C491.923,75.286 491.639,74.601 491.135,74.096 C490.63,73.591 489.945,73.308 489.231,73.308 Z M443.462,86.769 L486.538,86.769 L486.538,135.231 L443.462,135.231 Z M465,127.154 C465.945,127.154 466.822,126.659 467.309,125.848 L475.386,112.387 C475.898,111.533 475.898,110.467 475.386,109.613 L467.309,96.152 C466.822,95.341 465.946,94.845 465,94.845 C464.054,94.845 463.178,95.341 462.691,96.152 L454.614,109.613 C454.102,110.467 454.102,111.533 454.614,112.387 L462.691,125.848 C463.178,126.659 464.055,127.154 465,127.154 Z M465,102.772 L469.937,111 L465,119.228 L460.063,111 Z" />
        </g>
        <g id="Black-S">
            <path d="M689.231,73.308 C688.517,73.308 687.832,73.591 687.327,74.096 C686.822,74.601 686.538,75.286 686.538,76 L686.538,81.385 L675.769,81.385 L675.769,76 C675.769,74.513 674.564,73.308 673.077,73.308 C671.59,73.308 670.385,74.513 670.385,76 L670.385,81.385 L659.615,81.385 L659.615,76 C659.615,74.513 658.41,73.308 656.923,73.308 C655.436,73.308 654.231,74.513 654.231,76 L654.231,81.385 L643.462,81.385 L643.462,76 C643.462,74.513 642.256,73.308 640.769,73.308 C639.282,73.308 638.077,74.513 638.077,76 L638.077,146 C638.077,147.487 639.282,148.692 640.769,148.692 C642.256,148.692 643.462,147.487 643.462,146 L643.462,140.615 L654.231,140.615 L654.231,146 C654.231,147.487 655.436,148.692 656.923,148.692 C658.41,148.692 659.615,147.487 659.615,146 L659.615,140.615 L670.385,140.615 L670.385,146 C670.385,147.487 671.59,148.692 673.077,148.692 C674.564,148.692 675.769,147.487 675.769,146 L675.769,140.615 L686.538,140.615 L686.538,146 C686.538,147.487 687.744,148.692 689.231,148.692 C690.718,148.692 691.923,147.487 691.923,146 L691.923,76 C691.923,75.286 691.639,74.601 691.135,74.096 C690.63,73.591 689.945,73.308 689.231,73.308 Z M643.462,86.769 L686.538,86.769 L686.538,135.231 L643.462,135.231 Z M665,127.154 C665.945,127.154 666.822,126.659 667.309,125.848 L675.386,112.387 C675.898,111.533 675.898,110.467 675.386,109.613 L667.309,96.152 C666.822,95.341 665.946,94.845 665,94.845 C664.054,94.845 663.178,95.341 662.691,96.152 L654.614,109.613 C654.102,110.467 654.102,111.533 654.614,112.387 L662.691,125.848 C663.178,126.659 664.055,127.154 665,127.154 Z M665,102.772 L669.937,111 L665,119.228 L660.063,111 Z" />
        </g>
    </g>
</svg>