<?xml version="1.0" encoding="UTF-8"?>
<svg height="600" width="800" xmlns="http://www.w3.org/2000/svg" xmlns:xlink="http://www.w3.org/1999/xlink">
    <g id="Notes" font-family="'LucidaGrande', 'Lucida Grande', sans-serif" font-size="13">
        <rect fill="white" height="600.0" width="800.0" x="0.0" y="0.0" />
        <g font-size="13">
            <text x="18.0" y="176.0">Small</text>
            <text x="18.0" y="376.0">Medium</text>
            <text x="18.0" y="576.0">Large</text>
        </g>
        <g font-size="9">
            <text x="250.0" y="30.0">Ultralight</text>
            <text x="450.0" y="30.0">Regular</text>
            <text x="650.0" y="30.0">Black</text>
            <text id="template-version" fill="#505050" text-anchor="end" x="785.0" y="575.0">Template v.3.0</text>
            <a href="https://github.com/swhitty/SwiftDraw">
                <text fill="#505050" text-anchor="end" x="785.0" y="590.0">https://github.com/swhitty/SwiftDraw</text>
            </a>
        </g>
    </g>
    <g id="Guides" stroke="rgb(39, 170, 225)" stroke-width="0.5">
        <path id="Capline-S" d="M18,76 l800,0" />
        <path id="H-reference" d="M85,145.755 L87.685,145.755 L113.369,79.287 L114.052,79.287 L114.052,76 L112.148,76 L85,145.755 Z M95.693,121.536 L130.996,121.536 L130.263,119.313 L96.474,119.313 L95.693,121.536 Z M139.15,145.755 L141.787,145.755 L114.638,76 L113.466,76 L113.466,79.287 L139.15,145.755 Z" stroke="none" />
        <path id="Baseline-S" d="M18,146 l800,0" />
        <path id="left-margin-Ultralight-S" d="M220,56 l0,110" />
        <path id="right-margin-Ultralight-S" d="M310,56 l0,110" />
        <path id="left-margin-Regular-S" d="M420,56 l0,110" />
        <path id="right-margin-Regular-S" d="M510,56 l0,110" />
        <path id="left-margin-Black-S" d="M620,56 l0,110" />
        <path id="right-margin-Black-S" d="M710,56 l0,110" />
        <path id="Capline-M" d="M18,276 l800,0" />
        <path id="Baseline-M" d="M18,346 l800,0" />
        <path id="Capline-L" d="M18,476 l800,0" />
        <path id="Baseline-L" d="M18,546 l800,0" />
    </g>
    <g id="Symbols">
        <g id="Ultralight-S">
            <path d="M297.308,81.385 L297.308,94.846 C297.308,96.333 296.102,97.538 294.615,97.538 C293.128,97.538 291.923,96.333 291.923,94.846 L291.923,84.077 L281.154,84.077 C279.667,84.077 278.462,82.872 278.462,81.385 C278.462,79.898 279.667,78.692 281.154,78.692 L294.615,78.692 C295.329,78.692 296.014,78.976 296.519,79.481 C297.024,79.986 297.308,80.671 297.308,81.385 Z M248.846,137.923 L238.077,137.923 L238.077,127.154 C238.077,125.667 236.872,124.462 235.385,124.462 C233.898,124.462 232.692,125.667 232.692,127.154 L232.692,140.615 C232.692,141.329 232.976,142.014 233.481,142.519 C233.986,143.024 234.671,143.308 235.385,143.308 L248.846,143.308 C250.333,143.308 251.538,142.102 251.538,140.615 C251.538,139.128 250.333,137.923 248.846,137.923 Z M294.615,124.462 C293.901,124.462 293.217,124.745 292.712,125.25 C292.207,125.755 291.923,126.44 291.923,127.154 L291.923,137.923 L281.154,137.923 C279.667,137.923 278.462,139.128 278.462,140.615 C278.462,142.102 279.667,143.308 281.154,143.308 L294.615,143.308 C295.329,143.308 296.014,143.024 296.519,142.519 C297.024,142.014 297.308,141.329 297.308,140.615 L297.308,127.154 C297.308,126.44 297.024,125.755 296.519,125.25 C296.014,124.745 295.329,124.462 294.615,124.462 Z M235.385,97.538 C236.099,97.538 236.783,97.255 237.288,96.75 C237.793,96.245 238.077,95.56 238.077,94.846 L238.077,84.077 L248.846,84.077 C250.333,84.077 251.538,82.872 251.538,81.385 C251.538,79.898 250.333,78.692 248.846,78.692 L235.385,78.692 C234.671,78.692 233.986,78.976 233.481,79.481 C232.976,79.986 232.692,80.671 232.692,81.385 L232.692,94.846 C232.692,95.56 232.976,96.245 233.481,96.75 C233.986,97.255 234.671,97.538 235.385,97.538 Z M248.846,92.154 L281.154,92.154 C281.868,92.154 282.553,92.438 283.058,92.942 C283.562,93.447 283.846,94.132 283.846,94.846 L283.846,127.154 C283.846,127.868 283.562,128.553 283.058,129.058 C282.553,129.562 281.868,129.846 281.154,129.846 L248.846,129.846 C248.132,129.846 247.447,129.562 246.942,129.058 C246.438,128.553 246.154,127.868 246.154,127.154 L246.154,94.846 C246.154,94.132 246.438,93.447 246.942,92.942 C247.447,92.438 248.132,92.154 248.846,92.154 Z M251.538,124.462 L278.462,124.462 L278.462,97.538 L251.538,97.538 Z" />
        </g>
        <g id="Regular-S">
            <path d="M497.308,81.385 L497.308,94.846 C497.308,96.333 496.102,97.538 494.615,97.538 C493.128,97.538 491.923,96.333 491.923,94.846 L491.923,84.077 L481.154,84.077 C479.667,84.077 478.462,82.872 478.462,81.385 C478.462,79.898 479.667,78.692 481.154,78.692 L494.615,78.692 C495.329,78.692 496.014,78.976 496.519,79.481 C497.024,79.986 497.308,80.671 497.308,81.385 Z M448.846,137.923 L438.077,137.923 L438.077,127.154 C438.077,125.667 436.872,124.462 435.385,124.462 C433.898,124.462 432.692,125.667 432.692,127.154 L432.692,140.615 C432.692,141.329 432.976,142.014 433.481,142.519 C433.986,143.024 434.671,143.308 435.385,143.308 L448.846,143.308 C450.333,143.308 451.538,142.102 451.538,140.615 C451.538,139.128 450.333,137.923 448.846,137.923 Z M494.615,124.462 C493.901,124.462 493.217,124.745 492.712,125.25 C492.207,125.755 491.923,126.44 491.923,127.154 L491.923,137.923 L481.154,137.923 C479.667,137.923 478.462,139.128 478.462,140.615 C478.462,142.102 479.667,143.308 481.154,143.308 L494.615,143.308 C495.329,143.308 496.014,143.024 496.519,142.519 C497.024,142.014 497.308,141.329 497.308,140.615 L497.308,127.154 C497.308,126.44 497.024,125.755 496.519,125.25 C496.014,124.745 495.329,124.462 494.615,124.462 Z M435.385,97.538 C436.099,97.538 436.783,97.255 437.288,96.75 C437.793,96.245 438.077,95.56 438.077,94.846 L438.077,84.077 L448.846,84.077 C450.333,84.077 451.538,82.872 451.538,81.385 C451.538,79.898 450.333,78.692 448.846,78.692 L435.385,78.692 C434.671,78.692 433.986,78.976 433.481,79.481 C432.976,79.986 432.692,80.671 432.692,81.385 L432.692,94.846 C432.692,95.56 432.976,96.245 433.481,96.75 C433.986,97.255 434.671,97.538 435.385,97.538 Z M448.846,92.154 L481.154,92.154 C481.868,92.154 482.553,92.438 483.058,92.942 C483.562,93.447 483.846,94.132 483.846,94.846 L483.846,127.154 C483.846,127.868 483.562,128.553 483.058,129.058 C482.553,129.562 481.868,129.846 481.154,129.846 L448.846,129.846 C448.132,129.846 447.447,129.562 446.942,129.058 C446.438,128.553 446.154,127.868 446.154,127.154 L446.154,94.846 C446.154,94.132 446.438,93.447 446.942,92.942 C447.447,92.438 448.132,92.154 448.846,92.154 Z M451.538,124.462 L478.462,124.462 L478.462,97.538 L451.538,97.538 Z" />
        </g>
        <g id="Black-S">
            <path d="M697.308,81.385 L697.308,94.846 C697.308,96.333 696.102,97.538 694.615,97.538 C693.128,97.538 691.923,96.333 691.923,94.846 L691.923,84.077 L681.154,84.077 C679.667,84.077 678.462,82.872 678.462,81.385 C678.462,79.898 679.667,78.692 681.154,78.692 L694.615,78.692 C695.329,78.692 696.014,78.976 696.519,79.481 C697.024,79.986 697.308,80.671 697.308,81.385 Z M648.846,137.923 L638.077,137.923 L638.077,127.154 C638.077,125.667 636.872,124.462 635.385,124.462 C633.898,124.462 632.692,125.667 632.692,127.154 L632.692,140.615 C632.692,141.329 632.976,142.014 633.481,142.519 C633.986,143.024 634.671,143.308 635.385,143.308 L648.846,143.308 C650.333,143.308 651.538,142.102 651.538,140.615 C651.538,139.128 650.333,137.923 648.846,137.923 Z M694.615,124.462 C693.901,124.462 693.217,124.745 692.712,125.25 C692.207,125.755 691.923,126.44 691.923,127.154 L691.923,137.923 L681.154,137.923 C679.667,137.923 678.462,139.128 678.462,140.615 C678.462,142.102 679.667,143.308 681.154,143.308 L694.615,143.308 C695.329,143.308 696.014,143.024 696.519,142.519 C697.024,142.014 697.308,141.329 697.308,140.615 L697.308,127.154 C697.308,126.44 697.024,125.755 696.519,125.25 C696.014,124.745 695.329,124.462 694.615,124.462 Z M635.385,97.538 C636.099,97.538 636.783,97.255 637.288,96.75 C637.793,96.245 638.077,95.56 638.077,94.846 L638.077,84.077 L648.846,84.077 C650.333,84.077 651.538,82.872 651.538,81.385 C651.538,79.898 650.333,78.692 648.846,78.692 L635.385,78.692 C634.671,78.692 633.986,78.976 633.481,79.481 C632.976,79.986 632.692,80.671 632.692,81.385 L632.692,94.846 C632.692,95.56 632.976,96.245 633.481,96.75 C633.986,97.255 634.671,97.538 635.385,97.538 Z M648.846,92.154 L681.154,92.154 C681.868,92.154 682.553,92.438 683.058,92.942 C683.562,93.447 683.846,94.132 683.846,94.846 L683.846,127.154 C683.846,127.868 683.562,128.553 683.058,129.058 C682.553,129.562 681.868,129.846 681.154,129.846 L648.846,129.846 C648.132,129.846 647.447,129.562 646.942,129.058 C646.438,128.553 646.154,127.868 646.154,127.154 L646.154,94.846 C646.154,94.132 646.438,93.447 646.942,92.942 C647.447,92.438 648.132,92.154 648.846,92.154 Z M651.538,124.462 L678.462,124.462 L678.462,97.538 L651.538,97.538 Z" />
        </g>
    </g>
</svg>