<?xml version="1.0" encoding="UTF-8"?>
<svg height="600" width="800" xmlns="http://www.w3.org/2000/svg" xmlns:xlink="http://www.w3.org/1999/xlink">
    <g id="Notes" font-family="'LucidaGrande', 'Lucida Grande', sans-serif" font-size="13">
        <rect fill="white" height="600.0" width="800.0" x="0.0" y="0.0" />
        <g font-size="13">
            <text x="18.0" y="176.0">Small</text>
            <text x="18.0" y="376.0">Medium</text>
            <text x="18.0" y="576.0">Large</text>
        </g>
        <g font-size="9">
            <text x="250.0" y="30.0">Ultralight</text>
            <text x="450.0" y="30.0">Regular</text>
            <text x="650.0" y="30.0">Black</text>
            <text id="template-version" fill="#505050" text-anchor="end" x="785.0" y="575.0">Template v.3.0</text>
            <a href="https://github.com/swhitty/SwiftDraw">
                <text fill="#505050" text-anchor="end" x="785.0" y="590.0">https://github.com/swhitty/SwiftDraw</text>
            </a>
        </g>
    </g>
    <g id="Guides" stroke="rgb(39, 170, 225)" stroke-width="0.5">
        <path id="Capline-S" d="M18,76 l800,0" />
        <path id="H-reference" d="M85,145.755 L87.685,145.755 L113.369,79.287 L114.052,79.287 L114.052,76 L112.148,76 L85,145.755 Z M95.693,121.536 L130.996,121.536 L130.263,119.313 L96.474,119.313 L95.693,121.536 Z M139.15,145.755 L141.787,145.755 L114.638,76 L113.466,76 L113.466,79.287 L139.15,145.755 Z" stroke="none" />
        <path id="Baseline-S" d="M18,146 l800,0" />
        <path id="left-margin-Ultralight-S" d="M220,56 l0,110" />
        <path id="right-margin-Ultralight-S" d="M310,56 l0,110" />
        <path id="left-margin-Regular-S" d="M420,56 l0,110" />
        <path id="right-margin-Regular-S" d="M510,56 l0,110" />
        <path id="left-margin-Black-S" d="M620,56 l0,110" />
        <path id="right-margin-Black-S" d="M710,56 l0,110" />
        <path id="Capline-M" d="M18,276 l800,0" />
        <path id="Baseline-M" d="M18,346 l800,0" />
        <path id="Capline-L" d="M18,476 l800,0" />
        <path id="Baseline-L" d="M18,546 l800,0" />
    </g>
    <g id="Symbols">
        <g id="Ultralight-S">
            <path d="M275.843,76 L275.843,70.615 C275.843,69.128 277.049,67.923 278.536,67.923 C280.022,67.923 281.228,69.128 281.228,70.615 L281.228,76 C281.228,77.487 280.022,78.692 278.536,78.692 C277.049,78.692 275.843,77.487 275.843,76 Z M287.918,81.721 C288.34,81.98 288.826,82.117 289.322,82.115 C290.261,82.116 291.134,81.628 291.624,80.826 L294.316,76.414 C295.09,75.137 294.684,73.48 293.412,72.708 C292.139,71.936 290.482,72.342 289.71,73.615 L287.017,78.023 C286.245,79.293 286.649,80.948 287.918,81.721 Z M303.907,85.958 C303.688,85.278 303.208,84.712 302.571,84.386 C301.935,84.061 301.195,84.001 300.515,84.222 L295.447,85.854 C294.181,86.258 293.4,87.525 293.607,88.837 C293.814,90.149 294.946,91.115 296.275,91.111 C296.556,91.11 296.835,91.065 297.102,90.979 L302.167,89.347 C302.851,89.129 303.419,88.647 303.746,88.008 C304.072,87.369 304.13,86.627 303.907,85.945 Z M294.952,100.763 C300.802,110.934 299.412,123.72 291.513,132.397 C291.398,132.979 291.27,133.562 291.112,134.14 C288.274,144.667 279.378,152.451 268.568,153.868 C257.757,155.285 247.156,150.056 241.701,140.615 L229.832,120.087 C228.367,117.55 228.27,114.448 229.571,111.824 C230.873,109.2 233.401,107.402 236.307,107.032 L235.297,105.282 C233.835,102.748 233.736,99.65 235.035,97.027 C236.333,94.405 238.856,92.605 241.759,92.231 L241.523,91.817 C239.467,88.277 240.141,83.784 243.145,81.003 C246.149,78.222 250.681,77.895 254.052,80.217 C255.66,77.57 258.544,75.966 261.641,75.999 C264.738,76.031 267.588,77.695 269.139,80.375 L273.265,87.51 C275.048,85.185 277.872,83.904 280.795,84.093 C283.718,84.282 286.353,85.917 287.821,88.452 Z M258.629,86.433 L258.629,86.433 L258.629,86.433 L267.043,100.961 C268.46,99.106 270.56,97.895 272.875,97.596 L264.468,83.067 C263.546,81.459 261.487,80.901 259.873,81.827 C258.258,82.753 257.7,84.812 258.626,86.426 Z M246.194,89.125 L248.368,92.884 C249.786,91.031 251.884,89.82 254.197,89.519 L252.026,85.76 C251.099,84.151 249.041,83.597 247.43,84.525 C245.819,85.453 245.265,87.512 246.193,89.123 Z M283.732,116.385 L276.927,104.606 C276.069,102.959 274.036,102.318 272.387,103.176 C270.738,104.035 270.097,106.068 270.956,107.717 L275.197,115.038 C275.941,116.331 275.496,117.978 274.206,118.72 C272.916,119.462 271.269,119.018 270.528,117.728 L258.244,96.526 C257.321,94.918 255.262,94.361 253.648,95.288 C252.034,96.214 251.476,98.274 252.403,99.888 L261.17,115.032 C261.913,116.325 261.469,117.972 260.179,118.714 C258.889,119.456 257.242,119.011 256.5,117.721 L245.817,99.221 L245.817,99.221 L245.817,99.221 C244.89,97.612 242.832,97.058 241.221,97.987 C239.609,98.915 239.056,100.973 239.984,102.584 L251.837,123.113 C252.581,124.414 252.133,126.061 250.84,126.801 C249.547,127.541 247.899,127.093 247.159,125.8 L240.338,114.029 C239.414,112.42 237.355,111.864 235.742,112.791 C234.129,113.718 233.573,115.777 234.5,117.39 L246.37,137.919 C250.736,145.467 259.217,149.646 267.862,148.509 C276.508,147.372 283.62,141.143 285.886,132.723 C287.381,127.208 286.605,121.324 283.732,116.385 Z M290.264,103.455 L283.15,91.144 C282.235,89.538 280.175,88.973 278.555,89.895 C276.936,90.817 276.371,92.877 277.293,94.496 L288.399,113.696 C289.942,116.354 291.02,119.256 291.587,122.277 C294.052,116.132 293.565,109.195 290.264,103.455 Z" />
        </g>
        <g id="Regular-S">
            <path d="M475.843,76 L475.843,70.615 C475.843,69.128 477.049,67.923 478.536,67.923 C480.022,67.923 481.228,69.128 481.228,70.615 L481.228,76 C481.228,77.487 480.022,78.692 478.536,78.692 C477.049,78.692 475.843,77.487 475.843,76 Z M487.918,81.721 C488.34,81.98 488.826,82.117 489.322,82.115 C490.261,82.116 491.134,81.628 491.624,80.826 L494.316,76.414 C495.09,75.137 494.684,73.48 493.412,72.708 C492.139,71.936 490.482,72.342 489.71,73.615 L487.017,78.023 C486.245,79.293 486.649,80.948 487.918,81.721 Z M503.907,85.958 C503.688,85.278 503.208,84.712 502.571,84.386 C501.935,84.061 501.195,84.001 500.515,84.222 L495.447,85.854 C494.181,86.258 493.4,87.525 493.607,88.837 C493.814,90.149 494.946,91.115 496.275,91.111 C496.556,91.11 496.835,91.065 497.102,90.979 L502.167,89.347 C502.851,89.129 503.419,88.647 503.746,88.008 C504.072,87.369 504.13,86.627 503.907,85.945 Z M494.952,100.763 C500.802,110.934 499.412,123.72 491.512,132.397 C491.398,132.979 491.27,133.562 491.112,134.14 C488.274,144.667 479.378,152.451 468.568,153.868 C457.757,155.285 447.156,150.056 441.701,140.615 L429.832,120.087 C428.367,117.55 428.27,114.448 429.571,111.824 C430.873,109.2 433.401,107.402 436.307,107.032 L435.297,105.282 C433.835,102.748 433.736,99.65 435.035,97.027 C436.333,94.405 438.856,92.605 441.759,92.231 L441.523,91.817 C439.467,88.277 440.141,83.784 443.145,81.003 C446.149,78.222 450.68,77.895 454.052,80.217 C455.66,77.57 458.544,75.966 461.641,75.999 C464.738,76.031 467.588,77.695 469.139,80.375 L473.265,87.51 C475.047,85.185 477.872,83.904 480.795,84.093 C483.717,84.282 486.353,85.917 487.821,88.452 Z M458.629,86.433 L458.629,86.433 L458.629,86.433 L467.043,100.961 C468.46,99.106 470.56,97.895 472.875,97.596 L464.468,83.067 C463.546,81.459 461.487,80.901 459.873,81.827 C458.258,82.753 457.7,84.812 458.626,86.426 Z M446.194,89.125 L448.368,92.884 C449.786,91.031 451.884,89.82 454.197,89.519 L452.026,85.76 C451.099,84.151 449.041,83.597 447.43,84.525 C445.819,85.453 445.265,87.512 446.193,89.123 Z M483.732,116.385 L476.927,104.606 C476.069,102.959 474.036,102.318 472.387,103.176 C470.738,104.035 470.097,106.068 470.956,107.717 L475.197,115.038 C475.941,116.331 475.496,117.978 474.206,118.72 C472.916,119.462 471.269,119.018 470.528,117.728 L458.244,96.526 C457.321,94.918 455.262,94.361 453.648,95.288 C452.034,96.214 451.476,98.274 452.403,99.888 L461.17,115.032 C461.913,116.325 461.469,117.972 460.179,118.714 C458.889,119.456 457.242,119.011 456.5,117.721 L445.817,99.221 L445.817,99.221 L445.817,99.221 C444.89,97.612 442.832,97.058 441.221,97.987 C439.609,98.915 439.056,100.973 439.984,102.584 L451.837,123.113 C452.581,124.414 452.133,126.061 450.84,126.801 C449.547,127.541 447.899,127.093 447.159,125.8 L440.338,114.029 C439.414,112.42 437.355,111.864 435.742,112.791 C434.129,113.718 433.573,115.777 434.5,117.39 L446.37,137.919 C450.736,145.467 459.217,149.646 467.862,148.509 C476.508,147.372 483.62,141.143 485.886,132.723 C487.381,127.208 486.605,121.324 483.732,116.385 Z M490.264,103.455 L483.15,91.144 C482.235,89.538 480.175,88.973 478.555,89.895 C476.936,90.817 476.371,92.877 477.293,94.496 L488.399,113.696 C489.942,116.354 491.02,119.256 491.587,122.277 C494.052,116.132 493.565,109.195 490.264,103.455 Z" />
        </g>
        <g id="Black-S">
            <path d="M675.843,76 L675.843,70.615 C675.843,69.128 677.049,67.923 678.536,67.923 C680.023,67.923 681.228,69.128 681.228,70.615 L681.228,76 C681.228,77.487 680.023,78.692 678.536,78.692 C677.049,78.692 675.843,77.487 675.843,76 Z M687.918,81.721 C688.34,81.98 688.826,82.117 689.322,82.115 C690.261,82.116 691.134,81.628 691.624,80.826 L694.316,76.414 C695.09,75.137 694.684,73.48 693.412,72.708 C692.139,71.936 690.482,72.342 689.71,73.615 L687.017,78.023 C686.245,79.293 686.649,80.948 687.918,81.721 Z M703.907,85.958 C703.688,85.278 703.208,84.712 702.571,84.386 C701.935,84.061 701.195,84.001 700.515,84.222 L695.447,85.854 C694.182,86.258 693.4,87.525 693.607,88.837 C693.814,90.149 694.946,91.115 696.275,91.111 C696.556,91.11 696.835,91.065 697.102,90.979 L702.167,89.347 C702.851,89.129 703.419,88.647 703.746,88.008 C704.072,87.369 704.13,86.627 703.907,85.945 Z M694.952,100.763 C700.802,110.934 699.412,123.72 691.513,132.397 C691.398,132.979 691.27,133.562 691.112,134.14 C688.274,144.667 679.378,152.451 668.568,153.868 C657.757,155.285 647.156,150.056 641.701,140.615 L629.832,120.087 C628.367,117.55 628.27,114.448 629.571,111.824 C630.873,109.2 633.401,107.402 636.307,107.032 L635.297,105.282 C633.835,102.748 633.736,99.65 635.035,97.027 C636.333,94.405 638.856,92.605 641.759,92.231 L641.523,91.817 C639.467,88.277 640.141,83.784 643.145,81.003 C646.149,78.222 650.681,77.895 654.052,80.217 C655.66,77.57 658.544,75.966 661.641,75.999 C664.738,76.031 667.588,77.695 669.139,80.375 L673.265,87.51 C675.048,85.185 677.872,83.904 680.795,84.093 C683.718,84.282 686.353,85.917 687.821,88.452 Z M658.629,86.433 L658.629,86.433 L658.629,86.433 L667.043,100.961 C668.46,99.106 670.56,97.895 672.875,97.596 L664.468,83.067 C663.546,81.459 661.487,80.901 659.873,81.827 C658.258,82.753 657.7,84.812 658.626,86.426 Z M646.194,89.125 L648.368,92.884 C649.786,91.031 651.884,89.82 654.197,89.519 L652.026,85.76 C651.099,84.151 649.041,83.597 647.43,84.525 C645.819,85.453 645.265,87.512 646.193,89.123 Z M683.732,116.385 L676.927,104.606 C676.069,102.959 674.036,102.318 672.387,103.176 C670.738,104.035 670.097,106.068 670.956,107.717 L675.197,115.038 C675.941,116.331 675.496,117.978 674.206,118.72 C672.917,119.462 671.269,119.018 670.528,117.728 L658.244,96.526 C657.321,94.918 655.262,94.361 653.648,95.288 C652.034,96.214 651.476,98.274 652.403,99.888 L661.17,115.032 C661.913,116.325 661.469,117.972 660.179,118.714 C658.889,119.456 657.242,119.011 656.5,117.721 L645.817,99.221 L645.817,99.221 L645.817,99.221 C644.89,97.612 642.832,97.058 641.221,97.987 C639.609,98.915 639.056,100.973 639.984,102.584 L651.837,123.113 C652.581,124.414 652.133,126.061 650.84,126.801 C649.547,127.541 647.899,127.093 647.159,125.8 L640.339,114.029 C639.414,112.42 637.355,111.864 635.742,112.791 C634.129,113.718 633.573,115.777 634.5,117.39 L646.37,137.919 C650.736,145.467 659.217,149.646 667.862,148.509 C676.508,147.372 683.62,141.143 685.886,132.723 C687.381,127.208 686.605,121.324 683.732,116.385 Z M690.264,103.455 L683.15,91.144 C682.235,89.538 680.175,88.973 678.555,89.895 C676.936,90.817 676.371,92.877 677.293,94.496 L688.399,113.696 C689.942,116.354 691.02,119.256 691.587,122.277 C694.052,116.132 693.565,109.195 690.264,103.455 Z" />
        </g>
    </g>
</svg>