<?xml version="1.0" encoding="UTF-8"?>
<svg height="600" width="800" xmlns="http://www.w3.org/2000/svg" xmlns:xlink="http://www.w3.org/1999/xlink">
    <g id="Notes" font-family="'LucidaGrande', 'Lucida Grande', sans-serif" font-size="13">
        <rect fill="white" height="600.0" width="800.0" x="0.0" y="0.0" />
        <g font-size="13">
            <text x="18.0" y="176.0">Small</text>
            <text x="18.0" y="376.0">Medium</text>
            <text x="18.0" y="576.0">Large</text>
        </g>
        <g font-size="9">
            <text x="250.0" y="30.0">Ultralight</text>
            <text x="450.0" y="30.0">Regular</text>
            <text x="650.0" y="30.0">Black</text>
            <text id="template-version" fill="#505050" text-anchor="end" x="785.0" y="575.0">Template v.3.0</text>
            <a href="https://github.com/swhitty/SwiftDraw">
                <text fill="#505050" text-anchor="end" x="785.0" y="590.0">https://github.com/swhitty/SwiftDraw</text>
            </a>
        </g>
    </g>
    <g id="Guides" stroke="rgb(39, 170, 225)" stroke-width="0.5">
        <path id="Capline-S" d="M18,76 l800,0" />
        <path id="H-reference" d="M85,145.755 L87.685,145.755 L113.369,79.287 L114.052,79.287 L114.052,76 L112.148,76 L85,145.755 Z M95.693,121.536 L130.996,121.536 L130.263,119.313 L96.474,119.313 L95.693,121.536 Z M139.15,145.755 L141.787,145.755 L114.638,76 L113.466,76 L113.466,79.287 L139.15,145.755 Z" stroke="none" />
        <path id="Baseline-S" d="M18,146 l800,0" />
        <path id="left-margin-Ultralight-S" d="M220,56 l0,110" />
        <path id="right-margin-Ultralight-S" d="M310,56 l0,110" />
        <path id="left-margin-Regular-S" d="M420,56 l0,110" />
        <path id="right-margin-Regular-S" d="M510,56 l0,110" />
        <path id="left-margin-Black-S" d="M620,56 l0,110" />
        <path id="right-margin-Black-S" d="M710,56 l0,110" />
        <path id="Capline-M" d="M18,276 l800,0" />
        <path id="Baseline-M" d="M18,346 l800,0" />
        <path id="Capline-L" d="M18,476 l800,0" />
        <path id="Baseline-L" d="M18,546 l800,0" />
    </g>
    <g id="Symbols">
        <g id="Ultralight-S">
            <path d="M293.828,95.634 L274.982,76.788 C274.476,76.283 273.791,75.999 273.077,76 L240.769,76 C239.341,76 237.972,76.567 236.962,77.577 C235.952,78.587 235.385,79.957 235.385,81.385 L235.385,105.615 C235.385,107.102 236.59,108.308 238.077,108.308 C239.564,108.308 240.769,107.102 240.769,105.615 L240.769,81.385 L270.385,81.385 L270.385,97.538 C270.385,98.253 270.668,98.937 271.173,99.442 C271.678,99.947 272.363,100.231 273.077,100.231 L289.231,100.231 L289.231,140.615 L281.154,140.615 C279.667,140.615 278.462,141.821 278.462,143.308 C278.462,144.795 279.667,146 281.154,146 L289.231,146 C290.659,146 292.028,145.433 293.038,144.423 C294.048,143.413 294.615,142.043 294.615,140.615 L294.615,97.538 C294.616,96.824 294.333,96.139 293.828,95.634 Z M275.769,85.191 L285.425,94.846 L275.769,94.846 Z M271.667,133.989 C271.454,136.074 270.32,137.954 268.574,139.114 C266.827,140.279 264.663,140.615 262.688,140.615 C260.963,140.606 259.245,140.379 257.576,139.942 C256.144,139.542 255.308,138.056 255.708,136.624 C256.109,135.192 257.594,134.356 259.026,134.756 C260.501,135.16 264.075,135.665 265.606,134.635 C265.902,134.437 266.222,134.124 266.326,133.313 C266.44,132.414 266.087,131.933 262.025,130.758 C258.878,129.85 253.612,128.325 254.285,122.981 C254.497,120.937 255.607,119.094 257.314,117.95 C261.298,115.257 267.649,116.836 268.362,117.021 C269.801,117.399 270.66,118.872 270.282,120.311 C269.904,121.749 268.431,122.609 266.992,122.23 C265.481,121.836 261.867,121.369 260.319,122.419 C259.907,122.697 259.656,123.157 259.645,123.654 C259.605,123.957 259.598,124.021 260.019,124.293 C260.796,124.795 262.19,125.195 263.536,125.586 C266.848,126.538 272.421,128.163 271.667,133.989 Z M248.846,119.077 L248.846,131.865 C248.846,136.698 244.929,140.615 240.096,140.615 C235.264,140.615 231.346,136.698 231.346,131.865 C231.346,130.378 232.552,129.173 234.038,129.173 C235.525,129.173 236.731,130.378 236.731,131.865 C236.731,133.724 238.238,135.231 240.096,135.231 C241.955,135.231 243.462,133.724 243.462,131.865 L243.462,119.077 C243.462,117.59 244.667,116.385 246.154,116.385 C247.641,116.385 248.846,117.59 248.846,119.077 Z" />
        </g>
        <g id="Regular-S">
            <path d="M493.828,95.634 L474.982,76.788 C474.476,76.283 473.791,75.999 473.077,76 L440.769,76 C439.341,76 437.972,76.567 436.962,77.577 C435.952,78.587 435.385,79.957 435.385,81.385 L435.385,105.615 C435.385,107.102 436.59,108.308 438.077,108.308 C439.564,108.308 440.769,107.102 440.769,105.615 L440.769,81.385 L470.385,81.385 L470.385,97.538 C470.385,98.253 470.668,98.937 471.173,99.442 C471.678,99.947 472.363,100.231 473.077,100.231 L489.231,100.231 L489.231,140.615 L481.154,140.615 C479.667,140.615 478.462,141.821 478.462,143.308 C478.462,144.795 479.667,146 481.154,146 L489.231,146 C490.659,146 492.028,145.433 493.038,144.423 C494.048,143.413 494.615,142.043 494.615,140.615 L494.615,97.538 C494.616,96.824 494.333,96.139 493.828,95.634 Z M475.769,85.191 L485.424,94.846 L475.769,94.846 Z M471.667,133.989 C471.454,136.074 470.32,137.954 468.574,139.114 C466.827,140.279 464.663,140.615 462.688,140.615 C460.963,140.606 459.245,140.379 457.576,139.942 C456.144,139.542 455.308,138.056 455.708,136.624 C456.109,135.192 457.594,134.356 459.026,134.756 C460.501,135.16 464.075,135.665 465.606,134.635 C465.902,134.437 466.222,134.124 466.326,133.313 C466.44,132.414 466.087,131.933 462.025,130.758 C458.878,129.85 453.612,128.325 454.285,122.981 C454.497,120.937 455.607,119.094 457.314,117.95 C461.298,115.257 467.649,116.836 468.362,117.021 C469.801,117.399 470.66,118.872 470.282,120.311 C469.904,121.749 468.431,122.609 466.992,122.23 C465.481,121.836 461.867,121.369 460.319,122.419 C459.907,122.697 459.656,123.157 459.645,123.654 C459.605,123.957 459.598,124.021 460.019,124.293 C460.796,124.795 462.19,125.195 463.536,125.586 C466.848,126.538 472.421,128.163 471.667,133.989 Z M448.846,119.077 L448.846,131.865 C448.846,136.698 444.929,140.615 440.096,140.615 C435.264,140.615 431.346,136.698 431.346,131.865 C431.346,130.378 432.552,129.173 434.038,129.173 C435.525,129.173 436.731,130.378 436.731,131.865 C436.731,133.724 438.237,135.231 440.096,135.231 C441.955,135.231 443.462,133.724 443.462,131.865 L443.462,119.077 C443.462,117.59 444.667,116.385 446.154,116.385 C447.641,116.385 448.846,117.59 448.846,119.077 Z" />
        </g>
        <g id="Black-S">
            <path d="M693.828,95.634 L674.982,76.788 C674.476,76.283 673.791,75.999 673.077,76 L640.769,76 C639.341,76 637.972,76.567 636.962,77.577 C635.952,78.587 635.385,79.957 635.385,81.385 L635.385,105.615 C635.385,107.102 636.59,108.308 638.077,108.308 C639.564,108.308 640.769,107.102 640.769,105.615 L640.769,81.385 L670.385,81.385 L670.385,97.538 C670.385,98.253 670.668,98.937 671.173,99.442 C671.678,99.947 672.363,100.231 673.077,100.231 L689.231,100.231 L689.231,140.615 L681.154,140.615 C679.667,140.615 678.462,141.821 678.462,143.308 C678.462,144.795 679.667,146 681.154,146 L689.231,146 C690.659,146 692.028,145.433 693.038,144.423 C694.048,143.413 694.615,142.043 694.615,140.615 L694.615,97.538 C694.616,96.824 694.333,96.139 693.828,95.634 Z M675.769,85.191 L685.425,94.846 L675.769,94.846 Z M671.667,133.989 C671.454,136.074 670.32,137.954 668.574,139.114 C666.827,140.279 664.663,140.615 662.688,140.615 C660.963,140.606 659.245,140.379 657.576,139.942 C656.144,139.542 655.308,138.056 655.708,136.624 C656.109,135.192 657.594,134.356 659.026,134.756 C660.501,135.16 664.075,135.665 665.606,134.635 C665.902,134.437 666.222,134.124 666.326,133.313 C666.44,132.414 666.087,131.933 662.025,130.758 C658.878,129.85 653.612,128.325 654.285,122.981 C654.497,120.937 655.607,119.094 657.314,117.95 C661.298,115.257 667.649,116.836 668.362,117.021 C669.801,117.399 670.66,118.872 670.282,120.311 C669.904,121.749 668.431,122.609 666.992,122.23 C665.481,121.836 661.867,121.369 660.319,122.419 C659.907,122.697 659.656,123.157 659.646,123.654 C659.605,123.957 659.598,124.021 660.019,124.293 C660.796,124.795 662.19,125.195 663.536,125.586 C666.848,126.538 672.421,128.163 671.667,133.989 Z M648.846,119.077 L648.846,131.865 C648.846,136.698 644.929,140.615 640.096,140.615 C635.264,140.615 631.346,136.698 631.346,131.865 C631.346,130.378 632.552,129.173 634.038,129.173 C635.525,129.173 636.731,130.378 636.731,131.865 C636.731,133.724 638.238,135.231 640.096,135.231 C641.955,135.231 643.462,133.724 643.462,131.865 L643.462,119.077 C643.462,117.59 644.667,116.385 646.154,116.385 C647.641,116.385 648.846,117.59 648.846,119.077 Z" />
        </g>
    </g>
</svg>