<?xml version="1.0" encoding="UTF-8"?>
<svg height="600" width="800" xmlns="http://www.w3.org/2000/svg" xmlns:xlink="http://www.w3.org/1999/xlink">
    <g id="Notes" font-family="'LucidaGrande', 'Lucida Grande', sans-serif" font-size="13">
        <rect fill="white" height="600.0" width="800.0" x="0.0" y="0.0" />
        <g font-size="13">
            <text x="18.0" y="176.0">Small</text>
            <text x="18.0" y="376.0">Medium</text>
            <text x="18.0" y="576.0">Large</text>
        </g>
        <g font-size="9">
            <text x="250.0" y="30.0">Ultralight</text>
            <text x="450.0" y="30.0">Regular</text>
            <text x="650.0" y="30.0">Black</text>
            <text id="template-version" fill="#505050" text-anchor="end" x="785.0" y="575.0">Template v.3.0</text>
            <a href="https://github.com/swhitty/SwiftDraw">
                <text fill="#505050" text-anchor="end" x="785.0" y="590.0">https://github.com/swhitty/SwiftDraw</text>
            </a>
        </g>
    </g>
    <g id="Guides" stroke="rgb(39, 170, 225)" stroke-width="0.5">
        <path id="Capline-S" d="M18,76 l800,0" />
        <path id="H-reference" d="M85,145.755 L87.685,145.755 L113.369,79.287 L114.052,79.287 L114.052,76 L112.148,76 L85,145.755 Z M95.693,121.536 L130.996,121.536 L130.263,119.313 L96.474,119.313 L95.693,121.536 Z M139.15,145.755 L141.787,145.755 L114.638,76 L113.466,76 L113.466,79.287 L139.15,145.755 Z" stroke="none" />
        <path id="Baseline-S" d="M18,146 l800,0" />
        <path id="left-margin-Ultralight-S" d="M220,56 l0,110" />
        <path id="right-margin-Ultralight-S" d="M310,56 l0,110" />
        <path id="left-margin-Regular-S" d="M420,56 l0,110" />
        <path id="right-margin-Regular-S" d="M510,56 l0,110" />
        <path id="left-margin-Black-S" d="M620,56 l0,110" />
        <path id="right-margin-Black-S" d="M710,56 l0,110" />
        <path id="Capline-M" d="M18,276 l800,0" />
        <path id="Baseline-M" d="M18,346 l800,0" />
        <path id="Capline-L" d="M18,476 l800,0" />
        <path id="Baseline-L" d="M18,546 l800,0" />
    </g>
    <g id="Symbols">
        <g id="Ultralight-S">
            <path d="M270.385,132.538 C270.385,133.253 270.101,133.937 269.596,134.442 C269.091,134.947 268.406,135.231 267.692,135.231 L262.308,135.231 C260.821,135.231 259.615,134.025 259.615,132.538 C259.615,131.052 260.821,129.846 262.308,129.846 L267.692,129.846 C268.406,129.846 269.091,130.13 269.596,130.635 C270.101,131.14 270.385,131.824 270.385,132.538 Z M262.308,92.154 L267.692,92.154 C269.179,92.154 270.385,90.948 270.385,89.462 C270.385,87.975 269.179,86.769 267.692,86.769 L262.308,86.769 C260.821,86.769 259.615,87.975 259.615,89.462 C259.615,90.948 260.821,92.154 262.308,92.154 Z M267.692,108.308 L262.308,108.308 C260.821,108.308 259.615,109.513 259.615,111 C259.615,112.487 260.821,113.692 262.308,113.692 L267.692,113.692 C269.179,113.692 270.385,112.487 270.385,111 C270.385,109.513 269.179,108.308 267.692,108.308 Z M294.615,81.385 L294.615,140.615 C294.615,142.043 294.048,143.413 293.038,144.423 C292.028,145.433 290.659,146 289.231,146 L240.769,146 C239.341,146 237.972,145.433 236.962,144.423 C235.952,143.413 235.385,142.043 235.385,140.615 L235.385,81.385 C235.385,79.957 235.952,78.587 236.962,77.577 C237.972,76.567 239.341,76 240.769,76 L289.231,76 C290.659,76 292.028,76.567 293.038,77.577 C294.048,78.587 294.615,79.957 294.615,81.385 Z M240.769,119.077 L289.231,119.077 L289.231,102.923 L240.769,102.923 Z M240.769,81.385 L240.769,97.538 L289.231,97.538 L289.231,81.385 Z M289.231,140.615 L289.231,124.462 L240.769,124.462 L240.769,140.615 L289.231,140.615 Z" />
        </g>
        <g id="Regular-S">
            <path d="M470.385,132.538 C470.385,133.253 470.101,133.937 469.596,134.442 C469.091,134.947 468.406,135.231 467.692,135.231 L462.308,135.231 C460.821,135.231 459.615,134.025 459.615,132.538 C459.615,131.052 460.821,129.846 462.308,129.846 L467.692,129.846 C468.406,129.846 469.091,130.13 469.596,130.635 C470.101,131.14 470.385,131.824 470.385,132.538 Z M462.308,92.154 L467.692,92.154 C469.179,92.154 470.385,90.948 470.385,89.462 C470.385,87.975 469.179,86.769 467.692,86.769 L462.308,86.769 C460.821,86.769 459.615,87.975 459.615,89.462 C459.615,90.948 460.821,92.154 462.308,92.154 Z M467.692,108.308 L462.308,108.308 C460.821,108.308 459.615,109.513 459.615,111 C459.615,112.487 460.821,113.692 462.308,113.692 L467.692,113.692 C469.179,113.692 470.385,112.487 470.385,111 C470.385,109.513 469.179,108.308 467.692,108.308 Z M494.615,81.385 L494.615,140.615 C494.615,142.043 494.048,143.413 493.038,144.423 C492.028,145.433 490.659,146 489.231,146 L440.769,146 C439.341,146 437.972,145.433 436.962,144.423 C435.952,143.413 435.385,142.043 435.385,140.615 L435.385,81.385 C435.385,79.957 435.952,78.587 436.962,77.577 C437.972,76.567 439.341,76 440.769,76 L489.231,76 C490.659,76 492.028,76.567 493.038,77.577 C494.048,78.587 494.615,79.957 494.615,81.385 Z M440.769,119.077 L489.231,119.077 L489.231,102.923 L440.769,102.923 Z M440.769,81.385 L440.769,97.538 L489.231,97.538 L489.231,81.385 Z M489.231,140.615 L489.231,124.462 L440.769,124.462 L440.769,140.615 L489.231,140.615 Z" />
        </g>
        <g id="Black-S">
            <path d="M670.385,132.538 C670.385,133.253 670.101,133.937 669.596,134.442 C669.091,134.947 668.406,135.231 667.692,135.231 L662.308,135.231 C660.821,135.231 659.615,134.025 659.615,132.538 C659.615,131.052 660.821,129.846 662.308,129.846 L667.692,129.846 C668.406,129.846 669.091,130.13 669.596,130.635 C670.101,131.14 670.385,131.824 670.385,132.538 Z M662.308,92.154 L667.692,92.154 C669.179,92.154 670.385,90.948 670.385,89.462 C670.385,87.975 669.179,86.769 667.692,86.769 L662.308,86.769 C660.821,86.769 659.615,87.975 659.615,89.462 C659.615,90.948 660.821,92.154 662.308,92.154 Z M667.692,108.308 L662.308,108.308 C660.821,108.308 659.615,109.513 659.615,111 C659.615,112.487 660.821,113.692 662.308,113.692 L667.692,113.692 C669.179,113.692 670.385,112.487 670.385,111 C670.385,109.513 669.179,108.308 667.692,108.308 Z M694.615,81.385 L694.615,140.615 C694.615,142.043 694.048,143.413 693.038,144.423 C692.028,145.433 690.659,146 689.231,146 L640.769,146 C639.341,146 637.972,145.433 636.962,144.423 C635.952,143.413 635.385,142.043 635.385,140.615 L635.385,81.385 C635.385,79.957 635.952,78.587 636.962,77.577 C637.972,76.567 639.341,76 640.769,76 L689.231,76 C690.659,76 692.028,76.567 693.038,77.577 C694.048,78.587 694.615,79.957 694.615,81.385 Z M640.769,119.077 L689.231,119.077 L689.231,102.923 L640.769,102.923 Z M640.769,81.385 L640.769,97.538 L689.231,97.538 L689.231,81.385 Z M689.231,140.615 L689.231,124.462 L640.769,124.462 L640.769,140.615 L689.231,140.615 Z" />
        </g>
    </g>
</svg>