<?xml version="1.0" encoding="UTF-8"?>
<svg height="600" width="800" xmlns="http://www.w3.org/2000/svg" xmlns:xlink="http://www.w3.org/1999/xlink">
    <g id="Notes" font-family="'LucidaGrande', 'Lucida Grande', sans-serif" font-size="13">
        <rect fill="white" height="600.0" width="800.0" x="0.0" y="0.0" />
        <g font-size="13">
            <text x="18.0" y="176.0">Small</text>
            <text x="18.0" y="376.0">Medium</text>
            <text x="18.0" y="576.0">Large</text>
        </g>
        <g font-size="9">
            <text x="250.0" y="30.0">Ultralight</text>
            <text x="450.0" y="30.0">Regular</text>
            <text x="650.0" y="30.0">Black</text>
            <text id="template-version" fill="#505050" text-anchor="end" x="785.0" y="575.0">Template v.3.0</text>
            <a href="https://github.com/swhitty/SwiftDraw">
                <text fill="#505050" text-anchor="end" x="785.0" y="590.0">https://github.com/swhitty/SwiftDraw</text>
            </a>
        </g>
    </g>
    <g id="Guides" stroke="rgb(39, 170, 225)" stroke-width="0.5">
        <path id="Capline-S" d="M18,76 l800,0" />
        <path id="H-reference" d="M85,145.755 L87.685,145.755 L113.369,79.287 L114.052,79.287 L114.052,76 L112.148,76 L85,145.755 Z M95.693,121.536 L130.996,121.536 L130.263,119.313 L96.474,119.313 L95.693,121.536 Z M139.15,145.755 L141.787,145.755 L114.638,76 L113.466,76 L113.466,79.287 L139.15,145.755 Z" stroke="none" />
        <path id="Baseline-S" d="M18,146 l800,0" />
        <path id="left-margin-Ultralight-S" d="M220,56 l0,110" />
        <path id="right-margin-Ultralight-S" d="M310,56 l0,110" />
        <path id="left-margin-Regular-S" d="M420,56 l0,110" />
        <path id="right-margin-Regular-S" d="M510,56 l0,110" />
        <path id="left-margin-Black-S" d="M620,56 l0,110" />
        <path id="right-margin-Black-S" d="M710,56 l0,110" />
        <path id="Capline-M" d="M18,276 l800,0" />
        <path id="Baseline-M" d="M18,346 l800,0" />
        <path id="Capline-L" d="M18,476 l800,0" />
        <path id="Baseline-L" d="M18,546 l800,0" />
    </g>
    <g id="Symbols">
        <g id="Ultralight-S">
            <path d="M232.692,102.923 C232.692,102.209 232.976,101.524 233.481,101.019 C233.986,100.514 234.671,100.231 235.385,100.231 L240.769,100.231 C242.256,100.231 243.462,101.436 243.462,102.923 C243.462,104.41 242.256,105.615 240.769,105.615 L235.385,105.615 C234.671,105.615 233.986,105.332 233.481,104.827 C232.976,104.322 232.692,103.637 232.692,102.923 Z M245.962,87.695 C247.012,88.746 248.718,88.747 249.771,87.696 C250.823,86.644 250.824,84.939 249.773,83.886 L245.962,80.079 C244.904,79.073 243.236,79.095 242.204,80.127 C241.171,81.159 241.15,82.827 242.156,83.885 Z M265,81.385 C265.714,81.385 266.399,81.101 266.904,80.596 C267.409,80.091 267.692,79.406 267.692,78.692 L267.692,73.308 C267.692,71.821 266.487,70.615 265,70.615 C263.513,70.615 262.308,71.821 262.308,73.308 L262.308,78.692 C262.308,79.406 262.591,80.091 263.096,80.596 C263.601,81.101 264.286,81.385 265,81.385 Z M282.133,88.482 C282.847,88.483 283.533,88.199 284.038,87.695 L287.844,83.885 C288.85,82.827 288.829,81.159 287.796,80.127 C286.764,79.095 285.096,79.073 284.038,80.079 L280.228,83.885 C279.457,84.655 279.227,85.814 279.644,86.82 C280.061,87.827 281.044,88.483 282.133,88.482 Z M286.538,102.923 C286.538,103.637 286.822,104.322 287.327,104.827 C287.832,105.332 288.517,105.615 289.231,105.615 L294.615,105.615 C296.102,105.615 297.308,104.41 297.308,102.923 C297.308,101.436 296.102,100.231 294.615,100.231 L289.231,100.231 C288.517,100.231 287.832,100.514 287.327,101.019 C286.822,101.524 286.538,102.209 286.538,102.923 Z M251.538,105.615 C252.253,105.615 252.937,105.332 253.442,104.827 C253.947,104.322 254.231,103.637 254.231,102.923 C254.231,96.975 259.052,92.154 265,92.154 C270.948,92.154 275.769,96.975 275.769,102.923 C275.769,104.41 276.975,105.615 278.462,105.615 C279.948,105.615 281.154,104.41 281.154,102.923 C281.154,94.002 273.922,86.769 265,86.769 C256.078,86.769 248.846,94.002 248.846,102.923 C248.846,103.637 249.13,104.322 249.635,104.827 C250.14,105.332 250.824,105.615 251.538,105.615 Z M302.326,141.962 C301.846,142.793 300.96,143.306 300,143.308 L230,143.308 C229.04,143.312 228.15,142.805 227.665,141.977 C227.179,141.149 227.171,140.125 227.644,139.289 L241.338,115.059 C241.818,114.21 242.719,113.688 243.694,113.692 L286.303,113.692 C287.278,113.688 288.179,114.21 288.659,115.059 L302.352,139.289 C302.817,140.122 302.807,141.138 302.326,141.962 Z M284.735,119.077 L276.533,119.077 L277.704,124.462 L287.777,124.462 Z M272.195,124.462 L271.024,119.077 L258.976,119.077 L257.805,124.462 Z M256.634,129.846 L254.88,137.923 L275.12,137.923 L273.366,129.846 Z M242.223,124.462 L252.296,124.462 L253.467,119.077 L245.265,119.077 Z M234.614,137.923 L249.368,137.923 L251.125,129.846 L239.181,129.846 Z M295.386,137.923 L290.819,129.846 L278.875,129.846 L280.632,137.923 Z" />
        </g>
        <g id="Regular-S">
            <path d="M432.692,102.923 C432.692,102.209 432.976,101.524 433.481,101.019 C433.986,100.514 434.671,100.231 435.385,100.231 L440.769,100.231 C442.256,100.231 443.462,101.436 443.462,102.923 C443.462,104.41 442.256,105.615 440.769,105.615 L435.385,105.615 C434.671,105.615 433.986,105.332 433.481,104.827 C432.976,104.322 432.692,103.637 432.692,102.923 Z M445.962,87.695 C447.012,88.746 448.718,88.747 449.771,87.696 C450.823,86.644 450.824,84.939 449.773,83.886 L445.962,80.079 C444.904,79.073 443.236,79.095 442.204,80.127 C441.171,81.159 441.15,82.827 442.156,83.885 Z M465,81.385 C465.714,81.385 466.399,81.101 466.904,80.596 C467.409,80.091 467.692,79.406 467.692,78.692 L467.692,73.308 C467.692,71.821 466.487,70.615 465,70.615 C463.513,70.615 462.308,71.821 462.308,73.308 L462.308,78.692 C462.308,79.406 462.591,80.091 463.096,80.596 C463.601,81.101 464.286,81.385 465,81.385 Z M482.133,88.482 C482.847,88.483 483.533,88.199 484.038,87.695 L487.844,83.885 C488.85,82.827 488.829,81.159 487.796,80.127 C486.764,79.095 485.096,79.073 484.038,80.079 L480.228,83.885 C479.457,84.655 479.227,85.814 479.644,86.82 C480.061,87.827 481.044,88.483 482.133,88.482 Z M486.538,102.923 C486.538,103.637 486.822,104.322 487.327,104.827 C487.832,105.332 488.517,105.615 489.231,105.615 L494.615,105.615 C496.102,105.615 497.308,104.41 497.308,102.923 C497.308,101.436 496.102,100.231 494.615,100.231 L489.231,100.231 C488.517,100.231 487.832,100.514 487.327,101.019 C486.822,101.524 486.538,102.209 486.538,102.923 Z M451.538,105.615 C452.253,105.615 452.937,105.332 453.442,104.827 C453.947,104.322 454.231,103.637 454.231,102.923 C454.231,96.975 459.052,92.154 465,92.154 C470.948,92.154 475.769,96.975 475.769,102.923 C475.769,104.41 476.975,105.615 478.462,105.615 C479.948,105.615 481.154,104.41 481.154,102.923 C481.154,94.002 473.922,86.769 465,86.769 C456.078,86.769 448.846,94.002 448.846,102.923 C448.846,103.637 449.13,104.322 449.635,104.827 C450.14,105.332 450.824,105.615 451.538,105.615 Z M502.325,141.962 C501.846,142.793 500.96,143.306 500,143.308 L430,143.308 C429.04,143.312 428.15,142.805 427.665,141.977 C427.179,141.149 427.171,140.125 427.644,139.289 L441.338,115.059 C441.818,114.21 442.719,113.688 443.694,113.692 L486.303,113.692 C487.278,113.688 488.179,114.21 488.659,115.059 L502.352,139.289 C502.817,140.122 502.807,141.138 502.325,141.962 Z M484.735,119.077 L476.533,119.077 L477.704,124.462 L487.777,124.462 Z M472.195,124.462 L471.024,119.077 L458.976,119.077 L457.805,124.462 Z M456.634,129.846 L454.88,137.923 L475.12,137.923 L473.366,129.846 Z M442.223,124.462 L452.296,124.462 L453.467,119.077 L445.265,119.077 Z M434.614,137.923 L449.368,137.923 L451.125,129.846 L439.181,129.846 Z M495.386,137.923 L490.819,129.846 L478.875,129.846 L480.632,137.923 Z" />
        </g>
        <g id="Black-S">
            <path d="M632.692,102.923 C632.692,102.209 632.976,101.524 633.481,101.019 C633.986,100.514 634.671,100.231 635.385,100.231 L640.769,100.231 C642.256,100.231 643.462,101.436 643.462,102.923 C643.462,104.41 642.256,105.615 640.769,105.615 L635.385,105.615 C634.671,105.615 633.986,105.332 633.481,104.827 C632.976,104.322 632.692,103.637 632.692,102.923 Z M645.962,87.695 C647.012,88.746 648.718,88.747 649.771,87.696 C650.823,86.644 650.824,84.939 649.773,83.886 L645.962,80.079 C644.904,79.073 643.236,79.095 642.204,80.127 C641.171,81.159 641.15,82.827 642.156,83.885 Z M665,81.385 C665.714,81.385 666.399,81.101 666.904,80.596 C667.409,80.091 667.692,79.406 667.692,78.692 L667.692,73.308 C667.692,71.821 666.487,70.615 665,70.615 C663.513,70.615 662.308,71.821 662.308,73.308 L662.308,78.692 C662.308,79.406 662.591,80.091 663.096,80.596 C663.601,81.101 664.286,81.385 665,81.385 Z M682.133,88.482 C682.847,88.483 683.533,88.199 684.038,87.695 L687.844,83.885 C688.85,82.827 688.829,81.159 687.796,80.127 C686.764,79.095 685.096,79.073 684.038,80.079 L680.228,83.885 C679.458,84.655 679.227,85.814 679.644,86.82 C680.061,87.827 681.044,88.483 682.133,88.482 Z M686.538,102.923 C686.538,103.637 686.822,104.322 687.327,104.827 C687.832,105.332 688.517,105.615 689.231,105.615 L694.615,105.615 C696.102,105.615 697.308,104.41 697.308,102.923 C697.308,101.436 696.102,100.231 694.615,100.231 L689.231,100.231 C688.517,100.231 687.832,100.514 687.327,101.019 C686.822,101.524 686.538,102.209 686.538,102.923 Z M651.538,105.615 C652.253,105.615 652.937,105.332 653.442,104.827 C653.947,104.322 654.231,103.637 654.231,102.923 C654.231,96.975 659.052,92.154 665,92.154 C670.948,92.154 675.769,96.975 675.769,102.923 C675.769,104.41 676.975,105.615 678.462,105.615 C679.948,105.615 681.154,104.41 681.154,102.923 C681.154,94.002 673.922,86.769 665,86.769 C656.078,86.769 648.846,94.002 648.846,102.923 C648.846,103.637 649.13,104.322 649.635,104.827 C650.14,105.332 650.824,105.615 651.539,105.615 Z M702.326,141.962 C701.846,142.793 700.96,143.306 700,143.308 L630,143.308 C629.04,143.312 628.15,142.805 627.665,141.977 C627.179,141.149 627.171,140.125 627.644,139.289 L641.338,115.059 C641.818,114.21 642.719,113.688 643.694,113.692 L686.303,113.692 C687.278,113.688 688.179,114.21 688.659,115.059 L702.352,139.289 C702.817,140.122 702.807,141.138 702.326,141.962 Z M684.735,119.077 L676.533,119.077 L677.704,124.462 L687.777,124.462 Z M672.195,124.462 L671.024,119.077 L658.976,119.077 L657.805,124.462 Z M656.634,129.846 L654.88,137.923 L675.12,137.923 L673.366,129.846 Z M642.223,124.462 L652.296,124.462 L653.467,119.077 L645.265,119.077 Z M634.614,137.923 L649.368,137.923 L651.125,129.846 L639.181,129.846 Z M695.386,137.923 L690.819,129.846 L678.875,129.846 L680.632,137.923 Z" />
        </g>
    </g>
</svg>