<?xml version="1.0" encoding="UTF-8"?>
<svg height="600" width="800" xmlns="http://www.w3.org/2000/svg" xmlns:xlink="http://www.w3.org/1999/xlink">
    <g id="Notes" font-family="'LucidaGrande', 'Lucida Grande', sans-serif" font-size="13">
        <rect fill="white" height="600.0" width="800.0" x="0.0" y="0.0" />
        <g font-size="13">
            <text x="18.0" y="176.0">Small</text>
            <text x="18.0" y="376.0">Medium</text>
            <text x="18.0" y="576.0">Large</text>
        </g>
        <g font-size="9">
            <text x="250.0" y="30.0">Ultralight</text>
            <text x="450.0" y="30.0">Regular</text>
            <text x="650.0" y="30.0">Black</text>
            <text id="template-version" fill="#505050" text-anchor="end" x="785.0" y="575.0">Template v.3.0</text>
            <a href="https://github.com/swhitty/SwiftDraw">
                <text fill="#505050" text-anchor="end" x="785.0" y="590.0">https://github.com/swhitty/SwiftDraw</text>
            </a>
        </g>
    </g>
    <g id="Guides" stroke="rgb(39, 170, 225)" stroke-width="0.5">
        <path id="Capline-S" d="M18,76 l800,0" />
        <path id="H-reference" d="M85,145.755 L87.685,145.755 L113.369,79.287 L114.052,79.287 L114.052,76 L112.148,76 L85,145.755 Z M95.693,121.536 L130.996,121.536 L130.263,119.313 L96.474,119.313 L95.693,121.536 Z M139.15,145.755 L141.787,145.755 L114.638,76 L113.466,76 L113.466,79.287 L139.15,145.755 Z" stroke="none" />
        <path id="Baseline-S" d="M18,146 l800,0" />
        <path id="left-margin-Ultralight-S" d="M220,56 l0,110" />
        <path id="right-margin-Ultralight-S" d="M310,56 l0,110" />
        <path id="left-margin-Regular-S" d="M420,56 l0,110" />
        <path id="right-margin-Regular-S" d="M510,56 l0,110" />
        <path id="left-margin-Black-S" d="M620,56 l0,110" />
        <path id="right-margin-Black-S" d="M710,56 l0,110" />
        <path id="Capline-M" d="M18,276 l800,0" />
        <path id="Baseline-M" d="M18,346 l800,0" />
        <path id="Capline-L" d="M18,476 l800,0" />
        <path id="Baseline-L" d="M18,546 l800,0" />
    </g>
    <g id="Symbols">
        <g id="Ultralight-S">
            <path d="M265,127.154 C273.918,127.145 281.145,119.918 281.154,111 L281.154,89.462 C281.154,80.54 273.922,73.308 265,73.308 C256.078,73.308 248.846,80.54 248.846,89.462 L248.846,111 C248.855,119.918 256.082,127.145 265,127.154 Z M254.231,89.462 C254.231,83.514 259.052,78.692 265,78.692 C270.948,78.692 275.769,83.514 275.769,89.462 L275.769,111 C275.769,116.948 270.948,121.769 265,121.769 C259.052,121.769 254.231,116.948 254.231,111 Z M267.692,137.788 L267.692,148.692 C267.692,150.179 266.487,151.385 265,151.385 C263.513,151.385 262.308,150.179 262.308,148.692 L262.308,137.788 C248.559,136.389 238.094,124.82 238.077,111 C238.077,109.513 239.282,108.308 240.769,108.308 C242.256,108.308 243.462,109.513 243.462,111 C243.462,122.895 253.105,132.538 265,132.538 C276.895,132.538 286.538,122.895 286.538,111 C286.538,109.513 287.744,108.308 289.231,108.308 C290.718,108.308 291.923,109.513 291.923,111 C291.906,124.821 281.441,136.39 267.692,137.789 Z" />
        </g>
        <g id="Regular-S">
            <path d="M465,127.154 C473.918,127.145 481.145,119.918 481.154,111 L481.154,89.462 C481.154,80.54 473.922,73.308 465,73.308 C456.078,73.308 448.846,80.54 448.846,89.462 L448.846,111 C448.855,119.918 456.082,127.145 465,127.154 Z M454.231,89.462 C454.231,83.514 459.052,78.692 465,78.692 C470.948,78.692 475.769,83.514 475.769,89.462 L475.769,111 C475.769,116.948 470.948,121.769 465,121.769 C459.052,121.769 454.231,116.948 454.231,111 Z M467.692,137.788 L467.692,148.692 C467.692,150.179 466.487,151.385 465,151.385 C463.513,151.385 462.308,150.179 462.308,148.692 L462.308,137.788 C448.559,136.389 438.094,124.82 438.077,111 C438.077,109.513 439.282,108.308 440.769,108.308 C442.256,108.308 443.462,109.513 443.462,111 C443.462,122.895 453.105,132.538 465,132.538 C476.895,132.538 486.538,122.895 486.538,111 C486.538,109.513 487.744,108.308 489.231,108.308 C490.718,108.308 491.923,109.513 491.923,111 C491.906,124.821 481.441,136.39 467.692,137.789 Z" />
        </g>
        <g id="Black-S">
            <path d="M665,127.154 C673.918,127.145 681.145,119.918 681.154,111 L681.154,89.462 C681.154,80.54 673.922,73.308 665,73.308 C656.078,73.308 648.846,80.54 648.846,89.462 L648.846,111 C648.855,119.918 656.082,127.145 665,127.154 Z M654.231,89.462 C654.231,83.514 659.052,78.692 665,78.692 C670.948,78.692 675.769,83.514 675.769,89.462 L675.769,111 C675.769,116.948 670.948,121.769 665,121.769 C659.052,121.769 654.231,116.948 654.231,111 Z M667.692,137.788 L667.692,148.692 C667.692,150.179 666.487,151.385 665,151.385 C663.513,151.385 662.308,150.179 662.308,148.692 L662.308,137.788 C648.559,136.389 638.094,124.82 638.077,111 C638.077,109.513 639.282,108.308 640.769,108.308 C642.256,108.308 643.462,109.513 643.462,111 C643.462,122.895 653.105,132.538 665,132.538 C676.895,132.538 686.538,122.895 686.538,111 C686.538,109.513 687.744,108.308 689.231,108.308 C690.718,108.308 691.923,109.513 691.923,111 C691.906,124.821 681.441,136.39 667.692,137.789 Z" />
        </g>
    </g>
</svg>