<?xml version="1.0" encoding="UTF-8"?>
<svg height="600" width="800" xmlns="http://www.w3.org/2000/svg" xmlns:xlink="http://www.w3.org/1999/xlink">
    <g id="Notes" font-family="'LucidaGrande', 'Lucida Grande', sans-serif" font-size="13">
        <rect fill="white" height="600.0" width="800.0" x="0.0" y="0.0" />
        <g font-size="13">
            <text x="18.0" y="176.0">Small</text>
            <text x="18.0" y="376.0">Medium</text>
            <text x="18.0" y="576.0">Large</text>
        </g>
        <g font-size="9">
            <text x="250.0" y="30.0">Ultralight</text>
            <text x="450.0" y="30.0">Regular</text>
            <text x="650.0" y="30.0">Black</text>
            <text id="template-version" fill="#505050" text-anchor="end" x="785.0" y="575.0">Template v.3.0</text>
            <a href="https://github.com/swhitty/SwiftDraw">
                <text fill="#505050" text-anchor="end" x="785.0" y="590.0">https://github.com/swhitty/SwiftDraw</text>
            </a>
        </g>
    </g>
    <g id="Guides" stroke="rgb(39, 170, 225)" stroke-width="0.5">
        <path id="Capline-S" d="M18,76 l800,0" />
        <path id="H-reference" d="M85,145.755 L87.685,145.755 L113.369,79.287 L114.052,79.287 L114.052,76 L112.148,76 L85,145.755 Z M95.693,121.536 L130.996,121.536 L130.263,119.313 L96.474,119.313 L95.693,121.536 Z M139.15,145.755 L141.787,145.755 L114.638,76 L113.466,76 L113.466,79.287 L139.15,145.755 Z" stroke="none" />
        <path id="Baseline-S" d="M18,146 l800,0" />
        <path id="left-margin-Ultralight-S" d="M220,56 l0,110" />
        <path id="right-margin-Ultralight-S" d="M310,56 l0,110" />
        <path id="left-margin-Regular-S" d="M420,56 l0,110" />
        <path id="right-margin-Regular-S" d="M510,56 l0,110" />
        <path id="left-margin-Black-S" d="M620,56 l0,110" />
        <path id="right-margin-Black-S" d="M710,56 l0,110" />
        <path id="Capline-M" d="M18,276 l800,0" />
        <path id="Baseline-M" d="M18,346 l800,0" />
        <path id="Capline-L" d="M18,476 l800,0" />
        <path id="Baseline-L" d="M18,546 l800,0" />
    </g>
    <g id="Symbols">
        <g id="Ultralight-S">
            <path d="M265,73.308 C247.165,73.328 232.713,87.781 232.692,105.615 C232.692,113.692 236.919,124.145 244.003,133.548 C251.131,143.022 258.979,148.692 265,148.692 C271.021,148.692 278.869,143.035 285.997,133.548 C293.081,124.125 297.308,113.692 297.308,105.615 C297.287,87.781 282.835,73.328 265,73.308 Z M281.696,130.324 C275.85,138.088 269.143,143.308 265,143.308 C260.857,143.308 254.15,138.088 248.304,130.324 C241.998,121.938 238.077,112.471 238.077,105.615 C238.077,90.746 250.131,78.692 265,78.692 C279.869,78.692 291.923,90.746 291.923,105.615 C291.923,112.471 288.002,121.938 281.696,130.324 Z M262.308,113.692 C262.308,110.122 260.889,106.698 258.365,104.174 C255.84,101.649 252.416,100.231 248.846,100.231 C247.418,100.231 246.048,100.798 245.039,101.808 C244.029,102.818 243.462,104.187 243.462,105.615 C243.462,109.186 244.88,112.61 247.404,115.134 C249.929,117.659 253.353,119.077 256.923,119.077 C259.897,119.077 262.308,116.666 262.308,113.692 Z M248.846,105.615 C250.988,105.615 253.043,106.466 254.557,107.981 C256.072,109.496 256.923,111.55 256.923,113.692 L256.923,113.692 C254.781,113.692 252.727,112.841 251.212,111.327 C249.697,109.812 248.846,107.758 248.846,105.615 Z M281.154,100.231 C277.584,100.231 274.16,101.649 271.635,104.174 C269.111,106.698 267.692,110.122 267.692,113.692 C267.692,115.12 268.26,116.49 269.269,117.5 C270.279,118.51 271.649,119.077 273.077,119.077 C276.647,119.077 280.071,117.659 282.596,115.134 C285.12,112.61 286.538,109.186 286.538,105.615 C286.538,104.187 285.971,102.818 284.961,101.808 C283.952,100.798 282.582,100.231 281.154,100.231 Z M273.077,113.692 C273.077,111.55 273.928,109.496 275.443,107.981 C276.957,106.466 279.012,105.615 281.154,105.615 C281.154,107.758 280.303,109.812 278.788,111.327 C277.273,112.841 275.219,113.692 273.077,113.692 Z M273.077,129.846 C273.077,130.56 272.793,131.245 272.288,131.75 C271.783,132.255 271.099,132.538 270.385,132.538 L259.615,132.538 C258.128,132.538 256.923,131.333 256.923,129.846 C256.923,128.359 258.128,127.154 259.615,127.154 L270.385,127.154 C271.099,127.154 271.783,127.438 272.288,127.942 C272.793,128.447 273.077,129.132 273.077,129.846 Z" />
        </g>
        <g id="Regular-S">
            <path d="M465,73.308 C447.165,73.328 432.713,87.781 432.692,105.615 C432.692,113.692 436.919,124.145 444.003,133.548 C451.131,143.022 458.979,148.692 465,148.692 C471.021,148.692 478.869,143.035 485.997,133.548 C493.081,124.125 497.308,113.692 497.308,105.615 C497.287,87.781 482.835,73.328 465,73.308 Z M481.696,130.324 C475.85,138.088 469.143,143.308 465,143.308 C460.857,143.308 454.15,138.088 448.304,130.324 C441.998,121.938 438.077,112.471 438.077,105.615 C438.077,90.746 450.131,78.692 465,78.692 C479.869,78.692 491.923,90.746 491.923,105.615 C491.923,112.471 488.002,121.938 481.696,130.324 Z M462.308,113.692 C462.308,110.122 460.889,106.698 458.365,104.174 C455.84,101.649 452.416,100.231 448.846,100.231 C447.418,100.231 446.048,100.798 445.039,101.808 C444.029,102.818 443.462,104.187 443.462,105.615 C443.462,109.186 444.88,112.61 447.404,115.134 C449.929,117.659 453.353,119.077 456.923,119.077 C459.897,119.077 462.308,116.666 462.308,113.692 Z M448.846,105.615 C450.988,105.615 453.043,106.466 454.557,107.981 C456.072,109.496 456.923,111.55 456.923,113.692 L456.923,113.692 C454.781,113.692 452.727,112.841 451.212,111.327 C449.697,109.812 448.846,107.758 448.846,105.615 Z M481.154,100.231 C477.584,100.231 474.16,101.649 471.635,104.174 C469.111,106.698 467.692,110.122 467.692,113.692 C467.692,115.12 468.26,116.49 469.269,117.5 C470.279,118.51 471.649,119.077 473.077,119.077 C476.647,119.077 480.071,117.659 482.596,115.134 C485.12,112.61 486.538,109.186 486.538,105.615 C486.538,104.187 485.971,102.818 484.961,101.808 C483.952,100.798 482.582,100.231 481.154,100.231 Z M473.077,113.692 C473.077,111.55 473.928,109.496 475.443,107.981 C476.957,106.466 479.012,105.615 481.154,105.615 C481.154,107.758 480.303,109.812 478.788,111.327 C477.273,112.841 475.219,113.692 473.077,113.692 Z M473.077,129.846 C473.077,130.56 472.793,131.245 472.288,131.75 C471.783,132.255 471.099,132.538 470.385,132.538 L459.615,132.538 C458.128,132.538 456.923,131.333 456.923,129.846 C456.923,128.359 458.128,127.154 459.615,127.154 L470.385,127.154 C471.099,127.154 471.783,127.438 472.288,127.942 C472.793,128.447 473.077,129.132 473.077,129.846 Z" />
        </g>
        <g id="Black-S">
            <path d="M665,73.308 C647.165,73.328 632.713,87.781 632.692,105.615 C632.692,113.692 636.919,124.145 644.003,133.548 C651.131,143.022 658.979,148.692 665,148.692 C671.021,148.692 678.869,143.035 685.997,133.548 C693.081,124.125 697.308,113.692 697.308,105.615 C697.287,87.781 682.835,73.328 665,73.308 Z M681.696,130.324 C675.85,138.088 669.143,143.308 665,143.308 C660.857,143.308 654.15,138.088 648.304,130.324 C641.998,121.938 638.077,112.471 638.077,105.615 C638.077,90.746 650.131,78.692 665,78.692 C679.869,78.692 691.923,90.746 691.923,105.615 C691.923,112.471 688.002,121.938 681.696,130.324 Z M662.308,113.692 C662.308,110.122 660.889,106.698 658.365,104.174 C655.84,101.649 652.416,100.231 648.846,100.231 C647.418,100.231 646.048,100.798 645.039,101.808 C644.029,102.818 643.462,104.187 643.462,105.615 C643.462,109.186 644.88,112.61 647.404,115.134 C649.929,117.659 653.353,119.077 656.923,119.077 C659.897,119.077 662.308,116.666 662.308,113.692 Z M648.846,105.615 C650.988,105.615 653.043,106.466 654.557,107.981 C656.072,109.496 656.923,111.55 656.923,113.692 L656.923,113.692 C654.781,113.692 652.727,112.841 651.212,111.327 C649.697,109.812 648.846,107.758 648.846,105.615 Z M681.154,100.231 C677.584,100.231 674.16,101.649 671.635,104.174 C669.111,106.698 667.692,110.122 667.692,113.692 C667.692,115.12 668.26,116.49 669.269,117.5 C670.279,118.51 671.649,119.077 673.077,119.077 C676.647,119.077 680.071,117.659 682.596,115.134 C685.12,112.61 686.538,109.186 686.538,105.615 C686.538,104.187 685.971,102.818 684.961,101.808 C683.952,100.798 682.582,100.231 681.154,100.231 Z M673.077,113.692 C673.077,111.55 673.928,109.496 675.443,107.981 C676.957,106.466 679.012,105.615 681.154,105.615 C681.154,107.758 680.303,109.812 678.788,111.327 C677.273,112.841 675.219,113.692 673.077,113.692 Z M673.077,129.846 C673.077,130.56 672.793,131.245 672.288,131.75 C671.783,132.255 671.099,132.538 670.385,132.538 L659.615,132.538 C658.128,132.538 656.923,131.333 656.923,129.846 C656.923,128.359 658.128,127.154 659.615,127.154 L670.385,127.154 C671.099,127.154 671.783,127.438 672.288,127.942 C672.793,128.447 673.077,129.132 673.077,129.846 Z" />
        </g>
    </g>
</svg>