<?xml version="1.0" encoding="UTF-8"?>
<svg height="600" width="800" xmlns="http://www.w3.org/2000/svg" xmlns:xlink="http://www.w3.org/1999/xlink">
    <g id="Notes" font-family="'LucidaGrande', 'Lucida Grande', sans-serif" font-size="13">
        <rect fill="white" height="600.0" width="800.0" x="0.0" y="0.0" />
        <g font-size="13">
            <text x="18.0" y="176.0">Small</text>
            <text x="18.0" y="376.0">Medium</text>
            <text x="18.0" y="576.0">Large</text>
        </g>
        <g font-size="9">
            <text x="250.0" y="30.0">Ultralight</text>
            <text x="450.0" y="30.0">Regular</text>
            <text x="650.0" y="30.0">Black</text>
            <text id="template-version" fill="#505050" text-anchor="end" x="785.0" y="575.0">Template v.3.0</text>
            <a href="https://github.com/swhitty/SwiftDraw">
                <text fill="#505050" text-anchor="end" x="785.0" y="590.0">https://github.com/swhitty/SwiftDraw</text>
            </a>
        </g>
    </g>
    <g id="Guides" stroke="rgb(39, 170, 225)" stroke-width="0.5">
        <path id="Capline-S" d="M18,76 l800,0" />
        <path id="H-reference" d="M85,145.755 L87.685,145.755 L113.369,79.287 L114.052,79.287 L114.052,76 L112.148,76 L85,145.755 Z M95.693,121.536 L130.996,121.536 L130.263,119.313 L96.474,119.313 L95.693,121.536 Z M139.15,145.755 L141.787,145.755 L114.638,76 L113.466,76 L113.466,79.287 L139.15,145.755 Z" stroke="none" />
        <path id="Baseline-S" d="M18,146 l800,0" />
        <path id="left-margin-Ultralight-S" d="M220,56 l0,110" />
        <path id="right-margin-Ultralight-S" d="M310,56 l0,110" />
        <path id="left-margin-Regular-S" d="M420,56 l0,110" />
        <path id="right-margin-Regular-S" d="M510,56 l0,110" />
        <path id="left-margin-Black-S" d="M620,56 l0,110" />
        <path id="right-margin-Black-S" d="M710,56 l0,110" />
        <path id="Capline-M" d="M18,276 l800,0" />
        <path id="Baseline-M" d="M18,346 l800,0" />
        <path id="Capline-L" d="M18,476 l800,0" />
        <path id="Baseline-L" d="M18,546 l800,0" />
    </g>
    <g id="Symbols">
        <g id="Ultralight-S">
            <path d="M297.308,143.308 C297.308,144.022 297.024,144.707 296.519,145.211 C296.014,145.716 295.329,146 294.615,146 L235.385,146 C233.898,146 232.692,144.795 232.692,143.308 C232.692,141.821 233.898,140.615 235.385,140.615 L294.615,140.615 C295.329,140.615 296.014,140.899 296.519,141.404 C297.024,141.909 297.308,142.594 297.308,143.308 Z M297.308,116.385 L297.308,129.846 C297.308,131.274 296.74,132.644 295.731,133.654 C294.721,134.663 293.351,135.231 291.923,135.231 L238.077,135.231 C236.649,135.231 235.279,134.663 234.269,133.654 C233.26,132.644 232.692,131.274 232.692,129.846 L232.692,116.385 C232.692,114.957 233.26,113.587 234.269,112.577 C235.279,111.567 236.649,111 238.077,111 L257.068,111 L251.781,86.335 C251.099,83.155 251.89,79.838 253.934,77.308 C255.978,74.779 259.056,73.309 262.308,73.308 L267.692,73.308 C270.945,73.308 274.023,74.777 276.068,77.307 C278.113,79.837 278.905,83.155 278.223,86.335 L272.932,111 L291.923,111 C293.351,111 294.721,111.567 295.731,112.577 C296.74,113.587 297.308,114.957 297.308,116.385 Z M262.574,111 L267.426,111 L272.956,85.204 C273.296,83.615 272.9,81.956 271.878,80.692 C270.856,79.428 269.318,78.693 267.692,78.692 L262.308,78.692 C260.681,78.692 259.142,79.426 258.119,80.691 C257.097,81.955 256.7,83.614 257.041,85.204 Z M291.923,129.846 L291.923,116.385 L238.077,116.385 L238.077,129.846 L291.923,129.846 Z" />
        </g>
        <g id="Regular-S">
            <path d="M497.308,143.308 C497.308,144.022 497.024,144.707 496.519,145.211 C496.014,145.716 495.329,146 494.615,146 L435.385,146 C433.898,146 432.692,144.795 432.692,143.308 C432.692,141.821 433.898,140.615 435.385,140.615 L494.615,140.615 C495.329,140.615 496.014,140.899 496.519,141.404 C497.024,141.909 497.308,142.594 497.308,143.308 Z M497.308,116.385 L497.308,129.846 C497.308,131.274 496.74,132.644 495.731,133.654 C494.721,134.663 493.351,135.231 491.923,135.231 L438.077,135.231 C436.649,135.231 435.279,134.663 434.269,133.654 C433.26,132.644 432.692,131.274 432.692,129.846 L432.692,116.385 C432.692,114.957 433.26,113.587 434.269,112.577 C435.279,111.567 436.649,111 438.077,111 L457.068,111 L451.781,86.335 C451.099,83.155 451.89,79.838 453.934,77.308 C455.978,74.779 459.056,73.309 462.308,73.308 L467.692,73.308 C470.945,73.308 474.023,74.777 476.068,77.307 C478.113,79.837 478.905,83.155 478.223,86.335 L472.932,111 L491.923,111 C493.351,111 494.721,111.567 495.731,112.577 C496.74,113.587 497.308,114.957 497.308,116.385 Z M462.574,111 L467.426,111 L472.956,85.204 C473.296,83.615 472.9,81.956 471.878,80.692 C470.856,79.428 469.318,78.693 467.692,78.692 L462.308,78.692 C460.681,78.692 459.142,79.426 458.119,80.691 C457.097,81.955 456.7,83.614 457.041,85.204 Z M491.923,129.846 L491.923,116.385 L438.077,116.385 L438.077,129.846 L491.923,129.846 Z" />
        </g>
        <g id="Black-S">
            <path d="M697.308,143.308 C697.308,144.022 697.024,144.707 696.519,145.211 C696.014,145.716 695.329,146 694.615,146 L635.385,146 C633.898,146 632.692,144.795 632.692,143.308 C632.692,141.821 633.898,140.615 635.385,140.615 L694.615,140.615 C695.329,140.615 696.014,140.899 696.519,141.404 C697.024,141.909 697.308,142.594 697.308,143.308 Z M697.308,116.385 L697.308,129.846 C697.308,131.274 696.74,132.644 695.731,133.654 C694.721,134.663 693.351,135.231 691.923,135.231 L638.077,135.231 C636.649,135.231 635.279,134.663 634.269,133.654 C633.26,132.644 632.692,131.274 632.692,129.846 L632.692,116.385 C632.692,114.957 633.26,113.587 634.269,112.577 C635.279,111.567 636.649,111 638.077,111 L657.068,111 L651.781,86.335 C651.099,83.155 651.89,79.838 653.934,77.308 C655.978,74.779 659.056,73.309 662.308,73.308 L667.692,73.308 C670.945,73.308 674.023,74.777 676.068,77.307 C678.113,79.837 678.905,83.155 678.223,86.335 L672.932,111 L691.923,111 C693.351,111 694.721,111.567 695.731,112.577 C696.74,113.587 697.308,114.957 697.308,116.385 Z M662.574,111 L667.426,111 L672.956,85.204 C673.296,83.615 672.9,81.956 671.878,80.692 C670.856,79.428 669.318,78.693 667.692,78.692 L662.308,78.692 C660.681,78.692 659.142,79.426 658.12,80.691 C657.097,81.955 656.7,83.614 657.041,85.204 Z M691.923,129.846 L691.923,116.385 L638.077,116.385 L638.077,129.846 L691.923,129.846 Z" />
        </g>
    </g>
</svg>