<?xml version="1.0" encoding="UTF-8"?>
<svg height="600" width="800" xmlns="http://www.w3.org/2000/svg" xmlns:xlink="http://www.w3.org/1999/xlink">
    <g id="Notes" font-family="'LucidaGrande', 'Lucida Grande', sans-serif" font-size="13">
        <rect fill="white" height="600.0" width="800.0" x="0.0" y="0.0" />
        <g font-size="13">
            <text x="18.0" y="176.0">Small</text>
            <text x="18.0" y="376.0">Medium</text>
            <text x="18.0" y="576.0">Large</text>
        </g>
        <g font-size="9">
            <text x="250.0" y="30.0">Ultralight</text>
            <text x="450.0" y="30.0">Regular</text>
            <text x="650.0" y="30.0">Black</text>
            <text id="template-version" fill="#505050" text-anchor="end" x="785.0" y="575.0">Template v.3.0</text>
            <a href="https://github.com/swhitty/SwiftDraw">
                <text fill="#505050" text-anchor="end" x="785.0" y="590.0">https://github.com/swhitty/SwiftDraw</text>
            </a>
        </g>
    </g>
    <g id="Guides" stroke="rgb(39, 170, 225)" stroke-width="0.5">
        <path id="Capline-S" d="M18,76 l800,0" />
        <path id="H-reference" d="M85,145.755 L87.685,145.755 L113.369,79.287 L114.052,79.287 L114.052,76 L112.148,76 L85,145.755 Z M95.693,121.536 L130.996,121.536 L130.263,119.313 L96.474,119.313 L95.693,121.536 Z M139.15,145.755 L141.787,145.755 L114.638,76 L113.466,76 L113.466,79.287 L139.15,145.755 Z" stroke="none" />
        <path id="Baseline-S" d="M18,146 l800,0" />
        <path id="left-margin-Ultralight-S" d="M220,56 l0,110" />
        <path id="right-margin-Ultralight-S" d="M310,56 l0,110" />
        <path id="left-margin-Regular-S" d="M420,56 l0,110" />
        <path id="right-margin-Regular-S" d="M510,56 l0,110" />
        <path id="left-margin-Black-S" d="M620,56 l0,110" />
        <path id="right-margin-Black-S" d="M710,56 l0,110" />
        <path id="Capline-M" d="M18,276 l800,0" />
        <path id="Baseline-M" d="M18,346 l800,0" />
        <path id="Capline-L" d="M18,476 l800,0" />
        <path id="Baseline-L" d="M18,546 l800,0" />
    </g>
    <g id="Symbols">
        <g id="Ultralight-S">
            <path d="M280.79,120.423 C277.327,126.41 271.573,129.846 265,129.846 C258.427,129.846 252.673,126.413 249.206,120.423 C248.463,119.134 248.905,117.487 250.193,116.744 C251.481,116.001 253.128,116.443 253.871,117.732 C256.382,122.076 260.333,124.462 265,124.462 C269.668,124.462 273.619,122.073 276.133,117.732 C276.592,116.855 277.493,116.301 278.482,116.287 C279.471,116.274 280.388,116.804 280.87,117.667 C281.352,118.531 281.321,119.589 280.791,120.424 Z M300,111 C300.002,114.485 299.485,117.951 298.466,121.284 C298.336,121.705 298.105,122.087 297.792,122.398 L276.399,143.792 C276.09,144.105 275.708,144.336 275.288,144.465 C260.845,148.907 245.182,143.578 236.444,131.249 C227.707,118.92 227.868,102.376 236.845,90.22 C245.821,78.064 261.585,73.042 275.939,77.765 C290.293,82.487 299.995,95.889 300,111 Z M294.615,111 C294.6,98.295 286.472,87.019 274.424,82.987 C262.376,78.955 249.099,83.068 241.439,93.204 C233.779,103.34 233.448,117.235 240.616,127.725 C247.784,138.215 260.85,142.955 273.077,139.501 L293.501,119.077 C294.243,116.449 294.618,113.731 294.615,111 Z M252.885,108.308 C255.115,108.308 256.923,106.5 256.923,104.269 C256.923,102.039 255.115,100.231 252.885,100.231 C250.654,100.231 248.846,102.039 248.846,104.269 C248.846,105.34 249.272,106.368 250.029,107.125 C250.786,107.882 251.814,108.308 252.885,108.308 Z M277.115,100.231 C274.885,100.231 273.077,102.039 273.077,104.269 C273.077,106.5 274.885,108.308 277.115,108.308 C279.346,108.308 281.154,106.5 281.154,104.269 C281.154,103.198 280.728,102.171 279.971,101.414 C279.214,100.656 278.186,100.231 277.115,100.231 Z" />
        </g>
        <g id="Regular-S">
            <path d="M480.79,120.423 C477.327,126.41 471.573,129.846 465,129.846 C458.427,129.846 452.673,126.413 449.206,120.423 C448.463,119.134 448.905,117.487 450.193,116.744 C451.481,116.001 453.128,116.443 453.871,117.732 C456.382,122.076 460.333,124.462 465,124.462 C469.668,124.462 473.619,122.073 476.133,117.732 C476.592,116.855 477.493,116.301 478.482,116.287 C479.471,116.274 480.388,116.804 480.87,117.667 C481.352,118.531 481.321,119.589 480.791,120.424 Z M500,111 C500.002,114.485 499.485,117.951 498.466,121.284 C498.336,121.705 498.104,122.087 497.792,122.398 L476.399,143.792 C476.09,144.105 475.708,144.336 475.288,144.465 C460.845,148.907 445.182,143.578 436.444,131.249 C427.707,118.92 427.868,102.376 436.845,90.22 C445.821,78.064 461.585,73.042 475.939,77.765 C490.293,82.487 499.995,95.889 500,111 Z M494.615,111 C494.6,98.295 486.472,87.019 474.424,82.987 C462.376,78.955 449.099,83.068 441.439,93.204 C433.779,103.34 433.448,117.235 440.616,127.725 C447.784,138.215 460.85,142.955 473.077,139.501 L493.501,119.077 C494.243,116.449 494.618,113.731 494.615,111 Z M452.885,108.308 C455.115,108.308 456.923,106.5 456.923,104.269 C456.923,102.039 455.115,100.231 452.885,100.231 C450.654,100.231 448.846,102.039 448.846,104.269 C448.846,105.34 449.272,106.368 450.029,107.125 C450.786,107.882 451.814,108.308 452.885,108.308 Z M477.115,100.231 C474.885,100.231 473.077,102.039 473.077,104.269 C473.077,106.5 474.885,108.308 477.115,108.308 C479.346,108.308 481.154,106.5 481.154,104.269 C481.154,103.198 480.728,102.171 479.971,101.414 C479.214,100.656 478.186,100.231 477.115,100.231 Z" />
        </g>
        <g id="Black-S">
            <path d="M680.79,120.423 C677.327,126.41 671.573,129.846 665,129.846 C658.427,129.846 652.673,126.413 649.206,120.423 C648.463,119.134 648.905,117.487 650.193,116.744 C651.481,116.001 653.128,116.443 653.871,117.732 C656.382,122.076 660.333,124.462 665,124.462 C669.668,124.462 673.619,122.073 676.133,117.732 C676.592,116.855 677.493,116.301 678.482,116.287 C679.471,116.274 680.388,116.804 680.87,117.667 C681.352,118.531 681.321,119.589 680.791,120.424 Z M700,111 C700.002,114.485 699.485,117.951 698.466,121.284 C698.336,121.705 698.105,122.087 697.792,122.398 L676.399,143.792 C676.09,144.105 675.708,144.336 675.288,144.465 C660.845,148.907 645.182,143.578 636.444,131.249 C627.707,118.92 627.868,102.376 636.845,90.22 C645.821,78.064 661.585,73.042 675.939,77.765 C690.293,82.487 699.995,95.889 700,111 Z M694.615,111 C694.6,98.295 686.472,87.019 674.424,82.987 C662.376,78.955 649.099,83.068 641.439,93.204 C633.779,103.34 633.448,117.235 640.616,127.725 C647.784,138.215 660.851,142.955 673.077,139.501 L693.501,119.077 C694.243,116.449 694.618,113.731 694.615,111 Z M652.885,108.308 C655.115,108.308 656.923,106.5 656.923,104.269 C656.923,102.039 655.115,100.231 652.885,100.231 C650.654,100.231 648.846,102.039 648.846,104.269 C648.846,105.34 649.272,106.368 650.029,107.125 C650.786,107.882 651.814,108.308 652.885,108.308 Z M677.115,100.231 C674.885,100.231 673.077,102.039 673.077,104.269 C673.077,106.5 674.885,108.308 677.115,108.308 C679.346,108.308 681.154,106.5 681.154,104.269 C681.154,103.198 680.728,102.171 679.971,101.414 C679.214,100.656 678.186,100.231 677.115,100.231 Z" />
        </g>
    </g>
</svg>