<?xml version="1.0" encoding="UTF-8"?>
<svg height="600" width="800" xmlns="http://www.w3.org/2000/svg" xmlns:xlink="http://www.w3.org/1999/xlink">
    <g id="Notes" font-family="'LucidaGrande', 'Lucida Grande', sans-serif" font-size="13">
        <rect fill="white" height="600.0" width="800.0" x="0.0" y="0.0" />
        <g font-size="13">
            <text x="18.0" y="176.0">Small</text>
            <text x="18.0" y="376.0">Medium</text>
            <text x="18.0" y="576.0">Large</text>
        </g>
        <g font-size="9">
            <text x="250.0" y="30.0">Ultralight</text>
            <text x="450.0" y="30.0">Regular</text>
            <text x="650.0" y="30.0">Black</text>
            <text id="template-version" fill="#505050" text-anchor="end" x="785.0" y="575.0">Template v.3.0</text>
            <a href="https://github.com/swhitty/SwiftDraw">
                <text fill="#505050" text-anchor="end" x="785.0" y="590.0">https://github.com/swhitty/SwiftDraw</text>
            </a>
        </g>
    </g>
    <g id="Guides" stroke="rgb(39, 170, 225)" stroke-width="0.5">
        <path id="Capline-S" d="M18,76 l800,0" />
        <path id="H-reference" d="M85,145.755 L87.685,145.755 L113.369,79.287 L114.052,79.287 L114.052,76 L112.148,76 L85,145.755 Z M95.693,121.536 L130.996,121.536 L130.263,119.313 L96.474,119.313 L95.693,121.536 Z M139.15,145.755 L141.787,145.755 L114.638,76 L113.466,76 L113.466,79.287 L139.15,145.755 Z" stroke="none" />
        <path id="Baseline-S" d="M18,146 l800,0" />
        <path id="left-margin-Ultralight-S" d="M220,56 l0,110" />
        <path id="right-margin-Ultralight-S" d="M310,56 l0,110" />
        <path id="left-margin-Regular-S" d="M420,56 l0,110" />
        <path id="right-margin-Regular-S" d="M510,56 l0,110" />
        <path id="left-margin-Black-S" d="M620,56 l0,110" />
        <path id="right-margin-Black-S" d="M710,56 l0,110" />
        <path id="Capline-M" d="M18,276 l800,0" />
        <path id="Baseline-M" d="M18,346 l800,0" />
        <path id="Capline-L" d="M18,476 l800,0" />
        <path id="Baseline-L" d="M18,546 l800,0" />
    </g>
    <g id="Symbols">
        <g id="Ultralight-S">
            <path d="M291.923,119.077 L238.077,119.077 C236.649,119.077 235.279,119.644 234.269,120.654 C233.26,121.664 232.692,123.033 232.692,124.462 L232.692,132.538 C232.692,133.967 233.26,135.336 234.269,136.346 C235.279,137.356 236.649,137.923 238.077,137.923 L291.923,137.923 C293.351,137.923 294.721,137.356 295.731,136.346 C296.74,135.336 297.308,133.967 297.308,132.538 L297.308,124.462 C297.308,123.033 296.74,121.664 295.731,120.654 C294.721,119.644 293.351,119.077 291.923,119.077 Z M291.923,132.538 L238.077,132.538 L238.077,124.462 L291.923,124.462 Z M238.158,113.692 L291.842,113.692 C294.024,113.703 296.001,112.41 296.867,110.408 C297.723,108.454 297.31,106.176 295.824,104.646 L271.011,78.561 C269.439,76.925 267.269,76 265,76 C262.731,76 260.561,76.925 258.989,78.561 L234.176,104.646 L234.176,104.646 C232.69,106.176 232.277,108.454 233.133,110.408 C233.999,112.41 235.976,113.703 238.158,113.692 Z M262.89,82.273 C263.445,81.705 264.206,81.385 265,81.385 C265.794,81.385 266.555,81.705 267.11,82.273 L291.873,108.308 L238.124,108.308 Z" />
        </g>
        <g id="Regular-S">
            <path d="M491.923,119.077 L438.077,119.077 C436.649,119.077 435.279,119.644 434.269,120.654 C433.26,121.664 432.692,123.033 432.692,124.462 L432.692,132.538 C432.692,133.967 433.26,135.336 434.269,136.346 C435.279,137.356 436.649,137.923 438.077,137.923 L491.923,137.923 C493.351,137.923 494.721,137.356 495.731,136.346 C496.74,135.336 497.308,133.967 497.308,132.538 L497.308,124.462 C497.308,123.033 496.74,121.664 495.731,120.654 C494.721,119.644 493.351,119.077 491.923,119.077 Z M491.923,132.538 L438.077,132.538 L438.077,124.462 L491.923,124.462 Z M438.158,113.692 L491.842,113.692 C494.024,113.703 496.001,112.41 496.867,110.408 C497.723,108.454 497.31,106.176 495.824,104.646 L471.011,78.561 C469.439,76.925 467.269,76 465,76 C462.731,76 460.561,76.925 458.989,78.561 L434.176,104.646 L434.176,104.646 C432.69,106.176 432.277,108.454 433.133,110.408 C433.999,112.41 435.976,113.703 438.158,113.692 Z M462.89,82.273 C463.445,81.705 464.206,81.385 465,81.385 C465.794,81.385 466.555,81.705 467.11,82.273 L491.873,108.308 L438.124,108.308 Z" />
        </g>
        <g id="Black-S">
            <path d="M691.923,119.077 L638.077,119.077 C636.649,119.077 635.279,119.644 634.269,120.654 C633.26,121.664 632.692,123.033 632.692,124.462 L632.692,132.538 C632.692,133.967 633.26,135.336 634.269,136.346 C635.279,137.356 636.649,137.923 638.077,137.923 L691.923,137.923 C693.351,137.923 694.721,137.356 695.731,136.346 C696.74,135.336 697.308,133.967 697.308,132.538 L697.308,124.462 C697.308,123.033 696.74,121.664 695.731,120.654 C694.721,119.644 693.351,119.077 691.923,119.077 Z M691.923,132.538 L638.077,132.538 L638.077,124.462 L691.923,124.462 Z M638.158,113.692 L691.842,113.692 C694.024,113.703 696.001,112.41 696.867,110.408 C697.723,108.454 697.31,106.176 695.824,104.646 L671.011,78.561 C669.439,76.925 667.269,76 665,76 C662.731,76 660.561,76.925 658.989,78.561 L634.176,104.646 L634.176,104.646 C632.69,106.176 632.277,108.454 633.133,110.408 C633.999,112.41 635.976,113.703 638.158,113.692 Z M662.89,82.273 C663.445,81.705 664.206,81.385 665,81.385 C665.794,81.385 666.555,81.705 667.11,82.273 L691.873,108.308 L638.124,108.308 Z" />
        </g>
    </g>
</svg>