<?xml version="1.0" encoding="UTF-8"?>
<svg height="600" width="800" xmlns="http://www.w3.org/2000/svg" xmlns:xlink="http://www.w3.org/1999/xlink">
    <g id="Notes" font-family="'LucidaGrande', 'Lucida Grande', sans-serif" font-size="13">
        <rect fill="white" height="600.0" width="800.0" x="0.0" y="0.0" />
        <g font-size="13">
            <text x="18.0" y="176.0">Small</text>
            <text x="18.0" y="376.0">Medium</text>
            <text x="18.0" y="576.0">Large</text>
        </g>
        <g font-size="9">
            <text x="250.0" y="30.0">Ultralight</text>
            <text x="450.0" y="30.0">Regular</text>
            <text x="650.0" y="30.0">Black</text>
            <text id="template-version" fill="#505050" text-anchor="end" x="785.0" y="575.0">Template v.3.0</text>
            <a href="https://github.com/swhitty/SwiftDraw">
                <text fill="#505050" text-anchor="end" x="785.0" y="590.0">https://github.com/swhitty/SwiftDraw</text>
            </a>
        </g>
    </g>
    <g id="Guides" stroke="rgb(39, 170, 225)" stroke-width="0.5">
        <path id="Capline-S" d="M18,76 l800,0" />
        <path id="H-reference" d="M85,145.755 L87.685,145.755 L113.369,79.287 L114.052,79.287 L114.052,76 L112.148,76 L85,145.755 Z M95.693,121.536 L130.996,121.536 L130.263,119.313 L96.474,119.313 L95.693,121.536 Z M139.15,145.755 L141.787,145.755 L114.638,76 L113.466,76 L113.466,79.287 L139.15,145.755 Z" stroke="none" />
        <path id="Baseline-S" d="M18,146 l800,0" />
        <path id="left-margin-Ultralight-S" d="M220,56 l0,110" />
        <path id="right-margin-Ultralight-S" d="M310,56 l0,110" />
        <path id="left-margin-Regular-S" d="M420,56 l0,110" />
        <path id="right-margin-Regular-S" d="M510,56 l0,110" />
        <path id="left-margin-Black-S" d="M620,56 l0,110" />
        <path id="right-margin-Black-S" d="M710,56 l0,110" />
        <path id="Capline-M" d="M18,276 l800,0" />
        <path id="Baseline-M" d="M18,346 l800,0" />
        <path id="Capline-L" d="M18,476 l800,0" />
        <path id="Baseline-L" d="M18,546 l800,0" />
    </g>
    <g id="Symbols">
        <g id="Ultralight-S">
            <path d="M283.846,121.769 L278.462,121.769 L278.462,84.077 C278.462,82.933 277.74,81.913 276.661,81.534 C275.581,81.156 274.38,81.5 273.666,82.394 L241.358,122.779 C240.711,123.587 240.585,124.695 241.033,125.628 C241.482,126.561 242.426,127.154 243.462,127.154 L273.077,127.154 L273.077,137.923 C273.077,139.41 274.282,140.615 275.769,140.615 C277.256,140.615 278.462,139.41 278.462,137.923 L278.462,127.154 L283.846,127.154 C285.333,127.154 286.538,125.948 286.538,124.462 C286.538,122.975 285.333,121.769 283.846,121.769 Z M273.077,121.769 L249.062,121.769 L273.077,91.753 Z" />
        </g>
        <g id="Regular-S">
            <path d="M483.846,121.769 L478.462,121.769 L478.462,84.077 C478.462,82.933 477.74,81.913 476.661,81.534 C475.581,81.156 474.38,81.5 473.666,82.394 L441.358,122.779 C440.711,123.587 440.585,124.695 441.033,125.628 C441.482,126.561 442.426,127.154 443.462,127.154 L473.077,127.154 L473.077,137.923 C473.077,139.41 474.282,140.615 475.769,140.615 C477.256,140.615 478.462,139.41 478.462,137.923 L478.462,127.154 L483.846,127.154 C485.333,127.154 486.538,125.948 486.538,124.462 C486.538,122.975 485.333,121.769 483.846,121.769 Z M473.077,121.769 L449.062,121.769 L473.077,91.753 Z" />
        </g>
        <g id="Black-S">
            <path d="M683.846,121.769 L678.462,121.769 L678.462,84.077 C678.462,82.933 677.74,81.913 676.661,81.534 C675.581,81.156 674.38,81.5 673.666,82.394 L641.358,122.779 C640.711,123.587 640.585,124.695 641.033,125.628 C641.482,126.561 642.426,127.154 643.462,127.154 L673.077,127.154 L673.077,137.923 C673.077,139.41 674.282,140.615 675.769,140.615 C677.256,140.615 678.462,139.41 678.462,137.923 L678.462,127.154 L683.846,127.154 C685.333,127.154 686.538,125.948 686.538,124.462 C686.538,122.975 685.333,121.769 683.846,121.769 Z M673.077,121.769 L649.062,121.769 L673.077,91.753 Z" />
        </g>
    </g>
</svg>