<?xml version="1.0" encoding="UTF-8"?>
<svg height="600" width="800" xmlns="http://www.w3.org/2000/svg" xmlns:xlink="http://www.w3.org/1999/xlink">
    <g id="Notes" font-family="'LucidaGrande', 'Lucida Grande', sans-serif" font-size="13">
        <rect fill="white" height="600.0" width="800.0" x="0.0" y="0.0" />
        <g font-size="13">
            <text x="18.0" y="176.0">Small</text>
            <text x="18.0" y="376.0">Medium</text>
            <text x="18.0" y="576.0">Large</text>
        </g>
        <g font-size="9">
            <text x="250.0" y="30.0">Ultralight</text>
            <text x="450.0" y="30.0">Regular</text>
            <text x="650.0" y="30.0">Black</text>
            <text id="template-version" fill="#505050" text-anchor="end" x="785.0" y="575.0">Template v.3.0</text>
            <a href="https://github.com/swhitty/SwiftDraw">
                <text fill="#505050" text-anchor="end" x="785.0" y="590.0">https://github.com/swhitty/SwiftDraw</text>
            </a>
        </g>
    </g>
    <g id="Guides" stroke="rgb(39, 170, 225)" stroke-width="0.5">
        <path id="Capline-S" d="M18,76 l800,0" />
        <path id="H-reference" d="M85,145.755 L87.685,145.755 L113.369,79.287 L114.052,79.287 L114.052,76 L112.148,76 L85,145.755 Z M95.693,121.536 L130.996,121.536 L130.263,119.313 L96.474,119.313 L95.693,121.536 Z M139.15,145.755 L141.787,145.755 L114.638,76 L113.466,76 L113.466,79.287 L139.15,145.755 Z" stroke="none" />
        <path id="Baseline-S" d="M18,146 l800,0" />
        <path id="left-margin-Ultralight-S" d="M220,56 l0,110" />
        <path id="right-margin-Ultralight-S" d="M310,56 l0,110" />
        <path id="left-margin-Regular-S" d="M420,56 l0,110" />
        <path id="right-margin-Regular-S" d="M510,56 l0,110" />
        <path id="left-margin-Black-S" d="M620,56 l0,110" />
        <path id="right-margin-Black-S" d="M710,56 l0,110" />
        <path id="Capline-M" d="M18,276 l800,0" />
        <path id="Baseline-M" d="M18,346 l800,0" />
        <path id="Capline-L" d="M18,476 l800,0" />
        <path id="Baseline-L" d="M18,546 l800,0" />
    </g>
    <g id="Symbols">
        <g id="Ultralight-S">
            <path d="M263.482,101.176 L255.405,122.715 C255.014,123.77 254.007,124.47 252.881,124.47 C251.756,124.47 250.749,123.77 250.357,122.715 L242.28,101.176 C241.759,99.773 242.471,98.222 243.866,97.704 C245.262,97.186 246.813,97.897 247.331,99.293 L252.887,114.101 L258.444,99.293 C258.959,97.905 260.51,97.194 261.906,97.712 C263.301,98.23 264.013,99.781 263.495,101.176 Z M308.077,111 C308.061,125.861 296.017,137.906 281.155,137.923 L248.846,137.923 C233.977,137.923 221.923,125.869 221.923,111 C221.923,96.131 233.977,84.077 248.846,84.077 L281.154,84.077 C296.016,84.094 308.06,96.138 308.077,111 Z M302.692,111 C302.679,99.11 293.044,89.475 281.154,89.462 L248.846,89.462 C236.951,89.462 227.308,99.105 227.308,111 C227.308,122.895 236.951,132.538 248.846,132.538 L281.154,132.538 C293.044,132.525 302.679,122.89 302.692,111 Z M282.783,114.483 L286.202,120.423 C286.94,121.718 286.489,123.362 285.197,124.099 C283.905,124.836 282.26,124.386 281.523,123.093 L277.673,116.362 C277.495,116.362 277.313,116.379 277.131,116.379 L273.077,116.379 L273.077,121.764 C273.077,123.251 271.872,124.456 270.385,124.456 C268.898,124.456 267.692,123.251 267.692,121.764 L267.692,100.231 C267.692,99.517 267.976,98.832 268.481,98.327 C268.986,97.822 269.671,97.538 270.385,97.538 L277.115,97.538 C281.165,97.542 284.759,100.133 286.043,103.973 C287.327,107.813 286.015,112.044 282.783,114.483 Z M273.077,111 L277.115,111 C279.346,111 281.154,109.192 281.154,106.962 C281.154,104.731 279.346,102.923 277.115,102.923 L273.077,102.923 Z" />
        </g>
        <g id="Regular-S">
            <path d="M463.482,101.176 L455.405,122.715 C455.014,123.77 454.007,124.47 452.881,124.47 C451.756,124.47 450.749,123.77 450.357,122.715 L442.28,101.176 C441.759,99.773 442.471,98.222 443.866,97.704 C445.262,97.186 446.813,97.897 447.331,99.293 L452.887,114.101 L458.444,99.293 C458.959,97.905 460.51,97.194 461.906,97.712 C463.301,98.23 464.013,99.781 463.495,101.176 Z M508.077,111 C508.061,125.861 496.017,137.906 481.155,137.923 L448.846,137.923 C433.977,137.923 421.923,125.869 421.923,111 C421.923,96.131 433.977,84.077 448.846,84.077 L481.154,84.077 C496.016,84.094 508.06,96.138 508.077,111 Z M502.692,111 C502.679,99.11 493.044,89.475 481.154,89.462 L448.846,89.462 C436.951,89.462 427.308,99.105 427.308,111 C427.308,122.895 436.951,132.538 448.846,132.538 L481.154,132.538 C493.044,132.525 502.679,122.89 502.692,111 Z M482.783,114.483 L486.202,120.423 C486.94,121.718 486.489,123.362 485.197,124.099 C483.905,124.836 482.26,124.386 481.523,123.093 L477.673,116.362 C477.495,116.362 477.313,116.379 477.131,116.379 L473.077,116.379 L473.077,121.764 C473.077,123.251 471.872,124.456 470.385,124.456 C468.898,124.456 467.692,123.251 467.692,121.764 L467.692,100.231 C467.692,99.517 467.976,98.832 468.481,98.327 C468.986,97.822 469.671,97.538 470.385,97.538 L477.115,97.538 C481.165,97.542 484.759,100.133 486.043,103.973 C487.327,107.813 486.015,112.044 482.783,114.483 Z M473.077,111 L477.115,111 C479.346,111 481.154,109.192 481.154,106.962 C481.154,104.731 479.346,102.923 477.115,102.923 L473.077,102.923 Z" />
        </g>
        <g id="Black-S">
            <path d="M663.482,101.176 L655.405,122.715 C655.014,123.77 654.007,124.47 652.881,124.47 C651.756,124.47 650.749,123.77 650.357,122.715 L642.28,101.176 C641.759,99.773 642.471,98.222 643.866,97.704 C645.262,97.186 646.813,97.897 647.331,99.293 L652.888,114.101 L658.444,99.293 C658.959,97.905 660.51,97.194 661.906,97.712 C663.301,98.23 664.013,99.781 663.495,101.176 Z M708.077,111 C708.061,125.861 696.017,137.906 681.155,137.923 L648.846,137.923 C633.977,137.923 621.923,125.869 621.923,111 C621.923,96.131 633.977,84.077 648.846,84.077 L681.154,84.077 C696.016,84.094 708.06,96.138 708.077,111 Z M702.692,111 C702.679,99.11 693.044,89.475 681.154,89.462 L648.846,89.462 C636.951,89.462 627.308,99.105 627.308,111 C627.308,122.895 636.951,132.538 648.846,132.538 L681.154,132.538 C693.044,132.525 702.679,122.89 702.692,111 Z M682.783,114.483 L686.202,120.423 C686.94,121.718 686.489,123.362 685.197,124.099 C683.905,124.836 682.26,124.386 681.523,123.093 L677.673,116.362 C677.495,116.362 677.313,116.379 677.131,116.379 L673.077,116.379 L673.077,121.764 C673.077,123.251 671.872,124.456 670.385,124.456 C668.898,124.456 667.692,123.251 667.692,121.764 L667.692,100.231 C667.692,99.517 667.976,98.832 668.481,98.327 C668.986,97.822 669.671,97.538 670.385,97.538 L677.115,97.538 C681.165,97.542 684.759,100.133 686.043,103.973 C687.327,107.813 686.015,112.044 682.783,114.483 Z M673.077,111 L677.115,111 C679.346,111 681.154,109.192 681.154,106.962 C681.154,104.731 679.346,102.923 677.115,102.923 L673.077,102.923 Z" />
        </g>
    </g>
</svg>