<?xml version="1.0" encoding="UTF-8"?>
<svg height="600" width="800" xmlns="http://www.w3.org/2000/svg" xmlns:xlink="http://www.w3.org/1999/xlink">
    <g id="Notes" font-family="'LucidaGrande', 'Lucida Grande', sans-serif" font-size="13">
        <rect fill="white" height="600.0" width="800.0" x="0.0" y="0.0" />
        <g font-size="13">
            <text x="18.0" y="176.0">Small</text>
            <text x="18.0" y="376.0">Medium</text>
            <text x="18.0" y="576.0">Large</text>
        </g>
        <g font-size="9">
            <text x="250.0" y="30.0">Ultralight</text>
            <text x="450.0" y="30.0">Regular</text>
            <text x="650.0" y="30.0">Black</text>
            <text id="template-version" fill="#505050" text-anchor="end" x="785.0" y="575.0">Template v.3.0</text>
            <a href="https://github.com/swhitty/SwiftDraw">
                <text fill="#505050" text-anchor="end" x="785.0" y="590.0">https://github.com/swhitty/SwiftDraw</text>
            </a>
        </g>
    </g>
    <g id="Guides" stroke="rgb(39, 170, 225)" stroke-width="0.5">
        <path id="Capline-S" d="M18,76 l800,0" />
        <path id="H-reference" d="M85,145.755 L87.685,145.755 L113.369,79.287 L114.052,79.287 L114.052,76 L112.148,76 L85,145.755 Z M95.693,121.536 L130.996,121.536 L130.263,119.313 L96.474,119.313 L95.693,121.536 Z M139.15,145.755 L141.787,145.755 L114.638,76 L113.466,76 L113.466,79.287 L139.15,145.755 Z" stroke="none" />
        <path id="Baseline-S" d="M18,146 l800,0" />
        <path id="left-margin-Ultralight-S" d="M220,56 l0,110" />
        <path id="right-margin-Ultralight-S" d="M310,56 l0,110" />
        <path id="left-margin-Regular-S" d="M420,56 l0,110" />
        <path id="right-margin-Regular-S" d="M510,56 l0,110" />
        <path id="left-margin-Black-S" d="M620,56 l0,110" />
        <path id="right-margin-Black-S" d="M710,56 l0,110" />
        <path id="Capline-M" d="M18,276 l800,0" />
        <path id="Baseline-M" d="M18,346 l800,0" />
        <path id="Capline-L" d="M18,476 l800,0" />
        <path id="Baseline-L" d="M18,546 l800,0" />
    </g>
    <g id="Symbols">
        <g id="Ultralight-S">
            <path d="M298.422,94.927 L281.073,77.578 C280.067,76.564 278.696,75.995 277.267,76 L252.733,76 C251.304,75.995 249.933,76.564 248.927,77.578 L231.578,94.927 C230.564,95.933 229.995,97.304 230,98.733 L230,123.267 C229.995,124.696 230.564,126.067 231.578,127.073 L248.927,144.422 C249.933,145.436 251.304,146.005 252.733,146 L277.267,146 C278.696,146.005 280.067,145.436 281.073,144.422 L298.422,127.073 C299.436,126.067 300.005,124.696 300,123.267 L300,98.733 C300.005,97.304 299.436,95.933 298.422,94.927 Z M294.615,123.267 L277.267,140.615 L252.733,140.615 L235.385,123.267 L235.385,98.733 L252.733,81.385 L277.267,81.385 L294.615,98.733 Z" />
        </g>
        <g id="Regular-S">
            <path d="M498.422,94.927 L481.073,77.578 C480.067,76.564 478.696,75.995 477.267,76 L452.733,76 C451.304,75.995 449.933,76.564 448.927,77.578 L431.578,94.927 C430.564,95.933 429.995,97.304 430,98.733 L430,123.267 C429.995,124.696 430.564,126.067 431.578,127.073 L448.927,144.422 C449.933,145.436 451.304,146.005 452.733,146 L477.267,146 C478.696,146.005 480.067,145.436 481.073,144.422 L498.422,127.073 C499.436,126.067 500.005,124.696 500,123.267 L500,98.733 C500.005,97.304 499.436,95.933 498.422,94.927 Z M494.615,123.267 L477.267,140.615 L452.733,140.615 L435.385,123.267 L435.385,98.733 L452.733,81.385 L477.267,81.385 L494.615,98.733 Z" />
        </g>
        <g id="Black-S">
            <path d="M698.422,94.927 L681.073,77.578 C680.067,76.564 678.696,75.995 677.267,76 L652.733,76 C651.304,75.995 649.933,76.564 648.927,77.578 L631.578,94.927 C630.564,95.933 629.995,97.304 630,98.733 L630,123.267 C629.995,124.696 630.564,126.067 631.578,127.073 L648.927,144.422 C649.933,145.436 651.304,146.005 652.733,146 L677.267,146 C678.696,146.005 680.067,145.436 681.073,144.422 L698.422,127.073 C699.436,126.067 700.005,124.696 700,123.267 L700,98.733 C700.005,97.304 699.436,95.933 698.422,94.927 Z M694.615,123.267 L677.267,140.615 L652.733,140.615 L635.385,123.267 L635.385,98.733 L652.733,81.385 L677.267,81.385 L694.615,98.733 Z" />
        </g>
    </g>
</svg>