<?xml version="1.0" encoding="UTF-8"?>
<svg height="600" width="800" xmlns="http://www.w3.org/2000/svg" xmlns:xlink="http://www.w3.org/1999/xlink">
    <g id="Notes" font-family="'LucidaGrande', 'Lucida Grande', sans-serif" font-size="13">
        <rect fill="white" height="600.0" width="800.0" x="0.0" y="0.0" />
        <g font-size="13">
            <text x="18.0" y="176.0">Small</text>
            <text x="18.0" y="376.0">Medium</text>
            <text x="18.0" y="576.0">Large</text>
        </g>
        <g font-size="9">
            <text x="250.0" y="30.0">Ultralight</text>
            <text x="450.0" y="30.0">Regular</text>
            <text x="650.0" y="30.0">Black</text>
            <text id="template-version" fill="#505050" text-anchor="end" x="785.0" y="575.0">Template v.3.0</text>
            <a href="https://github.com/swhitty/SwiftDraw">
                <text fill="#505050" text-anchor="end" x="785.0" y="590.0">https://github.com/swhitty/SwiftDraw</text>
            </a>
        </g>
    </g>
    <g id="Guides" stroke="rgb(39, 170, 225)" stroke-width="0.5">
        <path id="Capline-S" d="M18,76 l800,0" />
        <path id="H-reference" d="M85,145.755 L87.685,145.755 L113.369,79.287 L114.052,79.287 L114.052,76 L112.148,76 L85,145.755 Z M95.693,121.536 L130.996,121.536 L130.263,119.313 L96.474,119.313 L95.693,121.536 Z M139.15,145.755 L141.787,145.755 L114.638,76 L113.466,76 L113.466,79.287 L139.15,145.755 Z" stroke="none" />
        <path id="Baseline-S" d="M18,146 l800,0" />
        <path id="left-margin-Ultralight-S" d="M220,56 l0,110" />
        <path id="right-margin-Ultralight-S" d="M310,56 l0,110" />
        <path id="left-margin-Regular-S" d="M420,56 l0,110" />
        <path id="right-margin-Regular-S" d="M510,56 l0,110" />
        <path id="left-margin-Black-S" d="M620,56 l0,110" />
        <path id="right-margin-Black-S" d="M710,56 l0,110" />
        <path id="Capline-M" d="M18,276 l800,0" />
        <path id="Baseline-M" d="M18,346 l800,0" />
        <path id="Capline-L" d="M18,476 l800,0" />
        <path id="Baseline-L" d="M18,546 l800,0" />
    </g>
    <g id="Symbols">
        <g id="Ultralight-S">
            <path d="M230,102.923 C230,102.209 230.284,101.524 230.789,101.019 C231.293,100.514 231.978,100.231 232.692,100.231 L259.615,100.231 C261.102,100.231 262.308,101.436 262.308,102.923 C262.308,104.41 261.102,105.615 259.615,105.615 L232.692,105.615 C231.978,105.615 231.293,105.332 230.789,104.827 C230.284,104.322 230,103.637 230,102.923 Z M297.308,100.231 L270.385,100.231 C268.898,100.231 267.692,101.436 267.692,102.923 C267.692,104.41 268.898,105.615 270.385,105.615 L297.308,105.615 C298.795,105.615 300,104.41 300,102.923 C300,101.436 298.795,100.231 297.308,100.231 Z M246.154,113.692 L232.692,113.692 C231.205,113.692 230,114.898 230,116.385 C230,117.872 231.205,119.077 232.692,119.077 L246.154,119.077 C247.641,119.077 248.846,117.872 248.846,116.385 C248.846,114.898 247.641,113.692 246.154,113.692 Z M297.308,113.692 L283.846,113.692 C282.359,113.692 281.154,114.898 281.154,116.385 C281.154,117.872 282.359,119.077 283.846,119.077 L297.308,119.077 C298.795,119.077 300,117.872 300,116.385 C300,114.898 298.795,113.692 297.308,113.692 Z M254.231,116.385 C254.231,117.099 254.514,117.783 255.019,118.288 C255.524,118.793 256.209,119.077 256.923,119.077 L273.077,119.077 C274.564,119.077 275.769,117.872 275.769,116.385 C275.769,114.898 274.564,113.692 273.077,113.692 L256.923,113.692 C256.209,113.692 255.524,113.976 255.019,114.481 C254.514,114.986 254.231,115.671 254.231,116.385 Z M240.769,127.154 L232.692,127.154 C231.205,127.154 230,128.359 230,129.846 C230,131.333 231.205,132.538 232.692,132.538 L240.769,132.538 C242.256,132.538 243.462,131.333 243.462,129.846 C243.462,128.359 242.256,127.154 240.769,127.154 Z M259.615,127.154 L251.538,127.154 C250.052,127.154 248.846,128.359 248.846,129.846 C248.846,131.333 250.052,132.538 251.538,132.538 L259.615,132.538 C261.102,132.538 262.308,131.333 262.308,129.846 C262.308,128.359 261.102,127.154 259.615,127.154 Z M278.462,127.154 L270.385,127.154 C268.898,127.154 267.692,128.359 267.692,129.846 C267.692,131.333 268.898,132.538 270.385,132.538 L278.462,132.538 C279.948,132.538 281.154,131.333 281.154,129.846 C281.154,128.359 279.948,127.154 278.462,127.154 Z M297.308,127.154 L289.231,127.154 C287.744,127.154 286.538,128.359 286.538,129.846 C286.538,131.333 287.744,132.538 289.231,132.538 L297.308,132.538 C298.795,132.538 300,131.333 300,129.846 C300,128.359 298.795,127.154 297.308,127.154 Z M232.692,92.154 L297.308,92.154 C298.795,92.154 300,90.948 300,89.462 C300,87.975 298.795,86.769 297.308,86.769 L232.692,86.769 C231.205,86.769 230,87.975 230,89.462 C230,90.948 231.205,92.154 232.692,92.154 Z" />
        </g>
        <g id="Regular-S">
            <path d="M430,102.923 C430,102.209 430.284,101.524 430.789,101.019 C431.293,100.514 431.978,100.231 432.692,100.231 L459.615,100.231 C461.102,100.231 462.308,101.436 462.308,102.923 C462.308,104.41 461.102,105.615 459.615,105.615 L432.692,105.615 C431.978,105.615 431.293,105.332 430.789,104.827 C430.284,104.322 430,103.637 430,102.923 Z M497.308,100.231 L470.385,100.231 C468.898,100.231 467.692,101.436 467.692,102.923 C467.692,104.41 468.898,105.615 470.385,105.615 L497.308,105.615 C498.795,105.615 500,104.41 500,102.923 C500,101.436 498.795,100.231 497.308,100.231 Z M446.154,113.692 L432.692,113.692 C431.205,113.692 430,114.898 430,116.385 C430,117.872 431.205,119.077 432.692,119.077 L446.154,119.077 C447.641,119.077 448.846,117.872 448.846,116.385 C448.846,114.898 447.641,113.692 446.154,113.692 Z M497.308,113.692 L483.846,113.692 C482.359,113.692 481.154,114.898 481.154,116.385 C481.154,117.872 482.359,119.077 483.846,119.077 L497.308,119.077 C498.795,119.077 500,117.872 500,116.385 C500,114.898 498.795,113.692 497.308,113.692 Z M454.231,116.385 C454.231,117.099 454.514,117.783 455.019,118.288 C455.524,118.793 456.209,119.077 456.923,119.077 L473.077,119.077 C474.564,119.077 475.769,117.872 475.769,116.385 C475.769,114.898 474.564,113.692 473.077,113.692 L456.923,113.692 C456.209,113.692 455.524,113.976 455.019,114.481 C454.514,114.986 454.231,115.671 454.231,116.385 Z M440.769,127.154 L432.692,127.154 C431.205,127.154 430,128.359 430,129.846 C430,131.333 431.205,132.538 432.692,132.538 L440.769,132.538 C442.256,132.538 443.462,131.333 443.462,129.846 C443.462,128.359 442.256,127.154 440.769,127.154 Z M459.615,127.154 L451.538,127.154 C450.052,127.154 448.846,128.359 448.846,129.846 C448.846,131.333 450.052,132.538 451.538,132.538 L459.615,132.538 C461.102,132.538 462.308,131.333 462.308,129.846 C462.308,128.359 461.102,127.154 459.615,127.154 Z M478.462,127.154 L470.385,127.154 C468.898,127.154 467.692,128.359 467.692,129.846 C467.692,131.333 468.898,132.538 470.385,132.538 L478.462,132.538 C479.948,132.538 481.154,131.333 481.154,129.846 C481.154,128.359 479.948,127.154 478.462,127.154 Z M497.308,127.154 L489.231,127.154 C487.744,127.154 486.538,128.359 486.538,129.846 C486.538,131.333 487.744,132.538 489.231,132.538 L497.308,132.538 C498.795,132.538 500,131.333 500,129.846 C500,128.359 498.795,127.154 497.308,127.154 Z M432.692,92.154 L497.308,92.154 C498.795,92.154 500,90.948 500,89.462 C500,87.975 498.795,86.769 497.308,86.769 L432.692,86.769 C431.205,86.769 430,87.975 430,89.462 C430,90.948 431.205,92.154 432.692,92.154 Z" />
        </g>
        <g id="Black-S">
            <path d="M630,102.923 C630,102.209 630.284,101.524 630.789,101.019 C631.293,100.514 631.978,100.231 632.692,100.231 L659.615,100.231 C661.102,100.231 662.308,101.436 662.308,102.923 C662.308,104.41 661.102,105.615 659.615,105.615 L632.692,105.615 C631.978,105.615 631.293,105.332 630.789,104.827 C630.284,104.322 630,103.637 630,102.923 Z M697.308,100.231 L670.385,100.231 C668.898,100.231 667.692,101.436 667.692,102.923 C667.692,104.41 668.898,105.615 670.385,105.615 L697.308,105.615 C698.795,105.615 700,104.41 700,102.923 C700,101.436 698.795,100.231 697.308,100.231 Z M646.154,113.692 L632.692,113.692 C631.205,113.692 630,114.898 630,116.385 C630,117.872 631.205,119.077 632.692,119.077 L646.154,119.077 C647.641,119.077 648.846,117.872 648.846,116.385 C648.846,114.898 647.641,113.692 646.154,113.692 Z M697.308,113.692 L683.846,113.692 C682.359,113.692 681.154,114.898 681.154,116.385 C681.154,117.872 682.359,119.077 683.846,119.077 L697.308,119.077 C698.795,119.077 700,117.872 700,116.385 C700,114.898 698.795,113.692 697.308,113.692 Z M654.231,116.385 C654.231,117.099 654.514,117.783 655.019,118.288 C655.524,118.793 656.209,119.077 656.923,119.077 L673.077,119.077 C674.564,119.077 675.769,117.872 675.769,116.385 C675.769,114.898 674.564,113.692 673.077,113.692 L656.923,113.692 C656.209,113.692 655.524,113.976 655.019,114.481 C654.514,114.986 654.231,115.671 654.231,116.385 Z M640.769,127.154 L632.692,127.154 C631.205,127.154 630,128.359 630,129.846 C630,131.333 631.205,132.538 632.692,132.538 L640.769,132.538 C642.256,132.538 643.462,131.333 643.462,129.846 C643.462,128.359 642.256,127.154 640.769,127.154 Z M659.615,127.154 L651.538,127.154 C650.052,127.154 648.846,128.359 648.846,129.846 C648.846,131.333 650.052,132.538 651.538,132.538 L659.615,132.538 C661.102,132.538 662.308,131.333 662.308,129.846 C662.308,128.359 661.102,127.154 659.615,127.154 Z M678.462,127.154 L670.385,127.154 C668.898,127.154 667.692,128.359 667.692,129.846 C667.692,131.333 668.898,132.538 670.385,132.538 L678.462,132.538 C679.948,132.538 681.154,131.333 681.154,129.846 C681.154,128.359 679.948,127.154 678.462,127.154 Z M697.308,127.154 L689.231,127.154 C687.744,127.154 686.538,128.359 686.538,129.846 C686.538,131.333 687.744,132.538 689.231,132.538 L697.308,132.538 C698.795,132.538 700,131.333 700,129.846 C700,128.359 698.795,127.154 697.308,127.154 Z M632.692,92.154 L697.308,92.154 C698.795,92.154 700,90.948 700,89.462 C700,87.975 698.795,86.769 697.308,86.769 L632.692,86.769 C631.205,86.769 630,87.975 630,89.462 C630,90.948 631.205,92.154 632.692,92.154 Z" />
        </g>
    </g>
</svg>