<?xml version="1.0" encoding="UTF-8"?>
<svg height="600" width="800" xmlns="http://www.w3.org/2000/svg" xmlns:xlink="http://www.w3.org/1999/xlink">
    <g id="Notes" font-family="'LucidaGrande', 'Lucida Grande', sans-serif" font-size="13">
        <rect fill="white" height="600.0" width="800.0" x="0.0" y="0.0" />
        <g font-size="13">
            <text x="18.0" y="176.0">Small</text>
            <text x="18.0" y="376.0">Medium</text>
            <text x="18.0" y="576.0">Large</text>
        </g>
        <g font-size="9">
            <text x="250.0" y="30.0">Ultralight</text>
            <text x="450.0" y="30.0">Regular</text>
            <text x="650.0" y="30.0">Black</text>
            <text id="template-version" fill="#505050" text-anchor="end" x="785.0" y="575.0">Template v.3.0</text>
            <a href="https://github.com/swhitty/SwiftDraw">
                <text fill="#505050" text-anchor="end" x="785.0" y="590.0">https://github.com/swhitty/SwiftDraw</text>
            </a>
        </g>
    </g>
    <g id="Guides" stroke="rgb(39, 170, 225)" stroke-width="0.5">
        <path id="Capline-S" d="M18,76 l800,0" />
        <path id="H-reference" d="M85,145.755 L87.685,145.755 L113.369,79.287 L114.052,79.287 L114.052,76 L112.148,76 L85,145.755 Z M95.693,121.536 L130.996,121.536 L130.263,119.313 L96.474,119.313 L95.693,121.536 Z M139.15,145.755 L141.787,145.755 L114.638,76 L113.466,76 L113.466,79.287 L139.15,145.755 Z" stroke="none" />
        <path id="Baseline-S" d="M18,146 l800,0" />
        <path id="left-margin-Ultralight-S" d="M220,56 l0,110" />
        <path id="right-margin-Ultralight-S" d="M310,56 l0,110" />
        <path id="left-margin-Regular-S" d="M420,56 l0,110" />
        <path id="right-margin-Regular-S" d="M510,56 l0,110" />
        <path id="left-margin-Black-S" d="M620,56 l0,110" />
        <path id="right-margin-Black-S" d="M710,56 l0,110" />
        <path id="Capline-M" d="M18,276 l800,0" />
        <path id="Baseline-M" d="M18,346 l800,0" />
        <path id="Capline-L" d="M18,476 l800,0" />
        <path id="Baseline-L" d="M18,546 l800,0" />
    </g>
    <g id="Symbols">
        <g id="Ultralight-S">
            <path d="M283.846,124.462 L283.846,129.846 C283.846,131.333 282.641,132.538 281.154,132.538 C279.667,132.538 278.462,131.333 278.462,129.846 L278.462,124.462 C278.462,117.027 272.435,111 265,111 C257.565,111 251.538,117.027 251.538,124.462 L251.538,129.846 C251.538,131.333 250.333,132.538 248.846,132.538 C247.359,132.538 246.154,131.333 246.154,129.846 L246.154,124.462 C246.154,114.053 254.592,105.615 265,105.615 C275.408,105.615 283.846,114.053 283.846,124.462 Z M265,94.846 C248.652,94.865 235.403,108.113 235.385,124.462 L235.385,129.846 C235.385,131.333 236.59,132.538 238.077,132.538 C239.564,132.538 240.769,131.333 240.769,129.846 L240.769,124.462 C240.769,111.079 251.618,100.231 265,100.231 C278.382,100.231 289.231,111.079 289.231,124.462 L289.231,129.846 C289.231,131.333 290.436,132.538 291.923,132.538 C293.41,132.538 294.615,131.333 294.615,129.846 L294.615,124.462 C294.598,108.114 281.35,94.865 265.001,94.846 Z M265,84.077 C242.706,84.101 224.639,102.168 224.615,124.462 L224.615,129.846 C224.615,131.333 225.821,132.538 227.308,132.538 C228.795,132.538 230,131.333 230,129.846 L230,124.462 C230,105.132 245.67,89.462 265,89.462 C284.33,89.462 300,105.132 300,124.462 L300,129.846 C300,131.333 301.205,132.538 302.692,132.538 C304.179,132.538 305.385,131.333 305.385,129.846 L305.385,124.462 C305.36,102.167 287.293,84.101 265,84.077 Z" />
        </g>
        <g id="Regular-S">
            <path d="M483.846,124.462 L483.846,129.846 C483.846,131.333 482.641,132.538 481.154,132.538 C479.667,132.538 478.462,131.333 478.462,129.846 L478.462,124.462 C478.462,117.027 472.435,111 465,111 C457.565,111 451.538,117.027 451.538,124.462 L451.538,129.846 C451.538,131.333 450.333,132.538 448.846,132.538 C447.359,132.538 446.154,131.333 446.154,129.846 L446.154,124.462 C446.154,114.053 454.592,105.615 465,105.615 C475.408,105.615 483.846,114.053 483.846,124.462 Z M465,94.846 C448.652,94.865 435.403,108.113 435.385,124.462 L435.385,129.846 C435.385,131.333 436.59,132.538 438.077,132.538 C439.564,132.538 440.769,131.333 440.769,129.846 L440.769,124.462 C440.769,111.079 451.618,100.231 465,100.231 C478.382,100.231 489.231,111.079 489.231,124.462 L489.231,129.846 C489.231,131.333 490.436,132.538 491.923,132.538 C493.41,132.538 494.615,131.333 494.615,129.846 L494.615,124.462 C494.598,108.114 481.35,94.865 465.001,94.846 Z M465,84.077 C442.706,84.101 424.639,102.168 424.615,124.462 L424.615,129.846 C424.615,131.333 425.821,132.538 427.308,132.538 C428.795,132.538 430,131.333 430,129.846 L430,124.462 C430,105.132 445.67,89.462 465,89.462 C484.33,89.462 500,105.132 500,124.462 L500,129.846 C500,131.333 501.205,132.538 502.692,132.538 C504.179,132.538 505.385,131.333 505.385,129.846 L505.385,124.462 C505.36,102.167 487.293,84.101 465,84.077 Z" />
        </g>
        <g id="Black-S">
            <path d="M683.846,124.462 L683.846,129.846 C683.846,131.333 682.641,132.538 681.154,132.538 C679.667,132.538 678.462,131.333 678.462,129.846 L678.462,124.462 C678.462,117.027 672.435,111 665,111 C657.565,111 651.538,117.027 651.538,124.462 L651.538,129.846 C651.538,131.333 650.333,132.538 648.846,132.538 C647.359,132.538 646.154,131.333 646.154,129.846 L646.154,124.462 C646.154,114.053 654.592,105.615 665,105.615 C675.408,105.615 683.846,114.053 683.846,124.462 Z M665,94.846 C648.652,94.865 635.403,108.113 635.385,124.462 L635.385,129.846 C635.385,131.333 636.59,132.538 638.077,132.538 C639.564,132.538 640.769,131.333 640.769,129.846 L640.769,124.462 C640.769,111.079 651.618,100.231 665,100.231 C678.382,100.231 689.231,111.079 689.231,124.462 L689.231,129.846 C689.231,131.333 690.436,132.538 691.923,132.538 C693.41,132.538 694.615,131.333 694.615,129.846 L694.615,124.462 C694.598,108.114 681.35,94.865 665.001,94.846 Z M665,84.077 C642.706,84.101 624.64,102.168 624.615,124.462 L624.615,129.846 C624.615,131.333 625.821,132.538 627.308,132.538 C628.795,132.538 630,131.333 630,129.846 L630,124.462 C630,105.132 645.67,89.462 665,89.462 C684.33,89.462 700,105.132 700,124.462 L700,129.846 C700,131.333 701.205,132.538 702.692,132.538 C704.179,132.538 705.385,131.333 705.385,129.846 L705.385,124.462 C705.36,102.167 687.293,84.101 665,84.077 Z" />
        </g>
    </g>
</svg>