<?xml version="1.0" encoding="UTF-8"?>
<svg height="600" width="800" xmlns="http://www.w3.org/2000/svg" xmlns:xlink="http://www.w3.org/1999/xlink">
    <g id="Notes" font-family="'LucidaGrande', 'Lucida Grande', sans-serif" font-size="13">
        <rect fill="white" height="600.0" width="800.0" x="0.0" y="0.0" />
        <g font-size="13">
            <text x="18.0" y="176.0">Small</text>
            <text x="18.0" y="376.0">Medium</text>
            <text x="18.0" y="576.0">Large</text>
        </g>
        <g font-size="9">
            <text x="250.0" y="30.0">Ultralight</text>
            <text x="450.0" y="30.0">Regular</text>
            <text x="650.0" y="30.0">Black</text>
            <text id="template-version" fill="#505050" text-anchor="end" x="785.0" y="575.0">Template v.3.0</text>
            <a href="https://github.com/swhitty/SwiftDraw">
                <text fill="#505050" text-anchor="end" x="785.0" y="590.0">https://github.com/swhitty/SwiftDraw</text>
            </a>
        </g>
    </g>
    <g id="Guides" stroke="rgb(39, 170, 225)" stroke-width="0.5">
        <path id="Capline-S" d="M18,76 l800,0" />
        <path id="H-reference" d="M85,145.755 L87.685,145.755 L113.369,79.287 L114.052,79.287 L114.052,76 L112.148,76 L85,145.755 Z M95.693,121.536 L130.996,121.536 L130.263,119.313 L96.474,119.313 L95.693,121.536 Z M139.15,145.755 L141.787,145.755 L114.638,76 L113.466,76 L113.466,79.287 L139.15,145.755 Z" stroke="none" />
        <path id="Baseline-S" d="M18,146 l800,0" />
        <path id="left-margin-Ultralight-S" d="M220,56 l0,110" />
        <path id="right-margin-Ultralight-S" d="M310,56 l0,110" />
        <path id="left-margin-Regular-S" d="M420,56 l0,110" />
        <path id="right-margin-Regular-S" d="M510,56 l0,110" />
        <path id="left-margin-Black-S" d="M620,56 l0,110" />
        <path id="right-margin-Black-S" d="M710,56 l0,110" />
        <path id="Capline-M" d="M18,276 l800,0" />
        <path id="Baseline-M" d="M18,346 l800,0" />
        <path id="Capline-L" d="M18,476 l800,0" />
        <path id="Baseline-L" d="M18,546 l800,0" />
    </g>
    <g id="Symbols">
        <g id="Ultralight-S">
            <path d="M307.38,119.962 C306.936,119.471 299.273,111.138 286.851,106.312 C286.273,100.113 284.004,94.476 280.319,90.185 C275.389,84.413 268.224,81.385 259.615,81.385 C242.277,81.385 230.973,96.926 230.501,97.589 C229.7,98.797 229.999,100.423 231.177,101.267 C232.356,102.111 233.991,101.87 234.876,100.722 C234.981,100.584 245.08,86.769 259.615,86.769 C266.605,86.769 272.357,89.162 276.244,93.692 C278.741,96.6 280.43,100.318 281.181,104.461 C277.282,103.443 273.27,102.926 269.24,102.923 C260.47,102.923 253.11,105.215 247.951,109.55 C243.387,113.386 240.769,118.74 240.769,124.209 C240.727,128.5 242.409,132.628 245.437,135.668 C248.688,138.906 253.198,140.615 258.471,140.615 C275.907,140.615 285.791,126.437 286.905,112.205 C293.059,114.94 298.651,118.797 303.396,123.576 C304.394,124.679 306.096,124.763 307.199,123.765 C308.301,122.767 308.385,121.064 307.387,119.962 Z M275.591,127.245 C272.619,130.886 267.241,135.231 258.471,135.231 C249.963,135.231 246.154,129.695 246.154,124.209 C246.154,116.55 253.379,108.308 269.24,108.308 C273.439,108.32 277.612,108.965 281.618,110.219 C281.467,116.533 279.289,122.705 275.591,127.245 Z" />
        </g>
        <g id="Regular-S">
            <path d="M507.38,119.962 C506.936,119.471 499.273,111.138 486.851,106.312 C486.273,100.113 484.004,94.476 480.319,90.185 C475.389,84.413 468.224,81.385 459.615,81.385 C442.277,81.385 430.973,96.926 430.501,97.589 C429.7,98.797 429.999,100.423 431.177,101.267 C432.356,102.111 433.991,101.87 434.876,100.722 C434.981,100.584 445.08,86.769 459.615,86.769 C466.605,86.769 472.357,89.162 476.244,93.692 C478.741,96.6 480.43,100.318 481.181,104.461 C477.282,103.443 473.27,102.926 469.24,102.923 C460.47,102.923 453.11,105.215 447.951,109.55 C443.387,113.386 440.769,118.74 440.769,124.209 C440.727,128.5 442.409,132.628 445.437,135.668 C448.688,138.906 453.198,140.615 458.471,140.615 C475.907,140.615 485.791,126.437 486.905,112.205 C493.059,114.94 498.651,118.797 503.396,123.576 C504.394,124.679 506.096,124.763 507.199,123.765 C508.301,122.767 508.385,121.064 507.387,119.962 Z M475.591,127.245 C472.619,130.886 467.241,135.231 458.471,135.231 C449.963,135.231 446.154,129.695 446.154,124.209 C446.154,116.55 453.379,108.308 469.24,108.308 C473.439,108.32 477.612,108.965 481.618,110.219 C481.467,116.533 479.289,122.705 475.591,127.245 Z" />
        </g>
        <g id="Black-S">
            <path d="M707.38,119.962 C706.936,119.471 699.273,111.138 686.851,106.312 C686.273,100.113 684.004,94.476 680.319,90.185 C675.389,84.413 668.224,81.385 659.615,81.385 C642.277,81.385 630.973,96.926 630.501,97.589 C629.7,98.797 629.999,100.423 631.177,101.267 C632.356,102.111 633.991,101.87 634.876,100.722 C634.981,100.584 645.08,86.769 659.615,86.769 C666.605,86.769 672.357,89.162 676.244,93.692 C678.741,96.6 680.43,100.318 681.181,104.461 C677.282,103.443 673.27,102.926 669.24,102.923 C660.47,102.923 653.11,105.215 647.951,109.55 C643.388,113.386 640.769,118.74 640.769,124.209 C640.727,128.5 642.409,132.628 645.437,135.668 C648.688,138.906 653.198,140.615 658.471,140.615 C675.907,140.615 685.791,126.437 686.905,112.205 C693.059,114.94 698.651,118.797 703.396,123.576 C704.394,124.679 706.096,124.763 707.199,123.765 C708.301,122.767 708.385,121.064 707.387,119.962 Z M675.591,127.245 C672.619,130.886 667.241,135.231 658.471,135.231 C649.964,135.231 646.154,129.695 646.154,124.209 C646.154,116.55 653.379,108.308 669.24,108.308 C673.439,108.32 677.612,108.965 681.618,110.219 C681.467,116.533 679.289,122.705 675.591,127.245 Z" />
        </g>
    </g>
</svg>