<?xml version="1.0" encoding="UTF-8"?>
<svg height="600" width="800" xmlns="http://www.w3.org/2000/svg" xmlns:xlink="http://www.w3.org/1999/xlink">
    <g id="Notes" font-family="'LucidaGrande', 'Lucida Grande', sans-serif" font-size="13">
        <rect fill="white" height="600.0" width="800.0" x="0.0" y="0.0" />
        <g font-size="13">
            <text x="18.0" y="176.0">Small</text>
            <text x="18.0" y="376.0">Medium</text>
            <text x="18.0" y="576.0">Large</text>
        </g>
        <g font-size="9">
            <text x="250.0" y="30.0">Ultralight</text>
            <text x="450.0" y="30.0">Regular</text>
            <text x="650.0" y="30.0">Black</text>
            <text id="template-version" fill="#505050" text-anchor="end" x="785.0" y="575.0">Template v.3.0</text>
            <a href="https://github.com/swhitty/SwiftDraw">
                <text fill="#505050" text-anchor="end" x="785.0" y="590.0">https://github.com/swhitty/SwiftDraw</text>
            </a>
        </g>
    </g>
    <g id="Guides" stroke="rgb(39, 170, 225)" stroke-width="0.5">
        <path id="Capline-S" d="M18,76 l800,0" />
        <path id="H-reference" d="M85,145.755 L87.685,145.755 L113.369,79.287 L114.052,79.287 L114.052,76 L112.148,76 L85,145.755 Z M95.693,121.536 L130.996,121.536 L130.263,119.313 L96.474,119.313 L95.693,121.536 Z M139.15,145.755 L141.787,145.755 L114.638,76 L113.466,76 L113.466,79.287 L139.15,145.755 Z" stroke="none" />
        <path id="Baseline-S" d="M18,146 l800,0" />
        <path id="left-margin-Ultralight-S" d="M220,56 l0,110" />
        <path id="right-margin-Ultralight-S" d="M310,56 l0,110" />
        <path id="left-margin-Regular-S" d="M420,56 l0,110" />
        <path id="right-margin-Regular-S" d="M510,56 l0,110" />
        <path id="left-margin-Black-S" d="M620,56 l0,110" />
        <path id="right-margin-Black-S" d="M710,56 l0,110" />
        <path id="Capline-M" d="M18,276 l800,0" />
        <path id="Baseline-M" d="M18,346 l800,0" />
        <path id="Capline-L" d="M18,476 l800,0" />
        <path id="Baseline-L" d="M18,546 l800,0" />
    </g>
    <g id="Symbols">
        <g id="Ultralight-S">
            <path d="M260.962,111 C260.962,108.77 262.77,106.962 265,106.962 C267.23,106.962 269.038,108.77 269.038,111 C269.038,113.23 267.23,115.038 265,115.038 C263.929,115.038 262.902,114.613 262.144,113.856 C261.387,113.098 260.962,112.071 260.962,111 Z M250.192,115.038 C252.423,115.038 254.231,113.23 254.231,111 C254.231,108.77 252.423,106.962 250.192,106.962 C247.962,106.962 246.154,108.77 246.154,111 C246.154,112.071 246.579,113.098 247.337,113.856 C248.094,114.613 249.121,115.038 250.192,115.038 Z M279.808,115.038 C282.038,115.038 283.846,113.23 283.846,111 C283.846,108.77 282.038,106.962 279.808,106.962 C277.577,106.962 275.769,108.77 275.769,111 C275.769,112.071 276.195,113.098 276.952,113.856 C277.709,114.613 278.737,115.038 279.808,115.038 Z M300,89.462 L300,132.538 C300,133.967 299.433,135.336 298.423,136.346 C297.413,137.356 296.043,137.923 294.615,137.923 L249.856,137.923 L238.885,147.4 L238.854,147.424 C237.885,148.245 236.655,148.695 235.385,148.692 C234.594,148.691 233.813,148.516 233.096,148.181 C231.198,147.304 229.988,145.398 230,143.308 L230,89.462 C230,88.033 230.567,86.664 231.577,85.654 C232.587,84.644 233.957,84.077 235.385,84.077 L294.615,84.077 C296.043,84.077 297.413,84.644 298.423,85.654 C299.433,86.664 300,88.033 300,89.462 Z M235.385,143.308 L235.385,143.308 Z M294.615,89.462 L235.385,89.462 L235.385,143.308 L247.086,133.212 C247.573,132.782 248.198,132.543 248.846,132.538 L294.615,132.538 Z" />
        </g>
        <g id="Regular-S">
            <path d="M460.962,111 C460.962,108.77 462.77,106.962 465,106.962 C467.23,106.962 469.038,108.77 469.038,111 C469.038,113.23 467.23,115.038 465,115.038 C463.929,115.038 462.902,114.613 462.144,113.856 C461.387,113.098 460.962,112.071 460.962,111 Z M450.192,115.038 C452.423,115.038 454.231,113.23 454.231,111 C454.231,108.77 452.423,106.962 450.192,106.962 C447.962,106.962 446.154,108.77 446.154,111 C446.154,112.071 446.579,113.098 447.337,113.856 C448.094,114.613 449.121,115.038 450.192,115.038 Z M479.808,115.038 C482.038,115.038 483.846,113.23 483.846,111 C483.846,108.77 482.038,106.962 479.808,106.962 C477.577,106.962 475.769,108.77 475.769,111 C475.769,112.071 476.195,113.098 476.952,113.856 C477.709,114.613 478.737,115.038 479.808,115.038 Z M500,89.462 L500,132.538 C500,133.967 499.433,135.336 498.423,136.346 C497.413,137.356 496.043,137.923 494.615,137.923 L449.856,137.923 L438.885,147.4 L438.854,147.424 C437.885,148.245 436.655,148.695 435.385,148.692 C434.594,148.691 433.813,148.516 433.096,148.181 C431.198,147.304 429.988,145.398 430,143.308 L430,89.462 C430,88.033 430.567,86.664 431.577,85.654 C432.587,84.644 433.957,84.077 435.385,84.077 L494.615,84.077 C496.043,84.077 497.413,84.644 498.423,85.654 C499.433,86.664 500,88.033 500,89.462 Z M435.385,143.308 L435.385,143.308 Z M494.615,89.462 L435.385,89.462 L435.385,143.308 L447.086,133.212 C447.573,132.782 448.198,132.543 448.846,132.538 L494.615,132.538 Z" />
        </g>
        <g id="Black-S">
            <path d="M660.962,111 C660.962,108.77 662.77,106.962 665,106.962 C667.23,106.962 669.038,108.77 669.038,111 C669.038,113.23 667.23,115.038 665,115.038 C663.929,115.038 662.902,114.613 662.144,113.856 C661.387,113.098 660.962,112.071 660.962,111 Z M650.192,115.038 C652.423,115.038 654.231,113.23 654.231,111 C654.231,108.77 652.423,106.962 650.192,106.962 C647.962,106.962 646.154,108.77 646.154,111 C646.154,112.071 646.579,113.098 647.337,113.856 C648.094,114.613 649.121,115.038 650.192,115.038 Z M679.808,115.038 C682.038,115.038 683.846,113.23 683.846,111 C683.846,108.77 682.038,106.962 679.808,106.962 C677.577,106.962 675.769,108.77 675.769,111 C675.769,112.071 676.195,113.098 676.952,113.856 C677.709,114.613 678.737,115.038 679.808,115.038 Z M700,89.462 L700,132.538 C700,133.967 699.433,135.336 698.423,136.346 C697.413,137.356 696.044,137.923 694.615,137.923 L649.856,137.923 L638.885,147.4 L638.854,147.424 C637.885,148.245 636.655,148.695 635.385,148.692 C634.594,148.691 633.813,148.516 633.096,148.181 C631.198,147.304 629.988,145.398 630,143.308 L630,89.462 C630,88.033 630.567,86.664 631.577,85.654 C632.587,84.644 633.957,84.077 635.385,84.077 L694.615,84.077 C696.044,84.077 697.413,84.644 698.423,85.654 C699.433,86.664 700,88.033 700,89.462 Z M635.385,143.308 L635.385,143.308 Z M694.615,89.462 L635.385,89.462 L635.385,143.308 L647.086,133.212 C647.573,132.782 648.198,132.543 648.846,132.538 L694.615,132.538 Z" />
        </g>
    </g>
</svg>