<?xml version="1.0" encoding="UTF-8"?>
<svg height="600" width="800" xmlns="http://www.w3.org/2000/svg" xmlns:xlink="http://www.w3.org/1999/xlink">
    <g id="Notes" font-family="'LucidaGrande', 'Lucida Grande', sans-serif" font-size="13">
        <rect fill="white" height="600.0" width="800.0" x="0.0" y="0.0" />
        <g font-size="13">
            <text x="18.0" y="176.0">Small</text>
            <text x="18.0" y="376.0">Medium</text>
            <text x="18.0" y="576.0">Large</text>
        </g>
        <g font-size="9">
            <text x="250.0" y="30.0">Ultralight</text>
            <text x="450.0" y="30.0">Regular</text>
            <text x="650.0" y="30.0">Black</text>
            <text id="template-version" fill="#505050" text-anchor="end" x="785.0" y="575.0">Template v.3.0</text>
            <a href="https://github.com/swhitty/SwiftDraw">
                <text fill="#505050" text-anchor="end" x="785.0" y="590.0">https://github.com/swhitty/SwiftDraw</text>
            </a>
        </g>
    </g>
    <g id="Guides" stroke="rgb(39, 170, 225)" stroke-width="0.5">
        <path id="Capline-S" d="M18,76 l800,0" />
        <path id="H-reference" d="M85,145.755 L87.685,145.755 L113.369,79.287 L114.052,79.287 L114.052,76 L112.148,76 L85,145.755 Z M95.693,121.536 L130.996,121.536 L130.263,119.313 L96.474,119.313 L95.693,121.536 Z M139.15,145.755 L141.787,145.755 L114.638,76 L113.466,76 L113.466,79.287 L139.15,145.755 Z" stroke="none" />
        <path id="Baseline-S" d="M18,146 l800,0" />
        <path id="left-margin-Ultralight-S" d="M220,56 l0,110" />
        <path id="right-margin-Ultralight-S" d="M310,56 l0,110" />
        <path id="left-margin-Regular-S" d="M420,56 l0,110" />
        <path id="right-margin-Regular-S" d="M510,56 l0,110" />
        <path id="left-margin-Black-S" d="M620,56 l0,110" />
        <path id="right-margin-Black-S" d="M710,56 l0,110" />
        <path id="Capline-M" d="M18,276 l800,0" />
        <path id="Baseline-M" d="M18,346 l800,0" />
        <path id="Capline-L" d="M18,476 l800,0" />
        <path id="Baseline-L" d="M18,546 l800,0" />
    </g>
    <g id="Symbols">
        <g id="Ultralight-S">
            <path d="M297.308,105.615 C297.308,113.211 294.649,120.154 289.826,125.172 C285.324,129.846 279.219,132.538 273.077,132.538 C267.06,132.538 263.041,130.566 260.48,128.5 L256.852,143.92 C256.568,145.138 255.482,146 254.231,146 C254.022,146 253.815,145.976 253.612,145.929 C252.914,145.769 252.308,145.338 251.929,144.73 C251.55,144.122 251.429,143.389 251.592,142.692 L262.362,96.923 C262.699,95.477 264.148,94.578 265.596,94.916 C267.044,95.255 267.944,96.703 267.605,98.151 L261.918,122.315 C262.981,123.788 266.111,127.154 273.077,127.154 C282.342,127.154 291.923,119.097 291.923,105.615 C291.923,95.441 285.555,86.343 275.986,82.858 C266.417,79.372 255.69,82.241 249.139,90.039 C242.589,97.837 241.613,108.899 246.698,117.723 C247.394,119.005 246.942,120.609 245.678,121.339 C244.415,122.069 242.8,121.659 242.037,120.415 C235.819,109.632 237.007,96.111 245.011,86.578 C253.015,77.045 266.126,73.534 277.823,77.792 C289.52,82.05 297.305,93.168 297.308,105.615 Z" />
        </g>
        <g id="Regular-S">
            <path d="M497.308,105.615 C497.308,113.211 494.649,120.154 489.826,125.172 C485.324,129.846 479.219,132.538 473.077,132.538 C467.06,132.538 463.041,130.566 460.48,128.5 L456.852,143.92 C456.568,145.138 455.482,146 454.231,146 C454.022,146 453.815,145.976 453.612,145.929 C452.914,145.769 452.308,145.338 451.929,144.73 C451.55,144.122 451.429,143.389 451.592,142.692 L462.362,96.923 C462.699,95.477 464.148,94.578 465.596,94.916 C467.044,95.255 467.944,96.703 467.605,98.151 L461.918,122.315 C462.981,123.788 466.111,127.154 473.077,127.154 C482.342,127.154 491.923,119.097 491.923,105.615 C491.923,95.441 485.555,86.343 475.986,82.858 C466.417,79.372 455.69,82.241 449.139,90.039 C442.589,97.837 441.613,108.899 446.698,117.723 C447.394,119.005 446.942,120.609 445.678,121.339 C444.415,122.069 442.8,121.659 442.037,120.415 C435.819,109.632 437.007,96.111 445.011,86.578 C453.015,77.045 466.126,73.534 477.823,77.792 C489.52,82.05 497.305,93.168 497.308,105.615 Z" />
        </g>
        <g id="Black-S">
            <path d="M697.308,105.615 C697.308,113.211 694.649,120.154 689.826,125.172 C685.324,129.846 679.219,132.538 673.077,132.538 C667.06,132.538 663.041,130.566 660.48,128.5 L656.852,143.92 C656.568,145.138 655.482,146 654.231,146 C654.022,146 653.815,145.976 653.612,145.929 C652.914,145.769 652.308,145.338 651.929,144.73 C651.55,144.122 651.429,143.389 651.592,142.692 L662.362,96.923 C662.699,95.477 664.148,94.578 665.596,94.916 C667.044,95.255 667.944,96.703 667.606,98.151 L661.918,122.315 C662.981,123.788 666.111,127.154 673.077,127.154 C682.342,127.154 691.923,119.097 691.923,105.615 C691.923,95.441 685.555,86.343 675.986,82.858 C666.417,79.372 655.69,82.241 649.139,90.039 C642.589,97.837 641.613,108.899 646.698,117.723 C647.394,119.005 646.942,120.609 645.678,121.339 C644.415,122.069 642.8,121.659 642.037,120.415 C635.819,109.632 637.007,96.111 645.011,86.578 C653.015,77.045 666.126,73.534 677.823,77.792 C689.52,82.05 697.305,93.168 697.308,105.615 Z" />
        </g>
    </g>
</svg>