<?xml version="1.0" encoding="UTF-8"?>
<svg height="600" width="800" xmlns="http://www.w3.org/2000/svg" xmlns:xlink="http://www.w3.org/1999/xlink">
    <g id="Notes" font-family="'LucidaGrande', 'Lucida Grande', sans-serif" font-size="13">
        <rect fill="white" height="600.0" width="800.0" x="0.0" y="0.0" />
        <g font-size="13">
            <text x="18.0" y="176.0">Small</text>
            <text x="18.0" y="376.0">Medium</text>
            <text x="18.0" y="576.0">Large</text>
        </g>
        <g font-size="9">
            <text x="250.0" y="30.0">Ultralight</text>
            <text x="450.0" y="30.0">Regular</text>
            <text x="650.0" y="30.0">Black</text>
            <text id="template-version" fill="#505050" text-anchor="end" x="785.0" y="575.0">Template v.3.0</text>
            <a href="https://github.com/swhitty/SwiftDraw">
                <text fill="#505050" text-anchor="end" x="785.0" y="590.0">https://github.com/swhitty/SwiftDraw</text>
            </a>
        </g>
    </g>
    <g id="Guides" stroke="rgb(39, 170, 225)" stroke-width="0.5">
        <path id="Capline-S" d="M18,76 l800,0" />
        <path id="H-reference" d="M85,145.755 L87.685,145.755 L113.369,79.287 L114.052,79.287 L114.052,76 L112.148,76 L85,145.755 Z M95.693,121.536 L130.996,121.536 L130.263,119.313 L96.474,119.313 L95.693,121.536 Z M139.15,145.755 L141.787,145.755 L114.638,76 L113.466,76 L113.466,79.287 L139.15,145.755 Z" stroke="none" />
        <path id="Baseline-S" d="M18,146 l800,0" />
        <path id="left-margin-Ultralight-S" d="M220,56 l0,110" />
        <path id="right-margin-Ultralight-S" d="M310,56 l0,110" />
        <path id="left-margin-Regular-S" d="M420,56 l0,110" />
        <path id="right-margin-Regular-S" d="M510,56 l0,110" />
        <path id="left-margin-Black-S" d="M620,56 l0,110" />
        <path id="right-margin-Black-S" d="M710,56 l0,110" />
        <path id="Capline-M" d="M18,276 l800,0" />
        <path id="Baseline-M" d="M18,346 l800,0" />
        <path id="Capline-L" d="M18,476 l800,0" />
        <path id="Baseline-L" d="M18,546 l800,0" />
    </g>
    <g id="Symbols">
        <g id="Ultralight-S">
            <path d="M238.077,108.308 C238.791,108.308 239.476,108.024 239.981,107.519 C240.486,107.014 240.769,106.329 240.769,105.615 L240.769,81.385 L270.385,81.385 L270.385,97.538 C270.385,98.253 270.668,98.937 271.173,99.442 C271.678,99.947 272.363,100.231 273.077,100.231 L289.231,100.231 L289.231,105.615 C289.231,107.102 290.436,108.308 291.923,108.308 C293.41,108.308 294.615,107.102 294.615,105.615 L294.615,97.538 C294.616,96.824 294.333,96.139 293.828,95.634 L274.982,76.788 C274.477,76.283 273.791,75.999 273.077,76 L240.769,76 C239.341,76 237.972,76.567 236.962,77.577 C235.952,78.587 235.385,79.957 235.385,81.385 L235.385,105.615 C235.385,106.329 235.668,107.014 236.173,107.519 C236.678,108.024 237.363,108.308 238.077,108.308 Z M275.769,85.191 L285.425,94.846 L275.769,94.846 Z M273.922,120.642 L268.308,128.5 L273.922,136.358 C274.706,137.566 274.402,139.177 273.231,140.015 C272.059,140.853 270.436,140.621 269.547,139.488 L265,133.131 L260.46,139.488 C259.92,140.319 258.968,140.786 257.981,140.704 C256.994,140.622 256.131,140.005 255.735,139.097 C255.339,138.189 255.473,137.137 256.085,136.358 L261.692,128.5 L256.078,120.642 C255.467,119.863 255.332,118.811 255.728,117.903 C256.124,116.995 256.987,116.378 257.974,116.296 C258.961,116.214 259.914,116.681 260.453,117.512 L265,123.869 L269.54,117.512 C270.429,116.379 272.053,116.147 273.224,116.985 C274.395,117.823 274.7,119.434 273.915,120.642 Z M252.885,119.077 C252.885,119.791 252.601,120.476 252.096,120.981 C251.591,121.486 250.906,121.769 250.192,121.769 L246.154,121.769 L246.154,137.923 C246.154,139.41 244.948,140.615 243.462,140.615 C241.975,140.615 240.769,139.41 240.769,137.923 L240.769,121.769 L236.731,121.769 C235.244,121.769 234.038,120.564 234.038,119.077 C234.038,117.59 235.244,116.385 236.731,116.385 L250.192,116.385 C250.906,116.385 251.591,116.668 252.096,117.173 C252.601,117.678 252.885,118.363 252.885,119.077 Z M295.962,119.077 C295.962,119.791 295.678,120.476 295.173,120.981 C294.668,121.486 293.983,121.769 293.269,121.769 L289.231,121.769 L289.231,137.923 C289.231,139.41 288.025,140.615 286.538,140.615 C285.052,140.615 283.846,139.41 283.846,137.923 L283.846,121.769 L279.808,121.769 C278.321,121.769 277.115,120.564 277.115,119.077 C277.115,117.59 278.321,116.385 279.808,116.385 L293.269,116.385 C293.983,116.385 294.668,116.668 295.173,117.173 C295.678,117.678 295.962,118.363 295.962,119.077 Z" />
        </g>
        <g id="Regular-S">
            <path d="M438.077,108.308 C438.791,108.308 439.476,108.024 439.981,107.519 C440.486,107.014 440.769,106.329 440.769,105.615 L440.769,81.385 L470.385,81.385 L470.385,97.538 C470.385,98.253 470.668,98.937 471.173,99.442 C471.678,99.947 472.363,100.231 473.077,100.231 L489.231,100.231 L489.231,105.615 C489.231,107.102 490.436,108.308 491.923,108.308 C493.41,108.308 494.615,107.102 494.615,105.615 L494.615,97.538 C494.616,96.824 494.333,96.139 493.828,95.634 L474.982,76.788 C474.477,76.283 473.791,75.999 473.077,76 L440.769,76 C439.341,76 437.972,76.567 436.962,77.577 C435.952,78.587 435.385,79.957 435.385,81.385 L435.385,105.615 C435.385,106.329 435.668,107.014 436.173,107.519 C436.678,108.024 437.363,108.308 438.077,108.308 Z M475.769,85.191 L485.424,94.846 L475.769,94.846 Z M473.922,120.642 L468.308,128.5 L473.922,136.358 C474.706,137.566 474.402,139.177 473.231,140.015 C472.059,140.853 470.436,140.621 469.547,139.488 L465,133.131 L460.46,139.488 C459.92,140.319 458.968,140.786 457.981,140.704 C456.994,140.622 456.131,140.005 455.735,139.097 C455.339,138.189 455.473,137.137 456.085,136.358 L461.692,128.5 L456.078,120.642 C455.467,119.863 455.332,118.811 455.728,117.903 C456.124,116.995 456.987,116.378 457.974,116.296 C458.961,116.214 459.914,116.681 460.453,117.512 L465,123.869 L469.54,117.512 C470.429,116.379 472.053,116.147 473.224,116.985 C474.395,117.823 474.7,119.434 473.915,120.642 Z M452.885,119.077 C452.885,119.791 452.601,120.476 452.096,120.981 C451.591,121.486 450.906,121.769 450.192,121.769 L446.154,121.769 L446.154,137.923 C446.154,139.41 444.948,140.615 443.462,140.615 C441.975,140.615 440.769,139.41 440.769,137.923 L440.769,121.769 L436.731,121.769 C435.244,121.769 434.038,120.564 434.038,119.077 C434.038,117.59 435.244,116.385 436.731,116.385 L450.192,116.385 C450.906,116.385 451.591,116.668 452.096,117.173 C452.601,117.678 452.885,118.363 452.885,119.077 Z M495.962,119.077 C495.962,119.791 495.678,120.476 495.173,120.981 C494.668,121.486 493.983,121.769 493.269,121.769 L489.231,121.769 L489.231,137.923 C489.231,139.41 488.025,140.615 486.538,140.615 C485.052,140.615 483.846,139.41 483.846,137.923 L483.846,121.769 L479.808,121.769 C478.321,121.769 477.115,120.564 477.115,119.077 C477.115,117.59 478.321,116.385 479.808,116.385 L493.269,116.385 C493.983,116.385 494.668,116.668 495.173,117.173 C495.678,117.678 495.962,118.363 495.962,119.077 Z" />
        </g>
        <g id="Black-S">
            <path d="M638.077,108.308 C638.791,108.308 639.476,108.024 639.981,107.519 C640.486,107.014 640.769,106.329 640.769,105.615 L640.769,81.385 L670.385,81.385 L670.385,97.538 C670.385,98.253 670.668,98.937 671.173,99.442 C671.678,99.947 672.363,100.231 673.077,100.231 L689.231,100.231 L689.231,105.615 C689.231,107.102 690.436,108.308 691.923,108.308 C693.41,108.308 694.615,107.102 694.615,105.615 L694.615,97.538 C694.616,96.824 694.333,96.139 693.828,95.634 L674.982,76.788 C674.477,76.283 673.791,75.999 673.077,76 L640.769,76 C639.341,76 637.972,76.567 636.962,77.577 C635.952,78.587 635.385,79.957 635.385,81.385 L635.385,105.615 C635.385,106.329 635.668,107.014 636.173,107.519 C636.678,108.024 637.363,108.308 638.077,108.308 Z M675.769,85.191 L685.425,94.846 L675.769,94.846 Z M673.922,120.642 L668.308,128.5 L673.922,136.358 C674.706,137.566 674.402,139.177 673.231,140.015 C672.059,140.853 670.436,140.621 669.547,139.488 L665,133.131 L660.46,139.488 C659.92,140.319 658.968,140.786 657.981,140.704 C656.994,140.622 656.131,140.005 655.735,139.097 C655.339,138.189 655.473,137.137 656.085,136.358 L661.692,128.5 L656.078,120.642 C655.467,119.863 655.332,118.811 655.728,117.903 C656.124,116.995 656.987,116.378 657.974,116.296 C658.961,116.214 659.914,116.681 660.453,117.512 L665,123.869 L669.54,117.512 C670.429,116.379 672.053,116.147 673.224,116.985 C674.395,117.823 674.7,119.434 673.915,120.642 Z M652.885,119.077 C652.885,119.791 652.601,120.476 652.096,120.981 C651.591,121.486 650.906,121.769 650.192,121.769 L646.154,121.769 L646.154,137.923 C646.154,139.41 644.948,140.615 643.462,140.615 C641.975,140.615 640.769,139.41 640.769,137.923 L640.769,121.769 L636.731,121.769 C635.244,121.769 634.038,120.564 634.038,119.077 C634.038,117.59 635.244,116.385 636.731,116.385 L650.192,116.385 C650.906,116.385 651.591,116.668 652.096,117.173 C652.601,117.678 652.885,118.363 652.885,119.077 Z M695.962,119.077 C695.962,119.791 695.678,120.476 695.173,120.981 C694.668,121.486 693.983,121.769 693.269,121.769 L689.231,121.769 L689.231,137.923 C689.231,139.41 688.025,140.615 686.538,140.615 C685.052,140.615 683.846,139.41 683.846,137.923 L683.846,121.769 L679.808,121.769 C678.321,121.769 677.115,120.564 677.115,119.077 C677.115,117.59 678.321,116.385 679.808,116.385 L693.269,116.385 C693.983,116.385 694.668,116.668 695.173,117.173 C695.678,117.678 695.962,118.363 695.962,119.077 Z" />
        </g>
    </g>
</svg>