<?xml version="1.0" encoding="UTF-8"?>
<svg height="600" width="800" xmlns="http://www.w3.org/2000/svg" xmlns:xlink="http://www.w3.org/1999/xlink">
    <g id="Notes" font-family="'LucidaGrande', 'Lucida Grande', sans-serif" font-size="13">
        <rect fill="white" height="600.0" width="800.0" x="0.0" y="0.0" />
        <g font-size="13">
            <text x="18.0" y="176.0">Small</text>
            <text x="18.0" y="376.0">Medium</text>
            <text x="18.0" y="576.0">Large</text>
        </g>
        <g font-size="9">
            <text x="250.0" y="30.0">Ultralight</text>
            <text x="450.0" y="30.0">Regular</text>
            <text x="650.0" y="30.0">Black</text>
            <text id="template-version" fill="#505050" text-anchor="end" x="785.0" y="575.0">Template v.3.0</text>
            <a href="https://github.com/swhitty/SwiftDraw">
                <text fill="#505050" text-anchor="end" x="785.0" y="590.0">https://github.com/swhitty/SwiftDraw</text>
            </a>
        </g>
    </g>
    <g id="Guides" stroke="rgb(39, 170, 225)" stroke-width="0.5">
        <path id="Capline-S" d="M18,76 l800,0" />
        <path id="H-reference" d="M85,145.755 L87.685,145.755 L113.369,79.287 L114.052,79.287 L114.052,76 L112.148,76 L85,145.755 Z M95.693,121.536 L130.996,121.536 L130.263,119.313 L96.474,119.313 L95.693,121.536 Z M139.15,145.755 L141.787,145.755 L114.638,76 L113.466,76 L113.466,79.287 L139.15,145.755 Z" stroke="none" />
        <path id="Baseline-S" d="M18,146 l800,0" />
        <path id="left-margin-Ultralight-S" d="M220,56 l0,110" />
        <path id="right-margin-Ultralight-S" d="M310,56 l0,110" />
        <path id="left-margin-Regular-S" d="M420,56 l0,110" />
        <path id="right-margin-Regular-S" d="M510,56 l0,110" />
        <path id="left-margin-Black-S" d="M620,56 l0,110" />
        <path id="right-margin-Black-S" d="M710,56 l0,110" />
        <path id="Capline-M" d="M18,276 l800,0" />
        <path id="Baseline-M" d="M18,346 l800,0" />
        <path id="Capline-L" d="M18,476 l800,0" />
        <path id="Baseline-L" d="M18,546 l800,0" />
    </g>
    <g id="Symbols">
        <g id="Ultralight-S">
            <path d="M240.069,79.574 C239.426,78.849 238.442,78.525 237.494,78.728 C236.546,78.93 235.779,79.626 235.488,80.551 C235.196,81.475 235.424,82.486 236.085,83.195 L239.359,86.8 C238.933,86.779 238.505,86.779 238.077,86.769 C237.363,86.769 236.678,87.053 236.173,87.558 C235.668,88.063 235.385,88.747 235.385,89.462 L235.385,116.385 C235.402,132.732 248.65,145.981 264.999,146 L264.999,146 C272.689,146.006 280.078,143.014 285.598,137.661 L289.93,142.426 C290.573,143.151 291.557,143.475 292.505,143.272 C293.453,143.07 294.22,142.374 294.511,141.449 C294.803,140.525 294.575,139.514 293.914,138.805 Z M267.79,118.067 C266.71,119.588 265.776,121.207 265,122.903 C260.573,113.261 251.334,106.717 240.769,105.74 L240.769,92.302 C242.274,92.47 243.759,92.78 245.205,93.227 Z M262.308,140.467 C250.05,139.082 240.784,128.72 240.769,116.385 L240.769,111.148 C253.026,112.534 262.293,122.895 262.308,135.231 Z M267.692,140.467 L267.692,135.231 C267.692,130.613 269.017,126.08 271.509,122.179 L281.969,133.686 C278.104,137.482 273.076,139.87 267.692,140.467 Z M294.615,116.385 C294.616,119.051 294.259,121.7 293.554,124.265 C293.233,125.434 292.171,126.244 290.959,126.244 C290.716,126.244 290.474,126.211 290.24,126.144 C288.808,125.75 287.966,124.269 288.359,122.836 C288.936,120.734 289.229,118.564 289.231,116.385 L289.231,111.145 C286.349,111.459 283.548,112.295 280.965,113.612 C280.104,114.082 279.055,114.047 278.228,113.519 C277.4,112.992 276.925,112.056 276.988,111.077 C277.05,110.098 277.641,109.23 278.529,108.813 C281.865,107.109 285.499,106.065 289.231,105.737 L289.231,92.305 C282.447,93.077 276.299,96.662 272.286,102.186 C271.422,103.39 269.736,103.667 268.525,102.799 C267.315,101.93 267.037,100.244 267.906,99.033 C270.188,95.89 273.065,93.226 276.373,91.192 C273.286,84.683 267.507,80.624 265,79.096 C262.045,80.915 259.389,83.178 257.125,85.807 C256.513,86.573 255.534,86.946 254.568,86.781 C253.602,86.616 252.802,85.939 252.479,85.013 C252.156,84.088 252.362,83.06 253.016,82.33 C256.035,78.774 259.686,75.807 263.785,73.58 C264.543,73.201 265.436,73.201 266.195,73.58 C266.639,73.802 276.382,78.773 281.201,88.775 C284.62,87.448 288.256,86.767 291.923,86.769 C292.637,86.769 293.322,87.053 293.827,87.558 C294.332,88.063 294.615,88.747 294.615,89.462 Z" />
        </g>
        <g id="Regular-S">
            <path d="M440.069,79.574 C439.426,78.849 438.442,78.525 437.494,78.728 C436.546,78.93 435.779,79.626 435.488,80.551 C435.196,81.475 435.424,82.486 436.085,83.195 L439.359,86.8 C438.933,86.779 438.505,86.779 438.077,86.769 C437.363,86.769 436.678,87.053 436.173,87.558 C435.668,88.063 435.385,88.747 435.385,89.462 L435.385,116.385 C435.402,132.732 448.65,145.981 464.999,146 L464.999,146 C472.689,146.006 480.078,143.014 485.598,137.661 L489.93,142.426 C490.573,143.151 491.557,143.475 492.505,143.272 C493.453,143.07 494.22,142.374 494.511,141.449 C494.803,140.525 494.575,139.514 493.914,138.805 Z M467.79,118.067 C466.71,119.588 465.776,121.207 465,122.903 C460.573,113.261 451.334,106.717 440.769,105.74 L440.769,92.302 C442.274,92.47 443.759,92.78 445.205,93.227 Z M462.308,140.467 C450.05,139.082 440.784,128.72 440.769,116.385 L440.769,111.148 C453.026,112.534 462.293,122.895 462.308,135.231 Z M467.692,140.467 L467.692,135.231 C467.692,130.613 469.017,126.08 471.509,122.179 L481.969,133.686 C478.104,137.482 473.076,139.87 467.692,140.467 Z M494.615,116.385 C494.616,119.051 494.259,121.7 493.554,124.265 C493.233,125.434 492.171,126.244 490.959,126.244 C490.716,126.244 490.474,126.211 490.24,126.144 C488.808,125.75 487.966,124.269 488.359,122.836 C488.936,120.734 489.229,118.564 489.231,116.385 L489.231,111.145 C486.349,111.459 483.548,112.295 480.965,113.612 C480.104,114.082 479.055,114.047 478.228,113.519 C477.4,112.992 476.925,112.056 476.988,111.077 C477.05,110.098 477.641,109.23 478.529,108.813 C481.865,107.109 485.499,106.065 489.231,105.737 L489.231,92.305 C482.447,93.077 476.299,96.662 472.286,102.186 C471.422,103.39 469.736,103.667 468.525,102.799 C467.315,101.93 467.037,100.244 467.906,99.033 C470.188,95.89 473.065,93.226 476.373,91.192 C473.286,84.683 467.507,80.624 465,79.096 C462.045,80.915 459.389,83.178 457.125,85.807 C456.513,86.573 455.534,86.946 454.568,86.781 C453.602,86.616 452.802,85.939 452.479,85.013 C452.156,84.088 452.362,83.06 453.016,82.33 C456.035,78.774 459.686,75.807 463.785,73.58 C464.543,73.201 465.436,73.201 466.195,73.58 C466.639,73.802 476.382,78.773 481.201,88.775 C484.62,87.448 488.256,86.767 491.923,86.769 C492.637,86.769 493.322,87.053 493.827,87.558 C494.332,88.063 494.615,88.747 494.615,89.462 Z" />
        </g>
        <g id="Black-S">
            <path d="M640.069,79.574 C639.426,78.849 638.442,78.525 637.494,78.728 C636.546,78.93 635.779,79.626 635.488,80.551 C635.196,81.475 635.424,82.486 636.085,83.195 L639.359,86.8 C638.933,86.779 638.505,86.779 638.077,86.769 C637.363,86.769 636.678,87.053 636.173,87.558 C635.668,88.063 635.385,88.747 635.385,89.462 L635.385,116.385 C635.402,132.732 648.65,145.981 664.999,146 L664.999,146 C672.689,146.006 680.078,143.014 685.598,137.661 L689.93,142.426 C690.573,143.151 691.557,143.475 692.505,143.272 C693.453,143.07 694.22,142.374 694.511,141.449 C694.803,140.525 694.575,139.514 693.914,138.805 Z M667.79,118.067 C666.71,119.588 665.776,121.207 665,122.903 C660.573,113.261 651.334,106.717 640.769,105.74 L640.769,92.302 C642.274,92.47 643.759,92.78 645.205,93.227 Z M662.308,140.467 C650.05,139.082 640.784,128.72 640.769,116.385 L640.769,111.148 C653.026,112.534 662.293,122.895 662.308,135.231 Z M667.692,140.467 L667.692,135.231 C667.692,130.613 669.017,126.08 671.509,122.179 L681.969,133.686 C678.104,137.482 673.077,139.87 667.692,140.467 Z M694.615,116.385 C694.616,119.051 694.259,121.7 693.554,124.265 C693.233,125.434 692.171,126.244 690.959,126.244 C690.716,126.244 690.474,126.211 690.24,126.144 C688.808,125.75 687.966,124.269 688.359,122.836 C688.936,120.734 689.229,118.564 689.231,116.385 L689.231,111.145 C686.349,111.459 683.548,112.295 680.965,113.612 C680.104,114.082 679.055,114.047 678.228,113.519 C677.4,112.992 676.925,112.056 676.988,111.077 C677.05,110.098 677.641,109.23 678.529,108.813 C681.865,107.109 685.499,106.065 689.231,105.737 L689.231,92.305 C682.447,93.077 676.299,96.662 672.286,102.186 C671.422,103.39 669.736,103.667 668.526,102.799 C667.315,101.93 667.037,100.244 667.906,99.033 C670.188,95.89 673.065,93.226 676.373,91.192 C673.286,84.683 667.507,80.624 665,79.096 C662.045,80.915 659.389,83.178 657.125,85.807 C656.513,86.573 655.534,86.946 654.568,86.781 C653.602,86.616 652.802,85.939 652.479,85.013 C652.156,84.088 652.362,83.06 653.016,82.33 C656.035,78.774 659.686,75.807 663.785,73.58 C664.544,73.201 665.436,73.201 666.195,73.58 C666.639,73.802 676.382,78.773 681.201,88.775 C684.62,87.448 688.256,86.767 691.923,86.769 C692.637,86.769 693.322,87.053 693.827,87.558 C694.332,88.063 694.615,88.747 694.615,89.462 Z" />
        </g>
    </g>
</svg>