<?xml version="1.0" encoding="UTF-8"?>
<svg height="600" width="800" xmlns="http://www.w3.org/2000/svg" xmlns:xlink="http://www.w3.org/1999/xlink">
    <g id="Notes" font-family="'LucidaGrande', 'Lucida Grande', sans-serif" font-size="13">
        <rect fill="white" height="600.0" width="800.0" x="0.0" y="0.0" />
        <g font-size="13">
            <text x="18.0" y="176.0">Small</text>
            <text x="18.0" y="376.0">Medium</text>
            <text x="18.0" y="576.0">Large</text>
        </g>
        <g font-size="9">
            <text x="250.0" y="30.0">Ultralight</text>
            <text x="450.0" y="30.0">Regular</text>
            <text x="650.0" y="30.0">Black</text>
            <text id="template-version" fill="#505050" text-anchor="end" x="785.0" y="575.0">Template v.3.0</text>
            <a href="https://github.com/swhitty/SwiftDraw">
                <text fill="#505050" text-anchor="end" x="785.0" y="590.0">https://github.com/swhitty/SwiftDraw</text>
            </a>
        </g>
    </g>
    <g id="Guides" stroke="rgb(39, 170, 225)" stroke-width="0.5">
        <path id="Capline-S" d="M18,76 l800,0" />
        <path id="H-reference" d="M85,145.755 L87.685,145.755 L113.369,79.287 L114.052,79.287 L114.052,76 L112.148,76 L85,145.755 Z M95.693,121.536 L130.996,121.536 L130.263,119.313 L96.474,119.313 L95.693,121.536 Z M139.15,145.755 L141.787,145.755 L114.638,76 L113.466,76 L113.466,79.287 L139.15,145.755 Z" stroke="none" />
        <path id="Baseline-S" d="M18,146 l800,0" />
        <path id="left-margin-Ultralight-S" d="M220,56 l0,110" />
        <path id="right-margin-Ultralight-S" d="M310,56 l0,110" />
        <path id="left-margin-Regular-S" d="M420,56 l0,110" />
        <path id="right-margin-Regular-S" d="M510,56 l0,110" />
        <path id="left-margin-Black-S" d="M620,56 l0,110" />
        <path id="right-margin-Black-S" d="M710,56 l0,110" />
        <path id="Capline-M" d="M18,276 l800,0" />
        <path id="Baseline-M" d="M18,346 l800,0" />
        <path id="Capline-L" d="M18,476 l800,0" />
        <path id="Baseline-L" d="M18,546 l800,0" />
    </g>
    <g id="Symbols">
        <g id="Ultralight-S">
            <path d="M291.923,78.692 C291.923,79.406 291.639,80.091 291.135,80.596 C290.63,81.101 289.945,81.385 289.231,81.385 C272.882,81.403 259.634,94.652 259.615,111 L259.615,136.809 L271.172,125.249 C272.222,124.198 273.928,124.197 274.981,125.248 C276.033,126.299 276.034,128.005 274.983,129.058 L258.829,145.211 C258.324,145.717 257.639,146.001 256.924,146.001 C256.21,146.001 255.524,145.717 255.019,145.211 L238.865,129.058 C237.813,128.004 237.814,126.298 238.867,125.247 C239.919,124.196 241.625,124.196 242.676,125.249 L254.231,136.809 L254.231,111 C254.252,91.677 269.911,76.02 289.232,76 C290.718,76.001 291.923,77.206 291.923,78.692 Z" />
        </g>
        <g id="Regular-S">
            <path d="M491.923,78.692 C491.923,79.406 491.639,80.091 491.135,80.596 C490.63,81.101 489.945,81.385 489.231,81.385 C472.882,81.403 459.634,94.652 459.615,111 L459.615,136.809 L471.172,125.249 C472.222,124.198 473.928,124.197 474.981,125.248 C476.033,126.299 476.034,128.005 474.983,129.058 L458.829,145.211 C458.324,145.717 457.639,146.001 456.924,146.001 C456.21,146.001 455.524,145.717 455.019,145.211 L438.865,129.058 C437.813,128.004 437.814,126.298 438.867,125.247 C439.919,124.196 441.625,124.196 442.676,125.249 L454.231,136.809 L454.231,111 C454.252,91.677 469.91,76.02 489.232,76 C490.718,76.001 491.923,77.206 491.923,78.692 Z" />
        </g>
        <g id="Black-S">
            <path d="M691.923,78.692 C691.923,79.406 691.639,80.091 691.135,80.596 C690.63,81.101 689.945,81.385 689.231,81.385 C672.882,81.403 659.634,94.652 659.615,111 L659.615,136.809 L671.172,125.249 C672.222,124.198 673.928,124.197 674.981,125.248 C676.033,126.299 676.034,128.005 674.983,129.058 L658.829,145.211 C658.324,145.717 657.639,146.001 656.924,146.001 C656.21,146.001 655.524,145.717 655.019,145.211 L638.865,129.058 C637.813,128.004 637.814,126.298 638.867,125.247 C639.919,124.196 641.625,124.196 642.676,125.249 L654.231,136.809 L654.231,111 C654.252,91.677 669.911,76.02 689.232,76 C690.719,76.001 691.923,77.206 691.923,78.692 Z" />
        </g>
    </g>
</svg>