<?xml version="1.0" encoding="UTF-8"?>
<svg height="600" width="800" xmlns="http://www.w3.org/2000/svg" xmlns:xlink="http://www.w3.org/1999/xlink">
    <g id="Notes" font-family="'LucidaGrande', 'Lucida Grande', sans-serif" font-size="13">
        <rect fill="white" height="600.0" width="800.0" x="0.0" y="0.0" />
        <g font-size="13">
            <text x="18.0" y="176.0">Small</text>
            <text x="18.0" y="376.0">Medium</text>
            <text x="18.0" y="576.0">Large</text>
        </g>
        <g font-size="9">
            <text x="250.0" y="30.0">Ultralight</text>
            <text x="450.0" y="30.0">Regular</text>
            <text x="650.0" y="30.0">Black</text>
            <text id="template-version" fill="#505050" text-anchor="end" x="785.0" y="575.0">Template v.3.0</text>
            <a href="https://github.com/swhitty/SwiftDraw">
                <text fill="#505050" text-anchor="end" x="785.0" y="590.0">https://github.com/swhitty/SwiftDraw</text>
            </a>
        </g>
    </g>
    <g id="Guides" stroke="rgb(39, 170, 225)" stroke-width="0.5">
        <path id="Capline-S" d="M18,76 l800,0" />
        <path id="H-reference" d="M85,145.755 L87.685,145.755 L113.369,79.287 L114.052,79.287 L114.052,76 L112.148,76 L85,145.755 Z M95.693,121.536 L130.996,121.536 L130.263,119.313 L96.474,119.313 L95.693,121.536 Z M139.15,145.755 L141.787,145.755 L114.638,76 L113.466,76 L113.466,79.287 L139.15,145.755 Z" stroke="none" />
        <path id="Baseline-S" d="M18,146 l800,0" />
        <path id="left-margin-Ultralight-S" d="M220,56 l0,110" />
        <path id="right-margin-Ultralight-S" d="M310,56 l0,110" />
        <path id="left-margin-Regular-S" d="M420,56 l0,110" />
        <path id="right-margin-Regular-S" d="M510,56 l0,110" />
        <path id="left-margin-Black-S" d="M620,56 l0,110" />
        <path id="right-margin-Black-S" d="M710,56 l0,110" />
        <path id="Capline-M" d="M18,276 l800,0" />
        <path id="Baseline-M" d="M18,346 l800,0" />
        <path id="Capline-L" d="M18,476 l800,0" />
        <path id="Baseline-L" d="M18,546 l800,0" />
    </g>
    <g id="Symbols">
        <g id="Ultralight-S">
            <path d="M273.077,100.231 L273.077,84.077 C273.077,82.59 274.282,81.385 275.769,81.385 C277.256,81.385 278.462,82.59 278.462,84.077 L278.462,97.538 L291.923,97.538 C293.41,97.538 294.615,98.744 294.615,100.231 C294.615,101.718 293.41,102.923 291.923,102.923 L275.769,102.923 C275.055,102.923 274.37,102.639 273.865,102.135 C273.361,101.63 273.077,100.945 273.077,100.231 Z M254.231,119.077 L238.077,119.077 C236.59,119.077 235.385,120.282 235.385,121.769 C235.385,123.256 236.59,124.462 238.077,124.462 L251.538,124.462 L251.538,137.923 C251.538,139.41 252.744,140.615 254.231,140.615 C255.718,140.615 256.923,139.41 256.923,137.923 L256.923,121.769 C256.923,121.055 256.639,120.37 256.135,119.865 C255.63,119.361 254.945,119.077 254.231,119.077 Z M291.923,119.077 L275.769,119.077 C275.055,119.077 274.37,119.361 273.865,119.865 C273.361,120.37 273.077,121.055 273.077,121.769 L273.077,137.923 C273.077,139.41 274.282,140.615 275.769,140.615 C277.256,140.615 278.462,139.41 278.462,137.923 L278.462,124.462 L291.923,124.462 C293.41,124.462 294.615,123.256 294.615,121.769 C294.615,120.282 293.41,119.077 291.923,119.077 Z M254.231,81.385 C253.517,81.385 252.832,81.668 252.327,82.173 C251.822,82.678 251.538,83.363 251.538,84.077 L251.538,97.538 L238.077,97.538 C236.59,97.538 235.385,98.744 235.385,100.231 C235.385,101.718 236.59,102.923 238.077,102.923 L254.231,102.923 C254.945,102.923 255.63,102.639 256.135,102.135 C256.639,101.63 256.923,100.945 256.923,100.231 L256.923,84.077 C256.923,83.363 256.639,82.678 256.135,82.173 C255.63,81.668 254.945,81.385 254.231,81.385 Z" />
        </g>
        <g id="Regular-S">
            <path d="M473.077,100.231 L473.077,84.077 C473.077,82.59 474.282,81.385 475.769,81.385 C477.256,81.385 478.462,82.59 478.462,84.077 L478.462,97.538 L491.923,97.538 C493.41,97.538 494.615,98.744 494.615,100.231 C494.615,101.718 493.41,102.923 491.923,102.923 L475.769,102.923 C475.055,102.923 474.37,102.639 473.865,102.135 C473.361,101.63 473.077,100.945 473.077,100.231 Z M454.231,119.077 L438.077,119.077 C436.59,119.077 435.385,120.282 435.385,121.769 C435.385,123.256 436.59,124.462 438.077,124.462 L451.538,124.462 L451.538,137.923 C451.538,139.41 452.744,140.615 454.231,140.615 C455.718,140.615 456.923,139.41 456.923,137.923 L456.923,121.769 C456.923,121.055 456.639,120.37 456.135,119.865 C455.63,119.361 454.945,119.077 454.231,119.077 Z M491.923,119.077 L475.769,119.077 C475.055,119.077 474.37,119.361 473.865,119.865 C473.361,120.37 473.077,121.055 473.077,121.769 L473.077,137.923 C473.077,139.41 474.282,140.615 475.769,140.615 C477.256,140.615 478.462,139.41 478.462,137.923 L478.462,124.462 L491.923,124.462 C493.41,124.462 494.615,123.256 494.615,121.769 C494.615,120.282 493.41,119.077 491.923,119.077 Z M454.231,81.385 C453.517,81.385 452.832,81.668 452.327,82.173 C451.822,82.678 451.538,83.363 451.538,84.077 L451.538,97.538 L438.077,97.538 C436.59,97.538 435.385,98.744 435.385,100.231 C435.385,101.718 436.59,102.923 438.077,102.923 L454.231,102.923 C454.945,102.923 455.63,102.639 456.135,102.135 C456.639,101.63 456.923,100.945 456.923,100.231 L456.923,84.077 C456.923,83.363 456.639,82.678 456.135,82.173 C455.63,81.668 454.945,81.385 454.231,81.385 Z" />
        </g>
        <g id="Black-S">
            <path d="M673.077,100.231 L673.077,84.077 C673.077,82.59 674.282,81.385 675.769,81.385 C677.256,81.385 678.462,82.59 678.462,84.077 L678.462,97.538 L691.923,97.538 C693.41,97.538 694.615,98.744 694.615,100.231 C694.615,101.718 693.41,102.923 691.923,102.923 L675.769,102.923 C675.055,102.923 674.37,102.639 673.865,102.135 C673.361,101.63 673.077,100.945 673.077,100.231 Z M654.231,119.077 L638.077,119.077 C636.59,119.077 635.385,120.282 635.385,121.769 C635.385,123.256 636.59,124.462 638.077,124.462 L651.538,124.462 L651.538,137.923 C651.538,139.41 652.744,140.615 654.231,140.615 C655.718,140.615 656.923,139.41 656.923,137.923 L656.923,121.769 C656.923,121.055 656.639,120.37 656.135,119.865 C655.63,119.361 654.945,119.077 654.231,119.077 Z M691.923,119.077 L675.769,119.077 C675.055,119.077 674.37,119.361 673.865,119.865 C673.361,120.37 673.077,121.055 673.077,121.769 L673.077,137.923 C673.077,139.41 674.282,140.615 675.769,140.615 C677.256,140.615 678.462,139.41 678.462,137.923 L678.462,124.462 L691.923,124.462 C693.41,124.462 694.615,123.256 694.615,121.769 C694.615,120.282 693.41,119.077 691.923,119.077 Z M654.231,81.385 C653.517,81.385 652.832,81.668 652.327,82.173 C651.822,82.678 651.538,83.363 651.538,84.077 L651.538,97.538 L638.077,97.538 C636.59,97.538 635.385,98.744 635.385,100.231 C635.385,101.718 636.59,102.923 638.077,102.923 L654.231,102.923 C654.945,102.923 655.63,102.639 656.135,102.135 C656.639,101.63 656.923,100.945 656.923,100.231 L656.923,84.077 C656.923,83.363 656.639,82.678 656.135,82.173 C655.63,81.668 654.945,81.385 654.231,81.385 Z" />
        </g>
    </g>
</svg>