<?xml version="1.0" encoding="UTF-8"?>
<svg height="600" width="800" xmlns="http://www.w3.org/2000/svg" xmlns:xlink="http://www.w3.org/1999/xlink">
    <g id="Notes" font-family="'LucidaGrande', 'Lucida Grande', sans-serif" font-size="13">
        <rect fill="white" height="600.0" width="800.0" x="0.0" y="0.0" />
        <g font-size="13">
            <text x="18.0" y="176.0">Small</text>
            <text x="18.0" y="376.0">Medium</text>
            <text x="18.0" y="576.0">Large</text>
        </g>
        <g font-size="9">
            <text x="250.0" y="30.0">Ultralight</text>
            <text x="450.0" y="30.0">Regular</text>
            <text x="650.0" y="30.0">Black</text>
            <text id="template-version" fill="#505050" text-anchor="end" x="785.0" y="575.0">Template v.3.0</text>
            <a href="https://github.com/swhitty/SwiftDraw">
                <text fill="#505050" text-anchor="end" x="785.0" y="590.0">https://github.com/swhitty/SwiftDraw</text>
            </a>
        </g>
    </g>
    <g id="Guides" stroke="rgb(39, 170, 225)" stroke-width="0.5">
        <path id="Capline-S" d="M18,76 l800,0" />
        <path id="H-reference" d="M85,145.755 L87.685,145.755 L113.369,79.287 L114.052,79.287 L114.052,76 L112.148,76 L85,145.755 Z M95.693,121.536 L130.996,121.536 L130.263,119.313 L96.474,119.313 L95.693,121.536 Z M139.15,145.755 L141.787,145.755 L114.638,76 L113.466,76 L113.466,79.287 L139.15,145.755 Z" stroke="none" />
        <path id="Baseline-S" d="M18,146 l800,0" />
        <path id="left-margin-Ultralight-S" d="M220,56 l0,110" />
        <path id="right-margin-Ultralight-S" d="M310,56 l0,110" />
        <path id="left-margin-Regular-S" d="M420,56 l0,110" />
        <path id="right-margin-Regular-S" d="M510,56 l0,110" />
        <path id="left-margin-Black-S" d="M620,56 l0,110" />
        <path id="right-margin-Black-S" d="M710,56 l0,110" />
        <path id="Capline-M" d="M18,276 l800,0" />
        <path id="Baseline-M" d="M18,346 l800,0" />
        <path id="Capline-L" d="M18,476 l800,0" />
        <path id="Baseline-L" d="M18,546 l800,0" />
    </g>
    <g id="Symbols">
        <g id="Ultralight-S">
            <path d="M262.308,113.692 L262.308,100.231 C262.308,98.744 263.513,97.538 265,97.538 C266.487,97.538 267.692,98.744 267.692,100.231 L267.692,113.692 C267.692,115.179 266.487,116.385 265,116.385 C263.513,116.385 262.308,115.179 262.308,113.692 Z M265,121.769 C262.77,121.769 260.962,123.577 260.962,125.808 C260.962,128.038 262.77,129.846 265,129.846 C267.23,129.846 269.038,128.038 269.038,125.808 C269.038,124.737 268.613,123.709 267.856,122.952 C267.098,122.195 266.071,121.769 265,121.769 Z M254.231,73.308 L275.769,73.308 C277.256,73.308 278.462,72.102 278.462,70.615 C278.462,69.128 277.256,67.923 275.769,67.923 L254.231,67.923 C252.744,67.923 251.538,69.128 251.538,70.615 C251.538,72.102 252.744,73.308 254.231,73.308 Z M289.231,86.769 L289.231,143.308 C289.231,145.45 288.38,147.504 286.865,149.019 C285.35,150.534 283.296,151.385 281.154,151.385 L248.846,151.385 C246.704,151.385 244.65,150.534 243.135,149.019 C241.62,147.504 240.769,145.45 240.769,143.308 L240.769,86.769 C240.769,84.627 241.62,82.573 243.135,81.058 C244.65,79.543 246.704,78.692 248.846,78.692 L281.154,78.692 C283.296,78.692 285.35,79.543 286.865,81.058 C288.38,82.573 289.231,84.627 289.231,86.769 Z M283.846,86.769 C283.846,86.055 283.562,85.37 283.058,84.865 C282.553,84.361 281.868,84.077 281.154,84.077 L248.846,84.077 C248.132,84.077 247.447,84.361 246.942,84.865 C246.438,85.37 246.154,86.055 246.154,86.769 L246.154,143.308 C246.154,144.022 246.438,144.707 246.942,145.211 C247.447,145.716 248.132,146 248.846,146 L281.154,146 C281.868,146 282.553,145.716 283.058,145.211 C283.562,144.707 283.846,144.022 283.846,143.308 Z" />
        </g>
        <g id="Regular-S">
            <path d="M462.308,113.692 L462.308,100.231 C462.308,98.744 463.513,97.538 465,97.538 C466.487,97.538 467.692,98.744 467.692,100.231 L467.692,113.692 C467.692,115.179 466.487,116.385 465,116.385 C463.513,116.385 462.308,115.179 462.308,113.692 Z M465,121.769 C462.77,121.769 460.962,123.577 460.962,125.808 C460.962,128.038 462.77,129.846 465,129.846 C467.23,129.846 469.038,128.038 469.038,125.808 C469.038,124.737 468.613,123.709 467.856,122.952 C467.098,122.195 466.071,121.769 465,121.769 Z M454.231,73.308 L475.769,73.308 C477.256,73.308 478.462,72.102 478.462,70.615 C478.462,69.128 477.256,67.923 475.769,67.923 L454.231,67.923 C452.744,67.923 451.538,69.128 451.538,70.615 C451.538,72.102 452.744,73.308 454.231,73.308 Z M489.231,86.769 L489.231,143.308 C489.231,145.45 488.38,147.504 486.865,149.019 C485.35,150.534 483.296,151.385 481.154,151.385 L448.846,151.385 C446.704,151.385 444.65,150.534 443.135,149.019 C441.62,147.504 440.769,145.45 440.769,143.308 L440.769,86.769 C440.769,84.627 441.62,82.573 443.135,81.058 C444.65,79.543 446.704,78.692 448.846,78.692 L481.154,78.692 C483.296,78.692 485.35,79.543 486.865,81.058 C488.38,82.573 489.231,84.627 489.231,86.769 Z M483.846,86.769 C483.846,86.055 483.562,85.37 483.058,84.865 C482.553,84.361 481.868,84.077 481.154,84.077 L448.846,84.077 C448.132,84.077 447.447,84.361 446.942,84.865 C446.438,85.37 446.154,86.055 446.154,86.769 L446.154,143.308 C446.154,144.022 446.438,144.707 446.942,145.211 C447.447,145.716 448.132,146 448.846,146 L481.154,146 C481.868,146 482.553,145.716 483.058,145.211 C483.562,144.707 483.846,144.022 483.846,143.308 Z" />
        </g>
        <g id="Black-S">
            <path d="M662.308,113.692 L662.308,100.231 C662.308,98.744 663.513,97.538 665,97.538 C666.487,97.538 667.692,98.744 667.692,100.231 L667.692,113.692 C667.692,115.179 666.487,116.385 665,116.385 C663.513,116.385 662.308,115.179 662.308,113.692 Z M665,121.769 C662.77,121.769 660.962,123.577 660.962,125.808 C660.962,128.038 662.77,129.846 665,129.846 C667.23,129.846 669.038,128.038 669.038,125.808 C669.038,124.737 668.613,123.709 667.856,122.952 C667.098,122.195 666.071,121.769 665,121.769 Z M654.231,73.308 L675.769,73.308 C677.256,73.308 678.462,72.102 678.462,70.615 C678.462,69.128 677.256,67.923 675.769,67.923 L654.231,67.923 C652.744,67.923 651.538,69.128 651.538,70.615 C651.538,72.102 652.744,73.308 654.231,73.308 Z M689.231,86.769 L689.231,143.308 C689.231,145.45 688.38,147.504 686.865,149.019 C685.35,150.534 683.296,151.385 681.154,151.385 L648.846,151.385 C646.704,151.385 644.65,150.534 643.135,149.019 C641.62,147.504 640.769,145.45 640.769,143.308 L640.769,86.769 C640.769,84.627 641.62,82.573 643.135,81.058 C644.65,79.543 646.704,78.692 648.846,78.692 L681.154,78.692 C683.296,78.692 685.35,79.543 686.865,81.058 C688.38,82.573 689.231,84.627 689.231,86.769 Z M683.846,86.769 C683.846,86.055 683.562,85.37 683.058,84.865 C682.553,84.361 681.868,84.077 681.154,84.077 L648.846,84.077 C648.132,84.077 647.447,84.361 646.942,84.865 C646.438,85.37 646.154,86.055 646.154,86.769 L646.154,143.308 C646.154,144.022 646.438,144.707 646.942,145.211 C647.447,145.716 648.132,146 648.846,146 L681.154,146 C681.868,146 682.553,145.716 683.058,145.211 C683.562,144.707 683.846,144.022 683.846,143.308 Z" />
        </g>
    </g>
</svg>