<?xml version="1.0" encoding="UTF-8"?>
<svg height="600" width="800" xmlns="http://www.w3.org/2000/svg" xmlns:xlink="http://www.w3.org/1999/xlink">
    <g id="Notes" font-family="'LucidaGrande', 'Lucida Grande', sans-serif" font-size="13">
        <rect fill="white" height="600.0" width="800.0" x="0.0" y="0.0" />
        <g font-size="13">
            <text x="18.0" y="176.0">Small</text>
            <text x="18.0" y="376.0">Medium</text>
            <text x="18.0" y="576.0">Large</text>
        </g>
        <g font-size="9">
            <text x="250.0" y="30.0">Ultralight</text>
            <text x="450.0" y="30.0">Regular</text>
            <text x="650.0" y="30.0">Black</text>
            <text id="template-version" fill="#505050" text-anchor="end" x="785.0" y="575.0">Template v.3.0</text>
            <a href="https://github.com/swhitty/SwiftDraw">
                <text fill="#505050" text-anchor="end" x="785.0" y="590.0">https://github.com/swhitty/SwiftDraw</text>
            </a>
        </g>
    </g>
    <g id="Guides" stroke="rgb(39, 170, 225)" stroke-width="0.5">
        <path id="Capline-S" d="M18,76 l800,0" />
        <path id="H-reference" d="M85,145.755 L87.685,145.755 L113.369,79.287 L114.052,79.287 L114.052,76 L112.148,76 L85,145.755 Z M95.693,121.536 L130.996,121.536 L130.263,119.313 L96.474,119.313 L95.693,121.536 Z M139.15,145.755 L141.787,145.755 L114.638,76 L113.466,76 L113.466,79.287 L139.15,145.755 Z" stroke="none" />
        <path id="Baseline-S" d="M18,146 l800,0" />
        <path id="left-margin-Ultralight-S" d="M220,56 l0,110" />
        <path id="right-margin-Ultralight-S" d="M310,56 l0,110" />
        <path id="left-margin-Regular-S" d="M420,56 l0,110" />
        <path id="right-margin-Regular-S" d="M510,56 l0,110" />
        <path id="left-margin-Black-S" d="M620,56 l0,110" />
        <path id="right-margin-Black-S" d="M710,56 l0,110" />
        <path id="Capline-M" d="M18,276 l800,0" />
        <path id="Baseline-M" d="M18,346 l800,0" />
        <path id="Capline-L" d="M18,476 l800,0" />
        <path id="Baseline-L" d="M18,546 l800,0" />
    </g>
    <g id="Symbols">
        <g id="Ultralight-S">
            <path d="M297.308,121.769 L294.615,121.769 L294.615,120.423 C294.615,115.219 290.397,111 285.192,111 C279.988,111 275.769,115.219 275.769,120.423 L275.769,121.769 L273.077,121.769 C272.363,121.769 271.678,122.053 271.173,122.558 C270.668,123.063 270.385,123.747 270.385,124.462 L270.385,137.923 C270.385,138.637 270.668,139.322 271.173,139.827 C271.678,140.332 272.363,140.615 273.077,140.615 L297.308,140.615 C298.022,140.615 298.707,140.332 299.211,139.827 C299.716,139.322 300,138.637 300,137.923 L300,124.462 C300,123.747 299.716,123.063 299.211,122.558 C298.707,122.053 298.022,121.769 297.308,121.769 Z M281.154,120.423 C281.154,118.193 282.962,116.385 285.192,116.385 C287.423,116.385 289.231,118.193 289.231,120.423 L289.231,121.769 L281.154,121.769 Z M294.615,135.231 L275.769,135.231 L275.769,127.154 L294.615,127.154 Z M294.615,92.154 L266.114,92.154 L256.923,82.963 C255.917,81.949 254.546,81.38 253.117,81.385 L235.385,81.385 C233.957,81.385 232.587,81.952 231.577,82.962 C230.567,83.972 230,85.341 230,86.769 L230,135.439 C230.004,138.297 232.319,140.612 235.176,140.615 L259.804,140.615 C261.291,140.615 262.496,139.41 262.496,137.923 C262.496,136.436 261.291,135.231 259.804,135.231 L235.385,135.231 L235.385,97.538 L294.615,97.538 L294.615,102.923 C294.615,104.41 295.821,105.615 297.308,105.615 C298.795,105.615 300,104.41 300,102.923 L300,97.538 C300,96.11 299.433,94.741 298.423,93.731 C297.413,92.721 296.043,92.154 294.615,92.154 Z M253.117,86.769 L258.501,92.154 L235.385,92.154 L235.385,86.769 Z" />
        </g>
        <g id="Regular-S">
            <path d="M497.308,121.769 L494.615,121.769 L494.615,120.423 C494.615,115.219 490.397,111 485.192,111 C479.988,111 475.769,115.219 475.769,120.423 L475.769,121.769 L473.077,121.769 C472.363,121.769 471.678,122.053 471.173,122.558 C470.668,123.063 470.385,123.747 470.385,124.462 L470.385,137.923 C470.385,138.637 470.668,139.322 471.173,139.827 C471.678,140.332 472.363,140.615 473.077,140.615 L497.308,140.615 C498.022,140.615 498.707,140.332 499.211,139.827 C499.716,139.322 500,138.637 500,137.923 L500,124.462 C500,123.747 499.716,123.063 499.211,122.558 C498.707,122.053 498.022,121.769 497.308,121.769 Z M481.154,120.423 C481.154,118.193 482.962,116.385 485.192,116.385 C487.423,116.385 489.231,118.193 489.231,120.423 L489.231,121.769 L481.154,121.769 Z M494.615,135.231 L475.769,135.231 L475.769,127.154 L494.615,127.154 Z M494.615,92.154 L466.114,92.154 L456.923,82.963 C455.917,81.949 454.546,81.38 453.117,81.385 L435.385,81.385 C433.957,81.385 432.587,81.952 431.577,82.962 C430.567,83.972 430,85.341 430,86.769 L430,135.439 C430.004,138.297 432.319,140.612 435.176,140.615 L459.804,140.615 C461.291,140.615 462.496,139.41 462.496,137.923 C462.496,136.436 461.291,135.231 459.804,135.231 L435.385,135.231 L435.385,97.538 L494.615,97.538 L494.615,102.923 C494.615,104.41 495.821,105.615 497.308,105.615 C498.795,105.615 500,104.41 500,102.923 L500,97.538 C500,96.11 499.433,94.741 498.423,93.731 C497.413,92.721 496.043,92.154 494.615,92.154 Z M453.117,86.769 L458.501,92.154 L435.385,92.154 L435.385,86.769 Z" />
        </g>
        <g id="Black-S">
            <path d="M697.308,121.769 L694.615,121.769 L694.615,120.423 C694.615,115.219 690.397,111 685.192,111 C679.988,111 675.769,115.219 675.769,120.423 L675.769,121.769 L673.077,121.769 C672.363,121.769 671.678,122.053 671.173,122.558 C670.668,123.063 670.385,123.747 670.385,124.462 L670.385,137.923 C670.385,138.637 670.668,139.322 671.173,139.827 C671.678,140.332 672.363,140.615 673.077,140.615 L697.308,140.615 C698.022,140.615 698.707,140.332 699.211,139.827 C699.716,139.322 700,138.637 700,137.923 L700,124.462 C700,123.747 699.716,123.063 699.211,122.558 C698.707,122.053 698.022,121.769 697.308,121.769 Z M681.154,120.423 C681.154,118.193 682.962,116.385 685.192,116.385 C687.423,116.385 689.231,118.193 689.231,120.423 L689.231,121.769 L681.154,121.769 Z M694.615,135.231 L675.769,135.231 L675.769,127.154 L694.615,127.154 Z M694.615,92.154 L666.114,92.154 L656.923,82.963 C655.917,81.949 654.546,81.38 653.117,81.385 L635.385,81.385 C633.957,81.385 632.587,81.952 631.577,82.962 C630.567,83.972 630,85.341 630,86.769 L630,135.439 C630.004,138.297 632.319,140.612 635.176,140.615 L659.804,140.615 C661.291,140.615 662.496,139.41 662.496,137.923 C662.496,136.436 661.291,135.231 659.804,135.231 L635.385,135.231 L635.385,97.538 L694.615,97.538 L694.615,102.923 C694.615,104.41 695.821,105.615 697.308,105.615 C698.795,105.615 700,104.41 700,102.923 L700,97.538 C700,96.11 699.433,94.741 698.423,93.731 C697.413,92.721 696.044,92.154 694.615,92.154 Z M653.117,86.769 L658.501,92.154 L635.385,92.154 L635.385,86.769 Z" />
        </g>
    </g>
</svg>