<?xml version="1.0" encoding="UTF-8"?>
<svg height="600" width="800" xmlns="http://www.w3.org/2000/svg" xmlns:xlink="http://www.w3.org/1999/xlink">
    <g id="Notes" font-family="'LucidaGrande', 'Lucida Grande', sans-serif" font-size="13">
        <rect fill="white" height="600.0" width="800.0" x="0.0" y="0.0" />
        <g font-size="13">
            <text x="18.0" y="176.0">Small</text>
            <text x="18.0" y="376.0">Medium</text>
            <text x="18.0" y="576.0">Large</text>
        </g>
        <g font-size="9">
            <text x="250.0" y="30.0">Ultralight</text>
            <text x="450.0" y="30.0">Regular</text>
            <text x="650.0" y="30.0">Black</text>
            <text id="template-version" fill="#505050" text-anchor="end" x="785.0" y="575.0">Template v.3.0</text>
            <a href="https://github.com/swhitty/SwiftDraw">
                <text fill="#505050" text-anchor="end" x="785.0" y="590.0">https://github.com/swhitty/SwiftDraw</text>
            </a>
        </g>
    </g>
    <g id="Guides" stroke="rgb(39, 170, 225)" stroke-width="0.5">
        <path id="Capline-S" d="M18,76 l800,0" />
        <path id="H-reference" d="M85,145.755 L87.685,145.755 L113.369,79.287 L114.052,79.287 L114.052,76 L112.148,76 L85,145.755 Z M95.693,121.536 L130.996,121.536 L130.263,119.313 L96.474,119.313 L95.693,121.536 Z M139.15,145.755 L141.787,145.755 L114.638,76 L113.466,76 L113.466,79.287 L139.15,145.755 Z" stroke="none" />
        <path id="Baseline-S" d="M18,146 l800,0" />
        <path id="left-margin-Ultralight-S" d="M220,56 l0,110" />
        <path id="right-margin-Ultralight-S" d="M310,56 l0,110" />
        <path id="left-margin-Regular-S" d="M420,56 l0,110" />
        <path id="right-margin-Regular-S" d="M510,56 l0,110" />
        <path id="left-margin-Black-S" d="M620,56 l0,110" />
        <path id="right-margin-Black-S" d="M710,56 l0,110" />
        <path id="Capline-M" d="M18,276 l800,0" />
        <path id="Baseline-M" d="M18,346 l800,0" />
        <path id="Capline-L" d="M18,476 l800,0" />
        <path id="Baseline-L" d="M18,546 l800,0" />
    </g>
    <g id="Symbols">
        <g id="Ultralight-S">
            <path d="M291.923,76 L246.154,76 C243.298,76 240.558,77.135 238.539,79.154 C236.519,81.174 235.385,83.913 235.385,86.769 L235.385,143.308 C235.385,144.022 235.668,144.707 236.173,145.211 C236.678,145.716 237.363,146 238.077,146 L286.538,146 C288.025,146 289.231,144.795 289.231,143.308 C289.231,141.821 288.025,140.615 286.538,140.615 L240.769,140.615 C240.769,139.187 241.337,137.818 242.346,136.808 C243.356,135.798 244.726,135.231 246.154,135.231 L291.923,135.231 C292.637,135.231 293.322,134.947 293.827,134.442 C294.332,133.937 294.615,133.253 294.615,132.538 L294.615,78.692 C294.615,77.978 294.332,77.293 293.827,76.789 C293.322,76.284 292.637,76 291.923,76 Z M289.231,129.846 L246.154,129.846 C244.263,129.844 242.405,130.342 240.769,131.29 L240.769,86.769 C240.769,85.341 241.337,83.972 242.346,82.962 C243.356,81.952 244.726,81.385 246.154,81.385 L289.231,81.385 Z" />
        </g>
        <g id="Regular-S">
            <path d="M491.923,76 L446.154,76 C443.298,76 440.558,77.135 438.539,79.154 C436.519,81.174 435.385,83.913 435.385,86.769 L435.385,143.308 C435.385,144.022 435.668,144.707 436.173,145.211 C436.678,145.716 437.363,146 438.077,146 L486.538,146 C488.025,146 489.231,144.795 489.231,143.308 C489.231,141.821 488.025,140.615 486.538,140.615 L440.769,140.615 C440.769,139.187 441.337,137.818 442.346,136.808 C443.356,135.798 444.726,135.231 446.154,135.231 L491.923,135.231 C492.637,135.231 493.322,134.947 493.827,134.442 C494.332,133.937 494.615,133.253 494.615,132.538 L494.615,78.692 C494.615,77.978 494.332,77.293 493.827,76.789 C493.322,76.284 492.637,76 491.923,76 Z M489.231,129.846 L446.154,129.846 C444.263,129.844 442.405,130.342 440.769,131.29 L440.769,86.769 C440.769,85.341 441.337,83.972 442.346,82.962 C443.356,81.952 444.726,81.385 446.154,81.385 L489.231,81.385 Z" />
        </g>
        <g id="Black-S">
            <path d="M691.923,76 L646.154,76 C643.298,76 640.558,77.135 638.539,79.154 C636.519,81.174 635.385,83.913 635.385,86.769 L635.385,143.308 C635.385,144.022 635.668,144.707 636.173,145.211 C636.678,145.716 637.363,146 638.077,146 L686.538,146 C688.025,146 689.231,144.795 689.231,143.308 C689.231,141.821 688.025,140.615 686.538,140.615 L640.769,140.615 C640.769,139.187 641.337,137.818 642.346,136.808 C643.356,135.798 644.726,135.231 646.154,135.231 L691.923,135.231 C692.637,135.231 693.322,134.947 693.827,134.442 C694.332,133.937 694.615,133.253 694.615,132.538 L694.615,78.692 C694.615,77.978 694.332,77.293 693.827,76.789 C693.322,76.284 692.637,76 691.923,76 Z M689.231,129.846 L646.154,129.846 C644.263,129.844 642.405,130.342 640.769,131.29 L640.769,86.769 C640.769,85.341 641.337,83.972 642.346,82.962 C643.356,81.952 644.726,81.385 646.154,81.385 L689.231,81.385 Z" />
        </g>
    </g>
</svg>