<?xml version="1.0" encoding="UTF-8"?>
<svg height="600" width="800" xmlns="http://www.w3.org/2000/svg" xmlns:xlink="http://www.w3.org/1999/xlink">
    <g id="Notes" font-family="'LucidaGrande', 'Lucida Grande', sans-serif" font-size="13">
        <rect fill="white" height="600.0" width="800.0" x="0.0" y="0.0" />
        <g font-size="13">
            <text x="18.0" y="176.0">Small</text>
            <text x="18.0" y="376.0">Medium</text>
            <text x="18.0" y="576.0">Large</text>
        </g>
        <g font-size="9">
            <text x="250.0" y="30.0">Ultralight</text>
            <text x="450.0" y="30.0">Regular</text>
            <text x="650.0" y="30.0">Black</text>
            <text id="template-version" fill="#505050" text-anchor="end" x="785.0" y="575.0">Template v.3.0</text>
            <a href="https://github.com/swhitty/SwiftDraw">
                <text fill="#505050" text-anchor="end" x="785.0" y="590.0">https://github.com/swhitty/SwiftDraw</text>
            </a>
        </g>
    </g>
    <g id="Guides" stroke="rgb(39, 170, 225)" stroke-width="0.5">
        <path id="Capline-S" d="M18,76 l800,0" />
        <path id="H-reference" d="M85,145.755 L87.685,145.755 L113.369,79.287 L114.052,79.287 L114.052,76 L112.148,76 L85,145.755 Z M95.693,121.536 L130.996,121.536 L130.263,119.313 L96.474,119.313 L95.693,121.536 Z M139.15,145.755 L141.787,145.755 L114.638,76 L113.466,76 L113.466,79.287 L139.15,145.755 Z" stroke="none" />
        <path id="Baseline-S" d="M18,146 l800,0" />
        <path id="left-margin-Ultralight-S" d="M220,56 l0,110" />
        <path id="right-margin-Ultralight-S" d="M310,56 l0,110" />
        <path id="left-margin-Regular-S" d="M420,56 l0,110" />
        <path id="right-margin-Regular-S" d="M510,56 l0,110" />
        <path id="left-margin-Black-S" d="M620,56 l0,110" />
        <path id="right-margin-Black-S" d="M710,56 l0,110" />
        <path id="Capline-M" d="M18,276 l800,0" />
        <path id="Baseline-M" d="M18,346 l800,0" />
        <path id="Capline-L" d="M18,476 l800,0" />
        <path id="Baseline-L" d="M18,546 l800,0" />
    </g>
    <g id="Symbols">
        <g id="Ultralight-S">
            <path d="M291.923,81.385 L238.077,81.385 C236.649,81.385 235.279,81.952 234.269,82.962 C233.26,83.972 232.692,85.341 232.692,86.769 L232.692,105.615 C232.692,123.358 241.281,134.11 248.486,140.006 C256.247,146.353 263.967,148.507 264.303,148.598 C264.766,148.724 265.254,148.724 265.717,148.598 C266.053,148.507 273.763,146.353 281.534,140.006 C288.719,134.11 297.308,123.358 297.308,105.615 L297.308,86.769 C297.308,85.341 296.74,83.972 295.731,82.962 C294.721,81.952 293.351,81.385 291.923,81.385 Z M278.26,135.709 C274.313,138.959 269.824,141.488 265,143.18 C260.239,141.517 255.806,139.033 251.902,135.84 C248.656,133.218 245.868,130.074 243.653,126.538 L265,111.596 L286.347,126.538 C284.17,130.016 281.438,133.114 278.26,135.709 Z M291.923,105.615 C291.923,111.518 290.898,111.518 288.847,121.715 L266.545,106.103 C265.617,105.454 264.383,105.454 263.455,106.103 L241.15,121.715 C239.107,116.896 238.077,111.518 238.077,105.615 L238.077,86.769 L291.923,86.769 Z" />
        </g>
        <g id="Regular-S">
            <path d="M491.923,81.385 L438.077,81.385 C436.649,81.385 435.279,81.952 434.269,82.962 C433.26,83.972 432.692,85.341 432.692,86.769 L432.692,105.615 C432.692,123.358 441.281,134.11 448.486,140.006 C456.247,146.353 463.967,148.507 464.303,148.598 C464.766,148.724 465.254,148.724 465.717,148.598 C466.053,148.507 473.763,146.353 481.534,140.006 C488.719,134.11 497.308,123.358 497.308,105.615 L497.308,86.769 C497.308,85.341 496.74,83.972 495.731,82.962 C494.721,81.952 493.351,81.385 491.923,81.385 Z M478.26,135.709 C474.313,138.959 469.824,141.488 465,143.18 C460.239,141.517 455.806,139.033 451.902,135.84 C448.656,133.218 445.868,130.074 443.653,126.538 L465,111.596 L486.347,126.538 C484.17,130.016 481.438,133.114 478.26,135.709 Z M491.923,105.615 C491.923,111.518 490.898,111.518 488.847,121.715 L466.545,106.103 C465.617,105.454 464.383,105.454 463.455,106.103 L441.15,121.715 C439.107,116.896 438.077,111.518 438.077,105.615 L438.077,86.769 L491.923,86.769 Z" />
        </g>
        <g id="Black-S">
            <path d="M691.923,81.385 L638.077,81.385 C636.649,81.385 635.279,81.952 634.269,82.962 C633.26,83.972 632.692,85.341 632.692,86.769 L632.692,105.615 C632.692,123.358 641.281,134.11 648.486,140.006 C656.247,146.353 663.967,148.507 664.303,148.598 C664.766,148.724 665.254,148.724 665.717,148.598 C666.053,148.507 673.763,146.353 681.534,140.006 C688.719,134.11 697.308,123.358 697.308,105.615 L697.308,86.769 C697.308,85.341 696.74,83.972 695.731,82.962 C694.721,81.952 693.351,81.385 691.923,81.385 Z M678.26,135.709 C674.313,138.959 669.824,141.488 665,143.18 C660.239,141.517 655.806,139.033 651.902,135.84 C648.656,133.218 645.868,130.074 643.653,126.538 L665,111.596 L686.347,126.538 C684.17,130.016 681.438,133.114 678.26,135.709 Z M691.923,105.615 C691.923,111.518 690.898,111.518 688.847,121.715 L666.545,106.103 C665.617,105.454 664.383,105.454 663.455,106.103 L641.15,121.715 C639.107,116.896 638.077,111.518 638.077,105.615 L638.077,86.769 L691.923,86.769 Z" />
        </g>
    </g>
</svg>