<?xml version="1.0" encoding="UTF-8"?>
<svg height="600" width="800" xmlns="http://www.w3.org/2000/svg" xmlns:xlink="http://www.w3.org/1999/xlink">
    <g id="Notes" font-family="'LucidaGrande', 'Lucida Grande', sans-serif" font-size="13">
        <rect fill="white" height="600.0" width="800.0" x="0.0" y="0.0" />
        <g font-size="13">
            <text x="18.0" y="176.0">Small</text>
            <text x="18.0" y="376.0">Medium</text>
            <text x="18.0" y="576.0">Large</text>
        </g>
        <g font-size="9">
            <text x="250.0" y="30.0">Ultralight</text>
            <text x="450.0" y="30.0">Regular</text>
            <text x="650.0" y="30.0">Black</text>
            <text id="template-version" fill="#505050" text-anchor="end" x="785.0" y="575.0">Template v.3.0</text>
            <a href="https://github.com/swhitty/SwiftDraw">
                <text fill="#505050" text-anchor="end" x="785.0" y="590.0">https://github.com/swhitty/SwiftDraw</text>
            </a>
        </g>
    </g>
    <g id="Guides" stroke="rgb(39, 170, 225)" stroke-width="0.5">
        <path id="Capline-S" d="M18,76 l800,0" />
        <path id="H-reference" d="M85,145.755 L87.685,145.755 L113.369,79.287 L114.052,79.287 L114.052,76 L112.148,76 L85,145.755 Z M95.693,121.536 L130.996,121.536 L130.263,119.313 L96.474,119.313 L95.693,121.536 Z M139.15,145.755 L141.787,145.755 L114.638,76 L113.466,76 L113.466,79.287 L139.15,145.755 Z" stroke="none" />
        <path id="Baseline-S" d="M18,146 l800,0" />
        <path id="left-margin-Ultralight-S" d="M220,56 l0,110" />
        <path id="right-margin-Ultralight-S" d="M310,56 l0,110" />
        <path id="left-margin-Regular-S" d="M420,56 l0,110" />
        <path id="right-margin-Regular-S" d="M510,56 l0,110" />
        <path id="left-margin-Black-S" d="M620,56 l0,110" />
        <path id="right-margin-Black-S" d="M710,56 l0,110" />
        <path id="Capline-M" d="M18,276 l800,0" />
        <path id="Baseline-M" d="M18,346 l800,0" />
        <path id="Capline-L" d="M18,476 l800,0" />
        <path id="Baseline-L" d="M18,546 l800,0" />
    </g>
    <g id="Symbols">
        <g id="Ultralight-S">
            <path d="M288.638,89 L293.915,83.195 C294.894,82.092 294.803,80.408 293.712,79.416 C292.621,78.425 290.935,78.495 289.931,79.574 L284.654,85.376 C271.332,75.145 252.391,76.835 241.092,89.265 C229.793,101.694 229.91,120.711 241.362,133 L236.085,138.805 C235.424,139.514 235.196,140.525 235.488,141.449 C235.779,142.374 236.546,143.07 237.494,143.272 C238.442,143.475 239.426,143.151 240.069,142.426 L245.346,136.624 C258.668,146.855 277.609,145.165 288.908,132.735 C300.207,120.306 300.09,101.289 288.638,89 Z M238.077,111 C238.083,100.835 243.813,91.541 252.892,86.969 C261.97,82.398 272.85,83.329 281.019,89.377 L245.01,128.998 C240.545,124.067 238.074,117.652 238.077,111 Z M265,137.923 C259.229,137.929 253.61,136.07 248.981,132.623 L284.99,93.002 C292.108,100.898 293.909,112.244 289.587,121.956 C285.265,131.668 275.63,137.925 265,137.923 Z" />
        </g>
        <g id="Regular-S">
            <path d="M488.638,89 L493.915,83.195 C494.894,82.092 494.803,80.408 493.712,79.416 C492.621,78.425 490.935,78.495 489.931,79.574 L484.654,85.376 C471.332,75.145 452.391,76.835 441.092,89.265 C429.793,101.694 429.91,120.711 441.362,133 L436.085,138.805 C435.424,139.514 435.196,140.525 435.488,141.449 C435.779,142.374 436.546,143.07 437.494,143.272 C438.442,143.475 439.426,143.151 440.069,142.426 L445.346,136.624 C458.668,146.855 477.609,145.165 488.908,132.735 C500.207,120.306 500.09,101.289 488.638,89 Z M438.077,111 C438.083,100.835 443.813,91.541 452.892,86.969 C461.97,82.398 472.85,83.329 481.019,89.377 L445.01,128.998 C440.545,124.067 438.074,117.652 438.077,111 Z M465,137.923 C459.228,137.929 453.61,136.07 448.981,132.623 L484.99,93.002 C492.108,100.898 493.909,112.244 489.587,121.956 C485.265,131.668 475.63,137.925 465,137.923 Z" />
        </g>
        <g id="Black-S">
            <path d="M688.638,89 L693.915,83.195 C694.894,82.092 694.803,80.408 693.712,79.416 C692.621,78.425 690.935,78.495 689.931,79.574 L684.654,85.376 C671.332,75.145 652.391,76.835 641.092,89.265 C629.793,101.694 629.91,120.711 641.362,133 L636.085,138.805 C635.424,139.514 635.196,140.525 635.488,141.449 C635.779,142.374 636.546,143.07 637.494,143.272 C638.442,143.475 639.426,143.151 640.069,142.426 L645.346,136.624 C658.668,146.855 677.609,145.165 688.908,132.735 C700.207,120.306 700.09,101.289 688.638,89 Z M638.077,111 C638.083,100.835 643.813,91.541 652.892,86.969 C661.97,82.398 672.85,83.329 681.019,89.377 L645.01,128.998 C640.545,124.067 638.074,117.652 638.077,111 Z M665,137.923 C659.229,137.929 653.61,136.07 648.981,132.623 L684.99,93.002 C692.108,100.898 693.909,112.244 689.587,121.956 C685.265,131.668 675.63,137.925 665,137.923 Z" />
        </g>
    </g>
</svg>