<?xml version="1.0" encoding="UTF-8"?>
<svg height="600" width="800" xmlns="http://www.w3.org/2000/svg" xmlns:xlink="http://www.w3.org/1999/xlink">
    <g id="Notes" font-family="'LucidaGrande', 'Lucida Grande', sans-serif" font-size="13">
        <rect fill="white" height="600.0" width="800.0" x="0.0" y="0.0" />
        <g font-size="13">
            <text x="18.0" y="176.0">Small</text>
            <text x="18.0" y="376.0">Medium</text>
            <text x="18.0" y="576.0">Large</text>
        </g>
        <g font-size="9">
            <text x="250.0" y="30.0">Ultralight</text>
            <text x="450.0" y="30.0">Regular</text>
            <text x="650.0" y="30.0">Black</text>
            <text id="template-version" fill="#505050" text-anchor="end" x="785.0" y="575.0">Template v.3.0</text>
            <a href="https://github.com/swhitty/SwiftDraw">
                <text fill="#505050" text-anchor="end" x="785.0" y="590.0">https://github.com/swhitty/SwiftDraw</text>
            </a>
        </g>
    </g>
    <g id="Guides" stroke="rgb(39, 170, 225)" stroke-width="0.5">
        <path id="Capline-S" d="M18,76 l800,0" />
        <path id="H-reference" d="M85,145.755 L87.685,145.755 L113.369,79.287 L114.052,79.287 L114.052,76 L112.148,76 L85,145.755 Z M95.693,121.536 L130.996,121.536 L130.263,119.313 L96.474,119.313 L95.693,121.536 Z M139.15,145.755 L141.787,145.755 L114.638,76 L113.466,76 L113.466,79.287 L139.15,145.755 Z" stroke="none" />
        <path id="Baseline-S" d="M18,146 l800,0" />
        <path id="left-margin-Ultralight-S" d="M220,56 l0,110" />
        <path id="right-margin-Ultralight-S" d="M310,56 l0,110" />
        <path id="left-margin-Regular-S" d="M420,56 l0,110" />
        <path id="right-margin-Regular-S" d="M510,56 l0,110" />
        <path id="left-margin-Black-S" d="M620,56 l0,110" />
        <path id="right-margin-Black-S" d="M710,56 l0,110" />
        <path id="Capline-M" d="M18,276 l800,0" />
        <path id="Baseline-M" d="M18,346 l800,0" />
        <path id="Capline-L" d="M18,476 l800,0" />
        <path id="Baseline-L" d="M18,546 l800,0" />
    </g>
    <g id="Symbols">
        <g id="Ultralight-S">
            <path d="M267.228,109.489 C267.73,110.229 267.832,111.169 267.5,112 L262.116,125.461 C261.566,126.838 259.999,127.511 258.616,126.959 C257.234,126.408 256.561,124.84 257.113,123.458 L261.02,113.698 L254.231,113.698 C253.335,113.699 252.497,113.255 251.995,112.513 C251.494,111.77 251.394,110.827 251.73,109.996 L257.115,96.534 C257.664,95.159 259.232,94.486 260.615,95.038 C261.997,95.59 262.671,97.158 262.119,98.541 L258.212,108.3 L265,108.3 C265.894,108.302 266.729,108.747 267.228,109.489 Z M305.385,97.077 L305.385,124.462 C305.385,128.922 301.768,132.538 297.308,132.538 C292.847,132.538 289.231,128.922 289.231,124.462 L289.231,111 C289.231,110.286 288.947,109.601 288.442,109.096 C287.937,108.591 287.253,108.308 286.538,108.308 L281.154,108.308 L281.154,137.923 L286.538,137.923 C288.025,137.923 289.231,139.128 289.231,140.615 C289.231,142.102 288.025,143.308 286.538,143.308 L232.692,143.308 C231.205,143.308 230,142.102 230,140.615 C230,139.128 231.205,137.923 232.692,137.923 L238.077,137.923 L238.077,86.769 C238.077,84.627 238.928,82.573 240.443,81.058 C241.957,79.543 244.012,78.692 246.154,78.692 L273.077,78.692 C275.219,78.692 277.273,79.543 278.788,81.058 C280.303,82.573 281.154,84.627 281.154,86.769 L281.154,102.923 L286.538,102.923 C288.681,102.923 290.735,103.774 292.25,105.289 C293.764,106.803 294.615,108.858 294.615,111 L294.615,124.462 C294.615,125.948 295.821,127.154 297.308,127.154 C298.795,127.154 300,125.948 300,124.462 L300,97.077 C299.998,96.367 299.715,95.686 299.213,95.183 L292.711,88.674 C291.658,87.62 291.659,85.915 292.712,84.863 C293.764,83.812 295.47,83.813 296.521,84.865 L303.029,91.366 C304.545,92.879 305.393,94.936 305.385,97.077 Z M275.769,137.923 L275.769,86.769 C275.769,86.055 275.486,85.37 274.981,84.865 C274.476,84.361 273.791,84.077 273.077,84.077 L246.154,84.077 C245.44,84.077 244.755,84.361 244.25,84.865 C243.745,85.37 243.462,86.055 243.462,86.769 L243.462,137.923 Z" />
        </g>
        <g id="Regular-S">
            <path d="M467.228,109.489 C467.73,110.229 467.832,111.169 467.5,112 L462.116,125.461 C461.566,126.838 459.999,127.511 458.616,126.959 C457.234,126.408 456.561,124.84 457.113,123.458 L461.02,113.698 L454.231,113.698 C453.335,113.699 452.497,113.255 451.995,112.513 C451.494,111.77 451.394,110.827 451.73,109.996 L457.115,96.534 C457.664,95.159 459.232,94.486 460.615,95.038 C461.997,95.59 462.671,97.158 462.119,98.541 L458.212,108.3 L465,108.3 C465.894,108.302 466.729,108.747 467.228,109.489 Z M505.385,97.077 L505.385,124.462 C505.385,128.922 501.768,132.538 497.308,132.538 C492.847,132.538 489.231,128.922 489.231,124.462 L489.231,111 C489.231,110.286 488.947,109.601 488.442,109.096 C487.937,108.591 487.253,108.308 486.538,108.308 L481.154,108.308 L481.154,137.923 L486.538,137.923 C488.025,137.923 489.231,139.128 489.231,140.615 C489.231,142.102 488.025,143.308 486.538,143.308 L432.692,143.308 C431.205,143.308 430,142.102 430,140.615 C430,139.128 431.205,137.923 432.692,137.923 L438.077,137.923 L438.077,86.769 C438.077,84.627 438.928,82.573 440.443,81.058 C441.957,79.543 444.012,78.692 446.154,78.692 L473.077,78.692 C475.219,78.692 477.273,79.543 478.788,81.058 C480.303,82.573 481.154,84.627 481.154,86.769 L481.154,102.923 L486.538,102.923 C488.681,102.923 490.735,103.774 492.25,105.289 C493.764,106.803 494.615,108.858 494.615,111 L494.615,124.462 C494.615,125.948 495.821,127.154 497.308,127.154 C498.795,127.154 500,125.948 500,124.462 L500,97.077 C499.998,96.367 499.715,95.686 499.213,95.183 L492.711,88.674 C491.658,87.62 491.659,85.915 492.712,84.863 C493.764,83.812 495.47,83.813 496.521,84.865 L503.029,91.366 C504.545,92.879 505.393,94.936 505.385,97.077 Z M475.769,137.923 L475.769,86.769 C475.769,86.055 475.486,85.37 474.981,84.865 C474.476,84.361 473.791,84.077 473.077,84.077 L446.154,84.077 C445.44,84.077 444.755,84.361 444.25,84.865 C443.745,85.37 443.462,86.055 443.462,86.769 L443.462,137.923 Z" />
        </g>
        <g id="Black-S">
            <path d="M667.228,109.489 C667.73,110.229 667.832,111.169 667.5,112 L662.116,125.461 C661.566,126.838 659.999,127.511 658.616,126.959 C657.234,126.408 656.561,124.84 657.113,123.458 L661.02,113.698 L654.231,113.698 C653.335,113.699 652.497,113.255 651.995,112.513 C651.494,111.77 651.394,110.827 651.73,109.996 L657.115,96.534 C657.664,95.159 659.232,94.486 660.615,95.038 C661.997,95.59 662.671,97.158 662.119,98.541 L658.212,108.3 L665,108.3 C665.894,108.302 666.729,108.747 667.228,109.489 Z M705.385,97.077 L705.385,124.462 C705.385,128.922 701.768,132.538 697.308,132.538 C692.847,132.538 689.231,128.922 689.231,124.462 L689.231,111 C689.231,110.286 688.947,109.601 688.442,109.096 C687.937,108.591 687.253,108.308 686.538,108.308 L681.154,108.308 L681.154,137.923 L686.538,137.923 C688.025,137.923 689.231,139.128 689.231,140.615 C689.231,142.102 688.025,143.308 686.538,143.308 L632.692,143.308 C631.205,143.308 630,142.102 630,140.615 C630,139.128 631.205,137.923 632.692,137.923 L638.077,137.923 L638.077,86.769 C638.077,84.627 638.928,82.573 640.443,81.058 C641.957,79.543 644.012,78.692 646.154,78.692 L673.077,78.692 C675.219,78.692 677.273,79.543 678.788,81.058 C680.303,82.573 681.154,84.627 681.154,86.769 L681.154,102.923 L686.538,102.923 C688.681,102.923 690.735,103.774 692.25,105.289 C693.764,106.803 694.615,108.858 694.615,111 L694.615,124.462 C694.615,125.948 695.821,127.154 697.308,127.154 C698.795,127.154 700,125.948 700,124.462 L700,97.077 C699.998,96.367 699.715,95.686 699.213,95.183 L692.711,88.674 C691.658,87.62 691.659,85.915 692.712,84.863 C693.764,83.812 695.47,83.813 696.521,84.865 L703.029,91.366 C704.545,92.879 705.393,94.936 705.385,97.077 Z M675.769,137.923 L675.769,86.769 C675.769,86.055 675.486,85.37 674.981,84.865 C674.476,84.361 673.791,84.077 673.077,84.077 L646.154,84.077 C645.44,84.077 644.755,84.361 644.25,84.865 C643.745,85.37 643.462,86.055 643.462,86.769 L643.462,137.923 Z" />
        </g>
    </g>
</svg>