<?xml version="1.0" encoding="UTF-8"?>
<svg height="600" width="800" xmlns="http://www.w3.org/2000/svg" xmlns:xlink="http://www.w3.org/1999/xlink">
    <g id="Notes" font-family="'LucidaGrande', 'Lucida Grande', sans-serif" font-size="13">
        <rect fill="white" height="600.0" width="800.0" x="0.0" y="0.0" />
        <g font-size="13">
            <text x="18.0" y="176.0">Small</text>
            <text x="18.0" y="376.0">Medium</text>
            <text x="18.0" y="576.0">Large</text>
        </g>
        <g font-size="9">
            <text x="250.0" y="30.0">Ultralight</text>
            <text x="450.0" y="30.0">Regular</text>
            <text x="650.0" y="30.0">Black</text>
            <text id="template-version" fill="#505050" text-anchor="end" x="785.0" y="575.0">Template v.3.0</text>
            <a href="https://github.com/swhitty/SwiftDraw">
                <text fill="#505050" text-anchor="end" x="785.0" y="590.0">https://github.com/swhitty/SwiftDraw</text>
            </a>
        </g>
    </g>
    <g id="Guides" stroke="rgb(39, 170, 225)" stroke-width="0.5">
        <path id="Capline-S" d="M18,76 l800,0" />
        <path id="H-reference" d="M85,145.755 L87.685,145.755 L113.369,79.287 L114.052,79.287 L114.052,76 L112.148,76 L85,145.755 Z M95.693,121.536 L130.996,121.536 L130.263,119.313 L96.474,119.313 L95.693,121.536 Z M139.15,145.755 L141.787,145.755 L114.638,76 L113.466,76 L113.466,79.287 L139.15,145.755 Z" stroke="none" />
        <path id="Baseline-S" d="M18,146 l800,0" />
        <path id="left-margin-Ultralight-S" d="M220,56 l0,110" />
        <path id="right-margin-Ultralight-S" d="M310,56 l0,110" />
        <path id="left-margin-Regular-S" d="M420,56 l0,110" />
        <path id="right-margin-Regular-S" d="M510,56 l0,110" />
        <path id="left-margin-Black-S" d="M620,56 l0,110" />
        <path id="right-margin-Black-S" d="M710,56 l0,110" />
        <path id="Capline-M" d="M18,276 l800,0" />
        <path id="Baseline-M" d="M18,346 l800,0" />
        <path id="Capline-L" d="M18,476 l800,0" />
        <path id="Baseline-L" d="M18,546 l800,0" />
    </g>
    <g id="Symbols">
        <g id="Ultralight-S">
            <path d="M300,105.615 C299.987,117.505 290.352,127.141 278.462,127.154 L239.191,127.154 L250.751,138.711 C251.803,139.764 251.802,141.47 250.75,142.521 C249.697,143.573 247.992,143.572 246.94,142.519 L230.786,126.365 C230.281,125.86 229.997,125.175 229.997,124.46 C229.997,123.746 230.281,123.061 230.786,122.556 L246.94,106.402 C247.991,105.35 249.696,105.349 250.749,106.401 C251.801,107.452 251.802,109.158 250.751,110.21 L239.191,121.769 L278.462,121.769 C287.383,121.769 294.615,114.537 294.615,105.615 C294.615,96.694 287.383,89.462 278.462,89.462 L248.846,89.462 C247.359,89.462 246.154,88.256 246.154,86.769 C246.154,85.282 247.359,84.077 248.846,84.077 L278.462,84.077 C290.352,84.09 299.987,93.725 300,105.615 Z" />
        </g>
        <g id="Regular-S">
            <path d="M500,105.615 C499.987,117.505 490.352,127.141 478.462,127.154 L439.191,127.154 L450.751,138.711 C451.803,139.764 451.802,141.47 450.75,142.521 C449.697,143.573 447.992,143.572 446.94,142.519 L430.786,126.365 C430.281,125.86 429.997,125.175 429.997,124.46 C429.997,123.746 430.281,123.061 430.786,122.556 L446.94,106.402 C447.991,105.35 449.696,105.349 450.749,106.401 C451.801,107.452 451.802,109.158 450.751,110.21 L439.191,121.769 L478.462,121.769 C487.383,121.769 494.615,114.537 494.615,105.615 C494.615,96.694 487.383,89.462 478.462,89.462 L448.846,89.462 C447.359,89.462 446.154,88.256 446.154,86.769 C446.154,85.282 447.359,84.077 448.846,84.077 L478.462,84.077 C490.352,84.09 499.987,93.725 500,105.615 Z" />
        </g>
        <g id="Black-S">
            <path d="M700,105.615 C699.987,117.505 690.352,127.141 678.462,127.154 L639.191,127.154 L650.751,138.711 C651.803,139.764 651.802,141.47 650.75,142.521 C649.697,143.573 647.992,143.572 646.94,142.519 L630.786,126.365 C630.281,125.86 629.997,125.175 629.997,124.46 C629.997,123.746 630.281,123.061 630.786,122.556 L646.94,106.402 C647.991,105.35 649.696,105.349 650.749,106.401 C651.801,107.452 651.802,109.158 650.751,110.21 L639.191,121.769 L678.462,121.769 C687.383,121.769 694.615,114.537 694.615,105.615 C694.615,96.694 687.383,89.462 678.462,89.462 L648.846,89.462 C647.359,89.462 646.154,88.256 646.154,86.769 C646.154,85.282 647.359,84.077 648.846,84.077 L678.462,84.077 C690.352,84.09 699.987,93.725 700,105.615 Z" />
        </g>
    </g>
</svg>