<?xml version="1.0" encoding="UTF-8"?>
<svg height="600" width="800" xmlns="http://www.w3.org/2000/svg" xmlns:xlink="http://www.w3.org/1999/xlink">
    <g id="Notes" font-family="'LucidaGrande', 'Lucida Grande', sans-serif" font-size="13">
        <rect fill="white" height="600.0" width="800.0" x="0.0" y="0.0" />
        <g font-size="13">
            <text x="18.0" y="176.0">Small</text>
            <text x="18.0" y="376.0">Medium</text>
            <text x="18.0" y="576.0">Large</text>
        </g>
        <g font-size="9">
            <text x="250.0" y="30.0">Ultralight</text>
            <text x="450.0" y="30.0">Regular</text>
            <text x="650.0" y="30.0">Black</text>
            <text id="template-version" fill="#505050" text-anchor="end" x="785.0" y="575.0">Template v.3.0</text>
            <a href="https://github.com/swhitty/SwiftDraw">
                <text fill="#505050" text-anchor="end" x="785.0" y="590.0">https://github.com/swhitty/SwiftDraw</text>
            </a>
        </g>
    </g>
    <g id="Guides" stroke="rgb(39, 170, 225)" stroke-width="0.5">
        <path id="Capline-S" d="M18,76 l800,0" />
        <path id="H-reference" d="M85,145.755 L87.685,145.755 L113.369,79.287 L114.052,79.287 L114.052,76 L112.148,76 L85,145.755 Z M95.693,121.536 L130.996,121.536 L130.263,119.313 L96.474,119.313 L95.693,121.536 Z M139.15,145.755 L141.787,145.755 L114.638,76 L113.466,76 L113.466,79.287 L139.15,145.755 Z" stroke="none" />
        <path id="Baseline-S" d="M18,146 l800,0" />
        <path id="left-margin-Ultralight-S" d="M220,56 l0,110" />
        <path id="right-margin-Ultralight-S" d="M310,56 l0,110" />
        <path id="left-margin-Regular-S" d="M420,56 l0,110" />
        <path id="right-margin-Regular-S" d="M510,56 l0,110" />
        <path id="left-margin-Black-S" d="M620,56 l0,110" />
        <path id="right-margin-Black-S" d="M710,56 l0,110" />
        <path id="Capline-M" d="M18,276 l800,0" />
        <path id="Baseline-M" d="M18,346 l800,0" />
        <path id="Capline-L" d="M18,476 l800,0" />
        <path id="Baseline-L" d="M18,546 l800,0" />
    </g>
    <g id="Symbols">
        <g id="Ultralight-S">
            <path d="M275.769,81.385 C264.552,81.393 254.3,87.732 249.28,97.764 C241.299,96.6 233.337,99.993 228.648,106.555 C223.958,113.117 223.329,121.749 227.016,128.923 C230.703,136.096 238.088,140.609 246.154,140.615 L275.769,140.615 C292.125,140.615 305.385,127.356 305.385,111 C305.385,94.644 292.125,81.385 275.769,81.385 Z M275.769,135.231 L246.154,135.231 C237.232,135.231 230,127.998 230,119.077 C230,110.155 237.232,102.923 246.154,102.923 C246.524,102.923 246.894,102.923 247.261,102.96 C246.525,105.577 246.152,108.282 246.154,111 C246.154,112.487 247.359,113.692 248.846,113.692 C250.333,113.692 251.538,112.487 251.538,111 C251.538,97.618 262.387,86.769 275.769,86.769 C289.151,86.769 300,97.618 300,111 C300,124.382 289.152,135.231 275.769,135.231 Z M273.077,111 L273.077,97.538 C273.077,96.052 274.282,94.846 275.769,94.846 C277.256,94.846 278.462,96.052 278.462,97.538 L278.462,111 C278.462,112.487 277.256,113.692 275.769,113.692 C274.282,113.692 273.077,112.487 273.077,111 Z M279.808,123.115 C279.808,125.346 278,127.154 275.769,127.154 C273.539,127.154 271.731,125.346 271.731,123.115 C271.731,120.885 273.539,119.077 275.769,119.077 C276.84,119.077 277.867,119.502 278.625,120.26 C279.382,121.017 279.808,122.044 279.808,123.115 Z" />
        </g>
        <g id="Regular-S">
            <path d="M475.769,81.385 C464.552,81.393 454.3,87.732 449.28,97.764 C441.299,96.6 433.337,99.993 428.648,106.555 C423.958,113.117 423.329,121.749 427.016,128.923 C430.703,136.096 438.088,140.609 446.154,140.615 L475.769,140.615 C492.125,140.615 505.385,127.356 505.385,111 C505.385,94.644 492.125,81.385 475.769,81.385 Z M475.769,135.231 L446.154,135.231 C437.232,135.231 430,127.998 430,119.077 C430,110.155 437.232,102.923 446.154,102.923 C446.524,102.923 446.894,102.923 447.261,102.96 C446.525,105.577 446.152,108.282 446.154,111 C446.154,112.487 447.359,113.692 448.846,113.692 C450.333,113.692 451.538,112.487 451.538,111 C451.538,97.618 462.387,86.769 475.769,86.769 C489.151,86.769 500,97.618 500,111 C500,124.382 489.152,135.231 475.769,135.231 Z M473.077,111 L473.077,97.538 C473.077,96.052 474.282,94.846 475.769,94.846 C477.256,94.846 478.462,96.052 478.462,97.538 L478.462,111 C478.462,112.487 477.256,113.692 475.769,113.692 C474.282,113.692 473.077,112.487 473.077,111 Z M479.808,123.115 C479.808,125.346 478,127.154 475.769,127.154 C473.539,127.154 471.731,125.346 471.731,123.115 C471.731,120.885 473.539,119.077 475.769,119.077 C476.84,119.077 477.867,119.502 478.625,120.26 C479.382,121.017 479.808,122.044 479.808,123.115 Z" />
        </g>
        <g id="Black-S">
            <path d="M675.769,81.385 C664.552,81.393 654.3,87.732 649.28,97.764 C641.299,96.6 633.337,99.993 628.648,106.555 C623.958,113.117 623.329,121.749 627.016,128.923 C630.703,136.096 638.088,140.609 646.154,140.615 L675.769,140.615 C692.125,140.615 705.385,127.356 705.385,111 C705.385,94.644 692.125,81.385 675.769,81.385 Z M675.769,135.231 L646.154,135.231 C637.232,135.231 630,127.998 630,119.077 C630,110.155 637.232,102.923 646.154,102.923 C646.524,102.923 646.894,102.923 647.261,102.96 C646.525,105.577 646.152,108.282 646.154,111 C646.154,112.487 647.359,113.692 648.846,113.692 C650.333,113.692 651.538,112.487 651.538,111 C651.538,97.618 662.387,86.769 675.769,86.769 C689.151,86.769 700,97.618 700,111 C700,124.382 689.152,135.231 675.769,135.231 Z M673.077,111 L673.077,97.538 C673.077,96.052 674.282,94.846 675.769,94.846 C677.256,94.846 678.462,96.052 678.462,97.538 L678.462,111 C678.462,112.487 677.256,113.692 675.769,113.692 C674.282,113.692 673.077,112.487 673.077,111 Z M679.808,123.115 C679.808,125.346 678,127.154 675.769,127.154 C673.539,127.154 671.731,125.346 671.731,123.115 C671.731,120.885 673.539,119.077 675.769,119.077 C676.84,119.077 677.867,119.502 678.625,120.26 C679.382,121.017 679.808,122.044 679.808,123.115 Z" />
        </g>
    </g>
</svg>