<?xml version="1.0" encoding="UTF-8"?>
<svg height="600" width="800" xmlns="http://www.w3.org/2000/svg" xmlns:xlink="http://www.w3.org/1999/xlink">
    <g id="Notes" font-family="'LucidaGrande', 'Lucida Grande', sans-serif" font-size="13">
        <rect fill="white" height="600.0" width="800.0" x="0.0" y="0.0" />
        <g font-size="13">
            <text x="18.0" y="176.0">Small</text>
            <text x="18.0" y="376.0">Medium</text>
            <text x="18.0" y="576.0">Large</text>
        </g>
        <g font-size="9">
            <text x="250.0" y="30.0">Ultralight</text>
            <text x="450.0" y="30.0">Regular</text>
            <text x="650.0" y="30.0">Black</text>
            <text id="template-version" fill="#505050" text-anchor="end" x="785.0" y="575.0">Template v.3.0</text>
            <a href="https://github.com/swhitty/SwiftDraw">
                <text fill="#505050" text-anchor="end" x="785.0" y="590.0">https://github.com/swhitty/SwiftDraw</text>
            </a>
        </g>
    </g>
    <g id="Guides" stroke="rgb(39, 170, 225)" stroke-width="0.5">
        <path id="Capline-S" d="M18,76 l800,0" />
        <path id="H-reference" d="M85,145.755 L87.685,145.755 L113.369,79.287 L114.052,79.287 L114.052,76 L112.148,76 L85,145.755 Z M95.693,121.536 L130.996,121.536 L130.263,119.313 L96.474,119.313 L95.693,121.536 Z M139.15,145.755 L141.787,145.755 L114.638,76 L113.466,76 L113.466,79.287 L139.15,145.755 Z" stroke="none" />
        <path id="Baseline-S" d="M18,146 l800,0" />
        <path id="left-margin-Ultralight-S" d="M220,56 l0,110" />
        <path id="right-margin-Ultralight-S" d="M310,56 l0,110" />
        <path id="left-margin-Regular-S" d="M420,56 l0,110" />
        <path id="right-margin-Regular-S" d="M510,56 l0,110" />
        <path id="left-margin-Black-S" d="M620,56 l0,110" />
        <path id="right-margin-Black-S" d="M710,56 l0,110" />
        <path id="Capline-M" d="M18,276 l800,0" />
        <path id="Baseline-M" d="M18,346 l800,0" />
        <path id="Capline-L" d="M18,476 l800,0" />
        <path id="Baseline-L" d="M18,546 l800,0" />
    </g>
    <g id="Symbols">
        <g id="Ultralight-S">
            <path d="M297.308,111 C297.308,128.678 283.105,143.072 265.431,143.308 L265,143.308 C256.749,143.328 248.807,140.171 242.822,134.49 C241.741,133.467 241.694,131.762 242.717,130.682 C243.74,129.601 245.445,129.555 246.525,130.577 C257.268,140.708 274.165,140.295 284.401,129.652 C294.636,119.01 294.39,102.109 283.849,91.769 C273.307,81.43 256.405,81.51 245.962,91.949 C245.935,91.978 245.905,92.006 245.875,92.033 L236.929,100.231 L246.154,100.231 C247.641,100.231 248.846,101.436 248.846,102.923 C248.846,104.41 247.641,105.615 246.154,105.615 L230,105.615 C229.286,105.615 228.601,105.332 228.096,104.827 C227.591,104.322 227.308,103.637 227.308,102.923 L227.308,86.769 C227.308,85.282 228.513,84.077 230,84.077 C231.487,84.077 232.692,85.282 232.692,86.769 L232.692,96.798 L242.2,88.115 C251.449,78.902 265.334,76.161 277.39,81.168 C289.447,86.174 297.306,97.945 297.308,111 Z" />
        </g>
        <g id="Regular-S">
            <path d="M497.308,111 C497.308,128.678 483.104,143.072 465.431,143.308 L465,143.308 C456.749,143.328 448.807,140.171 442.822,134.49 C441.741,133.467 441.694,131.762 442.717,130.682 C443.74,129.601 445.445,129.555 446.525,130.577 C457.268,140.708 474.165,140.295 484.401,129.652 C494.636,119.01 494.39,102.109 483.849,91.769 C473.307,81.43 456.405,81.51 445.962,91.949 C445.935,91.978 445.905,92.006 445.875,92.033 L436.929,100.231 L446.154,100.231 C447.641,100.231 448.846,101.436 448.846,102.923 C448.846,104.41 447.641,105.615 446.154,105.615 L430,105.615 C429.286,105.615 428.601,105.332 428.096,104.827 C427.591,104.322 427.308,103.637 427.308,102.923 L427.308,86.769 C427.308,85.282 428.513,84.077 430,84.077 C431.487,84.077 432.692,85.282 432.692,86.769 L432.692,96.798 L442.199,88.115 C451.449,78.902 465.334,76.161 477.39,81.168 C489.447,86.174 497.306,97.945 497.308,111 Z" />
        </g>
        <g id="Black-S">
            <path d="M697.308,111 C697.308,128.678 683.105,143.072 665.431,143.308 L665,143.308 C656.749,143.328 648.807,140.171 642.822,134.49 C641.741,133.467 641.694,131.762 642.717,130.682 C643.74,129.601 645.445,129.555 646.525,130.577 C657.268,140.708 674.165,140.295 684.401,129.652 C694.636,119.01 694.39,102.109 683.849,91.769 C673.307,81.43 656.405,81.51 645.962,91.949 C645.935,91.978 645.905,92.006 645.875,92.033 L636.929,100.231 L646.154,100.231 C647.641,100.231 648.846,101.436 648.846,102.923 C648.846,104.41 647.641,105.615 646.154,105.615 L630,105.615 C629.286,105.615 628.601,105.332 628.096,104.827 C627.591,104.322 627.308,103.637 627.308,102.923 L627.308,86.769 C627.308,85.282 628.513,84.077 630,84.077 C631.487,84.077 632.692,85.282 632.692,86.769 L632.692,96.798 L642.2,88.115 C651.449,78.902 665.334,76.161 677.39,81.168 C689.447,86.174 697.306,97.945 697.308,111 Z" />
        </g>
    </g>
</svg>