<?xml version="1.0" encoding="UTF-8"?>
<svg height="600" width="800" xmlns="http://www.w3.org/2000/svg" xmlns:xlink="http://www.w3.org/1999/xlink">
    <g id="Notes" font-family="'LucidaGrande', 'Lucida Grande', sans-serif" font-size="13">
        <rect fill="white" height="600.0" width="800.0" x="0.0" y="0.0" />
        <g font-size="13">
            <text x="18.0" y="176.0">Small</text>
            <text x="18.0" y="376.0">Medium</text>
            <text x="18.0" y="576.0">Large</text>
        </g>
        <g font-size="9">
            <text x="250.0" y="30.0">Ultralight</text>
            <text x="450.0" y="30.0">Regular</text>
            <text x="650.0" y="30.0">Black</text>
            <text id="template-version" fill="#505050" text-anchor="end" x="785.0" y="575.0">Template v.3.0</text>
            <a href="https://github.com/swhitty/SwiftDraw">
                <text fill="#505050" text-anchor="end" x="785.0" y="590.0">https://github.com/swhitty/SwiftDraw</text>
            </a>
        </g>
    </g>
    <g id="Guides" stroke="rgb(39, 170, 225)" stroke-width="0.5">
        <path id="Capline-S" d="M18,76 l800,0" />
        <path id="H-reference" d="M85,145.755 L87.685,145.755 L113.369,79.287 L114.052,79.287 L114.052,76 L112.148,76 L85,145.755 Z M95.693,121.536 L130.996,121.536 L130.263,119.313 L96.474,119.313 L95.693,121.536 Z M139.15,145.755 L141.787,145.755 L114.638,76 L113.466,76 L113.466,79.287 L139.15,145.755 Z" stroke="none" />
        <path id="Baseline-S" d="M18,146 l800,0" />
        <path id="left-margin-Ultralight-S" d="M220,56 l0,110" />
        <path id="right-margin-Ultralight-S" d="M310,56 l0,110" />
        <path id="left-margin-Regular-S" d="M420,56 l0,110" />
        <path id="right-margin-Regular-S" d="M510,56 l0,110" />
        <path id="left-margin-Black-S" d="M620,56 l0,110" />
        <path id="right-margin-Black-S" d="M710,56 l0,110" />
        <path id="Capline-M" d="M18,276 l800,0" />
        <path id="Baseline-M" d="M18,346 l800,0" />
        <path id="Capline-L" d="M18,476 l800,0" />
        <path id="Baseline-L" d="M18,546 l800,0" />
    </g>
    <g id="Symbols">
        <g id="Ultralight-S">
            <path d="M296.712,111.872 C291.829,117.929 287.006,121.16 281.972,121.688 C281.469,121.742 280.963,121.769 280.457,121.769 C273.962,121.769 268.547,117.361 263.294,113.087 C258.276,109.001 253.534,105.141 248.587,105.683 C245.05,106.053 241.415,108.617 237.481,113.517 C236.527,114.583 234.906,114.716 233.791,113.821 C232.675,112.926 232.454,111.314 233.288,110.152 C238.171,104.094 242.994,100.863 248.028,100.335 C255.203,99.578 261.049,104.337 266.7,108.937 C271.717,113.023 276.459,116.886 281.406,116.341 C284.943,115.971 288.578,113.406 292.512,108.506 C293.093,107.696 294.074,107.274 295.061,107.408 C296.049,107.541 296.882,108.21 297.226,109.145 C297.571,110.08 297.37,111.129 296.705,111.872 Z" />
        </g>
        <g id="Regular-S">
            <path d="M496.712,111.872 C491.829,117.929 487.006,121.16 481.972,121.688 C481.469,121.742 480.963,121.769 480.457,121.769 C473.962,121.769 468.547,117.361 463.294,113.087 C458.276,109.001 453.534,105.141 448.587,105.683 C445.05,106.053 441.415,108.617 437.481,113.517 C436.527,114.583 434.906,114.716 433.791,113.821 C432.675,112.926 432.454,111.314 433.288,110.152 C438.171,104.094 442.994,100.863 448.028,100.335 C455.203,99.578 461.049,104.337 466.7,108.937 C471.717,113.023 476.459,116.886 481.406,116.341 C484.943,115.971 488.578,113.406 492.512,108.506 C493.093,107.696 494.074,107.274 495.061,107.408 C496.049,107.541 496.882,108.21 497.226,109.145 C497.571,110.08 497.37,111.129 496.705,111.872 Z" />
        </g>
        <g id="Black-S">
            <path d="M696.712,111.872 C691.829,117.929 687.006,121.16 681.972,121.688 C681.469,121.742 680.963,121.769 680.457,121.769 C673.962,121.769 668.547,117.361 663.294,113.087 C658.276,109.001 653.534,105.141 648.587,105.683 C645.05,106.053 641.415,108.617 637.481,113.517 C636.527,114.583 634.906,114.716 633.791,113.821 C632.675,112.926 632.454,111.314 633.288,110.152 C638.171,104.094 642.994,100.863 648.028,100.335 C655.203,99.578 661.049,104.337 666.7,108.937 C671.717,113.023 676.459,116.886 681.406,116.341 C684.943,115.971 688.578,113.406 692.512,108.506 C693.093,107.696 694.074,107.274 695.061,107.408 C696.049,107.541 696.882,108.21 697.226,109.145 C697.571,110.08 697.37,111.129 696.705,111.872 Z" />
        </g>
    </g>
</svg>