<?xml version="1.0" encoding="UTF-8"?>
<svg height="600" width="800" xmlns="http://www.w3.org/2000/svg" xmlns:xlink="http://www.w3.org/1999/xlink">
    <g id="Notes" font-family="'LucidaGrande', 'Lucida Grande', sans-serif" font-size="13">
        <rect fill="white" height="600.0" width="800.0" x="0.0" y="0.0" />
        <g font-size="13">
            <text x="18.0" y="176.0">Small</text>
            <text x="18.0" y="376.0">Medium</text>
            <text x="18.0" y="576.0">Large</text>
        </g>
        <g font-size="9">
            <text x="250.0" y="30.0">Ultralight</text>
            <text x="450.0" y="30.0">Regular</text>
            <text x="650.0" y="30.0">Black</text>
            <text id="template-version" fill="#505050" text-anchor="end" x="785.0" y="575.0">Template v.3.0</text>
            <a href="https://github.com/swhitty/SwiftDraw">
                <text fill="#505050" text-anchor="end" x="785.0" y="590.0">https://github.com/swhitty/SwiftDraw</text>
            </a>
        </g>
    </g>
    <g id="Guides" stroke="rgb(39, 170, 225)" stroke-width="0.5">
        <path id="Capline-S" d="M18,76 l800,0" />
        <path id="H-reference" d="M85,145.755 L87.685,145.755 L113.369,79.287 L114.052,79.287 L114.052,76 L112.148,76 L85,145.755 Z M95.693,121.536 L130.996,121.536 L130.263,119.313 L96.474,119.313 L95.693,121.536 Z M139.15,145.755 L141.787,145.755 L114.638,76 L113.466,76 L113.466,79.287 L139.15,145.755 Z" stroke="none" />
        <path id="Baseline-S" d="M18,146 l800,0" />
        <path id="left-margin-Ultralight-S" d="M220,56 l0,110" />
        <path id="right-margin-Ultralight-S" d="M310,56 l0,110" />
        <path id="left-margin-Regular-S" d="M420,56 l0,110" />
        <path id="right-margin-Regular-S" d="M510,56 l0,110" />
        <path id="left-margin-Black-S" d="M620,56 l0,110" />
        <path id="right-margin-Black-S" d="M710,56 l0,110" />
        <path id="Capline-M" d="M18,276 l800,0" />
        <path id="Baseline-M" d="M18,346 l800,0" />
        <path id="Capline-L" d="M18,476 l800,0" />
        <path id="Baseline-L" d="M18,546 l800,0" />
    </g>
    <g id="Symbols">
        <g id="Ultralight-S">
            <path d="M299.529,84.592 C298.682,82.635 296.748,81.372 294.615,81.385 L235.385,81.385 C233.255,81.389 231.329,82.647 230.469,84.595 C229.609,86.543 229.978,88.815 231.41,90.39 L231.437,90.421 L254.231,114.759 L254.231,140.615 C254.231,142.602 255.324,144.427 257.074,145.364 C258.825,146.301 260.949,146.199 262.602,145.097 L273.371,137.916 C274.87,136.917 275.77,135.235 275.769,133.434 L275.769,114.759 L298.566,90.421 L298.593,90.39 C300.041,88.821 300.41,86.537 299.529,84.592 Z M235.385,86.769 L235.385,86.769 Z M271.118,111.868 C270.653,112.362 270.391,113.014 270.385,113.692 L270.385,133.434 L259.615,140.615 L259.615,113.692 C259.615,113.008 259.355,112.35 258.888,111.851 L235.385,86.769 L294.615,86.769 Z" />
        </g>
        <g id="Regular-S">
            <path d="M499.529,84.592 C498.682,82.635 496.748,81.372 494.615,81.385 L435.385,81.385 C433.255,81.389 431.329,82.647 430.469,84.595 C429.609,86.543 429.978,88.815 431.41,90.39 L431.437,90.421 L454.231,114.759 L454.231,140.615 C454.231,142.602 455.324,144.427 457.074,145.364 C458.825,146.301 460.949,146.199 462.602,145.097 L473.371,137.916 C474.87,136.917 475.77,135.235 475.769,133.434 L475.769,114.759 L498.566,90.421 L498.593,90.39 C500.041,88.821 500.41,86.537 499.529,84.592 Z M435.385,86.769 L435.385,86.769 Z M471.118,111.868 C470.653,112.362 470.39,113.014 470.385,113.692 L470.385,133.434 L459.615,140.615 L459.615,113.692 C459.615,113.008 459.355,112.35 458.888,111.851 L435.385,86.769 L494.615,86.769 Z" />
        </g>
        <g id="Black-S">
            <path d="M699.529,84.592 C698.682,82.635 696.748,81.372 694.615,81.385 L635.385,81.385 C633.255,81.389 631.329,82.647 630.469,84.595 C629.609,86.543 629.978,88.815 631.41,90.39 L631.437,90.421 L654.231,114.759 L654.231,140.615 C654.231,142.602 655.324,144.427 657.074,145.364 C658.825,146.301 660.949,146.199 662.602,145.097 L673.371,137.916 C674.87,136.917 675.77,135.235 675.769,133.434 L675.769,114.759 L698.566,90.421 L698.593,90.39 C700.041,88.821 700.41,86.537 699.529,84.592 Z M635.385,86.769 L635.385,86.769 Z M671.118,111.868 C670.653,112.362 670.391,113.014 670.385,113.692 L670.385,133.434 L659.615,140.615 L659.615,113.692 C659.615,113.008 659.355,112.35 658.888,111.851 L635.385,86.769 L694.615,86.769 Z" />
        </g>
    </g>
</svg>