<?xml version="1.0" encoding="UTF-8"?>
<svg height="600" width="800" xmlns="http://www.w3.org/2000/svg" xmlns:xlink="http://www.w3.org/1999/xlink">
    <g id="Notes" font-family="'LucidaGrande', 'Lucida Grande', sans-serif" font-size="13">
        <rect fill="white" height="600.0" width="800.0" x="0.0" y="0.0" />
        <g font-size="13">
            <text x="18.0" y="176.0">Small</text>
            <text x="18.0" y="376.0">Medium</text>
            <text x="18.0" y="576.0">Large</text>
        </g>
        <g font-size="9">
            <text x="250.0" y="30.0">Ultralight</text>
            <text x="450.0" y="30.0">Regular</text>
            <text x="650.0" y="30.0">Black</text>
            <text id="template-version" fill="#505050" text-anchor="end" x="785.0" y="575.0">Template v.3.0</text>
            <a href="https://github.com/swhitty/SwiftDraw">
                <text fill="#505050" text-anchor="end" x="785.0" y="590.0">https://github.com/swhitty/SwiftDraw</text>
            </a>
        </g>
    </g>
    <g id="Guides" stroke="rgb(39, 170, 225)" stroke-width="0.5">
        <path id="Capline-S" d="M18,76 l800,0" />
        <path id="H-reference" d="M85,145.755 L87.685,145.755 L113.369,79.287 L114.052,79.287 L114.052,76 L112.148,76 L85,145.755 Z M95.693,121.536 L130.996,121.536 L130.263,119.313 L96.474,119.313 L95.693,121.536 Z M139.15,145.755 L141.787,145.755 L114.638,76 L113.466,76 L113.466,79.287 L139.15,145.755 Z" stroke="none" />
        <path id="Baseline-S" d="M18,146 l800,0" />
        <path id="left-margin-Ultralight-S" d="M220,56 l0,110" />
        <path id="right-margin-Ultralight-S" d="M310,56 l0,110" />
        <path id="left-margin-Regular-S" d="M420,56 l0,110" />
        <path id="right-margin-Regular-S" d="M510,56 l0,110" />
        <path id="left-margin-Black-S" d="M620,56 l0,110" />
        <path id="right-margin-Black-S" d="M710,56 l0,110" />
        <path id="Capline-M" d="M18,276 l800,0" />
        <path id="Baseline-M" d="M18,346 l800,0" />
        <path id="Capline-L" d="M18,476 l800,0" />
        <path id="Baseline-L" d="M18,546 l800,0" />
    </g>
    <g id="Symbols">
        <g id="Ultralight-S">
            <path d="M251.538,84.077 L251.538,73.308 C251.538,71.821 252.744,70.615 254.231,70.615 C255.718,70.615 256.923,71.821 256.923,73.308 L256.923,84.077 C256.923,85.564 255.718,86.769 254.231,86.769 C252.744,86.769 251.538,85.564 251.538,84.077 Z M265,86.769 C265.714,86.769 266.399,86.486 266.904,85.981 C267.409,85.476 267.692,84.791 267.692,84.077 L267.692,73.308 C267.692,71.821 266.487,70.615 265,70.615 C263.513,70.615 262.308,71.821 262.308,73.308 L262.308,84.077 C262.308,84.791 262.591,85.476 263.096,85.981 C263.601,86.486 264.286,86.769 265,86.769 Z M275.769,86.769 C276.483,86.769 277.168,86.486 277.673,85.981 C278.178,85.476 278.462,84.791 278.462,84.077 L278.462,73.308 C278.462,71.821 277.256,70.615 275.769,70.615 C274.282,70.615 273.077,71.821 273.077,73.308 L273.077,84.077 C273.077,84.791 273.361,85.476 273.865,85.981 C274.37,86.486 275.055,86.769 275.769,86.769 Z M307,102.385 L297.308,109.654 L297.308,129.846 C297.308,132.702 296.173,135.442 294.153,137.461 C292.134,139.481 289.395,140.615 286.538,140.615 L243.462,140.615 C240.605,140.615 237.866,139.481 235.847,137.461 C233.827,135.442 232.692,132.702 232.692,129.846 L232.692,109.654 L223,102.385 C221.81,101.492 221.569,99.805 222.462,98.615 C223.354,97.426 225.041,97.185 226.231,98.077 L232.692,102.923 L232.692,94.846 C232.692,94.132 232.976,93.447 233.481,92.942 C233.986,92.438 234.671,92.154 235.385,92.154 L294.615,92.154 C295.329,92.154 296.014,92.438 296.519,92.942 C297.024,93.447 297.308,94.132 297.308,94.846 L297.308,102.923 L303.769,98.077 C304.959,97.185 306.646,97.426 307.538,98.615 C308.431,99.805 308.19,101.492 307,102.385 Z M291.923,97.538 L238.077,97.538 L238.077,129.846 C238.077,131.274 238.644,132.644 239.654,133.654 C240.664,134.663 242.033,135.231 243.462,135.231 L286.538,135.231 C287.967,135.231 289.336,134.663 290.346,133.654 C291.356,132.644 291.923,131.274 291.923,129.846 Z" />
        </g>
        <g id="Regular-S">
            <path d="M451.538,84.077 L451.538,73.308 C451.538,71.821 452.744,70.615 454.231,70.615 C455.718,70.615 456.923,71.821 456.923,73.308 L456.923,84.077 C456.923,85.564 455.718,86.769 454.231,86.769 C452.744,86.769 451.538,85.564 451.538,84.077 Z M465,86.769 C465.714,86.769 466.399,86.486 466.904,85.981 C467.409,85.476 467.692,84.791 467.692,84.077 L467.692,73.308 C467.692,71.821 466.487,70.615 465,70.615 C463.513,70.615 462.308,71.821 462.308,73.308 L462.308,84.077 C462.308,84.791 462.591,85.476 463.096,85.981 C463.601,86.486 464.286,86.769 465,86.769 Z M475.769,86.769 C476.483,86.769 477.168,86.486 477.673,85.981 C478.178,85.476 478.462,84.791 478.462,84.077 L478.462,73.308 C478.462,71.821 477.256,70.615 475.769,70.615 C474.282,70.615 473.077,71.821 473.077,73.308 L473.077,84.077 C473.077,84.791 473.361,85.476 473.865,85.981 C474.37,86.486 475.055,86.769 475.769,86.769 Z M507,102.385 L497.308,109.654 L497.308,129.846 C497.308,132.702 496.173,135.442 494.153,137.461 C492.134,139.481 489.395,140.615 486.538,140.615 L443.462,140.615 C440.605,140.615 437.866,139.481 435.847,137.461 C433.827,135.442 432.692,132.702 432.692,129.846 L432.692,109.654 L423,102.385 C421.81,101.492 421.569,99.805 422.462,98.615 C423.354,97.426 425.041,97.185 426.231,98.077 L432.692,102.923 L432.692,94.846 C432.692,94.132 432.976,93.447 433.481,92.942 C433.986,92.438 434.671,92.154 435.385,92.154 L494.615,92.154 C495.329,92.154 496.014,92.438 496.519,92.942 C497.024,93.447 497.308,94.132 497.308,94.846 L497.308,102.923 L503.769,98.077 C504.959,97.185 506.646,97.426 507.538,98.615 C508.431,99.805 508.19,101.492 507,102.385 Z M491.923,97.538 L438.077,97.538 L438.077,129.846 C438.077,131.274 438.644,132.644 439.654,133.654 C440.664,134.663 442.033,135.231 443.462,135.231 L486.538,135.231 C487.967,135.231 489.336,134.663 490.346,133.654 C491.356,132.644 491.923,131.274 491.923,129.846 Z" />
        </g>
        <g id="Black-S">
            <path d="M651.538,84.077 L651.538,73.308 C651.538,71.821 652.744,70.615 654.231,70.615 C655.718,70.615 656.923,71.821 656.923,73.308 L656.923,84.077 C656.923,85.564 655.718,86.769 654.231,86.769 C652.744,86.769 651.538,85.564 651.538,84.077 Z M665,86.769 C665.714,86.769 666.399,86.486 666.904,85.981 C667.409,85.476 667.692,84.791 667.692,84.077 L667.692,73.308 C667.692,71.821 666.487,70.615 665,70.615 C663.513,70.615 662.308,71.821 662.308,73.308 L662.308,84.077 C662.308,84.791 662.591,85.476 663.096,85.981 C663.601,86.486 664.286,86.769 665,86.769 Z M675.769,86.769 C676.483,86.769 677.168,86.486 677.673,85.981 C678.178,85.476 678.462,84.791 678.462,84.077 L678.462,73.308 C678.462,71.821 677.256,70.615 675.769,70.615 C674.282,70.615 673.077,71.821 673.077,73.308 L673.077,84.077 C673.077,84.791 673.361,85.476 673.865,85.981 C674.37,86.486 675.055,86.769 675.769,86.769 Z M707,102.385 L697.308,109.654 L697.308,129.846 C697.308,132.702 696.173,135.442 694.153,137.461 C692.134,139.481 689.395,140.615 686.538,140.615 L643.462,140.615 C640.605,140.615 637.866,139.481 635.847,137.461 C633.827,135.442 632.692,132.702 632.692,129.846 L632.692,109.654 L623,102.385 C621.81,101.492 621.569,99.805 622.462,98.615 C623.354,97.426 625.041,97.185 626.231,98.077 L632.692,102.923 L632.692,94.846 C632.692,94.132 632.976,93.447 633.481,92.942 C633.986,92.438 634.671,92.154 635.385,92.154 L694.615,92.154 C695.329,92.154 696.014,92.438 696.519,92.942 C697.024,93.447 697.308,94.132 697.308,94.846 L697.308,102.923 L703.769,98.077 C704.959,97.185 706.646,97.426 707.538,98.615 C708.431,99.805 708.19,101.492 707,102.385 Z M691.923,97.538 L638.077,97.538 L638.077,129.846 C638.077,131.274 638.644,132.644 639.654,133.654 C640.664,134.663 642.033,135.231 643.462,135.231 L686.538,135.231 C687.967,135.231 689.336,134.663 690.346,133.654 C691.356,132.644 691.923,131.274 691.923,129.846 Z" />
        </g>
    </g>
</svg>