<?xml version="1.0" encoding="UTF-8"?>
<svg height="600" width="800" xmlns="http://www.w3.org/2000/svg" xmlns:xlink="http://www.w3.org/1999/xlink">
    <g id="Notes" font-family="'LucidaGrande', 'Lucida Grande', sans-serif" font-size="13">
        <rect fill="white" height="600.0" width="800.0" x="0.0" y="0.0" />
        <g font-size="13">
            <text x="18.0" y="176.0">Small</text>
            <text x="18.0" y="376.0">Medium</text>
            <text x="18.0" y="576.0">Large</text>
        </g>
        <g font-size="9">
            <text x="250.0" y="30.0">Ultralight</text>
            <text x="450.0" y="30.0">Regular</text>
            <text x="650.0" y="30.0">Black</text>
            <text id="template-version" fill="#505050" text-anchor="end" x="785.0" y="575.0">Template v.3.0</text>
            <a href="https://github.com/swhitty/SwiftDraw">
                <text fill="#505050" text-anchor="end" x="785.0" y="590.0">https://github.com/swhitty/SwiftDraw</text>
            </a>
        </g>
    </g>
    <g id="Guides" stroke="rgb(39, 170, 225)" stroke-width="0.5">
        <path id="Capline-S" d="M18,76 l800,0" />
        <path id="H-reference" d="M85,145.755 L87.685,145.755 L113.369,79.287 L114.052,79.287 L114.052,76 L112.148,76 L85,145.755 Z M95.693,121.536 L130.996,121.536 L130.263,119.313 L96.474,119.313 L95.693,121.536 Z M139.15,145.755 L141.787,145.755 L114.638,76 L113.466,76 L113.466,79.287 L139.15,145.755 Z" stroke="none" />
        <path id="Baseline-S" d="M18,146 l800,0" />
        <path id="left-margin-Ultralight-S" d="M220,56 l0,110" />
        <path id="right-margin-Ultralight-S" d="M310,56 l0,110" />
        <path id="left-margin-Regular-S" d="M420,56 l0,110" />
        <path id="right-margin-Regular-S" d="M510,56 l0,110" />
        <path id="left-margin-Black-S" d="M620,56 l0,110" />
        <path id="right-margin-Black-S" d="M710,56 l0,110" />
        <path id="Capline-M" d="M18,276 l800,0" />
        <path id="Baseline-M" d="M18,346 l800,0" />
        <path id="Capline-L" d="M18,476 l800,0" />
        <path id="Baseline-L" d="M18,546 l800,0" />
    </g>
    <g id="Symbols">
        <g id="Ultralight-S">
            <path d="M291.136,110.213 C290.631,110.718 289.945,111.002 289.231,111.002 C288.516,111.002 287.831,110.718 287.326,110.213 L265,87.883 L242.674,110.213 C241.624,111.264 239.918,111.265 238.865,110.214 C237.813,109.162 237.812,107.457 238.863,106.404 L263.094,82.173 C263.599,81.668 264.284,81.384 264.999,81.384 C265.714,81.384 266.399,81.668 266.904,82.173 L291.135,106.404 C291.64,106.909 291.924,107.594 291.924,108.308 C291.924,109.022 291.641,109.707 291.136,110.213 Z" />
        </g>
        <g id="Regular-S">
            <path d="M491.136,110.213 C490.631,110.718 489.945,111.002 489.231,111.002 C488.516,111.002 487.831,110.718 487.326,110.213 L465,87.883 L442.674,110.213 C441.624,111.264 439.918,111.265 438.865,110.214 C437.813,109.162 437.812,107.457 438.863,106.404 L463.094,82.173 C463.599,81.668 464.284,81.384 464.999,81.384 C465.714,81.384 466.399,81.668 466.904,82.173 L491.135,106.404 C491.64,106.909 491.924,107.594 491.924,108.308 C491.924,109.022 491.641,109.707 491.136,110.213 Z" />
        </g>
        <g id="Black-S">
            <path d="M691.136,110.213 C690.631,110.718 689.945,111.002 689.231,111.002 C688.516,111.002 687.831,110.718 687.326,110.213 L665,87.883 L642.674,110.213 C641.624,111.264 639.918,111.265 638.865,110.214 C637.813,109.162 637.812,107.457 638.863,106.404 L663.094,82.173 C663.599,81.668 664.284,81.384 664.999,81.384 C665.714,81.384 666.399,81.668 666.904,82.173 L691.135,106.404 C691.64,106.909 691.924,107.594 691.924,108.308 C691.924,109.022 691.641,109.707 691.136,110.213 Z" />
        </g>
    </g>
</svg>