<?xml version="1.0" encoding="UTF-8"?>
<svg height="600" width="800" xmlns="http://www.w3.org/2000/svg" xmlns:xlink="http://www.w3.org/1999/xlink">
    <g id="Notes" font-family="'LucidaGrande', 'Lucida Grande', sans-serif" font-size="13">
        <rect fill="white" height="600.0" width="800.0" x="0.0" y="0.0" />
        <g font-size="13">
            <text x="18.0" y="176.0">Small</text>
            <text x="18.0" y="376.0">Medium</text>
            <text x="18.0" y="576.0">Large</text>
        </g>
        <g font-size="9">
            <text x="250.0" y="30.0">Ultralight</text>
            <text x="450.0" y="30.0">Regular</text>
            <text x="650.0" y="30.0">Black</text>
            <text id="template-version" fill="#505050" text-anchor="end" x="785.0" y="575.0">Template v.3.0</text>
            <a href="https://github.com/swhitty/SwiftDraw">
                <text fill="#505050" text-anchor="end" x="785.0" y="590.0">https://github.com/swhitty/SwiftDraw</text>
            </a>
        </g>
    </g>
    <g id="Guides" stroke="rgb(39, 170, 225)" stroke-width="0.5">
        <path id="Capline-S" d="M18,76 l800,0" />
        <path id="H-reference" d="M85,145.755 L87.685,145.755 L113.369,79.287 L114.052,79.287 L114.052,76 L112.148,76 L85,145.755 Z M95.693,121.536 L130.996,121.536 L130.263,119.313 L96.474,119.313 L95.693,121.536 Z M139.15,145.755 L141.787,145.755 L114.638,76 L113.466,76 L113.466,79.287 L139.15,145.755 Z" stroke="none" />
        <path id="Baseline-S" d="M18,146 l800,0" />
        <path id="left-margin-Ultralight-S" d="M220,56 l0,110" />
        <path id="right-margin-Ultralight-S" d="M310,56 l0,110" />
        <path id="left-margin-Regular-S" d="M420,56 l0,110" />
        <path id="right-margin-Regular-S" d="M510,56 l0,110" />
        <path id="left-margin-Black-S" d="M620,56 l0,110" />
        <path id="right-margin-Black-S" d="M710,56 l0,110" />
        <path id="Capline-M" d="M18,276 l800,0" />
        <path id="Baseline-M" d="M18,346 l800,0" />
        <path id="Capline-L" d="M18,476 l800,0" />
        <path id="Baseline-L" d="M18,546 l800,0" />
    </g>
    <g id="Symbols">
        <g id="Ultralight-S">
            <path d="M302.692,111 L302.692,129.846 C302.692,130.56 302.409,131.245 301.904,131.75 C301.399,132.255 300.714,132.538 300,132.538 L265,132.538 C264.286,132.538 263.601,132.255 263.096,131.75 C262.591,131.245 262.308,130.56 262.308,129.846 L262.308,94.846 L232.692,94.846 L232.692,111 C232.692,112.487 231.487,113.692 230,113.692 C228.513,113.692 227.308,112.487 227.308,111 L227.308,92.154 C227.308,91.44 227.591,90.755 228.096,90.25 C228.601,89.745 229.286,89.462 230,89.462 L265,89.462 C265.714,89.462 266.399,89.745 266.904,90.25 C267.409,90.755 267.692,91.44 267.692,92.154 L267.692,127.154 L297.308,127.154 L297.308,111 C297.308,109.513 298.513,108.308 300,108.308 C301.487,108.308 302.692,109.513 302.692,111 Z" />
        </g>
        <g id="Regular-S">
            <path d="M502.692,111 L502.692,129.846 C502.692,130.56 502.409,131.245 501.904,131.75 C501.399,132.255 500.714,132.538 500,132.538 L465,132.538 C464.286,132.538 463.601,132.255 463.096,131.75 C462.591,131.245 462.308,130.56 462.308,129.846 L462.308,94.846 L432.692,94.846 L432.692,111 C432.692,112.487 431.487,113.692 430,113.692 C428.513,113.692 427.308,112.487 427.308,111 L427.308,92.154 C427.308,91.44 427.591,90.755 428.096,90.25 C428.601,89.745 429.286,89.462 430,89.462 L465,89.462 C465.714,89.462 466.399,89.745 466.904,90.25 C467.409,90.755 467.692,91.44 467.692,92.154 L467.692,127.154 L497.308,127.154 L497.308,111 C497.308,109.513 498.513,108.308 500,108.308 C501.487,108.308 502.692,109.513 502.692,111 Z" />
        </g>
        <g id="Black-S">
            <path d="M702.692,111 L702.692,129.846 C702.692,130.56 702.409,131.245 701.904,131.75 C701.399,132.255 700.714,132.538 700,132.538 L665,132.538 C664.286,132.538 663.601,132.255 663.096,131.75 C662.591,131.245 662.308,130.56 662.308,129.846 L662.308,94.846 L632.692,94.846 L632.692,111 C632.692,112.487 631.487,113.692 630,113.692 C628.513,113.692 627.308,112.487 627.308,111 L627.308,92.154 C627.308,91.44 627.591,90.755 628.096,90.25 C628.601,89.745 629.286,89.462 630,89.462 L665,89.462 C665.714,89.462 666.399,89.745 666.904,90.25 C667.409,90.755 667.692,91.44 667.692,92.154 L667.692,127.154 L697.308,127.154 L697.308,111 C697.308,109.513 698.513,108.308 700,108.308 C701.487,108.308 702.692,109.513 702.692,111 Z" />
        </g>
    </g>
</svg>