<?xml version="1.0" encoding="UTF-8"?>
<svg height="600" width="800" xmlns="http://www.w3.org/2000/svg" xmlns:xlink="http://www.w3.org/1999/xlink">
    <g id="Notes" font-family="'LucidaGrande', 'Lucida Grande', sans-serif" font-size="13">
        <rect fill="white" height="600.0" width="800.0" x="0.0" y="0.0" />
        <g font-size="13">
            <text x="18.0" y="176.0">Small</text>
            <text x="18.0" y="376.0">Medium</text>
            <text x="18.0" y="576.0">Large</text>
        </g>
        <g font-size="9">
            <text x="250.0" y="30.0">Ultralight</text>
            <text x="450.0" y="30.0">Regular</text>
            <text x="650.0" y="30.0">Black</text>
            <text id="template-version" fill="#505050" text-anchor="end" x="785.0" y="575.0">Template v.3.0</text>
            <a href="https://github.com/swhitty/SwiftDraw">
                <text fill="#505050" text-anchor="end" x="785.0" y="590.0">https://github.com/swhitty/SwiftDraw</text>
            </a>
        </g>
    </g>
    <g id="Guides" stroke="rgb(39, 170, 225)" stroke-width="0.5">
        <path id="Capline-S" d="M18,76 l800,0" />
        <path id="H-reference" d="M85,145.755 L87.685,145.755 L113.369,79.287 L114.052,79.287 L114.052,76 L112.148,76 L85,145.755 Z M95.693,121.536 L130.996,121.536 L130.263,119.313 L96.474,119.313 L95.693,121.536 Z M139.15,145.755 L141.787,145.755 L114.638,76 L113.466,76 L113.466,79.287 L139.15,145.755 Z" stroke="none" />
        <path id="Baseline-S" d="M18,146 l800,0" />
        <path id="left-margin-Ultralight-S" d="M220,56 l0,110" />
        <path id="right-margin-Ultralight-S" d="M310,56 l0,110" />
        <path id="left-margin-Regular-S" d="M420,56 l0,110" />
        <path id="right-margin-Regular-S" d="M510,56 l0,110" />
        <path id="left-margin-Black-S" d="M620,56 l0,110" />
        <path id="right-margin-Black-S" d="M710,56 l0,110" />
        <path id="Capline-M" d="M18,276 l800,0" />
        <path id="Baseline-M" d="M18,346 l800,0" />
        <path id="Capline-L" d="M18,476 l800,0" />
        <path id="Baseline-L" d="M18,546 l800,0" />
    </g>
    <g id="Symbols">
        <g id="Ultralight-S">
            <path d="M273.077,116.385 C273.077,117.099 272.793,117.783 272.288,118.288 C271.783,118.793 271.099,119.077 270.385,119.077 L259.615,119.077 C258.623,119.076 257.711,118.529 257.243,117.654 C256.775,116.778 256.826,115.716 257.377,114.89 L265.353,102.923 L259.615,102.923 C258.128,102.923 256.923,101.718 256.923,100.231 C256.923,98.744 258.128,97.538 259.615,97.538 L270.385,97.538 C271.377,97.539 272.289,98.086 272.757,98.962 C273.225,99.837 273.174,100.899 272.623,101.725 L264.663,113.692 L270.385,113.692 C271.099,113.692 271.783,113.976 272.288,114.481 C272.793,114.986 273.077,115.671 273.077,116.385 Z M296.581,132.538 C295.63,134.213 293.849,135.243 291.923,135.231 L278.189,135.231 C276.908,141.497 271.396,145.997 265,145.997 C258.604,145.997 253.092,141.497 251.811,135.231 L238.077,135.231 C236.15,135.228 234.372,134.196 233.413,132.525 C232.455,130.854 232.462,128.798 233.433,127.134 C235.3,123.916 238.077,114.816 238.077,102.923 C238.077,88.054 250.131,76 265,76 C279.869,76 291.923,88.054 291.923,102.923 C291.923,114.813 294.703,123.916 296.571,127.134 C297.551,128.801 297.555,130.868 296.581,132.538 Z M272.612,135.231 L257.388,135.231 C258.531,138.454 261.58,140.608 265,140.608 C268.42,140.608 271.469,138.454 272.612,135.231 Z M291.923,129.846 C289.322,125.38 286.538,115.055 286.538,102.923 C286.538,91.028 276.895,81.385 265,81.385 C253.105,81.385 243.462,91.028 243.462,102.923 C243.462,115.059 240.675,125.384 238.077,129.846 Z" />
        </g>
        <g id="Regular-S">
            <path d="M473.077,116.385 C473.077,117.099 472.793,117.783 472.288,118.288 C471.783,118.793 471.099,119.077 470.385,119.077 L459.615,119.077 C458.623,119.076 457.711,118.529 457.243,117.654 C456.775,116.778 456.826,115.716 457.377,114.89 L465.353,102.923 L459.615,102.923 C458.128,102.923 456.923,101.718 456.923,100.231 C456.923,98.744 458.128,97.538 459.615,97.538 L470.385,97.538 C471.377,97.539 472.289,98.086 472.757,98.962 C473.225,99.837 473.174,100.899 472.623,101.725 L464.663,113.692 L470.385,113.692 C471.099,113.692 471.783,113.976 472.288,114.481 C472.793,114.986 473.077,115.671 473.077,116.385 Z M496.581,132.538 C495.63,134.213 493.849,135.243 491.923,135.231 L478.189,135.231 C476.908,141.497 471.396,145.997 465,145.997 C458.604,145.997 453.092,141.497 451.811,135.231 L438.077,135.231 C436.15,135.228 434.372,134.196 433.413,132.525 C432.455,130.854 432.462,128.798 433.433,127.134 C435.3,123.916 438.077,114.816 438.077,102.923 C438.077,88.054 450.131,76 465,76 C479.869,76 491.923,88.054 491.923,102.923 C491.923,114.813 494.703,123.916 496.571,127.134 C497.551,128.801 497.555,130.868 496.581,132.538 Z M472.612,135.231 L457.387,135.231 C458.531,138.454 461.58,140.608 465,140.608 C468.42,140.608 471.469,138.454 472.612,135.231 Z M491.923,129.846 C489.322,125.38 486.538,115.055 486.538,102.923 C486.538,91.028 476.895,81.385 465,81.385 C453.105,81.385 443.462,91.028 443.462,102.923 C443.462,115.059 440.675,125.384 438.077,129.846 Z" />
        </g>
        <g id="Black-S">
            <path d="M673.077,116.385 C673.077,117.099 672.793,117.783 672.288,118.288 C671.783,118.793 671.099,119.077 670.385,119.077 L659.615,119.077 C658.623,119.076 657.711,118.529 657.243,117.654 C656.775,116.778 656.826,115.716 657.377,114.89 L665.353,102.923 L659.615,102.923 C658.128,102.923 656.923,101.718 656.923,100.231 C656.923,98.744 658.128,97.538 659.615,97.538 L670.385,97.538 C671.377,97.539 672.289,98.086 672.757,98.962 C673.225,99.837 673.174,100.899 672.623,101.725 L664.663,113.692 L670.385,113.692 C671.099,113.692 671.783,113.976 672.288,114.481 C672.793,114.986 673.077,115.671 673.077,116.385 Z M696.581,132.538 C695.63,134.213 693.849,135.243 691.923,135.231 L678.189,135.231 C676.908,141.497 671.396,145.997 665,145.997 C658.604,145.997 653.092,141.497 651.811,135.231 L638.077,135.231 C636.15,135.228 634.372,134.196 633.413,132.525 C632.455,130.854 632.462,128.798 633.433,127.134 C635.3,123.916 638.077,114.816 638.077,102.923 C638.077,88.054 650.131,76 665,76 C679.869,76 691.923,88.054 691.923,102.923 C691.923,114.813 694.703,123.916 696.571,127.134 C697.551,128.801 697.555,130.868 696.581,132.538 Z M672.613,135.231 L657.388,135.231 C658.531,138.454 661.58,140.608 665,140.608 C668.42,140.608 671.469,138.454 672.613,135.231 Z M691.923,129.846 C689.322,125.38 686.538,115.055 686.538,102.923 C686.538,91.028 676.895,81.385 665,81.385 C653.105,81.385 643.462,91.028 643.462,102.923 C643.462,115.059 640.675,125.384 638.077,129.846 Z" />
        </g>
    </g>
</svg>