<?xml version="1.0" encoding="UTF-8"?>
<svg height="600" width="800" xmlns="http://www.w3.org/2000/svg" xmlns:xlink="http://www.w3.org/1999/xlink">
    <g id="Notes" font-family="'LucidaGrande', 'Lucida Grande', sans-serif" font-size="13">
        <rect fill="white" height="600.0" width="800.0" x="0.0" y="0.0" />
        <g font-size="13">
            <text x="18.0" y="176.0">Small</text>
            <text x="18.0" y="376.0">Medium</text>
            <text x="18.0" y="576.0">Large</text>
        </g>
        <g font-size="9">
            <text x="250.0" y="30.0">Ultralight</text>
            <text x="450.0" y="30.0">Regular</text>
            <text x="650.0" y="30.0">Black</text>
            <text id="template-version" fill="#505050" text-anchor="end" x="785.0" y="575.0">Template v.3.0</text>
            <a href="https://github.com/swhitty/SwiftDraw">
                <text fill="#505050" text-anchor="end" x="785.0" y="590.0">https://github.com/swhitty/SwiftDraw</text>
            </a>
        </g>
    </g>
    <g id="Guides" stroke="rgb(39, 170, 225)" stroke-width="0.5">
        <path id="Capline-S" d="M18,76 l800,0" />
        <path id="H-reference" d="M85,145.755 L87.685,145.755 L113.369,79.287 L114.052,79.287 L114.052,76 L112.148,76 L85,145.755 Z M95.693,121.536 L130.996,121.536 L130.263,119.313 L96.474,119.313 L95.693,121.536 Z M139.15,145.755 L141.787,145.755 L114.638,76 L113.466,76 L113.466,79.287 L139.15,145.755 Z" stroke="none" />
        <path id="Baseline-S" d="M18,146 l800,0" />
        <path id="left-margin-Ultralight-S" d="M220,56 l0,110" />
        <path id="right-margin-Ultralight-S" d="M310,56 l0,110" />
        <path id="left-margin-Regular-S" d="M420,56 l0,110" />
        <path id="right-margin-Regular-S" d="M510,56 l0,110" />
        <path id="left-margin-Black-S" d="M620,56 l0,110" />
        <path id="right-margin-Black-S" d="M710,56 l0,110" />
        <path id="Capline-M" d="M18,276 l800,0" />
        <path id="Baseline-M" d="M18,346 l800,0" />
        <path id="Capline-L" d="M18,476 l800,0" />
        <path id="Baseline-L" d="M18,546 l800,0" />
    </g>
    <g id="Symbols">
        <g id="Ultralight-S">
            <path d="M265,76 C245.67,76 230,91.67 230,111 C230,130.33 245.67,146 265,146 C284.33,146 300,130.33 300,111 C299.979,91.677 284.32,76.02 264.999,76 Z M265,140.615 C248.644,140.615 235.385,127.356 235.385,111 C235.385,94.644 248.644,81.385 265,81.385 C281.356,81.385 294.615,94.644 294.615,111 C294.598,127.347 281.35,140.596 265.001,140.615 Z M267.692,94.846 L256.923,94.846 C256.209,94.846 255.524,95.13 255.019,95.635 C254.514,96.14 254.231,96.824 254.231,97.538 L254.231,124.462 C254.231,125.948 255.436,127.154 256.923,127.154 C258.41,127.154 259.615,125.948 259.615,124.462 L259.615,119.077 L267.692,119.077 C274.383,119.077 279.808,113.653 279.808,106.962 C279.808,100.27 274.383,94.846 267.692,94.846 Z M267.692,113.692 L259.615,113.692 L259.615,100.231 L267.692,100.231 C271.41,100.231 274.423,103.244 274.423,106.962 C274.423,110.679 271.41,113.692 267.692,113.692 Z" />
        </g>
        <g id="Regular-S">
            <path d="M465,76 C445.67,76 430,91.67 430,111 C430,130.33 445.67,146 465,146 C484.33,146 500,130.33 500,111 C499.979,91.677 484.32,76.02 464.999,76 Z M465,140.615 C448.644,140.615 435.385,127.356 435.385,111 C435.385,94.644 448.644,81.385 465,81.385 C481.356,81.385 494.615,94.644 494.615,111 C494.598,127.347 481.35,140.596 465.001,140.615 Z M467.692,94.846 L456.923,94.846 C456.209,94.846 455.524,95.13 455.019,95.635 C454.514,96.14 454.231,96.824 454.231,97.538 L454.231,124.462 C454.231,125.948 455.436,127.154 456.923,127.154 C458.41,127.154 459.615,125.948 459.615,124.462 L459.615,119.077 L467.692,119.077 C474.383,119.077 479.808,113.653 479.808,106.962 C479.808,100.27 474.383,94.846 467.692,94.846 Z M467.692,113.692 L459.615,113.692 L459.615,100.231 L467.692,100.231 C471.41,100.231 474.423,103.244 474.423,106.962 C474.423,110.679 471.41,113.692 467.692,113.692 Z" />
        </g>
        <g id="Black-S">
            <path d="M665,76 C645.67,76 630,91.67 630,111 C630,130.33 645.67,146 665,146 C684.33,146 700,130.33 700,111 C699.979,91.677 684.32,76.02 664.999,76 Z M665,140.615 C648.644,140.615 635.385,127.356 635.385,111 C635.385,94.644 648.644,81.385 665,81.385 C681.356,81.385 694.615,94.644 694.615,111 C694.598,127.347 681.35,140.596 665.001,140.615 Z M667.692,94.846 L656.923,94.846 C656.209,94.846 655.524,95.13 655.019,95.635 C654.514,96.14 654.231,96.824 654.231,97.538 L654.231,124.462 C654.231,125.948 655.436,127.154 656.923,127.154 C658.41,127.154 659.615,125.948 659.615,124.462 L659.615,119.077 L667.692,119.077 C674.383,119.077 679.808,113.653 679.808,106.962 C679.808,100.27 674.383,94.846 667.692,94.846 Z M667.692,113.692 L659.615,113.692 L659.615,100.231 L667.692,100.231 C671.41,100.231 674.423,103.244 674.423,106.962 C674.423,110.679 671.41,113.692 667.692,113.692 Z" />
        </g>
    </g>
</svg>