<?xml version="1.0" encoding="UTF-8"?>
<svg height="600" width="800" xmlns="http://www.w3.org/2000/svg" xmlns:xlink="http://www.w3.org/1999/xlink">
    <g id="Notes" font-family="'LucidaGrande', 'Lucida Grande', sans-serif" font-size="13">
        <rect fill="white" height="600.0" width="800.0" x="0.0" y="0.0" />
        <g font-size="13">
            <text x="18.0" y="176.0">Small</text>
            <text x="18.0" y="376.0">Medium</text>
            <text x="18.0" y="576.0">Large</text>
        </g>
        <g font-size="9">
            <text x="250.0" y="30.0">Ultralight</text>
            <text x="450.0" y="30.0">Regular</text>
            <text x="650.0" y="30.0">Black</text>
            <text id="template-version" fill="#505050" text-anchor="end" x="785.0" y="575.0">Template v.3.0</text>
            <a href="https://github.com/swhitty/SwiftDraw">
                <text fill="#505050" text-anchor="end" x="785.0" y="590.0">https://github.com/swhitty/SwiftDraw</text>
            </a>
        </g>
    </g>
    <g id="Guides" stroke="rgb(39, 170, 225)" stroke-width="0.5">
        <path id="Capline-S" d="M18,76 l800,0" />
        <path id="H-reference" d="M85,145.755 L87.685,145.755 L113.369,79.287 L114.052,79.287 L114.052,76 L112.148,76 L85,145.755 Z M95.693,121.536 L130.996,121.536 L130.263,119.313 L96.474,119.313 L95.693,121.536 Z M139.15,145.755 L141.787,145.755 L114.638,76 L113.466,76 L113.466,79.287 L139.15,145.755 Z" stroke="none" />
        <path id="Baseline-S" d="M18,146 l800,0" />
        <path id="left-margin-Ultralight-S" d="M220,56 l0,110" />
        <path id="right-margin-Ultralight-S" d="M310,56 l0,110" />
        <path id="left-margin-Regular-S" d="M420,56 l0,110" />
        <path id="right-margin-Regular-S" d="M510,56 l0,110" />
        <path id="left-margin-Black-S" d="M620,56 l0,110" />
        <path id="right-margin-Black-S" d="M710,56 l0,110" />
        <path id="Capline-M" d="M18,276 l800,0" />
        <path id="Baseline-M" d="M18,346 l800,0" />
        <path id="Capline-L" d="M18,476 l800,0" />
        <path id="Baseline-L" d="M18,546 l800,0" />
    </g>
    <g id="Symbols">
        <g id="Ultralight-S">
            <path d="M265,97.538 C257.565,97.538 251.538,103.565 251.538,111 C251.538,118.435 257.565,124.462 265,124.462 C272.435,124.462 278.462,118.435 278.462,111 C278.462,107.43 277.043,104.006 274.519,101.481 C271.994,98.957 268.57,97.538 265,97.538 Z M265,119.077 C260.539,119.077 256.923,115.461 256.923,111 C256.923,106.539 260.539,102.923 265,102.923 C269.461,102.923 273.077,106.539 273.077,111 C273.077,113.142 272.226,115.197 270.711,116.711 C269.197,118.226 267.142,119.077 265,119.077 Z M289.806,121.48 C288.65,124.214 287.048,126.739 285.068,128.951 C284.07,130.031 282.39,130.11 281.295,129.13 C280.199,128.149 280.093,126.471 281.056,125.36 C288.376,117.187 288.376,104.816 281.056,96.643 C280.396,95.929 280.173,94.915 280.471,93.99 C280.769,93.065 281.543,92.372 282.495,92.178 C283.448,91.984 284.431,92.318 285.068,93.052 C292.007,100.817 293.852,111.884 289.806,121.48 Z M245.144,102.617 C241.902,110.293 243.377,119.15 248.934,125.36 C249.897,126.471 249.79,128.149 248.695,129.13 C247.6,130.11 245.92,130.031 244.922,128.951 C235.77,118.735 235.77,103.269 244.922,93.052 C245.91,91.943 247.614,91.844 248.726,92.834 C249.837,93.824 249.936,95.528 248.946,96.64 C247.357,98.408 246.072,100.428 245.144,102.617 Z M305.385,111 C305.401,121.575 301.255,131.729 293.844,139.27 C293.176,139.984 292.175,140.28 291.226,140.044 C290.278,139.808 289.533,139.076 289.278,138.133 C289.023,137.19 289.3,136.182 290,135.501 C303.35,121.901 303.35,100.115 290,86.515 C288.954,85.448 288.971,83.74 290.034,82.697 C291.098,81.654 292.805,81.671 293.848,82.734 C301.257,90.275 305.401,100.429 305.385,111 Z M239.999,135.493 C241.042,136.556 241.026,138.262 239.964,139.304 C238.902,140.346 237.196,140.33 236.154,139.268 C220.738,123.574 220.738,98.423 236.154,82.73 C236.822,82.016 237.823,81.72 238.771,81.956 C239.719,82.192 240.465,82.924 240.72,83.867 C240.974,84.81 240.698,85.818 239.997,86.499 C226.648,100.099 226.648,121.885 239.997,135.485 Z" />
        </g>
        <g id="Regular-S">
            <path d="M465,97.538 C457.565,97.538 451.538,103.565 451.538,111 C451.538,118.435 457.565,124.462 465,124.462 C472.435,124.462 478.462,118.435 478.462,111 C478.462,107.43 477.043,104.006 474.519,101.481 C471.994,98.957 468.57,97.538 465,97.538 Z M465,119.077 C460.539,119.077 456.923,115.461 456.923,111 C456.923,106.539 460.539,102.923 465,102.923 C469.461,102.923 473.077,106.539 473.077,111 C473.077,113.142 472.226,115.197 470.711,116.711 C469.197,118.226 467.142,119.077 465,119.077 Z M489.806,121.48 C488.65,124.214 487.048,126.739 485.068,128.951 C484.07,130.031 482.39,130.11 481.295,129.13 C480.199,128.149 480.093,126.471 481.056,125.36 C488.376,117.187 488.376,104.816 481.056,96.643 C480.396,95.929 480.173,94.915 480.471,93.99 C480.769,93.065 481.543,92.372 482.495,92.178 C483.448,91.984 484.431,92.318 485.068,93.052 C492.007,100.817 493.851,111.884 489.806,121.48 Z M445.144,102.617 C441.902,110.293 443.377,119.15 448.934,125.36 C449.897,126.471 449.79,128.149 448.695,129.13 C447.6,130.11 445.92,130.031 444.922,128.951 C435.77,118.735 435.77,103.269 444.922,93.052 C445.91,91.943 447.614,91.844 448.725,92.834 C449.837,93.824 449.936,95.528 448.946,96.64 C447.357,98.408 446.072,100.428 445.144,102.617 Z M505.385,111 C505.401,121.575 501.255,131.729 493.844,139.27 C493.176,139.984 492.174,140.28 491.226,140.044 C490.278,139.808 489.533,139.076 489.278,138.133 C489.023,137.19 489.3,136.182 490,135.501 C503.349,121.901 503.349,100.115 490,86.515 C488.954,85.448 488.971,83.74 490.034,82.697 C491.098,81.654 492.805,81.671 493.848,82.734 C501.257,90.275 505.401,100.429 505.385,111 Z M439.999,135.493 C441.042,136.556 441.026,138.262 439.964,139.304 C438.902,140.346 437.196,140.33 436.154,139.268 C420.738,123.574 420.738,98.423 436.154,82.73 C436.822,82.016 437.823,81.72 438.771,81.956 C439.719,82.192 440.465,82.924 440.72,83.867 C440.974,84.81 440.698,85.818 439.997,86.499 C426.648,100.099 426.648,121.885 439.997,135.485 Z" />
        </g>
        <g id="Black-S">
            <path d="M665,97.538 C657.565,97.538 651.538,103.565 651.538,111 C651.538,118.435 657.565,124.462 665,124.462 C672.435,124.462 678.462,118.435 678.462,111 C678.462,107.43 677.043,104.006 674.519,101.481 C671.994,98.957 668.57,97.538 665,97.538 Z M665,119.077 C660.539,119.077 656.923,115.461 656.923,111 C656.923,106.539 660.539,102.923 665,102.923 C669.461,102.923 673.077,106.539 673.077,111 C673.077,113.142 672.226,115.197 670.711,116.711 C669.197,118.226 667.142,119.077 665,119.077 Z M689.806,121.48 C688.65,124.214 687.048,126.739 685.068,128.951 C684.07,130.031 682.39,130.11 681.295,129.13 C680.199,128.149 680.093,126.471 681.056,125.36 C688.376,117.187 688.376,104.816 681.056,96.643 C680.396,95.929 680.173,94.915 680.471,93.99 C680.769,93.065 681.543,92.372 682.495,92.178 C683.448,91.984 684.431,92.318 685.068,93.052 C692.007,100.817 693.852,111.884 689.806,121.48 Z M645.144,102.617 C641.902,110.293 643.378,119.15 648.934,125.36 C649.897,126.471 649.79,128.149 648.695,129.13 C647.6,130.11 645.92,130.031 644.922,128.951 C635.77,118.735 635.77,103.269 644.922,93.052 C645.91,91.943 647.614,91.844 648.726,92.834 C649.837,93.824 649.936,95.528 648.946,96.64 C647.357,98.408 646.072,100.428 645.144,102.617 Z M705.385,111 C705.401,121.575 701.255,131.729 693.844,139.27 C693.176,139.984 692.175,140.28 691.226,140.044 C690.278,139.808 689.533,139.076 689.278,138.133 C689.023,137.19 689.3,136.182 690,135.501 C703.35,121.901 703.35,100.115 690,86.515 C688.954,85.448 688.971,83.74 690.034,82.697 C691.098,81.654 692.805,81.671 693.848,82.734 C701.257,90.275 705.401,100.429 705.385,111 Z M639.999,135.493 C641.042,136.556 641.026,138.262 639.964,139.304 C638.902,140.346 637.196,140.33 636.154,139.268 C620.738,123.574 620.738,98.423 636.154,82.73 C636.822,82.016 637.823,81.72 638.771,81.956 C639.719,82.192 640.465,82.924 640.72,83.867 C640.974,84.81 640.698,85.818 639.997,86.499 C626.648,100.099 626.648,121.885 639.997,135.485 Z" />
        </g>
    </g>
</svg>