<?xml version="1.0" encoding="UTF-8"?>
<svg height="600" width="800" xmlns="http://www.w3.org/2000/svg" xmlns:xlink="http://www.w3.org/1999/xlink">
    <g id="Notes" font-family="'LucidaGrande', 'Lucida Grande', sans-serif" font-size="13">
        <rect fill="white" height="600.0" width="800.0" x="0.0" y="0.0" />
        <g font-size="13">
            <text x="18.0" y="176.0">Small</text>
            <text x="18.0" y="376.0">Medium</text>
            <text x="18.0" y="576.0">Large</text>
        </g>
        <g font-size="9">
            <text x="250.0" y="30.0">Ultralight</text>
            <text x="450.0" y="30.0">Regular</text>
            <text x="650.0" y="30.0">Black</text>
            <text id="template-version" fill="#505050" text-anchor="end" x="785.0" y="575.0">Template v.3.0</text>
            <a href="https://github.com/swhitty/SwiftDraw">
                <text fill="#505050" text-anchor="end" x="785.0" y="590.0">https://github.com/swhitty/SwiftDraw</text>
            </a>
        </g>
    </g>
    <g id="Guides" stroke="rgb(39, 170, 225)" stroke-width="0.5">
        <path id="Capline-S" d="M18,76 l800,0" />
        <path id="H-reference" d="M85,145.755 L87.685,145.755 L113.369,79.287 L114.052,79.287 L114.052,76 L112.148,76 L85,145.755 Z M95.693,121.536 L130.996,121.536 L130.263,119.313 L96.474,119.313 L95.693,121.536 Z M139.15,145.755 L141.787,145.755 L114.638,76 L113.466,76 L113.466,79.287 L139.15,145.755 Z" stroke="none" />
        <path id="Baseline-S" d="M18,146 l800,0" />
        <path id="left-margin-Ultralight-S" d="M220,56 l0,110" />
        <path id="right-margin-Ultralight-S" d="M310,56 l0,110" />
        <path id="left-margin-Regular-S" d="M420,56 l0,110" />
        <path id="right-margin-Regular-S" d="M510,56 l0,110" />
        <path id="left-margin-Black-S" d="M620,56 l0,110" />
        <path id="right-margin-Black-S" d="M710,56 l0,110" />
        <path id="Capline-M" d="M18,276 l800,0" />
        <path id="Baseline-M" d="M18,346 l800,0" />
        <path id="Capline-L" d="M18,476 l800,0" />
        <path id="Baseline-L" d="M18,546 l800,0" />
    </g>
    <g id="Symbols">
        <g id="Ultralight-S">
            <path d="M242.115,116.385 L236.731,116.385 C236.017,116.385 235.332,116.668 234.827,117.173 C234.322,117.678 234.038,118.363 234.038,119.077 L234.038,137.923 C234.038,139.41 235.244,140.615 236.731,140.615 C238.218,140.615 239.423,139.41 239.423,137.923 L239.423,135.231 L242.115,135.231 C247.32,135.231 251.538,131.012 251.538,125.808 C251.538,120.603 247.32,116.385 242.115,116.385 Z M242.115,129.846 L239.423,129.846 L239.423,121.769 L242.115,121.769 C244.346,121.769 246.154,123.577 246.154,125.808 C246.154,128.038 244.346,129.846 242.115,129.846 Z M297.308,135.524 C297.307,136.218 297.04,136.884 296.56,137.385 C294.665,139.424 292.014,140.593 289.231,140.615 C283.291,140.615 278.462,135.18 278.462,128.5 C278.462,121.82 283.291,116.385 289.231,116.385 C291.21,116.391 293.141,116.99 294.777,118.104 C296.012,118.945 296.331,120.623 295.493,121.855 C294.655,123.087 292.977,123.406 291.745,122.568 C291.007,122.054 290.13,121.775 289.231,121.769 C286.263,121.769 283.846,124.798 283.846,128.5 C283.846,132.202 286.263,135.231 289.231,135.231 C290.203,135.22 291.146,134.899 291.923,134.315 L291.923,132.538 C290.436,132.538 289.231,131.333 289.231,129.846 C289.231,128.359 290.436,127.154 291.923,127.154 L294.615,127.154 C295.329,127.154 296.014,127.438 296.519,127.942 C297.024,128.447 297.308,129.132 297.308,129.846 Z M274.423,119.077 L274.423,137.923 C274.423,139.093 273.667,140.13 272.552,140.487 C272.287,140.573 272.01,140.616 271.731,140.615 C270.861,140.615 270.045,140.196 269.54,139.488 L260.962,127.49 L260.962,137.923 C260.962,139.41 259.756,140.615 258.269,140.615 C256.782,140.615 255.577,139.41 255.577,137.923 L255.577,119.077 C255.577,117.906 256.333,116.87 257.448,116.513 C258.562,116.156 259.78,116.56 260.46,117.512 L269.038,129.51 L269.038,119.077 C269.038,117.59 270.244,116.385 271.731,116.385 C273.218,116.385 274.423,117.59 274.423,119.077 Z M238.077,108.308 C238.791,108.308 239.476,108.024 239.981,107.519 C240.486,107.014 240.769,106.329 240.769,105.615 L240.769,81.385 L270.385,81.385 L270.385,97.538 C270.385,98.253 270.668,98.937 271.173,99.442 C271.678,99.947 272.363,100.231 273.077,100.231 L289.231,100.231 L289.231,105.615 C289.231,107.102 290.436,108.308 291.923,108.308 C293.41,108.308 294.615,107.102 294.615,105.615 L294.615,97.538 C294.616,96.824 294.333,96.139 293.828,95.634 L274.982,76.788 C274.477,76.283 273.791,75.999 273.077,76 L240.769,76 C239.341,76 237.972,76.567 236.962,77.577 C235.952,78.587 235.385,79.957 235.385,81.385 L235.385,105.615 C235.385,106.329 235.668,107.014 236.173,107.519 C236.678,108.024 237.363,108.308 238.077,108.308 Z M275.769,85.191 L285.425,94.846 L275.769,94.846 Z" />
        </g>
        <g id="Regular-S">
            <path d="M442.115,116.385 L436.731,116.385 C436.017,116.385 435.332,116.668 434.827,117.173 C434.322,117.678 434.038,118.363 434.038,119.077 L434.038,137.923 C434.038,139.41 435.244,140.615 436.731,140.615 C438.218,140.615 439.423,139.41 439.423,137.923 L439.423,135.231 L442.115,135.231 C447.32,135.231 451.538,131.012 451.538,125.808 C451.538,120.603 447.32,116.385 442.115,116.385 Z M442.115,129.846 L439.423,129.846 L439.423,121.769 L442.115,121.769 C444.346,121.769 446.154,123.577 446.154,125.808 C446.154,128.038 444.346,129.846 442.115,129.846 Z M497.308,135.524 C497.307,136.218 497.04,136.884 496.56,137.385 C494.665,139.424 492.014,140.593 489.231,140.615 C483.291,140.615 478.462,135.18 478.462,128.5 C478.462,121.82 483.291,116.385 489.231,116.385 C491.21,116.391 493.141,116.99 494.777,118.104 C496.012,118.945 496.331,120.623 495.493,121.855 C494.655,123.087 492.977,123.406 491.745,122.568 C491.007,122.054 490.13,121.775 489.231,121.769 C486.262,121.769 483.846,124.798 483.846,128.5 C483.846,132.202 486.262,135.231 489.231,135.231 C490.203,135.22 491.146,134.899 491.923,134.315 L491.923,132.538 C490.436,132.538 489.231,131.333 489.231,129.846 C489.231,128.359 490.436,127.154 491.923,127.154 L494.615,127.154 C495.329,127.154 496.014,127.438 496.519,127.942 C497.024,128.447 497.308,129.132 497.308,129.846 Z M474.423,119.077 L474.423,137.923 C474.423,139.093 473.667,140.13 472.552,140.487 C472.287,140.573 472.01,140.616 471.731,140.615 C470.861,140.615 470.045,140.196 469.54,139.488 L460.962,127.49 L460.962,137.923 C460.962,139.41 459.756,140.615 458.269,140.615 C456.782,140.615 455.577,139.41 455.577,137.923 L455.577,119.077 C455.577,117.906 456.333,116.87 457.448,116.513 C458.562,116.156 459.78,116.56 460.46,117.512 L469.038,129.51 L469.038,119.077 C469.038,117.59 470.244,116.385 471.731,116.385 C473.218,116.385 474.423,117.59 474.423,119.077 Z M438.077,108.308 C438.791,108.308 439.476,108.024 439.981,107.519 C440.486,107.014 440.769,106.329 440.769,105.615 L440.769,81.385 L470.385,81.385 L470.385,97.538 C470.385,98.253 470.668,98.937 471.173,99.442 C471.678,99.947 472.363,100.231 473.077,100.231 L489.231,100.231 L489.231,105.615 C489.231,107.102 490.436,108.308 491.923,108.308 C493.41,108.308 494.615,107.102 494.615,105.615 L494.615,97.538 C494.616,96.824 494.333,96.139 493.828,95.634 L474.982,76.788 C474.477,76.283 473.791,75.999 473.077,76 L440.769,76 C439.341,76 437.972,76.567 436.962,77.577 C435.952,78.587 435.385,79.957 435.385,81.385 L435.385,105.615 C435.385,106.329 435.668,107.014 436.173,107.519 C436.678,108.024 437.363,108.308 438.077,108.308 Z M475.769,85.191 L485.424,94.846 L475.769,94.846 Z" />
        </g>
        <g id="Black-S">
            <path d="M642.115,116.385 L636.731,116.385 C636.017,116.385 635.332,116.668 634.827,117.173 C634.322,117.678 634.038,118.363 634.038,119.077 L634.038,137.923 C634.038,139.41 635.244,140.615 636.731,140.615 C638.218,140.615 639.423,139.41 639.423,137.923 L639.423,135.231 L642.115,135.231 C647.32,135.231 651.538,131.012 651.538,125.808 C651.538,120.603 647.32,116.385 642.115,116.385 Z M642.115,129.846 L639.423,129.846 L639.423,121.769 L642.115,121.769 C644.346,121.769 646.154,123.577 646.154,125.808 C646.154,128.038 644.346,129.846 642.115,129.846 Z M697.308,135.524 C697.307,136.218 697.04,136.884 696.56,137.385 C694.666,139.424 692.014,140.593 689.231,140.615 C683.291,140.615 678.462,135.18 678.462,128.5 C678.462,121.82 683.291,116.385 689.231,116.385 C691.21,116.391 693.141,116.99 694.777,118.104 C696.012,118.945 696.331,120.623 695.493,121.855 C694.655,123.087 692.977,123.406 691.745,122.568 C691.007,122.054 690.13,121.775 689.231,121.769 C686.263,121.769 683.846,124.798 683.846,128.5 C683.846,132.202 686.263,135.231 689.231,135.231 C690.203,135.22 691.146,134.899 691.923,134.315 L691.923,132.538 C690.436,132.538 689.231,131.333 689.231,129.846 C689.231,128.359 690.436,127.154 691.923,127.154 L694.615,127.154 C695.329,127.154 696.014,127.438 696.519,127.942 C697.024,128.447 697.308,129.132 697.308,129.846 Z M674.423,119.077 L674.423,137.923 C674.424,139.093 673.667,140.13 672.552,140.487 C672.287,140.573 672.01,140.616 671.731,140.615 C670.861,140.615 670.045,140.196 669.54,139.488 L660.962,127.49 L660.962,137.923 C660.962,139.41 659.756,140.615 658.269,140.615 C656.782,140.615 655.577,139.41 655.577,137.923 L655.577,119.077 C655.577,117.906 656.333,116.87 657.448,116.513 C658.562,116.156 659.78,116.56 660.46,117.512 L669.038,129.51 L669.038,119.077 C669.038,117.59 670.244,116.385 671.731,116.385 C673.218,116.385 674.423,117.59 674.423,119.077 Z M638.077,108.308 C638.791,108.308 639.476,108.024 639.981,107.519 C640.486,107.014 640.769,106.329 640.769,105.615 L640.769,81.385 L670.385,81.385 L670.385,97.538 C670.385,98.253 670.668,98.937 671.173,99.442 C671.678,99.947 672.363,100.231 673.077,100.231 L689.231,100.231 L689.231,105.615 C689.231,107.102 690.436,108.308 691.923,108.308 C693.41,108.308 694.615,107.102 694.615,105.615 L694.615,97.538 C694.616,96.824 694.333,96.139 693.828,95.634 L674.982,76.788 C674.477,76.283 673.791,75.999 673.077,76 L640.769,76 C639.341,76 637.972,76.567 636.962,77.577 C635.952,78.587 635.385,79.957 635.385,81.385 L635.385,105.615 C635.385,106.329 635.668,107.014 636.173,107.519 C636.678,108.024 637.363,108.308 638.077,108.308 Z M675.769,85.191 L685.425,94.846 L675.769,94.846 Z" />
        </g>
    </g>
</svg>