<?xml version="1.0" encoding="UTF-8"?>
<svg height="600" width="800" xmlns="http://www.w3.org/2000/svg" xmlns:xlink="http://www.w3.org/1999/xlink">
    <g id="Notes" font-family="'LucidaGrande', 'Lucida Grande', sans-serif" font-size="13">
        <rect fill="white" height="600.0" width="800.0" x="0.0" y="0.0" />
        <g font-size="13">
            <text x="18.0" y="176.0">Small</text>
            <text x="18.0" y="376.0">Medium</text>
            <text x="18.0" y="576.0">Large</text>
        </g>
        <g font-size="9">
            <text x="250.0" y="30.0">Ultralight</text>
            <text x="450.0" y="30.0">Regular</text>
            <text x="650.0" y="30.0">Black</text>
            <text id="template-version" fill="#505050" text-anchor="end" x="785.0" y="575.0">Template v.3.0</text>
            <a href="https://github.com/swhitty/SwiftDraw">
                <text fill="#505050" text-anchor="end" x="785.0" y="590.0">https://github.com/swhitty/SwiftDraw</text>
            </a>
        </g>
    </g>
    <g id="Guides" stroke="rgb(39, 170, 225)" stroke-width="0.5">
        <path id="Capline-S" d="M18,76 l800,0" />
        <path id="H-reference" d="M85,145.755 L87.685,145.755 L113.369,79.287 L114.052,79.287 L114.052,76 L112.148,76 L85,145.755 Z M95.693,121.536 L130.996,121.536 L130.263,119.313 L96.474,119.313 L95.693,121.536 Z M139.15,145.755 L141.787,145.755 L114.638,76 L113.466,76 L113.466,79.287 L139.15,145.755 Z" stroke="none" />
        <path id="Baseline-S" d="M18,146 l800,0" />
        <path id="left-margin-Ultralight-S" d="M220,56 l0,110" />
        <path id="right-margin-Ultralight-S" d="M310,56 l0,110" />
        <path id="left-margin-Regular-S" d="M420,56 l0,110" />
        <path id="right-margin-Regular-S" d="M510,56 l0,110" />
        <path id="left-margin-Black-S" d="M620,56 l0,110" />
        <path id="right-margin-Black-S" d="M710,56 l0,110" />
        <path id="Capline-M" d="M18,276 l800,0" />
        <path id="Baseline-M" d="M18,346 l800,0" />
        <path id="Capline-L" d="M18,476 l800,0" />
        <path id="Baseline-L" d="M18,546 l800,0" />
    </g>
    <g id="Symbols">
        <g id="Ultralight-S">
            <path d="M281.154,140.615 C281.154,141.329 280.87,142.014 280.365,142.519 C279.86,143.024 279.176,143.308 278.462,143.308 L230,143.308 C228.513,143.308 227.308,142.102 227.308,140.615 C227.308,139.128 228.513,137.923 230,137.923 L278.462,137.923 C279.176,137.923 279.86,138.207 280.365,138.712 C280.87,139.217 281.154,139.901 281.154,140.615 Z M305.337,99.272 C305.195,100.03 304.734,100.69 304.072,101.086 L254.463,130.701 C252.395,131.914 250.042,132.555 247.645,132.559 C244.23,132.555 240.946,131.246 238.464,128.9 L238.424,128.86 L226.298,116.99 C224.995,115.753 224.395,113.948 224.699,112.177 C225.002,110.406 226.169,108.903 227.809,108.17 L228.819,107.675 C229.456,107.362 230.192,107.314 230.865,107.54 L240.375,110.751 L247.163,106.645 L239.817,99.514 C238.474,98.277 237.85,96.445 238.158,94.645 C238.466,92.846 239.664,91.326 241.341,90.606 L241.449,90.562 L243.855,89.65 C244.462,89.424 245.13,89.424 245.737,89.65 L263.889,96.32 L281.245,85.962 C286.962,82.559 294.309,83.866 298.502,89.031 L298.543,89.081 L304.816,97.121 C305.29,97.73 305.48,98.513 305.337,99.272 Z M298.694,98.026 L294.319,92.416 C291.803,89.338 287.413,88.562 283.994,90.592 L265.552,101.604 C264.852,102.019 264.004,102.098 263.24,101.819 L244.808,95.041 L243.462,95.556 L243.532,95.624 L253.413,105.212 C254.011,105.793 254.306,106.618 254.212,107.447 C254.118,108.275 253.645,109.013 252.932,109.445 L242.092,116.004 C241.413,116.414 240.588,116.504 239.837,116.25 L230.188,112.996 L230.125,113.029 L230,113.087 C230.016,113.098 230.031,113.112 230.044,113.127 L242.159,124.993 C244.756,127.434 248.651,127.87 251.724,126.063 Z" />
        </g>
        <g id="Regular-S">
            <path d="M481.154,140.615 C481.154,141.329 480.87,142.014 480.365,142.519 C479.86,143.024 479.176,143.308 478.462,143.308 L430,143.308 C428.513,143.308 427.308,142.102 427.308,140.615 C427.308,139.128 428.513,137.923 430,137.923 L478.462,137.923 C479.176,137.923 479.86,138.207 480.365,138.712 C480.87,139.217 481.154,139.901 481.154,140.615 Z M505.337,99.272 C505.195,100.03 504.734,100.69 504.072,101.086 L454.463,130.701 C452.395,131.914 450.042,132.555 447.645,132.559 C444.23,132.555 440.946,131.246 438.464,128.9 L438.424,128.86 L426.298,116.99 C424.995,115.753 424.395,113.948 424.699,112.177 C425.002,110.406 426.169,108.903 427.809,108.17 L428.819,107.675 C429.456,107.362 430.192,107.314 430.865,107.54 L440.375,110.751 L447.163,106.645 L439.817,99.514 C438.474,98.277 437.85,96.445 438.158,94.645 C438.466,92.846 439.664,91.326 441.341,90.606 L441.449,90.562 L443.855,89.65 C444.462,89.424 445.13,89.424 445.737,89.65 L463.889,96.32 L481.245,85.962 C486.962,82.559 494.309,83.866 498.502,89.031 L498.543,89.081 L504.816,97.121 C505.29,97.73 505.48,98.513 505.337,99.272 Z M498.694,98.026 L494.319,92.416 C491.803,89.338 487.413,88.562 483.994,90.592 L465.552,101.604 C464.852,102.019 464.004,102.098 463.24,101.819 L444.808,95.041 L443.462,95.556 L443.532,95.624 L453.413,105.212 C454.011,105.793 454.306,106.618 454.212,107.447 C454.118,108.275 453.645,109.013 452.932,109.445 L442.092,116.004 C441.413,116.414 440.588,116.504 439.837,116.25 L430.188,112.996 L430.125,113.029 L430,113.087 C430.016,113.098 430.031,113.112 430.044,113.127 L442.159,124.993 C444.756,127.434 448.651,127.87 451.724,126.063 Z" />
        </g>
        <g id="Black-S">
            <path d="M681.154,140.615 C681.154,141.329 680.87,142.014 680.365,142.519 C679.86,143.024 679.176,143.308 678.462,143.308 L630,143.308 C628.513,143.308 627.308,142.102 627.308,140.615 C627.308,139.128 628.513,137.923 630,137.923 L678.462,137.923 C679.176,137.923 679.86,138.207 680.365,138.712 C680.87,139.217 681.154,139.901 681.154,140.615 Z M705.338,99.272 C705.195,100.03 704.734,100.69 704.072,101.086 L654.463,130.701 C652.395,131.914 650.042,132.555 647.645,132.559 C644.23,132.555 640.946,131.246 638.464,128.9 L638.424,128.86 L626.298,116.99 C624.995,115.753 624.395,113.948 624.699,112.177 C625.002,110.406 626.169,108.903 627.809,108.17 L628.819,107.675 C629.456,107.362 630.192,107.314 630.865,107.54 L640.375,110.751 L647.163,106.645 L639.817,99.514 C638.474,98.277 637.85,96.445 638.158,94.645 C638.466,92.846 639.664,91.326 641.341,90.606 L641.449,90.562 L643.855,89.65 C644.462,89.424 645.13,89.424 645.737,89.65 L663.889,96.32 L681.245,85.962 C686.962,82.559 694.309,83.866 698.502,89.031 L698.543,89.081 L704.816,97.121 C705.29,97.73 705.48,98.513 705.338,99.272 Z M698.694,98.026 L694.319,92.416 C691.803,89.338 687.413,88.562 683.994,90.592 L665.552,101.604 C664.853,102.019 664.004,102.098 663.24,101.819 L644.808,95.041 L643.462,95.556 L643.532,95.624 L653.413,105.212 C654.011,105.793 654.306,106.618 654.212,107.447 C654.118,108.275 653.645,109.013 652.932,109.445 L642.092,116.004 C641.413,116.414 640.588,116.504 639.837,116.25 L630.188,112.996 L630.125,113.029 L630,113.087 C630.016,113.098 630.031,113.112 630.044,113.127 L642.159,124.993 C644.756,127.434 648.651,127.87 651.724,126.063 Z" />
        </g>
    </g>
</svg>