<?xml version="1.0" encoding="UTF-8"?>
<svg height="600" width="800" xmlns="http://www.w3.org/2000/svg" xmlns:xlink="http://www.w3.org/1999/xlink">
    <g id="Notes" font-family="'LucidaGrande', 'Lucida Grande', sans-serif" font-size="13">
        <rect fill="white" height="600.0" width="800.0" x="0.0" y="0.0" />
        <g font-size="13">
            <text x="18.0" y="176.0">Small</text>
            <text x="18.0" y="376.0">Medium</text>
            <text x="18.0" y="576.0">Large</text>
        </g>
        <g font-size="9">
            <text x="250.0" y="30.0">Ultralight</text>
            <text x="450.0" y="30.0">Regular</text>
            <text x="650.0" y="30.0">Black</text>
            <text id="template-version" fill="#505050" text-anchor="end" x="785.0" y="575.0">Template v.3.0</text>
            <a href="https://github.com/swhitty/SwiftDraw">
                <text fill="#505050" text-anchor="end" x="785.0" y="590.0">https://github.com/swhitty/SwiftDraw</text>
            </a>
        </g>
    </g>
    <g id="Guides" stroke="rgb(39, 170, 225)" stroke-width="0.5">
        <path id="Capline-S" d="M18,76 l800,0" />
        <path id="H-reference" d="M85,145.755 L87.685,145.755 L113.369,79.287 L114.052,79.287 L114.052,76 L112.148,76 L85,145.755 Z M95.693,121.536 L130.996,121.536 L130.263,119.313 L96.474,119.313 L95.693,121.536 Z M139.15,145.755 L141.787,145.755 L114.638,76 L113.466,76 L113.466,79.287 L139.15,145.755 Z" stroke="none" />
        <path id="Baseline-S" d="M18,146 l800,0" />
        <path id="left-margin-Ultralight-S" d="M220,56 l0,110" />
        <path id="right-margin-Ultralight-S" d="M310,56 l0,110" />
        <path id="left-margin-Regular-S" d="M420,56 l0,110" />
        <path id="right-margin-Regular-S" d="M510,56 l0,110" />
        <path id="left-margin-Black-S" d="M620,56 l0,110" />
        <path id="right-margin-Black-S" d="M710,56 l0,110" />
        <path id="Capline-M" d="M18,276 l800,0" />
        <path id="Baseline-M" d="M18,346 l800,0" />
        <path id="Capline-L" d="M18,476 l800,0" />
        <path id="Baseline-L" d="M18,546 l800,0" />
    </g>
    <g id="Symbols">
        <g id="Ultralight-S">
            <path d="M270.385,73.308 L259.615,73.308 C247.725,73.321 238.09,82.956 238.077,94.846 L238.077,127.154 C238.09,139.044 247.725,148.679 259.615,148.692 L270.385,148.692 C282.275,148.679 291.91,139.044 291.923,127.154 L291.923,94.846 C291.91,82.956 282.275,73.321 270.385,73.308 Z M286.538,127.154 C286.529,136.071 279.302,143.298 270.385,143.308 L259.615,143.308 C250.698,143.298 243.471,136.072 243.462,127.154 L243.462,94.846 C243.471,85.929 250.698,78.702 259.615,78.692 L270.385,78.692 C279.302,78.702 286.529,85.928 286.538,94.846 Z M267.692,89.462 L267.692,105.615 C267.692,107.102 266.487,108.308 265,108.308 C263.513,108.308 262.308,107.102 262.308,105.615 L262.308,89.462 C262.308,87.975 263.513,86.769 265,86.769 C266.487,86.769 267.692,87.975 267.692,89.462 Z" />
        </g>
        <g id="Regular-S">
            <path d="M470.385,73.308 L459.615,73.308 C447.725,73.321 438.09,82.956 438.077,94.846 L438.077,127.154 C438.09,139.044 447.725,148.679 459.615,148.692 L470.385,148.692 C482.275,148.679 491.91,139.044 491.923,127.154 L491.923,94.846 C491.91,82.956 482.275,73.321 470.385,73.308 Z M486.538,127.154 C486.529,136.071 479.302,143.298 470.385,143.308 L459.615,143.308 C450.698,143.298 443.471,136.072 443.462,127.154 L443.462,94.846 C443.471,85.929 450.698,78.702 459.615,78.692 L470.385,78.692 C479.302,78.702 486.529,85.928 486.538,94.846 Z M467.692,89.462 L467.692,105.615 C467.692,107.102 466.487,108.308 465,108.308 C463.513,108.308 462.308,107.102 462.308,105.615 L462.308,89.462 C462.308,87.975 463.513,86.769 465,86.769 C466.487,86.769 467.692,87.975 467.692,89.462 Z" />
        </g>
        <g id="Black-S">
            <path d="M670.385,73.308 L659.615,73.308 C647.725,73.321 638.09,82.956 638.077,94.846 L638.077,127.154 C638.09,139.044 647.725,148.679 659.615,148.692 L670.385,148.692 C682.275,148.679 691.91,139.044 691.923,127.154 L691.923,94.846 C691.91,82.956 682.275,73.321 670.385,73.308 Z M686.538,127.154 C686.529,136.071 679.302,143.298 670.385,143.308 L659.615,143.308 C650.698,143.298 643.471,136.072 643.462,127.154 L643.462,94.846 C643.471,85.929 650.698,78.702 659.615,78.692 L670.385,78.692 C679.302,78.702 686.529,85.928 686.538,94.846 Z M667.692,89.462 L667.692,105.615 C667.692,107.102 666.487,108.308 665,108.308 C663.513,108.308 662.308,107.102 662.308,105.615 L662.308,89.462 C662.308,87.975 663.513,86.769 665,86.769 C666.487,86.769 667.692,87.975 667.692,89.462 Z" />
        </g>
    </g>
</svg>