<?xml version="1.0" encoding="UTF-8"?>
<svg height="600" width="800" xmlns="http://www.w3.org/2000/svg" xmlns:xlink="http://www.w3.org/1999/xlink">
    <g id="Notes" font-family="'LucidaGrande', 'Lucida Grande', sans-serif" font-size="13">
        <rect fill="white" height="600.0" width="800.0" x="0.0" y="0.0" />
        <g font-size="13">
            <text x="18.0" y="176.0">Small</text>
            <text x="18.0" y="376.0">Medium</text>
            <text x="18.0" y="576.0">Large</text>
        </g>
        <g font-size="9">
            <text x="250.0" y="30.0">Ultralight</text>
            <text x="450.0" y="30.0">Regular</text>
            <text x="650.0" y="30.0">Black</text>
            <text id="template-version" fill="#505050" text-anchor="end" x="785.0" y="575.0">Template v.3.0</text>
            <a href="https://github.com/swhitty/SwiftDraw">
                <text fill="#505050" text-anchor="end" x="785.0" y="590.0">https://github.com/swhitty/SwiftDraw</text>
            </a>
        </g>
    </g>
    <g id="Guides" stroke="rgb(39, 170, 225)" stroke-width="0.5">
        <path id="Capline-S" d="M18,76 l800,0" />
        <path id="H-reference" d="M85,145.755 L87.685,145.755 L113.369,79.287 L114.052,79.287 L114.052,76 L112.148,76 L85,145.755 Z M95.693,121.536 L130.996,121.536 L130.263,119.313 L96.474,119.313 L95.693,121.536 Z M139.15,145.755 L141.787,145.755 L114.638,76 L113.466,76 L113.466,79.287 L139.15,145.755 Z" stroke="none" />
        <path id="Baseline-S" d="M18,146 l800,0" />
        <path id="left-margin-Ultralight-S" d="M220,56 l0,110" />
        <path id="right-margin-Ultralight-S" d="M310,56 l0,110" />
        <path id="left-margin-Regular-S" d="M420,56 l0,110" />
        <path id="right-margin-Regular-S" d="M510,56 l0,110" />
        <path id="left-margin-Black-S" d="M620,56 l0,110" />
        <path id="right-margin-Black-S" d="M710,56 l0,110" />
        <path id="Capline-M" d="M18,276 l800,0" />
        <path id="Baseline-M" d="M18,346 l800,0" />
        <path id="Capline-L" d="M18,476 l800,0" />
        <path id="Baseline-L" d="M18,546 l800,0" />
    </g>
    <g id="Symbols">
        <g id="Ultralight-S">
            <path d="M296.416,102.96 C294.949,103.205 293.96,104.593 294.205,106.06 C294.478,107.692 294.616,109.345 294.615,111 C294.622,118.249 291.958,125.247 287.131,130.656 C284.129,126.305 279.907,122.939 274.996,120.981 C280.403,116.722 282.518,109.505 280.264,103.002 C278.01,96.498 271.884,92.137 265.001,92.137 C258.118,92.137 251.991,96.498 249.737,103.002 C247.484,109.505 249.598,116.722 255.005,120.981 C250.095,122.939 245.873,126.305 242.87,130.656 C235.135,121.94 233.231,109.497 238.006,98.866 C242.781,88.235 253.346,81.393 265,81.385 C266.655,81.384 268.308,81.522 269.94,81.795 C271.4,82.025 272.772,81.037 273.015,79.58 C273.259,78.123 272.283,76.742 270.829,76.485 C255.827,73.961 240.914,81.425 233.942,94.946 C226.971,108.468 229.54,124.946 240.297,135.703 C251.054,146.46 267.532,149.029 281.054,142.058 C294.575,135.086 302.039,120.173 299.515,105.171 C299.27,103.705 297.882,102.715 296.416,102.96 Z M254.231,108.308 C254.231,102.36 259.052,97.538 265,97.538 C270.948,97.538 275.769,102.36 275.769,108.308 C275.769,114.255 270.948,119.077 265,119.077 C262.144,119.077 259.405,117.942 257.385,115.923 C255.365,113.903 254.231,111.164 254.231,108.308 Z M246.854,134.389 C250.812,128.199 257.653,124.454 265,124.454 C272.347,124.454 279.188,128.199 283.146,134.389 C272.473,142.69 257.527,142.69 246.854,134.389 Z M301.905,83.289 L291.136,94.059 C290.631,94.564 289.945,94.848 289.231,94.848 C288.516,94.848 287.831,94.564 287.326,94.059 L281.941,88.674 C280.889,87.62 280.89,85.915 281.942,84.863 C282.995,83.812 284.701,83.813 285.752,84.865 L289.231,88.348 L298.095,79.48 C299.146,78.428 300.851,78.427 301.904,79.479 C302.956,80.53 302.957,82.236 301.906,83.288 Z" />
        </g>
        <g id="Regular-S">
            <path d="M496.416,102.96 C494.949,103.205 493.96,104.593 494.205,106.06 C494.478,107.692 494.615,109.345 494.615,111 C494.622,118.249 491.958,125.247 487.131,130.656 C484.129,126.305 479.907,122.939 474.996,120.981 C480.403,116.722 482.518,109.505 480.264,103.002 C478.01,96.498 471.884,92.137 465.001,92.137 C458.118,92.137 451.991,96.498 449.737,103.002 C447.484,109.505 449.598,116.722 455.005,120.981 C450.095,122.939 445.873,126.305 442.87,130.656 C435.135,121.94 433.231,109.497 438.006,98.866 C442.781,88.235 453.346,81.393 465,81.385 C466.655,81.384 468.308,81.522 469.94,81.795 C471.4,82.025 472.772,81.037 473.015,79.58 C473.259,78.123 472.283,76.742 470.829,76.485 C455.827,73.961 440.914,81.425 433.942,94.946 C426.971,108.468 429.54,124.946 440.297,135.703 C451.054,146.46 467.532,149.029 481.054,142.058 C494.575,135.086 502.039,120.173 499.515,105.171 C499.27,103.705 497.882,102.715 496.416,102.96 Z M454.231,108.308 C454.231,102.36 459.052,97.538 465,97.538 C470.948,97.538 475.769,102.36 475.769,108.308 C475.769,114.255 470.948,119.077 465,119.077 C462.144,119.077 459.405,117.942 457.385,115.923 C455.365,113.903 454.231,111.164 454.231,108.308 Z M446.854,134.389 C450.812,128.199 457.652,124.454 465,124.454 C472.347,124.454 479.188,128.199 483.146,134.389 C472.473,142.69 457.527,142.69 446.854,134.389 Z M501.905,83.289 L491.136,94.059 C490.631,94.564 489.945,94.848 489.231,94.848 C488.516,94.848 487.831,94.564 487.326,94.059 L481.941,88.674 C480.889,87.62 480.89,85.915 481.942,84.863 C482.995,83.812 484.701,83.813 485.752,84.865 L489.231,88.348 L498.095,79.48 C499.146,78.428 500.851,78.427 501.904,79.479 C502.956,80.53 502.957,82.236 501.906,83.288 Z" />
        </g>
        <g id="Black-S">
            <path d="M696.416,102.96 C694.949,103.205 693.96,104.593 694.205,106.06 C694.478,107.692 694.616,109.345 694.615,111 C694.622,118.249 691.958,125.247 687.131,130.656 C684.129,126.305 679.907,122.939 674.996,120.981 C680.403,116.722 682.518,109.505 680.264,103.002 C678.01,96.498 671.884,92.137 665.001,92.137 C658.118,92.137 651.991,96.498 649.737,103.002 C647.484,109.505 649.598,116.722 655.005,120.981 C650.095,122.939 645.873,126.305 642.87,130.656 C635.135,121.94 633.231,109.497 638.006,98.866 C642.781,88.235 653.346,81.393 665,81.385 C666.655,81.384 668.308,81.522 669.94,81.795 C671.4,82.025 672.772,81.037 673.015,79.58 C673.259,78.123 672.283,76.742 670.829,76.485 C655.827,73.961 640.914,81.425 633.942,94.946 C626.971,108.468 629.54,124.946 640.297,135.703 C651.055,146.46 667.532,149.029 681.054,142.058 C694.575,135.086 702.039,120.173 699.515,105.171 C699.27,103.705 697.882,102.715 696.416,102.96 Z M654.231,108.308 C654.231,102.36 659.052,97.538 665,97.538 C670.948,97.538 675.769,102.36 675.769,108.308 C675.769,114.255 670.948,119.077 665,119.077 C662.144,119.077 659.405,117.942 657.385,115.923 C655.365,113.903 654.231,111.164 654.231,108.308 Z M646.854,134.389 C650.812,128.199 657.653,124.454 665,124.454 C672.347,124.454 679.188,128.199 683.146,134.389 C672.473,142.69 657.527,142.69 646.854,134.389 Z M701.905,83.289 L691.136,94.059 C690.631,94.564 689.945,94.848 689.231,94.848 C688.516,94.848 687.831,94.564 687.326,94.059 L681.941,88.674 C680.889,87.62 680.89,85.915 681.942,84.863 C682.995,83.812 684.701,83.813 685.752,84.865 L689.231,88.348 L698.095,79.48 C699.146,78.428 700.851,78.427 701.904,79.479 C702.956,80.53 702.957,82.236 701.906,83.288 Z" />
        </g>
    </g>
</svg>