<?xml version="1.0" encoding="UTF-8"?>
<svg height="600" width="800" xmlns="http://www.w3.org/2000/svg" xmlns:xlink="http://www.w3.org/1999/xlink">
    <g id="Notes" font-family="'LucidaGrande', 'Lucida Grande', sans-serif" font-size="13">
        <rect fill="white" height="600.0" width="800.0" x="0.0" y="0.0" />
        <g font-size="13">
            <text x="18.0" y="176.0">Small</text>
            <text x="18.0" y="376.0">Medium</text>
            <text x="18.0" y="576.0">Large</text>
        </g>
        <g font-size="9">
            <text x="250.0" y="30.0">Ultralight</text>
            <text x="450.0" y="30.0">Regular</text>
            <text x="650.0" y="30.0">Black</text>
            <text id="template-version" fill="#505050" text-anchor="end" x="785.0" y="575.0">Template v.3.0</text>
            <a href="https://github.com/swhitty/SwiftDraw">
                <text fill="#505050" text-anchor="end" x="785.0" y="590.0">https://github.com/swhitty/SwiftDraw</text>
            </a>
        </g>
    </g>
    <g id="Guides" stroke="rgb(39, 170, 225)" stroke-width="0.5">
        <path id="Capline-S" d="M18,76 l800,0" />
        <path id="H-reference" d="M85,145.755 L87.685,145.755 L113.369,79.287 L114.052,79.287 L114.052,76 L112.148,76 L85,145.755 Z M95.693,121.536 L130.996,121.536 L130.263,119.313 L96.474,119.313 L95.693,121.536 Z M139.15,145.755 L141.787,145.755 L114.638,76 L113.466,76 L113.466,79.287 L139.15,145.755 Z" stroke="none" />
        <path id="Baseline-S" d="M18,146 l800,0" />
        <path id="left-margin-Ultralight-S" d="M220,56 l0,110" />
        <path id="right-margin-Ultralight-S" d="M310,56 l0,110" />
        <path id="left-margin-Regular-S" d="M420,56 l0,110" />
        <path id="right-margin-Regular-S" d="M510,56 l0,110" />
        <path id="left-margin-Black-S" d="M620,56 l0,110" />
        <path id="right-margin-Black-S" d="M710,56 l0,110" />
        <path id="Capline-M" d="M18,276 l800,0" />
        <path id="Baseline-M" d="M18,346 l800,0" />
        <path id="Capline-L" d="M18,476 l800,0" />
        <path id="Baseline-L" d="M18,546 l800,0" />
    </g>
    <g id="Symbols">
        <g id="Ultralight-S">
            <path d="M239.84,119.242 L284.136,102.923 L239.84,86.604 C238.9,86.3 238.202,85.506 238.022,84.535 C237.841,83.564 238.207,82.572 238.975,81.95 C239.743,81.328 240.789,81.177 241.701,81.556 L292.855,100.402 C293.911,100.794 294.611,101.801 294.611,102.926 C294.611,104.052 293.911,105.059 292.855,105.45 L241.701,124.297 C241.403,124.405 241.087,124.461 240.769,124.462 C239.464,124.462 238.346,123.526 238.117,122.241 C237.889,120.956 238.615,119.692 239.84,119.242 Z M291.923,132.538 L240.769,132.538 C239.282,132.538 238.077,133.744 238.077,135.231 C238.077,136.718 239.282,137.923 240.769,137.923 L291.923,137.923 C293.41,137.923 294.615,136.718 294.615,135.231 C294.615,133.744 293.41,132.538 291.923,132.538 Z" />
        </g>
        <g id="Regular-S">
            <path d="M439.84,119.242 L484.136,102.923 L439.84,86.604 C438.9,86.3 438.202,85.506 438.022,84.535 C437.841,83.564 438.207,82.572 438.975,81.95 C439.743,81.328 440.789,81.177 441.701,81.556 L492.855,100.402 C493.91,100.794 494.611,101.801 494.611,102.926 C494.611,104.052 493.911,105.059 492.855,105.45 L441.701,124.297 C441.403,124.405 441.087,124.461 440.769,124.462 C439.464,124.462 438.346,123.526 438.117,122.241 C437.889,120.956 438.615,119.692 439.84,119.242 Z M491.923,132.538 L440.769,132.538 C439.282,132.538 438.077,133.744 438.077,135.231 C438.077,136.718 439.282,137.923 440.769,137.923 L491.923,137.923 C493.41,137.923 494.615,136.718 494.615,135.231 C494.615,133.744 493.41,132.538 491.923,132.538 Z" />
        </g>
        <g id="Black-S">
            <path d="M639.84,119.242 L684.136,102.923 L639.84,86.604 C638.9,86.3 638.202,85.506 638.022,84.535 C637.841,83.564 638.207,82.572 638.975,81.95 C639.743,81.328 640.789,81.177 641.701,81.556 L692.855,100.402 C693.911,100.794 694.611,101.801 694.611,102.926 C694.611,104.052 693.911,105.059 692.855,105.45 L641.701,124.297 C641.403,124.405 641.087,124.461 640.769,124.462 C639.464,124.462 638.346,123.526 638.117,122.241 C637.889,120.956 638.615,119.692 639.84,119.242 Z M691.923,132.538 L640.769,132.538 C639.282,132.538 638.077,133.744 638.077,135.231 C638.077,136.718 639.282,137.923 640.769,137.923 L691.923,137.923 C693.41,137.923 694.615,136.718 694.615,135.231 C694.615,133.744 693.41,132.538 691.923,132.538 Z" />
        </g>
    </g>
</svg>