<?xml version="1.0" encoding="UTF-8"?>
<svg height="600" width="800" xmlns="http://www.w3.org/2000/svg" xmlns:xlink="http://www.w3.org/1999/xlink">
    <g id="Notes" font-family="'LucidaGrande', 'Lucida Grande', sans-serif" font-size="13">
        <rect fill="white" height="600.0" width="800.0" x="0.0" y="0.0" />
        <g font-size="13">
            <text x="18.0" y="176.0">Small</text>
            <text x="18.0" y="376.0">Medium</text>
            <text x="18.0" y="576.0">Large</text>
        </g>
        <g font-size="9">
            <text x="250.0" y="30.0">Ultralight</text>
            <text x="450.0" y="30.0">Regular</text>
            <text x="650.0" y="30.0">Black</text>
            <text id="template-version" fill="#505050" text-anchor="end" x="785.0" y="575.0">Template v.3.0</text>
            <a href="https://github.com/swhitty/SwiftDraw">
                <text fill="#505050" text-anchor="end" x="785.0" y="590.0">https://github.com/swhitty/SwiftDraw</text>
            </a>
        </g>
    </g>
    <g id="Guides" stroke="rgb(39, 170, 225)" stroke-width="0.5">
        <path id="Capline-S" d="M18,76 l800,0" />
        <path id="H-reference" d="M85,145.755 L87.685,145.755 L113.369,79.287 L114.052,79.287 L114.052,76 L112.148,76 L85,145.755 Z M95.693,121.536 L130.996,121.536 L130.263,119.313 L96.474,119.313 L95.693,121.536 Z M139.15,145.755 L141.787,145.755 L114.638,76 L113.466,76 L113.466,79.287 L139.15,145.755 Z" stroke="none" />
        <path id="Baseline-S" d="M18,146 l800,0" />
        <path id="left-margin-Ultralight-S" d="M220,56 l0,110" />
        <path id="right-margin-Ultralight-S" d="M310,56 l0,110" />
        <path id="left-margin-Regular-S" d="M420,56 l0,110" />
        <path id="right-margin-Regular-S" d="M510,56 l0,110" />
        <path id="left-margin-Black-S" d="M620,56 l0,110" />
        <path id="right-margin-Black-S" d="M710,56 l0,110" />
        <path id="Capline-M" d="M18,276 l800,0" />
        <path id="Baseline-M" d="M18,346 l800,0" />
        <path id="Capline-L" d="M18,476 l800,0" />
        <path id="Baseline-L" d="M18,546 l800,0" />
    </g>
    <g id="Symbols">
        <g id="Ultralight-S">
            <path d="M302.692,113.692 L302.692,135.231 C302.692,136.659 302.125,138.028 301.115,139.038 C300.105,140.048 298.736,140.615 297.308,140.615 L232.692,140.615 C231.264,140.615 229.895,140.048 228.885,139.038 C227.875,138.028 227.308,136.659 227.308,135.231 L227.308,113.692 C227.308,112.264 227.875,110.895 228.885,109.885 C229.895,108.875 231.264,108.308 232.692,108.308 L248.846,108.308 C250.333,108.308 251.538,109.513 251.538,111 C251.538,112.487 250.333,113.692 248.846,113.692 L232.692,113.692 L232.692,135.231 L297.308,135.231 L297.308,113.692 L281.154,113.692 C279.667,113.692 278.462,112.487 278.462,111 C278.462,109.513 279.667,108.308 281.154,108.308 L297.308,108.308 C298.736,108.308 300.105,108.875 301.115,109.885 C302.125,110.895 302.692,112.264 302.692,113.692 Z M250.751,94.059 L262.308,82.499 L262.308,111 C262.308,112.487 263.513,113.692 265,113.692 C266.487,113.692 267.692,112.487 267.692,111 L267.692,82.499 L279.249,94.059 C280.299,95.11 282.005,95.111 283.058,94.06 C284.11,93.008 284.111,91.303 283.06,90.25 L266.906,74.096 C266.401,73.591 265.716,73.307 265.001,73.307 C264.286,73.307 263.601,73.591 263.096,74.096 L246.942,90.25 C245.89,91.303 245.891,93.008 246.943,94.059 C247.995,95.111 249.7,95.11 250.751,94.058 Z M289.231,124.462 C289.231,122.231 287.423,120.423 285.192,120.423 C282.962,120.423 281.154,122.231 281.154,124.462 C281.154,126.692 282.962,128.5 285.192,128.5 C286.263,128.5 287.291,128.075 288.048,127.317 C288.805,126.56 289.231,125.533 289.231,124.462 Z" />
        </g>
        <g id="Regular-S">
            <path d="M502.692,113.692 L502.692,135.231 C502.692,136.659 502.125,138.028 501.115,139.038 C500.105,140.048 498.736,140.615 497.308,140.615 L432.692,140.615 C431.264,140.615 429.895,140.048 428.885,139.038 C427.875,138.028 427.308,136.659 427.308,135.231 L427.308,113.692 C427.308,112.264 427.875,110.895 428.885,109.885 C429.895,108.875 431.264,108.308 432.692,108.308 L448.846,108.308 C450.333,108.308 451.538,109.513 451.538,111 C451.538,112.487 450.333,113.692 448.846,113.692 L432.692,113.692 L432.692,135.231 L497.308,135.231 L497.308,113.692 L481.154,113.692 C479.667,113.692 478.462,112.487 478.462,111 C478.462,109.513 479.667,108.308 481.154,108.308 L497.308,108.308 C498.736,108.308 500.105,108.875 501.115,109.885 C502.125,110.895 502.692,112.264 502.692,113.692 Z M450.751,94.059 L462.308,82.499 L462.308,111 C462.308,112.487 463.513,113.692 465,113.692 C466.487,113.692 467.692,112.487 467.692,111 L467.692,82.499 L479.249,94.059 C480.299,95.11 482.005,95.111 483.058,94.06 C484.11,93.008 484.111,91.303 483.06,90.25 L466.906,74.096 C466.401,73.591 465.716,73.307 465.001,73.307 C464.286,73.307 463.601,73.591 463.096,74.096 L446.942,90.25 C445.89,91.303 445.891,93.008 446.943,94.059 C447.995,95.111 449.7,95.11 450.751,94.058 Z M489.231,124.462 C489.231,122.231 487.423,120.423 485.192,120.423 C482.962,120.423 481.154,122.231 481.154,124.462 C481.154,126.692 482.962,128.5 485.192,128.5 C486.263,128.5 487.291,128.075 488.048,127.317 C488.805,126.56 489.231,125.533 489.231,124.462 Z" />
        </g>
        <g id="Black-S">
            <path d="M702.692,113.692 L702.692,135.231 C702.692,136.659 702.125,138.028 701.115,139.038 C700.105,140.048 698.736,140.615 697.308,140.615 L632.692,140.615 C631.264,140.615 629.895,140.048 628.885,139.038 C627.875,138.028 627.308,136.659 627.308,135.231 L627.308,113.692 C627.308,112.264 627.875,110.895 628.885,109.885 C629.895,108.875 631.264,108.308 632.692,108.308 L648.846,108.308 C650.333,108.308 651.538,109.513 651.538,111 C651.538,112.487 650.333,113.692 648.846,113.692 L632.692,113.692 L632.692,135.231 L697.308,135.231 L697.308,113.692 L681.154,113.692 C679.667,113.692 678.462,112.487 678.462,111 C678.462,109.513 679.667,108.308 681.154,108.308 L697.308,108.308 C698.736,108.308 700.105,108.875 701.115,109.885 C702.125,110.895 702.692,112.264 702.692,113.692 Z M650.751,94.059 L662.308,82.499 L662.308,111 C662.308,112.487 663.513,113.692 665,113.692 C666.487,113.692 667.692,112.487 667.692,111 L667.692,82.499 L679.249,94.059 C680.299,95.11 682.005,95.111 683.058,94.06 C684.11,93.008 684.111,91.303 683.06,90.25 L666.906,74.096 C666.401,73.591 665.716,73.307 665.001,73.307 C664.286,73.307 663.601,73.591 663.096,74.096 L646.942,90.25 C645.891,91.303 645.891,93.008 646.943,94.059 C647.995,95.111 649.7,95.11 650.752,94.058 Z M689.231,124.462 C689.231,122.231 687.423,120.423 685.192,120.423 C682.962,120.423 681.154,122.231 681.154,124.462 C681.154,126.692 682.962,128.5 685.192,128.5 C686.263,128.5 687.291,128.075 688.048,127.317 C688.805,126.56 689.231,125.533 689.231,124.462 Z" />
        </g>
    </g>
</svg>