<?xml version="1.0" encoding="UTF-8"?>
<svg height="600" width="800" xmlns="http://www.w3.org/2000/svg" xmlns:xlink="http://www.w3.org/1999/xlink">
    <g id="Notes" font-family="'LucidaGrande', 'Lucida Grande', sans-serif" font-size="13">
        <rect fill="white" height="600.0" width="800.0" x="0.0" y="0.0" />
        <g font-size="13">
            <text x="18.0" y="176.0">Small</text>
            <text x="18.0" y="376.0">Medium</text>
            <text x="18.0" y="576.0">Large</text>
        </g>
        <g font-size="9">
            <text x="250.0" y="30.0">Ultralight</text>
            <text x="450.0" y="30.0">Regular</text>
            <text x="650.0" y="30.0">Black</text>
            <text id="template-version" fill="#505050" text-anchor="end" x="785.0" y="575.0">Template v.3.0</text>
            <a href="https://github.com/swhitty/SwiftDraw">
                <text fill="#505050" text-anchor="end" x="785.0" y="590.0">https://github.com/swhitty/SwiftDraw</text>
            </a>
        </g>
    </g>
    <g id="Guides" stroke="rgb(39, 170, 225)" stroke-width="0.5">
        <path id="Capline-S" d="M18,76 l800,0" />
        <path id="H-reference" d="M85,145.755 L87.685,145.755 L113.369,79.287 L114.052,79.287 L114.052,76 L112.148,76 L85,145.755 Z M95.693,121.536 L130.996,121.536 L130.263,119.313 L96.474,119.313 L95.693,121.536 Z M139.15,145.755 L141.787,145.755 L114.638,76 L113.466,76 L113.466,79.287 L139.15,145.755 Z" stroke="none" />
        <path id="Baseline-S" d="M18,146 l800,0" />
        <path id="left-margin-Ultralight-S" d="M220,56 l0,110" />
        <path id="right-margin-Ultralight-S" d="M310,56 l0,110" />
        <path id="left-margin-Regular-S" d="M420,56 l0,110" />
        <path id="right-margin-Regular-S" d="M510,56 l0,110" />
        <path id="left-margin-Black-S" d="M620,56 l0,110" />
        <path id="right-margin-Black-S" d="M710,56 l0,110" />
        <path id="Capline-M" d="M18,276 l800,0" />
        <path id="Baseline-M" d="M18,346 l800,0" />
        <path id="Capline-L" d="M18,476 l800,0" />
        <path id="Baseline-L" d="M18,546 l800,0" />
    </g>
    <g id="Symbols">
        <g id="Ultralight-S">
            <path d="M291.923,78.692 L238.077,78.692 C236.649,78.692 235.279,79.26 234.269,80.269 C233.26,81.279 232.692,82.649 232.692,84.077 L232.692,137.923 C232.692,139.351 233.26,140.721 234.269,141.731 C235.279,142.74 236.649,143.308 238.077,143.308 L291.923,143.308 C293.351,143.308 294.721,142.74 295.731,141.731 C296.74,140.721 297.308,139.351 297.308,137.923 L297.308,84.077 C297.308,82.649 296.74,81.279 295.731,80.269 C294.721,79.26 293.351,78.692 291.923,78.692 Z M291.923,137.923 L238.077,137.923 L238.077,84.077 L291.923,84.077 L291.923,137.923 Z M246.154,93.5 C246.154,91.27 247.962,89.462 250.192,89.462 C252.423,89.462 254.231,91.27 254.231,93.5 C254.231,95.73 252.423,97.538 250.192,97.538 C249.121,97.538 248.094,97.113 247.337,96.356 C246.579,95.598 246.154,94.571 246.154,93.5 Z M260.962,93.5 C260.962,91.27 262.77,89.462 265,89.462 C267.23,89.462 269.038,91.27 269.038,93.5 C269.038,95.73 267.23,97.538 265,97.538 C263.929,97.538 262.902,97.113 262.144,96.356 C261.387,95.598 260.962,94.571 260.962,93.5 Z M275.769,93.5 C275.769,91.27 277.577,89.462 279.808,89.462 C282.038,89.462 283.846,91.27 283.846,93.5 C283.846,95.73 282.038,97.538 279.808,97.538 C278.737,97.538 277.709,97.113 276.952,96.356 C276.195,95.598 275.769,94.571 275.769,93.5 Z M283.846,102.923 L246.154,102.923 C245.44,102.923 244.755,103.207 244.25,103.712 C243.745,104.217 243.462,104.901 243.462,105.615 L243.462,129.846 C243.462,130.56 243.745,131.245 244.25,131.75 C244.755,132.255 245.44,132.538 246.154,132.538 L283.846,132.538 C284.56,132.538 285.245,132.255 285.75,131.75 C286.255,131.245 286.538,130.56 286.538,129.846 L286.538,105.615 C286.538,104.901 286.255,104.217 285.75,103.712 C285.245,103.207 284.56,102.923 283.846,102.923 Z M281.154,127.154 L248.846,127.154 L248.846,108.308 L281.154,108.308 Z" />
        </g>
        <g id="Regular-S">
            <path d="M491.923,78.692 L438.077,78.692 C436.649,78.692 435.279,79.26 434.269,80.269 C433.26,81.279 432.692,82.649 432.692,84.077 L432.692,137.923 C432.692,139.351 433.26,140.721 434.269,141.731 C435.279,142.74 436.649,143.308 438.077,143.308 L491.923,143.308 C493.351,143.308 494.721,142.74 495.731,141.731 C496.74,140.721 497.308,139.351 497.308,137.923 L497.308,84.077 C497.308,82.649 496.74,81.279 495.731,80.269 C494.721,79.26 493.351,78.692 491.923,78.692 Z M491.923,137.923 L438.077,137.923 L438.077,84.077 L491.923,84.077 L491.923,137.923 Z M446.154,93.5 C446.154,91.27 447.962,89.462 450.192,89.462 C452.423,89.462 454.231,91.27 454.231,93.5 C454.231,95.73 452.423,97.538 450.192,97.538 C449.121,97.538 448.094,97.113 447.337,96.356 C446.579,95.598 446.154,94.571 446.154,93.5 Z M460.962,93.5 C460.962,91.27 462.77,89.462 465,89.462 C467.23,89.462 469.038,91.27 469.038,93.5 C469.038,95.73 467.23,97.538 465,97.538 C463.929,97.538 462.902,97.113 462.144,96.356 C461.387,95.598 460.962,94.571 460.962,93.5 Z M475.769,93.5 C475.769,91.27 477.577,89.462 479.808,89.462 C482.038,89.462 483.846,91.27 483.846,93.5 C483.846,95.73 482.038,97.538 479.808,97.538 C478.737,97.538 477.709,97.113 476.952,96.356 C476.195,95.598 475.769,94.571 475.769,93.5 Z M483.846,102.923 L446.154,102.923 C445.44,102.923 444.755,103.207 444.25,103.712 C443.745,104.217 443.462,104.901 443.462,105.615 L443.462,129.846 C443.462,130.56 443.745,131.245 444.25,131.75 C444.755,132.255 445.44,132.538 446.154,132.538 L483.846,132.538 C484.56,132.538 485.245,132.255 485.75,131.75 C486.255,131.245 486.538,130.56 486.538,129.846 L486.538,105.615 C486.538,104.901 486.255,104.217 485.75,103.712 C485.245,103.207 484.56,102.923 483.846,102.923 Z M481.154,127.154 L448.846,127.154 L448.846,108.308 L481.154,108.308 Z" />
        </g>
        <g id="Black-S">
            <path d="M691.923,78.692 L638.077,78.692 C636.649,78.692 635.279,79.26 634.269,80.269 C633.26,81.279 632.692,82.649 632.692,84.077 L632.692,137.923 C632.692,139.351 633.26,140.721 634.269,141.731 C635.279,142.74 636.649,143.308 638.077,143.308 L691.923,143.308 C693.351,143.308 694.721,142.74 695.731,141.731 C696.74,140.721 697.308,139.351 697.308,137.923 L697.308,84.077 C697.308,82.649 696.74,81.279 695.731,80.269 C694.721,79.26 693.351,78.692 691.923,78.692 Z M691.923,137.923 L638.077,137.923 L638.077,84.077 L691.923,84.077 L691.923,137.923 Z M646.154,93.5 C646.154,91.27 647.962,89.462 650.192,89.462 C652.423,89.462 654.231,91.27 654.231,93.5 C654.231,95.73 652.423,97.538 650.192,97.538 C649.121,97.538 648.094,97.113 647.337,96.356 C646.579,95.598 646.154,94.571 646.154,93.5 Z M660.962,93.5 C660.962,91.27 662.77,89.462 665,89.462 C667.23,89.462 669.038,91.27 669.038,93.5 C669.038,95.73 667.23,97.538 665,97.538 C663.929,97.538 662.902,97.113 662.144,96.356 C661.387,95.598 660.962,94.571 660.962,93.5 Z M675.769,93.5 C675.769,91.27 677.577,89.462 679.808,89.462 C682.038,89.462 683.846,91.27 683.846,93.5 C683.846,95.73 682.038,97.538 679.808,97.538 C678.737,97.538 677.709,97.113 676.952,96.356 C676.195,95.598 675.769,94.571 675.769,93.5 Z M683.846,102.923 L646.154,102.923 C645.44,102.923 644.755,103.207 644.25,103.712 C643.745,104.217 643.462,104.901 643.462,105.615 L643.462,129.846 C643.462,130.56 643.745,131.245 644.25,131.75 C644.755,132.255 645.44,132.538 646.154,132.538 L683.846,132.538 C684.56,132.538 685.245,132.255 685.75,131.75 C686.255,131.245 686.538,130.56 686.538,129.846 L686.538,105.615 C686.538,104.901 686.255,104.217 685.75,103.712 C685.245,103.207 684.56,102.923 683.846,102.923 Z M681.154,127.154 L648.846,127.154 L648.846,108.308 L681.154,108.308 Z" />
        </g>
    </g>
</svg>