<?xml version="1.0" encoding="UTF-8"?>
<svg height="600" width="800" xmlns="http://www.w3.org/2000/svg" xmlns:xlink="http://www.w3.org/1999/xlink">
    <g id="Notes" font-family="'LucidaGrande', 'Lucida Grande', sans-serif" font-size="13">
        <rect fill="white" height="600.0" width="800.0" x="0.0" y="0.0" />
        <g font-size="13">
            <text x="18.0" y="176.0">Small</text>
            <text x="18.0" y="376.0">Medium</text>
            <text x="18.0" y="576.0">Large</text>
        </g>
        <g font-size="9">
            <text x="250.0" y="30.0">Ultralight</text>
            <text x="450.0" y="30.0">Regular</text>
            <text x="650.0" y="30.0">Black</text>
            <text id="template-version" fill="#505050" text-anchor="end" x="785.0" y="575.0">Template v.3.0</text>
            <a href="https://github.com/swhitty/SwiftDraw">
                <text fill="#505050" text-anchor="end" x="785.0" y="590.0">https://github.com/swhitty/SwiftDraw</text>
            </a>
        </g>
    </g>
    <g id="Guides" stroke="rgb(39, 170, 225)" stroke-width="0.5">
        <path id="Capline-S" d="M18,76 l800,0" />
        <path id="H-reference" d="M85,145.755 L87.685,145.755 L113.369,79.287 L114.052,79.287 L114.052,76 L112.148,76 L85,145.755 Z M95.693,121.536 L130.996,121.536 L130.263,119.313 L96.474,119.313 L95.693,121.536 Z M139.15,145.755 L141.787,145.755 L114.638,76 L113.466,76 L113.466,79.287 L139.15,145.755 Z" stroke="none" />
        <path id="Baseline-S" d="M18,146 l800,0" />
        <path id="left-margin-Ultralight-S" d="M220,56 l0,110" />
        <path id="right-margin-Ultralight-S" d="M310,56 l0,110" />
        <path id="left-margin-Regular-S" d="M420,56 l0,110" />
        <path id="right-margin-Regular-S" d="M510,56 l0,110" />
        <path id="left-margin-Black-S" d="M620,56 l0,110" />
        <path id="right-margin-Black-S" d="M710,56 l0,110" />
        <path id="Capline-M" d="M18,276 l800,0" />
        <path id="Baseline-M" d="M18,346 l800,0" />
        <path id="Capline-L" d="M18,476 l800,0" />
        <path id="Baseline-L" d="M18,546 l800,0" />
    </g>
    <g id="Symbols">
        <g id="Ultralight-S">
            <path d="M294.615,111 L294.615,137.923 C294.615,139.351 294.048,140.721 293.038,141.731 C292.028,142.74 290.659,143.308 289.231,143.308 L238.077,143.308 C236.649,143.308 235.279,142.74 234.269,141.731 C233.26,140.721 232.692,139.351 232.692,137.923 L232.692,86.769 C232.692,85.341 233.26,83.972 234.269,82.962 C235.279,81.952 236.649,81.385 238.077,81.385 L265,81.385 C266.487,81.385 267.692,82.59 267.692,84.077 C267.692,85.564 266.487,86.769 265,86.769 L238.077,86.769 L238.077,137.923 L289.231,137.923 L289.231,111 C289.231,109.513 290.436,108.308 291.923,108.308 C293.41,108.308 294.615,109.513 294.615,111 Z M300,88.115 C300,94.807 294.576,100.231 287.885,100.231 C281.193,100.231 275.769,94.807 275.769,88.115 C275.769,81.424 281.193,76 287.885,76 C291.098,76 294.179,77.276 296.451,79.549 C298.724,81.821 300,84.902 300,88.115 Z M294.615,88.115 C294.615,84.398 291.602,81.385 287.885,81.385 C284.167,81.385 281.154,84.398 281.154,88.115 C281.154,91.833 284.167,94.846 287.885,94.846 C289.67,94.846 291.382,94.137 292.644,92.875 C293.906,91.612 294.615,89.9 294.615,88.115 Z" />
        </g>
        <g id="Regular-S">
            <path d="M494.615,111 L494.615,137.923 C494.615,139.351 494.048,140.721 493.038,141.731 C492.028,142.74 490.659,143.308 489.231,143.308 L438.077,143.308 C436.649,143.308 435.279,142.74 434.269,141.731 C433.26,140.721 432.692,139.351 432.692,137.923 L432.692,86.769 C432.692,85.341 433.26,83.972 434.269,82.962 C435.279,81.952 436.649,81.385 438.077,81.385 L465,81.385 C466.487,81.385 467.692,82.59 467.692,84.077 C467.692,85.564 466.487,86.769 465,86.769 L438.077,86.769 L438.077,137.923 L489.231,137.923 L489.231,111 C489.231,109.513 490.436,108.308 491.923,108.308 C493.41,108.308 494.615,109.513 494.615,111 Z M500,88.115 C500,94.807 494.576,100.231 487.885,100.231 C481.193,100.231 475.769,94.807 475.769,88.115 C475.769,81.424 481.193,76 487.885,76 C491.098,76 494.179,77.276 496.451,79.549 C498.724,81.821 500,84.902 500,88.115 Z M494.615,88.115 C494.615,84.398 491.602,81.385 487.885,81.385 C484.167,81.385 481.154,84.398 481.154,88.115 C481.154,91.833 484.167,94.846 487.885,94.846 C489.67,94.846 491.382,94.137 492.644,92.875 C493.906,91.612 494.615,89.9 494.615,88.115 Z" />
        </g>
        <g id="Black-S">
            <path d="M694.615,111 L694.615,137.923 C694.615,139.351 694.048,140.721 693.038,141.731 C692.028,142.74 690.659,143.308 689.231,143.308 L638.077,143.308 C636.649,143.308 635.279,142.74 634.269,141.731 C633.26,140.721 632.692,139.351 632.692,137.923 L632.692,86.769 C632.692,85.341 633.26,83.972 634.269,82.962 C635.279,81.952 636.649,81.385 638.077,81.385 L665,81.385 C666.487,81.385 667.692,82.59 667.692,84.077 C667.692,85.564 666.487,86.769 665,86.769 L638.077,86.769 L638.077,137.923 L689.231,137.923 L689.231,111 C689.231,109.513 690.436,108.308 691.923,108.308 C693.41,108.308 694.615,109.513 694.615,111 Z M700,88.115 C700,94.807 694.576,100.231 687.885,100.231 C681.193,100.231 675.769,94.807 675.769,88.115 C675.769,81.424 681.193,76 687.885,76 C691.098,76 694.179,77.276 696.452,79.549 C698.724,81.821 700,84.902 700,88.115 Z M694.615,88.115 C694.615,84.398 691.602,81.385 687.885,81.385 C684.167,81.385 681.154,84.398 681.154,88.115 C681.154,91.833 684.167,94.846 687.885,94.846 C689.67,94.846 691.382,94.137 692.644,92.875 C693.906,91.612 694.615,89.9 694.615,88.115 Z" />
        </g>
    </g>
</svg>