<?xml version="1.0" encoding="UTF-8"?>
<svg height="600" width="800" xmlns="http://www.w3.org/2000/svg" xmlns:xlink="http://www.w3.org/1999/xlink">
    <g id="Notes" font-family="'LucidaGrande', 'Lucida Grande', sans-serif" font-size="13">
        <rect fill="white" height="600.0" width="800.0" x="0.0" y="0.0" />
        <g font-size="13">
            <text x="18.0" y="176.0">Small</text>
            <text x="18.0" y="376.0">Medium</text>
            <text x="18.0" y="576.0">Large</text>
        </g>
        <g font-size="9">
            <text x="250.0" y="30.0">Ultralight</text>
            <text x="450.0" y="30.0">Regular</text>
            <text x="650.0" y="30.0">Black</text>
            <text id="template-version" fill="#505050" text-anchor="end" x="785.0" y="575.0">Template v.3.0</text>
            <a href="https://github.com/swhitty/SwiftDraw">
                <text fill="#505050" text-anchor="end" x="785.0" y="590.0">https://github.com/swhitty/SwiftDraw</text>
            </a>
        </g>
    </g>
    <g id="Guides" stroke="rgb(39, 170, 225)" stroke-width="0.5">
        <path id="Capline-S" d="M18,76 l800,0" />
        <path id="H-reference" d="M85,145.755 L87.685,145.755 L113.369,79.287 L114.052,79.287 L114.052,76 L112.148,76 L85,145.755 Z M95.693,121.536 L130.996,121.536 L130.263,119.313 L96.474,119.313 L95.693,121.536 Z M139.15,145.755 L141.787,145.755 L114.638,76 L113.466,76 L113.466,79.287 L139.15,145.755 Z" stroke="none" />
        <path id="Baseline-S" d="M18,146 l800,0" />
        <path id="left-margin-Ultralight-S" d="M220,56 l0,110" />
        <path id="right-margin-Ultralight-S" d="M310,56 l0,110" />
        <path id="left-margin-Regular-S" d="M420,56 l0,110" />
        <path id="right-margin-Regular-S" d="M510,56 l0,110" />
        <path id="left-margin-Black-S" d="M620,56 l0,110" />
        <path id="right-margin-Black-S" d="M710,56 l0,110" />
        <path id="Capline-M" d="M18,276 l800,0" />
        <path id="Baseline-M" d="M18,346 l800,0" />
        <path id="Capline-L" d="M18,476 l800,0" />
        <path id="Baseline-L" d="M18,546 l800,0" />
    </g>
    <g id="Symbols">
        <g id="Ultralight-S">
            <path d="M306.65,97.855 L266.265,76.316 C265.474,75.895 264.526,75.895 263.735,76.316 L223.35,97.855 C222.472,98.323 221.924,99.236 221.924,100.231 C221.924,101.225 222.472,102.139 223.35,102.607 L232.692,107.591 L232.692,123.886 C232.689,125.208 233.176,126.485 234.059,127.47 C238.467,132.38 248.345,140.615 265,140.615 C270.522,140.661 276.004,139.661 281.154,137.667 L281.154,148.692 C281.154,150.179 282.359,151.385 283.846,151.385 C285.333,151.385 286.538,150.179 286.538,148.692 L286.538,135.066 C290.049,133.039 293.222,130.476 295.941,127.47 C296.824,126.485 297.311,125.209 297.308,123.886 L297.308,107.591 L306.65,102.607 C307.528,102.139 308.076,101.225 308.076,100.231 C308.076,99.236 307.528,98.323 306.65,97.855 Z M265,135.231 C250.438,135.231 241.873,128.116 238.077,123.886 L238.077,110.462 L263.735,124.145 C264.526,124.566 265.474,124.566 266.265,124.145 L281.154,116.206 L281.154,131.801 C276.913,133.78 271.569,135.231 265,135.231 Z M291.923,123.873 C290.309,125.663 288.503,127.272 286.538,128.668 L286.538,113.332 L291.923,110.462 Z M285.192,107.951 L285.118,107.907 L266.272,97.855 C264.964,97.187 263.362,97.69 262.671,98.987 C261.981,100.283 262.457,101.894 263.741,102.607 L279.471,111 L265,118.717 L230.337,100.231 L265,81.745 L299.663,100.231 Z" />
        </g>
        <g id="Regular-S">
            <path d="M506.65,97.855 L466.265,76.316 C465.474,75.895 464.526,75.895 463.735,76.316 L423.35,97.855 C422.472,98.323 421.924,99.236 421.924,100.231 C421.924,101.225 422.472,102.139 423.35,102.607 L432.692,107.591 L432.692,123.886 C432.689,125.208 433.176,126.485 434.059,127.47 C438.467,132.38 448.345,140.615 465,140.615 C470.522,140.661 476.004,139.661 481.154,137.667 L481.154,148.692 C481.154,150.179 482.359,151.385 483.846,151.385 C485.333,151.385 486.538,150.179 486.538,148.692 L486.538,135.066 C490.049,133.039 493.222,130.476 495.941,127.47 C496.824,126.485 497.31,125.209 497.308,123.886 L497.308,107.591 L506.65,102.607 C507.528,102.139 508.076,101.225 508.076,100.231 C508.076,99.236 507.528,98.323 506.65,97.855 Z M465,135.231 C450.438,135.231 441.873,128.116 438.077,123.886 L438.077,110.462 L463.735,124.145 C464.526,124.566 465.474,124.566 466.265,124.145 L481.154,116.206 L481.154,131.801 C476.913,133.78 471.569,135.231 465,135.231 Z M491.923,123.873 C490.309,125.663 488.503,127.272 486.538,128.668 L486.538,113.332 L491.923,110.462 Z M485.192,107.951 L485.118,107.907 L466.272,97.855 C464.964,97.187 463.362,97.69 462.671,98.987 C461.981,100.283 462.457,101.894 463.741,102.607 L479.471,111 L465,118.717 L430.337,100.231 L465,81.745 L499.663,100.231 Z" />
        </g>
        <g id="Black-S">
            <path d="M706.65,97.855 L666.265,76.316 C665.474,75.895 664.526,75.895 663.735,76.316 L623.35,97.855 C622.472,98.323 621.924,99.236 621.924,100.231 C621.924,101.225 622.472,102.139 623.35,102.607 L632.692,107.591 L632.692,123.886 C632.69,125.208 633.176,126.485 634.059,127.47 C638.467,132.38 648.345,140.615 665,140.615 C670.522,140.661 676.004,139.661 681.154,137.667 L681.154,148.692 C681.154,150.179 682.359,151.385 683.846,151.385 C685.333,151.385 686.539,150.179 686.539,148.692 L686.539,135.066 C690.049,133.039 693.222,130.476 695.941,127.47 C696.824,126.485 697.311,125.209 697.308,123.886 L697.308,107.591 L706.65,102.607 C707.528,102.139 708.076,101.225 708.076,100.231 C708.076,99.236 707.528,98.323 706.65,97.855 Z M665,135.231 C650.438,135.231 641.873,128.116 638.077,123.886 L638.077,110.462 L663.735,124.145 C664.526,124.566 665.474,124.566 666.265,124.145 L681.154,116.206 L681.154,131.801 C676.913,133.78 671.569,135.231 665,135.231 Z M691.923,123.873 C690.309,125.663 688.503,127.272 686.538,128.668 L686.538,113.332 L691.923,110.462 Z M685.192,107.951 L685.118,107.907 L666.272,97.855 C664.964,97.187 663.362,97.69 662.671,98.987 C661.981,100.283 662.457,101.894 663.741,102.607 L679.471,111 L665,118.717 L630.337,100.231 L665,81.745 L699.663,100.231 Z" />
        </g>
    </g>
</svg>