<?xml version="1.0" encoding="UTF-8"?>
<svg height="600" width="800" xmlns="http://www.w3.org/2000/svg" xmlns:xlink="http://www.w3.org/1999/xlink">
    <g id="Notes" font-family="'LucidaGrande', 'Lucida Grande', sans-serif" font-size="13">
        <rect fill="white" height="600.0" width="800.0" x="0.0" y="0.0" />
        <g font-size="13">
            <text x="18.0" y="176.0">Small</text>
            <text x="18.0" y="376.0">Medium</text>
            <text x="18.0" y="576.0">Large</text>
        </g>
        <g font-size="9">
            <text x="250.0" y="30.0">Ultralight</text>
            <text x="450.0" y="30.0">Regular</text>
            <text x="650.0" y="30.0">Black</text>
            <text id="template-version" fill="#505050" text-anchor="end" x="785.0" y="575.0">Template v.3.0</text>
            <a href="https://github.com/swhitty/SwiftDraw">
                <text fill="#505050" text-anchor="end" x="785.0" y="590.0">https://github.com/swhitty/SwiftDraw</text>
            </a>
        </g>
    </g>
    <g id="Guides" stroke="rgb(39, 170, 225)" stroke-width="0.5">
        <path id="Capline-S" d="M18,76 l800,0" />
        <path id="H-reference" d="M85,145.755 L87.685,145.755 L113.369,79.287 L114.052,79.287 L114.052,76 L112.148,76 L85,145.755 Z M95.693,121.536 L130.996,121.536 L130.263,119.313 L96.474,119.313 L95.693,121.536 Z M139.15,145.755 L141.787,145.755 L114.638,76 L113.466,76 L113.466,79.287 L139.15,145.755 Z" stroke="none" />
        <path id="Baseline-S" d="M18,146 l800,0" />
        <path id="left-margin-Ultralight-S" d="M220,56 l0,110" />
        <path id="right-margin-Ultralight-S" d="M310,56 l0,110" />
        <path id="left-margin-Regular-S" d="M420,56 l0,110" />
        <path id="right-margin-Regular-S" d="M510,56 l0,110" />
        <path id="left-margin-Black-S" d="M620,56 l0,110" />
        <path id="right-margin-Black-S" d="M710,56 l0,110" />
        <path id="Capline-M" d="M18,276 l800,0" />
        <path id="Baseline-M" d="M18,346 l800,0" />
        <path id="Capline-L" d="M18,476 l800,0" />
        <path id="Baseline-L" d="M18,546 l800,0" />
    </g>
    <g id="Symbols">
        <g id="Ultralight-S">
            <path d="M286.538,84.077 L243.462,84.077 C242.033,84.077 240.664,84.644 239.654,85.654 C238.644,86.664 238.077,88.033 238.077,89.462 L238.077,132.538 C238.077,133.967 238.644,135.336 239.654,136.346 C240.664,137.356 242.033,137.923 243.462,137.923 L286.538,137.923 C287.967,137.923 289.336,137.356 290.346,136.346 C291.356,135.336 291.923,133.967 291.923,132.538 L291.923,89.462 C291.923,88.033 291.356,86.664 290.346,85.654 C289.336,84.644 287.967,84.077 286.538,84.077 Z M286.538,132.538 L243.462,132.538 L243.462,89.462 L286.538,89.462 L286.538,132.538 Z M302.692,86.769 L302.692,135.231 C302.692,136.718 301.487,137.923 300,137.923 C298.513,137.923 297.308,136.718 297.308,135.231 L297.308,86.769 C297.308,85.282 298.513,84.077 300,84.077 C301.487,84.077 302.692,85.282 302.692,86.769 Z M232.692,86.769 L232.692,135.231 C232.692,136.718 231.487,137.923 230,137.923 C228.513,137.923 227.308,136.718 227.308,135.231 L227.308,86.769 C227.308,85.282 228.513,84.077 230,84.077 C231.487,84.077 232.692,85.282 232.692,86.769 Z" />
        </g>
        <g id="Regular-S">
            <path d="M486.538,84.077 L443.462,84.077 C442.033,84.077 440.664,84.644 439.654,85.654 C438.644,86.664 438.077,88.033 438.077,89.462 L438.077,132.538 C438.077,133.967 438.644,135.336 439.654,136.346 C440.664,137.356 442.033,137.923 443.462,137.923 L486.538,137.923 C487.967,137.923 489.336,137.356 490.346,136.346 C491.356,135.336 491.923,133.967 491.923,132.538 L491.923,89.462 C491.923,88.033 491.356,86.664 490.346,85.654 C489.336,84.644 487.967,84.077 486.538,84.077 Z M486.538,132.538 L443.462,132.538 L443.462,89.462 L486.538,89.462 L486.538,132.538 Z M502.692,86.769 L502.692,135.231 C502.692,136.718 501.487,137.923 500,137.923 C498.513,137.923 497.308,136.718 497.308,135.231 L497.308,86.769 C497.308,85.282 498.513,84.077 500,84.077 C501.487,84.077 502.692,85.282 502.692,86.769 Z M432.692,86.769 L432.692,135.231 C432.692,136.718 431.487,137.923 430,137.923 C428.513,137.923 427.308,136.718 427.308,135.231 L427.308,86.769 C427.308,85.282 428.513,84.077 430,84.077 C431.487,84.077 432.692,85.282 432.692,86.769 Z" />
        </g>
        <g id="Black-S">
            <path d="M686.538,84.077 L643.462,84.077 C642.033,84.077 640.664,84.644 639.654,85.654 C638.644,86.664 638.077,88.033 638.077,89.462 L638.077,132.538 C638.077,133.967 638.644,135.336 639.654,136.346 C640.664,137.356 642.033,137.923 643.462,137.923 L686.538,137.923 C687.967,137.923 689.336,137.356 690.346,136.346 C691.356,135.336 691.923,133.967 691.923,132.538 L691.923,89.462 C691.923,88.033 691.356,86.664 690.346,85.654 C689.336,84.644 687.967,84.077 686.538,84.077 Z M686.538,132.538 L643.462,132.538 L643.462,89.462 L686.538,89.462 L686.538,132.538 Z M702.692,86.769 L702.692,135.231 C702.692,136.718 701.487,137.923 700,137.923 C698.513,137.923 697.308,136.718 697.308,135.231 L697.308,86.769 C697.308,85.282 698.513,84.077 700,84.077 C701.487,84.077 702.692,85.282 702.692,86.769 Z M632.692,86.769 L632.692,135.231 C632.692,136.718 631.487,137.923 630,137.923 C628.513,137.923 627.308,136.718 627.308,135.231 L627.308,86.769 C627.308,85.282 628.513,84.077 630,84.077 C631.487,84.077 632.692,85.282 632.692,86.769 Z" />
        </g>
    </g>
</svg>