<?xml version="1.0" encoding="UTF-8"?>
<svg height="600" width="800" xmlns="http://www.w3.org/2000/svg" xmlns:xlink="http://www.w3.org/1999/xlink">
    <g id="Notes" font-family="'LucidaGrande', 'Lucida Grande', sans-serif" font-size="13">
        <rect fill="white" height="600.0" width="800.0" x="0.0" y="0.0" />
        <g font-size="13">
            <text x="18.0" y="176.0">Small</text>
            <text x="18.0" y="376.0">Medium</text>
            <text x="18.0" y="576.0">Large</text>
        </g>
        <g font-size="9">
            <text x="250.0" y="30.0">Ultralight</text>
            <text x="450.0" y="30.0">Regular</text>
            <text x="650.0" y="30.0">Black</text>
            <text id="template-version" fill="#505050" text-anchor="end" x="785.0" y="575.0">Template v.3.0</text>
            <a href="https://github.com/swhitty/SwiftDraw">
                <text fill="#505050" text-anchor="end" x="785.0" y="590.0">https://github.com/swhitty/SwiftDraw</text>
            </a>
        </g>
    </g>
    <g id="Guides" stroke="rgb(39, 170, 225)" stroke-width="0.5">
        <path id="Capline-S" d="M18,76 l800,0" />
        <path id="H-reference" d="M85,145.755 L87.685,145.755 L113.369,79.287 L114.052,79.287 L114.052,76 L112.148,76 L85,145.755 Z M95.693,121.536 L130.996,121.536 L130.263,119.313 L96.474,119.313 L95.693,121.536 Z M139.15,145.755 L141.787,145.755 L114.638,76 L113.466,76 L113.466,79.287 L139.15,145.755 Z" stroke="none" />
        <path id="Baseline-S" d="M18,146 l800,0" />
        <path id="left-margin-Ultralight-S" d="M220,56 l0,110" />
        <path id="right-margin-Ultralight-S" d="M310,56 l0,110" />
        <path id="left-margin-Regular-S" d="M420,56 l0,110" />
        <path id="right-margin-Regular-S" d="M510,56 l0,110" />
        <path id="left-margin-Black-S" d="M620,56 l0,110" />
        <path id="right-margin-Black-S" d="M710,56 l0,110" />
        <path id="Capline-M" d="M18,276 l800,0" />
        <path id="Baseline-M" d="M18,346 l800,0" />
        <path id="Capline-L" d="M18,476 l800,0" />
        <path id="Baseline-L" d="M18,546 l800,0" />
    </g>
    <g id="Symbols">
        <g id="Ultralight-S">
            <path d="M273.077,94.846 C279.025,94.846 283.846,90.025 283.846,84.077 C283.846,78.129 279.025,73.308 273.077,73.308 C267.129,73.308 262.308,78.129 262.308,84.077 C262.308,86.933 263.442,89.672 265.462,91.692 C267.482,93.712 270.221,94.846 273.077,94.846 Z M273.077,78.692 C276.051,78.692 278.462,81.103 278.462,84.077 C278.462,87.051 276.051,89.462 273.077,89.462 C270.103,89.462 267.692,87.051 267.692,84.077 C267.692,82.649 268.26,81.279 269.269,80.269 C270.279,79.26 271.649,78.692 273.077,78.692 Z M289.231,116.385 L289.231,146 C289.231,147.487 288.025,148.692 286.538,148.692 C285.052,148.692 283.846,147.487 283.846,146 L283.846,118.963 C275.18,118.205 272.286,113.739 269.712,109.755 C268.752,108.277 267.84,106.871 266.639,105.652 L262.129,116.021 L274.649,124.963 C275.354,125.47 275.771,126.286 275.769,127.154 L275.769,146 C275.769,147.487 274.564,148.692 273.077,148.692 C271.59,148.692 270.385,147.487 270.385,146 L270.385,128.54 L259.928,121.069 L248.624,147.074 C248.196,148.057 247.226,148.693 246.154,148.692 C245.784,148.693 245.418,148.616 245.08,148.467 C243.719,147.873 243.095,146.289 243.687,144.926 L263.045,100.399 C263.342,99.716 263.908,99.187 264.61,98.937 C265.311,98.687 266.085,98.739 266.747,99.08 C267.714,99.585 268.618,100.203 269.439,100.921 C271.583,102.778 272.976,104.929 274.204,106.827 C276.789,110.812 278.653,113.692 286.522,113.692 C287.239,113.688 287.928,113.97 288.436,114.475 C288.945,114.98 289.231,115.668 289.231,116.385 Z M246.154,119.077 C247.231,119.076 248.203,118.434 248.627,117.445 L256.704,98.599 C257.289,97.232 256.656,95.651 255.291,95.065 L245.868,91.026 C244.502,90.442 242.92,91.074 242.334,92.44 L234.257,111.286 C233.672,112.652 234.305,114.234 235.671,114.82 L245.094,118.858 C245.429,119.002 245.789,119.077 246.154,119.077 Z M240.268,110.933 L246.221,97.034 L250.697,98.952 L244.74,112.848 Z" />
        </g>
        <g id="Regular-S">
            <path d="M473.077,94.846 C479.025,94.846 483.846,90.025 483.846,84.077 C483.846,78.129 479.025,73.308 473.077,73.308 C467.129,73.308 462.308,78.129 462.308,84.077 C462.308,86.933 463.442,89.672 465.462,91.692 C467.482,93.712 470.221,94.846 473.077,94.846 Z M473.077,78.692 C476.051,78.692 478.462,81.103 478.462,84.077 C478.462,87.051 476.051,89.462 473.077,89.462 C470.103,89.462 467.692,87.051 467.692,84.077 C467.692,82.649 468.26,81.279 469.269,80.269 C470.279,79.26 471.649,78.692 473.077,78.692 Z M489.231,116.385 L489.231,146 C489.231,147.487 488.025,148.692 486.538,148.692 C485.052,148.692 483.846,147.487 483.846,146 L483.846,118.963 C475.18,118.205 472.286,113.739 469.712,109.755 C468.752,108.277 467.84,106.871 466.639,105.652 L462.129,116.021 L474.649,124.963 C475.354,125.47 475.771,126.286 475.769,127.154 L475.769,146 C475.769,147.487 474.564,148.692 473.077,148.692 C471.59,148.692 470.385,147.487 470.385,146 L470.385,128.54 L459.928,121.069 L448.624,147.074 C448.196,148.057 447.226,148.693 446.154,148.692 C445.784,148.693 445.418,148.616 445.08,148.467 C443.719,147.873 443.095,146.289 443.687,144.926 L463.045,100.399 C463.342,99.716 463.908,99.187 464.61,98.937 C465.311,98.687 466.085,98.739 466.747,99.08 C467.714,99.585 468.618,100.203 469.439,100.921 C471.583,102.778 472.976,104.929 474.204,106.827 C476.789,110.812 478.653,113.692 486.522,113.692 C487.239,113.688 487.928,113.97 488.436,114.475 C488.945,114.98 489.231,115.668 489.231,116.385 Z M446.154,119.077 C447.231,119.076 448.203,118.434 448.627,117.445 L456.704,98.599 C457.289,97.232 456.656,95.651 455.291,95.065 L445.868,91.026 C444.502,90.442 442.92,91.074 442.334,92.44 L434.257,111.286 C433.672,112.652 434.305,114.234 435.671,114.82 L445.094,118.858 C445.429,119.002 445.789,119.077 446.154,119.077 Z M440.268,110.933 L446.221,97.034 L450.697,98.952 L444.74,112.848 Z" />
        </g>
        <g id="Black-S">
            <path d="M673.077,94.846 C679.025,94.846 683.846,90.025 683.846,84.077 C683.846,78.129 679.025,73.308 673.077,73.308 C667.129,73.308 662.308,78.129 662.308,84.077 C662.308,86.933 663.442,89.672 665.462,91.692 C667.482,93.712 670.221,94.846 673.077,94.846 Z M673.077,78.692 C676.051,78.692 678.462,81.103 678.462,84.077 C678.462,87.051 676.051,89.462 673.077,89.462 C670.103,89.462 667.692,87.051 667.692,84.077 C667.692,82.649 668.26,81.279 669.269,80.269 C670.279,79.26 671.649,78.692 673.077,78.692 Z M689.231,116.385 L689.231,146 C689.231,147.487 688.025,148.692 686.538,148.692 C685.052,148.692 683.846,147.487 683.846,146 L683.846,118.963 C675.18,118.205 672.286,113.739 669.712,109.755 C668.752,108.277 667.84,106.871 666.639,105.652 L662.129,116.021 L674.649,124.963 C675.354,125.47 675.771,126.286 675.769,127.154 L675.769,146 C675.769,147.487 674.564,148.692 673.077,148.692 C671.59,148.692 670.385,147.487 670.385,146 L670.385,128.54 L659.928,121.069 L648.624,147.074 C648.196,148.057 647.226,148.693 646.154,148.692 C645.784,148.693 645.418,148.616 645.08,148.467 C643.719,147.873 643.095,146.289 643.687,144.926 L663.045,100.399 C663.342,99.716 663.908,99.187 664.61,98.937 C665.311,98.687 666.085,98.739 666.747,99.08 C667.714,99.585 668.618,100.203 669.439,100.921 C671.583,102.778 672.976,104.929 674.204,106.827 C676.789,110.812 678.653,113.692 686.522,113.692 C687.239,113.688 687.928,113.97 688.436,114.475 C688.945,114.98 689.231,115.668 689.231,116.385 Z M646.154,119.077 C647.231,119.076 648.203,118.434 648.627,117.445 L656.704,98.599 C657.289,97.232 656.656,95.651 655.291,95.065 L645.868,91.026 C644.502,90.442 642.92,91.074 642.334,92.44 L634.257,111.286 C633.672,112.652 634.305,114.234 635.671,114.82 L645.094,118.858 C645.429,119.002 645.789,119.077 646.154,119.077 Z M640.268,110.933 L646.221,97.034 L650.697,98.952 L644.74,112.848 Z" />
        </g>
    </g>
</svg>