<?xml version="1.0" encoding="UTF-8"?>
<svg height="600" width="800" xmlns="http://www.w3.org/2000/svg" xmlns:xlink="http://www.w3.org/1999/xlink">
    <g id="Notes" font-family="'LucidaGrande', 'Lucida Grande', sans-serif" font-size="13">
        <rect fill="white" height="600.0" width="800.0" x="0.0" y="0.0" />
        <g font-size="13">
            <text x="18.0" y="176.0">Small</text>
            <text x="18.0" y="376.0">Medium</text>
            <text x="18.0" y="576.0">Large</text>
        </g>
        <g font-size="9">
            <text x="250.0" y="30.0">Ultralight</text>
            <text x="450.0" y="30.0">Regular</text>
            <text x="650.0" y="30.0">Black</text>
            <text id="template-version" fill="#505050" text-anchor="end" x="785.0" y="575.0">Template v.3.0</text>
            <a href="https://github.com/swhitty/SwiftDraw">
                <text fill="#505050" text-anchor="end" x="785.0" y="590.0">https://github.com/swhitty/SwiftDraw</text>
            </a>
        </g>
    </g>
    <g id="Guides" stroke="rgb(39, 170, 225)" stroke-width="0.5">
        <path id="Capline-S" d="M18,76 l800,0" />
        <path id="H-reference" d="M85,145.755 L87.685,145.755 L113.369,79.287 L114.052,79.287 L114.052,76 L112.148,76 L85,145.755 Z M95.693,121.536 L130.996,121.536 L130.263,119.313 L96.474,119.313 L95.693,121.536 Z M139.15,145.755 L141.787,145.755 L114.638,76 L113.466,76 L113.466,79.287 L139.15,145.755 Z" stroke="none" />
        <path id="Baseline-S" d="M18,146 l800,0" />
        <path id="left-margin-Ultralight-S" d="M220,56 l0,110" />
        <path id="right-margin-Ultralight-S" d="M310,56 l0,110" />
        <path id="left-margin-Regular-S" d="M420,56 l0,110" />
        <path id="right-margin-Regular-S" d="M510,56 l0,110" />
        <path id="left-margin-Black-S" d="M620,56 l0,110" />
        <path id="right-margin-Black-S" d="M710,56 l0,110" />
        <path id="Capline-M" d="M18,276 l800,0" />
        <path id="Baseline-M" d="M18,346 l800,0" />
        <path id="Capline-L" d="M18,476 l800,0" />
        <path id="Baseline-L" d="M18,546 l800,0" />
    </g>
    <g id="Symbols">
        <g id="Ultralight-S">
            <path d="M251.538,119.077 L251.538,135.231 C251.538,136.718 250.333,137.923 248.846,137.923 C247.359,137.923 246.154,136.718 246.154,135.231 L246.154,119.077 C246.154,117.59 247.359,116.385 248.846,116.385 C250.333,116.385 251.538,117.59 251.538,119.077 Z M235.385,129.846 C234.671,129.846 233.986,130.13 233.481,130.635 C232.976,131.14 232.692,131.824 232.692,132.538 L232.692,135.231 C232.692,136.718 233.898,137.923 235.385,137.923 C236.872,137.923 238.077,136.718 238.077,135.231 L238.077,132.538 C238.077,131.824 237.793,131.14 237.288,130.635 C236.783,130.13 236.099,129.846 235.385,129.846 Z" />
        </g>
        <g id="Regular-S">
            <path d="M451.538,119.077 L451.538,135.231 C451.538,136.718 450.333,137.923 448.846,137.923 C447.359,137.923 446.154,136.718 446.154,135.231 L446.154,119.077 C446.154,117.59 447.359,116.385 448.846,116.385 C450.333,116.385 451.538,117.59 451.538,119.077 Z M435.385,129.846 C434.671,129.846 433.986,130.13 433.481,130.635 C432.976,131.14 432.692,131.824 432.692,132.538 L432.692,135.231 C432.692,136.718 433.898,137.923 435.385,137.923 C436.872,137.923 438.077,136.718 438.077,135.231 L438.077,132.538 C438.077,131.824 437.793,131.14 437.288,130.635 C436.783,130.13 436.099,129.846 435.385,129.846 Z" />
        </g>
        <g id="Black-S">
            <path d="M651.538,119.077 L651.538,135.231 C651.538,136.718 650.333,137.923 648.846,137.923 C647.359,137.923 646.154,136.718 646.154,135.231 L646.154,119.077 C646.154,117.59 647.359,116.385 648.846,116.385 C650.333,116.385 651.538,117.59 651.538,119.077 Z M635.385,129.846 C634.671,129.846 633.986,130.13 633.481,130.635 C632.976,131.14 632.692,131.824 632.692,132.538 L632.692,135.231 C632.692,136.718 633.898,137.923 635.385,137.923 C636.872,137.923 638.077,136.718 638.077,135.231 L638.077,132.538 C638.077,131.824 637.793,131.14 637.288,130.635 C636.783,130.13 636.099,129.846 635.385,129.846 Z" />
        </g>
    </g>
</svg>