<?xml version="1.0" encoding="UTF-8"?>
<svg height="600" width="800" xmlns="http://www.w3.org/2000/svg" xmlns:xlink="http://www.w3.org/1999/xlink">
    <g id="Notes" font-family="'LucidaGrande', 'Lucida Grande', sans-serif" font-size="13">
        <rect fill="white" height="600.0" width="800.0" x="0.0" y="0.0" />
        <g font-size="13">
            <text x="18.0" y="176.0">Small</text>
            <text x="18.0" y="376.0">Medium</text>
            <text x="18.0" y="576.0">Large</text>
        </g>
        <g font-size="9">
            <text x="250.0" y="30.0">Ultralight</text>
            <text x="450.0" y="30.0">Regular</text>
            <text x="650.0" y="30.0">Black</text>
            <text id="template-version" fill="#505050" text-anchor="end" x="785.0" y="575.0">Template v.3.0</text>
            <a href="https://github.com/swhitty/SwiftDraw">
                <text fill="#505050" text-anchor="end" x="785.0" y="590.0">https://github.com/swhitty/SwiftDraw</text>
            </a>
        </g>
    </g>
    <g id="Guides" stroke="rgb(39, 170, 225)" stroke-width="0.5">
        <path id="Capline-S" d="M18,76 l800,0" />
        <path id="H-reference" d="M85,145.755 L87.685,145.755 L113.369,79.287 L114.052,79.287 L114.052,76 L112.148,76 L85,145.755 Z M95.693,121.536 L130.996,121.536 L130.263,119.313 L96.474,119.313 L95.693,121.536 Z M139.15,145.755 L141.787,145.755 L114.638,76 L113.466,76 L113.466,79.287 L139.15,145.755 Z" stroke="none" />
        <path id="Baseline-S" d="M18,146 l800,0" />
        <path id="left-margin-Ultralight-S" d="M220,56 l0,110" />
        <path id="right-margin-Ultralight-S" d="M310,56 l0,110" />
        <path id="left-margin-Regular-S" d="M420,56 l0,110" />
        <path id="right-margin-Regular-S" d="M510,56 l0,110" />
        <path id="left-margin-Black-S" d="M620,56 l0,110" />
        <path id="right-margin-Black-S" d="M710,56 l0,110" />
        <path id="Capline-M" d="M18,276 l800,0" />
        <path id="Baseline-M" d="M18,346 l800,0" />
        <path id="Capline-L" d="M18,476 l800,0" />
        <path id="Baseline-L" d="M18,546 l800,0" />
    </g>
    <g id="Symbols">
        <g id="Ultralight-S">
            <path d="M289.231,81.385 L282.268,81.385 L277.674,76.788 L277.674,76.788 C277.169,76.283 276.483,75.999 275.769,76 L254.231,76 C253.517,75.999 252.831,76.283 252.326,76.788 L252.326,76.788 L247.732,81.385 L240.769,81.385 C239.341,81.385 237.972,81.952 236.962,82.962 C235.952,83.972 235.385,85.341 235.385,86.769 L235.385,137.923 C235.385,139.351 235.952,140.721 236.962,141.731 C237.972,142.74 239.341,143.308 240.769,143.308 L289.231,143.308 C290.659,143.308 292.028,142.74 293.038,141.731 C294.048,140.721 294.615,139.351 294.615,137.923 L294.615,86.769 C294.615,85.341 294.048,83.972 293.038,82.962 C292.028,81.952 290.659,81.385 289.231,81.385 Z M265,89.993 L259.279,81.385 L270.755,81.385 Z M276.187,82.926 L278.462,85.191 L278.462,102.923 L268.557,94.362 Z M251.538,85.191 L253.813,82.919 L261.443,94.362 L251.538,102.923 Z M240.769,86.769 L246.154,86.769 L246.154,102.923 C246.141,105.016 247.353,106.923 249.253,107.8 C249.969,108.133 250.749,108.307 251.538,108.308 C252.795,108.305 254.01,107.861 254.971,107.052 C254.985,107.043 254.998,107.032 255.008,107.019 L262.308,100.729 L262.308,137.923 L240.769,137.923 Z M289.231,137.923 L267.692,137.923 L267.692,100.729 L274.978,107.022 C274.989,107.035 275.001,107.046 275.015,107.056 C275.981,107.866 277.201,108.31 278.462,108.308 C279.256,108.306 280.041,108.129 280.76,107.789 C282.652,106.91 283.858,105.009 283.846,102.923 L283.846,86.769 L289.231,86.769 Z" />
        </g>
        <g id="Regular-S">
            <path d="M489.231,81.385 L482.268,81.385 L477.674,76.788 L477.674,76.788 C477.169,76.283 476.483,75.999 475.769,76 L454.231,76 C453.517,75.999 452.831,76.283 452.326,76.788 L452.326,76.788 L447.732,81.385 L440.769,81.385 C439.341,81.385 437.972,81.952 436.962,82.962 C435.952,83.972 435.385,85.341 435.385,86.769 L435.385,137.923 C435.385,139.351 435.952,140.721 436.962,141.731 C437.972,142.74 439.341,143.308 440.769,143.308 L489.231,143.308 C490.659,143.308 492.028,142.74 493.038,141.731 C494.048,140.721 494.615,139.351 494.615,137.923 L494.615,86.769 C494.615,85.341 494.048,83.972 493.038,82.962 C492.028,81.952 490.659,81.385 489.231,81.385 Z M465,89.993 L459.279,81.385 L470.755,81.385 Z M476.187,82.926 L478.462,85.191 L478.462,102.923 L468.557,94.362 Z M451.538,85.191 L453.813,82.919 L461.443,94.362 L451.538,102.923 Z M440.769,86.769 L446.154,86.769 L446.154,102.923 C446.141,105.016 447.353,106.923 449.253,107.8 C449.969,108.133 450.749,108.307 451.538,108.308 C452.795,108.305 454.01,107.861 454.971,107.052 C454.985,107.043 454.997,107.032 455.008,107.019 L462.308,100.729 L462.308,137.923 L440.769,137.923 Z M489.231,137.923 L467.692,137.923 L467.692,100.729 L474.978,107.022 C474.989,107.035 475.001,107.046 475.015,107.056 C475.981,107.866 477.201,108.31 478.462,108.308 C479.256,108.306 480.041,108.129 480.76,107.789 C482.652,106.91 483.858,105.009 483.846,102.923 L483.846,86.769 L489.231,86.769 Z" />
        </g>
        <g id="Black-S">
            <path d="M689.231,81.385 L682.268,81.385 L677.674,76.788 L677.674,76.788 C677.169,76.283 676.484,75.999 675.769,76 L654.231,76 C653.517,75.999 652.831,76.283 652.326,76.788 L652.326,76.788 L647.732,81.385 L640.769,81.385 C639.341,81.385 637.972,81.952 636.962,82.962 C635.952,83.972 635.385,85.341 635.385,86.769 L635.385,137.923 C635.385,139.351 635.952,140.721 636.962,141.731 C637.972,142.74 639.341,143.308 640.769,143.308 L689.231,143.308 C690.659,143.308 692.028,142.74 693.038,141.731 C694.048,140.721 694.615,139.351 694.615,137.923 L694.615,86.769 C694.615,85.341 694.048,83.972 693.038,82.962 C692.028,81.952 690.659,81.385 689.231,81.385 Z M665,89.993 L659.279,81.385 L670.755,81.385 Z M676.187,82.926 L678.462,85.191 L678.462,102.923 L668.557,94.362 Z M651.538,85.191 L653.813,82.919 L661.443,94.362 L651.538,102.923 Z M640.769,86.769 L646.154,86.769 L646.154,102.923 C646.141,105.016 647.353,106.923 649.253,107.8 C649.969,108.133 650.749,108.307 651.538,108.308 C652.795,108.305 654.01,107.861 654.971,107.052 C654.985,107.043 654.997,107.032 655.008,107.019 L662.308,100.729 L662.308,137.923 L640.769,137.923 Z M689.231,137.923 L667.692,137.923 L667.692,100.729 L674.978,107.022 C674.989,107.035 675.002,107.046 675.015,107.056 C675.981,107.866 677.201,108.31 678.462,108.308 C679.256,108.306 680.041,108.129 680.76,107.789 C682.652,106.91 683.858,105.009 683.846,102.923 L683.846,86.769 L689.231,86.769 Z" />
        </g>
    </g>
</svg>