<?xml version="1.0" encoding="UTF-8"?>
<svg height="600" width="800" xmlns="http://www.w3.org/2000/svg" xmlns:xlink="http://www.w3.org/1999/xlink">
    <g id="Notes" font-family="'LucidaGrande', 'Lucida Grande', sans-serif" font-size="13">
        <rect fill="white" height="600.0" width="800.0" x="0.0" y="0.0" />
        <g font-size="13">
            <text x="18.0" y="176.0">Small</text>
            <text x="18.0" y="376.0">Medium</text>
            <text x="18.0" y="576.0">Large</text>
        </g>
        <g font-size="9">
            <text x="250.0" y="30.0">Ultralight</text>
            <text x="450.0" y="30.0">Regular</text>
            <text x="650.0" y="30.0">Black</text>
            <text id="template-version" fill="#505050" text-anchor="end" x="785.0" y="575.0">Template v.3.0</text>
            <a href="https://github.com/swhitty/SwiftDraw">
                <text fill="#505050" text-anchor="end" x="785.0" y="590.0">https://github.com/swhitty/SwiftDraw</text>
            </a>
        </g>
    </g>
    <g id="Guides" stroke="rgb(39, 170, 225)" stroke-width="0.5">
        <path id="Capline-S" d="M18,76 l800,0" />
        <path id="H-reference" d="M85,145.755 L87.685,145.755 L113.369,79.287 L114.052,79.287 L114.052,76 L112.148,76 L85,145.755 Z M95.693,121.536 L130.996,121.536 L130.263,119.313 L96.474,119.313 L95.693,121.536 Z M139.15,145.755 L141.787,145.755 L114.638,76 L113.466,76 L113.466,79.287 L139.15,145.755 Z" stroke="none" />
        <path id="Baseline-S" d="M18,146 l800,0" />
        <path id="left-margin-Ultralight-S" d="M220,56 l0,110" />
        <path id="right-margin-Ultralight-S" d="M310,56 l0,110" />
        <path id="left-margin-Regular-S" d="M420,56 l0,110" />
        <path id="right-margin-Regular-S" d="M510,56 l0,110" />
        <path id="left-margin-Black-S" d="M620,56 l0,110" />
        <path id="right-margin-Black-S" d="M710,56 l0,110" />
        <path id="Capline-M" d="M18,276 l800,0" />
        <path id="Baseline-M" d="M18,346 l800,0" />
        <path id="Capline-L" d="M18,476 l800,0" />
        <path id="Baseline-L" d="M18,546 l800,0" />
    </g>
    <g id="Symbols">
        <g id="Ultralight-S">
            <path d="M265,76 C245.67,76 230,91.67 230,111 C230,130.33 245.67,146 265,146 C284.33,146 300,130.33 300,111 C299.979,91.677 284.32,76.02 264.999,76 Z M246.854,134.389 C250.812,128.199 257.653,124.454 265,124.454 C272.347,124.454 279.188,128.199 283.146,134.389 C272.473,142.69 257.527,142.69 246.854,134.389 Z M254.231,108.308 C254.231,102.36 259.052,97.538 265,97.538 C270.948,97.538 275.769,102.36 275.769,108.308 C275.769,114.255 270.948,119.077 265,119.077 C262.144,119.077 259.405,117.942 257.385,115.923 C255.365,113.903 254.231,111.164 254.231,108.308 Z M287.131,130.657 C284.128,126.306 279.906,122.94 274.995,120.982 C280.402,116.723 282.517,109.506 280.263,103.002 C278.01,96.499 271.883,92.138 265,92.138 C258.117,92.138 251.99,96.499 249.737,103.002 C247.483,109.506 249.598,116.723 255.005,120.982 C250.094,122.94 245.872,126.306 242.869,130.657 C232.299,118.771 233.006,100.657 244.471,89.631 C255.936,78.605 274.064,78.605 285.529,89.631 C296.994,100.657 297.701,118.771 287.131,130.657 Z" />
        </g>
        <g id="Regular-S">
            <path d="M465,76 C445.67,76 430,91.67 430,111 C430,130.33 445.67,146 465,146 C484.33,146 500,130.33 500,111 C499.979,91.677 484.32,76.02 464.999,76 Z M446.854,134.389 C450.812,128.199 457.652,124.454 465,124.454 C472.347,124.454 479.188,128.199 483.146,134.389 C472.473,142.69 457.527,142.69 446.854,134.389 Z M454.231,108.308 C454.231,102.36 459.052,97.538 465,97.538 C470.948,97.538 475.769,102.36 475.769,108.308 C475.769,114.255 470.948,119.077 465,119.077 C462.144,119.077 459.405,117.942 457.385,115.923 C455.365,113.903 454.231,111.164 454.231,108.308 Z M487.131,130.657 C484.128,126.306 479.906,122.94 474.995,120.982 C480.402,116.723 482.517,109.506 480.263,103.002 C478.01,96.499 471.883,92.138 465,92.138 C458.117,92.138 451.99,96.499 449.737,103.002 C447.483,109.506 449.598,116.723 455.005,120.982 C450.094,122.94 445.872,126.306 442.869,130.657 C432.299,118.771 433.006,100.657 444.471,89.631 C455.936,78.605 474.064,78.605 485.529,89.631 C496.993,100.657 497.701,118.771 487.131,130.657 Z" />
        </g>
        <g id="Black-S">
            <path d="M665,76 C645.67,76 630,91.67 630,111 C630,130.33 645.67,146 665,146 C684.33,146 700,130.33 700,111 C699.979,91.677 684.32,76.02 664.999,76 Z M646.854,134.389 C650.812,128.199 657.653,124.454 665,124.454 C672.347,124.454 679.188,128.199 683.146,134.389 C672.473,142.69 657.527,142.69 646.854,134.389 Z M654.231,108.308 C654.231,102.36 659.052,97.538 665,97.538 C670.948,97.538 675.769,102.36 675.769,108.308 C675.769,114.255 670.948,119.077 665,119.077 C662.144,119.077 659.405,117.942 657.385,115.923 C655.365,113.903 654.231,111.164 654.231,108.308 Z M687.131,130.657 C684.128,126.306 679.906,122.94 674.995,120.982 C680.402,116.723 682.517,109.506 680.263,103.002 C678.01,96.499 671.883,92.138 665,92.138 C658.117,92.138 651.99,96.499 649.737,103.002 C647.483,109.506 649.598,116.723 655.005,120.982 C650.094,122.94 645.872,126.306 642.869,130.657 C632.299,118.771 633.007,100.657 644.471,89.631 C655.936,78.605 674.064,78.605 685.529,89.631 C696.994,100.657 697.701,118.771 687.131,130.657 Z" />
        </g>
    </g>
</svg>