<?xml version="1.0" encoding="UTF-8"?>
<svg height="600" width="800" xmlns="http://www.w3.org/2000/svg" xmlns:xlink="http://www.w3.org/1999/xlink">
    <g id="Notes" font-family="'LucidaGrande', 'Lucida Grande', sans-serif" font-size="13">
        <rect fill="white" height="600.0" width="800.0" x="0.0" y="0.0" />
        <g font-size="13">
            <text x="18.0" y="176.0">Small</text>
            <text x="18.0" y="376.0">Medium</text>
            <text x="18.0" y="576.0">Large</text>
        </g>
        <g font-size="9">
            <text x="250.0" y="30.0">Ultralight</text>
            <text x="450.0" y="30.0">Regular</text>
            <text x="650.0" y="30.0">Black</text>
            <text id="template-version" fill="#505050" text-anchor="end" x="785.0" y="575.0">Template v.3.0</text>
            <a href="https://github.com/swhitty/SwiftDraw">
                <text fill="#505050" text-anchor="end" x="785.0" y="590.0">https://github.com/swhitty/SwiftDraw</text>
            </a>
        </g>
    </g>
    <g id="Guides" stroke="rgb(39, 170, 225)" stroke-width="0.5">
        <path id="Capline-S" d="M18,76 l800,0" />
        <path id="H-reference" d="M85,145.755 L87.685,145.755 L113.369,79.287 L114.052,79.287 L114.052,76 L112.148,76 L85,145.755 Z M95.693,121.536 L130.996,121.536 L130.263,119.313 L96.474,119.313 L95.693,121.536 Z M139.15,145.755 L141.787,145.755 L114.638,76 L113.466,76 L113.466,79.287 L139.15,145.755 Z" stroke="none" />
        <path id="Baseline-S" d="M18,146 l800,0" />
        <path id="left-margin-Ultralight-S" d="M220,56 l0,110" />
        <path id="right-margin-Ultralight-S" d="M310,56 l0,110" />
        <path id="left-margin-Regular-S" d="M420,56 l0,110" />
        <path id="right-margin-Regular-S" d="M510,56 l0,110" />
        <path id="left-margin-Black-S" d="M620,56 l0,110" />
        <path id="right-margin-Black-S" d="M710,56 l0,110" />
        <path id="Capline-M" d="M18,276 l800,0" />
        <path id="Baseline-M" d="M18,346 l800,0" />
        <path id="Capline-L" d="M18,476 l800,0" />
        <path id="Baseline-L" d="M18,546 l800,0" />
    </g>
    <g id="Symbols">
        <g id="Ultralight-S">
            <path d="M286.538,73.308 L256.923,73.308 C255.495,73.308 254.125,73.875 253.116,74.885 C252.106,75.895 251.538,77.264 251.538,78.692 L251.538,104.501 L238.498,117.539 C230.905,125.307 230.976,137.739 238.657,145.42 C246.338,153.101 258.77,153.172 266.538,145.579 L289.567,122.557 C291.086,121.041 291.934,118.981 291.923,116.836 L291.923,78.692 C291.923,77.264 291.356,75.895 290.346,74.885 C289.336,73.875 287.967,73.308 286.538,73.308 Z M286.538,78.692 L286.538,78.692 L286.538,84.077 L256.923,84.077 L256.923,78.692 Z M262.728,141.77 C259.095,145.487 253.743,146.964 248.717,145.638 C243.691,144.311 239.766,140.386 238.439,135.36 C237.113,130.334 238.59,124.982 242.307,121.349 L256.136,107.52 C256.64,107.015 256.924,106.33 256.923,105.615 L256.923,89.462 L286.538,89.462 L286.538,103.118 C277.273,104.469 270.399,112.406 270.385,121.769 C270.372,125.179 271.296,128.527 273.054,131.448 Z M285.751,118.74 L277.031,127.46 C276.196,125.68 275.765,123.736 275.769,121.769 C275.776,115.375 280.275,109.865 286.539,108.58 L286.539,116.846 C286.537,117.556 286.253,118.238 285.751,118.74 Z" />
        </g>
        <g id="Regular-S">
            <path d="M486.538,73.308 L456.923,73.308 C455.495,73.308 454.125,73.875 453.116,74.885 C452.106,75.895 451.538,77.264 451.538,78.692 L451.538,104.501 L438.498,117.539 C430.905,125.307 430.976,137.739 438.657,145.42 C446.338,153.101 458.77,153.172 466.538,145.579 L489.567,122.557 C491.086,121.041 491.934,118.981 491.923,116.836 L491.923,78.692 C491.923,77.264 491.356,75.895 490.346,74.885 C489.336,73.875 487.967,73.308 486.538,73.308 Z M486.538,78.692 L486.538,78.692 L486.538,84.077 L456.923,84.077 L456.923,78.692 Z M462.728,141.77 C459.095,145.487 453.743,146.964 448.717,145.638 C443.691,144.311 439.766,140.386 438.439,135.36 C437.113,130.334 438.59,124.982 442.307,121.349 L456.136,107.52 C456.64,107.015 456.924,106.33 456.923,105.615 L456.923,89.462 L486.538,89.462 L486.538,103.118 C477.273,104.469 470.399,112.406 470.385,121.769 C470.372,125.179 471.296,128.527 473.054,131.448 Z M485.751,118.74 L477.031,127.46 C476.196,125.68 475.765,123.736 475.769,121.769 C475.776,115.375 480.275,109.865 486.539,108.58 L486.539,116.846 C486.537,117.556 486.253,118.238 485.751,118.74 Z" />
        </g>
        <g id="Black-S">
            <path d="M686.538,73.308 L656.923,73.308 C655.495,73.308 654.125,73.875 653.116,74.885 C652.106,75.895 651.538,77.264 651.538,78.692 L651.538,104.501 L638.498,117.539 C630.905,125.307 630.976,137.739 638.657,145.42 C646.338,153.101 658.77,153.172 666.538,145.579 L689.567,122.557 C691.086,121.041 691.934,118.981 691.923,116.836 L691.923,78.692 C691.923,77.264 691.356,75.895 690.346,74.885 C689.336,73.875 687.967,73.308 686.538,73.308 Z M686.538,78.692 L686.538,78.692 L686.538,84.077 L656.923,84.077 L656.923,78.692 Z M662.728,141.77 C659.095,145.487 653.743,146.964 648.717,145.638 C643.691,144.311 639.766,140.386 638.439,135.36 C637.113,130.334 638.59,124.982 642.307,121.349 L656.136,107.52 C656.64,107.015 656.924,106.33 656.923,105.615 L656.923,89.462 L686.538,89.462 L686.538,103.118 C677.273,104.469 670.399,112.406 670.385,121.769 C670.372,125.179 671.296,128.527 673.054,131.448 Z M685.751,118.74 L677.031,127.46 C676.196,125.68 675.765,123.736 675.769,121.769 C675.776,115.375 680.275,109.865 686.539,108.58 L686.539,116.846 C686.537,117.556 686.253,118.238 685.751,118.74 Z" />
        </g>
    </g>
</svg>