<?xml version="1.0" encoding="UTF-8"?>
<svg height="600" width="800" xmlns="http://www.w3.org/2000/svg" xmlns:xlink="http://www.w3.org/1999/xlink">
    <g id="Notes" font-family="'LucidaGrande', 'Lucida Grande', sans-serif" font-size="13">
        <rect fill="white" height="600.0" width="800.0" x="0.0" y="0.0" />
        <g font-size="13">
            <text x="18.0" y="176.0">Small</text>
            <text x="18.0" y="376.0">Medium</text>
            <text x="18.0" y="576.0">Large</text>
        </g>
        <g font-size="9">
            <text x="250.0" y="30.0">Ultralight</text>
            <text x="450.0" y="30.0">Regular</text>
            <text x="650.0" y="30.0">Black</text>
            <text id="template-version" fill="#505050" text-anchor="end" x="785.0" y="575.0">Template v.3.0</text>
            <a href="https://github.com/swhitty/SwiftDraw">
                <text fill="#505050" text-anchor="end" x="785.0" y="590.0">https://github.com/swhitty/SwiftDraw</text>
            </a>
        </g>
    </g>
    <g id="Guides" stroke="rgb(39, 170, 225)" stroke-width="0.5">
        <path id="Capline-S" d="M18,76 l800,0" />
        <path id="H-reference" d="M85,145.755 L87.685,145.755 L113.369,79.287 L114.052,79.287 L114.052,76 L112.148,76 L85,145.755 Z M95.693,121.536 L130.996,121.536 L130.263,119.313 L96.474,119.313 L95.693,121.536 Z M139.15,145.755 L141.787,145.755 L114.638,76 L113.466,76 L113.466,79.287 L139.15,145.755 Z" stroke="none" />
        <path id="Baseline-S" d="M18,146 l800,0" />
        <path id="left-margin-Ultralight-S" d="M220,56 l0,110" />
        <path id="right-margin-Ultralight-S" d="M310,56 l0,110" />
        <path id="left-margin-Regular-S" d="M420,56 l0,110" />
        <path id="right-margin-Regular-S" d="M510,56 l0,110" />
        <path id="left-margin-Black-S" d="M620,56 l0,110" />
        <path id="right-margin-Black-S" d="M710,56 l0,110" />
        <path id="Capline-M" d="M18,276 l800,0" />
        <path id="Baseline-M" d="M18,346 l800,0" />
        <path id="Capline-L" d="M18,476 l800,0" />
        <path id="Baseline-L" d="M18,546 l800,0" />
    </g>
    <g id="Symbols">
        <g id="Ultralight-S">
            <path d="M303.752,107.059 L268.941,72.248 C267.896,71.202 266.478,70.615 265,70.615 C263.522,70.615 262.104,71.202 261.059,72.248 L226.248,107.059 C225.202,108.104 224.615,109.522 224.615,111 C224.615,112.478 225.202,113.896 226.248,114.941 L261.059,149.752 L261.059,149.752 C262.104,150.798 263.522,151.385 265,151.385 C266.478,151.385 267.896,150.798 268.941,149.752 L303.752,114.941 C304.798,113.896 305.385,112.478 305.385,111 C305.385,109.522 304.798,108.104 303.752,107.059 Z M299.946,111.131 L265.135,145.946 C265.059,146.018 264.941,146.018 264.865,145.946 L264.865,145.946 L230.054,111.131 C229.983,111.058 229.983,110.942 230.054,110.869 L264.865,76.054 C264.941,75.982 265.059,75.982 265.135,76.054 L299.946,110.869 C300.017,110.942 300.017,111.058 299.946,111.131 Z M280.366,106.42 C280.872,106.925 281.156,107.61 281.156,108.325 C281.156,109.039 280.872,109.724 280.366,110.229 L272.289,118.306 C271.239,119.358 269.533,119.359 268.481,118.307 C267.428,117.256 267.427,115.55 268.479,114.498 L271.963,111 L259.615,111 C258.187,111 256.818,111.567 255.808,112.577 C254.798,113.587 254.231,114.957 254.231,116.385 L254.231,119.077 C254.231,120.564 253.025,121.769 251.538,121.769 C250.052,121.769 248.846,120.564 248.846,119.077 L248.846,116.385 C248.846,113.528 249.981,110.789 252,108.77 C254.02,106.75 256.759,105.615 259.615,105.615 L271.963,105.615 L268.48,102.136 C267.427,101.082 267.428,99.376 268.481,98.325 C269.533,97.273 271.239,97.274 272.29,98.327 Z" />
        </g>
        <g id="Regular-S">
            <path d="M503.752,107.059 L468.941,72.248 C467.896,71.202 466.478,70.615 465,70.615 C463.522,70.615 462.104,71.202 461.059,72.248 L426.248,107.059 C425.202,108.104 424.615,109.522 424.615,111 C424.615,112.478 425.202,113.896 426.248,114.941 L461.059,149.752 L461.059,149.752 C462.104,150.798 463.522,151.385 465,151.385 C466.478,151.385 467.896,150.798 468.941,149.752 L503.752,114.941 C504.798,113.896 505.385,112.478 505.385,111 C505.385,109.522 504.798,108.104 503.752,107.059 Z M499.946,111.131 L465.135,145.946 C465.059,146.018 464.941,146.018 464.865,145.946 L464.865,145.946 L430.054,111.131 C429.983,111.058 429.983,110.942 430.054,110.869 L464.865,76.054 C464.941,75.982 465.059,75.982 465.135,76.054 L499.946,110.869 C500.017,110.942 500.017,111.058 499.946,111.131 Z M480.366,106.42 C480.872,106.925 481.156,107.61 481.156,108.325 C481.156,109.039 480.872,109.724 480.366,110.229 L472.289,118.306 C471.239,119.358 469.533,119.359 468.481,118.307 C467.428,117.256 467.427,115.55 468.479,114.498 L471.963,111 L459.615,111 C458.187,111 456.818,111.567 455.808,112.577 C454.798,113.587 454.231,114.957 454.231,116.385 L454.231,119.077 C454.231,120.564 453.025,121.769 451.538,121.769 C450.052,121.769 448.846,120.564 448.846,119.077 L448.846,116.385 C448.846,113.528 449.981,110.789 452,108.77 C454.02,106.75 456.759,105.615 459.615,105.615 L471.963,105.615 L468.48,102.136 C467.427,101.082 467.428,99.376 468.481,98.325 C469.533,97.273 471.239,97.274 472.29,98.327 Z" />
        </g>
        <g id="Black-S">
            <path d="M703.752,107.059 L668.941,72.248 C667.896,71.202 666.478,70.615 665,70.615 C663.522,70.615 662.104,71.202 661.059,72.248 L626.248,107.059 C625.202,108.104 624.615,109.522 624.615,111 C624.615,112.478 625.202,113.896 626.248,114.941 L661.059,149.752 L661.059,149.752 C662.104,150.798 663.522,151.385 665,151.385 C666.478,151.385 667.896,150.798 668.941,149.752 L703.752,114.941 C704.798,113.896 705.385,112.478 705.385,111 C705.385,109.522 704.798,108.104 703.752,107.059 Z M699.946,111.131 L665.135,145.946 C665.059,146.018 664.941,146.018 664.865,145.946 L664.865,145.946 L630.054,111.131 C629.983,111.058 629.983,110.942 630.054,110.869 L664.865,76.054 C664.941,75.982 665.059,75.982 665.135,76.054 L699.946,110.869 C700.017,110.942 700.017,111.058 699.946,111.131 Z M680.366,106.42 C680.872,106.925 681.156,107.61 681.156,108.325 C681.156,109.039 680.872,109.724 680.366,110.229 L672.289,118.306 C671.239,119.358 669.533,119.359 668.481,118.307 C667.428,117.256 667.427,115.55 668.479,114.498 L671.963,111 L659.615,111 C658.187,111 656.818,111.567 655.808,112.577 C654.798,113.587 654.231,114.957 654.231,116.385 L654.231,119.077 C654.231,120.564 653.025,121.769 651.538,121.769 C650.052,121.769 648.846,120.564 648.846,119.077 L648.846,116.385 C648.846,113.528 649.981,110.789 652,108.77 C654.02,106.75 656.759,105.615 659.615,105.615 L671.963,105.615 L668.48,102.136 C667.427,101.082 667.428,99.376 668.481,98.325 C669.533,97.273 671.239,97.274 672.291,98.327 Z" />
        </g>
    </g>
</svg>