<?xml version="1.0" encoding="UTF-8"?>
<svg height="600" width="800" xmlns="http://www.w3.org/2000/svg" xmlns:xlink="http://www.w3.org/1999/xlink">
    <g id="Notes" font-family="'LucidaGrande', 'Lucida Grande', sans-serif" font-size="13">
        <rect fill="white" height="600.0" width="800.0" x="0.0" y="0.0" />
        <g font-size="13">
            <text x="18.0" y="176.0">Small</text>
            <text x="18.0" y="376.0">Medium</text>
            <text x="18.0" y="576.0">Large</text>
        </g>
        <g font-size="9">
            <text x="250.0" y="30.0">Ultralight</text>
            <text x="450.0" y="30.0">Regular</text>
            <text x="650.0" y="30.0">Black</text>
            <text id="template-version" fill="#505050" text-anchor="end" x="785.0" y="575.0">Template v.3.0</text>
            <a href="https://github.com/swhitty/SwiftDraw">
                <text fill="#505050" text-anchor="end" x="785.0" y="590.0">https://github.com/swhitty/SwiftDraw</text>
            </a>
        </g>
    </g>
    <g id="Guides" stroke="rgb(39, 170, 225)" stroke-width="0.5">
        <path id="Capline-S" d="M18,76 l800,0" />
        <path id="H-reference" d="M85,145.755 L87.685,145.755 L113.369,79.287 L114.052,79.287 L114.052,76 L112.148,76 L85,145.755 Z M95.693,121.536 L130.996,121.536 L130.263,119.313 L96.474,119.313 L95.693,121.536 Z M139.15,145.755 L141.787,145.755 L114.638,76 L113.466,76 L113.466,79.287 L139.15,145.755 Z" stroke="none" />
        <path id="Baseline-S" d="M18,146 l800,0" />
        <path id="left-margin-Ultralight-S" d="M220,56 l0,110" />
        <path id="right-margin-Ultralight-S" d="M310,56 l0,110" />
        <path id="left-margin-Regular-S" d="M420,56 l0,110" />
        <path id="right-margin-Regular-S" d="M510,56 l0,110" />
        <path id="left-margin-Black-S" d="M620,56 l0,110" />
        <path id="right-margin-Black-S" d="M710,56 l0,110" />
        <path id="Capline-M" d="M18,276 l800,0" />
        <path id="Baseline-M" d="M18,346 l800,0" />
        <path id="Capline-L" d="M18,476 l800,0" />
        <path id="Baseline-L" d="M18,546 l800,0" />
    </g>
    <g id="Symbols">
        <g id="Ultralight-S">
            <path d="M296.746,109.617 C296.725,109.573 296.705,109.529 296.682,109.489 L286.538,91.447 L286.538,78.692 C286.538,77.264 285.971,75.895 284.961,74.885 C283.952,73.875 282.582,73.308 281.154,73.308 L248.846,73.308 C247.418,73.308 246.048,73.875 245.039,74.885 C244.029,75.895 243.462,77.264 243.462,78.692 L243.462,91.454 L233.318,109.489 C233.295,109.529 233.275,109.573 233.251,109.617 C232.355,111.421 232.545,113.574 233.742,115.193 L233.779,115.24 L262.87,153.027 C263.379,153.688 264.167,154.075 265.002,154.075 C265.836,154.075 266.624,153.688 267.134,153.027 L296.221,115.24 L296.258,115.193 C297.456,113.574 297.644,111.42 296.746,109.617 Z M281.154,78.692 L281.154,89.462 L248.846,89.462 L248.846,78.692 Z M265,116.385 C262.77,116.385 260.962,114.577 260.962,112.346 C260.962,110.116 262.77,108.308 265,108.308 C267.23,108.308 269.038,110.116 269.038,112.346 C269.038,113.417 268.613,114.444 267.856,115.202 C267.098,115.959 266.071,116.385 265,116.385 Z M267.692,143.476 L267.692,121.375 C272.176,120.039 275,115.615 274.324,110.985 C273.649,106.355 269.679,102.922 265,102.922 C260.321,102.922 256.351,106.355 255.676,110.985 C255,115.615 257.824,120.039 262.308,121.375 L262.308,143.473 L238.077,112.01 L247.732,94.846 L282.271,94.846 L291.923,112.01 Z" />
        </g>
        <g id="Regular-S">
            <path d="M496.746,109.617 C496.725,109.573 496.705,109.529 496.682,109.489 L486.538,91.447 L486.538,78.692 C486.538,77.264 485.971,75.895 484.961,74.885 C483.952,73.875 482.582,73.308 481.154,73.308 L448.846,73.308 C447.418,73.308 446.048,73.875 445.039,74.885 C444.029,75.895 443.462,77.264 443.462,78.692 L443.462,91.454 L433.318,109.489 C433.295,109.529 433.275,109.573 433.251,109.617 C432.355,111.421 432.545,113.574 433.742,115.193 L433.779,115.24 L462.87,153.027 C463.379,153.688 464.167,154.075 465.002,154.075 C465.836,154.075 466.624,153.688 467.134,153.027 L496.221,115.24 L496.258,115.193 C497.456,113.574 497.644,111.42 496.746,109.617 Z M481.154,78.692 L481.154,89.462 L448.846,89.462 L448.846,78.692 Z M465,116.385 C462.77,116.385 460.962,114.577 460.962,112.346 C460.962,110.116 462.77,108.308 465,108.308 C467.23,108.308 469.038,110.116 469.038,112.346 C469.038,113.417 468.613,114.444 467.856,115.202 C467.098,115.959 466.071,116.385 465,116.385 Z M467.692,143.476 L467.692,121.375 C472.176,120.039 475,115.615 474.324,110.985 C473.649,106.355 469.679,102.922 465,102.922 C460.321,102.922 456.351,106.355 455.676,110.985 C455,115.615 457.824,120.039 462.308,121.375 L462.308,143.473 L438.077,112.01 L447.732,94.846 L482.271,94.846 L491.923,112.01 Z" />
        </g>
        <g id="Black-S">
            <path d="M696.746,109.617 C696.726,109.573 696.705,109.529 696.682,109.489 L686.538,91.447 L686.538,78.692 C686.538,77.264 685.971,75.895 684.961,74.885 C683.952,73.875 682.582,73.308 681.154,73.308 L648.846,73.308 C647.418,73.308 646.048,73.875 645.039,74.885 C644.029,75.895 643.462,77.264 643.462,78.692 L643.462,91.454 L633.318,109.489 C633.295,109.529 633.275,109.573 633.251,109.617 C632.355,111.421 632.545,113.574 633.742,115.193 L633.779,115.24 L662.87,153.027 C663.379,153.688 664.167,154.075 665.002,154.075 C665.836,154.075 666.624,153.688 667.134,153.027 L696.221,115.24 L696.258,115.193 C697.456,113.574 697.644,111.42 696.746,109.617 Z M681.154,78.692 L681.154,89.462 L648.846,89.462 L648.846,78.692 Z M665,116.385 C662.77,116.385 660.962,114.577 660.962,112.346 C660.962,110.116 662.77,108.308 665,108.308 C667.23,108.308 669.038,110.116 669.038,112.346 C669.038,113.417 668.613,114.444 667.856,115.202 C667.098,115.959 666.071,116.385 665,116.385 Z M667.692,143.476 L667.692,121.375 C672.176,120.039 675,115.615 674.324,110.985 C673.649,106.355 669.679,102.922 665,102.922 C660.321,102.922 656.351,106.355 655.676,110.985 C655,115.615 657.824,120.039 662.308,121.375 L662.308,143.473 L638.077,112.01 L647.732,94.846 L682.271,94.846 L691.923,112.01 Z" />
        </g>
    </g>
</svg>