<?xml version="1.0" encoding="UTF-8"?>
<svg height="600" width="800" xmlns="http://www.w3.org/2000/svg" xmlns:xlink="http://www.w3.org/1999/xlink">
    <g id="Notes" font-family="'LucidaGrande', 'Lucida Grande', sans-serif" font-size="13">
        <rect fill="white" height="600.0" width="800.0" x="0.0" y="0.0" />
        <g font-size="13">
            <text x="18.0" y="176.0">Small</text>
            <text x="18.0" y="376.0">Medium</text>
            <text x="18.0" y="576.0">Large</text>
        </g>
        <g font-size="9">
            <text x="250.0" y="30.0">Ultralight</text>
            <text x="450.0" y="30.0">Regular</text>
            <text x="650.0" y="30.0">Black</text>
            <text id="template-version" fill="#505050" text-anchor="end" x="785.0" y="575.0">Template v.3.0</text>
            <a href="https://github.com/swhitty/SwiftDraw">
                <text fill="#505050" text-anchor="end" x="785.0" y="590.0">https://github.com/swhitty/SwiftDraw</text>
            </a>
        </g>
    </g>
    <g id="Guides" stroke="rgb(39, 170, 225)" stroke-width="0.5">
        <path id="Capline-S" d="M18,76 l800,0" />
        <path id="H-reference" d="M85,145.755 L87.685,145.755 L113.369,79.287 L114.052,79.287 L114.052,76 L112.148,76 L85,145.755 Z M95.693,121.536 L130.996,121.536 L130.263,119.313 L96.474,119.313 L95.693,121.536 Z M139.15,145.755 L141.787,145.755 L114.638,76 L113.466,76 L113.466,79.287 L139.15,145.755 Z" stroke="none" />
        <path id="Baseline-S" d="M18,146 l800,0" />
        <path id="left-margin-Ultralight-S" d="M220,56 l0,110" />
        <path id="right-margin-Ultralight-S" d="M310,56 l0,110" />
        <path id="left-margin-Regular-S" d="M420,56 l0,110" />
        <path id="right-margin-Regular-S" d="M510,56 l0,110" />
        <path id="left-margin-Black-S" d="M620,56 l0,110" />
        <path id="right-margin-Black-S" d="M710,56 l0,110" />
        <path id="Capline-M" d="M18,276 l800,0" />
        <path id="Baseline-M" d="M18,346 l800,0" />
        <path id="Capline-L" d="M18,476 l800,0" />
        <path id="Baseline-L" d="M18,546 l800,0" />
    </g>
    <g id="Symbols">
        <g id="Ultralight-S">
            <path d="M275.769,81.385 C275.769,75.437 270.948,70.615 265,70.615 C259.052,70.615 254.231,75.437 254.231,81.385 C254.231,87.332 259.052,92.154 265,92.154 C267.856,92.154 270.595,91.019 272.615,89 C274.635,86.98 275.769,84.241 275.769,81.385 Z M265,86.769 C262.026,86.769 259.615,84.358 259.615,81.385 C259.615,78.411 262.026,76 265,76 C267.974,76 270.385,78.411 270.385,81.385 C270.385,82.813 269.817,84.182 268.807,85.192 C267.798,86.202 266.428,86.769 265,86.769 Z M295.403,113.036 L280.201,95.799 C278.157,93.481 275.215,92.154 272.125,92.154 L257.875,92.154 C254.785,92.154 251.843,93.481 249.799,95.799 L234.597,113.036 C232.029,115.663 232.041,119.864 234.625,122.476 C237.209,125.087 241.41,125.144 244.064,122.604 L249.55,118.202 L243.983,139.363 C242.449,142.759 243.954,146.748 247.343,148.28 C250.732,149.811 254.721,148.306 256.253,144.917 L265.003,129.816 L273.753,144.917 C275.354,148.185 279.264,149.589 282.578,148.085 C285.893,146.581 287.411,142.715 286.006,139.357 L280.451,118.202 L285.936,122.604 C288.59,125.144 292.791,125.087 295.375,122.476 C297.959,119.864 297.971,115.663 295.403,113.036 Z M291.529,118.68 C291.277,118.933 290.934,119.075 290.577,119.075 C290.22,119.075 289.877,118.933 289.625,118.68 C289.554,118.613 289.483,118.545 289.406,118.485 L277.452,108.9 C276.547,108.178 275.282,108.115 274.31,108.743 C273.338,109.372 272.877,110.552 273.164,111.673 L280.864,140.952 C280.904,141.108 280.958,141.26 281.026,141.406 C281.237,141.843 281.197,142.36 280.92,142.759 C280.644,143.158 280.174,143.378 279.69,143.333 C279.207,143.288 278.785,142.987 278.586,142.544 C278.553,142.471 278.516,142.4 278.475,142.332 L267.329,123.115 C266.847,122.285 265.96,121.774 265,121.774 C264.04,121.774 263.153,122.285 262.671,123.115 L251.538,142.315 C251.497,142.383 251.46,142.454 251.427,142.527 C251.276,142.851 251.003,143.102 250.667,143.224 C250.155,143.411 249.58,143.271 249.212,142.87 C248.843,142.468 248.753,141.883 248.984,141.389 C249.052,141.243 249.106,141.091 249.146,140.935 L256.836,111.673 C257.123,110.552 256.662,109.372 255.69,108.743 C254.718,108.115 253.453,108.178 252.548,108.9 L240.594,118.485 C240.517,118.545 240.446,118.613 240.375,118.68 C240.039,119.035 239.536,119.179 239.063,119.057 C238.589,118.935 238.219,118.565 238.096,118.092 C237.973,117.618 238.116,117.116 238.471,116.778 C238.511,116.738 238.548,116.698 238.585,116.654 L253.837,99.359 C254.86,98.201 256.33,97.538 257.875,97.538 L272.125,97.538 C273.67,97.538 275.14,98.201 276.163,99.359 L291.415,116.654 C291.452,116.698 291.489,116.738 291.529,116.778 C292.054,117.304 292.053,118.154 291.529,118.68 Z" />
        </g>
        <g id="Regular-S">
            <path d="M475.769,81.385 C475.769,75.437 470.948,70.615 465,70.615 C459.052,70.615 454.231,75.437 454.231,81.385 C454.231,87.332 459.052,92.154 465,92.154 C467.856,92.154 470.595,91.019 472.615,89 C474.635,86.98 475.769,84.241 475.769,81.385 Z M465,86.769 C462.026,86.769 459.615,84.358 459.615,81.385 C459.615,78.411 462.026,76 465,76 C467.974,76 470.385,78.411 470.385,81.385 C470.385,82.813 469.817,84.182 468.807,85.192 C467.798,86.202 466.428,86.769 465,86.769 Z M495.403,113.036 L480.201,95.799 C478.157,93.481 475.215,92.154 472.125,92.154 L457.875,92.154 C454.785,92.154 451.843,93.481 449.799,95.799 L434.597,113.036 C432.029,115.663 432.041,119.864 434.625,122.476 C437.209,125.087 441.41,125.144 444.064,122.604 L449.549,118.202 L443.983,139.363 C442.449,142.759 443.954,146.748 447.343,148.28 C450.732,149.811 454.721,148.306 456.253,144.917 L465.003,129.816 L473.753,144.917 C475.354,148.185 479.264,149.589 482.578,148.085 C485.893,146.581 487.411,142.715 486.006,139.357 L480.45,118.202 L485.936,122.604 C488.59,125.144 492.791,125.087 495.375,122.476 C497.959,119.864 497.971,115.663 495.403,113.036 Z M491.529,118.68 C491.277,118.933 490.934,119.075 490.577,119.075 C490.22,119.075 489.877,118.933 489.625,118.68 C489.554,118.613 489.483,118.545 489.406,118.485 L477.452,108.9 C476.547,108.178 475.282,108.115 474.31,108.743 C473.338,109.372 472.877,110.552 473.164,111.673 L480.864,140.952 C480.904,141.108 480.958,141.26 481.026,141.406 C481.237,141.843 481.197,142.36 480.92,142.759 C480.644,143.158 480.174,143.378 479.69,143.333 C479.207,143.288 478.785,142.987 478.586,142.544 C478.553,142.471 478.516,142.4 478.475,142.332 L467.329,123.115 C466.847,122.285 465.96,121.774 465,121.774 C464.04,121.774 463.153,122.285 462.671,123.115 L451.538,142.315 C451.497,142.383 451.46,142.454 451.427,142.527 C451.276,142.851 451.003,143.102 450.667,143.224 C450.155,143.411 449.58,143.271 449.212,142.87 C448.843,142.468 448.753,141.883 448.984,141.389 C449.052,141.243 449.106,141.091 449.146,140.935 L456.836,111.673 C457.123,110.552 456.662,109.372 455.69,108.743 C454.718,108.115 453.453,108.178 452.548,108.9 L440.594,118.485 C440.517,118.545 440.446,118.613 440.375,118.68 C440.039,119.035 439.536,119.179 439.063,119.057 C438.589,118.935 438.219,118.565 438.096,118.092 C437.973,117.618 438.116,117.116 438.471,116.778 C438.511,116.738 438.548,116.698 438.585,116.654 L453.837,99.359 C454.86,98.201 456.33,97.538 457.875,97.538 L472.125,97.538 C473.67,97.538 475.14,98.201 476.163,99.359 L491.415,116.654 C491.452,116.698 491.489,116.738 491.529,116.778 C492.053,117.304 492.053,118.154 491.529,118.68 Z" />
        </g>
        <g id="Black-S">
            <path d="M675.769,81.385 C675.769,75.437 670.948,70.615 665,70.615 C659.052,70.615 654.231,75.437 654.231,81.385 C654.231,87.332 659.052,92.154 665,92.154 C667.856,92.154 670.595,91.019 672.615,89 C674.635,86.98 675.769,84.241 675.769,81.385 Z M665,86.769 C662.026,86.769 659.615,84.358 659.615,81.385 C659.615,78.411 662.026,76 665,76 C667.974,76 670.385,78.411 670.385,81.385 C670.385,82.813 669.817,84.182 668.807,85.192 C667.798,86.202 666.428,86.769 665,86.769 Z M695.403,113.036 L680.201,95.799 C678.157,93.481 675.215,92.154 672.125,92.154 L657.875,92.154 C654.785,92.154 651.843,93.481 649.799,95.799 L634.597,113.036 C632.029,115.663 632.041,119.864 634.625,122.476 C637.209,125.087 641.41,125.144 644.064,122.604 L649.55,118.202 L643.983,139.363 C642.449,142.759 643.954,146.748 647.343,148.28 C650.732,149.811 654.721,148.306 656.253,144.917 L665.003,129.816 L673.753,144.917 C675.354,148.185 679.264,149.589 682.578,148.085 C685.893,146.581 687.411,142.715 686.006,139.357 L680.451,118.202 L685.936,122.604 C688.59,125.144 692.791,125.087 695.375,122.476 C697.959,119.864 697.971,115.663 695.403,113.036 Z M691.529,118.68 C691.277,118.933 690.934,119.075 690.577,119.075 C690.22,119.075 689.877,118.933 689.625,118.68 C689.554,118.613 689.483,118.545 689.406,118.485 L677.452,108.9 C676.547,108.178 675.282,108.115 674.31,108.743 C673.338,109.372 672.877,110.552 673.164,111.673 L680.864,140.952 C680.904,141.108 680.958,141.26 681.026,141.406 C681.237,141.843 681.197,142.36 680.92,142.759 C680.644,143.158 680.174,143.378 679.69,143.333 C679.207,143.288 678.785,142.987 678.586,142.544 C678.553,142.471 678.516,142.4 678.475,142.332 L667.329,123.115 C666.847,122.285 665.96,121.774 665,121.774 C664.04,121.774 663.153,122.285 662.671,123.115 L651.538,142.315 C651.497,142.383 651.46,142.454 651.427,142.527 C651.276,142.851 651.003,143.102 650.667,143.224 C650.155,143.411 649.58,143.271 649.212,142.87 C648.843,142.468 648.753,141.883 648.984,141.389 C649.052,141.243 649.106,141.091 649.146,140.935 L656.836,111.673 C657.123,110.552 656.662,109.372 655.69,108.743 C654.718,108.115 653.453,108.178 652.548,108.9 L640.594,118.485 C640.517,118.545 640.446,118.613 640.375,118.68 C640.039,119.035 639.536,119.179 639.063,119.057 C638.589,118.935 638.219,118.565 638.096,118.092 C637.973,117.618 638.116,117.116 638.471,116.778 C638.511,116.738 638.548,116.698 638.585,116.654 L653.837,99.359 C654.86,98.201 656.331,97.538 657.875,97.538 L672.125,97.538 C673.67,97.538 675.14,98.201 676.163,99.359 L691.415,116.654 C691.452,116.698 691.489,116.738 691.529,116.778 C692.054,117.304 692.054,118.154 691.529,118.68 Z" />
        </g>
    </g>
</svg>