<?xml version="1.0" encoding="UTF-8"?>
<svg height="600" width="800" xmlns="http://www.w3.org/2000/svg" xmlns:xlink="http://www.w3.org/1999/xlink">
    <g id="Notes" font-family="'LucidaGrande', 'Lucida Grande', sans-serif" font-size="13">
        <rect fill="white" height="600.0" width="800.0" x="0.0" y="0.0" />
        <g font-size="13">
            <text x="18.0" y="176.0">Small</text>
            <text x="18.0" y="376.0">Medium</text>
            <text x="18.0" y="576.0">Large</text>
        </g>
        <g font-size="9">
            <text x="250.0" y="30.0">Ultralight</text>
            <text x="450.0" y="30.0">Regular</text>
            <text x="650.0" y="30.0">Black</text>
            <text id="template-version" fill="#505050" text-anchor="end" x="785.0" y="575.0">Template v.3.0</text>
            <a href="https://github.com/swhitty/SwiftDraw">
                <text fill="#505050" text-anchor="end" x="785.0" y="590.0">https://github.com/swhitty/SwiftDraw</text>
            </a>
        </g>
    </g>
    <g id="Guides" stroke="rgb(39, 170, 225)" stroke-width="0.5">
        <path id="Capline-S" d="M18,76 l800,0" />
        <path id="H-reference" d="M85,145.755 L87.685,145.755 L113.369,79.287 L114.052,79.287 L114.052,76 L112.148,76 L85,145.755 Z M95.693,121.536 L130.996,121.536 L130.263,119.313 L96.474,119.313 L95.693,121.536 Z M139.15,145.755 L141.787,145.755 L114.638,76 L113.466,76 L113.466,79.287 L139.15,145.755 Z" stroke="none" />
        <path id="Baseline-S" d="M18,146 l800,0" />
        <path id="left-margin-Ultralight-S" d="M220,56 l0,110" />
        <path id="right-margin-Ultralight-S" d="M310,56 l0,110" />
        <path id="left-margin-Regular-S" d="M420,56 l0,110" />
        <path id="right-margin-Regular-S" d="M510,56 l0,110" />
        <path id="left-margin-Black-S" d="M620,56 l0,110" />
        <path id="right-margin-Black-S" d="M710,56 l0,110" />
        <path id="Capline-M" d="M18,276 l800,0" />
        <path id="Baseline-M" d="M18,346 l800,0" />
        <path id="Capline-L" d="M18,476 l800,0" />
        <path id="Baseline-L" d="M18,546 l800,0" />
    </g>
    <g id="Symbols">
        <g id="Ultralight-S">
            <path d="M283.846,89.462 L235.385,89.462 C234.671,89.462 233.986,89.745 233.481,90.25 C232.976,90.755 232.692,91.44 232.692,92.154 L232.692,140.615 C232.692,141.329 232.976,142.014 233.481,142.519 C233.986,143.024 234.671,143.308 235.385,143.308 L283.846,143.308 C284.56,143.308 285.245,143.024 285.75,142.519 C286.255,142.014 286.538,141.329 286.538,140.615 L286.538,92.154 C286.538,91.44 286.255,90.755 285.75,90.25 C285.245,89.745 284.56,89.462 283.846,89.462 Z M281.154,137.923 L238.077,137.923 L238.077,94.846 L281.154,94.846 Z M297.308,81.385 L297.308,129.846 C297.308,131.333 296.102,132.538 294.615,132.538 C293.128,132.538 291.923,131.333 291.923,129.846 L291.923,84.077 L246.154,84.077 C244.667,84.077 243.462,82.872 243.462,81.385 C243.462,79.898 244.667,78.692 246.154,78.692 L294.615,78.692 C295.329,78.692 296.014,78.976 296.519,79.481 C297.024,79.986 297.308,80.671 297.308,81.385 Z" />
        </g>
        <g id="Regular-S">
            <path d="M483.846,89.462 L435.385,89.462 C434.671,89.462 433.986,89.745 433.481,90.25 C432.976,90.755 432.692,91.44 432.692,92.154 L432.692,140.615 C432.692,141.329 432.976,142.014 433.481,142.519 C433.986,143.024 434.671,143.308 435.385,143.308 L483.846,143.308 C484.56,143.308 485.245,143.024 485.75,142.519 C486.255,142.014 486.538,141.329 486.538,140.615 L486.538,92.154 C486.538,91.44 486.255,90.755 485.75,90.25 C485.245,89.745 484.56,89.462 483.846,89.462 Z M481.154,137.923 L438.077,137.923 L438.077,94.846 L481.154,94.846 Z M497.308,81.385 L497.308,129.846 C497.308,131.333 496.102,132.538 494.615,132.538 C493.128,132.538 491.923,131.333 491.923,129.846 L491.923,84.077 L446.154,84.077 C444.667,84.077 443.462,82.872 443.462,81.385 C443.462,79.898 444.667,78.692 446.154,78.692 L494.615,78.692 C495.329,78.692 496.014,78.976 496.519,79.481 C497.024,79.986 497.308,80.671 497.308,81.385 Z" />
        </g>
        <g id="Black-S">
            <path d="M683.846,89.462 L635.385,89.462 C634.671,89.462 633.986,89.745 633.481,90.25 C632.976,90.755 632.692,91.44 632.692,92.154 L632.692,140.615 C632.692,141.329 632.976,142.014 633.481,142.519 C633.986,143.024 634.671,143.308 635.385,143.308 L683.846,143.308 C684.56,143.308 685.245,143.024 685.75,142.519 C686.255,142.014 686.538,141.329 686.538,140.615 L686.538,92.154 C686.538,91.44 686.255,90.755 685.75,90.25 C685.245,89.745 684.56,89.462 683.846,89.462 Z M681.154,137.923 L638.077,137.923 L638.077,94.846 L681.154,94.846 Z M697.308,81.385 L697.308,129.846 C697.308,131.333 696.102,132.538 694.615,132.538 C693.128,132.538 691.923,131.333 691.923,129.846 L691.923,84.077 L646.154,84.077 C644.667,84.077 643.462,82.872 643.462,81.385 C643.462,79.898 644.667,78.692 646.154,78.692 L694.615,78.692 C695.329,78.692 696.014,78.976 696.519,79.481 C697.024,79.986 697.308,80.671 697.308,81.385 Z" />
        </g>
    </g>
</svg>