<?xml version="1.0" encoding="UTF-8"?>
<svg height="600" width="800" xmlns="http://www.w3.org/2000/svg" xmlns:xlink="http://www.w3.org/1999/xlink">
    <g id="Notes" font-family="'LucidaGrande', 'Lucida Grande', sans-serif" font-size="13">
        <rect fill="white" height="600.0" width="800.0" x="0.0" y="0.0" />
        <g font-size="13">
            <text x="18.0" y="176.0">Small</text>
            <text x="18.0" y="376.0">Medium</text>
            <text x="18.0" y="576.0">Large</text>
        </g>
        <g font-size="9">
            <text x="250.0" y="30.0">Ultralight</text>
            <text x="450.0" y="30.0">Regular</text>
            <text x="650.0" y="30.0">Black</text>
            <text id="template-version" fill="#505050" text-anchor="end" x="785.0" y="575.0">Template v.3.0</text>
            <a href="https://github.com/swhitty/SwiftDraw">
                <text fill="#505050" text-anchor="end" x="785.0" y="590.0">https://github.com/swhitty/SwiftDraw</text>
            </a>
        </g>
    </g>
    <g id="Guides" stroke="rgb(39, 170, 225)" stroke-width="0.5">
        <path id="Capline-S" d="M18,76 l800,0" />
        <path id="H-reference" d="M85,145.755 L87.685,145.755 L113.369,79.287 L114.052,79.287 L114.052,76 L112.148,76 L85,145.755 Z M95.693,121.536 L130.996,121.536 L130.263,119.313 L96.474,119.313 L95.693,121.536 Z M139.15,145.755 L141.787,145.755 L114.638,76 L113.466,76 L113.466,79.287 L139.15,145.755 Z" stroke="none" />
        <path id="Baseline-S" d="M18,146 l800,0" />
        <path id="left-margin-Ultralight-S" d="M220,56 l0,110" />
        <path id="right-margin-Ultralight-S" d="M310,56 l0,110" />
        <path id="left-margin-Regular-S" d="M420,56 l0,110" />
        <path id="right-margin-Regular-S" d="M510,56 l0,110" />
        <path id="left-margin-Black-S" d="M620,56 l0,110" />
        <path id="right-margin-Black-S" d="M710,56 l0,110" />
        <path id="Capline-M" d="M18,276 l800,0" />
        <path id="Baseline-M" d="M18,346 l800,0" />
        <path id="Capline-L" d="M18,476 l800,0" />
        <path id="Baseline-L" d="M18,546 l800,0" />
    </g>
    <g id="Symbols">
        <g id="Ultralight-S">
            <path d="M243.462,147.346 C243.462,149.577 241.653,151.385 239.423,151.385 C237.193,151.385 235.385,149.577 235.385,147.346 C235.385,145.116 237.193,143.308 239.423,143.308 C240.494,143.308 241.521,143.733 242.279,144.491 C243.036,145.248 243.462,146.275 243.462,147.346 Z M250.192,132.538 C247.962,132.538 246.154,134.347 246.154,136.577 C246.154,138.807 247.962,140.615 250.192,140.615 C252.423,140.615 254.231,138.807 254.231,136.577 C254.231,135.506 253.805,134.479 253.048,133.721 C252.291,132.964 251.263,132.538 250.192,132.538 Z M228.654,132.538 C226.423,132.538 224.615,134.347 224.615,136.577 C224.615,138.807 226.423,140.615 228.654,140.615 C230.884,140.615 232.692,138.807 232.692,136.577 C232.692,135.506 232.267,134.479 231.509,133.721 C230.752,132.964 229.725,132.538 228.654,132.538 Z M239.423,121.769 C237.193,121.769 235.385,123.577 235.385,125.808 C235.385,128.038 237.193,129.846 239.423,129.846 C241.653,129.846 243.462,128.038 243.462,125.808 C243.462,124.737 243.036,123.709 242.279,122.952 C241.521,122.195 240.494,121.769 239.423,121.769 Z M308.077,81.385 C308.077,82.099 307.793,82.783 307.288,83.288 C306.783,83.793 306.099,84.077 305.385,84.077 L295.729,84.077 L286.357,93.453 L279.067,136.123 C278.733,138.11 277.317,139.744 275.397,140.358 C273.477,140.971 271.376,140.462 269.951,139.037 L236.97,106.056 C235.543,104.63 235.033,102.525 235.649,100.604 C236.265,98.682 237.904,97.267 239.894,96.936 L282.547,89.643 L292.711,79.48 C293.216,78.975 293.901,78.692 294.615,78.692 L305.385,78.692 C306.872,78.692 308.077,79.898 308.077,81.385 Z M280.551,95.449 L240.769,102.25 L273.75,135.231 Z" />
        </g>
        <g id="Regular-S">
            <path d="M443.462,147.346 C443.462,149.577 441.653,151.385 439.423,151.385 C437.193,151.385 435.385,149.577 435.385,147.346 C435.385,145.116 437.193,143.308 439.423,143.308 C440.494,143.308 441.521,143.733 442.279,144.491 C443.036,145.248 443.462,146.275 443.462,147.346 Z M450.192,132.538 C447.962,132.538 446.154,134.347 446.154,136.577 C446.154,138.807 447.962,140.615 450.192,140.615 C452.423,140.615 454.231,138.807 454.231,136.577 C454.231,135.506 453.805,134.479 453.048,133.721 C452.291,132.964 451.263,132.538 450.192,132.538 Z M428.654,132.538 C426.423,132.538 424.615,134.347 424.615,136.577 C424.615,138.807 426.423,140.615 428.654,140.615 C430.884,140.615 432.692,138.807 432.692,136.577 C432.692,135.506 432.267,134.479 431.509,133.721 C430.752,132.964 429.725,132.538 428.654,132.538 Z M439.423,121.769 C437.193,121.769 435.385,123.577 435.385,125.808 C435.385,128.038 437.193,129.846 439.423,129.846 C441.653,129.846 443.462,128.038 443.462,125.808 C443.462,124.737 443.036,123.709 442.279,122.952 C441.521,122.195 440.494,121.769 439.423,121.769 Z M508.077,81.385 C508.077,82.099 507.793,82.783 507.288,83.288 C506.783,83.793 506.099,84.077 505.385,84.077 L495.729,84.077 L486.357,93.453 L479.067,136.123 C478.733,138.11 477.317,139.744 475.397,140.358 C473.477,140.971 471.376,140.462 469.95,139.037 L436.97,106.056 C435.543,104.63 435.033,102.525 435.649,100.604 C436.265,98.682 437.904,97.267 439.894,96.936 L482.547,89.643 L492.711,79.48 C493.216,78.975 493.901,78.692 494.615,78.692 L505.385,78.692 C506.872,78.692 508.077,79.898 508.077,81.385 Z M480.551,95.449 L440.769,102.25 L473.75,135.231 Z" />
        </g>
        <g id="Black-S">
            <path d="M643.462,147.346 C643.462,149.577 641.654,151.385 639.423,151.385 C637.193,151.385 635.385,149.577 635.385,147.346 C635.385,145.116 637.193,143.308 639.423,143.308 C640.494,143.308 641.521,143.733 642.279,144.491 C643.036,145.248 643.462,146.275 643.462,147.346 Z M650.192,132.538 C647.962,132.538 646.154,134.347 646.154,136.577 C646.154,138.807 647.962,140.615 650.192,140.615 C652.423,140.615 654.231,138.807 654.231,136.577 C654.231,135.506 653.805,134.479 653.048,133.721 C652.291,132.964 651.263,132.538 650.192,132.538 Z M628.654,132.538 C626.423,132.538 624.615,134.347 624.615,136.577 C624.615,138.807 626.423,140.615 628.654,140.615 C630.884,140.615 632.692,138.807 632.692,136.577 C632.692,135.506 632.267,134.479 631.509,133.721 C630.752,132.964 629.725,132.538 628.654,132.538 Z M639.423,121.769 C637.193,121.769 635.385,123.577 635.385,125.808 C635.385,128.038 637.193,129.846 639.423,129.846 C641.654,129.846 643.462,128.038 643.462,125.808 C643.462,124.737 643.036,123.709 642.279,122.952 C641.521,122.195 640.494,121.769 639.423,121.769 Z M708.077,81.385 C708.077,82.099 707.793,82.783 707.288,83.288 C706.783,83.793 706.099,84.077 705.385,84.077 L695.729,84.077 L686.357,93.453 L679.067,136.123 C678.733,138.11 677.317,139.744 675.397,140.358 C673.477,140.971 671.376,140.462 669.951,139.037 L636.97,106.056 C635.543,104.63 635.033,102.525 635.649,100.604 C636.265,98.682 637.904,97.267 639.894,96.936 L682.547,89.643 L692.711,79.48 C693.216,78.975 693.901,78.692 694.615,78.692 L705.385,78.692 C706.872,78.692 708.077,79.898 708.077,81.385 Z M680.551,95.449 L640.769,102.25 L673.75,135.231 Z" />
        </g>
    </g>
</svg>