<?xml version="1.0" encoding="UTF-8"?>
<svg height="600" width="800" xmlns="http://www.w3.org/2000/svg" xmlns:xlink="http://www.w3.org/1999/xlink">
    <g id="Notes" font-family="'LucidaGrande', 'Lucida Grande', sans-serif" font-size="13">
        <rect fill="white" height="600.0" width="800.0" x="0.0" y="0.0" />
        <g font-size="13">
            <text x="18.0" y="176.0">Small</text>
            <text x="18.0" y="376.0">Medium</text>
            <text x="18.0" y="576.0">Large</text>
        </g>
        <g font-size="9">
            <text x="250.0" y="30.0">Ultralight</text>
            <text x="450.0" y="30.0">Regular</text>
            <text x="650.0" y="30.0">Black</text>
            <text id="template-version" fill="#505050" text-anchor="end" x="785.0" y="575.0">Template v.3.0</text>
            <a href="https://github.com/swhitty/SwiftDraw">
                <text fill="#505050" text-anchor="end" x="785.0" y="590.0">https://github.com/swhitty/SwiftDraw</text>
            </a>
        </g>
    </g>
    <g id="Guides" stroke="rgb(39, 170, 225)" stroke-width="0.5">
        <path id="Capline-S" d="M18,76 l800,0" />
        <path id="H-reference" d="M85,145.755 L87.685,145.755 L113.369,79.287 L114.052,79.287 L114.052,76 L112.148,76 L85,145.755 Z M95.693,121.536 L130.996,121.536 L130.263,119.313 L96.474,119.313 L95.693,121.536 Z M139.15,145.755 L141.787,145.755 L114.638,76 L113.466,76 L113.466,79.287 L139.15,145.755 Z" stroke="none" />
        <path id="Baseline-S" d="M18,146 l800,0" />
        <path id="left-margin-Ultralight-S" d="M220,56 l0,110" />
        <path id="right-margin-Ultralight-S" d="M310,56 l0,110" />
        <path id="left-margin-Regular-S" d="M420,56 l0,110" />
        <path id="right-margin-Regular-S" d="M510,56 l0,110" />
        <path id="left-margin-Black-S" d="M620,56 l0,110" />
        <path id="right-margin-Black-S" d="M710,56 l0,110" />
        <path id="Capline-M" d="M18,276 l800,0" />
        <path id="Baseline-M" d="M18,346 l800,0" />
        <path id="Capline-L" d="M18,476 l800,0" />
        <path id="Baseline-L" d="M18,546 l800,0" />
    </g>
    <g id="Symbols">
        <g id="Ultralight-S">
            <path d="M265,76 C245.67,76 230,91.67 230,111 C230,130.33 245.67,146 265,146 C284.33,146 300,130.33 300,111 C299.979,91.677 284.32,76.02 264.999,76 Z M267.692,140.491 L267.692,129.846 C267.692,128.359 266.487,127.154 265,127.154 C263.513,127.154 262.308,128.359 262.308,129.846 L262.308,140.491 C248.088,139.174 236.826,127.912 235.509,113.692 L246.154,113.692 C247.641,113.692 248.846,112.487 248.846,111 C248.846,109.513 247.641,108.308 246.154,108.308 L235.509,108.308 C236.826,94.088 248.088,82.826 262.308,81.509 L262.308,92.154 C262.308,93.641 263.513,94.846 265,94.846 C266.487,94.846 267.692,93.641 267.692,92.154 L267.692,81.509 C281.912,82.826 293.174,94.088 294.491,108.308 L283.846,108.308 C282.36,108.309 281.156,109.514 281.156,111 C281.156,112.486 282.36,113.691 283.846,113.692 L294.491,113.692 C293.174,127.912 281.912,139.174 267.692,140.491 Z" />
        </g>
        <g id="Regular-S">
            <path d="M465,76 C445.67,76 430,91.67 430,111 C430,130.33 445.67,146 465,146 C484.33,146 500,130.33 500,111 C499.979,91.677 484.32,76.02 464.999,76 Z M467.692,140.491 L467.692,129.846 C467.692,128.359 466.487,127.154 465,127.154 C463.513,127.154 462.308,128.359 462.308,129.846 L462.308,140.491 C448.088,139.174 436.826,127.912 435.509,113.692 L446.154,113.692 C447.641,113.692 448.846,112.487 448.846,111 C448.846,109.513 447.641,108.308 446.154,108.308 L435.509,108.308 C436.826,94.088 448.088,82.826 462.308,81.509 L462.308,92.154 C462.308,93.641 463.513,94.846 465,94.846 C466.487,94.846 467.692,93.641 467.692,92.154 L467.692,81.509 C481.912,82.826 493.174,94.088 494.491,108.308 L483.846,108.308 C482.36,108.309 481.156,109.514 481.156,111 C481.156,112.486 482.36,113.691 483.846,113.692 L494.491,113.692 C493.174,127.912 481.912,139.174 467.692,140.491 Z" />
        </g>
        <g id="Black-S">
            <path d="M665,76 C645.67,76 630,91.67 630,111 C630,130.33 645.67,146 665,146 C684.33,146 700,130.33 700,111 C699.979,91.677 684.32,76.02 664.999,76 Z M667.692,140.491 L667.692,129.846 C667.692,128.359 666.487,127.154 665,127.154 C663.513,127.154 662.308,128.359 662.308,129.846 L662.308,140.491 C648.088,139.174 636.826,127.912 635.509,113.692 L646.154,113.692 C647.641,113.692 648.846,112.487 648.846,111 C648.846,109.513 647.641,108.308 646.154,108.308 L635.509,108.308 C636.826,94.088 648.088,82.826 662.308,81.509 L662.308,92.154 C662.308,93.641 663.513,94.846 665,94.846 C666.487,94.846 667.692,93.641 667.692,92.154 L667.692,81.509 C681.912,82.826 693.174,94.088 694.491,108.308 L683.846,108.308 C682.36,108.309 681.156,109.514 681.156,111 C681.156,112.486 682.36,113.691 683.846,113.692 L694.491,113.692 C693.174,127.912 681.912,139.174 667.692,140.491 Z" />
        </g>
    </g>
</svg>