<?xml version="1.0" encoding="UTF-8"?>
<svg height="600" width="800" xmlns="http://www.w3.org/2000/svg" xmlns:xlink="http://www.w3.org/1999/xlink">
    <g id="Notes" font-family="'LucidaGrande', 'Lucida Grande', sans-serif" font-size="13">
        <rect fill="white" height="600.0" width="800.0" x="0.0" y="0.0" />
        <g font-size="13">
            <text x="18.0" y="176.0">Small</text>
            <text x="18.0" y="376.0">Medium</text>
            <text x="18.0" y="576.0">Large</text>
        </g>
        <g font-size="9">
            <text x="250.0" y="30.0">Ultralight</text>
            <text x="450.0" y="30.0">Regular</text>
            <text x="650.0" y="30.0">Black</text>
            <text id="template-version" fill="#505050" text-anchor="end" x="785.0" y="575.0">Template v.3.0</text>
            <a href="https://github.com/swhitty/SwiftDraw">
                <text fill="#505050" text-anchor="end" x="785.0" y="590.0">https://github.com/swhitty/SwiftDraw</text>
            </a>
        </g>
    </g>
    <g id="Guides" stroke="rgb(39, 170, 225)" stroke-width="0.5">
        <path id="Capline-S" d="M18,76 l800,0" />
        <path id="H-reference" d="M85,145.755 L87.685,145.755 L113.369,79.287 L114.052,79.287 L114.052,76 L112.148,76 L85,145.755 Z M95.693,121.536 L130.996,121.536 L130.263,119.313 L96.474,119.313 L95.693,121.536 Z M139.15,145.755 L141.787,145.755 L114.638,76 L113.466,76 L113.466,79.287 L139.15,145.755 Z" stroke="none" />
        <path id="Baseline-S" d="M18,146 l800,0" />
        <path id="left-margin-Ultralight-S" d="M220,56 l0,110" />
        <path id="right-margin-Ultralight-S" d="M310,56 l0,110" />
        <path id="left-margin-Regular-S" d="M420,56 l0,110" />
        <path id="right-margin-Regular-S" d="M510,56 l0,110" />
        <path id="left-margin-Black-S" d="M620,56 l0,110" />
        <path id="right-margin-Black-S" d="M710,56 l0,110" />
        <path id="Capline-M" d="M18,276 l800,0" />
        <path id="Baseline-M" d="M18,346 l800,0" />
        <path id="Capline-L" d="M18,476 l800,0" />
        <path id="Baseline-L" d="M18,546 l800,0" />
    </g>
    <g id="Symbols">
        <g id="Ultralight-S">
            <path d="M265,100.231 C259.052,100.231 254.231,105.052 254.231,111 C254.231,116.948 259.052,121.769 265,121.769 C270.948,121.769 275.769,116.948 275.769,111 C275.769,108.144 274.635,105.405 272.615,103.385 C270.595,101.365 267.856,100.231 265,100.231 Z M265,116.385 C262.026,116.385 259.615,113.974 259.615,111 C259.615,108.026 262.026,105.615 265,105.615 C267.974,105.615 270.385,108.026 270.385,111 C270.385,112.428 269.817,113.798 268.807,114.808 C267.798,115.817 266.428,116.385 265,116.385 Z M238.077,100.231 C232.129,100.231 227.308,105.052 227.308,111 C227.308,116.948 232.129,121.769 238.077,121.769 C244.025,121.769 248.846,116.948 248.846,111 C248.846,108.144 247.712,105.405 245.692,103.385 C243.672,101.365 240.933,100.231 238.077,100.231 Z M238.077,116.385 C235.103,116.385 232.692,113.974 232.692,111 C232.692,108.026 235.103,105.615 238.077,105.615 C241.051,105.615 243.462,108.026 243.462,111 C243.462,112.428 242.894,113.798 241.884,114.808 C240.875,115.817 239.505,116.385 238.077,116.385 Z M291.923,100.231 C285.975,100.231 281.154,105.052 281.154,111 C281.154,116.948 285.975,121.769 291.923,121.769 C297.871,121.769 302.692,116.948 302.692,111 C302.692,108.144 301.558,105.405 299.538,103.385 C297.518,101.365 294.779,100.231 291.923,100.231 Z M291.923,116.385 C288.949,116.385 286.538,113.974 286.538,111 C286.538,108.026 288.949,105.615 291.923,105.615 C294.897,105.615 297.308,108.026 297.308,111 C297.308,112.428 296.74,113.798 295.731,114.808 C294.721,115.817 293.351,116.385 291.923,116.385 Z" />
        </g>
        <g id="Regular-S">
            <path d="M465,100.231 C459.052,100.231 454.231,105.052 454.231,111 C454.231,116.948 459.052,121.769 465,121.769 C470.948,121.769 475.769,116.948 475.769,111 C475.769,108.144 474.635,105.405 472.615,103.385 C470.595,101.365 467.856,100.231 465,100.231 Z M465,116.385 C462.026,116.385 459.615,113.974 459.615,111 C459.615,108.026 462.026,105.615 465,105.615 C467.974,105.615 470.385,108.026 470.385,111 C470.385,112.428 469.817,113.798 468.807,114.808 C467.798,115.817 466.428,116.385 465,116.385 Z M438.077,100.231 C432.129,100.231 427.308,105.052 427.308,111 C427.308,116.948 432.129,121.769 438.077,121.769 C444.025,121.769 448.846,116.948 448.846,111 C448.846,108.144 447.712,105.405 445.692,103.385 C443.672,101.365 440.933,100.231 438.077,100.231 Z M438.077,116.385 C435.103,116.385 432.692,113.974 432.692,111 C432.692,108.026 435.103,105.615 438.077,105.615 C441.051,105.615 443.462,108.026 443.462,111 C443.462,112.428 442.894,113.798 441.884,114.808 C440.875,115.817 439.505,116.385 438.077,116.385 Z M491.923,100.231 C485.975,100.231 481.154,105.052 481.154,111 C481.154,116.948 485.975,121.769 491.923,121.769 C497.871,121.769 502.692,116.948 502.692,111 C502.692,108.144 501.558,105.405 499.538,103.385 C497.518,101.365 494.779,100.231 491.923,100.231 Z M491.923,116.385 C488.949,116.385 486.538,113.974 486.538,111 C486.538,108.026 488.949,105.615 491.923,105.615 C494.897,105.615 497.308,108.026 497.308,111 C497.308,112.428 496.74,113.798 495.731,114.808 C494.721,115.817 493.351,116.385 491.923,116.385 Z" />
        </g>
        <g id="Black-S">
            <path d="M665,100.231 C659.052,100.231 654.231,105.052 654.231,111 C654.231,116.948 659.052,121.769 665,121.769 C670.948,121.769 675.769,116.948 675.769,111 C675.769,108.144 674.635,105.405 672.615,103.385 C670.595,101.365 667.856,100.231 665,100.231 Z M665,116.385 C662.026,116.385 659.615,113.974 659.615,111 C659.615,108.026 662.026,105.615 665,105.615 C667.974,105.615 670.385,108.026 670.385,111 C670.385,112.428 669.817,113.798 668.807,114.808 C667.798,115.817 666.428,116.385 665,116.385 Z M638.077,100.231 C632.129,100.231 627.308,105.052 627.308,111 C627.308,116.948 632.129,121.769 638.077,121.769 C644.025,121.769 648.846,116.948 648.846,111 C648.846,108.144 647.712,105.405 645.692,103.385 C643.672,101.365 640.933,100.231 638.077,100.231 Z M638.077,116.385 C635.103,116.385 632.692,113.974 632.692,111 C632.692,108.026 635.103,105.615 638.077,105.615 C641.051,105.615 643.462,108.026 643.462,111 C643.462,112.428 642.894,113.798 641.884,114.808 C640.875,115.817 639.505,116.385 638.077,116.385 Z M691.923,100.231 C685.975,100.231 681.154,105.052 681.154,111 C681.154,116.948 685.975,121.769 691.923,121.769 C697.871,121.769 702.692,116.948 702.692,111 C702.692,108.144 701.558,105.405 699.538,103.385 C697.518,101.365 694.779,100.231 691.923,100.231 Z M691.923,116.385 C688.949,116.385 686.538,113.974 686.538,111 C686.538,108.026 688.949,105.615 691.923,105.615 C694.897,105.615 697.308,108.026 697.308,111 C697.308,112.428 696.74,113.798 695.731,114.808 C694.721,115.817 693.351,116.385 691.923,116.385 Z" />
        </g>
    </g>
</svg>