<?xml version="1.0" encoding="UTF-8"?>
<svg height="600" width="800" xmlns="http://www.w3.org/2000/svg" xmlns:xlink="http://www.w3.org/1999/xlink">
    <g id="Notes" font-family="'LucidaGrande', 'Lucida Grande', sans-serif" font-size="13">
        <rect fill="white" height="600.0" width="800.0" x="0.0" y="0.0" />
        <g font-size="13">
            <text x="18.0" y="176.0">Small</text>
            <text x="18.0" y="376.0">Medium</text>
            <text x="18.0" y="576.0">Large</text>
        </g>
        <g font-size="9">
            <text x="250.0" y="30.0">Ultralight</text>
            <text x="450.0" y="30.0">Regular</text>
            <text x="650.0" y="30.0">Black</text>
            <text id="template-version" fill="#505050" text-anchor="end" x="785.0" y="575.0">Template v.3.0</text>
            <a href="https://github.com/swhitty/SwiftDraw">
                <text fill="#505050" text-anchor="end" x="785.0" y="590.0">https://github.com/swhitty/SwiftDraw</text>
            </a>
        </g>
    </g>
    <g id="Guides" stroke="rgb(39, 170, 225)" stroke-width="0.5">
        <path id="Capline-S" d="M18,76 l800,0" />
        <path id="H-reference" d="M85,145.755 L87.685,145.755 L113.369,79.287 L114.052,79.287 L114.052,76 L112.148,76 L85,145.755 Z M95.693,121.536 L130.996,121.536 L130.263,119.313 L96.474,119.313 L95.693,121.536 Z M139.15,145.755 L141.787,145.755 L114.638,76 L113.466,76 L113.466,79.287 L139.15,145.755 Z" stroke="none" />
        <path id="Baseline-S" d="M18,146 l800,0" />
        <path id="left-margin-Ultralight-S" d="M220,56 l0,110" />
        <path id="right-margin-Ultralight-S" d="M310,56 l0,110" />
        <path id="left-margin-Regular-S" d="M420,56 l0,110" />
        <path id="right-margin-Regular-S" d="M510,56 l0,110" />
        <path id="left-margin-Black-S" d="M620,56 l0,110" />
        <path id="right-margin-Black-S" d="M710,56 l0,110" />
        <path id="Capline-M" d="M18,276 l800,0" />
        <path id="Baseline-M" d="M18,346 l800,0" />
        <path id="Capline-L" d="M18,476 l800,0" />
        <path id="Baseline-L" d="M18,546 l800,0" />
    </g>
    <g id="Symbols">
        <g id="Ultralight-S">
            <path d="M267.692,94.846 L267.692,109.475 L279.848,116.768 C281.123,117.534 281.536,119.189 280.77,120.464 C280.004,121.739 278.35,122.151 277.075,121.385 L263.613,113.308 C262.803,112.821 262.307,111.945 262.308,111 L262.308,94.846 C262.308,93.359 263.513,92.154 265,92.154 C266.487,92.154 267.692,93.359 267.692,94.846 Z M297.308,86.769 C296.594,86.769 295.909,87.053 295.404,87.558 C294.899,88.063 294.615,88.747 294.615,89.462 L294.615,95.519 C292.478,93.042 290.298,90.656 287.844,88.173 C275.314,75.641 255.028,75.542 242.376,87.951 C229.724,100.36 229.429,120.644 241.715,133.415 C254.002,146.186 274.282,146.676 287.171,134.514 C288.254,133.489 288.3,131.783 287.277,130.703 C286.254,129.622 284.548,129.575 283.467,130.598 C272.723,140.722 255.83,140.306 245.598,129.664 C235.365,119.023 235.61,102.127 246.147,91.787 C256.684,81.447 273.582,81.521 284.028,91.952 C286.767,94.725 289.167,97.397 291.587,100.231 L283.846,100.231 C282.359,100.231 281.154,101.436 281.154,102.923 C281.154,104.41 282.359,105.615 283.846,105.615 L297.308,105.615 C298.022,105.615 298.707,105.332 299.211,104.827 C299.716,104.322 300,103.637 300,102.923 L300,89.462 C300,88.747 299.716,88.063 299.211,87.558 C298.707,87.053 298.022,86.769 297.308,86.769 Z" />
        </g>
        <g id="Regular-S">
            <path d="M467.692,94.846 L467.692,109.475 L479.848,116.768 C481.123,117.534 481.536,119.189 480.77,120.464 C480.004,121.739 478.35,122.151 477.075,121.385 L463.613,113.308 C462.803,112.821 462.307,111.945 462.308,111 L462.308,94.846 C462.308,93.359 463.513,92.154 465,92.154 C466.487,92.154 467.692,93.359 467.692,94.846 Z M497.308,86.769 C496.594,86.769 495.909,87.053 495.404,87.558 C494.899,88.063 494.615,88.747 494.615,89.462 L494.615,95.519 C492.478,93.042 490.298,90.656 487.844,88.173 C475.314,75.641 455.028,75.542 442.376,87.951 C429.724,100.36 429.429,120.644 441.715,133.415 C454.002,146.186 474.282,146.676 487.171,134.514 C488.254,133.489 488.3,131.783 487.277,130.703 C486.254,129.622 484.548,129.575 483.467,130.598 C472.723,140.722 455.83,140.306 445.598,129.664 C435.365,119.023 435.61,102.127 446.147,91.787 C456.684,81.447 473.582,81.521 484.028,91.952 C486.767,94.725 489.167,97.397 491.587,100.231 L483.846,100.231 C482.359,100.231 481.154,101.436 481.154,102.923 C481.154,104.41 482.359,105.615 483.846,105.615 L497.308,105.615 C498.022,105.615 498.707,105.332 499.211,104.827 C499.716,104.322 500,103.637 500,102.923 L500,89.462 C500,88.747 499.716,88.063 499.211,87.558 C498.707,87.053 498.022,86.769 497.308,86.769 Z" />
        </g>
        <g id="Black-S">
            <path d="M667.692,94.846 L667.692,109.475 L679.848,116.768 C681.123,117.534 681.536,119.189 680.77,120.464 C680.004,121.739 678.35,122.151 677.075,121.385 L663.613,113.308 C662.803,112.821 662.307,111.945 662.308,111 L662.308,94.846 C662.308,93.359 663.513,92.154 665,92.154 C666.487,92.154 667.692,93.359 667.692,94.846 Z M697.308,86.769 C696.594,86.769 695.909,87.053 695.404,87.558 C694.899,88.063 694.615,88.747 694.615,89.462 L694.615,95.519 C692.478,93.042 690.298,90.656 687.844,88.173 C675.314,75.641 655.028,75.542 642.376,87.951 C629.724,100.36 629.429,120.644 641.715,133.415 C654.002,146.186 674.282,146.676 687.171,134.514 C688.254,133.489 688.3,131.783 687.277,130.703 C686.254,129.622 684.548,129.575 683.467,130.598 C672.723,140.722 655.83,140.306 645.598,129.664 C635.365,119.023 635.61,102.127 646.147,91.787 C656.684,81.447 673.582,81.521 684.028,91.952 C686.767,94.725 689.167,97.397 691.587,100.231 L683.846,100.231 C682.359,100.231 681.154,101.436 681.154,102.923 C681.154,104.41 682.359,105.615 683.846,105.615 L697.308,105.615 C698.022,105.615 698.707,105.332 699.211,104.827 C699.716,104.322 700,103.637 700,102.923 L700,89.462 C700,88.747 699.716,88.063 699.211,87.558 C698.707,87.053 698.022,86.769 697.308,86.769 Z" />
        </g>
    </g>
</svg>