<?xml version="1.0" encoding="UTF-8"?>
<svg height="600" width="800" xmlns="http://www.w3.org/2000/svg" xmlns:xlink="http://www.w3.org/1999/xlink">
    <g id="Notes" font-family="'LucidaGrande', 'Lucida Grande', sans-serif" font-size="13">
        <rect fill="white" height="600.0" width="800.0" x="0.0" y="0.0" />
        <g font-size="13">
            <text x="18.0" y="176.0">Small</text>
            <text x="18.0" y="376.0">Medium</text>
            <text x="18.0" y="576.0">Large</text>
        </g>
        <g font-size="9">
            <text x="250.0" y="30.0">Ultralight</text>
            <text x="450.0" y="30.0">Regular</text>
            <text x="650.0" y="30.0">Black</text>
            <text id="template-version" fill="#505050" text-anchor="end" x="785.0" y="575.0">Template v.3.0</text>
            <a href="https://github.com/swhitty/SwiftDraw">
                <text fill="#505050" text-anchor="end" x="785.0" y="590.0">https://github.com/swhitty/SwiftDraw</text>
            </a>
        </g>
    </g>
    <g id="Guides" stroke="rgb(39, 170, 225)" stroke-width="0.5">
        <path id="Capline-S" d="M18,76 l800,0" />
        <path id="H-reference" d="M85,145.755 L87.685,145.755 L113.369,79.287 L114.052,79.287 L114.052,76 L112.148,76 L85,145.755 Z M95.693,121.536 L130.996,121.536 L130.263,119.313 L96.474,119.313 L95.693,121.536 Z M139.15,145.755 L141.787,145.755 L114.638,76 L113.466,76 L113.466,79.287 L139.15,145.755 Z" stroke="none" />
        <path id="Baseline-S" d="M18,146 l800,0" />
        <path id="left-margin-Ultralight-S" d="M220,56 l0,110" />
        <path id="right-margin-Ultralight-S" d="M310,56 l0,110" />
        <path id="left-margin-Regular-S" d="M420,56 l0,110" />
        <path id="right-margin-Regular-S" d="M510,56 l0,110" />
        <path id="left-margin-Black-S" d="M620,56 l0,110" />
        <path id="right-margin-Black-S" d="M710,56 l0,110" />
        <path id="Capline-M" d="M18,276 l800,0" />
        <path id="Baseline-M" d="M18,346 l800,0" />
        <path id="Capline-L" d="M18,476 l800,0" />
        <path id="Baseline-L" d="M18,546 l800,0" />
    </g>
    <g id="Symbols">
        <g id="Ultralight-S">
            <path d="M291.923,105.615 C287.146,105.624 282.944,108.773 281.595,113.356 L267.389,111.337 C266.742,111.245 266.15,110.921 265.724,110.425 L253.702,96.377 C258.344,94.025 260.639,88.691 259.157,83.703 C257.674,78.715 252.837,75.501 247.665,76.066 C242.492,76.631 238.463,80.814 238.092,86.004 C237.721,91.194 241.114,95.907 246.154,97.202 L246.154,124.798 C240.903,126.154 237.479,131.202 238.163,136.582 C238.846,141.962 243.423,145.995 248.846,145.995 C254.269,145.995 258.846,141.962 259.53,136.582 C260.213,131.203 256.789,126.154 251.538,124.798 L251.538,102.125 L261.635,113.904 C262.911,115.393 264.685,116.367 266.625,116.644 L281.433,118.757 C282.676,124.259 287.953,127.87 293.532,127.035 C299.11,126.2 303.099,121.203 302.677,115.578 C302.254,109.953 297.564,105.608 291.923,105.615 Z M243.462,86.769 C243.462,83.795 245.872,81.385 248.846,81.385 C251.82,81.385 254.231,83.795 254.231,86.769 C254.231,89.743 251.82,92.154 248.846,92.154 C247.418,92.154 246.048,91.587 245.039,90.577 C244.029,89.567 243.462,88.197 243.462,86.769 Z M254.231,135.231 C254.231,138.205 251.82,140.615 248.846,140.615 C245.872,140.615 243.462,138.205 243.462,135.231 C243.462,132.257 245.872,129.846 248.846,129.846 C250.274,129.846 251.644,130.413 252.654,131.423 C253.663,132.433 254.231,133.803 254.231,135.231 Z M291.923,121.769 C288.949,121.769 286.538,119.358 286.538,116.385 C286.538,113.411 288.949,111 291.923,111 C294.897,111 297.308,113.411 297.308,116.385 C297.308,117.813 296.74,119.182 295.731,120.192 C294.721,121.202 293.351,121.769 291.923,121.769 Z" />
        </g>
        <g id="Regular-S">
            <path d="M491.923,105.615 C487.146,105.624 482.944,108.773 481.595,113.356 L467.389,111.337 C466.742,111.245 466.15,110.921 465.724,110.425 L453.702,96.377 C458.344,94.025 460.639,88.691 459.157,83.703 C457.674,78.715 452.837,75.501 447.664,76.066 C442.492,76.631 438.463,80.814 438.092,86.004 C437.721,91.194 441.114,95.907 446.154,97.202 L446.154,124.798 C440.903,126.154 437.479,131.202 438.163,136.582 C438.846,141.962 443.423,145.995 448.846,145.995 C454.269,145.995 458.846,141.962 459.53,136.582 C460.213,131.203 456.789,126.154 451.538,124.798 L451.538,102.125 L461.635,113.904 C462.911,115.393 464.685,116.367 466.625,116.644 L481.433,118.757 C482.676,124.259 487.953,127.87 493.532,127.035 C499.11,126.2 503.099,121.203 502.677,115.578 C502.254,109.953 497.564,105.608 491.923,105.615 Z M443.462,86.769 C443.462,83.795 445.872,81.385 448.846,81.385 C451.82,81.385 454.231,83.795 454.231,86.769 C454.231,89.743 451.82,92.154 448.846,92.154 C447.418,92.154 446.048,91.587 445.039,90.577 C444.029,89.567 443.462,88.197 443.462,86.769 Z M454.231,135.231 C454.231,138.205 451.82,140.615 448.846,140.615 C445.872,140.615 443.462,138.205 443.462,135.231 C443.462,132.257 445.872,129.846 448.846,129.846 C450.274,129.846 451.644,130.413 452.654,131.423 C453.663,132.433 454.231,133.803 454.231,135.231 Z M491.923,121.769 C488.949,121.769 486.538,119.358 486.538,116.385 C486.538,113.411 488.949,111 491.923,111 C494.897,111 497.308,113.411 497.308,116.385 C497.308,117.813 496.74,119.182 495.731,120.192 C494.721,121.202 493.351,121.769 491.923,121.769 Z" />
        </g>
        <g id="Black-S">
            <path d="M691.923,105.615 C687.146,105.624 682.944,108.773 681.595,113.356 L667.389,111.337 C666.742,111.245 666.15,110.921 665.724,110.425 L653.702,96.377 C658.344,94.025 660.639,88.691 659.157,83.703 C657.674,78.715 652.837,75.501 647.665,76.066 C642.492,76.631 638.463,80.814 638.092,86.004 C637.721,91.194 641.114,95.907 646.154,97.202 L646.154,124.798 C640.903,126.154 637.479,131.202 638.163,136.582 C638.846,141.962 643.423,145.995 648.846,145.995 C654.269,145.995 658.846,141.962 659.53,136.582 C660.213,131.203 656.789,126.154 651.538,124.798 L651.538,102.125 L661.635,113.904 C662.911,115.393 664.685,116.367 666.625,116.644 L681.433,118.757 C682.676,124.259 687.953,127.87 693.532,127.035 C699.11,126.2 703.099,121.203 702.677,115.578 C702.254,109.953 697.564,105.608 691.923,105.615 Z M643.462,86.769 C643.462,83.795 645.872,81.385 648.846,81.385 C651.82,81.385 654.231,83.795 654.231,86.769 C654.231,89.743 651.82,92.154 648.846,92.154 C647.418,92.154 646.048,91.587 645.039,90.577 C644.029,89.567 643.462,88.197 643.462,86.769 Z M654.231,135.231 C654.231,138.205 651.82,140.615 648.846,140.615 C645.872,140.615 643.462,138.205 643.462,135.231 C643.462,132.257 645.872,129.846 648.846,129.846 C650.274,129.846 651.644,130.413 652.654,131.423 C653.663,132.433 654.231,133.803 654.231,135.231 Z M691.923,121.769 C688.949,121.769 686.538,119.358 686.538,116.385 C686.538,113.411 688.949,111 691.923,111 C694.897,111 697.308,113.411 697.308,116.385 C697.308,117.813 696.74,119.182 695.731,120.192 C694.721,121.202 693.351,121.769 691.923,121.769 Z" />
        </g>
    </g>
</svg>