<?xml version="1.0" encoding="UTF-8"?>
<svg height="600" width="800" xmlns="http://www.w3.org/2000/svg" xmlns:xlink="http://www.w3.org/1999/xlink">
    <g id="Notes" font-family="'LucidaGrande', 'Lucida Grande', sans-serif" font-size="13">
        <rect fill="white" height="600.0" width="800.0" x="0.0" y="0.0" />
        <g font-size="13">
            <text x="18.0" y="176.0">Small</text>
            <text x="18.0" y="376.0">Medium</text>
            <text x="18.0" y="576.0">Large</text>
        </g>
        <g font-size="9">
            <text x="250.0" y="30.0">Ultralight</text>
            <text x="450.0" y="30.0">Regular</text>
            <text x="650.0" y="30.0">Black</text>
            <text id="template-version" fill="#505050" text-anchor="end" x="785.0" y="575.0">Template v.3.0</text>
            <a href="https://github.com/swhitty/SwiftDraw">
                <text fill="#505050" text-anchor="end" x="785.0" y="590.0">https://github.com/swhitty/SwiftDraw</text>
            </a>
        </g>
    </g>
    <g id="Guides" stroke="rgb(39, 170, 225)" stroke-width="0.5">
        <path id="Capline-S" d="M18,76 l800,0" />
        <path id="H-reference" d="M85,145.755 L87.685,145.755 L113.369,79.287 L114.052,79.287 L114.052,76 L112.148,76 L85,145.755 Z M95.693,121.536 L130.996,121.536 L130.263,119.313 L96.474,119.313 L95.693,121.536 Z M139.15,145.755 L141.787,145.755 L114.638,76 L113.466,76 L113.466,79.287 L139.15,145.755 Z" stroke="none" />
        <path id="Baseline-S" d="M18,146 l800,0" />
        <path id="left-margin-Ultralight-S" d="M220,56 l0,110" />
        <path id="right-margin-Ultralight-S" d="M310,56 l0,110" />
        <path id="left-margin-Regular-S" d="M420,56 l0,110" />
        <path id="right-margin-Regular-S" d="M510,56 l0,110" />
        <path id="left-margin-Black-S" d="M620,56 l0,110" />
        <path id="right-margin-Black-S" d="M710,56 l0,110" />
        <path id="Capline-M" d="M18,276 l800,0" />
        <path id="Baseline-M" d="M18,346 l800,0" />
        <path id="Capline-L" d="M18,476 l800,0" />
        <path id="Baseline-L" d="M18,546 l800,0" />
    </g>
    <g id="Symbols">
        <g id="Ultralight-S">
            <path d="M265,76 C245.67,76 230,91.67 230,111 C230,130.33 245.67,146 265,146 C284.33,146 300,130.33 300,111 C299.979,91.677 284.32,76.02 264.999,76 Z M265,140.615 C248.644,140.615 235.385,127.356 235.385,111 C235.385,94.644 248.644,81.385 265,81.385 C281.356,81.385 294.615,94.644 294.615,111 C294.598,127.347 281.35,140.596 265.001,140.615 Z M269.038,111 C269.038,113.23 267.23,115.038 265,115.038 C262.77,115.038 260.962,113.23 260.962,111 C260.962,108.77 262.77,106.962 265,106.962 C266.071,106.962 267.098,107.387 267.856,108.144 C268.613,108.902 269.038,109.929 269.038,111 Z M283.846,111 C283.846,113.23 282.038,115.038 279.808,115.038 C277.577,115.038 275.769,113.23 275.769,111 C275.769,108.77 277.577,106.962 279.808,106.962 C280.879,106.962 281.906,107.387 282.663,108.144 C283.421,108.902 283.846,109.929 283.846,111 Z M254.231,111 C254.231,113.23 252.423,115.038 250.192,115.038 C247.962,115.038 246.154,113.23 246.154,111 C246.154,108.77 247.962,106.962 250.192,106.962 C251.263,106.962 252.291,107.387 253.048,108.144 C253.805,108.902 254.231,109.929 254.231,111 Z" />
        </g>
        <g id="Regular-S">
            <path d="M465,76 C445.67,76 430,91.67 430,111 C430,130.33 445.67,146 465,146 C484.33,146 500,130.33 500,111 C499.979,91.677 484.32,76.02 464.999,76 Z M465,140.615 C448.644,140.615 435.385,127.356 435.385,111 C435.385,94.644 448.644,81.385 465,81.385 C481.356,81.385 494.615,94.644 494.615,111 C494.598,127.347 481.35,140.596 465.001,140.615 Z M469.038,111 C469.038,113.23 467.23,115.038 465,115.038 C462.77,115.038 460.962,113.23 460.962,111 C460.962,108.77 462.77,106.962 465,106.962 C466.071,106.962 467.098,107.387 467.856,108.144 C468.613,108.902 469.038,109.929 469.038,111 Z M483.846,111 C483.846,113.23 482.038,115.038 479.808,115.038 C477.577,115.038 475.769,113.23 475.769,111 C475.769,108.77 477.577,106.962 479.808,106.962 C480.879,106.962 481.906,107.387 482.663,108.144 C483.421,108.902 483.846,109.929 483.846,111 Z M454.231,111 C454.231,113.23 452.423,115.038 450.192,115.038 C447.962,115.038 446.154,113.23 446.154,111 C446.154,108.77 447.962,106.962 450.192,106.962 C451.263,106.962 452.291,107.387 453.048,108.144 C453.805,108.902 454.231,109.929 454.231,111 Z" />
        </g>
        <g id="Black-S">
            <path d="M665,76 C645.67,76 630,91.67 630,111 C630,130.33 645.67,146 665,146 C684.33,146 700,130.33 700,111 C699.979,91.677 684.32,76.02 664.999,76 Z M665,140.615 C648.644,140.615 635.385,127.356 635.385,111 C635.385,94.644 648.644,81.385 665,81.385 C681.356,81.385 694.615,94.644 694.615,111 C694.598,127.347 681.35,140.596 665.001,140.615 Z M669.038,111 C669.038,113.23 667.23,115.038 665,115.038 C662.77,115.038 660.962,113.23 660.962,111 C660.962,108.77 662.77,106.962 665,106.962 C666.071,106.962 667.098,107.387 667.856,108.144 C668.613,108.902 669.038,109.929 669.038,111 Z M683.846,111 C683.846,113.23 682.038,115.038 679.808,115.038 C677.577,115.038 675.769,113.23 675.769,111 C675.769,108.77 677.577,106.962 679.808,106.962 C680.879,106.962 681.906,107.387 682.663,108.144 C683.421,108.902 683.846,109.929 683.846,111 Z M654.231,111 C654.231,113.23 652.423,115.038 650.192,115.038 C647.962,115.038 646.154,113.23 646.154,111 C646.154,108.77 647.962,106.962 650.192,106.962 C651.263,106.962 652.291,107.387 653.048,108.144 C653.805,108.902 654.231,109.929 654.231,111 Z" />
        </g>
    </g>
</svg>