<?xml version="1.0" encoding="UTF-8"?>
<svg height="600" width="800" xmlns="http://www.w3.org/2000/svg" xmlns:xlink="http://www.w3.org/1999/xlink">
    <g id="Notes" font-family="'LucidaGrande', 'Lucida Grande', sans-serif" font-size="13">
        <rect fill="white" height="600.0" width="800.0" x="0.0" y="0.0" />
        <g font-size="13">
            <text x="18.0" y="176.0">Small</text>
            <text x="18.0" y="376.0">Medium</text>
            <text x="18.0" y="576.0">Large</text>
        </g>
        <g font-size="9">
            <text x="250.0" y="30.0">Ultralight</text>
            <text x="450.0" y="30.0">Regular</text>
            <text x="650.0" y="30.0">Black</text>
            <text id="template-version" fill="#505050" text-anchor="end" x="785.0" y="575.0">Template v.3.0</text>
            <a href="https://github.com/swhitty/SwiftDraw">
                <text fill="#505050" text-anchor="end" x="785.0" y="590.0">https://github.com/swhitty/SwiftDraw</text>
            </a>
        </g>
    </g>
    <g id="Guides" stroke="rgb(39, 170, 225)" stroke-width="0.5">
        <path id="Capline-S" d="M18,76 l800,0" />
        <path id="H-reference" d="M85,145.755 L87.685,145.755 L113.369,79.287 L114.052,79.287 L114.052,76 L112.148,76 L85,145.755 Z M95.693,121.536 L130.996,121.536 L130.263,119.313 L96.474,119.313 L95.693,121.536 Z M139.15,145.755 L141.787,145.755 L114.638,76 L113.466,76 L113.466,79.287 L139.15,145.755 Z" stroke="none" />
        <path id="Baseline-S" d="M18,146 l800,0" />
        <path id="left-margin-Ultralight-S" d="M220,56 l0,110" />
        <path id="right-margin-Ultralight-S" d="M310,56 l0,110" />
        <path id="left-margin-Regular-S" d="M420,56 l0,110" />
        <path id="right-margin-Regular-S" d="M510,56 l0,110" />
        <path id="left-margin-Black-S" d="M620,56 l0,110" />
        <path id="right-margin-Black-S" d="M710,56 l0,110" />
        <path id="Capline-M" d="M18,276 l800,0" />
        <path id="Baseline-M" d="M18,346 l800,0" />
        <path id="Capline-L" d="M18,476 l800,0" />
        <path id="Baseline-L" d="M18,546 l800,0" />
    </g>
    <g id="Symbols">
        <g id="Ultralight-S">
            <path d="M297.308,84.077 L232.692,84.077 C231.978,84.077 231.293,84.361 230.789,84.865 C230.284,85.37 230,86.055 230,86.769 L230,135.231 C230,135.945 230.284,136.63 230.789,137.135 C231.293,137.639 231.978,137.923 232.692,137.923 L297.308,137.923 C298.022,137.923 298.707,137.639 299.211,137.135 C299.716,136.63 300,135.945 300,135.231 L300,86.769 C300,86.055 299.716,85.37 299.211,84.865 C298.707,84.361 298.022,84.077 297.308,84.077 Z M251.538,116.385 L251.538,105.615 L278.462,105.615 L278.462,116.385 Z M235.385,116.385 L235.385,105.615 L246.154,105.615 L246.154,116.385 Z M283.846,105.615 L294.615,105.615 L294.615,116.385 L283.846,116.385 Z M294.615,100.231 L267.692,100.231 L267.692,89.462 L294.615,89.462 Z M262.308,89.462 L262.308,100.231 L235.385,100.231 L235.385,89.462 Z M235.385,121.769 L262.308,121.769 L262.308,132.538 L235.385,132.538 Z M267.692,132.538 L267.692,121.769 L294.615,121.769 L294.615,132.538 Z" />
        </g>
        <g id="Regular-S">
            <path d="M497.308,84.077 L432.692,84.077 C431.978,84.077 431.293,84.361 430.789,84.865 C430.284,85.37 430,86.055 430,86.769 L430,135.231 C430,135.945 430.284,136.63 430.789,137.135 C431.293,137.639 431.978,137.923 432.692,137.923 L497.308,137.923 C498.022,137.923 498.707,137.639 499.211,137.135 C499.716,136.63 500,135.945 500,135.231 L500,86.769 C500,86.055 499.716,85.37 499.211,84.865 C498.707,84.361 498.022,84.077 497.308,84.077 Z M451.538,116.385 L451.538,105.615 L478.462,105.615 L478.462,116.385 Z M435.385,116.385 L435.385,105.615 L446.154,105.615 L446.154,116.385 Z M483.846,105.615 L494.615,105.615 L494.615,116.385 L483.846,116.385 Z M494.615,100.231 L467.692,100.231 L467.692,89.462 L494.615,89.462 Z M462.308,89.462 L462.308,100.231 L435.385,100.231 L435.385,89.462 Z M435.385,121.769 L462.308,121.769 L462.308,132.538 L435.385,132.538 Z M467.692,132.538 L467.692,121.769 L494.615,121.769 L494.615,132.538 Z" />
        </g>
        <g id="Black-S">
            <path d="M697.308,84.077 L632.692,84.077 C631.978,84.077 631.293,84.361 630.789,84.865 C630.284,85.37 630,86.055 630,86.769 L630,135.231 C630,135.945 630.284,136.63 630.789,137.135 C631.293,137.639 631.978,137.923 632.692,137.923 L697.308,137.923 C698.022,137.923 698.707,137.639 699.211,137.135 C699.716,136.63 700,135.945 700,135.231 L700,86.769 C700,86.055 699.716,85.37 699.211,84.865 C698.707,84.361 698.022,84.077 697.308,84.077 Z M651.538,116.385 L651.538,105.615 L678.462,105.615 L678.462,116.385 Z M635.385,116.385 L635.385,105.615 L646.154,105.615 L646.154,116.385 Z M683.846,105.615 L694.615,105.615 L694.615,116.385 L683.846,116.385 Z M694.615,100.231 L667.692,100.231 L667.692,89.462 L694.615,89.462 Z M662.308,89.462 L662.308,100.231 L635.385,100.231 L635.385,89.462 Z M635.385,121.769 L662.308,121.769 L662.308,132.538 L635.385,132.538 Z M667.692,132.538 L667.692,121.769 L694.615,121.769 L694.615,132.538 Z" />
        </g>
    </g>
</svg>