<?xml version="1.0" encoding="UTF-8"?>
<svg height="600" width="800" xmlns="http://www.w3.org/2000/svg" xmlns:xlink="http://www.w3.org/1999/xlink">
    <g id="Notes" font-family="'LucidaGrande', 'Lucida Grande', sans-serif" font-size="13">
        <rect fill="white" height="600.0" width="800.0" x="0.0" y="0.0" />
        <g font-size="13">
            <text x="18.0" y="176.0">Small</text>
            <text x="18.0" y="376.0">Medium</text>
            <text x="18.0" y="576.0">Large</text>
        </g>
        <g font-size="9">
            <text x="250.0" y="30.0">Ultralight</text>
            <text x="450.0" y="30.0">Regular</text>
            <text x="650.0" y="30.0">Black</text>
            <text id="template-version" fill="#505050" text-anchor="end" x="785.0" y="575.0">Template v.3.0</text>
            <a href="https://github.com/swhitty/SwiftDraw">
                <text fill="#505050" text-anchor="end" x="785.0" y="590.0">https://github.com/swhitty/SwiftDraw</text>
            </a>
        </g>
    </g>
    <g id="Guides" stroke="rgb(39, 170, 225)" stroke-width="0.5">
        <path id="Capline-S" d="M18,76 l800,0" />
        <path id="H-reference" d="M85,145.755 L87.685,145.755 L113.369,79.287 L114.052,79.287 L114.052,76 L112.148,76 L85,145.755 Z M95.693,121.536 L130.996,121.536 L130.263,119.313 L96.474,119.313 L95.693,121.536 Z M139.15,145.755 L141.787,145.755 L114.638,76 L113.466,76 L113.466,79.287 L139.15,145.755 Z" stroke="none" />
        <path id="Baseline-S" d="M18,146 l800,0" />
        <path id="left-margin-Ultralight-S" d="M220,56 l0,110" />
        <path id="right-margin-Ultralight-S" d="M310,56 l0,110" />
        <path id="left-margin-Regular-S" d="M420,56 l0,110" />
        <path id="right-margin-Regular-S" d="M510,56 l0,110" />
        <path id="left-margin-Black-S" d="M620,56 l0,110" />
        <path id="right-margin-Black-S" d="M710,56 l0,110" />
        <path id="Capline-M" d="M18,276 l800,0" />
        <path id="Baseline-M" d="M18,346 l800,0" />
        <path id="Capline-L" d="M18,476 l800,0" />
        <path id="Baseline-L" d="M18,546 l800,0" />
    </g>
    <g id="Symbols">
        <g id="Ultralight-S">
            <path d="M302.692,97.538 L302.692,119.077 C302.692,119.791 302.409,120.476 301.904,120.981 C301.399,121.486 300.714,121.769 300,121.769 L278.462,121.769 C276.975,121.769 275.769,120.564 275.769,119.077 C275.769,117.59 276.975,116.385 278.462,116.385 L293.471,116.385 L285.946,108.91 C277.477,100.437 264.738,97.901 253.67,102.484 C242.602,107.067 235.385,117.867 235.385,129.846 C235.385,131.333 234.179,132.538 232.692,132.538 C231.205,132.538 230,131.333 230,129.846 C230,115.689 238.528,102.927 251.607,97.51 C264.685,92.092 279.74,95.087 289.749,105.098 L297.308,112.605 L297.308,97.538 C297.308,96.052 298.513,94.846 300,94.846 C301.487,94.846 302.692,96.052 302.692,97.538 Z" />
        </g>
        <g id="Regular-S">
            <path d="M502.692,97.538 L502.692,119.077 C502.692,119.791 502.409,120.476 501.904,120.981 C501.399,121.486 500.714,121.769 500,121.769 L478.462,121.769 C476.975,121.769 475.769,120.564 475.769,119.077 C475.769,117.59 476.975,116.385 478.462,116.385 L493.471,116.385 L485.946,108.91 C477.477,100.437 464.738,97.901 453.67,102.484 C442.602,107.067 435.385,117.867 435.385,129.846 C435.385,131.333 434.179,132.538 432.692,132.538 C431.205,132.538 430,131.333 430,129.846 C430,115.689 438.528,102.927 451.607,97.51 C464.685,92.092 479.74,95.087 489.749,105.098 L497.308,112.605 L497.308,97.538 C497.308,96.052 498.513,94.846 500,94.846 C501.487,94.846 502.692,96.052 502.692,97.538 Z" />
        </g>
        <g id="Black-S">
            <path d="M702.692,97.538 L702.692,119.077 C702.692,119.791 702.409,120.476 701.904,120.981 C701.399,121.486 700.714,121.769 700,121.769 L678.462,121.769 C676.975,121.769 675.769,120.564 675.769,119.077 C675.769,117.59 676.975,116.385 678.462,116.385 L693.471,116.385 L685.946,108.91 C677.477,100.437 664.738,97.901 653.67,102.484 C642.602,107.067 635.385,117.867 635.385,129.846 C635.385,131.333 634.179,132.538 632.692,132.538 C631.205,132.538 630,131.333 630,129.846 C630,115.689 638.528,102.927 651.607,97.51 C664.685,92.092 679.74,95.087 689.749,105.098 L697.308,112.605 L697.308,97.538 C697.308,96.052 698.513,94.846 700,94.846 C701.487,94.846 702.692,96.052 702.692,97.538 Z" />
        </g>
    </g>
</svg>