<?xml version="1.0" encoding="UTF-8"?>
<svg height="600" width="800" xmlns="http://www.w3.org/2000/svg" xmlns:xlink="http://www.w3.org/1999/xlink">
    <g id="Notes" font-family="'LucidaGrande', 'Lucida Grande', sans-serif" font-size="13">
        <rect fill="white" height="600.0" width="800.0" x="0.0" y="0.0" />
        <g font-size="13">
            <text x="18.0" y="176.0">Small</text>
            <text x="18.0" y="376.0">Medium</text>
            <text x="18.0" y="576.0">Large</text>
        </g>
        <g font-size="9">
            <text x="250.0" y="30.0">Ultralight</text>
            <text x="450.0" y="30.0">Regular</text>
            <text x="650.0" y="30.0">Black</text>
            <text id="template-version" fill="#505050" text-anchor="end" x="785.0" y="575.0">Template v.3.0</text>
            <a href="https://github.com/swhitty/SwiftDraw">
                <text fill="#505050" text-anchor="end" x="785.0" y="590.0">https://github.com/swhitty/SwiftDraw</text>
            </a>
        </g>
    </g>
    <g id="Guides" stroke="rgb(39, 170, 225)" stroke-width="0.5">
        <path id="Capline-S" d="M18,76 l800,0" />
        <path id="H-reference" d="M85,145.755 L87.685,145.755 L113.369,79.287 L114.052,79.287 L114.052,76 L112.148,76 L85,145.755 Z M95.693,121.536 L130.996,121.536 L130.263,119.313 L96.474,119.313 L95.693,121.536 Z M139.15,145.755 L141.787,145.755 L114.638,76 L113.466,76 L113.466,79.287 L139.15,145.755 Z" stroke="none" />
        <path id="Baseline-S" d="M18,146 l800,0" />
        <path id="left-margin-Ultralight-S" d="M220,56 l0,110" />
        <path id="right-margin-Ultralight-S" d="M310,56 l0,110" />
        <path id="left-margin-Regular-S" d="M420,56 l0,110" />
        <path id="right-margin-Regular-S" d="M510,56 l0,110" />
        <path id="left-margin-Black-S" d="M620,56 l0,110" />
        <path id="right-margin-Black-S" d="M710,56 l0,110" />
        <path id="Capline-M" d="M18,276 l800,0" />
        <path id="Baseline-M" d="M18,346 l800,0" />
        <path id="Capline-L" d="M18,476 l800,0" />
        <path id="Baseline-L" d="M18,546 l800,0" />
    </g>
    <g id="Symbols">
        <g id="Ultralight-S">
            <path d="M294.615,94.51 L294.615,94.846 C294.615,98.416 293.197,101.84 290.673,104.365 C288.148,106.889 284.724,108.308 281.154,108.308 L267.692,108.308 L267.692,135.231 L270.385,135.231 C272.618,135.232 274.62,133.854 275.417,131.768 C276.214,129.681 275.641,127.32 273.975,125.831 C272.925,124.828 272.86,123.173 273.828,122.09 C274.797,121.007 276.449,120.888 277.563,121.82 C280.891,124.796 282.036,129.518 280.443,133.688 C278.851,137.859 274.849,140.615 270.385,140.615 L267.692,140.615 L267.692,146 C267.692,147.487 266.487,148.692 265,148.692 C263.513,148.692 262.308,147.487 262.308,146 L262.308,140.615 L254.231,140.615 C252.744,140.615 251.538,139.41 251.538,137.923 C251.538,136.436 252.744,135.231 254.231,135.231 L262.308,135.231 L262.308,108.308 L254.231,108.308 C251.257,108.308 248.846,110.718 248.846,113.692 C248.846,116.666 251.257,119.077 254.231,119.077 C255.718,119.077 256.923,120.282 256.923,121.769 C256.923,123.256 255.718,124.462 254.231,124.462 C248.283,124.462 243.462,119.64 243.462,113.692 C243.462,107.745 248.283,102.923 254.231,102.923 L262.308,102.923 L262.308,76 C262.308,74.513 263.513,73.308 265,73.308 C266.487,73.308 267.692,74.513 267.692,76 L267.692,102.923 L281.154,102.923 C283.296,102.923 285.35,102.072 286.865,100.557 C288.38,99.043 289.231,96.988 289.231,94.846 L289.231,94.51 C289.231,92.457 288.415,90.488 286.964,89.036 C285.512,87.585 283.543,86.769 281.49,86.769 L275.769,86.769 C274.282,86.769 273.077,85.564 273.077,84.077 C273.077,82.59 274.282,81.385 275.769,81.385 L281.49,81.385 C284.971,81.385 288.31,82.767 290.771,85.229 C293.233,87.69 294.615,91.029 294.615,94.51 Z M240.769,100.231 L232.692,100.231 C231.978,100.231 231.293,99.947 230.789,99.442 C230.284,98.937 230,98.253 230,97.538 L230,94.846 C230,91.276 231.418,87.852 233.943,85.327 C236.467,82.803 239.891,81.385 243.462,81.385 L254.231,81.385 C255.718,81.385 256.923,82.59 256.923,84.077 C256.923,85.564 255.718,86.769 254.231,86.769 C254.231,90.339 252.812,93.763 250.288,96.288 C247.763,98.813 244.339,100.231 240.769,100.231 Z M248.846,86.769 L243.462,86.769 C241.319,86.769 239.265,87.62 237.75,89.135 C236.236,90.65 235.385,92.704 235.385,94.846 L240.769,94.846 C242.911,94.846 244.966,93.995 246.48,92.48 C247.995,90.966 248.846,88.911 248.846,86.769 Z" />
        </g>
        <g id="Regular-S">
            <path d="M494.615,94.51 L494.615,94.846 C494.615,98.416 493.197,101.84 490.673,104.365 C488.148,106.889 484.724,108.308 481.154,108.308 L467.692,108.308 L467.692,135.231 L470.385,135.231 C472.618,135.232 474.62,133.854 475.417,131.768 C476.214,129.681 475.641,127.32 473.975,125.831 C472.925,124.828 472.86,123.173 473.828,122.09 C474.797,121.007 476.449,120.888 477.563,121.82 C480.891,124.796 482.036,129.518 480.443,133.688 C478.851,137.859 474.849,140.615 470.385,140.615 L467.692,140.615 L467.692,146 C467.692,147.487 466.487,148.692 465,148.692 C463.513,148.692 462.308,147.487 462.308,146 L462.308,140.615 L454.231,140.615 C452.744,140.615 451.538,139.41 451.538,137.923 C451.538,136.436 452.744,135.231 454.231,135.231 L462.308,135.231 L462.308,108.308 L454.231,108.308 C451.257,108.308 448.846,110.718 448.846,113.692 C448.846,116.666 451.257,119.077 454.231,119.077 C455.718,119.077 456.923,120.282 456.923,121.769 C456.923,123.256 455.718,124.462 454.231,124.462 C448.283,124.462 443.462,119.64 443.462,113.692 C443.462,107.745 448.283,102.923 454.231,102.923 L462.308,102.923 L462.308,76 C462.308,74.513 463.513,73.308 465,73.308 C466.487,73.308 467.692,74.513 467.692,76 L467.692,102.923 L481.154,102.923 C483.296,102.923 485.35,102.072 486.865,100.557 C488.38,99.043 489.231,96.988 489.231,94.846 L489.231,94.51 C489.231,92.457 488.415,90.488 486.964,89.036 C485.512,87.585 483.543,86.769 481.49,86.769 L475.769,86.769 C474.282,86.769 473.077,85.564 473.077,84.077 C473.077,82.59 474.282,81.385 475.769,81.385 L481.49,81.385 C484.971,81.385 488.31,82.767 490.771,85.229 C493.233,87.69 494.615,91.029 494.615,94.51 Z M440.769,100.231 L432.692,100.231 C431.978,100.231 431.293,99.947 430.789,99.442 C430.284,98.937 430,98.253 430,97.538 L430,94.846 C430,91.276 431.418,87.852 433.943,85.327 C436.467,82.803 439.891,81.385 443.462,81.385 L454.231,81.385 C455.718,81.385 456.923,82.59 456.923,84.077 C456.923,85.564 455.718,86.769 454.231,86.769 C454.231,90.339 452.812,93.763 450.288,96.288 C447.763,98.813 444.339,100.231 440.769,100.231 Z M448.846,86.769 L443.462,86.769 C441.319,86.769 439.265,87.62 437.75,89.135 C436.236,90.65 435.385,92.704 435.385,94.846 L440.769,94.846 C442.911,94.846 444.966,93.995 446.48,92.48 C447.995,90.966 448.846,88.911 448.846,86.769 Z" />
        </g>
        <g id="Black-S">
            <path d="M694.615,94.51 L694.615,94.846 C694.615,98.416 693.197,101.84 690.673,104.365 C688.148,106.889 684.724,108.308 681.154,108.308 L667.692,108.308 L667.692,135.231 L670.385,135.231 C672.618,135.232 674.62,133.854 675.417,131.768 C676.214,129.681 675.641,127.32 673.975,125.831 C672.925,124.828 672.86,123.173 673.828,122.09 C674.797,121.007 676.449,120.888 677.563,121.82 C680.891,124.796 682.036,129.518 680.443,133.688 C678.851,137.859 674.849,140.615 670.385,140.615 L667.692,140.615 L667.692,146 C667.692,147.487 666.487,148.692 665,148.692 C663.513,148.692 662.308,147.487 662.308,146 L662.308,140.615 L654.231,140.615 C652.744,140.615 651.538,139.41 651.538,137.923 C651.538,136.436 652.744,135.231 654.231,135.231 L662.308,135.231 L662.308,108.308 L654.231,108.308 C651.257,108.308 648.846,110.718 648.846,113.692 C648.846,116.666 651.257,119.077 654.231,119.077 C655.718,119.077 656.923,120.282 656.923,121.769 C656.923,123.256 655.718,124.462 654.231,124.462 C648.283,124.462 643.462,119.64 643.462,113.692 C643.462,107.745 648.283,102.923 654.231,102.923 L662.308,102.923 L662.308,76 C662.308,74.513 663.513,73.308 665,73.308 C666.487,73.308 667.692,74.513 667.692,76 L667.692,102.923 L681.154,102.923 C683.296,102.923 685.35,102.072 686.865,100.557 C688.38,99.043 689.231,96.988 689.231,94.846 L689.231,94.51 C689.231,92.457 688.415,90.488 686.964,89.036 C685.512,87.585 683.543,86.769 681.49,86.769 L675.769,86.769 C674.282,86.769 673.077,85.564 673.077,84.077 C673.077,82.59 674.282,81.385 675.769,81.385 L681.49,81.385 C684.971,81.385 688.31,82.767 690.771,85.229 C693.233,87.69 694.615,91.029 694.615,94.51 Z M640.769,100.231 L632.692,100.231 C631.978,100.231 631.293,99.947 630.789,99.442 C630.284,98.937 630,98.253 630,97.538 L630,94.846 C630,91.276 631.418,87.852 633.943,85.327 C636.467,82.803 639.891,81.385 643.462,81.385 L654.231,81.385 C655.718,81.385 656.923,82.59 656.923,84.077 C656.923,85.564 655.718,86.769 654.231,86.769 C654.231,90.339 652.812,93.763 650.288,96.288 C647.763,98.813 644.339,100.231 640.769,100.231 Z M648.846,86.769 L643.462,86.769 C641.319,86.769 639.265,87.62 637.75,89.135 C636.236,90.65 635.385,92.704 635.385,94.846 L640.769,94.846 C642.911,94.846 644.966,93.995 646.48,92.48 C647.995,90.966 648.846,88.911 648.846,86.769 Z" />
        </g>
    </g>
</svg>