<?xml version="1.0" encoding="UTF-8"?>
<svg height="600" width="800" xmlns="http://www.w3.org/2000/svg" xmlns:xlink="http://www.w3.org/1999/xlink">
    <g id="Notes" font-family="'LucidaGrande', 'Lucida Grande', sans-serif" font-size="13">
        <rect fill="white" height="600.0" width="800.0" x="0.0" y="0.0" />
        <g font-size="13">
            <text x="18.0" y="176.0">Small</text>
            <text x="18.0" y="376.0">Medium</text>
            <text x="18.0" y="576.0">Large</text>
        </g>
        <g font-size="9">
            <text x="250.0" y="30.0">Ultralight</text>
            <text x="450.0" y="30.0">Regular</text>
            <text x="650.0" y="30.0">Black</text>
            <text id="template-version" fill="#505050" text-anchor="end" x="785.0" y="575.0">Template v.3.0</text>
            <a href="https://github.com/swhitty/SwiftDraw">
                <text fill="#505050" text-anchor="end" x="785.0" y="590.0">https://github.com/swhitty/SwiftDraw</text>
            </a>
        </g>
    </g>
    <g id="Guides" stroke="rgb(39, 170, 225)" stroke-width="0.5">
        <path id="Capline-S" d="M18,76 l800,0" />
        <path id="H-reference" d="M85,145.755 L87.685,145.755 L113.369,79.287 L114.052,79.287 L114.052,76 L112.148,76 L85,145.755 Z M95.693,121.536 L130.996,121.536 L130.263,119.313 L96.474,119.313 L95.693,121.536 Z M139.15,145.755 L141.787,145.755 L114.638,76 L113.466,76 L113.466,79.287 L139.15,145.755 Z" stroke="none" />
        <path id="Baseline-S" d="M18,146 l800,0" />
        <path id="left-margin-Ultralight-S" d="M220,56 l0,110" />
        <path id="right-margin-Ultralight-S" d="M310,56 l0,110" />
        <path id="left-margin-Regular-S" d="M420,56 l0,110" />
        <path id="right-margin-Regular-S" d="M510,56 l0,110" />
        <path id="left-margin-Black-S" d="M620,56 l0,110" />
        <path id="right-margin-Black-S" d="M710,56 l0,110" />
        <path id="Capline-M" d="M18,276 l800,0" />
        <path id="Baseline-M" d="M18,346 l800,0" />
        <path id="Capline-L" d="M18,476 l800,0" />
        <path id="Baseline-L" d="M18,546 l800,0" />
    </g>
    <g id="Symbols">
        <g id="Ultralight-S">
            <path d="M277.115,94.846 C282.32,94.846 286.538,90.627 286.538,85.423 C286.538,80.219 282.32,76 277.115,76 C271.911,76 267.692,80.219 267.692,85.423 C267.692,87.922 268.685,90.319 270.452,92.086 C272.219,93.853 274.616,94.846 277.115,94.846 Z M277.115,81.385 C279.346,81.385 281.154,83.193 281.154,85.423 C281.154,87.653 279.346,89.462 277.115,89.462 C274.885,89.462 273.077,87.653 273.077,85.423 C273.077,84.352 273.502,83.325 274.26,82.567 C275.017,81.81 276.044,81.385 277.115,81.385 Z M289.231,113.692 C281.796,113.692 275.769,119.719 275.769,127.154 C275.769,134.588 281.796,140.615 289.231,140.615 C296.665,140.615 302.692,134.588 302.692,127.154 C302.692,123.584 301.274,120.16 298.75,117.635 C296.225,115.111 292.801,113.692 289.231,113.692 Z M289.231,135.231 C284.77,135.231 281.154,131.615 281.154,127.154 C281.154,122.693 284.77,119.077 289.231,119.077 C293.692,119.077 297.308,122.693 297.308,127.154 C297.308,129.296 296.457,131.35 294.942,132.865 C293.427,134.38 291.373,135.231 289.231,135.231 Z M240.769,113.692 C233.335,113.692 227.308,119.719 227.308,127.154 C227.308,134.588 233.335,140.615 240.769,140.615 C248.204,140.615 254.231,134.588 254.231,127.154 C254.231,123.584 252.812,120.16 250.288,117.635 C247.763,115.111 244.339,113.692 240.769,113.692 Z M240.769,135.231 C236.308,135.231 232.692,131.615 232.692,127.154 C232.692,122.693 236.308,119.077 240.769,119.077 C245.23,119.077 248.846,122.693 248.846,127.154 C248.846,129.296 247.995,131.35 246.48,132.865 C244.966,134.38 242.911,135.231 240.769,135.231 Z M286.538,108.308 L273.077,108.308 C272.363,108.308 271.677,108.025 271.172,107.52 L262.308,98.652 L255.345,105.615 L266.905,117.172 C267.41,117.677 267.693,118.363 267.692,119.077 L267.692,135.231 C267.692,136.718 266.487,137.923 265,137.923 C263.513,137.923 262.308,136.718 262.308,135.231 L262.308,120.191 L249.634,107.52 C249.128,107.015 248.844,106.33 248.844,105.615 C248.844,104.901 249.128,104.216 249.634,103.711 L260.403,92.941 C260.908,92.436 261.593,92.152 262.308,92.152 C263.022,92.152 263.708,92.436 264.212,92.941 L274.191,102.923 L286.538,102.923 C288.025,102.923 289.231,104.128 289.231,105.615 C289.231,107.102 288.025,108.308 286.538,108.308 Z" />
        </g>
        <g id="Regular-S">
            <path d="M477.115,94.846 C482.32,94.846 486.538,90.627 486.538,85.423 C486.538,80.219 482.32,76 477.115,76 C471.911,76 467.692,80.219 467.692,85.423 C467.692,87.922 468.685,90.319 470.452,92.086 C472.219,93.853 474.616,94.846 477.115,94.846 Z M477.115,81.385 C479.346,81.385 481.154,83.193 481.154,85.423 C481.154,87.653 479.346,89.462 477.115,89.462 C474.885,89.462 473.077,87.653 473.077,85.423 C473.077,84.352 473.502,83.325 474.26,82.567 C475.017,81.81 476.044,81.385 477.115,81.385 Z M489.231,113.692 C481.796,113.692 475.769,119.719 475.769,127.154 C475.769,134.588 481.796,140.615 489.231,140.615 C496.665,140.615 502.692,134.588 502.692,127.154 C502.692,123.584 501.274,120.16 498.75,117.635 C496.225,115.111 492.801,113.692 489.231,113.692 Z M489.231,135.231 C484.77,135.231 481.154,131.615 481.154,127.154 C481.154,122.693 484.77,119.077 489.231,119.077 C493.692,119.077 497.308,122.693 497.308,127.154 C497.308,129.296 496.457,131.35 494.942,132.865 C493.427,134.38 491.373,135.231 489.231,135.231 Z M440.769,113.692 C433.335,113.692 427.308,119.719 427.308,127.154 C427.308,134.588 433.335,140.615 440.769,140.615 C448.204,140.615 454.231,134.588 454.231,127.154 C454.231,123.584 452.812,120.16 450.288,117.635 C447.763,115.111 444.339,113.692 440.769,113.692 Z M440.769,135.231 C436.308,135.231 432.692,131.615 432.692,127.154 C432.692,122.693 436.308,119.077 440.769,119.077 C445.23,119.077 448.846,122.693 448.846,127.154 C448.846,129.296 447.995,131.35 446.48,132.865 C444.966,134.38 442.911,135.231 440.769,135.231 Z M486.538,108.308 L473.077,108.308 C472.363,108.308 471.677,108.025 471.172,107.52 L462.308,98.652 L455.345,105.615 L466.905,117.172 C467.41,117.677 467.693,118.363 467.692,119.077 L467.692,135.231 C467.692,136.718 466.487,137.923 465,137.923 C463.513,137.923 462.308,136.718 462.308,135.231 L462.308,120.191 L449.634,107.52 C449.128,107.015 448.844,106.33 448.844,105.615 C448.844,104.901 449.128,104.216 449.634,103.711 L460.403,92.941 C460.908,92.436 461.593,92.152 462.308,92.152 C463.022,92.152 463.707,92.436 464.212,92.941 L474.191,102.923 L486.538,102.923 C488.025,102.923 489.231,104.128 489.231,105.615 C489.231,107.102 488.025,108.308 486.538,108.308 Z" />
        </g>
        <g id="Black-S">
            <path d="M677.115,94.846 C682.32,94.846 686.538,90.627 686.538,85.423 C686.538,80.219 682.32,76 677.115,76 C671.911,76 667.692,80.219 667.692,85.423 C667.692,87.922 668.685,90.319 670.452,92.086 C672.219,93.853 674.616,94.846 677.115,94.846 Z M677.115,81.385 C679.346,81.385 681.154,83.193 681.154,85.423 C681.154,87.653 679.346,89.462 677.115,89.462 C674.885,89.462 673.077,87.653 673.077,85.423 C673.077,84.352 673.502,83.325 674.26,82.567 C675.017,81.81 676.044,81.385 677.115,81.385 Z M689.231,113.692 C681.796,113.692 675.769,119.719 675.769,127.154 C675.769,134.588 681.796,140.615 689.231,140.615 C696.665,140.615 702.692,134.588 702.692,127.154 C702.692,123.584 701.274,120.16 698.75,117.635 C696.225,115.111 692.801,113.692 689.231,113.692 Z M689.231,135.231 C684.77,135.231 681.154,131.615 681.154,127.154 C681.154,122.693 684.77,119.077 689.231,119.077 C693.692,119.077 697.308,122.693 697.308,127.154 C697.308,129.296 696.457,131.35 694.942,132.865 C693.427,134.38 691.373,135.231 689.231,135.231 Z M640.769,113.692 C633.335,113.692 627.308,119.719 627.308,127.154 C627.308,134.588 633.335,140.615 640.769,140.615 C648.204,140.615 654.231,134.588 654.231,127.154 C654.231,123.584 652.812,120.16 650.288,117.635 C647.763,115.111 644.339,113.692 640.769,113.692 Z M640.769,135.231 C636.308,135.231 632.692,131.615 632.692,127.154 C632.692,122.693 636.308,119.077 640.769,119.077 C645.23,119.077 648.846,122.693 648.846,127.154 C648.846,129.296 647.995,131.35 646.48,132.865 C644.966,134.38 642.911,135.231 640.769,135.231 Z M686.538,108.308 L673.077,108.308 C672.363,108.308 671.677,108.025 671.172,107.52 L662.308,98.652 L655.345,105.615 L666.905,117.172 C667.41,117.677 667.693,118.363 667.692,119.077 L667.692,135.231 C667.692,136.718 666.487,137.923 665,137.923 C663.513,137.923 662.308,136.718 662.308,135.231 L662.308,120.191 L649.634,107.52 C649.128,107.015 648.844,106.33 648.844,105.615 C648.844,104.901 649.128,104.216 649.634,103.711 L660.403,92.941 C660.908,92.436 661.593,92.152 662.308,92.152 C663.022,92.152 663.708,92.436 664.213,92.941 L674.191,102.923 L686.538,102.923 C688.025,102.923 689.231,104.128 689.231,105.615 C689.231,107.102 688.025,108.308 686.538,108.308 Z" />
        </g>
    </g>
</svg>