<?xml version="1.0" encoding="UTF-8"?>
<svg height="600" width="800" xmlns="http://www.w3.org/2000/svg" xmlns:xlink="http://www.w3.org/1999/xlink">
    <g id="Notes" font-family="'LucidaGrande', 'Lucida Grande', sans-serif" font-size="13">
        <rect fill="white" height="600.0" width="800.0" x="0.0" y="0.0" />
        <g font-size="13">
            <text x="18.0" y="176.0">Small</text>
            <text x="18.0" y="376.0">Medium</text>
            <text x="18.0" y="576.0">Large</text>
        </g>
        <g font-size="9">
            <text x="250.0" y="30.0">Ultralight</text>
            <text x="450.0" y="30.0">Regular</text>
            <text x="650.0" y="30.0">Black</text>
            <text id="template-version" fill="#505050" text-anchor="end" x="785.0" y="575.0">Template v.3.0</text>
            <a href="https://github.com/swhitty/SwiftDraw">
                <text fill="#505050" text-anchor="end" x="785.0" y="590.0">https://github.com/swhitty/SwiftDraw</text>
            </a>
        </g>
    </g>
    <g id="Guides" stroke="rgb(39, 170, 225)" stroke-width="0.5">
        <path id="Capline-S" d="M18,76 l800,0" />
        <path id="H-reference" d="M85,145.755 L87.685,145.755 L113.369,79.287 L114.052,79.287 L114.052,76 L112.148,76 L85,145.755 Z M95.693,121.536 L130.996,121.536 L130.263,119.313 L96.474,119.313 L95.693,121.536 Z M139.15,145.755 L141.787,145.755 L114.638,76 L113.466,76 L113.466,79.287 L139.15,145.755 Z" stroke="none" />
        <path id="Baseline-S" d="M18,146 l800,0" />
        <path id="left-margin-Ultralight-S" d="M220,56 l0,110" />
        <path id="right-margin-Ultralight-S" d="M310,56 l0,110" />
        <path id="left-margin-Regular-S" d="M420,56 l0,110" />
        <path id="right-margin-Regular-S" d="M510,56 l0,110" />
        <path id="left-margin-Black-S" d="M620,56 l0,110" />
        <path id="right-margin-Black-S" d="M710,56 l0,110" />
        <path id="Capline-M" d="M18,276 l800,0" />
        <path id="Baseline-M" d="M18,346 l800,0" />
        <path id="Capline-L" d="M18,476 l800,0" />
        <path id="Baseline-L" d="M18,546 l800,0" />
    </g>
    <g id="Symbols">
        <g id="Ultralight-S">
            <path d="M270.385,73.308 L259.615,73.308 C247.725,73.321 238.09,82.956 238.077,94.846 L238.077,127.154 C238.09,139.044 247.725,148.679 259.615,148.692 L270.385,148.692 C282.275,148.679 291.91,139.044 291.923,127.154 L291.923,94.846 C291.91,82.956 282.275,73.321 270.385,73.308 Z M286.538,127.154 C286.529,136.071 279.302,143.298 270.385,143.308 L259.615,143.308 C250.698,143.298 243.471,136.072 243.462,127.154 L243.462,94.846 C243.471,85.929 250.698,78.702 259.615,78.692 L270.385,78.692 C279.302,78.702 286.529,85.928 286.538,94.846 Z M267.692,95.96 L267.692,126.04 L271.172,122.557 C272.222,121.505 273.928,121.504 274.981,122.556 C276.033,123.607 276.034,125.313 274.983,126.365 L266.906,134.442 C266.401,134.948 265.716,135.232 265.001,135.232 C264.286,135.232 263.601,134.948 263.096,134.442 L255.019,126.365 C253.967,125.312 253.968,123.606 255.02,122.555 C256.073,121.503 257.779,121.504 258.83,122.557 L262.308,126.04 L262.308,95.96 L258.828,99.443 C257.778,100.495 256.072,100.496 255.019,99.444 C253.967,98.393 253.966,96.687 255.017,95.635 L263.094,87.558 C263.599,87.052 264.284,86.768 264.999,86.768 C265.714,86.768 266.399,87.052 266.904,87.558 L274.981,95.635 C276.033,96.688 276.032,98.394 274.98,99.445 C273.927,100.497 272.221,100.496 271.17,99.443 Z" />
        </g>
        <g id="Regular-S">
            <path d="M470.385,73.308 L459.615,73.308 C447.725,73.321 438.09,82.956 438.077,94.846 L438.077,127.154 C438.09,139.044 447.725,148.679 459.615,148.692 L470.385,148.692 C482.275,148.679 491.91,139.044 491.923,127.154 L491.923,94.846 C491.91,82.956 482.275,73.321 470.385,73.308 Z M486.538,127.154 C486.529,136.071 479.302,143.298 470.385,143.308 L459.615,143.308 C450.698,143.298 443.471,136.072 443.462,127.154 L443.462,94.846 C443.471,85.929 450.698,78.702 459.615,78.692 L470.385,78.692 C479.302,78.702 486.529,85.928 486.538,94.846 Z M467.692,95.96 L467.692,126.04 L471.172,122.557 C472.222,121.505 473.928,121.504 474.981,122.556 C476.033,123.607 476.034,125.313 474.983,126.365 L466.906,134.442 C466.401,134.948 465.716,135.232 465.001,135.232 C464.286,135.232 463.601,134.948 463.096,134.442 L455.019,126.365 C453.967,125.312 453.968,123.606 455.02,122.555 C456.073,121.503 457.779,121.504 458.83,122.557 L462.308,126.04 L462.308,95.96 L458.828,99.443 C457.778,100.495 456.072,100.496 455.019,99.444 C453.967,98.393 453.966,96.687 455.017,95.635 L463.094,87.558 C463.599,87.052 464.284,86.768 464.999,86.768 C465.714,86.768 466.399,87.052 466.904,87.558 L474.981,95.635 C476.033,96.688 476.032,98.394 474.98,99.445 C473.927,100.497 472.221,100.496 471.17,99.443 Z" />
        </g>
        <g id="Black-S">
            <path d="M670.385,73.308 L659.615,73.308 C647.725,73.321 638.09,82.956 638.077,94.846 L638.077,127.154 C638.09,139.044 647.725,148.679 659.615,148.692 L670.385,148.692 C682.275,148.679 691.91,139.044 691.923,127.154 L691.923,94.846 C691.91,82.956 682.275,73.321 670.385,73.308 Z M686.538,127.154 C686.529,136.071 679.302,143.298 670.385,143.308 L659.615,143.308 C650.698,143.298 643.471,136.072 643.462,127.154 L643.462,94.846 C643.471,85.929 650.698,78.702 659.615,78.692 L670.385,78.692 C679.302,78.702 686.529,85.928 686.538,94.846 Z M667.692,95.96 L667.692,126.04 L671.172,122.557 C672.222,121.505 673.928,121.504 674.981,122.556 C676.033,123.607 676.034,125.313 674.983,126.365 L666.906,134.442 C666.401,134.948 665.716,135.232 665.001,135.232 C664.286,135.232 663.601,134.948 663.096,134.442 L655.019,126.365 C653.967,125.312 653.968,123.606 655.02,122.555 C656.073,121.503 657.779,121.504 658.83,122.557 L662.308,126.04 L662.308,95.96 L658.828,99.443 C657.778,100.495 656.072,100.496 655.019,99.444 C653.967,98.393 653.966,96.687 655.017,95.635 L663.094,87.558 C663.599,87.052 664.284,86.768 664.999,86.768 C665.714,86.768 666.399,87.052 666.904,87.558 L674.981,95.635 C676.033,96.688 676.032,98.394 674.98,99.445 C673.927,100.497 672.221,100.496 671.17,99.443 Z" />
        </g>
    </g>
</svg>