<?xml version="1.0" encoding="UTF-8"?>
<svg height="600" width="800" xmlns="http://www.w3.org/2000/svg" xmlns:xlink="http://www.w3.org/1999/xlink">
    <g id="Notes" font-family="'LucidaGrande', 'Lucida Grande', sans-serif" font-size="13">
        <rect fill="white" height="600.0" width="800.0" x="0.0" y="0.0" />
        <g font-size="13">
            <text x="18.0" y="176.0">Small</text>
            <text x="18.0" y="376.0">Medium</text>
            <text x="18.0" y="576.0">Large</text>
        </g>
        <g font-size="9">
            <text x="250.0" y="30.0">Ultralight</text>
            <text x="450.0" y="30.0">Regular</text>
            <text x="650.0" y="30.0">Black</text>
            <text id="template-version" fill="#505050" text-anchor="end" x="785.0" y="575.0">Template v.3.0</text>
            <a href="https://github.com/swhitty/SwiftDraw">
                <text fill="#505050" text-anchor="end" x="785.0" y="590.0">https://github.com/swhitty/SwiftDraw</text>
            </a>
        </g>
    </g>
    <g id="Guides" stroke="rgb(39, 170, 225)" stroke-width="0.5">
        <path id="Capline-S" d="M18,76 l800,0" />
        <path id="H-reference" d="M85,145.755 L87.685,145.755 L113.369,79.287 L114.052,79.287 L114.052,76 L112.148,76 L85,145.755 Z M95.693,121.536 L130.996,121.536 L130.263,119.313 L96.474,119.313 L95.693,121.536 Z M139.15,145.755 L141.787,145.755 L114.638,76 L113.466,76 L113.466,79.287 L139.15,145.755 Z" stroke="none" />
        <path id="Baseline-S" d="M18,146 l800,0" />
        <path id="left-margin-Ultralight-S" d="M220,56 l0,110" />
        <path id="right-margin-Ultralight-S" d="M310,56 l0,110" />
        <path id="left-margin-Regular-S" d="M420,56 l0,110" />
        <path id="right-margin-Regular-S" d="M510,56 l0,110" />
        <path id="left-margin-Black-S" d="M620,56 l0,110" />
        <path id="right-margin-Black-S" d="M710,56 l0,110" />
        <path id="Capline-M" d="M18,276 l800,0" />
        <path id="Baseline-M" d="M18,346 l800,0" />
        <path id="Capline-L" d="M18,476 l800,0" />
        <path id="Baseline-L" d="M18,546 l800,0" />
    </g>
    <g id="Symbols">
        <g id="Ultralight-S">
            <path d="M293.915,138.805 C294.576,139.514 294.804,140.525 294.512,141.449 C294.221,142.374 293.454,143.07 292.506,143.272 C291.558,143.475 290.574,143.151 289.931,142.426 L272.431,123.193 C265.999,120.641 258.707,121.56 253.11,125.629 C252.334,126.216 251.301,126.338 250.409,125.949 C249.518,125.559 248.905,124.719 248.808,123.751 C248.711,122.782 249.143,121.837 249.94,121.278 C254.31,118.083 259.587,116.368 265,116.385 C265.431,116.385 265.858,116.385 266.286,116.418 L257.226,106.453 C251.833,107.636 246.781,110.033 242.452,113.46 C241.891,113.907 241.176,114.111 240.464,114.028 C239.752,113.946 239.102,113.582 238.659,113.019 C237.735,111.857 237.926,110.166 239.087,109.24 C243.259,105.939 248.023,103.465 253.124,101.95 L245.269,93.298 C240.367,95.289 235.795,98.012 231.71,101.375 C230.562,102.318 228.862,102.152 227.916,101.001 C226.97,99.85 227.136,98.151 228.287,97.205 C232.289,93.919 236.713,91.186 241.442,89.078 L236.085,83.195 C235.424,82.486 235.196,81.475 235.488,80.551 C235.779,79.626 236.546,78.93 237.494,78.728 C238.442,78.525 239.426,78.849 240.069,79.574 Z M265,132.538 C262.77,132.538 260.962,134.347 260.962,136.577 C260.962,138.807 262.77,140.615 265,140.615 C267.23,140.615 269.038,138.807 269.038,136.577 C269.038,135.506 268.613,134.479 267.856,133.721 C267.098,132.964 266.071,132.538 265,132.538 Z M301.71,97.202 C289.371,87.097 273.415,82.52 257.596,84.548 C256.624,84.647 255.782,85.265 255.396,86.163 C255.01,87.06 255.141,88.097 255.737,88.87 C256.334,89.644 257.303,90.034 258.269,89.889 C260.502,89.604 262.75,89.462 265,89.462 C277.138,89.468 288.9,93.674 298.29,101.365 C299.439,102.309 301.136,102.143 302.081,100.994 C303.025,99.845 302.86,98.147 301.71,97.203 Z M287.548,113.46 C288.108,113.904 288.821,114.107 289.53,114.025 C290.239,113.943 290.887,113.582 291.331,113.023 C291.774,112.463 291.978,111.75 291.896,111.041 C291.814,110.331 291.453,109.683 290.893,109.24 C285.801,105.21 279.841,102.422 273.484,101.096 C272.532,100.877 271.535,101.191 270.881,101.917 C270.227,102.643 270.017,103.666 270.333,104.591 C270.65,105.515 271.442,106.196 272.404,106.369 C277.934,107.525 283.119,109.953 287.548,113.46 Z" />
        </g>
        <g id="Regular-S">
            <path d="M493.915,138.805 C494.576,139.514 494.804,140.525 494.512,141.449 C494.221,142.374 493.454,143.07 492.506,143.272 C491.558,143.475 490.574,143.151 489.931,142.426 L472.431,123.193 C465.999,120.641 458.707,121.56 453.11,125.629 C452.334,126.216 451.301,126.338 450.409,125.949 C449.518,125.559 448.905,124.719 448.808,123.751 C448.711,122.782 449.143,121.837 449.94,121.278 C454.31,118.083 459.587,116.368 465,116.385 C465.431,116.385 465.858,116.385 466.286,116.418 L457.226,106.453 C451.833,107.636 446.78,110.033 442.452,113.46 C441.891,113.907 441.176,114.111 440.464,114.028 C439.752,113.946 439.102,113.582 438.659,113.019 C437.735,111.857 437.926,110.166 439.087,109.24 C443.259,105.939 448.023,103.465 453.124,101.95 L445.269,93.298 C440.367,95.289 435.795,98.012 431.71,101.375 C430.562,102.318 428.862,102.152 427.916,101.001 C426.97,99.85 427.136,98.151 428.287,97.205 C432.289,93.919 436.713,91.186 441.442,89.078 L436.085,83.195 C435.424,82.486 435.196,81.475 435.488,80.551 C435.779,79.626 436.546,78.93 437.494,78.728 C438.442,78.525 439.426,78.849 440.069,79.574 Z M465,132.538 C462.77,132.538 460.962,134.347 460.962,136.577 C460.962,138.807 462.77,140.615 465,140.615 C467.23,140.615 469.038,138.807 469.038,136.577 C469.038,135.506 468.613,134.479 467.856,133.721 C467.098,132.964 466.071,132.538 465,132.538 Z M501.71,97.202 C489.371,87.097 473.415,82.52 457.596,84.548 C456.624,84.647 455.782,85.265 455.396,86.163 C455.01,87.06 455.141,88.097 455.737,88.87 C456.334,89.644 457.303,90.034 458.269,89.889 C460.502,89.604 462.75,89.462 465,89.462 C477.138,89.468 488.9,93.674 498.29,101.365 C499.439,102.309 501.136,102.143 502.081,100.994 C503.025,99.845 502.86,98.147 501.71,97.203 Z M487.548,113.46 C488.108,113.904 488.821,114.107 489.53,114.025 C490.239,113.943 490.887,113.582 491.331,113.023 C491.774,112.463 491.978,111.75 491.896,111.041 C491.814,110.331 491.453,109.683 490.893,109.24 C485.801,105.21 479.841,102.422 473.484,101.096 C472.532,100.877 471.535,101.191 470.881,101.917 C470.227,102.643 470.017,103.666 470.333,104.591 C470.65,105.515 471.442,106.196 472.404,106.369 C477.934,107.525 483.119,109.953 487.548,113.46 Z" />
        </g>
        <g id="Black-S">
            <path d="M693.915,138.805 C694.576,139.514 694.804,140.525 694.512,141.449 C694.221,142.374 693.454,143.07 692.506,143.272 C691.558,143.475 690.574,143.151 689.931,142.426 L672.431,123.193 C665.999,120.641 658.707,121.56 653.11,125.629 C652.334,126.216 651.301,126.338 650.409,125.949 C649.518,125.559 648.905,124.719 648.808,123.751 C648.711,122.782 649.143,121.837 649.94,121.278 C654.31,118.083 659.587,116.368 665,116.385 C665.431,116.385 665.858,116.385 666.286,116.418 L657.226,106.453 C651.833,107.636 646.781,110.033 642.452,113.46 C641.891,113.907 641.176,114.111 640.464,114.028 C639.752,113.946 639.102,113.582 638.659,113.019 C637.735,111.857 637.926,110.166 639.087,109.24 C643.259,105.939 648.023,103.465 653.124,101.95 L645.269,93.298 C640.367,95.289 635.795,98.012 631.71,101.375 C630.562,102.318 628.862,102.152 627.916,101.001 C626.97,99.85 627.136,98.151 628.287,97.205 C632.289,93.919 636.713,91.186 641.442,89.078 L636.085,83.195 C635.424,82.486 635.196,81.475 635.488,80.551 C635.779,79.626 636.546,78.93 637.494,78.728 C638.442,78.525 639.426,78.849 640.069,79.574 Z M665,132.538 C662.77,132.538 660.962,134.347 660.962,136.577 C660.962,138.807 662.77,140.615 665,140.615 C667.23,140.615 669.038,138.807 669.038,136.577 C669.038,135.506 668.613,134.479 667.856,133.721 C667.098,132.964 666.071,132.538 665,132.538 Z M701.71,97.202 C689.371,87.097 673.415,82.52 657.596,84.548 C656.624,84.647 655.782,85.265 655.396,86.163 C655.01,87.06 655.141,88.097 655.737,88.87 C656.334,89.644 657.303,90.034 658.269,89.889 C660.502,89.604 662.75,89.462 665,89.462 C677.138,89.468 688.9,93.674 698.29,101.365 C699.439,102.309 701.136,102.143 702.081,100.994 C703.026,99.845 702.86,98.147 701.71,97.203 Z M687.548,113.46 C688.108,113.904 688.821,114.107 689.53,114.025 C690.24,113.943 690.887,113.582 691.331,113.023 C691.774,112.463 691.978,111.75 691.896,111.041 C691.814,110.331 691.453,109.683 690.893,109.24 C685.801,105.21 679.841,102.422 673.484,101.096 C672.532,100.877 671.535,101.191 670.881,101.917 C670.227,102.643 670.017,103.666 670.333,104.591 C670.65,105.515 671.442,106.196 672.404,106.369 C677.934,107.525 683.119,109.953 687.548,113.46 Z" />
        </g>
    </g>
</svg>