<?xml version="1.0" encoding="UTF-8"?>
<svg height="600" width="800" xmlns="http://www.w3.org/2000/svg" xmlns:xlink="http://www.w3.org/1999/xlink">
    <g id="Notes" font-family="'LucidaGrande', 'Lucida Grande', sans-serif" font-size="13">
        <rect fill="white" height="600.0" width="800.0" x="0.0" y="0.0" />
        <g font-size="13">
            <text x="18.0" y="176.0">Small</text>
            <text x="18.0" y="376.0">Medium</text>
            <text x="18.0" y="576.0">Large</text>
        </g>
        <g font-size="9">
            <text x="250.0" y="30.0">Ultralight</text>
            <text x="450.0" y="30.0">Regular</text>
            <text x="650.0" y="30.0">Black</text>
            <text id="template-version" fill="#505050" text-anchor="end" x="785.0" y="575.0">Template v.3.0</text>
            <a href="https://github.com/swhitty/SwiftDraw">
                <text fill="#505050" text-anchor="end" x="785.0" y="590.0">https://github.com/swhitty/SwiftDraw</text>
            </a>
        </g>
    </g>
    <g id="Guides" stroke="rgb(39, 170, 225)" stroke-width="0.5">
        <path id="Capline-S" d="M18,76 l800,0" />
        <path id="H-reference" d="M85,145.755 L87.685,145.755 L113.369,79.287 L114.052,79.287 L114.052,76 L112.148,76 L85,145.755 Z M95.693,121.536 L130.996,121.536 L130.263,119.313 L96.474,119.313 L95.693,121.536 Z M139.15,145.755 L141.787,145.755 L114.638,76 L113.466,76 L113.466,79.287 L139.15,145.755 Z" stroke="none" />
        <path id="Baseline-S" d="M18,146 l800,0" />
        <path id="left-margin-Ultralight-S" d="M220,56 l0,110" />
        <path id="right-margin-Ultralight-S" d="M310,56 l0,110" />
        <path id="left-margin-Regular-S" d="M420,56 l0,110" />
        <path id="right-margin-Regular-S" d="M510,56 l0,110" />
        <path id="left-margin-Black-S" d="M620,56 l0,110" />
        <path id="right-margin-Black-S" d="M710,56 l0,110" />
        <path id="Capline-M" d="M18,276 l800,0" />
        <path id="Baseline-M" d="M18,346 l800,0" />
        <path id="Capline-L" d="M18,476 l800,0" />
        <path id="Baseline-L" d="M18,546 l800,0" />
    </g>
    <g id="Symbols">
        <g id="Ultralight-S">
            <path d="M297.308,111 L232.692,111 C231.264,111 229.895,111.567 228.885,112.577 C227.875,113.587 227.308,114.957 227.308,116.385 L227.308,127.154 C227.308,128.582 227.875,129.952 228.885,130.961 C229.895,131.971 231.264,132.538 232.692,132.538 L297.308,132.538 C298.736,132.538 300.105,131.971 301.115,130.961 C302.125,129.952 302.692,128.582 302.692,127.154 L302.692,116.385 C302.692,114.957 302.125,113.587 301.115,112.577 C300.105,111.567 298.736,111 297.308,111 Z M232.692,116.385 L248.846,116.385 L248.846,127.154 L232.692,127.154 Z M297.308,127.154 L254.231,127.154 L254.231,116.385 L297.308,116.385 L297.308,127.154 Z M289.567,88.142 C292.26,83.353 292.064,80.836 291.708,79.759 C291.552,79.245 291.241,78.792 290.819,78.46 C289.936,78.072 289.327,77.241 289.224,76.282 C289.122,75.323 289.54,74.381 290.321,73.815 C291.102,73.249 292.127,73.144 293.007,73.54 C294.835,74.471 296.21,76.103 296.816,78.063 C297.947,81.475 297.089,85.753 294.259,90.781 C291.566,95.57 291.762,98.09 292.118,99.164 C292.274,99.678 292.585,100.131 293.007,100.463 C293.89,100.851 294.499,101.682 294.601,102.641 C294.704,103.601 294.286,104.542 293.505,105.108 C292.724,105.674 291.699,105.779 290.819,105.383 C288.991,104.452 287.616,102.821 287.01,100.86 C285.889,97.448 286.747,93.163 289.567,88.142 Z M276.106,88.142 C278.798,83.353 278.603,80.836 278.246,79.759 C278.09,79.245 277.78,78.792 277.358,78.46 C276.474,78.072 275.866,77.241 275.763,76.282 C275.66,75.323 276.078,74.381 276.86,73.815 C277.641,73.249 278.665,73.144 279.545,73.54 C281.374,74.471 282.748,76.103 283.355,78.063 C284.486,81.475 283.627,85.753 280.797,90.781 C278.105,95.57 278.3,98.09 278.657,99.164 C278.813,99.678 279.123,100.131 279.545,100.463 C280.429,100.851 281.037,101.682 281.14,102.641 C281.243,103.601 280.824,104.542 280.043,105.108 C279.262,105.674 278.238,105.779 277.358,105.383 C275.529,104.452 274.155,102.821 273.548,100.86 C272.427,97.448 273.286,93.163 276.106,88.142 Z" />
        </g>
        <g id="Regular-S">
            <path d="M497.308,111 L432.692,111 C431.264,111 429.895,111.567 428.885,112.577 C427.875,113.587 427.308,114.957 427.308,116.385 L427.308,127.154 C427.308,128.582 427.875,129.952 428.885,130.961 C429.895,131.971 431.264,132.538 432.692,132.538 L497.308,132.538 C498.736,132.538 500.105,131.971 501.115,130.961 C502.125,129.952 502.692,128.582 502.692,127.154 L502.692,116.385 C502.692,114.957 502.125,113.587 501.115,112.577 C500.105,111.567 498.736,111 497.308,111 Z M432.692,116.385 L448.846,116.385 L448.846,127.154 L432.692,127.154 Z M497.308,127.154 L454.231,127.154 L454.231,116.385 L497.308,116.385 L497.308,127.154 Z M489.567,88.142 C492.26,83.353 492.064,80.836 491.708,79.759 C491.552,79.245 491.241,78.792 490.819,78.46 C489.936,78.072 489.327,77.241 489.224,76.282 C489.122,75.323 489.54,74.381 490.321,73.815 C491.102,73.249 492.127,73.144 493.007,73.54 C494.835,74.471 496.21,76.103 496.816,78.063 C497.947,81.475 497.089,85.753 494.259,90.781 C491.566,95.57 491.762,98.09 492.118,99.164 C492.274,99.678 492.585,100.131 493.007,100.463 C493.89,100.851 494.499,101.682 494.601,102.641 C494.704,103.601 494.286,104.542 493.505,105.108 C492.724,105.674 491.699,105.779 490.819,105.383 C488.99,104.452 487.616,102.821 487.01,100.86 C485.889,97.448 486.747,93.163 489.567,88.142 Z M476.106,88.142 C478.798,83.353 478.603,80.836 478.246,79.759 C478.09,79.245 477.78,78.792 477.358,78.46 C476.474,78.072 475.866,77.241 475.763,76.282 C475.66,75.323 476.078,74.381 476.86,73.815 C477.641,73.249 478.665,73.144 479.545,73.54 C481.374,74.471 482.748,76.103 483.355,78.063 C484.486,81.475 483.627,85.753 480.797,90.781 C478.105,95.57 478.3,98.09 478.657,99.164 C478.813,99.678 479.123,100.131 479.545,100.463 C480.429,100.851 481.037,101.682 481.14,102.641 C481.243,103.601 480.824,104.542 480.043,105.108 C479.262,105.674 478.237,105.779 477.358,105.383 C475.529,104.452 474.155,102.821 473.548,100.86 C472.427,97.448 473.286,93.163 476.106,88.142 Z" />
        </g>
        <g id="Black-S">
            <path d="M697.308,111 L632.692,111 C631.264,111 629.895,111.567 628.885,112.577 C627.875,113.587 627.308,114.957 627.308,116.385 L627.308,127.154 C627.308,128.582 627.875,129.952 628.885,130.961 C629.895,131.971 631.264,132.538 632.692,132.538 L697.308,132.538 C698.736,132.538 700.105,131.971 701.115,130.961 C702.125,129.952 702.692,128.582 702.692,127.154 L702.692,116.385 C702.692,114.957 702.125,113.587 701.115,112.577 C700.105,111.567 698.736,111 697.308,111 Z M632.692,116.385 L648.846,116.385 L648.846,127.154 L632.692,127.154 Z M697.308,127.154 L654.231,127.154 L654.231,116.385 L697.308,116.385 L697.308,127.154 Z M689.567,88.142 C692.26,83.353 692.064,80.836 691.708,79.759 C691.552,79.245 691.241,78.792 690.819,78.46 C689.936,78.072 689.327,77.241 689.224,76.282 C689.122,75.323 689.54,74.381 690.321,73.815 C691.102,73.249 692.127,73.144 693.007,73.54 C694.836,74.471 696.21,76.103 696.816,78.063 C697.947,81.475 697.089,85.753 694.259,90.781 C691.566,95.57 691.762,98.09 692.118,99.164 C692.274,99.678 692.585,100.131 693.007,100.463 C693.89,100.851 694.499,101.682 694.601,102.641 C694.704,103.601 694.286,104.542 693.505,105.108 C692.724,105.674 691.699,105.779 690.819,105.383 C688.991,104.452 687.616,102.821 687.01,100.86 C685.889,97.448 686.747,93.163 689.567,88.142 Z M676.106,88.142 C678.798,83.353 678.603,80.836 678.246,79.759 C678.09,79.245 677.78,78.792 677.358,78.46 C676.474,78.072 675.866,77.241 675.763,76.282 C675.66,75.323 676.078,74.381 676.86,73.815 C677.641,73.249 678.665,73.144 679.545,73.54 C681.374,74.471 682.748,76.103 683.355,78.063 C684.486,81.475 683.627,85.753 680.797,90.781 C678.105,95.57 678.3,98.09 678.657,99.164 C678.813,99.678 679.123,100.131 679.545,100.463 C680.429,100.851 681.037,101.682 681.14,102.641 C681.243,103.601 680.824,104.542 680.043,105.108 C679.262,105.674 678.238,105.779 677.358,105.383 C675.529,104.452 674.155,102.821 673.548,100.86 C672.427,97.448 673.286,93.163 676.106,88.142 Z" />
        </g>
    </g>
</svg>