<?xml version="1.0" encoding="UTF-8"?>
<svg height="600" width="800" xmlns="http://www.w3.org/2000/svg" xmlns:xlink="http://www.w3.org/1999/xlink">
    <g id="Notes" font-family="'LucidaGrande', 'Lucida Grande', sans-serif" font-size="13">
        <rect fill="white" height="600.0" width="800.0" x="0.0" y="0.0" />
        <g font-size="13">
            <text x="18.0" y="176.0">Small</text>
            <text x="18.0" y="376.0">Medium</text>
            <text x="18.0" y="576.0">Large</text>
        </g>
        <g font-size="9">
            <text x="250.0" y="30.0">Ultralight</text>
            <text x="450.0" y="30.0">Regular</text>
            <text x="650.0" y="30.0">Black</text>
            <text id="template-version" fill="#505050" text-anchor="end" x="785.0" y="575.0">Template v.3.0</text>
            <a href="https://github.com/swhitty/SwiftDraw">
                <text fill="#505050" text-anchor="end" x="785.0" y="590.0">https://github.com/swhitty/SwiftDraw</text>
            </a>
        </g>
    </g>
    <g id="Guides" stroke="rgb(39, 170, 225)" stroke-width="0.5">
        <path id="Capline-S" d="M18,76 l800,0" />
        <path id="H-reference" d="M85,145.755 L87.685,145.755 L113.369,79.287 L114.052,79.287 L114.052,76 L112.148,76 L85,145.755 Z M95.693,121.536 L130.996,121.536 L130.263,119.313 L96.474,119.313 L95.693,121.536 Z M139.15,145.755 L141.787,145.755 L114.638,76 L113.466,76 L113.466,79.287 L139.15,145.755 Z" stroke="none" />
        <path id="Baseline-S" d="M18,146 l800,0" />
        <path id="left-margin-Ultralight-S" d="M220,56 l0,110" />
        <path id="right-margin-Ultralight-S" d="M310,56 l0,110" />
        <path id="left-margin-Regular-S" d="M420,56 l0,110" />
        <path id="right-margin-Regular-S" d="M510,56 l0,110" />
        <path id="left-margin-Black-S" d="M620,56 l0,110" />
        <path id="right-margin-Black-S" d="M710,56 l0,110" />
        <path id="Capline-M" d="M18,276 l800,0" />
        <path id="Baseline-M" d="M18,346 l800,0" />
        <path id="Capline-L" d="M18,476 l800,0" />
        <path id="Baseline-L" d="M18,546 l800,0" />
    </g>
    <g id="Symbols">
        <g id="Ultralight-S">
            <path d="M235.385,97.538 L246.49,97.538 C247.71,102.304 252.004,105.637 256.923,105.637 C261.842,105.637 266.136,102.304 267.356,97.538 L294.615,97.538 C296.102,97.538 297.308,96.333 297.308,94.846 C297.308,93.359 296.102,92.154 294.615,92.154 L267.356,92.154 C266.136,87.389 261.842,84.056 256.923,84.056 C252.004,84.056 247.71,87.389 246.49,92.154 L235.385,92.154 C233.898,92.154 232.692,93.359 232.692,94.846 C232.692,96.333 233.898,97.538 235.385,97.538 Z M256.923,89.462 C259.897,89.462 262.308,91.872 262.308,94.846 C262.308,97.82 259.897,100.231 256.923,100.231 C253.949,100.231 251.538,97.82 251.538,94.846 C251.538,93.418 252.106,92.048 253.116,91.039 C254.125,90.029 255.495,89.462 256.923,89.462 Z M294.615,124.462 L288.894,124.462 C287.674,119.696 283.38,116.364 278.462,116.364 C273.543,116.364 269.249,119.696 268.029,124.462 L235.385,124.462 C233.898,124.462 232.692,125.667 232.692,127.154 C232.692,128.641 233.898,129.846 235.385,129.846 L268.029,129.846 C269.249,134.611 273.543,137.944 278.462,137.944 C283.38,137.944 287.674,134.611 288.894,129.846 L294.615,129.846 C296.102,129.846 297.308,128.641 297.308,127.154 C297.308,125.667 296.102,124.462 294.615,124.462 Z M278.462,132.538 C275.488,132.538 273.077,130.128 273.077,127.154 C273.077,124.18 275.488,121.769 278.462,121.769 C281.435,121.769 283.846,124.18 283.846,127.154 C283.846,128.582 283.279,129.952 282.269,130.961 C281.259,131.971 279.89,132.538 278.462,132.538 Z" />
        </g>
        <g id="Regular-S">
            <path d="M435.385,97.538 L446.49,97.538 C447.71,102.304 452.004,105.637 456.923,105.637 C461.842,105.637 466.136,102.304 467.356,97.538 L494.615,97.538 C496.102,97.538 497.308,96.333 497.308,94.846 C497.308,93.359 496.102,92.154 494.615,92.154 L467.356,92.154 C466.136,87.389 461.842,84.056 456.923,84.056 C452.004,84.056 447.71,87.389 446.49,92.154 L435.385,92.154 C433.898,92.154 432.692,93.359 432.692,94.846 C432.692,96.333 433.898,97.538 435.385,97.538 Z M456.923,89.462 C459.897,89.462 462.308,91.872 462.308,94.846 C462.308,97.82 459.897,100.231 456.923,100.231 C453.949,100.231 451.538,97.82 451.538,94.846 C451.538,93.418 452.106,92.048 453.116,91.039 C454.125,90.029 455.495,89.462 456.923,89.462 Z M494.615,124.462 L488.894,124.462 C487.674,119.696 483.38,116.364 478.462,116.364 C473.543,116.364 469.249,119.696 468.029,124.462 L435.385,124.462 C433.898,124.462 432.692,125.667 432.692,127.154 C432.692,128.641 433.898,129.846 435.385,129.846 L468.029,129.846 C469.249,134.611 473.543,137.944 478.462,137.944 C483.38,137.944 487.674,134.611 488.894,129.846 L494.615,129.846 C496.102,129.846 497.308,128.641 497.308,127.154 C497.308,125.667 496.102,124.462 494.615,124.462 Z M478.462,132.538 C475.488,132.538 473.077,130.128 473.077,127.154 C473.077,124.18 475.488,121.769 478.462,121.769 C481.435,121.769 483.846,124.18 483.846,127.154 C483.846,128.582 483.279,129.952 482.269,130.961 C481.259,131.971 479.89,132.538 478.462,132.538 Z" />
        </g>
        <g id="Black-S">
            <path d="M635.385,97.538 L646.49,97.538 C647.71,102.304 652.004,105.637 656.923,105.637 C661.842,105.637 666.136,102.304 667.356,97.538 L694.615,97.538 C696.102,97.538 697.308,96.333 697.308,94.846 C697.308,93.359 696.102,92.154 694.615,92.154 L667.356,92.154 C666.136,87.389 661.842,84.056 656.923,84.056 C652.004,84.056 647.71,87.389 646.49,92.154 L635.385,92.154 C633.898,92.154 632.692,93.359 632.692,94.846 C632.692,96.333 633.898,97.538 635.385,97.538 Z M656.923,89.462 C659.897,89.462 662.308,91.872 662.308,94.846 C662.308,97.82 659.897,100.231 656.923,100.231 C653.949,100.231 651.538,97.82 651.538,94.846 C651.538,93.418 652.106,92.048 653.116,91.039 C654.125,90.029 655.495,89.462 656.923,89.462 Z M694.615,124.462 L688.894,124.462 C687.674,119.696 683.38,116.364 678.462,116.364 C673.543,116.364 669.249,119.696 668.029,124.462 L635.385,124.462 C633.898,124.462 632.692,125.667 632.692,127.154 C632.692,128.641 633.898,129.846 635.385,129.846 L668.029,129.846 C669.249,134.611 673.543,137.944 678.462,137.944 C683.38,137.944 687.674,134.611 688.894,129.846 L694.615,129.846 C696.102,129.846 697.308,128.641 697.308,127.154 C697.308,125.667 696.102,124.462 694.615,124.462 Z M678.462,132.538 C675.488,132.538 673.077,130.128 673.077,127.154 C673.077,124.18 675.488,121.769 678.462,121.769 C681.435,121.769 683.846,124.18 683.846,127.154 C683.846,128.582 683.279,129.952 682.269,130.961 C681.259,131.971 679.89,132.538 678.462,132.538 Z" />
        </g>
    </g>
</svg>