<?xml version="1.0" encoding="UTF-8"?>
<svg height="600" width="800" xmlns="http://www.w3.org/2000/svg" xmlns:xlink="http://www.w3.org/1999/xlink">
    <g id="Notes" font-family="'LucidaGrande', 'Lucida Grande', sans-serif" font-size="13">
        <rect fill="white" height="600.0" width="800.0" x="0.0" y="0.0" />
        <g font-size="13">
            <text x="18.0" y="176.0">Small</text>
            <text x="18.0" y="376.0">Medium</text>
            <text x="18.0" y="576.0">Large</text>
        </g>
        <g font-size="9">
            <text x="250.0" y="30.0">Ultralight</text>
            <text x="450.0" y="30.0">Regular</text>
            <text x="650.0" y="30.0">Black</text>
            <text id="template-version" fill="#505050" text-anchor="end" x="785.0" y="575.0">Template v.3.0</text>
            <a href="https://github.com/swhitty/SwiftDraw">
                <text fill="#505050" text-anchor="end" x="785.0" y="590.0">https://github.com/swhitty/SwiftDraw</text>
            </a>
        </g>
    </g>
    <g id="Guides" stroke="rgb(39, 170, 225)" stroke-width="0.5">
        <path id="Capline-S" d="M18,76 l800,0" />
        <path id="H-reference" d="M85,145.755 L87.685,145.755 L113.369,79.287 L114.052,79.287 L114.052,76 L112.148,76 L85,145.755 Z M95.693,121.536 L130.996,121.536 L130.263,119.313 L96.474,119.313 L95.693,121.536 Z M139.15,145.755 L141.787,145.755 L114.638,76 L113.466,76 L113.466,79.287 L139.15,145.755 Z" stroke="none" />
        <path id="Baseline-S" d="M18,146 l800,0" />
        <path id="left-margin-Ultralight-S" d="M220,56 l0,110" />
        <path id="right-margin-Ultralight-S" d="M310,56 l0,110" />
        <path id="left-margin-Regular-S" d="M420,56 l0,110" />
        <path id="right-margin-Regular-S" d="M510,56 l0,110" />
        <path id="left-margin-Black-S" d="M620,56 l0,110" />
        <path id="right-margin-Black-S" d="M710,56 l0,110" />
        <path id="Capline-M" d="M18,276 l800,0" />
        <path id="Baseline-M" d="M18,346 l800,0" />
        <path id="Capline-L" d="M18,476 l800,0" />
        <path id="Baseline-L" d="M18,546 l800,0" />
    </g>
    <g id="Symbols">
        <g id="Ultralight-S">
            <path d="M294.615,81.385 L235.385,81.385 C233.957,81.385 232.587,81.952 231.577,82.962 C230.567,83.972 230,85.341 230,86.769 L230,135.231 C230,136.659 230.567,138.028 231.577,139.038 C232.587,140.048 233.957,140.615 235.385,140.615 L239.891,140.615 C240.931,140.616 241.878,140.017 242.324,139.077 C244.996,133.436 250.68,129.838 256.923,129.838 C263.166,129.838 268.85,133.436 271.522,139.077 C271.968,140.017 272.915,140.616 273.955,140.615 L294.615,140.615 C296.043,140.615 297.413,140.048 298.423,139.038 C299.433,138.028 300,136.659 300,135.231 L300,86.769 C300,85.341 299.433,83.972 298.423,82.962 C297.413,81.952 296.043,81.385 294.615,81.385 Z M248.846,116.385 C248.846,111.924 252.462,108.308 256.923,108.308 C261.384,108.308 265,111.924 265,116.385 C265,120.845 261.384,124.462 256.923,124.462 C254.781,124.462 252.727,123.611 251.212,122.096 C249.697,120.581 248.846,118.527 248.846,116.385 Z M294.615,135.231 L275.577,135.231 C273.329,131.365 269.94,128.29 265.875,126.427 C270.048,122.712 271.492,116.805 269.504,111.584 C267.516,106.363 262.51,102.912 256.923,102.912 C251.336,102.912 246.33,106.363 244.342,111.584 C242.355,116.805 243.799,122.712 247.971,126.427 C243.906,128.29 240.517,131.365 238.269,135.231 L235.385,135.231 L235.385,86.769 L294.615,86.769 Z M240.769,100.231 L240.769,94.846 C240.769,94.132 241.053,93.447 241.558,92.942 C242.063,92.438 242.747,92.154 243.462,92.154 L286.538,92.154 C287.253,92.154 287.937,92.438 288.442,92.942 C288.947,93.447 289.231,94.132 289.231,94.846 L289.231,127.154 C289.231,127.868 288.947,128.553 288.442,129.058 C287.937,129.562 287.253,129.846 286.538,129.846 L281.154,129.846 C279.667,129.846 278.462,128.641 278.462,127.154 C278.462,125.667 279.667,124.462 281.154,124.462 L283.846,124.462 L283.846,97.538 L246.154,97.538 L246.154,100.231 C246.154,101.718 244.948,102.923 243.462,102.923 C241.975,102.923 240.769,101.718 240.769,100.231 Z" />
        </g>
        <g id="Regular-S">
            <path d="M494.615,81.385 L435.385,81.385 C433.957,81.385 432.587,81.952 431.577,82.962 C430.567,83.972 430,85.341 430,86.769 L430,135.231 C430,136.659 430.567,138.028 431.577,139.038 C432.587,140.048 433.957,140.615 435.385,140.615 L439.891,140.615 C440.931,140.616 441.878,140.017 442.324,139.077 C444.996,133.436 450.68,129.838 456.923,129.838 C463.166,129.838 468.85,133.436 471.522,139.077 C471.968,140.017 472.915,140.616 473.955,140.615 L494.615,140.615 C496.043,140.615 497.413,140.048 498.423,139.038 C499.433,138.028 500,136.659 500,135.231 L500,86.769 C500,85.341 499.433,83.972 498.423,82.962 C497.413,81.952 496.043,81.385 494.615,81.385 Z M448.846,116.385 C448.846,111.924 452.462,108.308 456.923,108.308 C461.384,108.308 465,111.924 465,116.385 C465,120.845 461.384,124.462 456.923,124.462 C454.781,124.462 452.727,123.611 451.212,122.096 C449.697,120.581 448.846,118.527 448.846,116.385 Z M494.615,135.231 L475.577,135.231 C473.329,131.365 469.94,128.29 465.875,126.427 C470.047,122.712 471.492,116.805 469.504,111.584 C467.516,106.363 462.51,102.912 456.923,102.912 C451.336,102.912 446.33,106.363 444.342,111.584 C442.355,116.805 443.799,122.712 447.971,126.427 C443.906,128.29 440.517,131.365 438.269,135.231 L435.385,135.231 L435.385,86.769 L494.615,86.769 Z M440.769,100.231 L440.769,94.846 C440.769,94.132 441.053,93.447 441.558,92.942 C442.063,92.438 442.747,92.154 443.462,92.154 L486.538,92.154 C487.253,92.154 487.937,92.438 488.442,92.942 C488.947,93.447 489.231,94.132 489.231,94.846 L489.231,127.154 C489.231,127.868 488.947,128.553 488.442,129.058 C487.937,129.562 487.253,129.846 486.538,129.846 L481.154,129.846 C479.667,129.846 478.462,128.641 478.462,127.154 C478.462,125.667 479.667,124.462 481.154,124.462 L483.846,124.462 L483.846,97.538 L446.154,97.538 L446.154,100.231 C446.154,101.718 444.948,102.923 443.462,102.923 C441.975,102.923 440.769,101.718 440.769,100.231 Z" />
        </g>
        <g id="Black-S">
            <path d="M694.615,81.385 L635.385,81.385 C633.957,81.385 632.587,81.952 631.577,82.962 C630.567,83.972 630,85.341 630,86.769 L630,135.231 C630,136.659 630.567,138.028 631.577,139.038 C632.587,140.048 633.957,140.615 635.385,140.615 L639.891,140.615 C640.931,140.616 641.878,140.017 642.324,139.077 C644.996,133.436 650.68,129.838 656.923,129.838 C663.166,129.838 668.85,133.436 671.522,139.077 C671.968,140.017 672.915,140.616 673.955,140.615 L694.615,140.615 C696.044,140.615 697.413,140.048 698.423,139.038 C699.433,138.028 700,136.659 700,135.231 L700,86.769 C700,85.341 699.433,83.972 698.423,82.962 C697.413,81.952 696.044,81.385 694.615,81.385 Z M648.846,116.385 C648.846,111.924 652.462,108.308 656.923,108.308 C661.384,108.308 665,111.924 665,116.385 C665,120.845 661.384,124.462 656.923,124.462 C654.781,124.462 652.727,123.611 651.212,122.096 C649.697,120.581 648.846,118.527 648.846,116.385 Z M694.615,135.231 L675.577,135.231 C673.329,131.365 669.94,128.29 665.875,126.427 C670.048,122.712 671.492,116.805 669.504,111.584 C667.516,106.363 662.51,102.912 656.923,102.912 C651.336,102.912 646.33,106.363 644.342,111.584 C642.355,116.805 643.799,122.712 647.971,126.427 C643.906,128.29 640.517,131.365 638.269,135.231 L635.385,135.231 L635.385,86.769 L694.615,86.769 Z M640.769,100.231 L640.769,94.846 C640.769,94.132 641.053,93.447 641.558,92.942 C642.063,92.438 642.747,92.154 643.462,92.154 L686.538,92.154 C687.253,92.154 687.937,92.438 688.442,92.942 C688.947,93.447 689.231,94.132 689.231,94.846 L689.231,127.154 C689.231,127.868 688.947,128.553 688.442,129.058 C687.937,129.562 687.253,129.846 686.538,129.846 L681.154,129.846 C679.667,129.846 678.462,128.641 678.462,127.154 C678.462,125.667 679.667,124.462 681.154,124.462 L683.846,124.462 L683.846,97.538 L646.154,97.538 L646.154,100.231 C646.154,101.718 644.948,102.923 643.462,102.923 C641.975,102.923 640.769,101.718 640.769,100.231 Z" />
        </g>
    </g>
</svg>