<?xml version="1.0" encoding="UTF-8"?>
<svg height="600" width="800" xmlns="http://www.w3.org/2000/svg" xmlns:xlink="http://www.w3.org/1999/xlink">
    <g id="Notes" font-family="'LucidaGrande', 'Lucida Grande', sans-serif" font-size="13">
        <rect fill="white" height="600.0" width="800.0" x="0.0" y="0.0" />
        <g font-size="13">
            <text x="18.0" y="176.0">Small</text>
            <text x="18.0" y="376.0">Medium</text>
            <text x="18.0" y="576.0">Large</text>
        </g>
        <g font-size="9">
            <text x="250.0" y="30.0">Ultralight</text>
            <text x="450.0" y="30.0">Regular</text>
            <text x="650.0" y="30.0">Black</text>
            <text id="template-version" fill="#505050" text-anchor="end" x="785.0" y="575.0">Template v.3.0</text>
            <a href="https://github.com/swhitty/SwiftDraw">
                <text fill="#505050" text-anchor="end" x="785.0" y="590.0">https://github.com/swhitty/SwiftDraw</text>
            </a>
        </g>
    </g>
    <g id="Guides" stroke="rgb(39, 170, 225)" stroke-width="0.5">
        <path id="Capline-S" d="M18,76 l800,0" />
        <path id="H-reference" d="M85,145.755 L87.685,145.755 L113.369,79.287 L114.052,79.287 L114.052,76 L112.148,76 L85,145.755 Z M95.693,121.536 L130.996,121.536 L130.263,119.313 L96.474,119.313 L95.693,121.536 Z M139.15,145.755 L141.787,145.755 L114.638,76 L113.466,76 L113.466,79.287 L139.15,145.755 Z" stroke="none" />
        <path id="Baseline-S" d="M18,146 l800,0" />
        <path id="left-margin-Ultralight-S" d="M220,56 l0,110" />
        <path id="right-margin-Ultralight-S" d="M310,56 l0,110" />
        <path id="left-margin-Regular-S" d="M420,56 l0,110" />
        <path id="right-margin-Regular-S" d="M510,56 l0,110" />
        <path id="left-margin-Black-S" d="M620,56 l0,110" />
        <path id="right-margin-Black-S" d="M710,56 l0,110" />
        <path id="Capline-M" d="M18,276 l800,0" />
        <path id="Baseline-M" d="M18,346 l800,0" />
        <path id="Capline-L" d="M18,476 l800,0" />
        <path id="Baseline-L" d="M18,546 l800,0" />
    </g>
    <g id="Symbols">
        <g id="Ultralight-S">
            <path d="M248.846,108.308 L281.154,108.308 C281.868,108.308 282.553,108.024 283.058,107.519 C283.562,107.014 283.846,106.329 283.846,105.615 L283.846,89.462 C283.846,88.747 283.562,88.063 283.058,87.558 C282.553,87.053 281.868,86.769 281.154,86.769 L248.846,86.769 C248.132,86.769 247.447,87.053 246.942,87.558 C246.438,88.063 246.154,88.747 246.154,89.462 L246.154,105.615 C246.154,106.329 246.438,107.014 246.942,107.519 C247.447,108.024 248.132,108.308 248.846,108.308 Z M251.538,92.154 L278.462,92.154 L278.462,102.923 L251.538,102.923 Z M289.231,76 L240.769,76 C239.341,76 237.972,76.567 236.962,77.577 C235.952,78.587 235.385,79.957 235.385,81.385 L235.385,140.615 C235.385,142.043 235.952,143.413 236.962,144.423 C237.972,145.433 239.341,146 240.769,146 L289.231,146 C290.659,146 292.028,145.433 293.038,144.423 C294.048,143.413 294.615,142.043 294.615,140.615 L294.615,81.385 C294.615,79.957 294.048,78.587 293.038,77.577 C292.028,76.567 290.659,76 289.231,76 Z M289.231,140.615 L240.769,140.615 L240.769,81.385 L289.231,81.385 Z M255.577,117.731 C255.577,119.961 253.769,121.769 251.538,121.769 C249.308,121.769 247.5,119.961 247.5,117.731 C247.5,115.5 249.308,113.692 251.538,113.692 C252.61,113.692 253.637,114.118 254.394,114.875 C255.151,115.633 255.577,116.66 255.577,117.731 Z M269.038,117.731 C269.038,119.961 267.23,121.769 265,121.769 C262.77,121.769 260.962,119.961 260.962,117.731 C260.962,115.5 262.77,113.692 265,113.692 C266.071,113.692 267.098,114.118 267.856,114.875 C268.613,115.633 269.038,116.66 269.038,117.731 Z M282.5,117.731 C282.5,119.961 280.692,121.769 278.462,121.769 C276.231,121.769 274.423,119.961 274.423,117.731 C274.423,115.5 276.231,113.692 278.462,113.692 C279.533,113.692 280.56,114.118 281.317,114.875 C282.075,115.633 282.5,116.66 282.5,117.731 Z M255.577,131.192 C255.577,133.423 253.769,135.231 251.538,135.231 C249.308,135.231 247.5,133.423 247.5,131.192 C247.5,128.962 249.308,127.154 251.538,127.154 C252.61,127.154 253.637,127.579 254.394,128.337 C255.151,129.094 255.577,130.121 255.577,131.192 Z M269.038,131.192 C269.038,133.423 267.23,135.231 265,135.231 C262.77,135.231 260.962,133.423 260.962,131.192 C260.962,128.962 262.77,127.154 265,127.154 C266.071,127.154 267.098,127.579 267.856,128.337 C268.613,129.094 269.038,130.121 269.038,131.192 Z M282.5,131.192 C282.5,133.423 280.692,135.231 278.462,135.231 C276.231,135.231 274.423,133.423 274.423,131.192 C274.423,128.962 276.231,127.154 278.462,127.154 C279.533,127.154 280.56,127.579 281.317,128.337 C282.075,129.094 282.5,130.121 282.5,131.192 Z" />
        </g>
        <g id="Regular-S">
            <path d="M448.846,108.308 L481.154,108.308 C481.868,108.308 482.553,108.024 483.058,107.519 C483.562,107.014 483.846,106.329 483.846,105.615 L483.846,89.462 C483.846,88.747 483.562,88.063 483.058,87.558 C482.553,87.053 481.868,86.769 481.154,86.769 L448.846,86.769 C448.132,86.769 447.447,87.053 446.942,87.558 C446.438,88.063 446.154,88.747 446.154,89.462 L446.154,105.615 C446.154,106.329 446.438,107.014 446.942,107.519 C447.447,108.024 448.132,108.308 448.846,108.308 Z M451.538,92.154 L478.462,92.154 L478.462,102.923 L451.538,102.923 Z M489.231,76 L440.769,76 C439.341,76 437.972,76.567 436.962,77.577 C435.952,78.587 435.385,79.957 435.385,81.385 L435.385,140.615 C435.385,142.043 435.952,143.413 436.962,144.423 C437.972,145.433 439.341,146 440.769,146 L489.231,146 C490.659,146 492.028,145.433 493.038,144.423 C494.048,143.413 494.615,142.043 494.615,140.615 L494.615,81.385 C494.615,79.957 494.048,78.587 493.038,77.577 C492.028,76.567 490.659,76 489.231,76 Z M489.231,140.615 L440.769,140.615 L440.769,81.385 L489.231,81.385 Z M455.577,117.731 C455.577,119.961 453.769,121.769 451.538,121.769 C449.308,121.769 447.5,119.961 447.5,117.731 C447.5,115.5 449.308,113.692 451.538,113.692 C452.61,113.692 453.637,114.118 454.394,114.875 C455.151,115.633 455.577,116.66 455.577,117.731 Z M469.038,117.731 C469.038,119.961 467.23,121.769 465,121.769 C462.77,121.769 460.962,119.961 460.962,117.731 C460.962,115.5 462.77,113.692 465,113.692 C466.071,113.692 467.098,114.118 467.856,114.875 C468.613,115.633 469.038,116.66 469.038,117.731 Z M482.5,117.731 C482.5,119.961 480.692,121.769 478.462,121.769 C476.231,121.769 474.423,119.961 474.423,117.731 C474.423,115.5 476.231,113.692 478.462,113.692 C479.533,113.692 480.56,114.118 481.317,114.875 C482.075,115.633 482.5,116.66 482.5,117.731 Z M455.577,131.192 C455.577,133.423 453.769,135.231 451.538,135.231 C449.308,135.231 447.5,133.423 447.5,131.192 C447.5,128.962 449.308,127.154 451.538,127.154 C452.61,127.154 453.637,127.579 454.394,128.337 C455.151,129.094 455.577,130.121 455.577,131.192 Z M469.038,131.192 C469.038,133.423 467.23,135.231 465,135.231 C462.77,135.231 460.962,133.423 460.962,131.192 C460.962,128.962 462.77,127.154 465,127.154 C466.071,127.154 467.098,127.579 467.856,128.337 C468.613,129.094 469.038,130.121 469.038,131.192 Z M482.5,131.192 C482.5,133.423 480.692,135.231 478.462,135.231 C476.231,135.231 474.423,133.423 474.423,131.192 C474.423,128.962 476.231,127.154 478.462,127.154 C479.533,127.154 480.56,127.579 481.317,128.337 C482.075,129.094 482.5,130.121 482.5,131.192 Z" />
        </g>
        <g id="Black-S">
            <path d="M648.846,108.308 L681.154,108.308 C681.868,108.308 682.553,108.024 683.058,107.519 C683.562,107.014 683.846,106.329 683.846,105.615 L683.846,89.462 C683.846,88.747 683.562,88.063 683.058,87.558 C682.553,87.053 681.868,86.769 681.154,86.769 L648.846,86.769 C648.132,86.769 647.447,87.053 646.942,87.558 C646.438,88.063 646.154,88.747 646.154,89.462 L646.154,105.615 C646.154,106.329 646.438,107.014 646.942,107.519 C647.447,108.024 648.132,108.308 648.846,108.308 Z M651.538,92.154 L678.462,92.154 L678.462,102.923 L651.538,102.923 Z M689.231,76 L640.769,76 C639.341,76 637.972,76.567 636.962,77.577 C635.952,78.587 635.385,79.957 635.385,81.385 L635.385,140.615 C635.385,142.043 635.952,143.413 636.962,144.423 C637.972,145.433 639.341,146 640.769,146 L689.231,146 C690.659,146 692.028,145.433 693.038,144.423 C694.048,143.413 694.615,142.043 694.615,140.615 L694.615,81.385 C694.615,79.957 694.048,78.587 693.038,77.577 C692.028,76.567 690.659,76 689.231,76 Z M689.231,140.615 L640.769,140.615 L640.769,81.385 L689.231,81.385 Z M655.577,117.731 C655.577,119.961 653.769,121.769 651.538,121.769 C649.308,121.769 647.5,119.961 647.5,117.731 C647.5,115.5 649.308,113.692 651.538,113.692 C652.61,113.692 653.637,114.118 654.394,114.875 C655.151,115.633 655.577,116.66 655.577,117.731 Z M669.038,117.731 C669.038,119.961 667.23,121.769 665,121.769 C662.77,121.769 660.962,119.961 660.962,117.731 C660.962,115.5 662.77,113.692 665,113.692 C666.071,113.692 667.098,114.118 667.856,114.875 C668.613,115.633 669.038,116.66 669.038,117.731 Z M682.5,117.731 C682.5,119.961 680.692,121.769 678.462,121.769 C676.231,121.769 674.423,119.961 674.423,117.731 C674.423,115.5 676.231,113.692 678.462,113.692 C679.533,113.692 680.56,114.118 681.317,114.875 C682.075,115.633 682.5,116.66 682.5,117.731 Z M655.577,131.192 C655.577,133.423 653.769,135.231 651.538,135.231 C649.308,135.231 647.5,133.423 647.5,131.192 C647.5,128.962 649.308,127.154 651.538,127.154 C652.61,127.154 653.637,127.579 654.394,128.337 C655.151,129.094 655.577,130.121 655.577,131.192 Z M669.038,131.192 C669.038,133.423 667.23,135.231 665,135.231 C662.77,135.231 660.962,133.423 660.962,131.192 C660.962,128.962 662.77,127.154 665,127.154 C666.071,127.154 667.098,127.579 667.856,128.337 C668.613,129.094 669.038,130.121 669.038,131.192 Z M682.5,131.192 C682.5,133.423 680.692,135.231 678.462,135.231 C676.231,135.231 674.423,133.423 674.423,131.192 C674.423,128.962 676.231,127.154 678.462,127.154 C679.533,127.154 680.56,127.579 681.317,128.337 C682.075,129.094 682.5,130.121 682.5,131.192 Z" />
        </g>
    </g>
</svg>