<?xml version="1.0" encoding="UTF-8"?>
<svg height="600" width="800" xmlns="http://www.w3.org/2000/svg" xmlns:xlink="http://www.w3.org/1999/xlink">
    <g id="Notes" font-family="'LucidaGrande', 'Lucida Grande', sans-serif" font-size="13">
        <rect fill="white" height="600.0" width="800.0" x="0.0" y="0.0" />
        <g font-size="13">
            <text x="18.0" y="176.0">Small</text>
            <text x="18.0" y="376.0">Medium</text>
            <text x="18.0" y="576.0">Large</text>
        </g>
        <g font-size="9">
            <text x="250.0" y="30.0">Ultralight</text>
            <text x="450.0" y="30.0">Regular</text>
            <text x="650.0" y="30.0">Black</text>
            <text id="template-version" fill="#505050" text-anchor="end" x="785.0" y="575.0">Template v.3.0</text>
            <a href="https://github.com/swhitty/SwiftDraw">
                <text fill="#505050" text-anchor="end" x="785.0" y="590.0">https://github.com/swhitty/SwiftDraw</text>
            </a>
        </g>
    </g>
    <g id="Guides" stroke="rgb(39, 170, 225)" stroke-width="0.5">
        <path id="Capline-S" d="M18,76 l800,0" />
        <path id="H-reference" d="M85,145.755 L87.685,145.755 L113.369,79.287 L114.052,79.287 L114.052,76 L112.148,76 L85,145.755 Z M95.693,121.536 L130.996,121.536 L130.263,119.313 L96.474,119.313 L95.693,121.536 Z M139.15,145.755 L141.787,145.755 L114.638,76 L113.466,76 L113.466,79.287 L139.15,145.755 Z" stroke="none" />
        <path id="Baseline-S" d="M18,146 l800,0" />
        <path id="left-margin-Ultralight-S" d="M220,56 l0,110" />
        <path id="right-margin-Ultralight-S" d="M310,56 l0,110" />
        <path id="left-margin-Regular-S" d="M420,56 l0,110" />
        <path id="right-margin-Regular-S" d="M510,56 l0,110" />
        <path id="left-margin-Black-S" d="M620,56 l0,110" />
        <path id="right-margin-Black-S" d="M710,56 l0,110" />
        <path id="Capline-M" d="M18,276 l800,0" />
        <path id="Baseline-M" d="M18,346 l800,0" />
        <path id="Capline-L" d="M18,476 l800,0" />
        <path id="Baseline-L" d="M18,546 l800,0" />
    </g>
    <g id="Symbols">
        <g id="Ultralight-S">
            <path d="M293.269,113.692 C292.872,113.692 292.478,113.713 292.088,113.75 L281.016,80.533 C280.649,79.434 279.62,78.692 278.462,78.692 L267.692,78.692 C266.205,78.692 265,79.898 265,81.385 C265,82.872 266.205,84.077 267.692,84.077 L276.52,84.077 L282.389,101.681 L263.725,124.462 L248.769,124.462 C248.082,118.336 242.906,113.703 236.742,113.697 C230.579,113.69 225.392,118.312 224.692,124.435 C223.992,130.559 228,136.232 234.006,137.617 C240.012,139.003 246.101,135.658 248.153,129.846 L265,129.846 C265.807,129.846 266.572,129.484 267.083,128.86 L284.401,107.722 L286.979,115.463 C281.81,118.613 279.76,125.096 282.178,130.647 C284.596,136.197 290.739,139.11 296.567,137.47 C302.395,135.83 306.117,130.14 305.285,124.143 C304.454,118.147 299.323,113.685 293.269,113.692 Z M236.731,132.538 C233.013,132.538 230,129.525 230,125.808 C230,122.09 233.013,119.077 236.731,119.077 C240.448,119.077 243.462,122.09 243.462,125.808 C243.462,127.593 242.752,129.305 241.49,130.567 C240.228,131.829 238.516,132.538 236.731,132.538 Z M293.269,132.538 C289.552,132.538 286.538,129.525 286.538,125.808 C286.538,122.09 289.552,119.077 293.269,119.077 C296.987,119.077 300,122.09 300,125.808 C300,127.593 299.291,129.305 298.029,130.567 C296.766,131.829 295.054,132.538 293.269,132.538 Z" />
        </g>
        <g id="Regular-S">
            <path d="M493.269,113.692 C492.872,113.692 492.478,113.713 492.088,113.75 L481.016,80.533 C480.649,79.434 479.62,78.692 478.462,78.692 L467.692,78.692 C466.205,78.692 465,79.898 465,81.385 C465,82.872 466.205,84.077 467.692,84.077 L476.52,84.077 L482.389,101.681 L463.725,124.462 L448.769,124.462 C448.082,118.336 442.906,113.703 436.742,113.697 C430.579,113.69 425.392,118.312 424.692,124.435 C423.992,130.559 428,136.232 434.006,137.617 C440.012,139.003 446.101,135.658 448.153,129.846 L465,129.846 C465.807,129.846 466.572,129.484 467.083,128.86 L484.401,107.722 L486.979,115.463 C481.81,118.613 479.76,125.096 482.178,130.647 C484.596,136.197 490.739,139.11 496.567,137.47 C502.395,135.83 506.117,130.14 505.285,124.143 C504.454,118.147 499.323,113.685 493.269,113.692 Z M436.731,132.538 C433.013,132.538 430,129.525 430,125.808 C430,122.09 433.013,119.077 436.731,119.077 C440.448,119.077 443.462,122.09 443.462,125.808 C443.462,127.593 442.752,129.305 441.49,130.567 C440.228,131.829 438.516,132.538 436.731,132.538 Z M493.269,132.538 C489.552,132.538 486.538,129.525 486.538,125.808 C486.538,122.09 489.552,119.077 493.269,119.077 C496.987,119.077 500,122.09 500,125.808 C500,127.593 499.291,129.305 498.029,130.567 C496.766,131.829 495.054,132.538 493.269,132.538 Z" />
        </g>
        <g id="Black-S">
            <path d="M693.269,113.692 C692.872,113.692 692.478,113.713 692.088,113.75 L681.016,80.533 C680.649,79.434 679.62,78.692 678.462,78.692 L667.692,78.692 C666.205,78.692 665,79.898 665,81.385 C665,82.872 666.205,84.077 667.692,84.077 L676.52,84.077 L682.389,101.681 L663.725,124.462 L648.769,124.462 C648.082,118.336 642.906,113.703 636.742,113.697 C630.579,113.69 625.392,118.312 624.692,124.435 C623.992,130.559 628,136.232 634.006,137.617 C640.012,139.003 646.101,135.658 648.153,129.846 L665,129.846 C665.807,129.846 666.572,129.484 667.083,128.86 L684.401,107.722 L686.979,115.463 C681.81,118.613 679.76,125.096 682.178,130.647 C684.596,136.197 690.74,139.11 696.567,137.47 C702.395,135.83 706.117,130.14 705.285,124.143 C704.454,118.147 699.323,113.685 693.269,113.692 Z M636.731,132.538 C633.013,132.538 630,129.525 630,125.808 C630,122.09 633.013,119.077 636.731,119.077 C640.448,119.077 643.462,122.09 643.462,125.808 C643.462,127.593 642.752,129.305 641.49,130.567 C640.228,131.829 638.516,132.538 636.731,132.538 Z M693.269,132.538 C689.552,132.538 686.538,129.525 686.538,125.808 C686.538,122.09 689.552,119.077 693.269,119.077 C696.987,119.077 700,122.09 700,125.808 C700,127.593 699.291,129.305 698.029,130.567 C696.766,131.829 695.054,132.538 693.269,132.538 Z" />
        </g>
    </g>
</svg>