<?xml version="1.0" encoding="UTF-8"?>
<svg height="600" width="800" xmlns="http://www.w3.org/2000/svg" xmlns:xlink="http://www.w3.org/1999/xlink">
    <g id="Notes" font-family="'LucidaGrande', 'Lucida Grande', sans-serif" font-size="13">
        <rect fill="white" height="600.0" width="800.0" x="0.0" y="0.0" />
        <g font-size="13">
            <text x="18.0" y="176.0">Small</text>
            <text x="18.0" y="376.0">Medium</text>
            <text x="18.0" y="576.0">Large</text>
        </g>
        <g font-size="9">
            <text x="250.0" y="30.0">Ultralight</text>
            <text x="450.0" y="30.0">Regular</text>
            <text x="650.0" y="30.0">Black</text>
            <text id="template-version" fill="#505050" text-anchor="end" x="785.0" y="575.0">Template v.3.0</text>
            <a href="https://github.com/swhitty/SwiftDraw">
                <text fill="#505050" text-anchor="end" x="785.0" y="590.0">https://github.com/swhitty/SwiftDraw</text>
            </a>
        </g>
    </g>
    <g id="Guides" stroke="rgb(39, 170, 225)" stroke-width="0.5">
        <path id="Capline-S" d="M18,76 l800,0" />
        <path id="H-reference" d="M85,145.755 L87.685,145.755 L113.369,79.287 L114.052,79.287 L114.052,76 L112.148,76 L85,145.755 Z M95.693,121.536 L130.996,121.536 L130.263,119.313 L96.474,119.313 L95.693,121.536 Z M139.15,145.755 L141.787,145.755 L114.638,76 L113.466,76 L113.466,79.287 L139.15,145.755 Z" stroke="none" />
        <path id="Baseline-S" d="M18,146 l800,0" />
        <path id="left-margin-Ultralight-S" d="M220,56 l0,110" />
        <path id="right-margin-Ultralight-S" d="M310,56 l0,110" />
        <path id="left-margin-Regular-S" d="M420,56 l0,110" />
        <path id="right-margin-Regular-S" d="M510,56 l0,110" />
        <path id="left-margin-Black-S" d="M620,56 l0,110" />
        <path id="right-margin-Black-S" d="M710,56 l0,110" />
        <path id="Capline-M" d="M18,276 l800,0" />
        <path id="Baseline-M" d="M18,346 l800,0" />
        <path id="Capline-L" d="M18,476 l800,0" />
        <path id="Baseline-L" d="M18,546 l800,0" />
    </g>
    <g id="Symbols">
        <g id="Ultralight-S">
            <path d="M296.318,105.141 L291.923,103.674 L291.923,86.769 C291.923,85.341 291.356,83.972 290.346,82.962 C289.336,81.952 287.967,81.385 286.538,81.385 L267.692,81.385 L267.692,76 C267.692,74.513 266.487,73.308 265,73.308 C263.513,73.308 262.308,74.513 262.308,76 L262.308,81.385 L243.462,81.385 C242.033,81.385 240.664,81.952 239.654,82.962 C238.644,83.972 238.077,85.341 238.077,86.769 L238.077,103.674 L233.682,105.141 C231.483,105.874 230,107.932 230,110.25 L230,119.077 C230,139.788 262.944,148.262 264.347,148.612 C264.776,148.719 265.224,148.719 265.653,148.612 C267.056,148.262 300,139.788 300,119.077 L300,110.25 C300,107.931 298.517,105.874 296.318,105.141 Z M243.462,86.769 L286.538,86.769 L286.538,101.88 L265.851,94.984 C265.299,94.8 264.701,94.8 264.149,94.984 L243.462,101.88 Z M294.615,119.077 C294.615,127.46 286.646,133.548 279.959,137.193 C275.198,139.719 270.184,141.737 265,143.213 C259.847,141.753 254.863,139.754 250.128,137.25 C237.942,130.637 235.385,123.718 235.385,119.077 L235.385,110.25 L262.308,101.274 L262.308,124.462 C262.308,125.948 263.513,127.154 265,127.154 C266.487,127.154 267.692,125.948 267.692,124.462 L267.692,101.274 L294.615,110.25 Z" />
        </g>
        <g id="Regular-S">
            <path d="M496.318,105.141 L491.923,103.674 L491.923,86.769 C491.923,85.341 491.356,83.972 490.346,82.962 C489.336,81.952 487.967,81.385 486.538,81.385 L467.692,81.385 L467.692,76 C467.692,74.513 466.487,73.308 465,73.308 C463.513,73.308 462.308,74.513 462.308,76 L462.308,81.385 L443.462,81.385 C442.033,81.385 440.664,81.952 439.654,82.962 C438.644,83.972 438.077,85.341 438.077,86.769 L438.077,103.674 L433.682,105.141 C431.483,105.874 430,107.932 430,110.25 L430,119.077 C430,139.788 462.944,148.262 464.347,148.612 C464.776,148.719 465.224,148.719 465.653,148.612 C467.056,148.262 500,139.788 500,119.077 L500,110.25 C500,107.931 498.517,105.874 496.318,105.141 Z M443.462,86.769 L486.538,86.769 L486.538,101.88 L465.851,94.984 C465.299,94.8 464.701,94.8 464.149,94.984 L443.462,101.88 Z M494.615,119.077 C494.615,127.46 486.646,133.548 479.959,137.193 C475.198,139.719 470.184,141.737 465,143.213 C459.847,141.753 454.863,139.754 450.128,137.25 C437.942,130.637 435.385,123.718 435.385,119.077 L435.385,110.25 L462.308,101.274 L462.308,124.462 C462.308,125.948 463.513,127.154 465,127.154 C466.487,127.154 467.692,125.948 467.692,124.462 L467.692,101.274 L494.615,110.25 Z" />
        </g>
        <g id="Black-S">
            <path d="M696.318,105.141 L691.923,103.674 L691.923,86.769 C691.923,85.341 691.356,83.972 690.346,82.962 C689.336,81.952 687.967,81.385 686.538,81.385 L667.692,81.385 L667.692,76 C667.692,74.513 666.487,73.308 665,73.308 C663.513,73.308 662.308,74.513 662.308,76 L662.308,81.385 L643.462,81.385 C642.033,81.385 640.664,81.952 639.654,82.962 C638.644,83.972 638.077,85.341 638.077,86.769 L638.077,103.674 L633.682,105.141 C631.483,105.874 630,107.932 630,110.25 L630,119.077 C630,139.788 662.944,148.262 664.347,148.612 C664.776,148.719 665.224,148.719 665.653,148.612 C667.056,148.262 700,139.788 700,119.077 L700,110.25 C700,107.931 698.517,105.874 696.318,105.141 Z M643.462,86.769 L686.538,86.769 L686.538,101.88 L665.851,94.984 C665.299,94.8 664.701,94.8 664.149,94.984 L643.462,101.88 Z M694.615,119.077 C694.615,127.46 686.646,133.548 679.959,137.193 C675.198,139.719 670.184,141.737 665,143.213 C659.847,141.753 654.863,139.754 650.128,137.25 C637.942,130.637 635.385,123.718 635.385,119.077 L635.385,110.25 L662.308,101.274 L662.308,124.462 C662.308,125.948 663.513,127.154 665,127.154 C666.487,127.154 667.692,125.948 667.692,124.462 L667.692,101.274 L694.615,110.25 Z" />
        </g>
    </g>
</svg>