<?xml version="1.0" encoding="UTF-8"?>
<svg height="600" width="800" xmlns="http://www.w3.org/2000/svg" xmlns:xlink="http://www.w3.org/1999/xlink">
    <g id="Notes" font-family="'LucidaGrande', 'Lucida Grande', sans-serif" font-size="13">
        <rect fill="white" height="600.0" width="800.0" x="0.0" y="0.0" />
        <g font-size="13">
            <text x="18.0" y="176.0">Small</text>
            <text x="18.0" y="376.0">Medium</text>
            <text x="18.0" y="576.0">Large</text>
        </g>
        <g font-size="9">
            <text x="250.0" y="30.0">Ultralight</text>
            <text x="450.0" y="30.0">Regular</text>
            <text x="650.0" y="30.0">Black</text>
            <text id="template-version" fill="#505050" text-anchor="end" x="785.0" y="575.0">Template v.3.0</text>
            <a href="https://github.com/swhitty/SwiftDraw">
                <text fill="#505050" text-anchor="end" x="785.0" y="590.0">https://github.com/swhitty/SwiftDraw</text>
            </a>
        </g>
    </g>
    <g id="Guides" stroke="rgb(39, 170, 225)" stroke-width="0.5">
        <path id="Capline-S" d="M18,76 l800,0" />
        <path id="H-reference" d="M85,145.755 L87.685,145.755 L113.369,79.287 L114.052,79.287 L114.052,76 L112.148,76 L85,145.755 Z M95.693,121.536 L130.996,121.536 L130.263,119.313 L96.474,119.313 L95.693,121.536 Z M139.15,145.755 L141.787,145.755 L114.638,76 L113.466,76 L113.466,79.287 L139.15,145.755 Z" stroke="none" />
        <path id="Baseline-S" d="M18,146 l800,0" />
        <path id="left-margin-Ultralight-S" d="M220,56 l0,110" />
        <path id="right-margin-Ultralight-S" d="M310,56 l0,110" />
        <path id="left-margin-Regular-S" d="M420,56 l0,110" />
        <path id="right-margin-Regular-S" d="M510,56 l0,110" />
        <path id="left-margin-Black-S" d="M620,56 l0,110" />
        <path id="right-margin-Black-S" d="M710,56 l0,110" />
        <path id="Capline-M" d="M18,276 l800,0" />
        <path id="Baseline-M" d="M18,346 l800,0" />
        <path id="Capline-L" d="M18,476 l800,0" />
        <path id="Baseline-L" d="M18,546 l800,0" />
    </g>
    <g id="Symbols">
        <g id="Ultralight-S">
            <path d="M286.707,125.629 C293.603,119.837 297.501,111.23 297.308,102.226 C296.971,86.843 284.65,74.159 269.294,73.351 C261.289,72.916 253.449,75.744 247.566,81.19 C241.683,86.636 238.259,94.235 238.077,102.25 L230.522,116.782 C230.491,116.842 230.461,116.903 230.434,116.963 C229.31,119.584 230.424,122.628 232.975,123.903 L233.059,123.94 L240.769,127.47 L240.769,137.923 C240.769,139.351 241.337,140.721 242.346,141.731 C243.356,142.74 244.726,143.308 246.154,143.308 L262.308,143.308 C263.795,143.308 265,142.102 265,140.615 C265,139.128 263.795,137.923 262.308,137.923 L246.154,137.923 L246.154,125.744 C246.155,124.69 245.54,123.732 244.582,123.294 L235.385,119.077 L243.149,104.155 C243.351,103.776 243.458,103.353 243.462,102.923 C243.462,91.611 251.284,81.805 262.311,79.294 L262.311,84.541 C258.602,85.853 256.378,89.645 257.043,93.522 C257.708,97.399 261.07,100.233 265.003,100.233 C268.937,100.233 272.299,97.399 272.964,93.522 C273.629,89.645 271.404,85.853 267.696,84.541 L267.696,78.692 C268.133,78.692 268.571,78.692 269.008,78.726 C278.768,79.286 287.244,85.637 290.523,94.846 L283.846,94.846 C283.047,94.846 282.288,95.201 281.776,95.815 L273.191,106.12 C269.495,104.743 265.343,106.23 263.362,109.642 C261.381,113.053 262.147,117.396 265.176,119.924 C268.204,122.452 272.614,122.429 275.616,119.87 C278.619,117.311 279.34,112.961 277.324,109.57 L285.108,100.231 L291.768,100.231 C291.849,100.931 291.898,100.931 291.916,102.351 C292.087,110.174 288.482,117.601 282.231,122.308 C281.458,122.887 281.055,123.836 281.174,124.795 L283.866,146.333 C284.036,147.678 285.179,148.688 286.535,148.689 C286.648,148.689 286.76,148.682 286.872,148.669 C287.58,148.581 288.225,148.214 288.664,147.651 C289.102,147.087 289.299,146.372 289.211,145.663 Z M265,94.846 C263.513,94.846 262.308,93.641 262.308,92.154 C262.308,90.667 263.513,89.462 265,89.462 C266.487,89.462 267.692,90.667 267.692,92.154 C267.692,92.868 267.409,93.553 266.904,94.058 C266.399,94.563 265.714,94.846 265,94.846 Z M270.385,116.385 C268.898,116.385 267.692,115.179 267.692,113.692 C267.692,112.205 268.898,111 270.385,111 C271.872,111 273.077,112.205 273.077,113.692 C273.077,114.406 272.793,115.091 272.288,115.596 C271.783,116.101 271.099,116.385 270.385,116.385 Z" />
        </g>
        <g id="Regular-S">
            <path d="M486.707,125.629 C493.603,119.837 497.501,111.23 497.308,102.226 C496.971,86.843 484.65,74.159 469.294,73.351 C461.289,72.916 453.449,75.744 447.566,81.19 C441.683,86.636 438.259,94.235 438.077,102.25 L430.522,116.782 C430.491,116.842 430.461,116.903 430.434,116.963 C429.31,119.584 430.424,122.628 432.975,123.903 L433.059,123.94 L440.769,127.47 L440.769,137.923 C440.769,139.351 441.337,140.721 442.346,141.731 C443.356,142.74 444.726,143.308 446.154,143.308 L462.308,143.308 C463.795,143.308 465,142.102 465,140.615 C465,139.128 463.795,137.923 462.308,137.923 L446.154,137.923 L446.154,125.744 C446.155,124.69 445.54,123.732 444.582,123.294 L435.385,119.077 L443.149,104.155 C443.351,103.776 443.458,103.353 443.462,102.923 C443.462,91.611 451.284,81.805 462.311,79.294 L462.311,84.541 C458.602,85.853 456.378,89.645 457.043,93.522 C457.708,97.399 461.07,100.233 465.003,100.233 C468.937,100.233 472.299,97.399 472.964,93.522 C473.629,89.645 471.404,85.853 467.696,84.541 L467.696,78.692 C468.133,78.692 468.571,78.692 469.008,78.726 C478.768,79.286 487.243,85.637 490.523,94.846 L483.846,94.846 C483.047,94.846 482.288,95.201 481.776,95.815 L473.191,106.12 C469.495,104.743 465.343,106.23 463.362,109.642 C461.381,113.053 462.147,117.396 465.175,119.924 C468.204,122.452 472.614,122.429 475.616,119.87 C478.619,117.311 479.34,112.961 477.324,109.57 L485.108,100.231 L491.768,100.231 C491.849,100.931 491.898,100.931 491.916,102.351 C492.087,110.174 488.482,117.601 482.231,122.308 C481.458,122.887 481.055,123.836 481.174,124.795 L483.866,146.333 C484.036,147.678 485.179,148.688 486.535,148.689 C486.648,148.689 486.76,148.682 486.872,148.669 C487.58,148.581 488.225,148.214 488.664,147.651 C489.102,147.087 489.299,146.372 489.211,145.663 Z M465,94.846 C463.513,94.846 462.308,93.641 462.308,92.154 C462.308,90.667 463.513,89.462 465,89.462 C466.487,89.462 467.692,90.667 467.692,92.154 C467.692,92.868 467.409,93.553 466.904,94.058 C466.399,94.563 465.714,94.846 465,94.846 Z M470.385,116.385 C468.898,116.385 467.692,115.179 467.692,113.692 C467.692,112.205 468.898,111 470.385,111 C471.872,111 473.077,112.205 473.077,113.692 C473.077,114.406 472.793,115.091 472.288,115.596 C471.783,116.101 471.099,116.385 470.385,116.385 Z" />
        </g>
        <g id="Black-S">
            <path d="M686.707,125.629 C693.603,119.837 697.501,111.23 697.308,102.226 C696.971,86.843 684.651,74.159 669.294,73.351 C661.289,72.916 653.449,75.744 647.566,81.19 C641.683,86.636 638.259,94.235 638.077,102.25 L630.522,116.782 C630.491,116.842 630.461,116.903 630.434,116.963 C629.31,119.584 630.424,122.628 632.975,123.903 L633.059,123.94 L640.769,127.47 L640.769,137.923 C640.769,139.351 641.337,140.721 642.346,141.731 C643.356,142.74 644.726,143.308 646.154,143.308 L662.308,143.308 C663.795,143.308 665,142.102 665,140.615 C665,139.128 663.795,137.923 662.308,137.923 L646.154,137.923 L646.154,125.744 C646.155,124.69 645.541,123.732 644.582,123.294 L635.385,119.077 L643.149,104.155 C643.351,103.776 643.458,103.353 643.462,102.923 C643.462,91.611 651.284,81.805 662.311,79.294 L662.311,84.541 C658.602,85.853 656.378,89.645 657.043,93.522 C657.708,97.399 661.07,100.233 665.003,100.233 C668.937,100.233 672.299,97.399 672.964,93.522 C673.629,89.645 671.404,85.853 667.696,84.541 L667.696,78.692 C668.133,78.692 668.571,78.692 669.008,78.726 C678.768,79.286 687.244,85.637 690.523,94.846 L683.846,94.846 C683.047,94.846 682.288,95.201 681.776,95.815 L673.191,106.12 C669.495,104.743 665.343,106.23 663.362,109.642 C661.381,113.053 662.147,117.396 665.176,119.924 C668.204,122.452 672.614,122.429 675.616,119.87 C678.619,117.311 679.34,112.961 677.324,109.57 L685.108,100.231 L691.768,100.231 C691.849,100.931 691.898,100.931 691.916,102.351 C692.087,110.174 688.482,117.601 682.231,122.308 C681.458,122.887 681.055,123.836 681.174,124.795 L683.866,146.333 C684.036,147.678 685.179,148.688 686.535,148.689 C686.648,148.689 686.76,148.682 686.872,148.669 C687.58,148.581 688.225,148.214 688.664,147.651 C689.102,147.087 689.299,146.372 689.211,145.663 Z M665,94.846 C663.513,94.846 662.308,93.641 662.308,92.154 C662.308,90.667 663.513,89.462 665,89.462 C666.487,89.462 667.692,90.667 667.692,92.154 C667.692,92.868 667.409,93.553 666.904,94.058 C666.399,94.563 665.714,94.846 665,94.846 Z M670.385,116.385 C668.898,116.385 667.692,115.179 667.692,113.692 C667.692,112.205 668.898,111 670.385,111 C671.872,111 673.077,112.205 673.077,113.692 C673.077,114.406 672.793,115.091 672.288,115.596 C671.783,116.101 671.099,116.385 670.385,116.385 Z" />
        </g>
    </g>
</svg>