<?xml version="1.0" encoding="UTF-8"?>
<svg height="600" width="800" xmlns="http://www.w3.org/2000/svg" xmlns:xlink="http://www.w3.org/1999/xlink">
    <g id="Notes" font-family="'LucidaGrande', 'Lucida Grande', sans-serif" font-size="13">
        <rect fill="white" height="600.0" width="800.0" x="0.0" y="0.0" />
        <g font-size="13">
            <text x="18.0" y="176.0">Small</text>
            <text x="18.0" y="376.0">Medium</text>
            <text x="18.0" y="576.0">Large</text>
        </g>
        <g font-size="9">
            <text x="250.0" y="30.0">Ultralight</text>
            <text x="450.0" y="30.0">Regular</text>
            <text x="650.0" y="30.0">Black</text>
            <text id="template-version" fill="#505050" text-anchor="end" x="785.0" y="575.0">Template v.3.0</text>
            <a href="https://github.com/swhitty/SwiftDraw">
                <text fill="#505050" text-anchor="end" x="785.0" y="590.0">https://github.com/swhitty/SwiftDraw</text>
            </a>
        </g>
    </g>
    <g id="Guides" stroke="rgb(39, 170, 225)" stroke-width="0.5">
        <path id="Capline-S" d="M18,76 l800,0" />
        <path id="H-reference" d="M85,145.755 L87.685,145.755 L113.369,79.287 L114.052,79.287 L114.052,76 L112.148,76 L85,145.755 Z M95.693,121.536 L130.996,121.536 L130.263,119.313 L96.474,119.313 L95.693,121.536 Z M139.15,145.755 L141.787,145.755 L114.638,76 L113.466,76 L113.466,79.287 L139.15,145.755 Z" stroke="none" />
        <path id="Baseline-S" d="M18,146 l800,0" />
        <path id="left-margin-Ultralight-S" d="M220,56 l0,110" />
        <path id="right-margin-Ultralight-S" d="M310,56 l0,110" />
        <path id="left-margin-Regular-S" d="M420,56 l0,110" />
        <path id="right-margin-Regular-S" d="M510,56 l0,110" />
        <path id="left-margin-Black-S" d="M620,56 l0,110" />
        <path id="right-margin-Black-S" d="M710,56 l0,110" />
        <path id="Capline-M" d="M18,276 l800,0" />
        <path id="Baseline-M" d="M18,346 l800,0" />
        <path id="Capline-L" d="M18,476 l800,0" />
        <path id="Baseline-L" d="M18,546 l800,0" />
    </g>
    <g id="Symbols">
        <g id="Ultralight-S">
            <path d="M246.154,111 C246.173,118.064 244.541,125.032 241.388,131.352 C240.978,132.244 240.115,132.842 239.136,132.913 C238.157,132.984 237.217,132.517 236.683,131.693 C236.148,130.87 236.105,129.821 236.569,128.956 C239.349,123.379 240.787,117.231 240.769,111 C240.757,103.64 244.102,96.676 249.856,92.086 C250.607,91.484 251.622,91.329 252.518,91.679 C253.415,92.028 254.057,92.83 254.202,93.781 C254.347,94.733 253.973,95.689 253.221,96.29 C248.745,99.859 246.143,105.275 246.154,111 Z M265,108.308 C264.286,108.308 263.601,108.591 263.096,109.096 C262.591,109.601 262.308,110.286 262.308,111 C262.301,121.523 259.632,131.839 254.551,141.015 C253.83,142.319 254.301,143.958 255.603,144.678 C256.904,145.398 258.543,144.927 259.263,143.625 C264.791,133.64 267.692,122.413 267.692,111 C267.692,110.286 267.409,109.601 266.904,109.096 C266.399,108.591 265.714,108.308 265,108.308 Z M265,97.538 C261.43,97.538 258.006,98.957 255.481,101.481 C252.957,104.006 251.538,107.43 251.538,111 C251.538,112.487 252.744,113.692 254.231,113.692 C255.718,113.692 256.923,112.487 256.923,111 C256.923,106.539 260.539,102.923 265,102.923 C269.461,102.923 273.077,106.539 273.077,111 C273.105,121.705 270.747,132.282 266.174,141.962 C265.541,143.325 266.127,144.93 267.479,145.558 C268.831,146.186 270.435,145.6 271.063,144.248 C275.968,133.852 278.495,122.495 278.462,111 C278.462,107.43 277.043,104.006 274.519,101.481 C271.994,98.957 268.57,97.538 265,97.538 Z M265,76 C245.678,76.02 230.02,91.678 230,111 C230.005,114.361 229.436,117.7 228.317,120.87 C227.822,122.274 228.559,123.812 229.961,124.307 C231.364,124.801 232.902,124.065 233.396,122.662 C234.717,118.916 235.389,114.972 235.385,111 C235.385,94.644 248.644,81.385 265,81.385 C281.356,81.385 294.615,94.644 294.615,111 C294.615,117.172 294.018,123.309 292.831,129.345 C292.693,130.045 292.838,130.772 293.236,131.366 C293.633,131.959 294.251,132.37 294.951,132.508 C295.123,132.542 295.298,132.558 295.473,132.559 C296.758,132.557 297.862,131.648 298.111,130.388 C299.368,124.002 300,117.509 300,111 C299.978,91.679 284.321,76.022 265,76 Z M253.692,119.134 C252.239,118.845 250.825,119.785 250.529,121.238 C249.436,126.614 247.48,131.778 244.737,136.53 C243.994,137.819 244.436,139.466 245.724,140.209 C247.012,140.952 248.659,140.51 249.402,139.221 C252.434,133.967 254.593,128.256 255.796,122.31 C255.939,121.61 255.797,120.882 255.403,120.286 C255.008,119.69 254.393,119.276 253.692,119.134 Z M265,86.769 C263.987,86.769 262.976,86.832 261.971,86.958 C260.525,87.175 259.517,88.506 259.7,89.957 C259.882,91.407 261.19,92.447 262.644,92.299 C268.009,91.631 273.403,93.297 277.458,96.874 C281.512,100.45 283.838,105.594 283.846,111 C283.846,114.469 283.631,117.953 283.202,121.414 C283.102,122.127 283.291,122.852 283.728,123.424 C284.165,123.997 284.814,124.371 285.529,124.462 C285.641,124.475 285.753,124.482 285.865,124.482 C287.22,124.479 288.361,123.47 288.531,122.126 C288.985,118.442 289.21,114.732 289.204,111.02 C289.204,97.653 278.38,86.803 265.007,86.769 Z M284.496,129.93 C283.804,129.751 283.069,129.855 282.454,130.218 C281.839,130.581 281.393,131.173 281.214,131.865 C280.723,133.78 280.154,135.702 279.532,137.587 C279.057,138.992 279.81,140.517 281.214,140.996 C281.491,141.09 281.781,141.137 282.073,141.137 C283.229,141.136 284.256,140.396 284.624,139.3 C285.297,137.307 285.899,135.261 286.424,133.225 C286.606,132.533 286.506,131.797 286.145,131.18 C285.783,130.562 285.191,130.114 284.499,129.934 Z" />
        </g>
        <g id="Regular-S">
            <path d="M446.154,111 C446.173,118.064 444.541,125.032 441.388,131.352 C440.978,132.244 440.115,132.842 439.136,132.913 C438.157,132.984 437.217,132.517 436.683,131.693 C436.148,130.87 436.105,129.821 436.569,128.956 C439.349,123.379 440.787,117.231 440.769,111 C440.757,103.64 444.102,96.676 449.856,92.086 C450.607,91.484 451.622,91.329 452.518,91.679 C453.415,92.028 454.057,92.83 454.202,93.781 C454.347,94.733 453.973,95.689 453.221,96.29 C448.745,99.859 446.143,105.275 446.154,111 Z M465,108.308 C464.286,108.308 463.601,108.591 463.096,109.096 C462.591,109.601 462.308,110.286 462.308,111 C462.301,121.523 459.632,131.839 454.551,141.015 C453.83,142.319 454.301,143.958 455.603,144.678 C456.904,145.398 458.543,144.927 459.263,143.625 C464.791,133.64 467.692,122.413 467.692,111 C467.692,110.286 467.409,109.601 466.904,109.096 C466.399,108.591 465.714,108.308 465,108.308 Z M465,97.538 C461.43,97.538 458.006,98.957 455.481,101.481 C452.957,104.006 451.538,107.43 451.538,111 C451.538,112.487 452.744,113.692 454.231,113.692 C455.718,113.692 456.923,112.487 456.923,111 C456.923,106.539 460.539,102.923 465,102.923 C469.461,102.923 473.077,106.539 473.077,111 C473.105,121.705 470.747,132.282 466.174,141.962 C465.541,143.325 466.127,144.93 467.479,145.558 C468.831,146.186 470.435,145.6 471.063,144.248 C475.967,133.852 478.495,122.495 478.462,111 C478.462,107.43 477.043,104.006 474.519,101.481 C471.994,98.957 468.57,97.538 465,97.538 Z M465,76 C445.678,76.02 430.02,91.678 430,111 C430.005,114.361 429.436,117.7 428.317,120.87 C427.822,122.274 428.559,123.812 429.961,124.307 C431.364,124.801 432.902,124.065 433.396,122.662 C434.717,118.916 435.389,114.972 435.385,111 C435.385,94.644 448.644,81.385 465,81.385 C481.356,81.385 494.615,94.644 494.615,111 C494.615,117.172 494.018,123.309 492.831,129.345 C492.693,130.045 492.838,130.772 493.236,131.366 C493.633,131.959 494.251,132.37 494.951,132.508 C495.123,132.542 495.298,132.558 495.473,132.559 C496.758,132.557 497.862,131.648 498.111,130.388 C499.368,124.002 500,117.509 500,111 C499.978,91.679 484.321,76.022 465,76 Z M453.692,119.134 C452.239,118.845 450.825,119.785 450.529,121.238 C449.436,126.614 447.48,131.778 444.737,136.53 C443.994,137.819 444.436,139.466 445.724,140.209 C447.012,140.952 448.659,140.51 449.402,139.221 C452.434,133.967 454.593,128.256 455.796,122.31 C455.939,121.61 455.797,120.882 455.403,120.286 C455.008,119.69 454.393,119.276 453.692,119.134 Z M465,86.769 C463.987,86.769 462.976,86.832 461.971,86.958 C460.525,87.175 459.517,88.506 459.7,89.957 C459.882,91.407 461.19,92.447 462.644,92.299 C468.009,91.631 473.403,93.297 477.458,96.874 C481.512,100.45 483.838,105.594 483.846,111 C483.846,114.469 483.631,117.953 483.202,121.414 C483.101,122.127 483.291,122.852 483.728,123.424 C484.165,123.997 484.814,124.371 485.529,124.462 C485.641,124.475 485.753,124.482 485.865,124.482 C487.22,124.479 488.361,123.47 488.531,122.126 C488.985,118.442 489.21,114.732 489.204,111.02 C489.204,97.653 478.38,86.803 465.007,86.769 Z M484.496,129.93 C483.804,129.751 483.069,129.855 482.454,130.218 C481.839,130.581 481.393,131.173 481.214,131.865 C480.723,133.78 480.154,135.702 479.532,137.587 C479.057,138.992 479.81,140.517 481.214,140.996 C481.491,141.09 481.781,141.137 482.073,141.137 C483.229,141.136 484.256,140.396 484.624,139.3 C485.297,137.307 485.899,135.261 486.424,133.225 C486.606,132.533 486.506,131.797 486.145,131.18 C485.783,130.562 485.191,130.114 484.499,129.934 Z" />
        </g>
        <g id="Black-S">
            <path d="M646.154,111 C646.173,118.064 644.541,125.032 641.388,131.352 C640.978,132.244 640.115,132.842 639.136,132.913 C638.157,132.984 637.217,132.517 636.683,131.693 C636.148,130.87 636.105,129.821 636.569,128.956 C639.349,123.379 640.787,117.231 640.769,111 C640.757,103.64 644.102,96.676 649.856,92.086 C650.607,91.484 651.622,91.329 652.518,91.679 C653.415,92.028 654.057,92.83 654.202,93.781 C654.347,94.733 653.973,95.689 653.221,96.29 C648.745,99.859 646.143,105.275 646.154,111 Z M665,108.308 C664.286,108.308 663.601,108.591 663.096,109.096 C662.591,109.601 662.308,110.286 662.308,111 C662.301,121.523 659.633,131.839 654.551,141.015 C653.83,142.319 654.301,143.958 655.603,144.678 C656.904,145.398 658.543,144.927 659.263,143.625 C664.791,133.64 667.692,122.413 667.692,111 C667.692,110.286 667.409,109.601 666.904,109.096 C666.399,108.591 665.714,108.308 665,108.308 Z M665,97.538 C661.43,97.538 658.006,98.957 655.481,101.481 C652.957,104.006 651.538,107.43 651.538,111 C651.538,112.487 652.744,113.692 654.231,113.692 C655.718,113.692 656.923,112.487 656.923,111 C656.923,106.539 660.539,102.923 665,102.923 C669.461,102.923 673.077,106.539 673.077,111 C673.105,121.705 670.747,132.282 666.174,141.962 C665.541,143.325 666.127,144.93 667.479,145.558 C668.831,146.186 670.435,145.6 671.063,144.248 C675.968,133.852 678.495,122.495 678.462,111 C678.462,107.43 677.043,104.006 674.519,101.481 C671.994,98.957 668.57,97.538 665,97.538 Z M665,76 C645.679,76.02 630.02,91.678 630,111 C630.005,114.361 629.436,117.7 628.318,120.87 C627.823,122.274 628.559,123.812 629.961,124.307 C631.364,124.801 632.902,124.065 633.396,122.662 C634.717,118.916 635.389,114.972 635.385,111 C635.385,94.644 648.644,81.385 665,81.385 C681.356,81.385 694.615,94.644 694.615,111 C694.615,117.172 694.018,123.309 692.831,129.345 C692.693,130.045 692.838,130.772 693.236,131.366 C693.634,131.959 694.251,132.37 694.951,132.508 C695.123,132.542 695.298,132.558 695.473,132.559 C696.758,132.557 697.863,131.648 698.111,130.388 C699.368,124.002 700,117.509 700,111 C699.978,91.679 684.321,76.022 665,76 Z M653.692,119.134 C652.239,118.845 650.825,119.785 650.529,121.238 C649.436,126.614 647.481,131.778 644.737,136.53 C643.994,137.819 644.436,139.466 645.724,140.209 C647.012,140.952 648.659,140.51 649.402,139.221 C652.434,133.967 654.593,128.256 655.796,122.31 C655.939,121.61 655.797,120.882 655.403,120.286 C655.008,119.69 654.393,119.276 653.692,119.134 Z M665,86.769 C663.987,86.769 662.976,86.832 661.971,86.958 C660.525,87.175 659.517,88.506 659.7,89.957 C659.882,91.407 661.19,92.447 662.644,92.299 C668.009,91.631 673.403,93.297 677.458,96.874 C681.512,100.45 683.838,105.594 683.846,111 C683.846,114.469 683.631,117.953 683.202,121.414 C683.102,122.127 683.291,122.852 683.728,123.424 C684.165,123.997 684.814,124.371 685.529,124.462 C685.641,124.475 685.753,124.482 685.865,124.482 C687.22,124.479 688.361,123.47 688.531,122.126 C688.985,118.442 689.21,114.732 689.204,111.02 C689.204,97.653 678.38,86.803 665.007,86.769 Z M684.496,129.93 C683.804,129.751 683.069,129.855 682.454,130.218 C681.839,130.581 681.393,131.173 681.214,131.865 C680.723,133.78 680.154,135.702 679.532,137.587 C679.057,138.992 679.81,140.517 681.214,140.996 C681.491,141.09 681.781,141.137 682.073,141.137 C683.229,141.136 684.256,140.396 684.624,139.3 C685.297,137.307 685.899,135.261 686.424,133.225 C686.606,132.533 686.506,131.797 686.145,131.18 C685.783,130.562 685.191,130.114 684.499,129.934 Z" />
        </g>
    </g>
</svg>