<?xml version="1.0" encoding="UTF-8"?>
<svg height="600" width="800" xmlns="http://www.w3.org/2000/svg" xmlns:xlink="http://www.w3.org/1999/xlink">
    <g id="Notes" font-family="'LucidaGrande', 'Lucida Grande', sans-serif" font-size="13">
        <rect fill="white" height="600.0" width="800.0" x="0.0" y="0.0" />
        <g font-size="13">
            <text x="18.0" y="176.0">Small</text>
            <text x="18.0" y="376.0">Medium</text>
            <text x="18.0" y="576.0">Large</text>
        </g>
        <g font-size="9">
            <text x="250.0" y="30.0">Ultralight</text>
            <text x="450.0" y="30.0">Regular</text>
            <text x="650.0" y="30.0">Black</text>
            <text id="template-version" fill="#505050" text-anchor="end" x="785.0" y="575.0">Template v.3.0</text>
            <a href="https://github.com/swhitty/SwiftDraw">
                <text fill="#505050" text-anchor="end" x="785.0" y="590.0">https://github.com/swhitty/SwiftDraw</text>
            </a>
        </g>
    </g>
    <g id="Guides" stroke="rgb(39, 170, 225)" stroke-width="0.5">
        <path id="Capline-S" d="M18,76 l800,0" />
        <path id="H-reference" d="M85,145.755 L87.685,145.755 L113.369,79.287 L114.052,79.287 L114.052,76 L112.148,76 L85,145.755 Z M95.693,121.536 L130.996,121.536 L130.263,119.313 L96.474,119.313 L95.693,121.536 Z M139.15,145.755 L141.787,145.755 L114.638,76 L113.466,76 L113.466,79.287 L139.15,145.755 Z" stroke="none" />
        <path id="Baseline-S" d="M18,146 l800,0" />
        <path id="left-margin-Ultralight-S" d="M220,56 l0,110" />
        <path id="right-margin-Ultralight-S" d="M310,56 l0,110" />
        <path id="left-margin-Regular-S" d="M420,56 l0,110" />
        <path id="right-margin-Regular-S" d="M510,56 l0,110" />
        <path id="left-margin-Black-S" d="M620,56 l0,110" />
        <path id="right-margin-Black-S" d="M710,56 l0,110" />
        <path id="Capline-M" d="M18,276 l800,0" />
        <path id="Baseline-M" d="M18,346 l800,0" />
        <path id="Capline-L" d="M18,476 l800,0" />
        <path id="Baseline-L" d="M18,546 l800,0" />
    </g>
    <g id="Symbols">
        <g id="Ultralight-S">
            <path d="M262.308,111 L262.308,84.077 C262.308,82.59 263.513,81.385 265,81.385 C266.487,81.385 267.692,82.59 267.692,84.077 L267.692,111 C267.692,112.487 266.487,113.692 265,113.692 C263.513,113.692 262.308,112.487 262.308,111 Z M282.625,84.514 C281.38,83.728 279.735,84.087 278.931,85.319 C278.127,86.552 278.462,88.202 279.683,89.024 C287.461,94.096 291.923,102.105 291.923,111 C291.923,125.869 279.869,137.923 265,137.923 C250.131,137.923 238.077,125.869 238.077,111 C238.077,102.105 242.539,94.096 250.317,89.024 C251.538,88.202 251.873,86.552 251.069,85.319 C250.265,84.087 248.62,83.728 247.375,84.514 C238.043,90.599 232.692,100.251 232.692,111 C232.692,128.843 247.157,143.308 265,143.308 C282.843,143.308 297.308,128.843 297.308,111 C297.308,100.251 291.957,90.599 282.625,84.514 Z" />
        </g>
        <g id="Regular-S">
            <path d="M462.308,111 L462.308,84.077 C462.308,82.59 463.513,81.385 465,81.385 C466.487,81.385 467.692,82.59 467.692,84.077 L467.692,111 C467.692,112.487 466.487,113.692 465,113.692 C463.513,113.692 462.308,112.487 462.308,111 Z M482.625,84.514 C481.38,83.728 479.735,84.087 478.931,85.319 C478.127,86.552 478.462,88.202 479.683,89.024 C487.461,94.096 491.923,102.105 491.923,111 C491.923,125.869 479.869,137.923 465,137.923 C450.131,137.923 438.077,125.869 438.077,111 C438.077,102.105 442.539,94.096 450.317,89.024 C451.538,88.202 451.873,86.552 451.069,85.319 C450.265,84.087 448.62,83.728 447.375,84.514 C438.043,90.599 432.692,100.251 432.692,111 C432.692,128.843 447.157,143.308 465,143.308 C482.843,143.308 497.308,128.843 497.308,111 C497.308,100.251 491.957,90.599 482.625,84.514 Z" />
        </g>
        <g id="Black-S">
            <path d="M662.308,111 L662.308,84.077 C662.308,82.59 663.513,81.385 665,81.385 C666.487,81.385 667.692,82.59 667.692,84.077 L667.692,111 C667.692,112.487 666.487,113.692 665,113.692 C663.513,113.692 662.308,112.487 662.308,111 Z M682.625,84.514 C681.38,83.728 679.735,84.087 678.931,85.319 C678.127,86.552 678.462,88.202 679.683,89.024 C687.461,94.096 691.923,102.105 691.923,111 C691.923,125.869 679.869,137.923 665,137.923 C650.131,137.923 638.077,125.869 638.077,111 C638.077,102.105 642.539,94.096 650.317,89.024 C651.538,88.202 651.873,86.552 651.069,85.319 C650.265,84.087 648.62,83.728 647.375,84.514 C638.043,90.599 632.692,100.251 632.692,111 C632.692,128.843 647.157,143.308 665,143.308 C682.843,143.308 697.308,128.843 697.308,111 C697.308,100.251 691.957,90.599 682.625,84.514 Z" />
        </g>
    </g>
</svg>