<?xml version="1.0" encoding="UTF-8"?>
<svg height="600" width="800" xmlns="http://www.w3.org/2000/svg" xmlns:xlink="http://www.w3.org/1999/xlink">
    <g id="Notes" font-family="'LucidaGrande', 'Lucida Grande', sans-serif" font-size="13">
        <rect fill="white" height="600.0" width="800.0" x="0.0" y="0.0" />
        <g font-size="13">
            <text x="18.0" y="176.0">Small</text>
            <text x="18.0" y="376.0">Medium</text>
            <text x="18.0" y="576.0">Large</text>
        </g>
        <g font-size="9">
            <text x="250.0" y="30.0">Ultralight</text>
            <text x="450.0" y="30.0">Regular</text>
            <text x="650.0" y="30.0">Black</text>
            <text id="template-version" fill="#505050" text-anchor="end" x="785.0" y="575.0">Template v.3.0</text>
            <a href="https://github.com/swhitty/SwiftDraw">
                <text fill="#505050" text-anchor="end" x="785.0" y="590.0">https://github.com/swhitty/SwiftDraw</text>
            </a>
        </g>
    </g>
    <g id="Guides" stroke="rgb(39, 170, 225)" stroke-width="0.5">
        <path id="Capline-S" d="M18,76 l800,0" />
        <path id="H-reference" d="M85,145.755 L87.685,145.755 L113.369,79.287 L114.052,79.287 L114.052,76 L112.148,76 L85,145.755 Z M95.693,121.536 L130.996,121.536 L130.263,119.313 L96.474,119.313 L95.693,121.536 Z M139.15,145.755 L141.787,145.755 L114.638,76 L113.466,76 L113.466,79.287 L139.15,145.755 Z" stroke="none" />
        <path id="Baseline-S" d="M18,146 l800,0" />
        <path id="left-margin-Ultralight-S" d="M220,56 l0,110" />
        <path id="right-margin-Ultralight-S" d="M310,56 l0,110" />
        <path id="left-margin-Regular-S" d="M420,56 l0,110" />
        <path id="right-margin-Regular-S" d="M510,56 l0,110" />
        <path id="left-margin-Black-S" d="M620,56 l0,110" />
        <path id="right-margin-Black-S" d="M710,56 l0,110" />
        <path id="Capline-M" d="M18,276 l800,0" />
        <path id="Baseline-M" d="M18,346 l800,0" />
        <path id="Capline-L" d="M18,476 l800,0" />
        <path id="Baseline-L" d="M18,546 l800,0" />
    </g>
    <g id="Symbols">
        <g id="Ultralight-S">
            <path d="M270.385,92.154 L270.385,129.846 C270.385,131.333 269.179,132.538 267.692,132.538 C266.205,132.538 265,131.333 265,129.846 L265,92.154 C265,90.667 266.205,89.462 267.692,89.462 C269.179,89.462 270.385,90.667 270.385,92.154 Z M300,89.462 L281.154,89.462 C280.44,89.462 279.755,89.745 279.25,90.25 C278.745,90.755 278.462,91.44 278.462,92.154 L278.462,129.846 C278.462,131.333 279.667,132.538 281.154,132.538 C282.641,132.538 283.846,131.333 283.846,129.846 L283.846,113.692 L297.308,113.692 C298.795,113.692 300,112.487 300,111 C300,109.513 298.795,108.308 297.308,108.308 L283.846,108.308 L283.846,94.846 L300,94.846 C301.487,94.846 302.692,93.641 302.692,92.154 C302.692,90.667 301.487,89.462 300,89.462 Z M254.231,108.308 L246.154,108.308 C244.667,108.308 243.462,109.513 243.462,111 C243.462,112.487 244.667,113.692 246.154,113.692 L251.538,113.692 L251.538,119.077 C251.538,123.538 247.922,127.154 243.462,127.154 C239.001,127.154 235.385,123.538 235.385,119.077 L235.385,102.923 C235.385,100.781 236.236,98.727 237.75,97.212 C239.265,95.697 241.319,94.846 243.462,94.846 C247.227,94.846 250.734,97.451 251.623,100.904 C251.99,102.34 253.458,103.209 254.899,102.84 C256.34,102.471 257.209,101.004 256.84,99.563 C255.331,93.709 249.708,89.462 243.462,89.462 C239.891,89.462 236.467,90.88 233.943,93.404 C231.418,95.929 230,99.353 230,102.923 L230,119.077 C230,126.512 236.027,132.538 243.462,132.538 C250.896,132.538 256.923,126.512 256.923,119.077 L256.923,111 C256.923,110.286 256.639,109.601 256.135,109.096 C255.63,108.591 254.945,108.308 254.231,108.308 Z" />
        </g>
        <g id="Regular-S">
            <path d="M470.385,92.154 L470.385,129.846 C470.385,131.333 469.179,132.538 467.692,132.538 C466.205,132.538 465,131.333 465,129.846 L465,92.154 C465,90.667 466.205,89.462 467.692,89.462 C469.179,89.462 470.385,90.667 470.385,92.154 Z M500,89.462 L481.154,89.462 C480.44,89.462 479.755,89.745 479.25,90.25 C478.745,90.755 478.462,91.44 478.462,92.154 L478.462,129.846 C478.462,131.333 479.667,132.538 481.154,132.538 C482.641,132.538 483.846,131.333 483.846,129.846 L483.846,113.692 L497.308,113.692 C498.795,113.692 500,112.487 500,111 C500,109.513 498.795,108.308 497.308,108.308 L483.846,108.308 L483.846,94.846 L500,94.846 C501.487,94.846 502.692,93.641 502.692,92.154 C502.692,90.667 501.487,89.462 500,89.462 Z M454.231,108.308 L446.154,108.308 C444.667,108.308 443.462,109.513 443.462,111 C443.462,112.487 444.667,113.692 446.154,113.692 L451.538,113.692 L451.538,119.077 C451.538,123.538 447.922,127.154 443.462,127.154 C439.001,127.154 435.385,123.538 435.385,119.077 L435.385,102.923 C435.385,100.781 436.236,98.727 437.75,97.212 C439.265,95.697 441.319,94.846 443.462,94.846 C447.227,94.846 450.734,97.451 451.623,100.904 C451.99,102.34 453.458,103.209 454.899,102.84 C456.34,102.471 457.209,101.004 456.84,99.563 C455.331,93.709 449.708,89.462 443.462,89.462 C439.891,89.462 436.467,90.88 433.943,93.404 C431.418,95.929 430,99.353 430,102.923 L430,119.077 C430,126.512 436.027,132.538 443.462,132.538 C450.896,132.538 456.923,126.512 456.923,119.077 L456.923,111 C456.923,110.286 456.639,109.601 456.135,109.096 C455.63,108.591 454.945,108.308 454.231,108.308 Z" />
        </g>
        <g id="Black-S">
            <path d="M670.385,92.154 L670.385,129.846 C670.385,131.333 669.179,132.538 667.692,132.538 C666.205,132.538 665,131.333 665,129.846 L665,92.154 C665,90.667 666.205,89.462 667.692,89.462 C669.179,89.462 670.385,90.667 670.385,92.154 Z M700,89.462 L681.154,89.462 C680.44,89.462 679.755,89.745 679.25,90.25 C678.745,90.755 678.462,91.44 678.462,92.154 L678.462,129.846 C678.462,131.333 679.667,132.538 681.154,132.538 C682.641,132.538 683.846,131.333 683.846,129.846 L683.846,113.692 L697.308,113.692 C698.795,113.692 700,112.487 700,111 C700,109.513 698.795,108.308 697.308,108.308 L683.846,108.308 L683.846,94.846 L700,94.846 C701.487,94.846 702.692,93.641 702.692,92.154 C702.692,90.667 701.487,89.462 700,89.462 Z M654.231,108.308 L646.154,108.308 C644.667,108.308 643.462,109.513 643.462,111 C643.462,112.487 644.667,113.692 646.154,113.692 L651.538,113.692 L651.538,119.077 C651.538,123.538 647.922,127.154 643.462,127.154 C639.001,127.154 635.385,123.538 635.385,119.077 L635.385,102.923 C635.385,100.781 636.236,98.727 637.75,97.212 C639.265,95.697 641.319,94.846 643.462,94.846 C647.227,94.846 650.734,97.451 651.623,100.904 C651.99,102.34 653.458,103.209 654.899,102.84 C656.34,102.471 657.209,101.004 656.84,99.563 C655.331,93.709 649.708,89.462 643.462,89.462 C639.891,89.462 636.467,90.88 633.943,93.404 C631.418,95.929 630,99.353 630,102.923 L630,119.077 C630,126.512 636.027,132.538 643.462,132.538 C650.896,132.538 656.923,126.512 656.923,119.077 L656.923,111 C656.923,110.286 656.639,109.601 656.135,109.096 C655.63,108.591 654.945,108.308 654.231,108.308 Z" />
        </g>
    </g>
</svg>