<?xml version="1.0" encoding="UTF-8"?>
<svg height="600" width="800" xmlns="http://www.w3.org/2000/svg" xmlns:xlink="http://www.w3.org/1999/xlink">
    <g id="Notes" font-family="'LucidaGrande', 'Lucida Grande', sans-serif" font-size="13">
        <rect fill="white" height="600.0" width="800.0" x="0.0" y="0.0" />
        <g font-size="13">
            <text x="18.0" y="176.0">Small</text>
            <text x="18.0" y="376.0">Medium</text>
            <text x="18.0" y="576.0">Large</text>
        </g>
        <g font-size="9">
            <text x="250.0" y="30.0">Ultralight</text>
            <text x="450.0" y="30.0">Regular</text>
            <text x="650.0" y="30.0">Black</text>
            <text id="template-version" fill="#505050" text-anchor="end" x="785.0" y="575.0">Template v.3.0</text>
            <a href="https://github.com/swhitty/SwiftDraw">
                <text fill="#505050" text-anchor="end" x="785.0" y="590.0">https://github.com/swhitty/SwiftDraw</text>
            </a>
        </g>
    </g>
    <g id="Guides" stroke="rgb(39, 170, 225)" stroke-width="0.5">
        <path id="Capline-S" d="M18,76 l800,0" />
        <path id="H-reference" d="M85,145.755 L87.685,145.755 L113.369,79.287 L114.052,79.287 L114.052,76 L112.148,76 L85,145.755 Z M95.693,121.536 L130.996,121.536 L130.263,119.313 L96.474,119.313 L95.693,121.536 Z M139.15,145.755 L141.787,145.755 L114.638,76 L113.466,76 L113.466,79.287 L139.15,145.755 Z" stroke="none" />
        <path id="Baseline-S" d="M18,146 l800,0" />
        <path id="left-margin-Ultralight-S" d="M220,56 l0,110" />
        <path id="right-margin-Ultralight-S" d="M310,56 l0,110" />
        <path id="left-margin-Regular-S" d="M420,56 l0,110" />
        <path id="right-margin-Regular-S" d="M510,56 l0,110" />
        <path id="left-margin-Black-S" d="M620,56 l0,110" />
        <path id="right-margin-Black-S" d="M710,56 l0,110" />
        <path id="Capline-M" d="M18,276 l800,0" />
        <path id="Baseline-M" d="M18,346 l800,0" />
        <path id="Capline-L" d="M18,476 l800,0" />
        <path id="Baseline-L" d="M18,546 l800,0" />
    </g>
    <g id="Symbols">
        <g id="Ultralight-S">
            <path d="M283.846,98.067 L283.846,96.192 C283.846,87.752 271.115,81.385 254.231,81.385 C237.347,81.385 224.615,87.752 224.615,96.192 L224.615,109.654 C224.615,116.684 233.45,122.271 246.154,123.943 L246.154,125.808 C246.154,134.248 258.885,140.615 275.769,140.615 C292.653,140.615 305.385,134.248 305.385,125.808 L305.385,112.346 C305.385,105.38 296.83,99.787 283.846,98.067 Z M300,112.346 C300,116.795 289.638,121.769 275.769,121.769 C274.514,121.769 273.269,121.725 272.04,121.645 C279.3,119 283.846,114.702 283.846,109.654 L283.846,103.509 C293.899,105.006 300,109.072 300,112.346 Z M246.154,118.488 L246.154,110.482 C248.832,110.831 251.53,111.004 254.231,111 C256.931,111.004 259.63,110.831 262.308,110.482 L262.308,118.488 C259.633,118.883 256.934,119.08 254.231,119.077 C251.528,119.08 248.828,118.883 246.154,118.488 Z M278.462,104.919 L278.462,109.654 C278.462,112.477 274.285,115.51 267.692,117.35 L267.692,109.486 C272.037,108.432 275.715,106.864 278.462,104.919 Z M254.231,86.769 C268.1,86.769 278.462,91.743 278.462,96.192 C278.462,100.641 268.1,105.615 254.231,105.615 C240.362,105.615 230,100.641 230,96.192 C230,91.743 240.362,86.769 254.231,86.769 Z M230,109.654 L230,104.919 C232.746,106.864 236.425,108.432 240.769,109.486 L240.769,117.35 C234.176,115.51 230,112.477 230,109.654 Z M251.538,125.808 L251.538,124.404 C252.424,124.438 253.319,124.462 254.231,124.462 C255.537,124.462 256.812,124.418 258.064,124.344 C259.455,124.842 260.871,125.264 262.308,125.609 L262.308,133.504 C255.715,131.663 251.538,128.631 251.538,125.808 Z M267.692,134.642 L267.692,126.615 C270.37,126.975 273.068,127.155 275.769,127.154 C278.47,127.158 281.168,126.985 283.846,126.636 L283.846,134.642 C278.49,135.427 273.048,135.427 267.692,134.642 Z M289.231,133.504 L289.231,125.639 C293.576,124.586 297.254,123.018 300,121.073 L300,125.808 C300,128.631 295.824,131.663 289.231,133.504 Z" />
        </g>
        <g id="Regular-S">
            <path d="M483.846,98.067 L483.846,96.192 C483.846,87.752 471.115,81.385 454.231,81.385 C437.347,81.385 424.615,87.752 424.615,96.192 L424.615,109.654 C424.615,116.684 433.449,122.271 446.154,123.943 L446.154,125.808 C446.154,134.248 458.885,140.615 475.769,140.615 C492.653,140.615 505.385,134.248 505.385,125.808 L505.385,112.346 C505.385,105.38 496.83,99.787 483.846,98.067 Z M500,112.346 C500,116.795 489.638,121.769 475.769,121.769 C474.514,121.769 473.269,121.725 472.04,121.645 C479.299,119 483.846,114.702 483.846,109.654 L483.846,103.509 C493.899,105.006 500,109.072 500,112.346 Z M446.154,118.488 L446.154,110.482 C448.832,110.831 451.53,111.004 454.231,111 C456.931,111.004 459.629,110.831 462.308,110.482 L462.308,118.488 C459.633,118.883 456.934,119.08 454.231,119.077 C451.528,119.08 448.828,118.883 446.154,118.488 Z M478.462,104.919 L478.462,109.654 C478.462,112.477 474.285,115.51 467.692,117.35 L467.692,109.486 C472.037,108.432 475.715,106.864 478.462,104.919 Z M454.231,86.769 C468.1,86.769 478.462,91.743 478.462,96.192 C478.462,100.641 468.1,105.615 454.231,105.615 C440.362,105.615 430,100.641 430,96.192 C430,91.743 440.362,86.769 454.231,86.769 Z M430,109.654 L430,104.919 C432.746,106.864 436.424,108.432 440.769,109.486 L440.769,117.35 C434.176,115.51 430,112.477 430,109.654 Z M451.538,125.808 L451.538,124.404 C452.424,124.438 453.319,124.462 454.231,124.462 C455.537,124.462 456.812,124.418 458.064,124.344 C459.455,124.842 460.871,125.264 462.308,125.609 L462.308,133.504 C455.715,131.663 451.538,128.631 451.538,125.808 Z M467.692,134.642 L467.692,126.615 C470.37,126.975 473.068,127.155 475.769,127.154 C478.47,127.158 481.168,126.985 483.846,126.636 L483.846,134.642 C478.49,135.427 473.048,135.427 467.692,134.642 Z M489.231,133.504 L489.231,125.639 C493.575,124.586 497.254,123.018 500,121.073 L500,125.808 C500,128.631 495.824,131.663 489.231,133.504 Z" />
        </g>
        <g id="Black-S">
            <path d="M683.846,98.067 L683.846,96.192 C683.846,87.752 671.115,81.385 654.231,81.385 C637.347,81.385 624.615,87.752 624.615,96.192 L624.615,109.654 C624.615,116.684 633.45,122.271 646.154,123.943 L646.154,125.808 C646.154,134.248 658.885,140.615 675.769,140.615 C692.653,140.615 705.385,134.248 705.385,125.808 L705.385,112.346 C705.385,105.38 696.83,99.787 683.846,98.067 Z M700,112.346 C700,116.795 689.638,121.769 675.769,121.769 C674.514,121.769 673.269,121.725 672.04,121.645 C679.3,119 683.846,114.702 683.846,109.654 L683.846,103.509 C693.899,105.006 700,109.072 700,112.346 Z M646.154,118.488 L646.154,110.482 C648.832,110.831 651.53,111.004 654.231,111 C656.931,111.004 659.63,110.831 662.308,110.482 L662.308,118.488 C659.633,118.883 656.934,119.08 654.231,119.077 C651.528,119.08 648.828,118.883 646.154,118.488 Z M678.462,104.919 L678.462,109.654 C678.462,112.477 674.285,115.51 667.692,117.35 L667.692,109.486 C672.037,108.432 675.715,106.864 678.462,104.919 Z M654.231,86.769 C668.1,86.769 678.462,91.743 678.462,96.192 C678.462,100.641 668.1,105.615 654.231,105.615 C640.362,105.615 630,100.641 630,96.192 C630,91.743 640.362,86.769 654.231,86.769 Z M630,109.654 L630,104.919 C632.746,106.864 636.425,108.432 640.769,109.486 L640.769,117.35 C634.176,115.51 630,112.477 630,109.654 Z M651.538,125.808 L651.538,124.404 C652.424,124.438 653.319,124.462 654.231,124.462 C655.537,124.462 656.812,124.418 658.064,124.344 C659.455,124.842 660.871,125.264 662.308,125.609 L662.308,133.504 C655.715,131.663 651.538,128.631 651.538,125.808 Z M667.692,134.642 L667.692,126.615 C670.37,126.975 673.068,127.155 675.769,127.154 C678.47,127.158 681.168,126.985 683.846,126.636 L683.846,134.642 C678.49,135.427 673.048,135.427 667.692,134.642 Z M689.231,133.504 L689.231,125.639 C693.576,124.586 697.254,123.018 700,121.073 L700,125.808 C700,128.631 695.824,131.663 689.231,133.504 Z" />
        </g>
    </g>
</svg>