<?xml version="1.0" encoding="UTF-8"?>
<svg height="600" width="800" xmlns="http://www.w3.org/2000/svg" xmlns:xlink="http://www.w3.org/1999/xlink">
    <g id="Notes" font-family="'LucidaGrande', 'Lucida Grande', sans-serif" font-size="13">
        <rect fill="white" height="600.0" width="800.0" x="0.0" y="0.0" />
        <g font-size="13">
            <text x="18.0" y="176.0">Small</text>
            <text x="18.0" y="376.0">Medium</text>
            <text x="18.0" y="576.0">Large</text>
        </g>
        <g font-size="9">
            <text x="250.0" y="30.0">Ultralight</text>
            <text x="450.0" y="30.0">Regular</text>
            <text x="650.0" y="30.0">Black</text>
            <text id="template-version" fill="#505050" text-anchor="end" x="785.0" y="575.0">Template v.3.0</text>
            <a href="https://github.com/swhitty/SwiftDraw">
                <text fill="#505050" text-anchor="end" x="785.0" y="590.0">https://github.com/swhitty/SwiftDraw</text>
            </a>
        </g>
    </g>
    <g id="Guides" stroke="rgb(39, 170, 225)" stroke-width="0.5">
        <path id="Capline-S" d="M18,76 l800,0" />
        <path id="H-reference" d="M85,145.755 L87.685,145.755 L113.369,79.287 L114.052,79.287 L114.052,76 L112.148,76 L85,145.755 Z M95.693,121.536 L130.996,121.536 L130.263,119.313 L96.474,119.313 L95.693,121.536 Z M139.15,145.755 L141.787,145.755 L114.638,76 L113.466,76 L113.466,79.287 L139.15,145.755 Z" stroke="none" />
        <path id="Baseline-S" d="M18,146 l800,0" />
        <path id="left-margin-Ultralight-S" d="M220,56 l0,110" />
        <path id="right-margin-Ultralight-S" d="M310,56 l0,110" />
        <path id="left-margin-Regular-S" d="M420,56 l0,110" />
        <path id="right-margin-Regular-S" d="M510,56 l0,110" />
        <path id="left-margin-Black-S" d="M620,56 l0,110" />
        <path id="right-margin-Black-S" d="M710,56 l0,110" />
        <path id="Capline-M" d="M18,276 l800,0" />
        <path id="Baseline-M" d="M18,346 l800,0" />
        <path id="Capline-L" d="M18,476 l800,0" />
        <path id="Baseline-L" d="M18,546 l800,0" />
    </g>
    <g id="Symbols">
        <g id="Ultralight-S">
            <path d="M293.155,123.634 C297.698,121.668 300,116.509 300,108.308 C300,100.106 297.698,94.947 293.155,92.978 C289.234,91.296 283.987,92.228 277.519,95.788 C281.08,89.32 282.025,84.074 280.329,80.153 C278.361,75.61 273.201,73.308 265,73.308 C256.799,73.308 251.639,75.61 249.671,80.153 C247.988,84.074 248.92,89.32 252.481,95.785 C246.013,92.228 240.769,91.279 236.845,92.978 C232.302,94.947 230,100.106 230,108.308 C230,116.509 232.302,121.668 236.845,123.634 C238.171,124.196 239.599,124.478 241.038,124.462 C244.269,124.462 248.106,123.243 252.481,120.83 C248.92,127.292 247.975,132.538 249.671,136.459 C251.639,141.002 256.799,143.308 265,143.308 C273.201,143.308 278.361,141.002 280.329,136.459 C280.99,134.863 281.26,133.132 281.117,131.411 C284.634,136.873 287.726,143.015 289.312,149.359 C289.616,150.552 290.692,151.386 291.923,151.385 C292.144,151.384 292.365,151.357 292.579,151.304 C294.022,150.943 294.898,149.482 294.538,148.039 C292.202,138.697 287.043,129.934 281.797,122.87 C284.437,123.931 286.826,123.931 288.962,124.462 C290.401,124.478 291.829,124.196 293.155,123.634 Z M291.011,97.922 C293.989,99.221 294.615,104.269 294.615,108.308 C294.615,112.346 293.989,117.394 291.014,118.693 C288.201,119.915 283.099,118.252 276.651,114.012 C274.014,112.253 271.481,110.343 269.065,108.291 C275.261,103.048 286,95.748 291.011,97.922 Z M254.614,82.293 C255.913,79.318 260.962,78.692 265,78.692 C269.038,78.692 274.087,79.318 275.386,82.293 C276.607,85.107 274.945,90.209 270.704,96.657 C268.946,99.294 267.035,101.827 264.983,104.242 C259.74,98.047 252.444,87.304 254.614,82.293 Z M238.989,118.693 C236.011,117.394 235.385,112.346 235.385,108.308 C235.385,104.269 236.011,99.221 238.986,97.922 C239.658,97.649 240.38,97.519 241.106,97.538 C244.05,97.538 248.288,99.278 253.356,102.61 C255.993,104.369 258.526,106.279 260.941,108.331 C254.739,113.564 243.997,120.867 238.989,118.693 Z M275.386,134.319 C274.087,137.297 269.038,137.923 265,137.923 C260.962,137.923 255.913,137.297 254.614,134.322 C253.393,131.509 255.055,126.407 259.296,119.959 C261.054,117.322 262.965,114.789 265.017,112.373 C270.26,118.569 277.556,129.311 275.386,134.319 Z" />
        </g>
        <g id="Regular-S">
            <path d="M493.155,123.634 C497.698,121.668 500,116.509 500,108.308 C500,100.106 497.698,94.947 493.155,92.978 C489.234,91.296 483.987,92.228 477.519,95.788 C481.08,89.32 482.025,84.074 480.329,80.153 C478.361,75.61 473.201,73.308 465,73.308 C456.799,73.308 451.639,75.61 449.671,80.153 C447.988,84.074 448.92,89.32 452.481,95.785 C446.012,92.228 440.769,91.279 436.845,92.978 C432.302,94.947 430,100.106 430,108.308 C430,116.509 432.302,121.668 436.845,123.634 C438.171,124.196 439.599,124.478 441.038,124.462 C444.269,124.462 448.106,123.243 452.481,120.83 C448.92,127.292 447.975,132.538 449.671,136.459 C451.639,141.002 456.799,143.308 465,143.308 C473.201,143.308 478.361,141.002 480.329,136.459 C480.99,134.863 481.26,133.132 481.117,131.411 C484.634,136.873 487.726,143.015 489.312,149.359 C489.616,150.552 490.692,151.386 491.923,151.385 C492.144,151.384 492.365,151.357 492.579,151.304 C494.021,150.943 494.898,149.482 494.538,148.039 C492.202,138.697 487.043,129.934 481.797,122.87 C484.437,123.931 486.826,123.931 488.962,124.462 C490.401,124.478 491.829,124.196 493.155,123.634 Z M491.011,97.922 C493.989,99.221 494.615,104.269 494.615,108.308 C494.615,112.346 493.989,117.394 491.014,118.693 C488.201,119.915 483.099,118.252 476.651,114.012 C474.014,112.253 471.481,110.343 469.065,108.291 C475.261,103.048 486,95.748 491.011,97.922 Z M454.614,82.293 C455.913,79.318 460.962,78.692 465,78.692 C469.038,78.692 474.087,79.318 475.386,82.293 C476.607,85.107 474.945,90.209 470.704,96.657 C468.946,99.294 467.035,101.827 464.983,104.242 C459.74,98.047 452.444,87.304 454.614,82.293 Z M438.989,118.693 C436.011,117.394 435.385,112.346 435.385,108.308 C435.385,104.269 436.011,99.221 438.986,97.922 C439.658,97.649 440.38,97.519 441.106,97.538 C444.05,97.538 448.287,99.278 453.356,102.61 C455.993,104.369 458.526,106.279 460.941,108.331 C454.739,113.564 443.997,120.867 438.989,118.693 Z M475.386,134.319 C474.087,137.297 469.038,137.923 465,137.923 C460.962,137.923 455.913,137.297 454.614,134.322 C453.393,131.509 455.055,126.407 459.296,119.959 C461.054,117.322 462.965,114.789 465.017,112.373 C470.26,118.569 477.556,129.311 475.386,134.319 Z" />
        </g>
        <g id="Black-S">
            <path d="M693.155,123.634 C697.698,121.668 700,116.509 700,108.308 C700,100.106 697.698,94.947 693.155,92.978 C689.234,91.296 683.988,92.228 677.519,95.788 C681.08,89.32 682.026,84.074 680.329,80.153 C678.361,75.61 673.201,73.308 665,73.308 C656.799,73.308 651.639,75.61 649.671,80.153 C647.988,84.074 648.92,89.32 652.481,95.785 C646.013,92.228 640.769,91.279 636.845,92.978 C632.302,94.947 630,100.106 630,108.308 C630,116.509 632.302,121.668 636.845,123.634 C638.171,124.196 639.599,124.478 641.038,124.462 C644.269,124.462 648.106,123.243 652.481,120.83 C648.92,127.292 647.975,132.538 649.671,136.459 C651.639,141.002 656.799,143.308 665,143.308 C673.201,143.308 678.361,141.002 680.329,136.459 C680.99,134.863 681.26,133.132 681.117,131.411 C684.634,136.873 687.726,143.015 689.312,149.359 C689.616,150.552 690.692,151.386 691.923,151.385 C692.144,151.384 692.365,151.357 692.579,151.304 C694.022,150.943 694.898,149.482 694.538,148.039 C692.202,138.697 687.043,129.934 681.797,122.87 C684.437,123.931 686.826,123.931 688.962,124.462 C690.401,124.478 691.829,124.196 693.155,123.634 Z M691.011,97.922 C693.989,99.221 694.615,104.269 694.615,108.308 C694.615,112.346 693.989,117.394 691.014,118.693 C688.201,119.915 683.099,118.252 676.651,114.012 C674.014,112.253 671.481,110.343 669.065,108.291 C675.261,103.048 686,95.748 691.011,97.922 Z M654.614,82.293 C655.913,79.318 660.962,78.692 665,78.692 C669.038,78.692 674.087,79.318 675.386,82.293 C676.607,85.107 674.945,90.209 670.704,96.657 C668.946,99.294 667.035,101.827 664.983,104.242 C659.74,98.047 652.444,87.304 654.614,82.293 Z M638.989,118.693 C636.011,117.394 635.385,112.346 635.385,108.308 C635.385,104.269 636.011,99.221 638.986,97.922 C639.658,97.649 640.38,97.519 641.106,97.538 C644.05,97.538 648.288,99.278 653.356,102.61 C655.993,104.369 658.526,106.279 660.941,108.331 C654.739,113.564 643.997,120.867 638.989,118.693 Z M675.386,134.319 C674.087,137.297 669.038,137.923 665,137.923 C660.962,137.923 655.913,137.297 654.614,134.322 C653.393,131.509 655.055,126.407 659.296,119.959 C661.054,117.322 662.965,114.789 665.017,112.373 C670.26,118.569 677.556,129.311 675.386,134.319 Z" />
        </g>
    </g>
</svg>