<?xml version="1.0" encoding="UTF-8"?>
<svg height="600" width="800" xmlns="http://www.w3.org/2000/svg" xmlns:xlink="http://www.w3.org/1999/xlink">
    <g id="Notes" font-family="'LucidaGrande', 'Lucida Grande', sans-serif" font-size="13">
        <rect fill="white" height="600.0" width="800.0" x="0.0" y="0.0" />
        <g font-size="13">
            <text x="18.0" y="176.0">Small</text>
            <text x="18.0" y="376.0">Medium</text>
            <text x="18.0" y="576.0">Large</text>
        </g>
        <g font-size="9">
            <text x="250.0" y="30.0">Ultralight</text>
            <text x="450.0" y="30.0">Regular</text>
            <text x="650.0" y="30.0">Black</text>
            <text id="template-version" fill="#505050" text-anchor="end" x="785.0" y="575.0">Template v.3.0</text>
            <a href="https://github.com/swhitty/SwiftDraw">
                <text fill="#505050" text-anchor="end" x="785.0" y="590.0">https://github.com/swhitty/SwiftDraw</text>
            </a>
        </g>
    </g>
    <g id="Guides" stroke="rgb(39, 170, 225)" stroke-width="0.5">
        <path id="Capline-S" d="M18,76 l800,0" />
        <path id="H-reference" d="M85,145.755 L87.685,145.755 L113.369,79.287 L114.052,79.287 L114.052,76 L112.148,76 L85,145.755 Z M95.693,121.536 L130.996,121.536 L130.263,119.313 L96.474,119.313 L95.693,121.536 Z M139.15,145.755 L141.787,145.755 L114.638,76 L113.466,76 L113.466,79.287 L139.15,145.755 Z" stroke="none" />
        <path id="Baseline-S" d="M18,146 l800,0" />
        <path id="left-margin-Ultralight-S" d="M220,56 l0,110" />
        <path id="right-margin-Ultralight-S" d="M310,56 l0,110" />
        <path id="left-margin-Regular-S" d="M420,56 l0,110" />
        <path id="right-margin-Regular-S" d="M510,56 l0,110" />
        <path id="left-margin-Black-S" d="M620,56 l0,110" />
        <path id="right-margin-Black-S" d="M710,56 l0,110" />
        <path id="Capline-M" d="M18,276 l800,0" />
        <path id="Baseline-M" d="M18,346 l800,0" />
        <path id="Capline-L" d="M18,476 l800,0" />
        <path id="Baseline-L" d="M18,546 l800,0" />
    </g>
    <g id="Symbols">
        <g id="Ultralight-S">
            <path d="M301.117,92.615 L283.385,74.886 C282.375,73.876 281.005,73.309 279.577,73.309 C278.149,73.309 276.779,73.876 275.769,74.886 L228.883,121.769 C227.873,122.779 227.305,124.149 227.305,125.577 C227.305,127.005 227.873,128.375 228.883,129.385 L246.615,147.114 C247.625,148.124 248.995,148.691 250.423,148.691 C251.851,148.691 253.221,148.124 254.231,147.114 L301.117,100.231 C302.127,99.221 302.695,97.851 302.695,96.423 C302.695,94.995 302.127,93.625 301.117,92.615 Z M250.421,143.308 L232.692,125.575 L243.462,114.806 L252.326,123.674 C253.376,124.726 255.082,124.727 256.135,123.675 C257.187,122.624 257.188,120.918 256.137,119.865 L247.268,111 L254.231,104.037 L263.095,112.905 C264.146,113.956 265.851,113.957 266.904,112.906 C267.956,111.854 267.957,110.149 266.906,109.096 L258.037,100.231 L265,93.268 L273.864,102.136 C274.915,103.187 276.62,103.188 277.673,102.137 C278.726,101.085 278.727,99.38 277.675,98.327 L268.806,89.462 L279.576,78.692 L297.308,96.425 Z" />
        </g>
        <g id="Regular-S">
            <path d="M501.117,92.615 L483.385,74.886 C482.375,73.876 481.005,73.309 479.577,73.309 C478.149,73.309 476.779,73.876 475.769,74.886 L428.883,121.769 C427.873,122.779 427.305,124.149 427.305,125.577 C427.305,127.005 427.873,128.375 428.883,129.385 L446.615,147.114 C447.625,148.124 448.995,148.691 450.423,148.691 C451.851,148.691 453.221,148.124 454.231,147.114 L501.117,100.231 C502.127,99.221 502.695,97.851 502.695,96.423 C502.695,94.995 502.127,93.625 501.117,92.615 Z M450.421,143.308 L432.692,125.575 L443.462,114.806 L452.326,123.674 C453.376,124.726 455.082,124.727 456.135,123.675 C457.187,122.624 457.188,120.918 456.137,119.865 L447.268,111 L454.231,104.037 L463.095,112.905 C464.146,113.956 465.851,113.957 466.904,112.906 C467.956,111.854 467.957,110.149 466.906,109.096 L458.037,100.231 L465,93.268 L473.864,102.136 C474.915,103.187 476.62,103.188 477.673,102.137 C478.726,101.085 478.727,99.38 477.675,98.327 L468.806,89.462 L479.575,78.692 L497.308,96.425 Z" />
        </g>
        <g id="Black-S">
            <path d="M701.117,92.615 L683.385,74.886 C682.375,73.876 681.005,73.309 679.577,73.309 C678.149,73.309 676.779,73.876 675.769,74.886 L628.883,121.769 C627.873,122.779 627.305,124.149 627.305,125.577 C627.305,127.005 627.873,128.375 628.883,129.385 L646.615,147.114 C647.625,148.124 648.995,148.691 650.423,148.691 C651.851,148.691 653.221,148.124 654.231,147.114 L701.117,100.231 C702.127,99.221 702.695,97.851 702.695,96.423 C702.695,94.995 702.127,93.625 701.117,92.615 Z M650.421,143.308 L632.692,125.575 L643.462,114.806 L652.326,123.674 C653.376,124.726 655.082,124.727 656.135,123.675 C657.187,122.624 657.188,120.918 656.137,119.865 L647.268,111 L654.231,104.037 L663.095,112.905 C664.146,113.956 665.851,113.957 666.904,112.906 C667.956,111.854 667.957,110.149 666.906,109.096 L658.037,100.231 L665,93.268 L673.864,102.136 C674.915,103.187 676.62,103.188 677.673,102.137 C678.726,101.085 678.727,99.38 677.675,98.327 L668.806,89.462 L679.576,78.692 L697.308,96.425 Z" />
        </g>
    </g>
</svg>