<?xml version="1.0" encoding="UTF-8"?>
<svg height="600" width="800" xmlns="http://www.w3.org/2000/svg" xmlns:xlink="http://www.w3.org/1999/xlink">
    <g id="Notes" font-family="'LucidaGrande', 'Lucida Grande', sans-serif" font-size="13">
        <rect fill="white" height="600.0" width="800.0" x="0.0" y="0.0" />
        <g font-size="13">
            <text x="18.0" y="176.0">Small</text>
            <text x="18.0" y="376.0">Medium</text>
            <text x="18.0" y="576.0">Large</text>
        </g>
        <g font-size="9">
            <text x="250.0" y="30.0">Ultralight</text>
            <text x="450.0" y="30.0">Regular</text>
            <text x="650.0" y="30.0">Black</text>
            <text id="template-version" fill="#505050" text-anchor="end" x="785.0" y="575.0">Template v.3.0</text>
            <a href="https://github.com/swhitty/SwiftDraw">
                <text fill="#505050" text-anchor="end" x="785.0" y="590.0">https://github.com/swhitty/SwiftDraw</text>
            </a>
        </g>
    </g>
    <g id="Guides" stroke="rgb(39, 170, 225)" stroke-width="0.5">
        <path id="Capline-S" d="M18,76 l800,0" />
        <path id="H-reference" d="M85,145.755 L87.685,145.755 L113.369,79.287 L114.052,79.287 L114.052,76 L112.148,76 L85,145.755 Z M95.693,121.536 L130.996,121.536 L130.263,119.313 L96.474,119.313 L95.693,121.536 Z M139.15,145.755 L141.787,145.755 L114.638,76 L113.466,76 L113.466,79.287 L139.15,145.755 Z" stroke="none" />
        <path id="Baseline-S" d="M18,146 l800,0" />
        <path id="left-margin-Ultralight-S" d="M220,56 l0,110" />
        <path id="right-margin-Ultralight-S" d="M310,56 l0,110" />
        <path id="left-margin-Regular-S" d="M420,56 l0,110" />
        <path id="right-margin-Regular-S" d="M510,56 l0,110" />
        <path id="left-margin-Black-S" d="M620,56 l0,110" />
        <path id="right-margin-Black-S" d="M710,56 l0,110" />
        <path id="Capline-M" d="M18,276 l800,0" />
        <path id="Baseline-M" d="M18,346 l800,0" />
        <path id="Capline-L" d="M18,476 l800,0" />
        <path id="Baseline-L" d="M18,546 l800,0" />
    </g>
    <g id="Symbols">
        <g id="Ultralight-S">
            <path d="M291.923,78.692 L238.077,78.692 C236.649,78.692 235.279,79.26 234.269,80.269 C233.26,81.279 232.692,82.649 232.692,84.077 L232.692,137.923 C232.692,139.351 233.26,140.721 234.269,141.731 C235.279,142.74 236.649,143.308 238.077,143.308 L291.923,143.308 C293.351,143.308 294.721,142.74 295.731,141.731 C296.74,140.721 297.308,139.351 297.308,137.923 L297.308,84.077 C297.308,82.649 296.74,81.279 295.731,80.269 C294.721,79.26 293.351,78.692 291.923,78.692 Z M291.923,137.923 L238.077,137.923 L238.077,84.077 L291.923,84.077 L291.923,137.923 Z M265,105.615 C264.795,105.615 264.589,105.615 264.388,105.615 L270.004,96.226 C270.766,94.949 270.349,93.296 269.072,92.534 C267.795,91.772 266.142,92.19 265.38,93.467 L254.534,111.64 C251.775,116.383 252.549,122.389 256.42,126.278 C260.292,130.167 266.294,130.969 271.05,128.231 C275.806,125.494 278.128,119.901 276.71,114.6 C275.292,109.299 270.488,105.613 265,105.615 Z M265,124.462 C261.283,124.462 258.269,121.448 258.269,117.731 C258.269,114.013 261.283,111 265,111 C268.717,111 271.731,114.013 271.731,117.731 C271.731,119.516 271.022,121.228 269.759,122.49 C268.497,123.752 266.785,124.462 265,124.462 Z" />
        </g>
        <g id="Regular-S">
            <path d="M491.923,78.692 L438.077,78.692 C436.649,78.692 435.279,79.26 434.269,80.269 C433.26,81.279 432.692,82.649 432.692,84.077 L432.692,137.923 C432.692,139.351 433.26,140.721 434.269,141.731 C435.279,142.74 436.649,143.308 438.077,143.308 L491.923,143.308 C493.351,143.308 494.721,142.74 495.731,141.731 C496.74,140.721 497.308,139.351 497.308,137.923 L497.308,84.077 C497.308,82.649 496.74,81.279 495.731,80.269 C494.721,79.26 493.351,78.692 491.923,78.692 Z M491.923,137.923 L438.077,137.923 L438.077,84.077 L491.923,84.077 L491.923,137.923 Z M465,105.615 C464.795,105.615 464.589,105.615 464.387,105.615 L470.004,96.226 C470.766,94.949 470.349,93.296 469.072,92.534 C467.795,91.772 466.142,92.19 465.38,93.467 L454.534,111.64 C451.775,116.383 452.549,122.389 456.42,126.278 C460.292,130.167 466.294,130.969 471.05,128.231 C475.806,125.494 478.128,119.901 476.71,114.6 C475.292,109.299 470.488,105.613 465,105.615 Z M465,124.462 C461.283,124.462 458.269,121.448 458.269,117.731 C458.269,114.013 461.283,111 465,111 C468.717,111 471.731,114.013 471.731,117.731 C471.731,119.516 471.022,121.228 469.759,122.49 C468.497,123.752 466.785,124.462 465,124.462 Z" />
        </g>
        <g id="Black-S">
            <path d="M691.923,78.692 L638.077,78.692 C636.649,78.692 635.279,79.26 634.269,80.269 C633.26,81.279 632.692,82.649 632.692,84.077 L632.692,137.923 C632.692,139.351 633.26,140.721 634.269,141.731 C635.279,142.74 636.649,143.308 638.077,143.308 L691.923,143.308 C693.351,143.308 694.721,142.74 695.731,141.731 C696.74,140.721 697.308,139.351 697.308,137.923 L697.308,84.077 C697.308,82.649 696.74,81.279 695.731,80.269 C694.721,79.26 693.351,78.692 691.923,78.692 Z M691.923,137.923 L638.077,137.923 L638.077,84.077 L691.923,84.077 L691.923,137.923 Z M665,105.615 C664.795,105.615 664.589,105.615 664.388,105.615 L670.004,96.226 C670.766,94.949 670.349,93.296 669.072,92.534 C667.795,91.772 666.142,92.19 665.38,93.467 L654.534,111.64 C651.775,116.383 652.549,122.389 656.42,126.278 C660.292,130.167 666.294,130.969 671.05,128.231 C675.806,125.494 678.128,119.901 676.71,114.6 C675.292,109.299 670.488,105.613 665,105.615 Z M665,124.462 C661.283,124.462 658.269,121.448 658.269,117.731 C658.269,114.013 661.283,111 665,111 C668.717,111 671.731,114.013 671.731,117.731 C671.731,119.516 671.022,121.228 669.759,122.49 C668.497,123.752 666.785,124.462 665,124.462 Z" />
        </g>
    </g>
</svg>