<?xml version="1.0" encoding="UTF-8"?>
<svg height="600" width="800" xmlns="http://www.w3.org/2000/svg" xmlns:xlink="http://www.w3.org/1999/xlink">
    <g id="Notes" font-family="'LucidaGrande', 'Lucida Grande', sans-serif" font-size="13">
        <rect fill="white" height="600.0" width="800.0" x="0.0" y="0.0" />
        <g font-size="13">
            <text x="18.0" y="176.0">Small</text>
            <text x="18.0" y="376.0">Medium</text>
            <text x="18.0" y="576.0">Large</text>
        </g>
        <g font-size="9">
            <text x="250.0" y="30.0">Ultralight</text>
            <text x="450.0" y="30.0">Regular</text>
            <text x="650.0" y="30.0">Black</text>
            <text id="template-version" fill="#505050" text-anchor="end" x="785.0" y="575.0">Template v.3.0</text>
            <a href="https://github.com/swhitty/SwiftDraw">
                <text fill="#505050" text-anchor="end" x="785.0" y="590.0">https://github.com/swhitty/SwiftDraw</text>
            </a>
        </g>
    </g>
    <g id="Guides" stroke="rgb(39, 170, 225)" stroke-width="0.5">
        <path id="Capline-S" d="M18,76 l800,0" />
        <path id="H-reference" d="M85,145.755 L87.685,145.755 L113.369,79.287 L114.052,79.287 L114.052,76 L112.148,76 L85,145.755 Z M95.693,121.536 L130.996,121.536 L130.263,119.313 L96.474,119.313 L95.693,121.536 Z M139.15,145.755 L141.787,145.755 L114.638,76 L113.466,76 L113.466,79.287 L139.15,145.755 Z" stroke="none" />
        <path id="Baseline-S" d="M18,146 l800,0" />
        <path id="left-margin-Ultralight-S" d="M220,56 l0,110" />
        <path id="right-margin-Ultralight-S" d="M310,56 l0,110" />
        <path id="left-margin-Regular-S" d="M420,56 l0,110" />
        <path id="right-margin-Regular-S" d="M510,56 l0,110" />
        <path id="left-margin-Black-S" d="M620,56 l0,110" />
        <path id="right-margin-Black-S" d="M710,56 l0,110" />
        <path id="Capline-M" d="M18,276 l800,0" />
        <path id="Baseline-M" d="M18,346 l800,0" />
        <path id="Capline-L" d="M18,476 l800,0" />
        <path id="Baseline-L" d="M18,546 l800,0" />
    </g>
    <g id="Symbols">
        <g id="Ultralight-S">
            <path d="M265,81.385 C257.626,81.381 250.928,85.679 247.857,92.383 C244.786,99.087 245.908,106.966 250.726,112.547 C255.545,118.128 263.177,120.387 270.257,118.326 L259.952,136.6 C259.222,137.919 259.695,139.562 261,140.285 C262.305,141.007 263.949,140.534 264.671,139.229 L281.346,109.614 C284.695,103.781 284.681,96.607 281.311,90.787 C277.941,84.967 271.725,81.384 265,81.385 Z M265,113.692 C257.565,113.692 251.538,107.665 251.538,100.231 C251.538,92.796 257.565,86.769 265,86.769 C272.435,86.769 278.462,92.796 278.462,100.231 C278.462,103.801 277.043,107.225 274.519,109.75 C271.994,112.274 268.57,113.692 265,113.692 Z" />
        </g>
        <g id="Regular-S">
            <path d="M465,81.385 C457.626,81.381 450.928,85.679 447.857,92.383 C444.786,99.087 445.908,106.966 450.726,112.547 C455.545,118.128 463.177,120.387 470.257,118.326 L459.952,136.6 C459.222,137.919 459.695,139.562 461,140.285 C462.305,141.007 463.949,140.534 464.671,139.229 L481.346,109.614 C484.695,103.781 484.681,96.607 481.311,90.787 C477.941,84.967 471.725,81.384 465,81.385 Z M465,113.692 C457.565,113.692 451.538,107.665 451.538,100.231 C451.538,92.796 457.565,86.769 465,86.769 C472.435,86.769 478.462,92.796 478.462,100.231 C478.462,103.801 477.043,107.225 474.519,109.75 C471.994,112.274 468.57,113.692 465,113.692 Z" />
        </g>
        <g id="Black-S">
            <path d="M665,81.385 C657.626,81.381 650.928,85.679 647.857,92.383 C644.786,99.087 645.908,106.966 650.726,112.547 C655.545,118.128 663.177,120.387 670.257,118.326 L659.952,136.6 C659.222,137.919 659.695,139.562 661,140.285 C662.305,141.007 663.949,140.534 664.671,139.229 L681.346,109.614 C684.695,103.781 684.681,96.607 681.311,90.787 C677.941,84.967 671.725,81.384 665,81.385 Z M665,113.692 C657.565,113.692 651.538,107.665 651.538,100.231 C651.538,92.796 657.565,86.769 665,86.769 C672.435,86.769 678.462,92.796 678.462,100.231 C678.462,103.801 677.043,107.225 674.519,109.75 C671.994,112.274 668.57,113.692 665,113.692 Z" />
        </g>
    </g>
</svg>