<?xml version="1.0" encoding="UTF-8"?>
<svg height="600" width="800" xmlns="http://www.w3.org/2000/svg" xmlns:xlink="http://www.w3.org/1999/xlink">
    <g id="Notes" font-family="'LucidaGrande', 'Lucida Grande', sans-serif" font-size="13">
        <rect fill="white" height="600.0" width="800.0" x="0.0" y="0.0" />
        <g font-size="13">
            <text x="18.0" y="176.0">Small</text>
            <text x="18.0" y="376.0">Medium</text>
            <text x="18.0" y="576.0">Large</text>
        </g>
        <g font-size="9">
            <text x="250.0" y="30.0">Ultralight</text>
            <text x="450.0" y="30.0">Regular</text>
            <text x="650.0" y="30.0">Black</text>
            <text id="template-version" fill="#505050" text-anchor="end" x="785.0" y="575.0">Template v.3.0</text>
            <a href="https://github.com/swhitty/SwiftDraw">
                <text fill="#505050" text-anchor="end" x="785.0" y="590.0">https://github.com/swhitty/SwiftDraw</text>
            </a>
        </g>
    </g>
    <g id="Guides" stroke="rgb(39, 170, 225)" stroke-width="0.5">
        <path id="Capline-S" d="M18,76 l800,0" />
        <path id="H-reference" d="M85,145.755 L87.685,145.755 L113.369,79.287 L114.052,79.287 L114.052,76 L112.148,76 L85,145.755 Z M95.693,121.536 L130.996,121.536 L130.263,119.313 L96.474,119.313 L95.693,121.536 Z M139.15,145.755 L141.787,145.755 L114.638,76 L113.466,76 L113.466,79.287 L139.15,145.755 Z" stroke="none" />
        <path id="Baseline-S" d="M18,146 l800,0" />
        <path id="left-margin-Ultralight-S" d="M220,56 l0,110" />
        <path id="right-margin-Ultralight-S" d="M310,56 l0,110" />
        <path id="left-margin-Regular-S" d="M420,56 l0,110" />
        <path id="right-margin-Regular-S" d="M510,56 l0,110" />
        <path id="left-margin-Black-S" d="M620,56 l0,110" />
        <path id="right-margin-Black-S" d="M710,56 l0,110" />
        <path id="Capline-M" d="M18,276 l800,0" />
        <path id="Baseline-M" d="M18,346 l800,0" />
        <path id="Capline-L" d="M18,476 l800,0" />
        <path id="Baseline-L" d="M18,546 l800,0" />
    </g>
    <g id="Symbols">
        <g id="Ultralight-S">
            <path d="M307.939,131.687 C307.713,131.01 307.227,130.45 306.589,130.13 C305.95,129.811 305.211,129.758 304.533,129.984 L298.671,131.939 L288.945,112.488 C288.489,111.576 287.557,111.001 286.538,111 L259.615,111 L259.615,102.923 L278.462,102.923 C279.948,102.923 281.154,101.718 281.154,100.231 C281.154,98.744 279.948,97.538 278.462,97.538 L259.615,97.538 L259.615,94.51 C264.866,93.154 268.29,88.105 267.606,82.725 C266.923,77.346 262.346,73.313 256.923,73.313 C251.5,73.313 246.923,77.346 246.24,82.725 C245.556,88.105 248.98,93.154 254.231,94.51 L254.231,98.148 C242.212,100.895 234.172,112.228 235.551,124.479 C236.929,136.73 247.287,145.993 259.615,146 C270.896,146 281.05,138.357 283.762,127.827 C284.132,126.381 283.263,124.913 281.822,124.544 C280.381,124.175 278.913,125.045 278.544,126.486 C276.473,134.558 268.335,140.615 259.615,140.615 C250.26,140.612 242.324,133.747 240.973,124.49 C239.622,115.233 245.267,106.387 254.231,103.711 L254.231,113.692 C254.231,114.406 254.514,115.091 255.019,115.596 C255.524,116.101 256.209,116.385 256.923,116.385 L284.873,116.385 L294.898,136.436 C295.499,137.633 296.889,138.207 298.159,137.782 L306.236,135.089 C307.645,134.619 308.407,133.097 307.939,131.687 Z M251.538,84.077 C251.538,81.103 253.949,78.692 256.923,78.692 C259.897,78.692 262.308,81.103 262.308,84.077 C262.308,87.051 259.897,89.462 256.923,89.462 C255.495,89.462 254.125,88.894 253.116,87.884 C252.106,86.875 251.538,85.505 251.538,84.077 Z" />
        </g>
        <g id="Regular-S">
            <path d="M507.939,131.687 C507.713,131.01 507.227,130.45 506.589,130.13 C505.95,129.811 505.211,129.758 504.533,129.984 L498.671,131.939 L488.945,112.488 C488.489,111.576 487.557,111.001 486.538,111 L459.615,111 L459.615,102.923 L478.462,102.923 C479.948,102.923 481.154,101.718 481.154,100.231 C481.154,98.744 479.948,97.538 478.462,97.538 L459.615,97.538 L459.615,94.51 C464.866,93.154 468.29,88.105 467.606,82.725 C466.923,77.346 462.346,73.313 456.923,73.313 C451.5,73.313 446.923,77.346 446.24,82.725 C445.556,88.105 448.98,93.154 454.231,94.51 L454.231,98.148 C442.212,100.895 434.172,112.228 435.551,124.479 C436.929,136.73 447.287,145.993 459.615,146 C470.896,146 481.049,138.357 483.762,127.827 C484.132,126.381 483.263,124.913 481.822,124.544 C480.381,124.175 478.913,125.045 478.544,126.486 C476.473,134.558 468.335,140.615 459.615,140.615 C450.26,140.612 442.324,133.747 440.973,124.49 C439.622,115.233 445.267,106.387 454.231,103.711 L454.231,113.692 C454.231,114.406 454.514,115.091 455.019,115.596 C455.524,116.101 456.209,116.385 456.923,116.385 L484.873,116.385 L494.898,136.436 C495.499,137.633 496.889,138.207 498.159,137.782 L506.236,135.089 C507.645,134.619 508.407,133.097 507.939,131.687 Z M451.538,84.077 C451.538,81.103 453.949,78.692 456.923,78.692 C459.897,78.692 462.308,81.103 462.308,84.077 C462.308,87.051 459.897,89.462 456.923,89.462 C455.495,89.462 454.125,88.894 453.116,87.884 C452.106,86.875 451.538,85.505 451.538,84.077 Z" />
        </g>
        <g id="Black-S">
            <path d="M707.939,131.687 C707.713,131.01 707.228,130.45 706.589,130.13 C705.95,129.811 705.211,129.758 704.533,129.984 L698.671,131.939 L688.945,112.488 C688.489,111.576 687.557,111.001 686.538,111 L659.615,111 L659.615,102.923 L678.462,102.923 C679.948,102.923 681.154,101.718 681.154,100.231 C681.154,98.744 679.948,97.538 678.462,97.538 L659.615,97.538 L659.615,94.51 C664.866,93.154 668.29,88.105 667.607,82.725 C666.923,77.346 662.346,73.313 656.923,73.313 C651.5,73.313 646.923,77.346 646.24,82.725 C645.556,88.105 648.98,93.154 654.231,94.51 L654.231,98.148 C642.212,100.895 634.172,112.228 635.551,124.479 C636.929,136.73 647.287,145.993 659.615,146 C670.896,146 681.05,138.357 683.762,127.827 C684.132,126.381 683.263,124.913 681.822,124.544 C680.381,124.175 678.913,125.045 678.544,126.486 C676.473,134.558 668.335,140.615 659.615,140.615 C650.26,140.612 642.324,133.747 640.973,124.49 C639.622,115.233 645.267,106.387 654.231,103.711 L654.231,113.692 C654.231,114.406 654.514,115.091 655.019,115.596 C655.524,116.101 656.209,116.385 656.923,116.385 L684.873,116.385 L694.898,136.436 C695.499,137.633 696.889,138.207 698.159,137.782 L706.236,135.089 C707.645,134.619 708.407,133.097 707.939,131.687 Z M651.538,84.077 C651.538,81.103 653.949,78.692 656.923,78.692 C659.897,78.692 662.308,81.103 662.308,84.077 C662.308,87.051 659.897,89.462 656.923,89.462 C655.495,89.462 654.125,88.894 653.116,87.884 C652.106,86.875 651.538,85.505 651.538,84.077 Z" />
        </g>
    </g>
</svg>