<?xml version="1.0" encoding="UTF-8"?>
<svg height="600" width="800" xmlns="http://www.w3.org/2000/svg" xmlns:xlink="http://www.w3.org/1999/xlink">
    <g id="Notes" font-family="'LucidaGrande', 'Lucida Grande', sans-serif" font-size="13">
        <rect fill="white" height="600.0" width="800.0" x="0.0" y="0.0" />
        <g font-size="13">
            <text x="18.0" y="176.0">Small</text>
            <text x="18.0" y="376.0">Medium</text>
            <text x="18.0" y="576.0">Large</text>
        </g>
        <g font-size="9">
            <text x="250.0" y="30.0">Ultralight</text>
            <text x="450.0" y="30.0">Regular</text>
            <text x="650.0" y="30.0">Black</text>
            <text id="template-version" fill="#505050" text-anchor="end" x="785.0" y="575.0">Template v.3.0</text>
            <a href="https://github.com/swhitty/SwiftDraw">
                <text fill="#505050" text-anchor="end" x="785.0" y="590.0">https://github.com/swhitty/SwiftDraw</text>
            </a>
        </g>
    </g>
    <g id="Guides" stroke="rgb(39, 170, 225)" stroke-width="0.5">
        <path id="Capline-S" d="M18,76 l800,0" />
        <path id="H-reference" d="M85,145.755 L87.685,145.755 L113.369,79.287 L114.052,79.287 L114.052,76 L112.148,76 L85,145.755 Z M95.693,121.536 L130.996,121.536 L130.263,119.313 L96.474,119.313 L95.693,121.536 Z M139.15,145.755 L141.787,145.755 L114.638,76 L113.466,76 L113.466,79.287 L139.15,145.755 Z" stroke="none" />
        <path id="Baseline-S" d="M18,146 l800,0" />
        <path id="left-margin-Ultralight-S" d="M220,56 l0,110" />
        <path id="right-margin-Ultralight-S" d="M310,56 l0,110" />
        <path id="left-margin-Regular-S" d="M420,56 l0,110" />
        <path id="right-margin-Regular-S" d="M510,56 l0,110" />
        <path id="left-margin-Black-S" d="M620,56 l0,110" />
        <path id="right-margin-Black-S" d="M710,56 l0,110" />
        <path id="Capline-M" d="M18,276 l800,0" />
        <path id="Baseline-M" d="M18,346 l800,0" />
        <path id="Capline-L" d="M18,476 l800,0" />
        <path id="Baseline-L" d="M18,546 l800,0" />
    </g>
    <g id="Symbols">
        <g id="Ultralight-S">
            <path d="M291.923,78.692 L238.077,78.692 C236.649,78.692 235.279,79.26 234.269,80.269 C233.26,81.279 232.692,82.649 232.692,84.077 L232.692,137.923 C232.692,139.351 233.26,140.721 234.269,141.731 C235.279,142.74 236.649,143.308 238.077,143.308 L291.923,143.308 C293.351,143.308 294.721,142.74 295.731,141.731 C296.74,140.721 297.308,139.351 297.308,137.923 L297.308,84.077 C297.308,82.649 296.74,81.279 295.731,80.269 C294.721,79.26 293.351,78.692 291.923,78.692 Z M287.652,108.308 L267.692,88.348 L267.692,84.077 L271.963,84.077 L291.923,104.04 L291.923,108.308 Z M267.692,95.96 L280.04,108.308 L267.692,108.308 Z M291.923,96.425 L279.576,84.077 L291.923,84.077 Z M262.308,84.077 L262.308,108.308 L238.077,108.308 L238.077,84.077 Z M258.037,137.923 L238.077,117.963 L238.077,113.692 L242.348,113.692 L262.308,133.652 L262.308,137.923 Z M262.308,126.04 L249.96,113.692 L262.308,113.692 Z M238.077,125.575 L250.425,137.923 L238.077,137.923 Z M291.923,137.923 L267.692,137.923 L267.692,113.692 L291.923,113.692 L291.923,137.923 Z" />
        </g>
        <g id="Regular-S">
            <path d="M491.923,78.692 L438.077,78.692 C436.649,78.692 435.279,79.26 434.269,80.269 C433.26,81.279 432.692,82.649 432.692,84.077 L432.692,137.923 C432.692,139.351 433.26,140.721 434.269,141.731 C435.279,142.74 436.649,143.308 438.077,143.308 L491.923,143.308 C493.351,143.308 494.721,142.74 495.731,141.731 C496.74,140.721 497.308,139.351 497.308,137.923 L497.308,84.077 C497.308,82.649 496.74,81.279 495.731,80.269 C494.721,79.26 493.351,78.692 491.923,78.692 Z M487.652,108.308 L467.692,88.348 L467.692,84.077 L471.963,84.077 L491.923,104.04 L491.923,108.308 Z M467.692,95.96 L480.04,108.308 L467.692,108.308 Z M491.923,96.425 L479.575,84.077 L491.923,84.077 Z M462.308,84.077 L462.308,108.308 L438.077,108.308 L438.077,84.077 Z M458.037,137.923 L438.077,117.963 L438.077,113.692 L442.348,113.692 L462.308,133.652 L462.308,137.923 Z M462.308,126.04 L449.96,113.692 L462.308,113.692 Z M438.077,125.575 L450.424,137.923 L438.077,137.923 Z M491.923,137.923 L467.692,137.923 L467.692,113.692 L491.923,113.692 L491.923,137.923 Z" />
        </g>
        <g id="Black-S">
            <path d="M691.923,78.692 L638.077,78.692 C636.649,78.692 635.279,79.26 634.269,80.269 C633.26,81.279 632.692,82.649 632.692,84.077 L632.692,137.923 C632.692,139.351 633.26,140.721 634.269,141.731 C635.279,142.74 636.649,143.308 638.077,143.308 L691.923,143.308 C693.351,143.308 694.721,142.74 695.731,141.731 C696.74,140.721 697.308,139.351 697.308,137.923 L697.308,84.077 C697.308,82.649 696.74,81.279 695.731,80.269 C694.721,79.26 693.351,78.692 691.923,78.692 Z M687.652,108.308 L667.692,88.348 L667.692,84.077 L671.963,84.077 L691.923,104.04 L691.923,108.308 Z M667.692,95.96 L680.04,108.308 L667.692,108.308 Z M691.923,96.425 L679.576,84.077 L691.923,84.077 Z M662.308,84.077 L662.308,108.308 L638.077,108.308 L638.077,84.077 Z M658.037,137.923 L638.077,117.963 L638.077,113.692 L642.348,113.692 L662.308,133.652 L662.308,137.923 Z M662.308,126.04 L649.96,113.692 L662.308,113.692 Z M638.077,125.575 L650.425,137.923 L638.077,137.923 Z M691.923,137.923 L667.692,137.923 L667.692,113.692 L691.923,113.692 L691.923,137.923 Z" />
        </g>
    </g>
</svg>