<?xml version="1.0" encoding="UTF-8"?>
<svg height="600" width="800" xmlns="http://www.w3.org/2000/svg" xmlns:xlink="http://www.w3.org/1999/xlink">
    <g id="Notes" font-family="'LucidaGrande', 'Lucida Grande', sans-serif" font-size="13">
        <rect fill="white" height="600.0" width="800.0" x="0.0" y="0.0" />
        <g font-size="13">
            <text x="18.0" y="176.0">Small</text>
            <text x="18.0" y="376.0">Medium</text>
            <text x="18.0" y="576.0">Large</text>
        </g>
        <g font-size="9">
            <text x="250.0" y="30.0">Ultralight</text>
            <text x="450.0" y="30.0">Regular</text>
            <text x="650.0" y="30.0">Black</text>
            <text id="template-version" fill="#505050" text-anchor="end" x="785.0" y="575.0">Template v.3.0</text>
            <a href="https://github.com/swhitty/SwiftDraw">
                <text fill="#505050" text-anchor="end" x="785.0" y="590.0">https://github.com/swhitty/SwiftDraw</text>
            </a>
        </g>
    </g>
    <g id="Guides" stroke="rgb(39, 170, 225)" stroke-width="0.5">
        <path id="Capline-S" d="M18,76 l800,0" />
        <path id="H-reference" d="M85,145.755 L87.685,145.755 L113.369,79.287 L114.052,79.287 L114.052,76 L112.148,76 L85,145.755 Z M95.693,121.536 L130.996,121.536 L130.263,119.313 L96.474,119.313 L95.693,121.536 Z M139.15,145.755 L141.787,145.755 L114.638,76 L113.466,76 L113.466,79.287 L139.15,145.755 Z" stroke="none" />
        <path id="Baseline-S" d="M18,146 l800,0" />
        <path id="left-margin-Ultralight-S" d="M220,56 l0,110" />
        <path id="right-margin-Ultralight-S" d="M310,56 l0,110" />
        <path id="left-margin-Regular-S" d="M420,56 l0,110" />
        <path id="right-margin-Regular-S" d="M510,56 l0,110" />
        <path id="left-margin-Black-S" d="M620,56 l0,110" />
        <path id="right-margin-Black-S" d="M710,56 l0,110" />
        <path id="Capline-M" d="M18,276 l800,0" />
        <path id="Baseline-M" d="M18,346 l800,0" />
        <path id="Capline-L" d="M18,476 l800,0" />
        <path id="Baseline-L" d="M18,546 l800,0" />
    </g>
    <g id="Symbols">
        <g id="Ultralight-S">
            <path d="M265,97.538 C270.948,97.538 275.769,92.717 275.769,86.769 C275.769,80.822 270.948,76 265,76 C259.052,76 254.231,80.822 254.231,86.769 C254.231,89.625 255.365,92.365 257.385,94.384 C259.405,96.404 262.144,97.538 265,97.538 Z M265,81.385 C267.974,81.385 270.385,83.795 270.385,86.769 C270.385,89.743 267.974,92.154 265,92.154 C262.026,92.154 259.615,89.743 259.615,86.769 C259.615,85.341 260.183,83.972 261.193,82.962 C262.202,81.952 263.572,81.385 265,81.385 Z M238.077,100.231 C238.077,97.257 240.488,94.846 243.462,94.846 C246.435,94.846 248.846,97.257 248.846,100.231 C248.846,103.205 246.435,105.615 243.462,105.615 C242.033,105.615 240.664,105.048 239.654,104.038 C238.644,103.028 238.077,101.659 238.077,100.231 Z M296.715,105.148 C295.788,106.309 294.094,106.499 292.933,105.572 C292.546,105.272 284.953,99.615 272.969,105.777 C272.875,109.201 272.538,112.614 271.96,115.991 L282.874,125.077 C283.726,125.787 284.056,126.947 283.705,127.999 L278.32,144.152 C277.85,145.563 276.326,146.325 274.915,145.855 C273.504,145.385 272.741,143.861 273.211,142.45 L278.014,128.039 L270.583,121.847 C270.098,123.484 269.525,125.094 268.867,126.67 C264.239,137.688 255.95,145.055 244.232,148.572 C242.822,148.96 241.36,148.151 240.939,146.75 C240.519,145.349 241.293,143.869 242.684,143.416 C263.105,137.288 266.625,119.111 267.393,109.207 C258.269,114.998 251.057,116.385 246.275,116.385 C244.022,116.392 241.784,116.02 239.655,115.284 C238.481,114.771 237.831,113.501 238.102,112.249 C238.372,110.996 239.488,110.108 240.769,110.125 C241.154,110.124 241.534,110.208 241.883,110.371 C242.232,110.533 250.889,113.965 266.178,103.573 C283.775,91.612 295.793,100.958 296.301,101.362 C296.859,101.809 297.215,102.459 297.293,103.169 C297.37,103.879 297.163,104.591 296.715,105.148 Z" />
        </g>
        <g id="Regular-S">
            <path d="M465,97.538 C470.948,97.538 475.769,92.717 475.769,86.769 C475.769,80.822 470.948,76 465,76 C459.052,76 454.231,80.822 454.231,86.769 C454.231,89.625 455.365,92.365 457.385,94.384 C459.405,96.404 462.144,97.538 465,97.538 Z M465,81.385 C467.974,81.385 470.385,83.795 470.385,86.769 C470.385,89.743 467.974,92.154 465,92.154 C462.026,92.154 459.615,89.743 459.615,86.769 C459.615,85.341 460.183,83.972 461.193,82.962 C462.202,81.952 463.572,81.385 465,81.385 Z M438.077,100.231 C438.077,97.257 440.488,94.846 443.462,94.846 C446.435,94.846 448.846,97.257 448.846,100.231 C448.846,103.205 446.435,105.615 443.462,105.615 C442.033,105.615 440.664,105.048 439.654,104.038 C438.644,103.028 438.077,101.659 438.077,100.231 Z M496.715,105.148 C495.788,106.309 494.094,106.499 492.933,105.572 C492.546,105.272 484.953,99.615 472.969,105.777 C472.875,109.201 472.538,112.614 471.96,115.991 L482.874,125.077 C483.726,125.787 484.056,126.947 483.705,127.999 L478.32,144.152 C477.85,145.563 476.326,146.325 474.915,145.855 C473.504,145.385 472.741,143.861 473.211,142.45 L478.014,128.039 L470.583,121.847 C470.098,123.484 469.525,125.094 468.867,126.67 C464.239,137.688 455.95,145.055 444.232,148.572 C442.822,148.96 441.36,148.151 440.939,146.75 C440.519,145.349 441.293,143.869 442.684,143.416 C463.105,137.288 466.625,119.111 467.393,109.207 C458.269,114.998 451.057,116.385 446.275,116.385 C444.022,116.392 441.784,116.02 439.655,115.284 C438.481,114.771 437.831,113.501 438.102,112.249 C438.372,110.996 439.488,110.108 440.769,110.125 C441.154,110.124 441.534,110.208 441.883,110.371 C442.232,110.533 450.889,113.965 466.178,103.573 C483.775,91.612 495.793,100.958 496.301,101.362 C496.859,101.809 497.215,102.459 497.293,103.169 C497.37,103.879 497.163,104.591 496.715,105.148 Z" />
        </g>
        <g id="Black-S">
            <path d="M665,97.538 C670.948,97.538 675.769,92.717 675.769,86.769 C675.769,80.822 670.948,76 665,76 C659.052,76 654.231,80.822 654.231,86.769 C654.231,89.625 655.365,92.365 657.385,94.384 C659.405,96.404 662.144,97.538 665,97.538 Z M665,81.385 C667.974,81.385 670.385,83.795 670.385,86.769 C670.385,89.743 667.974,92.154 665,92.154 C662.026,92.154 659.615,89.743 659.615,86.769 C659.615,85.341 660.183,83.972 661.193,82.962 C662.202,81.952 663.572,81.385 665,81.385 Z M638.077,100.231 C638.077,97.257 640.488,94.846 643.462,94.846 C646.435,94.846 648.846,97.257 648.846,100.231 C648.846,103.205 646.435,105.615 643.462,105.615 C642.033,105.615 640.664,105.048 639.654,104.038 C638.644,103.028 638.077,101.659 638.077,100.231 Z M696.715,105.148 C695.788,106.309 694.094,106.499 692.933,105.572 C692.546,105.272 684.953,99.615 672.969,105.777 C672.875,109.201 672.538,112.614 671.96,115.991 L682.874,125.077 C683.726,125.787 684.056,126.947 683.705,127.999 L678.32,144.152 C677.85,145.563 676.326,146.325 674.915,145.855 C673.504,145.385 672.741,143.861 673.211,142.45 L678.014,128.039 L670.583,121.847 C670.098,123.484 669.525,125.094 668.867,126.67 C664.239,137.688 655.95,145.055 644.232,148.572 C642.822,148.96 641.36,148.151 640.939,146.75 C640.519,145.349 641.293,143.869 642.684,143.416 C663.105,137.288 666.625,119.111 667.393,109.207 C658.269,114.998 651.057,116.385 646.275,116.385 C644.022,116.392 641.784,116.02 639.655,115.284 C638.481,114.771 637.831,113.501 638.102,112.249 C638.372,110.996 639.488,110.108 640.769,110.125 C641.154,110.124 641.534,110.208 641.883,110.371 C642.232,110.533 650.889,113.965 666.178,103.573 C683.776,91.612 695.793,100.958 696.301,101.362 C696.859,101.809 697.215,102.459 697.293,103.169 C697.37,103.879 697.163,104.591 696.715,105.148 Z" />
        </g>
    </g>
</svg>