<?xml version="1.0" encoding="UTF-8"?>
<svg height="600" width="800" xmlns="http://www.w3.org/2000/svg" xmlns:xlink="http://www.w3.org/1999/xlink">
    <g id="Notes" font-family="'LucidaGrande', 'Lucida Grande', sans-serif" font-size="13">
        <rect fill="white" height="600.0" width="800.0" x="0.0" y="0.0" />
        <g font-size="13">
            <text x="18.0" y="176.0">Small</text>
            <text x="18.0" y="376.0">Medium</text>
            <text x="18.0" y="576.0">Large</text>
        </g>
        <g font-size="9">
            <text x="250.0" y="30.0">Ultralight</text>
            <text x="450.0" y="30.0">Regular</text>
            <text x="650.0" y="30.0">Black</text>
            <text id="template-version" fill="#505050" text-anchor="end" x="785.0" y="575.0">Template v.3.0</text>
            <a href="https://github.com/swhitty/SwiftDraw">
                <text fill="#505050" text-anchor="end" x="785.0" y="590.0">https://github.com/swhitty/SwiftDraw</text>
            </a>
        </g>
    </g>
    <g id="Guides" stroke="rgb(39, 170, 225)" stroke-width="0.5">
        <path id="Capline-S" d="M18,76 l800,0" />
        <path id="H-reference" d="M85,145.755 L87.685,145.755 L113.369,79.287 L114.052,79.287 L114.052,76 L112.148,76 L85,145.755 Z M95.693,121.536 L130.996,121.536 L130.263,119.313 L96.474,119.313 L95.693,121.536 Z M139.15,145.755 L141.787,145.755 L114.638,76 L113.466,76 L113.466,79.287 L139.15,145.755 Z" stroke="none" />
        <path id="Baseline-S" d="M18,146 l800,0" />
        <path id="left-margin-Ultralight-S" d="M220,56 l0,110" />
        <path id="right-margin-Ultralight-S" d="M310,56 l0,110" />
        <path id="left-margin-Regular-S" d="M420,56 l0,110" />
        <path id="right-margin-Regular-S" d="M510,56 l0,110" />
        <path id="left-margin-Black-S" d="M620,56 l0,110" />
        <path id="right-margin-Black-S" d="M710,56 l0,110" />
        <path id="Capline-M" d="M18,276 l800,0" />
        <path id="Baseline-M" d="M18,346 l800,0" />
        <path id="Capline-L" d="M18,476 l800,0" />
        <path id="Baseline-L" d="M18,546 l800,0" />
    </g>
    <g id="Symbols">
        <g id="Ultralight-S">
            <path d="M297.308,140.615 C297.308,141.329 297.024,142.014 296.519,142.519 C296.014,143.024 295.329,143.308 294.615,143.308 L235.385,143.308 C233.898,143.308 232.692,142.102 232.692,140.615 C232.692,139.128 233.898,137.923 235.385,137.923 L294.615,137.923 C295.329,137.923 296.014,138.207 296.519,138.712 C297.024,139.217 297.308,139.901 297.308,140.615 Z M267.692,127.154 L267.692,94.846 C267.692,93.418 268.26,92.048 269.269,91.039 C270.279,90.029 271.649,89.462 273.077,89.462 L286.538,89.462 C287.967,89.462 289.336,90.029 290.346,91.039 C291.356,92.048 291.923,93.418 291.923,94.846 L291.923,127.154 C291.923,128.582 291.356,129.952 290.346,130.961 C289.336,131.971 287.967,132.538 286.538,132.538 L273.077,132.538 C271.649,132.538 270.279,131.971 269.269,130.961 C268.26,129.952 267.692,128.582 267.692,127.154 Z M273.077,127.154 L286.538,127.154 L286.538,94.846 L273.077,94.846 Z M238.077,127.154 L238.077,81.385 C238.077,79.957 238.644,78.587 239.654,77.577 C240.664,76.567 242.033,76 243.462,76 L256.923,76 C258.351,76 259.721,76.567 260.731,77.577 C261.74,78.587 262.308,79.957 262.308,81.385 L262.308,127.154 C262.308,128.582 261.74,129.952 260.731,130.961 C259.721,131.971 258.351,132.538 256.923,132.538 L243.462,132.538 C242.033,132.538 240.664,131.971 239.654,130.961 C238.644,129.952 238.077,128.582 238.077,127.154 Z M243.462,127.154 L256.923,127.154 L256.923,81.385 L243.462,81.385 Z" />
        </g>
        <g id="Regular-S">
            <path d="M497.308,140.615 C497.308,141.329 497.024,142.014 496.519,142.519 C496.014,143.024 495.329,143.308 494.615,143.308 L435.385,143.308 C433.898,143.308 432.692,142.102 432.692,140.615 C432.692,139.128 433.898,137.923 435.385,137.923 L494.615,137.923 C495.329,137.923 496.014,138.207 496.519,138.712 C497.024,139.217 497.308,139.901 497.308,140.615 Z M467.692,127.154 L467.692,94.846 C467.692,93.418 468.26,92.048 469.269,91.039 C470.279,90.029 471.649,89.462 473.077,89.462 L486.538,89.462 C487.967,89.462 489.336,90.029 490.346,91.039 C491.356,92.048 491.923,93.418 491.923,94.846 L491.923,127.154 C491.923,128.582 491.356,129.952 490.346,130.961 C489.336,131.971 487.967,132.538 486.538,132.538 L473.077,132.538 C471.649,132.538 470.279,131.971 469.269,130.961 C468.26,129.952 467.692,128.582 467.692,127.154 Z M473.077,127.154 L486.538,127.154 L486.538,94.846 L473.077,94.846 Z M438.077,127.154 L438.077,81.385 C438.077,79.957 438.644,78.587 439.654,77.577 C440.664,76.567 442.033,76 443.462,76 L456.923,76 C458.351,76 459.721,76.567 460.731,77.577 C461.74,78.587 462.308,79.957 462.308,81.385 L462.308,127.154 C462.308,128.582 461.74,129.952 460.731,130.961 C459.721,131.971 458.351,132.538 456.923,132.538 L443.462,132.538 C442.033,132.538 440.664,131.971 439.654,130.961 C438.644,129.952 438.077,128.582 438.077,127.154 Z M443.462,127.154 L456.923,127.154 L456.923,81.385 L443.462,81.385 Z" />
        </g>
        <g id="Black-S">
            <path d="M697.308,140.615 C697.308,141.329 697.024,142.014 696.519,142.519 C696.014,143.024 695.329,143.308 694.615,143.308 L635.385,143.308 C633.898,143.308 632.692,142.102 632.692,140.615 C632.692,139.128 633.898,137.923 635.385,137.923 L694.615,137.923 C695.329,137.923 696.014,138.207 696.519,138.712 C697.024,139.217 697.308,139.901 697.308,140.615 Z M667.692,127.154 L667.692,94.846 C667.692,93.418 668.26,92.048 669.269,91.039 C670.279,90.029 671.649,89.462 673.077,89.462 L686.538,89.462 C687.967,89.462 689.336,90.029 690.346,91.039 C691.356,92.048 691.923,93.418 691.923,94.846 L691.923,127.154 C691.923,128.582 691.356,129.952 690.346,130.961 C689.336,131.971 687.967,132.538 686.538,132.538 L673.077,132.538 C671.649,132.538 670.279,131.971 669.269,130.961 C668.26,129.952 667.692,128.582 667.692,127.154 Z M673.077,127.154 L686.538,127.154 L686.538,94.846 L673.077,94.846 Z M638.077,127.154 L638.077,81.385 C638.077,79.957 638.644,78.587 639.654,77.577 C640.664,76.567 642.033,76 643.462,76 L656.923,76 C658.351,76 659.721,76.567 660.731,77.577 C661.74,78.587 662.308,79.957 662.308,81.385 L662.308,127.154 C662.308,128.582 661.74,129.952 660.731,130.961 C659.721,131.971 658.351,132.538 656.923,132.538 L643.462,132.538 C642.033,132.538 640.664,131.971 639.654,130.961 C638.644,129.952 638.077,128.582 638.077,127.154 Z M643.462,127.154 L656.923,127.154 L656.923,81.385 L643.462,81.385 Z" />
        </g>
    </g>
</svg>