<?xml version="1.0" encoding="UTF-8"?>
<svg height="600" width="800" xmlns="http://www.w3.org/2000/svg" xmlns:xlink="http://www.w3.org/1999/xlink">
    <g id="Notes" font-family="'LucidaGrande', 'Lucida Grande', sans-serif" font-size="13">
        <rect fill="white" height="600.0" width="800.0" x="0.0" y="0.0" />
        <g font-size="13">
            <text x="18.0" y="176.0">Small</text>
            <text x="18.0" y="376.0">Medium</text>
            <text x="18.0" y="576.0">Large</text>
        </g>
        <g font-size="9">
            <text x="250.0" y="30.0">Ultralight</text>
            <text x="450.0" y="30.0">Regular</text>
            <text x="650.0" y="30.0">Black</text>
            <text id="template-version" fill="#505050" text-anchor="end" x="785.0" y="575.0">Template v.3.0</text>
            <a href="https://github.com/swhitty/SwiftDraw">
                <text fill="#505050" text-anchor="end" x="785.0" y="590.0">https://github.com/swhitty/SwiftDraw</text>
            </a>
        </g>
    </g>
    <g id="Guides" stroke="rgb(39, 170, 225)" stroke-width="0.5">
        <path id="Capline-S" d="M18,76 l800,0" />
        <path id="H-reference" d="M85,145.755 L87.685,145.755 L113.369,79.287 L114.052,79.287 L114.052,76 L112.148,76 L85,145.755 Z M95.693,121.536 L130.996,121.536 L130.263,119.313 L96.474,119.313 L95.693,121.536 Z M139.15,145.755 L141.787,145.755 L114.638,76 L113.466,76 L113.466,79.287 L139.15,145.755 Z" stroke="none" />
        <path id="Baseline-S" d="M18,146 l800,0" />
        <path id="left-margin-Ultralight-S" d="M220,56 l0,110" />
        <path id="right-margin-Ultralight-S" d="M310,56 l0,110" />
        <path id="left-margin-Regular-S" d="M420,56 l0,110" />
        <path id="right-margin-Regular-S" d="M510,56 l0,110" />
        <path id="left-margin-Black-S" d="M620,56 l0,110" />
        <path id="right-margin-Black-S" d="M710,56 l0,110" />
        <path id="Capline-M" d="M18,276 l800,0" />
        <path id="Baseline-M" d="M18,346 l800,0" />
        <path id="Capline-L" d="M18,476 l800,0" />
        <path id="Baseline-L" d="M18,546 l800,0" />
    </g>
    <g id="Symbols">
        <g id="Ultralight-S">
            <path d="M265,76 C245.67,76 230,91.67 230,111 C230,130.33 245.67,146 265,146 C284.33,146 300,130.33 300,111 C299.979,91.677 284.32,76.02 264.999,76 Z M265,140.615 C248.644,140.615 235.385,127.356 235.385,111 C235.385,94.644 248.644,81.385 265,81.385 C281.356,81.385 294.615,94.644 294.615,111 C294.598,127.347 281.35,140.596 265.001,140.615 Z M279.949,92.437 L258.411,103.206 C257.89,103.467 257.467,103.89 257.206,104.411 L246.437,125.949 C246.019,126.784 246.063,127.776 246.554,128.57 C247.045,129.364 247.913,129.847 248.846,129.846 C249.264,129.846 249.676,129.749 250.051,129.563 L271.589,118.794 C272.11,118.533 272.533,118.11 272.794,117.589 L283.563,96.051 C284.085,95.014 283.882,93.759 283.061,92.939 C282.241,92.118 280.986,91.915 279.949,92.437 Z M268.365,114.365 L254.867,121.133 L261.635,107.635 L275.147,100.88 Z" />
        </g>
        <g id="Regular-S">
            <path d="M465,76 C445.67,76 430,91.67 430,111 C430,130.33 445.67,146 465,146 C484.33,146 500,130.33 500,111 C499.979,91.677 484.32,76.02 464.999,76 Z M465,140.615 C448.644,140.615 435.385,127.356 435.385,111 C435.385,94.644 448.644,81.385 465,81.385 C481.356,81.385 494.615,94.644 494.615,111 C494.598,127.347 481.35,140.596 465.001,140.615 Z M479.949,92.437 L458.411,103.206 C457.89,103.467 457.467,103.89 457.206,104.411 L446.437,125.949 C446.019,126.784 446.063,127.776 446.554,128.57 C447.045,129.364 447.913,129.847 448.846,129.846 C449.264,129.846 449.676,129.749 450.051,129.563 L471.589,118.794 C472.11,118.533 472.533,118.11 472.794,117.589 L483.563,96.051 C484.085,95.014 483.882,93.759 483.061,92.939 C482.241,92.118 480.986,91.915 479.949,92.437 Z M468.365,114.365 L454.867,121.133 L461.635,107.635 L475.147,100.88 Z" />
        </g>
        <g id="Black-S">
            <path d="M665,76 C645.67,76 630,91.67 630,111 C630,130.33 645.67,146 665,146 C684.33,146 700,130.33 700,111 C699.979,91.677 684.32,76.02 664.999,76 Z M665,140.615 C648.644,140.615 635.385,127.356 635.385,111 C635.385,94.644 648.644,81.385 665,81.385 C681.356,81.385 694.615,94.644 694.615,111 C694.598,127.347 681.35,140.596 665.001,140.615 Z M679.949,92.437 L658.411,103.206 C657.89,103.467 657.467,103.89 657.206,104.411 L646.437,125.949 C646.019,126.784 646.063,127.776 646.554,128.57 C647.045,129.364 647.913,129.847 648.846,129.846 C649.264,129.846 649.676,129.749 650.051,129.563 L671.589,118.794 C672.11,118.533 672.533,118.11 672.794,117.589 L683.563,96.051 C684.085,95.014 683.882,93.759 683.061,92.939 C682.241,92.118 680.986,91.915 679.949,92.437 Z M668.365,114.365 L654.867,121.133 L661.635,107.635 L675.147,100.88 Z" />
        </g>
    </g>
</svg>