<?xml version="1.0" encoding="UTF-8"?>
<svg height="600" width="800" xmlns="http://www.w3.org/2000/svg" xmlns:xlink="http://www.w3.org/1999/xlink">
    <g id="Notes" font-family="'LucidaGrande', 'Lucida Grande', sans-serif" font-size="13">
        <rect fill="white" height="600.0" width="800.0" x="0.0" y="0.0" />
        <g font-size="13">
            <text x="18.0" y="176.0">Small</text>
            <text x="18.0" y="376.0">Medium</text>
            <text x="18.0" y="576.0">Large</text>
        </g>
        <g font-size="9">
            <text x="250.0" y="30.0">Ultralight</text>
            <text x="450.0" y="30.0">Regular</text>
            <text x="650.0" y="30.0">Black</text>
            <text id="template-version" fill="#505050" text-anchor="end" x="785.0" y="575.0">Template v.3.0</text>
            <a href="https://github.com/swhitty/SwiftDraw">
                <text fill="#505050" text-anchor="end" x="785.0" y="590.0">https://github.com/swhitty/SwiftDraw</text>
            </a>
        </g>
    </g>
    <g id="Guides" stroke="rgb(39, 170, 225)" stroke-width="0.5">
        <path id="Capline-S" d="M18,76 l800,0" />
        <path id="H-reference" d="M85,145.755 L87.685,145.755 L113.369,79.287 L114.052,79.287 L114.052,76 L112.148,76 L85,145.755 Z M95.693,121.536 L130.996,121.536 L130.263,119.313 L96.474,119.313 L95.693,121.536 Z M139.15,145.755 L141.787,145.755 L114.638,76 L113.466,76 L113.466,79.287 L139.15,145.755 Z" stroke="none" />
        <path id="Baseline-S" d="M18,146 l800,0" />
        <path id="left-margin-Ultralight-S" d="M220,56 l0,110" />
        <path id="right-margin-Ultralight-S" d="M310,56 l0,110" />
        <path id="left-margin-Regular-S" d="M420,56 l0,110" />
        <path id="right-margin-Regular-S" d="M510,56 l0,110" />
        <path id="left-margin-Black-S" d="M620,56 l0,110" />
        <path id="right-margin-Black-S" d="M710,56 l0,110" />
        <path id="Capline-M" d="M18,276 l800,0" />
        <path id="Baseline-M" d="M18,346 l800,0" />
        <path id="Capline-L" d="M18,476 l800,0" />
        <path id="Baseline-L" d="M18,546 l800,0" />
    </g>
    <g id="Symbols">
        <g id="Ultralight-S">
            <path d="M260.962,127.154 C260.962,127.868 260.678,128.553 260.173,129.058 C259.668,129.562 258.983,129.846 258.269,129.846 L248.846,129.846 C247.359,129.846 246.154,128.641 246.154,127.154 C246.154,125.667 247.359,124.462 248.846,124.462 L258.269,124.462 C258.983,124.462 259.668,124.745 260.173,125.25 C260.678,125.755 260.962,126.44 260.962,127.154 Z M281.154,124.462 L271.731,124.462 C270.244,124.462 269.038,125.667 269.038,127.154 C269.038,128.641 270.244,129.846 271.731,129.846 L281.154,129.846 C282.641,129.846 283.846,128.641 283.846,127.154 C283.846,125.667 282.641,124.462 281.154,124.462 Z M302.692,140.615 C302.692,141.329 302.409,142.014 301.904,142.519 C301.399,143.024 300.714,143.308 300,143.308 L230,143.308 C228.513,143.308 227.308,142.102 227.308,140.615 C227.308,139.128 228.513,137.923 230,137.923 L232.692,137.923 L232.692,97.538 C232.692,96.519 233.268,95.586 234.181,95.13 C235.093,94.674 236.184,94.773 237,95.385 L254.231,108.308 L254.231,97.538 C254.231,96.519 254.807,95.586 255.719,95.13 C256.631,94.674 257.723,94.773 258.538,95.385 L271.576,105.161 L275.466,77.932 C275.856,75.284 278.121,73.319 280.797,73.308 L286.895,73.308 C289.571,73.319 291.837,75.284 292.226,77.932 L297.274,113.312 C297.274,113.312 297.301,113.575 297.301,113.692 L297.301,137.923 L299.993,137.923 C300.708,137.921 301.395,138.204 301.901,138.709 C302.408,139.214 302.692,139.9 302.692,140.615 Z M276.489,108.846 L279.36,111 L291.513,111 L286.895,78.692 L280.797,78.692 Z M238.077,137.923 L291.923,137.923 L291.923,116.385 L278.462,116.385 C277.879,116.385 277.312,116.196 276.846,115.846 L272,112.212 L272,112.212 L259.615,102.923 L259.615,113.692 C259.615,114.712 259.039,115.644 258.127,116.1 C257.215,116.556 256.124,116.458 255.308,115.846 L238.077,102.923 Z" />
        </g>
        <g id="Regular-S">
            <path d="M460.962,127.154 C460.962,127.868 460.678,128.553 460.173,129.058 C459.668,129.562 458.983,129.846 458.269,129.846 L448.846,129.846 C447.359,129.846 446.154,128.641 446.154,127.154 C446.154,125.667 447.359,124.462 448.846,124.462 L458.269,124.462 C458.983,124.462 459.668,124.745 460.173,125.25 C460.678,125.755 460.962,126.44 460.962,127.154 Z M481.154,124.462 L471.731,124.462 C470.244,124.462 469.038,125.667 469.038,127.154 C469.038,128.641 470.244,129.846 471.731,129.846 L481.154,129.846 C482.641,129.846 483.846,128.641 483.846,127.154 C483.846,125.667 482.641,124.462 481.154,124.462 Z M502.692,140.615 C502.692,141.329 502.409,142.014 501.904,142.519 C501.399,143.024 500.714,143.308 500,143.308 L430,143.308 C428.513,143.308 427.308,142.102 427.308,140.615 C427.308,139.128 428.513,137.923 430,137.923 L432.692,137.923 L432.692,97.538 C432.692,96.519 433.268,95.586 434.181,95.13 C435.093,94.674 436.184,94.773 437,95.385 L454.231,108.308 L454.231,97.538 C454.231,96.519 454.807,95.586 455.719,95.13 C456.631,94.674 457.723,94.773 458.538,95.385 L471.576,105.161 L475.466,77.932 C475.856,75.284 478.121,73.319 480.797,73.308 L486.895,73.308 C489.571,73.319 491.837,75.284 492.226,77.932 L497.274,113.312 C497.274,113.312 497.301,113.575 497.301,113.692 L497.301,137.923 L499.993,137.923 C500.708,137.921 501.395,138.204 501.901,138.709 C502.408,139.214 502.692,139.9 502.692,140.615 Z M476.489,108.846 L479.36,111 L491.512,111 L486.895,78.692 L480.797,78.692 Z M438.077,137.923 L491.923,137.923 L491.923,116.385 L478.462,116.385 C477.879,116.385 477.312,116.196 476.846,115.846 L472,112.212 L472,112.212 L459.615,102.923 L459.615,113.692 C459.615,114.712 459.039,115.644 458.127,116.1 C457.215,116.556 456.124,116.458 455.308,115.846 L438.077,102.923 Z" />
        </g>
        <g id="Black-S">
            <path d="M660.962,127.154 C660.962,127.868 660.678,128.553 660.173,129.058 C659.668,129.562 658.983,129.846 658.269,129.846 L648.846,129.846 C647.359,129.846 646.154,128.641 646.154,127.154 C646.154,125.667 647.359,124.462 648.846,124.462 L658.269,124.462 C658.983,124.462 659.668,124.745 660.173,125.25 C660.678,125.755 660.962,126.44 660.962,127.154 Z M681.154,124.462 L671.731,124.462 C670.244,124.462 669.038,125.667 669.038,127.154 C669.038,128.641 670.244,129.846 671.731,129.846 L681.154,129.846 C682.641,129.846 683.846,128.641 683.846,127.154 C683.846,125.667 682.641,124.462 681.154,124.462 Z M702.692,140.615 C702.692,141.329 702.409,142.014 701.904,142.519 C701.399,143.024 700.714,143.308 700,143.308 L630,143.308 C628.513,143.308 627.308,142.102 627.308,140.615 C627.308,139.128 628.513,137.923 630,137.923 L632.692,137.923 L632.692,97.538 C632.692,96.519 633.268,95.586 634.181,95.13 C635.093,94.674 636.184,94.773 637,95.385 L654.231,108.308 L654.231,97.538 C654.231,96.519 654.807,95.586 655.719,95.13 C656.631,94.674 657.723,94.773 658.538,95.385 L671.576,105.161 L675.466,77.932 C675.856,75.284 678.121,73.319 680.797,73.308 L686.895,73.308 C689.571,73.319 691.837,75.284 692.226,77.932 L697.274,113.312 C697.274,113.312 697.301,113.575 697.301,113.692 L697.301,137.923 L699.993,137.923 C700.708,137.921 701.395,138.204 701.901,138.709 C702.408,139.214 702.692,139.9 702.692,140.615 Z M676.489,108.846 L679.36,111 L691.513,111 L686.895,78.692 L680.797,78.692 Z M638.077,137.923 L691.923,137.923 L691.923,116.385 L678.462,116.385 C677.879,116.385 677.312,116.196 676.846,115.846 L672,112.212 L672,112.212 L659.615,102.923 L659.615,113.692 C659.615,114.712 659.039,115.644 658.127,116.1 C657.215,116.556 656.124,116.458 655.308,115.846 L638.077,102.923 Z" />
        </g>
    </g>
</svg>