<?xml version="1.0" encoding="UTF-8"?>
<svg height="600" width="800" xmlns="http://www.w3.org/2000/svg" xmlns:xlink="http://www.w3.org/1999/xlink">
    <g id="Notes" font-family="'LucidaGrande', 'Lucida Grande', sans-serif" font-size="13">
        <rect fill="white" height="600.0" width="800.0" x="0.0" y="0.0" />
        <g font-size="13">
            <text x="18.0" y="176.0">Small</text>
            <text x="18.0" y="376.0">Medium</text>
            <text x="18.0" y="576.0">Large</text>
        </g>
        <g font-size="9">
            <text x="250.0" y="30.0">Ultralight</text>
            <text x="450.0" y="30.0">Regular</text>
            <text x="650.0" y="30.0">Black</text>
            <text id="template-version" fill="#505050" text-anchor="end" x="785.0" y="575.0">Template v.3.0</text>
            <a href="https://github.com/swhitty/SwiftDraw">
                <text fill="#505050" text-anchor="end" x="785.0" y="590.0">https://github.com/swhitty/SwiftDraw</text>
            </a>
        </g>
    </g>
    <g id="Guides" stroke="rgb(39, 170, 225)" stroke-width="0.5">
        <path id="Capline-S" d="M18,76 l800,0" />
        <path id="H-reference" d="M85,145.755 L87.685,145.755 L113.369,79.287 L114.052,79.287 L114.052,76 L112.148,76 L85,145.755 Z M95.693,121.536 L130.996,121.536 L130.263,119.313 L96.474,119.313 L95.693,121.536 Z M139.15,145.755 L141.787,145.755 L114.638,76 L113.466,76 L113.466,79.287 L139.15,145.755 Z" stroke="none" />
        <path id="Baseline-S" d="M18,146 l800,0" />
        <path id="left-margin-Ultralight-S" d="M220,56 l0,110" />
        <path id="right-margin-Ultralight-S" d="M310,56 l0,110" />
        <path id="left-margin-Regular-S" d="M420,56 l0,110" />
        <path id="right-margin-Regular-S" d="M510,56 l0,110" />
        <path id="left-margin-Black-S" d="M620,56 l0,110" />
        <path id="right-margin-Black-S" d="M710,56 l0,110" />
        <path id="Capline-M" d="M18,276 l800,0" />
        <path id="Baseline-M" d="M18,346 l800,0" />
        <path id="Capline-L" d="M18,476 l800,0" />
        <path id="Baseline-L" d="M18,546 l800,0" />
    </g>
    <g id="Symbols">
        <g id="Ultralight-S">
            <path d="M284.98,78.692 C278.657,76.108 271.135,75.354 263.802,76.572 C255.913,77.885 249.085,81.284 244.054,86.399 C240.312,90.209 235.768,97.623 235.405,111.303 C235.169,120.218 236.882,129.961 239.985,137.368 C243.088,144.775 247.032,148.692 251.377,148.692 C259.097,148.692 262.56,141.935 265.905,135.399 C268.261,130.822 270.671,126.09 274.504,123.492 L274.504,123.492 C276.476,122.146 279.148,121.137 281.978,120.033 C290.008,116.937 300,113.08 300,99.278 C300,90.101 294.525,82.596 284.98,78.692 Z M280.04,115.008 C276.917,116.213 273.965,117.364 271.482,119.047 C266.508,122.412 263.64,128.019 261.113,132.956 C257.822,139.37 255.594,143.308 251.377,143.308 C249.856,143.308 247.278,140.827 244.952,135.281 C242.129,128.55 240.577,119.636 240.789,111.444 C241.035,102.136 243.559,94.58 247.894,90.172 C253.972,83.989 262.574,81.385 270.576,81.385 C274.805,81.347 279.002,82.119 282.941,83.66 C287.316,85.443 294.615,89.845 294.615,99.265 C294.615,109.388 287.861,112.01 280.04,115.008 Z" />
        </g>
        <g id="Regular-S">
            <path d="M484.98,78.692 C478.657,76.108 471.135,75.354 463.802,76.572 C455.913,77.885 449.085,81.284 444.054,86.399 C440.312,90.209 435.768,97.623 435.405,111.303 C435.169,120.218 436.882,129.961 439.985,137.368 C443.088,144.775 447.032,148.692 451.377,148.692 C459.097,148.692 462.56,141.935 465.905,135.399 C468.261,130.822 470.671,126.09 474.504,123.492 L474.504,123.492 C476.476,122.146 479.148,121.137 481.978,120.033 C490.008,116.937 500,113.08 500,99.278 C500,90.101 494.525,82.596 484.98,78.692 Z M480.04,115.008 C476.917,116.213 473.965,117.364 471.482,119.047 C466.508,122.412 463.64,128.019 461.113,132.956 C457.822,139.37 455.594,143.308 451.377,143.308 C449.856,143.308 447.278,140.827 444.952,135.281 C442.129,128.55 440.577,119.636 440.789,111.444 C441.035,102.136 443.559,94.58 447.894,90.172 C453.972,83.989 462.574,81.385 470.576,81.385 C474.805,81.347 479.002,82.119 482.941,83.66 C487.316,85.443 494.615,89.845 494.615,99.265 C494.615,109.388 487.861,112.01 480.04,115.008 Z" />
        </g>
        <g id="Black-S">
            <path d="M684.98,78.692 C678.657,76.108 671.135,75.354 663.802,76.572 C655.913,77.885 649.085,81.284 644.054,86.399 C640.312,90.209 635.768,97.623 635.405,111.303 C635.169,120.218 636.882,129.961 639.985,137.368 C643.088,144.775 647.032,148.692 651.377,148.692 C659.097,148.692 662.56,141.935 665.905,135.399 C668.261,130.822 670.671,126.09 674.504,123.492 L674.504,123.492 C676.476,122.146 679.148,121.137 681.978,120.033 C690.008,116.937 700,113.08 700,99.278 C700,90.101 694.525,82.596 684.98,78.692 Z M680.04,115.008 C676.917,116.213 673.965,117.364 671.482,119.047 C666.508,122.412 663.64,128.019 661.113,132.956 C657.822,139.37 655.594,143.308 651.377,143.308 C649.856,143.308 647.278,140.827 644.952,135.281 C642.129,128.55 640.577,119.636 640.789,111.444 C641.035,102.136 643.559,94.58 647.894,90.172 C653.972,83.989 662.574,81.385 670.576,81.385 C674.805,81.347 679.002,82.119 682.941,83.66 C687.316,85.443 694.615,89.845 694.615,99.265 C694.615,109.388 687.861,112.01 680.04,115.008 Z" />
        </g>
    </g>
</svg>