<?xml version="1.0" encoding="UTF-8"?>
<svg height="600" width="800" xmlns="http://www.w3.org/2000/svg" xmlns:xlink="http://www.w3.org/1999/xlink">
    <g id="Notes" font-family="'LucidaGrande', 'Lucida Grande', sans-serif" font-size="13">
        <rect fill="white" height="600.0" width="800.0" x="0.0" y="0.0" />
        <g font-size="13">
            <text x="18.0" y="176.0">Small</text>
            <text x="18.0" y="376.0">Medium</text>
            <text x="18.0" y="576.0">Large</text>
        </g>
        <g font-size="9">
            <text x="250.0" y="30.0">Ultralight</text>
            <text x="450.0" y="30.0">Regular</text>
            <text x="650.0" y="30.0">Black</text>
            <text id="template-version" fill="#505050" text-anchor="end" x="785.0" y="575.0">Template v.3.0</text>
            <a href="https://github.com/swhitty/SwiftDraw">
                <text fill="#505050" text-anchor="end" x="785.0" y="590.0">https://github.com/swhitty/SwiftDraw</text>
            </a>
        </g>
    </g>
    <g id="Guides" stroke="rgb(39, 170, 225)" stroke-width="0.5">
        <path id="Capline-S" d="M18,76 l800,0" />
        <path id="H-reference" d="M85,145.755 L87.685,145.755 L113.369,79.287 L114.052,79.287 L114.052,76 L112.148,76 L85,145.755 Z M95.693,121.536 L130.996,121.536 L130.263,119.313 L96.474,119.313 L95.693,121.536 Z M139.15,145.755 L141.787,145.755 L114.638,76 L113.466,76 L113.466,79.287 L139.15,145.755 Z" stroke="none" />
        <path id="Baseline-S" d="M18,146 l800,0" />
        <path id="left-margin-Ultralight-S" d="M220,56 l0,110" />
        <path id="right-margin-Ultralight-S" d="M310,56 l0,110" />
        <path id="left-margin-Regular-S" d="M420,56 l0,110" />
        <path id="right-margin-Regular-S" d="M510,56 l0,110" />
        <path id="left-margin-Black-S" d="M620,56 l0,110" />
        <path id="right-margin-Black-S" d="M710,56 l0,110" />
        <path id="Capline-M" d="M18,276 l800,0" />
        <path id="Baseline-M" d="M18,346 l800,0" />
        <path id="Capline-L" d="M18,476 l800,0" />
        <path id="Baseline-L" d="M18,546 l800,0" />
    </g>
    <g id="Symbols">
        <g id="Ultralight-S">
            <path d="M296.52,126.366 L290.345,132.538 L296.52,138.711 C297.573,139.764 297.572,141.47 296.519,142.521 C295.467,143.573 293.761,143.572 292.71,142.519 L286.538,136.345 L280.366,142.52 C279.316,143.572 277.61,143.573 276.558,142.521 C275.505,141.47 275.504,139.764 276.556,138.712 L282.732,132.538 L276.557,126.366 C275.504,125.313 275.505,123.607 276.558,122.556 C277.61,121.504 279.316,121.505 280.367,122.558 L286.538,128.732 L292.711,122.557 C293.761,121.505 295.467,121.504 296.519,122.556 C297.572,123.607 297.573,125.313 296.521,126.365 Z M300,111 C300,111.714 299.716,112.399 299.211,112.904 C298.707,113.409 298.022,113.692 297.308,113.692 L254.315,113.692 C255.325,131.775 266.205,140.817 266.689,141.211 L266.689,141.211 C267.579,141.927 267.919,143.127 267.539,144.203 C267.16,145.28 266.142,146 265,146 C245.67,146 230,130.33 230,111 C230,91.67 245.67,76 265,76 C284.33,76 300,91.67 300,111 Z M271.869,82.192 C275.749,87.331 280.481,96.021 281.083,108.308 L294.491,108.308 C293.317,95.658 284.222,85.159 271.869,82.192 Z M265,82.394 C261.789,85.733 255.086,94.314 254.308,108.308 L275.692,108.308 C274.914,94.308 268.214,85.726 265,82.394 Z M235.509,108.308 L248.917,108.308 C249.519,96.021 254.251,87.331 258.131,82.192 C245.778,85.159 236.683,95.658 235.509,108.308 Z M248.917,113.692 L235.509,113.692 C236.683,126.342 245.778,136.841 258.131,139.808 C254.251,134.669 249.519,125.979 248.917,113.692 Z" />
        </g>
        <g id="Regular-S">
            <path d="M496.52,126.366 L490.345,132.538 L496.52,138.711 C497.573,139.764 497.572,141.47 496.519,142.521 C495.467,143.573 493.761,143.572 492.71,142.519 L486.538,136.345 L480.366,142.52 C479.316,143.572 477.61,143.573 476.558,142.521 C475.505,141.47 475.504,139.764 476.556,138.712 L482.732,132.538 L476.557,126.366 C475.504,125.313 475.505,123.607 476.558,122.556 C477.61,121.504 479.316,121.505 480.367,122.558 L486.538,128.732 L492.711,122.557 C493.761,121.505 495.467,121.504 496.519,122.556 C497.572,123.607 497.573,125.313 496.521,126.365 Z M500,111 C500,111.714 499.716,112.399 499.211,112.904 C498.707,113.409 498.022,113.692 497.308,113.692 L454.315,113.692 C455.325,131.775 466.205,140.817 466.689,141.211 L466.689,141.211 C467.579,141.927 467.919,143.127 467.539,144.203 C467.16,145.28 466.142,146 465,146 C445.67,146 430,130.33 430,111 C430,91.67 445.67,76 465,76 C484.33,76 500,91.67 500,111 Z M471.869,82.192 C475.749,87.331 480.481,96.021 481.083,108.308 L494.491,108.308 C493.317,95.658 484.222,85.159 471.869,82.192 Z M465,82.394 C461.789,85.733 455.086,94.314 454.308,108.308 L475.692,108.308 C474.914,94.308 468.214,85.726 465,82.394 Z M435.509,108.308 L448.917,108.308 C449.519,96.021 454.251,87.331 458.131,82.192 C445.778,85.159 436.683,95.658 435.509,108.308 Z M448.917,113.692 L435.509,113.692 C436.683,126.342 445.778,136.841 458.131,139.808 C454.251,134.669 449.519,125.979 448.917,113.692 Z" />
        </g>
        <g id="Black-S">
            <path d="M696.52,126.366 L690.345,132.538 L696.52,138.711 C697.573,139.764 697.572,141.47 696.519,142.521 C695.467,143.573 693.761,143.572 692.71,142.519 L686.538,136.345 L680.366,142.52 C679.316,143.572 677.61,143.573 676.558,142.521 C675.505,141.47 675.504,139.764 676.556,138.712 L682.732,132.538 L676.557,126.366 C675.504,125.313 675.505,123.607 676.558,122.556 C677.61,121.504 679.316,121.505 680.367,122.558 L686.538,128.732 L692.711,122.557 C693.761,121.505 695.467,121.504 696.519,122.556 C697.572,123.607 697.573,125.313 696.521,126.365 Z M700,111 C700,111.714 699.716,112.399 699.211,112.904 C698.707,113.409 698.022,113.692 697.308,113.692 L654.315,113.692 C655.325,131.775 666.205,140.817 666.689,141.211 L666.689,141.211 C667.579,141.927 667.919,143.127 667.539,144.203 C667.16,145.28 666.142,146 665,146 C645.67,146 630,130.33 630,111 C630,91.67 645.67,76 665,76 C684.33,76 700,91.67 700,111 Z M671.869,82.192 C675.749,87.331 680.481,96.021 681.083,108.308 L694.491,108.308 C693.317,95.658 684.222,85.159 671.869,82.192 Z M665,82.394 C661.789,85.733 655.086,94.314 654.308,108.308 L675.692,108.308 C674.914,94.308 668.214,85.726 665,82.394 Z M635.509,108.308 L648.917,108.308 C649.519,96.021 654.251,87.331 658.131,82.192 C645.779,85.159 636.683,95.658 635.509,108.308 Z M648.917,113.692 L635.509,113.692 C636.683,126.342 645.779,136.841 658.131,139.808 C654.251,134.669 649.519,125.979 648.917,113.692 Z" />
        </g>
    </g>
</svg>