<?xml version="1.0" encoding="UTF-8"?>
<svg height="600" width="800" xmlns="http://www.w3.org/2000/svg" xmlns:xlink="http://www.w3.org/1999/xlink">
    <g id="Notes" font-family="'LucidaGrande', 'Lucida Grande', sans-serif" font-size="13">
        <rect fill="white" height="600.0" width="800.0" x="0.0" y="0.0" />
        <g font-size="13">
            <text x="18.0" y="176.0">Small</text>
            <text x="18.0" y="376.0">Medium</text>
            <text x="18.0" y="576.0">Large</text>
        </g>
        <g font-size="9">
            <text x="250.0" y="30.0">Ultralight</text>
            <text x="450.0" y="30.0">Regular</text>
            <text x="650.0" y="30.0">Black</text>
            <text id="template-version" fill="#505050" text-anchor="end" x="785.0" y="575.0">Template v.3.0</text>
            <a href="https://github.com/swhitty/SwiftDraw">
                <text fill="#505050" text-anchor="end" x="785.0" y="590.0">https://github.com/swhitty/SwiftDraw</text>
            </a>
        </g>
    </g>
    <g id="Guides" stroke="rgb(39, 170, 225)" stroke-width="0.5">
        <path id="Capline-S" d="M18,76 l800,0" />
        <path id="H-reference" d="M85,145.755 L87.685,145.755 L113.369,79.287 L114.052,79.287 L114.052,76 L112.148,76 L85,145.755 Z M95.693,121.536 L130.996,121.536 L130.263,119.313 L96.474,119.313 L95.693,121.536 Z M139.15,145.755 L141.787,145.755 L114.638,76 L113.466,76 L113.466,79.287 L139.15,145.755 Z" stroke="none" />
        <path id="Baseline-S" d="M18,146 l800,0" />
        <path id="left-margin-Ultralight-S" d="M220,56 l0,110" />
        <path id="right-margin-Ultralight-S" d="M310,56 l0,110" />
        <path id="left-margin-Regular-S" d="M420,56 l0,110" />
        <path id="right-margin-Regular-S" d="M510,56 l0,110" />
        <path id="left-margin-Black-S" d="M620,56 l0,110" />
        <path id="right-margin-Black-S" d="M710,56 l0,110" />
        <path id="Capline-M" d="M18,276 l800,0" />
        <path id="Baseline-M" d="M18,346 l800,0" />
        <path id="Capline-L" d="M18,476 l800,0" />
        <path id="Baseline-L" d="M18,546 l800,0" />
    </g>
    <g id="Symbols">
        <g id="Ultralight-S">
            <path d="M265,76 L265,76 C245.679,76.022 230.022,91.679 230,111 L230,129.846 C230,131.988 230.851,134.043 232.366,135.557 C233.88,137.072 235.935,137.923 238.077,137.923 C239.793,137.92 241.463,137.374 242.849,136.362 C246.938,133.39 254.096,129.846 265,129.846 C275.904,129.846 283.062,133.387 287.148,136.358 C289.602,138.157 292.859,138.425 295.574,137.049 C298.288,135.674 299.999,132.889 300,129.846 L300,111 C299.978,91.679 284.321,76.022 265,76 Z M294.615,111 L294.615,113.985 C290.321,111.328 285.686,109.265 280.838,107.853 C279.796,98.57 276.457,89.693 271.122,82.024 C284.806,84.934 294.597,97.009 294.615,111 Z M265,82.822 C270.376,89.724 273.898,97.887 275.231,106.534 C268.461,105.309 261.526,105.309 254.756,106.534 C256.105,97.889 259.63,89.729 265,82.822 Z M258.878,82.024 C253.543,89.694 250.204,98.572 249.163,107.857 C244.314,109.269 239.679,111.331 235.385,113.988 L235.385,111 C235.403,97.008 245.195,84.932 258.88,82.024 Z M293.155,132.239 C292.241,132.71 291.139,132.62 290.314,132.007 C285.583,128.567 277.351,124.462 265,124.462 C252.649,124.462 244.417,128.567 239.686,132.007 C238.861,132.62 237.759,132.71 236.845,132.239 C235.936,131.792 235.367,130.859 235.385,129.846 L235.385,120.447 C253.12,107.854 276.88,107.854 294.615,120.447 L294.615,129.846 C294.633,130.859 294.064,131.792 293.155,132.239 Z" />
        </g>
        <g id="Regular-S">
            <path d="M465,76 L465,76 C445.679,76.022 430.022,91.679 430,111 L430,129.846 C430,131.988 430.851,134.043 432.366,135.557 C433.88,137.072 435.935,137.923 438.077,137.923 C439.793,137.92 441.463,137.374 442.849,136.362 C446.938,133.39 454.096,129.846 465,129.846 C475.904,129.846 483.062,133.387 487.148,136.358 C489.602,138.157 492.859,138.425 495.574,137.049 C498.288,135.674 499.999,132.889 500,129.846 L500,111 C499.978,91.679 484.321,76.022 465,76 Z M494.615,111 L494.615,113.985 C490.321,111.328 485.686,109.265 480.837,107.853 C479.796,98.57 476.457,89.693 471.122,82.024 C484.806,84.934 494.597,97.009 494.615,111 Z M465,82.822 C470.376,89.724 473.898,97.887 475.231,106.534 C468.461,105.309 461.526,105.309 454.756,106.534 C456.105,97.889 459.63,89.729 465,82.822 Z M458.878,82.024 C453.543,89.694 450.204,98.572 449.162,107.857 C444.314,109.269 439.679,111.331 435.385,113.988 L435.385,111 C435.403,97.008 445.195,84.932 458.88,82.024 Z M493.155,132.239 C492.241,132.71 491.139,132.62 490.314,132.007 C485.583,128.567 477.351,124.462 465,124.462 C452.649,124.462 444.417,128.567 439.686,132.007 C438.861,132.62 437.759,132.71 436.845,132.239 C435.936,131.792 435.367,130.859 435.385,129.846 L435.385,120.447 C453.12,107.854 476.88,107.854 494.615,120.447 L494.615,129.846 C494.633,130.859 494.064,131.792 493.155,132.239 Z" />
        </g>
        <g id="Black-S">
            <path d="M665,76 L665,76 C645.679,76.022 630.022,91.679 630,111 L630,129.846 C630,131.988 630.851,134.043 632.366,135.557 C633.88,137.072 635.935,137.923 638.077,137.923 C639.793,137.92 641.464,137.374 642.849,136.362 C646.938,133.39 654.096,129.846 665,129.846 C675.904,129.846 683.062,133.387 687.148,136.358 C689.602,138.157 692.859,138.425 695.574,137.049 C698.288,135.674 699.999,132.889 700,129.846 L700,111 C699.978,91.679 684.321,76.022 665,76 Z M694.615,111 L694.615,113.985 C690.321,111.328 685.686,109.265 680.838,107.853 C679.796,98.57 676.457,89.693 671.122,82.024 C684.806,84.934 694.597,97.009 694.615,111 Z M665,82.822 C670.376,89.724 673.898,97.887 675.231,106.534 C668.461,105.309 661.526,105.309 654.756,106.534 C656.105,97.889 659.63,89.729 665,82.822 Z M658.878,82.024 C653.543,89.694 650.204,98.572 649.163,107.857 C644.314,109.269 639.679,111.331 635.385,113.988 L635.385,111 C635.403,97.008 645.195,84.932 658.88,82.024 Z M693.155,132.239 C692.241,132.71 691.139,132.62 690.314,132.007 C685.583,128.567 677.351,124.462 665,124.462 C652.649,124.462 644.417,128.567 639.686,132.007 C638.861,132.62 637.759,132.71 636.845,132.239 C635.936,131.792 635.367,130.859 635.385,129.846 L635.385,120.447 C653.12,107.854 676.88,107.854 694.615,120.447 L694.615,129.846 C694.633,130.859 694.064,131.792 693.155,132.239 Z" />
        </g>
    </g>
</svg>