<?xml version="1.0" encoding="UTF-8"?>
<svg height="600" width="800" xmlns="http://www.w3.org/2000/svg" xmlns:xlink="http://www.w3.org/1999/xlink">
    <g id="Notes" font-family="'LucidaGrande', 'Lucida Grande', sans-serif" font-size="13">
        <rect fill="white" height="600.0" width="800.0" x="0.0" y="0.0" />
        <g font-size="13">
            <text x="18.0" y="176.0">Small</text>
            <text x="18.0" y="376.0">Medium</text>
            <text x="18.0" y="576.0">Large</text>
        </g>
        <g font-size="9">
            <text x="250.0" y="30.0">Ultralight</text>
            <text x="450.0" y="30.0">Regular</text>
            <text x="650.0" y="30.0">Black</text>
            <text id="template-version" fill="#505050" text-anchor="end" x="785.0" y="575.0">Template v.3.0</text>
            <a href="https://github.com/swhitty/SwiftDraw">
                <text fill="#505050" text-anchor="end" x="785.0" y="590.0">https://github.com/swhitty/SwiftDraw</text>
            </a>
        </g>
    </g>
    <g id="Guides" stroke="rgb(39, 170, 225)" stroke-width="0.5">
        <path id="Capline-S" d="M18,76 l800,0" />
        <path id="H-reference" d="M85,145.755 L87.685,145.755 L113.369,79.287 L114.052,79.287 L114.052,76 L112.148,76 L85,145.755 Z M95.693,121.536 L130.996,121.536 L130.263,119.313 L96.474,119.313 L95.693,121.536 Z M139.15,145.755 L141.787,145.755 L114.638,76 L113.466,76 L113.466,79.287 L139.15,145.755 Z" stroke="none" />
        <path id="Baseline-S" d="M18,146 l800,0" />
        <path id="left-margin-Ultralight-S" d="M220,56 l0,110" />
        <path id="right-margin-Ultralight-S" d="M310,56 l0,110" />
        <path id="left-margin-Regular-S" d="M420,56 l0,110" />
        <path id="right-margin-Regular-S" d="M510,56 l0,110" />
        <path id="left-margin-Black-S" d="M620,56 l0,110" />
        <path id="right-margin-Black-S" d="M710,56 l0,110" />
        <path id="Capline-M" d="M18,276 l800,0" />
        <path id="Baseline-M" d="M18,346 l800,0" />
        <path id="Capline-L" d="M18,476 l800,0" />
        <path id="Baseline-L" d="M18,546 l800,0" />
    </g>
    <g id="Symbols">
        <g id="Ultralight-S">
            <path d="M291.923,81.385 L238.077,81.385 C235.935,81.385 233.88,82.236 232.366,83.75 C230.851,85.265 230,87.319 230,89.462 L230,127.154 C230,129.296 230.851,131.35 232.366,132.865 C233.88,134.38 235.935,135.231 238.077,135.231 L291.923,135.231 C294.065,135.231 296.12,134.38 297.634,132.865 C299.149,131.35 300,129.296 300,127.154 L300,89.462 C300,87.319 299.149,85.265 297.634,83.75 C296.12,82.236 294.065,81.385 291.923,81.385 Z M294.615,127.154 C294.615,127.868 294.332,128.553 293.827,129.058 C293.322,129.562 292.637,129.846 291.923,129.846 L238.077,129.846 C237.363,129.846 236.678,129.562 236.173,129.058 C235.668,128.553 235.385,127.868 235.385,127.154 L235.385,89.462 C235.385,88.747 235.668,88.063 236.173,87.558 C236.678,87.053 237.363,86.769 238.077,86.769 L291.923,86.769 C292.637,86.769 293.322,87.053 293.827,87.558 C294.332,88.063 294.615,88.747 294.615,89.462 Z M278.462,143.308 C278.462,144.022 278.178,144.707 277.673,145.211 C277.168,145.716 276.483,146 275.769,146 L254.231,146 C252.744,146 251.538,144.795 251.538,143.308 C251.538,141.821 252.744,140.615 254.231,140.615 L275.769,140.615 C276.483,140.615 277.168,140.899 277.673,141.404 C278.178,141.909 278.462,142.594 278.462,143.308 Z M277.263,106.066 L261.11,95.297 C260.283,94.746 259.22,94.694 258.345,95.163 C257.469,95.632 256.922,96.545 256.923,97.538 L256.923,119.077 C256.922,120.07 257.469,120.983 258.345,121.452 C259.22,121.921 260.283,121.87 261.11,121.318 L277.263,110.549 C278.013,110.05 278.464,109.209 278.464,108.308 C278.464,107.407 278.013,106.566 277.263,106.066 Z M262.308,114.046 L262.308,102.587 L270.916,108.308 Z" />
        </g>
        <g id="Regular-S">
            <path d="M491.923,81.385 L438.077,81.385 C435.935,81.385 433.88,82.236 432.366,83.75 C430.851,85.265 430,87.319 430,89.462 L430,127.154 C430,129.296 430.851,131.35 432.366,132.865 C433.88,134.38 435.935,135.231 438.077,135.231 L491.923,135.231 C494.065,135.231 496.12,134.38 497.634,132.865 C499.149,131.35 500,129.296 500,127.154 L500,89.462 C500,87.319 499.149,85.265 497.634,83.75 C496.12,82.236 494.065,81.385 491.923,81.385 Z M494.615,127.154 C494.615,127.868 494.332,128.553 493.827,129.058 C493.322,129.562 492.637,129.846 491.923,129.846 L438.077,129.846 C437.363,129.846 436.678,129.562 436.173,129.058 C435.668,128.553 435.385,127.868 435.385,127.154 L435.385,89.462 C435.385,88.747 435.668,88.063 436.173,87.558 C436.678,87.053 437.363,86.769 438.077,86.769 L491.923,86.769 C492.637,86.769 493.322,87.053 493.827,87.558 C494.332,88.063 494.615,88.747 494.615,89.462 Z M478.462,143.308 C478.462,144.022 478.178,144.707 477.673,145.211 C477.168,145.716 476.483,146 475.769,146 L454.231,146 C452.744,146 451.538,144.795 451.538,143.308 C451.538,141.821 452.744,140.615 454.231,140.615 L475.769,140.615 C476.483,140.615 477.168,140.899 477.673,141.404 C478.178,141.909 478.462,142.594 478.462,143.308 Z M477.263,106.066 L461.11,95.297 C460.283,94.746 459.22,94.694 458.345,95.163 C457.469,95.632 456.922,96.545 456.923,97.538 L456.923,119.077 C456.922,120.07 457.469,120.983 458.345,121.452 C459.22,121.921 460.283,121.87 461.11,121.318 L477.263,110.549 C478.013,110.05 478.464,109.209 478.464,108.308 C478.464,107.407 478.013,106.566 477.263,106.066 Z M462.308,114.046 L462.308,102.587 L470.916,108.308 Z" />
        </g>
        <g id="Black-S">
            <path d="M691.923,81.385 L638.077,81.385 C635.935,81.385 633.88,82.236 632.366,83.75 C630.851,85.265 630,87.319 630,89.462 L630,127.154 C630,129.296 630.851,131.35 632.366,132.865 C633.88,134.38 635.935,135.231 638.077,135.231 L691.923,135.231 C694.065,135.231 696.12,134.38 697.634,132.865 C699.149,131.35 700,129.296 700,127.154 L700,89.462 C700,87.319 699.149,85.265 697.634,83.75 C696.12,82.236 694.065,81.385 691.923,81.385 Z M694.615,127.154 C694.615,127.868 694.332,128.553 693.827,129.058 C693.322,129.562 692.637,129.846 691.923,129.846 L638.077,129.846 C637.363,129.846 636.678,129.562 636.173,129.058 C635.668,128.553 635.385,127.868 635.385,127.154 L635.385,89.462 C635.385,88.747 635.668,88.063 636.173,87.558 C636.678,87.053 637.363,86.769 638.077,86.769 L691.923,86.769 C692.637,86.769 693.322,87.053 693.827,87.558 C694.332,88.063 694.615,88.747 694.615,89.462 Z M678.462,143.308 C678.462,144.022 678.178,144.707 677.673,145.211 C677.168,145.716 676.483,146 675.769,146 L654.231,146 C652.744,146 651.538,144.795 651.538,143.308 C651.538,141.821 652.744,140.615 654.231,140.615 L675.769,140.615 C676.483,140.615 677.168,140.899 677.673,141.404 C678.178,141.909 678.462,142.594 678.462,143.308 Z M677.263,106.066 L661.11,95.297 C660.283,94.746 659.22,94.694 658.345,95.163 C657.469,95.632 656.922,96.545 656.923,97.538 L656.923,119.077 C656.922,120.07 657.469,120.983 658.345,121.452 C659.22,121.921 660.283,121.87 661.11,121.318 L677.263,110.549 C678.013,110.05 678.464,109.209 678.464,108.308 C678.464,107.407 678.013,106.566 677.263,106.066 Z M662.308,114.046 L662.308,102.587 L670.916,108.308 Z" />
        </g>
    </g>
</svg>