<?xml version="1.0" encoding="UTF-8"?>
<svg height="600" width="800" xmlns="http://www.w3.org/2000/svg" xmlns:xlink="http://www.w3.org/1999/xlink">
    <g id="Notes" font-family="'LucidaGrande', 'Lucida Grande', sans-serif" font-size="13">
        <rect fill="white" height="600.0" width="800.0" x="0.0" y="0.0" />
        <g font-size="13">
            <text x="18.0" y="176.0">Small</text>
            <text x="18.0" y="376.0">Medium</text>
            <text x="18.0" y="576.0">Large</text>
        </g>
        <g font-size="9">
            <text x="250.0" y="30.0">Ultralight</text>
            <text x="450.0" y="30.0">Regular</text>
            <text x="650.0" y="30.0">Black</text>
            <text id="template-version" fill="#505050" text-anchor="end" x="785.0" y="575.0">Template v.3.0</text>
            <a href="https://github.com/swhitty/SwiftDraw">
                <text fill="#505050" text-anchor="end" x="785.0" y="590.0">https://github.com/swhitty/SwiftDraw</text>
            </a>
        </g>
    </g>
    <g id="Guides" stroke="rgb(39, 170, 225)" stroke-width="0.5">
        <path id="Capline-S" d="M18,76 l800,0" />
        <path id="H-reference" d="M85,145.755 L87.685,145.755 L113.369,79.287 L114.052,79.287 L114.052,76 L112.148,76 L85,145.755 Z M95.693,121.536 L130.996,121.536 L130.263,119.313 L96.474,119.313 L95.693,121.536 Z M139.15,145.755 L141.787,145.755 L114.638,76 L113.466,76 L113.466,79.287 L139.15,145.755 Z" stroke="none" />
        <path id="Baseline-S" d="M18,146 l800,0" />
        <path id="left-margin-Ultralight-S" d="M220,56 l0,110" />
        <path id="right-margin-Ultralight-S" d="M310,56 l0,110" />
        <path id="left-margin-Regular-S" d="M420,56 l0,110" />
        <path id="right-margin-Regular-S" d="M510,56 l0,110" />
        <path id="left-margin-Black-S" d="M620,56 l0,110" />
        <path id="right-margin-Black-S" d="M710,56 l0,110" />
        <path id="Capline-M" d="M18,276 l800,0" />
        <path id="Baseline-M" d="M18,346 l800,0" />
        <path id="Capline-L" d="M18,476 l800,0" />
        <path id="Baseline-L" d="M18,546 l800,0" />
    </g>
    <g id="Symbols">
        <g id="Ultralight-S">
            <path d="M267.692,81.385 L267.692,140.615 C267.692,142.102 266.487,143.308 265,143.308 C263.513,143.308 262.308,142.102 262.308,140.615 L262.308,81.385 C262.308,79.898 263.513,78.692 265,78.692 C266.487,78.692 267.692,79.898 267.692,81.385 Z M245.366,98.326 C244.316,97.274 242.61,97.273 241.558,98.325 C240.505,99.376 240.504,101.082 241.556,102.135 L247.732,108.308 L227.308,108.308 C225.821,108.308 224.615,109.513 224.615,111 C224.615,112.487 225.821,113.692 227.308,113.692 L247.732,113.692 L241.557,119.864 C240.504,120.918 240.505,122.624 241.558,123.675 C242.61,124.727 244.316,124.726 245.367,123.673 L256.137,112.904 C256.642,112.399 256.926,111.714 256.926,110.999 C256.926,110.284 256.642,109.599 256.137,109.094 Z M302.692,108.308 L282.268,108.308 L288.443,102.136 C289.496,101.082 289.495,99.376 288.442,98.325 C287.39,97.273 285.684,97.274 284.633,98.327 L273.863,109.096 C273.358,109.601 273.074,110.286 273.074,111.001 C273.074,111.716 273.358,112.401 273.863,112.906 L284.633,123.675 C285.683,124.727 287.389,124.728 288.441,123.676 C289.494,122.625 289.495,120.919 288.443,119.867 L282.268,113.692 L302.692,113.692 C304.179,113.692 305.385,112.487 305.385,111 C305.385,109.513 304.179,108.308 302.692,108.308 Z" />
        </g>
        <g id="Regular-S">
            <path d="M467.692,81.385 L467.692,140.615 C467.692,142.102 466.487,143.308 465,143.308 C463.513,143.308 462.308,142.102 462.308,140.615 L462.308,81.385 C462.308,79.898 463.513,78.692 465,78.692 C466.487,78.692 467.692,79.898 467.692,81.385 Z M445.366,98.326 C444.316,97.274 442.61,97.273 441.558,98.325 C440.505,99.376 440.504,101.082 441.556,102.135 L447.732,108.308 L427.308,108.308 C425.821,108.308 424.615,109.513 424.615,111 C424.615,112.487 425.821,113.692 427.308,113.692 L447.732,113.692 L441.557,119.864 C440.504,120.918 440.505,122.624 441.558,123.675 C442.61,124.727 444.316,124.726 445.367,123.673 L456.137,112.904 C456.642,112.399 456.926,111.714 456.926,110.999 C456.926,110.284 456.642,109.599 456.137,109.094 Z M502.692,108.308 L482.268,108.308 L488.443,102.136 C489.496,101.082 489.495,99.376 488.442,98.325 C487.39,97.273 485.684,97.274 484.633,98.327 L473.863,109.096 C473.358,109.601 473.074,110.286 473.074,111.001 C473.074,111.716 473.358,112.401 473.863,112.906 L484.633,123.675 C485.683,124.727 487.389,124.728 488.441,123.676 C489.494,122.625 489.495,120.919 488.443,119.867 L482.268,113.692 L502.692,113.692 C504.179,113.692 505.385,112.487 505.385,111 C505.385,109.513 504.179,108.308 502.692,108.308 Z" />
        </g>
        <g id="Black-S">
            <path d="M667.692,81.385 L667.692,140.615 C667.692,142.102 666.487,143.308 665,143.308 C663.513,143.308 662.308,142.102 662.308,140.615 L662.308,81.385 C662.308,79.898 663.513,78.692 665,78.692 C666.487,78.692 667.692,79.898 667.692,81.385 Z M645.366,98.326 C644.316,97.274 642.61,97.273 641.558,98.325 C640.505,99.376 640.504,101.082 641.556,102.135 L647.732,108.308 L627.308,108.308 C625.821,108.308 624.615,109.513 624.615,111 C624.615,112.487 625.821,113.692 627.308,113.692 L647.732,113.692 L641.557,119.864 C640.504,120.918 640.505,122.624 641.558,123.675 C642.61,124.727 644.316,124.726 645.367,123.673 L656.137,112.904 C656.642,112.399 656.926,111.714 656.926,110.999 C656.926,110.284 656.642,109.599 656.137,109.094 Z M702.692,108.308 L682.268,108.308 L688.443,102.136 C689.496,101.082 689.495,99.376 688.442,98.325 C687.39,97.273 685.684,97.274 684.633,98.327 L673.863,109.096 C673.358,109.601 673.074,110.286 673.074,111.001 C673.074,111.716 673.358,112.401 673.863,112.906 L684.633,123.675 C685.683,124.727 687.389,124.728 688.441,123.676 C689.494,122.625 689.495,120.919 688.443,119.867 L682.268,113.692 L702.692,113.692 C704.179,113.692 705.385,112.487 705.385,111 C705.385,109.513 704.179,108.308 702.692,108.308 Z" />
        </g>
    </g>
</svg>