<?xml version="1.0" encoding="UTF-8"?>
<svg height="600" width="800" xmlns="http://www.w3.org/2000/svg" xmlns:xlink="http://www.w3.org/1999/xlink">
    <g id="Notes" font-family="'LucidaGrande', 'Lucida Grande', sans-serif" font-size="13">
        <rect fill="white" height="600.0" width="800.0" x="0.0" y="0.0" />
        <g font-size="13">
            <text x="18.0" y="176.0">Small</text>
            <text x="18.0" y="376.0">Medium</text>
            <text x="18.0" y="576.0">Large</text>
        </g>
        <g font-size="9">
            <text x="250.0" y="30.0">Ultralight</text>
            <text x="450.0" y="30.0">Regular</text>
            <text x="650.0" y="30.0">Black</text>
            <text id="template-version" fill="#505050" text-anchor="end" x="785.0" y="575.0">Template v.3.0</text>
            <a href="https://github.com/swhitty/SwiftDraw">
                <text fill="#505050" text-anchor="end" x="785.0" y="590.0">https://github.com/swhitty/SwiftDraw</text>
            </a>
        </g>
    </g>
    <g id="Guides" stroke="rgb(39, 170, 225)" stroke-width="0.5">
        <path id="Capline-S" d="M18,76 l800,0" />
        <path id="H-reference" d="M85,145.755 L87.685,145.755 L113.369,79.287 L114.052,79.287 L114.052,76 L112.148,76 L85,145.755 Z M95.693,121.536 L130.996,121.536 L130.263,119.313 L96.474,119.313 L95.693,121.536 Z M139.15,145.755 L141.787,145.755 L114.638,76 L113.466,76 L113.466,79.287 L139.15,145.755 Z" stroke="none" />
        <path id="Baseline-S" d="M18,146 l800,0" />
        <path id="left-margin-Ultralight-S" d="M220,56 l0,110" />
        <path id="right-margin-Ultralight-S" d="M310,56 l0,110" />
        <path id="left-margin-Regular-S" d="M420,56 l0,110" />
        <path id="right-margin-Regular-S" d="M510,56 l0,110" />
        <path id="left-margin-Black-S" d="M620,56 l0,110" />
        <path id="right-margin-Black-S" d="M710,56 l0,110" />
        <path id="Capline-M" d="M18,276 l800,0" />
        <path id="Baseline-M" d="M18,346 l800,0" />
        <path id="Capline-L" d="M18,476 l800,0" />
        <path id="Baseline-L" d="M18,546 l800,0" />
    </g>
    <g id="Symbols">
        <g id="Ultralight-S">
            <path d="M297.2,90.185 L267.585,73.981 C265.975,73.096 264.025,73.096 262.415,73.981 L232.8,90.195 C231.077,91.138 230.004,92.943 230,94.907 L230,127.093 C230.005,129.057 231.077,130.862 232.8,131.805 L262.415,148.016 C264.024,148.905 265.976,148.905 267.585,148.016 L297.2,131.805 C298.923,130.862 299.996,129.057 300,127.093 L300,94.907 C299.999,92.94 298.926,91.13 297.2,90.185 Z M278.462,119.077 L278.462,135.934 L267.692,141.83 L267.692,112.595 L294.615,97.855 L294.615,108.624 L279.862,116.701 C278.994,117.176 278.456,118.088 278.462,119.077 Z M250.138,116.721 L235.385,108.644 L235.385,97.875 L262.308,112.615 L262.308,141.85 L251.538,135.934 L251.538,119.077 C251.536,118.095 251,117.192 250.138,116.721 Z M249.903,86.968 L263.701,94.523 C264.506,94.964 265.48,94.964 266.286,94.523 L280.084,86.968 L291.688,93.318 L265,107.931 L238.299,93.312 Z M265,78.692 L265,78.692 L274.49,83.888 L265,89.088 L255.51,83.892 Z M235.385,114.776 L246.154,120.672 L246.154,132.986 L235.385,127.093 Z M283.846,132.986 L283.846,120.672 L294.615,114.776 L294.615,127.093 Z" />
        </g>
        <g id="Regular-S">
            <path d="M497.2,90.185 L467.585,73.981 C465.975,73.096 464.025,73.096 462.415,73.981 L432.8,90.195 C431.077,91.138 430.004,92.943 430,94.907 L430,127.093 C430.004,129.057 431.077,130.862 432.8,131.805 L462.415,148.016 C464.024,148.905 465.976,148.905 467.585,148.016 L497.2,131.805 C498.923,130.862 499.996,129.057 500,127.093 L500,94.907 C499.999,92.94 498.926,91.13 497.2,90.185 Z M478.462,119.077 L478.462,135.934 L467.692,141.83 L467.692,112.595 L494.615,97.855 L494.615,108.624 L479.862,116.701 C478.994,117.176 478.456,118.088 478.462,119.077 Z M450.138,116.721 L435.385,108.644 L435.385,97.875 L462.308,112.615 L462.308,141.85 L451.538,135.934 L451.538,119.077 C451.536,118.095 451,117.192 450.138,116.721 Z M449.903,86.968 L463.701,94.523 C464.506,94.964 465.48,94.964 466.286,94.523 L480.084,86.968 L491.688,93.318 L465,107.931 L438.299,93.312 Z M465,78.692 L465,78.692 L474.49,83.888 L465,89.088 L455.51,83.892 Z M435.385,114.776 L446.154,120.672 L446.154,132.986 L435.385,127.093 Z M483.846,132.986 L483.846,120.672 L494.615,114.776 L494.615,127.093 Z" />
        </g>
        <g id="Black-S">
            <path d="M697.2,90.185 L667.585,73.981 C665.975,73.096 664.025,73.096 662.415,73.981 L632.8,90.195 C631.077,91.138 630.004,92.943 630,94.907 L630,127.093 C630.005,129.057 631.078,130.862 632.8,131.805 L662.416,148.016 C664.024,148.905 665.976,148.905 667.585,148.016 L697.2,131.805 C698.923,130.862 699.996,129.057 700,127.093 L700,94.907 C699.999,92.94 698.926,91.13 697.2,90.185 Z M678.462,119.077 L678.462,135.934 L667.692,141.83 L667.692,112.595 L694.615,97.855 L694.615,108.624 L679.862,116.701 C678.994,117.176 678.456,118.088 678.462,119.077 Z M650.138,116.721 L635.385,108.644 L635.385,97.875 L662.308,112.615 L662.308,141.85 L651.538,135.934 L651.538,119.077 C651.536,118.095 651,117.192 650.138,116.721 Z M649.903,86.968 L663.701,94.523 C664.506,94.964 665.48,94.964 666.286,94.523 L680.084,86.968 L691.688,93.318 L665,107.931 L638.299,93.312 Z M665,78.692 L665,78.692 L674.49,83.888 L665,89.088 L655.51,83.892 Z M635.385,114.776 L646.154,120.672 L646.154,132.986 L635.385,127.093 Z M683.846,132.986 L683.846,120.672 L694.615,114.776 L694.615,127.093 Z" />
        </g>
    </g>
</svg>