<?xml version="1.0" encoding="UTF-8"?>
<svg height="600" width="800" xmlns="http://www.w3.org/2000/svg" xmlns:xlink="http://www.w3.org/1999/xlink">
    <g id="Notes" font-family="'LucidaGrande', 'Lucida Grande', sans-serif" font-size="13">
        <rect fill="white" height="600.0" width="800.0" x="0.0" y="0.0" />
        <g font-size="13">
            <text x="18.0" y="176.0">Small</text>
            <text x="18.0" y="376.0">Medium</text>
            <text x="18.0" y="576.0">Large</text>
        </g>
        <g font-size="9">
            <text x="250.0" y="30.0">Ultralight</text>
            <text x="450.0" y="30.0">Regular</text>
            <text x="650.0" y="30.0">Black</text>
            <text id="template-version" fill="#505050" text-anchor="end" x="785.0" y="575.0">Template v.3.0</text>
            <a href="https://github.com/swhitty/SwiftDraw">
                <text fill="#505050" text-anchor="end" x="785.0" y="590.0">https://github.com/swhitty/SwiftDraw</text>
            </a>
        </g>
    </g>
    <g id="Guides" stroke="rgb(39, 170, 225)" stroke-width="0.5">
        <path id="Capline-S" d="M18,76 l800,0" />
        <path id="H-reference" d="M85,145.755 L87.685,145.755 L113.369,79.287 L114.052,79.287 L114.052,76 L112.148,76 L85,145.755 Z M95.693,121.536 L130.996,121.536 L130.263,119.313 L96.474,119.313 L95.693,121.536 Z M139.15,145.755 L141.787,145.755 L114.638,76 L113.466,76 L113.466,79.287 L139.15,145.755 Z" stroke="none" />
        <path id="Baseline-S" d="M18,146 l800,0" />
        <path id="left-margin-Ultralight-S" d="M220,56 l0,110" />
        <path id="right-margin-Ultralight-S" d="M310,56 l0,110" />
        <path id="left-margin-Regular-S" d="M420,56 l0,110" />
        <path id="right-margin-Regular-S" d="M510,56 l0,110" />
        <path id="left-margin-Black-S" d="M620,56 l0,110" />
        <path id="right-margin-Black-S" d="M710,56 l0,110" />
        <path id="Capline-M" d="M18,276 l800,0" />
        <path id="Baseline-M" d="M18,346 l800,0" />
        <path id="Capline-L" d="M18,476 l800,0" />
        <path id="Baseline-L" d="M18,546 l800,0" />
    </g>
    <g id="Symbols">
        <g id="Ultralight-S">
            <path d="M302.275,85.332 C301.782,84.551 300.923,84.078 300,84.077 L235.385,84.077 C234.295,84.076 233.312,84.732 232.895,85.739 C232.478,86.745 232.709,87.904 233.48,88.674 L247.732,102.923 L233.48,117.172 C232.709,117.942 232.478,119.101 232.895,120.108 C233.312,121.114 234.295,121.77 235.385,121.769 L280.353,121.769 L270.647,142.15 C270.205,143.022 270.271,144.065 270.818,144.875 C271.366,145.685 272.309,146.134 273.283,146.049 C274.257,145.964 275.108,145.358 275.507,144.465 L302.43,87.927 C302.827,87.093 302.768,86.113 302.275,85.332 Z M282.914,116.385 L241.883,116.385 L253.443,104.828 C253.949,104.323 254.233,103.638 254.233,102.923 C254.233,102.209 253.949,101.523 253.443,101.018 L241.883,89.462 L295.729,89.462 Z" />
        </g>
        <g id="Regular-S">
            <path d="M502.275,85.332 C501.782,84.551 500.923,84.078 500,84.077 L435.385,84.077 C434.295,84.076 433.312,84.732 432.895,85.739 C432.478,86.745 432.709,87.904 433.48,88.674 L447.732,102.923 L433.48,117.172 C432.709,117.942 432.478,119.101 432.895,120.108 C433.312,121.114 434.295,121.77 435.385,121.769 L480.353,121.769 L470.647,142.15 C470.205,143.022 470.271,144.065 470.818,144.875 C471.366,145.685 472.309,146.134 473.283,146.049 C474.257,145.964 475.108,145.358 475.507,144.465 L502.43,87.927 C502.827,87.093 502.768,86.113 502.275,85.332 Z M482.914,116.385 L441.883,116.385 L453.443,104.828 C453.949,104.323 454.233,103.638 454.233,102.923 C454.233,102.209 453.949,101.523 453.443,101.018 L441.883,89.462 L495.729,89.462 Z" />
        </g>
        <g id="Black-S">
            <path d="M702.275,85.332 C701.782,84.551 700.923,84.078 700,84.077 L635.385,84.077 C634.295,84.076 633.312,84.732 632.895,85.739 C632.478,86.745 632.709,87.904 633.48,88.674 L647.732,102.923 L633.48,117.172 C632.709,117.942 632.478,119.101 632.895,120.108 C633.312,121.114 634.295,121.77 635.385,121.769 L680.353,121.769 L670.647,142.15 C670.205,143.022 670.271,144.065 670.818,144.875 C671.366,145.685 672.309,146.134 673.283,146.049 C674.257,145.964 675.108,145.358 675.507,144.465 L702.43,87.927 C702.827,87.093 702.768,86.113 702.275,85.332 Z M682.914,116.385 L641.883,116.385 L653.443,104.828 C653.949,104.323 654.233,103.638 654.233,102.923 C654.233,102.209 653.949,101.523 653.443,101.018 L641.883,89.462 L695.729,89.462 Z" />
        </g>
    </g>
</svg>