<?xml version="1.0" encoding="UTF-8"?>
<svg height="600" width="800" xmlns="http://www.w3.org/2000/svg" xmlns:xlink="http://www.w3.org/1999/xlink">
    <g id="Notes" font-family="'LucidaGrande', 'Lucida Grande', sans-serif" font-size="13">
        <rect fill="white" height="600.0" width="800.0" x="0.0" y="0.0" />
        <g font-size="13">
            <text x="18.0" y="176.0">Small</text>
            <text x="18.0" y="376.0">Medium</text>
            <text x="18.0" y="576.0">Large</text>
        </g>
        <g font-size="9">
            <text x="250.0" y="30.0">Ultralight</text>
            <text x="450.0" y="30.0">Regular</text>
            <text x="650.0" y="30.0">Black</text>
            <text id="template-version" fill="#505050" text-anchor="end" x="785.0" y="575.0">Template v.3.0</text>
            <a href="https://github.com/swhitty/SwiftDraw">
                <text fill="#505050" text-anchor="end" x="785.0" y="590.0">https://github.com/swhitty/SwiftDraw</text>
            </a>
        </g>
    </g>
    <g id="Guides" stroke="rgb(39, 170, 225)" stroke-width="0.5">
        <path id="Capline-S" d="M18,76 l800,0" />
        <path id="H-reference" d="M85,145.755 L87.685,145.755 L113.369,79.287 L114.052,79.287 L114.052,76 L112.148,76 L85,145.755 Z M95.693,121.536 L130.996,121.536 L130.263,119.313 L96.474,119.313 L95.693,121.536 Z M139.15,145.755 L141.787,145.755 L114.638,76 L113.466,76 L113.466,79.287 L139.15,145.755 Z" stroke="none" />
        <path id="Baseline-S" d="M18,146 l800,0" />
        <path id="left-margin-Ultralight-S" d="M220,56 l0,110" />
        <path id="right-margin-Ultralight-S" d="M310,56 l0,110" />
        <path id="left-margin-Regular-S" d="M420,56 l0,110" />
        <path id="right-margin-Regular-S" d="M510,56 l0,110" />
        <path id="left-margin-Black-S" d="M620,56 l0,110" />
        <path id="right-margin-Black-S" d="M710,56 l0,110" />
        <path id="Capline-M" d="M18,276 l800,0" />
        <path id="Baseline-M" d="M18,346 l800,0" />
        <path id="Capline-L" d="M18,476 l800,0" />
        <path id="Baseline-L" d="M18,546 l800,0" />
    </g>
    <g id="Symbols">
        <g id="Ultralight-S">
            <path d="M259.615,94.846 C259.615,91.872 262.026,89.462 265,89.462 C267.974,89.462 270.385,91.872 270.385,94.846 C270.385,97.82 267.974,100.231 265,100.231 C263.572,100.231 262.202,99.663 261.193,98.654 C260.183,97.644 259.615,96.274 259.615,94.846 Z M243.462,94.846 C243.462,82.951 253.105,73.308 265,73.308 C276.895,73.308 286.538,82.951 286.538,94.846 C286.538,115.022 267.161,126.326 266.346,126.8 C265.518,127.274 264.502,127.274 263.674,126.8 C262.839,126.326 243.462,115.038 243.462,94.846 Z M248.846,94.846 C248.846,109.048 260.908,118.475 265,121.264 C269.089,118.478 281.154,109.048 281.154,94.846 C281.154,85.925 273.922,78.692 265,78.692 C256.078,78.692 248.846,85.925 248.846,94.846 Z M290.163,117.606 C288.786,117.151 287.295,117.869 286.793,119.23 C286.29,120.591 286.956,122.105 288.299,122.654 C293.855,124.711 297.308,127.463 297.308,129.846 C297.308,134.342 285.017,140.615 265,140.615 C244.983,140.615 232.692,134.342 232.692,129.846 C232.692,127.463 236.145,124.711 241.701,122.658 C243.044,122.108 243.71,120.594 243.207,119.233 C242.705,117.873 241.214,117.155 239.837,117.61 C231.757,120.588 227.308,124.936 227.308,129.846 C227.308,140.339 246.729,146 265,146 C283.271,146 302.692,140.339 302.692,129.846 C302.692,124.936 298.243,120.588 290.163,117.606 Z" />
        </g>
        <g id="Regular-S">
            <path d="M459.615,94.846 C459.615,91.872 462.026,89.462 465,89.462 C467.974,89.462 470.385,91.872 470.385,94.846 C470.385,97.82 467.974,100.231 465,100.231 C463.572,100.231 462.202,99.663 461.193,98.654 C460.183,97.644 459.615,96.274 459.615,94.846 Z M443.462,94.846 C443.462,82.951 453.105,73.308 465,73.308 C476.895,73.308 486.538,82.951 486.538,94.846 C486.538,115.022 467.161,126.326 466.346,126.8 C465.518,127.274 464.502,127.274 463.674,126.8 C462.839,126.326 443.462,115.038 443.462,94.846 Z M448.846,94.846 C448.846,109.048 460.908,118.475 465,121.264 C469.089,118.478 481.154,109.048 481.154,94.846 C481.154,85.925 473.922,78.692 465,78.692 C456.078,78.692 448.846,85.925 448.846,94.846 Z M490.163,117.606 C488.786,117.151 487.295,117.869 486.793,119.23 C486.29,120.591 486.956,122.105 488.299,122.654 C493.855,124.711 497.308,127.463 497.308,129.846 C497.308,134.342 485.017,140.615 465,140.615 C444.983,140.615 432.692,134.342 432.692,129.846 C432.692,127.463 436.145,124.711 441.701,122.658 C443.044,122.108 443.71,120.594 443.207,119.233 C442.705,117.873 441.214,117.155 439.837,117.61 C431.757,120.588 427.308,124.936 427.308,129.846 C427.308,140.339 446.729,146 465,146 C483.271,146 502.692,140.339 502.692,129.846 C502.692,124.936 498.243,120.588 490.163,117.606 Z" />
        </g>
        <g id="Black-S">
            <path d="M659.615,94.846 C659.615,91.872 662.026,89.462 665,89.462 C667.974,89.462 670.385,91.872 670.385,94.846 C670.385,97.82 667.974,100.231 665,100.231 C663.572,100.231 662.202,99.663 661.193,98.654 C660.183,97.644 659.615,96.274 659.615,94.846 Z M643.462,94.846 C643.462,82.951 653.105,73.308 665,73.308 C676.895,73.308 686.538,82.951 686.538,94.846 C686.538,115.022 667.161,126.326 666.346,126.8 C665.518,127.274 664.502,127.274 663.674,126.8 C662.839,126.326 643.462,115.038 643.462,94.846 Z M648.846,94.846 C648.846,109.048 660.908,118.475 665,121.264 C669.089,118.478 681.154,109.048 681.154,94.846 C681.154,85.925 673.922,78.692 665,78.692 C656.078,78.692 648.846,85.925 648.846,94.846 Z M690.163,117.606 C688.786,117.151 687.295,117.869 686.793,119.23 C686.29,120.591 686.956,122.105 688.299,122.654 C693.855,124.711 697.308,127.463 697.308,129.846 C697.308,134.342 685.017,140.615 665,140.615 C644.983,140.615 632.692,134.342 632.692,129.846 C632.692,127.463 636.145,124.711 641.701,122.658 C643.044,122.108 643.71,120.594 643.207,119.233 C642.705,117.873 641.214,117.155 639.837,117.61 C631.757,120.588 627.308,124.936 627.308,129.846 C627.308,140.339 646.729,146 665,146 C683.271,146 702.692,140.339 702.692,129.846 C702.692,124.936 698.243,120.588 690.163,117.606 Z" />
        </g>
    </g>
</svg>