<?xml version="1.0" encoding="UTF-8"?>
<svg height="600" width="800" xmlns="http://www.w3.org/2000/svg" xmlns:xlink="http://www.w3.org/1999/xlink">
    <g id="Notes" font-family="'LucidaGrande', 'Lucida Grande', sans-serif" font-size="13">
        <rect fill="white" height="600.0" width="800.0" x="0.0" y="0.0" />
        <g font-size="13">
            <text x="18.0" y="176.0">Small</text>
            <text x="18.0" y="376.0">Medium</text>
            <text x="18.0" y="576.0">Large</text>
        </g>
        <g font-size="9">
            <text x="250.0" y="30.0">Ultralight</text>
            <text x="450.0" y="30.0">Regular</text>
            <text x="650.0" y="30.0">Black</text>
            <text id="template-version" fill="#505050" text-anchor="end" x="785.0" y="575.0">Template v.3.0</text>
            <a href="https://github.com/swhitty/SwiftDraw">
                <text fill="#505050" text-anchor="end" x="785.0" y="590.0">https://github.com/swhitty/SwiftDraw</text>
            </a>
        </g>
    </g>
    <g id="Guides" stroke="rgb(39, 170, 225)" stroke-width="0.5">
        <path id="Capline-S" d="M18,76 l800,0" />
        <path id="H-reference" d="M85,145.755 L87.685,145.755 L113.369,79.287 L114.052,79.287 L114.052,76 L112.148,76 L85,145.755 Z M95.693,121.536 L130.996,121.536 L130.263,119.313 L96.474,119.313 L95.693,121.536 Z M139.15,145.755 L141.787,145.755 L114.638,76 L113.466,76 L113.466,79.287 L139.15,145.755 Z" stroke="none" />
        <path id="Baseline-S" d="M18,146 l800,0" />
        <path id="left-margin-Ultralight-S" d="M220,56 l0,110" />
        <path id="right-margin-Ultralight-S" d="M310,56 l0,110" />
        <path id="left-margin-Regular-S" d="M420,56 l0,110" />
        <path id="right-margin-Regular-S" d="M510,56 l0,110" />
        <path id="left-margin-Black-S" d="M620,56 l0,110" />
        <path id="right-margin-Black-S" d="M710,56 l0,110" />
        <path id="Capline-M" d="M18,276 l800,0" />
        <path id="Baseline-M" d="M18,346 l800,0" />
        <path id="Capline-L" d="M18,476 l800,0" />
        <path id="Baseline-L" d="M18,546 l800,0" />
    </g>
    <g id="Symbols">
        <g id="Ultralight-S">
            <path d="M295.729,92.154 L283.846,80.271 C282.84,79.256 281.469,78.688 280.04,78.692 L238.077,78.692 C236.649,78.692 235.279,79.26 234.269,80.269 C233.26,81.279 232.692,82.649 232.692,84.077 L232.692,137.923 C232.692,139.351 233.26,140.721 234.269,141.731 C235.279,142.74 236.649,143.308 238.077,143.308 L291.923,143.308 C293.351,143.308 294.721,142.74 295.731,141.731 C296.74,140.721 297.308,139.351 297.308,137.923 L297.308,95.96 C297.312,94.531 296.744,93.16 295.729,92.154 Z M278.462,137.923 L251.538,137.923 L251.538,119.077 L278.462,119.077 Z M291.923,137.923 L283.846,137.923 L283.846,119.077 C283.846,117.649 283.279,116.279 282.269,115.269 C281.259,114.26 279.89,113.692 278.462,113.692 L251.538,113.692 C250.11,113.692 248.741,114.26 247.731,115.269 C246.721,116.279 246.154,117.649 246.154,119.077 L246.154,137.923 L238.077,137.923 L238.077,84.077 L280.04,84.077 L291.923,95.96 Z M275.769,92.154 C275.769,92.868 275.486,93.553 274.981,94.058 C274.476,94.562 273.791,94.846 273.077,94.846 L254.231,94.846 C252.744,94.846 251.538,93.641 251.538,92.154 C251.538,90.667 252.744,89.462 254.231,89.462 L273.077,89.462 C273.791,89.462 274.476,89.745 274.981,90.25 C275.486,90.755 275.769,91.44 275.769,92.154 Z" />
        </g>
        <g id="Regular-S">
            <path d="M495.729,92.154 L483.846,80.271 C482.84,79.256 481.469,78.688 480.04,78.692 L438.077,78.692 C436.649,78.692 435.279,79.26 434.269,80.269 C433.26,81.279 432.692,82.649 432.692,84.077 L432.692,137.923 C432.692,139.351 433.26,140.721 434.269,141.731 C435.279,142.74 436.649,143.308 438.077,143.308 L491.923,143.308 C493.351,143.308 494.721,142.74 495.731,141.731 C496.74,140.721 497.308,139.351 497.308,137.923 L497.308,95.96 C497.312,94.531 496.744,93.16 495.729,92.154 Z M478.462,137.923 L451.538,137.923 L451.538,119.077 L478.462,119.077 Z M491.923,137.923 L483.846,137.923 L483.846,119.077 C483.846,117.649 483.279,116.279 482.269,115.269 C481.259,114.26 479.89,113.692 478.462,113.692 L451.538,113.692 C450.11,113.692 448.741,114.26 447.731,115.269 C446.721,116.279 446.154,117.649 446.154,119.077 L446.154,137.923 L438.077,137.923 L438.077,84.077 L480.04,84.077 L491.923,95.96 Z M475.769,92.154 C475.769,92.868 475.486,93.553 474.981,94.058 C474.476,94.562 473.791,94.846 473.077,94.846 L454.231,94.846 C452.744,94.846 451.538,93.641 451.538,92.154 C451.538,90.667 452.744,89.462 454.231,89.462 L473.077,89.462 C473.791,89.462 474.476,89.745 474.981,90.25 C475.486,90.755 475.769,91.44 475.769,92.154 Z" />
        </g>
        <g id="Black-S">
            <path d="M695.729,92.154 L683.846,80.271 C682.84,79.256 681.469,78.688 680.04,78.692 L638.077,78.692 C636.649,78.692 635.279,79.26 634.269,80.269 C633.26,81.279 632.692,82.649 632.692,84.077 L632.692,137.923 C632.692,139.351 633.26,140.721 634.269,141.731 C635.279,142.74 636.649,143.308 638.077,143.308 L691.923,143.308 C693.351,143.308 694.721,142.74 695.731,141.731 C696.74,140.721 697.308,139.351 697.308,137.923 L697.308,95.96 C697.312,94.531 696.744,93.16 695.729,92.154 Z M678.462,137.923 L651.538,137.923 L651.538,119.077 L678.462,119.077 Z M691.923,137.923 L683.846,137.923 L683.846,119.077 C683.846,117.649 683.279,116.279 682.269,115.269 C681.259,114.26 679.89,113.692 678.462,113.692 L651.538,113.692 C650.11,113.692 648.741,114.26 647.731,115.269 C646.721,116.279 646.154,117.649 646.154,119.077 L646.154,137.923 L638.077,137.923 L638.077,84.077 L680.04,84.077 L691.923,95.96 Z M675.769,92.154 C675.769,92.868 675.486,93.553 674.981,94.058 C674.476,94.562 673.791,94.846 673.077,94.846 L654.231,94.846 C652.744,94.846 651.538,93.641 651.538,92.154 C651.538,90.667 652.744,89.462 654.231,89.462 L673.077,89.462 C673.791,89.462 674.476,89.745 674.981,90.25 C675.486,90.755 675.769,91.44 675.769,92.154 Z" />
        </g>
    </g>
</svg>