<?xml version="1.0" encoding="UTF-8"?>
<svg height="600" width="800" xmlns="http://www.w3.org/2000/svg" xmlns:xlink="http://www.w3.org/1999/xlink">
    <g id="Notes" font-family="'LucidaGrande', 'Lucida Grande', sans-serif" font-size="13">
        <rect fill="white" height="600.0" width="800.0" x="0.0" y="0.0" />
        <g font-size="13">
            <text x="18.0" y="176.0">Small</text>
            <text x="18.0" y="376.0">Medium</text>
            <text x="18.0" y="576.0">Large</text>
        </g>
        <g font-size="9">
            <text x="250.0" y="30.0">Ultralight</text>
            <text x="450.0" y="30.0">Regular</text>
            <text x="650.0" y="30.0">Black</text>
            <text id="template-version" fill="#505050" text-anchor="end" x="785.0" y="575.0">Template v.3.0</text>
            <a href="https://github.com/swhitty/SwiftDraw">
                <text fill="#505050" text-anchor="end" x="785.0" y="590.0">https://github.com/swhitty/SwiftDraw</text>
            </a>
        </g>
    </g>
    <g id="Guides" stroke="rgb(39, 170, 225)" stroke-width="0.5">
        <path id="Capline-S" d="M18,76 l800,0" />
        <path id="H-reference" d="M85,145.755 L87.685,145.755 L113.369,79.287 L114.052,79.287 L114.052,76 L112.148,76 L85,145.755 Z M95.693,121.536 L130.996,121.536 L130.263,119.313 L96.474,119.313 L95.693,121.536 Z M139.15,145.755 L141.787,145.755 L114.638,76 L113.466,76 L113.466,79.287 L139.15,145.755 Z" stroke="none" />
        <path id="Baseline-S" d="M18,146 l800,0" />
        <path id="left-margin-Ultralight-S" d="M220,56 l0,110" />
        <path id="right-margin-Ultralight-S" d="M310,56 l0,110" />
        <path id="left-margin-Regular-S" d="M420,56 l0,110" />
        <path id="right-margin-Regular-S" d="M510,56 l0,110" />
        <path id="left-margin-Black-S" d="M620,56 l0,110" />
        <path id="right-margin-Black-S" d="M710,56 l0,110" />
        <path id="Capline-M" d="M18,276 l800,0" />
        <path id="Baseline-M" d="M18,346 l800,0" />
        <path id="Capline-L" d="M18,476 l800,0" />
        <path id="Baseline-L" d="M18,546 l800,0" />
    </g>
    <g id="Symbols">
        <g id="Ultralight-S">
            <path d="M240.069,79.574 C239.426,78.849 238.442,78.525 237.494,78.728 C236.546,78.93 235.779,79.626 235.488,80.551 C235.196,81.475 235.424,82.486 236.085,83.195 L252.306,101.032 L234.267,119.077 C233.255,120.084 232.688,121.455 232.692,122.883 L232.692,137.923 C232.692,139.351 233.26,140.721 234.269,141.731 C235.279,142.74 236.649,143.308 238.077,143.308 L253.117,143.308 C254.546,143.312 255.917,142.744 256.923,141.729 L273.885,124.771 L289.934,142.426 C290.578,143.151 291.561,143.475 292.51,143.272 C293.458,143.07 294.224,142.374 294.516,141.449 C294.807,140.525 294.579,139.514 293.919,138.805 Z M253.117,137.923 L238.077,137.923 L238.077,122.883 L255.934,105.047 L270.257,120.8 Z M298.425,92.615 L283.385,77.578 C282.375,76.568 281.005,76.001 279.577,76.001 C278.149,76.001 276.779,76.568 275.769,77.578 L261.746,91.602 C260.695,92.654 260.695,94.359 261.748,95.41 C262.8,96.461 264.505,96.46 265.556,95.408 L267.692,93.268 L282.732,108.308 L279.703,111.337 C278.649,112.391 278.648,114.097 279.7,115.15 C280.752,116.203 282.459,116.203 283.512,115.151 L298.425,100.231 C299.435,99.221 300.003,97.851 300.003,96.423 C300.003,94.995 299.435,93.625 298.425,92.615 Z M286.538,104.501 L271.502,89.462 L279.579,81.385 L294.615,96.425 Z" />
        </g>
        <g id="Regular-S">
            <path d="M440.069,79.574 C439.426,78.849 438.442,78.525 437.494,78.728 C436.546,78.93 435.779,79.626 435.488,80.551 C435.196,81.475 435.424,82.486 436.085,83.195 L452.306,101.032 L434.267,119.077 C433.255,120.084 432.688,121.455 432.692,122.883 L432.692,137.923 C432.692,139.351 433.26,140.721 434.269,141.731 C435.279,142.74 436.649,143.308 438.077,143.308 L453.117,143.308 C454.546,143.312 455.917,142.744 456.923,141.729 L473.885,124.771 L489.934,142.426 C490.578,143.151 491.561,143.475 492.51,143.272 C493.458,143.07 494.224,142.374 494.516,141.449 C494.807,140.525 494.579,139.514 493.919,138.805 Z M453.117,137.923 L438.077,137.923 L438.077,122.883 L455.934,105.047 L470.257,120.8 Z M498.425,92.615 L483.385,77.578 C482.375,76.568 481.005,76.001 479.577,76.001 C478.149,76.001 476.779,76.568 475.769,77.578 L461.746,91.602 C460.694,92.654 460.695,94.359 461.748,95.41 C462.8,96.461 464.505,96.46 465.555,95.408 L467.692,93.268 L482.732,108.308 L479.703,111.337 C478.649,112.391 478.648,114.097 479.7,115.15 C480.752,116.203 482.459,116.203 483.512,115.151 L498.425,100.231 C499.435,99.221 500.003,97.851 500.003,96.423 C500.003,94.995 499.435,93.625 498.425,92.615 Z M486.538,104.501 L471.502,89.462 L479.579,81.385 L494.615,96.425 Z" />
        </g>
        <g id="Black-S">
            <path d="M640.069,79.574 C639.426,78.849 638.442,78.525 637.494,78.728 C636.546,78.93 635.779,79.626 635.488,80.551 C635.196,81.475 635.424,82.486 636.085,83.195 L652.306,101.032 L634.267,119.077 C633.255,120.084 632.688,121.455 632.692,122.883 L632.692,137.923 C632.692,139.351 633.26,140.721 634.269,141.731 C635.279,142.74 636.649,143.308 638.077,143.308 L653.117,143.308 C654.546,143.312 655.917,142.744 656.923,141.729 L673.885,124.771 L689.934,142.426 C690.578,143.151 691.561,143.475 692.51,143.272 C693.458,143.07 694.224,142.374 694.516,141.449 C694.807,140.525 694.579,139.514 693.919,138.805 Z M653.117,137.923 L638.077,137.923 L638.077,122.883 L655.934,105.047 L670.257,120.8 Z M698.425,92.615 L683.385,77.578 C682.375,76.568 681.005,76.001 679.577,76.001 C678.149,76.001 676.779,76.568 675.769,77.578 L661.746,91.602 C660.695,92.654 660.695,94.359 661.748,95.41 C662.8,96.461 664.505,96.46 665.556,95.408 L667.692,93.268 L682.732,108.308 L679.703,111.337 C678.649,112.391 678.648,114.097 679.7,115.15 C680.752,116.203 682.459,116.203 683.512,115.151 L698.425,100.231 C699.435,99.221 700.003,97.851 700.003,96.423 C700.003,94.995 699.435,93.625 698.425,92.615 Z M686.538,104.501 L671.502,89.462 L679.579,81.385 L694.615,96.425 Z" />
        </g>
    </g>
</svg>