<?xml version="1.0" encoding="UTF-8"?>
<svg height="600" width="800" xmlns="http://www.w3.org/2000/svg" xmlns:xlink="http://www.w3.org/1999/xlink">
    <g id="Notes" font-family="'LucidaGrande', 'Lucida Grande', sans-serif" font-size="13">
        <rect fill="white" height="600.0" width="800.0" x="0.0" y="0.0" />
        <g font-size="13">
            <text x="18.0" y="176.0">Small</text>
            <text x="18.0" y="376.0">Medium</text>
            <text x="18.0" y="576.0">Large</text>
        </g>
        <g font-size="9">
            <text x="250.0" y="30.0">Ultralight</text>
            <text x="450.0" y="30.0">Regular</text>
            <text x="650.0" y="30.0">Black</text>
            <text id="template-version" fill="#505050" text-anchor="end" x="785.0" y="575.0">Template v.3.0</text>
            <a href="https://github.com/swhitty/SwiftDraw">
                <text fill="#505050" text-anchor="end" x="785.0" y="590.0">https://github.com/swhitty/SwiftDraw</text>
            </a>
        </g>
    </g>
    <g id="Guides" stroke="rgb(39, 170, 225)" stroke-width="0.5">
        <path id="Capline-S" d="M18,76 l800,0" />
        <path id="H-reference" d="M85,145.755 L87.685,145.755 L113.369,79.287 L114.052,79.287 L114.052,76 L112.148,76 L85,145.755 Z M95.693,121.536 L130.996,121.536 L130.263,119.313 L96.474,119.313 L95.693,121.536 Z M139.15,145.755 L141.787,145.755 L114.638,76 L113.466,76 L113.466,79.287 L139.15,145.755 Z" stroke="none" />
        <path id="Baseline-S" d="M18,146 l800,0" />
        <path id="left-margin-Ultralight-S" d="M220,56 l0,110" />
        <path id="right-margin-Ultralight-S" d="M310,56 l0,110" />
        <path id="left-margin-Regular-S" d="M420,56 l0,110" />
        <path id="right-margin-Regular-S" d="M510,56 l0,110" />
        <path id="left-margin-Black-S" d="M620,56 l0,110" />
        <path id="right-margin-Black-S" d="M710,56 l0,110" />
        <path id="Capline-M" d="M18,276 l800,0" />
        <path id="Baseline-M" d="M18,346 l800,0" />
        <path id="Capline-L" d="M18,476 l800,0" />
        <path id="Baseline-L" d="M18,546 l800,0" />
    </g>
    <g id="Symbols">
        <g id="Ultralight-S">
            <path d="M294.615,84.077 L235.385,84.077 C234.671,84.077 233.986,84.361 233.481,84.865 C232.976,85.37 232.692,86.055 232.692,86.769 L232.692,137.923 C232.692,139.351 233.26,140.721 234.269,141.731 C235.279,142.74 236.649,143.308 238.077,143.308 L251.538,143.308 C252.967,143.308 254.336,142.74 255.346,141.731 C256.356,140.721 256.923,139.351 256.923,137.923 L256.923,121.769 L273.077,121.769 L273.077,127.154 C273.077,128.582 273.644,129.952 274.654,130.961 C275.664,131.971 277.033,132.538 278.462,132.538 L291.923,132.538 C293.351,132.538 294.721,131.971 295.731,130.961 C296.74,129.952 297.308,128.582 297.308,127.154 L297.308,86.769 C297.308,86.055 297.024,85.37 296.519,84.865 C296.014,84.361 295.329,84.077 294.615,84.077 Z M251.538,137.923 L238.077,137.923 L238.077,111 L251.538,111 Z M251.538,105.615 L238.077,105.615 L238.077,89.462 L251.538,89.462 Z M273.077,116.385 L256.923,116.385 L256.923,89.462 L273.077,89.462 Z M291.923,127.154 L278.462,127.154 L278.462,111 L291.923,111 Z M291.923,105.615 L278.462,105.615 L278.462,89.462 L291.923,89.462 Z" />
        </g>
        <g id="Regular-S">
            <path d="M494.615,84.077 L435.385,84.077 C434.671,84.077 433.986,84.361 433.481,84.865 C432.976,85.37 432.692,86.055 432.692,86.769 L432.692,137.923 C432.692,139.351 433.26,140.721 434.269,141.731 C435.279,142.74 436.649,143.308 438.077,143.308 L451.538,143.308 C452.967,143.308 454.336,142.74 455.346,141.731 C456.356,140.721 456.923,139.351 456.923,137.923 L456.923,121.769 L473.077,121.769 L473.077,127.154 C473.077,128.582 473.644,129.952 474.654,130.961 C475.664,131.971 477.033,132.538 478.462,132.538 L491.923,132.538 C493.351,132.538 494.721,131.971 495.731,130.961 C496.74,129.952 497.308,128.582 497.308,127.154 L497.308,86.769 C497.308,86.055 497.024,85.37 496.519,84.865 C496.014,84.361 495.329,84.077 494.615,84.077 Z M451.538,137.923 L438.077,137.923 L438.077,111 L451.538,111 Z M451.538,105.615 L438.077,105.615 L438.077,89.462 L451.538,89.462 Z M473.077,116.385 L456.923,116.385 L456.923,89.462 L473.077,89.462 Z M491.923,127.154 L478.462,127.154 L478.462,111 L491.923,111 Z M491.923,105.615 L478.462,105.615 L478.462,89.462 L491.923,89.462 Z" />
        </g>
        <g id="Black-S">
            <path d="M694.615,84.077 L635.385,84.077 C634.671,84.077 633.986,84.361 633.481,84.865 C632.976,85.37 632.692,86.055 632.692,86.769 L632.692,137.923 C632.692,139.351 633.26,140.721 634.269,141.731 C635.279,142.74 636.649,143.308 638.077,143.308 L651.538,143.308 C652.967,143.308 654.336,142.74 655.346,141.731 C656.356,140.721 656.923,139.351 656.923,137.923 L656.923,121.769 L673.077,121.769 L673.077,127.154 C673.077,128.582 673.644,129.952 674.654,130.961 C675.664,131.971 677.033,132.538 678.462,132.538 L691.923,132.538 C693.351,132.538 694.721,131.971 695.731,130.961 C696.74,129.952 697.308,128.582 697.308,127.154 L697.308,86.769 C697.308,86.055 697.024,85.37 696.519,84.865 C696.014,84.361 695.329,84.077 694.615,84.077 Z M651.538,137.923 L638.077,137.923 L638.077,111 L651.538,111 Z M651.538,105.615 L638.077,105.615 L638.077,89.462 L651.538,89.462 Z M673.077,116.385 L656.923,116.385 L656.923,89.462 L673.077,89.462 Z M691.923,127.154 L678.462,127.154 L678.462,111 L691.923,111 Z M691.923,105.615 L678.462,105.615 L678.462,89.462 L691.923,89.462 Z" />
        </g>
    </g>
</svg>