<?xml version="1.0" encoding="UTF-8"?>
<svg height="600" width="800" xmlns="http://www.w3.org/2000/svg" xmlns:xlink="http://www.w3.org/1999/xlink">
    <g id="Notes" font-family="'LucidaGrande', 'Lucida Grande', sans-serif" font-size="13">
        <rect fill="white" height="600.0" width="800.0" x="0.0" y="0.0" />
        <g font-size="13">
            <text x="18.0" y="176.0">Small</text>
            <text x="18.0" y="376.0">Medium</text>
            <text x="18.0" y="576.0">Large</text>
        </g>
        <g font-size="9">
            <text x="250.0" y="30.0">Ultralight</text>
            <text x="450.0" y="30.0">Regular</text>
            <text x="650.0" y="30.0">Black</text>
            <text id="template-version" fill="#505050" text-anchor="end" x="785.0" y="575.0">Template v.3.0</text>
            <a href="https://github.com/swhitty/SwiftDraw">
                <text fill="#505050" text-anchor="end" x="785.0" y="590.0">https://github.com/swhitty/SwiftDraw</text>
            </a>
        </g>
    </g>
    <g id="Guides" stroke="rgb(39, 170, 225)" stroke-width="0.5">
        <path id="Capline-S" d="M18,76 l800,0" />
        <path id="H-reference" d="M85,145.755 L87.685,145.755 L113.369,79.287 L114.052,79.287 L114.052,76 L112.148,76 L85,145.755 Z M95.693,121.536 L130.996,121.536 L130.263,119.313 L96.474,119.313 L95.693,121.536 Z M139.15,145.755 L141.787,145.755 L114.638,76 L113.466,76 L113.466,79.287 L139.15,145.755 Z" stroke="none" />
        <path id="Baseline-S" d="M18,146 l800,0" />
        <path id="left-margin-Ultralight-S" d="M220,56 l0,110" />
        <path id="right-margin-Ultralight-S" d="M310,56 l0,110" />
        <path id="left-margin-Regular-S" d="M420,56 l0,110" />
        <path id="right-margin-Regular-S" d="M510,56 l0,110" />
        <path id="left-margin-Black-S" d="M620,56 l0,110" />
        <path id="right-margin-Black-S" d="M710,56 l0,110" />
        <path id="Capline-M" d="M18,276 l800,0" />
        <path id="Baseline-M" d="M18,346 l800,0" />
        <path id="Capline-L" d="M18,476 l800,0" />
        <path id="Baseline-L" d="M18,546 l800,0" />
    </g>
    <g id="Symbols">
        <g id="Ultralight-S">
            <path d="M299.842,117.25 L281.046,84.972 L281.009,84.908 C277.571,79.373 271.517,76.006 265,76.006 C258.483,76.006 252.429,79.373 248.991,84.908 L248.954,84.972 L230.158,117.25 C226.568,123.062 226.404,130.362 229.73,136.33 C233.057,142.297 239.352,145.997 246.184,146 L283.816,146 C290.648,145.997 296.943,142.297 300.27,136.33 C303.596,130.362 303.432,123.062 299.842,117.25 Z M275.769,140.615 L254.231,140.615 L254.231,124.462 L275.769,124.462 Z M295.578,133.7 C293.23,137.995 288.711,140.652 283.816,140.615 L281.154,140.615 L281.154,124.462 C281.154,123.033 280.587,121.664 279.577,120.654 C278.567,119.644 277.197,119.077 275.769,119.077 L254.231,119.077 C252.803,119.077 251.433,119.644 250.423,120.654 C249.413,121.664 248.846,123.033 248.846,124.462 L248.846,140.615 L246.184,140.615 C241.298,140.617 236.794,137.97 234.418,133.7 C232.041,129.431 232.165,124.208 234.742,120.056 C234.755,120.035 234.768,120.012 234.779,119.989 L253.575,87.715 C256.034,83.779 260.348,81.388 264.99,81.388 C269.631,81.388 273.945,83.779 276.405,87.715 L295.201,119.989 C295.212,120.012 295.224,120.035 295.238,120.056 C297.854,124.195 297.984,129.437 295.575,133.7 Z" />
        </g>
        <g id="Regular-S">
            <path d="M499.842,117.25 L481.046,84.972 L481.009,84.908 C477.571,79.373 471.517,76.006 465,76.006 C458.483,76.006 452.429,79.373 448.991,84.908 L448.954,84.972 L430.158,117.25 C426.568,123.062 426.404,130.362 429.73,136.33 C433.057,142.297 439.352,145.997 446.184,146 L483.816,146 C490.648,145.997 496.943,142.297 500.27,136.33 C503.596,130.362 503.432,123.062 499.842,117.25 Z M475.769,140.615 L454.231,140.615 L454.231,124.462 L475.769,124.462 Z M495.578,133.7 C493.23,137.995 488.711,140.652 483.816,140.615 L481.154,140.615 L481.154,124.462 C481.154,123.033 480.587,121.664 479.577,120.654 C478.567,119.644 477.197,119.077 475.769,119.077 L454.231,119.077 C452.803,119.077 451.433,119.644 450.423,120.654 C449.413,121.664 448.846,123.033 448.846,124.462 L448.846,140.615 L446.184,140.615 C441.298,140.617 436.794,137.97 434.418,133.7 C432.041,129.431 432.165,124.208 434.742,120.056 C434.755,120.035 434.768,120.012 434.779,119.989 L453.574,87.715 C456.034,83.779 460.348,81.388 464.99,81.388 C469.631,81.388 473.945,83.779 476.405,87.715 L495.201,119.989 C495.212,120.012 495.224,120.035 495.238,120.056 C497.854,124.195 497.983,129.437 495.575,133.7 Z" />
        </g>
        <g id="Black-S">
            <path d="M699.842,117.25 L681.046,84.972 L681.009,84.908 C677.571,79.373 671.517,76.006 665,76.006 C658.483,76.006 652.429,79.373 648.991,84.908 L648.954,84.972 L630.158,117.25 C626.568,123.062 626.404,130.362 629.73,136.33 C633.057,142.297 639.352,145.997 646.184,146 L683.816,146 C690.648,145.997 696.943,142.297 700.27,136.33 C703.596,130.362 703.432,123.062 699.842,117.25 Z M675.769,140.615 L654.231,140.615 L654.231,124.462 L675.769,124.462 Z M695.578,133.7 C693.23,137.995 688.711,140.652 683.816,140.615 L681.154,140.615 L681.154,124.462 C681.154,123.033 680.587,121.664 679.577,120.654 C678.567,119.644 677.197,119.077 675.769,119.077 L654.231,119.077 C652.803,119.077 651.433,119.644 650.423,120.654 C649.413,121.664 648.846,123.033 648.846,124.462 L648.846,140.615 L646.184,140.615 C641.298,140.617 636.794,137.97 634.418,133.7 C632.041,129.431 632.165,124.208 634.742,120.056 C634.755,120.035 634.768,120.012 634.779,119.989 L653.575,87.715 C656.034,83.779 660.349,81.388 664.99,81.388 C669.631,81.388 673.945,83.779 676.405,87.715 L695.201,119.989 C695.212,120.012 695.224,120.035 695.238,120.056 C697.854,124.195 697.984,129.437 695.575,133.7 Z" />
        </g>
    </g>
</svg>