<?xml version="1.0" encoding="UTF-8"?>
<svg height="600" width="800" xmlns="http://www.w3.org/2000/svg" xmlns:xlink="http://www.w3.org/1999/xlink">
    <g id="Notes" font-family="'LucidaGrande', 'Lucida Grande', sans-serif" font-size="13">
        <rect fill="white" height="600.0" width="800.0" x="0.0" y="0.0" />
        <g font-size="13">
            <text x="18.0" y="176.0">Small</text>
            <text x="18.0" y="376.0">Medium</text>
            <text x="18.0" y="576.0">Large</text>
        </g>
        <g font-size="9">
            <text x="250.0" y="30.0">Ultralight</text>
            <text x="450.0" y="30.0">Regular</text>
            <text x="650.0" y="30.0">Black</text>
            <text id="template-version" fill="#505050" text-anchor="end" x="785.0" y="575.0">Template v.3.0</text>
            <a href="https://github.com/swhitty/SwiftDraw">
                <text fill="#505050" text-anchor="end" x="785.0" y="590.0">https://github.com/swhitty/SwiftDraw</text>
            </a>
        </g>
    </g>
    <g id="Guides" stroke="rgb(39, 170, 225)" stroke-width="0.5">
        <path id="Capline-S" d="M18,76 l800,0" />
        <path id="H-reference" d="M85,145.755 L87.685,145.755 L113.369,79.287 L114.052,79.287 L114.052,76 L112.148,76 L85,145.755 Z M95.693,121.536 L130.996,121.536 L130.263,119.313 L96.474,119.313 L95.693,121.536 Z M139.15,145.755 L141.787,145.755 L114.638,76 L113.466,76 L113.466,79.287 L139.15,145.755 Z" stroke="none" />
        <path id="Baseline-S" d="M18,146 l800,0" />
        <path id="left-margin-Ultralight-S" d="M220,56 l0,110" />
        <path id="right-margin-Ultralight-S" d="M310,56 l0,110" />
        <path id="left-margin-Regular-S" d="M420,56 l0,110" />
        <path id="right-margin-Regular-S" d="M510,56 l0,110" />
        <path id="left-margin-Black-S" d="M620,56 l0,110" />
        <path id="right-margin-Black-S" d="M710,56 l0,110" />
        <path id="Capline-M" d="M18,276 l800,0" />
        <path id="Baseline-M" d="M18,346 l800,0" />
        <path id="Capline-L" d="M18,476 l800,0" />
        <path id="Baseline-L" d="M18,546 l800,0" />
    </g>
    <g id="Symbols">
        <g id="Ultralight-S">
            <path d="M238.077,81.385 L238.077,140.615 C238.077,142.102 236.872,143.308 235.385,143.308 C233.898,143.308 232.692,142.102 232.692,140.615 L232.692,81.385 C232.692,79.898 233.898,78.692 235.385,78.692 C236.872,78.692 238.077,79.898 238.077,81.385 Z M243.462,102.923 L243.462,89.462 C243.462,88.033 244.029,86.664 245.039,85.654 C246.048,84.644 247.418,84.077 248.846,84.077 L281.154,84.077 C282.582,84.077 283.952,84.644 284.961,85.654 C285.971,86.664 286.538,88.033 286.538,89.462 L286.538,102.923 C286.538,104.351 285.971,105.721 284.961,106.731 C283.952,107.74 282.582,108.308 281.154,108.308 L248.846,108.308 C247.418,108.308 246.048,107.74 245.039,106.731 C244.029,105.721 243.462,104.351 243.462,102.923 Z M248.846,102.923 L281.154,102.923 L281.154,89.462 L248.846,89.462 Z M300,119.077 L300,132.538 C300,133.967 299.433,135.336 298.423,136.346 C297.413,137.356 296.043,137.923 294.615,137.923 L248.846,137.923 C247.418,137.923 246.048,137.356 245.039,136.346 C244.029,135.336 243.462,133.967 243.462,132.538 L243.462,119.077 C243.462,117.649 244.029,116.279 245.039,115.269 C246.048,114.26 247.418,113.692 248.846,113.692 L294.615,113.692 C296.043,113.692 297.413,114.26 298.423,115.269 C299.433,116.279 300,117.649 300,119.077 Z M294.615,132.538 L294.615,119.077 L248.846,119.077 L248.846,132.538 L294.615,132.538 Z" />
        </g>
        <g id="Regular-S">
            <path d="M438.077,81.385 L438.077,140.615 C438.077,142.102 436.872,143.308 435.385,143.308 C433.898,143.308 432.692,142.102 432.692,140.615 L432.692,81.385 C432.692,79.898 433.898,78.692 435.385,78.692 C436.872,78.692 438.077,79.898 438.077,81.385 Z M443.462,102.923 L443.462,89.462 C443.462,88.033 444.029,86.664 445.039,85.654 C446.048,84.644 447.418,84.077 448.846,84.077 L481.154,84.077 C482.582,84.077 483.952,84.644 484.961,85.654 C485.971,86.664 486.538,88.033 486.538,89.462 L486.538,102.923 C486.538,104.351 485.971,105.721 484.961,106.731 C483.952,107.74 482.582,108.308 481.154,108.308 L448.846,108.308 C447.418,108.308 446.048,107.74 445.039,106.731 C444.029,105.721 443.462,104.351 443.462,102.923 Z M448.846,102.923 L481.154,102.923 L481.154,89.462 L448.846,89.462 Z M500,119.077 L500,132.538 C500,133.967 499.433,135.336 498.423,136.346 C497.413,137.356 496.043,137.923 494.615,137.923 L448.846,137.923 C447.418,137.923 446.048,137.356 445.039,136.346 C444.029,135.336 443.462,133.967 443.462,132.538 L443.462,119.077 C443.462,117.649 444.029,116.279 445.039,115.269 C446.048,114.26 447.418,113.692 448.846,113.692 L494.615,113.692 C496.043,113.692 497.413,114.26 498.423,115.269 C499.433,116.279 500,117.649 500,119.077 Z M494.615,132.538 L494.615,119.077 L448.846,119.077 L448.846,132.538 L494.615,132.538 Z" />
        </g>
        <g id="Black-S">
            <path d="M638.077,81.385 L638.077,140.615 C638.077,142.102 636.872,143.308 635.385,143.308 C633.898,143.308 632.692,142.102 632.692,140.615 L632.692,81.385 C632.692,79.898 633.898,78.692 635.385,78.692 C636.872,78.692 638.077,79.898 638.077,81.385 Z M643.462,102.923 L643.462,89.462 C643.462,88.033 644.029,86.664 645.039,85.654 C646.048,84.644 647.418,84.077 648.846,84.077 L681.154,84.077 C682.582,84.077 683.952,84.644 684.961,85.654 C685.971,86.664 686.538,88.033 686.538,89.462 L686.538,102.923 C686.538,104.351 685.971,105.721 684.961,106.731 C683.952,107.74 682.582,108.308 681.154,108.308 L648.846,108.308 C647.418,108.308 646.048,107.74 645.039,106.731 C644.029,105.721 643.462,104.351 643.462,102.923 Z M648.846,102.923 L681.154,102.923 L681.154,89.462 L648.846,89.462 Z M700,119.077 L700,132.538 C700,133.967 699.433,135.336 698.423,136.346 C697.413,137.356 696.044,137.923 694.615,137.923 L648.846,137.923 C647.418,137.923 646.048,137.356 645.039,136.346 C644.029,135.336 643.462,133.967 643.462,132.538 L643.462,119.077 C643.462,117.649 644.029,116.279 645.039,115.269 C646.048,114.26 647.418,113.692 648.846,113.692 L694.615,113.692 C696.044,113.692 697.413,114.26 698.423,115.269 C699.433,116.279 700,117.649 700,119.077 Z M694.615,132.538 L694.615,119.077 L648.846,119.077 L648.846,132.538 L694.615,132.538 Z" />
        </g>
    </g>
</svg>