<?xml version="1.0" encoding="UTF-8"?>
<svg height="600" width="800" xmlns="http://www.w3.org/2000/svg" xmlns:xlink="http://www.w3.org/1999/xlink">
    <g id="Notes" font-family="'LucidaGrande', 'Lucida Grande', sans-serif" font-size="13">
        <rect fill="white" height="600.0" width="800.0" x="0.0" y="0.0" />
        <g font-size="13">
            <text x="18.0" y="176.0">Small</text>
            <text x="18.0" y="376.0">Medium</text>
            <text x="18.0" y="576.0">Large</text>
        </g>
        <g font-size="9">
            <text x="250.0" y="30.0">Ultralight</text>
            <text x="450.0" y="30.0">Regular</text>
            <text x="650.0" y="30.0">Black</text>
            <text id="template-version" fill="#505050" text-anchor="end" x="785.0" y="575.0">Template v.3.0</text>
            <a href="https://github.com/swhitty/SwiftDraw">
                <text fill="#505050" text-anchor="end" x="785.0" y="590.0">https://github.com/swhitty/SwiftDraw</text>
            </a>
        </g>
    </g>
    <g id="Guides" stroke="rgb(39, 170, 225)" stroke-width="0.5">
        <path id="Capline-S" d="M18,76 l800,0" />
        <path id="H-reference" d="M85,145.755 L87.685,145.755 L113.369,79.287 L114.052,79.287 L114.052,76 L112.148,76 L85,145.755 Z M95.693,121.536 L130.996,121.536 L130.263,119.313 L96.474,119.313 L95.693,121.536 Z M139.15,145.755 L141.787,145.755 L114.638,76 L113.466,76 L113.466,79.287 L139.15,145.755 Z" stroke="none" />
        <path id="Baseline-S" d="M18,146 l800,0" />
        <path id="left-margin-Ultralight-S" d="M220,56 l0,110" />
        <path id="right-margin-Ultralight-S" d="M310,56 l0,110" />
        <path id="left-margin-Regular-S" d="M420,56 l0,110" />
        <path id="right-margin-Regular-S" d="M510,56 l0,110" />
        <path id="left-margin-Black-S" d="M620,56 l0,110" />
        <path id="right-margin-Black-S" d="M710,56 l0,110" />
        <path id="Capline-M" d="M18,276 l800,0" />
        <path id="Baseline-M" d="M18,346 l800,0" />
        <path id="Capline-L" d="M18,476 l800,0" />
        <path id="Baseline-L" d="M18,546 l800,0" />
    </g>
    <g id="Symbols">
        <g id="Ultralight-S">
            <path d="M283.846,76 C283.132,76 282.447,76.284 281.942,76.789 C281.438,77.293 281.154,77.978 281.154,78.692 L281.154,83.316 C275.232,76.601 265.773,74.25 257.396,77.411 C249.02,80.572 243.472,88.585 243.462,97.538 L243.462,105.615 C243.472,114.569 249.02,122.582 257.397,125.743 C265.774,128.904 275.232,126.552 281.154,119.837 L281.154,124.462 C281.145,133.379 273.918,140.606 265,140.615 C259.464,140.615 253.989,137.896 251.054,133.689 C250.203,132.47 248.525,132.172 247.305,133.023 C246.086,133.874 245.788,135.553 246.639,136.772 C250.549,142.379 257.758,146 265,146 C276.89,145.987 286.525,136.352 286.538,124.462 L286.538,78.692 C286.538,77.978 286.255,77.293 285.75,76.789 C285.245,76.284 284.56,76 283.846,76 Z M265,121.769 C256.082,121.76 248.855,114.533 248.846,105.615 L248.846,97.538 C248.846,88.617 256.078,81.385 265,81.385 C273.922,81.385 281.154,88.617 281.154,97.538 L281.154,105.615 C281.145,114.533 273.918,121.76 265,121.769 Z" />
        </g>
        <g id="Regular-S">
            <path d="M483.846,76 C483.132,76 482.447,76.284 481.942,76.789 C481.438,77.293 481.154,77.978 481.154,78.692 L481.154,83.316 C475.232,76.601 465.773,74.25 457.396,77.411 C449.02,80.572 443.472,88.585 443.462,97.538 L443.462,105.615 C443.472,114.569 449.02,122.582 457.397,125.743 C465.774,128.904 475.232,126.552 481.154,119.837 L481.154,124.462 C481.145,133.379 473.918,140.606 465,140.615 C459.464,140.615 453.989,137.896 451.054,133.689 C450.203,132.47 448.525,132.172 447.305,133.023 C446.086,133.874 445.788,135.553 446.639,136.772 C450.549,142.379 457.758,146 465,146 C476.89,145.987 486.525,136.352 486.538,124.462 L486.538,78.692 C486.538,77.978 486.255,77.293 485.75,76.789 C485.245,76.284 484.56,76 483.846,76 Z M465,121.769 C456.082,121.76 448.855,114.533 448.846,105.615 L448.846,97.538 C448.846,88.617 456.078,81.385 465,81.385 C473.922,81.385 481.154,88.617 481.154,97.538 L481.154,105.615 C481.145,114.533 473.918,121.76 465,121.769 Z" />
        </g>
        <g id="Black-S">
            <path d="M683.846,76 C683.132,76 682.447,76.284 681.942,76.789 C681.438,77.293 681.154,77.978 681.154,78.692 L681.154,83.316 C675.232,76.601 665.773,74.25 657.396,77.411 C649.02,80.572 643.472,88.585 643.462,97.538 L643.462,105.615 C643.472,114.569 649.02,122.582 657.397,125.743 C665.774,128.904 675.232,126.552 681.154,119.837 L681.154,124.462 C681.145,133.379 673.918,140.606 665,140.615 C659.464,140.615 653.989,137.896 651.054,133.689 C650.203,132.47 648.525,132.172 647.305,133.023 C646.086,133.874 645.788,135.553 646.639,136.772 C650.549,142.379 657.758,146 665,146 C676.89,145.987 686.526,136.352 686.538,124.462 L686.538,78.692 C686.538,77.978 686.255,77.293 685.75,76.789 C685.245,76.284 684.56,76 683.846,76 Z M665,121.769 C656.082,121.76 648.855,114.533 648.846,105.615 L648.846,97.538 C648.846,88.617 656.078,81.385 665,81.385 C673.922,81.385 681.154,88.617 681.154,97.538 L681.154,105.615 C681.145,114.533 673.918,121.76 665,121.769 Z" />
        </g>
    </g>
</svg>