<?xml version="1.0" encoding="UTF-8"?>
<svg height="600" width="800" xmlns="http://www.w3.org/2000/svg" xmlns:xlink="http://www.w3.org/1999/xlink">
    <g id="Notes" font-family="'LucidaGrande', 'Lucida Grande', sans-serif" font-size="13">
        <rect fill="white" height="600.0" width="800.0" x="0.0" y="0.0" />
        <g font-size="13">
            <text x="18.0" y="176.0">Small</text>
            <text x="18.0" y="376.0">Medium</text>
            <text x="18.0" y="576.0">Large</text>
        </g>
        <g font-size="9">
            <text x="250.0" y="30.0">Ultralight</text>
            <text x="450.0" y="30.0">Regular</text>
            <text x="650.0" y="30.0">Black</text>
            <text id="template-version" fill="#505050" text-anchor="end" x="785.0" y="575.0">Template v.3.0</text>
            <a href="https://github.com/swhitty/SwiftDraw">
                <text fill="#505050" text-anchor="end" x="785.0" y="590.0">https://github.com/swhitty/SwiftDraw</text>
            </a>
        </g>
    </g>
    <g id="Guides" stroke="rgb(39, 170, 225)" stroke-width="0.5">
        <path id="Capline-S" d="M18,76 l800,0" />
        <path id="H-reference" d="M85,145.755 L87.685,145.755 L113.369,79.287 L114.052,79.287 L114.052,76 L112.148,76 L85,145.755 Z M95.693,121.536 L130.996,121.536 L130.263,119.313 L96.474,119.313 L95.693,121.536 Z M139.15,145.755 L141.787,145.755 L114.638,76 L113.466,76 L113.466,79.287 L139.15,145.755 Z" stroke="none" />
        <path id="Baseline-S" d="M18,146 l800,0" />
        <path id="left-margin-Ultralight-S" d="M220,56 l0,110" />
        <path id="right-margin-Ultralight-S" d="M310,56 l0,110" />
        <path id="left-margin-Regular-S" d="M420,56 l0,110" />
        <path id="right-margin-Regular-S" d="M510,56 l0,110" />
        <path id="left-margin-Black-S" d="M620,56 l0,110" />
        <path id="right-margin-Black-S" d="M710,56 l0,110" />
        <path id="Capline-M" d="M18,276 l800,0" />
        <path id="Baseline-M" d="M18,346 l800,0" />
        <path id="Capline-L" d="M18,476 l800,0" />
        <path id="Baseline-L" d="M18,546 l800,0" />
    </g>
    <g id="Symbols">
        <g id="Ultralight-S">
            <path d="M232.692,89.462 C232.692,88.747 232.976,88.063 233.481,87.558 C233.986,87.053 234.671,86.769 235.385,86.769 L294.615,86.769 C296.102,86.769 297.308,87.975 297.308,89.462 C297.308,90.948 296.102,92.154 294.615,92.154 L235.385,92.154 C234.671,92.154 233.986,91.87 233.481,91.365 C232.976,90.86 232.692,90.176 232.692,89.462 Z M235.385,113.692 L275.769,113.692 C277.256,113.692 278.462,112.487 278.462,111 C278.462,109.513 277.256,108.308 275.769,108.308 L235.385,108.308 C233.898,108.308 232.692,109.513 232.692,111 C232.692,112.487 233.898,113.692 235.385,113.692 Z M259.615,129.846 L235.385,129.846 C233.898,129.846 232.692,131.052 232.692,132.538 C232.692,134.025 233.898,135.231 235.385,135.231 L259.615,135.231 C261.102,135.231 262.308,134.025 262.308,132.538 C262.308,131.052 261.102,129.846 259.615,129.846 Z M305.27,110.428 C305.065,111.115 304.594,111.691 303.963,112.03 C303.331,112.368 302.59,112.441 301.905,112.232 L291.923,109.233 L291.923,132.538 C291.931,137.423 288.656,141.703 283.939,142.972 C279.222,144.24 274.242,142.181 271.798,137.952 C269.354,133.723 270.057,128.38 273.512,124.927 C276.967,121.474 282.311,120.774 286.538,123.22 L286.538,105.615 C286.539,104.764 286.941,103.963 287.624,103.456 C288.307,102.948 289.19,102.793 290.005,103.038 L303.466,107.076 C304.89,107.504 305.697,109.004 305.27,110.428 Z M286.538,132.538 C286.538,129.565 284.128,127.154 281.154,127.154 C278.18,127.154 275.769,129.565 275.769,132.538 C275.769,135.512 278.18,137.923 281.154,137.923 C282.582,137.923 283.952,137.356 284.961,136.346 C285.971,135.336 286.538,133.967 286.538,132.538 Z" />
        </g>
        <g id="Regular-S">
            <path d="M432.692,89.462 C432.692,88.747 432.976,88.063 433.481,87.558 C433.986,87.053 434.671,86.769 435.385,86.769 L494.615,86.769 C496.102,86.769 497.308,87.975 497.308,89.462 C497.308,90.948 496.102,92.154 494.615,92.154 L435.385,92.154 C434.671,92.154 433.986,91.87 433.481,91.365 C432.976,90.86 432.692,90.176 432.692,89.462 Z M435.385,113.692 L475.769,113.692 C477.256,113.692 478.462,112.487 478.462,111 C478.462,109.513 477.256,108.308 475.769,108.308 L435.385,108.308 C433.898,108.308 432.692,109.513 432.692,111 C432.692,112.487 433.898,113.692 435.385,113.692 Z M459.615,129.846 L435.385,129.846 C433.898,129.846 432.692,131.052 432.692,132.538 C432.692,134.025 433.898,135.231 435.385,135.231 L459.615,135.231 C461.102,135.231 462.308,134.025 462.308,132.538 C462.308,131.052 461.102,129.846 459.615,129.846 Z M505.27,110.428 C505.065,111.115 504.594,111.691 503.963,112.03 C503.331,112.368 502.59,112.441 501.905,112.232 L491.923,109.233 L491.923,132.538 C491.931,137.423 488.656,141.703 483.939,142.972 C479.222,144.24 474.242,142.181 471.798,137.952 C469.354,133.723 470.057,128.38 473.512,124.927 C476.967,121.474 482.311,120.774 486.538,123.22 L486.538,105.615 C486.539,104.764 486.941,103.963 487.624,103.456 C488.307,102.948 489.19,102.793 490.005,103.038 L503.466,107.076 C504.89,107.504 505.697,109.004 505.27,110.428 Z M486.538,132.538 C486.538,129.565 484.128,127.154 481.154,127.154 C478.18,127.154 475.769,129.565 475.769,132.538 C475.769,135.512 478.18,137.923 481.154,137.923 C482.582,137.923 483.952,137.356 484.961,136.346 C485.971,135.336 486.538,133.967 486.538,132.538 Z" />
        </g>
        <g id="Black-S">
            <path d="M632.692,89.462 C632.692,88.747 632.976,88.063 633.481,87.558 C633.986,87.053 634.671,86.769 635.385,86.769 L694.615,86.769 C696.102,86.769 697.308,87.975 697.308,89.462 C697.308,90.948 696.102,92.154 694.615,92.154 L635.385,92.154 C634.671,92.154 633.986,91.87 633.481,91.365 C632.976,90.86 632.692,90.176 632.692,89.462 Z M635.385,113.692 L675.769,113.692 C677.256,113.692 678.462,112.487 678.462,111 C678.462,109.513 677.256,108.308 675.769,108.308 L635.385,108.308 C633.898,108.308 632.692,109.513 632.692,111 C632.692,112.487 633.898,113.692 635.385,113.692 Z M659.615,129.846 L635.385,129.846 C633.898,129.846 632.692,131.052 632.692,132.538 C632.692,134.025 633.898,135.231 635.385,135.231 L659.615,135.231 C661.102,135.231 662.308,134.025 662.308,132.538 C662.308,131.052 661.102,129.846 659.615,129.846 Z M705.27,110.428 C705.065,111.115 704.594,111.691 703.963,112.03 C703.331,112.368 702.59,112.441 701.905,112.232 L691.923,109.233 L691.923,132.538 C691.931,137.423 688.656,141.703 683.939,142.972 C679.222,144.24 674.242,142.181 671.798,137.952 C669.354,133.723 670.057,128.38 673.512,124.927 C676.967,121.474 682.311,120.774 686.538,123.22 L686.538,105.615 C686.539,104.764 686.941,103.963 687.624,103.456 C688.307,102.948 689.19,102.793 690.005,103.038 L703.466,107.076 C704.89,107.504 705.697,109.004 705.27,110.428 Z M686.538,132.538 C686.538,129.565 684.128,127.154 681.154,127.154 C678.18,127.154 675.769,129.565 675.769,132.538 C675.769,135.512 678.18,137.923 681.154,137.923 C682.582,137.923 683.952,137.356 684.961,136.346 C685.971,135.336 686.538,133.967 686.538,132.538 Z" />
        </g>
    </g>
</svg>