<?xml version="1.0" encoding="UTF-8"?>
<svg height="600" width="800" xmlns="http://www.w3.org/2000/svg" xmlns:xlink="http://www.w3.org/1999/xlink">
    <g id="Notes" font-family="'LucidaGrande', 'Lucida Grande', sans-serif" font-size="13">
        <rect fill="white" height="600.0" width="800.0" x="0.0" y="0.0" />
        <g font-size="13">
            <text x="18.0" y="176.0">Small</text>
            <text x="18.0" y="376.0">Medium</text>
            <text x="18.0" y="576.0">Large</text>
        </g>
        <g font-size="9">
            <text x="250.0" y="30.0">Ultralight</text>
            <text x="450.0" y="30.0">Regular</text>
            <text x="650.0" y="30.0">Black</text>
            <text id="template-version" fill="#505050" text-anchor="end" x="785.0" y="575.0">Template v.3.0</text>
            <a href="https://github.com/swhitty/SwiftDraw">
                <text fill="#505050" text-anchor="end" x="785.0" y="590.0">https://github.com/swhitty/SwiftDraw</text>
            </a>
        </g>
    </g>
    <g id="Guides" stroke="rgb(39, 170, 225)" stroke-width="0.5">
        <path id="Capline-S" d="M18,76 l800,0" />
        <path id="H-reference" d="M85,145.755 L87.685,145.755 L113.369,79.287 L114.052,79.287 L114.052,76 L112.148,76 L85,145.755 Z M95.693,121.536 L130.996,121.536 L130.263,119.313 L96.474,119.313 L95.693,121.536 Z M139.15,145.755 L141.787,145.755 L114.638,76 L113.466,76 L113.466,79.287 L139.15,145.755 Z" stroke="none" />
        <path id="Baseline-S" d="M18,146 l800,0" />
        <path id="left-margin-Ultralight-S" d="M220,56 l0,110" />
        <path id="right-margin-Ultralight-S" d="M310,56 l0,110" />
        <path id="left-margin-Regular-S" d="M420,56 l0,110" />
        <path id="right-margin-Regular-S" d="M510,56 l0,110" />
        <path id="left-margin-Black-S" d="M620,56 l0,110" />
        <path id="right-margin-Black-S" d="M710,56 l0,110" />
        <path id="Capline-M" d="M18,276 l800,0" />
        <path id="Baseline-M" d="M18,346 l800,0" />
        <path id="Capline-L" d="M18,476 l800,0" />
        <path id="Baseline-L" d="M18,546 l800,0" />
    </g>
    <g id="Symbols">
        <g id="Ultralight-S">
            <path d="M252.326,88.674 C251.82,88.169 251.536,87.484 251.536,86.769 C251.536,86.055 251.82,85.369 252.326,84.864 L263.095,74.095 C263.6,73.59 264.285,73.306 265,73.306 C265.715,73.306 266.4,73.59 266.905,74.095 L277.674,84.864 C278.727,85.918 278.726,87.624 277.673,88.675 C276.62,89.727 274.915,89.726 273.863,88.673 L267.692,82.499 L267.692,100.231 C267.692,101.718 266.487,102.923 265,102.923 C263.513,102.923 262.308,101.718 262.308,100.231 L262.308,82.499 L256.136,88.674 C255.631,89.18 254.945,89.464 254.231,89.464 C253.516,89.464 252.831,89.18 252.326,88.674 Z M273.864,133.326 L267.692,139.501 L267.692,121.769 C267.692,120.282 266.487,119.077 265,119.077 C263.513,119.077 262.308,120.282 262.308,121.769 L262.308,139.501 L256.136,133.326 C255.085,132.274 253.38,132.273 252.327,133.325 C251.274,134.376 251.273,136.082 252.325,137.135 L263.094,147.904 C263.599,148.409 264.284,148.693 264.999,148.693 C265.714,148.693 266.399,148.409 266.904,147.904 L277.673,137.135 C278.725,136.081 278.725,134.375 277.672,133.324 C276.619,132.272 274.914,132.273 273.862,133.326 Z M301.905,109.095 L291.136,98.326 C290.085,97.274 288.38,97.273 287.327,98.325 C286.274,99.376 286.273,101.082 287.325,102.135 L293.501,108.308 L275.769,108.308 C274.282,108.308 273.077,109.513 273.077,111 C273.077,112.487 274.282,113.692 275.769,113.692 L293.501,113.692 L287.326,119.864 C286.273,120.918 286.274,122.624 287.327,123.675 C288.38,124.727 290.085,124.726 291.137,123.673 L301.906,112.904 C302.411,112.399 302.695,111.714 302.694,110.999 C302.694,110.285 302.41,109.6 301.905,109.095 Z M236.499,113.692 L254.231,113.692 C255.718,113.692 256.923,112.487 256.923,111 C256.923,109.513 255.718,108.308 254.231,108.308 L236.499,108.308 L242.674,102.136 C243.727,101.082 243.726,99.376 242.673,98.325 C241.62,97.273 239.915,97.274 238.863,98.327 L228.094,109.096 C227.589,109.601 227.305,110.286 227.305,111.001 C227.305,111.716 227.589,112.401 228.094,112.906 L238.863,123.675 C239.914,124.727 241.619,124.728 242.672,123.676 C243.725,122.625 243.725,120.919 242.674,119.867 Z" />
        </g>
        <g id="Regular-S">
            <path d="M452.326,88.674 C451.82,88.169 451.536,87.484 451.536,86.769 C451.536,86.055 451.82,85.369 452.326,84.864 L463.095,74.095 C463.6,73.59 464.285,73.306 465,73.306 C465.715,73.306 466.4,73.59 466.905,74.095 L477.674,84.864 C478.727,85.918 478.726,87.624 477.673,88.675 C476.62,89.727 474.915,89.726 473.863,88.673 L467.692,82.499 L467.692,100.231 C467.692,101.718 466.487,102.923 465,102.923 C463.513,102.923 462.308,101.718 462.308,100.231 L462.308,82.499 L456.136,88.674 C455.631,89.18 454.945,89.464 454.231,89.464 C453.516,89.464 452.831,89.18 452.326,88.674 Z M473.864,133.326 L467.692,139.501 L467.692,121.769 C467.692,120.282 466.487,119.077 465,119.077 C463.513,119.077 462.308,120.282 462.308,121.769 L462.308,139.501 L456.136,133.326 C455.085,132.274 453.38,132.273 452.327,133.325 C451.274,134.376 451.273,136.082 452.325,137.135 L463.094,147.904 C463.599,148.409 464.284,148.693 464.999,148.693 C465.714,148.693 466.399,148.409 466.904,147.904 L477.673,137.135 C478.725,136.081 478.724,134.375 477.672,133.324 C476.619,132.272 474.914,132.273 473.862,133.326 Z M501.905,109.095 L491.136,98.326 C490.085,97.274 488.38,97.273 487.327,98.325 C486.274,99.376 486.273,101.082 487.325,102.135 L493.501,108.308 L475.769,108.308 C474.282,108.308 473.077,109.513 473.077,111 C473.077,112.487 474.282,113.692 475.769,113.692 L493.501,113.692 L487.326,119.864 C486.273,120.918 486.274,122.624 487.327,123.675 C488.38,124.727 490.085,124.726 491.137,123.673 L501.906,112.904 C502.411,112.399 502.695,111.714 502.694,110.999 C502.694,110.285 502.41,109.6 501.905,109.095 Z M436.499,113.692 L454.231,113.692 C455.718,113.692 456.923,112.487 456.923,111 C456.923,109.513 455.718,108.308 454.231,108.308 L436.499,108.308 L442.674,102.136 C443.727,101.082 443.726,99.376 442.673,98.325 C441.62,97.273 439.915,97.274 438.863,98.327 L428.094,109.096 C427.589,109.601 427.305,110.286 427.305,111.001 C427.305,111.716 427.589,112.401 428.094,112.906 L438.863,123.675 C439.914,124.727 441.619,124.728 442.672,123.676 C443.724,122.625 443.725,120.919 442.674,119.867 Z" />
        </g>
        <g id="Black-S">
            <path d="M652.326,88.674 C651.82,88.169 651.536,87.484 651.536,86.769 C651.536,86.055 651.82,85.369 652.326,84.864 L663.095,74.095 C663.6,73.59 664.285,73.306 665,73.306 C665.715,73.306 666.4,73.59 666.905,74.095 L677.674,84.864 C678.727,85.918 678.726,87.624 677.673,88.675 C676.62,89.727 674.915,89.726 673.863,88.673 L667.692,82.499 L667.692,100.231 C667.692,101.718 666.487,102.923 665,102.923 C663.513,102.923 662.308,101.718 662.308,100.231 L662.308,82.499 L656.136,88.674 C655.631,89.18 654.945,89.464 654.231,89.464 C653.516,89.464 652.831,89.18 652.326,88.674 Z M673.864,133.326 L667.692,139.501 L667.692,121.769 C667.692,120.282 666.487,119.077 665,119.077 C663.513,119.077 662.308,120.282 662.308,121.769 L662.308,139.501 L656.136,133.326 C655.085,132.274 653.38,132.273 652.327,133.325 C651.274,134.376 651.273,136.082 652.325,137.135 L663.094,147.904 C663.599,148.409 664.284,148.693 664.999,148.693 C665.714,148.693 666.399,148.409 666.904,147.904 L677.673,137.135 C678.725,136.081 678.725,134.375 677.672,133.324 C676.619,132.272 674.914,132.273 673.862,133.326 Z M701.905,109.095 L691.136,98.326 C690.085,97.274 688.38,97.273 687.327,98.325 C686.274,99.376 686.273,101.082 687.325,102.135 L693.501,108.308 L675.769,108.308 C674.282,108.308 673.077,109.513 673.077,111 C673.077,112.487 674.282,113.692 675.769,113.692 L693.501,113.692 L687.326,119.864 C686.273,120.918 686.274,122.624 687.327,123.675 C688.38,124.727 690.085,124.726 691.137,123.673 L701.906,112.904 C702.411,112.399 702.695,111.714 702.694,110.999 C702.694,110.285 702.41,109.6 701.905,109.095 Z M636.499,113.692 L654.231,113.692 C655.718,113.692 656.923,112.487 656.923,111 C656.923,109.513 655.718,108.308 654.231,108.308 L636.499,108.308 L642.674,102.136 C643.727,101.082 643.726,99.376 642.673,98.325 C641.62,97.273 639.915,97.274 638.863,98.327 L628.094,109.096 C627.589,109.601 627.305,110.286 627.305,111.001 C627.305,111.716 627.589,112.401 628.094,112.906 L638.863,123.675 C639.914,124.727 641.619,124.728 642.672,123.676 C643.725,122.625 643.725,120.919 642.674,119.867 Z" />
        </g>
    </g>
</svg>