<?xml version="1.0" encoding="UTF-8"?>
<svg height="600" width="800" xmlns="http://www.w3.org/2000/svg" xmlns:xlink="http://www.w3.org/1999/xlink">
    <g id="Notes" font-family="'LucidaGrande', 'Lucida Grande', sans-serif" font-size="13">
        <rect fill="white" height="600.0" width="800.0" x="0.0" y="0.0" />
        <g font-size="13">
            <text x="18.0" y="176.0">Small</text>
            <text x="18.0" y="376.0">Medium</text>
            <text x="18.0" y="576.0">Large</text>
        </g>
        <g font-size="9">
            <text x="250.0" y="30.0">Ultralight</text>
            <text x="450.0" y="30.0">Regular</text>
            <text x="650.0" y="30.0">Black</text>
            <text id="template-version" fill="#505050" text-anchor="end" x="785.0" y="575.0">Template v.3.0</text>
            <a href="https://github.com/swhitty/SwiftDraw">
                <text fill="#505050" text-anchor="end" x="785.0" y="590.0">https://github.com/swhitty/SwiftDraw</text>
            </a>
        </g>
    </g>
    <g id="Guides" stroke="rgb(39, 170, 225)" stroke-width="0.5">
        <path id="Capline-S" d="M18,76 l800,0" />
        <path id="H-reference" d="M85,145.755 L87.685,145.755 L113.369,79.287 L114.052,79.287 L114.052,76 L112.148,76 L85,145.755 Z M95.693,121.536 L130.996,121.536 L130.263,119.313 L96.474,119.313 L95.693,121.536 Z M139.15,145.755 L141.787,145.755 L114.638,76 L113.466,76 L113.466,79.287 L139.15,145.755 Z" stroke="none" />
        <path id="Baseline-S" d="M18,146 l800,0" />
        <path id="left-margin-Ultralight-S" d="M220,56 l0,110" />
        <path id="right-margin-Ultralight-S" d="M310,56 l0,110" />
        <path id="left-margin-Regular-S" d="M420,56 l0,110" />
        <path id="right-margin-Regular-S" d="M510,56 l0,110" />
        <path id="left-margin-Black-S" d="M620,56 l0,110" />
        <path id="right-margin-Black-S" d="M710,56 l0,110" />
        <path id="Capline-M" d="M18,276 l800,0" />
        <path id="Baseline-M" d="M18,346 l800,0" />
        <path id="Capline-L" d="M18,476 l800,0" />
        <path id="Baseline-L" d="M18,546 l800,0" />
    </g>
    <g id="Symbols">
        <g id="Ultralight-S">
            <path d="M299.438,115.395 C297.407,113.833 294.764,113.306 292.29,113.972 L278.209,117.209 C278.873,114.405 278.217,111.452 276.43,109.193 C274.643,106.933 271.92,105.615 269.038,105.615 L252.191,105.615 C249.334,105.608 246.592,106.744 244.575,108.769 L236.963,116.385 L227.308,116.385 C225.88,116.385 224.51,116.952 223.5,117.962 C222.49,118.972 221.923,120.341 221.923,121.769 L221.923,135.231 C221.923,136.659 222.49,138.028 223.5,139.038 C224.51,140.048 225.88,140.615 227.308,140.615 L262.308,140.615 C262.528,140.615 262.747,140.588 262.961,140.535 L284.499,135.15 C284.637,135.117 284.772,135.072 284.903,135.015 L297.981,129.449 L298.129,129.382 C300.685,128.105 302.401,125.6 302.67,122.755 C302.939,119.911 301.723,117.129 299.451,115.395 Z M235.385,135.231 L227.308,135.231 L227.308,121.769 L235.385,121.769 Z M295.77,124.532 L282.981,129.977 L261.971,135.231 L240.769,135.231 L240.769,120.191 L248.385,112.578 C249.391,111.564 250.762,110.995 252.191,111 L269.038,111 C271.269,111 273.077,112.808 273.077,115.038 C273.077,117.269 271.269,119.077 269.038,119.077 L259.615,119.077 C258.128,119.077 256.923,120.282 256.923,121.769 C256.923,123.256 258.128,124.462 259.615,124.462 L270.385,124.462 C270.587,124.461 270.789,124.438 270.987,124.394 L293.535,119.208 L293.639,119.181 C295.065,118.786 296.559,119.529 297.104,120.904 C297.649,122.279 297.069,123.844 295.76,124.532 Z M273.864,88.674 C273.359,88.169 273.075,87.484 273.075,86.769 C273.075,86.055 273.359,85.369 273.864,84.864 L284.634,74.095 C285.139,73.59 285.824,73.306 286.538,73.306 C287.253,73.306 287.938,73.59 288.443,74.095 L299.212,84.864 C300.265,85.918 300.264,87.624 299.211,88.675 C298.159,89.727 296.453,89.726 295.402,88.673 L289.231,82.499 L289.231,102.923 C289.231,104.41 288.025,105.615 286.538,105.615 C285.052,105.615 283.846,104.41 283.846,102.923 L283.846,82.499 L277.674,88.674 C277.169,89.18 276.484,89.464 275.769,89.464 C275.055,89.464 274.369,89.18 273.864,88.674 Z" />
        </g>
        <g id="Regular-S">
            <path d="M499.438,115.395 C497.407,113.833 494.764,113.306 492.29,113.972 L478.209,117.209 C478.873,114.405 478.217,111.452 476.43,109.193 C474.643,106.933 471.92,105.615 469.038,105.615 L452.191,105.615 C449.334,105.608 446.592,106.744 444.575,108.769 L436.963,116.385 L427.308,116.385 C425.88,116.385 424.51,116.952 423.5,117.962 C422.49,118.972 421.923,120.341 421.923,121.769 L421.923,135.231 C421.923,136.659 422.49,138.028 423.5,139.038 C424.51,140.048 425.88,140.615 427.308,140.615 L462.308,140.615 C462.528,140.615 462.747,140.588 462.961,140.535 L484.499,135.15 C484.637,135.117 484.772,135.072 484.903,135.015 L497.981,129.449 L498.129,129.382 C500.685,128.105 502.401,125.6 502.67,122.755 C502.939,119.911 501.723,117.129 499.451,115.395 Z M435.385,135.231 L427.308,135.231 L427.308,121.769 L435.385,121.769 Z M495.77,124.532 L482.981,129.977 L461.971,135.231 L440.769,135.231 L440.769,120.191 L448.385,112.578 C449.391,111.564 450.762,110.995 452.191,111 L469.038,111 C471.269,111 473.077,112.808 473.077,115.038 C473.077,117.269 471.269,119.077 469.038,119.077 L459.615,119.077 C458.128,119.077 456.923,120.282 456.923,121.769 C456.923,123.256 458.128,124.462 459.615,124.462 L470.385,124.462 C470.587,124.461 470.789,124.438 470.987,124.394 L493.535,119.208 L493.639,119.181 C495.065,118.786 496.559,119.529 497.104,120.904 C497.649,122.279 497.069,123.844 495.76,124.532 Z M473.864,88.674 C473.359,88.169 473.075,87.484 473.075,86.769 C473.075,86.055 473.359,85.369 473.864,84.864 L484.634,74.095 C485.139,73.59 485.824,73.306 486.538,73.306 C487.253,73.306 487.938,73.59 488.443,74.095 L499.212,84.864 C500.265,85.918 500.264,87.624 499.211,88.675 C498.159,89.727 496.453,89.726 495.402,88.673 L489.231,82.499 L489.231,102.923 C489.231,104.41 488.025,105.615 486.538,105.615 C485.052,105.615 483.846,104.41 483.846,102.923 L483.846,82.499 L477.674,88.674 C477.169,89.18 476.484,89.464 475.769,89.464 C475.055,89.464 474.369,89.18 473.864,88.674 Z" />
        </g>
        <g id="Black-S">
            <path d="M699.438,115.395 C697.407,113.833 694.764,113.306 692.29,113.972 L678.209,117.209 C678.873,114.405 678.217,111.452 676.43,109.193 C674.643,106.933 671.92,105.615 669.038,105.615 L652.191,105.615 C649.334,105.608 646.592,106.744 644.576,108.769 L636.963,116.385 L627.308,116.385 C625.88,116.385 624.51,116.952 623.5,117.962 C622.49,118.972 621.923,120.341 621.923,121.769 L621.923,135.231 C621.923,136.659 622.49,138.028 623.5,139.038 C624.51,140.048 625.88,140.615 627.308,140.615 L662.308,140.615 C662.528,140.615 662.747,140.588 662.961,140.535 L684.499,135.15 C684.637,135.117 684.772,135.072 684.903,135.015 L697.981,129.449 L698.129,129.382 C700.685,128.105 702.401,125.6 702.67,122.755 C702.939,119.911 701.723,117.129 699.451,115.395 Z M635.385,135.231 L627.308,135.231 L627.308,121.769 L635.385,121.769 Z M695.77,124.532 L682.981,129.977 L661.971,135.231 L640.769,135.231 L640.769,120.191 L648.385,112.578 C649.391,111.564 650.763,110.995 652.191,111 L669.038,111 C671.269,111 673.077,112.808 673.077,115.038 C673.077,117.269 671.269,119.077 669.038,119.077 L659.615,119.077 C658.128,119.077 656.923,120.282 656.923,121.769 C656.923,123.256 658.128,124.462 659.615,124.462 L670.385,124.462 C670.587,124.461 670.789,124.438 670.987,124.394 L693.535,119.208 L693.639,119.181 C695.065,118.786 696.559,119.529 697.104,120.904 C697.649,122.279 697.069,123.844 695.76,124.532 Z M673.864,88.674 C673.359,88.169 673.075,87.484 673.075,86.769 C673.075,86.055 673.359,85.369 673.864,84.864 L684.634,74.095 C685.139,73.59 685.824,73.306 686.538,73.306 C687.253,73.306 687.938,73.59 688.443,74.095 L699.213,84.864 C700.265,85.918 700.264,87.624 699.211,88.675 C698.159,89.727 696.453,89.726 695.402,88.673 L689.231,82.499 L689.231,102.923 C689.231,104.41 688.025,105.615 686.538,105.615 C685.052,105.615 683.846,104.41 683.846,102.923 L683.846,82.499 L677.674,88.674 C677.169,89.18 676.484,89.464 675.769,89.464 C675.055,89.464 674.369,89.18 673.864,88.674 Z" />
        </g>
    </g>
</svg>