<?xml version="1.0" encoding="UTF-8"?>
<svg height="600" width="800" xmlns="http://www.w3.org/2000/svg" xmlns:xlink="http://www.w3.org/1999/xlink">
    <g id="Notes" font-family="'LucidaGrande', 'Lucida Grande', sans-serif" font-size="13">
        <rect fill="white" height="600.0" width="800.0" x="0.0" y="0.0" />
        <g font-size="13">
            <text x="18.0" y="176.0">Small</text>
            <text x="18.0" y="376.0">Medium</text>
            <text x="18.0" y="576.0">Large</text>
        </g>
        <g font-size="9">
            <text x="250.0" y="30.0">Ultralight</text>
            <text x="450.0" y="30.0">Regular</text>
            <text x="650.0" y="30.0">Black</text>
            <text id="template-version" fill="#505050" text-anchor="end" x="785.0" y="575.0">Template v.3.0</text>
            <a href="https://github.com/swhitty/SwiftDraw">
                <text fill="#505050" text-anchor="end" x="785.0" y="590.0">https://github.com/swhitty/SwiftDraw</text>
            </a>
        </g>
    </g>
    <g id="Guides" stroke="rgb(39, 170, 225)" stroke-width="0.5">
        <path id="Capline-S" d="M18,76 l800,0" />
        <path id="H-reference" d="M85,145.755 L87.685,145.755 L113.369,79.287 L114.052,79.287 L114.052,76 L112.148,76 L85,145.755 Z M95.693,121.536 L130.996,121.536 L130.263,119.313 L96.474,119.313 L95.693,121.536 Z M139.15,145.755 L141.787,145.755 L114.638,76 L113.466,76 L113.466,79.287 L139.15,145.755 Z" stroke="none" />
        <path id="Baseline-S" d="M18,146 l800,0" />
        <path id="left-margin-Ultralight-S" d="M220,56 l0,110" />
        <path id="right-margin-Ultralight-S" d="M310,56 l0,110" />
        <path id="left-margin-Regular-S" d="M420,56 l0,110" />
        <path id="right-margin-Regular-S" d="M510,56 l0,110" />
        <path id="left-margin-Black-S" d="M620,56 l0,110" />
        <path id="right-margin-Black-S" d="M710,56 l0,110" />
        <path id="Capline-M" d="M18,276 l800,0" />
        <path id="Baseline-M" d="M18,346 l800,0" />
        <path id="Capline-L" d="M18,476 l800,0" />
        <path id="Baseline-L" d="M18,546 l800,0" />
    </g>
    <g id="Symbols">
        <g id="Ultralight-S">
            <path d="M291.25,76.905 C290.738,76.328 290.003,75.998 289.231,76 L240.769,76 C239.996,76 239.261,76.332 238.749,76.911 C238.238,77.491 238.001,78.262 238.097,79.029 L245.888,143.981 C246.227,146.675 248.52,148.695 251.236,148.692 L278.764,148.692 C281.49,148.693 283.787,146.657 284.112,143.95 L291.903,79.029 C292.001,78.26 291.763,77.486 291.25,76.905 Z M286.202,81.385 L285.226,89.462 L244.774,89.462 L243.798,81.385 Z M278.764,143.308 L251.236,143.308 L245.42,94.846 L284.58,94.846 Z" />
        </g>
        <g id="Regular-S">
            <path d="M491.25,76.905 C490.738,76.328 490.002,75.998 489.231,76 L440.769,76 C439.996,76 439.261,76.332 438.749,76.911 C438.238,77.491 438,78.262 438.097,79.029 L445.888,143.981 C446.227,146.675 448.52,148.695 451.236,148.692 L478.764,148.692 C481.49,148.693 483.787,146.657 484.112,143.95 L491.903,79.029 C492.001,78.26 491.763,77.486 491.25,76.905 Z M486.202,81.385 L485.226,89.462 L444.774,89.462 L443.798,81.385 Z M478.764,143.308 L451.236,143.308 L445.42,94.846 L484.58,94.846 Z" />
        </g>
        <g id="Black-S">
            <path d="M691.25,76.905 C690.738,76.328 690.003,75.998 689.231,76 L640.769,76 C639.996,76 639.261,76.332 638.749,76.911 C638.238,77.491 638.001,78.262 638.097,79.029 L645.888,143.981 C646.227,146.675 648.52,148.695 651.236,148.692 L678.764,148.692 C681.49,148.693 683.787,146.657 684.112,143.95 L691.903,79.029 C692.001,78.26 691.763,77.486 691.25,76.905 Z M686.202,81.385 L685.226,89.462 L644.774,89.462 L643.798,81.385 Z M678.764,143.308 L651.236,143.308 L645.42,94.846 L684.58,94.846 Z" />
        </g>
    </g>
</svg>