<?xml version="1.0" encoding="UTF-8"?>
<svg height="600" width="800" xmlns="http://www.w3.org/2000/svg" xmlns:xlink="http://www.w3.org/1999/xlink">
    <g id="Notes" font-family="'LucidaGrande', 'Lucida Grande', sans-serif" font-size="13">
        <rect fill="white" height="600.0" width="800.0" x="0.0" y="0.0" />
        <g font-size="13">
            <text x="18.0" y="176.0">Small</text>
            <text x="18.0" y="376.0">Medium</text>
            <text x="18.0" y="576.0">Large</text>
        </g>
        <g font-size="9">
            <text x="250.0" y="30.0">Ultralight</text>
            <text x="450.0" y="30.0">Regular</text>
            <text x="650.0" y="30.0">Black</text>
            <text id="template-version" fill="#505050" text-anchor="end" x="785.0" y="575.0">Template v.3.0</text>
            <a href="https://github.com/swhitty/SwiftDraw">
                <text fill="#505050" text-anchor="end" x="785.0" y="590.0">https://github.com/swhitty/SwiftDraw</text>
            </a>
        </g>
    </g>
    <g id="Guides" stroke="rgb(39, 170, 225)" stroke-width="0.5">
        <path id="Capline-S" d="M18,76 l800,0" />
        <path id="H-reference" d="M85,145.755 L87.685,145.755 L113.369,79.287 L114.052,79.287 L114.052,76 L112.148,76 L85,145.755 Z M95.693,121.536 L130.996,121.536 L130.263,119.313 L96.474,119.313 L95.693,121.536 Z M139.15,145.755 L141.787,145.755 L114.638,76 L113.466,76 L113.466,79.287 L139.15,145.755 Z" stroke="none" />
        <path id="Baseline-S" d="M18,146 l800,0" />
        <path id="left-margin-Ultralight-S" d="M220,56 l0,110" />
        <path id="right-margin-Ultralight-S" d="M310,56 l0,110" />
        <path id="left-margin-Regular-S" d="M420,56 l0,110" />
        <path id="right-margin-Regular-S" d="M510,56 l0,110" />
        <path id="left-margin-Black-S" d="M620,56 l0,110" />
        <path id="right-margin-Black-S" d="M710,56 l0,110" />
        <path id="Capline-M" d="M18,276 l800,0" />
        <path id="Baseline-M" d="M18,346 l800,0" />
        <path id="Capline-L" d="M18,476 l800,0" />
        <path id="Baseline-L" d="M18,546 l800,0" />
    </g>
    <g id="Symbols">
        <g id="Ultralight-S">
            <path d="M248.846,78.692 L240.769,78.692 C239.341,78.692 237.972,79.26 236.962,80.269 C235.952,81.279 235.385,82.649 235.385,84.077 L235.385,137.923 C235.385,139.351 235.952,140.721 236.962,141.731 C237.972,142.74 239.341,143.308 240.769,143.308 L248.846,143.308 C250.274,143.308 251.644,142.74 252.654,141.731 C253.663,140.721 254.231,139.351 254.231,137.923 L254.231,84.077 C254.231,82.649 253.663,81.279 252.654,80.269 C251.644,79.26 250.274,78.692 248.846,78.692 Z M248.846,137.923 L240.769,137.923 L240.769,84.077 L248.846,84.077 Z M273.077,78.692 L265,78.692 C263.572,78.692 262.202,79.26 261.193,80.269 C260.183,81.279 259.615,82.649 259.615,84.077 L259.615,137.923 C259.615,139.351 260.183,140.721 261.193,141.731 C262.202,142.74 263.572,143.308 265,143.308 L273.077,143.308 C274.505,143.308 275.875,142.74 276.884,141.731 C277.894,140.721 278.462,139.351 278.462,137.923 L278.462,84.077 C278.462,82.649 277.894,81.279 276.884,80.269 C275.875,79.26 274.505,78.692 273.077,78.692 Z M273.077,137.923 L265,137.923 L265,84.077 L273.077,84.077 Z M305.385,111 C305.385,111.714 305.101,112.399 304.596,112.904 C304.091,113.409 303.406,113.692 302.692,113.692 L297.308,113.692 L297.308,119.077 C297.308,120.564 296.102,121.769 294.615,121.769 C293.128,121.769 291.923,120.564 291.923,119.077 L291.923,113.692 L286.538,113.692 C285.052,113.692 283.846,112.487 283.846,111 C283.846,109.513 285.052,108.308 286.538,108.308 L291.923,108.308 L291.923,102.923 C291.923,101.436 293.128,100.231 294.615,100.231 C296.102,100.231 297.308,101.436 297.308,102.923 L297.308,108.308 L302.692,108.308 C303.406,108.308 304.091,108.591 304.596,109.096 C305.101,109.601 305.385,110.286 305.385,111 Z" />
        </g>
        <g id="Regular-S">
            <path d="M448.846,78.692 L440.769,78.692 C439.341,78.692 437.972,79.26 436.962,80.269 C435.952,81.279 435.385,82.649 435.385,84.077 L435.385,137.923 C435.385,139.351 435.952,140.721 436.962,141.731 C437.972,142.74 439.341,143.308 440.769,143.308 L448.846,143.308 C450.274,143.308 451.644,142.74 452.654,141.731 C453.663,140.721 454.231,139.351 454.231,137.923 L454.231,84.077 C454.231,82.649 453.663,81.279 452.654,80.269 C451.644,79.26 450.274,78.692 448.846,78.692 Z M448.846,137.923 L440.769,137.923 L440.769,84.077 L448.846,84.077 Z M473.077,78.692 L465,78.692 C463.572,78.692 462.202,79.26 461.193,80.269 C460.183,81.279 459.615,82.649 459.615,84.077 L459.615,137.923 C459.615,139.351 460.183,140.721 461.193,141.731 C462.202,142.74 463.572,143.308 465,143.308 L473.077,143.308 C474.505,143.308 475.875,142.74 476.884,141.731 C477.894,140.721 478.462,139.351 478.462,137.923 L478.462,84.077 C478.462,82.649 477.894,81.279 476.884,80.269 C475.875,79.26 474.505,78.692 473.077,78.692 Z M473.077,137.923 L465,137.923 L465,84.077 L473.077,84.077 Z M505.385,111 C505.385,111.714 505.101,112.399 504.596,112.904 C504.091,113.409 503.406,113.692 502.692,113.692 L497.308,113.692 L497.308,119.077 C497.308,120.564 496.102,121.769 494.615,121.769 C493.128,121.769 491.923,120.564 491.923,119.077 L491.923,113.692 L486.538,113.692 C485.052,113.692 483.846,112.487 483.846,111 C483.846,109.513 485.052,108.308 486.538,108.308 L491.923,108.308 L491.923,102.923 C491.923,101.436 493.128,100.231 494.615,100.231 C496.102,100.231 497.308,101.436 497.308,102.923 L497.308,108.308 L502.692,108.308 C503.406,108.308 504.091,108.591 504.596,109.096 C505.101,109.601 505.385,110.286 505.385,111 Z" />
        </g>
        <g id="Black-S">
            <path d="M648.846,78.692 L640.769,78.692 C639.341,78.692 637.972,79.26 636.962,80.269 C635.952,81.279 635.385,82.649 635.385,84.077 L635.385,137.923 C635.385,139.351 635.952,140.721 636.962,141.731 C637.972,142.74 639.341,143.308 640.769,143.308 L648.846,143.308 C650.274,143.308 651.644,142.74 652.654,141.731 C653.663,140.721 654.231,139.351 654.231,137.923 L654.231,84.077 C654.231,82.649 653.663,81.279 652.654,80.269 C651.644,79.26 650.274,78.692 648.846,78.692 Z M648.846,137.923 L640.769,137.923 L640.769,84.077 L648.846,84.077 Z M673.077,78.692 L665,78.692 C663.572,78.692 662.202,79.26 661.193,80.269 C660.183,81.279 659.615,82.649 659.615,84.077 L659.615,137.923 C659.615,139.351 660.183,140.721 661.193,141.731 C662.202,142.74 663.572,143.308 665,143.308 L673.077,143.308 C674.505,143.308 675.875,142.74 676.884,141.731 C677.894,140.721 678.462,139.351 678.462,137.923 L678.462,84.077 C678.462,82.649 677.894,81.279 676.884,80.269 C675.875,79.26 674.505,78.692 673.077,78.692 Z M673.077,137.923 L665,137.923 L665,84.077 L673.077,84.077 Z M705.385,111 C705.385,111.714 705.101,112.399 704.596,112.904 C704.091,113.409 703.406,113.692 702.692,113.692 L697.308,113.692 L697.308,119.077 C697.308,120.564 696.102,121.769 694.615,121.769 C693.128,121.769 691.923,120.564 691.923,119.077 L691.923,113.692 L686.538,113.692 C685.052,113.692 683.846,112.487 683.846,111 C683.846,109.513 685.052,108.308 686.538,108.308 L691.923,108.308 L691.923,102.923 C691.923,101.436 693.128,100.231 694.615,100.231 C696.102,100.231 697.308,101.436 697.308,102.923 L697.308,108.308 L702.692,108.308 C703.406,108.308 704.091,108.591 704.596,109.096 C705.101,109.601 705.385,110.286 705.385,111 Z" />
        </g>
    </g>
</svg>