<?xml version="1.0" encoding="UTF-8"?>
<svg height="600" width="800" xmlns="http://www.w3.org/2000/svg" xmlns:xlink="http://www.w3.org/1999/xlink">
    <g id="Notes" font-family="'LucidaGrande', 'Lucida Grande', sans-serif" font-size="13">
        <rect fill="white" height="600.0" width="800.0" x="0.0" y="0.0" />
        <g font-size="13">
            <text x="18.0" y="176.0">Small</text>
            <text x="18.0" y="376.0">Medium</text>
            <text x="18.0" y="576.0">Large</text>
        </g>
        <g font-size="9">
            <text x="250.0" y="30.0">Ultralight</text>
            <text x="450.0" y="30.0">Regular</text>
            <text x="650.0" y="30.0">Black</text>
            <text id="template-version" fill="#505050" text-anchor="end" x="785.0" y="575.0">Template v.3.0</text>
            <a href="https://github.com/swhitty/SwiftDraw">
                <text fill="#505050" text-anchor="end" x="785.0" y="590.0">https://github.com/swhitty/SwiftDraw</text>
            </a>
        </g>
    </g>
    <g id="Guides" stroke="rgb(39, 170, 225)" stroke-width="0.5">
        <path id="Capline-S" d="M18,76 l800,0" />
        <path id="H-reference" d="M85,145.755 L87.685,145.755 L113.369,79.287 L114.052,79.287 L114.052,76 L112.148,76 L85,145.755 Z M95.693,121.536 L130.996,121.536 L130.263,119.313 L96.474,119.313 L95.693,121.536 Z M139.15,145.755 L141.787,145.755 L114.638,76 L113.466,76 L113.466,79.287 L139.15,145.755 Z" stroke="none" />
        <path id="Baseline-S" d="M18,146 l800,0" />
        <path id="left-margin-Ultralight-S" d="M220,56 l0,110" />
        <path id="right-margin-Ultralight-S" d="M310,56 l0,110" />
        <path id="left-margin-Regular-S" d="M420,56 l0,110" />
        <path id="right-margin-Regular-S" d="M510,56 l0,110" />
        <path id="left-margin-Black-S" d="M620,56 l0,110" />
        <path id="right-margin-Black-S" d="M710,56 l0,110" />
        <path id="Capline-M" d="M18,276 l800,0" />
        <path id="Baseline-M" d="M18,346 l800,0" />
        <path id="Capline-L" d="M18,476 l800,0" />
        <path id="Baseline-L" d="M18,546 l800,0" />
    </g>
    <g id="Symbols">
        <g id="Ultralight-S">
            <path d="M286.538,119.077 L286.538,102.923 C286.538,101.436 287.744,100.231 289.231,100.231 C290.718,100.231 291.923,101.436 291.923,102.923 L291.923,119.077 C291.923,120.564 290.718,121.769 289.231,121.769 C287.744,121.769 286.538,120.564 286.538,119.077 Z M300,94.846 C299.286,94.846 298.601,95.13 298.096,95.635 C297.591,96.14 297.308,96.824 297.308,97.538 L297.308,124.462 C297.308,125.948 298.513,127.154 300,127.154 C301.487,127.154 302.692,125.948 302.692,124.462 L302.692,97.538 C302.692,96.824 302.409,96.14 301.904,95.635 C301.399,95.13 300.714,94.846 300,94.846 Z M296.608,138.805 C297.268,139.514 297.496,140.525 297.205,141.449 C296.913,142.374 296.147,143.07 295.198,143.272 C294.25,143.475 293.266,143.151 292.623,142.426 L278.462,126.848 L278.462,143.308 C278.461,144.336 277.875,145.273 276.951,145.725 C276.028,146.176 274.928,146.062 274.117,145.431 L250.613,127.154 L235.385,127.154 C233.957,127.154 232.587,126.587 231.577,125.577 C230.567,124.567 230,123.197 230,121.769 L230,100.231 C230,98.803 230.567,97.433 231.577,96.423 C232.587,95.413 233.957,94.846 235.385,94.846 L249.368,94.846 L238.777,83.195 C237.799,82.092 237.889,80.408 238.98,79.416 C240.071,78.425 241.757,78.495 242.762,79.574 Z M273.077,120.925 L254.264,100.231 L235.385,100.231 L235.385,121.769 L251.538,121.769 C252.137,121.768 252.719,121.969 253.191,122.338 L273.077,137.802 Z M264.011,91.249 L273.077,84.181 L273.077,103.859 C273.077,105.346 274.282,106.551 275.769,106.551 C277.256,106.551 278.462,105.346 278.462,103.859 L278.462,78.692 C278.461,77.664 277.875,76.727 276.951,76.275 C276.028,75.824 274.928,75.938 274.117,76.569 L260.706,87.001 C259.556,87.921 259.359,89.594 260.263,90.756 C261.166,91.918 262.836,92.139 264.011,91.252 Z" />
        </g>
        <g id="Regular-S">
            <path d="M486.538,119.077 L486.538,102.923 C486.538,101.436 487.744,100.231 489.231,100.231 C490.718,100.231 491.923,101.436 491.923,102.923 L491.923,119.077 C491.923,120.564 490.718,121.769 489.231,121.769 C487.744,121.769 486.538,120.564 486.538,119.077 Z M500,94.846 C499.286,94.846 498.601,95.13 498.096,95.635 C497.591,96.14 497.308,96.824 497.308,97.538 L497.308,124.462 C497.308,125.948 498.513,127.154 500,127.154 C501.487,127.154 502.692,125.948 502.692,124.462 L502.692,97.538 C502.692,96.824 502.409,96.14 501.904,95.635 C501.399,95.13 500.714,94.846 500,94.846 Z M496.608,138.805 C497.268,139.514 497.496,140.525 497.205,141.449 C496.913,142.374 496.147,143.07 495.198,143.272 C494.25,143.475 493.266,143.151 492.623,142.426 L478.462,126.848 L478.462,143.308 C478.461,144.336 477.875,145.273 476.951,145.725 C476.028,146.176 474.928,146.062 474.117,145.431 L450.613,127.154 L435.385,127.154 C433.957,127.154 432.587,126.587 431.577,125.577 C430.567,124.567 430,123.197 430,121.769 L430,100.231 C430,98.803 430.567,97.433 431.577,96.423 C432.587,95.413 433.957,94.846 435.385,94.846 L449.368,94.846 L438.777,83.195 C437.799,82.092 437.889,80.408 438.98,79.416 C440.071,78.425 441.757,78.495 442.762,79.574 Z M473.077,120.925 L454.264,100.231 L435.385,100.231 L435.385,121.769 L451.538,121.769 C452.137,121.768 452.719,121.969 453.191,122.338 L473.077,137.802 Z M464.011,91.249 L473.077,84.181 L473.077,103.859 C473.077,105.346 474.282,106.551 475.769,106.551 C477.256,106.551 478.462,105.346 478.462,103.859 L478.462,78.692 C478.461,77.664 477.875,76.727 476.951,76.275 C476.028,75.824 474.928,75.938 474.117,76.569 L460.706,87.001 C459.556,87.921 459.359,89.594 460.263,90.756 C461.166,91.918 462.836,92.139 464.01,91.252 Z" />
        </g>
        <g id="Black-S">
            <path d="M686.538,119.077 L686.538,102.923 C686.538,101.436 687.744,100.231 689.231,100.231 C690.718,100.231 691.923,101.436 691.923,102.923 L691.923,119.077 C691.923,120.564 690.718,121.769 689.231,121.769 C687.744,121.769 686.538,120.564 686.538,119.077 Z M700,94.846 C699.286,94.846 698.601,95.13 698.096,95.635 C697.591,96.14 697.308,96.824 697.308,97.538 L697.308,124.462 C697.308,125.948 698.513,127.154 700,127.154 C701.487,127.154 702.692,125.948 702.692,124.462 L702.692,97.538 C702.692,96.824 702.409,96.14 701.904,95.635 C701.399,95.13 700.714,94.846 700,94.846 Z M696.608,138.805 C697.268,139.514 697.496,140.525 697.205,141.449 C696.913,142.374 696.147,143.07 695.198,143.272 C694.25,143.475 693.266,143.151 692.623,142.426 L678.462,126.848 L678.462,143.308 C678.461,144.336 677.875,145.273 676.951,145.725 C676.028,146.176 674.928,146.062 674.117,145.431 L650.613,127.154 L635.385,127.154 C633.957,127.154 632.587,126.587 631.577,125.577 C630.567,124.567 630,123.197 630,121.769 L630,100.231 C630,98.803 630.567,97.433 631.577,96.423 C632.587,95.413 633.957,94.846 635.385,94.846 L649.368,94.846 L638.777,83.195 C637.799,82.092 637.889,80.408 638.98,79.416 C640.071,78.425 641.757,78.495 642.762,79.574 Z M673.077,120.925 L654.264,100.231 L635.385,100.231 L635.385,121.769 L651.538,121.769 C652.137,121.768 652.719,121.969 653.191,122.338 L673.077,137.802 Z M664.011,91.249 L673.077,84.181 L673.077,103.859 C673.077,105.346 674.282,106.551 675.769,106.551 C677.256,106.551 678.462,105.346 678.462,103.859 L678.462,78.692 C678.461,77.664 677.875,76.727 676.951,76.275 C676.028,75.824 674.928,75.938 674.117,76.569 L660.706,87.001 C659.556,87.921 659.359,89.594 660.263,90.756 C661.166,91.918 662.836,92.139 664.011,91.252 Z" />
        </g>
    </g>
</svg>