<?xml version="1.0" encoding="UTF-8"?>
<svg height="600" width="800" xmlns="http://www.w3.org/2000/svg" xmlns:xlink="http://www.w3.org/1999/xlink">
    <g id="Notes" font-family="'LucidaGrande', 'Lucida Grande', sans-serif" font-size="13">
        <rect fill="white" height="600.0" width="800.0" x="0.0" y="0.0" />
        <g font-size="13">
            <text x="18.0" y="176.0">Small</text>
            <text x="18.0" y="376.0">Medium</text>
            <text x="18.0" y="576.0">Large</text>
        </g>
        <g font-size="9">
            <text x="250.0" y="30.0">Ultralight</text>
            <text x="450.0" y="30.0">Regular</text>
            <text x="650.0" y="30.0">Black</text>
            <text id="template-version" fill="#505050" text-anchor="end" x="785.0" y="575.0">Template v.3.0</text>
            <a href="https://github.com/swhitty/SwiftDraw">
                <text fill="#505050" text-anchor="end" x="785.0" y="590.0">https://github.com/swhitty/SwiftDraw</text>
            </a>
        </g>
    </g>
    <g id="Guides" stroke="rgb(39, 170, 225)" stroke-width="0.5">
        <path id="Capline-S" d="M18,76 l800,0" />
        <path id="H-reference" d="M85,145.755 L87.685,145.755 L113.369,79.287 L114.052,79.287 L114.052,76 L112.148,76 L85,145.755 Z M95.693,121.536 L130.996,121.536 L130.263,119.313 L96.474,119.313 L95.693,121.536 Z M139.15,145.755 L141.787,145.755 L114.638,76 L113.466,76 L113.466,79.287 L139.15,145.755 Z" stroke="none" />
        <path id="Baseline-S" d="M18,146 l800,0" />
        <path id="left-margin-Ultralight-S" d="M220,56 l0,110" />
        <path id="right-margin-Ultralight-S" d="M310,56 l0,110" />
        <path id="left-margin-Regular-S" d="M420,56 l0,110" />
        <path id="right-margin-Regular-S" d="M510,56 l0,110" />
        <path id="left-margin-Black-S" d="M620,56 l0,110" />
        <path id="right-margin-Black-S" d="M710,56 l0,110" />
        <path id="Capline-M" d="M18,276 l800,0" />
        <path id="Baseline-M" d="M18,346 l800,0" />
        <path id="Capline-L" d="M18,476 l800,0" />
        <path id="Baseline-L" d="M18,546 l800,0" />
    </g>
    <g id="Symbols">
        <g id="Ultralight-S">
            <path d="M259.615,102.923 C259.615,103.637 259.332,104.322 258.827,104.827 C258.322,105.332 257.637,105.615 256.923,105.615 L254.231,105.615 L254.231,119.077 C254.231,120.564 253.025,121.769 251.538,121.769 C250.052,121.769 248.846,120.564 248.846,119.077 L248.846,105.615 L246.154,105.615 C244.667,105.615 243.462,104.41 243.462,102.923 C243.462,101.436 244.667,100.231 246.154,100.231 L256.923,100.231 C257.637,100.231 258.322,100.514 258.827,101.019 C259.332,101.524 259.615,102.209 259.615,102.923 Z M300,99.134 L300,119.077 C300,126.068 294.644,131.897 287.675,132.488 C284.399,140.637 276.502,145.98 267.719,145.992 C258.935,146.003 251.025,140.679 247.728,132.538 L235.385,132.538 C233.957,132.538 232.587,131.971 231.577,130.961 C230.567,129.951 230,128.582 230,127.154 L230,94.846 C230,93.418 230.567,92.048 231.577,91.039 C232.587,90.029 233.957,89.462 235.385,89.462 L254.503,89.462 C253.204,83.06 256.688,76.65 262.766,74.258 C268.845,71.866 275.763,74.182 279.175,79.752 C283.433,77.706 288.527,78.673 291.738,82.138 C294.95,85.603 295.528,90.756 293.165,94.846 L295.713,94.846 C298.079,94.85 299.996,96.767 300,99.134 Z M259.615,86.769 C259.615,87.685 259.772,88.596 260.079,89.46 L267.692,89.46 C269.974,89.463 272.005,90.903 272.764,93.054 C275.692,90.692 276.601,86.62 274.956,83.236 C273.31,79.852 269.546,78.053 265.88,78.897 C262.213,79.742 259.615,83.007 259.615,86.769 Z M267.692,127.154 L267.692,127.154 L267.692,94.846 L235.385,94.846 L235.385,127.154 L267.692,127.154 Z M283.846,100.231 L273.077,100.231 L273.077,127.154 C273.077,128.582 272.51,129.952 271.5,130.961 C270.49,131.971 269.12,132.538 267.692,132.538 L253.706,132.538 C257.363,138.867 264.814,141.951 271.874,140.059 C278.934,138.168 283.844,131.771 283.846,124.462 Z M289.231,89.462 C289.229,87.511 288.172,85.714 286.468,84.764 C284.764,83.814 282.68,83.86 281.019,84.885 C281.523,88.413 280.603,91.997 278.462,94.846 L283.846,94.846 C285.274,94.846 286.644,94.279 287.654,93.269 C288.663,92.259 289.231,90.89 289.231,89.462 Z M294.615,100.231 L289.231,100.231 L289.231,124.462 C289.231,125.218 289.191,125.977 289.11,126.731 C292.398,125.627 294.614,122.546 294.615,119.077 Z" />
        </g>
        <g id="Regular-S">
            <path d="M459.615,102.923 C459.615,103.637 459.332,104.322 458.827,104.827 C458.322,105.332 457.637,105.615 456.923,105.615 L454.231,105.615 L454.231,119.077 C454.231,120.564 453.025,121.769 451.538,121.769 C450.052,121.769 448.846,120.564 448.846,119.077 L448.846,105.615 L446.154,105.615 C444.667,105.615 443.462,104.41 443.462,102.923 C443.462,101.436 444.667,100.231 446.154,100.231 L456.923,100.231 C457.637,100.231 458.322,100.514 458.827,101.019 C459.332,101.524 459.615,102.209 459.615,102.923 Z M500,99.134 L500,119.077 C500,126.068 494.644,131.897 487.675,132.488 C484.399,140.637 476.502,145.98 467.719,145.992 C458.935,146.003 451.025,140.679 447.728,132.538 L435.385,132.538 C433.957,132.538 432.587,131.971 431.577,130.961 C430.567,129.951 430,128.582 430,127.154 L430,94.846 C430,93.418 430.567,92.048 431.577,91.039 C432.587,90.029 433.957,89.462 435.385,89.462 L454.503,89.462 C453.204,83.06 456.688,76.65 462.766,74.258 C468.845,71.866 475.763,74.182 479.175,79.752 C483.433,77.706 488.527,78.673 491.738,82.138 C494.95,85.603 495.528,90.756 493.165,94.846 L495.712,94.846 C498.079,94.85 499.996,96.767 500,99.134 Z M459.615,86.769 C459.615,87.685 459.772,88.596 460.079,89.46 L467.692,89.46 C469.974,89.463 472.005,90.903 472.764,93.054 C475.692,90.692 476.601,86.62 474.956,83.236 C473.31,79.852 469.546,78.053 465.88,78.897 C462.213,79.742 459.615,83.007 459.615,86.769 Z M467.692,127.154 L467.692,127.154 L467.692,94.846 L435.385,94.846 L435.385,127.154 L467.692,127.154 Z M483.846,100.231 L473.077,100.231 L473.077,127.154 C473.077,128.582 472.51,129.952 471.5,130.961 C470.49,131.971 469.12,132.538 467.692,132.538 L453.706,132.538 C457.363,138.867 464.814,141.951 471.874,140.059 C478.934,138.168 483.844,131.771 483.846,124.462 Z M489.231,89.462 C489.229,87.511 488.172,85.714 486.468,84.764 C484.764,83.814 482.68,83.86 481.019,84.885 C481.523,88.413 480.603,91.997 478.462,94.846 L483.846,94.846 C485.274,94.846 486.644,94.279 487.654,93.269 C488.663,92.259 489.231,90.89 489.231,89.462 Z M494.615,100.231 L489.231,100.231 L489.231,124.462 C489.231,125.218 489.191,125.977 489.11,126.731 C492.398,125.627 494.614,122.546 494.615,119.077 Z" />
        </g>
        <g id="Black-S">
            <path d="M659.615,102.923 C659.615,103.637 659.332,104.322 658.827,104.827 C658.322,105.332 657.637,105.615 656.923,105.615 L654.231,105.615 L654.231,119.077 C654.231,120.564 653.025,121.769 651.538,121.769 C650.052,121.769 648.846,120.564 648.846,119.077 L648.846,105.615 L646.154,105.615 C644.667,105.615 643.462,104.41 643.462,102.923 C643.462,101.436 644.667,100.231 646.154,100.231 L656.923,100.231 C657.637,100.231 658.322,100.514 658.827,101.019 C659.332,101.524 659.615,102.209 659.615,102.923 Z M700,99.134 L700,119.077 C700,126.068 694.644,131.897 687.675,132.488 C684.399,140.637 676.502,145.98 667.719,145.992 C658.935,146.003 651.025,140.679 647.728,132.538 L635.385,132.538 C633.957,132.538 632.587,131.971 631.577,130.961 C630.567,129.951 630,128.582 630,127.154 L630,94.846 C630,93.418 630.567,92.048 631.577,91.039 C632.587,90.029 633.957,89.462 635.385,89.462 L654.503,89.462 C653.204,83.06 656.688,76.65 662.766,74.258 C668.845,71.866 675.763,74.182 679.175,79.752 C683.433,77.706 688.527,78.673 691.738,82.138 C694.95,85.603 695.528,90.756 693.165,94.846 L695.713,94.846 C698.079,94.85 699.996,96.767 700,99.134 Z M659.615,86.769 C659.615,87.685 659.772,88.596 660.079,89.46 L667.692,89.46 C669.974,89.463 672.005,90.903 672.764,93.054 C675.692,90.692 676.601,86.62 674.956,83.236 C673.31,79.852 669.546,78.053 665.88,78.897 C662.213,79.742 659.615,83.007 659.615,86.769 Z M667.692,127.154 L667.692,127.154 L667.692,94.846 L635.385,94.846 L635.385,127.154 L667.692,127.154 Z M683.846,100.231 L673.077,100.231 L673.077,127.154 C673.077,128.582 672.51,129.952 671.5,130.961 C670.49,131.971 669.12,132.538 667.692,132.538 L653.706,132.538 C657.363,138.867 664.814,141.951 671.874,140.059 C678.934,138.168 683.844,131.771 683.846,124.462 Z M689.231,89.462 C689.229,87.511 688.172,85.714 686.468,84.764 C684.764,83.814 682.68,83.86 681.019,84.885 C681.523,88.413 680.603,91.997 678.462,94.846 L683.846,94.846 C685.274,94.846 686.644,94.279 687.654,93.269 C688.663,92.259 689.231,90.89 689.231,89.462 Z M694.615,100.231 L689.231,100.231 L689.231,124.462 C689.231,125.218 689.191,125.977 689.11,126.731 C692.398,125.627 694.614,122.546 694.615,119.077 Z" />
        </g>
    </g>
</svg>