<?xml version="1.0" encoding="UTF-8"?>
<svg height="600" width="800" xmlns="http://www.w3.org/2000/svg" xmlns:xlink="http://www.w3.org/1999/xlink">
    <g id="Notes" font-family="'LucidaGrande', 'Lucida Grande', sans-serif" font-size="13">
        <rect fill="white" height="600.0" width="800.0" x="0.0" y="0.0" />
        <g font-size="13">
            <text x="18.0" y="176.0">Small</text>
            <text x="18.0" y="376.0">Medium</text>
            <text x="18.0" y="576.0">Large</text>
        </g>
        <g font-size="9">
            <text x="250.0" y="30.0">Ultralight</text>
            <text x="450.0" y="30.0">Regular</text>
            <text x="650.0" y="30.0">Black</text>
            <text id="template-version" fill="#505050" text-anchor="end" x="785.0" y="575.0">Template v.3.0</text>
            <a href="https://github.com/swhitty/SwiftDraw">
                <text fill="#505050" text-anchor="end" x="785.0" y="590.0">https://github.com/swhitty/SwiftDraw</text>
            </a>
        </g>
    </g>
    <g id="Guides" stroke="rgb(39, 170, 225)" stroke-width="0.5">
        <path id="Capline-S" d="M18,76 l800,0" />
        <path id="H-reference" d="M85,145.755 L87.685,145.755 L113.369,79.287 L114.052,79.287 L114.052,76 L112.148,76 L85,145.755 Z M95.693,121.536 L130.996,121.536 L130.263,119.313 L96.474,119.313 L95.693,121.536 Z M139.15,145.755 L141.787,145.755 L114.638,76 L113.466,76 L113.466,79.287 L139.15,145.755 Z" stroke="none" />
        <path id="Baseline-S" d="M18,146 l800,0" />
        <path id="left-margin-Ultralight-S" d="M220,56 l0,110" />
        <path id="right-margin-Ultralight-S" d="M310,56 l0,110" />
        <path id="left-margin-Regular-S" d="M420,56 l0,110" />
        <path id="right-margin-Regular-S" d="M510,56 l0,110" />
        <path id="left-margin-Black-S" d="M620,56 l0,110" />
        <path id="right-margin-Black-S" d="M710,56 l0,110" />
        <path id="Capline-M" d="M18,276 l800,0" />
        <path id="Baseline-M" d="M18,346 l800,0" />
        <path id="Capline-L" d="M18,476 l800,0" />
        <path id="Baseline-L" d="M18,546 l800,0" />
    </g>
    <g id="Symbols">
        <g id="Ultralight-S">
            <path d="M281.154,93.089 L281.154,92.154 C281.154,90.726 280.587,89.356 279.577,88.346 C278.567,87.337 277.197,86.769 275.769,86.769 L267.692,86.769 L267.692,73.308 C267.692,71.821 266.487,70.615 265,70.615 C263.513,70.615 262.308,71.821 262.308,73.308 L262.308,86.769 L254.231,86.769 C252.803,86.769 251.433,87.337 250.423,88.346 C249.413,89.356 248.846,90.726 248.846,92.154 L248.846,93.089 C235.674,99.313 227.282,112.585 227.308,127.154 C227.308,127.868 227.591,128.553 228.096,129.058 C228.601,129.563 229.286,129.846 230,129.846 L251.538,129.846 C251.538,137.281 257.565,143.308 265,143.308 C272.435,143.308 278.462,137.281 278.462,129.846 L300,129.846 C300.714,129.846 301.399,129.563 301.904,129.058 C302.409,128.553 302.692,127.868 302.692,127.154 C302.718,112.585 294.326,99.313 281.153,93.089 Z M265,137.923 C262.858,137.923 260.803,137.072 259.289,135.557 C257.774,134.043 256.923,131.988 256.923,129.846 L273.077,129.846 C273.077,131.988 272.226,134.043 270.711,135.557 C269.197,137.072 267.142,137.923 265,137.923 Z M232.803,124.462 C233.79,112.425 241.421,101.949 252.575,97.32 C253.574,96.903 254.226,95.929 254.231,94.846 L254.231,92.154 L275.769,92.154 L275.769,94.846 C275.77,95.932 276.422,96.912 277.425,97.33 C288.576,101.958 296.207,112.429 297.197,124.462 Z" />
        </g>
        <g id="Regular-S">
            <path d="M481.154,93.089 L481.154,92.154 C481.154,90.726 480.587,89.356 479.577,88.346 C478.567,87.337 477.197,86.769 475.769,86.769 L467.692,86.769 L467.692,73.308 C467.692,71.821 466.487,70.615 465,70.615 C463.513,70.615 462.308,71.821 462.308,73.308 L462.308,86.769 L454.231,86.769 C452.803,86.769 451.433,87.337 450.423,88.346 C449.413,89.356 448.846,90.726 448.846,92.154 L448.846,93.089 C435.674,99.313 427.282,112.585 427.308,127.154 C427.308,127.868 427.591,128.553 428.096,129.058 C428.601,129.563 429.286,129.846 430,129.846 L451.538,129.846 C451.538,137.281 457.565,143.308 465,143.308 C472.435,143.308 478.462,137.281 478.462,129.846 L500,129.846 C500.714,129.846 501.399,129.563 501.904,129.058 C502.409,128.553 502.692,127.868 502.692,127.154 C502.718,112.585 494.326,99.313 481.153,93.089 Z M465,137.923 C462.858,137.923 460.803,137.072 459.289,135.557 C457.774,134.043 456.923,131.988 456.923,129.846 L473.077,129.846 C473.077,131.988 472.226,134.043 470.711,135.557 C469.197,137.072 467.142,137.923 465,137.923 Z M432.803,124.462 C433.79,112.425 441.421,101.949 452.575,97.32 C453.574,96.903 454.226,95.929 454.231,94.846 L454.231,92.154 L475.769,92.154 L475.769,94.846 C475.77,95.932 476.422,96.912 477.425,97.33 C488.576,101.958 496.207,112.429 497.197,124.462 Z" />
        </g>
        <g id="Black-S">
            <path d="M681.154,93.089 L681.154,92.154 C681.154,90.726 680.587,89.356 679.577,88.346 C678.567,87.337 677.197,86.769 675.769,86.769 L667.692,86.769 L667.692,73.308 C667.692,71.821 666.487,70.615 665,70.615 C663.513,70.615 662.308,71.821 662.308,73.308 L662.308,86.769 L654.231,86.769 C652.803,86.769 651.433,87.337 650.423,88.346 C649.413,89.356 648.846,90.726 648.846,92.154 L648.846,93.089 C635.674,99.313 627.282,112.585 627.308,127.154 C627.308,127.868 627.591,128.553 628.096,129.058 C628.601,129.563 629.286,129.846 630,129.846 L651.538,129.846 C651.538,137.281 657.565,143.308 665,143.308 C672.435,143.308 678.462,137.281 678.462,129.846 L700,129.846 C700.714,129.846 701.399,129.563 701.904,129.058 C702.409,128.553 702.692,127.868 702.692,127.154 C702.718,112.585 694.326,99.313 681.154,93.089 Z M665,137.923 C662.858,137.923 660.803,137.072 659.289,135.557 C657.774,134.043 656.923,131.988 656.923,129.846 L673.077,129.846 C673.077,131.988 672.226,134.043 670.711,135.557 C669.197,137.072 667.142,137.923 665,137.923 Z M632.803,124.462 C633.79,112.425 641.421,101.949 652.575,97.32 C653.574,96.903 654.226,95.929 654.231,94.846 L654.231,92.154 L675.769,92.154 L675.769,94.846 C675.77,95.932 676.422,96.912 677.425,97.33 C688.576,101.958 696.207,112.429 697.197,124.462 Z" />
        </g>
    </g>
</svg>