<?xml version="1.0" encoding="UTF-8"?>
<svg height="600" width="800" xmlns="http://www.w3.org/2000/svg" xmlns:xlink="http://www.w3.org/1999/xlink">
    <g id="Notes" font-family="'LucidaGrande', 'Lucida Grande', sans-serif" font-size="13">
        <rect fill="white" height="600.0" width="800.0" x="0.0" y="0.0" />
        <g font-size="13">
            <text x="18.0" y="176.0">Small</text>
            <text x="18.0" y="376.0">Medium</text>
            <text x="18.0" y="576.0">Large</text>
        </g>
        <g font-size="9">
            <text x="250.0" y="30.0">Ultralight</text>
            <text x="450.0" y="30.0">Regular</text>
            <text x="650.0" y="30.0">Black</text>
            <text id="template-version" fill="#505050" text-anchor="end" x="785.0" y="575.0">Template v.3.0</text>
            <a href="https://github.com/swhitty/SwiftDraw">
                <text fill="#505050" text-anchor="end" x="785.0" y="590.0">https://github.com/swhitty/SwiftDraw</text>
            </a>
        </g>
    </g>
    <g id="Guides" stroke="rgb(39, 170, 225)" stroke-width="0.5">
        <path id="Capline-S" d="M18,76 l800,0" />
        <path id="H-reference" d="M85,145.755 L87.685,145.755 L113.369,79.287 L114.052,79.287 L114.052,76 L112.148,76 L85,145.755 Z M95.693,121.536 L130.996,121.536 L130.263,119.313 L96.474,119.313 L95.693,121.536 Z M139.15,145.755 L141.787,145.755 L114.638,76 L113.466,76 L113.466,79.287 L139.15,145.755 Z" stroke="none" />
        <path id="Baseline-S" d="M18,146 l800,0" />
        <path id="left-margin-Ultralight-S" d="M220,56 l0,110" />
        <path id="right-margin-Ultralight-S" d="M310,56 l0,110" />
        <path id="left-margin-Regular-S" d="M420,56 l0,110" />
        <path id="right-margin-Regular-S" d="M510,56 l0,110" />
        <path id="left-margin-Black-S" d="M620,56 l0,110" />
        <path id="right-margin-Black-S" d="M710,56 l0,110" />
        <path id="Capline-M" d="M18,276 l800,0" />
        <path id="Baseline-M" d="M18,346 l800,0" />
        <path id="Capline-L" d="M18,476 l800,0" />
        <path id="Baseline-L" d="M18,546 l800,0" />
    </g>
    <g id="Symbols">
        <g id="Ultralight-S">
            <path d="M297.308,89.462 L281.154,89.462 L281.154,86.769 C281.154,84.627 280.303,82.573 278.788,81.058 C277.273,79.543 275.219,78.692 273.077,78.692 L256.923,78.692 C254.781,78.692 252.727,79.543 251.212,81.058 C249.697,82.573 248.846,84.627 248.846,86.769 L248.846,89.462 L232.692,89.462 C231.264,89.462 229.895,90.029 228.885,91.039 C227.875,92.048 227.308,93.418 227.308,94.846 L227.308,132.538 C227.308,133.967 227.875,135.336 228.885,136.346 C229.895,137.356 231.264,137.923 232.692,137.923 L297.308,137.923 C298.736,137.923 300.105,137.356 301.115,136.346 C302.125,135.336 302.692,133.967 302.692,132.538 L302.692,94.846 C302.692,93.418 302.125,92.048 301.115,91.039 C300.105,90.029 298.736,89.462 297.308,89.462 Z M254.231,86.769 C254.231,86.055 254.514,85.37 255.019,84.865 C255.524,84.361 256.209,84.077 256.923,84.077 L273.077,84.077 C273.791,84.077 274.476,84.361 274.981,84.865 C275.486,85.37 275.769,86.055 275.769,86.769 L275.769,89.462 L254.231,89.462 Z M297.308,94.846 L297.308,105.615 L286.538,105.615 L286.538,102.923 C286.538,101.436 285.333,100.231 283.846,100.231 C282.359,100.231 281.154,101.436 281.154,102.923 L281.154,105.615 L248.846,105.615 L248.846,102.923 C248.846,101.436 247.641,100.231 246.154,100.231 C244.667,100.231 243.462,101.436 243.462,102.923 L243.462,105.615 L232.692,105.615 L232.692,94.846 Z M297.308,132.538 L232.692,132.538 L232.692,111 L243.462,111 L243.462,113.692 C243.462,115.179 244.667,116.385 246.154,116.385 C247.641,116.385 248.846,115.179 248.846,113.692 L248.846,111 L281.154,111 L281.154,113.692 C281.154,115.179 282.359,116.385 283.846,116.385 C285.333,116.385 286.538,115.179 286.538,113.692 L286.538,111 L297.308,111 L297.308,132.538 Z" />
        </g>
        <g id="Regular-S">
            <path d="M497.308,89.462 L481.154,89.462 L481.154,86.769 C481.154,84.627 480.303,82.573 478.788,81.058 C477.273,79.543 475.219,78.692 473.077,78.692 L456.923,78.692 C454.781,78.692 452.727,79.543 451.212,81.058 C449.697,82.573 448.846,84.627 448.846,86.769 L448.846,89.462 L432.692,89.462 C431.264,89.462 429.895,90.029 428.885,91.039 C427.875,92.048 427.308,93.418 427.308,94.846 L427.308,132.538 C427.308,133.967 427.875,135.336 428.885,136.346 C429.895,137.356 431.264,137.923 432.692,137.923 L497.308,137.923 C498.736,137.923 500.105,137.356 501.115,136.346 C502.125,135.336 502.692,133.967 502.692,132.538 L502.692,94.846 C502.692,93.418 502.125,92.048 501.115,91.039 C500.105,90.029 498.736,89.462 497.308,89.462 Z M454.231,86.769 C454.231,86.055 454.514,85.37 455.019,84.865 C455.524,84.361 456.209,84.077 456.923,84.077 L473.077,84.077 C473.791,84.077 474.476,84.361 474.981,84.865 C475.486,85.37 475.769,86.055 475.769,86.769 L475.769,89.462 L454.231,89.462 Z M497.308,94.846 L497.308,105.615 L486.538,105.615 L486.538,102.923 C486.538,101.436 485.333,100.231 483.846,100.231 C482.359,100.231 481.154,101.436 481.154,102.923 L481.154,105.615 L448.846,105.615 L448.846,102.923 C448.846,101.436 447.641,100.231 446.154,100.231 C444.667,100.231 443.462,101.436 443.462,102.923 L443.462,105.615 L432.692,105.615 L432.692,94.846 Z M497.308,132.538 L432.692,132.538 L432.692,111 L443.462,111 L443.462,113.692 C443.462,115.179 444.667,116.385 446.154,116.385 C447.641,116.385 448.846,115.179 448.846,113.692 L448.846,111 L481.154,111 L481.154,113.692 C481.154,115.179 482.359,116.385 483.846,116.385 C485.333,116.385 486.538,115.179 486.538,113.692 L486.538,111 L497.308,111 L497.308,132.538 Z" />
        </g>
        <g id="Black-S">
            <path d="M697.308,89.462 L681.154,89.462 L681.154,86.769 C681.154,84.627 680.303,82.573 678.788,81.058 C677.273,79.543 675.219,78.692 673.077,78.692 L656.923,78.692 C654.781,78.692 652.727,79.543 651.212,81.058 C649.697,82.573 648.846,84.627 648.846,86.769 L648.846,89.462 L632.692,89.462 C631.264,89.462 629.895,90.029 628.885,91.039 C627.875,92.048 627.308,93.418 627.308,94.846 L627.308,132.538 C627.308,133.967 627.875,135.336 628.885,136.346 C629.895,137.356 631.264,137.923 632.692,137.923 L697.308,137.923 C698.736,137.923 700.105,137.356 701.115,136.346 C702.125,135.336 702.692,133.967 702.692,132.538 L702.692,94.846 C702.692,93.418 702.125,92.048 701.115,91.039 C700.105,90.029 698.736,89.462 697.308,89.462 Z M654.231,86.769 C654.231,86.055 654.514,85.37 655.019,84.865 C655.524,84.361 656.209,84.077 656.923,84.077 L673.077,84.077 C673.791,84.077 674.476,84.361 674.981,84.865 C675.486,85.37 675.769,86.055 675.769,86.769 L675.769,89.462 L654.231,89.462 Z M697.308,94.846 L697.308,105.615 L686.538,105.615 L686.538,102.923 C686.538,101.436 685.333,100.231 683.846,100.231 C682.359,100.231 681.154,101.436 681.154,102.923 L681.154,105.615 L648.846,105.615 L648.846,102.923 C648.846,101.436 647.641,100.231 646.154,100.231 C644.667,100.231 643.462,101.436 643.462,102.923 L643.462,105.615 L632.692,105.615 L632.692,94.846 Z M697.308,132.538 L632.692,132.538 L632.692,111 L643.462,111 L643.462,113.692 C643.462,115.179 644.667,116.385 646.154,116.385 C647.641,116.385 648.846,115.179 648.846,113.692 L648.846,111 L681.154,111 L681.154,113.692 C681.154,115.179 682.359,116.385 683.846,116.385 C685.333,116.385 686.538,115.179 686.538,113.692 L686.538,111 L697.308,111 L697.308,132.538 Z" />
        </g>
    </g>
</svg>