<?xml version="1.0" encoding="UTF-8"?>
<svg height="600" width="800" xmlns="http://www.w3.org/2000/svg" xmlns:xlink="http://www.w3.org/1999/xlink">
    <g id="Notes" font-family="'LucidaGrande', 'Lucida Grande', sans-serif" font-size="13">
        <rect fill="white" height="600.0" width="800.0" x="0.0" y="0.0" />
        <g font-size="13">
            <text x="18.0" y="176.0">Small</text>
            <text x="18.0" y="376.0">Medium</text>
            <text x="18.0" y="576.0">Large</text>
        </g>
        <g font-size="9">
            <text x="250.0" y="30.0">Ultralight</text>
            <text x="450.0" y="30.0">Regular</text>
            <text x="650.0" y="30.0">Black</text>
            <text id="template-version" fill="#505050" text-anchor="end" x="785.0" y="575.0">Template v.3.0</text>
            <a href="https://github.com/swhitty/SwiftDraw">
                <text fill="#505050" text-anchor="end" x="785.0" y="590.0">https://github.com/swhitty/SwiftDraw</text>
            </a>
        </g>
    </g>
    <g id="Guides" stroke="rgb(39, 170, 225)" stroke-width="0.5">
        <path id="Capline-S" d="M18,76 l800,0" />
        <path id="H-reference" d="M85,145.755 L87.685,145.755 L113.369,79.287 L114.052,79.287 L114.052,76 L112.148,76 L85,145.755 Z M95.693,121.536 L130.996,121.536 L130.263,119.313 L96.474,119.313 L95.693,121.536 Z M139.15,145.755 L141.787,145.755 L114.638,76 L113.466,76 L113.466,79.287 L139.15,145.755 Z" stroke="none" />
        <path id="Baseline-S" d="M18,146 l800,0" />
        <path id="left-margin-Ultralight-S" d="M220,56 l0,110" />
        <path id="right-margin-Ultralight-S" d="M310,56 l0,110" />
        <path id="left-margin-Regular-S" d="M420,56 l0,110" />
        <path id="right-margin-Regular-S" d="M510,56 l0,110" />
        <path id="left-margin-Black-S" d="M620,56 l0,110" />
        <path id="right-margin-Black-S" d="M710,56 l0,110" />
        <path id="Capline-M" d="M18,276 l800,0" />
        <path id="Baseline-M" d="M18,346 l800,0" />
        <path id="Capline-L" d="M18,476 l800,0" />
        <path id="Baseline-L" d="M18,546 l800,0" />
    </g>
    <g id="Symbols">
        <g id="Ultralight-S">
            <path d="M301.615,131.223 L272.185,80.113 L272.185,80.113 C270.689,77.565 267.955,76 265,76 C262.045,76 259.311,77.565 257.815,80.113 L228.385,131.223 C226.944,133.688 226.944,136.739 228.385,139.205 C229.863,141.77 232.609,143.338 235.57,143.308 L294.43,143.308 C297.388,143.336 300.132,141.768 301.609,139.205 C303.051,136.741 303.054,133.69 301.615,131.223 Z M296.948,136.51 C296.425,137.401 295.463,137.941 294.43,137.923 L235.57,137.923 C234.537,137.941 233.575,137.401 233.052,136.51 C232.579,135.708 232.579,134.713 233.052,133.912 L262.483,82.801 C263.015,81.915 263.973,81.373 265.007,81.373 C266.04,81.373 266.998,81.915 267.531,82.801 L296.961,133.912 C297.43,134.715 297.425,135.711 296.948,136.51 Z M262.308,116.385 L262.308,102.923 C262.308,101.436 263.513,100.231 265,100.231 C266.487,100.231 267.692,101.436 267.692,102.923 L267.692,116.385 C267.692,117.872 266.487,119.077 265,119.077 C263.513,119.077 262.308,117.872 262.308,116.385 Z M269.038,128.5 C269.038,130.73 267.23,132.538 265,132.538 C262.77,132.538 260.962,130.73 260.962,128.5 C260.962,126.27 262.77,124.462 265,124.462 C266.071,124.462 267.098,124.887 267.856,125.644 C268.613,126.402 269.038,127.429 269.038,128.5 Z" />
        </g>
        <g id="Regular-S">
            <path d="M501.615,131.223 L472.185,80.113 L472.185,80.113 C470.689,77.565 467.955,76 465,76 C462.045,76 459.311,77.565 457.815,80.113 L428.385,131.223 C426.944,133.688 426.944,136.739 428.385,139.205 C429.863,141.77 432.609,143.338 435.57,143.308 L494.43,143.308 C497.388,143.336 500.132,141.768 501.609,139.205 C503.051,136.741 503.054,133.69 501.615,131.223 Z M496.948,136.51 C496.425,137.401 495.463,137.941 494.43,137.923 L435.57,137.923 C434.537,137.941 433.575,137.401 433.052,136.51 C432.579,135.708 432.579,134.713 433.052,133.912 L462.483,82.801 C463.015,81.915 463.973,81.373 465.007,81.373 C466.04,81.373 466.998,81.915 467.531,82.801 L496.961,133.912 C497.43,134.715 497.425,135.711 496.948,136.51 Z M462.308,116.385 L462.308,102.923 C462.308,101.436 463.513,100.231 465,100.231 C466.487,100.231 467.692,101.436 467.692,102.923 L467.692,116.385 C467.692,117.872 466.487,119.077 465,119.077 C463.513,119.077 462.308,117.872 462.308,116.385 Z M469.038,128.5 C469.038,130.73 467.23,132.538 465,132.538 C462.77,132.538 460.962,130.73 460.962,128.5 C460.962,126.27 462.77,124.462 465,124.462 C466.071,124.462 467.098,124.887 467.856,125.644 C468.613,126.402 469.038,127.429 469.038,128.5 Z" />
        </g>
        <g id="Black-S">
            <path d="M701.615,131.223 L672.185,80.113 L672.185,80.113 C670.689,77.565 667.955,76 665,76 C662.045,76 659.311,77.565 657.815,80.113 L628.385,131.223 C626.944,133.688 626.944,136.739 628.385,139.205 C629.863,141.77 632.609,143.338 635.57,143.308 L694.43,143.308 C697.388,143.336 700.132,141.768 701.609,139.205 C703.051,136.741 703.054,133.69 701.615,131.223 Z M696.948,136.51 C696.425,137.401 695.463,137.941 694.43,137.923 L635.57,137.923 C634.537,137.941 633.575,137.401 633.052,136.51 C632.579,135.708 632.579,134.713 633.052,133.912 L662.483,82.801 C663.015,81.915 663.973,81.373 665.007,81.373 C666.04,81.373 666.998,81.915 667.531,82.801 L696.961,133.912 C697.43,134.715 697.425,135.711 696.948,136.51 Z M662.308,116.385 L662.308,102.923 C662.308,101.436 663.513,100.231 665,100.231 C666.487,100.231 667.692,101.436 667.692,102.923 L667.692,116.385 C667.692,117.872 666.487,119.077 665,119.077 C663.513,119.077 662.308,117.872 662.308,116.385 Z M669.038,128.5 C669.038,130.73 667.23,132.538 665,132.538 C662.77,132.538 660.962,130.73 660.962,128.5 C660.962,126.27 662.77,124.462 665,124.462 C666.071,124.462 667.098,124.887 667.856,125.644 C668.613,126.402 669.038,127.429 669.038,128.5 Z" />
        </g>
    </g>
</svg>