<?xml version="1.0" encoding="UTF-8"?>
<svg height="600" width="800" xmlns="http://www.w3.org/2000/svg" xmlns:xlink="http://www.w3.org/1999/xlink">
    <g id="Notes" font-family="'LucidaGrande', 'Lucida Grande', sans-serif" font-size="13">
        <rect fill="white" height="600.0" width="800.0" x="0.0" y="0.0" />
        <g font-size="13">
            <text x="18.0" y="176.0">Small</text>
            <text x="18.0" y="376.0">Medium</text>
            <text x="18.0" y="576.0">Large</text>
        </g>
        <g font-size="9">
            <text x="250.0" y="30.0">Ultralight</text>
            <text x="450.0" y="30.0">Regular</text>
            <text x="650.0" y="30.0">Black</text>
            <text id="template-version" fill="#505050" text-anchor="end" x="785.0" y="575.0">Template v.3.0</text>
            <a href="https://github.com/swhitty/SwiftDraw">
                <text fill="#505050" text-anchor="end" x="785.0" y="590.0">https://github.com/swhitty/SwiftDraw</text>
            </a>
        </g>
    </g>
    <g id="Guides" stroke="rgb(39, 170, 225)" stroke-width="0.5">
        <path id="Capline-S" d="M18,76 l800,0" />
        <path id="H-reference" d="M85,145.755 L87.685,145.755 L113.369,79.287 L114.052,79.287 L114.052,76 L112.148,76 L85,145.755 Z M95.693,121.536 L130.996,121.536 L130.263,119.313 L96.474,119.313 L95.693,121.536 Z M139.15,145.755 L141.787,145.755 L114.638,76 L113.466,76 L113.466,79.287 L139.15,145.755 Z" stroke="none" />
        <path id="Baseline-S" d="M18,146 l800,0" />
        <path id="left-margin-Ultralight-S" d="M220,56 l0,110" />
        <path id="right-margin-Ultralight-S" d="M310,56 l0,110" />
        <path id="left-margin-Regular-S" d="M420,56 l0,110" />
        <path id="right-margin-Regular-S" d="M510,56 l0,110" />
        <path id="left-margin-Black-S" d="M620,56 l0,110" />
        <path id="right-margin-Black-S" d="M710,56 l0,110" />
        <path id="Capline-M" d="M18,276 l800,0" />
        <path id="Baseline-M" d="M18,346 l800,0" />
        <path id="Capline-L" d="M18,476 l800,0" />
        <path id="Baseline-L" d="M18,546 l800,0" />
    </g>
    <g id="Symbols">
        <g id="Ultralight-S">
            <path d="M286.538,78.692 L243.462,78.692 C240.605,78.692 237.866,79.827 235.847,81.847 C233.827,83.866 232.692,86.605 232.692,89.462 L232.692,132.538 C232.692,135.395 233.827,138.134 235.847,140.153 C237.866,142.173 240.605,143.308 243.462,143.308 L286.538,143.308 C289.395,143.308 292.134,142.173 294.153,140.153 C296.173,138.134 297.308,135.395 297.308,132.538 L297.308,89.462 C297.308,86.605 296.173,83.866 294.153,81.847 C292.134,79.827 289.395,78.692 286.538,78.692 Z M291.923,132.538 C291.923,133.967 291.356,135.336 290.346,136.346 C289.336,137.356 287.967,137.923 286.538,137.923 L243.462,137.923 C242.033,137.923 240.664,137.356 239.654,136.346 C238.644,135.336 238.077,133.967 238.077,132.538 L238.077,89.462 C238.077,88.033 238.644,86.664 239.654,85.654 C240.664,84.644 242.033,84.077 243.462,84.077 L286.538,84.077 C287.967,84.077 289.336,84.644 290.346,85.654 C291.356,86.664 291.923,88.033 291.923,89.462 Z M256.923,96.192 C256.923,98.423 255.115,100.231 252.885,100.231 C250.654,100.231 248.846,98.423 248.846,96.192 C248.846,93.962 250.654,92.154 252.885,92.154 C253.956,92.154 254.983,92.579 255.74,93.337 C256.498,94.094 256.923,95.121 256.923,96.192 Z M281.154,96.192 C281.154,98.423 279.346,100.231 277.115,100.231 C274.885,100.231 273.077,98.423 273.077,96.192 C273.077,93.962 274.885,92.154 277.115,92.154 C278.186,92.154 279.214,92.579 279.971,93.337 C280.728,94.094 281.154,95.121 281.154,96.192 Z M256.923,111 C256.923,113.23 255.115,115.038 252.885,115.038 C250.654,115.038 248.846,113.23 248.846,111 C248.846,108.77 250.654,106.962 252.885,106.962 C253.956,106.962 254.983,107.387 255.74,108.144 C256.498,108.902 256.923,109.929 256.923,111 Z M281.154,111 C281.154,113.23 279.346,115.038 277.115,115.038 C274.885,115.038 273.077,113.23 273.077,111 C273.077,108.77 274.885,106.962 277.115,106.962 C278.186,106.962 279.214,107.387 279.971,108.144 C280.728,108.902 281.154,109.929 281.154,111 Z M256.923,125.808 C256.923,128.038 255.115,129.846 252.885,129.846 C250.654,129.846 248.846,128.038 248.846,125.808 C248.846,123.577 250.654,121.769 252.885,121.769 C253.956,121.769 254.983,122.195 255.74,122.952 C256.498,123.709 256.923,124.737 256.923,125.808 Z M281.154,125.808 C281.154,128.038 279.346,129.846 277.115,129.846 C274.885,129.846 273.077,128.038 273.077,125.808 C273.077,123.577 274.885,121.769 277.115,121.769 C278.186,121.769 279.214,122.195 279.971,122.952 C280.728,123.709 281.154,124.737 281.154,125.808 Z" />
        </g>
        <g id="Regular-S">
            <path d="M486.538,78.692 L443.462,78.692 C440.605,78.692 437.866,79.827 435.847,81.847 C433.827,83.866 432.692,86.605 432.692,89.462 L432.692,132.538 C432.692,135.395 433.827,138.134 435.847,140.153 C437.866,142.173 440.605,143.308 443.462,143.308 L486.538,143.308 C489.395,143.308 492.134,142.173 494.153,140.153 C496.173,138.134 497.308,135.395 497.308,132.538 L497.308,89.462 C497.308,86.605 496.173,83.866 494.153,81.847 C492.134,79.827 489.395,78.692 486.538,78.692 Z M491.923,132.538 C491.923,133.967 491.356,135.336 490.346,136.346 C489.336,137.356 487.967,137.923 486.538,137.923 L443.462,137.923 C442.033,137.923 440.664,137.356 439.654,136.346 C438.644,135.336 438.077,133.967 438.077,132.538 L438.077,89.462 C438.077,88.033 438.644,86.664 439.654,85.654 C440.664,84.644 442.033,84.077 443.462,84.077 L486.538,84.077 C487.967,84.077 489.336,84.644 490.346,85.654 C491.356,86.664 491.923,88.033 491.923,89.462 Z M456.923,96.192 C456.923,98.423 455.115,100.231 452.885,100.231 C450.654,100.231 448.846,98.423 448.846,96.192 C448.846,93.962 450.654,92.154 452.885,92.154 C453.956,92.154 454.983,92.579 455.74,93.337 C456.498,94.094 456.923,95.121 456.923,96.192 Z M481.154,96.192 C481.154,98.423 479.346,100.231 477.115,100.231 C474.885,100.231 473.077,98.423 473.077,96.192 C473.077,93.962 474.885,92.154 477.115,92.154 C478.186,92.154 479.214,92.579 479.971,93.337 C480.728,94.094 481.154,95.121 481.154,96.192 Z M456.923,111 C456.923,113.23 455.115,115.038 452.885,115.038 C450.654,115.038 448.846,113.23 448.846,111 C448.846,108.77 450.654,106.962 452.885,106.962 C453.956,106.962 454.983,107.387 455.74,108.144 C456.498,108.902 456.923,109.929 456.923,111 Z M481.154,111 C481.154,113.23 479.346,115.038 477.115,115.038 C474.885,115.038 473.077,113.23 473.077,111 C473.077,108.77 474.885,106.962 477.115,106.962 C478.186,106.962 479.214,107.387 479.971,108.144 C480.728,108.902 481.154,109.929 481.154,111 Z M456.923,125.808 C456.923,128.038 455.115,129.846 452.885,129.846 C450.654,129.846 448.846,128.038 448.846,125.808 C448.846,123.577 450.654,121.769 452.885,121.769 C453.956,121.769 454.983,122.195 455.74,122.952 C456.498,123.709 456.923,124.737 456.923,125.808 Z M481.154,125.808 C481.154,128.038 479.346,129.846 477.115,129.846 C474.885,129.846 473.077,128.038 473.077,125.808 C473.077,123.577 474.885,121.769 477.115,121.769 C478.186,121.769 479.214,122.195 479.971,122.952 C480.728,123.709 481.154,124.737 481.154,125.808 Z" />
        </g>
        <g id="Black-S">
            <path d="M686.538,78.692 L643.462,78.692 C640.605,78.692 637.866,79.827 635.847,81.847 C633.827,83.866 632.692,86.605 632.692,89.462 L632.692,132.538 C632.692,135.395 633.827,138.134 635.847,140.153 C637.866,142.173 640.605,143.308 643.462,143.308 L686.538,143.308 C689.395,143.308 692.134,142.173 694.153,140.153 C696.173,138.134 697.308,135.395 697.308,132.538 L697.308,89.462 C697.308,86.605 696.173,83.866 694.153,81.847 C692.134,79.827 689.395,78.692 686.538,78.692 Z M691.923,132.538 C691.923,133.967 691.356,135.336 690.346,136.346 C689.336,137.356 687.967,137.923 686.538,137.923 L643.462,137.923 C642.033,137.923 640.664,137.356 639.654,136.346 C638.644,135.336 638.077,133.967 638.077,132.538 L638.077,89.462 C638.077,88.033 638.644,86.664 639.654,85.654 C640.664,84.644 642.033,84.077 643.462,84.077 L686.538,84.077 C687.967,84.077 689.336,84.644 690.346,85.654 C691.356,86.664 691.923,88.033 691.923,89.462 Z M656.923,96.192 C656.923,98.423 655.115,100.231 652.885,100.231 C650.654,100.231 648.846,98.423 648.846,96.192 C648.846,93.962 650.654,92.154 652.885,92.154 C653.956,92.154 654.983,92.579 655.74,93.337 C656.498,94.094 656.923,95.121 656.923,96.192 Z M681.154,96.192 C681.154,98.423 679.346,100.231 677.115,100.231 C674.885,100.231 673.077,98.423 673.077,96.192 C673.077,93.962 674.885,92.154 677.115,92.154 C678.186,92.154 679.214,92.579 679.971,93.337 C680.728,94.094 681.154,95.121 681.154,96.192 Z M656.923,111 C656.923,113.23 655.115,115.038 652.885,115.038 C650.654,115.038 648.846,113.23 648.846,111 C648.846,108.77 650.654,106.962 652.885,106.962 C653.956,106.962 654.983,107.387 655.74,108.144 C656.498,108.902 656.923,109.929 656.923,111 Z M681.154,111 C681.154,113.23 679.346,115.038 677.115,115.038 C674.885,115.038 673.077,113.23 673.077,111 C673.077,108.77 674.885,106.962 677.115,106.962 C678.186,106.962 679.214,107.387 679.971,108.144 C680.728,108.902 681.154,109.929 681.154,111 Z M656.923,125.808 C656.923,128.038 655.115,129.846 652.885,129.846 C650.654,129.846 648.846,128.038 648.846,125.808 C648.846,123.577 650.654,121.769 652.885,121.769 C653.956,121.769 654.983,122.195 655.74,122.952 C656.498,123.709 656.923,124.737 656.923,125.808 Z M681.154,125.808 C681.154,128.038 679.346,129.846 677.115,129.846 C674.885,129.846 673.077,128.038 673.077,125.808 C673.077,123.577 674.885,121.769 677.115,121.769 C678.186,121.769 679.214,122.195 679.971,122.952 C680.728,123.709 681.154,124.737 681.154,125.808 Z" />
        </g>
    </g>
</svg>