<?xml version="1.0" encoding="UTF-8"?>
<svg height="600" width="800" xmlns="http://www.w3.org/2000/svg" xmlns:xlink="http://www.w3.org/1999/xlink">
    <g id="Notes" font-family="'LucidaGrande', 'Lucida Grande', sans-serif" font-size="13">
        <rect fill="white" height="600.0" width="800.0" x="0.0" y="0.0" />
        <g font-size="13">
            <text x="18.0" y="176.0">Small</text>
            <text x="18.0" y="376.0">Medium</text>
            <text x="18.0" y="576.0">Large</text>
        </g>
        <g font-size="9">
            <text x="250.0" y="30.0">Ultralight</text>
            <text x="450.0" y="30.0">Regular</text>
            <text x="650.0" y="30.0">Black</text>
            <text id="template-version" fill="#505050" text-anchor="end" x="785.0" y="575.0">Template v.3.0</text>
            <a href="https://github.com/swhitty/SwiftDraw">
                <text fill="#505050" text-anchor="end" x="785.0" y="590.0">https://github.com/swhitty/SwiftDraw</text>
            </a>
        </g>
    </g>
    <g id="Guides" stroke="rgb(39, 170, 225)" stroke-width="0.5">
        <path id="Capline-S" d="M18,76 l800,0" />
        <path id="H-reference" d="M85,145.755 L87.685,145.755 L113.369,79.287 L114.052,79.287 L114.052,76 L112.148,76 L85,145.755 Z M95.693,121.536 L130.996,121.536 L130.263,119.313 L96.474,119.313 L95.693,121.536 Z M139.15,145.755 L141.787,145.755 L114.638,76 L113.466,76 L113.466,79.287 L139.15,145.755 Z" stroke="none" />
        <path id="Baseline-S" d="M18,146 l800,0" />
        <path id="left-margin-Ultralight-S" d="M220,56 l0,110" />
        <path id="right-margin-Ultralight-S" d="M310,56 l0,110" />
        <path id="left-margin-Regular-S" d="M420,56 l0,110" />
        <path id="right-margin-Regular-S" d="M510,56 l0,110" />
        <path id="left-margin-Black-S" d="M620,56 l0,110" />
        <path id="right-margin-Black-S" d="M710,56 l0,110" />
        <path id="Capline-M" d="M18,276 l800,0" />
        <path id="Baseline-M" d="M18,346 l800,0" />
        <path id="Capline-L" d="M18,476 l800,0" />
        <path id="Baseline-L" d="M18,546 l800,0" />
    </g>
    <g id="Symbols">
        <g id="Ultralight-S">
            <path d="M273.077,86.769 L273.077,127.154 C273.077,128.641 271.872,129.846 270.385,129.846 C268.898,129.846 267.692,128.641 267.692,127.154 L267.692,109.654 L238.077,109.654 L238.077,127.154 C238.077,128.641 236.872,129.846 235.385,129.846 C233.898,129.846 232.692,128.641 232.692,127.154 L232.692,86.769 C232.692,85.282 233.898,84.077 235.385,84.077 C236.872,84.077 238.077,85.282 238.077,86.769 L238.077,104.269 L267.692,104.269 L267.692,86.769 C267.692,85.282 268.898,84.077 270.385,84.077 C271.872,84.077 273.077,85.282 273.077,86.769 Z M305.385,128.5 C305.389,133.582 302.223,138.126 297.454,139.881 C292.686,141.636 287.329,140.23 284.038,136.358 C280.747,132.487 280.222,126.973 282.722,122.55 C282.746,122.502 282.77,122.455 282.796,122.408 L293.65,104.235 C294.412,102.958 296.064,102.541 297.341,103.303 C298.618,104.065 299.036,105.718 298.274,106.995 L292.657,116.418 C292.859,116.418 293.064,116.401 293.27,116.401 C299.954,116.401 305.376,121.815 305.385,128.5 Z M300,128.5 C300,124.783 296.987,121.769 293.269,121.769 C289.552,121.769 286.538,124.783 286.538,128.5 C286.538,132.217 289.552,135.231 293.269,135.231 C295.054,135.231 296.766,134.522 298.029,133.259 C299.291,131.997 300,130.285 300,128.5 Z" />
        </g>
        <g id="Regular-S">
            <path d="M473.077,86.769 L473.077,127.154 C473.077,128.641 471.872,129.846 470.385,129.846 C468.898,129.846 467.692,128.641 467.692,127.154 L467.692,109.654 L438.077,109.654 L438.077,127.154 C438.077,128.641 436.872,129.846 435.385,129.846 C433.898,129.846 432.692,128.641 432.692,127.154 L432.692,86.769 C432.692,85.282 433.898,84.077 435.385,84.077 C436.872,84.077 438.077,85.282 438.077,86.769 L438.077,104.269 L467.692,104.269 L467.692,86.769 C467.692,85.282 468.898,84.077 470.385,84.077 C471.872,84.077 473.077,85.282 473.077,86.769 Z M505.385,128.5 C505.389,133.582 502.223,138.126 497.454,139.881 C492.686,141.636 487.329,140.23 484.038,136.358 C480.747,132.487 480.222,126.973 482.722,122.55 C482.746,122.502 482.77,122.455 482.796,122.408 L493.65,104.235 C494.412,102.958 496.064,102.541 497.341,103.303 C498.618,104.065 499.036,105.718 498.274,106.995 L492.657,116.418 C492.859,116.418 493.064,116.401 493.27,116.401 C499.954,116.401 505.376,121.815 505.385,128.5 Z M500,128.5 C500,124.783 496.987,121.769 493.269,121.769 C489.552,121.769 486.538,124.783 486.538,128.5 C486.538,132.217 489.552,135.231 493.269,135.231 C495.054,135.231 496.766,134.522 498.029,133.259 C499.291,131.997 500,130.285 500,128.5 Z" />
        </g>
        <g id="Black-S">
            <path d="M673.077,86.769 L673.077,127.154 C673.077,128.641 671.872,129.846 670.385,129.846 C668.898,129.846 667.692,128.641 667.692,127.154 L667.692,109.654 L638.077,109.654 L638.077,127.154 C638.077,128.641 636.872,129.846 635.385,129.846 C633.898,129.846 632.692,128.641 632.692,127.154 L632.692,86.769 C632.692,85.282 633.898,84.077 635.385,84.077 C636.872,84.077 638.077,85.282 638.077,86.769 L638.077,104.269 L667.692,104.269 L667.692,86.769 C667.692,85.282 668.898,84.077 670.385,84.077 C671.872,84.077 673.077,85.282 673.077,86.769 Z M705.385,128.5 C705.389,133.582 702.223,138.126 697.454,139.881 C692.686,141.636 687.329,140.23 684.038,136.358 C680.747,132.487 680.222,126.973 682.722,122.55 C682.746,122.502 682.77,122.455 682.796,122.408 L693.65,104.235 C694.412,102.958 696.064,102.541 697.341,103.303 C698.618,104.065 699.036,105.718 698.274,106.995 L692.657,116.418 C692.859,116.418 693.064,116.401 693.27,116.401 C699.954,116.401 705.376,121.815 705.385,128.5 Z M700,128.5 C700,124.783 696.987,121.769 693.269,121.769 C689.552,121.769 686.538,124.783 686.538,128.5 C686.538,132.217 689.552,135.231 693.269,135.231 C695.054,135.231 696.766,134.522 698.029,133.259 C699.291,131.997 700,130.285 700,128.5 Z" />
        </g>
    </g>
</svg>