<?xml version="1.0" encoding="UTF-8"?>
<svg height="600" width="800" xmlns="http://www.w3.org/2000/svg" xmlns:xlink="http://www.w3.org/1999/xlink">
    <g id="Notes" font-family="'LucidaGrande', 'Lucida Grande', sans-serif" font-size="13">
        <rect fill="white" height="600.0" width="800.0" x="0.0" y="0.0" />
        <g font-size="13">
            <text x="18.0" y="176.0">Small</text>
            <text x="18.0" y="376.0">Medium</text>
            <text x="18.0" y="576.0">Large</text>
        </g>
        <g font-size="9">
            <text x="250.0" y="30.0">Ultralight</text>
            <text x="450.0" y="30.0">Regular</text>
            <text x="650.0" y="30.0">Black</text>
            <text id="template-version" fill="#505050" text-anchor="end" x="785.0" y="575.0">Template v.3.0</text>
            <a href="https://github.com/swhitty/SwiftDraw">
                <text fill="#505050" text-anchor="end" x="785.0" y="590.0">https://github.com/swhitty/SwiftDraw</text>
            </a>
        </g>
    </g>
    <g id="Guides" stroke="rgb(39, 170, 225)" stroke-width="0.5">
        <path id="Capline-S" d="M18,76 l800,0" />
        <path id="H-reference" d="M85,145.755 L87.685,145.755 L113.369,79.287 L114.052,79.287 L114.052,76 L112.148,76 L85,145.755 Z M95.693,121.536 L130.996,121.536 L130.263,119.313 L96.474,119.313 L95.693,121.536 Z M139.15,145.755 L141.787,145.755 L114.638,76 L113.466,76 L113.466,79.287 L139.15,145.755 Z" stroke="none" />
        <path id="Baseline-S" d="M18,146 l800,0" />
        <path id="left-margin-Ultralight-S" d="M220,56 l0,110" />
        <path id="right-margin-Ultralight-S" d="M310,56 l0,110" />
        <path id="left-margin-Regular-S" d="M420,56 l0,110" />
        <path id="right-margin-Regular-S" d="M510,56 l0,110" />
        <path id="left-margin-Black-S" d="M620,56 l0,110" />
        <path id="right-margin-Black-S" d="M710,56 l0,110" />
        <path id="Capline-M" d="M18,276 l800,0" />
        <path id="Baseline-M" d="M18,346 l800,0" />
        <path id="Capline-L" d="M18,476 l800,0" />
        <path id="Baseline-L" d="M18,546 l800,0" />
    </g>
    <g id="Symbols">
        <g id="Ultralight-S">
            <path d="M306.879,108.759 L290.725,97.989 C289.899,97.438 288.836,97.387 287.96,97.855 C287.084,98.324 286.538,99.237 286.538,100.231 L286.538,108.308 L246.154,108.308 L246.154,92.154 L257.26,92.154 C258.615,97.405 263.664,100.828 269.044,100.145 C274.424,99.462 278.456,94.885 278.456,89.462 C278.456,84.039 274.424,79.461 269.044,78.778 C263.664,78.095 258.615,81.518 257.26,86.769 L246.154,86.769 C244.726,86.769 243.356,87.337 242.346,88.346 C241.337,89.356 240.769,90.726 240.769,92.154 L240.769,108.308 L224.615,108.308 C223.128,108.308 221.923,109.513 221.923,111 C221.923,112.487 223.128,113.692 224.615,113.692 L240.769,113.692 L240.769,129.846 C240.769,131.274 241.337,132.644 242.346,133.654 C243.356,134.663 244.726,135.231 246.154,135.231 L256.923,135.231 L256.923,137.923 C256.923,139.351 257.49,140.721 258.5,141.731 C259.51,142.74 260.88,143.308 262.308,143.308 L273.077,143.308 C274.505,143.308 275.875,142.74 276.884,141.731 C277.894,140.721 278.462,139.351 278.462,137.923 L278.462,127.154 C278.462,125.726 277.894,124.356 276.884,123.346 C275.875,122.337 274.505,121.769 273.077,121.769 L262.308,121.769 C260.88,121.769 259.51,122.337 258.5,123.346 C257.49,124.356 256.923,125.726 256.923,127.154 L256.923,129.846 L246.154,129.846 L246.154,113.692 L286.538,113.692 L286.538,121.769 C286.538,122.763 287.084,123.676 287.96,124.144 C288.836,124.613 289.899,124.562 290.725,124.011 L306.879,113.241 C307.629,112.742 308.079,111.901 308.079,111 C308.079,110.099 307.629,109.258 306.879,108.759 Z M267.692,84.077 C270.666,84.077 273.077,86.488 273.077,89.462 C273.077,92.435 270.666,94.846 267.692,94.846 C264.718,94.846 262.308,92.435 262.308,89.462 C262.308,88.033 262.875,86.664 263.885,85.654 C264.895,84.644 266.264,84.077 267.692,84.077 Z M262.308,127.154 L273.077,127.154 L273.077,137.923 L262.308,137.923 Z M291.923,116.738 L291.923,105.279 L300.532,111 Z" />
        </g>
        <g id="Regular-S">
            <path d="M506.879,108.759 L490.725,97.989 C489.899,97.438 488.836,97.387 487.96,97.855 C487.084,98.324 486.538,99.237 486.538,100.231 L486.538,108.308 L446.154,108.308 L446.154,92.154 L457.26,92.154 C458.615,97.405 463.664,100.828 469.044,100.145 C474.424,99.462 478.456,94.885 478.456,89.462 C478.456,84.039 474.424,79.461 469.044,78.778 C463.664,78.095 458.615,81.518 457.26,86.769 L446.154,86.769 C444.726,86.769 443.356,87.337 442.346,88.346 C441.337,89.356 440.769,90.726 440.769,92.154 L440.769,108.308 L424.615,108.308 C423.128,108.308 421.923,109.513 421.923,111 C421.923,112.487 423.128,113.692 424.615,113.692 L440.769,113.692 L440.769,129.846 C440.769,131.274 441.337,132.644 442.346,133.654 C443.356,134.663 444.726,135.231 446.154,135.231 L456.923,135.231 L456.923,137.923 C456.923,139.351 457.49,140.721 458.5,141.731 C459.51,142.74 460.88,143.308 462.308,143.308 L473.077,143.308 C474.505,143.308 475.875,142.74 476.884,141.731 C477.894,140.721 478.462,139.351 478.462,137.923 L478.462,127.154 C478.462,125.726 477.894,124.356 476.884,123.346 C475.875,122.337 474.505,121.769 473.077,121.769 L462.308,121.769 C460.88,121.769 459.51,122.337 458.5,123.346 C457.49,124.356 456.923,125.726 456.923,127.154 L456.923,129.846 L446.154,129.846 L446.154,113.692 L486.538,113.692 L486.538,121.769 C486.538,122.763 487.084,123.676 487.96,124.144 C488.836,124.613 489.899,124.562 490.725,124.011 L506.879,113.241 C507.629,112.742 508.079,111.901 508.079,111 C508.079,110.099 507.629,109.258 506.879,108.759 Z M467.692,84.077 C470.666,84.077 473.077,86.488 473.077,89.462 C473.077,92.435 470.666,94.846 467.692,94.846 C464.718,94.846 462.308,92.435 462.308,89.462 C462.308,88.033 462.875,86.664 463.885,85.654 C464.895,84.644 466.264,84.077 467.692,84.077 Z M462.308,127.154 L473.077,127.154 L473.077,137.923 L462.308,137.923 Z M491.923,116.738 L491.923,105.279 L500.532,111 Z" />
        </g>
        <g id="Black-S">
            <path d="M706.879,108.759 L690.725,97.989 C689.899,97.438 688.836,97.387 687.96,97.855 C687.084,98.324 686.538,99.237 686.538,100.231 L686.538,108.308 L646.154,108.308 L646.154,92.154 L657.26,92.154 C658.615,97.405 663.664,100.828 669.044,100.145 C674.424,99.462 678.456,94.885 678.456,89.462 C678.456,84.039 674.424,79.461 669.044,78.778 C663.664,78.095 658.615,81.518 657.26,86.769 L646.154,86.769 C644.726,86.769 643.356,87.337 642.346,88.346 C641.337,89.356 640.769,90.726 640.769,92.154 L640.769,108.308 L624.615,108.308 C623.128,108.308 621.923,109.513 621.923,111 C621.923,112.487 623.128,113.692 624.615,113.692 L640.769,113.692 L640.769,129.846 C640.769,131.274 641.337,132.644 642.346,133.654 C643.356,134.663 644.726,135.231 646.154,135.231 L656.923,135.231 L656.923,137.923 C656.923,139.351 657.49,140.721 658.5,141.731 C659.51,142.74 660.88,143.308 662.308,143.308 L673.077,143.308 C674.505,143.308 675.875,142.74 676.884,141.731 C677.894,140.721 678.462,139.351 678.462,137.923 L678.462,127.154 C678.462,125.726 677.894,124.356 676.884,123.346 C675.875,122.337 674.505,121.769 673.077,121.769 L662.308,121.769 C660.88,121.769 659.51,122.337 658.5,123.346 C657.49,124.356 656.923,125.726 656.923,127.154 L656.923,129.846 L646.154,129.846 L646.154,113.692 L686.538,113.692 L686.538,121.769 C686.538,122.763 687.084,123.676 687.96,124.144 C688.836,124.613 689.899,124.562 690.725,124.011 L706.879,113.241 C707.629,112.742 708.079,111.901 708.079,111 C708.079,110.099 707.629,109.258 706.879,108.759 Z M667.692,84.077 C670.666,84.077 673.077,86.488 673.077,89.462 C673.077,92.435 670.666,94.846 667.692,94.846 C664.719,94.846 662.308,92.435 662.308,89.462 C662.308,88.033 662.875,86.664 663.885,85.654 C664.895,84.644 666.264,84.077 667.692,84.077 Z M662.308,127.154 L673.077,127.154 L673.077,137.923 L662.308,137.923 Z M691.923,116.738 L691.923,105.279 L700.532,111 Z" />
        </g>
    </g>
</svg>