<?xml version="1.0" encoding="UTF-8"?>
<svg height="600" width="800" xmlns="http://www.w3.org/2000/svg" xmlns:xlink="http://www.w3.org/1999/xlink">
    <g id="Notes" font-family="'LucidaGrande', 'Lucida Grande', sans-serif" font-size="13">
        <rect fill="white" height="600.0" width="800.0" x="0.0" y="0.0" />
        <g font-size="13">
            <text x="18.0" y="176.0">Small</text>
            <text x="18.0" y="376.0">Medium</text>
            <text x="18.0" y="576.0">Large</text>
        </g>
        <g font-size="9">
            <text x="250.0" y="30.0">Ultralight</text>
            <text x="450.0" y="30.0">Regular</text>
            <text x="650.0" y="30.0">Black</text>
            <text id="template-version" fill="#505050" text-anchor="end" x="785.0" y="575.0">Template v.3.0</text>
            <a href="https://github.com/swhitty/SwiftDraw">
                <text fill="#505050" text-anchor="end" x="785.0" y="590.0">https://github.com/swhitty/SwiftDraw</text>
            </a>
        </g>
    </g>
    <g id="Guides" stroke="rgb(39, 170, 225)" stroke-width="0.5">
        <path id="Capline-S" d="M18,76 l800,0" />
        <path id="H-reference" d="M85,145.755 L87.685,145.755 L113.369,79.287 L114.052,79.287 L114.052,76 L112.148,76 L85,145.755 Z M95.693,121.536 L130.996,121.536 L130.263,119.313 L96.474,119.313 L95.693,121.536 Z M139.15,145.755 L141.787,145.755 L114.638,76 L113.466,76 L113.466,79.287 L139.15,145.755 Z" stroke="none" />
        <path id="Baseline-S" d="M18,146 l800,0" />
        <path id="left-margin-Ultralight-S" d="M220,56 l0,110" />
        <path id="right-margin-Ultralight-S" d="M310,56 l0,110" />
        <path id="left-margin-Regular-S" d="M420,56 l0,110" />
        <path id="right-margin-Regular-S" d="M510,56 l0,110" />
        <path id="left-margin-Black-S" d="M620,56 l0,110" />
        <path id="right-margin-Black-S" d="M710,56 l0,110" />
        <path id="Capline-M" d="M18,276 l800,0" />
        <path id="Baseline-M" d="M18,346 l800,0" />
        <path id="Capline-L" d="M18,476 l800,0" />
        <path id="Baseline-L" d="M18,546 l800,0" />
    </g>
    <g id="Symbols">
        <g id="Ultralight-S">
            <path d="M254.231,117.731 C254.231,115.946 253.522,114.234 252.259,112.971 C250.997,111.709 249.285,111 247.5,111 C246.496,111 245.576,110.441 245.112,109.55 C244.649,108.66 244.72,107.585 245.296,106.763 L251.75,97.538 L240.769,97.538 C239.282,97.538 238.077,96.333 238.077,94.846 C238.077,93.359 239.282,92.154 240.769,92.154 L256.923,92.154 C257.927,92.154 258.847,92.713 259.311,93.604 C259.774,94.494 259.703,95.569 259.127,96.391 L252.06,106.487 C257.456,108.652 260.553,114.346 259.439,120.052 C258.325,125.759 253.314,129.869 247.5,129.846 C244.242,129.856 241.119,128.544 238.848,126.208 C238.131,125.53 237.843,124.515 238.096,123.562 C238.348,122.609 239.102,121.87 240.061,121.637 C241.019,121.403 242.028,121.712 242.691,122.442 C244.605,124.397 247.511,124.999 250.044,123.965 C252.577,122.931 254.232,120.466 254.231,117.731 Z M275.769,92.154 C286.178,92.154 294.615,100.592 294.615,111 C294.615,121.408 286.178,129.846 275.769,129.846 L267.692,129.846 C266.978,129.846 266.293,129.562 265.789,129.058 C265.284,128.553 265,127.868 265,127.154 L265,94.846 C265,94.132 265.284,93.447 265.789,92.942 C266.293,92.438 266.978,92.154 267.692,92.154 Z M275.769,97.538 L270.385,97.538 L270.385,124.462 L275.769,124.462 C283.204,124.462 289.231,118.435 289.231,111 C289.231,103.565 283.204,97.538 275.769,97.538 Z M232.692,86.769 L297.308,86.769 C298.795,86.769 300,85.564 300,84.077 C300,82.59 298.795,81.385 297.308,81.385 L232.692,81.385 C231.205,81.385 230,82.59 230,84.077 C230,85.564 231.205,86.769 232.692,86.769 Z M297.308,135.231 L232.692,135.231 C231.205,135.231 230,136.436 230,137.923 C230,139.41 231.205,140.615 232.692,140.615 L297.308,140.615 C298.795,140.615 300,139.41 300,137.923 C300,136.436 298.795,135.231 297.308,135.231 Z" />
        </g>
        <g id="Regular-S">
            <path d="M454.231,117.731 C454.231,115.946 453.522,114.234 452.259,112.971 C450.997,111.709 449.285,111 447.5,111 C446.496,111 445.576,110.441 445.112,109.55 C444.649,108.66 444.72,107.585 445.296,106.763 L451.75,97.538 L440.769,97.538 C439.282,97.538 438.077,96.333 438.077,94.846 C438.077,93.359 439.282,92.154 440.769,92.154 L456.923,92.154 C457.927,92.154 458.847,92.713 459.311,93.604 C459.774,94.494 459.703,95.569 459.127,96.391 L452.06,106.487 C457.456,108.652 460.553,114.346 459.439,120.052 C458.325,125.759 453.314,129.869 447.5,129.846 C444.242,129.856 441.119,128.544 438.848,126.208 C438.131,125.53 437.843,124.515 438.096,123.562 C438.348,122.609 439.102,121.87 440.06,121.637 C441.019,121.403 442.028,121.712 442.691,122.442 C444.605,124.397 447.511,124.999 450.044,123.965 C452.577,122.931 454.232,120.466 454.231,117.731 Z M475.769,92.154 C486.178,92.154 494.615,100.592 494.615,111 C494.615,121.408 486.178,129.846 475.769,129.846 L467.692,129.846 C466.978,129.846 466.293,129.562 465.789,129.058 C465.284,128.553 465,127.868 465,127.154 L465,94.846 C465,94.132 465.284,93.447 465.789,92.942 C466.293,92.438 466.978,92.154 467.692,92.154 Z M475.769,97.538 L470.385,97.538 L470.385,124.462 L475.769,124.462 C483.204,124.462 489.231,118.435 489.231,111 C489.231,103.565 483.204,97.538 475.769,97.538 Z M432.692,86.769 L497.308,86.769 C498.795,86.769 500,85.564 500,84.077 C500,82.59 498.795,81.385 497.308,81.385 L432.692,81.385 C431.205,81.385 430,82.59 430,84.077 C430,85.564 431.205,86.769 432.692,86.769 Z M497.308,135.231 L432.692,135.231 C431.205,135.231 430,136.436 430,137.923 C430,139.41 431.205,140.615 432.692,140.615 L497.308,140.615 C498.795,140.615 500,139.41 500,137.923 C500,136.436 498.795,135.231 497.308,135.231 Z" />
        </g>
        <g id="Black-S">
            <path d="M654.231,117.731 C654.231,115.946 653.522,114.234 652.259,112.971 C650.997,111.709 649.285,111 647.5,111 C646.496,111 645.576,110.441 645.112,109.55 C644.649,108.66 644.72,107.585 645.296,106.763 L651.75,97.538 L640.769,97.538 C639.282,97.538 638.077,96.333 638.077,94.846 C638.077,93.359 639.282,92.154 640.769,92.154 L656.923,92.154 C657.927,92.154 658.847,92.713 659.311,93.604 C659.774,94.494 659.703,95.569 659.127,96.391 L652.06,106.487 C657.456,108.652 660.553,114.346 659.439,120.052 C658.325,125.759 653.314,129.869 647.5,129.846 C644.242,129.856 641.119,128.544 638.848,126.208 C638.131,125.53 637.843,124.515 638.096,123.562 C638.348,122.609 639.102,121.87 640.06,121.637 C641.019,121.403 642.028,121.712 642.691,122.442 C644.605,124.397 647.511,124.999 650.044,123.965 C652.577,122.931 654.232,120.466 654.231,117.731 Z M675.769,92.154 C686.178,92.154 694.615,100.592 694.615,111 C694.615,121.408 686.178,129.846 675.769,129.846 L667.692,129.846 C666.978,129.846 666.293,129.562 665.789,129.058 C665.284,128.553 665,127.868 665,127.154 L665,94.846 C665,94.132 665.284,93.447 665.789,92.942 C666.293,92.438 666.978,92.154 667.692,92.154 Z M675.769,97.538 L670.385,97.538 L670.385,124.462 L675.769,124.462 C683.204,124.462 689.231,118.435 689.231,111 C689.231,103.565 683.204,97.538 675.769,97.538 Z M632.692,86.769 L697.308,86.769 C698.795,86.769 700,85.564 700,84.077 C700,82.59 698.795,81.385 697.308,81.385 L632.692,81.385 C631.205,81.385 630,82.59 630,84.077 C630,85.564 631.205,86.769 632.692,86.769 Z M697.308,135.231 L632.692,135.231 C631.205,135.231 630,136.436 630,137.923 C630,139.41 631.205,140.615 632.692,140.615 L697.308,140.615 C698.795,140.615 700,139.41 700,137.923 C700,136.436 698.795,135.231 697.308,135.231 Z" />
        </g>
    </g>
</svg>