<?xml version="1.0" encoding="UTF-8"?>
<svg height="600" width="800" xmlns="http://www.w3.org/2000/svg" xmlns:xlink="http://www.w3.org/1999/xlink">
    <g id="Notes" font-family="'LucidaGrande', 'Lucida Grande', sans-serif" font-size="13">
        <rect fill="white" height="600.0" width="800.0" x="0.0" y="0.0" />
        <g font-size="13">
            <text x="18.0" y="176.0">Small</text>
            <text x="18.0" y="376.0">Medium</text>
            <text x="18.0" y="576.0">Large</text>
        </g>
        <g font-size="9">
            <text x="250.0" y="30.0">Ultralight</text>
            <text x="450.0" y="30.0">Regular</text>
            <text x="650.0" y="30.0">Black</text>
            <text id="template-version" fill="#505050" text-anchor="end" x="785.0" y="575.0">Template v.3.0</text>
            <a href="https://github.com/swhitty/SwiftDraw">
                <text fill="#505050" text-anchor="end" x="785.0" y="590.0">https://github.com/swhitty/SwiftDraw</text>
            </a>
        </g>
    </g>
    <g id="Guides" stroke="rgb(39, 170, 225)" stroke-width="0.5">
        <path id="Capline-S" d="M18,76 l800,0" />
        <path id="H-reference" d="M85,145.755 L87.685,145.755 L113.369,79.287 L114.052,79.287 L114.052,76 L112.148,76 L85,145.755 Z M95.693,121.536 L130.996,121.536 L130.263,119.313 L96.474,119.313 L95.693,121.536 Z M139.15,145.755 L141.787,145.755 L114.638,76 L113.466,76 L113.466,79.287 L139.15,145.755 Z" stroke="none" />
        <path id="Baseline-S" d="M18,146 l800,0" />
        <path id="left-margin-Ultralight-S" d="M220,56 l0,110" />
        <path id="right-margin-Ultralight-S" d="M310,56 l0,110" />
        <path id="left-margin-Regular-S" d="M420,56 l0,110" />
        <path id="right-margin-Regular-S" d="M510,56 l0,110" />
        <path id="left-margin-Black-S" d="M620,56 l0,110" />
        <path id="right-margin-Black-S" d="M710,56 l0,110" />
        <path id="Capline-M" d="M18,276 l800,0" />
        <path id="Baseline-M" d="M18,346 l800,0" />
        <path id="Capline-L" d="M18,476 l800,0" />
        <path id="Baseline-L" d="M18,546 l800,0" />
    </g>
    <g id="Symbols">
        <g id="Ultralight-S">
            <path d="M300,84.077 C300,84.791 299.716,85.476 299.211,85.981 C298.707,86.486 298.022,86.769 297.308,86.769 L238.077,86.769 C236.59,86.769 235.385,85.564 235.385,84.077 C235.385,82.59 236.59,81.385 238.077,81.385 L297.308,81.385 C298.022,81.385 298.707,81.668 299.211,82.173 C299.716,82.678 300,83.363 300,84.077 Z M281.941,98.326 L248.846,131.425 L248.846,105.615 C248.846,104.128 247.641,102.923 246.154,102.923 C244.667,102.923 243.462,104.128 243.462,105.615 L243.462,137.923 C243.462,138.637 243.745,139.322 244.25,139.827 C244.755,140.332 245.44,140.615 246.154,140.615 L278.462,140.615 C279.948,140.615 281.154,139.41 281.154,137.923 C281.154,136.436 279.948,135.231 278.462,135.231 L252.652,135.231 L285.751,102.136 C286.803,101.082 286.802,99.376 285.75,98.325 C284.697,97.273 282.992,97.274 281.94,98.327 Z" />
        </g>
        <g id="Regular-S">
            <path d="M500,84.077 C500,84.791 499.716,85.476 499.211,85.981 C498.707,86.486 498.022,86.769 497.308,86.769 L438.077,86.769 C436.59,86.769 435.385,85.564 435.385,84.077 C435.385,82.59 436.59,81.385 438.077,81.385 L497.308,81.385 C498.022,81.385 498.707,81.668 499.211,82.173 C499.716,82.678 500,83.363 500,84.077 Z M481.941,98.326 L448.846,131.425 L448.846,105.615 C448.846,104.128 447.641,102.923 446.154,102.923 C444.667,102.923 443.462,104.128 443.462,105.615 L443.462,137.923 C443.462,138.637 443.745,139.322 444.25,139.827 C444.755,140.332 445.44,140.615 446.154,140.615 L478.462,140.615 C479.948,140.615 481.154,139.41 481.154,137.923 C481.154,136.436 479.948,135.231 478.462,135.231 L452.652,135.231 L485.751,102.136 C486.803,101.082 486.802,99.376 485.75,98.325 C484.697,97.273 482.992,97.274 481.94,98.327 Z" />
        </g>
        <g id="Black-S">
            <path d="M700,84.077 C700,84.791 699.716,85.476 699.211,85.981 C698.707,86.486 698.022,86.769 697.308,86.769 L638.077,86.769 C636.59,86.769 635.385,85.564 635.385,84.077 C635.385,82.59 636.59,81.385 638.077,81.385 L697.308,81.385 C698.022,81.385 698.707,81.668 699.211,82.173 C699.716,82.678 700,83.363 700,84.077 Z M681.941,98.326 L648.846,131.425 L648.846,105.615 C648.846,104.128 647.641,102.923 646.154,102.923 C644.667,102.923 643.462,104.128 643.462,105.615 L643.462,137.923 C643.462,138.637 643.745,139.322 644.25,139.827 C644.755,140.332 645.44,140.615 646.154,140.615 L678.462,140.615 C679.948,140.615 681.154,139.41 681.154,137.923 C681.154,136.436 679.948,135.231 678.462,135.231 L652.652,135.231 L685.751,102.136 C686.803,101.082 686.802,99.376 685.75,98.325 C684.697,97.273 682.992,97.274 681.94,98.327 Z" />
        </g>
    </g>
</svg>