<?xml version="1.0" encoding="UTF-8"?>
<svg height="600" width="800" xmlns="http://www.w3.org/2000/svg" xmlns:xlink="http://www.w3.org/1999/xlink">
    <g id="Notes" font-family="'LucidaGrande', 'Lucida Grande', sans-serif" font-size="13">
        <rect fill="white" height="600.0" width="800.0" x="0.0" y="0.0" />
        <g font-size="13">
            <text x="18.0" y="176.0">Small</text>
            <text x="18.0" y="376.0">Medium</text>
            <text x="18.0" y="576.0">Large</text>
        </g>
        <g font-size="9">
            <text x="250.0" y="30.0">Ultralight</text>
            <text x="450.0" y="30.0">Regular</text>
            <text x="650.0" y="30.0">Black</text>
            <text id="template-version" fill="#505050" text-anchor="end" x="785.0" y="575.0">Template v.3.0</text>
            <a href="https://github.com/swhitty/SwiftDraw">
                <text fill="#505050" text-anchor="end" x="785.0" y="590.0">https://github.com/swhitty/SwiftDraw</text>
            </a>
        </g>
    </g>
    <g id="Guides" stroke="rgb(39, 170, 225)" stroke-width="0.5">
        <path id="Capline-S" d="M18,76 l800,0" />
        <path id="H-reference" d="M85,145.755 L87.685,145.755 L113.369,79.287 L114.052,79.287 L114.052,76 L112.148,76 L85,145.755 Z M95.693,121.536 L130.996,121.536 L130.263,119.313 L96.474,119.313 L95.693,121.536 Z M139.15,145.755 L141.787,145.755 L114.638,76 L113.466,76 L113.466,79.287 L139.15,145.755 Z" stroke="none" />
        <path id="Baseline-S" d="M18,146 l800,0" />
        <path id="left-margin-Ultralight-S" d="M220,56 l0,110" />
        <path id="right-margin-Ultralight-S" d="M310,56 l0,110" />
        <path id="left-margin-Regular-S" d="M420,56 l0,110" />
        <path id="right-margin-Regular-S" d="M510,56 l0,110" />
        <path id="left-margin-Black-S" d="M620,56 l0,110" />
        <path id="right-margin-Black-S" d="M710,56 l0,110" />
        <path id="Capline-M" d="M18,276 l800,0" />
        <path id="Baseline-M" d="M18,346 l800,0" />
        <path id="Capline-L" d="M18,476 l800,0" />
        <path id="Baseline-L" d="M18,546 l800,0" />
    </g>
    <g id="Symbols">
        <g id="Ultralight-S">
            <path d="M281.941,123.674 L275.769,117.499 L275.769,137.923 C275.769,139.41 274.564,140.615 273.077,140.615 C271.59,140.615 270.385,139.41 270.385,137.923 L270.385,117.499 L264.212,123.674 C263.162,124.726 261.457,124.727 260.404,123.675 C259.351,122.624 259.35,120.918 260.402,119.865 L271.171,109.096 C271.676,108.591 272.361,108.307 273.076,108.307 C273.79,108.307 274.476,108.591 274.981,109.096 L285.75,119.865 C286.802,120.919 286.801,122.625 285.749,123.676 C284.696,124.728 282.991,124.727 281.939,123.674 Z M275.769,81.385 C264.551,81.393 254.298,87.734 249.28,97.767 C241.295,96.594 233.324,99.983 228.629,106.548 C223.934,113.114 223.304,121.752 226.996,128.93 C230.688,136.107 238.083,140.617 246.154,140.615 L259.615,140.615 C261.102,140.615 262.308,139.41 262.308,137.923 C262.308,136.436 261.102,135.231 259.615,135.231 L246.154,135.231 C237.232,135.231 230,127.998 230,119.077 C230,110.155 237.232,102.923 246.154,102.923 C246.524,102.923 246.894,102.923 247.261,102.963 C246.525,105.579 246.153,108.283 246.154,111 C246.154,112.487 247.359,113.692 248.846,113.692 C250.333,113.692 251.538,112.487 251.538,111 C251.538,98.902 260.467,88.656 272.455,87.001 C284.442,85.345 295.814,92.788 299.093,104.437 C302.373,116.085 296.555,128.368 285.465,133.21 C284.293,133.718 283.639,134.98 283.9,136.23 C284.161,137.48 285.265,138.375 286.542,138.373 C286.913,138.372 287.28,138.294 287.619,138.144 C300.474,132.534 307.631,118.677 304.765,104.948 C301.898,91.218 289.795,81.382 275.769,81.385 Z" />
        </g>
        <g id="Regular-S">
            <path d="M481.941,123.674 L475.769,117.499 L475.769,137.923 C475.769,139.41 474.564,140.615 473.077,140.615 C471.59,140.615 470.385,139.41 470.385,137.923 L470.385,117.499 L464.212,123.674 C463.162,124.726 461.457,124.727 460.404,123.675 C459.351,122.624 459.35,120.918 460.402,119.865 L471.171,109.096 C471.676,108.591 472.361,108.307 473.076,108.307 C473.79,108.307 474.476,108.591 474.981,109.096 L485.75,119.865 C486.802,120.919 486.801,122.625 485.749,123.676 C484.696,124.728 482.991,124.727 481.939,123.674 Z M475.769,81.385 C464.551,81.393 454.298,87.734 449.28,97.767 C441.295,96.594 433.324,99.983 428.629,106.548 C423.934,113.114 423.304,121.752 426.996,128.93 C430.688,136.107 438.083,140.617 446.154,140.615 L459.615,140.615 C461.102,140.615 462.308,139.41 462.308,137.923 C462.308,136.436 461.102,135.231 459.615,135.231 L446.154,135.231 C437.232,135.231 430,127.998 430,119.077 C430,110.155 437.232,102.923 446.154,102.923 C446.524,102.923 446.894,102.923 447.261,102.963 C446.525,105.579 446.153,108.283 446.154,111 C446.154,112.487 447.359,113.692 448.846,113.692 C450.333,113.692 451.538,112.487 451.538,111 C451.538,98.902 460.467,88.656 472.455,87.001 C484.442,85.345 495.814,92.788 499.093,104.437 C502.373,116.085 496.555,128.368 485.465,133.21 C484.293,133.718 483.639,134.98 483.9,136.23 C484.161,137.48 485.265,138.375 486.542,138.373 C486.913,138.372 487.28,138.294 487.619,138.144 C500.474,132.534 507.631,118.677 504.765,104.948 C501.898,91.218 489.795,81.382 475.769,81.385 Z" />
        </g>
        <g id="Black-S">
            <path d="M681.941,123.674 L675.769,117.499 L675.769,137.923 C675.769,139.41 674.564,140.615 673.077,140.615 C671.59,140.615 670.385,139.41 670.385,137.923 L670.385,117.499 L664.213,123.674 C663.162,124.726 661.457,124.727 660.404,123.675 C659.351,122.624 659.35,120.918 660.402,119.865 L671.171,109.096 C671.676,108.591 672.361,108.307 673.076,108.307 C673.79,108.307 674.476,108.591 674.981,109.096 L685.75,119.865 C686.802,120.919 686.801,122.625 685.749,123.676 C684.696,124.728 682.991,124.727 681.939,123.674 Z M675.769,81.385 C664.551,81.393 654.299,87.734 649.28,97.767 C641.295,96.594 633.324,99.983 628.629,106.548 C623.934,113.114 623.304,121.752 626.996,128.93 C630.688,136.107 638.083,140.617 646.154,140.615 L659.615,140.615 C661.102,140.615 662.308,139.41 662.308,137.923 C662.308,136.436 661.102,135.231 659.615,135.231 L646.154,135.231 C637.232,135.231 630,127.998 630,119.077 C630,110.155 637.232,102.923 646.154,102.923 C646.524,102.923 646.894,102.923 647.261,102.963 C646.525,105.579 646.153,108.283 646.154,111 C646.154,112.487 647.359,113.692 648.846,113.692 C650.333,113.692 651.538,112.487 651.538,111 C651.538,98.902 660.467,88.656 672.455,87.001 C684.442,85.345 695.814,92.788 699.093,104.437 C702.373,116.085 696.555,128.368 685.465,133.21 C684.293,133.718 683.639,134.98 683.9,136.23 C684.161,137.48 685.265,138.375 686.542,138.373 C686.913,138.372 687.28,138.294 687.619,138.144 C700.474,132.534 707.631,118.677 704.765,104.948 C701.898,91.218 689.795,81.382 675.769,81.385 Z" />
        </g>
    </g>
</svg>