<?xml version="1.0" encoding="UTF-8"?>
<svg height="600" width="800" xmlns="http://www.w3.org/2000/svg" xmlns:xlink="http://www.w3.org/1999/xlink">
    <g id="Notes" font-family="'LucidaGrande', 'Lucida Grande', sans-serif" font-size="13">
        <rect fill="white" height="600.0" width="800.0" x="0.0" y="0.0" />
        <g font-size="13">
            <text x="18.0" y="176.0">Small</text>
            <text x="18.0" y="376.0">Medium</text>
            <text x="18.0" y="576.0">Large</text>
        </g>
        <g font-size="9">
            <text x="250.0" y="30.0">Ultralight</text>
            <text x="450.0" y="30.0">Regular</text>
            <text x="650.0" y="30.0">Black</text>
            <text id="template-version" fill="#505050" text-anchor="end" x="785.0" y="575.0">Template v.3.0</text>
            <a href="https://github.com/swhitty/SwiftDraw">
                <text fill="#505050" text-anchor="end" x="785.0" y="590.0">https://github.com/swhitty/SwiftDraw</text>
            </a>
        </g>
    </g>
    <g id="Guides" stroke="rgb(39, 170, 225)" stroke-width="0.5">
        <path id="Capline-S" d="M18,76 l800,0" />
        <path id="H-reference" d="M85,145.755 L87.685,145.755 L113.369,79.287 L114.052,79.287 L114.052,76 L112.148,76 L85,145.755 Z M95.693,121.536 L130.996,121.536 L130.263,119.313 L96.474,119.313 L95.693,121.536 Z M139.15,145.755 L141.787,145.755 L114.638,76 L113.466,76 L113.466,79.287 L139.15,145.755 Z" stroke="none" />
        <path id="Baseline-S" d="M18,146 l800,0" />
        <path id="left-margin-Ultralight-S" d="M220,56 l0,110" />
        <path id="right-margin-Ultralight-S" d="M310,56 l0,110" />
        <path id="left-margin-Regular-S" d="M420,56 l0,110" />
        <path id="right-margin-Regular-S" d="M510,56 l0,110" />
        <path id="left-margin-Black-S" d="M620,56 l0,110" />
        <path id="right-margin-Black-S" d="M710,56 l0,110" />
        <path id="Capline-M" d="M18,276 l800,0" />
        <path id="Baseline-M" d="M18,346 l800,0" />
        <path id="Capline-L" d="M18,476 l800,0" />
        <path id="Baseline-L" d="M18,546 l800,0" />
    </g>
    <g id="Symbols">
        <g id="Ultralight-S">
            <path d="M284.412,103.017 C284.097,102.371 283.754,102.371 283.382,101.133 C287.813,91.365 283.834,79.838 274.322,74.883 C273.004,74.195 271.377,74.706 270.689,76.025 C270.001,77.344 270.513,78.97 271.831,79.658 C277.889,82.81 281.006,89.695 279.377,96.327 C271.203,88.965 258.79,88.965 250.616,96.327 C248.988,89.694 252.108,82.808 258.168,79.658 C259.487,78.97 259.999,77.344 259.311,76.025 C258.623,74.706 256.996,74.195 255.678,74.883 C246.164,79.837 242.184,91.365 246.615,101.133 C246.241,101.741 245.898,102.368 245.588,103.011 C235.228,104.007 227.317,112.707 227.308,123.115 C227.308,124.602 228.513,125.808 230,125.808 C231.487,125.808 232.692,124.602 232.692,123.115 C232.702,116.381 237.247,110.497 243.761,108.786 C241.971,119.41 248.315,129.72 258.606,132.912 C253.781,138.382 245.692,139.525 239.541,135.604 C238.731,135.049 237.683,134.979 236.806,135.422 C235.929,135.864 235.363,136.749 235.328,137.73 C235.294,138.712 235.796,139.634 236.64,140.138 C241.17,143.026 246.664,143.991 251.908,142.817 C257.151,141.644 261.71,138.429 264.576,133.885 L265,133.885 L265.424,133.885 C268.29,138.433 272.851,141.651 278.098,142.826 C283.344,144 288.842,143.034 293.374,140.141 C294.217,139.638 294.72,138.715 294.685,137.734 C294.651,136.752 294.085,135.867 293.208,135.425 C292.331,134.982 291.283,135.052 290.473,135.608 C284.322,139.528 276.232,138.386 271.408,132.915 C281.693,129.718 288.03,119.41 286.239,108.789 C292.752,110.5 297.296,116.382 297.308,123.115 C297.308,124.602 298.513,125.808 300,125.808 C301.487,125.808 302.692,124.602 302.692,123.115 C302.679,112.708 294.768,104.013 284.41,103.017 Z M265,96.192 C269.561,96.191 273.909,98.122 276.967,101.506 C274.18,105.332 269.732,107.596 264.998,107.596 C260.265,107.596 255.816,105.332 253.029,101.506 C256.088,98.12 260.438,96.189 265,96.192 Z M265.04,112.992 L265,113.06 L264.96,112.992 L265.04,112.992 Z M248.846,112.346 C248.845,111.024 249.008,109.707 249.331,108.425 C253.789,108.98 257.754,111.529 260.11,115.355 C262.466,119.18 262.957,123.868 261.446,128.099 C254.086,126.43 248.857,119.893 248.846,112.346 Z M268.557,128.1 C267.046,123.869 267.538,119.181 269.894,115.355 C272.249,111.53 276.214,108.981 280.673,108.425 C281.727,112.644 281.036,117.11 278.756,120.812 C276.476,124.515 272.799,127.142 268.557,128.1 Z" />
        </g>
        <g id="Regular-S">
            <path d="M484.412,103.017 C484.097,102.371 483.754,102.371 483.382,101.133 C487.813,91.365 483.834,79.838 474.322,74.883 C473.004,74.195 471.377,74.706 470.689,76.025 C470.001,77.344 470.513,78.97 471.831,79.658 C477.889,82.81 481.006,89.695 479.377,96.327 C471.203,88.965 458.79,88.965 450.616,96.327 C448.988,89.694 452.108,82.808 458.168,79.658 C459.487,78.97 459.999,77.344 459.311,76.025 C458.623,74.706 456.996,74.195 455.678,74.883 C446.164,79.837 442.184,91.365 446.615,101.133 C446.241,101.741 445.898,102.368 445.588,103.011 C435.228,104.007 427.317,112.707 427.308,123.115 C427.308,124.602 428.513,125.808 430,125.808 C431.487,125.808 432.692,124.602 432.692,123.115 C432.702,116.381 437.247,110.497 443.761,108.786 C441.971,119.41 448.315,129.72 458.606,132.912 C453.781,138.382 445.692,139.525 439.541,135.604 C438.731,135.049 437.683,134.979 436.806,135.422 C435.929,135.864 435.363,136.749 435.328,137.73 C435.294,138.712 435.796,139.634 436.64,140.138 C441.17,143.026 446.664,143.991 451.908,142.817 C457.151,141.644 461.71,138.429 464.576,133.885 L465,133.885 L465.424,133.885 C468.29,138.433 472.851,141.651 478.098,142.826 C483.344,144 488.842,143.034 493.374,140.141 C494.217,139.638 494.72,138.715 494.685,137.734 C494.651,136.752 494.084,135.867 493.208,135.425 C492.331,134.982 491.283,135.052 490.473,135.608 C484.322,139.528 476.232,138.386 471.408,132.915 C481.693,129.718 488.03,119.41 486.239,108.789 C492.752,110.5 497.296,116.382 497.308,123.115 C497.308,124.602 498.513,125.808 500,125.808 C501.487,125.808 502.692,124.602 502.692,123.115 C502.679,112.708 494.768,104.013 484.41,103.017 Z M465,96.192 C469.561,96.191 473.909,98.122 476.967,101.506 C474.18,105.332 469.732,107.596 464.998,107.596 C460.265,107.596 455.816,105.332 453.029,101.506 C456.087,98.12 460.437,96.189 465,96.192 Z M465.04,112.992 L465,113.06 L464.96,112.992 L465.04,112.992 Z M448.846,112.346 C448.845,111.024 449.008,109.707 449.331,108.425 C453.789,108.98 457.754,111.529 460.11,115.355 C462.466,119.18 462.957,123.868 461.446,128.099 C454.086,126.43 448.857,119.893 448.846,112.346 Z M468.557,128.1 C467.046,123.869 467.538,119.181 469.894,115.355 C472.249,111.53 476.214,108.981 480.673,108.425 C481.727,112.644 481.036,117.11 478.756,120.812 C476.476,124.515 472.799,127.142 468.557,128.1 Z" />
        </g>
        <g id="Black-S">
            <path d="M684.412,103.017 C684.097,102.371 683.754,102.371 683.382,101.133 C687.813,91.365 683.834,79.838 674.322,74.883 C673.004,74.195 671.377,74.706 670.689,76.025 C670.002,77.344 670.513,78.97 671.831,79.658 C677.889,82.81 681.006,89.695 679.377,96.327 C671.203,88.965 658.79,88.965 650.616,96.327 C648.988,89.694 652.108,82.808 658.168,79.658 C659.487,78.97 659.999,77.344 659.311,76.025 C658.623,74.706 656.996,74.195 655.678,74.883 C646.164,79.837 642.184,91.365 646.615,101.133 C646.241,101.741 645.898,102.368 645.588,103.011 C635.228,104.007 627.317,112.707 627.308,123.115 C627.308,124.602 628.513,125.808 630,125.808 C631.487,125.808 632.692,124.602 632.692,123.115 C632.702,116.381 637.247,110.497 643.761,108.786 C641.971,119.41 648.315,129.72 658.606,132.912 C653.781,138.382 645.692,139.525 639.541,135.604 C638.731,135.049 637.683,134.979 636.806,135.422 C635.929,135.864 635.363,136.749 635.328,137.73 C635.294,138.712 635.796,139.634 636.64,140.138 C641.17,143.026 646.664,143.991 651.908,142.817 C657.151,141.644 661.71,138.429 664.576,133.885 L665,133.885 L665.424,133.885 C668.29,138.433 672.851,141.651 678.098,142.826 C683.344,144 688.842,143.034 693.374,140.141 C694.217,139.638 694.72,138.715 694.685,137.734 C694.651,136.752 694.085,135.867 693.208,135.425 C692.331,134.982 691.283,135.052 690.473,135.608 C684.322,139.528 676.232,138.386 671.408,132.915 C681.693,129.718 688.03,119.41 686.239,108.789 C692.752,110.5 697.296,116.382 697.308,123.115 C697.308,124.602 698.513,125.808 700,125.808 C701.487,125.808 702.692,124.602 702.692,123.115 C702.679,112.708 694.768,104.013 684.41,103.017 Z M665,96.192 C669.561,96.191 673.909,98.122 676.967,101.506 C674.18,105.332 669.732,107.596 664.998,107.596 C660.265,107.596 655.816,105.332 653.029,101.506 C656.088,98.12 660.438,96.189 665,96.192 Z M665.04,112.992 L665,113.06 L664.96,112.992 L665.04,112.992 Z M648.846,112.346 C648.845,111.024 649.008,109.707 649.331,108.425 C653.789,108.98 657.754,111.529 660.11,115.355 C662.466,119.18 662.957,123.868 661.446,128.099 C654.086,126.43 648.857,119.893 648.846,112.346 Z M668.557,128.1 C667.046,123.869 667.538,119.181 669.894,115.355 C672.249,111.53 676.214,108.981 680.673,108.425 C681.727,112.644 681.036,117.11 678.756,120.812 C676.476,124.515 672.799,127.142 668.557,128.1 Z" />
        </g>
    </g>
</svg>