<?xml version="1.0" encoding="UTF-8"?>
<svg height="600" width="800" xmlns="http://www.w3.org/2000/svg" xmlns:xlink="http://www.w3.org/1999/xlink">
    <g id="Notes" font-family="'LucidaGrande', 'Lucida Grande', sans-serif" font-size="13">
        <rect fill="white" height="600.0" width="800.0" x="0.0" y="0.0" />
        <g font-size="13">
            <text x="18.0" y="176.0">Small</text>
            <text x="18.0" y="376.0">Medium</text>
            <text x="18.0" y="576.0">Large</text>
        </g>
        <g font-size="9">
            <text x="250.0" y="30.0">Ultralight</text>
            <text x="450.0" y="30.0">Regular</text>
            <text x="650.0" y="30.0">Black</text>
            <text id="template-version" fill="#505050" text-anchor="end" x="785.0" y="575.0">Template v.3.0</text>
            <a href="https://github.com/swhitty/SwiftDraw">
                <text fill="#505050" text-anchor="end" x="785.0" y="590.0">https://github.com/swhitty/SwiftDraw</text>
            </a>
        </g>
    </g>
    <g id="Guides" stroke="rgb(39, 170, 225)" stroke-width="0.5">
        <path id="Capline-S" d="M18,76 l800,0" />
        <path id="H-reference" d="M85,145.755 L87.685,145.755 L113.369,79.287 L114.052,79.287 L114.052,76 L112.148,76 L85,145.755 Z M95.693,121.536 L130.996,121.536 L130.263,119.313 L96.474,119.313 L95.693,121.536 Z M139.15,145.755 L141.787,145.755 L114.638,76 L113.466,76 L113.466,79.287 L139.15,145.755 Z" stroke="none" />
        <path id="Baseline-S" d="M18,146 l800,0" />
        <path id="left-margin-Ultralight-S" d="M220,56 l0,110" />
        <path id="right-margin-Ultralight-S" d="M310,56 l0,110" />
        <path id="left-margin-Regular-S" d="M420,56 l0,110" />
        <path id="right-margin-Regular-S" d="M510,56 l0,110" />
        <path id="left-margin-Black-S" d="M620,56 l0,110" />
        <path id="right-margin-Black-S" d="M710,56 l0,110" />
        <path id="Capline-M" d="M18,276 l800,0" />
        <path id="Baseline-M" d="M18,346 l800,0" />
        <path id="Capline-L" d="M18,476 l800,0" />
        <path id="Baseline-L" d="M18,546 l800,0" />
    </g>
    <g id="Symbols">
        <g id="Ultralight-S">
            <path d="M257.993,76.111 C255.48,75.582 252.946,76.918 251.963,79.291 L251.942,79.338 L230.404,133.161 C229.711,134.824 229.897,136.724 230.898,138.222 C231.899,139.72 233.583,140.619 235.385,140.615 L256.923,140.615 C258.351,140.615 259.721,140.048 260.731,139.038 C261.74,138.028 262.308,136.659 262.308,135.231 L262.308,81.385 C262.326,78.818 260.513,76.602 257.993,76.111 Z M256.923,135.231 L235.385,135.231 L235.405,135.18 L256.923,81.385 Z M299.586,133.161 L278.048,79.338 L278.027,79.291 C277.023,76.945 274.51,75.625 272.008,76.132 C269.506,76.639 267.704,78.832 267.692,81.385 L267.692,135.231 C267.692,136.659 268.26,138.028 269.269,139.038 C270.279,140.048 271.649,140.615 273.077,140.615 L294.615,140.615 C296.416,140.616 298.098,139.717 299.098,138.219 C300.097,136.722 300.282,134.823 299.589,133.161 Z M273.077,135.231 L273.077,81.385 L294.592,135.177 L294.612,135.227 Z" />
        </g>
        <g id="Regular-S">
            <path d="M457.993,76.111 C455.48,75.582 452.946,76.918 451.962,79.291 L451.942,79.338 L430.404,133.161 C429.711,134.824 429.897,136.724 430.898,138.222 C431.899,139.72 433.583,140.619 435.385,140.615 L456.923,140.615 C458.351,140.615 459.721,140.048 460.731,139.038 C461.74,138.028 462.308,136.659 462.308,135.231 L462.308,81.385 C462.326,78.818 460.513,76.602 457.993,76.111 Z M456.923,135.231 L435.385,135.231 L435.405,135.18 L456.923,81.385 Z M499.586,133.161 L478.048,79.338 L478.027,79.291 C477.023,76.945 474.51,75.625 472.008,76.132 C469.506,76.639 467.704,78.832 467.692,81.385 L467.692,135.231 C467.692,136.659 468.26,138.028 469.269,139.038 C470.279,140.048 471.649,140.615 473.077,140.615 L494.615,140.615 C496.416,140.616 498.098,139.717 499.097,138.219 C500.097,136.722 500.282,134.823 499.589,133.161 Z M473.077,135.231 L473.077,81.385 L494.592,135.177 L494.612,135.227 Z" />
        </g>
        <g id="Black-S">
            <path d="M657.993,76.111 C655.48,75.582 652.946,76.918 651.963,79.291 L651.942,79.338 L630.404,133.161 C629.711,134.824 629.897,136.724 630.898,138.222 C631.899,139.72 633.583,140.619 635.385,140.615 L656.923,140.615 C658.351,140.615 659.721,140.048 660.731,139.038 C661.74,138.028 662.308,136.659 662.308,135.231 L662.308,81.385 C662.326,78.818 660.513,76.602 657.993,76.111 Z M656.923,135.231 L635.385,135.231 L635.405,135.18 L656.923,81.385 Z M699.586,133.161 L678.048,79.338 L678.027,79.291 C677.023,76.945 674.51,75.625 672.008,76.132 C669.506,76.639 667.704,78.832 667.692,81.385 L667.692,135.231 C667.692,136.659 668.26,138.028 669.269,139.038 C670.279,140.048 671.649,140.615 673.077,140.615 L694.615,140.615 C696.416,140.616 698.098,139.717 699.098,138.219 C700.097,136.722 700.282,134.823 699.589,133.161 Z M673.077,135.231 L673.077,81.385 L694.592,135.177 L694.612,135.227 Z" />
        </g>
    </g>
</svg>