<?xml version="1.0" encoding="UTF-8"?>
<svg height="600" width="800" xmlns="http://www.w3.org/2000/svg" xmlns:xlink="http://www.w3.org/1999/xlink">
    <g id="Notes" font-family="'LucidaGrande', 'Lucida Grande', sans-serif" font-size="13">
        <rect fill="white" height="600.0" width="800.0" x="0.0" y="0.0" />
        <g font-size="13">
            <text x="18.0" y="176.0">Small</text>
            <text x="18.0" y="376.0">Medium</text>
            <text x="18.0" y="576.0">Large</text>
        </g>
        <g font-size="9">
            <text x="250.0" y="30.0">Ultralight</text>
            <text x="450.0" y="30.0">Regular</text>
            <text x="650.0" y="30.0">Black</text>
            <text id="template-version" fill="#505050" text-anchor="end" x="785.0" y="575.0">Template v.3.0</text>
            <a href="https://github.com/swhitty/SwiftDraw">
                <text fill="#505050" text-anchor="end" x="785.0" y="590.0">https://github.com/swhitty/SwiftDraw</text>
            </a>
        </g>
    </g>
    <g id="Guides" stroke="rgb(39, 170, 225)" stroke-width="0.5">
        <path id="Capline-S" d="M18,76 l800,0" />
        <path id="H-reference" d="M85,145.755 L87.685,145.755 L113.369,79.287 L114.052,79.287 L114.052,76 L112.148,76 L85,145.755 Z M95.693,121.536 L130.996,121.536 L130.263,119.313 L96.474,119.313 L95.693,121.536 Z M139.15,145.755 L141.787,145.755 L114.638,76 L113.466,76 L113.466,79.287 L139.15,145.755 Z" stroke="none" />
        <path id="Baseline-S" d="M18,146 l800,0" />
        <path id="left-margin-Ultralight-S" d="M220,56 l0,110" />
        <path id="right-margin-Ultralight-S" d="M310,56 l0,110" />
        <path id="left-margin-Regular-S" d="M420,56 l0,110" />
        <path id="right-margin-Regular-S" d="M510,56 l0,110" />
        <path id="left-margin-Black-S" d="M620,56 l0,110" />
        <path id="right-margin-Black-S" d="M710,56 l0,110" />
        <path id="Capline-M" d="M18,276 l800,0" />
        <path id="Baseline-M" d="M18,346 l800,0" />
        <path id="Capline-L" d="M18,476 l800,0" />
        <path id="Baseline-L" d="M18,546 l800,0" />
    </g>
    <g id="Symbols">
        <g id="Ultralight-S">
            <path d="M297.308,81.385 L297.308,93.5 C297.308,94.987 296.102,96.192 294.615,96.192 C293.128,96.192 291.923,94.987 291.923,93.5 L291.923,84.077 L282.5,84.077 C281.013,84.077 279.808,82.872 279.808,81.385 C279.808,79.898 281.013,78.692 282.5,78.692 L294.615,78.692 C295.329,78.692 296.014,78.976 296.519,79.481 C297.024,79.986 297.308,80.671 297.308,81.385 Z M294.615,125.808 C293.901,125.808 293.217,126.091 292.712,126.596 C292.207,127.101 291.923,127.786 291.923,128.5 L291.923,137.923 L282.5,137.923 C281.013,137.923 279.808,139.128 279.808,140.615 C279.808,142.102 281.013,143.308 282.5,143.308 L294.615,143.308 C295.329,143.308 296.014,143.024 296.519,142.519 C297.024,142.014 297.308,141.329 297.308,140.615 L297.308,128.5 C297.308,127.786 297.024,127.101 296.519,126.596 C296.014,126.091 295.329,125.808 294.615,125.808 Z M247.5,137.923 L238.077,137.923 L238.077,128.5 C238.077,127.013 236.872,125.808 235.385,125.808 C233.898,125.808 232.692,127.013 232.692,128.5 L232.692,140.615 C232.692,141.329 232.976,142.014 233.481,142.519 C233.986,143.024 234.671,143.308 235.385,143.308 L247.5,143.308 C248.987,143.308 250.192,142.102 250.192,140.615 C250.192,139.128 248.987,137.923 247.5,137.923 Z M235.385,96.192 C236.099,96.192 236.783,95.909 237.288,95.404 C237.793,94.899 238.077,94.214 238.077,93.5 L238.077,84.077 L247.5,84.077 C248.987,84.077 250.192,82.872 250.192,81.385 C250.192,79.898 248.987,78.692 247.5,78.692 L235.385,78.692 C234.671,78.692 233.986,78.976 233.481,79.481 C232.976,79.986 232.692,80.671 232.692,81.385 L232.692,93.5 C232.692,94.214 232.976,94.899 233.481,95.404 C233.986,95.909 234.671,96.192 235.385,96.192 Z M265,135.231 C251.618,135.231 240.769,124.382 240.769,111 C240.769,97.618 251.618,86.769 265,86.769 C278.382,86.769 289.231,97.618 289.231,111 C289.215,124.377 278.375,135.216 264.999,135.231 Z M283.846,111 C283.846,100.592 275.408,92.154 265,92.154 C254.592,92.154 246.154,100.592 246.154,111 C246.154,121.408 254.592,129.846 265,129.846 C275.404,129.835 283.835,121.404 283.846,111 Z M260.962,106.962 C260.962,104.731 259.153,102.923 256.923,102.923 C254.693,102.923 252.885,104.731 252.885,106.962 C252.885,109.192 254.693,111 256.923,111 C257.994,111 259.021,110.575 259.779,109.817 C260.536,109.06 260.962,108.033 260.962,106.962 Z M273.077,102.923 C270.847,102.923 269.038,104.731 269.038,106.962 C269.038,109.192 270.847,111 273.077,111 C275.307,111 277.115,109.192 277.115,106.962 C277.115,105.89 276.69,104.863 275.933,104.106 C275.175,103.349 274.148,102.923 273.077,102.923 Z M271.297,117.058 C270.014,118.192 267.258,119.077 265,119.077 C262.742,119.077 259.986,118.192 258.703,117.058 C257.984,116.403 256.969,116.188 256.046,116.493 C255.123,116.798 254.436,117.577 254.249,118.531 C254.062,119.484 254.404,120.465 255.143,121.096 C257.778,123.422 261.991,124.462 265,124.462 C268.009,124.462 272.222,123.422 274.857,121.096 C275.596,120.465 275.938,119.484 275.751,118.531 C275.564,117.577 274.877,116.798 273.954,116.493 C273.031,116.188 272.016,116.403 271.297,117.058 Z" />
        </g>
        <g id="Regular-S">
            <path d="M497.308,81.385 L497.308,93.5 C497.308,94.987 496.102,96.192 494.615,96.192 C493.128,96.192 491.923,94.987 491.923,93.5 L491.923,84.077 L482.5,84.077 C481.013,84.077 479.808,82.872 479.808,81.385 C479.808,79.898 481.013,78.692 482.5,78.692 L494.615,78.692 C495.329,78.692 496.014,78.976 496.519,79.481 C497.024,79.986 497.308,80.671 497.308,81.385 Z M494.615,125.808 C493.901,125.808 493.217,126.091 492.712,126.596 C492.207,127.101 491.923,127.786 491.923,128.5 L491.923,137.923 L482.5,137.923 C481.013,137.923 479.808,139.128 479.808,140.615 C479.808,142.102 481.013,143.308 482.5,143.308 L494.615,143.308 C495.329,143.308 496.014,143.024 496.519,142.519 C497.024,142.014 497.308,141.329 497.308,140.615 L497.308,128.5 C497.308,127.786 497.024,127.101 496.519,126.596 C496.014,126.091 495.329,125.808 494.615,125.808 Z M447.5,137.923 L438.077,137.923 L438.077,128.5 C438.077,127.013 436.872,125.808 435.385,125.808 C433.898,125.808 432.692,127.013 432.692,128.5 L432.692,140.615 C432.692,141.329 432.976,142.014 433.481,142.519 C433.986,143.024 434.671,143.308 435.385,143.308 L447.5,143.308 C448.987,143.308 450.192,142.102 450.192,140.615 C450.192,139.128 448.987,137.923 447.5,137.923 Z M435.385,96.192 C436.099,96.192 436.783,95.909 437.288,95.404 C437.793,94.899 438.077,94.214 438.077,93.5 L438.077,84.077 L447.5,84.077 C448.987,84.077 450.192,82.872 450.192,81.385 C450.192,79.898 448.987,78.692 447.5,78.692 L435.385,78.692 C434.671,78.692 433.986,78.976 433.481,79.481 C432.976,79.986 432.692,80.671 432.692,81.385 L432.692,93.5 C432.692,94.214 432.976,94.899 433.481,95.404 C433.986,95.909 434.671,96.192 435.385,96.192 Z M465,135.231 C451.618,135.231 440.769,124.382 440.769,111 C440.769,97.618 451.618,86.769 465,86.769 C478.382,86.769 489.231,97.618 489.231,111 C489.215,124.377 478.375,135.216 464.999,135.231 Z M483.846,111 C483.846,100.592 475.408,92.154 465,92.154 C454.592,92.154 446.154,100.592 446.154,111 C446.154,121.408 454.592,129.846 465,129.846 C475.404,129.835 483.835,121.404 483.846,111 Z M460.962,106.962 C460.962,104.731 459.153,102.923 456.923,102.923 C454.693,102.923 452.885,104.731 452.885,106.962 C452.885,109.192 454.693,111 456.923,111 C457.994,111 459.021,110.575 459.779,109.817 C460.536,109.06 460.962,108.033 460.962,106.962 Z M473.077,102.923 C470.847,102.923 469.038,104.731 469.038,106.962 C469.038,109.192 470.847,111 473.077,111 C475.307,111 477.115,109.192 477.115,106.962 C477.115,105.89 476.69,104.863 475.933,104.106 C475.175,103.349 474.148,102.923 473.077,102.923 Z M471.297,117.058 C470.014,118.192 467.258,119.077 465,119.077 C462.742,119.077 459.986,118.192 458.703,117.058 C457.984,116.403 456.969,116.188 456.046,116.493 C455.123,116.798 454.436,117.577 454.249,118.531 C454.062,119.484 454.404,120.465 455.143,121.096 C457.778,123.422 461.991,124.462 465,124.462 C468.009,124.462 472.222,123.422 474.857,121.096 C475.596,120.465 475.938,119.484 475.751,118.531 C475.564,117.577 474.877,116.798 473.954,116.493 C473.031,116.188 472.015,116.403 471.297,117.058 Z" />
        </g>
        <g id="Black-S">
            <path d="M697.308,81.385 L697.308,93.5 C697.308,94.987 696.102,96.192 694.615,96.192 C693.128,96.192 691.923,94.987 691.923,93.5 L691.923,84.077 L682.5,84.077 C681.013,84.077 679.808,82.872 679.808,81.385 C679.808,79.898 681.013,78.692 682.5,78.692 L694.615,78.692 C695.329,78.692 696.014,78.976 696.519,79.481 C697.024,79.986 697.308,80.671 697.308,81.385 Z M694.615,125.808 C693.901,125.808 693.217,126.091 692.712,126.596 C692.207,127.101 691.923,127.786 691.923,128.5 L691.923,137.923 L682.5,137.923 C681.013,137.923 679.808,139.128 679.808,140.615 C679.808,142.102 681.013,143.308 682.5,143.308 L694.615,143.308 C695.329,143.308 696.014,143.024 696.519,142.519 C697.024,142.014 697.308,141.329 697.308,140.615 L697.308,128.5 C697.308,127.786 697.024,127.101 696.519,126.596 C696.014,126.091 695.329,125.808 694.615,125.808 Z M647.5,137.923 L638.077,137.923 L638.077,128.5 C638.077,127.013 636.872,125.808 635.385,125.808 C633.898,125.808 632.692,127.013 632.692,128.5 L632.692,140.615 C632.692,141.329 632.976,142.014 633.481,142.519 C633.986,143.024 634.671,143.308 635.385,143.308 L647.5,143.308 C648.987,143.308 650.192,142.102 650.192,140.615 C650.192,139.128 648.987,137.923 647.5,137.923 Z M635.385,96.192 C636.099,96.192 636.783,95.909 637.288,95.404 C637.793,94.899 638.077,94.214 638.077,93.5 L638.077,84.077 L647.5,84.077 C648.987,84.077 650.192,82.872 650.192,81.385 C650.192,79.898 648.987,78.692 647.5,78.692 L635.385,78.692 C634.671,78.692 633.986,78.976 633.481,79.481 C632.976,79.986 632.692,80.671 632.692,81.385 L632.692,93.5 C632.692,94.214 632.976,94.899 633.481,95.404 C633.986,95.909 634.671,96.192 635.385,96.192 Z M665,135.231 C651.618,135.231 640.769,124.382 640.769,111 C640.769,97.618 651.618,86.769 665,86.769 C678.382,86.769 689.231,97.618 689.231,111 C689.215,124.377 678.375,135.216 664.999,135.231 Z M683.846,111 C683.846,100.592 675.408,92.154 665,92.154 C654.592,92.154 646.154,100.592 646.154,111 C646.154,121.408 654.592,129.846 665,129.846 C675.404,129.835 683.835,121.404 683.846,111 Z M660.962,106.962 C660.962,104.731 659.154,102.923 656.923,102.923 C654.693,102.923 652.885,104.731 652.885,106.962 C652.885,109.192 654.693,111 656.923,111 C657.994,111 659.021,110.575 659.779,109.817 C660.536,109.06 660.962,108.033 660.962,106.962 Z M673.077,102.923 C670.847,102.923 669.038,104.731 669.038,106.962 C669.038,109.192 670.847,111 673.077,111 C675.307,111 677.115,109.192 677.115,106.962 C677.115,105.89 676.69,104.863 675.933,104.106 C675.175,103.349 674.148,102.923 673.077,102.923 Z M671.297,117.058 C670.014,118.192 667.258,119.077 665,119.077 C662.742,119.077 659.986,118.192 658.703,117.058 C657.984,116.403 656.969,116.188 656.046,116.493 C655.123,116.798 654.436,117.577 654.249,118.531 C654.062,119.484 654.404,120.465 655.143,121.096 C657.778,123.422 661.991,124.462 665,124.462 C668.009,124.462 672.222,123.422 674.857,121.096 C675.596,120.465 675.938,119.484 675.751,118.531 C675.564,117.577 674.877,116.798 673.954,116.493 C673.031,116.188 672.016,116.403 671.297,117.058 Z" />
        </g>
    </g>
</svg>