<?xml version="1.0" encoding="UTF-8"?>
<svg height="600" width="800" xmlns="http://www.w3.org/2000/svg" xmlns:xlink="http://www.w3.org/1999/xlink">
    <g id="Notes" font-family="'LucidaGrande', 'Lucida Grande', sans-serif" font-size="13">
        <rect fill="white" height="600.0" width="800.0" x="0.0" y="0.0" />
        <g font-size="13">
            <text x="18.0" y="176.0">Small</text>
            <text x="18.0" y="376.0">Medium</text>
            <text x="18.0" y="576.0">Large</text>
        </g>
        <g font-size="9">
            <text x="250.0" y="30.0">Ultralight</text>
            <text x="450.0" y="30.0">Regular</text>
            <text x="650.0" y="30.0">Black</text>
            <text id="template-version" fill="#505050" text-anchor="end" x="785.0" y="575.0">Template v.3.0</text>
            <a href="https://github.com/swhitty/SwiftDraw">
                <text fill="#505050" text-anchor="end" x="785.0" y="590.0">https://github.com/swhitty/SwiftDraw</text>
            </a>
        </g>
    </g>
    <g id="Guides" stroke="rgb(39, 170, 225)" stroke-width="0.5">
        <path id="Capline-S" d="M18,76 l800,0" />
        <path id="H-reference" d="M85,145.755 L87.685,145.755 L113.369,79.287 L114.052,79.287 L114.052,76 L112.148,76 L85,145.755 Z M95.693,121.536 L130.996,121.536 L130.263,119.313 L96.474,119.313 L95.693,121.536 Z M139.15,145.755 L141.787,145.755 L114.638,76 L113.466,76 L113.466,79.287 L139.15,145.755 Z" stroke="none" />
        <path id="Baseline-S" d="M18,146 l800,0" />
        <path id="left-margin-Ultralight-S" d="M220,56 l0,110" />
        <path id="right-margin-Ultralight-S" d="M310,56 l0,110" />
        <path id="left-margin-Regular-S" d="M420,56 l0,110" />
        <path id="right-margin-Regular-S" d="M510,56 l0,110" />
        <path id="left-margin-Black-S" d="M620,56 l0,110" />
        <path id="right-margin-Black-S" d="M710,56 l0,110" />
        <path id="Capline-M" d="M18,276 l800,0" />
        <path id="Baseline-M" d="M18,346 l800,0" />
        <path id="Capline-L" d="M18,476 l800,0" />
        <path id="Baseline-L" d="M18,546 l800,0" />
    </g>
    <g id="Symbols">
        <g id="Ultralight-S">
            <path d="M265,94.846 C256.078,94.846 248.846,102.078 248.846,111 C248.846,119.922 256.078,127.154 265,127.154 C273.922,127.154 281.154,119.922 281.154,111 C281.145,102.082 273.918,94.855 265,94.846 Z M265,121.769 C259.052,121.769 254.231,116.948 254.231,111 C254.231,105.052 259.052,100.231 265,100.231 C270.948,100.231 275.769,105.052 275.769,111 C275.769,113.856 274.635,116.595 272.615,118.615 C270.595,120.635 267.856,121.769 265,121.769 Z M294.615,111.727 C294.629,111.242 294.629,111.242 294.615,110.273 L299.637,104 C300.17,103.332 300.355,102.45 300.135,101.624 C299.311,98.53 298.08,95.559 296.473,92.79 C296.046,92.055 295.298,91.565 294.454,91.467 L286.471,90.579 C286.139,90.229 285.803,90.229 285.462,89.569 L284.519,81.566 C284.421,80.722 283.929,79.973 283.193,79.547 C280.423,77.943 277.452,76.713 274.359,75.889 C273.532,75.669 272.651,75.855 271.983,76.39 L265.727,81.385 C265.242,81.385 264.758,81.385 264.273,81.385 L258,76.374 C257.332,75.84 256.45,75.655 255.624,75.875 C252.53,76.7 249.56,77.931 246.79,79.537 C246.055,79.964 245.565,80.712 245.467,81.556 L244.579,89.552 C244.229,89.887 243.892,89.887 243.569,90.562 L235.566,91.481 C234.722,91.579 233.973,92.071 233.547,92.807 C231.943,95.577 230.713,98.548 229.889,101.641 C229.669,102.468 229.855,103.349 230.39,104.017 L235.385,110.273 C235.385,110.758 235.385,110.758 235.385,111.727 L230.374,118 C229.84,118.668 229.655,119.55 229.875,120.376 C230.699,123.47 231.93,126.441 233.537,129.21 C233.964,129.945 234.712,130.435 235.556,130.533 L243.539,131.421 C243.873,131.771 244.21,131.771 244.549,132.431 L245.481,140.434 C245.579,141.278 246.071,142.027 246.807,142.453 C249.577,144.057 252.548,145.287 255.641,146.111 C256.468,146.331 257.349,146.145 258.017,145.61 L264.273,140.615 C264.758,140.629 265.242,140.629 265.727,140.615 L272,145.637 C272.668,146.17 273.55,146.355 274.376,146.135 C277.47,145.311 280.441,144.08 283.21,142.473 C283.945,142.046 284.435,141.298 284.533,140.454 L285.421,132.471 C285.771,132.139 286.108,132.139 286.431,131.462 L294.434,130.519 C295.278,130.421 296.027,129.929 296.453,129.193 C298.057,126.423 299.287,123.452 300.111,120.359 C300.331,119.532 300.145,118.651 299.61,117.983 Z M289.197,109.539 C289.254,110.512 289.254,111.488 289.197,112.461 C289.157,113.127 289.366,113.784 289.783,114.305 L294.558,120.272 C294.01,122.013 293.309,123.702 292.462,125.32 L284.856,126.181 C284.193,126.255 283.582,126.571 283.139,127.07 C282.492,127.798 281.802,128.488 281.073,129.136 C280.575,129.578 280.258,130.19 280.185,130.852 L279.34,138.451 C277.723,139.299 276.033,140.001 274.292,140.548 L268.322,135.773 C267.844,135.391 267.25,135.183 266.639,135.184 L266.477,135.184 C265.505,135.241 264.529,135.241 263.556,135.184 C262.89,135.144 262.233,135.352 261.712,135.769 L255.728,140.548 C253.987,140 252.298,139.298 250.68,138.451 L249.819,130.856 C249.745,130.193 249.429,129.582 248.93,129.139 C248.202,128.492 247.512,127.802 246.864,127.073 C246.422,126.575 245.81,126.258 245.148,126.185 L237.549,125.337 C236.701,123.719 235.999,122.03 235.452,120.288 L240.227,114.318 C240.644,113.797 240.853,113.14 240.813,112.474 C240.756,111.501 240.756,110.526 240.813,109.553 C240.853,108.887 240.644,108.23 240.227,107.709 L235.452,101.728 C236,99.987 236.702,98.298 237.549,96.68 L245.144,95.819 C245.807,95.745 246.418,95.429 246.861,94.93 C247.508,94.202 248.198,93.512 248.927,92.864 C249.427,92.421 249.745,91.808 249.819,91.144 L250.663,83.549 C252.281,82.701 253.97,81.999 255.712,81.452 L261.682,86.227 C262.203,86.644 262.86,86.853 263.526,86.813 C264.499,86.756 265.474,86.756 266.447,86.813 C267.113,86.853 267.77,86.644 268.291,86.227 L274.272,81.452 C276.013,82 277.702,82.702 279.32,83.549 L280.181,91.144 C280.255,91.807 280.571,92.418 281.07,92.861 C281.798,93.508 282.488,94.198 283.136,94.927 C283.578,95.425 284.19,95.742 284.852,95.815 L292.451,96.66 C293.299,98.277 294.001,99.967 294.548,101.708 L289.773,107.678 C289.352,108.204 289.143,108.868 289.187,109.539 Z" />
        </g>
        <g id="Regular-S">
            <path d="M465,94.846 C456.078,94.846 448.846,102.078 448.846,111 C448.846,119.922 456.078,127.154 465,127.154 C473.922,127.154 481.154,119.922 481.154,111 C481.145,102.082 473.918,94.855 465,94.846 Z M465,121.769 C459.052,121.769 454.231,116.948 454.231,111 C454.231,105.052 459.052,100.231 465,100.231 C470.948,100.231 475.769,105.052 475.769,111 C475.769,113.856 474.635,116.595 472.615,118.615 C470.595,120.635 467.856,121.769 465,121.769 Z M494.615,111.727 C494.629,111.242 494.629,111.242 494.615,110.273 L499.637,104 C500.17,103.332 500.355,102.45 500.135,101.624 C499.311,98.53 498.08,95.559 496.473,92.79 C496.046,92.055 495.298,91.565 494.454,91.467 L486.471,90.579 C486.139,90.229 485.803,90.229 485.462,89.569 L484.519,81.566 C484.421,80.722 483.929,79.973 483.193,79.547 C480.423,77.943 477.452,76.713 474.359,75.889 C473.532,75.669 472.651,75.855 471.983,76.39 L465.727,81.385 C465.242,81.385 464.758,81.385 464.273,81.385 L458,76.374 C457.332,75.84 456.45,75.655 455.624,75.875 C452.53,76.7 449.56,77.931 446.79,79.537 C446.055,79.964 445.565,80.712 445.467,81.556 L444.579,89.552 C444.229,89.887 443.892,89.887 443.569,90.562 L435.566,91.481 C434.722,91.579 433.973,92.071 433.547,92.807 C431.943,95.577 430.713,98.548 429.889,101.641 C429.669,102.468 429.855,103.349 430.39,104.017 L435.385,110.273 C435.385,110.758 435.385,110.758 435.385,111.727 L430.374,118 C429.84,118.668 429.655,119.55 429.875,120.376 C430.699,123.47 431.93,126.441 433.537,129.21 C433.964,129.945 434.712,130.435 435.556,130.533 L443.539,131.421 C443.873,131.771 444.21,131.771 444.549,132.431 L445.481,140.434 C445.579,141.278 446.071,142.027 446.807,142.453 C449.577,144.057 452.548,145.287 455.641,146.111 C456.468,146.331 457.349,146.145 458.017,145.61 L464.273,140.615 C464.758,140.629 465.242,140.629 465.727,140.615 L472,145.637 C472.668,146.17 473.55,146.355 474.376,146.135 C477.47,145.311 480.441,144.08 483.21,142.473 C483.945,142.046 484.435,141.298 484.533,140.454 L485.421,132.471 C485.771,132.139 486.108,132.139 486.431,131.462 L494.434,130.519 C495.278,130.421 496.027,129.929 496.453,129.193 C498.057,126.423 499.287,123.452 500.111,120.359 C500.331,119.532 500.145,118.651 499.61,117.983 Z M489.197,109.539 C489.254,110.512 489.254,111.488 489.197,112.461 C489.157,113.127 489.366,113.784 489.783,114.305 L494.558,120.272 C494.01,122.013 493.309,123.702 492.462,125.32 L484.856,126.181 C484.193,126.255 483.582,126.571 483.139,127.07 C482.492,127.798 481.802,128.488 481.073,129.136 C480.575,129.578 480.258,130.19 480.185,130.852 L479.34,138.451 C477.723,139.299 476.033,140.001 474.292,140.548 L468.322,135.773 C467.844,135.391 467.25,135.183 466.639,135.184 L466.477,135.184 C465.505,135.241 464.529,135.241 463.556,135.184 C462.89,135.144 462.233,135.352 461.712,135.769 L455.728,140.548 C453.987,140 452.298,139.298 450.68,138.451 L449.819,130.856 C449.745,130.193 449.429,129.582 448.93,129.139 C448.202,128.492 447.512,127.802 446.864,127.073 C446.422,126.575 445.81,126.258 445.148,126.185 L437.549,125.337 C436.701,123.719 435.999,122.03 435.452,120.288 L440.227,114.318 C440.644,113.797 440.853,113.14 440.813,112.474 C440.756,111.501 440.756,110.526 440.813,109.553 C440.853,108.887 440.644,108.23 440.227,107.709 L435.452,101.728 C436,99.987 436.702,98.298 437.549,96.68 L445.144,95.819 C445.807,95.745 446.418,95.429 446.861,94.93 C447.508,94.202 448.198,93.512 448.927,92.864 C449.427,92.421 449.745,91.808 449.819,91.144 L450.663,83.549 C452.281,82.701 453.97,81.999 455.712,81.452 L461.682,86.227 C462.203,86.644 462.86,86.853 463.526,86.813 C464.499,86.756 465.474,86.756 466.447,86.813 C467.113,86.853 467.77,86.644 468.291,86.227 L474.272,81.452 C476.013,82 477.702,82.702 479.32,83.549 L480.181,91.144 C480.255,91.807 480.571,92.418 481.07,92.861 C481.798,93.508 482.488,94.198 483.136,94.927 C483.578,95.425 484.19,95.742 484.852,95.815 L492.451,96.66 C493.299,98.277 494.001,99.967 494.548,101.708 L489.773,107.678 C489.352,108.204 489.143,108.868 489.187,109.539 Z" />
        </g>
        <g id="Black-S">
            <path d="M665,94.846 C656.078,94.846 648.846,102.078 648.846,111 C648.846,119.922 656.078,127.154 665,127.154 C673.922,127.154 681.154,119.922 681.154,111 C681.145,102.082 673.918,94.855 665,94.846 Z M665,121.769 C659.052,121.769 654.231,116.948 654.231,111 C654.231,105.052 659.052,100.231 665,100.231 C670.948,100.231 675.769,105.052 675.769,111 C675.769,113.856 674.635,116.595 672.615,118.615 C670.595,120.635 667.856,121.769 665,121.769 Z M694.615,111.727 C694.629,111.242 694.629,111.242 694.615,110.273 L699.637,104 C700.17,103.332 700.355,102.45 700.135,101.624 C699.312,98.53 698.08,95.559 696.473,92.79 C696.046,92.055 695.298,91.565 694.454,91.467 L686.471,90.579 C686.139,90.229 685.803,90.229 685.462,89.569 L684.519,81.566 C684.421,80.722 683.929,79.973 683.193,79.547 C680.423,77.943 677.452,76.713 674.359,75.889 C673.532,75.669 672.651,75.855 671.983,76.39 L665.727,81.385 C665.242,81.385 664.758,81.385 664.273,81.385 L658,76.374 C657.332,75.84 656.45,75.655 655.624,75.875 C652.53,76.7 649.56,77.931 646.79,79.537 C646.055,79.964 645.565,80.712 645.467,81.556 L644.579,89.552 C644.229,89.887 643.892,89.887 643.569,90.562 L635.566,91.481 C634.722,91.579 633.973,92.071 633.547,92.807 C631.943,95.577 630.713,98.548 629.889,101.641 C629.669,102.468 629.855,103.349 630.39,104.017 L635.385,110.273 C635.385,110.758 635.385,110.758 635.385,111.727 L630.374,118 C629.84,118.668 629.655,119.55 629.875,120.376 C630.699,123.47 631.93,126.441 633.537,129.21 C633.964,129.945 634.712,130.435 635.556,130.533 L643.539,131.421 C643.873,131.771 644.21,131.771 644.549,132.431 L645.481,140.434 C645.579,141.278 646.071,142.027 646.807,142.453 C649.577,144.057 652.548,145.287 655.641,146.111 C656.468,146.331 657.349,146.145 658.017,145.61 L664.273,140.615 C664.758,140.629 665.242,140.629 665.727,140.615 L672,145.637 C672.668,146.17 673.55,146.355 674.376,146.135 C677.47,145.311 680.441,144.08 683.21,142.473 C683.945,142.046 684.435,141.298 684.533,140.454 L685.421,132.471 C685.771,132.139 686.108,132.139 686.431,131.462 L694.434,130.519 C695.278,130.421 696.027,129.929 696.453,129.193 C698.057,126.423 699.287,123.452 700.111,120.359 C700.331,119.532 700.145,118.651 699.61,117.983 Z M689.197,109.539 C689.254,110.512 689.254,111.488 689.197,112.461 C689.157,113.127 689.366,113.784 689.783,114.305 L694.558,120.272 C694.01,122.013 693.309,123.702 692.462,125.32 L684.856,126.181 C684.193,126.255 683.582,126.571 683.139,127.07 C682.492,127.798 681.802,128.488 681.073,129.136 C680.575,129.578 680.258,130.19 680.185,130.852 L679.34,138.451 C677.723,139.299 676.034,140.001 674.292,140.548 L668.322,135.773 C667.844,135.391 667.25,135.183 666.639,135.184 L666.477,135.184 C665.505,135.241 664.529,135.241 663.556,135.184 C662.89,135.144 662.233,135.352 661.712,135.769 L655.728,140.548 C653.987,140 652.298,139.298 650.68,138.451 L649.819,130.856 C649.745,130.193 649.429,129.582 648.93,129.139 C648.202,128.492 647.512,127.802 646.864,127.073 C646.422,126.575 645.81,126.258 645.148,126.185 L637.549,125.337 C636.701,123.719 636,122.03 635.452,120.288 L640.227,114.318 C640.644,113.797 640.853,113.14 640.813,112.474 C640.756,111.501 640.756,110.526 640.813,109.553 C640.853,108.887 640.644,108.23 640.227,107.709 L635.452,101.728 C636,99.987 636.702,98.298 637.549,96.68 L645.144,95.819 C645.807,95.745 646.418,95.429 646.861,94.93 C647.508,94.202 648.198,93.512 648.927,92.864 C649.427,92.421 649.745,91.808 649.819,91.144 L650.663,83.549 C652.281,82.701 653.97,81.999 655.712,81.452 L661.682,86.227 C662.203,86.644 662.86,86.853 663.526,86.813 C664.499,86.756 665.474,86.756 666.447,86.813 C667.113,86.853 667.77,86.644 668.291,86.227 L674.272,81.452 C676.013,82 677.702,82.702 679.32,83.549 L680.181,91.144 C680.255,91.807 680.571,92.418 681.07,92.861 C681.798,93.508 682.488,94.198 683.136,94.927 C683.578,95.425 684.19,95.742 684.852,95.815 L692.451,96.66 C693.299,98.277 694.001,99.967 694.548,101.708 L689.773,107.678 C689.352,108.204 689.143,108.868 689.187,109.539 Z" />
        </g>
    </g>
</svg>