<?xml version="1.0" encoding="UTF-8"?>
<svg height="600" width="800" xmlns="http://www.w3.org/2000/svg" xmlns:xlink="http://www.w3.org/1999/xlink">
    <g id="Notes" font-family="'LucidaGrande', 'Lucida Grande', sans-serif" font-size="13">
        <rect fill="white" height="600.0" width="800.0" x="0.0" y="0.0" />
        <g font-size="13">
            <text x="18.0" y="176.0">Small</text>
            <text x="18.0" y="376.0">Medium</text>
            <text x="18.0" y="576.0">Large</text>
        </g>
        <g font-size="9">
            <text x="250.0" y="30.0">Ultralight</text>
            <text x="450.0" y="30.0">Regular</text>
            <text x="650.0" y="30.0">Black</text>
            <text id="template-version" fill="#505050" text-anchor="end" x="785.0" y="575.0">Template v.3.0</text>
            <a href="https://github.com/swhitty/SwiftDraw">
                <text fill="#505050" text-anchor="end" x="785.0" y="590.0">https://github.com/swhitty/SwiftDraw</text>
            </a>
        </g>
    </g>
    <g id="Guides" stroke="rgb(39, 170, 225)" stroke-width="0.5">
        <path id="Capline-S" d="M18,76 l800,0" />
        <path id="H-reference" d="M85,145.755 L87.685,145.755 L113.369,79.287 L114.052,79.287 L114.052,76 L112.148,76 L85,145.755 Z M95.693,121.536 L130.996,121.536 L130.263,119.313 L96.474,119.313 L95.693,121.536 Z M139.15,145.755 L141.787,145.755 L114.638,76 L113.466,76 L113.466,79.287 L139.15,145.755 Z" stroke="none" />
        <path id="Baseline-S" d="M18,146 l800,0" />
        <path id="left-margin-Ultralight-S" d="M220,56 l0,110" />
        <path id="right-margin-Ultralight-S" d="M310,56 l0,110" />
        <path id="left-margin-Regular-S" d="M420,56 l0,110" />
        <path id="right-margin-Regular-S" d="M510,56 l0,110" />
        <path id="left-margin-Black-S" d="M620,56 l0,110" />
        <path id="right-margin-Black-S" d="M710,56 l0,110" />
        <path id="Capline-M" d="M18,276 l800,0" />
        <path id="Baseline-M" d="M18,346 l800,0" />
        <path id="Capline-L" d="M18,476 l800,0" />
        <path id="Baseline-L" d="M18,546 l800,0" />
    </g>
    <g id="Symbols">
        <g id="Ultralight-S">
            <path d="M273.077,94.846 C273.077,94.132 273.361,93.447 273.865,92.942 C274.37,92.438 275.055,92.154 275.769,92.154 L305.385,92.154 C306.872,92.154 308.077,93.359 308.077,94.846 C308.077,96.333 306.872,97.538 305.385,97.538 L275.769,97.538 C275.055,97.538 274.37,97.255 273.865,96.75 C273.361,96.245 273.077,95.56 273.077,94.846 Z M305.385,108.308 L275.769,108.308 C274.282,108.308 273.077,109.513 273.077,111 C273.077,112.487 274.282,113.692 275.769,113.692 L305.385,113.692 C306.872,113.692 308.077,112.487 308.077,111 C308.077,109.513 306.872,108.308 305.385,108.308 Z M305.385,124.462 L283.846,124.462 C282.359,124.462 281.154,125.667 281.154,127.154 C281.154,128.641 282.359,129.846 283.846,129.846 L305.385,129.846 C306.872,129.846 308.077,128.641 308.077,127.154 C308.077,125.667 306.872,124.462 305.385,124.462 Z M272.993,131.865 C273.171,132.557 273.066,133.291 272.703,133.906 C272.339,134.521 271.746,134.966 271.054,135.143 C270.835,135.202 270.609,135.232 270.381,135.231 C269.153,135.231 268.08,134.401 267.773,133.212 C265.7,125.155 257.562,119.077 248.843,119.077 C240.123,119.077 231.986,125.151 229.913,133.212 C229.545,134.648 228.077,135.517 226.636,135.148 C225.195,134.779 224.326,133.311 224.695,131.87 C226.576,124.564 232.045,118.648 238.984,115.716 C233.506,111.497 231.321,104.258 233.55,97.712 C235.778,91.166 241.926,86.765 248.842,86.765 C255.757,86.765 261.905,91.166 264.133,97.712 C266.362,104.258 264.177,111.497 258.699,115.716 C265.643,118.643 271.112,124.559 272.993,131.865 Z M248.846,113.692 C254.794,113.692 259.615,108.871 259.615,102.923 C259.615,96.975 254.794,92.154 248.846,92.154 C242.898,92.154 238.077,96.975 238.077,102.923 C238.077,105.779 239.212,108.518 241.231,110.538 C243.251,112.558 245.99,113.692 248.846,113.692 Z" />
        </g>
        <g id="Regular-S">
            <path d="M473.077,94.846 C473.077,94.132 473.361,93.447 473.865,92.942 C474.37,92.438 475.055,92.154 475.769,92.154 L505.385,92.154 C506.872,92.154 508.077,93.359 508.077,94.846 C508.077,96.333 506.872,97.538 505.385,97.538 L475.769,97.538 C475.055,97.538 474.37,97.255 473.865,96.75 C473.361,96.245 473.077,95.56 473.077,94.846 Z M505.385,108.308 L475.769,108.308 C474.282,108.308 473.077,109.513 473.077,111 C473.077,112.487 474.282,113.692 475.769,113.692 L505.385,113.692 C506.872,113.692 508.077,112.487 508.077,111 C508.077,109.513 506.872,108.308 505.385,108.308 Z M505.385,124.462 L483.846,124.462 C482.359,124.462 481.154,125.667 481.154,127.154 C481.154,128.641 482.359,129.846 483.846,129.846 L505.385,129.846 C506.872,129.846 508.077,128.641 508.077,127.154 C508.077,125.667 506.872,124.462 505.385,124.462 Z M472.993,131.865 C473.171,132.557 473.066,133.291 472.703,133.906 C472.339,134.521 471.746,134.966 471.054,135.143 C470.835,135.202 470.608,135.232 470.381,135.231 C469.153,135.231 468.08,134.401 467.773,133.212 C465.7,125.155 457.562,119.077 448.843,119.077 C440.123,119.077 431.986,125.151 429.912,133.212 C429.545,134.648 428.077,135.517 426.636,135.148 C425.195,134.779 424.326,133.311 424.695,131.87 C426.576,124.564 432.045,118.648 438.984,115.716 C433.506,111.497 431.321,104.258 433.55,97.712 C435.778,91.166 441.926,86.765 448.841,86.765 C455.757,86.765 461.905,91.166 464.133,97.712 C466.362,104.258 464.177,111.497 458.699,115.716 C465.643,118.643 471.112,124.559 472.993,131.865 Z M448.846,113.692 C454.794,113.692 459.615,108.871 459.615,102.923 C459.615,96.975 454.794,92.154 448.846,92.154 C442.898,92.154 438.077,96.975 438.077,102.923 C438.077,105.779 439.212,108.518 441.231,110.538 C443.251,112.558 445.99,113.692 448.846,113.692 Z" />
        </g>
        <g id="Black-S">
            <path d="M673.077,94.846 C673.077,94.132 673.361,93.447 673.865,92.942 C674.37,92.438 675.055,92.154 675.769,92.154 L705.385,92.154 C706.872,92.154 708.077,93.359 708.077,94.846 C708.077,96.333 706.872,97.538 705.385,97.538 L675.769,97.538 C675.055,97.538 674.37,97.255 673.865,96.75 C673.361,96.245 673.077,95.56 673.077,94.846 Z M705.385,108.308 L675.769,108.308 C674.282,108.308 673.077,109.513 673.077,111 C673.077,112.487 674.282,113.692 675.769,113.692 L705.385,113.692 C706.872,113.692 708.077,112.487 708.077,111 C708.077,109.513 706.872,108.308 705.385,108.308 Z M705.385,124.462 L683.846,124.462 C682.359,124.462 681.154,125.667 681.154,127.154 C681.154,128.641 682.359,129.846 683.846,129.846 L705.385,129.846 C706.872,129.846 708.077,128.641 708.077,127.154 C708.077,125.667 706.872,124.462 705.385,124.462 Z M672.993,131.865 C673.171,132.557 673.066,133.291 672.703,133.906 C672.339,134.521 671.746,134.966 671.054,135.143 C670.835,135.202 670.609,135.232 670.381,135.231 C669.153,135.231 668.08,134.401 667.773,133.212 C665.7,125.155 657.562,119.077 648.843,119.077 C640.123,119.077 631.986,125.151 629.913,133.212 C629.545,134.648 628.077,135.517 626.636,135.148 C625.195,134.779 624.326,133.311 624.695,131.87 C626.576,124.564 632.045,118.648 638.984,115.716 C633.506,111.497 631.321,104.258 633.55,97.712 C635.778,91.166 641.927,86.765 648.842,86.765 C655.757,86.765 661.905,91.166 664.133,97.712 C666.362,104.258 664.177,111.497 658.699,115.716 C665.643,118.643 671.112,124.559 672.993,131.865 Z M648.846,113.692 C654.794,113.692 659.615,108.871 659.615,102.923 C659.615,96.975 654.794,92.154 648.846,92.154 C642.898,92.154 638.077,96.975 638.077,102.923 C638.077,105.779 639.212,108.518 641.231,110.538 C643.251,112.558 645.99,113.692 648.846,113.692 Z" />
        </g>
    </g>
</svg>