<?xml version="1.0" encoding="UTF-8"?>
<svg height="600" width="800" xmlns="http://www.w3.org/2000/svg" xmlns:xlink="http://www.w3.org/1999/xlink">
    <g id="Notes" font-family="'LucidaGrande', 'Lucida Grande', sans-serif" font-size="13">
        <rect fill="white" height="600.0" width="800.0" x="0.0" y="0.0" />
        <g font-size="13">
            <text x="18.0" y="176.0">Small</text>
            <text x="18.0" y="376.0">Medium</text>
            <text x="18.0" y="576.0">Large</text>
        </g>
        <g font-size="9">
            <text x="250.0" y="30.0">Ultralight</text>
            <text x="450.0" y="30.0">Regular</text>
            <text x="650.0" y="30.0">Black</text>
            <text id="template-version" fill="#505050" text-anchor="end" x="785.0" y="575.0">Template v.3.0</text>
            <a href="https://github.com/swhitty/SwiftDraw">
                <text fill="#505050" text-anchor="end" x="785.0" y="590.0">https://github.com/swhitty/SwiftDraw</text>
            </a>
        </g>
    </g>
    <g id="Guides" stroke="rgb(39, 170, 225)" stroke-width="0.5">
        <path id="Capline-S" d="M18,76 l800,0" />
        <path id="H-reference" d="M85,145.755 L87.685,145.755 L113.369,79.287 L114.052,79.287 L114.052,76 L112.148,76 L85,145.755 Z M95.693,121.536 L130.996,121.536 L130.263,119.313 L96.474,119.313 L95.693,121.536 Z M139.15,145.755 L141.787,145.755 L114.638,76 L113.466,76 L113.466,79.287 L139.15,145.755 Z" stroke="none" />
        <path id="Baseline-S" d="M18,146 l800,0" />
        <path id="left-margin-Ultralight-S" d="M220,56 l0,110" />
        <path id="right-margin-Ultralight-S" d="M310,56 l0,110" />
        <path id="left-margin-Regular-S" d="M420,56 l0,110" />
        <path id="right-margin-Regular-S" d="M510,56 l0,110" />
        <path id="left-margin-Black-S" d="M620,56 l0,110" />
        <path id="right-margin-Black-S" d="M710,56 l0,110" />
        <path id="Capline-M" d="M18,276 l800,0" />
        <path id="Baseline-M" d="M18,346 l800,0" />
        <path id="Capline-L" d="M18,476 l800,0" />
        <path id="Baseline-L" d="M18,546 l800,0" />
    </g>
    <g id="Symbols">
        <g id="Ultralight-S">
            <path d="M253.325,91.481 L231.346,111 L253.312,130.519 C254.429,131.51 254.53,133.214 253.542,134.328 C252.553,135.442 250.849,135.544 249.735,134.555 L225.504,113.017 C224.925,112.506 224.593,111.77 224.593,110.998 C224.593,110.225 224.925,109.489 225.504,108.978 L249.735,87.44 C250.841,86.451 252.549,86.546 253.545,87.658 C254.54,88.771 254.445,90.479 253.332,91.475 Z M304.479,108.981 L280.249,87.442 C279.137,86.456 277.433,86.558 276.445,87.672 C275.456,88.786 275.558,90.49 276.672,91.478 L298.654,111 L276.688,130.519 C275.571,131.51 275.47,133.214 276.458,134.328 C277.447,135.442 279.151,135.544 280.265,134.555 L304.496,113.017 C305.075,112.506 305.407,111.77 305.407,110.998 C305.407,110.225 305.075,109.489 304.496,108.978 Z" />
        </g>
        <g id="Regular-S">
            <path d="M453.325,91.481 L431.346,111 L453.312,130.519 C454.429,131.51 454.53,133.214 453.542,134.328 C452.553,135.442 450.849,135.544 449.735,134.555 L425.504,113.017 C424.925,112.506 424.593,111.77 424.593,110.998 C424.593,110.225 424.925,109.489 425.504,108.978 L449.735,87.44 C450.841,86.451 452.549,86.546 453.545,87.658 C454.54,88.771 454.445,90.479 453.332,91.475 Z M504.479,108.981 L480.249,87.442 C479.137,86.456 477.433,86.558 476.445,87.672 C475.456,88.786 475.558,90.49 476.672,91.478 L498.654,111 L476.688,130.519 C475.571,131.51 475.47,133.214 476.458,134.328 C477.447,135.442 479.151,135.544 480.265,134.555 L504.496,113.017 C505.075,112.506 505.407,111.77 505.407,110.998 C505.407,110.225 505.075,109.489 504.496,108.978 Z" />
        </g>
        <g id="Black-S">
            <path d="M653.326,91.481 L631.346,111 L653.312,130.519 C654.429,131.51 654.53,133.214 653.542,134.328 C652.553,135.442 650.849,135.544 649.735,134.555 L625.505,113.017 C624.925,112.506 624.593,111.77 624.593,110.998 C624.593,110.225 624.925,109.489 625.505,108.978 L649.735,87.44 C650.841,86.451 652.549,86.546 653.545,87.658 C654.54,88.771 654.445,90.479 653.332,91.475 Z M704.479,108.981 L680.249,87.442 C679.137,86.456 677.433,86.558 676.445,87.672 C675.456,88.786 675.558,90.49 676.672,91.478 L698.654,111 L676.688,130.519 C675.571,131.51 675.47,133.214 676.458,134.328 C677.447,135.442 679.151,135.544 680.265,134.555 L704.496,113.017 C705.075,112.506 705.407,111.77 705.407,110.998 C705.407,110.225 705.075,109.489 704.496,108.978 Z" />
        </g>
    </g>
</svg>