<?xml version="1.0" encoding="UTF-8"?>
<svg height="600" width="800" xmlns="http://www.w3.org/2000/svg" xmlns:xlink="http://www.w3.org/1999/xlink">
    <g id="Notes" font-family="'LucidaGrande', 'Lucida Grande', sans-serif" font-size="13">
        <rect fill="white" height="600.0" width="800.0" x="0.0" y="0.0" />
        <g font-size="13">
            <text x="18.0" y="176.0">Small</text>
            <text x="18.0" y="376.0">Medium</text>
            <text x="18.0" y="576.0">Large</text>
        </g>
        <g font-size="9">
            <text x="250.0" y="30.0">Ultralight</text>
            <text x="450.0" y="30.0">Regular</text>
            <text x="650.0" y="30.0">Black</text>
            <text id="template-version" fill="#505050" text-anchor="end" x="785.0" y="575.0">Template v.3.0</text>
            <a href="https://github.com/swhitty/SwiftDraw">
                <text fill="#505050" text-anchor="end" x="785.0" y="590.0">https://github.com/swhitty/SwiftDraw</text>
            </a>
        </g>
    </g>
    <g id="Guides" stroke="rgb(39, 170, 225)" stroke-width="0.5">
        <path id="Capline-S" d="M18,76 l800,0" />
        <path id="H-reference" d="M85,145.755 L87.685,145.755 L113.369,79.287 L114.052,79.287 L114.052,76 L112.148,76 L85,145.755 Z M95.693,121.536 L130.996,121.536 L130.263,119.313 L96.474,119.313 L95.693,121.536 Z M139.15,145.755 L141.787,145.755 L114.638,76 L113.466,76 L113.466,79.287 L139.15,145.755 Z" stroke="none" />
        <path id="Baseline-S" d="M18,146 l800,0" />
        <path id="left-margin-Ultralight-S" d="M220,56 l0,110" />
        <path id="right-margin-Ultralight-S" d="M310,56 l0,110" />
        <path id="left-margin-Regular-S" d="M420,56 l0,110" />
        <path id="right-margin-Regular-S" d="M510,56 l0,110" />
        <path id="left-margin-Black-S" d="M620,56 l0,110" />
        <path id="right-margin-Black-S" d="M710,56 l0,110" />
        <path id="Capline-M" d="M18,276 l800,0" />
        <path id="Baseline-M" d="M18,346 l800,0" />
        <path id="Capline-L" d="M18,476 l800,0" />
        <path id="Baseline-L" d="M18,546 l800,0" />
    </g>
    <g id="Symbols">
        <g id="Ultralight-S">
            <path d="M294.615,105.615 L294.615,137.923 C294.615,139.351 294.048,140.721 293.038,141.731 C292.028,142.74 290.659,143.308 289.231,143.308 L240.769,143.308 C239.341,143.308 237.972,142.74 236.962,141.731 C235.952,140.721 235.385,139.351 235.385,137.923 L235.385,105.615 C235.385,104.187 235.952,102.818 236.962,101.808 C237.972,100.798 239.341,100.231 240.769,100.231 L248.846,100.231 C250.333,100.231 251.538,101.436 251.538,102.923 C251.538,104.41 250.333,105.615 248.846,105.615 L240.769,105.615 L240.769,137.923 L289.231,137.923 L289.231,105.615 L281.154,105.615 C279.667,105.615 278.462,104.41 278.462,102.923 C278.462,101.436 279.667,100.231 281.154,100.231 L289.231,100.231 C290.659,100.231 292.028,100.798 293.038,101.808 C294.048,102.818 294.615,104.187 294.615,105.615 Z M253.443,91.366 L262.308,82.499 L262.308,113.692 C262.308,115.179 263.513,116.385 265,116.385 C266.487,116.385 267.692,115.179 267.692,113.692 L267.692,82.499 L276.557,91.366 C277.607,92.418 279.313,92.419 280.365,91.367 C281.418,90.316 281.419,88.61 280.367,87.558 L266.906,74.096 C266.401,73.591 265.716,73.307 265.001,73.307 C264.286,73.307 263.601,73.591 263.096,74.096 L249.635,87.558 C248.583,88.61 248.583,90.315 249.635,91.367 C250.687,92.418 252.392,92.418 253.444,91.366 Z" />
        </g>
        <g id="Regular-S">
            <path d="M494.615,105.615 L494.615,137.923 C494.615,139.351 494.048,140.721 493.038,141.731 C492.028,142.74 490.659,143.308 489.231,143.308 L440.769,143.308 C439.341,143.308 437.972,142.74 436.962,141.731 C435.952,140.721 435.385,139.351 435.385,137.923 L435.385,105.615 C435.385,104.187 435.952,102.818 436.962,101.808 C437.972,100.798 439.341,100.231 440.769,100.231 L448.846,100.231 C450.333,100.231 451.538,101.436 451.538,102.923 C451.538,104.41 450.333,105.615 448.846,105.615 L440.769,105.615 L440.769,137.923 L489.231,137.923 L489.231,105.615 L481.154,105.615 C479.667,105.615 478.462,104.41 478.462,102.923 C478.462,101.436 479.667,100.231 481.154,100.231 L489.231,100.231 C490.659,100.231 492.028,100.798 493.038,101.808 C494.048,102.818 494.615,104.187 494.615,105.615 Z M453.443,91.366 L462.308,82.499 L462.308,113.692 C462.308,115.179 463.513,116.385 465,116.385 C466.487,116.385 467.692,115.179 467.692,113.692 L467.692,82.499 L476.557,91.366 C477.607,92.418 479.313,92.419 480.365,91.367 C481.418,90.316 481.419,88.61 480.367,87.558 L466.906,74.096 C466.401,73.591 465.716,73.307 465.001,73.307 C464.286,73.307 463.601,73.591 463.096,74.096 L449.635,87.558 C448.583,88.61 448.583,90.315 449.635,91.367 C450.687,92.418 452.392,92.418 453.444,91.366 Z" />
        </g>
        <g id="Black-S">
            <path d="M694.615,105.615 L694.615,137.923 C694.615,139.351 694.048,140.721 693.038,141.731 C692.028,142.74 690.659,143.308 689.231,143.308 L640.769,143.308 C639.341,143.308 637.972,142.74 636.962,141.731 C635.952,140.721 635.385,139.351 635.385,137.923 L635.385,105.615 C635.385,104.187 635.952,102.818 636.962,101.808 C637.972,100.798 639.341,100.231 640.769,100.231 L648.846,100.231 C650.333,100.231 651.538,101.436 651.538,102.923 C651.538,104.41 650.333,105.615 648.846,105.615 L640.769,105.615 L640.769,137.923 L689.231,137.923 L689.231,105.615 L681.154,105.615 C679.667,105.615 678.462,104.41 678.462,102.923 C678.462,101.436 679.667,100.231 681.154,100.231 L689.231,100.231 C690.659,100.231 692.028,100.798 693.038,101.808 C694.048,102.818 694.615,104.187 694.615,105.615 Z M653.443,91.366 L662.308,82.499 L662.308,113.692 C662.308,115.179 663.513,116.385 665,116.385 C666.487,116.385 667.692,115.179 667.692,113.692 L667.692,82.499 L676.557,91.366 C677.607,92.418 679.313,92.419 680.365,91.367 C681.418,90.316 681.419,88.61 680.367,87.558 L666.906,74.096 C666.401,73.591 665.716,73.307 665.001,73.307 C664.286,73.307 663.601,73.591 663.096,74.096 L649.635,87.558 C648.583,88.61 648.583,90.315 649.635,91.367 C650.687,92.418 652.392,92.418 653.444,91.366 Z" />
        </g>
    </g>
</svg>