<?xml version="1.0" encoding="UTF-8"?>
<svg height="600" width="800" xmlns="http://www.w3.org/2000/svg" xmlns:xlink="http://www.w3.org/1999/xlink">
    <g id="Notes" font-family="'LucidaGrande', 'Lucida Grande', sans-serif" font-size="13">
        <rect fill="white" height="600.0" width="800.0" x="0.0" y="0.0" />
        <g font-size="13">
            <text x="18.0" y="176.0">Small</text>
            <text x="18.0" y="376.0">Medium</text>
            <text x="18.0" y="576.0">Large</text>
        </g>
        <g font-size="9">
            <text x="250.0" y="30.0">Ultralight</text>
            <text x="450.0" y="30.0">Regular</text>
            <text x="650.0" y="30.0">Black</text>
            <text id="template-version" fill="#505050" text-anchor="end" x="785.0" y="575.0">Template v.3.0</text>
            <a href="https://github.com/swhitty/SwiftDraw">
                <text fill="#505050" text-anchor="end" x="785.0" y="590.0">https://github.com/swhitty/SwiftDraw</text>
            </a>
        </g>
    </g>
    <g id="Guides" stroke="rgb(39, 170, 225)" stroke-width="0.5">
        <path id="Capline-S" d="M18,76 l800,0" />
        <path id="H-reference" d="M85,145.755 L87.685,145.755 L113.369,79.287 L114.052,79.287 L114.052,76 L112.148,76 L85,145.755 Z M95.693,121.536 L130.996,121.536 L130.263,119.313 L96.474,119.313 L95.693,121.536 Z M139.15,145.755 L141.787,145.755 L114.638,76 L113.466,76 L113.466,79.287 L139.15,145.755 Z" stroke="none" />
        <path id="Baseline-S" d="M18,146 l800,0" />
        <path id="left-margin-Ultralight-S" d="M220,56 l0,110" />
        <path id="right-margin-Ultralight-S" d="M310,56 l0,110" />
        <path id="left-margin-Regular-S" d="M420,56 l0,110" />
        <path id="right-margin-Regular-S" d="M510,56 l0,110" />
        <path id="left-margin-Black-S" d="M620,56 l0,110" />
        <path id="right-margin-Black-S" d="M710,56 l0,110" />
        <path id="Capline-M" d="M18,276 l800,0" />
        <path id="Baseline-M" d="M18,346 l800,0" />
        <path id="Capline-L" d="M18,476 l800,0" />
        <path id="Baseline-L" d="M18,546 l800,0" />
    </g>
    <g id="Symbols">
        <g id="Ultralight-S">
            <path d="M265,76 C245.67,76 230,91.67 230,111 C230,130.33 245.67,146 265,146 C284.33,146 300,130.33 300,111 C299.979,91.677 284.32,76.02 264.999,76 Z M265,140.615 C248.644,140.615 235.385,127.356 235.385,111 C235.385,94.644 248.644,81.385 265,81.385 C281.356,81.385 294.615,94.644 294.615,111 C294.598,127.347 281.35,140.596 265.001,140.615 Z M275.281,95.994 C275.789,96.711 275.914,97.63 275.618,98.457 L264.849,128.073 C264.461,129.141 263.444,129.85 262.308,129.846 C261.994,129.847 261.683,129.792 261.389,129.685 C260.718,129.441 260.171,128.941 259.868,128.294 C259.566,127.647 259.533,126.906 259.777,126.235 L269.234,100.231 L256.923,100.231 C255.436,100.231 254.231,99.025 254.231,97.538 C254.231,96.052 255.436,94.846 256.923,94.846 L273.077,94.846 C273.955,94.846 274.778,95.275 275.281,95.994 Z" />
        </g>
        <g id="Regular-S">
            <path d="M465,76 C445.67,76 430,91.67 430,111 C430,130.33 445.67,146 465,146 C484.33,146 500,130.33 500,111 C499.979,91.677 484.32,76.02 464.999,76 Z M465,140.615 C448.644,140.615 435.385,127.356 435.385,111 C435.385,94.644 448.644,81.385 465,81.385 C481.356,81.385 494.615,94.644 494.615,111 C494.598,127.347 481.35,140.596 465.001,140.615 Z M475.281,95.994 C475.789,96.711 475.914,97.63 475.618,98.457 L464.849,128.073 C464.461,129.141 463.444,129.85 462.308,129.846 C461.994,129.847 461.683,129.792 461.389,129.685 C460.718,129.441 460.171,128.941 459.868,128.294 C459.566,127.647 459.533,126.906 459.777,126.235 L469.234,100.231 L456.923,100.231 C455.436,100.231 454.231,99.025 454.231,97.538 C454.231,96.052 455.436,94.846 456.923,94.846 L473.077,94.846 C473.955,94.846 474.778,95.275 475.281,95.994 Z" />
        </g>
        <g id="Black-S">
            <path d="M665,76 C645.67,76 630,91.67 630,111 C630,130.33 645.67,146 665,146 C684.33,146 700,130.33 700,111 C699.979,91.677 684.32,76.02 664.999,76 Z M665,140.615 C648.644,140.615 635.385,127.356 635.385,111 C635.385,94.644 648.644,81.385 665,81.385 C681.356,81.385 694.615,94.644 694.615,111 C694.598,127.347 681.35,140.596 665.001,140.615 Z M675.281,95.994 C675.789,96.711 675.914,97.63 675.618,98.457 L664.849,128.073 C664.461,129.141 663.444,129.85 662.308,129.846 C661.994,129.847 661.683,129.792 661.389,129.685 C660.718,129.441 660.171,128.941 659.869,128.294 C659.566,127.647 659.533,126.906 659.777,126.235 L669.234,100.231 L656.923,100.231 C655.436,100.231 654.231,99.025 654.231,97.538 C654.231,96.052 655.436,94.846 656.923,94.846 L673.077,94.846 C673.955,94.846 674.778,95.275 675.281,95.994 Z" />
        </g>
    </g>
</svg>