<?xml version="1.0" encoding="UTF-8"?>
<svg height="600" width="800" xmlns="http://www.w3.org/2000/svg" xmlns:xlink="http://www.w3.org/1999/xlink">
    <g id="Notes" font-family="'LucidaGrande', 'Lucida Grande', sans-serif" font-size="13">
        <rect fill="white" height="600.0" width="800.0" x="0.0" y="0.0" />
        <g font-size="13">
            <text x="18.0" y="176.0">Small</text>
            <text x="18.0" y="376.0">Medium</text>
            <text x="18.0" y="576.0">Large</text>
        </g>
        <g font-size="9">
            <text x="250.0" y="30.0">Ultralight</text>
            <text x="450.0" y="30.0">Regular</text>
            <text x="650.0" y="30.0">Black</text>
            <text id="template-version" fill="#505050" text-anchor="end" x="785.0" y="575.0">Template v.3.0</text>
            <a href="https://github.com/swhitty/SwiftDraw">
                <text fill="#505050" text-anchor="end" x="785.0" y="590.0">https://github.com/swhitty/SwiftDraw</text>
            </a>
        </g>
    </g>
    <g id="Guides" stroke="rgb(39, 170, 225)" stroke-width="0.5">
        <path id="Capline-S" d="M18,76 l800,0" />
        <path id="H-reference" d="M85,145.755 L87.685,145.755 L113.369,79.287 L114.052,79.287 L114.052,76 L112.148,76 L85,145.755 Z M95.693,121.536 L130.996,121.536 L130.263,119.313 L96.474,119.313 L95.693,121.536 Z M139.15,145.755 L141.787,145.755 L114.638,76 L113.466,76 L113.466,79.287 L139.15,145.755 Z" stroke="none" />
        <path id="Baseline-S" d="M18,146 l800,0" />
        <path id="left-margin-Ultralight-S" d="M220,56 l0,110" />
        <path id="right-margin-Ultralight-S" d="M310,56 l0,110" />
        <path id="left-margin-Regular-S" d="M420,56 l0,110" />
        <path id="right-margin-Regular-S" d="M510,56 l0,110" />
        <path id="left-margin-Black-S" d="M620,56 l0,110" />
        <path id="right-margin-Black-S" d="M710,56 l0,110" />
        <path id="Capline-M" d="M18,276 l800,0" />
        <path id="Baseline-M" d="M18,346 l800,0" />
        <path id="Capline-L" d="M18,476 l800,0" />
        <path id="Baseline-L" d="M18,546 l800,0" />
    </g>
    <g id="Symbols">
        <g id="Ultralight-S">
            <path d="M238.077,86.769 L238.077,135.231 C238.077,136.718 236.872,137.923 235.385,137.923 C233.898,137.923 232.692,136.718 232.692,135.231 L232.692,86.769 C232.692,85.282 233.898,84.077 235.385,84.077 C236.872,84.077 238.077,85.282 238.077,86.769 Z M269.038,105.111 L262.308,107.298 L262.308,100.231 C262.308,98.744 261.102,97.538 259.615,97.538 C258.128,97.538 256.923,98.744 256.923,100.231 L256.923,107.298 L250.192,105.111 C248.779,104.646 247.256,105.415 246.79,106.829 C246.325,108.243 247.094,109.767 248.509,110.232 L255.239,112.416 L251.086,118.138 C250.489,118.914 250.36,119.954 250.751,120.852 C251.141,121.751 251.988,122.366 252.964,122.46 C253.939,122.553 254.888,122.109 255.441,121.301 L259.594,115.58 L263.747,121.301 C264.301,122.109 265.25,122.553 266.225,122.46 C267.2,122.366 268.047,121.751 268.438,120.852 C268.828,119.954 268.699,118.914 268.102,118.138 L263.949,112.416 L270.68,110.232 C272.025,109.728 272.737,108.257 272.299,106.89 C271.861,105.522 270.426,104.739 269.038,105.111 Z M304.712,106.84 C304.252,105.44 302.752,104.669 301.346,105.111 L294.615,107.298 L294.615,100.231 C294.615,98.744 293.41,97.538 291.923,97.538 C290.436,97.538 289.231,98.744 289.231,100.231 L289.231,107.298 L282.5,105.114 C281.086,104.654 279.566,105.427 279.106,106.842 C278.646,108.256 279.419,109.776 280.834,110.236 L287.565,112.42 L283.412,118.141 C282.814,118.918 282.686,119.957 283.076,120.856 C283.466,121.754 284.314,122.37 285.289,122.463 C286.264,122.557 287.213,122.113 287.767,121.305 L291.919,115.584 L296.072,121.305 C296.626,122.113 297.575,122.557 298.55,122.463 C299.525,122.37 300.373,121.754 300.763,120.856 C301.153,119.957 301.025,118.918 300.427,118.141 L296.274,112.42 L303.005,110.236 C304.412,109.767 305.175,108.249 304.712,106.84 Z" />
        </g>
        <g id="Regular-S">
            <path d="M438.077,86.769 L438.077,135.231 C438.077,136.718 436.872,137.923 435.385,137.923 C433.898,137.923 432.692,136.718 432.692,135.231 L432.692,86.769 C432.692,85.282 433.898,84.077 435.385,84.077 C436.872,84.077 438.077,85.282 438.077,86.769 Z M469.038,105.111 L462.308,107.298 L462.308,100.231 C462.308,98.744 461.102,97.538 459.615,97.538 C458.128,97.538 456.923,98.744 456.923,100.231 L456.923,107.298 L450.192,105.111 C448.779,104.646 447.255,105.415 446.79,106.829 C446.325,108.243 447.094,109.767 448.509,110.232 L455.239,112.416 L451.086,118.138 C450.489,118.914 450.36,119.954 450.751,120.852 C451.141,121.751 451.988,122.366 452.964,122.46 C453.939,122.553 454.888,122.109 455.441,121.301 L459.594,115.58 L463.747,121.301 C464.301,122.109 465.25,122.553 466.225,122.46 C467.2,122.366 468.047,121.751 468.438,120.852 C468.828,119.954 468.699,118.914 468.102,118.138 L463.949,112.416 L470.68,110.232 C472.025,109.728 472.737,108.257 472.299,106.89 C471.861,105.522 470.426,104.739 469.038,105.111 Z M504.712,106.84 C504.252,105.44 502.752,104.669 501.346,105.111 L494.615,107.298 L494.615,100.231 C494.615,98.744 493.41,97.538 491.923,97.538 C490.436,97.538 489.231,98.744 489.231,100.231 L489.231,107.298 L482.5,105.114 C481.086,104.654 479.566,105.427 479.106,106.842 C478.646,108.256 479.419,109.776 480.834,110.236 L487.565,112.42 L483.412,118.141 C482.814,118.918 482.686,119.957 483.076,120.856 C483.466,121.754 484.314,122.37 485.289,122.463 C486.264,122.557 487.213,122.113 487.767,121.305 L491.919,115.584 L496.072,121.305 C496.626,122.113 497.575,122.557 498.55,122.463 C499.525,122.37 500.373,121.754 500.763,120.856 C501.153,119.957 501.025,118.918 500.427,118.141 L496.274,112.42 L503.005,110.236 C504.412,109.767 505.175,108.249 504.712,106.84 Z" />
        </g>
        <g id="Black-S">
            <path d="M638.077,86.769 L638.077,135.231 C638.077,136.718 636.872,137.923 635.385,137.923 C633.898,137.923 632.692,136.718 632.692,135.231 L632.692,86.769 C632.692,85.282 633.898,84.077 635.385,84.077 C636.872,84.077 638.077,85.282 638.077,86.769 Z M669.038,105.111 L662.308,107.298 L662.308,100.231 C662.308,98.744 661.102,97.538 659.615,97.538 C658.128,97.538 656.923,98.744 656.923,100.231 L656.923,107.298 L650.192,105.111 C648.779,104.646 647.255,105.415 646.79,106.829 C646.325,108.243 647.094,109.767 648.509,110.232 L655.239,112.416 L651.086,118.138 C650.489,118.914 650.36,119.954 650.751,120.852 C651.141,121.751 651.988,122.366 652.964,122.46 C653.939,122.553 654.888,122.109 655.441,121.301 L659.594,115.58 L663.747,121.301 C664.301,122.109 665.25,122.553 666.225,122.46 C667.2,122.366 668.047,121.751 668.438,120.852 C668.828,119.954 668.699,118.914 668.102,118.138 L663.949,112.416 L670.68,110.232 C672.025,109.728 672.737,108.257 672.299,106.89 C671.861,105.522 670.426,104.739 669.038,105.111 Z M704.712,106.84 C704.252,105.44 702.752,104.669 701.346,105.111 L694.615,107.298 L694.615,100.231 C694.615,98.744 693.41,97.538 691.923,97.538 C690.436,97.538 689.231,98.744 689.231,100.231 L689.231,107.298 L682.5,105.114 C681.086,104.654 679.566,105.427 679.106,106.842 C678.646,108.256 679.419,109.776 680.834,110.236 L687.565,112.42 L683.412,118.141 C682.814,118.918 682.686,119.957 683.076,120.856 C683.466,121.754 684.314,122.37 685.289,122.463 C686.264,122.557 687.213,122.113 687.767,121.305 L691.919,115.584 L696.072,121.305 C696.626,122.113 697.575,122.557 698.55,122.463 C699.525,122.37 700.373,121.754 700.763,120.856 C701.153,119.957 701.025,118.918 700.427,118.141 L696.274,112.42 L703.005,110.236 C704.412,109.767 705.175,108.249 704.712,106.84 Z" />
        </g>
    </g>
</svg>