<?xml version="1.0" encoding="UTF-8"?>
<svg height="600" width="800" xmlns="http://www.w3.org/2000/svg" xmlns:xlink="http://www.w3.org/1999/xlink">
    <g id="Notes" font-family="'LucidaGrande', 'Lucida Grande', sans-serif" font-size="13">
        <rect fill="white" height="600.0" width="800.0" x="0.0" y="0.0" />
        <g font-size="13">
            <text x="18.0" y="176.0">Small</text>
            <text x="18.0" y="376.0">Medium</text>
            <text x="18.0" y="576.0">Large</text>
        </g>
        <g font-size="9">
            <text x="250.0" y="30.0">Ultralight</text>
            <text x="450.0" y="30.0">Regular</text>
            <text x="650.0" y="30.0">Black</text>
            <text id="template-version" fill="#505050" text-anchor="end" x="785.0" y="575.0">Template v.3.0</text>
            <a href="https://github.com/swhitty/SwiftDraw">
                <text fill="#505050" text-anchor="end" x="785.0" y="590.0">https://github.com/swhitty/SwiftDraw</text>
            </a>
        </g>
    </g>
    <g id="Guides" stroke="rgb(39, 170, 225)" stroke-width="0.5">
        <path id="Capline-S" d="M18,76 l800,0" />
        <path id="H-reference" d="M85,145.755 L87.685,145.755 L113.369,79.287 L114.052,79.287 L114.052,76 L112.148,76 L85,145.755 Z M95.693,121.536 L130.996,121.536 L130.263,119.313 L96.474,119.313 L95.693,121.536 Z M139.15,145.755 L141.787,145.755 L114.638,76 L113.466,76 L113.466,79.287 L139.15,145.755 Z" stroke="none" />
        <path id="Baseline-S" d="M18,146 l800,0" />
        <path id="left-margin-Ultralight-S" d="M220,56 l0,110" />
        <path id="right-margin-Ultralight-S" d="M310,56 l0,110" />
        <path id="left-margin-Regular-S" d="M420,56 l0,110" />
        <path id="right-margin-Regular-S" d="M510,56 l0,110" />
        <path id="left-margin-Black-S" d="M620,56 l0,110" />
        <path id="right-margin-Black-S" d="M710,56 l0,110" />
        <path id="Capline-M" d="M18,276 l800,0" />
        <path id="Baseline-M" d="M18,346 l800,0" />
        <path id="Capline-L" d="M18,476 l800,0" />
        <path id="Baseline-L" d="M18,546 l800,0" />
    </g>
    <g id="Symbols">
        <g id="Ultralight-S">
            <path d="M259.615,123.115 C259.615,125.346 257.807,127.154 255.577,127.154 C253.347,127.154 251.538,125.346 251.538,123.115 C251.538,120.885 253.347,119.077 255.577,119.077 C256.648,119.077 257.675,119.502 258.433,120.26 C259.19,121.017 259.615,122.044 259.615,123.115 Z M274.423,119.077 C272.193,119.077 270.385,120.885 270.385,123.115 C270.385,125.346 272.193,127.154 274.423,127.154 C276.653,127.154 278.462,125.346 278.462,123.115 C278.462,122.044 278.036,121.017 277.279,120.26 C276.521,119.502 275.494,119.077 274.423,119.077 Z M294.615,131.192 C294.615,138.203 290.43,144.538 283.98,147.289 C277.53,150.039 270.061,148.674 265.001,143.82 C260.461,148.175 253.932,149.758 247.901,147.966 C241.871,146.174 237.266,141.282 235.841,135.155 C234.416,129.027 236.39,122.606 241.012,118.337 C241.356,115.909 242.068,113.549 243.125,111.337 C236.731,98.582 232.871,81.64 237.283,74.344 C238.62,72.004 241.123,70.576 243.818,70.615 C248.57,70.615 252.568,74.617 256.082,82.852 C258.175,87.772 259.733,93.392 260.793,97.909 C263.576,97.417 266.424,97.417 269.207,97.909 C270.26,93.392 271.818,87.772 273.918,82.852 C277.418,74.617 281.43,70.615 286.182,70.615 C288.877,70.576 291.38,72.004 292.717,74.344 C297.129,81.64 293.269,98.582 286.875,111.337 C287.928,113.545 288.638,115.901 288.982,118.323 C292.583,121.632 294.627,126.302 294.615,131.192 Z M274.386,99.433 C277.878,100.896 280.977,103.161 283.432,106.043 C285.668,101.063 287.342,95.849 288.423,90.498 C289.598,84.397 289.483,79.392 288.11,77.131 C287.754,76.4 286.994,75.954 286.182,76 C283.957,76 281.295,79.264 278.872,84.959 C276.876,89.65 275.389,95.095 274.386,99.433 Z M246.568,106.043 C249.023,103.161 252.122,100.896 255.614,99.433 C254.604,95.095 253.124,89.65 251.128,84.962 C248.705,79.264 246.043,76 243.818,76 C243.006,75.954 242.246,76.4 241.89,77.131 C240.517,79.399 240.402,84.413 241.577,90.498 C242.658,95.849 244.332,101.063 246.568,106.043 Z M289.231,131.192 C289.24,127.533 287.588,124.067 284.741,121.769 C284.181,121.314 283.827,120.653 283.758,119.935 C282.824,110.274 274.706,102.903 265,102.903 C255.294,102.903 247.175,110.274 246.241,119.935 C246.173,120.653 245.819,121.314 245.259,121.769 C241.777,124.548 240.101,129.013 240.894,133.397 C241.688,137.78 244.823,141.374 249.057,142.756 C253.292,144.138 257.944,143.085 261.17,140.013 L257.892,137.29 C256.749,136.338 256.594,134.64 257.546,133.497 C258.498,132.354 260.196,132.199 261.339,133.151 L265,136.207 L268.662,133.161 C269.804,132.21 271.502,132.364 272.454,133.507 C273.406,134.65 273.251,136.348 272.108,137.3 L268.83,140.023 C272.352,143.324 277.498,144.219 281.928,142.301 C286.358,140.384 289.227,136.02 289.231,131.192 Z" />
        </g>
        <g id="Regular-S">
            <path d="M459.615,123.115 C459.615,125.346 457.807,127.154 455.577,127.154 C453.347,127.154 451.538,125.346 451.538,123.115 C451.538,120.885 453.347,119.077 455.577,119.077 C456.648,119.077 457.675,119.502 458.433,120.26 C459.19,121.017 459.615,122.044 459.615,123.115 Z M474.423,119.077 C472.193,119.077 470.385,120.885 470.385,123.115 C470.385,125.346 472.193,127.154 474.423,127.154 C476.653,127.154 478.462,125.346 478.462,123.115 C478.462,122.044 478.036,121.017 477.279,120.26 C476.521,119.502 475.494,119.077 474.423,119.077 Z M494.615,131.192 C494.615,138.203 490.43,144.538 483.98,147.289 C477.53,150.039 470.061,148.674 465.001,143.82 C460.461,148.175 453.932,149.758 447.901,147.966 C441.871,146.174 437.266,141.282 435.841,135.155 C434.416,129.027 436.39,122.606 441.012,118.337 C441.356,115.909 442.068,113.549 443.125,111.337 C436.731,98.582 432.871,81.64 437.283,74.344 C438.62,72.004 441.123,70.576 443.818,70.615 C448.57,70.615 452.568,74.617 456.082,82.852 C458.175,87.772 459.733,93.392 460.793,97.909 C463.576,97.417 466.424,97.417 469.207,97.909 C470.26,93.392 471.818,87.772 473.918,82.852 C477.418,74.617 481.43,70.615 486.182,70.615 C488.877,70.576 491.38,72.004 492.717,74.344 C497.129,81.64 493.269,98.582 486.875,111.337 C487.928,113.545 488.638,115.901 488.982,118.323 C492.582,121.632 494.627,126.302 494.615,131.192 Z M474.386,99.433 C477.878,100.896 480.977,103.161 483.432,106.043 C485.668,101.063 487.342,95.849 488.423,90.498 C489.598,84.397 489.483,79.392 488.11,77.131 C487.754,76.4 486.994,75.954 486.182,76 C483.957,76 481.295,79.264 478.872,84.959 C476.876,89.65 475.389,95.095 474.386,99.433 Z M446.568,106.043 C449.023,103.161 452.122,100.896 455.614,99.433 C454.604,95.095 453.124,89.65 451.128,84.962 C448.705,79.264 446.043,76 443.818,76 C443.006,75.954 442.246,76.4 441.89,77.131 C440.517,79.399 440.402,84.413 441.577,90.498 C442.658,95.849 444.332,101.063 446.568,106.043 Z M489.231,131.192 C489.24,127.533 487.588,124.067 484.741,121.769 C484.181,121.314 483.827,120.653 483.758,119.935 C482.824,110.274 474.706,102.903 465,102.903 C455.294,102.903 447.175,110.274 446.241,119.935 C446.173,120.653 445.819,121.314 445.259,121.769 C441.777,124.548 440.101,129.013 440.894,133.397 C441.688,137.78 444.823,141.374 449.057,142.756 C453.292,144.138 457.944,143.085 461.17,140.013 L457.892,137.29 C456.749,136.338 456.594,134.64 457.546,133.497 C458.498,132.354 460.196,132.199 461.339,133.151 L465,136.207 L468.662,133.161 C469.804,132.21 471.502,132.364 472.454,133.507 C473.406,134.65 473.251,136.348 472.108,137.3 L468.83,140.023 C472.352,143.324 477.498,144.219 481.928,142.301 C486.358,140.384 489.227,136.02 489.231,131.192 Z" />
        </g>
        <g id="Black-S">
            <path d="M659.615,123.115 C659.615,125.346 657.807,127.154 655.577,127.154 C653.347,127.154 651.538,125.346 651.538,123.115 C651.538,120.885 653.347,119.077 655.577,119.077 C656.648,119.077 657.675,119.502 658.433,120.26 C659.19,121.017 659.615,122.044 659.615,123.115 Z M674.423,119.077 C672.193,119.077 670.385,120.885 670.385,123.115 C670.385,125.346 672.193,127.154 674.423,127.154 C676.653,127.154 678.462,125.346 678.462,123.115 C678.462,122.044 678.036,121.017 677.279,120.26 C676.521,119.502 675.494,119.077 674.423,119.077 Z M694.615,131.192 C694.615,138.203 690.43,144.538 683.98,147.289 C677.53,150.039 670.061,148.674 665.001,143.82 C660.461,148.175 653.932,149.758 647.901,147.966 C641.871,146.174 637.266,141.282 635.841,135.155 C634.416,129.027 636.39,122.606 641.012,118.337 C641.356,115.909 642.068,113.549 643.125,111.337 C636.731,98.582 632.871,81.64 637.283,74.344 C638.62,72.004 641.123,70.576 643.818,70.615 C648.57,70.615 652.568,74.617 656.082,82.852 C658.175,87.772 659.733,93.392 660.793,97.909 C663.576,97.417 666.424,97.417 669.207,97.909 C670.26,93.392 671.818,87.772 673.918,82.852 C677.418,74.617 681.43,70.615 686.182,70.615 C688.877,70.576 691.38,72.004 692.717,74.344 C697.129,81.64 693.269,98.582 686.875,111.337 C687.928,113.545 688.638,115.901 688.982,118.323 C692.583,121.632 694.627,126.302 694.615,131.192 Z M674.386,99.433 C677.878,100.896 680.977,103.161 683.432,106.043 C685.668,101.063 687.342,95.849 688.423,90.498 C689.598,84.397 689.483,79.392 688.11,77.131 C687.754,76.4 686.994,75.954 686.182,76 C683.957,76 681.295,79.264 678.872,84.959 C676.876,89.65 675.389,95.095 674.386,99.433 Z M646.568,106.043 C649.023,103.161 652.122,100.896 655.614,99.433 C654.604,95.095 653.124,89.65 651.128,84.962 C648.705,79.264 646.043,76 643.818,76 C643.006,75.954 642.246,76.4 641.89,77.131 C640.517,79.399 640.402,84.413 641.577,90.498 C642.658,95.849 644.332,101.063 646.568,106.043 Z M689.231,131.192 C689.24,127.533 687.589,124.067 684.741,121.769 C684.181,121.314 683.827,120.653 683.758,119.935 C682.824,110.274 674.706,102.903 665,102.903 C655.294,102.903 647.175,110.274 646.241,119.935 C646.173,120.653 645.819,121.314 645.259,121.769 C641.777,124.548 640.101,129.013 640.894,133.397 C641.688,137.78 644.823,141.374 649.057,142.756 C653.292,144.138 657.944,143.085 661.17,140.013 L657.892,137.29 C656.749,136.338 656.594,134.64 657.546,133.497 C658.498,132.354 660.196,132.199 661.339,133.151 L665,136.207 L668.662,133.161 C669.804,132.21 671.502,132.364 672.454,133.507 C673.406,134.65 673.251,136.348 672.108,137.3 L668.83,140.023 C672.352,143.324 677.498,144.219 681.928,142.301 C686.358,140.384 689.227,136.02 689.231,131.192 Z" />
        </g>
    </g>
</svg>