<?xml version="1.0" encoding="UTF-8"?>
<svg height="600" width="800" xmlns="http://www.w3.org/2000/svg" xmlns:xlink="http://www.w3.org/1999/xlink">
    <g id="Notes" font-family="'LucidaGrande', 'Lucida Grande', sans-serif" font-size="13">
        <rect fill="white" height="600.0" width="800.0" x="0.0" y="0.0" />
        <g font-size="13">
            <text x="18.0" y="176.0">Small</text>
            <text x="18.0" y="376.0">Medium</text>
            <text x="18.0" y="576.0">Large</text>
        </g>
        <g font-size="9">
            <text x="250.0" y="30.0">Ultralight</text>
            <text x="450.0" y="30.0">Regular</text>
            <text x="650.0" y="30.0">Black</text>
            <text id="template-version" fill="#505050" text-anchor="end" x="785.0" y="575.0">Template v.3.0</text>
            <a href="https://github.com/swhitty/SwiftDraw">
                <text fill="#505050" text-anchor="end" x="785.0" y="590.0">https://github.com/swhitty/SwiftDraw</text>
            </a>
        </g>
    </g>
    <g id="Guides" stroke="rgb(39, 170, 225)" stroke-width="0.5">
        <path id="Capline-S" d="M18,76 l800,0" />
        <path id="H-reference" d="M85,145.755 L87.685,145.755 L113.369,79.287 L114.052,79.287 L114.052,76 L112.148,76 L85,145.755 Z M95.693,121.536 L130.996,121.536 L130.263,119.313 L96.474,119.313 L95.693,121.536 Z M139.15,145.755 L141.787,145.755 L114.638,76 L113.466,76 L113.466,79.287 L139.15,145.755 Z" stroke="none" />
        <path id="Baseline-S" d="M18,146 l800,0" />
        <path id="left-margin-Ultralight-S" d="M220,56 l0,110" />
        <path id="right-margin-Ultralight-S" d="M310,56 l0,110" />
        <path id="left-margin-Regular-S" d="M420,56 l0,110" />
        <path id="right-margin-Regular-S" d="M510,56 l0,110" />
        <path id="left-margin-Black-S" d="M620,56 l0,110" />
        <path id="right-margin-Black-S" d="M710,56 l0,110" />
        <path id="Capline-M" d="M18,276 l800,0" />
        <path id="Baseline-M" d="M18,346 l800,0" />
        <path id="Capline-L" d="M18,476 l800,0" />
        <path id="Baseline-L" d="M18,546 l800,0" />
    </g>
    <g id="Symbols">
        <g id="Ultralight-S">
            <path d="M265,86.769 C259.052,86.769 254.231,91.591 254.231,97.538 C254.231,103.486 259.052,108.308 265,108.308 C270.948,108.308 275.769,103.486 275.769,97.538 C275.769,94.682 274.635,91.943 272.615,89.923 C270.595,87.904 267.856,86.769 265,86.769 Z M265,102.923 C262.026,102.923 259.615,100.512 259.615,97.538 C259.615,94.565 262.026,92.154 265,92.154 C267.974,92.154 270.385,94.565 270.385,97.538 C270.385,98.967 269.817,100.336 268.807,101.346 C267.798,102.356 266.428,102.923 265,102.923 Z M265,113.692 C259.052,113.692 254.231,118.514 254.231,124.462 C254.231,130.409 259.052,135.231 265,135.231 C270.948,135.231 275.769,130.409 275.769,124.462 C275.769,121.605 274.635,118.866 272.615,116.847 C270.595,114.827 267.856,113.692 265,113.692 Z M265,129.846 C262.026,129.846 259.615,127.435 259.615,124.462 C259.615,121.488 262.026,119.077 265,119.077 C267.974,119.077 270.385,121.488 270.385,124.462 C270.385,125.89 269.817,127.259 268.807,128.269 C267.798,129.279 266.428,129.846 265,129.846 Z M294.615,116.385 L289.231,116.385 L289.231,94.846 L294.615,94.846 C296.102,94.846 297.308,93.641 297.308,92.154 C297.308,90.667 296.102,89.462 294.615,89.462 L289.231,89.462 L289.231,81.385 C289.231,79.957 288.663,78.587 287.654,77.577 C286.644,76.567 285.274,76 283.846,76 L246.154,76 C244.726,76 243.356,76.567 242.346,77.577 C241.337,78.587 240.769,79.957 240.769,81.385 L240.769,89.462 L235.385,89.462 C233.898,89.462 232.692,90.667 232.692,92.154 C232.692,93.641 233.898,94.846 235.385,94.846 L240.769,94.846 L240.769,116.385 L235.385,116.385 C233.898,116.385 232.692,117.59 232.692,119.077 C232.692,120.564 233.898,121.769 235.385,121.769 L240.769,121.769 L240.769,140.615 C240.769,142.043 241.337,143.413 242.346,144.423 C243.356,145.433 244.726,146 246.154,146 L283.846,146 C285.274,146 286.644,145.433 287.654,144.423 C288.663,143.413 289.231,142.043 289.231,140.615 L289.231,121.769 L294.615,121.769 C296.102,121.769 297.308,120.564 297.308,119.077 C297.308,117.59 296.102,116.385 294.615,116.385 Z M283.846,140.615 L246.154,140.615 L246.154,81.385 L283.846,81.385 L283.846,140.615 Z" />
        </g>
        <g id="Regular-S">
            <path d="M465,86.769 C459.052,86.769 454.231,91.591 454.231,97.538 C454.231,103.486 459.052,108.308 465,108.308 C470.948,108.308 475.769,103.486 475.769,97.538 C475.769,94.682 474.635,91.943 472.615,89.923 C470.595,87.904 467.856,86.769 465,86.769 Z M465,102.923 C462.026,102.923 459.615,100.512 459.615,97.538 C459.615,94.565 462.026,92.154 465,92.154 C467.974,92.154 470.385,94.565 470.385,97.538 C470.385,98.967 469.817,100.336 468.807,101.346 C467.798,102.356 466.428,102.923 465,102.923 Z M465,113.692 C459.052,113.692 454.231,118.514 454.231,124.462 C454.231,130.409 459.052,135.231 465,135.231 C470.948,135.231 475.769,130.409 475.769,124.462 C475.769,121.605 474.635,118.866 472.615,116.847 C470.595,114.827 467.856,113.692 465,113.692 Z M465,129.846 C462.026,129.846 459.615,127.435 459.615,124.462 C459.615,121.488 462.026,119.077 465,119.077 C467.974,119.077 470.385,121.488 470.385,124.462 C470.385,125.89 469.817,127.259 468.807,128.269 C467.798,129.279 466.428,129.846 465,129.846 Z M494.615,116.385 L489.231,116.385 L489.231,94.846 L494.615,94.846 C496.102,94.846 497.308,93.641 497.308,92.154 C497.308,90.667 496.102,89.462 494.615,89.462 L489.231,89.462 L489.231,81.385 C489.231,79.957 488.663,78.587 487.654,77.577 C486.644,76.567 485.274,76 483.846,76 L446.154,76 C444.726,76 443.356,76.567 442.346,77.577 C441.337,78.587 440.769,79.957 440.769,81.385 L440.769,89.462 L435.385,89.462 C433.898,89.462 432.692,90.667 432.692,92.154 C432.692,93.641 433.898,94.846 435.385,94.846 L440.769,94.846 L440.769,116.385 L435.385,116.385 C433.898,116.385 432.692,117.59 432.692,119.077 C432.692,120.564 433.898,121.769 435.385,121.769 L440.769,121.769 L440.769,140.615 C440.769,142.043 441.337,143.413 442.346,144.423 C443.356,145.433 444.726,146 446.154,146 L483.846,146 C485.274,146 486.644,145.433 487.654,144.423 C488.663,143.413 489.231,142.043 489.231,140.615 L489.231,121.769 L494.615,121.769 C496.102,121.769 497.308,120.564 497.308,119.077 C497.308,117.59 496.102,116.385 494.615,116.385 Z M483.846,140.615 L446.154,140.615 L446.154,81.385 L483.846,81.385 L483.846,140.615 Z" />
        </g>
        <g id="Black-S">
            <path d="M665,86.769 C659.052,86.769 654.231,91.591 654.231,97.538 C654.231,103.486 659.052,108.308 665,108.308 C670.948,108.308 675.769,103.486 675.769,97.538 C675.769,94.682 674.635,91.943 672.615,89.923 C670.595,87.904 667.856,86.769 665,86.769 Z M665,102.923 C662.026,102.923 659.615,100.512 659.615,97.538 C659.615,94.565 662.026,92.154 665,92.154 C667.974,92.154 670.385,94.565 670.385,97.538 C670.385,98.967 669.817,100.336 668.807,101.346 C667.798,102.356 666.428,102.923 665,102.923 Z M665,113.692 C659.052,113.692 654.231,118.514 654.231,124.462 C654.231,130.409 659.052,135.231 665,135.231 C670.948,135.231 675.769,130.409 675.769,124.462 C675.769,121.605 674.635,118.866 672.615,116.847 C670.595,114.827 667.856,113.692 665,113.692 Z M665,129.846 C662.026,129.846 659.615,127.435 659.615,124.462 C659.615,121.488 662.026,119.077 665,119.077 C667.974,119.077 670.385,121.488 670.385,124.462 C670.385,125.89 669.817,127.259 668.807,128.269 C667.798,129.279 666.428,129.846 665,129.846 Z M694.615,116.385 L689.231,116.385 L689.231,94.846 L694.615,94.846 C696.102,94.846 697.308,93.641 697.308,92.154 C697.308,90.667 696.102,89.462 694.615,89.462 L689.231,89.462 L689.231,81.385 C689.231,79.957 688.663,78.587 687.654,77.577 C686.644,76.567 685.274,76 683.846,76 L646.154,76 C644.726,76 643.356,76.567 642.346,77.577 C641.337,78.587 640.769,79.957 640.769,81.385 L640.769,89.462 L635.385,89.462 C633.898,89.462 632.692,90.667 632.692,92.154 C632.692,93.641 633.898,94.846 635.385,94.846 L640.769,94.846 L640.769,116.385 L635.385,116.385 C633.898,116.385 632.692,117.59 632.692,119.077 C632.692,120.564 633.898,121.769 635.385,121.769 L640.769,121.769 L640.769,140.615 C640.769,142.043 641.337,143.413 642.346,144.423 C643.356,145.433 644.726,146 646.154,146 L683.846,146 C685.274,146 686.644,145.433 687.654,144.423 C688.663,143.413 689.231,142.043 689.231,140.615 L689.231,121.769 L694.615,121.769 C696.102,121.769 697.308,120.564 697.308,119.077 C697.308,117.59 696.102,116.385 694.615,116.385 Z M683.846,140.615 L646.154,140.615 L646.154,81.385 L683.846,81.385 L683.846,140.615 Z" />
        </g>
    </g>
</svg>