<?xml version="1.0" encoding="UTF-8"?>
<svg height="600" width="800" xmlns="http://www.w3.org/2000/svg" xmlns:xlink="http://www.w3.org/1999/xlink">
    <g id="Notes" font-family="'LucidaGrande', 'Lucida Grande', sans-serif" font-size="13">
        <rect fill="white" height="600.0" width="800.0" x="0.0" y="0.0" />
        <g font-size="13">
            <text x="18.0" y="176.0">Small</text>
            <text x="18.0" y="376.0">Medium</text>
            <text x="18.0" y="576.0">Large</text>
        </g>
        <g font-size="9">
            <text x="250.0" y="30.0">Ultralight</text>
            <text x="450.0" y="30.0">Regular</text>
            <text x="650.0" y="30.0">Black</text>
            <text id="template-version" fill="#505050" text-anchor="end" x="785.0" y="575.0">Template v.3.0</text>
            <a href="https://github.com/swhitty/SwiftDraw">
                <text fill="#505050" text-anchor="end" x="785.0" y="590.0">https://github.com/swhitty/SwiftDraw</text>
            </a>
        </g>
    </g>
    <g id="Guides" stroke="rgb(39, 170, 225)" stroke-width="0.5">
        <path id="Capline-S" d="M18,76 l800,0" />
        <path id="H-reference" d="M85,145.755 L87.685,145.755 L113.369,79.287 L114.052,79.287 L114.052,76 L112.148,76 L85,145.755 Z M95.693,121.536 L130.996,121.536 L130.263,119.313 L96.474,119.313 L95.693,121.536 Z M139.15,145.755 L141.787,145.755 L114.638,76 L113.466,76 L113.466,79.287 L139.15,145.755 Z" stroke="none" />
        <path id="Baseline-S" d="M18,146 l800,0" />
        <path id="left-margin-Ultralight-S" d="M220,56 l0,110" />
        <path id="right-margin-Ultralight-S" d="M310,56 l0,110" />
        <path id="left-margin-Regular-S" d="M420,56 l0,110" />
        <path id="right-margin-Regular-S" d="M510,56 l0,110" />
        <path id="left-margin-Black-S" d="M620,56 l0,110" />
        <path id="right-margin-Black-S" d="M710,56 l0,110" />
        <path id="Capline-M" d="M18,276 l800,0" />
        <path id="Baseline-M" d="M18,346 l800,0" />
        <path id="Capline-L" d="M18,476 l800,0" />
        <path id="Baseline-L" d="M18,546 l800,0" />
    </g>
    <g id="Symbols">
        <g id="Ultralight-S">
            <path d="M291.923,137.923 C291.923,138.637 291.639,139.322 291.135,139.827 C290.63,140.332 289.945,140.615 289.231,140.615 L265,140.615 C248.644,140.615 235.385,127.356 235.385,111 C235.385,94.644 248.644,81.385 265,81.385 L289.231,81.385 C290.718,81.385 291.923,82.59 291.923,84.077 C291.923,85.564 290.718,86.769 289.231,86.769 L265,86.769 C251.618,86.769 240.769,97.618 240.769,111 C240.769,124.382 251.618,135.231 265,135.231 L289.231,135.231 C289.945,135.231 290.63,135.514 291.135,136.019 C291.639,136.524 291.923,137.209 291.923,137.923 Z" />
        </g>
        <g id="Regular-S">
            <path d="M491.923,137.923 C491.923,138.637 491.639,139.322 491.135,139.827 C490.63,140.332 489.945,140.615 489.231,140.615 L465,140.615 C448.644,140.615 435.385,127.356 435.385,111 C435.385,94.644 448.644,81.385 465,81.385 L489.231,81.385 C490.718,81.385 491.923,82.59 491.923,84.077 C491.923,85.564 490.718,86.769 489.231,86.769 L465,86.769 C451.618,86.769 440.769,97.618 440.769,111 C440.769,124.382 451.618,135.231 465,135.231 L489.231,135.231 C489.945,135.231 490.63,135.514 491.135,136.019 C491.639,136.524 491.923,137.209 491.923,137.923 Z" />
        </g>
        <g id="Black-S">
            <path d="M691.923,137.923 C691.923,138.637 691.639,139.322 691.135,139.827 C690.63,140.332 689.945,140.615 689.231,140.615 L665,140.615 C648.644,140.615 635.385,127.356 635.385,111 C635.385,94.644 648.644,81.385 665,81.385 L689.231,81.385 C690.718,81.385 691.923,82.59 691.923,84.077 C691.923,85.564 690.718,86.769 689.231,86.769 L665,86.769 C651.618,86.769 640.769,97.618 640.769,111 C640.769,124.382 651.618,135.231 665,135.231 L689.231,135.231 C689.945,135.231 690.63,135.514 691.135,136.019 C691.639,136.524 691.923,137.209 691.923,137.923 Z" />
        </g>
    </g>
</svg>