<?xml version="1.0" encoding="UTF-8"?>
<svg height="600" width="800" xmlns="http://www.w3.org/2000/svg" xmlns:xlink="http://www.w3.org/1999/xlink">
    <g id="Notes" font-family="'LucidaGrande', 'Lucida Grande', sans-serif" font-size="13">
        <rect fill="white" height="600.0" width="800.0" x="0.0" y="0.0" />
        <g font-size="13">
            <text x="18.0" y="176.0">Small</text>
            <text x="18.0" y="376.0">Medium</text>
            <text x="18.0" y="576.0">Large</text>
        </g>
        <g font-size="9">
            <text x="250.0" y="30.0">Ultralight</text>
            <text x="450.0" y="30.0">Regular</text>
            <text x="650.0" y="30.0">Black</text>
            <text id="template-version" fill="#505050" text-anchor="end" x="785.0" y="575.0">Template v.3.0</text>
            <a href="https://github.com/swhitty/SwiftDraw">
                <text fill="#505050" text-anchor="end" x="785.0" y="590.0">https://github.com/swhitty/SwiftDraw</text>
            </a>
        </g>
    </g>
    <g id="Guides" stroke="rgb(39, 170, 225)" stroke-width="0.5">
        <path id="Capline-S" d="M18,76 l800,0" />
        <path id="H-reference" d="M85,145.755 L87.685,145.755 L113.369,79.287 L114.052,79.287 L114.052,76 L112.148,76 L85,145.755 Z M95.693,121.536 L130.996,121.536 L130.263,119.313 L96.474,119.313 L95.693,121.536 Z M139.15,145.755 L141.787,145.755 L114.638,76 L113.466,76 L113.466,79.287 L139.15,145.755 Z" stroke="none" />
        <path id="Baseline-S" d="M18,146 l800,0" />
        <path id="left-margin-Ultralight-S" d="M220,56 l0,110" />
        <path id="right-margin-Ultralight-S" d="M310,56 l0,110" />
        <path id="left-margin-Regular-S" d="M420,56 l0,110" />
        <path id="right-margin-Regular-S" d="M510,56 l0,110" />
        <path id="left-margin-Black-S" d="M620,56 l0,110" />
        <path id="right-margin-Black-S" d="M710,56 l0,110" />
        <path id="Capline-M" d="M18,276 l800,0" />
        <path id="Baseline-M" d="M18,346 l800,0" />
        <path id="Capline-L" d="M18,476 l800,0" />
        <path id="Baseline-L" d="M18,546 l800,0" />
    </g>
    <g id="Symbols">
        <g id="Ultralight-S">
            <path d="M300,92.154 L275.769,92.154 C271.532,92.154 267.542,94.149 265,97.538 C262.458,94.149 258.468,92.154 254.231,92.154 L230,92.154 C229.286,92.154 228.601,92.438 228.096,92.942 C227.591,93.447 227.308,94.132 227.308,94.846 L227.308,135.231 C227.308,135.945 227.591,136.63 228.096,137.135 C228.601,137.639 229.286,137.923 230,137.923 L254.231,137.923 C256.373,137.923 258.427,138.774 259.942,140.289 C261.457,141.803 262.308,143.858 262.308,146 C262.308,147.487 263.513,148.692 265,148.692 C266.487,148.692 267.692,147.487 267.692,146 C267.692,143.858 268.543,141.803 270.058,140.289 C271.573,138.774 273.627,137.923 275.769,137.923 L300,137.923 C300.714,137.923 301.399,137.639 301.904,137.135 C302.409,136.63 302.692,135.945 302.692,135.231 L302.692,94.846 C302.692,94.132 302.409,93.447 301.904,92.942 C301.399,92.438 300.714,92.154 300,92.154 Z M254.231,132.538 L232.692,132.538 L232.692,97.538 L254.231,97.538 C256.373,97.538 258.427,98.389 259.942,99.904 C261.457,101.419 262.308,103.473 262.308,105.615 L262.308,135.231 C259.98,133.479 257.144,132.534 254.231,132.538 Z M297.308,132.538 L275.769,132.538 C272.856,132.534 270.02,133.479 267.692,135.231 L267.692,105.615 C267.692,103.473 268.543,101.419 270.058,99.904 C271.573,98.389 273.627,97.538 275.769,97.538 L297.308,97.538 Z M252.077,82.458 C255.128,78.391 259.915,75.997 265,75.997 C270.085,75.997 274.872,78.391 277.923,82.458 C278.817,83.648 278.578,85.336 277.389,86.23 C276.2,87.123 274.512,86.884 273.618,85.695 C271.585,82.981 268.391,81.383 264.999,81.383 C261.608,81.383 258.414,82.981 256.381,85.695 C255.487,86.883 253.799,87.122 252.611,86.229 C251.422,85.335 251.183,83.647 252.077,82.458 Z" />
        </g>
        <g id="Regular-S">
            <path d="M500,92.154 L475.769,92.154 C471.532,92.154 467.542,94.149 465,97.538 C462.458,94.149 458.468,92.154 454.231,92.154 L430,92.154 C429.286,92.154 428.601,92.438 428.096,92.942 C427.591,93.447 427.308,94.132 427.308,94.846 L427.308,135.231 C427.308,135.945 427.591,136.63 428.096,137.135 C428.601,137.639 429.286,137.923 430,137.923 L454.231,137.923 C456.373,137.923 458.427,138.774 459.942,140.289 C461.457,141.803 462.308,143.858 462.308,146 C462.308,147.487 463.513,148.692 465,148.692 C466.487,148.692 467.692,147.487 467.692,146 C467.692,143.858 468.543,141.803 470.058,140.289 C471.573,138.774 473.627,137.923 475.769,137.923 L500,137.923 C500.714,137.923 501.399,137.639 501.904,137.135 C502.409,136.63 502.692,135.945 502.692,135.231 L502.692,94.846 C502.692,94.132 502.409,93.447 501.904,92.942 C501.399,92.438 500.714,92.154 500,92.154 Z M454.231,132.538 L432.692,132.538 L432.692,97.538 L454.231,97.538 C456.373,97.538 458.427,98.389 459.942,99.904 C461.457,101.419 462.308,103.473 462.308,105.615 L462.308,135.231 C459.98,133.479 457.144,132.534 454.231,132.538 Z M497.308,132.538 L475.769,132.538 C472.856,132.534 470.02,133.479 467.692,135.231 L467.692,105.615 C467.692,103.473 468.543,101.419 470.058,99.904 C471.573,98.389 473.627,97.538 475.769,97.538 L497.308,97.538 Z M452.077,82.458 C455.128,78.391 459.915,75.997 465,75.997 C470.085,75.997 474.872,78.391 477.923,82.458 C478.817,83.648 478.578,85.336 477.389,86.23 C476.2,87.123 474.512,86.884 473.618,85.695 C471.585,82.981 468.391,81.383 464.999,81.383 C461.608,81.383 458.414,82.981 456.381,85.695 C455.487,86.883 453.799,87.122 452.611,86.229 C451.422,85.335 451.183,83.647 452.077,82.458 Z" />
        </g>
        <g id="Black-S">
            <path d="M700,92.154 L675.769,92.154 C671.532,92.154 667.542,94.149 665,97.538 C662.458,94.149 658.468,92.154 654.231,92.154 L630,92.154 C629.286,92.154 628.601,92.438 628.096,92.942 C627.591,93.447 627.308,94.132 627.308,94.846 L627.308,135.231 C627.308,135.945 627.591,136.63 628.096,137.135 C628.601,137.639 629.286,137.923 630,137.923 L654.231,137.923 C656.373,137.923 658.427,138.774 659.942,140.289 C661.457,141.803 662.308,143.858 662.308,146 C662.308,147.487 663.513,148.692 665,148.692 C666.487,148.692 667.692,147.487 667.692,146 C667.692,143.858 668.543,141.803 670.058,140.289 C671.573,138.774 673.627,137.923 675.769,137.923 L700,137.923 C700.714,137.923 701.399,137.639 701.904,137.135 C702.409,136.63 702.692,135.945 702.692,135.231 L702.692,94.846 C702.692,94.132 702.409,93.447 701.904,92.942 C701.399,92.438 700.714,92.154 700,92.154 Z M654.231,132.538 L632.692,132.538 L632.692,97.538 L654.231,97.538 C656.373,97.538 658.427,98.389 659.942,99.904 C661.457,101.419 662.308,103.473 662.308,105.615 L662.308,135.231 C659.98,133.479 657.144,132.534 654.231,132.538 Z M697.308,132.538 L675.769,132.538 C672.856,132.534 670.02,133.479 667.692,135.231 L667.692,105.615 C667.692,103.473 668.543,101.419 670.058,99.904 C671.573,98.389 673.627,97.538 675.769,97.538 L697.308,97.538 Z M652.077,82.458 C655.128,78.391 659.915,75.997 665,75.997 C670.085,75.997 674.872,78.391 677.923,82.458 C678.817,83.648 678.578,85.336 677.389,86.23 C676.2,87.123 674.512,86.884 673.618,85.695 C671.585,82.981 668.391,81.383 665,81.383 C661.608,81.383 658.414,82.981 656.381,85.695 C655.487,86.883 653.799,87.122 652.611,86.229 C651.422,85.335 651.183,83.647 652.077,82.458 Z" />
        </g>
    </g>
</svg>