<?xml version="1.0" encoding="UTF-8"?>
<svg height="600" width="800" xmlns="http://www.w3.org/2000/svg" xmlns:xlink="http://www.w3.org/1999/xlink">
    <g id="Notes" font-family="'LucidaGrande', 'Lucida Grande', sans-serif" font-size="13">
        <rect fill="white" height="600.0" width="800.0" x="0.0" y="0.0" />
        <g font-size="13">
            <text x="18.0" y="176.0">Small</text>
            <text x="18.0" y="376.0">Medium</text>
            <text x="18.0" y="576.0">Large</text>
        </g>
        <g font-size="9">
            <text x="250.0" y="30.0">Ultralight</text>
            <text x="450.0" y="30.0">Regular</text>
            <text x="650.0" y="30.0">Black</text>
            <text id="template-version" fill="#505050" text-anchor="end" x="785.0" y="575.0">Template v.3.0</text>
            <a href="https://github.com/swhitty/SwiftDraw">
                <text fill="#505050" text-anchor="end" x="785.0" y="590.0">https://github.com/swhitty/SwiftDraw</text>
            </a>
        </g>
    </g>
    <g id="Guides" stroke="rgb(39, 170, 225)" stroke-width="0.5">
        <path id="Capline-S" d="M18,76 l800,0" />
        <path id="H-reference" d="M85,145.755 L87.685,145.755 L113.369,79.287 L114.052,79.287 L114.052,76 L112.148,76 L85,145.755 Z M95.693,121.536 L130.996,121.536 L130.263,119.313 L96.474,119.313 L95.693,121.536 Z M139.15,145.755 L141.787,145.755 L114.638,76 L113.466,76 L113.466,79.287 L139.15,145.755 Z" stroke="none" />
        <path id="Baseline-S" d="M18,146 l800,0" />
        <path id="left-margin-Ultralight-S" d="M220,56 l0,110" />
        <path id="right-margin-Ultralight-S" d="M310,56 l0,110" />
        <path id="left-margin-Regular-S" d="M420,56 l0,110" />
        <path id="right-margin-Regular-S" d="M510,56 l0,110" />
        <path id="left-margin-Black-S" d="M620,56 l0,110" />
        <path id="right-margin-Black-S" d="M710,56 l0,110" />
        <path id="Capline-M" d="M18,276 l800,0" />
        <path id="Baseline-M" d="M18,346 l800,0" />
        <path id="Capline-L" d="M18,476 l800,0" />
        <path id="Baseline-L" d="M18,546 l800,0" />
    </g>
    <g id="Symbols">
        <g id="Ultralight-S">
            <path d="M275.769,94.846 C275.769,94.132 276.053,93.447 276.558,92.942 C277.063,92.438 277.747,92.154 278.462,92.154 L302.692,92.154 C304.179,92.154 305.385,93.359 305.385,94.846 C305.385,96.333 304.179,97.538 302.692,97.538 L278.462,97.538 C277.747,97.538 277.063,97.255 276.558,96.75 C276.053,96.245 275.769,95.56 275.769,94.846 Z M302.692,124.462 L278.462,124.462 C276.975,124.462 275.769,125.667 275.769,127.154 C275.769,128.641 276.975,129.846 278.462,129.846 L302.692,129.846 C304.179,129.846 305.385,128.641 305.385,127.154 C305.385,125.667 304.179,124.462 302.692,124.462 Z M302.692,102.923 L278.462,102.923 C276.975,102.923 275.769,104.128 275.769,105.615 C275.769,107.102 276.975,108.308 278.462,108.308 L302.692,108.308 C304.179,108.308 305.385,107.102 305.385,105.615 C305.385,104.128 304.179,102.923 302.692,102.923 Z M302.692,113.692 L278.462,113.692 C276.975,113.692 275.769,114.898 275.769,116.385 C275.769,117.872 276.975,119.077 278.462,119.077 L302.692,119.077 C304.179,119.077 305.385,117.872 305.385,116.385 C305.385,114.898 304.179,113.692 302.692,113.692 Z M270.385,89.462 L270.385,132.538 C270.385,133.967 269.817,135.336 268.807,136.346 C267.798,137.356 266.428,137.923 265,137.923 L251.538,137.923 C244.362,137.923 237.483,135.059 232.428,129.965 C227.373,124.872 224.561,117.971 224.615,110.795 C224.726,96.064 236.939,84.077 251.841,84.077 L265,84.077 C266.428,84.077 267.798,84.644 268.807,85.654 C269.817,86.664 270.385,88.033 270.385,89.462 Z M265,89.462 L251.841,89.462 C239.888,89.462 230.088,99.05 230,110.835 C229.956,116.576 232.206,122.097 236.25,126.172 C240.294,130.247 245.797,132.539 251.538,132.538 L265,132.538 Z" />
        </g>
        <g id="Regular-S">
            <path d="M475.769,94.846 C475.769,94.132 476.053,93.447 476.558,92.942 C477.063,92.438 477.747,92.154 478.462,92.154 L502.692,92.154 C504.179,92.154 505.385,93.359 505.385,94.846 C505.385,96.333 504.179,97.538 502.692,97.538 L478.462,97.538 C477.747,97.538 477.063,97.255 476.558,96.75 C476.053,96.245 475.769,95.56 475.769,94.846 Z M502.692,124.462 L478.462,124.462 C476.975,124.462 475.769,125.667 475.769,127.154 C475.769,128.641 476.975,129.846 478.462,129.846 L502.692,129.846 C504.179,129.846 505.385,128.641 505.385,127.154 C505.385,125.667 504.179,124.462 502.692,124.462 Z M502.692,102.923 L478.462,102.923 C476.975,102.923 475.769,104.128 475.769,105.615 C475.769,107.102 476.975,108.308 478.462,108.308 L502.692,108.308 C504.179,108.308 505.385,107.102 505.385,105.615 C505.385,104.128 504.179,102.923 502.692,102.923 Z M502.692,113.692 L478.462,113.692 C476.975,113.692 475.769,114.898 475.769,116.385 C475.769,117.872 476.975,119.077 478.462,119.077 L502.692,119.077 C504.179,119.077 505.385,117.872 505.385,116.385 C505.385,114.898 504.179,113.692 502.692,113.692 Z M470.385,89.462 L470.385,132.538 C470.385,133.967 469.817,135.336 468.807,136.346 C467.798,137.356 466.428,137.923 465,137.923 L451.538,137.923 C444.362,137.923 437.483,135.059 432.428,129.965 C427.373,124.872 424.561,117.971 424.615,110.795 C424.726,96.064 436.939,84.077 451.841,84.077 L465,84.077 C466.428,84.077 467.798,84.644 468.807,85.654 C469.817,86.664 470.385,88.033 470.385,89.462 Z M465,89.462 L451.841,89.462 C439.887,89.462 430.087,99.05 430,110.835 C429.956,116.576 432.206,122.097 436.25,126.172 C440.294,130.247 445.797,132.539 451.538,132.538 L465,132.538 Z" />
        </g>
        <g id="Black-S">
            <path d="M675.769,94.846 C675.769,94.132 676.053,93.447 676.558,92.942 C677.063,92.438 677.747,92.154 678.462,92.154 L702.692,92.154 C704.179,92.154 705.385,93.359 705.385,94.846 C705.385,96.333 704.179,97.538 702.692,97.538 L678.462,97.538 C677.747,97.538 677.063,97.255 676.558,96.75 C676.053,96.245 675.769,95.56 675.769,94.846 Z M702.692,124.462 L678.462,124.462 C676.975,124.462 675.769,125.667 675.769,127.154 C675.769,128.641 676.975,129.846 678.462,129.846 L702.692,129.846 C704.179,129.846 705.385,128.641 705.385,127.154 C705.385,125.667 704.179,124.462 702.692,124.462 Z M702.692,102.923 L678.462,102.923 C676.975,102.923 675.769,104.128 675.769,105.615 C675.769,107.102 676.975,108.308 678.462,108.308 L702.692,108.308 C704.179,108.308 705.385,107.102 705.385,105.615 C705.385,104.128 704.179,102.923 702.692,102.923 Z M702.692,113.692 L678.462,113.692 C676.975,113.692 675.769,114.898 675.769,116.385 C675.769,117.872 676.975,119.077 678.462,119.077 L702.692,119.077 C704.179,119.077 705.385,117.872 705.385,116.385 C705.385,114.898 704.179,113.692 702.692,113.692 Z M670.385,89.462 L670.385,132.538 C670.385,133.967 669.817,135.336 668.807,136.346 C667.798,137.356 666.428,137.923 665,137.923 L651.538,137.923 C644.362,137.923 637.483,135.059 632.428,129.965 C627.373,124.872 624.561,117.971 624.615,110.795 C624.726,96.064 636.939,84.077 651.841,84.077 L665,84.077 C666.428,84.077 667.798,84.644 668.807,85.654 C669.817,86.664 670.385,88.033 670.385,89.462 Z M665,89.462 L651.841,89.462 C639.888,89.462 630.088,99.05 630,110.835 C629.956,116.576 632.206,122.097 636.25,126.172 C640.294,130.247 645.797,132.539 651.538,132.538 L665,132.538 Z" />
        </g>
    </g>
</svg>