<?xml version="1.0" encoding="UTF-8"?>
<svg height="600" width="800" xmlns="http://www.w3.org/2000/svg" xmlns:xlink="http://www.w3.org/1999/xlink">
    <g id="Notes" font-family="'LucidaGrande', 'Lucida Grande', sans-serif" font-size="13">
        <rect fill="white" height="600.0" width="800.0" x="0.0" y="0.0" />
        <g font-size="13">
            <text x="18.0" y="176.0">Small</text>
            <text x="18.0" y="376.0">Medium</text>
            <text x="18.0" y="576.0">Large</text>
        </g>
        <g font-size="9">
            <text x="250.0" y="30.0">Ultralight</text>
            <text x="450.0" y="30.0">Regular</text>
            <text x="650.0" y="30.0">Black</text>
            <text id="template-version" fill="#505050" text-anchor="end" x="785.0" y="575.0">Template v.3.0</text>
            <a href="https://github.com/swhitty/SwiftDraw">
                <text fill="#505050" text-anchor="end" x="785.0" y="590.0">https://github.com/swhitty/SwiftDraw</text>
            </a>
        </g>
    </g>
    <g id="Guides" stroke="rgb(39, 170, 225)" stroke-width="0.5">
        <path id="Capline-S" d="M18,76 l800,0" />
        <path id="H-reference" d="M85,145.755 L87.685,145.755 L113.369,79.287 L114.052,79.287 L114.052,76 L112.148,76 L85,145.755 Z M95.693,121.536 L130.996,121.536 L130.263,119.313 L96.474,119.313 L95.693,121.536 Z M139.15,145.755 L141.787,145.755 L114.638,76 L113.466,76 L113.466,79.287 L139.15,145.755 Z" stroke="none" />
        <path id="Baseline-S" d="M18,146 l800,0" />
        <path id="left-margin-Ultralight-S" d="M220,56 l0,110" />
        <path id="right-margin-Ultralight-S" d="M310,56 l0,110" />
        <path id="left-margin-Regular-S" d="M420,56 l0,110" />
        <path id="right-margin-Regular-S" d="M510,56 l0,110" />
        <path id="left-margin-Black-S" d="M620,56 l0,110" />
        <path id="right-margin-Black-S" d="M710,56 l0,110" />
        <path id="Capline-M" d="M18,276 l800,0" />
        <path id="Baseline-M" d="M18,346 l800,0" />
        <path id="Capline-L" d="M18,476 l800,0" />
        <path id="Baseline-L" d="M18,546 l800,0" />
    </g>
    <g id="Symbols">
        <g id="Ultralight-S">
            <path d="M280.693,95.307 C278.21,81.938 266.148,72.518 252.576,73.349 C239.003,74.181 228.181,85.003 227.349,98.576 C226.518,112.148 235.938,124.21 249.307,126.693 C251.79,140.062 263.852,149.482 277.424,148.651 C290.997,147.819 301.819,136.997 302.651,123.424 C303.482,109.852 294.062,97.79 280.693,95.307 Z M255.809,113.692 L262.308,120.191 C259.743,121.235 257,121.772 254.231,121.769 C254.228,119 254.764,116.257 255.809,113.692 Z M267.167,117.438 L258.562,108.833 C259.78,107.218 261.218,105.78 262.833,104.562 L271.438,113.167 C270.22,114.783 268.782,116.22 267.167,117.438 Z M274.191,108.308 L267.692,101.809 C270.257,100.765 273,100.228 275.769,100.231 C275.772,102.998 275.236,105.742 274.191,108.306 Z M232.692,100.231 C232.671,89.368 240.742,80.19 251.518,78.821 C262.294,77.453 272.402,84.323 275.096,94.846 C260.761,95.223 249.231,106.76 248.863,121.096 C239.35,118.635 232.702,110.057 232.692,100.231 Z M275.769,143.308 C265.948,143.3 257.372,136.66 254.904,127.154 C269.246,126.786 280.786,115.246 281.154,100.904 C291.677,103.598 298.547,113.707 297.179,124.483 C295.81,135.258 286.632,143.329 275.769,143.308 Z" />
        </g>
        <g id="Regular-S">
            <path d="M480.693,95.307 C478.21,81.938 466.148,72.518 452.576,73.349 C439.003,74.181 428.181,85.003 427.349,98.576 C426.518,112.148 435.938,124.21 449.307,126.693 C451.79,140.062 463.852,149.482 477.424,148.651 C490.997,147.819 501.819,136.997 502.651,123.424 C503.482,109.852 494.062,97.79 480.693,95.307 Z M455.809,113.692 L462.308,120.191 C459.743,121.235 457,121.772 454.231,121.769 C454.228,119 454.764,116.257 455.809,113.692 Z M467.167,117.438 L458.562,108.833 C459.78,107.218 461.217,105.78 462.833,104.562 L471.438,113.167 C470.22,114.783 468.782,116.22 467.167,117.438 Z M474.191,108.308 L467.692,101.809 C470.257,100.765 473,100.228 475.769,100.231 C475.772,102.998 475.236,105.742 474.191,108.306 Z M432.692,100.231 C432.671,89.368 440.742,80.19 451.518,78.821 C462.294,77.453 472.402,84.323 475.096,94.846 C460.761,95.223 449.231,106.76 448.863,121.096 C439.35,118.635 432.702,110.057 432.692,100.231 Z M475.769,143.308 C465.948,143.3 457.372,136.66 454.904,127.154 C469.246,126.786 480.786,115.246 481.154,100.904 C491.677,103.598 498.547,113.707 497.178,124.483 C495.81,135.258 486.632,143.329 475.769,143.308 Z" />
        </g>
        <g id="Black-S">
            <path d="M680.693,95.307 C678.21,81.938 666.148,72.518 652.576,73.349 C639.003,74.181 628.181,85.003 627.349,98.576 C626.518,112.148 635.938,124.21 649.307,126.693 C651.79,140.062 663.852,149.482 677.424,148.651 C690.997,147.819 701.819,136.997 702.651,123.424 C703.482,109.852 694.062,97.79 680.693,95.307 Z M655.809,113.692 L662.308,120.191 C659.743,121.235 657,121.772 654.231,121.769 C654.228,119 654.764,116.257 655.809,113.692 Z M667.167,117.438 L658.562,108.833 C659.78,107.218 661.218,105.78 662.833,104.562 L671.438,113.167 C670.22,114.783 668.782,116.22 667.167,117.438 Z M674.191,108.308 L667.692,101.809 C670.257,100.765 673,100.228 675.769,100.231 C675.772,102.998 675.236,105.742 674.191,108.306 Z M632.692,100.231 C632.671,89.368 640.742,80.19 651.518,78.821 C662.294,77.453 672.402,84.323 675.096,94.846 C660.761,95.223 649.231,106.76 648.863,121.096 C639.35,118.635 632.702,110.057 632.692,100.231 Z M675.769,143.308 C665.948,143.3 657.372,136.66 654.904,127.154 C669.246,126.786 680.786,115.246 681.154,100.904 C691.677,103.598 698.547,113.707 697.179,124.483 C695.81,135.258 686.632,143.329 675.769,143.308 Z" />
        </g>
    </g>
</svg>