<?xml version="1.0" encoding="UTF-8"?>
<svg height="600" width="800" xmlns="http://www.w3.org/2000/svg" xmlns:xlink="http://www.w3.org/1999/xlink">
    <g id="Notes" font-family="'LucidaGrande', 'Lucida Grande', sans-serif" font-size="13">
        <rect fill="white" height="600.0" width="800.0" x="0.0" y="0.0" />
        <g font-size="13">
            <text x="18.0" y="176.0">Small</text>
            <text x="18.0" y="376.0">Medium</text>
            <text x="18.0" y="576.0">Large</text>
        </g>
        <g font-size="9">
            <text x="250.0" y="30.0">Ultralight</text>
            <text x="450.0" y="30.0">Regular</text>
            <text x="650.0" y="30.0">Black</text>
            <text id="template-version" fill="#505050" text-anchor="end" x="785.0" y="575.0">Template v.3.0</text>
            <a href="https://github.com/swhitty/SwiftDraw">
                <text fill="#505050" text-anchor="end" x="785.0" y="590.0">https://github.com/swhitty/SwiftDraw</text>
            </a>
        </g>
    </g>
    <g id="Guides" stroke="rgb(39, 170, 225)" stroke-width="0.5">
        <path id="Capline-S" d="M18,76 l800,0" />
        <path id="H-reference" d="M85,145.755 L87.685,145.755 L113.369,79.287 L114.052,79.287 L114.052,76 L112.148,76 L85,145.755 Z M95.693,121.536 L130.996,121.536 L130.263,119.313 L96.474,119.313 L95.693,121.536 Z M139.15,145.755 L141.787,145.755 L114.638,76 L113.466,76 L113.466,79.287 L139.15,145.755 Z" stroke="none" />
        <path id="Baseline-S" d="M18,146 l800,0" />
        <path id="left-margin-Ultralight-S" d="M220,56 l0,110" />
        <path id="right-margin-Ultralight-S" d="M310,56 l0,110" />
        <path id="left-margin-Regular-S" d="M420,56 l0,110" />
        <path id="right-margin-Regular-S" d="M510,56 l0,110" />
        <path id="left-margin-Black-S" d="M620,56 l0,110" />
        <path id="right-margin-Black-S" d="M710,56 l0,110" />
        <path id="Capline-M" d="M18,276 l800,0" />
        <path id="Baseline-M" d="M18,346 l800,0" />
        <path id="Capline-L" d="M18,476 l800,0" />
        <path id="Baseline-L" d="M18,546 l800,0" />
    </g>
    <g id="Symbols">
        <g id="Ultralight-S">
            <path d="M305.385,111 C305.385,111.714 305.101,112.399 304.596,112.904 C304.091,113.409 303.406,113.692 302.692,113.692 L297.082,113.692 C295.758,121.459 289.033,127.143 281.154,127.154 L267.692,127.154 L267.692,135.231 L275.769,135.231 C278.625,135.231 281.365,136.365 283.384,138.385 C285.404,140.405 286.538,143.144 286.538,146 C286.538,147.487 285.333,148.692 283.846,148.692 C282.359,148.692 281.154,147.487 281.154,146 C281.154,144.572 280.587,143.202 279.577,142.193 C278.567,141.183 277.197,140.615 275.769,140.615 L267.692,140.615 L267.692,146 C267.692,147.487 266.487,148.692 265,148.692 C263.513,148.692 262.308,147.487 262.308,146 L262.308,140.615 L254.231,140.615 C252.803,140.615 251.433,141.183 250.423,142.193 C249.413,143.202 248.846,144.572 248.846,146 C248.846,147.487 247.641,148.692 246.154,148.692 C244.667,148.692 243.462,147.487 243.462,146 C243.462,143.144 244.596,140.405 246.616,138.385 C248.635,136.365 251.375,135.231 254.231,135.231 L262.308,135.231 L262.308,127.154 L248.846,127.154 C240.967,127.143 234.242,121.459 232.918,113.692 L227.308,113.692 C225.821,113.692 224.615,112.487 224.615,111 C224.615,109.513 225.821,108.308 227.308,108.308 L235.385,108.308 C236.099,108.308 236.783,108.591 237.288,109.096 C237.793,109.601 238.077,110.286 238.077,111 C238.077,113.856 239.212,116.595 241.231,118.615 C243.251,120.635 245.99,121.769 248.846,121.769 L281.154,121.769 C284.01,121.769 286.749,120.635 288.769,118.615 C290.788,116.595 291.923,113.856 291.923,111 C291.923,110.286 292.207,109.601 292.712,109.096 C293.217,108.591 293.901,108.308 294.615,108.308 L302.692,108.308 C303.406,108.308 304.091,108.591 304.596,109.096 C305.101,109.601 305.385,110.286 305.385,111 Z M244.777,114.527 C243.755,113.348 243.295,111.784 243.515,110.239 L248.133,77.932 C248.522,75.284 250.788,73.319 253.463,73.308 L276.537,73.308 C279.212,73.319 281.478,75.284 281.867,77.932 L286.485,110.239 C286.705,111.785 286.244,113.349 285.221,114.528 C284.199,115.707 282.715,116.385 281.154,116.385 L248.846,116.385 C247.285,116.385 245.8,115.707 244.777,114.527 Z M248.846,111 L281.154,111 L276.537,78.692 L253.46,78.692 Z" />
        </g>
        <g id="Regular-S">
            <path d="M505.385,111 C505.385,111.714 505.101,112.399 504.596,112.904 C504.091,113.409 503.406,113.692 502.692,113.692 L497.082,113.692 C495.758,121.459 489.033,127.143 481.154,127.154 L467.692,127.154 L467.692,135.231 L475.769,135.231 C478.625,135.231 481.365,136.365 483.384,138.385 C485.404,140.405 486.538,143.144 486.538,146 C486.538,147.487 485.333,148.692 483.846,148.692 C482.359,148.692 481.154,147.487 481.154,146 C481.154,144.572 480.587,143.202 479.577,142.193 C478.567,141.183 477.197,140.615 475.769,140.615 L467.692,140.615 L467.692,146 C467.692,147.487 466.487,148.692 465,148.692 C463.513,148.692 462.308,147.487 462.308,146 L462.308,140.615 L454.231,140.615 C452.803,140.615 451.433,141.183 450.423,142.193 C449.413,143.202 448.846,144.572 448.846,146 C448.846,147.487 447.641,148.692 446.154,148.692 C444.667,148.692 443.462,147.487 443.462,146 C443.462,143.144 444.596,140.405 446.616,138.385 C448.635,136.365 451.375,135.231 454.231,135.231 L462.308,135.231 L462.308,127.154 L448.846,127.154 C440.967,127.143 434.242,121.459 432.918,113.692 L427.308,113.692 C425.821,113.692 424.615,112.487 424.615,111 C424.615,109.513 425.821,108.308 427.308,108.308 L435.385,108.308 C436.099,108.308 436.783,108.591 437.288,109.096 C437.793,109.601 438.077,110.286 438.077,111 C438.077,113.856 439.212,116.595 441.231,118.615 C443.251,120.635 445.99,121.769 448.846,121.769 L481.154,121.769 C484.01,121.769 486.749,120.635 488.769,118.615 C490.788,116.595 491.923,113.856 491.923,111 C491.923,110.286 492.207,109.601 492.712,109.096 C493.217,108.591 493.901,108.308 494.615,108.308 L502.692,108.308 C503.406,108.308 504.091,108.591 504.596,109.096 C505.101,109.601 505.385,110.286 505.385,111 Z M444.777,114.527 C443.755,113.348 443.295,111.784 443.515,110.239 L448.133,77.932 C448.522,75.284 450.788,73.319 453.463,73.308 L476.537,73.308 C479.212,73.319 481.478,75.284 481.867,77.932 L486.485,110.239 C486.705,111.785 486.244,113.349 485.221,114.528 C484.199,115.707 482.715,116.385 481.154,116.385 L448.846,116.385 C447.285,116.385 445.8,115.707 444.777,114.527 Z M448.846,111 L481.154,111 L476.537,78.692 L453.46,78.692 Z" />
        </g>
        <g id="Black-S">
            <path d="M705.385,111 C705.385,111.714 705.101,112.399 704.596,112.904 C704.091,113.409 703.406,113.692 702.692,113.692 L697.082,113.692 C695.758,121.459 689.033,127.143 681.154,127.154 L667.692,127.154 L667.692,135.231 L675.769,135.231 C678.625,135.231 681.365,136.365 683.384,138.385 C685.404,140.405 686.538,143.144 686.538,146 C686.538,147.487 685.333,148.692 683.846,148.692 C682.359,148.692 681.154,147.487 681.154,146 C681.154,144.572 680.587,143.202 679.577,142.193 C678.567,141.183 677.197,140.615 675.769,140.615 L667.692,140.615 L667.692,146 C667.692,147.487 666.487,148.692 665,148.692 C663.513,148.692 662.308,147.487 662.308,146 L662.308,140.615 L654.231,140.615 C652.803,140.615 651.433,141.183 650.423,142.193 C649.413,143.202 648.846,144.572 648.846,146 C648.846,147.487 647.641,148.692 646.154,148.692 C644.667,148.692 643.462,147.487 643.462,146 C643.462,143.144 644.596,140.405 646.616,138.385 C648.635,136.365 651.375,135.231 654.231,135.231 L662.308,135.231 L662.308,127.154 L648.846,127.154 C640.967,127.143 634.242,121.459 632.918,113.692 L627.308,113.692 C625.821,113.692 624.615,112.487 624.615,111 C624.615,109.513 625.821,108.308 627.308,108.308 L635.385,108.308 C636.099,108.308 636.783,108.591 637.288,109.096 C637.793,109.601 638.077,110.286 638.077,111 C638.077,113.856 639.212,116.595 641.231,118.615 C643.251,120.635 645.99,121.769 648.846,121.769 L681.154,121.769 C684.01,121.769 686.749,120.635 688.769,118.615 C690.788,116.595 691.923,113.856 691.923,111 C691.923,110.286 692.207,109.601 692.712,109.096 C693.217,108.591 693.901,108.308 694.615,108.308 L702.692,108.308 C703.406,108.308 704.091,108.591 704.596,109.096 C705.101,109.601 705.385,110.286 705.385,111 Z M644.777,114.527 C643.755,113.348 643.295,111.784 643.515,110.239 L648.133,77.932 C648.522,75.284 650.788,73.319 653.464,73.308 L676.537,73.308 C679.212,73.319 681.478,75.284 681.867,77.932 L686.485,110.239 C686.705,111.785 686.244,113.349 685.221,114.528 C684.199,115.707 682.715,116.385 681.154,116.385 L648.846,116.385 C647.285,116.385 645.8,115.707 644.777,114.527 Z M648.846,111 L681.154,111 L676.537,78.692 L653.46,78.692 Z" />
        </g>
    </g>
</svg>