<?xml version="1.0" encoding="UTF-8"?>
<svg height="600" width="800" xmlns="http://www.w3.org/2000/svg" xmlns:xlink="http://www.w3.org/1999/xlink">
    <g id="Notes" font-family="'LucidaGrande', 'Lucida Grande', sans-serif" font-size="13">
        <rect fill="white" height="600.0" width="800.0" x="0.0" y="0.0" />
        <g font-size="13">
            <text x="18.0" y="176.0">Small</text>
            <text x="18.0" y="376.0">Medium</text>
            <text x="18.0" y="576.0">Large</text>
        </g>
        <g font-size="9">
            <text x="250.0" y="30.0">Ultralight</text>
            <text x="450.0" y="30.0">Regular</text>
            <text x="650.0" y="30.0">Black</text>
            <text id="template-version" fill="#505050" text-anchor="end" x="785.0" y="575.0">Template v.3.0</text>
            <a href="https://github.com/swhitty/SwiftDraw">
                <text fill="#505050" text-anchor="end" x="785.0" y="590.0">https://github.com/swhitty/SwiftDraw</text>
            </a>
        </g>
    </g>
    <g id="Guides" stroke="rgb(39, 170, 225)" stroke-width="0.5">
        <path id="Capline-S" d="M18,76 l800,0" />
        <path id="H-reference" d="M85,145.755 L87.685,145.755 L113.369,79.287 L114.052,79.287 L114.052,76 L112.148,76 L85,145.755 Z M95.693,121.536 L130.996,121.536 L130.263,119.313 L96.474,119.313 L95.693,121.536 Z M139.15,145.755 L141.787,145.755 L114.638,76 L113.466,76 L113.466,79.287 L139.15,145.755 Z" stroke="none" />
        <path id="Baseline-S" d="M18,146 l800,0" />
        <path id="left-margin-Ultralight-S" d="M220,56 l0,110" />
        <path id="right-margin-Ultralight-S" d="M310,56 l0,110" />
        <path id="left-margin-Regular-S" d="M420,56 l0,110" />
        <path id="right-margin-Regular-S" d="M510,56 l0,110" />
        <path id="left-margin-Black-S" d="M620,56 l0,110" />
        <path id="right-margin-Black-S" d="M710,56 l0,110" />
        <path id="Capline-M" d="M18,276 l800,0" />
        <path id="Baseline-M" d="M18,346 l800,0" />
        <path id="Capline-L" d="M18,476 l800,0" />
        <path id="Baseline-L" d="M18,546 l800,0" />
    </g>
    <g id="Symbols">
        <g id="Ultralight-S">
            <path d="M249.92,126.615 C250.491,127.045 251.21,127.229 251.918,127.128 C252.625,127.027 253.264,126.649 253.692,126.077 C256.997,121.67 262.184,119.077 267.692,119.077 C273.201,119.077 278.387,121.67 281.692,126.077 C282.584,127.266 284.272,127.508 285.462,126.615 C286.651,125.723 286.892,124.036 286,122.846 C283.616,119.65 280.437,117.133 276.779,115.547 C280.882,111.8 282.262,105.918 280.253,100.738 C278.244,95.557 273.259,92.144 267.702,92.144 C262.146,92.144 257.161,95.557 255.152,100.738 C253.143,105.918 254.523,111.8 258.626,115.547 C254.961,117.13 251.774,119.647 249.385,122.846 C248.492,124.035 248.731,125.722 249.92,126.615 Z M259.615,105.615 C259.615,101.155 263.232,97.538 267.692,97.538 C272.153,97.538 275.769,101.155 275.769,105.615 C275.769,110.076 272.153,113.692 267.692,113.692 C265.55,113.692 263.496,112.841 261.981,111.327 C260.466,109.812 259.615,107.758 259.615,105.615 Z M291.923,76 L243.462,76 C242.033,76 240.664,76.567 239.654,77.577 C238.644,78.587 238.077,79.957 238.077,81.385 L238.077,89.462 L232.692,89.462 C231.205,89.462 230,90.667 230,92.154 C230,93.641 231.205,94.846 232.692,94.846 L238.077,94.846 L238.077,108.308 L232.692,108.308 C231.205,108.308 230,109.513 230,111 C230,112.487 231.205,113.692 232.692,113.692 L238.077,113.692 L238.077,127.154 L232.692,127.154 C231.205,127.154 230,128.359 230,129.846 C230,131.333 231.205,132.538 232.692,132.538 L238.077,132.538 L238.077,140.615 C238.077,142.043 238.644,143.413 239.654,144.423 C240.664,145.433 242.033,146 243.462,146 L291.923,146 C293.351,146 294.721,145.433 295.731,144.423 C296.74,143.413 297.308,142.043 297.308,140.615 L297.308,81.385 C297.308,79.957 296.74,78.587 295.731,77.577 C294.721,76.567 293.351,76 291.923,76 Z M291.923,140.615 L243.462,140.615 L243.462,81.385 L291.923,81.385 Z" />
        </g>
        <g id="Regular-S">
            <path d="M449.92,126.615 C450.491,127.045 451.21,127.229 451.918,127.128 C452.625,127.027 453.264,126.649 453.692,126.077 C456.997,121.67 462.184,119.077 467.692,119.077 C473.201,119.077 478.387,121.67 481.692,126.077 C482.584,127.266 484.272,127.508 485.462,126.615 C486.651,125.723 486.892,124.036 486,122.846 C483.616,119.65 480.437,117.133 476.779,115.547 C480.882,111.8 482.262,105.918 480.253,100.738 C478.244,95.557 473.259,92.144 467.702,92.144 C462.146,92.144 457.161,95.557 455.152,100.738 C453.143,105.918 454.523,111.8 458.626,115.547 C454.96,117.13 451.774,119.647 449.385,122.846 C448.492,124.035 448.731,125.722 449.92,126.615 Z M459.615,105.615 C459.615,101.155 463.232,97.538 467.692,97.538 C472.153,97.538 475.769,101.155 475.769,105.615 C475.769,110.076 472.153,113.692 467.692,113.692 C465.55,113.692 463.496,112.841 461.981,111.327 C460.466,109.812 459.615,107.758 459.615,105.615 Z M491.923,76 L443.462,76 C442.033,76 440.664,76.567 439.654,77.577 C438.644,78.587 438.077,79.957 438.077,81.385 L438.077,89.462 L432.692,89.462 C431.205,89.462 430,90.667 430,92.154 C430,93.641 431.205,94.846 432.692,94.846 L438.077,94.846 L438.077,108.308 L432.692,108.308 C431.205,108.308 430,109.513 430,111 C430,112.487 431.205,113.692 432.692,113.692 L438.077,113.692 L438.077,127.154 L432.692,127.154 C431.205,127.154 430,128.359 430,129.846 C430,131.333 431.205,132.538 432.692,132.538 L438.077,132.538 L438.077,140.615 C438.077,142.043 438.644,143.413 439.654,144.423 C440.664,145.433 442.033,146 443.462,146 L491.923,146 C493.351,146 494.721,145.433 495.731,144.423 C496.74,143.413 497.308,142.043 497.308,140.615 L497.308,81.385 C497.308,79.957 496.74,78.587 495.731,77.577 C494.721,76.567 493.351,76 491.923,76 Z M491.923,140.615 L443.462,140.615 L443.462,81.385 L491.923,81.385 Z" />
        </g>
        <g id="Black-S">
            <path d="M649.92,126.615 C650.491,127.045 651.21,127.229 651.918,127.128 C652.625,127.027 653.264,126.649 653.692,126.077 C656.997,121.67 662.184,119.077 667.692,119.077 C673.201,119.077 678.387,121.67 681.692,126.077 C682.584,127.266 684.272,127.508 685.462,126.615 C686.651,125.723 686.892,124.036 686,122.846 C683.616,119.65 680.437,117.133 676.779,115.547 C680.882,111.8 682.262,105.918 680.253,100.738 C678.244,95.557 673.259,92.144 667.702,92.144 C662.146,92.144 657.161,95.557 655.152,100.738 C653.143,105.918 654.523,111.8 658.626,115.547 C654.961,117.13 651.774,119.647 649.385,122.846 C648.492,124.035 648.731,125.722 649.92,126.615 Z M659.615,105.615 C659.615,101.155 663.232,97.538 667.692,97.538 C672.153,97.538 675.769,101.155 675.769,105.615 C675.769,110.076 672.153,113.692 667.692,113.692 C665.55,113.692 663.496,112.841 661.981,111.327 C660.466,109.812 659.615,107.758 659.615,105.615 Z M691.923,76 L643.462,76 C642.033,76 640.664,76.567 639.654,77.577 C638.644,78.587 638.077,79.957 638.077,81.385 L638.077,89.462 L632.692,89.462 C631.205,89.462 630,90.667 630,92.154 C630,93.641 631.205,94.846 632.692,94.846 L638.077,94.846 L638.077,108.308 L632.692,108.308 C631.205,108.308 630,109.513 630,111 C630,112.487 631.205,113.692 632.692,113.692 L638.077,113.692 L638.077,127.154 L632.692,127.154 C631.205,127.154 630,128.359 630,129.846 C630,131.333 631.205,132.538 632.692,132.538 L638.077,132.538 L638.077,140.615 C638.077,142.043 638.644,143.413 639.654,144.423 C640.664,145.433 642.033,146 643.462,146 L691.923,146 C693.351,146 694.721,145.433 695.731,144.423 C696.74,143.413 697.308,142.043 697.308,140.615 L697.308,81.385 C697.308,79.957 696.74,78.587 695.731,77.577 C694.721,76.567 693.351,76 691.923,76 Z M691.923,140.615 L643.462,140.615 L643.462,81.385 L691.923,81.385 Z" />
        </g>
    </g>
</svg>