<?xml version="1.0" encoding="UTF-8"?>
<svg height="600" width="800" xmlns="http://www.w3.org/2000/svg" xmlns:xlink="http://www.w3.org/1999/xlink">
    <g id="Notes" font-family="'LucidaGrande', 'Lucida Grande', sans-serif" font-size="13">
        <rect fill="white" height="600.0" width="800.0" x="0.0" y="0.0" />
        <g font-size="13">
            <text x="18.0" y="176.0">Small</text>
            <text x="18.0" y="376.0">Medium</text>
            <text x="18.0" y="576.0">Large</text>
        </g>
        <g font-size="9">
            <text x="250.0" y="30.0">Ultralight</text>
            <text x="450.0" y="30.0">Regular</text>
            <text x="650.0" y="30.0">Black</text>
            <text id="template-version" fill="#505050" text-anchor="end" x="785.0" y="575.0">Template v.3.0</text>
            <a href="https://github.com/swhitty/SwiftDraw">
                <text fill="#505050" text-anchor="end" x="785.0" y="590.0">https://github.com/swhitty/SwiftDraw</text>
            </a>
        </g>
    </g>
    <g id="Guides" stroke="rgb(39, 170, 225)" stroke-width="0.5">
        <path id="Capline-S" d="M18,76 l800,0" />
        <path id="H-reference" d="M85,145.755 L87.685,145.755 L113.369,79.287 L114.052,79.287 L114.052,76 L112.148,76 L85,145.755 Z M95.693,121.536 L130.996,121.536 L130.263,119.313 L96.474,119.313 L95.693,121.536 Z M139.15,145.755 L141.787,145.755 L114.638,76 L113.466,76 L113.466,79.287 L139.15,145.755 Z" stroke="none" />
        <path id="Baseline-S" d="M18,146 l800,0" />
        <path id="left-margin-Ultralight-S" d="M220,56 l0,110" />
        <path id="right-margin-Ultralight-S" d="M310,56 l0,110" />
        <path id="left-margin-Regular-S" d="M420,56 l0,110" />
        <path id="right-margin-Regular-S" d="M510,56 l0,110" />
        <path id="left-margin-Black-S" d="M620,56 l0,110" />
        <path id="right-margin-Black-S" d="M710,56 l0,110" />
        <path id="Capline-M" d="M18,276 l800,0" />
        <path id="Baseline-M" d="M18,346 l800,0" />
        <path id="Capline-L" d="M18,476 l800,0" />
        <path id="Baseline-L" d="M18,546 l800,0" />
    </g>
    <g id="Symbols">
        <g id="Ultralight-S">
            <path d="M297.308,81.385 L297.308,93.5 C297.308,94.987 296.102,96.192 294.615,96.192 C293.128,96.192 291.923,94.987 291.923,93.5 L291.923,84.077 L282.5,84.077 C281.013,84.077 279.808,82.872 279.808,81.385 C279.808,79.898 281.013,78.692 282.5,78.692 L294.615,78.692 C295.329,78.692 296.014,78.976 296.519,79.481 C297.024,79.986 297.308,80.671 297.308,81.385 Z M294.615,125.808 C293.901,125.808 293.217,126.091 292.712,126.596 C292.207,127.101 291.923,127.786 291.923,128.5 L291.923,137.923 L282.5,137.923 C281.013,137.923 279.808,139.128 279.808,140.615 C279.808,142.102 281.013,143.308 282.5,143.308 L294.615,143.308 C295.329,143.308 296.014,143.024 296.519,142.519 C297.024,142.014 297.308,141.329 297.308,140.615 L297.308,128.5 C297.308,127.786 297.024,127.101 296.519,126.596 C296.014,126.091 295.329,125.808 294.615,125.808 Z M247.5,137.923 L238.077,137.923 L238.077,128.5 C238.077,127.013 236.872,125.808 235.385,125.808 C233.898,125.808 232.692,127.013 232.692,128.5 L232.692,140.615 C232.692,141.329 232.976,142.014 233.481,142.519 C233.986,143.024 234.671,143.308 235.385,143.308 L247.5,143.308 C248.987,143.308 250.192,142.102 250.192,140.615 C250.192,139.128 248.987,137.923 247.5,137.923 Z M235.385,96.192 C236.099,96.192 236.783,95.909 237.288,95.404 C237.793,94.899 238.077,94.214 238.077,93.5 L238.077,84.077 L247.5,84.077 C248.987,84.077 250.192,82.872 250.192,81.385 C250.192,79.898 248.987,78.692 247.5,78.692 L235.385,78.692 C234.671,78.692 233.986,78.976 233.481,79.481 C232.976,79.986 232.692,80.671 232.692,81.385 L232.692,93.5 C232.692,94.214 232.976,94.899 233.481,95.404 C233.986,95.909 234.671,96.192 235.385,96.192 Z M281.154,127.154 C280.306,127.156 279.507,126.758 278.997,126.08 C275.692,121.674 270.505,119.08 264.997,119.08 C259.488,119.08 254.302,121.674 250.997,126.08 C250.105,127.269 248.417,127.51 247.226,126.617 C246.036,125.724 245.795,124.035 246.687,122.845 C249.074,119.649 252.254,117.133 255.913,115.547 C251.81,111.8 250.43,105.918 252.439,100.738 C254.448,95.557 259.434,92.144 264.99,92.144 C270.546,92.144 275.531,95.557 277.541,100.738 C279.55,105.918 278.17,111.8 274.066,115.547 C277.727,117.132 280.91,119.647 283.298,122.843 C283.91,123.657 284.011,124.748 283.557,125.66 C283.103,126.573 282.173,127.151 281.154,127.154 Z M265,113.692 C269.461,113.692 273.077,110.076 273.077,105.615 C273.077,101.155 269.461,97.538 265,97.538 C260.539,97.538 256.923,101.155 256.923,105.615 C256.923,107.758 257.774,109.812 259.289,111.327 C260.803,112.841 262.858,113.692 265,113.692 Z" />
        </g>
        <g id="Regular-S">
            <path d="M497.308,81.385 L497.308,93.5 C497.308,94.987 496.102,96.192 494.615,96.192 C493.128,96.192 491.923,94.987 491.923,93.5 L491.923,84.077 L482.5,84.077 C481.013,84.077 479.808,82.872 479.808,81.385 C479.808,79.898 481.013,78.692 482.5,78.692 L494.615,78.692 C495.329,78.692 496.014,78.976 496.519,79.481 C497.024,79.986 497.308,80.671 497.308,81.385 Z M494.615,125.808 C493.901,125.808 493.217,126.091 492.712,126.596 C492.207,127.101 491.923,127.786 491.923,128.5 L491.923,137.923 L482.5,137.923 C481.013,137.923 479.808,139.128 479.808,140.615 C479.808,142.102 481.013,143.308 482.5,143.308 L494.615,143.308 C495.329,143.308 496.014,143.024 496.519,142.519 C497.024,142.014 497.308,141.329 497.308,140.615 L497.308,128.5 C497.308,127.786 497.024,127.101 496.519,126.596 C496.014,126.091 495.329,125.808 494.615,125.808 Z M447.5,137.923 L438.077,137.923 L438.077,128.5 C438.077,127.013 436.872,125.808 435.385,125.808 C433.898,125.808 432.692,127.013 432.692,128.5 L432.692,140.615 C432.692,141.329 432.976,142.014 433.481,142.519 C433.986,143.024 434.671,143.308 435.385,143.308 L447.5,143.308 C448.987,143.308 450.192,142.102 450.192,140.615 C450.192,139.128 448.987,137.923 447.5,137.923 Z M435.385,96.192 C436.099,96.192 436.783,95.909 437.288,95.404 C437.793,94.899 438.077,94.214 438.077,93.5 L438.077,84.077 L447.5,84.077 C448.987,84.077 450.192,82.872 450.192,81.385 C450.192,79.898 448.987,78.692 447.5,78.692 L435.385,78.692 C434.671,78.692 433.986,78.976 433.481,79.481 C432.976,79.986 432.692,80.671 432.692,81.385 L432.692,93.5 C432.692,94.214 432.976,94.899 433.481,95.404 C433.986,95.909 434.671,96.192 435.385,96.192 Z M481.154,127.154 C480.306,127.156 479.507,126.758 478.997,126.08 C475.692,121.674 470.505,119.08 464.997,119.08 C459.488,119.08 454.302,121.674 450.997,126.08 C450.105,127.269 448.417,127.51 447.226,126.617 C446.036,125.724 445.794,124.035 446.687,122.845 C449.074,119.649 452.254,117.133 455.913,115.547 C451.81,111.8 450.43,105.918 452.439,100.738 C454.448,95.557 459.434,92.144 464.99,92.144 C470.546,92.144 475.531,95.557 477.541,100.738 C479.55,105.918 478.17,111.8 474.066,115.547 C477.727,117.132 480.91,119.647 483.298,122.843 C483.91,123.657 484.011,124.748 483.557,125.66 C483.103,126.573 482.173,127.151 481.154,127.154 Z M465,113.692 C469.461,113.692 473.077,110.076 473.077,105.615 C473.077,101.155 469.461,97.538 465,97.538 C460.539,97.538 456.923,101.155 456.923,105.615 C456.923,107.758 457.774,109.812 459.289,111.327 C460.803,112.841 462.858,113.692 465,113.692 Z" />
        </g>
        <g id="Black-S">
            <path d="M697.308,81.385 L697.308,93.5 C697.308,94.987 696.102,96.192 694.615,96.192 C693.128,96.192 691.923,94.987 691.923,93.5 L691.923,84.077 L682.5,84.077 C681.013,84.077 679.808,82.872 679.808,81.385 C679.808,79.898 681.013,78.692 682.5,78.692 L694.615,78.692 C695.329,78.692 696.014,78.976 696.519,79.481 C697.024,79.986 697.308,80.671 697.308,81.385 Z M694.615,125.808 C693.901,125.808 693.217,126.091 692.712,126.596 C692.207,127.101 691.923,127.786 691.923,128.5 L691.923,137.923 L682.5,137.923 C681.013,137.923 679.808,139.128 679.808,140.615 C679.808,142.102 681.013,143.308 682.5,143.308 L694.615,143.308 C695.329,143.308 696.014,143.024 696.519,142.519 C697.024,142.014 697.308,141.329 697.308,140.615 L697.308,128.5 C697.308,127.786 697.024,127.101 696.519,126.596 C696.014,126.091 695.329,125.808 694.615,125.808 Z M647.5,137.923 L638.077,137.923 L638.077,128.5 C638.077,127.013 636.872,125.808 635.385,125.808 C633.898,125.808 632.692,127.013 632.692,128.5 L632.692,140.615 C632.692,141.329 632.976,142.014 633.481,142.519 C633.986,143.024 634.671,143.308 635.385,143.308 L647.5,143.308 C648.987,143.308 650.192,142.102 650.192,140.615 C650.192,139.128 648.987,137.923 647.5,137.923 Z M635.385,96.192 C636.099,96.192 636.783,95.909 637.288,95.404 C637.793,94.899 638.077,94.214 638.077,93.5 L638.077,84.077 L647.5,84.077 C648.987,84.077 650.192,82.872 650.192,81.385 C650.192,79.898 648.987,78.692 647.5,78.692 L635.385,78.692 C634.671,78.692 633.986,78.976 633.481,79.481 C632.976,79.986 632.692,80.671 632.692,81.385 L632.692,93.5 C632.692,94.214 632.976,94.899 633.481,95.404 C633.986,95.909 634.671,96.192 635.385,96.192 Z M681.154,127.154 C680.306,127.156 679.507,126.758 678.997,126.08 C675.692,121.674 670.505,119.08 664.997,119.08 C659.488,119.08 654.302,121.674 650.997,126.08 C650.105,127.269 648.417,127.51 647.226,126.617 C646.036,125.724 645.794,124.035 646.687,122.845 C649.074,119.649 652.254,117.133 655.913,115.547 C651.81,111.8 650.43,105.918 652.439,100.738 C654.448,95.557 659.434,92.144 664.99,92.144 C670.546,92.144 675.531,95.557 677.541,100.738 C679.55,105.918 678.17,111.8 674.066,115.547 C677.727,117.132 680.91,119.647 683.298,122.843 C683.91,123.657 684.011,124.748 683.557,125.66 C683.103,126.573 682.173,127.151 681.154,127.154 Z M665,113.692 C669.461,113.692 673.077,110.076 673.077,105.615 C673.077,101.155 669.461,97.538 665,97.538 C660.539,97.538 656.923,101.155 656.923,105.615 C656.923,107.758 657.774,109.812 659.289,111.327 C660.803,112.841 662.858,113.692 665,113.692 Z" />
        </g>
    </g>
</svg>